G04*
G04 #@! TF.GenerationSoftware,Altium Limited,Altium Designer,22.5.1 (42)*
G04*
G04 Layer_Color=16711935*
%FSLAX25Y25*%
%MOIN*%
G70*
G04*
G04 #@! TF.SameCoordinates,A2539C74-7FEE-43BD-A04A-5197B4AA8E51*
G04*
G04*
G04 #@! TF.FilePolarity,Negative*
G04*
G01*
G75*
%ADD15R,0.02902X0.08374*%
%ADD16R,0.11051X0.14673*%
%ADD18C,0.04516*%
%ADD19C,0.12311*%
%ADD20C,0.02200*%
%ADD42R,0.01900X0.06300*%
%ADD43R,0.10500X0.03020*%
%ADD44R,0.19004X0.03020*%
%ADD45R,0.02311X0.06209*%
G04:AMPARAMS|DCode=46|XSize=29.59mil|YSize=19.75mil|CornerRadius=5.94mil|HoleSize=0mil|Usage=FLASHONLY|Rotation=90.000|XOffset=0mil|YOffset=0mil|HoleType=Round|Shape=RoundedRectangle|*
%AMROUNDEDRECTD46*
21,1,0.02959,0.00787,0,0,90.0*
21,1,0.01772,0.01975,0,0,90.0*
1,1,0.01187,0.00394,0.00886*
1,1,0.01187,0.00394,-0.00886*
1,1,0.01187,-0.00394,-0.00886*
1,1,0.01187,-0.00394,0.00886*
%
%ADD46ROUNDEDRECTD46*%
G04:AMPARAMS|DCode=47|XSize=29.59mil|YSize=15.81mil|CornerRadius=4.95mil|HoleSize=0mil|Usage=FLASHONLY|Rotation=90.000|XOffset=0mil|YOffset=0mil|HoleType=Round|Shape=RoundedRectangle|*
%AMROUNDEDRECTD47*
21,1,0.02959,0.00591,0,0,90.0*
21,1,0.01968,0.01581,0,0,90.0*
1,1,0.00991,0.00295,0.00984*
1,1,0.00991,0.00295,-0.00984*
1,1,0.00991,-0.00295,-0.00984*
1,1,0.00991,-0.00295,0.00984*
%
%ADD47ROUNDEDRECTD47*%
G04:AMPARAMS|DCode=48|XSize=23.68mil|YSize=27.62mil|CornerRadius=7.12mil|HoleSize=0mil|Usage=FLASHONLY|Rotation=270.000|XOffset=0mil|YOffset=0mil|HoleType=Round|Shape=RoundedRectangle|*
%AMROUNDEDRECTD48*
21,1,0.02368,0.01339,0,0,270.0*
21,1,0.00945,0.02762,0,0,270.0*
1,1,0.01424,-0.00669,-0.00472*
1,1,0.01424,-0.00669,0.00472*
1,1,0.01424,0.00669,0.00472*
1,1,0.01424,0.00669,-0.00472*
%
%ADD48ROUNDEDRECTD48*%
G04:AMPARAMS|DCode=49|XSize=25.26mil|YSize=27.62mil|CornerRadius=7.53mil|HoleSize=0mil|Usage=FLASHONLY|Rotation=180.000|XOffset=0mil|YOffset=0mil|HoleType=Round|Shape=RoundedRectangle|*
%AMROUNDEDRECTD49*
21,1,0.02526,0.01257,0,0,180.0*
21,1,0.01021,0.02762,0,0,180.0*
1,1,0.01506,-0.00510,0.00628*
1,1,0.01506,0.00510,0.00628*
1,1,0.01506,0.00510,-0.00628*
1,1,0.01506,-0.00510,-0.00628*
%
%ADD49ROUNDEDRECTD49*%
G04:AMPARAMS|DCode=50|XSize=25.26mil|YSize=27.62mil|CornerRadius=7.53mil|HoleSize=0mil|Usage=FLASHONLY|Rotation=270.000|XOffset=0mil|YOffset=0mil|HoleType=Round|Shape=RoundedRectangle|*
%AMROUNDEDRECTD50*
21,1,0.02526,0.01257,0,0,270.0*
21,1,0.01021,0.02762,0,0,270.0*
1,1,0.01506,-0.00628,-0.00510*
1,1,0.01506,-0.00628,0.00510*
1,1,0.01506,0.00628,0.00510*
1,1,0.01506,0.00628,-0.00510*
%
%ADD50ROUNDEDRECTD50*%
G04:AMPARAMS|DCode=51|XSize=23.68mil|YSize=27.62mil|CornerRadius=7.12mil|HoleSize=0mil|Usage=FLASHONLY|Rotation=180.000|XOffset=0mil|YOffset=0mil|HoleType=Round|Shape=RoundedRectangle|*
%AMROUNDEDRECTD51*
21,1,0.02368,0.01339,0,0,180.0*
21,1,0.00945,0.02762,0,0,180.0*
1,1,0.01424,-0.00472,0.00669*
1,1,0.01424,0.00472,0.00669*
1,1,0.01424,0.00472,-0.00669*
1,1,0.01424,-0.00472,-0.00669*
%
%ADD51ROUNDEDRECTD51*%
G36*
X100424Y-77008D02*
X100525Y-77017D01*
X100645Y-77026D01*
X100766Y-77044D01*
X100905Y-77063D01*
X101200Y-77128D01*
X101348Y-77174D01*
X101497Y-77220D01*
X101645Y-77285D01*
X101783Y-77359D01*
X101913Y-77442D01*
X102033Y-77535D01*
X102042Y-77544D01*
X102061Y-77562D01*
X102088Y-77590D01*
X102126Y-77627D01*
X102172Y-77683D01*
X102227Y-77747D01*
X102283Y-77821D01*
X102348Y-77905D01*
X102403Y-78007D01*
X102459Y-78108D01*
X102514Y-78228D01*
X102560Y-78358D01*
X102606Y-78487D01*
X102644Y-78636D01*
X102671Y-78784D01*
X102681Y-78950D01*
X101385Y-78996D01*
Y-78987D01*
Y-78978D01*
X101367Y-78913D01*
X101348Y-78830D01*
X101312Y-78728D01*
X101265Y-78608D01*
X101200Y-78497D01*
X101117Y-78386D01*
X101025Y-78293D01*
X101015Y-78284D01*
X100979Y-78256D01*
X100914Y-78219D01*
X100821Y-78182D01*
X100710Y-78145D01*
X100572Y-78108D01*
X100405Y-78080D01*
X100211Y-78071D01*
X100118D01*
X100016Y-78080D01*
X99896Y-78099D01*
X99757Y-78127D01*
X99610Y-78173D01*
X99471Y-78228D01*
X99341Y-78312D01*
X99332Y-78321D01*
X99313Y-78339D01*
X99277Y-78367D01*
X99239Y-78413D01*
X99203Y-78469D01*
X99165Y-78543D01*
X99147Y-78617D01*
X99138Y-78710D01*
Y-78719D01*
Y-78746D01*
X99147Y-78793D01*
X99165Y-78839D01*
X99184Y-78904D01*
X99212Y-78969D01*
X99258Y-79033D01*
X99323Y-79098D01*
X99332Y-79107D01*
X99378Y-79135D01*
X99406Y-79154D01*
X99452Y-79172D01*
X99498Y-79200D01*
X99563Y-79228D01*
X99637Y-79255D01*
X99721Y-79292D01*
X99822Y-79329D01*
X99924Y-79366D01*
X100054Y-79403D01*
X100192Y-79440D01*
X100340Y-79477D01*
X100507Y-79523D01*
X100516D01*
X100553Y-79533D01*
X100599Y-79542D01*
X100664Y-79561D01*
X100738Y-79579D01*
X100830Y-79607D01*
X100932Y-79634D01*
X101034Y-79662D01*
X101256Y-79736D01*
X101487Y-79810D01*
X101709Y-79893D01*
X101802Y-79940D01*
X101894Y-79986D01*
X101903D01*
X101913Y-79995D01*
X101968Y-80032D01*
X102051Y-80088D01*
X102153Y-80162D01*
X102264Y-80254D01*
X102384Y-80365D01*
X102505Y-80495D01*
X102606Y-80643D01*
X102616Y-80661D01*
X102644Y-80717D01*
X102690Y-80800D01*
X102736Y-80920D01*
X102782Y-81068D01*
X102829Y-81244D01*
X102856Y-81438D01*
X102866Y-81660D01*
Y-81669D01*
Y-81688D01*
Y-81716D01*
Y-81753D01*
X102856Y-81799D01*
X102847Y-81864D01*
X102829Y-81993D01*
X102792Y-82160D01*
X102736Y-82336D01*
X102653Y-82511D01*
X102551Y-82696D01*
Y-82705D01*
X102532Y-82715D01*
X102496Y-82770D01*
X102421Y-82863D01*
X102329Y-82964D01*
X102209Y-83085D01*
X102051Y-83196D01*
X101885Y-83307D01*
X101681Y-83408D01*
X101672D01*
X101654Y-83418D01*
X101626Y-83427D01*
X101580Y-83446D01*
X101524Y-83464D01*
X101460Y-83482D01*
X101385Y-83501D01*
X101302Y-83520D01*
X101200Y-83547D01*
X101099Y-83566D01*
X100858Y-83603D01*
X100590Y-83631D01*
X100294Y-83640D01*
X100174D01*
X100091Y-83631D01*
X99989Y-83621D01*
X99878Y-83612D01*
X99748Y-83593D01*
X99610Y-83566D01*
X99304Y-83501D01*
X99147Y-83455D01*
X98999Y-83408D01*
X98842Y-83344D01*
X98694Y-83270D01*
X98555Y-83187D01*
X98426Y-83085D01*
X98416Y-83075D01*
X98398Y-83057D01*
X98361Y-83029D01*
X98324Y-82983D01*
X98268Y-82918D01*
X98213Y-82844D01*
X98148Y-82761D01*
X98083Y-82669D01*
X98018Y-82557D01*
X97954Y-82437D01*
X97889Y-82298D01*
X97824Y-82151D01*
X97778Y-81993D01*
X97723Y-81818D01*
X97685Y-81633D01*
X97658Y-81438D01*
X98916Y-81318D01*
Y-81327D01*
X98925Y-81346D01*
Y-81383D01*
X98934Y-81420D01*
X98971Y-81531D01*
X99018Y-81669D01*
X99073Y-81827D01*
X99156Y-81984D01*
X99249Y-82123D01*
X99369Y-82252D01*
X99388Y-82262D01*
X99434Y-82298D01*
X99508Y-82345D01*
X99619Y-82400D01*
X99757Y-82456D01*
X99915Y-82502D01*
X100100Y-82539D01*
X100312Y-82548D01*
X100414D01*
X100525Y-82530D01*
X100664Y-82511D01*
X100812Y-82484D01*
X100969Y-82437D01*
X101117Y-82372D01*
X101247Y-82289D01*
X101265Y-82280D01*
X101302Y-82243D01*
X101348Y-82187D01*
X101413Y-82113D01*
X101469Y-82021D01*
X101524Y-81910D01*
X101561Y-81799D01*
X101570Y-81669D01*
Y-81660D01*
Y-81633D01*
X101561Y-81586D01*
X101552Y-81531D01*
X101533Y-81475D01*
X101515Y-81410D01*
X101478Y-81346D01*
X101432Y-81281D01*
X101423Y-81272D01*
X101404Y-81253D01*
X101376Y-81226D01*
X101330Y-81188D01*
X101265Y-81142D01*
X101182Y-81096D01*
X101090Y-81050D01*
X100969Y-81003D01*
X100960D01*
X100923Y-80985D01*
X100858Y-80967D01*
X100812Y-80948D01*
X100757Y-80939D01*
X100692Y-80920D01*
X100618Y-80892D01*
X100534Y-80874D01*
X100442Y-80846D01*
X100331Y-80818D01*
X100211Y-80791D01*
X100081Y-80754D01*
X99933Y-80717D01*
X99924D01*
X99887Y-80708D01*
X99831Y-80689D01*
X99767Y-80670D01*
X99683Y-80643D01*
X99582Y-80615D01*
X99480Y-80578D01*
X99360Y-80541D01*
X99119Y-80449D01*
X98888Y-80338D01*
X98768Y-80282D01*
X98666Y-80217D01*
X98564Y-80152D01*
X98481Y-80088D01*
X98472Y-80079D01*
X98453Y-80060D01*
X98426Y-80032D01*
X98388Y-79995D01*
X98342Y-79940D01*
X98296Y-79875D01*
X98241Y-79810D01*
X98194Y-79727D01*
X98083Y-79533D01*
X97991Y-79311D01*
X97954Y-79190D01*
X97926Y-79070D01*
X97908Y-78931D01*
X97898Y-78793D01*
Y-78784D01*
Y-78774D01*
Y-78746D01*
Y-78710D01*
X97917Y-78617D01*
X97935Y-78497D01*
X97963Y-78358D01*
X98009Y-78201D01*
X98074Y-78034D01*
X98167Y-77877D01*
Y-77868D01*
X98176Y-77859D01*
X98222Y-77803D01*
X98277Y-77729D01*
X98370Y-77636D01*
X98481Y-77535D01*
X98620Y-77424D01*
X98777Y-77322D01*
X98962Y-77229D01*
X98971D01*
X98990Y-77220D01*
X99018Y-77211D01*
X99054Y-77192D01*
X99110Y-77174D01*
X99165Y-77156D01*
X99239Y-77137D01*
X99323Y-77109D01*
X99508Y-77072D01*
X99721Y-77035D01*
X99961Y-77008D01*
X100229Y-76998D01*
X100340D01*
X100424Y-77008D01*
D02*
G37*
G36*
X49243Y-77008D02*
X49345Y-77017D01*
X49465Y-77026D01*
X49586Y-77044D01*
X49724Y-77063D01*
X50020Y-77128D01*
X50168Y-77174D01*
X50316Y-77220D01*
X50464Y-77285D01*
X50603Y-77359D01*
X50732Y-77442D01*
X50853Y-77535D01*
X50862Y-77544D01*
X50880Y-77562D01*
X50908Y-77590D01*
X50945Y-77627D01*
X50991Y-77683D01*
X51047Y-77747D01*
X51103Y-77821D01*
X51167Y-77905D01*
X51223Y-78007D01*
X51278Y-78108D01*
X51334Y-78228D01*
X51380Y-78358D01*
X51426Y-78487D01*
X51463Y-78636D01*
X51491Y-78784D01*
X51500Y-78950D01*
X50205Y-78996D01*
Y-78987D01*
Y-78978D01*
X50187Y-78913D01*
X50168Y-78830D01*
X50131Y-78728D01*
X50085Y-78608D01*
X50020Y-78497D01*
X49937Y-78386D01*
X49845Y-78293D01*
X49835Y-78284D01*
X49798Y-78256D01*
X49733Y-78219D01*
X49641Y-78182D01*
X49530Y-78145D01*
X49391Y-78108D01*
X49225Y-78080D01*
X49031Y-78071D01*
X48938D01*
X48836Y-78080D01*
X48716Y-78099D01*
X48577Y-78127D01*
X48429Y-78173D01*
X48291Y-78228D01*
X48161Y-78312D01*
X48152Y-78321D01*
X48133Y-78339D01*
X48096Y-78367D01*
X48059Y-78413D01*
X48022Y-78469D01*
X47985Y-78543D01*
X47967Y-78617D01*
X47958Y-78710D01*
Y-78719D01*
Y-78746D01*
X47967Y-78793D01*
X47985Y-78839D01*
X48004Y-78904D01*
X48031Y-78969D01*
X48078Y-79033D01*
X48142Y-79098D01*
X48152Y-79107D01*
X48198Y-79135D01*
X48226Y-79154D01*
X48272Y-79172D01*
X48318Y-79200D01*
X48383Y-79228D01*
X48457Y-79255D01*
X48540Y-79292D01*
X48642Y-79329D01*
X48744Y-79366D01*
X48873Y-79403D01*
X49012Y-79440D01*
X49160Y-79477D01*
X49327Y-79523D01*
X49336D01*
X49373Y-79533D01*
X49419Y-79542D01*
X49484Y-79561D01*
X49558Y-79579D01*
X49650Y-79607D01*
X49752Y-79634D01*
X49854Y-79662D01*
X50076Y-79736D01*
X50307Y-79810D01*
X50529Y-79893D01*
X50621Y-79940D01*
X50714Y-79986D01*
X50723D01*
X50732Y-79995D01*
X50788Y-80032D01*
X50871Y-80088D01*
X50973Y-80162D01*
X51084Y-80254D01*
X51204Y-80365D01*
X51324Y-80495D01*
X51426Y-80643D01*
X51436Y-80661D01*
X51463Y-80717D01*
X51509Y-80800D01*
X51556Y-80920D01*
X51602Y-81068D01*
X51648Y-81244D01*
X51676Y-81438D01*
X51685Y-81660D01*
Y-81669D01*
Y-81688D01*
Y-81716D01*
Y-81753D01*
X51676Y-81799D01*
X51667Y-81864D01*
X51648Y-81993D01*
X51611Y-82160D01*
X51556Y-82336D01*
X51473Y-82511D01*
X51371Y-82696D01*
Y-82705D01*
X51352Y-82715D01*
X51315Y-82770D01*
X51241Y-82863D01*
X51149Y-82964D01*
X51029Y-83085D01*
X50871Y-83196D01*
X50705Y-83307D01*
X50501Y-83408D01*
X50492D01*
X50473Y-83418D01*
X50446Y-83427D01*
X50400Y-83446D01*
X50344Y-83464D01*
X50279Y-83482D01*
X50205Y-83501D01*
X50122Y-83520D01*
X50020Y-83547D01*
X49918Y-83566D01*
X49678Y-83603D01*
X49410Y-83631D01*
X49114Y-83640D01*
X48994D01*
X48910Y-83631D01*
X48809Y-83621D01*
X48698Y-83612D01*
X48568Y-83593D01*
X48429Y-83566D01*
X48124Y-83501D01*
X47967Y-83455D01*
X47819Y-83408D01*
X47662Y-83344D01*
X47513Y-83270D01*
X47375Y-83187D01*
X47245Y-83085D01*
X47236Y-83075D01*
X47218Y-83057D01*
X47181Y-83029D01*
X47144Y-82983D01*
X47088Y-82918D01*
X47032Y-82844D01*
X46968Y-82761D01*
X46903Y-82669D01*
X46838Y-82557D01*
X46773Y-82437D01*
X46709Y-82298D01*
X46644Y-82151D01*
X46598Y-81993D01*
X46542Y-81818D01*
X46505Y-81633D01*
X46477Y-81438D01*
X47736Y-81318D01*
Y-81327D01*
X47745Y-81346D01*
Y-81383D01*
X47754Y-81420D01*
X47791Y-81531D01*
X47837Y-81669D01*
X47893Y-81827D01*
X47976Y-81984D01*
X48068Y-82123D01*
X48189Y-82252D01*
X48207Y-82262D01*
X48254Y-82298D01*
X48327Y-82345D01*
X48439Y-82400D01*
X48577Y-82456D01*
X48735Y-82502D01*
X48919Y-82539D01*
X49132Y-82548D01*
X49234D01*
X49345Y-82530D01*
X49484Y-82511D01*
X49632Y-82484D01*
X49789Y-82437D01*
X49937Y-82372D01*
X50067Y-82289D01*
X50085Y-82280D01*
X50122Y-82243D01*
X50168Y-82187D01*
X50233Y-82113D01*
X50288Y-82021D01*
X50344Y-81910D01*
X50381Y-81799D01*
X50390Y-81669D01*
Y-81660D01*
Y-81633D01*
X50381Y-81586D01*
X50372Y-81531D01*
X50353Y-81475D01*
X50335Y-81410D01*
X50298Y-81346D01*
X50252Y-81281D01*
X50242Y-81272D01*
X50224Y-81253D01*
X50196Y-81226D01*
X50150Y-81188D01*
X50085Y-81142D01*
X50002Y-81096D01*
X49909Y-81050D01*
X49789Y-81003D01*
X49780D01*
X49743Y-80985D01*
X49678Y-80967D01*
X49632Y-80948D01*
X49576Y-80939D01*
X49512Y-80920D01*
X49437Y-80892D01*
X49354Y-80874D01*
X49262Y-80846D01*
X49151Y-80818D01*
X49031Y-80791D01*
X48901Y-80754D01*
X48753Y-80717D01*
X48744D01*
X48707Y-80708D01*
X48651Y-80689D01*
X48586Y-80670D01*
X48503Y-80643D01*
X48401Y-80615D01*
X48300Y-80578D01*
X48180Y-80541D01*
X47939Y-80449D01*
X47708Y-80338D01*
X47587Y-80282D01*
X47486Y-80217D01*
X47384Y-80152D01*
X47301Y-80088D01*
X47291Y-80079D01*
X47273Y-80060D01*
X47245Y-80032D01*
X47208Y-79995D01*
X47162Y-79940D01*
X47116Y-79875D01*
X47060Y-79810D01*
X47014Y-79727D01*
X46903Y-79533D01*
X46810Y-79311D01*
X46773Y-79190D01*
X46746Y-79070D01*
X46727Y-78931D01*
X46718Y-78793D01*
Y-78784D01*
Y-78774D01*
Y-78746D01*
Y-78710D01*
X46736Y-78617D01*
X46755Y-78497D01*
X46783Y-78358D01*
X46829Y-78201D01*
X46894Y-78034D01*
X46986Y-77877D01*
Y-77868D01*
X46995Y-77859D01*
X47042Y-77803D01*
X47097Y-77729D01*
X47190Y-77636D01*
X47301Y-77535D01*
X47440Y-77424D01*
X47597Y-77322D01*
X47782Y-77229D01*
X47791D01*
X47809Y-77220D01*
X47837Y-77211D01*
X47874Y-77192D01*
X47930Y-77174D01*
X47985Y-77156D01*
X48059Y-77137D01*
X48142Y-77109D01*
X48327Y-77072D01*
X48540Y-77035D01*
X48781Y-77008D01*
X49049Y-76998D01*
X49160D01*
X49243Y-77008D01*
D02*
G37*
G36*
X107204Y-79616D02*
X109748Y-83520D01*
X108073D01*
X106307Y-80513D01*
X105261Y-81586D01*
Y-83520D01*
X103966D01*
Y-77118D01*
X105261D01*
Y-79967D01*
X107888Y-77118D01*
X109627D01*
X107204Y-79616D01*
D02*
G37*
G36*
X90230Y-83520D02*
X89037D01*
X89028Y-78487D01*
X87770Y-83520D01*
X86521D01*
X85263Y-78487D01*
Y-83520D01*
X84070D01*
Y-77118D01*
X86003D01*
X87150Y-81494D01*
X88288Y-77118D01*
X90230D01*
Y-83520D01*
D02*
G37*
G36*
X43018D02*
X41825D01*
X41816Y-78487D01*
X40558Y-83520D01*
X39309D01*
X38051Y-78487D01*
Y-83520D01*
X36858D01*
Y-77118D01*
X38791D01*
X39938Y-81494D01*
X41076Y-77118D01*
X43018D01*
Y-83520D01*
D02*
G37*
G36*
X97306Y-83520D02*
X95910D01*
X95354Y-82067D01*
X92783D01*
X92256Y-83520D01*
X90887Y-83520D01*
X93366Y-77118D01*
X94735D01*
X97306Y-83520D01*
D02*
G37*
G36*
X80601Y-77128D02*
X80703D01*
X80804Y-77137D01*
X80924D01*
X81165Y-77165D01*
X81415Y-77192D01*
X81646Y-77239D01*
X81748Y-77267D01*
X81840Y-77294D01*
X81849D01*
X81859Y-77303D01*
X81914Y-77331D01*
X81998Y-77377D01*
X82108Y-77433D01*
X82229Y-77526D01*
X82349Y-77627D01*
X82469Y-77757D01*
X82580Y-77914D01*
Y-77923D01*
X82590Y-77933D01*
X82608Y-77960D01*
X82626Y-77988D01*
X82673Y-78080D01*
X82728Y-78201D01*
X82775Y-78349D01*
X82821Y-78515D01*
X82858Y-78710D01*
X82867Y-78913D01*
Y-78922D01*
Y-78941D01*
Y-78987D01*
X82858Y-79033D01*
Y-79098D01*
X82849Y-79163D01*
X82811Y-79329D01*
X82765Y-79523D01*
X82691Y-79718D01*
X82580Y-79921D01*
X82516Y-80014D01*
X82442Y-80106D01*
X82432Y-80115D01*
X82423Y-80125D01*
X82395Y-80152D01*
X82358Y-80180D01*
X82321Y-80217D01*
X82266Y-80264D01*
X82201Y-80310D01*
X82127Y-80356D01*
X82044Y-80411D01*
X81942Y-80458D01*
X81840Y-80504D01*
X81729Y-80550D01*
X81600Y-80597D01*
X81470Y-80633D01*
X81331Y-80670D01*
X81174Y-80698D01*
X81183D01*
X81193Y-80708D01*
X81248Y-80744D01*
X81322Y-80791D01*
X81415Y-80856D01*
X81526Y-80939D01*
X81637Y-81022D01*
X81757Y-81124D01*
X81859Y-81235D01*
X81868Y-81244D01*
X81914Y-81290D01*
X81970Y-81364D01*
X82053Y-81475D01*
X82164Y-81614D01*
X82219Y-81707D01*
X82284Y-81799D01*
X82358Y-81901D01*
X82432Y-82012D01*
X82516Y-82141D01*
X82599Y-82271D01*
X83385Y-83520D01*
X81831D01*
X80906Y-82132D01*
X80897Y-82123D01*
X80888Y-82095D01*
X80860Y-82058D01*
X80823Y-82012D01*
X80786Y-81956D01*
X80739Y-81882D01*
X80638Y-81734D01*
X80518Y-81568D01*
X80406Y-81420D01*
X80305Y-81281D01*
X80259Y-81235D01*
X80221Y-81188D01*
X80212Y-81179D01*
X80194Y-81161D01*
X80157Y-81124D01*
X80111Y-81077D01*
X80046Y-81041D01*
X79981Y-80994D01*
X79907Y-80957D01*
X79833Y-80920D01*
X79824D01*
X79796Y-80911D01*
X79750Y-80892D01*
X79676Y-80883D01*
X79583Y-80865D01*
X79472Y-80856D01*
X79343Y-80846D01*
X78926D01*
Y-83520D01*
X77631D01*
Y-77118D01*
X80518D01*
X80601Y-77128D01*
D02*
G37*
G36*
X76411Y-78201D02*
X72960D01*
Y-79616D01*
X76170D01*
Y-80698D01*
X72960D01*
Y-82437D01*
X76531D01*
Y-83520D01*
X71665D01*
Y-77118D01*
X76411D01*
Y-78201D01*
D02*
G37*
G36*
X67836Y-77128D02*
X68011Y-77137D01*
X68206Y-77146D01*
X68409Y-77174D01*
X68603Y-77202D01*
X68779Y-77248D01*
X68788D01*
X68807Y-77257D01*
X68835Y-77267D01*
X68872Y-77276D01*
X68983Y-77322D01*
X69112Y-77387D01*
X69260Y-77470D01*
X69427Y-77572D01*
X69584Y-77692D01*
X69741Y-77840D01*
X69750D01*
X69760Y-77859D01*
X69806Y-77914D01*
X69880Y-78007D01*
X69963Y-78127D01*
X70065Y-78275D01*
X70167Y-78451D01*
X70268Y-78654D01*
X70352Y-78876D01*
Y-78885D01*
X70361Y-78904D01*
X70370Y-78941D01*
X70389Y-78987D01*
X70398Y-79043D01*
X70416Y-79116D01*
X70435Y-79200D01*
X70463Y-79292D01*
X70481Y-79394D01*
X70500Y-79514D01*
X70518Y-79634D01*
X70527Y-79773D01*
X70555Y-80060D01*
X70565Y-80384D01*
Y-80393D01*
Y-80421D01*
Y-80458D01*
Y-80513D01*
X70555Y-80587D01*
Y-80661D01*
X70546Y-80754D01*
X70537Y-80856D01*
X70518Y-81068D01*
X70481Y-81290D01*
X70426Y-81521D01*
X70361Y-81744D01*
Y-81753D01*
X70352Y-81771D01*
X70333Y-81808D01*
X70315Y-81864D01*
X70296Y-81919D01*
X70259Y-81984D01*
X70185Y-82151D01*
X70093Y-82326D01*
X69972Y-82521D01*
X69834Y-82705D01*
X69677Y-82881D01*
X69658Y-82900D01*
X69612Y-82937D01*
X69538Y-82992D01*
X69436Y-83066D01*
X69306Y-83149D01*
X69159Y-83233D01*
X68973Y-83316D01*
X68770Y-83390D01*
X68761D01*
X68752Y-83399D01*
X68724D01*
X68696Y-83408D01*
X68594Y-83427D01*
X68465Y-83455D01*
X68308Y-83482D01*
X68113Y-83501D01*
X67882Y-83510D01*
X67632Y-83520D01*
X65209D01*
Y-77118D01*
X67762D01*
X67836Y-77128D01*
D02*
G37*
G36*
X61065Y-82437D02*
X64284D01*
Y-83520D01*
X59770D01*
Y-77165D01*
X61065D01*
Y-82437D01*
D02*
G37*
G36*
X29078Y-78201D02*
X27191D01*
Y-83520D01*
X25896D01*
Y-78201D01*
X24000D01*
Y-77118D01*
X29078D01*
Y-78201D01*
D02*
G37*
G36*
X23611D02*
X21724D01*
Y-83520D01*
X20429D01*
Y-78201D01*
X18533D01*
Y-77118D01*
X23611D01*
Y-78201D01*
D02*
G37*
G36*
X8552Y-77128D02*
X8738Y-77137D01*
X8923Y-77146D01*
X9098Y-77165D01*
X9256Y-77183D01*
X9274D01*
X9320Y-77192D01*
X9385Y-77211D01*
X9477Y-77239D01*
X9579Y-77276D01*
X9690Y-77322D01*
X9810Y-77377D01*
X9922Y-77451D01*
X9931Y-77461D01*
X9968Y-77488D01*
X10023Y-77535D01*
X10097Y-77590D01*
X10171Y-77674D01*
X10255Y-77766D01*
X10338Y-77868D01*
X10412Y-77988D01*
X10421Y-78007D01*
X10440Y-78044D01*
X10476Y-78118D01*
X10514Y-78210D01*
X10550Y-78321D01*
X10588Y-78441D01*
X10606Y-78589D01*
X10615Y-78737D01*
Y-78746D01*
Y-78756D01*
Y-78811D01*
X10606Y-78895D01*
X10588Y-79005D01*
X10550Y-79135D01*
X10514Y-79274D01*
X10449Y-79413D01*
X10366Y-79561D01*
X10356Y-79579D01*
X10319Y-79625D01*
X10264Y-79690D01*
X10199Y-79773D01*
X10107Y-79856D01*
X9995Y-79958D01*
X9866Y-80041D01*
X9718Y-80125D01*
X9727D01*
X9746Y-80134D01*
X9774Y-80143D01*
X9810Y-80152D01*
X9922Y-80199D01*
X10051Y-80264D01*
X10190Y-80338D01*
X10347Y-80439D01*
X10486Y-80559D01*
X10615Y-80708D01*
X10625Y-80726D01*
X10661Y-80782D01*
X10717Y-80865D01*
X10773Y-80976D01*
X10828Y-81124D01*
X10883Y-81281D01*
X10921Y-81466D01*
X10930Y-81669D01*
Y-81679D01*
Y-81688D01*
Y-81744D01*
X10921Y-81827D01*
X10902Y-81938D01*
X10883Y-82067D01*
X10847Y-82215D01*
X10791Y-82363D01*
X10726Y-82521D01*
X10717Y-82539D01*
X10689Y-82585D01*
X10643Y-82659D01*
X10578Y-82752D01*
X10504Y-82863D01*
X10402Y-82964D01*
X10301Y-83075D01*
X10171Y-83177D01*
X10153Y-83187D01*
X10107Y-83214D01*
X10033Y-83261D01*
X9931Y-83307D01*
X9801Y-83362D01*
X9653Y-83408D01*
X9487Y-83455D01*
X9302Y-83482D01*
X9265D01*
X9228Y-83492D01*
X9135D01*
X9070Y-83501D01*
X8895D01*
X8784Y-83510D01*
X8506D01*
X8349Y-83520D01*
X5574D01*
Y-77118D01*
X8386D01*
X8552Y-77128D01*
D02*
G37*
G36*
X55746Y-77008D02*
X55839D01*
X55959Y-77026D01*
X56098Y-77044D01*
X56255Y-77072D01*
X56421Y-77109D01*
X56597Y-77156D01*
X56782Y-77211D01*
X56967Y-77285D01*
X57161Y-77368D01*
X57346Y-77470D01*
X57531Y-77590D01*
X57707Y-77729D01*
X57873Y-77886D01*
X57883Y-77895D01*
X57911Y-77923D01*
X57957Y-77979D01*
X58003Y-78044D01*
X58068Y-78136D01*
X58142Y-78247D01*
X58216Y-78377D01*
X58299Y-78525D01*
X58382Y-78682D01*
X58456Y-78867D01*
X58530Y-79070D01*
X58595Y-79283D01*
X58650Y-79523D01*
X58688Y-79773D01*
X58715Y-80041D01*
X58724Y-80328D01*
Y-80347D01*
Y-80393D01*
X58715Y-80476D01*
Y-80587D01*
X58697Y-80717D01*
X58678Y-80865D01*
X58650Y-81041D01*
X58623Y-81216D01*
X58577Y-81410D01*
X58521Y-81614D01*
X58447Y-81818D01*
X58364Y-82021D01*
X58271Y-82215D01*
X58151Y-82410D01*
X58021Y-82595D01*
X57873Y-82770D01*
X57864Y-82780D01*
X57837Y-82807D01*
X57790Y-82854D01*
X57716Y-82909D01*
X57633Y-82974D01*
X57531Y-83048D01*
X57411Y-83122D01*
X57282Y-83205D01*
X57124Y-83288D01*
X56958Y-83362D01*
X56773Y-83436D01*
X56569Y-83501D01*
X56357Y-83556D01*
X56125Y-83603D01*
X55885Y-83631D01*
X55626Y-83640D01*
X55561D01*
X55487Y-83631D01*
X55395Y-83621D01*
X55274Y-83612D01*
X55136Y-83593D01*
X54978Y-83566D01*
X54812Y-83529D01*
X54627Y-83482D01*
X54451Y-83427D01*
X54257Y-83353D01*
X54072Y-83270D01*
X53878Y-83177D01*
X53702Y-83057D01*
X53526Y-82928D01*
X53360Y-82770D01*
X53350Y-82761D01*
X53322Y-82733D01*
X53285Y-82678D01*
X53230Y-82613D01*
X53165Y-82521D01*
X53091Y-82410D01*
X53017Y-82289D01*
X52943Y-82141D01*
X52860Y-81984D01*
X52786Y-81799D01*
X52712Y-81605D01*
X52647Y-81392D01*
X52592Y-81161D01*
X52555Y-80911D01*
X52527Y-80643D01*
X52518Y-80365D01*
Y-80356D01*
Y-80319D01*
Y-80273D01*
X52527Y-80199D01*
Y-80115D01*
X52536Y-80023D01*
X52545Y-79912D01*
X52555Y-79792D01*
X52592Y-79533D01*
X52638Y-79255D01*
X52712Y-78978D01*
X52804Y-78719D01*
Y-78710D01*
X52814Y-78700D01*
X52832Y-78672D01*
X52842Y-78636D01*
X52897Y-78543D01*
X52962Y-78423D01*
X53045Y-78284D01*
X53147Y-78145D01*
X53267Y-77988D01*
X53396Y-77840D01*
X53406Y-77831D01*
X53415Y-77821D01*
X53461Y-77775D01*
X53544Y-77701D01*
X53646Y-77618D01*
X53767Y-77526D01*
X53905Y-77424D01*
X54062Y-77331D01*
X54229Y-77257D01*
X54238D01*
X54257Y-77248D01*
X54294Y-77229D01*
X54340Y-77220D01*
X54396Y-77192D01*
X54460Y-77174D01*
X54544Y-77156D01*
X54627Y-77128D01*
X54830Y-77082D01*
X55062Y-77035D01*
X55330Y-77008D01*
X55607Y-76998D01*
X55672D01*
X55746Y-77008D01*
D02*
G37*
G36*
X32880Y-77008D02*
X32972D01*
X33093Y-77026D01*
X33231Y-77044D01*
X33389Y-77072D01*
X33555Y-77109D01*
X33731Y-77156D01*
X33916Y-77211D01*
X34101Y-77285D01*
X34295Y-77368D01*
X34480Y-77470D01*
X34665Y-77590D01*
X34841Y-77729D01*
X35008Y-77886D01*
X35017Y-77895D01*
X35045Y-77923D01*
X35091Y-77979D01*
X35137Y-78044D01*
X35202Y-78136D01*
X35276Y-78247D01*
X35350Y-78377D01*
X35433Y-78525D01*
X35516Y-78682D01*
X35590Y-78867D01*
X35664Y-79070D01*
X35729Y-79283D01*
X35785Y-79523D01*
X35822Y-79773D01*
X35849Y-80041D01*
X35859Y-80328D01*
Y-80347D01*
Y-80393D01*
X35849Y-80476D01*
Y-80587D01*
X35831Y-80717D01*
X35812Y-80865D01*
X35785Y-81041D01*
X35757Y-81216D01*
X35710Y-81410D01*
X35655Y-81614D01*
X35581Y-81818D01*
X35498Y-82021D01*
X35405Y-82215D01*
X35285Y-82410D01*
X35155Y-82595D01*
X35008Y-82770D01*
X34998Y-82780D01*
X34971Y-82807D01*
X34924Y-82854D01*
X34850Y-82909D01*
X34767Y-82974D01*
X34665Y-83048D01*
X34545Y-83122D01*
X34416Y-83205D01*
X34258Y-83288D01*
X34092Y-83362D01*
X33907Y-83436D01*
X33703Y-83501D01*
X33490Y-83556D01*
X33259Y-83603D01*
X33019Y-83631D01*
X32760Y-83640D01*
X32695D01*
X32621Y-83631D01*
X32528Y-83621D01*
X32408Y-83612D01*
X32269Y-83593D01*
X32112Y-83566D01*
X31946Y-83529D01*
X31761Y-83482D01*
X31585Y-83427D01*
X31391Y-83353D01*
X31206Y-83270D01*
X31012Y-83177D01*
X30836Y-83057D01*
X30660Y-82928D01*
X30494Y-82770D01*
X30484Y-82761D01*
X30457Y-82733D01*
X30419Y-82678D01*
X30364Y-82613D01*
X30299Y-82521D01*
X30225Y-82410D01*
X30151Y-82289D01*
X30077Y-82141D01*
X29994Y-81984D01*
X29920Y-81799D01*
X29846Y-81605D01*
X29781Y-81392D01*
X29726Y-81161D01*
X29689Y-80911D01*
X29661Y-80643D01*
X29652Y-80365D01*
Y-80356D01*
Y-80319D01*
Y-80273D01*
X29661Y-80199D01*
Y-80115D01*
X29670Y-80023D01*
X29680Y-79912D01*
X29689Y-79792D01*
X29726Y-79533D01*
X29772Y-79255D01*
X29846Y-78978D01*
X29939Y-78719D01*
Y-78710D01*
X29948Y-78700D01*
X29966Y-78672D01*
X29976Y-78636D01*
X30031Y-78543D01*
X30096Y-78423D01*
X30179Y-78284D01*
X30281Y-78145D01*
X30401Y-77988D01*
X30531Y-77840D01*
X30540Y-77831D01*
X30549Y-77821D01*
X30595Y-77775D01*
X30678Y-77701D01*
X30780Y-77618D01*
X30900Y-77526D01*
X31039Y-77424D01*
X31196Y-77331D01*
X31363Y-77257D01*
X31372D01*
X31391Y-77248D01*
X31428Y-77229D01*
X31474Y-77220D01*
X31530Y-77192D01*
X31594Y-77174D01*
X31677Y-77156D01*
X31761Y-77128D01*
X31964Y-77082D01*
X32195Y-77035D01*
X32464Y-77008D01*
X32741Y-76998D01*
X32806D01*
X32880Y-77008D01*
D02*
G37*
G36*
X14990D02*
X15083D01*
X15203Y-77026D01*
X15342Y-77044D01*
X15499Y-77072D01*
X15666Y-77109D01*
X15842Y-77156D01*
X16026Y-77211D01*
X16211Y-77285D01*
X16406Y-77368D01*
X16591Y-77470D01*
X16776Y-77590D01*
X16951Y-77729D01*
X17118Y-77886D01*
X17127Y-77895D01*
X17155Y-77923D01*
X17201Y-77979D01*
X17247Y-78044D01*
X17312Y-78136D01*
X17386Y-78247D01*
X17460Y-78377D01*
X17544Y-78525D01*
X17627Y-78682D01*
X17701Y-78867D01*
X17775Y-79070D01*
X17840Y-79283D01*
X17895Y-79523D01*
X17932Y-79773D01*
X17960Y-80041D01*
X17969Y-80328D01*
Y-80347D01*
Y-80393D01*
X17960Y-80476D01*
Y-80587D01*
X17941Y-80717D01*
X17923Y-80865D01*
X17895Y-81041D01*
X17867Y-81216D01*
X17821Y-81410D01*
X17765Y-81614D01*
X17692Y-81818D01*
X17608Y-82021D01*
X17516Y-82215D01*
X17395Y-82410D01*
X17266Y-82595D01*
X17118Y-82770D01*
X17109Y-82780D01*
X17081Y-82807D01*
X17035Y-82854D01*
X16961Y-82909D01*
X16878Y-82974D01*
X16776Y-83048D01*
X16656Y-83122D01*
X16526Y-83205D01*
X16369Y-83288D01*
X16202Y-83362D01*
X16017Y-83436D01*
X15814Y-83501D01*
X15601Y-83556D01*
X15370Y-83603D01*
X15129Y-83631D01*
X14870Y-83640D01*
X14806D01*
X14731Y-83631D01*
X14639Y-83621D01*
X14519Y-83612D01*
X14380Y-83593D01*
X14223Y-83566D01*
X14056Y-83529D01*
X13871Y-83482D01*
X13695Y-83427D01*
X13501Y-83353D01*
X13316Y-83270D01*
X13122Y-83177D01*
X12946Y-83057D01*
X12770Y-82928D01*
X12604Y-82770D01*
X12595Y-82761D01*
X12567Y-82733D01*
X12530Y-82678D01*
X12474Y-82613D01*
X12410Y-82521D01*
X12336Y-82410D01*
X12262Y-82289D01*
X12188Y-82141D01*
X12105Y-81984D01*
X12031Y-81799D01*
X11957Y-81605D01*
X11892Y-81392D01*
X11836Y-81161D01*
X11799Y-80911D01*
X11772Y-80643D01*
X11762Y-80365D01*
Y-80356D01*
Y-80319D01*
Y-80273D01*
X11772Y-80199D01*
Y-80115D01*
X11781Y-80023D01*
X11790Y-79912D01*
X11799Y-79792D01*
X11836Y-79533D01*
X11883Y-79255D01*
X11957Y-78978D01*
X12049Y-78719D01*
Y-78710D01*
X12058Y-78700D01*
X12077Y-78672D01*
X12086Y-78636D01*
X12141Y-78543D01*
X12206Y-78423D01*
X12290Y-78284D01*
X12391Y-78145D01*
X12512Y-77988D01*
X12641Y-77840D01*
X12650Y-77831D01*
X12660Y-77821D01*
X12706Y-77775D01*
X12789Y-77701D01*
X12891Y-77618D01*
X13011Y-77526D01*
X13150Y-77424D01*
X13307Y-77331D01*
X13474Y-77257D01*
X13483D01*
X13501Y-77248D01*
X13538Y-77229D01*
X13585Y-77220D01*
X13640Y-77192D01*
X13705Y-77174D01*
X13788Y-77156D01*
X13871Y-77128D01*
X14075Y-77082D01*
X14306Y-77035D01*
X14574Y-77008D01*
X14852Y-76998D01*
X14917D01*
X14990Y-77008D01*
D02*
G37*
%LPC*%
G36*
X94041Y-78608D02*
X93172Y-80985D01*
X94938D01*
X94041Y-78608D01*
D02*
G37*
G36*
X80406Y-78201D02*
X78926D01*
Y-79829D01*
X80185D01*
X80370Y-79820D01*
X80564Y-79810D01*
X80758Y-79801D01*
X80841Y-79792D01*
X80915Y-79782D01*
X80989Y-79764D01*
X81036Y-79755D01*
X81045D01*
X81072Y-79736D01*
X81119Y-79718D01*
X81165Y-79690D01*
X81285Y-79607D01*
X81341Y-79551D01*
X81396Y-79487D01*
X81406Y-79477D01*
X81415Y-79449D01*
X81442Y-79413D01*
X81470Y-79357D01*
X81489Y-79283D01*
X81516Y-79200D01*
X81526Y-79107D01*
X81535Y-79005D01*
Y-78987D01*
Y-78950D01*
X81526Y-78895D01*
X81516Y-78821D01*
X81489Y-78737D01*
X81461Y-78654D01*
X81415Y-78562D01*
X81359Y-78487D01*
X81350Y-78478D01*
X81331Y-78451D01*
X81285Y-78423D01*
X81230Y-78377D01*
X81165Y-78330D01*
X81082Y-78293D01*
X80980Y-78256D01*
X80869Y-78228D01*
X80860D01*
X80832Y-78219D01*
X80777D01*
X80693Y-78210D01*
X80490D01*
X80406Y-78201D01*
D02*
G37*
G36*
X67345D02*
X66504D01*
Y-82437D01*
X67642D01*
X67762Y-82428D01*
X67891D01*
X68021Y-82410D01*
X68141Y-82400D01*
X68243Y-82382D01*
X68261D01*
X68298Y-82363D01*
X68354Y-82345D01*
X68428Y-82317D01*
X68511Y-82280D01*
X68594Y-82234D01*
X68678Y-82178D01*
X68761Y-82113D01*
X68770Y-82104D01*
X68798Y-82077D01*
X68835Y-82030D01*
X68881Y-81966D01*
X68927Y-81882D01*
X68992Y-81780D01*
X69038Y-81651D01*
X69094Y-81503D01*
Y-81494D01*
X69103Y-81485D01*
Y-81457D01*
X69112Y-81420D01*
X69131Y-81383D01*
X69140Y-81327D01*
X69168Y-81188D01*
X69186Y-81022D01*
X69214Y-80828D01*
X69223Y-80587D01*
X69232Y-80328D01*
Y-80319D01*
Y-80291D01*
Y-80254D01*
Y-80208D01*
Y-80143D01*
X69223Y-80069D01*
X69214Y-79912D01*
X69195Y-79727D01*
X69177Y-79533D01*
X69140Y-79357D01*
X69094Y-79190D01*
Y-79181D01*
X69085Y-79172D01*
X69066Y-79126D01*
X69038Y-79052D01*
X69001Y-78959D01*
X68946Y-78867D01*
X68881Y-78765D01*
X68807Y-78663D01*
X68724Y-78571D01*
X68714Y-78562D01*
X68687Y-78534D01*
X68631Y-78497D01*
X68567Y-78451D01*
X68474Y-78395D01*
X68372Y-78349D01*
X68261Y-78303D01*
X68132Y-78266D01*
X68123D01*
X68076Y-78256D01*
X68002Y-78247D01*
X67901Y-78228D01*
X67836D01*
X67752Y-78219D01*
X67669D01*
X67577Y-78210D01*
X67466D01*
X67345Y-78201D01*
D02*
G37*
G36*
X8155Y-78182D02*
X6869D01*
Y-79662D01*
X8108D01*
X8266Y-79653D01*
X8552D01*
X8608Y-79644D01*
X8664D01*
X8700Y-79634D01*
X8756Y-79625D01*
X8839Y-79598D01*
X8923Y-79570D01*
X9006Y-79533D01*
X9089Y-79487D01*
X9163Y-79422D01*
X9172Y-79413D01*
X9191Y-79385D01*
X9228Y-79348D01*
X9265Y-79283D01*
X9292Y-79209D01*
X9330Y-79126D01*
X9348Y-79024D01*
X9357Y-78913D01*
Y-78904D01*
Y-78867D01*
X9348Y-78811D01*
X9339Y-78737D01*
X9320Y-78663D01*
X9283Y-78589D01*
X9246Y-78506D01*
X9191Y-78432D01*
X9182Y-78423D01*
X9163Y-78404D01*
X9117Y-78367D01*
X9070Y-78330D01*
X8997Y-78293D01*
X8913Y-78256D01*
X8811Y-78228D01*
X8700Y-78210D01*
X8691D01*
X8654Y-78201D01*
X8552D01*
X8497Y-78192D01*
X8257D01*
X8155Y-78182D01*
D02*
G37*
G36*
X8210Y-80726D02*
X6869D01*
Y-82437D01*
X8293D01*
X8432Y-82428D01*
X8580D01*
X8728Y-82419D01*
X8849Y-82410D01*
X8904D01*
X8941Y-82400D01*
X8950D01*
X8987Y-82391D01*
X9043Y-82372D01*
X9108Y-82354D01*
X9182Y-82317D01*
X9265Y-82271D01*
X9339Y-82215D01*
X9413Y-82151D01*
X9422Y-82141D01*
X9441Y-82113D01*
X9468Y-82067D01*
X9505Y-82003D01*
X9542Y-81928D01*
X9570Y-81836D01*
X9589Y-81725D01*
X9598Y-81605D01*
Y-81595D01*
Y-81559D01*
X9589Y-81503D01*
X9579Y-81438D01*
X9561Y-81355D01*
X9533Y-81281D01*
X9496Y-81198D01*
X9450Y-81115D01*
X9441Y-81105D01*
X9422Y-81077D01*
X9394Y-81041D01*
X9348Y-81003D01*
X9292Y-80948D01*
X9218Y-80902D01*
X9135Y-80856D01*
X9043Y-80818D01*
X9033D01*
X8987Y-80800D01*
X8913Y-80791D01*
X8867Y-80782D01*
X8802Y-80772D01*
X8738Y-80763D01*
X8654Y-80754D01*
X8562Y-80744D01*
X8451D01*
X8340Y-80735D01*
X8210Y-80726D01*
D02*
G37*
G36*
X55626Y-78099D02*
X55552D01*
X55496Y-78108D01*
X55422Y-78118D01*
X55348Y-78127D01*
X55163Y-78164D01*
X54960Y-78238D01*
X54849Y-78275D01*
X54738Y-78330D01*
X54636Y-78395D01*
X54525Y-78469D01*
X54423Y-78552D01*
X54331Y-78654D01*
X54321Y-78663D01*
X54312Y-78682D01*
X54285Y-78710D01*
X54257Y-78756D01*
X54220Y-78821D01*
X54183Y-78885D01*
X54137Y-78969D01*
X54090Y-79070D01*
X54044Y-79181D01*
X53998Y-79302D01*
X53961Y-79440D01*
X53924Y-79588D01*
X53896Y-79755D01*
X53868Y-79931D01*
X53859Y-80115D01*
X53850Y-80319D01*
Y-80328D01*
Y-80365D01*
Y-80421D01*
X53859Y-80495D01*
X53868Y-80587D01*
X53878Y-80698D01*
X53896Y-80809D01*
X53914Y-80939D01*
X53970Y-81207D01*
X54062Y-81475D01*
X54118Y-81614D01*
X54183Y-81744D01*
X54266Y-81864D01*
X54349Y-81975D01*
X54359Y-81984D01*
X54377Y-82003D01*
X54405Y-82030D01*
X54442Y-82058D01*
X54488Y-82104D01*
X54553Y-82151D01*
X54618Y-82206D01*
X54701Y-82252D01*
X54877Y-82363D01*
X55098Y-82446D01*
X55219Y-82484D01*
X55348Y-82511D01*
X55487Y-82530D01*
X55626Y-82539D01*
X55700D01*
X55755Y-82530D01*
X55820Y-82521D01*
X55894Y-82511D01*
X56070Y-82465D01*
X56273Y-82400D01*
X56375Y-82354D01*
X56486Y-82308D01*
X56588Y-82243D01*
X56699Y-82169D01*
X56801Y-82086D01*
X56893Y-81984D01*
X56902Y-81975D01*
X56911Y-81956D01*
X56939Y-81928D01*
X56967Y-81882D01*
X57013Y-81818D01*
X57050Y-81744D01*
X57096Y-81660D01*
X57143Y-81559D01*
X57189Y-81447D01*
X57235Y-81327D01*
X57282Y-81188D01*
X57319Y-81031D01*
X57346Y-80874D01*
X57374Y-80698D01*
X57383Y-80504D01*
X57393Y-80300D01*
Y-80291D01*
Y-80254D01*
Y-80199D01*
X57383Y-80115D01*
X57374Y-80023D01*
X57365Y-79921D01*
X57355Y-79801D01*
X57328Y-79681D01*
X57272Y-79413D01*
X57189Y-79135D01*
X57134Y-78996D01*
X57069Y-78876D01*
X56985Y-78756D01*
X56902Y-78645D01*
X56893Y-78636D01*
X56884Y-78617D01*
X56856Y-78598D01*
X56819Y-78562D01*
X56763Y-78515D01*
X56708Y-78469D01*
X56643Y-78423D01*
X56560Y-78367D01*
X56477Y-78321D01*
X56375Y-78275D01*
X56162Y-78182D01*
X56042Y-78145D01*
X55913Y-78127D01*
X55774Y-78108D01*
X55626Y-78099D01*
D02*
G37*
G36*
X32760Y-78099D02*
X32686D01*
X32630Y-78108D01*
X32556Y-78118D01*
X32482Y-78127D01*
X32297Y-78164D01*
X32094Y-78238D01*
X31983Y-78275D01*
X31872Y-78330D01*
X31770Y-78395D01*
X31659Y-78469D01*
X31557Y-78552D01*
X31465Y-78654D01*
X31455Y-78663D01*
X31446Y-78682D01*
X31418Y-78710D01*
X31391Y-78756D01*
X31354Y-78821D01*
X31317Y-78885D01*
X31271Y-78969D01*
X31224Y-79070D01*
X31178Y-79181D01*
X31132Y-79302D01*
X31095Y-79440D01*
X31058Y-79588D01*
X31030Y-79755D01*
X31002Y-79931D01*
X30993Y-80115D01*
X30984Y-80319D01*
Y-80328D01*
Y-80365D01*
Y-80421D01*
X30993Y-80495D01*
X31002Y-80587D01*
X31012Y-80698D01*
X31030Y-80809D01*
X31049Y-80939D01*
X31104Y-81207D01*
X31196Y-81475D01*
X31252Y-81614D01*
X31317Y-81744D01*
X31400Y-81864D01*
X31483Y-81975D01*
X31492Y-81984D01*
X31511Y-82003D01*
X31539Y-82030D01*
X31576Y-82058D01*
X31622Y-82104D01*
X31687Y-82151D01*
X31751Y-82206D01*
X31835Y-82252D01*
X32010Y-82363D01*
X32232Y-82446D01*
X32353Y-82484D01*
X32482Y-82511D01*
X32621Y-82530D01*
X32760Y-82539D01*
X32834D01*
X32889Y-82530D01*
X32954Y-82521D01*
X33028Y-82511D01*
X33204Y-82465D01*
X33407Y-82400D01*
X33509Y-82354D01*
X33620Y-82308D01*
X33722Y-82243D01*
X33833Y-82169D01*
X33935Y-82086D01*
X34027Y-81984D01*
X34036Y-81975D01*
X34045Y-81956D01*
X34073Y-81928D01*
X34101Y-81882D01*
X34147Y-81818D01*
X34184Y-81744D01*
X34231Y-81660D01*
X34277Y-81559D01*
X34323Y-81447D01*
X34369Y-81327D01*
X34416Y-81188D01*
X34453Y-81031D01*
X34480Y-80874D01*
X34508Y-80698D01*
X34517Y-80504D01*
X34527Y-80300D01*
Y-80291D01*
Y-80254D01*
Y-80199D01*
X34517Y-80115D01*
X34508Y-80023D01*
X34499Y-79921D01*
X34490Y-79801D01*
X34462Y-79681D01*
X34406Y-79413D01*
X34323Y-79135D01*
X34268Y-78996D01*
X34203Y-78876D01*
X34119Y-78756D01*
X34036Y-78645D01*
X34027Y-78636D01*
X34018Y-78617D01*
X33990Y-78598D01*
X33953Y-78562D01*
X33898Y-78515D01*
X33842Y-78469D01*
X33777Y-78423D01*
X33694Y-78367D01*
X33611Y-78321D01*
X33509Y-78275D01*
X33296Y-78182D01*
X33176Y-78145D01*
X33046Y-78127D01*
X32908Y-78108D01*
X32760Y-78099D01*
D02*
G37*
G36*
X14870D02*
X14796D01*
X14741Y-78108D01*
X14667Y-78118D01*
X14593Y-78127D01*
X14408Y-78164D01*
X14204Y-78238D01*
X14093Y-78275D01*
X13982Y-78330D01*
X13881Y-78395D01*
X13769Y-78469D01*
X13668Y-78552D01*
X13575Y-78654D01*
X13566Y-78663D01*
X13557Y-78682D01*
X13529Y-78710D01*
X13501Y-78756D01*
X13464Y-78821D01*
X13427Y-78885D01*
X13381Y-78969D01*
X13335Y-79070D01*
X13288Y-79181D01*
X13242Y-79302D01*
X13205Y-79440D01*
X13168Y-79588D01*
X13140Y-79755D01*
X13113Y-79931D01*
X13104Y-80115D01*
X13094Y-80319D01*
Y-80328D01*
Y-80365D01*
Y-80421D01*
X13104Y-80495D01*
X13113Y-80587D01*
X13122Y-80698D01*
X13140Y-80809D01*
X13159Y-80939D01*
X13215Y-81207D01*
X13307Y-81475D01*
X13363Y-81614D01*
X13427Y-81744D01*
X13510Y-81864D01*
X13594Y-81975D01*
X13603Y-81984D01*
X13622Y-82003D01*
X13649Y-82030D01*
X13686Y-82058D01*
X13733Y-82104D01*
X13797Y-82151D01*
X13862Y-82206D01*
X13945Y-82252D01*
X14121Y-82363D01*
X14343Y-82446D01*
X14463Y-82484D01*
X14593Y-82511D01*
X14731Y-82530D01*
X14870Y-82539D01*
X14944D01*
X15000Y-82530D01*
X15065Y-82521D01*
X15138Y-82511D01*
X15314Y-82465D01*
X15518Y-82400D01*
X15619Y-82354D01*
X15731Y-82308D01*
X15832Y-82243D01*
X15943Y-82169D01*
X16045Y-82086D01*
X16138Y-81984D01*
X16147Y-81975D01*
X16156Y-81956D01*
X16184Y-81928D01*
X16211Y-81882D01*
X16258Y-81818D01*
X16295Y-81744D01*
X16341Y-81660D01*
X16387Y-81559D01*
X16433Y-81447D01*
X16480Y-81327D01*
X16526Y-81188D01*
X16563Y-81031D01*
X16591Y-80874D01*
X16619Y-80698D01*
X16628Y-80504D01*
X16637Y-80300D01*
Y-80291D01*
Y-80254D01*
Y-80199D01*
X16628Y-80115D01*
X16619Y-80023D01*
X16609Y-79921D01*
X16600Y-79801D01*
X16572Y-79681D01*
X16517Y-79413D01*
X16433Y-79135D01*
X16378Y-78996D01*
X16313Y-78876D01*
X16230Y-78756D01*
X16147Y-78645D01*
X16138Y-78636D01*
X16128Y-78617D01*
X16101Y-78598D01*
X16063Y-78562D01*
X16008Y-78515D01*
X15953Y-78469D01*
X15888Y-78423D01*
X15804Y-78367D01*
X15721Y-78321D01*
X15619Y-78275D01*
X15407Y-78182D01*
X15286Y-78145D01*
X15157Y-78127D01*
X15018Y-78108D01*
X14870Y-78099D01*
D02*
G37*
%LPD*%
D15*
X85915Y73802D02*
D03*
X81977D02*
D03*
X78040D02*
D03*
X74103D02*
D03*
X70166D02*
D03*
X66229D02*
D03*
X62292D02*
D03*
X58355D02*
D03*
X54418D02*
D03*
X30796D02*
D03*
X34733D02*
D03*
X38671D02*
D03*
X50481D02*
D03*
X42608D02*
D03*
X46545D02*
D03*
D16*
X19025Y84826D02*
D03*
X97686D02*
D03*
D18*
X95433Y-8032D02*
D03*
X22677D02*
D03*
D19*
X118110Y0D02*
D03*
X0D02*
D03*
D20*
X49637Y44715D02*
D03*
Y41715D02*
D03*
X35816Y35581D02*
D03*
Y38581D02*
D03*
X32977Y58596D02*
D03*
Y61595D02*
D03*
X38658Y-18011D02*
D03*
X41658D02*
D03*
X48107D02*
D03*
X51107D02*
D03*
X57555D02*
D03*
X60555D02*
D03*
X74161Y32660D02*
D03*
X75313Y51796D02*
D03*
X77161Y32660D02*
D03*
X77236Y63965D02*
D03*
X78313Y51796D02*
D03*
X78509Y66918D02*
D03*
X81508D02*
D03*
X82736Y63965D02*
D03*
X86177Y20468D02*
D03*
X89677D02*
D03*
Y24468D02*
D03*
X94177Y27304D02*
D03*
Y31168D02*
D03*
X95677Y37668D02*
D03*
X99328Y67804D02*
D03*
Y70804D02*
D03*
X101977Y27304D02*
D03*
X104577Y27168D02*
D03*
Y49668D02*
D03*
X105177Y34168D02*
D03*
X105960Y62668D02*
D03*
X107077Y49668D02*
D03*
X109328Y94804D02*
D03*
Y97304D02*
D03*
X110105Y60804D02*
D03*
X110177Y54576D02*
D03*
X111677Y26168D02*
D03*
X112277Y37668D02*
D03*
X114177Y57168D02*
D03*
X114239Y60804D02*
D03*
X114777Y26168D02*
D03*
X114984Y54475D02*
D03*
X115177Y37668D02*
D03*
X117377Y30668D02*
D03*
D42*
Y44668D02*
D03*
X114777D02*
D03*
X112277D02*
D03*
X109677D02*
D03*
X107077D02*
D03*
X104577D02*
D03*
X101977D02*
D03*
Y21668D02*
D03*
X104577D02*
D03*
X107077D02*
D03*
X109677D02*
D03*
X112277D02*
D03*
X114777D02*
D03*
X117377D02*
D03*
D43*
X92303Y0D02*
D03*
X25807D02*
D03*
D44*
X71555D02*
D03*
X46555D02*
D03*
D45*
X88976Y12165D02*
D03*
Y-12165D02*
D03*
X85827Y12165D02*
D03*
Y-12165D02*
D03*
X82677Y12165D02*
D03*
Y-12165D02*
D03*
X79528Y12165D02*
D03*
Y-12165D02*
D03*
X76378Y12165D02*
D03*
Y-12165D02*
D03*
X73228Y12165D02*
D03*
Y-12165D02*
D03*
X70079Y12165D02*
D03*
Y-12165D02*
D03*
X66929Y12165D02*
D03*
Y-12165D02*
D03*
X63780Y12165D02*
D03*
Y-12165D02*
D03*
X60630Y12165D02*
D03*
Y-12165D02*
D03*
X57480Y12165D02*
D03*
Y-12165D02*
D03*
X54331Y12165D02*
D03*
Y-12165D02*
D03*
X51181Y12165D02*
D03*
Y-12165D02*
D03*
X48031Y12165D02*
D03*
Y-12165D02*
D03*
X44882Y12165D02*
D03*
Y-12165D02*
D03*
X41732Y12165D02*
D03*
Y-12165D02*
D03*
X38583Y12165D02*
D03*
Y-12165D02*
D03*
X35433Y12165D02*
D03*
Y-12165D02*
D03*
X32283Y12165D02*
D03*
Y-12165D02*
D03*
X29134Y12165D02*
D03*
Y-12165D02*
D03*
D46*
X110105Y68665D02*
D03*
X116404D02*
D03*
X110105Y64335D02*
D03*
X116404D02*
D03*
D47*
X112270Y68665D02*
D03*
X114239D02*
D03*
Y64335D02*
D03*
X112270D02*
D03*
D48*
X101677Y51396D02*
D03*
Y54939D02*
D03*
D49*
X114983Y51668D02*
D03*
X118368D02*
D03*
D50*
X105960Y65279D02*
D03*
Y68664D02*
D03*
D51*
X114057Y14304D02*
D03*
X117600D02*
D03*
M02*
