G04*
G04 #@! TF.GenerationSoftware,Altium Limited,Altium Designer,22.5.1 (42)*
G04*
G04 Layer_Physical_Order=1*
G04 Layer_Color=255*
%FSLAX25Y25*%
%MOIN*%
G70*
G04*
G04 #@! TF.SameCoordinates,A2539C74-7FEE-43BD-A04A-5197B4AA8E51*
G04*
G04*
G04 #@! TF.FilePolarity,Positive*
G04*
G01*
G75*
%ADD12R,0.02402X0.07874*%
%ADD13R,0.10551X0.14173*%
%ADD14C,0.03937*%
%ADD21C,0.00755*%
%ADD22C,0.00755*%
%ADD23C,0.00600*%
%ADD24C,0.01000*%
%ADD25C,0.04016*%
%ADD26C,0.11811*%
%ADD27C,0.01600*%
G36*
X121789Y99004D02*
X122514Y98704D01*
X123137Y98226D01*
X123615Y97604D01*
X123915Y96879D01*
X124012Y96144D01*
X124003Y96100D01*
Y3593D01*
X123518Y3471D01*
X123462Y3576D01*
X122661Y4551D01*
X121686Y5352D01*
X120573Y5946D01*
X119366Y6313D01*
X118110Y6436D01*
X116855Y6313D01*
X115647Y5946D01*
X114534Y5352D01*
X113559Y4551D01*
X112759Y3576D01*
X112164Y2463D01*
X111797Y1256D01*
X111674Y0D01*
X111797Y-1256D01*
X112164Y-2463D01*
X112759Y-3576D01*
X113559Y-4551D01*
X114534Y-5352D01*
X115647Y-5946D01*
X116855Y-6313D01*
X118110Y-6436D01*
X119366Y-6313D01*
X120573Y-5946D01*
X121686Y-5352D01*
X122661Y-4551D01*
X123462Y-3576D01*
X123518Y-3471D01*
X124003Y-3593D01*
Y-18900D01*
X124012Y-18943D01*
X123915Y-19678D01*
X123615Y-20403D01*
X123137Y-21025D01*
X122514Y-21503D01*
X121789Y-21803D01*
X121054Y-21900D01*
X121011Y-21891D01*
X-2901D01*
X-2944Y-21900D01*
X-3679Y-21803D01*
X-4404Y-21503D01*
X-5027Y-21025D01*
X-5504Y-20403D01*
X-5805Y-19678D01*
X-5901Y-18943D01*
X-5893Y-18900D01*
Y-3593D01*
X-5408Y-3471D01*
X-5352Y-3576D01*
X-4551Y-4551D01*
X-3576Y-5352D01*
X-2463Y-5946D01*
X-1256Y-6313D01*
X0Y-6436D01*
X1256Y-6313D01*
X2463Y-5946D01*
X3576Y-5352D01*
X4551Y-4551D01*
X5352Y-3576D01*
X5946Y-2463D01*
X6313Y-1256D01*
X6436Y0D01*
X6313Y1256D01*
X5946Y2463D01*
X5352Y3576D01*
X4551Y4551D01*
X3576Y5352D01*
X2463Y5946D01*
X1256Y6313D01*
X0Y6436D01*
X-1256Y6313D01*
X-2463Y5946D01*
X-3576Y5352D01*
X-4551Y4551D01*
X-5352Y3576D01*
X-5408Y3471D01*
X-5893Y3593D01*
Y96100D01*
X-5901Y96144D01*
X-5805Y96879D01*
X-5504Y97604D01*
X-5027Y98226D01*
X-4404Y98704D01*
X-3679Y99004D01*
X-2944Y99101D01*
X-2901Y99092D01*
X36198D01*
X36389Y98630D01*
X25445Y87687D01*
X25287Y87304D01*
X25287Y87304D01*
Y83804D01*
X25287Y83804D01*
X25445Y83421D01*
X25445Y83421D01*
X25945Y82921D01*
X26328Y82763D01*
X26328Y82763D01*
X29828D01*
X29828Y82763D01*
X30211Y82921D01*
X39552Y92263D01*
X110328D01*
X110328Y92263D01*
X110711Y92421D01*
X110711Y92421D01*
X111211Y92921D01*
X111369Y93304D01*
X111369Y93304D01*
Y98304D01*
X111369Y98304D01*
X111250Y98592D01*
X111458Y99092D01*
X121011D01*
X121054Y99101D01*
X121789Y99004D01*
D02*
G37*
G36*
X110828Y98304D02*
Y93304D01*
X110328Y92804D01*
X39328D01*
X29828Y83304D01*
X26328D01*
X25828Y83804D01*
Y87304D01*
X37328Y98804D01*
X110328D01*
X110828Y98304D01*
D02*
G37*
G36*
X66330Y-63015D02*
Y-65698D01*
X65035D01*
Y-63006D01*
X62695Y-59297D01*
X64202D01*
X65710Y-61831D01*
X67181Y-59297D01*
X68670D01*
X66330Y-63015D01*
D02*
G37*
G36*
X78262Y-59306D02*
X78364D01*
X78466Y-59315D01*
X78586D01*
X78826Y-59343D01*
X79076Y-59371D01*
X79308Y-59417D01*
X79409Y-59445D01*
X79502Y-59472D01*
X79511D01*
X79520Y-59482D01*
X79576Y-59509D01*
X79659Y-59556D01*
X79770Y-59611D01*
X79890Y-59704D01*
X80010Y-59805D01*
X80131Y-59935D01*
X80242Y-60092D01*
Y-60101D01*
X80251Y-60111D01*
X80269Y-60138D01*
X80288Y-60166D01*
X80334Y-60259D01*
X80390Y-60379D01*
X80436Y-60527D01*
X80482Y-60693D01*
X80519Y-60888D01*
X80528Y-61091D01*
Y-61100D01*
Y-61119D01*
Y-61165D01*
X80519Y-61211D01*
Y-61276D01*
X80510Y-61341D01*
X80473Y-61507D01*
X80427Y-61702D01*
X80353Y-61896D01*
X80242Y-62099D01*
X80177Y-62192D01*
X80103Y-62284D01*
X80094Y-62294D01*
X80085Y-62303D01*
X80057Y-62331D01*
X80020Y-62358D01*
X79983Y-62395D01*
X79927Y-62442D01*
X79862Y-62488D01*
X79789Y-62534D01*
X79705Y-62590D01*
X79603Y-62636D01*
X79502Y-62682D01*
X79391Y-62728D01*
X79261Y-62775D01*
X79132Y-62812D01*
X78993Y-62849D01*
X78836Y-62876D01*
X78845D01*
X78854Y-62886D01*
X78910Y-62923D01*
X78984Y-62969D01*
X79076Y-63034D01*
X79187Y-63117D01*
X79298Y-63200D01*
X79418Y-63302D01*
X79520Y-63413D01*
X79530Y-63422D01*
X79576Y-63468D01*
X79631Y-63542D01*
X79715Y-63653D01*
X79826Y-63792D01*
X79881Y-63885D01*
X79946Y-63977D01*
X80020Y-64079D01*
X80094Y-64190D01*
X80177Y-64319D01*
X80260Y-64449D01*
X81046Y-65698D01*
X79492D01*
X78567Y-64310D01*
X78558Y-64301D01*
X78549Y-64273D01*
X78521Y-64236D01*
X78484Y-64190D01*
X78447Y-64134D01*
X78401Y-64060D01*
X78299Y-63912D01*
X78179Y-63746D01*
X78068Y-63598D01*
X77966Y-63459D01*
X77920Y-63413D01*
X77883Y-63367D01*
X77874Y-63357D01*
X77855Y-63339D01*
X77818Y-63302D01*
X77772Y-63256D01*
X77707Y-63219D01*
X77643Y-63172D01*
X77569Y-63135D01*
X77495Y-63098D01*
X77485D01*
X77457Y-63089D01*
X77411Y-63071D01*
X77337Y-63061D01*
X77245Y-63043D01*
X77134Y-63034D01*
X77004Y-63024D01*
X76588D01*
Y-65698D01*
X75293D01*
Y-59297D01*
X78179D01*
X78262Y-59306D01*
D02*
G37*
G36*
X74072Y-60379D02*
X70622D01*
Y-61794D01*
X73831D01*
Y-62876D01*
X70622D01*
Y-64615D01*
X74192D01*
Y-65698D01*
X69327D01*
Y-59297D01*
X74072D01*
Y-60379D01*
D02*
G37*
G36*
X62667Y-65698D02*
X61270D01*
X60715Y-64245D01*
X58144Y-64245D01*
X57616Y-65698D01*
X56247D01*
X58726Y-59297D01*
X60095D01*
X62667Y-65698D01*
D02*
G37*
G36*
X52760Y-64615D02*
X55979D01*
Y-65698D01*
X51465D01*
Y-59343D01*
X52760D01*
Y-64615D01*
D02*
G37*
G36*
X45443Y-59306D02*
X45684D01*
X45943Y-59324D01*
X46202Y-59343D01*
X46313Y-59352D01*
X46424Y-59361D01*
X46516Y-59380D01*
X46590Y-59398D01*
X46600D01*
X46618Y-59408D01*
X46646Y-59417D01*
X46683Y-59426D01*
X46784Y-59472D01*
X46914Y-59528D01*
X47053Y-59611D01*
X47210Y-59722D01*
X47358Y-59861D01*
X47506Y-60027D01*
Y-60037D01*
X47524Y-60046D01*
X47543Y-60074D01*
X47561Y-60111D01*
X47598Y-60166D01*
X47626Y-60222D01*
X47663Y-60286D01*
X47700Y-60360D01*
X47765Y-60545D01*
X47830Y-60749D01*
X47867Y-60999D01*
X47885Y-61267D01*
Y-61276D01*
Y-61295D01*
Y-61322D01*
Y-61369D01*
X47876Y-61415D01*
Y-61480D01*
X47857Y-61609D01*
X47830Y-61766D01*
X47793Y-61942D01*
X47737Y-62109D01*
X47663Y-62266D01*
X47654Y-62284D01*
X47626Y-62331D01*
X47580Y-62405D01*
X47515Y-62497D01*
X47441Y-62590D01*
X47339Y-62701D01*
X47238Y-62802D01*
X47117Y-62895D01*
X47099Y-62904D01*
X47062Y-62932D01*
X46997Y-62969D01*
X46914Y-63015D01*
X46812Y-63071D01*
X46701Y-63117D01*
X46581Y-63163D01*
X46452Y-63200D01*
X46433D01*
X46405Y-63209D01*
X46368D01*
X46322Y-63219D01*
X46257Y-63228D01*
X46192Y-63237D01*
X46109D01*
X46026Y-63246D01*
X45924Y-63256D01*
X45813Y-63265D01*
X45693Y-63274D01*
X45564D01*
X45425Y-63283D01*
X44278D01*
Y-65698D01*
X42983D01*
Y-59297D01*
X45342D01*
X45443Y-59306D01*
D02*
G37*
G36*
X35185Y-60379D02*
X33298D01*
Y-65698D01*
X32003D01*
Y-60379D01*
X30107D01*
Y-59297D01*
X35185D01*
Y-60379D01*
D02*
G37*
G36*
X38987Y-59186D02*
X39079D01*
X39200Y-59204D01*
X39338Y-59223D01*
X39496Y-59250D01*
X39662Y-59287D01*
X39838Y-59334D01*
X40023Y-59389D01*
X40208Y-59463D01*
X40402Y-59546D01*
X40587Y-59648D01*
X40772Y-59768D01*
X40948Y-59907D01*
X41114Y-60064D01*
X41124Y-60074D01*
X41151Y-60101D01*
X41197Y-60157D01*
X41244Y-60222D01*
X41309Y-60314D01*
X41383Y-60425D01*
X41456Y-60555D01*
X41540Y-60703D01*
X41623Y-60860D01*
X41697Y-61045D01*
X41771Y-61248D01*
X41836Y-61461D01*
X41891Y-61702D01*
X41928Y-61951D01*
X41956Y-62220D01*
X41965Y-62506D01*
Y-62525D01*
Y-62571D01*
X41956Y-62654D01*
Y-62765D01*
X41938Y-62895D01*
X41919Y-63043D01*
X41891Y-63219D01*
X41864Y-63394D01*
X41817Y-63589D01*
X41762Y-63792D01*
X41688Y-63996D01*
X41605Y-64199D01*
X41512Y-64393D01*
X41392Y-64588D01*
X41262Y-64773D01*
X41114Y-64948D01*
X41105Y-64958D01*
X41077Y-64985D01*
X41031Y-65032D01*
X40957Y-65087D01*
X40874Y-65152D01*
X40772Y-65226D01*
X40652Y-65300D01*
X40522Y-65383D01*
X40365Y-65466D01*
X40198Y-65540D01*
X40014Y-65614D01*
X39810Y-65679D01*
X39597Y-65735D01*
X39366Y-65781D01*
X39125Y-65809D01*
X38866Y-65818D01*
X38802D01*
X38728Y-65809D01*
X38635Y-65799D01*
X38515Y-65790D01*
X38376Y-65772D01*
X38219Y-65744D01*
X38052Y-65707D01*
X37868Y-65661D01*
X37692Y-65605D01*
X37497Y-65531D01*
X37312Y-65448D01*
X37118Y-65355D01*
X36942Y-65235D01*
X36767Y-65106D01*
X36600Y-64948D01*
X36591Y-64939D01*
X36563Y-64911D01*
X36526Y-64856D01*
X36471Y-64791D01*
X36406Y-64699D01*
X36332Y-64588D01*
X36258Y-64467D01*
X36184Y-64319D01*
X36101Y-64162D01*
X36027Y-63977D01*
X35953Y-63783D01*
X35888Y-63570D01*
X35833Y-63339D01*
X35796Y-63089D01*
X35768Y-62821D01*
X35759Y-62543D01*
Y-62534D01*
Y-62497D01*
Y-62451D01*
X35768Y-62377D01*
Y-62294D01*
X35777Y-62201D01*
X35786Y-62090D01*
X35796Y-61970D01*
X35833Y-61711D01*
X35879Y-61433D01*
X35953Y-61156D01*
X36045Y-60897D01*
Y-60888D01*
X36055Y-60878D01*
X36073Y-60851D01*
X36082Y-60814D01*
X36138Y-60721D01*
X36202Y-60601D01*
X36286Y-60462D01*
X36388Y-60323D01*
X36508Y-60166D01*
X36637Y-60018D01*
X36647Y-60009D01*
X36656Y-60000D01*
X36702Y-59953D01*
X36785Y-59879D01*
X36887Y-59796D01*
X37007Y-59704D01*
X37146Y-59602D01*
X37303Y-59509D01*
X37470Y-59435D01*
X37479D01*
X37497Y-59426D01*
X37534Y-59408D01*
X37581Y-59398D01*
X37636Y-59371D01*
X37701Y-59352D01*
X37784Y-59334D01*
X37868Y-59306D01*
X38071Y-59260D01*
X38302Y-59213D01*
X38570Y-59186D01*
X38848Y-59176D01*
X38913D01*
X38987Y-59186D01*
D02*
G37*
%LPC*%
G36*
X87092Y85984D02*
X87092Y85984D01*
X76192D01*
X76192Y85984D01*
X75880Y85922D01*
X75615Y85745D01*
X75615Y85745D01*
X69590Y79720D01*
X69413Y79455D01*
X69351Y79143D01*
X69351Y79143D01*
Y78239D01*
X68466D01*
Y69365D01*
X71867D01*
Y78239D01*
X70983D01*
Y78805D01*
X76530Y84352D01*
X77516D01*
X77723Y83852D01*
X73527Y79657D01*
X73350Y79392D01*
X73288Y79080D01*
X73288Y79080D01*
Y78239D01*
X72403D01*
Y69365D01*
X75804D01*
Y78239D01*
X74920D01*
Y78742D01*
X79030Y82852D01*
X80016D01*
X80223Y82352D01*
X77464Y79594D01*
X77287Y79329D01*
X77225Y79017D01*
X77225Y79017D01*
Y78239D01*
X76340D01*
Y69365D01*
X76992D01*
X77144Y68865D01*
X76794Y68632D01*
X76269Y67845D01*
X76215Y67574D01*
X76171Y67435D01*
Y67435D01*
X76171Y67435D01*
X76134Y67265D01*
X76134Y67265D01*
X76134Y67265D01*
X76112Y67092D01*
X76112Y67092D01*
X76112Y67092D01*
X76110Y67045D01*
X76084Y66918D01*
X76110Y66790D01*
X76112Y66743D01*
X76112Y66743D01*
X76112Y66743D01*
X76134Y66570D01*
X76134Y66570D01*
X76134Y66570D01*
X76171Y66400D01*
X76171Y66400D01*
Y66400D01*
X76215Y66263D01*
X76269Y65990D01*
X76794Y65204D01*
X76857Y65141D01*
Y63890D01*
X74621D01*
X74495Y63865D01*
X73244Y63741D01*
X71921Y63340D01*
X70702Y62688D01*
X69730Y61891D01*
X69624Y61820D01*
X69624D01*
Y61820D01*
X68624Y60821D01*
X68623Y60822D01*
X67018Y58942D01*
X66541Y58164D01*
X66360Y57971D01*
X66360Y57971D01*
X66360Y57970D01*
X62761Y52156D01*
X62677Y51932D01*
X59800Y47274D01*
X54410Y37808D01*
X49361Y28156D01*
X44660Y18330D01*
X42581Y13554D01*
X42445Y13358D01*
X40947Y9917D01*
X40900Y9702D01*
X39867Y7209D01*
X38624Y3263D01*
X37728Y-775D01*
X37188Y-4876D01*
X37008Y-9000D01*
X37006Y-9009D01*
Y-15823D01*
X36944Y-16297D01*
Y-16297D01*
X36418Y-17083D01*
X36362Y-17368D01*
X36322Y-17494D01*
Y-17494D01*
X36322Y-17494D01*
X36285Y-17664D01*
X36285Y-17664D01*
X36285Y-17664D01*
X36263Y-17837D01*
X36263Y-17837D01*
X36263Y-17837D01*
X36261Y-17874D01*
X36234Y-18011D01*
X36261Y-18148D01*
X36263Y-18186D01*
X36263Y-18186D01*
X36263Y-18186D01*
X36285Y-18359D01*
X36285Y-18359D01*
X36285Y-18359D01*
X36322Y-18529D01*
X36322Y-18529D01*
Y-18529D01*
X36362Y-18654D01*
X36418Y-18939D01*
X36944Y-19725D01*
X37730Y-20251D01*
X38658Y-20435D01*
X39586Y-20251D01*
X39943Y-20012D01*
X40373D01*
X40730Y-20251D01*
X41658Y-20435D01*
X42586Y-20251D01*
X43372Y-19725D01*
X43898Y-18939D01*
X43955Y-18652D01*
X43993Y-18529D01*
Y-18529D01*
X43993Y-18529D01*
X44032Y-18359D01*
X44032Y-18359D01*
X44032Y-18359D01*
X44055Y-18186D01*
X44055Y-18186D01*
X44055Y-18186D01*
X44057Y-18137D01*
X44082Y-18011D01*
X44057Y-17885D01*
X44055Y-17837D01*
X44055Y-17837D01*
X44055Y-17837D01*
X44032Y-17664D01*
X44032Y-17664D01*
X44032Y-17664D01*
X43993Y-17494D01*
X43993Y-17494D01*
Y-17494D01*
X43955Y-17370D01*
X43898Y-17083D01*
X43372Y-16297D01*
Y-16297D01*
X43310Y-15823D01*
Y-9009D01*
X43273Y-8823D01*
X43462Y-4975D01*
X44054Y-979D01*
X45036Y2940D01*
X46397Y6743D01*
X46669Y7318D01*
X46726Y7401D01*
X48223Y10839D01*
X48227Y10841D01*
X48227D01*
X50355Y15730D01*
X54960Y25354D01*
X59905Y34808D01*
X65185Y44079D01*
X68124Y48837D01*
X68121Y48838D01*
X71389Y54119D01*
X71411Y54143D01*
X71729Y54655D01*
X71770Y54765D01*
X71871Y54956D01*
X72734Y56007D01*
X73081Y56363D01*
X73081Y56363D01*
X74081Y57363D01*
X74081Y57363D01*
X74081Y57364D01*
X74098Y57388D01*
X74324Y57539D01*
X74592Y57592D01*
X74621Y57586D01*
X77488D01*
Y57585D01*
X78957Y57778D01*
X80325Y58345D01*
X81500Y59246D01*
X82402Y60421D01*
X82969Y61790D01*
X83162Y63258D01*
X83160D01*
Y65141D01*
X83223Y65204D01*
X83748Y65990D01*
X83804Y66273D01*
X83844Y66400D01*
Y66400D01*
X83844Y66400D01*
X83882Y66570D01*
X83882Y66570D01*
X83882Y66570D01*
X83905Y66743D01*
X83905Y66743D01*
X83905Y66743D01*
X83907Y66789D01*
X83933Y66918D01*
X83907Y67047D01*
X83905Y67092D01*
X84246Y67406D01*
X84353Y67448D01*
X88342Y63460D01*
X88342Y63460D01*
X88607Y63283D01*
X88919Y63221D01*
X99990D01*
X99990Y63221D01*
X100302Y63283D01*
X100566Y63460D01*
X102337Y65230D01*
X102600Y65217D01*
X102880Y65162D01*
X103397Y64388D01*
X104214Y63843D01*
X105177Y63651D01*
X106140Y63843D01*
X106265Y63926D01*
X107795Y62396D01*
X108060Y62220D01*
X108372Y62157D01*
X108372Y62157D01*
X108891D01*
X109017Y61967D01*
X109112Y61657D01*
X108880Y61311D01*
X108780Y60804D01*
X108880Y60297D01*
X109168Y59867D01*
X109289Y59785D01*
Y57814D01*
X109289Y57814D01*
X109351Y57502D01*
X109528Y57237D01*
X110398Y56367D01*
X110211Y55972D01*
X110160Y55898D01*
X109670Y55801D01*
X109240Y55513D01*
X109159Y55392D01*
X107629D01*
X107316Y55330D01*
X107052Y55153D01*
X107052Y55153D01*
X104000Y52101D01*
X103823Y51837D01*
X103761Y51525D01*
X103761Y51525D01*
Y50687D01*
X103640Y50605D01*
X103352Y50175D01*
X103252Y49668D01*
X103280Y49525D01*
X102314Y48558D01*
X101677Y48685D01*
X100714Y48493D01*
X99897Y47948D01*
X99352Y47131D01*
X99160Y46168D01*
X99352Y45205D01*
X99897Y44388D01*
X100714Y43843D01*
X101677Y43651D01*
X102640Y43843D01*
X103457Y44388D01*
X104002Y45205D01*
X104120Y45799D01*
X104172Y46059D01*
X104682D01*
X104734Y45799D01*
X104852Y45205D01*
X105397Y44388D01*
X106214Y43843D01*
X107177Y43651D01*
X108140Y43843D01*
X108957Y44388D01*
X109502Y45205D01*
X109694Y46168D01*
X109502Y47131D01*
X108957Y47948D01*
X108351Y48352D01*
X108503Y48852D01*
X109990D01*
X109990Y48852D01*
X110302Y48914D01*
X110567Y49091D01*
X112745Y51269D01*
X112745Y51269D01*
X112922Y51534D01*
X112984Y51846D01*
X112984Y51846D01*
Y55751D01*
X112984Y55751D01*
X112973Y55808D01*
X113423Y56109D01*
X113670Y55943D01*
X114177Y55843D01*
X114684Y55943D01*
X115114Y56231D01*
X115561Y55999D01*
X116512Y55048D01*
Y49657D01*
X108100Y41245D01*
X107923Y40980D01*
X107861Y40668D01*
X107861Y40668D01*
Y38994D01*
X107361Y38842D01*
X106957Y39448D01*
X106140Y39993D01*
X105177Y40185D01*
X104214Y39993D01*
X103397Y39448D01*
X102852Y38631D01*
X102660Y37668D01*
X102852Y36705D01*
X103397Y35888D01*
X103957Y35514D01*
X104174Y35200D01*
X104085Y34873D01*
X103952Y34675D01*
X103851Y34168D01*
X103952Y33661D01*
X104240Y33231D01*
X104670Y32943D01*
X105177Y32842D01*
X105684Y32943D01*
X106114Y33231D01*
X106402Y33661D01*
X106502Y34168D01*
X106402Y34675D01*
X106269Y34873D01*
X106179Y35200D01*
X106397Y35514D01*
X106957Y35888D01*
X107361Y36494D01*
X107861Y36342D01*
Y33606D01*
X107220Y32965D01*
X107077Y32994D01*
X106570Y32893D01*
X106140Y32605D01*
X105852Y32175D01*
X105752Y31668D01*
X105852Y31161D01*
X106140Y30731D01*
X106535Y30466D01*
X106543Y30375D01*
X106544Y30327D01*
X106461Y29961D01*
X106265Y29921D01*
X106000Y29745D01*
X104720Y28465D01*
X104577Y28493D01*
X104070Y28393D01*
X103640Y28105D01*
X103352Y27675D01*
X103252Y27168D01*
X103352Y26661D01*
X103463Y26495D01*
X103196Y25995D01*
X100475D01*
X98589Y27881D01*
X98324Y28058D01*
X98012Y28120D01*
X98012Y28120D01*
X95196D01*
X95114Y28241D01*
X94684Y28529D01*
X94177Y28629D01*
X93670Y28529D01*
X93240Y28241D01*
X92952Y27811D01*
X92852Y27304D01*
X92952Y26797D01*
X93240Y26367D01*
X93670Y26079D01*
X94177Y25978D01*
X94684Y26079D01*
X95114Y26367D01*
X95196Y26488D01*
X97674D01*
X99179Y24984D01*
X98993Y24535D01*
X98510Y24488D01*
X97954Y25045D01*
X97689Y25222D01*
X97377Y25284D01*
X97377Y25284D01*
X90696D01*
X90614Y25405D01*
X90184Y25693D01*
X89677Y25793D01*
X89417Y25742D01*
X89171Y26202D01*
X89744Y26776D01*
X90601D01*
X90601Y26776D01*
X90913Y26838D01*
X91177Y27015D01*
X94034Y29871D01*
X94177Y29842D01*
X94684Y29943D01*
X95114Y30231D01*
X95196Y30352D01*
X96822D01*
X96852Y30205D01*
X97397Y29388D01*
X98214Y28843D01*
X99177Y28651D01*
X100140Y28843D01*
X100957Y29388D01*
X101502Y30205D01*
X101694Y31168D01*
X101502Y32131D01*
X100957Y32948D01*
X100140Y33493D01*
X99177Y33685D01*
X98214Y33493D01*
X97397Y32948D01*
X96852Y32131D01*
X96822Y31984D01*
X95196D01*
X95114Y32105D01*
X94684Y32393D01*
X94177Y32493D01*
X93670Y32393D01*
X93240Y32105D01*
X92952Y31675D01*
X92852Y31168D01*
X92880Y31025D01*
X90263Y28407D01*
X89406D01*
X89406Y28407D01*
X89094Y28345D01*
X88829Y28168D01*
X88829Y28168D01*
X83100Y22439D01*
X82923Y22175D01*
X82861Y21862D01*
X82861Y21862D01*
Y-12044D01*
X79670Y-15235D01*
X79527Y-15206D01*
X79020Y-15307D01*
X78590Y-15595D01*
X78302Y-16025D01*
X78300Y-16038D01*
X78163Y-16181D01*
X77737Y-16304D01*
X77642Y-16228D01*
X77602Y-16025D01*
X77314Y-15595D01*
X76884Y-15307D01*
X76377Y-15206D01*
X75870Y-15307D01*
X75440Y-15595D01*
X75152Y-16025D01*
X75051Y-16532D01*
X75152Y-17039D01*
X75440Y-17469D01*
X75870Y-17757D01*
X76377Y-17857D01*
X76520Y-17829D01*
X78276Y-19584D01*
X78541Y-19761D01*
X78853Y-19823D01*
X78853Y-19823D01*
X81201D01*
X81201Y-19823D01*
X81513Y-19761D01*
X81778Y-19584D01*
X89412Y-11950D01*
X89589Y-11686D01*
X89651Y-11374D01*
X89651Y-11374D01*
Y14048D01*
X93364Y17761D01*
X104371D01*
X109290Y12842D01*
X109290Y12842D01*
X109554Y12665D01*
X109867Y12603D01*
X112927D01*
X112927Y12603D01*
X113240Y12665D01*
X113504Y12842D01*
X116589Y15926D01*
X116714Y15843D01*
X117677Y15651D01*
X118640Y15843D01*
X119457Y16388D01*
X120002Y17205D01*
X120194Y18168D01*
X120002Y19131D01*
X119919Y19256D01*
X123254Y22591D01*
X123254Y22591D01*
X123431Y22856D01*
X123493Y23168D01*
X123493Y23168D01*
Y59688D01*
X123493Y59688D01*
X123431Y60000D01*
X123254Y60265D01*
X117898Y65620D01*
Y68062D01*
X117898Y68062D01*
X117836Y68374D01*
X117660Y68639D01*
X117659Y68639D01*
X112755Y73544D01*
X112490Y73721D01*
X112178Y73783D01*
X112178Y73783D01*
X109009D01*
X106047Y76745D01*
X105782Y76922D01*
X105470Y76984D01*
X105470Y76984D01*
X92620D01*
X92037Y77566D01*
Y81038D01*
X91975Y81350D01*
X91799Y81615D01*
X91799Y81615D01*
X87669Y85745D01*
X87404Y85922D01*
X87092Y85984D01*
D02*
G37*
G36*
X66229Y80524D02*
X65839Y80446D01*
X65508Y80225D01*
X65287Y79894D01*
X65209Y79504D01*
X65210Y79499D01*
Y74214D01*
X65018Y73812D01*
X64993Y73811D01*
X64657Y74102D01*
X64533Y74730D01*
X64007Y75516D01*
X63993Y75525D01*
Y78239D01*
X60592D01*
Y76156D01*
X60308Y75993D01*
X60056Y76141D01*
Y78239D01*
X56655D01*
Y75525D01*
X56642Y75516D01*
X56116Y74730D01*
X55992Y74102D01*
X55656Y73811D01*
X55630Y73812D01*
X55439Y74214D01*
Y79503D01*
X55361Y79893D01*
X55140Y80224D01*
X55139Y80225D01*
X54808Y80446D01*
X54418Y80524D01*
X54028Y80446D01*
X53697Y80225D01*
X53476Y79894D01*
X53398Y79504D01*
X53399Y79499D01*
Y74214D01*
X53207Y73812D01*
X53182Y73811D01*
X52846Y74102D01*
X52722Y74730D01*
X52196Y75516D01*
X52182Y75525D01*
Y78239D01*
X48781D01*
Y76157D01*
X48496Y75993D01*
X48245Y76141D01*
Y78239D01*
X44844D01*
Y75525D01*
X44831Y75516D01*
X44305Y74730D01*
X44121Y73802D01*
X43628D01*
X43550Y74192D01*
X43329Y74523D01*
X42998Y74744D01*
X42608Y74822D01*
X42218Y74744D01*
X41887Y74523D01*
X41666Y74192D01*
X41588Y73802D01*
X41095D01*
X40911Y74730D01*
X40385Y75516D01*
X40371Y75525D01*
Y78239D01*
X36970D01*
Y76157D01*
X36684Y75993D01*
X36434Y76140D01*
Y78239D01*
X33033D01*
Y75525D01*
X33020Y75516D01*
X32494Y74730D01*
X32310Y73802D01*
X31817D01*
X31739Y74192D01*
X31518Y74523D01*
X31187Y74744D01*
X30797Y74822D01*
X30407Y74744D01*
X30076Y74523D01*
X29855Y74192D01*
X29777Y73802D01*
Y67804D01*
X29855Y67414D01*
X30076Y67083D01*
X30407Y66862D01*
X30797Y66784D01*
X31187Y66862D01*
X31518Y67083D01*
X31739Y67414D01*
X31817Y67804D01*
Y71695D01*
X32310Y71711D01*
X32331Y71607D01*
X32475Y70513D01*
X32937Y69397D01*
X33281Y68948D01*
X33578Y68561D01*
X33579Y68099D01*
Y64426D01*
X33505Y64294D01*
X33191Y64026D01*
X33114Y63998D01*
X33079Y63999D01*
X32977Y64020D01*
X32850Y63994D01*
X32802Y63992D01*
X32802Y63992D01*
X32802Y63992D01*
X32629Y63970D01*
X32629Y63970D01*
X32629Y63970D01*
X32459Y63933D01*
X32459Y63933D01*
X32459D01*
X32321Y63889D01*
X32049Y63835D01*
X31263Y63310D01*
X30737Y62523D01*
X30553Y61595D01*
X30737Y60668D01*
X30976Y60311D01*
Y59880D01*
X30737Y59523D01*
X30553Y58596D01*
X30737Y57668D01*
X31263Y56881D01*
X32049Y56356D01*
X32331Y56300D01*
X32459Y56260D01*
X32459D01*
X32459Y56260D01*
X32629Y56222D01*
X32629Y56222D01*
X32629Y56222D01*
X32802Y56199D01*
X32802Y56199D01*
X32802Y56199D01*
X32848Y56197D01*
X32977Y56171D01*
X33106Y56197D01*
X33151Y56199D01*
X33151Y56199D01*
X33151Y56199D01*
X33324Y56222D01*
X33324Y56222D01*
X33324Y56222D01*
X33494Y56260D01*
X33494Y56260D01*
X33494D01*
X33622Y56300D01*
X33905Y56356D01*
X34691Y56881D01*
X34762Y56953D01*
X36052Y57122D01*
X37297Y57638D01*
X38367Y58459D01*
X39187Y59528D01*
X39703Y60774D01*
X39875Y62075D01*
X39882Y62111D01*
Y68612D01*
X39863Y68707D01*
X39875Y68766D01*
X39880Y68778D01*
X40330Y69365D01*
X40371D01*
Y69419D01*
X40477Y69556D01*
X40932Y70656D01*
X41073Y71723D01*
X41095Y71836D01*
X41588Y71820D01*
Y68024D01*
X41666Y67634D01*
X41887Y67303D01*
X42218Y67082D01*
X42608Y67004D01*
X42998Y67082D01*
X43329Y67303D01*
X43550Y67634D01*
X43628Y68024D01*
Y71593D01*
X44121Y71609D01*
X44149Y71470D01*
X44278Y70483D01*
X44713Y69434D01*
X45319Y68644D01*
X45362Y68580D01*
Y66642D01*
X45373Y66586D01*
X45282Y66127D01*
X45022Y65738D01*
X44974Y65706D01*
X43415Y64147D01*
X43060Y63795D01*
X43060Y63795D01*
X42769Y63415D01*
X42158Y62619D01*
X41591Y61249D01*
X41474Y60360D01*
X41409Y59886D01*
X41409Y59885D01*
X41409D01*
X41400Y59840D01*
X41412Y59781D01*
X41412Y59756D01*
X41447Y59403D01*
X41545Y58406D01*
X41939Y57108D01*
X42440Y56170D01*
X42579Y55911D01*
X42682Y55733D01*
X42879Y55304D01*
X42928Y55058D01*
X42917Y55005D01*
Y53754D01*
X42842Y53288D01*
X42842Y53288D01*
X42496Y52451D01*
X41727Y51450D01*
X41588Y51357D01*
X41588Y51357D01*
X41588Y51357D01*
X41565Y51322D01*
X40492Y50015D01*
X39676Y48489D01*
X39174Y46832D01*
X39008Y45149D01*
X39000Y45109D01*
X39000D01*
X39000Y45109D01*
Y41313D01*
X39005Y41286D01*
X38955Y41031D01*
X38811Y40816D01*
X38788Y40801D01*
X38462Y40475D01*
X38461Y40474D01*
X38436Y40438D01*
X38019Y40239D01*
X37962Y40228D01*
X37938Y40232D01*
X37932Y40232D01*
X37930Y40232D01*
X37928Y40232D01*
X37593D01*
X37530Y40295D01*
X36744Y40820D01*
X36471Y40875D01*
X36333Y40918D01*
X36333D01*
X36333Y40918D01*
X36163Y40955D01*
X36163Y40955D01*
X36163Y40955D01*
X35990Y40977D01*
X35990Y40977D01*
X35990Y40977D01*
X35943Y40979D01*
X35816Y41005D01*
X35689Y40979D01*
X35641Y40977D01*
X35640Y40977D01*
X35640Y40977D01*
X35467Y40955D01*
X35467Y40955D01*
X35467Y40955D01*
X35297Y40918D01*
X35297Y40918D01*
X35297D01*
X35159Y40874D01*
X34888Y40820D01*
X34102Y40295D01*
X33576Y39508D01*
X33392Y38581D01*
X33576Y37653D01*
X33815Y37297D01*
Y36865D01*
X33576Y36508D01*
X33392Y35581D01*
X33576Y34653D01*
X34102Y33867D01*
X34888Y33341D01*
X35170Y33285D01*
X35297Y33245D01*
X35297D01*
X35297Y33245D01*
X35467Y33207D01*
X35467Y33207D01*
X35467Y33207D01*
X35640Y33184D01*
X35641Y33184D01*
X35641Y33184D01*
X35687Y33182D01*
X35816Y33157D01*
X35945Y33182D01*
X35990Y33184D01*
X35990Y33184D01*
X35990Y33184D01*
X36163Y33207D01*
X36163Y33207D01*
X36163Y33207D01*
X36333Y33245D01*
X36333Y33245D01*
X36333D01*
X36460Y33285D01*
X36744Y33341D01*
X37530Y33867D01*
X37593Y33929D01*
X37934Y33929D01*
X37937Y33929D01*
X37940Y33929D01*
Y33930D01*
X38066Y33955D01*
X38565Y34004D01*
X38654Y33986D01*
X38784Y34012D01*
X38965Y34005D01*
X39036Y34016D01*
X39162Y34063D01*
X39296Y34076D01*
X40606Y34473D01*
X41812Y35118D01*
X42840Y35962D01*
X42911Y36009D01*
X42911Y36010D01*
X43247Y36346D01*
X43247Y36346D01*
X43320Y36454D01*
X44109Y37417D01*
X44757Y38628D01*
X45156Y39942D01*
X45278Y41182D01*
X45303Y41309D01*
Y45106D01*
X45280Y45222D01*
X45454Y46096D01*
X45948Y46836D01*
X46024Y46887D01*
X46047Y46902D01*
X46071Y46938D01*
X46110Y46980D01*
X47264Y48331D01*
X48193Y49847D01*
X48566Y50749D01*
X48642Y50919D01*
X48731Y51052D01*
X48755Y51172D01*
X48755Y51172D01*
X48788Y51340D01*
X49064Y52249D01*
X49202Y53646D01*
X49221Y53743D01*
Y55005D01*
X49200Y55107D01*
X49065Y56478D01*
X48636Y57895D01*
X48068Y58956D01*
X47938Y59200D01*
X47938Y59200D01*
X47822Y59392D01*
X47811Y59408D01*
X47983Y59801D01*
X49431Y61249D01*
X49487Y61332D01*
X50371Y62410D01*
X51075Y63727D01*
X51509Y65156D01*
X51645Y66544D01*
X51665Y66642D01*
Y68650D01*
X52216Y69368D01*
X52729Y70605D01*
X52898Y71891D01*
X52906Y71932D01*
Y73348D01*
X53406Y73510D01*
X53477Y73412D01*
X53511Y73361D01*
X53698Y73081D01*
X54029Y72860D01*
X54419Y72782D01*
X54809Y72860D01*
X55140Y73081D01*
X55327Y73361D01*
X55361Y73412D01*
X55432Y73510D01*
X55932Y73348D01*
Y71488D01*
X55954Y71374D01*
X56095Y70310D01*
X56549Y69212D01*
X57173Y68400D01*
Y64573D01*
X57201Y64433D01*
X57021Y63064D01*
X56438Y61658D01*
X55598Y60562D01*
X55479Y60483D01*
X53793Y58797D01*
X53728Y58701D01*
X52714Y57513D01*
X51838Y56084D01*
X51197Y54535D01*
X50805Y52905D01*
X50683Y51348D01*
X50660Y51235D01*
Y47445D01*
X50441Y47190D01*
X50160Y47050D01*
X50154Y47052D01*
X50154D01*
X50154Y47052D01*
X49984Y47089D01*
X49984Y47089D01*
X49984Y47089D01*
X49811Y47111D01*
X49811Y47111D01*
X49811Y47111D01*
X49768Y47113D01*
X49637Y47139D01*
X49505Y47113D01*
X49461Y47111D01*
X49461Y47111D01*
X49461Y47111D01*
X49288Y47089D01*
X49288Y47089D01*
X49288Y47089D01*
X49118Y47052D01*
X49118Y47052D01*
X49118D01*
X48986Y47010D01*
X48709Y46954D01*
X47923Y46429D01*
X47397Y45643D01*
X47212Y44715D01*
X47397Y43787D01*
X47635Y43430D01*
Y42999D01*
X47397Y42643D01*
X47212Y41715D01*
X47397Y40787D01*
X47923Y40001D01*
X48709Y39475D01*
X48985Y39420D01*
X49118Y39379D01*
X49118D01*
X49118Y39379D01*
X49288Y39341D01*
X49288Y39341D01*
X49288Y39341D01*
X49461Y39318D01*
X49461Y39318D01*
X49461Y39318D01*
X49512Y39316D01*
X49637Y39291D01*
X49762Y39316D01*
X49811Y39318D01*
X49811Y39318D01*
X49811Y39318D01*
X49984Y39341D01*
X49984Y39341D01*
X49984Y39341D01*
X50154Y39379D01*
X50154Y39379D01*
X50154D01*
X50287Y39420D01*
X50564Y39475D01*
X51351Y40001D01*
X51439Y40090D01*
X52639Y40247D01*
X53957Y40794D01*
X55089Y41662D01*
X55089Y41663D01*
X55179Y41796D01*
X55872Y42641D01*
X56462Y43745D01*
X56825Y44942D01*
X56932Y46029D01*
X56963Y46187D01*
Y51235D01*
X56943Y51339D01*
X57080Y52380D01*
X57522Y53448D01*
X58161Y54280D01*
X58249Y54339D01*
X59935Y56026D01*
X59979Y56091D01*
X61160Y57473D01*
X62150Y59090D01*
X62875Y60841D01*
X63318Y62684D01*
X63461Y64496D01*
X63476Y64573D01*
Y68475D01*
X63549Y68589D01*
X64085Y69288D01*
X64551Y70414D01*
X64697Y71524D01*
X64717Y71622D01*
Y73348D01*
X65217Y73510D01*
X65288Y73412D01*
X65322Y73361D01*
X65509Y73081D01*
X65840Y72860D01*
X66230Y72782D01*
X66620Y72860D01*
X66951Y73081D01*
X67172Y73412D01*
X67250Y73802D01*
Y79503D01*
X67172Y79893D01*
X66951Y80224D01*
X66950Y80225D01*
X66619Y80446D01*
X66229Y80524D01*
D02*
G37*
G36*
X75313Y54220D02*
X74385Y54036D01*
X73599Y53510D01*
X73073Y52724D01*
X73018Y52446D01*
X72976Y52313D01*
Y52313D01*
X72976Y52313D01*
X72939Y52143D01*
X72939Y52143D01*
X72939Y52143D01*
X72917Y51970D01*
X72917Y51970D01*
X72917Y51970D01*
X72915Y51928D01*
X72889Y51796D01*
X72915Y51665D01*
X72917Y51621D01*
X72917Y51621D01*
X72917Y51621D01*
X72939Y51448D01*
X72939Y51448D01*
X72939Y51448D01*
X72976Y51278D01*
X72976Y51278D01*
Y51278D01*
X73018Y51145D01*
X73073Y50868D01*
X73599Y50082D01*
X73661Y50020D01*
Y46978D01*
X73677Y46897D01*
X73552Y46267D01*
X73418Y46067D01*
X73127Y45687D01*
X73127Y45687D01*
X73127Y45687D01*
X66161Y38722D01*
X66149Y38704D01*
X63792Y36103D01*
X61689Y33268D01*
X59874Y30239D01*
X58364Y27047D01*
X57175Y23723D01*
X56317Y20298D01*
X55799Y16805D01*
X55626Y13300D01*
X55622Y13278D01*
Y11402D01*
X55640Y11314D01*
X55521Y10415D01*
X55140Y9494D01*
X54832Y9093D01*
X54513Y8725D01*
X54513Y8725D01*
X54513Y8725D01*
X51066Y5278D01*
X51063Y5278D01*
X50747Y4908D01*
X49459Y3400D01*
X48169Y1294D01*
X47224Y-988D01*
X46647Y-3389D01*
X46453Y-5851D01*
X46455D01*
Y-16216D01*
X46455Y-16216D01*
X46442Y-16247D01*
X46393Y-16297D01*
X45867Y-17083D01*
X45812Y-17360D01*
X45770Y-17494D01*
Y-17494D01*
X45770Y-17494D01*
X45733Y-17664D01*
X45733Y-17664D01*
X45733Y-17664D01*
X45711Y-17837D01*
X45711Y-17837D01*
X45711Y-17837D01*
X45709Y-17880D01*
X45683Y-18011D01*
X45709Y-18141D01*
X45711Y-18186D01*
X45711Y-18186D01*
X45711Y-18186D01*
X45733Y-18359D01*
X45733Y-18359D01*
X45733Y-18359D01*
X45770Y-18529D01*
X45770Y-18529D01*
Y-18529D01*
X45812Y-18663D01*
X45867Y-18938D01*
X46393Y-19725D01*
X47179Y-20251D01*
X48107Y-20435D01*
X49034Y-20251D01*
X49392Y-20012D01*
X49822D01*
X50180Y-20251D01*
X51107Y-20435D01*
X52035Y-20251D01*
X52821Y-19725D01*
X53347Y-18938D01*
X53405Y-18643D01*
X53441Y-18529D01*
Y-18529D01*
X53441Y-18529D01*
X53480Y-18359D01*
X53480Y-18359D01*
X53480Y-18359D01*
X53503Y-18186D01*
X53503Y-18186D01*
X53503Y-18186D01*
X53505Y-18143D01*
X53531Y-18011D01*
X53505Y-17878D01*
X53503Y-17837D01*
X53503Y-17837D01*
X53503Y-17837D01*
X53480Y-17664D01*
X53480Y-17664D01*
X53480Y-17664D01*
X53441Y-17494D01*
X53441Y-17494D01*
Y-17494D01*
X53405Y-17379D01*
X53347Y-17083D01*
X52821Y-16297D01*
X52772Y-16247D01*
X52759Y-16216D01*
X52759D01*
X52759Y-16216D01*
Y-5851D01*
X52730Y-5709D01*
X52898Y-4002D01*
X53438Y-2225D01*
X54313Y-587D01*
X55175Y463D01*
X55522Y819D01*
X55522Y819D01*
X55522Y819D01*
X58969Y4267D01*
X58972Y4267D01*
X58972Y4267D01*
X58972Y4267D01*
X59279Y4640D01*
X60227Y5796D01*
X61159Y7540D01*
X61733Y9433D01*
X61927Y11402D01*
X61925D01*
Y13278D01*
X61892Y13448D01*
X62069Y16606D01*
X62627Y19892D01*
X63550Y23095D01*
X64825Y26175D01*
X66438Y29092D01*
X68367Y31810D01*
X70474Y34169D01*
X70618Y34265D01*
X77584Y41230D01*
X77626Y41294D01*
X78588Y42466D01*
X79339Y43870D01*
X79801Y45394D01*
X79950Y46904D01*
X79964Y46978D01*
Y50020D01*
X80027Y50082D01*
X80552Y50868D01*
X80607Y51145D01*
X80649Y51278D01*
Y51278D01*
X80649Y51278D01*
X80687Y51448D01*
X80687Y51448D01*
X80687Y51448D01*
X80710Y51621D01*
X80710Y51621D01*
X80710Y51621D01*
X80712Y51671D01*
X80737Y51796D01*
X80712Y51921D01*
X80710Y51970D01*
X80710Y51970D01*
X80710Y51970D01*
X80687Y52143D01*
X80687Y52143D01*
X80687Y52143D01*
X80649Y52313D01*
X80649Y52313D01*
Y52313D01*
X80608Y52446D01*
X80552Y52724D01*
X80027Y53510D01*
X79241Y54036D01*
X78313Y54220D01*
X77385Y54036D01*
X77028Y53797D01*
X76598D01*
X76240Y54036D01*
X75313Y54220D01*
D02*
G37*
G36*
X99177Y40185D02*
X98214Y39993D01*
X97397Y39448D01*
X97023Y38888D01*
X96709Y38671D01*
X96382Y38760D01*
X96184Y38893D01*
X95677Y38993D01*
X95170Y38893D01*
X94740Y38605D01*
X94452Y38175D01*
X94352Y37668D01*
X94452Y37161D01*
X94740Y36731D01*
X95170Y36443D01*
X95677Y36342D01*
X96184Y36443D01*
X96382Y36576D01*
X96709Y36665D01*
X97023Y36448D01*
X97397Y35888D01*
X98214Y35343D01*
X99177Y35151D01*
X100140Y35343D01*
X100957Y35888D01*
X101502Y36705D01*
X101694Y37668D01*
X101502Y38631D01*
X100957Y39448D01*
X100140Y39993D01*
X99177Y40185D01*
D02*
G37*
G36*
X77161Y35084D02*
X76233Y34900D01*
X75876Y34661D01*
X75446D01*
X75088Y34900D01*
X74161Y35084D01*
X73233Y34900D01*
X72447Y34374D01*
X71921Y33588D01*
X71866Y33309D01*
X71824Y33177D01*
X71824Y33177D01*
X71824Y33177D01*
X71786Y33007D01*
X71786Y33007D01*
X71786Y33007D01*
X71765Y32834D01*
X71765Y32834D01*
X71765Y32834D01*
X71763Y32793D01*
X71737Y32660D01*
X71763Y32528D01*
X71765Y32485D01*
X71765Y32485D01*
X71765Y32485D01*
X71786Y32312D01*
X71786Y32312D01*
X71786Y32312D01*
X71824Y32142D01*
X71824Y32142D01*
Y32142D01*
X71866Y32010D01*
X71921Y31733D01*
X72447Y30946D01*
Y30946D01*
X72509Y30472D01*
Y29465D01*
X72521Y29404D01*
X72435Y28751D01*
X72160Y28086D01*
X71759Y27564D01*
X71707Y27529D01*
X68665Y24487D01*
X68603Y24395D01*
X67571Y23186D01*
X66682Y21736D01*
X66032Y20165D01*
X65635Y18512D01*
X65510Y16927D01*
X65488Y16817D01*
Y8742D01*
X65500Y8683D01*
X65417Y8050D01*
X65150Y7405D01*
X64761Y6898D01*
X64711Y6865D01*
X60419Y2573D01*
X60066Y2219D01*
X60066Y2219D01*
X60053Y2200D01*
X58620Y522D01*
X57455Y-1379D01*
X56602Y-3439D01*
X56081Y-5607D01*
X55908Y-7806D01*
X55903Y-7829D01*
Y-16234D01*
X55841Y-16297D01*
X55315Y-17083D01*
X55257Y-17377D01*
X55220Y-17494D01*
X55220Y-17494D01*
X55220Y-17494D01*
X55182Y-17664D01*
X55182Y-17664D01*
X55182Y-17664D01*
X55160Y-17837D01*
X55160Y-17837D01*
X55160Y-17837D01*
X55158Y-17874D01*
X55131Y-18011D01*
X55158Y-18148D01*
X55160Y-18186D01*
X55160Y-18186D01*
X55160Y-18186D01*
X55182Y-18359D01*
X55182Y-18359D01*
X55182Y-18359D01*
X55220Y-18529D01*
X55220Y-18529D01*
Y-18529D01*
X55257Y-18646D01*
X55316Y-18939D01*
X55841Y-19725D01*
X56627Y-20251D01*
X57555Y-20435D01*
X58483Y-20251D01*
X58840Y-20012D01*
X59270D01*
X59627Y-20251D01*
X60555Y-20435D01*
X61483Y-20251D01*
X62269Y-19725D01*
X62795Y-18939D01*
X62850Y-18661D01*
X62891Y-18529D01*
Y-18529D01*
X62891Y-18529D01*
X62929Y-18359D01*
X62929Y-18359D01*
X62929Y-18359D01*
X62952Y-18186D01*
X62952Y-18186D01*
X62952Y-18186D01*
X62954Y-18137D01*
X62979Y-18011D01*
X62954Y-17885D01*
X62952Y-17837D01*
X62952Y-17837D01*
X62952Y-17837D01*
X62929Y-17664D01*
X62929Y-17664D01*
X62929Y-17664D01*
X62891Y-17494D01*
X62891Y-17494D01*
Y-17494D01*
X62850Y-17362D01*
X62795Y-17083D01*
X62269Y-16297D01*
X62207Y-16234D01*
Y-7829D01*
X62183Y-7712D01*
X62324Y-6280D01*
X62776Y-4790D01*
X63510Y-3417D01*
X64423Y-2304D01*
X64523Y-2238D01*
X69168Y2407D01*
X69187Y2437D01*
X70279Y3767D01*
X71107Y5315D01*
X71616Y6995D01*
X71785Y8708D01*
X71792Y8742D01*
Y16817D01*
X71770Y16926D01*
X71912Y18003D01*
X72369Y19107D01*
X72798Y19665D01*
X73123Y20030D01*
X73123Y20030D01*
X73123Y20030D01*
X76164Y23072D01*
X76164Y23072D01*
Y23072D01*
X76182Y23098D01*
X77286Y24444D01*
X78121Y26006D01*
X78636Y27702D01*
X78806Y29435D01*
X78812Y29465D01*
Y30472D01*
X78875Y30946D01*
Y30946D01*
X79400Y31733D01*
X79455Y32009D01*
X79496Y32142D01*
Y32142D01*
X79496Y32142D01*
X79535Y32312D01*
X79535Y32312D01*
X79535Y32312D01*
X79557Y32485D01*
X79557Y32485D01*
X79557Y32485D01*
X79559Y32530D01*
X79585Y32660D01*
X79559Y32791D01*
X79557Y32834D01*
X79557Y32834D01*
X79557Y32834D01*
X79535Y33007D01*
X79535Y33007D01*
X79535Y33007D01*
X79496Y33177D01*
X79496Y33177D01*
Y33177D01*
X79456Y33309D01*
X79400Y33588D01*
X78875Y34374D01*
X78088Y34900D01*
X77161Y35084D01*
D02*
G37*
G36*
X95433Y-5474D02*
X94455Y-5669D01*
X93625Y-6223D01*
X93071Y-7053D01*
X92876Y-8032D01*
X93071Y-9010D01*
X93625Y-9840D01*
X94455Y-10394D01*
X95433Y-10588D01*
X96412Y-10394D01*
X97241Y-9840D01*
X97795Y-9010D01*
X97990Y-8032D01*
X97795Y-7053D01*
X97241Y-6223D01*
X96412Y-5669D01*
X95433Y-5474D01*
D02*
G37*
G36*
X22677D02*
X21699Y-5669D01*
X20869Y-6223D01*
X20315Y-7053D01*
X20120Y-8032D01*
X20315Y-9010D01*
X20869Y-9840D01*
X21699Y-10394D01*
X22677Y-10588D01*
X23656Y-10394D01*
X24485Y-9840D01*
X25040Y-9010D01*
X25234Y-8032D01*
X25040Y-7053D01*
X24485Y-6223D01*
X23656Y-5669D01*
X22677Y-5474D01*
D02*
G37*
%LPD*%
G36*
X87606Y79540D02*
Y78239D01*
X84214D01*
Y71111D01*
X83714Y70844D01*
X83678Y70868D01*
Y78239D01*
X80277D01*
Y69365D01*
X80277D01*
X80269Y69340D01*
X80231D01*
X79741Y69837D01*
Y78239D01*
X79002D01*
X78917Y78739D01*
X81530Y81352D01*
X85794D01*
X87606Y79540D01*
D02*
G37*
G36*
X86828Y73304D02*
X87828Y72304D01*
X88328Y71804D01*
X99978D01*
X100581Y71201D01*
Y67517D01*
X99868Y66804D01*
X89041D01*
X84828Y71017D01*
Y77304D01*
X86828D01*
Y73304D01*
D02*
G37*
G36*
X108435Y67256D02*
X108352Y67131D01*
X108182Y66277D01*
X107672D01*
X107502Y67131D01*
X106957Y67948D01*
X106140Y68493D01*
X105177Y68685D01*
X104214Y68493D01*
X103397Y67948D01*
X102852Y67131D01*
X102822Y66984D01*
X102121D01*
X101809Y66922D01*
X101544Y66745D01*
X101544Y66745D01*
X99652Y64852D01*
X89257D01*
X85449Y68660D01*
X85627Y69189D01*
X85859Y69221D01*
X88658Y66421D01*
X89041Y66263D01*
X89041Y66263D01*
X99868D01*
X99868Y66263D01*
X100251Y66421D01*
X100964Y67135D01*
X101122Y67517D01*
X101122Y67517D01*
Y71201D01*
X101122Y71201D01*
X100964Y71584D01*
X100964Y71584D01*
X100495Y72052D01*
X100685Y72552D01*
X103139D01*
X108435Y67256D01*
D02*
G37*
G36*
X120043Y48676D02*
X120361Y48526D01*
Y27006D01*
X118371Y25015D01*
X117982Y25334D01*
X118131Y25556D01*
X118193Y25868D01*
X118193Y25868D01*
Y29649D01*
X118314Y29731D01*
X118602Y30161D01*
X118702Y30668D01*
X118602Y31175D01*
X118314Y31605D01*
X117884Y31893D01*
X117377Y31993D01*
X116870Y31893D01*
X116440Y31605D01*
X116152Y31175D01*
X116051Y30668D01*
X116152Y30161D01*
X116440Y29731D01*
X116561Y29649D01*
Y26206D01*
X113049Y22693D01*
X107043D01*
X106972Y22792D01*
X106856Y23193D01*
X115754Y32091D01*
X115931Y32356D01*
X115993Y32668D01*
X115993Y32668D01*
Y36650D01*
X116114Y36731D01*
X116402Y37161D01*
X116502Y37668D01*
X116402Y38175D01*
X116114Y38605D01*
X115684Y38893D01*
X115177Y38993D01*
X114670Y38893D01*
X114240Y38605D01*
X113998Y38243D01*
X113727Y38206D01*
X113456Y38243D01*
X113214Y38605D01*
X112784Y38893D01*
X112277Y38993D01*
X111770Y38893D01*
X111493Y38707D01*
X111015Y38908D01*
X110993Y38929D01*
Y39830D01*
X119861Y48699D01*
X120043Y48676D01*
D02*
G37*
G36*
X88429Y20860D02*
X88352Y20468D01*
X88452Y19961D01*
X88740Y19531D01*
X89170Y19243D01*
X89677Y19142D01*
X90184Y19243D01*
X90614Y19531D01*
X90696Y19652D01*
X92296D01*
X92449Y19155D01*
X92449Y19152D01*
X88259Y14963D01*
X88082Y14698D01*
X88020Y14386D01*
X88020Y14386D01*
Y-11036D01*
X80863Y-18192D01*
X80214D01*
X80212Y-18187D01*
X80131Y-17692D01*
X80464Y-17469D01*
X80752Y-17039D01*
X80853Y-16532D01*
X80824Y-16389D01*
X84254Y-12959D01*
X84254Y-12959D01*
X84431Y-12694D01*
X84493Y-12382D01*
X84493Y-12382D01*
Y19516D01*
X84593Y19599D01*
X85240Y19531D01*
X85670Y19243D01*
X86177Y19142D01*
X86684Y19243D01*
X87114Y19531D01*
X87402Y19961D01*
X87502Y20468D01*
X87474Y20611D01*
X88016Y21153D01*
X88429Y20860D01*
D02*
G37*
%LPC*%
G36*
X78068Y-60379D02*
X76588D01*
Y-62007D01*
X77846D01*
X78031Y-61998D01*
X78225Y-61988D01*
X78420Y-61979D01*
X78503Y-61970D01*
X78577Y-61961D01*
X78651Y-61942D01*
X78697Y-61933D01*
X78706D01*
X78734Y-61914D01*
X78780Y-61896D01*
X78826Y-61868D01*
X78947Y-61785D01*
X79002Y-61729D01*
X79058Y-61665D01*
X79067Y-61655D01*
X79076Y-61628D01*
X79104Y-61591D01*
X79132Y-61535D01*
X79150Y-61461D01*
X79178Y-61378D01*
X79187Y-61285D01*
X79197Y-61184D01*
Y-61165D01*
Y-61128D01*
X79187Y-61073D01*
X79178Y-60999D01*
X79150Y-60915D01*
X79123Y-60832D01*
X79076Y-60740D01*
X79021Y-60666D01*
X79011Y-60656D01*
X78993Y-60629D01*
X78947Y-60601D01*
X78891Y-60555D01*
X78826Y-60508D01*
X78743Y-60471D01*
X78641Y-60434D01*
X78531Y-60407D01*
X78521D01*
X78493Y-60397D01*
X78438D01*
X78355Y-60388D01*
X78151D01*
X78068Y-60379D01*
D02*
G37*
G36*
X59402Y-60786D02*
X58532Y-63163D01*
X60299Y-63163D01*
X59402Y-60786D01*
D02*
G37*
G36*
X45240Y-60379D02*
X44278D01*
Y-62201D01*
X45166D01*
X45230Y-62192D01*
X45397D01*
X45564Y-62183D01*
X45730Y-62164D01*
X45878Y-62136D01*
X45943Y-62127D01*
X45998Y-62109D01*
X46007Y-62099D01*
X46044Y-62090D01*
X46091Y-62062D01*
X46146Y-62035D01*
X46211Y-61988D01*
X46276Y-61933D01*
X46350Y-61868D01*
X46405Y-61794D01*
X46415Y-61785D01*
X46433Y-61757D01*
X46452Y-61711D01*
X46479Y-61646D01*
X46507Y-61572D01*
X46535Y-61489D01*
X46544Y-61396D01*
X46553Y-61295D01*
Y-61276D01*
Y-61239D01*
X46544Y-61174D01*
X46525Y-61091D01*
X46498Y-60999D01*
X46461Y-60897D01*
X46415Y-60804D01*
X46341Y-60712D01*
X46331Y-60703D01*
X46303Y-60675D01*
X46257Y-60638D01*
X46202Y-60592D01*
X46128Y-60536D01*
X46035Y-60490D01*
X45933Y-60453D01*
X45823Y-60425D01*
X45813D01*
X45776Y-60416D01*
X45711Y-60407D01*
X45619Y-60397D01*
X45499D01*
X45415Y-60388D01*
X45332D01*
X45240Y-60379D01*
D02*
G37*
G36*
X38866Y-60277D02*
X38792D01*
X38737Y-60286D01*
X38663Y-60296D01*
X38589Y-60305D01*
X38404Y-60342D01*
X38201Y-60416D01*
X38089Y-60453D01*
X37979Y-60508D01*
X37877Y-60573D01*
X37766Y-60647D01*
X37664Y-60730D01*
X37571Y-60832D01*
X37562Y-60841D01*
X37553Y-60860D01*
X37525Y-60888D01*
X37497Y-60934D01*
X37461Y-60999D01*
X37424Y-61063D01*
X37377Y-61147D01*
X37331Y-61248D01*
X37285Y-61359D01*
X37238Y-61480D01*
X37201Y-61618D01*
X37165Y-61766D01*
X37137Y-61933D01*
X37109Y-62109D01*
X37100Y-62294D01*
X37091Y-62497D01*
Y-62506D01*
Y-62543D01*
Y-62599D01*
X37100Y-62673D01*
X37109Y-62765D01*
X37118Y-62876D01*
X37137Y-62987D01*
X37155Y-63117D01*
X37211Y-63385D01*
X37303Y-63653D01*
X37359Y-63792D01*
X37424Y-63922D01*
X37507Y-64042D01*
X37590Y-64153D01*
X37599Y-64162D01*
X37618Y-64181D01*
X37646Y-64208D01*
X37683Y-64236D01*
X37729Y-64282D01*
X37793Y-64329D01*
X37858Y-64384D01*
X37942Y-64430D01*
X38117Y-64541D01*
X38339Y-64625D01*
X38460Y-64662D01*
X38589Y-64689D01*
X38728Y-64708D01*
X38866Y-64717D01*
X38941D01*
X38996Y-64708D01*
X39061Y-64699D01*
X39135Y-64689D01*
X39311Y-64643D01*
X39514Y-64578D01*
X39616Y-64532D01*
X39727Y-64486D01*
X39829Y-64421D01*
X39939Y-64347D01*
X40041Y-64264D01*
X40134Y-64162D01*
X40143Y-64153D01*
X40152Y-64134D01*
X40180Y-64107D01*
X40208Y-64060D01*
X40254Y-63996D01*
X40291Y-63922D01*
X40337Y-63838D01*
X40383Y-63737D01*
X40430Y-63626D01*
X40476Y-63505D01*
X40522Y-63367D01*
X40559Y-63209D01*
X40587Y-63052D01*
X40615Y-62876D01*
X40624Y-62682D01*
X40633Y-62479D01*
Y-62469D01*
Y-62432D01*
Y-62377D01*
X40624Y-62294D01*
X40615Y-62201D01*
X40606Y-62099D01*
X40596Y-61979D01*
X40569Y-61859D01*
X40513Y-61591D01*
X40430Y-61313D01*
X40374Y-61174D01*
X40310Y-61054D01*
X40226Y-60934D01*
X40143Y-60823D01*
X40134Y-60814D01*
X40124Y-60795D01*
X40097Y-60777D01*
X40060Y-60740D01*
X40004Y-60693D01*
X39949Y-60647D01*
X39884Y-60601D01*
X39801Y-60545D01*
X39718Y-60499D01*
X39616Y-60453D01*
X39403Y-60360D01*
X39283Y-60323D01*
X39153Y-60305D01*
X39015Y-60286D01*
X38866Y-60277D01*
D02*
G37*
%LPD*%
D12*
X30796Y73802D02*
D03*
X34733D02*
D03*
X38671D02*
D03*
X42608D02*
D03*
X46545D02*
D03*
X50481D02*
D03*
X54418D02*
D03*
X58355D02*
D03*
X62292D02*
D03*
X85915D02*
D03*
X81977D02*
D03*
X78040D02*
D03*
X66229D02*
D03*
X74103D02*
D03*
X70166D02*
D03*
D13*
X97686Y84826D02*
D03*
X19025D02*
D03*
D14*
X105177Y66168D02*
D03*
Y37668D02*
D03*
X117677Y18168D02*
D03*
X99177Y31168D02*
D03*
X110177Y18168D02*
D03*
X99177Y37668D02*
D03*
X107177Y46168D02*
D03*
X101677D02*
D03*
X110677Y66168D02*
D03*
D21*
X49955Y44396D02*
G03*
X49956Y44396I1101J1101D01*
G01*
X51224Y42485D02*
G03*
X49830Y41908I0J-1971D01*
G01*
X51224Y42485D02*
G03*
X53375Y43377I0J3043D01*
G01*
X49956Y44396D02*
G03*
X51056Y43940I1100J1102D01*
G01*
X53375Y43377D02*
G03*
X54539Y46187I-2810J2810D01*
G01*
X51056Y43940D02*
G03*
X52464Y44524I-0J1993D01*
G01*
D02*
G03*
X53084Y46020I-1497J1497D01*
G01*
X55507Y57083D02*
G03*
X53084Y51235I5848J-5848D01*
G01*
X57193Y58769D02*
G03*
X59597Y64573I-5805J5805D01*
G01*
Y68479D02*
G03*
X58977Y69983I-2134J0D01*
G01*
X58356Y71488D02*
G03*
X58977Y69983I2134J0D01*
G01*
X56535Y56053D02*
G03*
X54539Y51235I4820J-4818D01*
G01*
X61626Y70022D02*
G03*
X61052Y68586I1509J-1436D01*
G01*
X61673Y70070D02*
G03*
X62293Y71622I-1631J1552D01*
G01*
X58221Y57740D02*
G03*
X61052Y64573I-6834J6834D01*
G01*
X47786Y68765D02*
G03*
X47219Y70134I-1936J0D01*
G01*
X46688Y63992D02*
G03*
X47786Y66642I-2651J2651D01*
G01*
X46545Y71609D02*
G03*
X47112Y70240I1936J0D01*
G01*
X45342Y55005D02*
G03*
X44659Y57140I-3683J-0D01*
G01*
X44776Y62079D02*
G03*
X43824Y59840I2300J-2300D01*
G01*
X43824D02*
G03*
X44659Y57140I4510J-84D01*
G01*
X43302Y49643D02*
G03*
X45121Y52470I-5203J5347D01*
G01*
X43302Y49643D02*
G03*
X41424Y45109I4533J-4533D01*
G01*
X40502Y39086D02*
G03*
X41424Y41313I-2226J2226D01*
G01*
X37935Y37808D02*
G03*
X40176Y38760I0J3113D01*
G01*
X36255Y38141D02*
G03*
X37059Y37808I804J804D01*
G01*
X49689Y70018D02*
G03*
X50482Y71932I-1914J1914D01*
G01*
X49648Y69977D02*
G03*
X49241Y68994I984J-982D01*
G01*
X46797Y55005D02*
G03*
X45844Y57984I-5138J0D01*
G01*
X45805Y61051D02*
G03*
X45278Y59813I1271J-1271D01*
G01*
X45278D02*
G03*
X45844Y57984I3055J-57D01*
G01*
X44333Y48616D02*
G03*
X46491Y51980I-6233J6374D01*
G01*
X44333Y48616D02*
G03*
X42879Y45106I3510J-3510D01*
G01*
X38654Y36410D02*
G03*
X41197Y37723I-720J4511D01*
G01*
X37940Y36353D02*
G03*
X38583Y36399I-0J4557D01*
G01*
X37059Y36353D02*
G03*
X36255Y36020I0J-1137D01*
G01*
X47717Y62963D02*
G03*
X49241Y66642I-3680J3680D01*
G01*
X46491Y51980D02*
G03*
X46797Y53743I-4939J1763D01*
G01*
X45121Y52470D02*
G03*
X45342Y53743I-3569J1273D01*
G01*
X41533Y38060D02*
G03*
X42879Y41309I-3250J3250D01*
G01*
X36003Y68612D02*
G03*
X35368Y70161I-2210J0D01*
G01*
X34734Y71711D02*
G03*
X35368Y70161I2210J0D01*
G01*
X34715Y60823D02*
G03*
X36003Y62111I0J1288D01*
G01*
X33417Y61156D02*
G03*
X34220Y60823I804J804D01*
G01*
X38064Y70342D02*
G03*
X38671Y71836I-1535J1494D01*
G01*
X38064Y70342D02*
G03*
X37458Y68848I1535J-1494D01*
G01*
Y68612D02*
G03*
X37453Y68802I-3665J0D01*
G01*
X37458Y68802D02*
G03*
X37457Y68848I-3205J0D01*
G01*
X34715Y59368D02*
G03*
X37458Y62111I0J2743D01*
G01*
X34220Y59368D02*
G03*
X33417Y59035I0J-1137D01*
G01*
X81069Y66478D02*
G03*
X80736Y65675I804J-804D01*
G01*
X77488Y60011D02*
G03*
X80736Y63258I0J3248D01*
G01*
X72367Y59078D02*
G03*
X72367Y59077I2253J-2254D01*
G01*
X74621Y60011D02*
G03*
X72367Y59078I0J-3187D01*
G01*
X71367Y58078D02*
G03*
X69667Y55931I8394J-8394D01*
G01*
X66060Y50114D02*
G03*
X46002Y11810I256158J-158540D01*
G01*
X44504Y8369D02*
G03*
X40885Y-9009I39922J-17378D01*
G01*
Y-16146D02*
G03*
X41658Y-18011I2637J0D01*
G01*
X79281Y65675D02*
G03*
X78948Y66478I-1137J0D01*
G01*
X77488Y61466D02*
G03*
X79281Y63258I0J1793D01*
G01*
X74621Y61466D02*
G03*
X71338Y60106I0J-4642D01*
G01*
X70338Y59106D02*
G03*
X68430Y56697I9422J-9422D01*
G01*
X64823Y50880D02*
G03*
X44668Y12390I257396J-159306D01*
G01*
X43170Y8949D02*
G03*
X39430Y-9009I41256J-17959D01*
G01*
X77873Y51357D02*
G03*
X77540Y50553I804J-804D01*
G01*
X75870Y42944D02*
G03*
X77540Y46978I-4033J4033D01*
G01*
X68904Y35979D02*
G03*
X59501Y13278I22701J-22701D01*
G01*
X53807Y2533D02*
G03*
X50335Y-5851I8384J-8384D01*
G01*
Y-16216D02*
G03*
X51057Y-17961I2468J0D01*
G01*
X76085Y50553D02*
G03*
X75753Y51357I-1137J0D01*
G01*
X74841Y43973D02*
G03*
X76085Y46978I-3005J3005D01*
G01*
X67875Y37008D02*
G03*
X58046Y13278I23730J-23730D01*
G01*
X56227Y7011D02*
G03*
X58046Y11402I-4391J4391D01*
G01*
X52779Y3562D02*
G03*
X48880Y-5851I9413J-9413D01*
G01*
X48157Y-17961D02*
G03*
X48880Y-16216I-1745J1745D01*
G01*
X77161Y32660D02*
G03*
X76388Y30795I1865J-1865D01*
G01*
X71408Y21745D02*
G03*
X69368Y16817I4927J-4927D01*
G01*
X62809Y-524D02*
G03*
X59782Y-7829I7305J-7305D01*
G01*
Y-16324D02*
G03*
X60429Y-17885I2207J0D01*
G01*
X74933Y30795D02*
G03*
X74161Y32660I-2637J0D01*
G01*
X73421Y25815D02*
G03*
X74933Y29465I-3650J3650D01*
G01*
X70380Y22773D02*
G03*
X67913Y16817I5956J-5956D01*
G01*
X66425Y5150D02*
G03*
X67913Y8742I-3591J3591D01*
G01*
X61780Y505D02*
G03*
X58328Y-7829I8334J-8334D01*
G01*
X57681Y-17885D02*
G03*
X58328Y-16324I-1561J1561D01*
G01*
X57256Y5982D02*
G03*
X59501Y11402I-5420J5420D01*
G01*
X67454Y4122D02*
G03*
X69368Y8742I-4620J4620D01*
G01*
X74450Y24786D02*
G03*
X76388Y29465I-4679J4679D01*
G01*
X38658Y-18011D02*
G03*
X39430Y-16146I-1865J1865D01*
G01*
X49955Y44396D02*
X49956Y44396D01*
X49637Y41715D02*
X49830Y41908D01*
X49637Y44715D02*
X49955Y44396D01*
X53084Y46020D02*
Y51235D01*
X54539Y46187D02*
Y51235D01*
X53084D02*
Y51235D01*
X55507Y57083D02*
Y57083D01*
X57193Y58769D01*
Y58769D02*
Y58769D01*
X59597Y64573D02*
Y68479D01*
X58356Y71488D02*
Y73802D01*
X56535Y56053D02*
X58221Y57740D01*
X61052Y64573D02*
Y68586D01*
X61626Y70022D02*
X61673Y70070D01*
X47786Y66642D02*
Y68765D01*
X47112Y70240D02*
X47219Y70134D01*
X46545Y71609D02*
Y73802D01*
X45342Y55005D02*
Y55005D01*
Y53743D02*
Y55005D01*
X44776Y62079D02*
X46688Y63992D01*
X43302Y49643D02*
Y49643D01*
X43302Y49643D02*
X43302Y49643D01*
X40176Y38760D02*
X40502Y39086D01*
X40176Y38760D02*
X40176D01*
X37928Y37808D02*
X37935Y37808D01*
X37059Y37808D02*
X37928D01*
X49648Y69977D02*
X49689Y70018D01*
X49648Y69977D02*
X49648Y69977D01*
X49241Y66642D02*
Y68994D01*
X45805Y61051D02*
X47717Y62963D01*
X46797Y53743D02*
Y55005D01*
X44333Y48616D02*
X44333D01*
X42879Y41309D02*
Y45106D01*
X41197Y37723D02*
Y37723D01*
X38583Y36399D02*
X38654Y36410D01*
X37930Y36353D02*
X37940Y36353D01*
X37059Y36353D02*
X37930D01*
X62293Y71622D02*
Y73802D01*
X50482Y71932D02*
Y73802D01*
X35816Y35581D02*
X36255Y36020D01*
X45342Y53743D02*
Y53743D01*
X41424Y41313D02*
Y45109D01*
X35816Y38581D02*
X36255Y38141D01*
X41197Y37723D02*
X41533Y38060D01*
X36003Y62111D02*
Y68612D01*
X34734Y71711D02*
Y73802D01*
Y71711D02*
Y71711D01*
X34220Y60823D02*
X34715D01*
X37453Y68802D02*
X37458Y68802D01*
Y68612D02*
Y68612D01*
Y62111D02*
Y68612D01*
X37457Y68848D02*
X37458D01*
X34220Y59368D02*
X34715D01*
X80736Y63258D02*
Y65675D01*
X74621Y60011D02*
X77488D01*
X72367Y59077D02*
X72367Y59078D01*
X71367Y58078D02*
X72367Y59077D01*
X69350Y55419D02*
X69667Y55931D01*
X66060Y50114D02*
X69341Y55417D01*
X44504Y8369D02*
X46002Y11810D01*
X40885Y-16146D02*
Y-9009D01*
X79281Y63258D02*
Y65675D01*
X74621Y61466D02*
X77488D01*
X74621D02*
X74621D01*
X68421Y56695D02*
X68430Y56697D01*
X64823Y50880D02*
X68421Y56695D01*
X43170Y8949D02*
X44668Y12390D01*
X39430Y-9009D02*
Y-9009D01*
Y-16146D02*
Y-9009D01*
X77540Y46978D02*
Y50553D01*
X68904Y35979D02*
X75870Y42944D01*
X59501Y11402D02*
Y13278D01*
X53807Y2533D02*
X57256Y5982D01*
X51057Y-17961D02*
X51107Y-18011D01*
X50335Y-16216D02*
Y-5851D01*
Y-16216D02*
Y-16216D01*
X76085Y46978D02*
Y50553D01*
X67875Y37008D02*
X74841Y43973D01*
X58046Y13278D02*
Y13278D01*
Y11402D02*
Y13278D01*
X52779Y3562D02*
X56227Y7011D01*
Y7011D02*
Y7011D01*
X48880Y-5851D02*
Y-5851D01*
Y-16216D02*
Y-5851D01*
Y-16216D02*
Y-16216D01*
X48107Y-18011D02*
X48157Y-17961D01*
X76388Y29465D02*
Y30795D01*
X71408Y21745D02*
X74450Y24786D01*
X69368Y16817D02*
Y16817D01*
Y8742D02*
Y16817D01*
X60429Y-17885D02*
X60555Y-18011D01*
X59782Y-16324D02*
Y-7829D01*
X74933Y29465D02*
Y30795D01*
X70380Y22773D02*
X73421Y25815D01*
X67913Y8742D02*
Y16817D01*
X61780Y505D02*
X66425Y5150D01*
X66425D01*
X61780Y505D02*
Y505D01*
X58328Y-7829D02*
Y-7829D01*
Y-16324D02*
Y-7829D01*
X57555Y-18011D02*
X57681Y-17885D01*
X77873Y51357D02*
X78313Y51796D01*
X62809Y-524D02*
X67454Y4122D01*
X32977Y61595D02*
X33417Y61156D01*
X38671Y71836D02*
Y73802D01*
X32977Y58596D02*
X33417Y59035D01*
X69341Y55417D02*
X69350Y55419D01*
X81069Y66478D02*
X81508Y66918D01*
X75313Y51796D02*
X75753Y51357D01*
X70338Y59106D02*
X71338Y60106D01*
X78509Y66918D02*
X78948Y66478D01*
D22*
X49648Y69977D02*
D03*
X37458Y68612D02*
D03*
D23*
X94177Y27304D02*
X98012D01*
X100137Y25179D01*
X105688D01*
X112277Y31768D01*
Y37668D01*
X110177Y18168D02*
X112677D01*
X121177Y26668D01*
Y58482D01*
X115305Y64353D02*
X121177Y58482D01*
X115305Y64353D02*
Y67839D01*
X112131Y71014D02*
X115305Y67839D01*
X108271Y71014D02*
X112131D01*
X104517Y74768D02*
X108271Y71014D01*
X91702Y74768D02*
X104517D01*
X89822Y76648D02*
X91702Y74768D01*
X89822Y76648D02*
Y80458D01*
X86612Y83668D02*
X89822Y80458D01*
X78692Y83668D02*
X86612D01*
X74104Y79080D02*
X78692Y83668D01*
X74104Y73802D02*
Y79080D01*
X114239Y60804D02*
X119328Y55715D01*
Y49319D02*
Y55715D01*
X110177Y40168D02*
X119328Y49319D01*
X110177Y31668D02*
Y40168D01*
X107677Y29168D02*
X110177Y31668D01*
X106577Y29168D02*
X107677D01*
X104577Y27168D02*
X106577Y29168D01*
X89677Y24468D02*
X97377D01*
X98177Y23668D01*
X106177D01*
X115177Y32668D01*
Y37668D01*
X110677Y66168D02*
X114239Y62606D01*
Y60804D02*
Y62606D01*
X89677Y20468D02*
X107877D01*
X110177Y18168D01*
X105177Y34168D02*
Y37668D01*
X102121Y66168D02*
X105177D01*
X99990Y64037D02*
X102121Y66168D01*
X88919Y64037D02*
X99990D01*
X81978Y70977D02*
X88919Y64037D01*
X81978Y70977D02*
Y73802D01*
X90601Y27592D02*
X94177Y31168D01*
X89406Y27592D02*
X90601D01*
X83677Y21862D02*
X89406Y27592D01*
X83677Y-12382D02*
Y21862D01*
X79527Y-16532D02*
X83677Y-12382D01*
X110105Y57814D02*
Y60804D01*
Y57814D02*
X112168Y55751D01*
Y51846D02*
Y55751D01*
X109990Y49668D02*
X112168Y51846D01*
X107077Y49668D02*
X109990D01*
X112328Y59017D02*
X114177Y57168D01*
X112328Y59017D02*
Y61686D01*
X111041Y62973D02*
X112328Y61686D01*
X108372Y62973D02*
X111041D01*
X105177Y66168D02*
X108372Y62973D01*
X103477Y73368D02*
X110677Y66168D01*
X91122Y73368D02*
X103477D01*
X88422Y76069D02*
X91122Y73368D01*
X88422Y76069D02*
Y79878D01*
X86132Y82168D02*
X88422Y79878D01*
X81192Y82168D02*
X86132D01*
X78041Y79017D02*
X81192Y82168D01*
X78041Y73802D02*
Y79017D01*
X107629Y54576D02*
X110177D01*
X104577Y51525D02*
X107629Y54576D01*
X104577Y49668D02*
Y51525D01*
X86177Y20468D02*
X88177Y22468D01*
X95038D01*
X95629Y21878D01*
X113387D01*
X117377Y25868D01*
Y30668D01*
X107177Y46168D02*
Y49568D01*
X107077Y49668D02*
X107177Y49568D01*
X94177Y31168D02*
X99177D01*
X114177Y57168D02*
X115546D01*
X117328Y55386D01*
Y49319D02*
Y55386D01*
X108677Y40668D02*
X117328Y49319D01*
X108677Y33268D02*
Y40668D01*
X107077Y31668D02*
X108677Y33268D01*
X101677Y46168D02*
Y46768D01*
X104577Y49668D01*
X117677Y18168D02*
X122677Y23168D01*
Y59688D01*
X117083Y65282D02*
X122677Y59688D01*
X117083Y65282D02*
Y68062D01*
X112178Y72967D02*
X117083Y68062D01*
X108671Y72967D02*
X112178D01*
X105470Y76168D02*
X108671Y72967D01*
X92282Y76168D02*
X105470D01*
X91222Y77228D02*
X92282Y76168D01*
X91222Y77228D02*
Y81038D01*
X87092Y85168D02*
X91222Y81038D01*
X76192Y85168D02*
X87092D01*
X70167Y79143D02*
X76192Y85168D01*
X70167Y73802D02*
Y79143D01*
X112927Y13418D02*
X117677Y18168D01*
X109867Y13418D02*
X112927D01*
X104709Y18576D02*
X109867Y13418D01*
X93026Y18576D02*
X104709D01*
X88835Y14386D02*
X93026Y18576D01*
X88835Y-11374D02*
Y14386D01*
X81201Y-19008D02*
X88835Y-11374D01*
X78853Y-19008D02*
X81201D01*
X76377Y-16532D02*
X78853Y-19008D01*
X95677Y37668D02*
X99177D01*
D24*
X54419Y73802D02*
Y79503D01*
X54418Y79504D02*
X54419Y79503D01*
X42608Y68024D02*
Y73802D01*
X66230D02*
Y79503D01*
X66229Y79504D02*
X66230Y79503D01*
X30797Y67804D02*
Y73802D01*
D25*
X95433Y-8032D02*
D03*
X22677D02*
D03*
D26*
X118110Y0D02*
D03*
X0D02*
D03*
D27*
X46837Y40588D02*
D03*
X49637Y44715D02*
D03*
Y41715D02*
D03*
X46837Y46088D02*
D03*
X35816Y35581D02*
D03*
Y38581D02*
D03*
X57357Y44602D02*
D03*
X51818Y36100D02*
D03*
X-4823Y-18032D02*
D03*
Y-13032D02*
D03*
Y10968D02*
D03*
Y18968D02*
D03*
Y26968D02*
D03*
Y34968D02*
D03*
Y42968D02*
D03*
Y50968D02*
D03*
Y58968D02*
D03*
Y66968D02*
D03*
Y74968D02*
D03*
Y82968D02*
D03*
Y90968D02*
D03*
X-4813Y-6313D02*
D03*
X-1945Y-21100D02*
D03*
Y98300D02*
D03*
X6055Y-21100D02*
D03*
Y-13100D02*
D03*
Y-5100D02*
D03*
Y10900D02*
D03*
Y18900D02*
D03*
Y26900D02*
D03*
Y34900D02*
D03*
Y42900D02*
D03*
Y50900D02*
D03*
Y58900D02*
D03*
Y66900D02*
D03*
Y74900D02*
D03*
Y82900D02*
D03*
Y90900D02*
D03*
Y98300D02*
D03*
X14055Y-21100D02*
D03*
Y98300D02*
D03*
X21055Y2900D02*
D03*
Y10900D02*
D03*
Y18900D02*
D03*
Y26900D02*
D03*
Y34900D02*
D03*
Y42900D02*
D03*
Y50900D02*
D03*
X22055Y-21100D02*
D03*
Y98300D02*
D03*
X28177Y84968D02*
D03*
Y87468D02*
D03*
X29055Y-5100D02*
D03*
Y2900D02*
D03*
Y18900D02*
D03*
Y26900D02*
D03*
Y34900D02*
D03*
Y42900D02*
D03*
Y50900D02*
D03*
X30055Y-21100D02*
D03*
Y98300D02*
D03*
X30177Y57468D02*
D03*
Y62968D02*
D03*
X30797Y67804D02*
D03*
X32977Y58596D02*
D03*
Y61595D02*
D03*
X33177Y66468D02*
D03*
X33016Y34453D02*
D03*
Y39953D02*
D03*
X34829Y54568D02*
D03*
X35432Y-7432D02*
D03*
X35433Y-17400D02*
D03*
X35434Y16900D02*
D03*
X35829Y-2932D02*
D03*
X36829Y3068D02*
D03*
X38055Y-21100D02*
D03*
X38658Y-18011D02*
D03*
X39294Y27052D02*
D03*
X39329Y7068D02*
D03*
X40829Y54068D02*
D03*
X41177Y21468D02*
D03*
X41658Y-18011D02*
D03*
X42608Y68024D02*
D03*
X43177Y32968D02*
D03*
X43609Y18605D02*
D03*
X44880Y-7432D02*
D03*
X44882Y-16900D02*
D03*
X45329Y-2932D02*
D03*
X46055Y-21100D02*
D03*
X47829Y3068D02*
D03*
X48107Y-18011D02*
D03*
X49913Y51179D02*
D03*
X50329Y7068D02*
D03*
X50482Y79504D02*
D03*
X51107Y-18011D02*
D03*
X51881Y62164D02*
D03*
X54055Y-21100D02*
D03*
X54329Y-7432D02*
D03*
X54331Y-16900D02*
D03*
Y16900D02*
D03*
X54418Y79504D02*
D03*
X55329Y-2932D02*
D03*
X57555Y-18011D02*
D03*
X58329Y2568D02*
D03*
X60555Y-18011D02*
D03*
X61177Y35468D02*
D03*
X61829Y53068D02*
D03*
X62055Y-21100D02*
D03*
X62293Y79504D02*
D03*
X62329Y7068D02*
D03*
X63778Y-7432D02*
D03*
X63779Y-16900D02*
D03*
Y16900D02*
D03*
X64177Y22968D02*
D03*
X64453Y63116D02*
D03*
X66229Y79504D02*
D03*
X66898Y44862D02*
D03*
X70055Y-21100D02*
D03*
X70177Y-3532D02*
D03*
X70829Y2568D02*
D03*
X72829Y7068D02*
D03*
X72888Y29707D02*
D03*
X73228Y-16900D02*
D03*
Y16900D02*
D03*
X74040Y48843D02*
D03*
X74103Y67742D02*
D03*
X74161Y32660D02*
D03*
X75313Y51796D02*
D03*
X75677Y20968D02*
D03*
X76377Y-16532D02*
D03*
X77161Y32660D02*
D03*
X77236Y63965D02*
D03*
X78055Y-21100D02*
D03*
X78177Y-3532D02*
D03*
Y5968D02*
D03*
X78313Y51796D02*
D03*
X78388Y29707D02*
D03*
X78509Y66918D02*
D03*
X79527Y-16532D02*
D03*
X79540Y48843D02*
D03*
X79677Y25468D02*
D03*
X80177Y36468D02*
D03*
Y44468D02*
D03*
X81508Y66918D02*
D03*
X82736Y63965D02*
D03*
X85914Y79504D02*
D03*
X86055Y-21100D02*
D03*
X86177Y-3532D02*
D03*
Y5968D02*
D03*
Y20468D02*
D03*
X88177Y36468D02*
D03*
Y44468D02*
D03*
Y52468D02*
D03*
Y60468D02*
D03*
X89677Y20468D02*
D03*
Y24468D02*
D03*
X90677Y87168D02*
D03*
Y90168D02*
D03*
X94055Y-21100D02*
D03*
Y-13100D02*
D03*
X94177Y-3532D02*
D03*
Y5968D02*
D03*
Y13968D02*
D03*
Y27304D02*
D03*
Y31168D02*
D03*
X95677Y37668D02*
D03*
X97677Y52468D02*
D03*
Y60468D02*
D03*
X99328Y67804D02*
D03*
Y70804D02*
D03*
X101977Y27304D02*
D03*
X102055Y-21100D02*
D03*
Y-13100D02*
D03*
Y-5100D02*
D03*
Y2900D02*
D03*
X102177Y13968D02*
D03*
X104577Y27168D02*
D03*
Y49668D02*
D03*
X105177Y34168D02*
D03*
X105960Y62668D02*
D03*
X107077Y31668D02*
D03*
Y49668D02*
D03*
X109328Y94804D02*
D03*
Y97304D02*
D03*
X110055Y-21100D02*
D03*
Y-13100D02*
D03*
Y-5100D02*
D03*
Y2900D02*
D03*
Y10900D02*
D03*
X110105Y60804D02*
D03*
X110177Y54576D02*
D03*
X111677Y26168D02*
D03*
X112277Y37668D02*
D03*
X114177Y57168D02*
D03*
X114239Y60804D02*
D03*
X114777Y26168D02*
D03*
X114984Y54475D02*
D03*
X115177Y37668D02*
D03*
X117377Y30668D02*
D03*
X118055Y-21100D02*
D03*
Y-13100D02*
D03*
M02*
