G04*
G04 #@! TF.GenerationSoftware,Altium Limited,Altium Designer,23.2.1 (34)*
G04*
G04 Layer_Physical_Order=2*
G04 Layer_Color=36540*
%FSLAX25Y25*%
%MOIN*%
G70*
G04*
G04 #@! TF.SameCoordinates,387CD6D3-576D-47AB-95CD-A910FB3B32EF*
G04*
G04*
G04 #@! TF.FilePolarity,Positive*
G04*
G01*
G75*
%ADD145C,0.09095*%
%ADD149O,0.08268X0.03937*%
%ADD150O,0.07087X0.03937*%
%ADD152C,0.05937*%
%ADD153O,0.10236X0.05118*%
%ADD156O,0.04724X0.06496*%
%ADD157O,0.09055X0.04724*%
%ADD160C,0.01600*%
%ADD161C,0.02000*%
%ADD162C,0.02400*%
G36*
X321731Y261308D02*
X323498Y260576D01*
X325089Y259513D01*
X326442Y258160D01*
X327505Y256569D01*
X328237Y254802D01*
X328610Y252925D01*
X328610Y251969D01*
X328610D01*
X328610Y251969D01*
Y232672D01*
X328110Y232441D01*
X327205Y233215D01*
X325748Y234107D01*
X324171Y234761D01*
X322510Y235159D01*
X320807Y235293D01*
X319105Y235159D01*
X317444Y234761D01*
X315866Y234107D01*
X314410Y233215D01*
X313112Y232106D01*
X312002Y230807D01*
X311110Y229351D01*
X310457Y227773D01*
X310058Y226112D01*
X309924Y224410D01*
X310058Y222707D01*
X310457Y221046D01*
X311110Y219469D01*
X312002Y218013D01*
X313112Y216714D01*
X314410Y215605D01*
X315866Y214712D01*
X317444Y214059D01*
X319105Y213660D01*
X320807Y213526D01*
X322510Y213660D01*
X324171Y214059D01*
X325748Y214712D01*
X327205Y215605D01*
X328110Y216378D01*
X328610Y216148D01*
X328610Y-3937D01*
Y-4894D01*
X328237Y-6770D01*
X327505Y-8538D01*
X326442Y-10128D01*
X325089Y-11481D01*
X323498Y-12544D01*
X321731Y-13276D01*
X319854Y-13649D01*
X318898Y-13649D01*
X-4894D01*
X-6770Y-13276D01*
X-8538Y-12544D01*
X-10128Y-11481D01*
X-11481Y-10128D01*
X-12544Y-8538D01*
X-13276Y-6770D01*
X-13649Y-4894D01*
Y-3937D01*
X-13649Y216148D01*
X-13149Y216378D01*
X-12244Y215605D01*
X-10788Y214712D01*
X-9210Y214059D01*
X-7549Y213660D01*
X-5847Y213526D01*
X-4144Y213660D01*
X-2484Y214059D01*
X-906Y214712D01*
X550Y215605D01*
X1849Y216714D01*
X2958Y218013D01*
X3850Y219469D01*
X4504Y221046D01*
X4903Y222707D01*
X5037Y224410D01*
X4903Y226112D01*
X4504Y227773D01*
X3850Y229351D01*
X2958Y230807D01*
X1849Y232106D01*
X550Y233215D01*
X-906Y234107D01*
X-2484Y234761D01*
X-4144Y235159D01*
X-5847Y235293D01*
X-7549Y235159D01*
X-9210Y234761D01*
X-10788Y234107D01*
X-12244Y233215D01*
X-13149Y232441D01*
X-13649Y232672D01*
Y251969D01*
Y252925D01*
X-13276Y254801D01*
X-12545Y256568D01*
X-11482Y258159D01*
X-10130Y259512D01*
X-8539Y260575D01*
X-6772Y261307D01*
X-4896Y261681D01*
X-3940Y261681D01*
X-3940Y261681D01*
X-3930Y261681D01*
X318898D01*
X319854Y261681D01*
X321731Y261308D01*
D02*
G37*
G36*
X153334Y-29187D02*
X153436Y-29196D01*
X153556Y-29205D01*
X153685Y-29215D01*
X153824Y-29242D01*
X154120Y-29298D01*
X154425Y-29390D01*
X154583Y-29446D01*
X154731Y-29511D01*
X154869Y-29585D01*
X154999Y-29677D01*
X155008Y-29686D01*
X155027Y-29696D01*
X155064Y-29733D01*
X155110Y-29770D01*
X155165Y-29816D01*
X155221Y-29881D01*
X155286Y-29955D01*
X155360Y-30038D01*
X155434Y-30130D01*
X155508Y-30232D01*
X155582Y-30343D01*
X155646Y-30473D01*
X155720Y-30602D01*
X155776Y-30741D01*
X155831Y-30898D01*
X155868Y-31055D01*
X154583Y-31296D01*
Y-31287D01*
X154573Y-31277D01*
X154555Y-31222D01*
X154518Y-31139D01*
X154462Y-31028D01*
X154398Y-30907D01*
X154305Y-30787D01*
X154194Y-30667D01*
X154065Y-30556D01*
X154046Y-30547D01*
X154000Y-30510D01*
X153917Y-30463D01*
X153815Y-30417D01*
X153676Y-30362D01*
X153519Y-30325D01*
X153343Y-30288D01*
X153140Y-30278D01*
X153056D01*
X153001Y-30288D01*
X152927Y-30297D01*
X152844Y-30306D01*
X152751Y-30325D01*
X152649Y-30343D01*
X152437Y-30408D01*
X152326Y-30454D01*
X152215Y-30510D01*
X152104Y-30574D01*
X151993Y-30639D01*
X151891Y-30732D01*
X151789Y-30824D01*
X151780Y-30833D01*
X151771Y-30852D01*
X151743Y-30880D01*
X151715Y-30926D01*
X151678Y-30981D01*
X151632Y-31046D01*
X151586Y-31129D01*
X151549Y-31222D01*
X151502Y-31333D01*
X151456Y-31453D01*
X151410Y-31583D01*
X151373Y-31721D01*
X151345Y-31879D01*
X151317Y-32054D01*
X151308Y-32230D01*
X151299Y-32424D01*
Y-32434D01*
Y-32471D01*
Y-32535D01*
X151308Y-32609D01*
X151317Y-32711D01*
X151327Y-32813D01*
X151345Y-32942D01*
X151364Y-33072D01*
X151419Y-33349D01*
X151512Y-33636D01*
X151567Y-33775D01*
X151632Y-33904D01*
X151715Y-34034D01*
X151798Y-34145D01*
X151808Y-34154D01*
X151826Y-34173D01*
X151854Y-34200D01*
X151891Y-34237D01*
X151946Y-34274D01*
X152002Y-34330D01*
X152076Y-34376D01*
X152159Y-34432D01*
X152252Y-34487D01*
X152344Y-34533D01*
X152575Y-34626D01*
X152705Y-34663D01*
X152834Y-34691D01*
X152982Y-34709D01*
X153130Y-34718D01*
X153204D01*
X153278Y-34709D01*
X153389Y-34700D01*
X153510Y-34681D01*
X153648Y-34654D01*
X153796Y-34617D01*
X153944Y-34561D01*
X153954D01*
X153963Y-34552D01*
X154009Y-34533D01*
X154092Y-34496D01*
X154185Y-34450D01*
X154296Y-34395D01*
X154416Y-34330D01*
X154536Y-34256D01*
X154647Y-34173D01*
Y-33349D01*
X153167D01*
Y-32267D01*
X155952D01*
Y-34839D01*
X155933Y-34857D01*
X155905Y-34876D01*
X155878Y-34903D01*
X155831Y-34940D01*
X155785Y-34977D01*
X155656Y-35070D01*
X155480Y-35172D01*
X155276Y-35292D01*
X155045Y-35412D01*
X154768Y-35523D01*
X154758D01*
X154731Y-35532D01*
X154694Y-35551D01*
X154638Y-35569D01*
X154564Y-35588D01*
X154481Y-35616D01*
X154388Y-35643D01*
X154287Y-35671D01*
X154055Y-35727D01*
X153787Y-35773D01*
X153510Y-35810D01*
X153214Y-35819D01*
X153112D01*
X153047Y-35810D01*
X152955D01*
X152853Y-35801D01*
X152742Y-35782D01*
X152612Y-35764D01*
X152344Y-35717D01*
X152048Y-35643D01*
X151743Y-35542D01*
X151604Y-35477D01*
X151456Y-35403D01*
X151447Y-35394D01*
X151428Y-35384D01*
X151382Y-35357D01*
X151336Y-35320D01*
X151271Y-35283D01*
X151206Y-35227D01*
X151123Y-35162D01*
X151040Y-35088D01*
X150855Y-34922D01*
X150670Y-34709D01*
X150494Y-34469D01*
X150337Y-34191D01*
Y-34182D01*
X150318Y-34154D01*
X150300Y-34108D01*
X150281Y-34052D01*
X150254Y-33978D01*
X150217Y-33895D01*
X150189Y-33793D01*
X150152Y-33682D01*
X150115Y-33562D01*
X150087Y-33423D01*
X150022Y-33137D01*
X149985Y-32822D01*
X149967Y-32480D01*
Y-32471D01*
Y-32434D01*
Y-32378D01*
X149976Y-32313D01*
Y-32221D01*
X149985Y-32119D01*
X150004Y-32008D01*
X150022Y-31879D01*
X150069Y-31610D01*
X150143Y-31305D01*
X150244Y-31000D01*
X150309Y-30852D01*
X150383Y-30704D01*
X150392Y-30695D01*
X150402Y-30667D01*
X150429Y-30630D01*
X150457Y-30574D01*
X150503Y-30510D01*
X150559Y-30436D01*
X150624Y-30352D01*
X150688Y-30260D01*
X150772Y-30167D01*
X150864Y-30066D01*
X150966Y-29964D01*
X151077Y-29862D01*
X151197Y-29770D01*
X151317Y-29668D01*
X151604Y-29501D01*
X151613D01*
X151632Y-29483D01*
X151669Y-29474D01*
X151715Y-29446D01*
X151780Y-29427D01*
X151845Y-29400D01*
X151937Y-29372D01*
X152030Y-29335D01*
X152131Y-29307D01*
X152252Y-29279D01*
X152381Y-29252D01*
X152511Y-29224D01*
X152807Y-29187D01*
X153140Y-29178D01*
X153251D01*
X153334Y-29187D01*
D02*
G37*
G36*
X124335Y-33016D02*
Y-35699D01*
X123040D01*
Y-33007D01*
X120700Y-29298D01*
X122208D01*
X123715Y-31832D01*
X125186Y-29298D01*
X126675D01*
X124335Y-33016D01*
D02*
G37*
G36*
X162242Y-35699D02*
X160947D01*
X158347Y-31481D01*
Y-35699D01*
X157154D01*
Y-29298D01*
X158403D01*
X161048Y-33608D01*
Y-29298D01*
X162242D01*
Y-35699D01*
D02*
G37*
G36*
X166238Y-29307D02*
X166413Y-29316D01*
X166608Y-29326D01*
X166811Y-29353D01*
X167005Y-29381D01*
X167181Y-29427D01*
X167190D01*
X167209Y-29437D01*
X167237Y-29446D01*
X167274Y-29455D01*
X167385Y-29501D01*
X167514Y-29566D01*
X167662Y-29649D01*
X167829Y-29751D01*
X167986Y-29871D01*
X168143Y-30019D01*
X168152D01*
X168162Y-30038D01*
X168208Y-30093D01*
X168282Y-30186D01*
X168365Y-30306D01*
X168467Y-30454D01*
X168569Y-30630D01*
X168670Y-30833D01*
X168754Y-31055D01*
Y-31065D01*
X168763Y-31083D01*
X168772Y-31120D01*
X168791Y-31166D01*
X168800Y-31222D01*
X168818Y-31296D01*
X168837Y-31379D01*
X168865Y-31472D01*
X168883Y-31573D01*
X168902Y-31694D01*
X168920Y-31814D01*
X168929Y-31953D01*
X168957Y-32239D01*
X168966Y-32563D01*
Y-32572D01*
Y-32600D01*
Y-32637D01*
Y-32693D01*
X168957Y-32767D01*
Y-32841D01*
X168948Y-32933D01*
X168939Y-33035D01*
X168920Y-33248D01*
X168883Y-33470D01*
X168828Y-33701D01*
X168763Y-33923D01*
Y-33932D01*
X168754Y-33951D01*
X168735Y-33988D01*
X168717Y-34043D01*
X168698Y-34099D01*
X168661Y-34163D01*
X168587Y-34330D01*
X168495Y-34506D01*
X168374Y-34700D01*
X168236Y-34885D01*
X168078Y-35061D01*
X168060Y-35079D01*
X168014Y-35116D01*
X167940Y-35172D01*
X167838Y-35246D01*
X167708Y-35329D01*
X167560Y-35412D01*
X167375Y-35495D01*
X167172Y-35569D01*
X167163D01*
X167153Y-35579D01*
X167126D01*
X167098Y-35588D01*
X166996Y-35606D01*
X166867Y-35634D01*
X166709Y-35662D01*
X166515Y-35680D01*
X166284Y-35690D01*
X166034Y-35699D01*
X163611D01*
Y-29298D01*
X166164D01*
X166238Y-29307D01*
D02*
G37*
G36*
X141744Y-29270D02*
X141827Y-29279D01*
X141919Y-29289D01*
X142021Y-29307D01*
X142132Y-29326D01*
X142373Y-29390D01*
X142613Y-29483D01*
X142743Y-29538D01*
X142854Y-29603D01*
X142974Y-29686D01*
X143076Y-29779D01*
X143085Y-29788D01*
X143103Y-29797D01*
X143122Y-29834D01*
X143159Y-29871D01*
X143205Y-29918D01*
X143251Y-29982D01*
X143298Y-30047D01*
X143353Y-30130D01*
X143446Y-30315D01*
X143538Y-30528D01*
X143575Y-30648D01*
X143594Y-30778D01*
X143612Y-30917D01*
X143621Y-31055D01*
Y-31074D01*
Y-31129D01*
X143612Y-31213D01*
X143603Y-31314D01*
X143584Y-31444D01*
X143557Y-31583D01*
X143520Y-31731D01*
X143464Y-31879D01*
X143455Y-31897D01*
X143436Y-31943D01*
X143399Y-32027D01*
X143344Y-32128D01*
X143279Y-32249D01*
X143196Y-32387D01*
X143094Y-32535D01*
X142974Y-32693D01*
X142965Y-32702D01*
X142928Y-32748D01*
X142872Y-32813D01*
X142789Y-32905D01*
X142678Y-33016D01*
X142539Y-33164D01*
X142373Y-33322D01*
X142169Y-33516D01*
X142160Y-33525D01*
X142141Y-33534D01*
X142114Y-33562D01*
X142077Y-33599D01*
X141975Y-33692D01*
X141855Y-33803D01*
X141734Y-33923D01*
X141614Y-34043D01*
X141503Y-34145D01*
X141466Y-34191D01*
X141429Y-34228D01*
X141420Y-34237D01*
X141401Y-34256D01*
X141374Y-34293D01*
X141337Y-34339D01*
X141253Y-34441D01*
X141179Y-34561D01*
X143621D01*
Y-35699D01*
X139320D01*
Y-35690D01*
Y-35671D01*
X139329Y-35634D01*
X139339Y-35588D01*
X139348Y-35532D01*
X139357Y-35468D01*
X139394Y-35301D01*
X139450Y-35116D01*
X139524Y-34913D01*
X139616Y-34691D01*
X139736Y-34478D01*
Y-34469D01*
X139755Y-34450D01*
X139773Y-34413D01*
X139810Y-34376D01*
X139847Y-34311D01*
X139903Y-34247D01*
X139968Y-34163D01*
X140042Y-34071D01*
X140125Y-33960D01*
X140227Y-33849D01*
X140338Y-33719D01*
X140467Y-33581D01*
X140606Y-33442D01*
X140763Y-33285D01*
X140930Y-33118D01*
X141115Y-32942D01*
X141124Y-32933D01*
X141152Y-32905D01*
X141189Y-32868D01*
X141244Y-32813D01*
X141318Y-32757D01*
X141392Y-32683D01*
X141559Y-32517D01*
X141725Y-32341D01*
X141892Y-32165D01*
X141966Y-32091D01*
X142040Y-32008D01*
X142095Y-31943D01*
X142132Y-31888D01*
X142141Y-31869D01*
X142169Y-31823D01*
X142215Y-31749D01*
X142262Y-31647D01*
X142308Y-31536D01*
X142354Y-31407D01*
X142382Y-31277D01*
X142391Y-31139D01*
Y-31129D01*
Y-31120D01*
Y-31074D01*
X142382Y-30991D01*
X142363Y-30898D01*
X142336Y-30796D01*
X142299Y-30695D01*
X142243Y-30593D01*
X142169Y-30500D01*
X142160Y-30491D01*
X142132Y-30463D01*
X142077Y-30426D01*
X142012Y-30389D01*
X141919Y-30352D01*
X141818Y-30315D01*
X141697Y-30288D01*
X141559Y-30278D01*
X141494D01*
X141420Y-30288D01*
X141337Y-30306D01*
X141235Y-30334D01*
X141133Y-30380D01*
X141031Y-30436D01*
X140939Y-30510D01*
X140930Y-30519D01*
X140902Y-30556D01*
X140865Y-30611D01*
X140828Y-30695D01*
X140782Y-30796D01*
X140745Y-30935D01*
X140708Y-31092D01*
X140689Y-31277D01*
X139468Y-31157D01*
Y-31148D01*
X139477Y-31111D01*
Y-31065D01*
X139496Y-30991D01*
X139505Y-30907D01*
X139533Y-30815D01*
X139561Y-30713D01*
X139588Y-30593D01*
X139681Y-30362D01*
X139792Y-30121D01*
X139866Y-30001D01*
X139949Y-29890D01*
X140042Y-29797D01*
X140143Y-29705D01*
X140153Y-29696D01*
X140171Y-29686D01*
X140199Y-29668D01*
X140245Y-29631D01*
X140301Y-29603D01*
X140375Y-29566D01*
X140449Y-29520D01*
X140541Y-29483D01*
X140643Y-29437D01*
X140754Y-29400D01*
X140994Y-29326D01*
X141281Y-29279D01*
X141429Y-29270D01*
X141586Y-29261D01*
X141679D01*
X141744Y-29270D01*
D02*
G37*
G36*
X136268Y-29307D02*
X136369D01*
X136471Y-29316D01*
X136591D01*
X136832Y-29344D01*
X137082Y-29372D01*
X137313Y-29418D01*
X137415Y-29446D01*
X137507Y-29474D01*
X137516D01*
X137526Y-29483D01*
X137581Y-29511D01*
X137664Y-29557D01*
X137775Y-29612D01*
X137896Y-29705D01*
X138016Y-29807D01*
X138136Y-29936D01*
X138247Y-30093D01*
Y-30103D01*
X138256Y-30112D01*
X138275Y-30140D01*
X138293Y-30167D01*
X138340Y-30260D01*
X138395Y-30380D01*
X138441Y-30528D01*
X138488Y-30695D01*
X138525Y-30889D01*
X138534Y-31092D01*
Y-31102D01*
Y-31120D01*
Y-31166D01*
X138525Y-31213D01*
Y-31277D01*
X138515Y-31342D01*
X138478Y-31509D01*
X138432Y-31703D01*
X138358Y-31897D01*
X138247Y-32101D01*
X138182Y-32193D01*
X138108Y-32286D01*
X138099Y-32295D01*
X138090Y-32304D01*
X138062Y-32332D01*
X138025Y-32360D01*
X137988Y-32397D01*
X137933Y-32443D01*
X137868Y-32489D01*
X137794Y-32535D01*
X137711Y-32591D01*
X137609Y-32637D01*
X137507Y-32683D01*
X137396Y-32730D01*
X137267Y-32776D01*
X137137Y-32813D01*
X136998Y-32850D01*
X136841Y-32878D01*
X136850D01*
X136860Y-32887D01*
X136915Y-32924D01*
X136989Y-32970D01*
X137082Y-33035D01*
X137193Y-33118D01*
X137304Y-33201D01*
X137424Y-33303D01*
X137526Y-33414D01*
X137535Y-33423D01*
X137581Y-33470D01*
X137637Y-33544D01*
X137720Y-33655D01*
X137831Y-33793D01*
X137886Y-33886D01*
X137951Y-33978D01*
X138025Y-34080D01*
X138099Y-34191D01*
X138182Y-34321D01*
X138266Y-34450D01*
X139052Y-35699D01*
X137498D01*
X136573Y-34311D01*
X136564Y-34302D01*
X136554Y-34274D01*
X136527Y-34237D01*
X136490Y-34191D01*
X136453Y-34136D01*
X136406Y-34062D01*
X136305Y-33914D01*
X136184Y-33747D01*
X136073Y-33599D01*
X135972Y-33460D01*
X135925Y-33414D01*
X135888Y-33368D01*
X135879Y-33359D01*
X135861Y-33340D01*
X135824Y-33303D01*
X135777Y-33257D01*
X135713Y-33220D01*
X135648Y-33174D01*
X135574Y-33137D01*
X135500Y-33100D01*
X135491D01*
X135463Y-33090D01*
X135417Y-33072D01*
X135343Y-33063D01*
X135250Y-33044D01*
X135139Y-33035D01*
X135010Y-33026D01*
X134593D01*
Y-35699D01*
X133298D01*
Y-29298D01*
X136184D01*
X136268Y-29307D01*
D02*
G37*
G36*
X132077Y-30380D02*
X128627D01*
Y-31795D01*
X131837D01*
Y-32878D01*
X128627D01*
Y-34617D01*
X132198D01*
Y-35699D01*
X127332D01*
Y-29298D01*
X132077D01*
Y-30380D01*
D02*
G37*
G36*
X120672Y-35699D02*
X119275D01*
X118720Y-34247D01*
X116149D01*
X115622Y-35699D01*
X114253D01*
X116732Y-29298D01*
X118101D01*
X120672Y-35699D01*
D02*
G37*
G36*
X110765Y-34617D02*
X113984D01*
Y-35699D01*
X109470D01*
Y-29344D01*
X110765D01*
Y-34617D01*
D02*
G37*
G36*
X170548Y-29196D02*
X170567Y-29233D01*
X170604Y-29279D01*
X170650Y-29353D01*
X170705Y-29437D01*
X170770Y-29538D01*
X170835Y-29659D01*
X170909Y-29788D01*
X170992Y-29936D01*
X171075Y-30093D01*
X171159Y-30251D01*
X171242Y-30426D01*
X171408Y-30796D01*
X171556Y-31185D01*
Y-31194D01*
X171575Y-31231D01*
X171593Y-31287D01*
X171612Y-31370D01*
X171640Y-31462D01*
X171677Y-31573D01*
X171704Y-31703D01*
X171741Y-31851D01*
X171778Y-31999D01*
X171806Y-32165D01*
X171843Y-32350D01*
X171871Y-32535D01*
X171908Y-32915D01*
X171926Y-33322D01*
Y-33331D01*
Y-33359D01*
Y-33414D01*
Y-33479D01*
X171917Y-33562D01*
X171908Y-33664D01*
X171899Y-33784D01*
X171889Y-33914D01*
X171880Y-34052D01*
X171852Y-34200D01*
X171834Y-34367D01*
X171806Y-34533D01*
X171732Y-34894D01*
X171640Y-35283D01*
Y-35292D01*
X171621Y-35338D01*
X171603Y-35394D01*
X171575Y-35477D01*
X171538Y-35588D01*
X171492Y-35708D01*
X171445Y-35847D01*
X171381Y-36004D01*
X171307Y-36171D01*
X171233Y-36356D01*
X171140Y-36541D01*
X171048Y-36744D01*
X170937Y-36948D01*
X170826Y-37160D01*
X170705Y-37373D01*
X170567Y-37586D01*
X169716D01*
Y-37577D01*
X169734Y-37549D01*
X169753Y-37512D01*
X169771Y-37456D01*
X169808Y-37392D01*
X169836Y-37318D01*
X169919Y-37142D01*
X170002Y-36948D01*
X170086Y-36744D01*
X170160Y-36550D01*
X170224Y-36383D01*
Y-36374D01*
X170234Y-36365D01*
X170252Y-36309D01*
X170280Y-36226D01*
X170317Y-36115D01*
X170354Y-35976D01*
X170400Y-35810D01*
X170446Y-35634D01*
X170493Y-35440D01*
Y-35431D01*
X170502Y-35412D01*
Y-35384D01*
X170511Y-35347D01*
X170539Y-35246D01*
X170567Y-35107D01*
X170594Y-34950D01*
X170631Y-34774D01*
X170687Y-34413D01*
Y-34404D01*
Y-34395D01*
X170696Y-34367D01*
Y-34330D01*
X170705Y-34228D01*
X170724Y-34108D01*
X170733Y-33951D01*
X170742Y-33784D01*
X170752Y-33599D01*
Y-33414D01*
Y-33405D01*
Y-33368D01*
Y-33312D01*
Y-33238D01*
X170742Y-33146D01*
Y-33035D01*
X170733Y-32915D01*
X170724Y-32776D01*
X170715Y-32628D01*
X170696Y-32471D01*
X170650Y-32138D01*
X170594Y-31795D01*
X170520Y-31444D01*
Y-31435D01*
X170511Y-31398D01*
X170493Y-31351D01*
X170474Y-31277D01*
X170456Y-31185D01*
X170419Y-31083D01*
X170382Y-30954D01*
X170335Y-30815D01*
X170280Y-30658D01*
X170224Y-30482D01*
X170160Y-30297D01*
X170086Y-30103D01*
X170002Y-29890D01*
X169910Y-29668D01*
X169817Y-29427D01*
X169706Y-29187D01*
X170539D01*
X170548Y-29196D01*
D02*
G37*
G36*
X149245Y-29205D02*
X149227Y-29242D01*
X149199Y-29316D01*
X149162Y-29409D01*
X149107Y-29520D01*
X149051Y-29659D01*
X148996Y-29807D01*
X148931Y-29964D01*
X148857Y-30140D01*
X148792Y-30325D01*
X148653Y-30704D01*
X148533Y-31083D01*
X148478Y-31268D01*
X148431Y-31444D01*
Y-31453D01*
X148422Y-31481D01*
X148413Y-31536D01*
X148394Y-31601D01*
X148376Y-31694D01*
X148357Y-31795D01*
X148339Y-31906D01*
X148320Y-32036D01*
X148302Y-32175D01*
X148283Y-32332D01*
X148265Y-32489D01*
X148246Y-32665D01*
X148219Y-33026D01*
X148209Y-33414D01*
Y-33423D01*
Y-33442D01*
Y-33488D01*
Y-33534D01*
Y-33599D01*
X148219Y-33682D01*
Y-33766D01*
X148228Y-33867D01*
X148237Y-34089D01*
X148265Y-34339D01*
X148293Y-34607D01*
X148339Y-34885D01*
Y-34894D01*
X148348Y-34922D01*
Y-34959D01*
X148367Y-35014D01*
X148376Y-35079D01*
X148394Y-35153D01*
X148413Y-35246D01*
X148431Y-35338D01*
X148487Y-35560D01*
X148542Y-35801D01*
X148616Y-36050D01*
X148700Y-36300D01*
Y-36309D01*
X148709Y-36319D01*
X148718Y-36346D01*
X148727Y-36383D01*
X148746Y-36430D01*
X148774Y-36485D01*
X148792Y-36550D01*
X148829Y-36624D01*
X148866Y-36716D01*
X148903Y-36809D01*
X148949Y-36911D01*
X148996Y-37031D01*
X149051Y-37151D01*
X149107Y-37290D01*
X149171Y-37429D01*
X149245Y-37586D01*
X148404D01*
X148394Y-37577D01*
X148376Y-37540D01*
X148339Y-37484D01*
X148293Y-37410D01*
X148237Y-37318D01*
X148172Y-37207D01*
X148098Y-37077D01*
X148024Y-36938D01*
X147941Y-36790D01*
X147858Y-36624D01*
X147775Y-36448D01*
X147682Y-36272D01*
X147525Y-35884D01*
X147377Y-35486D01*
Y-35477D01*
X147358Y-35440D01*
X147349Y-35375D01*
X147321Y-35301D01*
X147294Y-35199D01*
X147266Y-35088D01*
X147238Y-34959D01*
X147210Y-34820D01*
X147173Y-34663D01*
X147146Y-34496D01*
X147090Y-34145D01*
X147053Y-33766D01*
X147035Y-33386D01*
Y-33368D01*
Y-33331D01*
Y-33266D01*
X147044Y-33174D01*
Y-33063D01*
X147053Y-32924D01*
X147072Y-32776D01*
X147090Y-32609D01*
X147109Y-32434D01*
X147136Y-32249D01*
X147210Y-31842D01*
X147321Y-31425D01*
X147386Y-31213D01*
X147460Y-31000D01*
Y-30991D01*
X147479Y-30954D01*
X147497Y-30907D01*
X147525Y-30833D01*
X147562Y-30750D01*
X147608Y-30648D01*
X147664Y-30528D01*
X147719Y-30408D01*
X147784Y-30269D01*
X147858Y-30130D01*
X148015Y-29825D01*
X148209Y-29501D01*
X148413Y-29187D01*
X149255D01*
X149245Y-29205D01*
D02*
G37*
%LPC*%
G36*
X282225Y244115D02*
X281601Y243991D01*
X281071Y243637D01*
X280951Y243456D01*
X280349D01*
X280228Y243637D01*
X279699Y243991D01*
X279075Y244115D01*
X278451Y243991D01*
X277922Y243637D01*
X277568Y243108D01*
X277444Y242483D01*
X277568Y241859D01*
X277922Y241330D01*
X278451Y240976D01*
X279075Y240852D01*
X279699Y240976D01*
X280228Y241330D01*
X280349Y241511D01*
X280951D01*
X281071Y241330D01*
X281601Y240976D01*
X282225Y240852D01*
X282849Y240976D01*
X283379Y241330D01*
X283732Y241859D01*
X283856Y242483D01*
X283732Y243108D01*
X283379Y243637D01*
X282849Y243991D01*
X282225Y244115D01*
D02*
G37*
G36*
X291674Y243942D02*
X291050Y243818D01*
X290521Y243464D01*
X290400Y243283D01*
X289798D01*
X289678Y243464D01*
X289148Y243818D01*
X288524Y243942D01*
X287900Y243818D01*
X287370Y243464D01*
X287017Y242935D01*
X286893Y242311D01*
X287017Y241686D01*
X287370Y241157D01*
X287900Y240803D01*
X288524Y240679D01*
X289148Y240803D01*
X289678Y241157D01*
X289798Y241338D01*
X290400D01*
X290521Y241157D01*
X291050Y240803D01*
X291674Y240679D01*
X292298Y240803D01*
X292828Y241157D01*
X293181Y241686D01*
X293305Y242311D01*
X293181Y242935D01*
X292828Y243464D01*
X292298Y243818D01*
X291674Y243942D01*
D02*
G37*
G36*
X63956Y243246D02*
X63410Y243137D01*
X63231Y243018D01*
X62081D01*
X61902Y243137D01*
X61356Y243246D01*
X60810Y243137D01*
X60347Y242828D01*
X60037Y242365D01*
X59929Y241818D01*
X60037Y241272D01*
X60347Y240809D01*
X60190Y240313D01*
X60127D01*
Y231352D01*
X64907D01*
Y240169D01*
X64907Y240313D01*
X64946Y240796D01*
X64965Y240809D01*
X65275Y241272D01*
X65383Y241818D01*
X65275Y242365D01*
X64965Y242828D01*
X64502Y243137D01*
X63956Y243246D01*
D02*
G37*
G36*
X71400Y246132D02*
X70776Y246008D01*
X70246Y245654D01*
X69893Y245125D01*
X69769Y244500D01*
X69893Y243876D01*
X70246Y243347D01*
X70776Y242993D01*
X71400Y242869D01*
X71626Y242914D01*
X72051Y242489D01*
X72050Y242483D01*
X72174Y241859D01*
X72527Y241330D01*
X73057Y240976D01*
X73681Y240852D01*
X74305Y240976D01*
X74835Y241330D01*
X75188Y241859D01*
X75312Y242483D01*
X75188Y243108D01*
X74835Y243637D01*
X74305Y243991D01*
X73681Y244115D01*
X73456Y244070D01*
X73030Y244495D01*
X73031Y244500D01*
X72907Y245125D01*
X72553Y245654D01*
X72024Y246008D01*
X71400Y246132D01*
D02*
G37*
G36*
X79980Y243942D02*
X79356Y243818D01*
X78826Y243464D01*
X78473Y242935D01*
X78349Y242311D01*
X78473Y241686D01*
X78826Y241157D01*
X79356Y240803D01*
X79980Y240679D01*
X80604Y240803D01*
X81134Y241157D01*
X81221Y241288D01*
X81822D01*
X81976Y241057D01*
X82506Y240703D01*
X83130Y240579D01*
X83754Y240703D01*
X84284Y241057D01*
X84637Y241586D01*
X84761Y242211D01*
X84637Y242835D01*
X84284Y243364D01*
X83754Y243718D01*
X83130Y243842D01*
X82506Y243718D01*
X81976Y243364D01*
X81889Y243233D01*
X81288D01*
X81134Y243464D01*
X80604Y243818D01*
X79980Y243942D01*
D02*
G37*
G36*
X301378Y237936D02*
X300593Y237832D01*
X299861Y237529D01*
X299233Y237047D01*
X298751Y236419D01*
X298448Y235687D01*
X298344Y234902D01*
X298448Y234117D01*
X298751Y233385D01*
X299233Y232757D01*
X299861Y232275D01*
X300593Y231971D01*
X301378Y231868D01*
X302164Y231971D01*
X302895Y232275D01*
X303523Y232757D01*
X304006Y233385D01*
X304309Y234117D01*
X304412Y234902D01*
X304309Y235687D01*
X304006Y236419D01*
X303523Y237047D01*
X302895Y237529D01*
X302164Y237832D01*
X301378Y237936D01*
D02*
G37*
G36*
X222126D02*
X221341Y237832D01*
X220609Y237529D01*
X219981Y237047D01*
X219499Y236419D01*
X219196Y235687D01*
X219092Y234902D01*
X219196Y234117D01*
X219499Y233385D01*
X219981Y232757D01*
X220609Y232275D01*
X221341Y231971D01*
X222126Y231868D01*
X222912Y231971D01*
X223643Y232275D01*
X224272Y232757D01*
X224754Y233385D01*
X225057Y234117D01*
X225160Y234902D01*
X225057Y235687D01*
X224754Y236419D01*
X224272Y237047D01*
X223643Y237529D01*
X222912Y237832D01*
X222126Y237936D01*
D02*
G37*
G36*
X92834D02*
X92049Y237832D01*
X91317Y237529D01*
X90689Y237047D01*
X90207Y236419D01*
X89904Y235687D01*
X89801Y234902D01*
X89904Y234117D01*
X90207Y233385D01*
X90689Y232757D01*
X91317Y232275D01*
X92049Y231971D01*
X92834Y231868D01*
X93620Y231971D01*
X94351Y232275D01*
X94980Y232757D01*
X95462Y233385D01*
X95765Y234117D01*
X95868Y234902D01*
X95765Y235687D01*
X95462Y236419D01*
X94980Y237047D01*
X94351Y237529D01*
X93620Y237832D01*
X92834Y237936D01*
D02*
G37*
G36*
X13582D02*
X12797Y237832D01*
X12065Y237529D01*
X11437Y237047D01*
X10955Y236419D01*
X10652Y235687D01*
X10548Y234902D01*
X10652Y234117D01*
X10955Y233385D01*
X11437Y232757D01*
X12065Y232275D01*
X12797Y231971D01*
X13582Y231868D01*
X14367Y231971D01*
X15099Y232275D01*
X15728Y232757D01*
X16210Y233385D01*
X16513Y234117D01*
X16616Y234902D01*
X16513Y235687D01*
X16210Y236419D01*
X15728Y237047D01*
X15099Y237529D01*
X14367Y237832D01*
X13582Y237936D01*
D02*
G37*
G36*
X144499Y231942D02*
X143875Y231818D01*
X143345Y231464D01*
X143200Y231247D01*
X142599D01*
X142454Y231464D01*
X141924Y231818D01*
X141300Y231942D01*
X140676Y231818D01*
X140147Y231464D01*
X139935Y231147D01*
X139364D01*
X139153Y231464D01*
X138623Y231818D01*
X137999Y231942D01*
X137375Y231818D01*
X136846Y231464D01*
X136635Y231150D01*
X136064D01*
X135854Y231464D01*
X135324Y231818D01*
X134700Y231942D01*
X134076Y231818D01*
X133546Y231464D01*
X133193Y230935D01*
X133069Y230311D01*
X133193Y229686D01*
X133546Y229157D01*
X134076Y228803D01*
X134700Y228679D01*
X135324Y228803D01*
X135854Y229157D01*
X136064Y229471D01*
X136635D01*
X136846Y229157D01*
X137375Y228803D01*
X137999Y228679D01*
X138623Y228803D01*
X139153Y229157D01*
X139364Y229474D01*
X139935D01*
X140147Y229157D01*
X140676Y228803D01*
X141300Y228679D01*
X141924Y228803D01*
X142454Y229157D01*
X142599Y229374D01*
X143200D01*
X143345Y229157D01*
X143875Y228803D01*
X144499Y228679D01*
X145123Y228803D01*
X145652Y229157D01*
X146006Y229686D01*
X146130Y230311D01*
X146006Y230935D01*
X145652Y231464D01*
X145123Y231818D01*
X144499Y231942D01*
D02*
G37*
G36*
X273589Y240175D02*
X268809D01*
Y231214D01*
X273589D01*
Y240175D01*
D02*
G37*
G36*
X262951Y243318D02*
X260451D01*
X260347Y243314D01*
X260243Y243300D01*
X260141Y243278D01*
X260041Y243246D01*
X259944Y243206D01*
X259851Y243158D01*
X259763Y243101D01*
X259680Y243038D01*
X259603Y242967D01*
X259532Y242890D01*
X259530Y242887D01*
X259442Y242828D01*
X259132Y242365D01*
X259024Y241818D01*
X259132Y241272D01*
X259442Y240809D01*
X259644Y240674D01*
X259492Y240174D01*
X259360D01*
Y231214D01*
X264140D01*
Y240174D01*
X264010D01*
X263859Y240674D01*
X264060Y240809D01*
X264370Y241272D01*
X264478Y241818D01*
X264370Y242365D01*
X264060Y242828D01*
X263973Y242886D01*
X263971Y242889D01*
X263900Y242966D01*
X263823Y243037D01*
X263740Y243101D01*
X263651Y243157D01*
X263559Y243205D01*
X263462Y243245D01*
X263362Y243277D01*
X263260Y243300D01*
X263156Y243313D01*
X263052Y243318D01*
X262989D01*
X262951Y243318D01*
D02*
G37*
G36*
X254691Y240174D02*
X249911D01*
Y231214D01*
X254691D01*
Y240174D01*
D02*
G37*
G36*
X245243D02*
X240462D01*
Y231214D01*
X245243D01*
Y240174D01*
D02*
G37*
G36*
X46147D02*
X41367D01*
Y231214D01*
X46147D01*
Y240174D01*
D02*
G37*
G36*
X235794Y240174D02*
X231014D01*
Y231214D01*
X235794D01*
Y240174D01*
D02*
G37*
G36*
X55596D02*
X50816D01*
Y231214D01*
X55596D01*
Y240174D01*
D02*
G37*
G36*
X19480Y217615D02*
X18856Y217491D01*
X18327Y217137D01*
X17991Y216636D01*
X17778Y216608D01*
X17682D01*
X17469Y216636D01*
X17133Y217137D01*
X16604Y217491D01*
X15980Y217615D01*
X15356Y217491D01*
X14827Y217137D01*
X14473Y216608D01*
X14349Y215984D01*
X14473Y215359D01*
X14827Y214830D01*
X15356Y214476D01*
X15980Y214352D01*
X16604Y214476D01*
X17133Y214830D01*
X17469Y215331D01*
X17682Y215359D01*
X17778D01*
X17991Y215331D01*
X18327Y214830D01*
X18856Y214476D01*
X19480Y214352D01*
X20104Y214476D01*
X20633Y214830D01*
X20987Y215359D01*
X21111Y215984D01*
X20987Y216608D01*
X20633Y217137D01*
X20104Y217491D01*
X19480Y217615D01*
D02*
G37*
G36*
X142499Y218442D02*
X141875Y218318D01*
X141346Y217964D01*
X140992Y217435D01*
X140868Y216810D01*
X140992Y216186D01*
X141346Y215657D01*
X141875Y215303D01*
X142499Y215179D01*
X143123Y215303D01*
X143652Y215657D01*
X144006Y216186D01*
X144130Y216810D01*
X144006Y217435D01*
X143652Y217964D01*
X143123Y218318D01*
X142499Y218442D01*
D02*
G37*
G36*
X229524Y217615D02*
X228900Y217491D01*
X228370Y217137D01*
X228017Y216608D01*
X227893Y215984D01*
X228017Y215359D01*
X228370Y214830D01*
X228900Y214476D01*
X229524Y214352D01*
X230148Y214476D01*
X230678Y214830D01*
X231031Y215359D01*
X231155Y215984D01*
X231031Y216608D01*
X230678Y217137D01*
X230148Y217491D01*
X229524Y217615D01*
D02*
G37*
G36*
X224524D02*
X223900Y217491D01*
X223371Y217137D01*
X223017Y216608D01*
X222893Y215984D01*
X223017Y215359D01*
X223371Y214830D01*
X223900Y214476D01*
X224524Y214352D01*
X225148Y214476D01*
X225677Y214830D01*
X226031Y215359D01*
X226155Y215984D01*
X226031Y216608D01*
X225677Y217137D01*
X225148Y217491D01*
X224524Y217615D01*
D02*
G37*
G36*
X202697Y235293D02*
X200995Y235159D01*
X199334Y234761D01*
X197756Y234107D01*
X196300Y233215D01*
X195001Y232106D01*
X193892Y230807D01*
X193000Y229351D01*
X192346Y227773D01*
X191948Y226112D01*
X191814Y224410D01*
X191948Y222707D01*
X192346Y221046D01*
X193000Y219469D01*
X193892Y218013D01*
X195001Y216714D01*
X196300Y215605D01*
X197756Y214712D01*
X199334Y214059D01*
X200995Y213660D01*
X202697Y213526D01*
X204400Y213660D01*
X206060Y214059D01*
X207638Y214712D01*
X209094Y215605D01*
X210393Y216714D01*
X211502Y218013D01*
X212394Y219469D01*
X213048Y221046D01*
X213447Y222707D01*
X213581Y224410D01*
X213447Y226112D01*
X213048Y227773D01*
X212394Y229351D01*
X211502Y230807D01*
X210393Y232106D01*
X209094Y233215D01*
X207638Y234107D01*
X206060Y234761D01*
X204400Y235159D01*
X202697Y235293D01*
D02*
G37*
G36*
X123000Y215942D02*
X122376Y215818D01*
X121846Y215464D01*
X121493Y214935D01*
X121369Y214311D01*
X121493Y213686D01*
X121846Y213157D01*
X122376Y212803D01*
X123000Y212679D01*
X123624Y212803D01*
X124153Y213157D01*
X124507Y213686D01*
X124631Y214311D01*
X124507Y214935D01*
X124153Y215464D01*
X123624Y215818D01*
X123000Y215942D01*
D02*
G37*
G36*
X112263Y235293D02*
X110561Y235159D01*
X108900Y234761D01*
X107322Y234107D01*
X105866Y233215D01*
X104568Y232106D01*
X103458Y230807D01*
X102566Y229351D01*
X101913Y227773D01*
X101514Y226112D01*
X101380Y224410D01*
X101514Y222707D01*
X101913Y221046D01*
X102566Y219469D01*
X103458Y218013D01*
X104568Y216714D01*
X105866Y215605D01*
X107322Y214712D01*
X108900Y214059D01*
X110561Y213660D01*
X112263Y213526D01*
X113966Y213660D01*
X115627Y214059D01*
X116915Y214593D01*
X117269Y214373D01*
X117382Y214245D01*
X117493Y213686D01*
X117847Y213157D01*
X118376Y212803D01*
X119000Y212679D01*
X119624Y212803D01*
X120153Y213157D01*
X120507Y213686D01*
X120631Y214311D01*
X120507Y214935D01*
X120153Y215464D01*
X119655Y215797D01*
X119602Y215859D01*
X119503Y216324D01*
X119959Y216714D01*
X121068Y218013D01*
X121961Y219469D01*
X122614Y221046D01*
X123013Y222707D01*
X123147Y224410D01*
X123013Y226112D01*
X122614Y227773D01*
X121961Y229351D01*
X121068Y230807D01*
X119959Y232106D01*
X118661Y233215D01*
X117204Y234107D01*
X115627Y234761D01*
X113966Y235159D01*
X112263Y235293D01*
D02*
G37*
G36*
X19480Y213615D02*
X18856Y213491D01*
X18327Y213137D01*
X17991Y212636D01*
X17778Y212608D01*
X17682D01*
X17469Y212636D01*
X17133Y213137D01*
X16604Y213491D01*
X15980Y213615D01*
X15356Y213491D01*
X14827Y213137D01*
X14473Y212608D01*
X14349Y211983D01*
X14473Y211359D01*
X14827Y210830D01*
X15356Y210476D01*
X15980Y210352D01*
X16604Y210476D01*
X17133Y210830D01*
X17469Y211331D01*
X17682Y211359D01*
X17778D01*
X17991Y211331D01*
X18327Y210830D01*
X18856Y210476D01*
X19480Y210352D01*
X20104Y210476D01*
X20633Y210830D01*
X20987Y211359D01*
X21111Y211983D01*
X20987Y212608D01*
X20633Y213137D01*
X20104Y213491D01*
X19480Y213615D01*
D02*
G37*
G36*
X165999Y213442D02*
X165375Y213318D01*
X164846Y212964D01*
X164510Y212463D01*
X164297Y212435D01*
X164201D01*
X163988Y212463D01*
X163653Y212964D01*
X163123Y213318D01*
X162499Y213442D01*
X161875Y213318D01*
X161346Y212964D01*
X160992Y212435D01*
X160868Y211810D01*
X160992Y211186D01*
X161346Y210657D01*
X161875Y210303D01*
X162499Y210179D01*
X163123Y210303D01*
X163653Y210657D01*
X163988Y211158D01*
X164201Y211186D01*
X164297D01*
X164510Y211158D01*
X164846Y210657D01*
X165375Y210303D01*
X165999Y210179D01*
X166623Y210303D01*
X167153Y210657D01*
X167506Y211186D01*
X167630Y211810D01*
X167506Y212435D01*
X167153Y212964D01*
X166623Y213318D01*
X165999Y213442D01*
D02*
G37*
G36*
X229524Y212615D02*
X228900Y212491D01*
X228370Y212137D01*
X228017Y211608D01*
X227893Y210983D01*
X228017Y210359D01*
X228370Y209830D01*
X228900Y209476D01*
X229524Y209352D01*
X230148Y209476D01*
X230678Y209830D01*
X231031Y210359D01*
X231155Y210983D01*
X231031Y211608D01*
X230678Y212137D01*
X230148Y212491D01*
X229524Y212615D01*
D02*
G37*
G36*
X224524D02*
X223900Y212491D01*
X223371Y212137D01*
X223017Y211608D01*
X222893Y210983D01*
X223017Y210359D01*
X223371Y209830D01*
X223900Y209476D01*
X224524Y209352D01*
X225148Y209476D01*
X225677Y209830D01*
X226031Y210359D01*
X226155Y210983D01*
X226031Y211608D01*
X225677Y212137D01*
X225148Y212491D01*
X224524Y212615D01*
D02*
G37*
G36*
X46147Y217615D02*
X41367D01*
Y208655D01*
X46147D01*
Y217615D01*
D02*
G37*
G36*
X165999Y209442D02*
X165375Y209318D01*
X164846Y208964D01*
X164510Y208463D01*
X164297Y208435D01*
X164201D01*
X163988Y208463D01*
X163653Y208964D01*
X163123Y209318D01*
X162499Y209442D01*
X161875Y209318D01*
X161346Y208964D01*
X160992Y208435D01*
X160868Y207810D01*
X160992Y207186D01*
X161346Y206657D01*
X161875Y206303D01*
X162499Y206179D01*
X163123Y206303D01*
X163653Y206657D01*
X163988Y207158D01*
X164201Y207186D01*
X164297D01*
X164510Y207158D01*
X164846Y206657D01*
X165375Y206303D01*
X165999Y206179D01*
X166623Y206303D01*
X167153Y206657D01*
X167506Y207186D01*
X167630Y207810D01*
X167506Y208435D01*
X167153Y208964D01*
X166623Y209318D01*
X165999Y209442D01*
D02*
G37*
G36*
X291674Y208115D02*
X291050Y207991D01*
X290521Y207637D01*
X290400Y207456D01*
X289798D01*
X289678Y207637D01*
X289148Y207991D01*
X288524Y208115D01*
X287900Y207991D01*
X287370Y207637D01*
X287017Y207108D01*
X286893Y206484D01*
X287017Y205859D01*
X287370Y205330D01*
X287900Y204976D01*
X288524Y204852D01*
X289148Y204976D01*
X289678Y205330D01*
X289798Y205511D01*
X290400D01*
X290521Y205330D01*
X291050Y204976D01*
X291674Y204852D01*
X292298Y204976D01*
X292828Y205330D01*
X293181Y205859D01*
X293305Y206484D01*
X293181Y207108D01*
X292828Y207637D01*
X292298Y207991D01*
X291674Y208115D01*
D02*
G37*
G36*
X231981Y207659D02*
X231357Y207535D01*
X230827Y207181D01*
X230738Y207047D01*
X230238D01*
X230177Y207137D01*
X229648Y207491D01*
X229024Y207615D01*
X228400Y207491D01*
X227870Y207137D01*
X227517Y206608D01*
X227393Y205983D01*
X227517Y205359D01*
X227870Y204830D01*
X228400Y204476D01*
X229024Y204352D01*
X229648Y204476D01*
X230177Y204830D01*
X230267Y204964D01*
X230767D01*
X230827Y204874D01*
X231357Y204520D01*
X231981Y204396D01*
X232605Y204520D01*
X233135Y204874D01*
X233488Y205403D01*
X233612Y206028D01*
X233488Y206652D01*
X233135Y207181D01*
X232605Y207535D01*
X231981Y207659D01*
D02*
G37*
G36*
X91500Y210132D02*
X90876Y210008D01*
X90346Y209654D01*
X89993Y209125D01*
X89869Y208501D01*
X89993Y207876D01*
X90346Y207347D01*
X90876Y206993D01*
X91500Y206869D01*
X92124Y206993D01*
X92654Y207347D01*
X93007Y207876D01*
X93131Y208501D01*
X93007Y209125D01*
X92654Y209654D01*
X92124Y210008D01*
X91500Y210132D01*
D02*
G37*
G36*
X86500D02*
X85876Y210008D01*
X85347Y209654D01*
X84993Y209125D01*
X84869Y208501D01*
X84993Y207876D01*
X85347Y207347D01*
X85876Y206993D01*
X86500Y206869D01*
X87124Y206993D01*
X87653Y207347D01*
X88007Y207876D01*
X88131Y208501D01*
X88007Y209125D01*
X87653Y209654D01*
X87124Y210008D01*
X86500Y210132D01*
D02*
G37*
G36*
X103500Y209282D02*
X102876Y209158D01*
X102347Y208804D01*
X101993Y208275D01*
X101869Y207650D01*
X101993Y207026D01*
X102347Y206497D01*
X102876Y206143D01*
X103500Y206019D01*
X104124Y206143D01*
X104654Y206497D01*
X105007Y207026D01*
X105131Y207650D01*
X105007Y208275D01*
X104654Y208804D01*
X104124Y209158D01*
X103500Y209282D01*
D02*
G37*
G36*
X62811Y206028D02*
X62265Y205919D01*
X62087Y205800D01*
X60935D01*
X60757Y205919D01*
X60211Y206028D01*
X59665Y205919D01*
X59202Y205610D01*
X58892Y205147D01*
X58784Y204601D01*
X58892Y204054D01*
X59202Y203591D01*
X59665Y203282D01*
X60211Y203173D01*
X60757Y203282D01*
X60934Y203400D01*
X62088D01*
X62265Y203282D01*
X62811Y203173D01*
X63357Y203282D01*
X63820Y203591D01*
X64130Y204054D01*
X64238Y204601D01*
X64130Y205147D01*
X63820Y205610D01*
X63357Y205919D01*
X62811Y206028D01*
D02*
G37*
G36*
X55596Y217615D02*
X50816D01*
Y208655D01*
X50964D01*
X51116Y208155D01*
X50900Y208011D01*
X50590Y207548D01*
X50482Y207001D01*
X50590Y206455D01*
X50900Y205992D01*
X51363Y205683D01*
X51909Y205574D01*
X52455Y205683D01*
X52632Y205801D01*
X53786D01*
X53963Y205683D01*
X54509Y205574D01*
X55055Y205683D01*
X55518Y205992D01*
X55828Y206455D01*
X55936Y207001D01*
X55828Y207548D01*
X55518Y208011D01*
X55302Y208155D01*
X55454Y208655D01*
X55596D01*
Y217615D01*
D02*
G37*
G36*
X264141Y217603D02*
X259361D01*
Y208643D01*
X259492D01*
X259643Y208143D01*
X259444Y208010D01*
X259134Y207547D01*
X259026Y207000D01*
X259134Y206454D01*
X259444Y205991D01*
X259907Y205682D01*
X260453Y205573D01*
X260999Y205682D01*
X261176Y205800D01*
X262330D01*
X262507Y205682D01*
X263053Y205573D01*
X263599Y205682D01*
X264062Y205991D01*
X264372Y206454D01*
X264480Y207000D01*
X264372Y207547D01*
X264062Y208010D01*
X263863Y208143D01*
X264014Y208643D01*
X264141D01*
Y217603D01*
D02*
G37*
G36*
X254692D02*
X249912D01*
Y208643D01*
X250043D01*
X250194Y208143D01*
X249995Y208010D01*
X249685Y207547D01*
X249577Y207000D01*
X249685Y206454D01*
X249995Y205991D01*
X250458Y205682D01*
X251004Y205573D01*
X251550Y205682D01*
X251727Y205800D01*
X252881D01*
X253058Y205682D01*
X253604Y205573D01*
X254150Y205682D01*
X254613Y205991D01*
X254923Y206454D01*
X255031Y207000D01*
X254923Y207547D01*
X254613Y208010D01*
X254414Y208143D01*
X254565Y208643D01*
X254692D01*
Y217603D01*
D02*
G37*
G36*
X245243D02*
X240463D01*
Y208643D01*
X240594D01*
X240745Y208143D01*
X240546Y208010D01*
X240236Y207547D01*
X240128Y207000D01*
X240236Y206454D01*
X240546Y205991D01*
X241009Y205682D01*
X241555Y205573D01*
X242101Y205682D01*
X242278Y205800D01*
X243432D01*
X243609Y205682D01*
X244155Y205573D01*
X244701Y205682D01*
X245164Y205991D01*
X245474Y206454D01*
X245582Y207000D01*
X245474Y207547D01*
X245164Y208010D01*
X244965Y208143D01*
X245116Y208643D01*
X245243D01*
Y217603D01*
D02*
G37*
G36*
X36698Y217615D02*
X31918D01*
Y208655D01*
X32068D01*
X32219Y208155D01*
X32002Y208010D01*
X31692Y207547D01*
X31584Y207000D01*
X31692Y206454D01*
X32002Y205991D01*
X32465Y205682D01*
X33011Y205573D01*
X33557Y205682D01*
X33734Y205800D01*
X34888D01*
X35065Y205682D01*
X35611Y205573D01*
X36157Y205682D01*
X36620Y205991D01*
X36930Y206454D01*
X37038Y207000D01*
X36930Y207547D01*
X36620Y208010D01*
X36403Y208155D01*
X36554Y208655D01*
X36698D01*
Y217615D01*
D02*
G37*
G36*
X73680Y208632D02*
X73056Y208508D01*
X72527Y208154D01*
X72173Y207625D01*
X72049Y207000D01*
X72173Y206376D01*
X72527Y205847D01*
X73056Y205493D01*
X73680Y205369D01*
X74304Y205493D01*
X74834Y205847D01*
X75187Y206376D01*
X75311Y207000D01*
X75187Y207625D01*
X74834Y208154D01*
X74304Y208508D01*
X73680Y208632D01*
D02*
G37*
G36*
X26437Y208159D02*
X25813Y208035D01*
X25284Y207681D01*
X24930Y207152D01*
X24806Y206527D01*
X24930Y205903D01*
X25284Y205374D01*
X25813Y205020D01*
X26437Y204896D01*
X27061Y205020D01*
X27591Y205374D01*
X27944Y205903D01*
X28068Y206527D01*
X27944Y207152D01*
X27591Y207681D01*
X27061Y208035D01*
X26437Y208159D01*
D02*
G37*
G36*
X113000Y207942D02*
X112376Y207818D01*
X111846Y207464D01*
X111493Y206935D01*
X111369Y206311D01*
X111493Y205686D01*
X111846Y205157D01*
X112376Y204803D01*
X113000Y204679D01*
X113624Y204803D01*
X114154Y205157D01*
X114507Y205686D01*
X114631Y206311D01*
X114507Y206935D01*
X114154Y207464D01*
X113624Y207818D01*
X113000Y207942D01*
D02*
G37*
G36*
X81000Y206632D02*
X80376Y206508D01*
X79847Y206154D01*
X79493Y205625D01*
X79369Y205000D01*
X79493Y204376D01*
X79847Y203847D01*
X80376Y203493D01*
X81000Y203369D01*
X81624Y203493D01*
X82153Y203847D01*
X82507Y204376D01*
X82631Y205000D01*
X82507Y205625D01*
X82153Y206154D01*
X81624Y206508D01*
X81000Y206632D01*
D02*
G37*
G36*
X131500Y206442D02*
X130876Y206318D01*
X130347Y205964D01*
X129993Y205435D01*
X129869Y204811D01*
X129993Y204186D01*
X130347Y203657D01*
X130876Y203303D01*
X131500Y203179D01*
X132124Y203303D01*
X132653Y203657D01*
X133007Y204186D01*
X133131Y204811D01*
X133007Y205435D01*
X132653Y205964D01*
X132124Y206318D01*
X131500Y206442D01*
D02*
G37*
G36*
X232024Y203615D02*
X231400Y203491D01*
X230871Y203137D01*
X230774Y202993D01*
X230274D01*
X230177Y203137D01*
X229648Y203491D01*
X229024Y203615D01*
X228400Y203491D01*
X227870Y203137D01*
X227517Y202608D01*
X227393Y201983D01*
X227517Y201359D01*
X227870Y200830D01*
X228400Y200476D01*
X229024Y200352D01*
X229648Y200476D01*
X230177Y200830D01*
X230274Y200974D01*
X230774D01*
X230871Y200830D01*
X231400Y200476D01*
X232024Y200352D01*
X232648Y200476D01*
X233177Y200830D01*
X233531Y201359D01*
X233655Y201983D01*
X233531Y202608D01*
X233177Y203137D01*
X232648Y203491D01*
X232024Y203615D01*
D02*
G37*
G36*
X54508Y201738D02*
X53962Y201629D01*
X53785Y201511D01*
X52631D01*
X52454Y201629D01*
X51908Y201738D01*
X51362Y201629D01*
X50899Y201320D01*
X50589Y200857D01*
X50481Y200310D01*
X50589Y199764D01*
X50899Y199301D01*
X51362Y198992D01*
X51908Y198883D01*
X52454Y198992D01*
X52632Y199111D01*
X53784D01*
X53962Y198992D01*
X54508Y198883D01*
X55054Y198992D01*
X55517Y199301D01*
X55827Y199764D01*
X55935Y200310D01*
X55827Y200857D01*
X55517Y201320D01*
X55054Y201629D01*
X54508Y201738D01*
D02*
G37*
G36*
X91500Y204632D02*
X90876Y204508D01*
X90346Y204154D01*
X89993Y203625D01*
X89869Y203000D01*
X89993Y202376D01*
X90346Y201847D01*
X90876Y201493D01*
X91500Y201369D01*
X92124Y201493D01*
X92654Y201847D01*
X93007Y202376D01*
X93131Y203000D01*
X93007Y203625D01*
X92654Y204154D01*
X92124Y204508D01*
X91500Y204632D01*
D02*
G37*
G36*
X113000Y203942D02*
X112376Y203818D01*
X111846Y203464D01*
X111493Y202935D01*
X111369Y202310D01*
X111493Y201686D01*
X111846Y201157D01*
X112376Y200803D01*
X113000Y200679D01*
X113624Y200803D01*
X114154Y201157D01*
X114507Y201686D01*
X114631Y202310D01*
X114507Y202935D01*
X114154Y203464D01*
X113624Y203818D01*
X113000Y203942D01*
D02*
G37*
G36*
X26480Y203615D02*
X25856Y203491D01*
X25326Y203137D01*
X24973Y202608D01*
X24849Y201983D01*
X24973Y201359D01*
X25326Y200830D01*
X25856Y200476D01*
X26480Y200352D01*
X27104Y200476D01*
X27634Y200830D01*
X27987Y201359D01*
X28111Y201983D01*
X27987Y202608D01*
X27634Y203137D01*
X27104Y203491D01*
X26480Y203615D01*
D02*
G37*
G36*
X118810Y201632D02*
X118186Y201508D01*
X117657Y201154D01*
X117303Y200625D01*
X117179Y200001D01*
X117303Y199376D01*
X117657Y198847D01*
X118186Y198493D01*
X118810Y198369D01*
X119434Y198493D01*
X119964Y198847D01*
X120317Y199376D01*
X120441Y200001D01*
X120317Y200625D01*
X119964Y201154D01*
X119434Y201508D01*
X118810Y201632D01*
D02*
G37*
G36*
X206767Y198438D02*
X206221Y198329D01*
X206044Y198211D01*
X204890D01*
X204713Y198329D01*
X204167Y198438D01*
X203621Y198329D01*
X203158Y198020D01*
X202848Y197557D01*
X202740Y197011D01*
X202848Y196464D01*
X203158Y196001D01*
X203621Y195692D01*
X204167Y195583D01*
X204713Y195692D01*
X204891Y195811D01*
X206043D01*
X206221Y195692D01*
X206767Y195583D01*
X207313Y195692D01*
X207776Y196001D01*
X208086Y196464D01*
X208194Y197011D01*
X208086Y197557D01*
X207776Y198020D01*
X207313Y198329D01*
X206767Y198438D01*
D02*
G37*
G36*
X138000Y201442D02*
X137376Y201318D01*
X136846Y200964D01*
X136493Y200435D01*
X136369Y199811D01*
X136493Y199186D01*
X136846Y198657D01*
X137376Y198303D01*
X138000Y198179D01*
X138624Y198303D01*
X139154Y198657D01*
X139507Y199186D01*
X139631Y199811D01*
X139507Y200435D01*
X139154Y200964D01*
X138624Y201318D01*
X138000Y201442D01*
D02*
G37*
G36*
X200000Y202888D02*
X199454Y202779D01*
X198991Y202470D01*
X198681Y202007D01*
X198573Y201461D01*
X198681Y200914D01*
X198800Y200736D01*
Y199585D01*
X198681Y199407D01*
X198573Y198861D01*
X198681Y198314D01*
X198991Y197851D01*
X199454Y197542D01*
X200000Y197433D01*
X200546Y197542D01*
X201009Y197851D01*
X201319Y198314D01*
X201427Y198861D01*
X201319Y199407D01*
X201201Y199583D01*
Y200738D01*
X201319Y200914D01*
X201427Y201461D01*
X201319Y202007D01*
X201009Y202470D01*
X200546Y202779D01*
X200000Y202888D01*
D02*
G37*
G36*
X191500D02*
X190954Y202779D01*
X190491Y202470D01*
X190181Y202007D01*
X190073Y201461D01*
X190181Y200914D01*
X190481Y200465D01*
X190551Y200339D01*
Y199982D01*
X190481Y199856D01*
X190181Y199407D01*
X190073Y198861D01*
X190181Y198314D01*
X190491Y197851D01*
X190954Y197542D01*
X191500Y197433D01*
X192046Y197542D01*
X192509Y197851D01*
X192819Y198314D01*
X192927Y198861D01*
X192819Y199407D01*
X192519Y199856D01*
X192448Y199982D01*
Y200339D01*
X192519Y200465D01*
X192819Y200914D01*
X192927Y201461D01*
X192819Y202007D01*
X192509Y202470D01*
X192046Y202779D01*
X191500Y202888D01*
D02*
G37*
G36*
X115200Y200632D02*
X114576Y200508D01*
X114047Y200154D01*
X113693Y199625D01*
X113569Y199001D01*
X113693Y198376D01*
X114047Y197847D01*
X114576Y197493D01*
X115200Y197369D01*
X115824Y197493D01*
X116353Y197847D01*
X116707Y198376D01*
X116831Y199001D01*
X116707Y199625D01*
X116353Y200154D01*
X115824Y200508D01*
X115200Y200632D01*
D02*
G37*
G36*
X272050Y202388D02*
X271504Y202279D01*
X271041Y201970D01*
X270731Y201507D01*
X270623Y200960D01*
X270731Y200414D01*
X270850Y200236D01*
Y199085D01*
X270731Y198907D01*
X270623Y198361D01*
X270731Y197814D01*
X271041Y197351D01*
X271504Y197042D01*
X272050Y196933D01*
X272596Y197042D01*
X273059Y197351D01*
X273369Y197814D01*
X273477Y198361D01*
X273369Y198907D01*
X273251Y199083D01*
Y200238D01*
X273369Y200414D01*
X273477Y200960D01*
X273369Y201507D01*
X273059Y201970D01*
X272596Y202279D01*
X272050Y202388D01*
D02*
G37*
G36*
X285000Y200132D02*
X284376Y200008D01*
X283846Y199654D01*
X283493Y199125D01*
X283369Y198501D01*
X283493Y197876D01*
X283846Y197347D01*
X284376Y196993D01*
X285000Y196869D01*
X285624Y196993D01*
X286154Y197347D01*
X286507Y197876D01*
X286631Y198501D01*
X286507Y199125D01*
X286154Y199654D01*
X285624Y200008D01*
X285000Y200132D01*
D02*
G37*
G36*
X280000D02*
X279376Y200008D01*
X278847Y199654D01*
X278493Y199125D01*
X278369Y198501D01*
X278493Y197876D01*
X278847Y197347D01*
X279376Y196993D01*
X280000Y196869D01*
X280624Y196993D01*
X281153Y197347D01*
X281507Y197876D01*
X281631Y198501D01*
X281507Y199125D01*
X281153Y199654D01*
X280624Y200008D01*
X280000Y200132D01*
D02*
G37*
G36*
X246500Y202188D02*
X245954Y202079D01*
X245491Y201770D01*
X245181Y201307D01*
X245073Y200761D01*
X245181Y200214D01*
X245300Y200036D01*
Y198885D01*
X245181Y198707D01*
X245073Y198161D01*
X245181Y197614D01*
X245491Y197151D01*
X245954Y196842D01*
X246500Y196733D01*
X247046Y196842D01*
X247509Y197151D01*
X247819Y197614D01*
X247927Y198161D01*
X247819Y198707D01*
X247701Y198883D01*
Y200038D01*
X247819Y200214D01*
X247927Y200761D01*
X247819Y201307D01*
X247509Y201770D01*
X247046Y202079D01*
X246500Y202188D01*
D02*
G37*
G36*
X263300Y201388D02*
X262754Y201279D01*
X262291Y200970D01*
X261981Y200507D01*
X261873Y199960D01*
X261981Y199414D01*
X262100Y199236D01*
Y198085D01*
X261981Y197907D01*
X261873Y197361D01*
X261981Y196814D01*
X262291Y196351D01*
X262754Y196042D01*
X263300Y195933D01*
X263846Y196042D01*
X264309Y196351D01*
X264619Y196814D01*
X264727Y197361D01*
X264619Y197907D01*
X264501Y198083D01*
Y199238D01*
X264619Y199414D01*
X264727Y199960D01*
X264619Y200507D01*
X264309Y200970D01*
X263846Y201279D01*
X263300Y201388D01*
D02*
G37*
G36*
X213250Y193138D02*
X212704Y193029D01*
X212527Y192911D01*
X211373D01*
X211196Y193029D01*
X210650Y193138D01*
X210104Y193029D01*
X209641Y192720D01*
X209331Y192257D01*
X209223Y191710D01*
X209331Y191164D01*
X209641Y190701D01*
X210104Y190392D01*
X210650Y190283D01*
X211196Y190392D01*
X211374Y190511D01*
X212526D01*
X212704Y190392D01*
X213250Y190283D01*
X213796Y190392D01*
X214259Y190701D01*
X214569Y191164D01*
X214677Y191710D01*
X214569Y192257D01*
X214259Y192720D01*
X213796Y193029D01*
X213250Y193138D01*
D02*
G37*
G36*
X68000Y192688D02*
X67454Y192579D01*
X66991Y192270D01*
X66681Y191807D01*
X66573Y191261D01*
X66681Y190714D01*
X66800Y190536D01*
Y189385D01*
X66681Y189207D01*
X66573Y188661D01*
X66681Y188114D01*
X66991Y187651D01*
X67454Y187342D01*
X68000Y187233D01*
X68546Y187342D01*
X69009Y187651D01*
X69319Y188114D01*
X69427Y188661D01*
X69319Y189207D01*
X69201Y189383D01*
Y190538D01*
X69319Y190714D01*
X69427Y191261D01*
X69319Y191807D01*
X69009Y192270D01*
X68546Y192579D01*
X68000Y192688D01*
D02*
G37*
G36*
X294500Y189442D02*
X293876Y189318D01*
X293347Y188964D01*
X292993Y188435D01*
X292869Y187811D01*
X292993Y187186D01*
X293347Y186657D01*
X293876Y186303D01*
X294500Y186179D01*
X295124Y186303D01*
X295654Y186657D01*
X296007Y187186D01*
X296131Y187811D01*
X296007Y188435D01*
X295654Y188964D01*
X295124Y189318D01*
X294500Y189442D01*
D02*
G37*
G36*
X274418Y188115D02*
X273794Y187991D01*
X273265Y187637D01*
X272911Y187108D01*
X272787Y186484D01*
X272911Y185859D01*
X273265Y185330D01*
X273794Y184976D01*
X274418Y184852D01*
X275042Y184976D01*
X275571Y185330D01*
X275925Y185859D01*
X276049Y186484D01*
X275925Y187108D01*
X275571Y187637D01*
X275042Y187991D01*
X274418Y188115D01*
D02*
G37*
G36*
X266704D02*
X266080Y187991D01*
X265550Y187637D01*
X265197Y187108D01*
X265073Y186484D01*
X265197Y185859D01*
X265550Y185330D01*
X266080Y184976D01*
X266704Y184852D01*
X267328Y184976D01*
X267858Y185330D01*
X268211Y185859D01*
X268335Y186484D01*
X268211Y187108D01*
X267858Y187637D01*
X267328Y187991D01*
X266704Y188115D01*
D02*
G37*
G36*
X197700Y189699D02*
X197154Y189590D01*
X196691Y189281D01*
X196381Y188818D01*
X196273Y188271D01*
X196381Y187725D01*
X196501Y187545D01*
Y186398D01*
X196381Y186218D01*
X196273Y185671D01*
X196381Y185125D01*
X196691Y184662D01*
X197154Y184353D01*
X197700Y184244D01*
X198246Y184353D01*
X198709Y184662D01*
X199019Y185125D01*
X199127Y185671D01*
X199019Y186218D01*
X198902Y186392D01*
Y187550D01*
X199019Y187725D01*
X199127Y188271D01*
X199019Y188818D01*
X198709Y189281D01*
X198246Y189590D01*
X197700Y189699D01*
D02*
G37*
G36*
X313366Y194503D02*
X312022Y194326D01*
X310770Y193807D01*
X309695Y192982D01*
X308870Y191907D01*
X308351Y190655D01*
X308174Y189311D01*
X308351Y187967D01*
X308870Y186715D01*
X309695Y185640D01*
X310770Y184815D01*
X312022Y184296D01*
X313366Y184119D01*
X314710Y184296D01*
X315962Y184815D01*
X317037Y185640D01*
X317862Y186715D01*
X318381Y187967D01*
X318558Y189311D01*
X318381Y190655D01*
X317862Y191907D01*
X317037Y192982D01*
X315962Y193807D01*
X314710Y194326D01*
X313366Y194503D01*
D02*
G37*
G36*
X151950Y182238D02*
X151404Y182129D01*
X151227Y182011D01*
X150073D01*
X149896Y182129D01*
X149350Y182238D01*
X148804Y182129D01*
X148341Y181820D01*
X148031Y181357D01*
X147923Y180810D01*
X148031Y180264D01*
X148341Y179801D01*
X148804Y179492D01*
X149350Y179383D01*
X149896Y179492D01*
X150074Y179611D01*
X151226D01*
X151404Y179492D01*
X151950Y179383D01*
X152496Y179492D01*
X152959Y179801D01*
X153269Y180264D01*
X153377Y180810D01*
X153269Y181357D01*
X152959Y181820D01*
X152496Y182129D01*
X151950Y182238D01*
D02*
G37*
G36*
X166654Y182185D02*
X166108Y182076D01*
X165931Y181958D01*
X164777D01*
X164600Y182076D01*
X164054Y182185D01*
X163508Y182076D01*
X163045Y181767D01*
X162735Y181304D01*
X162627Y180757D01*
X162735Y180211D01*
X163045Y179748D01*
X163508Y179439D01*
X164054Y179330D01*
X164600Y179439D01*
X164778Y179557D01*
X165930D01*
X166108Y179439D01*
X166654Y179330D01*
X167200Y179439D01*
X167663Y179748D01*
X167973Y180211D01*
X168081Y180757D01*
X167973Y181304D01*
X167663Y181767D01*
X167200Y182076D01*
X166654Y182185D01*
D02*
G37*
G36*
X294500Y184942D02*
X293876Y184818D01*
X293347Y184464D01*
X292993Y183935D01*
X292869Y183310D01*
X292993Y182686D01*
X293347Y182157D01*
X293876Y181803D01*
X294500Y181679D01*
X295124Y181803D01*
X295654Y182157D01*
X296007Y182686D01*
X296131Y183310D01*
X296007Y183935D01*
X295654Y184464D01*
X295124Y184818D01*
X294500Y184942D01*
D02*
G37*
G36*
X258500Y184442D02*
X257876Y184318D01*
X257347Y183964D01*
X256993Y183435D01*
X256869Y182810D01*
X256993Y182186D01*
X257347Y181657D01*
X257876Y181303D01*
X258500Y181179D01*
X259124Y181303D01*
X259653Y181657D01*
X260007Y182186D01*
X260131Y182810D01*
X260007Y183435D01*
X259653Y183964D01*
X259124Y184318D01*
X258500Y184442D01*
D02*
G37*
G36*
X201029Y183628D02*
X200483Y183519D01*
X200020Y183210D01*
X199710Y182747D01*
X199602Y182201D01*
X199710Y181654D01*
X200020Y181191D01*
X200483Y180882D01*
X201029Y180773D01*
X201575Y180882D01*
X201753Y181001D01*
X202904D01*
X203083Y180881D01*
X203629Y180773D01*
X204175Y180881D01*
X204638Y181191D01*
X204948Y181654D01*
X205056Y182200D01*
X204948Y182746D01*
X204638Y183209D01*
X204175Y183519D01*
X203629Y183627D01*
X203083Y183519D01*
X202907Y183401D01*
X201752D01*
X201575Y183519D01*
X201029Y183628D01*
D02*
G37*
G36*
X157205Y180185D02*
X156659Y180076D01*
X156482Y179958D01*
X155328D01*
X155151Y180076D01*
X154605Y180185D01*
X154059Y180076D01*
X153596Y179767D01*
X153286Y179304D01*
X153178Y178758D01*
X153286Y178211D01*
X153596Y177748D01*
X154059Y177439D01*
X154605Y177330D01*
X155151Y177439D01*
X155329Y177557D01*
X156481D01*
X156659Y177439D01*
X157205Y177330D01*
X157751Y177439D01*
X158214Y177748D01*
X158524Y178211D01*
X158632Y178758D01*
X158524Y179304D01*
X158214Y179767D01*
X157751Y180076D01*
X157205Y180185D01*
D02*
G37*
G36*
X62500Y182980D02*
X61876Y182856D01*
X61347Y182502D01*
X60993Y181973D01*
X60869Y181349D01*
X60993Y180724D01*
X61347Y180195D01*
X61876Y179841D01*
X62500Y179717D01*
X63124Y179841D01*
X63653Y180195D01*
X64007Y180724D01*
X64131Y181349D01*
X64007Y181973D01*
X63653Y182502D01*
X63124Y182856D01*
X62500Y182980D01*
D02*
G37*
G36*
X3553Y181811D02*
X2679Y181638D01*
X1938Y181142D01*
X1443Y180402D01*
X1269Y179527D01*
X1443Y178653D01*
X1938Y177912D01*
X2679Y177417D01*
X3553Y177243D01*
X4427Y177417D01*
X5168Y177912D01*
X5663Y178653D01*
X5837Y179527D01*
X5663Y180402D01*
X5168Y181142D01*
X4427Y181638D01*
X3553Y181811D01*
D02*
G37*
G36*
X176102Y176788D02*
X175556Y176679D01*
X175379Y176561D01*
X174225D01*
X174048Y176679D01*
X173502Y176788D01*
X172956Y176679D01*
X172493Y176370D01*
X172183Y175907D01*
X172075Y175361D01*
X172183Y174814D01*
X172493Y174351D01*
X172956Y174042D01*
X173502Y173933D01*
X174048Y174042D01*
X174226Y174161D01*
X175378D01*
X175556Y174042D01*
X176102Y173933D01*
X176648Y174042D01*
X177111Y174351D01*
X177421Y174814D01*
X177529Y175361D01*
X177421Y175907D01*
X177111Y176370D01*
X176648Y176679D01*
X176102Y176788D01*
D02*
G37*
G36*
X161929D02*
X161383Y176679D01*
X161206Y176561D01*
X160052D01*
X159875Y176679D01*
X159329Y176788D01*
X158783Y176679D01*
X158320Y176370D01*
X158010Y175907D01*
X157902Y175361D01*
X158010Y174814D01*
X158320Y174351D01*
X158783Y174042D01*
X159329Y173933D01*
X159875Y174042D01*
X160053Y174161D01*
X161205D01*
X161383Y174042D01*
X161929Y173933D01*
X162475Y174042D01*
X162938Y174351D01*
X163248Y174814D01*
X163356Y175361D01*
X163248Y175907D01*
X162938Y176370D01*
X162475Y176679D01*
X161929Y176788D01*
D02*
G37*
G36*
X57480Y179615D02*
X56856Y179491D01*
X56327Y179137D01*
X55973Y178608D01*
X55849Y177983D01*
X55973Y177359D01*
X56327Y176830D01*
X56856Y176476D01*
X57480Y176352D01*
X58104Y176476D01*
X58634Y176830D01*
X58987Y177359D01*
X59111Y177983D01*
X58987Y178608D01*
X58634Y179137D01*
X58104Y179491D01*
X57480Y179615D01*
D02*
G37*
G36*
X73500Y179738D02*
X72954Y179629D01*
X72491Y179320D01*
X72181Y178857D01*
X72073Y178311D01*
X72181Y177764D01*
X72300Y177586D01*
Y176535D01*
X72181Y176357D01*
X72073Y175811D01*
X72181Y175264D01*
X72491Y174801D01*
X72954Y174492D01*
X73500Y174383D01*
X74046Y174492D01*
X74509Y174801D01*
X74819Y175264D01*
X74927Y175811D01*
X74819Y176357D01*
X74700Y176534D01*
Y177587D01*
X74819Y177764D01*
X74927Y178311D01*
X74819Y178857D01*
X74509Y179320D01*
X74046Y179629D01*
X73500Y179738D01*
D02*
G37*
G36*
X61500Y177615D02*
X60876Y177491D01*
X60347Y177137D01*
X59993Y176608D01*
X59869Y175984D01*
X59993Y175359D01*
X60347Y174830D01*
X60876Y174476D01*
X61500Y174352D01*
X62124Y174476D01*
X62653Y174830D01*
X63007Y175359D01*
X63131Y175984D01*
X63007Y176608D01*
X62653Y177137D01*
X62124Y177491D01*
X61500Y177615D01*
D02*
G37*
G36*
X-1520Y178411D02*
X-2066Y178302D01*
X-2529Y177993D01*
X-2839Y177530D01*
X-2947Y176983D01*
X-2839Y176437D01*
X-2720Y176259D01*
Y175208D01*
X-2839Y175030D01*
X-2947Y174484D01*
X-2839Y173937D01*
X-2529Y173474D01*
X-2066Y173165D01*
X-1520Y173056D01*
X-974Y173165D01*
X-511Y173474D01*
X-201Y173937D01*
X-93Y174484D01*
X-201Y175030D01*
X-320Y175207D01*
Y176260D01*
X-201Y176437D01*
X-93Y176983D01*
X-201Y177530D01*
X-511Y177993D01*
X-974Y178302D01*
X-1520Y178411D01*
D02*
G37*
G36*
X75000Y172942D02*
X74376Y172818D01*
X73847Y172464D01*
X73750Y172320D01*
X73250D01*
X73154Y172464D01*
X72624Y172818D01*
X72000Y172942D01*
X71376Y172818D01*
X70846Y172464D01*
X70493Y171935D01*
X70369Y171310D01*
X70493Y170686D01*
X70846Y170157D01*
X71376Y169803D01*
X72000Y169679D01*
X72624Y169803D01*
X73154Y170157D01*
X73250Y170301D01*
X73750D01*
X73847Y170157D01*
X74376Y169803D01*
X75000Y169679D01*
X75624Y169803D01*
X76153Y170157D01*
X76507Y170686D01*
X76631Y171310D01*
X76507Y171935D01*
X76153Y172464D01*
X75624Y172818D01*
X75000Y172942D01*
D02*
G37*
G36*
X9480Y175284D02*
X6290D01*
Y172184D01*
X9480D01*
Y175284D01*
D02*
G37*
G36*
X15780Y174300D02*
X12590D01*
Y171200D01*
X15780D01*
Y174300D01*
D02*
G37*
G36*
X42777Y176164D02*
X37291D01*
Y170284D01*
X42777D01*
Y176164D01*
D02*
G37*
G36*
X180717Y172794D02*
X178347D01*
Y170034D01*
X180717D01*
Y172794D01*
D02*
G37*
G36*
X175993D02*
X173623D01*
Y170034D01*
X175993D01*
Y172794D01*
D02*
G37*
G36*
X157095D02*
X154725D01*
Y170034D01*
X157095D01*
Y172794D01*
D02*
G37*
G36*
X171268Y172794D02*
X168898D01*
Y170034D01*
X171268D01*
Y172794D01*
D02*
G37*
G36*
X166543D02*
X164173D01*
Y170034D01*
X166543D01*
Y172794D01*
D02*
G37*
G36*
X161819D02*
X159449D01*
Y170034D01*
X161819D01*
Y172794D01*
D02*
G37*
G36*
X152370D02*
X150000D01*
Y170034D01*
X152370D01*
Y172794D01*
D02*
G37*
G36*
X123100Y172831D02*
X122476Y172707D01*
X121947Y172353D01*
X121593Y171824D01*
X121469Y171200D01*
X121593Y170576D01*
X121947Y170046D01*
X122476Y169693D01*
X123100Y169569D01*
X123724Y169693D01*
X124253Y170046D01*
X124607Y170576D01*
X124731Y171200D01*
X124607Y171824D01*
X124253Y172353D01*
X123724Y172707D01*
X123100Y172831D01*
D02*
G37*
G36*
X54980Y171884D02*
X52280D01*
Y169284D01*
X54980D01*
Y171884D01*
D02*
G37*
G36*
X4587Y172398D02*
X3963Y172274D01*
X3433Y171920D01*
X3080Y171391D01*
X2956Y170766D01*
X3080Y170142D01*
X3433Y169613D01*
X3963Y169259D01*
X4587Y169135D01*
X5211Y169259D01*
X5740Y169613D01*
X6094Y170142D01*
X6218Y170766D01*
X6094Y171391D01*
X5740Y171920D01*
X5211Y172274D01*
X4587Y172398D01*
D02*
G37*
G36*
X290000Y171442D02*
X289376Y171318D01*
X288846Y170964D01*
X288493Y170435D01*
X288369Y169810D01*
X288493Y169186D01*
X288846Y168657D01*
X289376Y168303D01*
X290000Y168179D01*
X290624Y168303D01*
X291154Y168657D01*
X291507Y169186D01*
X291631Y169810D01*
X291507Y170435D01*
X291154Y170964D01*
X290624Y171318D01*
X290000Y171442D01*
D02*
G37*
G36*
X247500D02*
X246876Y171318D01*
X246346Y170964D01*
X245993Y170435D01*
X245869Y169810D01*
X245993Y169186D01*
X246346Y168657D01*
X246876Y168303D01*
X247500Y168179D01*
X248124Y168303D01*
X248654Y168657D01*
X249007Y169186D01*
X249131Y169810D01*
X249007Y170435D01*
X248654Y170964D01*
X248124Y171318D01*
X247500Y171442D01*
D02*
G37*
G36*
X243000D02*
X242376Y171318D01*
X241846Y170964D01*
X241493Y170435D01*
X241369Y169810D01*
X241493Y169186D01*
X241846Y168657D01*
X242376Y168303D01*
X243000Y168179D01*
X243624Y168303D01*
X244153Y168657D01*
X244507Y169186D01*
X244631Y169810D01*
X244507Y170435D01*
X244153Y170964D01*
X243624Y171318D01*
X243000Y171442D01*
D02*
G37*
G36*
X17480Y171415D02*
X16856Y171291D01*
X16327Y170937D01*
X15973Y170408D01*
X15849Y169783D01*
X15973Y169159D01*
X16327Y168630D01*
X16856Y168276D01*
X17480Y168152D01*
X18104Y168276D01*
X18633Y168630D01*
X18987Y169159D01*
X19111Y169783D01*
X18987Y170408D01*
X18633Y170937D01*
X18104Y171291D01*
X17480Y171415D01*
D02*
G37*
G36*
X31480Y171095D02*
X30856Y170971D01*
X30327Y170617D01*
X29973Y170088D01*
X29849Y169464D01*
X29973Y168839D01*
X30327Y168310D01*
X30856Y167956D01*
X31480Y167832D01*
X32104Y167956D01*
X32634Y168310D01*
X32987Y168839D01*
X33111Y169464D01*
X32987Y170088D01*
X32634Y170617D01*
X32104Y170971D01*
X31480Y171095D01*
D02*
G37*
G36*
X63011Y170309D02*
X60311D01*
Y167709D01*
X63011D01*
Y170309D01*
D02*
G37*
G36*
X273014Y170942D02*
X272390Y170818D01*
X271861Y170464D01*
X271507Y169935D01*
X271383Y169310D01*
X271507Y168686D01*
X271861Y168157D01*
X272390Y167803D01*
X273014Y167679D01*
X273638Y167803D01*
X274167Y168157D01*
X274521Y168686D01*
X274645Y169310D01*
X274521Y169935D01*
X274167Y170464D01*
X273638Y170818D01*
X273014Y170942D01*
D02*
G37*
G36*
X24924Y175846D02*
X24378Y175737D01*
X23915Y175428D01*
X23605Y174965D01*
X23497Y174418D01*
X23605Y173872D01*
X23724Y173694D01*
Y172643D01*
X23605Y172465D01*
X23497Y171918D01*
X23605Y171372D01*
X23688Y171248D01*
X23857Y170860D01*
X23561Y170607D01*
X23347Y170464D01*
X22993Y169935D01*
X22869Y169310D01*
X22993Y168686D01*
X23347Y168157D01*
X23876Y167803D01*
X24500Y167679D01*
X25124Y167803D01*
X25653Y168157D01*
X26007Y168686D01*
X26131Y169310D01*
X26007Y169935D01*
X25812Y170227D01*
X25872Y170830D01*
X25910Y170894D01*
X25933Y170909D01*
X26243Y171372D01*
X26351Y171918D01*
X26243Y172465D01*
X26124Y172642D01*
Y173695D01*
X26243Y173872D01*
X26351Y174418D01*
X26243Y174965D01*
X25933Y175428D01*
X25470Y175737D01*
X24924Y175846D01*
D02*
G37*
G36*
X-2557Y166709D02*
X-3103Y166600D01*
X-3280Y166482D01*
X-4334D01*
X-4511Y166600D01*
X-5057Y166709D01*
X-5603Y166600D01*
X-6066Y166291D01*
X-6376Y165828D01*
X-6484Y165281D01*
X-6376Y164735D01*
X-6066Y164272D01*
X-5603Y163963D01*
X-5057Y163854D01*
X-4511Y163963D01*
X-4332Y164082D01*
X-3282D01*
X-3103Y163963D01*
X-2557Y163854D01*
X-2011Y163963D01*
X-1548Y164272D01*
X-1238Y164735D01*
X-1130Y165281D01*
X-1238Y165828D01*
X-1548Y166291D01*
X-2011Y166600D01*
X-2557Y166709D01*
D02*
G37*
G36*
X54980Y168734D02*
X52280D01*
Y166134D01*
X54980D01*
Y168734D01*
D02*
G37*
G36*
X9480Y167410D02*
X6290D01*
Y164310D01*
X9480D01*
Y167410D01*
D02*
G37*
G36*
X232634Y170809D02*
X232010Y170685D01*
X231481Y170331D01*
X231127Y169802D01*
X231003Y169177D01*
X231127Y168553D01*
X231481Y168024D01*
X232010Y167670D01*
X232428Y167587D01*
X232634Y167546D01*
X232707Y167061D01*
X232356Y166991D01*
X231826Y166637D01*
X231473Y166108D01*
X231349Y165483D01*
X231473Y164859D01*
X231826Y164330D01*
X232356Y163976D01*
X232980Y163852D01*
X233604Y163976D01*
X234134Y164330D01*
X234487Y164859D01*
X234611Y165483D01*
X234487Y166108D01*
X234134Y166637D01*
X233604Y166991D01*
X233186Y167074D01*
X232980Y167115D01*
X232907Y167600D01*
X233258Y167670D01*
X233787Y168024D01*
X234141Y168553D01*
X234265Y169177D01*
X234141Y169802D01*
X233787Y170331D01*
X233258Y170685D01*
X232634Y170809D01*
D02*
G37*
G36*
X15780Y166426D02*
X12590D01*
Y163326D01*
X15780D01*
Y166426D01*
D02*
G37*
G36*
X63011Y165585D02*
X60311D01*
Y162985D01*
X63011D01*
Y165585D01*
D02*
G37*
G36*
X54980D02*
X52280D01*
Y162985D01*
X54980D01*
Y165585D01*
D02*
G37*
G36*
X302500Y165942D02*
X301876Y165818D01*
X301346Y165464D01*
X300993Y164935D01*
X300869Y164311D01*
X300993Y163686D01*
X301346Y163157D01*
X301876Y162803D01*
X302500Y162679D01*
X303124Y162803D01*
X303654Y163157D01*
X304007Y163686D01*
X304131Y164311D01*
X304007Y164935D01*
X303654Y165464D01*
X303124Y165818D01*
X302500Y165942D01*
D02*
G37*
G36*
X43558Y167630D02*
X43012Y167521D01*
X42549Y167212D01*
X42239Y166749D01*
X42131Y166202D01*
X42239Y165656D01*
X42358Y165478D01*
Y164427D01*
X42239Y164249D01*
X42131Y163702D01*
X42239Y163156D01*
X42549Y162693D01*
X43012Y162384D01*
X43558Y162275D01*
X44104Y162384D01*
X44567Y162693D01*
X44877Y163156D01*
X44985Y163702D01*
X44877Y164249D01*
X44758Y164426D01*
Y165479D01*
X44877Y165656D01*
X44985Y166202D01*
X44877Y166749D01*
X44567Y167212D01*
X44104Y167521D01*
X43558Y167630D01*
D02*
G37*
G36*
X34570Y167540D02*
X34024Y167431D01*
X33561Y167122D01*
X33251Y166659D01*
X33143Y166112D01*
X33251Y165566D01*
X33370Y165388D01*
Y164337D01*
X33251Y164159D01*
X33143Y163612D01*
X33251Y163066D01*
X33561Y162603D01*
X34024Y162294D01*
X34570Y162185D01*
X35116Y162294D01*
X35579Y162603D01*
X35889Y163066D01*
X35997Y163612D01*
X35889Y164159D01*
X35770Y164336D01*
Y165389D01*
X35889Y165566D01*
X35997Y166112D01*
X35889Y166659D01*
X35579Y167122D01*
X35116Y167431D01*
X34570Y167540D01*
D02*
G37*
G36*
X20163D02*
X19617Y167431D01*
X19154Y167122D01*
X18844Y166659D01*
X18736Y166112D01*
X18844Y165566D01*
X18963Y165388D01*
Y164337D01*
X18844Y164159D01*
X18736Y163612D01*
X18844Y163066D01*
X19154Y162603D01*
X19617Y162294D01*
X20163Y162185D01*
X20709Y162294D01*
X21172Y162603D01*
X21482Y163066D01*
X21590Y163612D01*
X21482Y164159D01*
X21363Y164336D01*
Y165389D01*
X21482Y165566D01*
X21590Y166112D01*
X21482Y166659D01*
X21172Y167122D01*
X20709Y167431D01*
X20163Y167540D01*
D02*
G37*
G36*
X225480Y162615D02*
X224856Y162491D01*
X224326Y162137D01*
X224230Y161993D01*
X223730D01*
X223634Y162137D01*
X223104Y162491D01*
X222480Y162615D01*
X221856Y162491D01*
X221326Y162137D01*
X221230Y161993D01*
X220730D01*
X220634Y162137D01*
X220104Y162491D01*
X219480Y162615D01*
X218856Y162491D01*
X218326Y162137D01*
X217973Y161608D01*
X217849Y160984D01*
X217973Y160359D01*
X218326Y159830D01*
X218856Y159476D01*
X219480Y159352D01*
X220104Y159476D01*
X220634Y159830D01*
X220730Y159974D01*
X221230D01*
X221326Y159830D01*
X221856Y159476D01*
X222480Y159352D01*
X223104Y159476D01*
X223634Y159830D01*
X223730Y159974D01*
X224230D01*
X224326Y159830D01*
X224856Y159476D01*
X225480Y159352D01*
X226104Y159476D01*
X226634Y159830D01*
X226987Y160359D01*
X227111Y160984D01*
X226987Y161608D01*
X226634Y162137D01*
X226104Y162491D01*
X225480Y162615D01*
D02*
G37*
G36*
X54980Y162435D02*
X52280D01*
Y159835D01*
X54980D01*
Y162435D01*
D02*
G37*
G36*
X4587Y162557D02*
X3963Y162433D01*
X3433Y162079D01*
X3080Y161550D01*
X2956Y160925D01*
X3080Y160301D01*
X3433Y159772D01*
X3963Y159418D01*
X4587Y159294D01*
X5211Y159418D01*
X5740Y159772D01*
X6094Y160301D01*
X6218Y160925D01*
X6094Y161550D01*
X5740Y162079D01*
X5211Y162433D01*
X4587Y162557D01*
D02*
G37*
G36*
X17480Y161573D02*
X16856Y161449D01*
X16327Y161095D01*
X15973Y160566D01*
X15849Y159941D01*
X15973Y159317D01*
X16327Y158788D01*
X16856Y158434D01*
X17480Y158310D01*
X18104Y158434D01*
X18633Y158788D01*
X18987Y159317D01*
X19111Y159941D01*
X18987Y160566D01*
X18633Y161095D01*
X18104Y161449D01*
X17480Y161573D01*
D02*
G37*
G36*
X180717Y160668D02*
X178347D01*
Y157908D01*
X180717D01*
Y160668D01*
D02*
G37*
G36*
X175993D02*
X173623D01*
Y157908D01*
X175993D01*
Y160668D01*
D02*
G37*
G36*
X171268D02*
X168898D01*
Y157908D01*
X171268D01*
Y160668D01*
D02*
G37*
G36*
X166544D02*
X164174D01*
Y157908D01*
X166544D01*
Y160668D01*
D02*
G37*
G36*
X161819D02*
X159449D01*
Y157908D01*
X161819D01*
Y160668D01*
D02*
G37*
G36*
X142922D02*
X140552D01*
Y157908D01*
X142922D01*
Y160668D01*
D02*
G37*
G36*
X138197D02*
X135827D01*
Y157908D01*
X138197D01*
Y160668D01*
D02*
G37*
G36*
X157095Y160668D02*
X154725D01*
Y157908D01*
X157095D01*
Y160668D01*
D02*
G37*
G36*
X152370D02*
X150000D01*
Y157908D01*
X152370D01*
Y160668D01*
D02*
G37*
G36*
X9481Y159536D02*
X6291D01*
Y156436D01*
X9481D01*
Y159536D01*
D02*
G37*
G36*
X91573Y161598D02*
X91027Y161489D01*
X90564Y161180D01*
X90254Y160717D01*
X90146Y160170D01*
X90254Y159624D01*
X90374Y159445D01*
Y158396D01*
X90254Y158217D01*
X90146Y157670D01*
X90254Y157124D01*
X90564Y156661D01*
X91027Y156352D01*
X91573Y156243D01*
X92119Y156352D01*
X92582Y156661D01*
X92892Y157124D01*
X93000Y157670D01*
X92892Y158217D01*
X92774Y158393D01*
Y159448D01*
X92892Y159624D01*
X93000Y160170D01*
X92892Y160717D01*
X92582Y161180D01*
X92119Y161489D01*
X91573Y161598D01*
D02*
G37*
G36*
X15780Y158552D02*
X12590D01*
Y155452D01*
X15780D01*
Y158552D01*
D02*
G37*
G36*
X147646Y160668D02*
X145276D01*
Y158212D01*
X145189Y157857D01*
X144875Y157670D01*
X144611Y157617D01*
X144148Y157308D01*
X143839Y156845D01*
X143730Y156298D01*
X143839Y155752D01*
X144148Y155289D01*
X144611Y154980D01*
X145157Y154871D01*
X145703Y154980D01*
X146153Y155280D01*
X146279Y155350D01*
X146636D01*
X146762Y155280D01*
X147211Y154980D01*
X147757Y154871D01*
X148303Y154980D01*
X148767Y155289D01*
X149076Y155752D01*
X149185Y156298D01*
X149076Y156845D01*
X148767Y157308D01*
X148303Y157617D01*
X148047Y157668D01*
X147727Y157860D01*
X147646Y158213D01*
Y160668D01*
D02*
G37*
G36*
X-7500Y157942D02*
X-8124Y157818D01*
X-8653Y157464D01*
X-9007Y156935D01*
X-9131Y156310D01*
X-9007Y155686D01*
X-8653Y155157D01*
X-8124Y154803D01*
X-7500Y154679D01*
X-6876Y154803D01*
X-6346Y155157D01*
X-5993Y155686D01*
X-5869Y156310D01*
X-5993Y156935D01*
X-6346Y157464D01*
X-6876Y157818D01*
X-7500Y157942D01*
D02*
G37*
G36*
X51785Y157742D02*
X51161Y157618D01*
X50631Y157264D01*
X50278Y156735D01*
X50154Y156111D01*
X50278Y155486D01*
X50631Y154957D01*
X51161Y154603D01*
X51785Y154479D01*
X52409Y154603D01*
X52938Y154957D01*
X53292Y155486D01*
X53416Y156111D01*
X53292Y156735D01*
X52938Y157264D01*
X52409Y157618D01*
X51785Y157742D01*
D02*
G37*
G36*
X42777Y159909D02*
X37291D01*
Y154029D01*
X42777D01*
Y159909D01*
D02*
G37*
G36*
X-2520Y157911D02*
X-3066Y157802D01*
X-3529Y157493D01*
X-3839Y157030D01*
X-3947Y156483D01*
X-3839Y155937D01*
X-3720Y155759D01*
Y154708D01*
X-3839Y154530D01*
X-3947Y153983D01*
X-3839Y153437D01*
X-3529Y152974D01*
X-3066Y152665D01*
X-2520Y152556D01*
X-1974Y152665D01*
X-1511Y152974D01*
X-1201Y153437D01*
X-1093Y153983D01*
X-1201Y154530D01*
X-1320Y154707D01*
Y155760D01*
X-1201Y155937D01*
X-1093Y156483D01*
X-1201Y157030D01*
X-1511Y157493D01*
X-1974Y157802D01*
X-2520Y157911D01*
D02*
G37*
G36*
X303000Y154442D02*
X302376Y154318D01*
X301847Y153964D01*
X301493Y153435D01*
X301369Y152811D01*
X301493Y152186D01*
X301847Y151657D01*
X302376Y151303D01*
X303000Y151179D01*
X303624Y151303D01*
X304153Y151657D01*
X304507Y152186D01*
X304631Y152811D01*
X304507Y153435D01*
X304153Y153964D01*
X303624Y154318D01*
X303000Y154442D01*
D02*
G37*
G36*
X73589Y155936D02*
X73043Y155827D01*
X72580Y155518D01*
X72270Y155055D01*
X72162Y154508D01*
X72270Y153962D01*
X72390Y153783D01*
Y152734D01*
X72270Y152555D01*
X72162Y152008D01*
X72270Y151462D01*
X72580Y150999D01*
X73043Y150690D01*
X73589Y150581D01*
X74135Y150690D01*
X74598Y150999D01*
X74908Y151462D01*
X75016Y152008D01*
X74908Y152555D01*
X74790Y152731D01*
Y153786D01*
X74908Y153962D01*
X75016Y154508D01*
X74908Y155055D01*
X74598Y155518D01*
X74135Y155827D01*
X73589Y155936D01*
D02*
G37*
G36*
X236092Y152227D02*
X235468Y152103D01*
X234939Y151749D01*
X234585Y151220D01*
X234461Y150595D01*
X234585Y149971D01*
X234939Y149442D01*
X235468Y149088D01*
X236092Y148964D01*
X236716Y149088D01*
X237245Y149442D01*
X237599Y149971D01*
X237723Y150595D01*
X237599Y151220D01*
X237245Y151749D01*
X236716Y152103D01*
X236092Y152227D01*
D02*
G37*
G36*
X231592D02*
X230968Y152103D01*
X230438Y151749D01*
X230085Y151220D01*
X229961Y150595D01*
X230085Y149971D01*
X230438Y149442D01*
X230968Y149088D01*
X231592Y148964D01*
X232216Y149088D01*
X232746Y149442D01*
X233099Y149971D01*
X233223Y150595D01*
X233099Y151220D01*
X232746Y151749D01*
X232216Y152103D01*
X231592Y152227D01*
D02*
G37*
G36*
X33934Y153848D02*
X33388Y153739D01*
X32925Y153430D01*
X32615Y152967D01*
X32507Y152420D01*
X32615Y151874D01*
X32734Y151696D01*
Y150645D01*
X32615Y150467D01*
X32507Y149920D01*
X32615Y149374D01*
X32925Y148911D01*
X33388Y148602D01*
X33934Y148493D01*
X34480Y148602D01*
X34943Y148911D01*
X35253Y149374D01*
X35361Y149920D01*
X35253Y150467D01*
X35134Y150644D01*
Y151697D01*
X35253Y151874D01*
X35361Y152420D01*
X35253Y152967D01*
X34943Y153430D01*
X34480Y153739D01*
X33934Y153848D01*
D02*
G37*
G36*
X3809Y153893D02*
X3035Y153739D01*
X2379Y153301D01*
X1940Y152644D01*
X1786Y151870D01*
Y150492D01*
X1940Y149718D01*
X2379Y149062D01*
X3035Y148623D01*
X3809Y148469D01*
X4583Y148623D01*
X5240Y149062D01*
X5678Y149718D01*
X5832Y150492D01*
Y151870D01*
X5678Y152644D01*
X5240Y153301D01*
X4583Y153739D01*
X3809Y153893D01*
D02*
G37*
G36*
X24924Y153686D02*
X24378Y153577D01*
X23915Y153268D01*
X23605Y152805D01*
X23497Y152259D01*
X23605Y151712D01*
X23724Y151534D01*
Y150483D01*
X23605Y150305D01*
X23497Y149759D01*
X23605Y149212D01*
X23915Y148749D01*
X24378Y148440D01*
X24924Y148331D01*
X25470Y148440D01*
X25933Y148749D01*
X26243Y149212D01*
X26351Y149759D01*
X26243Y150305D01*
X26124Y150482D01*
Y151535D01*
X26243Y151712D01*
X26351Y152259D01*
X26243Y152805D01*
X25933Y153268D01*
X25470Y153577D01*
X24924Y153686D01*
D02*
G37*
G36*
X219442Y151500D02*
X218818Y151376D01*
X218288Y151022D01*
X217935Y150493D01*
X217811Y149869D01*
X217935Y149244D01*
X218288Y148715D01*
X218818Y148361D01*
X219442Y148237D01*
X220066Y148361D01*
X220596Y148715D01*
X220949Y149244D01*
X221073Y149869D01*
X220949Y150493D01*
X220596Y151022D01*
X220066Y151376D01*
X219442Y151500D01*
D02*
G37*
G36*
X56855Y149115D02*
X56231Y148991D01*
X55702Y148637D01*
X55348Y148108D01*
X55224Y147484D01*
X55348Y146859D01*
X55702Y146330D01*
X56231Y145976D01*
X56855Y145852D01*
X57479Y145976D01*
X58008Y146330D01*
X58362Y146859D01*
X58486Y147484D01*
X58362Y148108D01*
X58008Y148637D01*
X57479Y148991D01*
X56855Y149115D01*
D02*
G37*
G36*
X76000Y149019D02*
X75376Y148895D01*
X74847Y148541D01*
X74493Y148012D01*
X74369Y147388D01*
X74493Y146763D01*
X74847Y146234D01*
X75376Y145880D01*
X76000Y145756D01*
X76624Y145880D01*
X77153Y146234D01*
X77507Y146763D01*
X77631Y147388D01*
X77507Y148012D01*
X77153Y148541D01*
X76624Y148895D01*
X76000Y149019D01*
D02*
G37*
G36*
X254500Y147442D02*
X253876Y147318D01*
X253346Y146964D01*
X252993Y146435D01*
X252869Y145810D01*
X252993Y145186D01*
X253346Y144657D01*
X253876Y144303D01*
X254500Y144179D01*
X255124Y144303D01*
X255654Y144657D01*
X256007Y145186D01*
X256131Y145810D01*
X256007Y146435D01*
X255654Y146964D01*
X255124Y147318D01*
X254500Y147442D01*
D02*
G37*
G36*
X240000D02*
X239376Y147318D01*
X238846Y146964D01*
X238493Y146435D01*
X238369Y145810D01*
X238493Y145186D01*
X238846Y144657D01*
X239376Y144303D01*
X240000Y144179D01*
X240624Y144303D01*
X241154Y144657D01*
X241507Y145186D01*
X241631Y145810D01*
X241507Y146435D01*
X241154Y146964D01*
X240624Y147318D01*
X240000Y147442D01*
D02*
G37*
G36*
X213508Y147434D02*
X212884Y147310D01*
X212354Y146956D01*
X212001Y146427D01*
X211877Y145802D01*
X212001Y145178D01*
X212354Y144649D01*
X212884Y144295D01*
X213508Y144171D01*
X214132Y144295D01*
X214662Y144649D01*
X215015Y145178D01*
X215139Y145802D01*
X215015Y146427D01*
X214662Y146956D01*
X214132Y147310D01*
X213508Y147434D01*
D02*
G37*
G36*
X26480Y144115D02*
X25856Y143991D01*
X25326Y143637D01*
X25230Y143493D01*
X24730D01*
X24633Y143637D01*
X24104Y143991D01*
X23480Y144115D01*
X22856Y143991D01*
X22327Y143637D01*
X21973Y143108D01*
X21849Y142483D01*
X21973Y141859D01*
X22327Y141330D01*
X22856Y140976D01*
X23480Y140852D01*
X24104Y140976D01*
X24633Y141330D01*
X24730Y141474D01*
X25230D01*
X25326Y141330D01*
X25856Y140976D01*
X26480Y140852D01*
X27104Y140976D01*
X27634Y141330D01*
X27987Y141859D01*
X28111Y142483D01*
X27987Y143108D01*
X27634Y143637D01*
X27104Y143991D01*
X26480Y144115D01*
D02*
G37*
G36*
X72000Y146442D02*
X71376Y146318D01*
X70846Y145964D01*
X70493Y145435D01*
X70369Y144810D01*
X70493Y144186D01*
X70846Y143657D01*
X71376Y143303D01*
X72000Y143179D01*
X72624Y143303D01*
X73154Y143657D01*
X73507Y144186D01*
X73631Y144810D01*
X73507Y145435D01*
X73154Y145964D01*
X72624Y146318D01*
X72000Y146442D01*
D02*
G37*
G36*
X114600Y150042D02*
X113976Y149918D01*
X113446Y149564D01*
X113093Y149035D01*
X112969Y148410D01*
X113093Y147786D01*
X113446Y147257D01*
X113976Y146903D01*
X114415Y146816D01*
X114400Y146342D01*
X113776Y146218D01*
X113247Y145864D01*
X112893Y145335D01*
X112769Y144711D01*
X112893Y144086D01*
X113247Y143557D01*
X113776Y143203D01*
X114400Y143079D01*
X115024Y143203D01*
X115553Y143557D01*
X115907Y144086D01*
X116031Y144711D01*
X115907Y145335D01*
X115553Y145864D01*
X115024Y146218D01*
X114585Y146305D01*
X114600Y146779D01*
X115224Y146903D01*
X115753Y147257D01*
X116107Y147786D01*
X116231Y148410D01*
X116107Y149035D01*
X115753Y149564D01*
X115224Y149918D01*
X114600Y150042D01*
D02*
G37*
G36*
X281000Y145342D02*
X280376Y145218D01*
X279847Y144864D01*
X279493Y144335D01*
X279369Y143710D01*
X279493Y143086D01*
X279847Y142557D01*
X280376Y142203D01*
X281000Y142079D01*
X281624Y142203D01*
X282154Y142557D01*
X282507Y143086D01*
X282631Y143710D01*
X282507Y144335D01*
X282154Y144864D01*
X281624Y145218D01*
X281000Y145342D01*
D02*
G37*
G36*
X213500Y143694D02*
X212876Y143570D01*
X212347Y143216D01*
X211993Y142687D01*
X211869Y142062D01*
X211993Y141438D01*
X212347Y140909D01*
X212876Y140555D01*
X213500Y140431D01*
X214124Y140555D01*
X214653Y140909D01*
X215007Y141438D01*
X215131Y142062D01*
X215007Y142687D01*
X214653Y143216D01*
X214124Y143570D01*
X213500Y143694D01*
D02*
G37*
G36*
X239980Y142867D02*
X239356Y142743D01*
X238826Y142389D01*
X238473Y141860D01*
X238349Y141235D01*
X238473Y140611D01*
X238826Y140082D01*
X239356Y139728D01*
X239980Y139604D01*
X240604Y139728D01*
X241133Y140082D01*
X241487Y140611D01*
X241611Y141235D01*
X241487Y141860D01*
X241133Y142389D01*
X240604Y142743D01*
X239980Y142867D01*
D02*
G37*
G36*
X250500Y140900D02*
X249876Y140776D01*
X249346Y140422D01*
X248993Y139893D01*
X248869Y139269D01*
X248993Y138644D01*
X249346Y138115D01*
X249876Y137761D01*
X250500Y137637D01*
X251124Y137761D01*
X251654Y138115D01*
X252007Y138644D01*
X252131Y139269D01*
X252007Y139893D01*
X251654Y140422D01*
X251124Y140776D01*
X250500Y140900D01*
D02*
G37*
G36*
X281000Y139442D02*
X280376Y139318D01*
X279847Y138964D01*
X279493Y138435D01*
X279369Y137811D01*
X279493Y137186D01*
X279847Y136657D01*
X280376Y136303D01*
X281000Y136179D01*
X281624Y136303D01*
X282154Y136657D01*
X282507Y137186D01*
X282631Y137811D01*
X282507Y138435D01*
X282154Y138964D01*
X281624Y139318D01*
X281000Y139442D01*
D02*
G37*
G36*
X84921Y142521D02*
X84297Y142397D01*
X83767Y142043D01*
X83414Y141514D01*
X83290Y140890D01*
X83414Y140265D01*
X83767Y139736D01*
X84297Y139382D01*
X84474Y139347D01*
Y138837D01*
X84376Y138818D01*
X83846Y138464D01*
X83493Y137935D01*
X83369Y137311D01*
X83493Y136686D01*
X83846Y136157D01*
X84376Y135803D01*
X85000Y135679D01*
X85624Y135803D01*
X86154Y136157D01*
X86507Y136686D01*
X86631Y137311D01*
X86507Y137935D01*
X86154Y138464D01*
X85624Y138818D01*
X85447Y138853D01*
Y139363D01*
X85545Y139382D01*
X86075Y139736D01*
X86428Y140265D01*
X86552Y140890D01*
X86428Y141514D01*
X86075Y142043D01*
X85545Y142397D01*
X84921Y142521D01*
D02*
G37*
G36*
X232480Y137615D02*
X231856Y137491D01*
X231327Y137137D01*
X230973Y136608D01*
X230849Y135984D01*
X230973Y135359D01*
X231327Y134830D01*
X231856Y134476D01*
X232480Y134352D01*
X233104Y134476D01*
X233633Y134830D01*
X233987Y135359D01*
X234111Y135984D01*
X233987Y136608D01*
X233633Y137137D01*
X233104Y137491D01*
X232480Y137615D01*
D02*
G37*
G36*
X44500Y136442D02*
X43876Y136318D01*
X43347Y135964D01*
X42993Y135435D01*
X42869Y134810D01*
X42993Y134186D01*
X43347Y133657D01*
X43876Y133303D01*
X44500Y133179D01*
X45124Y133303D01*
X45654Y133657D01*
X46007Y134186D01*
X46131Y134810D01*
X46007Y135435D01*
X45654Y135964D01*
X45124Y136318D01*
X44500Y136442D01*
D02*
G37*
G36*
X8809Y137767D02*
X8034Y137665D01*
X7312Y137366D01*
X6692Y136890D01*
X6216Y136270D01*
X5917Y135548D01*
X5815Y134773D01*
X5917Y133998D01*
X6216Y133276D01*
X6692Y132656D01*
X7312Y132180D01*
X8034Y131881D01*
X8809Y131779D01*
X9584Y131881D01*
X10306Y132180D01*
X10926Y132656D01*
X11402Y133276D01*
X11701Y133998D01*
X11803Y134773D01*
X11701Y135548D01*
X11402Y136270D01*
X10926Y136890D01*
X10306Y137366D01*
X9584Y137665D01*
X8809Y137767D01*
D02*
G37*
G36*
X69500Y132442D02*
X68876Y132318D01*
X68347Y131964D01*
X68011Y131463D01*
X67798Y131435D01*
X67702D01*
X67489Y131463D01*
X67154Y131964D01*
X66624Y132318D01*
X66000Y132442D01*
X65376Y132318D01*
X64846Y131964D01*
X64493Y131435D01*
X64369Y130810D01*
X64493Y130186D01*
X64846Y129657D01*
X64991Y129560D01*
Y129060D01*
X64846Y128964D01*
X64493Y128435D01*
X64369Y127811D01*
X64493Y127186D01*
X64846Y126657D01*
X65376Y126303D01*
X66000Y126179D01*
X66624Y126303D01*
X67154Y126657D01*
X67489Y127158D01*
X67702Y127186D01*
X67798D01*
X68011Y127158D01*
X68347Y126657D01*
X68876Y126303D01*
X69500Y126179D01*
X70124Y126303D01*
X70653Y126657D01*
X71007Y127186D01*
X71131Y127811D01*
X71007Y128435D01*
X70653Y128964D01*
X70509Y129060D01*
Y129560D01*
X70653Y129657D01*
X71007Y130186D01*
X71131Y130810D01*
X71007Y131435D01*
X70653Y131964D01*
X70124Y132318D01*
X69500Y132442D01*
D02*
G37*
G36*
X48000Y132632D02*
X47376Y132508D01*
X46847Y132154D01*
X46493Y131625D01*
X46369Y131000D01*
X46493Y130376D01*
X46847Y129847D01*
X47376Y129493D01*
X48000Y129369D01*
X48624Y129493D01*
X49154Y129847D01*
X49507Y130376D01*
X49631Y131000D01*
X49507Y131625D01*
X49154Y132154D01*
X48624Y132508D01*
X48000Y132632D01*
D02*
G37*
G36*
X84500Y134942D02*
X83876Y134818D01*
X83346Y134464D01*
X82993Y133935D01*
X82869Y133310D01*
X82993Y132686D01*
X83346Y132157D01*
X83848Y131822D01*
X83876Y131608D01*
Y131513D01*
X83848Y131299D01*
X83346Y130964D01*
X82993Y130435D01*
X82869Y129811D01*
X82993Y129186D01*
X83346Y128657D01*
X83876Y128303D01*
X84500Y128179D01*
X85124Y128303D01*
X85654Y128657D01*
X86007Y129186D01*
X86131Y129811D01*
X86007Y130435D01*
X85654Y130964D01*
X85152Y131299D01*
X85124Y131513D01*
Y131608D01*
X85152Y131822D01*
X85654Y132157D01*
X86007Y132686D01*
X86131Y133310D01*
X86007Y133935D01*
X85654Y134464D01*
X85124Y134818D01*
X84500Y134942D01*
D02*
G37*
G36*
X313366Y138503D02*
X312022Y138326D01*
X310770Y137807D01*
X309695Y136982D01*
X308870Y135907D01*
X308351Y134655D01*
X308174Y133311D01*
X308351Y131967D01*
X308870Y130715D01*
X309695Y129640D01*
X310770Y128815D01*
X312022Y128296D01*
X313366Y128119D01*
X314710Y128296D01*
X315962Y128815D01*
X317037Y129640D01*
X317862Y130715D01*
X318381Y131967D01*
X318558Y133311D01*
X318381Y134655D01*
X317862Y135907D01*
X317037Y136982D01*
X315962Y137807D01*
X314710Y138326D01*
X313366Y138503D01*
D02*
G37*
G36*
X217000Y130942D02*
X216376Y130818D01*
X215846Y130464D01*
X215493Y129935D01*
X215369Y129311D01*
X215493Y128686D01*
X215846Y128157D01*
X216376Y127803D01*
X217000Y127679D01*
X217624Y127803D01*
X218154Y128157D01*
X218507Y128686D01*
X218631Y129311D01*
X218507Y129935D01*
X218154Y130464D01*
X217624Y130818D01*
X217000Y130942D01*
D02*
G37*
G36*
X283800Y126542D02*
X283176Y126418D01*
X282646Y126064D01*
X282567Y125944D01*
X282067D01*
X282053Y125964D01*
X281524Y126318D01*
X280900Y126442D01*
X280276Y126318D01*
X279747Y125964D01*
X279393Y125435D01*
X279269Y124811D01*
X279393Y124186D01*
X279747Y123657D01*
X280276Y123303D01*
X280900Y123179D01*
X281524Y123303D01*
X282053Y123657D01*
X282133Y123776D01*
X282633D01*
X282646Y123757D01*
X283176Y123403D01*
X283800Y123279D01*
X284424Y123403D01*
X284953Y123757D01*
X285307Y124286D01*
X285431Y124910D01*
X285307Y125535D01*
X284953Y126064D01*
X284424Y126418D01*
X283800Y126542D01*
D02*
G37*
G36*
X99500Y126443D02*
X98876Y126319D01*
X98347Y125965D01*
X98011Y125464D01*
X97798Y125436D01*
X97702D01*
X97489Y125464D01*
X97154Y125965D01*
X96624Y126319D01*
X96000Y126443D01*
X95376Y126319D01*
X94846Y125965D01*
X94493Y125436D01*
X94369Y124811D01*
X94493Y124187D01*
X94846Y123658D01*
X95376Y123304D01*
X96000Y123180D01*
X96624Y123304D01*
X97154Y123658D01*
X97489Y124159D01*
X97702Y124187D01*
X97798D01*
X98011Y124159D01*
X98347Y123658D01*
X98876Y123304D01*
X99500Y123180D01*
X100124Y123304D01*
X100654Y123658D01*
X101007Y124187D01*
X101131Y124811D01*
X101007Y125436D01*
X100654Y125965D01*
X100124Y126319D01*
X99500Y126443D01*
D02*
G37*
G36*
X276450Y126492D02*
X275826Y126368D01*
X275296Y126014D01*
X274943Y125485D01*
X274819Y124861D01*
X274943Y124236D01*
X275296Y123707D01*
X275826Y123353D01*
X276450Y123229D01*
X277074Y123353D01*
X277604Y123707D01*
X277957Y124236D01*
X278081Y124861D01*
X277957Y125485D01*
X277604Y126014D01*
X277074Y126368D01*
X276450Y126492D01*
D02*
G37*
G36*
X172500Y125942D02*
X171876Y125818D01*
X171346Y125464D01*
X170993Y124935D01*
X170869Y124311D01*
X170993Y123686D01*
X171346Y123157D01*
X171876Y122803D01*
X172500Y122679D01*
X173124Y122803D01*
X173653Y123157D01*
X174007Y123686D01*
X174131Y124311D01*
X174007Y124935D01*
X173653Y125464D01*
X173124Y125818D01*
X172500Y125942D01*
D02*
G37*
G36*
X168000D02*
X167376Y125818D01*
X166847Y125464D01*
X166493Y124935D01*
X166369Y124311D01*
X166493Y123686D01*
X166847Y123157D01*
X167376Y122803D01*
X168000Y122679D01*
X168624Y122803D01*
X169153Y123157D01*
X169507Y123686D01*
X169631Y124311D01*
X169507Y124935D01*
X169153Y125464D01*
X168624Y125818D01*
X168000Y125942D01*
D02*
G37*
G36*
X99500Y122443D02*
X98876Y122319D01*
X98347Y121965D01*
X98011Y121464D01*
X97798Y121436D01*
X97702D01*
X97489Y121464D01*
X97154Y121965D01*
X96624Y122319D01*
X96000Y122443D01*
X95376Y122319D01*
X94846Y121965D01*
X94493Y121436D01*
X94369Y120811D01*
X94493Y120187D01*
X94846Y119658D01*
X95376Y119304D01*
X95693Y119241D01*
X95818Y119216D01*
Y118707D01*
X95693Y118682D01*
X95376Y118619D01*
X94846Y118265D01*
X94493Y117736D01*
X94369Y117112D01*
X94493Y116487D01*
X94846Y115958D01*
X95376Y115604D01*
X96000Y115480D01*
X96624Y115604D01*
X97154Y115958D01*
X97489Y116459D01*
X97702Y116487D01*
X97798D01*
X98011Y116459D01*
X98347Y115958D01*
X98876Y115604D01*
X99500Y115480D01*
X100124Y115604D01*
X100654Y115958D01*
X101007Y116487D01*
X101131Y117112D01*
X101007Y117736D01*
X100654Y118265D01*
X100124Y118619D01*
X99807Y118682D01*
X99682Y118707D01*
Y119216D01*
X99807Y119241D01*
X100124Y119304D01*
X100654Y119658D01*
X101007Y120187D01*
X101131Y120811D01*
X101007Y121436D01*
X100654Y121965D01*
X100124Y122319D01*
X99500Y122443D01*
D02*
G37*
G36*
X59000Y123942D02*
X58376Y123818D01*
X57846Y123464D01*
X57493Y122935D01*
X57369Y122310D01*
X57493Y121686D01*
X57846Y121157D01*
X58376Y120803D01*
X59000Y120679D01*
X59624Y120803D01*
X60154Y121157D01*
X60507Y121686D01*
X60631Y122310D01*
X60507Y122935D01*
X60154Y123464D01*
X59624Y123818D01*
X59000Y123942D01*
D02*
G37*
G36*
X172500Y121942D02*
X171876Y121818D01*
X171346Y121464D01*
X170993Y120935D01*
X170869Y120310D01*
X170993Y119686D01*
X171346Y119157D01*
X171876Y118803D01*
X172500Y118679D01*
X173124Y118803D01*
X173653Y119157D01*
X174007Y119686D01*
X174131Y120310D01*
X174007Y120935D01*
X173653Y121464D01*
X173124Y121818D01*
X172500Y121942D01*
D02*
G37*
G36*
X168000D02*
X167376Y121818D01*
X166847Y121464D01*
X166493Y120935D01*
X166369Y120310D01*
X166493Y119686D01*
X166847Y119157D01*
X167376Y118803D01*
X168000Y118679D01*
X168624Y118803D01*
X169153Y119157D01*
X169507Y119686D01*
X169631Y120310D01*
X169507Y120935D01*
X169153Y121464D01*
X168624Y121818D01*
X168000Y121942D01*
D02*
G37*
G36*
X141500Y121632D02*
X140876Y121508D01*
X140347Y121154D01*
X139993Y120625D01*
X139869Y120001D01*
X139993Y119376D01*
X140347Y118847D01*
X140876Y118493D01*
X141500Y118369D01*
X142124Y118493D01*
X142654Y118847D01*
X143007Y119376D01*
X143131Y120001D01*
X143007Y120625D01*
X142654Y121154D01*
X142124Y121508D01*
X141500Y121632D01*
D02*
G37*
G36*
X225959Y123272D02*
X225134Y123164D01*
X224366Y122845D01*
X223706Y122339D01*
X223200Y121679D01*
X222881Y120911D01*
X222773Y120086D01*
X222881Y119261D01*
X223200Y118493D01*
X223706Y117833D01*
X224366Y117327D01*
X225134Y117008D01*
X225959Y116900D01*
X226784Y117008D01*
X227552Y117327D01*
X228212Y117833D01*
X228718Y118493D01*
X229037Y119261D01*
X229145Y120086D01*
X229037Y120911D01*
X228718Y121679D01*
X228212Y122339D01*
X227552Y122845D01*
X226784Y123164D01*
X225959Y123272D01*
D02*
G37*
G36*
X218085D02*
X217260Y123164D01*
X216492Y122845D01*
X215832Y122339D01*
X215326Y121679D01*
X215007Y120911D01*
X214899Y120086D01*
X215007Y119261D01*
X215326Y118493D01*
X215832Y117833D01*
X216492Y117327D01*
X217260Y117008D01*
X218085Y116900D01*
X218910Y117008D01*
X219678Y117327D01*
X220338Y117833D01*
X220844Y118493D01*
X221163Y119261D01*
X221271Y120086D01*
X221163Y120911D01*
X220844Y121679D01*
X220338Y122339D01*
X219678Y122845D01*
X218910Y123164D01*
X218085Y123272D01*
D02*
G37*
G36*
X84000Y115943D02*
X83376Y115819D01*
X82846Y115465D01*
X82511Y114964D01*
X82298Y114936D01*
X82202D01*
X81989Y114964D01*
X81653Y115465D01*
X81124Y115819D01*
X80500Y115943D01*
X79876Y115819D01*
X79347Y115465D01*
X78993Y114936D01*
X78869Y114312D01*
X78993Y113687D01*
X79347Y113158D01*
X79848Y112823D01*
X79876Y112609D01*
Y112514D01*
X79848Y112300D01*
X79347Y111965D01*
X78993Y111436D01*
X78869Y110811D01*
X78993Y110187D01*
X79347Y109658D01*
X79876Y109304D01*
X80500Y109180D01*
X81124Y109304D01*
X81653Y109658D01*
X81989Y110159D01*
X82202Y110187D01*
X82298D01*
X82511Y110159D01*
X82846Y109658D01*
X83249Y109389D01*
X83277Y109283D01*
Y108940D01*
X83249Y108834D01*
X82846Y108565D01*
X82493Y108036D01*
X82369Y107412D01*
X82493Y106787D01*
X82846Y106258D01*
X83376Y105904D01*
X84000Y105780D01*
X84624Y105904D01*
X85154Y106258D01*
X85507Y106787D01*
X85631Y107412D01*
X85507Y108036D01*
X85154Y108565D01*
X84751Y108834D01*
X84723Y108940D01*
Y109283D01*
X84751Y109389D01*
X85154Y109658D01*
X85507Y110187D01*
X85631Y110811D01*
X85507Y111436D01*
X85154Y111965D01*
X84652Y112300D01*
X84624Y112514D01*
Y112609D01*
X84652Y112823D01*
X85154Y113158D01*
X85507Y113687D01*
X85631Y114312D01*
X85507Y114936D01*
X85154Y115465D01*
X84624Y115819D01*
X84000Y115943D01*
D02*
G37*
G36*
X292600Y117943D02*
X291976Y117819D01*
X291446Y117465D01*
X291093Y116936D01*
X290969Y116312D01*
X291093Y115687D01*
X291446Y115158D01*
X291976Y114804D01*
X292600Y114680D01*
X293224Y114804D01*
X293754Y115158D01*
X294107Y115687D01*
X294231Y116312D01*
X294107Y116936D01*
X293754Y117465D01*
X293224Y117819D01*
X292600Y117943D01*
D02*
G37*
G36*
X285750D02*
X285126Y117819D01*
X284596Y117465D01*
X284243Y116936D01*
X284119Y116312D01*
X284243Y115687D01*
X284596Y115158D01*
X285126Y114804D01*
X285750Y114680D01*
X286374Y114804D01*
X286904Y115158D01*
X287257Y115687D01*
X287381Y116312D01*
X287257Y116936D01*
X286904Y117465D01*
X286374Y117819D01*
X285750Y117943D01*
D02*
G37*
G36*
X281500Y115943D02*
X280876Y115819D01*
X280346Y115465D01*
X279993Y114936D01*
X279869Y114312D01*
X279961Y113846D01*
X279914Y113553D01*
X279711Y113209D01*
X279346Y112965D01*
X279250Y112821D01*
X278750D01*
X278654Y112965D01*
X278124Y113319D01*
X277500Y113443D01*
X276876Y113319D01*
X276346Y112965D01*
X275993Y112436D01*
X275869Y111811D01*
X275993Y111187D01*
X276346Y110658D01*
X276876Y110304D01*
X277500Y110180D01*
X278124Y110304D01*
X278654Y110658D01*
X278750Y110802D01*
X279250D01*
X279346Y110658D01*
X279876Y110304D01*
X280500Y110180D01*
X281124Y110304D01*
X281653Y110658D01*
X282007Y111187D01*
X282131Y111811D01*
X282039Y112277D01*
X282086Y112570D01*
X282289Y112914D01*
X282653Y113158D01*
X283007Y113687D01*
X283131Y114312D01*
X283007Y114936D01*
X282653Y115465D01*
X282124Y115819D01*
X281500Y115943D01*
D02*
G37*
G36*
X20000Y116943D02*
X19376Y116819D01*
X18846Y116465D01*
X18493Y115936D01*
X18369Y115312D01*
X18493Y114687D01*
X18846Y114158D01*
X19348Y113823D01*
X19376Y113609D01*
Y113514D01*
X19348Y113300D01*
X18846Y112965D01*
X18493Y112436D01*
X18369Y111811D01*
X18493Y111187D01*
X18846Y110658D01*
X19376Y110304D01*
X20000Y110180D01*
X20624Y110304D01*
X21154Y110658D01*
X21507Y111187D01*
X21631Y111811D01*
X21507Y112436D01*
X21154Y112965D01*
X20652Y113300D01*
X20624Y113514D01*
Y113609D01*
X20652Y113823D01*
X21154Y114158D01*
X21507Y114687D01*
X21631Y115312D01*
X21507Y115936D01*
X21154Y116465D01*
X20624Y116819D01*
X20000Y116943D01*
D02*
G37*
G36*
X152500Y112943D02*
X151876Y112819D01*
X151347Y112465D01*
X150993Y111936D01*
X150869Y111311D01*
X150993Y110687D01*
X151347Y110158D01*
X151876Y109804D01*
X152500Y109680D01*
X153124Y109804D01*
X153654Y110158D01*
X154007Y110687D01*
X154131Y111311D01*
X154007Y111936D01*
X153654Y112465D01*
X153124Y112819D01*
X152500Y112943D01*
D02*
G37*
G36*
X263500Y110443D02*
X262876Y110319D01*
X262347Y109965D01*
X262011Y109464D01*
X261798Y109436D01*
X261702D01*
X261489Y109464D01*
X261154Y109965D01*
X260624Y110319D01*
X260000Y110443D01*
X259376Y110319D01*
X258846Y109965D01*
X258493Y109436D01*
X258369Y108811D01*
X258493Y108187D01*
X258846Y107658D01*
X259376Y107304D01*
X260000Y107180D01*
X260624Y107304D01*
X261154Y107658D01*
X261489Y108159D01*
X261702Y108187D01*
X261798D01*
X262011Y108159D01*
X262347Y107658D01*
X262876Y107304D01*
X263500Y107180D01*
X264124Y107304D01*
X264653Y107658D01*
X265007Y108187D01*
X265131Y108811D01*
X265007Y109436D01*
X264653Y109965D01*
X264124Y110319D01*
X263500Y110443D01*
D02*
G37*
G36*
X143500Y111632D02*
X142876Y111508D01*
X142347Y111154D01*
X141993Y110625D01*
X141869Y110001D01*
X141993Y109376D01*
X142347Y108847D01*
X142876Y108493D01*
X143500Y108369D01*
X144124Y108493D01*
X144653Y108847D01*
X145007Y109376D01*
X145131Y110001D01*
X145007Y110625D01*
X144653Y111154D01*
X144124Y111508D01*
X143500Y111632D01*
D02*
G37*
G36*
X235700Y111232D02*
X235076Y111108D01*
X234546Y110754D01*
X234193Y110225D01*
X234069Y109600D01*
X234193Y108976D01*
X234546Y108447D01*
X235076Y108093D01*
X235700Y107969D01*
X236324Y108093D01*
X236854Y108447D01*
X237207Y108976D01*
X237331Y109600D01*
X237207Y110225D01*
X236854Y110754D01*
X236324Y111108D01*
X235700Y111232D01*
D02*
G37*
G36*
X225959Y113431D02*
X225134Y113323D01*
X224366Y113004D01*
X223706Y112498D01*
X223200Y111838D01*
X222881Y111070D01*
X222773Y110245D01*
X222881Y109420D01*
X223200Y108652D01*
X223706Y107992D01*
X224366Y107486D01*
X225134Y107167D01*
X225959Y107059D01*
X226784Y107167D01*
X227552Y107486D01*
X228212Y107992D01*
X228718Y108652D01*
X229037Y109420D01*
X229145Y110245D01*
X229037Y111070D01*
X228718Y111838D01*
X228212Y112498D01*
X227552Y113004D01*
X226784Y113323D01*
X225959Y113431D01*
D02*
G37*
G36*
X218085D02*
X217260Y113323D01*
X216492Y113004D01*
X215832Y112498D01*
X215326Y111838D01*
X215007Y111070D01*
X214899Y110245D01*
X215007Y109420D01*
X215326Y108652D01*
X215832Y107992D01*
X216492Y107486D01*
X217260Y107167D01*
X218085Y107059D01*
X218910Y107167D01*
X219678Y107486D01*
X220338Y107992D01*
X220844Y108652D01*
X221163Y109420D01*
X221271Y110245D01*
X221163Y111070D01*
X220844Y111838D01*
X220338Y112498D01*
X219678Y113004D01*
X218910Y113323D01*
X218085Y113431D01*
D02*
G37*
G36*
X287000Y109943D02*
X286376Y109819D01*
X285846Y109465D01*
X285493Y108936D01*
X285369Y108311D01*
X285493Y107687D01*
X285846Y107158D01*
X286376Y106804D01*
X287000Y106680D01*
X287624Y106804D01*
X288154Y107158D01*
X288507Y107687D01*
X288631Y108311D01*
X288507Y108936D01*
X288154Y109465D01*
X287624Y109819D01*
X287000Y109943D01*
D02*
G37*
G36*
X278039Y109738D02*
X277415Y109614D01*
X276886Y109260D01*
X276532Y108731D01*
X276408Y108107D01*
X276532Y107482D01*
X276886Y106953D01*
X277415Y106599D01*
X278039Y106475D01*
X278663Y106599D01*
X279192Y106953D01*
X279546Y107482D01*
X279670Y108107D01*
X279546Y108731D01*
X279192Y109260D01*
X278663Y109614D01*
X278039Y109738D01*
D02*
G37*
G36*
X93500Y108943D02*
X92876Y108819D01*
X92347Y108465D01*
X91993Y107936D01*
X91869Y107311D01*
X91993Y106687D01*
X92347Y106158D01*
X92876Y105804D01*
X93500Y105680D01*
X94124Y105804D01*
X94653Y106158D01*
X95007Y106687D01*
X95131Y107311D01*
X95007Y107936D01*
X94653Y108465D01*
X94124Y108819D01*
X93500Y108943D01*
D02*
G37*
G36*
X61729Y108443D02*
X61105Y108319D01*
X60575Y107965D01*
X60222Y107436D01*
X60098Y106811D01*
X60222Y106187D01*
X60575Y105658D01*
X61105Y105304D01*
X61729Y105180D01*
X62353Y105304D01*
X62883Y105658D01*
X63236Y106187D01*
X63360Y106811D01*
X63236Y107436D01*
X62883Y107965D01*
X62353Y108319D01*
X61729Y108443D01*
D02*
G37*
G36*
X148000Y111443D02*
X147376Y111319D01*
X146846Y110965D01*
X146493Y110436D01*
X146369Y109811D01*
X146493Y109187D01*
X146846Y108658D01*
X147376Y108304D01*
X147663Y108247D01*
X147733Y107723D01*
X147346Y107465D01*
X146993Y106936D01*
X146869Y106312D01*
X146993Y105687D01*
X147346Y105158D01*
X147876Y104804D01*
X148500Y104680D01*
X149124Y104804D01*
X149653Y105158D01*
X150007Y105687D01*
X150131Y106312D01*
X150007Y106936D01*
X149653Y107465D01*
X149124Y107819D01*
X148837Y107876D01*
X148767Y108400D01*
X149153Y108658D01*
X149507Y109187D01*
X149631Y109811D01*
X149507Y110436D01*
X149153Y110965D01*
X148624Y111319D01*
X148000Y111443D01*
D02*
G37*
G36*
X274100Y106056D02*
X273476Y105932D01*
X272947Y105578D01*
X272593Y105049D01*
X272469Y104425D01*
X271993Y104403D01*
X271907Y104836D01*
X271553Y105365D01*
X271024Y105719D01*
X270400Y105843D01*
X269776Y105719D01*
X269247Y105365D01*
X268893Y104836D01*
X268769Y104211D01*
X268893Y103587D01*
X269247Y103058D01*
X269776Y102704D01*
X270400Y102580D01*
X271024Y102704D01*
X271553Y103058D01*
X271907Y103587D01*
X272031Y104211D01*
X272507Y104233D01*
X272593Y103800D01*
X272947Y103271D01*
X273476Y102917D01*
X274100Y102793D01*
X274724Y102917D01*
X275254Y103271D01*
X275607Y103800D01*
X275731Y104425D01*
X275607Y105049D01*
X275254Y105578D01*
X274724Y105932D01*
X274100Y106056D01*
D02*
G37*
G36*
X142500Y107632D02*
X141876Y107508D01*
X141347Y107154D01*
X140993Y106625D01*
X140869Y106000D01*
X140993Y105376D01*
X141347Y104847D01*
X141876Y104493D01*
X142500Y104369D01*
X143124Y104493D01*
X143654Y104847D01*
X144007Y105376D01*
X144131Y106000D01*
X144007Y106625D01*
X143654Y107154D01*
X143124Y107508D01*
X142500Y107632D01*
D02*
G37*
G36*
X256000Y106056D02*
X255376Y105932D01*
X254847Y105578D01*
X254493Y105049D01*
X254369Y104425D01*
X254493Y103800D01*
X254847Y103271D01*
X255376Y102917D01*
X256000Y102793D01*
X256624Y102917D01*
X257154Y103271D01*
X257245Y103408D01*
X257846D01*
X257946Y103258D01*
X258476Y102904D01*
X259100Y102780D01*
X259724Y102904D01*
X260254Y103258D01*
X260607Y103787D01*
X260731Y104411D01*
X260607Y105036D01*
X260254Y105565D01*
X259724Y105919D01*
X259100Y106043D01*
X258476Y105919D01*
X257946Y105565D01*
X257855Y105428D01*
X257254D01*
X257154Y105578D01*
X256624Y105932D01*
X256000Y106056D01*
D02*
G37*
G36*
X96000Y105943D02*
X95376Y105819D01*
X94846Y105465D01*
X94493Y104936D01*
X94369Y104312D01*
X94493Y103687D01*
X94846Y103158D01*
X95376Y102804D01*
X96000Y102680D01*
X96624Y102804D01*
X97154Y103158D01*
X97507Y103687D01*
X97631Y104312D01*
X97507Y104936D01*
X97154Y105465D01*
X96624Y105819D01*
X96000Y105943D01*
D02*
G37*
G36*
X70042Y105554D02*
X69418Y105430D01*
X68888Y105076D01*
X68535Y104547D01*
X68411Y103922D01*
X68535Y103298D01*
X68888Y102769D01*
X69418Y102415D01*
X70042Y102291D01*
X70666Y102415D01*
X71196Y102769D01*
X71549Y103298D01*
X71673Y103922D01*
X71549Y104547D01*
X71196Y105076D01*
X70666Y105430D01*
X70042Y105554D01*
D02*
G37*
G36*
X238500Y107632D02*
X237876Y107508D01*
X237347Y107154D01*
X236993Y106625D01*
X236869Y106000D01*
X236993Y105376D01*
X237347Y104847D01*
X237477Y104760D01*
Y104323D01*
X237402Y104209D01*
X237048Y103680D01*
X236924Y103056D01*
X237048Y102431D01*
X237402Y101902D01*
X237931Y101549D01*
X238555Y101425D01*
X239180Y101549D01*
X239709Y101902D01*
X240062Y102431D01*
X240187Y103056D01*
X240062Y103680D01*
X239709Y104209D01*
X239578Y104297D01*
Y104734D01*
X239654Y104847D01*
X240007Y105376D01*
X240131Y106000D01*
X240007Y106625D01*
X239653Y107154D01*
X239124Y107508D01*
X238500Y107632D01*
D02*
G37*
G36*
X280800Y103943D02*
X280176Y103819D01*
X279646Y103465D01*
X279293Y102936D01*
X279169Y102312D01*
X279293Y101687D01*
X279646Y101158D01*
X280176Y100804D01*
X280800Y100680D01*
X281424Y100804D01*
X281954Y101158D01*
X282307Y101687D01*
X282431Y102312D01*
X282307Y102936D01*
X281954Y103465D01*
X281424Y103819D01*
X280800Y103943D01*
D02*
G37*
G36*
X293000Y103443D02*
X292376Y103319D01*
X291846Y102965D01*
X291493Y102436D01*
X291369Y101812D01*
X291493Y101187D01*
X291846Y100658D01*
X292376Y100304D01*
X293000Y100180D01*
X293624Y100304D01*
X294153Y100658D01*
X294507Y101187D01*
X294631Y101812D01*
X294507Y102436D01*
X294153Y102965D01*
X293624Y103319D01*
X293000Y103443D01*
D02*
G37*
G36*
X247150Y103393D02*
X246526Y103269D01*
X245996Y102915D01*
X245643Y102386D01*
X245519Y101761D01*
X245643Y101137D01*
X245996Y100608D01*
X246526Y100254D01*
X247150Y100130D01*
X247774Y100254D01*
X248304Y100608D01*
X248657Y101137D01*
X248781Y101761D01*
X248657Y102386D01*
X248304Y102915D01*
X247774Y103269D01*
X247150Y103393D01*
D02*
G37*
G36*
X191600Y107232D02*
X190976Y107108D01*
X190446Y106754D01*
X190093Y106225D01*
X189969Y105601D01*
X189700Y105332D01*
X189076Y105208D01*
X188547Y104854D01*
X188193Y104325D01*
X188124Y103977D01*
X187800Y103532D01*
X187176Y103408D01*
X186646Y103054D01*
X186293Y102525D01*
X186169Y101900D01*
X186293Y101276D01*
X186646Y100747D01*
X187176Y100393D01*
X187800Y100269D01*
X188424Y100393D01*
X189041Y100204D01*
X189146Y100047D01*
X189676Y99693D01*
X190300Y99569D01*
X190924Y99693D01*
X191454Y100047D01*
X191807Y100576D01*
X191931Y101200D01*
X191807Y101825D01*
X191454Y102354D01*
X190950Y102691D01*
X191207Y103076D01*
X191331Y103700D01*
X191600Y103969D01*
X192224Y104093D01*
X192754Y104447D01*
X193107Y104976D01*
X193231Y105601D01*
X193107Y106225D01*
X192754Y106754D01*
X192224Y107108D01*
X191600Y107232D01*
D02*
G37*
G36*
X40000Y101443D02*
X39376Y101319D01*
X38846Y100965D01*
X38493Y100436D01*
X38369Y99812D01*
X38493Y99187D01*
X38846Y98658D01*
X39376Y98304D01*
X40000Y98180D01*
X40624Y98304D01*
X41153Y98658D01*
X41507Y99187D01*
X41631Y99812D01*
X41507Y100436D01*
X41153Y100965D01*
X40624Y101319D01*
X40000Y101443D01*
D02*
G37*
G36*
X31000D02*
X30376Y101319D01*
X29847Y100965D01*
X29493Y100436D01*
X29369Y99812D01*
X29493Y99187D01*
X29847Y98658D01*
X30376Y98304D01*
X31000Y98180D01*
X31624Y98304D01*
X32153Y98658D01*
X32507Y99187D01*
X32631Y99812D01*
X32507Y100436D01*
X32153Y100965D01*
X31624Y101319D01*
X31000Y101443D01*
D02*
G37*
G36*
X225959Y103588D02*
X225134Y103480D01*
X224366Y103161D01*
X223706Y102655D01*
X223200Y101995D01*
X222881Y101227D01*
X222773Y100402D01*
X222881Y99577D01*
X223200Y98809D01*
X223706Y98149D01*
X224366Y97643D01*
X225134Y97324D01*
X225959Y97216D01*
X226784Y97324D01*
X227552Y97643D01*
X228212Y98149D01*
X228718Y98809D01*
X229037Y99577D01*
X229145Y100402D01*
X229037Y101227D01*
X228718Y101995D01*
X228212Y102655D01*
X227552Y103161D01*
X226784Y103480D01*
X225959Y103588D01*
D02*
G37*
G36*
X218085D02*
X217260Y103480D01*
X216492Y103161D01*
X215832Y102655D01*
X215326Y101995D01*
X215007Y101227D01*
X214899Y100402D01*
X215007Y99577D01*
X215326Y98809D01*
X215832Y98149D01*
X216492Y97643D01*
X217260Y97324D01*
X218085Y97216D01*
X218910Y97324D01*
X219678Y97643D01*
X220338Y98149D01*
X220844Y98809D01*
X221163Y99577D01*
X221271Y100402D01*
X221163Y101227D01*
X220844Y101995D01*
X220338Y102655D01*
X219678Y103161D01*
X218910Y103480D01*
X218085Y103588D01*
D02*
G37*
G36*
X273566Y100313D02*
X272942Y100189D01*
X272412Y99835D01*
X272059Y99306D01*
X271935Y98681D01*
X272059Y98057D01*
X272412Y97528D01*
X272942Y97174D01*
X273566Y97050D01*
X274190Y97174D01*
X274720Y97528D01*
X275073Y98057D01*
X275197Y98681D01*
X275073Y99306D01*
X274720Y99835D01*
X274190Y100189D01*
X273566Y100313D01*
D02*
G37*
G36*
X305985Y101034D02*
X305088Y100856D01*
X304327Y100347D01*
X303819Y99586D01*
X303641Y98689D01*
X303819Y97791D01*
X304327Y97031D01*
X305088Y96522D01*
X305985Y96344D01*
X306883Y96522D01*
X307644Y97031D01*
X308152Y97791D01*
X308331Y98689D01*
X308152Y99586D01*
X307644Y100347D01*
X306883Y100856D01*
X305985Y101034D01*
D02*
G37*
G36*
X151500Y101443D02*
X150876Y101319D01*
X150347Y100965D01*
X149993Y100436D01*
X149869Y99812D01*
X149993Y99187D01*
X150347Y98658D01*
X150876Y98304D01*
X151500Y98180D01*
X152124Y98304D01*
X152149Y98321D01*
X152509Y97960D01*
X152493Y97936D01*
X152369Y97312D01*
X152493Y96687D01*
X152847Y96158D01*
X153376Y95804D01*
X154000Y95680D01*
X154624Y95804D01*
X155154Y96158D01*
X155507Y96687D01*
X155631Y97312D01*
X155507Y97936D01*
X155154Y98465D01*
X154624Y98819D01*
X154000Y98943D01*
X153376Y98819D01*
X153351Y98802D01*
X152991Y99163D01*
X153007Y99187D01*
X153131Y99812D01*
X153007Y100436D01*
X152654Y100965D01*
X152124Y101319D01*
X151500Y101443D01*
D02*
G37*
G36*
X168000Y98632D02*
X167376Y98508D01*
X166847Y98154D01*
X166493Y97625D01*
X166369Y97000D01*
X166493Y96376D01*
X166847Y95847D01*
X167376Y95493D01*
X168000Y95369D01*
X168624Y95493D01*
X169153Y95847D01*
X169507Y96376D01*
X169631Y97000D01*
X169507Y97625D01*
X169153Y98154D01*
X168624Y98508D01*
X168000Y98632D01*
D02*
G37*
G36*
X164000D02*
X163376Y98508D01*
X162847Y98154D01*
X162493Y97625D01*
X162369Y97000D01*
X162493Y96376D01*
X162847Y95847D01*
X163376Y95493D01*
X164000Y95369D01*
X164624Y95493D01*
X165154Y95847D01*
X165507Y96376D01*
X165631Y97000D01*
X165507Y97625D01*
X165154Y98154D01*
X164624Y98508D01*
X164000Y98632D01*
D02*
G37*
G36*
X298000Y98443D02*
X297376Y98319D01*
X296847Y97965D01*
X296493Y97436D01*
X296369Y96811D01*
X296493Y96187D01*
X296847Y95658D01*
X297376Y95304D01*
X298000Y95180D01*
X298624Y95304D01*
X299153Y95658D01*
X299507Y96187D01*
X299631Y96811D01*
X299507Y97436D01*
X299153Y97965D01*
X298624Y98319D01*
X298000Y98443D01*
D02*
G37*
G36*
X53000Y94943D02*
X52376Y94819D01*
X51846Y94465D01*
X51511Y93964D01*
X51298Y93936D01*
X51202D01*
X50989Y93964D01*
X50653Y94465D01*
X50124Y94819D01*
X49500Y94943D01*
X48876Y94819D01*
X48346Y94465D01*
X47993Y93936D01*
X47869Y93312D01*
X47993Y92687D01*
X48346Y92158D01*
X48848Y91823D01*
X48876Y91609D01*
Y91514D01*
X48848Y91300D01*
X48346Y90965D01*
X47993Y90436D01*
X47869Y89811D01*
X47993Y89187D01*
X48346Y88658D01*
X48876Y88304D01*
X49500Y88180D01*
X50124Y88304D01*
X50653Y88658D01*
X50989Y89159D01*
X51202Y89187D01*
X51298D01*
X51511Y89159D01*
X51846Y88658D01*
X52376Y88304D01*
X53000Y88180D01*
X53624Y88304D01*
X54154Y88658D01*
X54507Y89187D01*
X54631Y89811D01*
X54507Y90436D01*
X54154Y90965D01*
X53652Y91300D01*
X53624Y91514D01*
Y91609D01*
X53652Y91823D01*
X54154Y92158D01*
X54507Y92687D01*
X54631Y93312D01*
X54507Y93936D01*
X54154Y94465D01*
X53624Y94819D01*
X53000Y94943D01*
D02*
G37*
G36*
X198000Y93943D02*
X197376Y93819D01*
X197129Y93654D01*
X196750Y93503D01*
X196371Y93654D01*
X196124Y93819D01*
X195500Y93943D01*
X194876Y93819D01*
X194346Y93465D01*
X193993Y92936D01*
X193869Y92312D01*
X193993Y91687D01*
X194346Y91158D01*
X194876Y90804D01*
X195500Y90680D01*
X196124Y90804D01*
X196371Y90969D01*
X196750Y91120D01*
X197129Y90969D01*
X197376Y90804D01*
X198000Y90680D01*
X198624Y90804D01*
X199153Y91158D01*
X199507Y91687D01*
X199631Y92312D01*
X199507Y92936D01*
X199153Y93465D01*
X198624Y93819D01*
X198000Y93943D01*
D02*
G37*
G36*
X191500D02*
X190876Y93819D01*
X190347Y93465D01*
X190250Y93321D01*
X189750D01*
X189654Y93465D01*
X189124Y93819D01*
X188500Y93943D01*
X187876Y93819D01*
X187346Y93465D01*
X186993Y92936D01*
X186869Y92312D01*
X186993Y91687D01*
X187346Y91158D01*
X187876Y90804D01*
X188500Y90680D01*
X189124Y90804D01*
X189654Y91158D01*
X189750Y91302D01*
X190250D01*
X190347Y91158D01*
X190876Y90804D01*
X191500Y90680D01*
X192124Y90804D01*
X192654Y91158D01*
X193007Y91687D01*
X193131Y92312D01*
X193007Y92936D01*
X192654Y93465D01*
X192124Y93819D01*
X191500Y93943D01*
D02*
G37*
G36*
X40000Y96443D02*
X39376Y96319D01*
X38846Y95965D01*
X38493Y95436D01*
X38369Y94811D01*
X38493Y94187D01*
X38846Y93658D01*
X39376Y93304D01*
X40000Y93180D01*
X40624Y93304D01*
X41153Y93658D01*
X41507Y94187D01*
X41631Y94811D01*
X41507Y95436D01*
X41153Y95965D01*
X40624Y96319D01*
X40000Y96443D01*
D02*
G37*
G36*
X31000D02*
X30376Y96319D01*
X29847Y95965D01*
X29493Y95436D01*
X29369Y94811D01*
X29493Y94187D01*
X29847Y93658D01*
X30376Y93304D01*
X31000Y93180D01*
X31624Y93304D01*
X32153Y93658D01*
X32507Y94187D01*
X32631Y94811D01*
X32507Y95436D01*
X32153Y95965D01*
X31624Y96319D01*
X31000Y96443D01*
D02*
G37*
G36*
X262771Y95414D02*
X262147Y95290D01*
X261617Y94936D01*
X261264Y94407D01*
X261140Y93783D01*
X261264Y93158D01*
X261617Y92629D01*
X262147Y92275D01*
X262771Y92151D01*
X263395Y92275D01*
X263925Y92629D01*
X264278Y93158D01*
X264402Y93783D01*
X264278Y94407D01*
X263925Y94936D01*
X263395Y95290D01*
X262771Y95414D01*
D02*
G37*
G36*
X283500Y92443D02*
X282876Y92319D01*
X282347Y91965D01*
X282250Y91821D01*
X281750D01*
X281653Y91965D01*
X281124Y92319D01*
X280500Y92443D01*
X279876Y92319D01*
X279346Y91965D01*
X278993Y91436D01*
X278869Y90812D01*
X278993Y90187D01*
X279346Y89658D01*
X279876Y89304D01*
X280500Y89180D01*
X281124Y89304D01*
X281653Y89658D01*
X281750Y89802D01*
X282250D01*
X282347Y89658D01*
X282876Y89304D01*
X283500Y89180D01*
X284124Y89304D01*
X284653Y89658D01*
X285007Y90187D01*
X285131Y90812D01*
X285007Y91436D01*
X284653Y91965D01*
X284124Y92319D01*
X283500Y92443D01*
D02*
G37*
G36*
X250500D02*
X249876Y92319D01*
X249346Y91965D01*
X249011Y91464D01*
X248798Y91436D01*
X248702D01*
X248489Y91464D01*
X248153Y91965D01*
X247624Y92319D01*
X247000Y92443D01*
X246376Y92319D01*
X245847Y91965D01*
X245493Y91436D01*
X245369Y90812D01*
X245493Y90187D01*
X245847Y89658D01*
X246376Y89304D01*
X247000Y89180D01*
X247624Y89304D01*
X248153Y89658D01*
X248489Y90159D01*
X248702Y90187D01*
X248798D01*
X249011Y90159D01*
X249346Y89658D01*
X249876Y89304D01*
X250500Y89180D01*
X251124Y89304D01*
X251654Y89658D01*
X252007Y90187D01*
X252131Y90812D01*
X252007Y91436D01*
X251654Y91965D01*
X251124Y92319D01*
X250500Y92443D01*
D02*
G37*
G36*
X270500Y94143D02*
X269876Y94019D01*
X269346Y93665D01*
X268993Y93136D01*
X268869Y92511D01*
X268993Y91887D01*
X269346Y91358D01*
X269876Y91004D01*
X270500Y90880D01*
X271124Y91004D01*
X271654Y91358D01*
X272007Y91887D01*
X272131Y92511D01*
X272007Y93136D01*
X271654Y93665D01*
X271124Y94019D01*
X270500Y94143D01*
D02*
G37*
G36*
X124752Y93190D02*
X124128Y93066D01*
X123599Y92712D01*
X123245Y92183D01*
X123121Y91558D01*
X123245Y90934D01*
X123599Y90405D01*
X124128Y90051D01*
X124752Y89927D01*
X125376Y90051D01*
X125906Y90405D01*
X126259Y90934D01*
X126383Y91558D01*
X126259Y92183D01*
X125906Y92712D01*
X125376Y93066D01*
X124752Y93190D01*
D02*
G37*
G36*
X120500Y93132D02*
X119876Y93008D01*
X119346Y92654D01*
X118993Y92125D01*
X118869Y91501D01*
X118993Y90876D01*
X119346Y90347D01*
X119876Y89993D01*
X120500Y89869D01*
X121124Y89993D01*
X121653Y90347D01*
X122007Y90876D01*
X122131Y91501D01*
X122007Y92125D01*
X121653Y92654D01*
X121124Y93008D01*
X120500Y93132D01*
D02*
G37*
G36*
X289000Y92443D02*
X288376Y92319D01*
X287846Y91965D01*
X287493Y91436D01*
X287369Y90812D01*
X287493Y90187D01*
X287846Y89658D01*
X288219Y89409D01*
X288024Y88938D01*
X288000Y88943D01*
X287376Y88819D01*
X286846Y88465D01*
X286493Y87936D01*
X286369Y87312D01*
X286493Y86687D01*
X286846Y86158D01*
X287376Y85804D01*
X288000Y85680D01*
X288624Y85804D01*
X289154Y86158D01*
X289507Y86687D01*
X289631Y87312D01*
X289507Y87936D01*
X289154Y88465D01*
X288781Y88714D01*
X288976Y89185D01*
X289000Y89180D01*
X289624Y89304D01*
X290154Y89658D01*
X290507Y90187D01*
X290631Y90812D01*
X290507Y91436D01*
X290154Y91965D01*
X289624Y92319D01*
X289000Y92443D01*
D02*
G37*
G36*
X255000D02*
X254376Y92319D01*
X253847Y91965D01*
X253493Y91436D01*
X253369Y90812D01*
X253493Y90187D01*
X253847Y89658D01*
X254376Y89304D01*
X255000Y89180D01*
X255624Y89304D01*
X256153Y89658D01*
X256507Y90187D01*
X256631Y90812D01*
X256507Y91436D01*
X256153Y91965D01*
X255624Y92319D01*
X255000Y92443D01*
D02*
G37*
G36*
X140200Y91143D02*
X139576Y91019D01*
X139047Y90665D01*
X138693Y90136D01*
X138569Y89512D01*
X138580Y89456D01*
X138148Y89061D01*
X137795Y89132D01*
X137171Y89008D01*
X137024Y88909D01*
X136574Y89210D01*
X136631Y89500D01*
X136507Y90125D01*
X136153Y90654D01*
X135624Y91008D01*
X135000Y91132D01*
X134376Y91008D01*
X133846Y90654D01*
X133493Y90125D01*
X133369Y89500D01*
X133493Y88876D01*
X133846Y88347D01*
X134376Y87993D01*
X135000Y87869D01*
X135624Y87993D01*
X135771Y88092D01*
X136221Y87791D01*
X136164Y87501D01*
X136288Y86876D01*
X136642Y86347D01*
X137171Y85993D01*
X137795Y85869D01*
X138419Y85993D01*
X138949Y86347D01*
X139302Y86876D01*
X139426Y87501D01*
X139415Y87556D01*
X139847Y87950D01*
X140200Y87880D01*
X140824Y88004D01*
X141353Y88358D01*
X141707Y88887D01*
X141831Y89512D01*
X141707Y90136D01*
X141353Y90665D01*
X140824Y91019D01*
X140200Y91143D01*
D02*
G37*
G36*
X276020Y92243D02*
X275396Y92119D01*
X274867Y91765D01*
X274513Y91236D01*
X274389Y90611D01*
X274513Y89987D01*
X274867Y89458D01*
X275396Y89104D01*
X276020Y88980D01*
X276644Y89104D01*
X277173Y89458D01*
X277527Y89987D01*
X277651Y90611D01*
X277527Y91236D01*
X277173Y91765D01*
X276644Y92119D01*
X276020Y92243D01*
D02*
G37*
G36*
X242520D02*
X241896Y92119D01*
X241367Y91765D01*
X241013Y91236D01*
X240889Y90611D01*
X241013Y89987D01*
X241367Y89458D01*
X241896Y89104D01*
X242520Y88980D01*
X243144Y89104D01*
X243673Y89458D01*
X244027Y89987D01*
X244151Y90611D01*
X244027Y91236D01*
X243673Y91765D01*
X243144Y92119D01*
X242520Y92243D01*
D02*
G37*
G36*
X129950Y91182D02*
X129326Y91058D01*
X128797Y90704D01*
X128443Y90175D01*
X128319Y89551D01*
X128443Y88926D01*
X128797Y88397D01*
X129326Y88043D01*
X129950Y87919D01*
X130574Y88043D01*
X131104Y88397D01*
X131457Y88926D01*
X131581Y89551D01*
X131457Y90175D01*
X131104Y90704D01*
X130574Y91058D01*
X129950Y91182D01*
D02*
G37*
G36*
X309500Y90589D02*
X308954Y90480D01*
X308491Y90171D01*
X308181Y89708D01*
X308073Y89161D01*
X308181Y88615D01*
X308491Y88152D01*
X308954Y87843D01*
X309500Y87734D01*
X310046Y87843D01*
X310509Y88152D01*
X310819Y88615D01*
X310927Y89161D01*
X310819Y89708D01*
X310509Y90171D01*
X310046Y90480D01*
X309500Y90589D01*
D02*
G37*
G36*
X297800Y90539D02*
X297254Y90430D01*
X296791Y90121D01*
X296481Y89658D01*
X296373Y89112D01*
X296481Y88565D01*
X296791Y88102D01*
X297254Y87793D01*
X297800Y87684D01*
X298346Y87793D01*
X298809Y88102D01*
X299119Y88565D01*
X299227Y89112D01*
X299119Y89658D01*
X298809Y90121D01*
X298346Y90430D01*
X297800Y90539D01*
D02*
G37*
G36*
X40000Y90943D02*
X39376Y90819D01*
X38846Y90465D01*
X38493Y89936D01*
X38369Y89311D01*
X38493Y88687D01*
X38846Y88158D01*
X39376Y87804D01*
X40000Y87680D01*
X40624Y87804D01*
X41153Y88158D01*
X41507Y88687D01*
X41631Y89311D01*
X41507Y89936D01*
X41153Y90465D01*
X40624Y90819D01*
X40000Y90943D01*
D02*
G37*
G36*
X31000D02*
X30376Y90819D01*
X29847Y90465D01*
X29493Y89936D01*
X29369Y89311D01*
X29493Y88687D01*
X29847Y88158D01*
X30376Y87804D01*
X31000Y87680D01*
X31624Y87804D01*
X32153Y88158D01*
X32507Y88687D01*
X32631Y89311D01*
X32507Y89936D01*
X32153Y90465D01*
X31624Y90819D01*
X31000Y90943D01*
D02*
G37*
G36*
X225959Y93746D02*
X225134Y93638D01*
X224366Y93319D01*
X223706Y92813D01*
X223200Y92153D01*
X222881Y91385D01*
X222773Y90560D01*
X222881Y89735D01*
X223200Y88967D01*
X223706Y88307D01*
X224366Y87801D01*
X225134Y87482D01*
X225959Y87374D01*
X226784Y87482D01*
X227552Y87801D01*
X228212Y88307D01*
X228718Y88967D01*
X229037Y89735D01*
X229145Y90560D01*
X229037Y91385D01*
X228718Y92153D01*
X228212Y92813D01*
X227552Y93319D01*
X226784Y93638D01*
X225959Y93746D01*
D02*
G37*
G36*
X218085D02*
X217260Y93638D01*
X216492Y93319D01*
X215832Y92813D01*
X215326Y92153D01*
X215007Y91385D01*
X214899Y90560D01*
X215007Y89735D01*
X215326Y88967D01*
X215832Y88307D01*
X216492Y87801D01*
X217260Y87482D01*
X218085Y87374D01*
X218910Y87482D01*
X219678Y87801D01*
X220338Y88307D01*
X220844Y88967D01*
X221163Y89735D01*
X221271Y90560D01*
X221163Y91385D01*
X220844Y92153D01*
X220338Y92813D01*
X219678Y93319D01*
X218910Y93638D01*
X218085Y93746D01*
D02*
G37*
G36*
X233640Y88843D02*
X233016Y88719D01*
X232487Y88365D01*
X232133Y87836D01*
X232009Y87212D01*
X232133Y86587D01*
X232487Y86058D01*
X233016Y85704D01*
X233640Y85580D01*
X234264Y85704D01*
X234793Y86058D01*
X235147Y86587D01*
X235271Y87212D01*
X235147Y87836D01*
X234793Y88365D01*
X234264Y88719D01*
X233640Y88843D01*
D02*
G37*
G36*
X264500Y86443D02*
X263876Y86319D01*
X263347Y85965D01*
X262993Y85436D01*
X262869Y84812D01*
X262883Y84738D01*
X262825Y84644D01*
X262450Y84353D01*
X262000Y84443D01*
X261376Y84319D01*
X260846Y83965D01*
X260493Y83436D01*
X260369Y82811D01*
X260493Y82187D01*
X260846Y81658D01*
X261376Y81304D01*
X262000Y81180D01*
X262624Y81304D01*
X263154Y81658D01*
X263507Y82187D01*
X263631Y82811D01*
X263617Y82885D01*
X263675Y82979D01*
X264050Y83270D01*
X264500Y83180D01*
X265124Y83304D01*
X265653Y83658D01*
X266007Y84187D01*
X266131Y84812D01*
X266007Y85436D01*
X265653Y85965D01*
X265124Y86319D01*
X264500Y86443D01*
D02*
G37*
G36*
X309500Y86989D02*
X308954Y86880D01*
X308491Y86571D01*
X308181Y86108D01*
X308073Y85562D01*
X308181Y85015D01*
X308491Y84552D01*
X308954Y84243D01*
X309500Y84134D01*
X310046Y84243D01*
X310509Y84552D01*
X310819Y85015D01*
X310927Y85562D01*
X310819Y86108D01*
X310509Y86571D01*
X310046Y86880D01*
X309500Y86989D01*
D02*
G37*
G36*
X297800Y86939D02*
X297254Y86830D01*
X296791Y86521D01*
X296481Y86058D01*
X296373Y85511D01*
X296481Y84965D01*
X296791Y84502D01*
X297254Y84193D01*
X297800Y84084D01*
X298346Y84193D01*
X298809Y84502D01*
X299119Y84965D01*
X299227Y85511D01*
X299119Y86058D01*
X298809Y86521D01*
X298346Y86830D01*
X297800Y86939D01*
D02*
G37*
G36*
X175000Y87132D02*
X174376Y87008D01*
X173846Y86654D01*
X173493Y86125D01*
X173369Y85501D01*
X173493Y84876D01*
X173846Y84347D01*
X174376Y83993D01*
X175000Y83869D01*
X175624Y83993D01*
X176154Y84347D01*
X176507Y84876D01*
X176631Y85501D01*
X176507Y86125D01*
X176154Y86654D01*
X175624Y87008D01*
X175000Y87132D01*
D02*
G37*
G36*
X133500D02*
X132876Y87008D01*
X132346Y86654D01*
X131993Y86125D01*
X131869Y85501D01*
X131993Y84876D01*
X132346Y84347D01*
X132876Y83993D01*
X133500Y83869D01*
X134124Y83993D01*
X134653Y84347D01*
X135007Y84876D01*
X135131Y85501D01*
X135007Y86125D01*
X134653Y86654D01*
X134124Y87008D01*
X133500Y87132D01*
D02*
G37*
G36*
X290794Y86251D02*
X290248Y86142D01*
X289785Y85833D01*
X289475Y85370D01*
X289367Y84824D01*
X289475Y84277D01*
X289785Y83814D01*
X290248Y83505D01*
X290794Y83396D01*
X291340Y83505D01*
X291803Y83814D01*
X292113Y84277D01*
X292221Y84824D01*
X292113Y85370D01*
X291803Y85833D01*
X291340Y86142D01*
X290794Y86251D01*
D02*
G37*
G36*
X21000Y93443D02*
X20376Y93319D01*
X19847Y92965D01*
X19493Y92436D01*
X19369Y91812D01*
X19493Y91187D01*
X19847Y90658D01*
X20348Y90323D01*
X20376Y90109D01*
Y90014D01*
X20348Y89800D01*
X19847Y89465D01*
X19493Y88936D01*
X19369Y88311D01*
X19493Y87687D01*
X19847Y87158D01*
X20348Y86823D01*
X20376Y86609D01*
Y86514D01*
X20348Y86300D01*
X19847Y85965D01*
X19493Y85436D01*
X19369Y84812D01*
X19493Y84187D01*
X19847Y83658D01*
X20376Y83304D01*
X21000Y83180D01*
X21624Y83304D01*
X22153Y83658D01*
X22507Y84187D01*
X22631Y84812D01*
X22507Y85436D01*
X22153Y85965D01*
X21652Y86300D01*
X21624Y86514D01*
Y86609D01*
X21652Y86823D01*
X22153Y87158D01*
X22507Y87687D01*
X22631Y88311D01*
X22507Y88936D01*
X22153Y89465D01*
X21652Y89800D01*
X21624Y90014D01*
Y90109D01*
X21652Y90323D01*
X22153Y90658D01*
X22507Y91187D01*
X22631Y91812D01*
X22507Y92436D01*
X22153Y92965D01*
X21624Y93319D01*
X21000Y93443D01*
D02*
G37*
G36*
X15000D02*
X14376Y93319D01*
X13847Y92965D01*
X13493Y92436D01*
X13369Y91812D01*
X13493Y91187D01*
X13847Y90658D01*
X14348Y90323D01*
X14376Y90109D01*
Y90014D01*
X14348Y89800D01*
X13847Y89465D01*
X13493Y88936D01*
X13369Y88311D01*
X13493Y87687D01*
X13847Y87158D01*
X14348Y86823D01*
X14376Y86609D01*
Y86514D01*
X14348Y86300D01*
X13847Y85965D01*
X13493Y85436D01*
X13369Y84812D01*
X13493Y84187D01*
X13847Y83658D01*
X14376Y83304D01*
X15000Y83180D01*
X15624Y83304D01*
X16153Y83658D01*
X16507Y84187D01*
X16631Y84812D01*
X16507Y85436D01*
X16153Y85965D01*
X15652Y86300D01*
X15624Y86514D01*
Y86609D01*
X15652Y86823D01*
X16153Y87158D01*
X16507Y87687D01*
X16631Y88311D01*
X16507Y88936D01*
X16153Y89465D01*
X15652Y89800D01*
X15624Y90014D01*
Y90109D01*
X15652Y90323D01*
X16153Y90658D01*
X16507Y91187D01*
X16631Y91812D01*
X16507Y92436D01*
X16153Y92965D01*
X15624Y93319D01*
X15000Y93443D01*
D02*
G37*
G36*
X164000Y85632D02*
X163376Y85508D01*
X162847Y85154D01*
X162493Y84625D01*
X162369Y84000D01*
X162493Y83376D01*
X162847Y82847D01*
X163376Y82493D01*
X164000Y82369D01*
X164624Y82493D01*
X165154Y82847D01*
X165507Y83376D01*
X165631Y84000D01*
X165507Y84625D01*
X165154Y85154D01*
X164624Y85508D01*
X164000Y85632D01*
D02*
G37*
G36*
X208200Y85343D02*
X207576Y85219D01*
X207047Y84865D01*
X206693Y84336D01*
X206569Y83711D01*
X206693Y83087D01*
X207047Y82558D01*
X207576Y82204D01*
X208200Y82080D01*
X208824Y82204D01*
X209353Y82558D01*
X209707Y83087D01*
X209831Y83711D01*
X209707Y84336D01*
X209353Y84865D01*
X208824Y85219D01*
X208200Y85343D01*
D02*
G37*
G36*
X306000Y84022D02*
X305376Y83898D01*
X304847Y83544D01*
X304493Y83015D01*
X304369Y82390D01*
X304493Y81766D01*
X304847Y81237D01*
X305376Y80883D01*
X306000Y80759D01*
X306624Y80883D01*
X307154Y81237D01*
X307507Y81766D01*
X307631Y82390D01*
X307507Y83015D01*
X307154Y83544D01*
X306624Y83898D01*
X306000Y84022D01*
D02*
G37*
G36*
X290794Y82651D02*
X290248Y82542D01*
X289785Y82233D01*
X289475Y81770D01*
X289367Y81223D01*
X289475Y80677D01*
X289785Y80214D01*
X290248Y79905D01*
X290794Y79796D01*
X291340Y79905D01*
X291803Y80214D01*
X292113Y80677D01*
X292221Y81223D01*
X292113Y81770D01*
X291803Y82233D01*
X291340Y82542D01*
X290794Y82651D01*
D02*
G37*
G36*
X211100Y82643D02*
X210476Y82519D01*
X209946Y82165D01*
X209593Y81636D01*
X209469Y81011D01*
X209593Y80387D01*
X209946Y79858D01*
X210476Y79504D01*
X211100Y79380D01*
X211724Y79504D01*
X212253Y79858D01*
X212607Y80387D01*
X212731Y81011D01*
X212607Y81636D01*
X212253Y82165D01*
X211724Y82519D01*
X211100Y82643D01*
D02*
G37*
G36*
X262500Y78943D02*
X261876Y78819D01*
X261347Y78465D01*
X261250Y78321D01*
X260750D01*
X260653Y78465D01*
X260124Y78819D01*
X259500Y78943D01*
X258876Y78819D01*
X258347Y78465D01*
X257993Y77936D01*
X257869Y77311D01*
X257993Y76687D01*
X258347Y76158D01*
X258876Y75804D01*
X259500Y75680D01*
X260124Y75804D01*
X260653Y76158D01*
X260750Y76302D01*
X261250D01*
X261347Y76158D01*
X261876Y75804D01*
X262500Y75680D01*
X263124Y75804D01*
X263653Y76158D01*
X264007Y76687D01*
X264131Y77311D01*
X264007Y77936D01*
X263653Y78465D01*
X263124Y78819D01*
X262500Y78943D01*
D02*
G37*
G36*
X281000Y81443D02*
X280376Y81319D01*
X279847Y80965D01*
X279493Y80436D01*
X279369Y79812D01*
X279493Y79187D01*
X279847Y78658D01*
X280376Y78304D01*
X281000Y78180D01*
X281624Y78304D01*
X282154Y78658D01*
X282507Y79187D01*
X282631Y79812D01*
X282507Y80436D01*
X282154Y80965D01*
X281624Y81319D01*
X281000Y81443D01*
D02*
G37*
G36*
X220000Y78743D02*
X219376Y78619D01*
X218847Y78265D01*
X218493Y77736D01*
X218369Y77112D01*
X218493Y76487D01*
X218847Y75958D01*
X219376Y75604D01*
X220000Y75480D01*
X220624Y75604D01*
X221153Y75958D01*
X221507Y76487D01*
X221631Y77112D01*
X221507Y77736D01*
X221153Y78265D01*
X220624Y78619D01*
X220000Y78743D01*
D02*
G37*
G36*
X166141Y78909D02*
X165517Y78785D01*
X164988Y78431D01*
X164634Y77902D01*
X164510Y77277D01*
X164634Y76653D01*
X164988Y76124D01*
X165517Y75770D01*
X166141Y75646D01*
X166765Y75770D01*
X167295Y76124D01*
X167363Y76226D01*
X167958Y76217D01*
X168138Y75948D01*
X168667Y75594D01*
X169291Y75470D01*
X169915Y75594D01*
X170445Y75948D01*
X170798Y76477D01*
X170922Y77101D01*
X170798Y77726D01*
X170445Y78255D01*
X169915Y78609D01*
X169291Y78733D01*
X168667Y78609D01*
X168138Y78255D01*
X168069Y78153D01*
X167474Y78162D01*
X167295Y78431D01*
X166765Y78785D01*
X166141Y78909D01*
D02*
G37*
G36*
X297500Y80943D02*
X296876Y80819D01*
X296346Y80465D01*
X295993Y79936D01*
X295869Y79312D01*
X295993Y78687D01*
X296346Y78158D01*
X296491Y78061D01*
Y77561D01*
X296346Y77465D01*
X295993Y76936D01*
X295869Y76311D01*
X295993Y75687D01*
X296346Y75158D01*
X296876Y74804D01*
X297500Y74680D01*
X298124Y74804D01*
X298654Y75158D01*
X299007Y75687D01*
X299131Y76311D01*
X299007Y76936D01*
X298654Y77465D01*
X298509Y77561D01*
Y78061D01*
X298654Y78158D01*
X299007Y78687D01*
X299131Y79312D01*
X299007Y79936D01*
X298654Y80465D01*
X298124Y80819D01*
X297500Y80943D01*
D02*
G37*
G36*
X242200Y77115D02*
X241576Y76991D01*
X241047Y76637D01*
X240693Y76108D01*
X240569Y75484D01*
X240693Y74859D01*
X241047Y74330D01*
X241576Y73976D01*
X242200Y73852D01*
X242824Y73976D01*
X243354Y74330D01*
X243707Y74859D01*
X243831Y75484D01*
X243707Y76108D01*
X243354Y76637D01*
X242824Y76991D01*
X242200Y77115D01*
D02*
G37*
G36*
X305985Y78278D02*
X305088Y78100D01*
X304327Y77591D01*
X303819Y76831D01*
X303641Y75933D01*
X303819Y75036D01*
X304327Y74275D01*
X305088Y73766D01*
X305985Y73588D01*
X306883Y73766D01*
X307644Y74275D01*
X308152Y75036D01*
X308331Y75933D01*
X308152Y76831D01*
X307644Y77591D01*
X306883Y78100D01*
X305985Y78278D01*
D02*
G37*
G36*
X230000Y76443D02*
X229376Y76319D01*
X228847Y75965D01*
X228493Y75436D01*
X228369Y74812D01*
X228493Y74187D01*
X228847Y73658D01*
X229376Y73304D01*
X230000Y73180D01*
X230624Y73304D01*
X231153Y73658D01*
X231507Y74187D01*
X231631Y74812D01*
X231507Y75436D01*
X231153Y75965D01*
X230624Y76319D01*
X230000Y76443D01*
D02*
G37*
G36*
X232500Y73443D02*
X231876Y73319D01*
X231347Y72965D01*
X230993Y72436D01*
X230869Y71811D01*
X230993Y71187D01*
X231347Y70658D01*
X231876Y70304D01*
X232500Y70180D01*
X233124Y70304D01*
X233653Y70658D01*
X234007Y71187D01*
X234131Y71811D01*
X234007Y72436D01*
X233653Y72965D01*
X233124Y73319D01*
X232500Y73443D01*
D02*
G37*
G36*
X166141Y72302D02*
X165517Y72178D01*
X164988Y71824D01*
X164634Y71295D01*
X164510Y70670D01*
X164634Y70046D01*
X164988Y69517D01*
X165517Y69163D01*
X166141Y69039D01*
X166765Y69163D01*
X167295Y69517D01*
X167648Y70046D01*
X167772Y70670D01*
X167648Y71295D01*
X167295Y71824D01*
X166765Y72178D01*
X166141Y72302D01*
D02*
G37*
G36*
X208583Y74170D02*
X207758Y74062D01*
X206990Y73743D01*
X206330Y73237D01*
X205824Y72577D01*
X205505Y71809D01*
X205397Y70984D01*
X205505Y70159D01*
X205824Y69391D01*
X206330Y68731D01*
X206990Y68225D01*
X207758Y67906D01*
X208583Y67798D01*
X209408Y67906D01*
X210176Y68225D01*
X210836Y68731D01*
X211342Y69391D01*
X211661Y70159D01*
X211769Y70984D01*
X211661Y71809D01*
X211342Y72577D01*
X210836Y73237D01*
X210176Y73743D01*
X209408Y74062D01*
X208583Y74170D01*
D02*
G37*
G36*
X197583D02*
X196758Y74062D01*
X195990Y73743D01*
X195330Y73237D01*
X194824Y72577D01*
X194505Y71809D01*
X194397Y70984D01*
X194505Y70159D01*
X194824Y69391D01*
X195330Y68731D01*
X195990Y68225D01*
X196758Y67906D01*
X197583Y67798D01*
X198408Y67906D01*
X199176Y68225D01*
X199836Y68731D01*
X200342Y69391D01*
X200661Y70159D01*
X200769Y70984D01*
X200661Y71809D01*
X200342Y72577D01*
X199836Y73237D01*
X199176Y73743D01*
X198408Y74062D01*
X197583Y74170D01*
D02*
G37*
G36*
X186732D02*
X185907Y74062D01*
X185139Y73743D01*
X184479Y73237D01*
X183973Y72577D01*
X183654Y71809D01*
X183546Y70984D01*
X183654Y70159D01*
X183973Y69391D01*
X184479Y68731D01*
X185139Y68225D01*
X185907Y67906D01*
X186732Y67798D01*
X187557Y67906D01*
X188325Y68225D01*
X188985Y68731D01*
X189491Y69391D01*
X189810Y70159D01*
X189918Y70984D01*
X189810Y71809D01*
X189491Y72577D01*
X188985Y73237D01*
X188325Y73743D01*
X187557Y74062D01*
X186732Y74170D01*
D02*
G37*
G36*
X175590D02*
X174765Y74062D01*
X173997Y73743D01*
X173337Y73237D01*
X172831Y72577D01*
X172512Y71809D01*
X172404Y70984D01*
X172512Y70159D01*
X172831Y69391D01*
X173337Y68731D01*
X173997Y68225D01*
X174765Y67906D01*
X175590Y67798D01*
X176415Y67906D01*
X177183Y68225D01*
X177843Y68731D01*
X178349Y69391D01*
X178668Y70159D01*
X178776Y70984D01*
X178668Y71809D01*
X178349Y72577D01*
X177843Y73237D01*
X177183Y73743D01*
X176415Y74062D01*
X175590Y74170D01*
D02*
G37*
G36*
X209000Y65443D02*
X208376Y65319D01*
X207846Y64965D01*
X207493Y64436D01*
X207369Y63811D01*
X207493Y63187D01*
X207846Y62658D01*
X208348Y62323D01*
X208376Y62109D01*
Y62014D01*
X208348Y61800D01*
X207846Y61465D01*
X207493Y60936D01*
X207369Y60312D01*
X207493Y59687D01*
X207846Y59158D01*
X208376Y58804D01*
X209000Y58680D01*
X209624Y58804D01*
X210154Y59158D01*
X210507Y59687D01*
X210631Y60312D01*
X210507Y60936D01*
X210154Y61465D01*
X209652Y61800D01*
X209624Y62014D01*
Y62109D01*
X209652Y62323D01*
X210154Y62658D01*
X210507Y63187D01*
X210631Y63811D01*
X210507Y64436D01*
X210154Y64965D01*
X209624Y65319D01*
X209000Y65443D01*
D02*
G37*
G36*
X197583Y64170D02*
X196758Y64062D01*
X195990Y63743D01*
X195330Y63237D01*
X194824Y62577D01*
X194505Y61809D01*
X194397Y60984D01*
X194505Y60159D01*
X194824Y59391D01*
X195330Y58731D01*
X195990Y58225D01*
X196758Y57906D01*
X197583Y57798D01*
X198408Y57906D01*
X199176Y58225D01*
X199836Y58731D01*
X200342Y59391D01*
X200661Y60159D01*
X200769Y60984D01*
X200661Y61809D01*
X200342Y62577D01*
X199836Y63237D01*
X199176Y63743D01*
X198408Y64062D01*
X197583Y64170D01*
D02*
G37*
G36*
X186732D02*
X185907Y64062D01*
X185139Y63743D01*
X184479Y63237D01*
X183973Y62577D01*
X183654Y61809D01*
X183546Y60984D01*
X183654Y60159D01*
X183973Y59391D01*
X184479Y58731D01*
X185139Y58225D01*
X185907Y57906D01*
X186732Y57798D01*
X187557Y57906D01*
X188325Y58225D01*
X188985Y58731D01*
X189491Y59391D01*
X189810Y60159D01*
X189918Y60984D01*
X189810Y61809D01*
X189491Y62577D01*
X188985Y63237D01*
X188325Y63743D01*
X187557Y64062D01*
X186732Y64170D01*
D02*
G37*
G36*
X175590D02*
X174765Y64062D01*
X173997Y63743D01*
X173337Y63237D01*
X172831Y62577D01*
X172512Y61809D01*
X172404Y60984D01*
X172512Y60159D01*
X172831Y59391D01*
X173337Y58731D01*
X173997Y58225D01*
X174765Y57906D01*
X175590Y57798D01*
X176415Y57906D01*
X177183Y58225D01*
X177843Y58731D01*
X178349Y59391D01*
X178668Y60159D01*
X178776Y60984D01*
X178668Y61809D01*
X178349Y62577D01*
X177843Y63237D01*
X177183Y63743D01*
X176415Y64062D01*
X175590Y64170D01*
D02*
G37*
G36*
X232500Y60443D02*
X231876Y60319D01*
X231347Y59965D01*
X230993Y59436D01*
X230869Y58811D01*
X230993Y58187D01*
X231347Y57658D01*
X231876Y57304D01*
X232500Y57180D01*
X233124Y57304D01*
X233653Y57658D01*
X234007Y58187D01*
X234131Y58811D01*
X234007Y59436D01*
X233653Y59965D01*
X233124Y60319D01*
X232500Y60443D01*
D02*
G37*
G36*
X259000Y57443D02*
X258376Y57319D01*
X257846Y56965D01*
X257493Y56436D01*
X257369Y55812D01*
X257493Y55187D01*
X257846Y54658D01*
X258376Y54304D01*
X259000Y54180D01*
X259624Y54304D01*
X260154Y54658D01*
X260507Y55187D01*
X260631Y55812D01*
X260507Y56436D01*
X260154Y56965D01*
X259624Y57319D01*
X259000Y57443D01*
D02*
G37*
G36*
X230000D02*
X229376Y57319D01*
X228847Y56965D01*
X228493Y56436D01*
X228369Y55812D01*
X228493Y55187D01*
X228847Y54658D01*
X229376Y54304D01*
X230000Y54180D01*
X230624Y54304D01*
X231153Y54658D01*
X231507Y55187D01*
X231631Y55812D01*
X231507Y56436D01*
X231153Y56965D01*
X230624Y57319D01*
X230000Y57443D01*
D02*
G37*
G36*
X126500Y56632D02*
X125876Y56508D01*
X125347Y56154D01*
X124993Y55625D01*
X124869Y55001D01*
X124993Y54376D01*
X125347Y53847D01*
X125876Y53493D01*
X126500Y53369D01*
X127124Y53493D01*
X127654Y53847D01*
X128007Y54376D01*
X128131Y55001D01*
X128007Y55625D01*
X127654Y56154D01*
X127124Y56508D01*
X126500Y56632D01*
D02*
G37*
G36*
X119000D02*
X118376Y56508D01*
X117847Y56154D01*
X117493Y55625D01*
X117369Y55001D01*
X117493Y54376D01*
X117847Y53847D01*
X118376Y53493D01*
X119000Y53369D01*
X119624Y53493D01*
X120153Y53847D01*
X120507Y54376D01*
X120631Y55001D01*
X120507Y55625D01*
X120153Y56154D01*
X119624Y56508D01*
X119000Y56632D01*
D02*
G37*
G36*
X111500D02*
X110876Y56508D01*
X110346Y56154D01*
X109993Y55625D01*
X109869Y55001D01*
X109993Y54376D01*
X110346Y53847D01*
X110876Y53493D01*
X111500Y53369D01*
X112124Y53493D01*
X112654Y53847D01*
X113007Y54376D01*
X113131Y55001D01*
X113007Y55625D01*
X112654Y56154D01*
X112124Y56508D01*
X111500Y56632D01*
D02*
G37*
G36*
X135999Y56133D02*
X135375Y56008D01*
X134846Y55655D01*
X134492Y55126D01*
X134368Y54501D01*
X134492Y53877D01*
X134846Y53348D01*
X135375Y52994D01*
X135999Y52870D01*
X136623Y52994D01*
X137153Y53348D01*
X137506Y53877D01*
X137630Y54501D01*
X137506Y55126D01*
X137153Y55655D01*
X136623Y56008D01*
X135999Y56133D01*
D02*
G37*
G36*
X310000Y58217D02*
X309225Y58115D01*
X308503Y57816D01*
X307883Y57340D01*
X307407Y56720D01*
X307108Y55998D01*
X307006Y55223D01*
X307108Y54448D01*
X307407Y53726D01*
X307883Y53106D01*
X308503Y52630D01*
X309225Y52331D01*
X310000Y52229D01*
X310775Y52331D01*
X311497Y52630D01*
X312117Y53106D01*
X312593Y53726D01*
X312892Y54448D01*
X312994Y55223D01*
X312892Y55998D01*
X312593Y56720D01*
X312117Y57340D01*
X311497Y57816D01*
X310775Y58115D01*
X310000Y58217D01*
D02*
G37*
G36*
X290433Y58112D02*
X289658Y58010D01*
X288936Y57711D01*
X288316Y57235D01*
X287840Y56615D01*
X287541Y55893D01*
X287439Y55118D01*
X287541Y54343D01*
X287840Y53621D01*
X288316Y53001D01*
X288936Y52525D01*
X289658Y52226D01*
X290433Y52124D01*
X291208Y52226D01*
X291930Y52525D01*
X292550Y53001D01*
X293026Y53621D01*
X293325Y54343D01*
X293427Y55118D01*
X293325Y55893D01*
X293026Y56615D01*
X292550Y57235D01*
X291930Y57711D01*
X291208Y58010D01*
X290433Y58112D01*
D02*
G37*
G36*
X280433D02*
X279658Y58010D01*
X278936Y57711D01*
X278316Y57235D01*
X277840Y56615D01*
X277541Y55893D01*
X277439Y55118D01*
X277541Y54343D01*
X277840Y53621D01*
X278316Y53001D01*
X278936Y52525D01*
X279658Y52226D01*
X280433Y52124D01*
X281208Y52226D01*
X281930Y52525D01*
X282551Y53001D01*
X283026Y53621D01*
X283325Y54343D01*
X283427Y55118D01*
X283325Y55893D01*
X283026Y56615D01*
X282551Y57235D01*
X281930Y57711D01*
X281208Y58010D01*
X280433Y58112D01*
D02*
G37*
G36*
X270433D02*
X269658Y58010D01*
X268936Y57711D01*
X268316Y57235D01*
X267840Y56615D01*
X267541Y55893D01*
X267439Y55118D01*
X267541Y54343D01*
X267840Y53621D01*
X268316Y53001D01*
X268936Y52525D01*
X269658Y52226D01*
X270433Y52124D01*
X271208Y52226D01*
X271930Y52525D01*
X272551Y53001D01*
X273026Y53621D01*
X273325Y54343D01*
X273427Y55118D01*
X273325Y55893D01*
X273026Y56615D01*
X272551Y57235D01*
X271930Y57711D01*
X271208Y58010D01*
X270433Y58112D01*
D02*
G37*
G36*
X163480Y53132D02*
X162856Y53008D01*
X162327Y52654D01*
X161973Y52125D01*
X161849Y51500D01*
X161973Y50876D01*
X162327Y50347D01*
X162856Y49993D01*
X163480Y49869D01*
X164104Y49993D01*
X164634Y50347D01*
X164987Y50876D01*
X165111Y51500D01*
X164987Y52125D01*
X164634Y52654D01*
X164104Y53008D01*
X163480Y53132D01*
D02*
G37*
G36*
X159000D02*
X158376Y53008D01*
X157846Y52654D01*
X157493Y52125D01*
X157369Y51500D01*
X157493Y50876D01*
X157846Y50347D01*
X158376Y49993D01*
X159000Y49869D01*
X159624Y49993D01*
X160153Y50347D01*
X160507Y50876D01*
X160631Y51500D01*
X160507Y52125D01*
X160153Y52654D01*
X159624Y53008D01*
X159000Y53132D01*
D02*
G37*
G36*
X183500Y52132D02*
X182876Y52008D01*
X182346Y51654D01*
X181993Y51125D01*
X181869Y50501D01*
X181993Y49876D01*
X182346Y49347D01*
X182876Y48993D01*
X183500Y48869D01*
X184124Y48993D01*
X184653Y49347D01*
X185007Y49876D01*
X185131Y50501D01*
X185007Y51125D01*
X184653Y51654D01*
X184124Y52008D01*
X183500Y52132D01*
D02*
G37*
G36*
X134960Y42788D02*
X134336Y42664D01*
X133807Y42310D01*
X133710Y42166D01*
X133210D01*
X133114Y42310D01*
X132584Y42664D01*
X131960Y42788D01*
X131336Y42664D01*
X130807Y42310D01*
X130453Y41781D01*
X130329Y41157D01*
X130453Y40532D01*
X130807Y40003D01*
X131336Y39649D01*
X131960Y39525D01*
X132584Y39649D01*
X133114Y40003D01*
X133210Y40147D01*
X133710D01*
X133807Y40003D01*
X134336Y39649D01*
X134960Y39525D01*
X135584Y39649D01*
X136114Y40003D01*
X136467Y40532D01*
X136591Y41157D01*
X136467Y41781D01*
X136114Y42310D01*
X135584Y42664D01*
X134960Y42788D01*
D02*
G37*
G36*
X183480Y44815D02*
X182856Y44691D01*
X182326Y44337D01*
X181973Y43808D01*
X181849Y43183D01*
X181973Y42559D01*
X182326Y42030D01*
X182856Y41676D01*
X183480Y41552D01*
X184104Y41676D01*
X184634Y42030D01*
X184987Y42559D01*
X185111Y43183D01*
X184987Y43808D01*
X184634Y44337D01*
X184104Y44691D01*
X183480Y44815D01*
D02*
G37*
G36*
X292960Y41788D02*
X292336Y41664D01*
X291807Y41310D01*
X291710Y41166D01*
X291210D01*
X291113Y41310D01*
X290584Y41664D01*
X289960Y41788D01*
X289336Y41664D01*
X288807Y41310D01*
X288453Y40781D01*
X288329Y40156D01*
X288453Y39532D01*
X288807Y39003D01*
X289336Y38649D01*
X289960Y38525D01*
X290584Y38649D01*
X291113Y39003D01*
X291210Y39147D01*
X291710D01*
X291807Y39003D01*
X292336Y38649D01*
X292960Y38525D01*
X293584Y38649D01*
X294113Y39003D01*
X294467Y39532D01*
X294591Y40156D01*
X294467Y40781D01*
X294113Y41310D01*
X293584Y41664D01*
X292960Y41788D01*
D02*
G37*
G36*
X282960D02*
X282336Y41664D01*
X281806Y41310D01*
X281710Y41166D01*
X281210D01*
X281114Y41310D01*
X280584Y41664D01*
X279960Y41788D01*
X279336Y41664D01*
X278806Y41310D01*
X278453Y40781D01*
X278329Y40156D01*
X278453Y39532D01*
X278806Y39003D01*
X279336Y38649D01*
X279960Y38525D01*
X280584Y38649D01*
X281114Y39003D01*
X281210Y39147D01*
X281710D01*
X281806Y39003D01*
X282336Y38649D01*
X282960Y38525D01*
X283584Y38649D01*
X284114Y39003D01*
X284467Y39532D01*
X284591Y40156D01*
X284467Y40781D01*
X284114Y41310D01*
X283584Y41664D01*
X282960Y41788D01*
D02*
G37*
G36*
X203960D02*
X203336Y41664D01*
X202806Y41310D01*
X202710Y41166D01*
X202210D01*
X202114Y41310D01*
X201584Y41664D01*
X200960Y41788D01*
X200336Y41664D01*
X199806Y41310D01*
X199453Y40781D01*
X199329Y40156D01*
X199453Y39532D01*
X199806Y39003D01*
X200336Y38649D01*
X200960Y38525D01*
X201584Y38649D01*
X202114Y39003D01*
X202210Y39147D01*
X202710D01*
X202806Y39003D01*
X203336Y38649D01*
X203960Y38525D01*
X204584Y38649D01*
X205114Y39003D01*
X205467Y39532D01*
X205591Y40156D01*
X205467Y40781D01*
X205114Y41310D01*
X204584Y41664D01*
X203960Y41788D01*
D02*
G37*
G36*
X24500Y44132D02*
X23876Y44008D01*
X23347Y43654D01*
X22993Y43125D01*
X22869Y42500D01*
X22993Y41876D01*
X23347Y41347D01*
X23876Y40993D01*
X24500Y40869D01*
X25124Y40993D01*
X25653Y41347D01*
X26007Y41876D01*
X26131Y42500D01*
X26007Y43125D01*
X25653Y43654D01*
X25124Y44008D01*
X24500Y44132D01*
D02*
G37*
G36*
X235000Y42443D02*
X234376Y42319D01*
X233846Y41965D01*
X233493Y41436D01*
X233369Y40811D01*
X233493Y40187D01*
X233846Y39658D01*
X234376Y39304D01*
X235000Y39180D01*
X235624Y39304D01*
X236154Y39658D01*
X236507Y40187D01*
X236631Y40811D01*
X236507Y41436D01*
X236154Y41965D01*
X235624Y42319D01*
X235000Y42443D01*
D02*
G37*
G36*
X230000D02*
X229376Y42319D01*
X228847Y41965D01*
X228493Y41436D01*
X228369Y40811D01*
X228493Y40187D01*
X228847Y39658D01*
X229376Y39304D01*
X230000Y39180D01*
X230624Y39304D01*
X231153Y39658D01*
X231507Y40187D01*
X231631Y40811D01*
X231507Y41436D01*
X231153Y41965D01*
X230624Y42319D01*
X230000Y42443D01*
D02*
G37*
G36*
X109500Y42115D02*
X108876Y41991D01*
X108346Y41637D01*
X107993Y41108D01*
X107869Y40483D01*
X107993Y39859D01*
X108346Y39330D01*
X108876Y38976D01*
X109500Y38852D01*
X110124Y38976D01*
X110653Y39330D01*
X111007Y39859D01*
X111131Y40483D01*
X111007Y41108D01*
X110653Y41637D01*
X110124Y41991D01*
X109500Y42115D01*
D02*
G37*
G36*
X104480Y42102D02*
X103856Y41978D01*
X103326Y41624D01*
X102973Y41095D01*
X102849Y40470D01*
X102973Y39846D01*
X103326Y39317D01*
X103856Y38963D01*
X104480Y38839D01*
X105104Y38963D01*
X105633Y39317D01*
X105987Y39846D01*
X106111Y40470D01*
X105987Y41095D01*
X105633Y41624D01*
X105104Y41978D01*
X104480Y42102D01*
D02*
G37*
G36*
X91500D02*
X90876Y41978D01*
X90346Y41624D01*
X89993Y41095D01*
X89869Y40470D01*
X89993Y39846D01*
X90346Y39317D01*
X90876Y38963D01*
X91500Y38839D01*
X92124Y38963D01*
X92654Y39317D01*
X93007Y39846D01*
X93131Y40470D01*
X93007Y41095D01*
X92654Y41624D01*
X92124Y41978D01*
X91500Y42102D01*
D02*
G37*
G36*
X21000Y32864D02*
X20376Y32740D01*
X19847Y32386D01*
X19493Y31857D01*
X19369Y31233D01*
X19493Y30608D01*
X19847Y30079D01*
X20376Y29725D01*
X21000Y29601D01*
X21624Y29725D01*
X22153Y30079D01*
X22507Y30608D01*
X22631Y31233D01*
X22507Y31857D01*
X22153Y32386D01*
X21624Y32740D01*
X21000Y32864D01*
D02*
G37*
G36*
X296000Y27443D02*
X295376Y27319D01*
X294847Y26965D01*
X294493Y26436D01*
X294369Y25811D01*
X294493Y25187D01*
X294847Y24658D01*
X295376Y24304D01*
X296000Y24180D01*
X296624Y24304D01*
X297153Y24658D01*
X297507Y25187D01*
X297631Y25811D01*
X297507Y26436D01*
X297153Y26965D01*
X296624Y27319D01*
X296000Y27443D01*
D02*
G37*
G36*
X65960Y22788D02*
X65336Y22664D01*
X64806Y22310D01*
X64710Y22166D01*
X64210D01*
X64113Y22310D01*
X63584Y22664D01*
X62960Y22788D01*
X62336Y22664D01*
X61806Y22310D01*
X61453Y21781D01*
X61329Y21157D01*
X61453Y20532D01*
X61806Y20003D01*
X62336Y19649D01*
X62960Y19525D01*
X63584Y19649D01*
X64113Y20003D01*
X64210Y20147D01*
X64710D01*
X64806Y20003D01*
X65336Y19649D01*
X65960Y19525D01*
X66584Y19649D01*
X67114Y20003D01*
X67467Y20532D01*
X67591Y21157D01*
X67467Y21781D01*
X67114Y22310D01*
X66584Y22664D01*
X65960Y22788D01*
D02*
G37*
G36*
X273000Y22443D02*
X272376Y22319D01*
X271847Y21965D01*
X271750Y21821D01*
X271250D01*
X271153Y21965D01*
X270624Y22319D01*
X270000Y22443D01*
X269376Y22319D01*
X268847Y21965D01*
X268750Y21821D01*
X268250D01*
X268154Y21965D01*
X267624Y22319D01*
X267000Y22443D01*
X266376Y22319D01*
X265846Y21965D01*
X265493Y21436D01*
X265369Y20811D01*
X265493Y20187D01*
X265846Y19658D01*
X266376Y19304D01*
X267000Y19180D01*
X267624Y19304D01*
X268154Y19658D01*
X268250Y19802D01*
X268750D01*
X268847Y19658D01*
X269376Y19304D01*
X270000Y19180D01*
X270624Y19304D01*
X271153Y19658D01*
X271250Y19802D01*
X271750D01*
X271847Y19658D01*
X272376Y19304D01*
X273000Y19180D01*
X273624Y19304D01*
X274153Y19658D01*
X274507Y20187D01*
X274631Y20811D01*
X274507Y21436D01*
X274153Y21965D01*
X273624Y22319D01*
X273000Y22443D01*
D02*
G37*
G36*
X135000D02*
X134376Y22319D01*
X133846Y21965D01*
X133750Y21821D01*
X133250D01*
X133153Y21965D01*
X132624Y22319D01*
X132000Y22443D01*
X131376Y22319D01*
X130847Y21965D01*
X130493Y21436D01*
X130369Y20811D01*
X130493Y20187D01*
X130847Y19658D01*
X131376Y19304D01*
X132000Y19180D01*
X132624Y19304D01*
X133153Y19658D01*
X133250Y19802D01*
X133750D01*
X133846Y19658D01*
X134376Y19304D01*
X135000Y19180D01*
X135624Y19304D01*
X136153Y19658D01*
X136507Y20187D01*
X136631Y20811D01*
X136507Y21436D01*
X136153Y21965D01*
X135624Y22319D01*
X135000Y22443D01*
D02*
G37*
G36*
X84480Y22933D02*
X83856Y22809D01*
X83327Y22455D01*
X82973Y21926D01*
X82849Y21302D01*
X82973Y20677D01*
X83327Y20148D01*
X83856Y19794D01*
X84480Y19670D01*
X85104Y19794D01*
X85633Y20148D01*
X85987Y20677D01*
X86111Y21302D01*
X85987Y21926D01*
X85633Y22455D01*
X85104Y22809D01*
X84480Y22933D01*
D02*
G37*
G36*
X232480Y22443D02*
X231856Y22319D01*
X231327Y21965D01*
X230973Y21436D01*
X230849Y20811D01*
X230973Y20187D01*
X231327Y19658D01*
X231856Y19304D01*
X232480Y19180D01*
X233104Y19304D01*
X233633Y19658D01*
X233987Y20187D01*
X234111Y20811D01*
X233987Y21436D01*
X233633Y21965D01*
X233104Y22319D01*
X232480Y22443D01*
D02*
G37*
G36*
X222480D02*
X221856Y22319D01*
X221326Y21965D01*
X220973Y21436D01*
X220849Y20811D01*
X220973Y20187D01*
X221326Y19658D01*
X221856Y19304D01*
X222480Y19180D01*
X223104Y19304D01*
X223634Y19658D01*
X223987Y20187D01*
X224111Y20811D01*
X223987Y21436D01*
X223634Y21965D01*
X223104Y22319D01*
X222480Y22443D01*
D02*
G37*
G36*
X163480D02*
X162856Y22319D01*
X162327Y21965D01*
X161973Y21436D01*
X161849Y20811D01*
X161973Y20187D01*
X162327Y19658D01*
X162856Y19304D01*
X163480Y19180D01*
X164104Y19304D01*
X164634Y19658D01*
X164987Y20187D01*
X165111Y20811D01*
X164987Y21436D01*
X164634Y21965D01*
X164104Y22319D01*
X163480Y22443D01*
D02*
G37*
G36*
X257500Y13132D02*
X256876Y13008D01*
X256347Y12654D01*
X255993Y12125D01*
X255869Y11501D01*
X255993Y10876D01*
X256347Y10347D01*
X256876Y9993D01*
X257500Y9869D01*
X258124Y9993D01*
X258653Y10347D01*
X259007Y10876D01*
X259131Y11501D01*
X259007Y12125D01*
X258653Y12654D01*
X258124Y13008D01*
X257500Y13132D01*
D02*
G37*
G36*
X127000Y8442D02*
X126376Y8318D01*
X125847Y7964D01*
X125750Y7820D01*
X125250D01*
X125154Y7964D01*
X124624Y8318D01*
X124000Y8442D01*
X123376Y8318D01*
X122846Y7964D01*
X122493Y7435D01*
X122369Y6810D01*
X122493Y6186D01*
X122846Y5657D01*
X123348Y5322D01*
X123376Y5108D01*
Y5013D01*
X123348Y4799D01*
X122846Y4464D01*
X122493Y3935D01*
X122369Y3311D01*
X122493Y2686D01*
X122846Y2157D01*
X123376Y1803D01*
X124000Y1679D01*
X124624Y1803D01*
X125154Y2157D01*
X125250Y2301D01*
X125750D01*
X125847Y2157D01*
X126376Y1803D01*
X127000Y1679D01*
X127624Y1803D01*
X128154Y2157D01*
X128507Y2686D01*
X128631Y3311D01*
X128507Y3935D01*
X128154Y4464D01*
X127652Y4799D01*
X127624Y5013D01*
Y5108D01*
X127652Y5322D01*
X128154Y5657D01*
X128507Y6186D01*
X128631Y6810D01*
X128507Y7435D01*
X128154Y7964D01*
X127624Y8318D01*
X127000Y8442D01*
D02*
G37*
G36*
X283000Y4442D02*
X282376Y4318D01*
X281846Y3964D01*
X281750Y3820D01*
X281250D01*
X281153Y3964D01*
X280624Y4318D01*
X280000Y4442D01*
X279376Y4318D01*
X278847Y3964D01*
X278493Y3435D01*
X278369Y2811D01*
X278493Y2186D01*
X278847Y1657D01*
X279376Y1303D01*
X280000Y1179D01*
X280624Y1303D01*
X281153Y1657D01*
X281250Y1801D01*
X281750D01*
X281846Y1657D01*
X282376Y1303D01*
X283000Y1179D01*
X283624Y1303D01*
X284154Y1657D01*
X284507Y2186D01*
X284631Y2811D01*
X284507Y3435D01*
X284154Y3964D01*
X283624Y4318D01*
X283000Y4442D01*
D02*
G37*
G36*
X204000D02*
X203376Y4318D01*
X202847Y3964D01*
X202750Y3820D01*
X202250D01*
X202153Y3964D01*
X201624Y4318D01*
X201000Y4442D01*
X200376Y4318D01*
X199846Y3964D01*
X199493Y3435D01*
X199369Y2811D01*
X199493Y2186D01*
X199846Y1657D01*
X200376Y1303D01*
X201000Y1179D01*
X201624Y1303D01*
X202153Y1657D01*
X202250Y1801D01*
X202750D01*
X202847Y1657D01*
X203376Y1303D01*
X204000Y1179D01*
X204624Y1303D01*
X205153Y1657D01*
X205507Y2186D01*
X205631Y2811D01*
X205507Y3435D01*
X205153Y3964D01*
X204624Y4318D01*
X204000Y4442D01*
D02*
G37*
G36*
X37000D02*
X36376Y4318D01*
X35846Y3964D01*
X35750Y3820D01*
X35250D01*
X35153Y3964D01*
X34624Y4318D01*
X34000Y4442D01*
X33376Y4318D01*
X32847Y3964D01*
X32493Y3435D01*
X32369Y2811D01*
X32493Y2186D01*
X32847Y1657D01*
X33376Y1303D01*
X34000Y1179D01*
X34624Y1303D01*
X35153Y1657D01*
X35250Y1801D01*
X35750D01*
X35846Y1657D01*
X36376Y1303D01*
X37000Y1179D01*
X37624Y1303D01*
X38153Y1657D01*
X38507Y2186D01*
X38631Y2811D01*
X38507Y3435D01*
X38153Y3964D01*
X37624Y4318D01*
X37000Y4442D01*
D02*
G37*
G36*
X237480Y2632D02*
X236856Y2508D01*
X236327Y2154D01*
X235973Y1625D01*
X235849Y1001D01*
X235973Y376D01*
X236327Y-153D01*
X236856Y-507D01*
X237480Y-631D01*
X238104Y-507D01*
X238633Y-153D01*
X238987Y376D01*
X239111Y1001D01*
X238987Y1625D01*
X238633Y2154D01*
X238104Y2508D01*
X237480Y2632D01*
D02*
G37*
G36*
X227480D02*
X226856Y2508D01*
X226326Y2154D01*
X225973Y1625D01*
X225849Y1001D01*
X225973Y376D01*
X226326Y-153D01*
X226856Y-507D01*
X227480Y-631D01*
X228104Y-507D01*
X228633Y-153D01*
X228987Y376D01*
X229111Y1001D01*
X228987Y1625D01*
X228633Y2154D01*
X228104Y2508D01*
X227480Y2632D01*
D02*
G37*
G36*
X165747Y-30380D02*
X164906D01*
Y-34617D01*
X166043D01*
X166164Y-34607D01*
X166293D01*
X166423Y-34589D01*
X166543Y-34580D01*
X166645Y-34561D01*
X166663D01*
X166700Y-34543D01*
X166756Y-34524D01*
X166830Y-34496D01*
X166913Y-34459D01*
X166996Y-34413D01*
X167079Y-34358D01*
X167163Y-34293D01*
X167172Y-34284D01*
X167200Y-34256D01*
X167237Y-34210D01*
X167283Y-34145D01*
X167329Y-34062D01*
X167394Y-33960D01*
X167440Y-33830D01*
X167496Y-33682D01*
Y-33673D01*
X167505Y-33664D01*
Y-33636D01*
X167514Y-33599D01*
X167533Y-33562D01*
X167542Y-33507D01*
X167570Y-33368D01*
X167588Y-33201D01*
X167616Y-33007D01*
X167625Y-32767D01*
X167634Y-32508D01*
Y-32498D01*
Y-32471D01*
Y-32434D01*
Y-32387D01*
Y-32323D01*
X167625Y-32249D01*
X167616Y-32091D01*
X167597Y-31906D01*
X167579Y-31712D01*
X167542Y-31536D01*
X167496Y-31370D01*
Y-31361D01*
X167486Y-31351D01*
X167468Y-31305D01*
X167440Y-31231D01*
X167403Y-31139D01*
X167348Y-31046D01*
X167283Y-30944D01*
X167209Y-30843D01*
X167126Y-30750D01*
X167116Y-30741D01*
X167089Y-30713D01*
X167033Y-30676D01*
X166968Y-30630D01*
X166876Y-30574D01*
X166774Y-30528D01*
X166663Y-30482D01*
X166534Y-30445D01*
X166524D01*
X166478Y-30436D01*
X166404Y-30426D01*
X166302Y-30408D01*
X166238D01*
X166154Y-30399D01*
X166071D01*
X165979Y-30389D01*
X165868D01*
X165747Y-30380D01*
D02*
G37*
G36*
X136073D02*
X134593D01*
Y-32008D01*
X135851D01*
X136036Y-31999D01*
X136231Y-31990D01*
X136425Y-31980D01*
X136508Y-31971D01*
X136582Y-31962D01*
X136656Y-31943D01*
X136702Y-31934D01*
X136712D01*
X136739Y-31916D01*
X136786Y-31897D01*
X136832Y-31869D01*
X136952Y-31786D01*
X137008Y-31731D01*
X137063Y-31666D01*
X137072Y-31657D01*
X137082Y-31629D01*
X137109Y-31592D01*
X137137Y-31536D01*
X137156Y-31462D01*
X137183Y-31379D01*
X137193Y-31287D01*
X137202Y-31185D01*
Y-31166D01*
Y-31129D01*
X137193Y-31074D01*
X137183Y-31000D01*
X137156Y-30917D01*
X137128Y-30833D01*
X137082Y-30741D01*
X137026Y-30667D01*
X137017Y-30658D01*
X136998Y-30630D01*
X136952Y-30602D01*
X136897Y-30556D01*
X136832Y-30510D01*
X136749Y-30473D01*
X136647Y-30436D01*
X136536Y-30408D01*
X136527D01*
X136499Y-30399D01*
X136443D01*
X136360Y-30389D01*
X136157D01*
X136073Y-30380D01*
D02*
G37*
G36*
X117407Y-30787D02*
X116537Y-33164D01*
X118304D01*
X117407Y-30787D01*
D02*
G37*
%LPD*%
D145*
X303366Y143311D02*
D03*
X323366D02*
D03*
Y123311D02*
D03*
X303366D02*
D03*
Y179311D02*
D03*
X323366D02*
D03*
Y199311D02*
D03*
X303366D02*
D03*
D149*
X304017Y70303D02*
D03*
Y104319D02*
D03*
D150*
X320474D02*
D03*
Y70303D02*
D03*
D152*
X-1191Y134773D02*
D03*
X320000Y55223D02*
D03*
D153*
X-8455Y148346D02*
D03*
Y182362D02*
D03*
D156*
X8868Y149626D02*
D03*
Y181083D02*
D03*
D157*
X11427Y148346D02*
D03*
Y182362D02*
D03*
D160*
X146413Y154397D02*
D03*
X198800Y182201D02*
D03*
X206000Y182200D02*
D03*
X147500Y182310D02*
D03*
X153300Y176811D02*
D03*
X154000Y182310D02*
D03*
X159500Y179811D02*
D03*
X160500Y177260D02*
D03*
X165500Y182810D02*
D03*
X174673Y177260D02*
D03*
X189880Y197301D02*
D03*
X190000Y203310D02*
D03*
X199600Y187101D02*
D03*
X202000Y200310D02*
D03*
X205538Y194911D02*
D03*
X209300Y193710D02*
D03*
X214800D02*
D03*
X22163Y162031D02*
D03*
Y167693D02*
D03*
X22924Y176000D02*
D03*
X22948Y150962D02*
D03*
X248500Y199311D02*
D03*
X265300Y198811D02*
D03*
X274050Y199811D02*
D03*
X291000Y87312D02*
D03*
X293000Y80312D02*
D03*
X295500Y84812D02*
D03*
X297700Y91312D02*
D03*
X311100Y87312D02*
D03*
X33591Y154595D02*
D03*
X-3496Y175689D02*
D03*
X35910Y151216D02*
D03*
X36570Y162031D02*
D03*
Y167693D02*
D03*
X-3852Y167259D02*
D03*
X41558Y162120D02*
D03*
Y167783D02*
D03*
X-4496Y155190D02*
D03*
X50358Y198310D02*
D03*
X55858D02*
D03*
X61500Y206610D02*
D03*
X70000Y187110D02*
D03*
Y192611D02*
D03*
X71500Y174230D02*
D03*
Y179892D02*
D03*
X71589Y150427D02*
D03*
Y156089D02*
D03*
X89573D02*
D03*
Y161750D02*
D03*
D161*
X139370Y155930D02*
D03*
X133400Y169500D02*
D03*
X134000Y155900D02*
D03*
X103500Y199972D02*
D03*
X12452Y178117D02*
D03*
X132500Y94001D02*
D03*
X132900Y78412D02*
D03*
X135500Y204811D02*
D03*
X140945Y174410D02*
D03*
X141960Y20662D02*
D03*
Y40156D02*
D03*
X144960Y20662D02*
D03*
Y40156D02*
D03*
X14500Y224310D02*
D03*
X148500Y216810D02*
D03*
Y222310D02*
D03*
X148819Y162311D02*
D03*
X149499Y230311D02*
D03*
X149500Y167810D02*
D03*
X152999Y225811D02*
D03*
X153499Y230311D02*
D03*
X153543Y162311D02*
D03*
Y167810D02*
D03*
X155118Y89483D02*
D03*
X157499Y207810D02*
D03*
Y211810D02*
D03*
X158267Y162311D02*
D03*
Y167810D02*
D03*
X162992Y162311D02*
D03*
Y167810D02*
D03*
X167716Y162311D02*
D03*
Y167810D02*
D03*
X168500Y84000D02*
D03*
X170000Y89500D02*
D03*
X171500Y83811D02*
D03*
X172441Y162311D02*
D03*
Y167810D02*
D03*
X17366Y178117D02*
D03*
X17480Y154035D02*
D03*
X177165Y162311D02*
D03*
Y167810D02*
D03*
X20059Y127252D02*
D03*
X20500Y42500D02*
D03*
X210960Y40156D02*
D03*
X211000Y2811D02*
D03*
X213960Y40156D02*
D03*
X214000Y2811D02*
D03*
X221285Y129311D02*
D03*
X223044Y224310D02*
D03*
X223673Y58983D02*
D03*
X226240Y56050D02*
D03*
X226305Y74812D02*
D03*
X228500Y156756D02*
D03*
X232401Y142062D02*
D03*
X232480Y130483D02*
D03*
X232980Y160484D02*
D03*
X233000Y173310D02*
D03*
X23480Y137984D02*
D03*
X235000Y55812D02*
D03*
Y73812D02*
D03*
Y76811D02*
D03*
X236000Y119811D02*
D03*
X237544Y224310D02*
D03*
X238130Y206484D02*
D03*
X238131Y242336D02*
D03*
X238945Y156756D02*
D03*
X23960Y20662D02*
D03*
X240500Y161811D02*
D03*
X242000Y117312D02*
D03*
Y122810D02*
D03*
X242480Y96983D02*
D03*
X245000Y113312D02*
D03*
X246500Y127311D02*
D03*
X247579Y206484D02*
D03*
X247580Y242336D02*
D03*
X248200Y108300D02*
D03*
X249873Y113312D02*
D03*
X250500Y127311D02*
D03*
X254500Y113312D02*
D03*
X255297Y169810D02*
D03*
X256600Y94064D02*
D03*
X257000Y117312D02*
D03*
Y122810D02*
D03*
X257028Y206484D02*
D03*
Y242336D02*
D03*
X261480Y186484D02*
D03*
X262044Y224310D02*
D03*
X262771Y103711D02*
D03*
X263000Y124311D02*
D03*
X26480Y137984D02*
D03*
X266477Y206484D02*
D03*
Y242336D02*
D03*
X267500Y82311D02*
D03*
X26960Y20662D02*
D03*
X270500Y82311D02*
D03*
X27160Y170171D02*
D03*
X272000Y134310D02*
D03*
X273800Y93911D02*
D03*
X274729Y80812D02*
D03*
X275925Y206484D02*
D03*
X275926Y242336D02*
D03*
X276951Y134263D02*
D03*
X277500Y114812D02*
D03*
X279642Y186484D02*
D03*
X280888Y134198D02*
D03*
X281730Y108083D02*
D03*
X283000Y87312D02*
D03*
X283306Y74812D02*
D03*
X286044Y224310D02*
D03*
X28900D02*
D03*
X290000Y94064D02*
D03*
X29587Y242336D02*
D03*
X295917Y153048D02*
D03*
X30000Y206810D02*
D03*
X300544Y224310D02*
D03*
X302500Y168810D02*
D03*
X303000Y156810D02*
D03*
X32000Y127252D02*
D03*
X33500Y49000D02*
D03*
X33980Y176202D02*
D03*
X38500Y206810D02*
D03*
X39036Y242336D02*
D03*
X43960Y20662D02*
D03*
X44000Y144810D02*
D03*
X4587Y155018D02*
D03*
X46000Y49000D02*
D03*
X46960Y20662D02*
D03*
X47000Y144810D02*
D03*
X48484Y242336D02*
D03*
X48485Y206810D02*
D03*
X56500Y181349D02*
D03*
X57000Y127811D02*
D03*
X57500Y163311D02*
D03*
Y168310D02*
D03*
X57933Y206810D02*
D03*
Y242336D02*
D03*
X59806Y130617D02*
D03*
X-6500Y121908D02*
D03*
X66500Y150410D02*
D03*
X67382Y242336D02*
D03*
X68000Y207000D02*
D03*
X71871Y106811D02*
D03*
Y113812D02*
D03*
X72960Y20662D02*
D03*
Y40156D02*
D03*
X73000Y162311D02*
D03*
X75960Y20662D02*
D03*
Y40156D02*
D03*
X76831Y242336D02*
D03*
X77500Y224310D02*
D03*
X92000D02*
D03*
D162*
X320474Y104319D02*
X322024D01*
X318924D02*
X320474D01*
X304017D02*
X306167D01*
X301867D02*
X304017D01*
Y70303D02*
X306167D01*
X301867D02*
X304017D01*
X320474D02*
X322024D01*
X318924D02*
X320474D01*
M02*
