G04*
G04 #@! TF.GenerationSoftware,Altium Limited,Altium Designer,23.2.1 (34)*
G04*
G04 Layer_Physical_Order=1*
G04 Layer_Color=255*
%FSLAX25Y25*%
%MOIN*%
G70*
G04*
G04 #@! TF.SameCoordinates,387CD6D3-576D-47AB-95CD-A910FB3B32EF*
G04*
G04*
G04 #@! TF.FilePolarity,Positive*
G04*
G01*
G75*
%ADD10C,0.00500*%
%ADD15C,0.01000*%
%ADD16C,0.00600*%
%ADD17C,0.00787*%
%ADD18C,0.00800*%
%ADD21R,0.05000X0.14488*%
G04:AMPARAMS|DCode=22|XSize=21.26mil|YSize=23.62mil|CornerRadius=5.53mil|HoleSize=0mil|Usage=FLASHONLY|Rotation=180.000|XOffset=0mil|YOffset=0mil|HoleType=Round|Shape=RoundedRectangle|*
%AMROUNDEDRECTD22*
21,1,0.02126,0.01257,0,0,180.0*
21,1,0.01021,0.02362,0,0,180.0*
1,1,0.01106,-0.00510,0.00628*
1,1,0.01106,0.00510,0.00628*
1,1,0.01106,0.00510,-0.00628*
1,1,0.01106,-0.00510,-0.00628*
%
%ADD22ROUNDEDRECTD22*%
G04:AMPARAMS|DCode=23|XSize=19.68mil|YSize=23.62mil|CornerRadius=5.12mil|HoleSize=0mil|Usage=FLASHONLY|Rotation=0.000|XOffset=0mil|YOffset=0mil|HoleType=Round|Shape=RoundedRectangle|*
%AMROUNDEDRECTD23*
21,1,0.01968,0.01339,0,0,0.0*
21,1,0.00945,0.02362,0,0,0.0*
1,1,0.01024,0.00472,-0.00669*
1,1,0.01024,-0.00472,-0.00669*
1,1,0.01024,-0.00472,0.00669*
1,1,0.01024,0.00472,0.00669*
%
%ADD23ROUNDEDRECTD23*%
%ADD24R,0.02900X0.11000*%
%ADD25R,0.05512X0.08268*%
%ADD26C,0.01000*%
G04:AMPARAMS|DCode=27|XSize=21.26mil|YSize=23.62mil|CornerRadius=5.53mil|HoleSize=0mil|Usage=FLASHONLY|Rotation=90.000|XOffset=0mil|YOffset=0mil|HoleType=Round|Shape=RoundedRectangle|*
%AMROUNDEDRECTD27*
21,1,0.02126,0.01257,0,0,90.0*
21,1,0.01021,0.02362,0,0,90.0*
1,1,0.01106,0.00628,0.00510*
1,1,0.01106,0.00628,-0.00510*
1,1,0.01106,-0.00628,-0.00510*
1,1,0.01106,-0.00628,0.00510*
%
%ADD27ROUNDEDRECTD27*%
%ADD28R,0.03740X0.05512*%
%ADD29R,0.04528X0.02953*%
%ADD30R,0.02953X0.03150*%
%ADD31R,0.03268X0.02047*%
%ADD32R,0.01870X0.01181*%
%ADD33C,0.03937*%
%ADD34R,0.07165X0.04724*%
%ADD35R,0.04500X0.02300*%
%ADD36R,0.04500X0.01200*%
G04:AMPARAMS|DCode=37|XSize=57.87mil|YSize=18.9mil|CornerRadius=2.36mil|HoleSize=0mil|Usage=FLASHONLY|Rotation=0.000|XOffset=0mil|YOffset=0mil|HoleType=Round|Shape=RoundedRectangle|*
%AMROUNDEDRECTD37*
21,1,0.05787,0.01417,0,0,0.0*
21,1,0.05315,0.01890,0,0,0.0*
1,1,0.00472,0.02657,-0.00709*
1,1,0.00472,-0.02657,-0.00709*
1,1,0.00472,-0.02657,0.00709*
1,1,0.00472,0.02657,0.00709*
%
%ADD37ROUNDEDRECTD37*%
%ADD38R,0.02600X0.03700*%
%ADD39R,0.03700X0.02600*%
G04:AMPARAMS|DCode=40|XSize=19.68mil|YSize=23.62mil|CornerRadius=5.12mil|HoleSize=0mil|Usage=FLASHONLY|Rotation=90.000|XOffset=0mil|YOffset=0mil|HoleType=Round|Shape=RoundedRectangle|*
%AMROUNDEDRECTD40*
21,1,0.01968,0.01339,0,0,90.0*
21,1,0.00945,0.02362,0,0,90.0*
1,1,0.01024,0.00669,0.00472*
1,1,0.01024,0.00669,-0.00472*
1,1,0.01024,-0.00669,-0.00472*
1,1,0.01024,-0.00669,0.00472*
%
%ADD40ROUNDEDRECTD40*%
%ADD41R,0.01575X0.07480*%
%ADD42C,0.00800*%
G04:AMPARAMS|DCode=43|XSize=23.62mil|YSize=7.87mil|CornerRadius=0.98mil|HoleSize=0mil|Usage=FLASHONLY|Rotation=180.000|XOffset=0mil|YOffset=0mil|HoleType=Round|Shape=RoundedRectangle|*
%AMROUNDEDRECTD43*
21,1,0.02362,0.00591,0,0,180.0*
21,1,0.02165,0.00787,0,0,180.0*
1,1,0.00197,-0.01083,0.00295*
1,1,0.00197,0.01083,0.00295*
1,1,0.00197,0.01083,-0.00295*
1,1,0.00197,-0.01083,-0.00295*
%
%ADD43ROUNDEDRECTD43*%
G04:AMPARAMS|DCode=44|XSize=27.56mil|YSize=7.87mil|CornerRadius=0.98mil|HoleSize=0mil|Usage=FLASHONLY|Rotation=90.000|XOffset=0mil|YOffset=0mil|HoleType=Round|Shape=RoundedRectangle|*
%AMROUNDEDRECTD44*
21,1,0.02756,0.00591,0,0,90.0*
21,1,0.02559,0.00787,0,0,90.0*
1,1,0.00197,0.00295,0.01280*
1,1,0.00197,0.00295,-0.01280*
1,1,0.00197,-0.00295,-0.01280*
1,1,0.00197,-0.00295,0.01280*
%
%ADD44ROUNDEDRECTD44*%
G04:AMPARAMS|DCode=45|XSize=23.62mil|YSize=7.87mil|CornerRadius=0.98mil|HoleSize=0mil|Usage=FLASHONLY|Rotation=90.000|XOffset=0mil|YOffset=0mil|HoleType=Round|Shape=RoundedRectangle|*
%AMROUNDEDRECTD45*
21,1,0.02362,0.00591,0,0,90.0*
21,1,0.02165,0.00787,0,0,90.0*
1,1,0.00197,0.00295,0.01083*
1,1,0.00197,0.00295,-0.01083*
1,1,0.00197,-0.00295,-0.01083*
1,1,0.00197,-0.00295,0.01083*
%
%ADD45ROUNDEDRECTD45*%
%ADD46R,0.00787X0.02756*%
G04:AMPARAMS|DCode=47|XSize=25.59mil|YSize=15.75mil|CornerRadius=3.94mil|HoleSize=0mil|Usage=FLASHONLY|Rotation=180.000|XOffset=0mil|YOffset=0mil|HoleType=Round|Shape=RoundedRectangle|*
%AMROUNDEDRECTD47*
21,1,0.02559,0.00787,0,0,180.0*
21,1,0.01772,0.01575,0,0,180.0*
1,1,0.00787,-0.00886,0.00394*
1,1,0.00787,0.00886,0.00394*
1,1,0.00787,0.00886,-0.00394*
1,1,0.00787,-0.00886,-0.00394*
%
%ADD47ROUNDEDRECTD47*%
G04:AMPARAMS|DCode=48|XSize=25.59mil|YSize=11.81mil|CornerRadius=2.95mil|HoleSize=0mil|Usage=FLASHONLY|Rotation=180.000|XOffset=0mil|YOffset=0mil|HoleType=Round|Shape=RoundedRectangle|*
%AMROUNDEDRECTD48*
21,1,0.02559,0.00591,0,0,180.0*
21,1,0.01968,0.01181,0,0,180.0*
1,1,0.00591,-0.00984,0.00295*
1,1,0.00591,0.00984,0.00295*
1,1,0.00591,0.00984,-0.00295*
1,1,0.00591,-0.00984,-0.00295*
%
%ADD48ROUNDEDRECTD48*%
%ADD49R,0.15000X0.08000*%
%ADD50R,0.03150X0.01063*%
%ADD51R,0.03543X0.01063*%
G04:AMPARAMS|DCode=52|XSize=22.24mil|YSize=7.87mil|CornerRadius=1.97mil|HoleSize=0mil|Usage=FLASHONLY|Rotation=0.000|XOffset=0mil|YOffset=0mil|HoleType=Round|Shape=RoundedRectangle|*
%AMROUNDEDRECTD52*
21,1,0.02224,0.00394,0,0,0.0*
21,1,0.01831,0.00787,0,0,0.0*
1,1,0.00394,0.00915,-0.00197*
1,1,0.00394,-0.00915,-0.00197*
1,1,0.00394,-0.00915,0.00197*
1,1,0.00394,0.00915,0.00197*
%
%ADD52ROUNDEDRECTD52*%
G04:AMPARAMS|DCode=53|XSize=22.24mil|YSize=7.87mil|CornerRadius=0.98mil|HoleSize=0mil|Usage=FLASHONLY|Rotation=0.000|XOffset=0mil|YOffset=0mil|HoleType=Round|Shape=RoundedRectangle|*
%AMROUNDEDRECTD53*
21,1,0.02224,0.00591,0,0,0.0*
21,1,0.02028,0.00787,0,0,0.0*
1,1,0.00197,0.01014,-0.00295*
1,1,0.00197,-0.01014,-0.00295*
1,1,0.00197,-0.01014,0.00295*
1,1,0.00197,0.01014,0.00295*
%
%ADD53ROUNDEDRECTD53*%
G04:AMPARAMS|DCode=54|XSize=25.98mil|YSize=8.66mil|CornerRadius=1.08mil|HoleSize=0mil|Usage=FLASHONLY|Rotation=180.000|XOffset=0mil|YOffset=0mil|HoleType=Round|Shape=RoundedRectangle|*
%AMROUNDEDRECTD54*
21,1,0.02598,0.00650,0,0,180.0*
21,1,0.02382,0.00866,0,0,180.0*
1,1,0.00217,-0.01191,0.00325*
1,1,0.00217,0.01191,0.00325*
1,1,0.00217,0.01191,-0.00325*
1,1,0.00217,-0.01191,-0.00325*
%
%ADD54ROUNDEDRECTD54*%
G04:AMPARAMS|DCode=55|XSize=8.66mil|YSize=25.98mil|CornerRadius=1.08mil|HoleSize=0mil|Usage=FLASHONLY|Rotation=180.000|XOffset=0mil|YOffset=0mil|HoleType=Round|Shape=RoundedRectangle|*
%AMROUNDEDRECTD55*
21,1,0.00866,0.02382,0,0,180.0*
21,1,0.00650,0.02598,0,0,180.0*
1,1,0.00217,-0.00325,0.01191*
1,1,0.00217,0.00325,0.01191*
1,1,0.00217,0.00325,-0.01191*
1,1,0.00217,-0.00325,-0.01191*
%
%ADD55ROUNDEDRECTD55*%
%ADD56R,0.04528X0.05118*%
%ADD57R,0.02362X0.01181*%
%ADD58R,0.01654X0.00866*%
G04:AMPARAMS|DCode=59|XSize=47.64mil|YSize=22.84mil|CornerRadius=2.85mil|HoleSize=0mil|Usage=FLASHONLY|Rotation=180.000|XOffset=0mil|YOffset=0mil|HoleType=Round|Shape=RoundedRectangle|*
%AMROUNDEDRECTD59*
21,1,0.04764,0.01713,0,0,180.0*
21,1,0.04193,0.02284,0,0,180.0*
1,1,0.00571,-0.02097,0.00856*
1,1,0.00571,0.02097,0.00856*
1,1,0.00571,0.02097,-0.00856*
1,1,0.00571,-0.02097,-0.00856*
%
%ADD59ROUNDEDRECTD59*%
%ADD60R,0.05807X0.01181*%
%ADD61R,0.01181X0.05807*%
%ADD62O,0.01181X0.05807*%
%ADD63R,0.01614X0.08937*%
%ADD64R,0.01614X0.08937*%
%ADD65R,0.10000X0.01693*%
%ADD66R,0.18504X0.01693*%
G04:AMPARAMS|DCode=67|XSize=25.59mil|YSize=15.75mil|CornerRadius=3.94mil|HoleSize=0mil|Usage=FLASHONLY|Rotation=90.000|XOffset=0mil|YOffset=0mil|HoleType=Round|Shape=RoundedRectangle|*
%AMROUNDEDRECTD67*
21,1,0.02559,0.00787,0,0,90.0*
21,1,0.01772,0.01575,0,0,90.0*
1,1,0.00787,0.00394,0.00886*
1,1,0.00787,0.00394,-0.00886*
1,1,0.00787,-0.00394,-0.00886*
1,1,0.00787,-0.00394,0.00886*
%
%ADD67ROUNDEDRECTD67*%
G04:AMPARAMS|DCode=68|XSize=25.59mil|YSize=11.81mil|CornerRadius=2.95mil|HoleSize=0mil|Usage=FLASHONLY|Rotation=90.000|XOffset=0mil|YOffset=0mil|HoleType=Round|Shape=RoundedRectangle|*
%AMROUNDEDRECTD68*
21,1,0.02559,0.00591,0,0,90.0*
21,1,0.01968,0.01181,0,0,90.0*
1,1,0.00591,0.00295,0.00984*
1,1,0.00591,0.00295,-0.00984*
1,1,0.00591,-0.00295,-0.00984*
1,1,0.00591,-0.00295,0.00984*
%
%ADD68ROUNDEDRECTD68*%
%ADD119C,0.03000*%
%ADD130R,0.03543X0.10630*%
%ADD131C,0.01200*%
%ADD132C,0.00630*%
%ADD133C,0.00687*%
%ADD134C,0.02000*%
%ADD135C,0.02026*%
%ADD136C,0.01790*%
%ADD137C,0.00900*%
%ADD138C,0.00700*%
%ADD139C,0.00766*%
%ADD140C,0.01500*%
%ADD141C,0.01081*%
%ADD142C,0.01514*%
%ADD143C,0.00984*%
%ADD144C,0.02500*%
%ADD145C,0.09095*%
%ADD146C,0.05118*%
%ADD147C,0.21260*%
%ADD148C,0.02600*%
%ADD149O,0.08268X0.03937*%
%ADD150O,0.07087X0.03937*%
%ADD151R,0.05937X0.05937*%
%ADD152C,0.05937*%
%ADD153O,0.10236X0.05118*%
%ADD154O,0.01968X0.03347*%
%ADD155C,0.02480*%
%ADD156O,0.04724X0.06496*%
%ADD157O,0.09055X0.04724*%
%ADD158C,0.11811*%
%ADD159C,0.04016*%
%ADD160C,0.01600*%
%ADD161C,0.02000*%
%ADD162C,0.02400*%
G36*
X145499Y230810D02*
Y224310D01*
X144999Y223811D01*
X133499D01*
Y230610D01*
X134199Y231311D01*
X144999D01*
X145499Y230810D01*
D02*
G37*
G36*
X302044Y225811D02*
Y223310D01*
X301044Y222310D01*
X222044D01*
X221044Y223310D01*
Y225811D01*
X222044Y226811D01*
X301044D01*
X302044Y225811D01*
D02*
G37*
G36*
X93500D02*
Y223310D01*
X92500Y222310D01*
X13500D01*
X12500Y223310D01*
Y225811D01*
X13500Y226811D01*
X92500D01*
X93500Y225811D01*
D02*
G37*
G36*
X163999Y222811D02*
Y219310D01*
X154999D01*
X154599Y218911D01*
X150999D01*
Y219811D01*
X154999Y223811D01*
X162999D01*
X163999Y222811D01*
D02*
G37*
G36*
X145999Y220310D02*
Y218911D01*
X142099D01*
X140499Y217311D01*
X133499D01*
Y221310D01*
X133999Y221811D01*
X144499D01*
X145999Y220310D01*
D02*
G37*
G36*
X232524Y208983D02*
X223524D01*
X223024Y209484D01*
Y216984D01*
X223524Y217483D01*
X232524D01*
Y208983D01*
D02*
G37*
G36*
X23980D02*
X14980D01*
X14480Y209484D01*
Y216984D01*
X14980Y217483D01*
X23980D01*
Y208983D01*
D02*
G37*
G36*
X61744Y207201D02*
X61952Y207063D01*
X62090Y206855D01*
X62139Y206610D01*
X62090Y206366D01*
X61952Y206158D01*
X61744Y206020D01*
X61500Y205973D01*
X61256Y206020D01*
X61186Y206066D01*
X61048Y206158D01*
X60910Y206366D01*
X60861Y206610D01*
X60910Y206855D01*
X61048Y207063D01*
X61186Y207154D01*
X61256Y207201D01*
X61500Y207250D01*
X61744Y207201D01*
D02*
G37*
G36*
X167500Y217311D02*
Y206311D01*
X166999Y205810D01*
X161499D01*
X160999Y206311D01*
Y217311D01*
X161499Y217811D01*
X167000D01*
X167500Y217311D01*
D02*
G37*
G36*
X154499Y230810D02*
Y225210D01*
X149799Y220511D01*
Y218310D01*
X150499Y217611D01*
X154199D01*
X155499Y216311D01*
X159499D01*
Y206311D01*
X158999Y205810D01*
X154999D01*
X154499Y206311D01*
Y215611D01*
X153099Y217010D01*
X150199D01*
X148999Y215810D01*
Y209810D01*
X147199D01*
Y222610D01*
X148499Y223910D01*
Y230810D01*
X148999Y231311D01*
X153999D01*
X154499Y230810D01*
D02*
G37*
G36*
X153199Y215311D02*
Y206210D01*
X152799Y205810D01*
X150999D01*
Y215710D01*
X152799D01*
X153199Y215311D01*
D02*
G37*
G36*
X146999Y207810D02*
X148999D01*
Y205810D01*
X148499Y205311D01*
X139499D01*
X137999Y206810D01*
Y210311D01*
X138999Y211311D01*
X143499D01*
X146999Y207810D01*
D02*
G37*
G36*
X190244Y203901D02*
X190452Y203763D01*
X190590Y203555D01*
X190639Y203310D01*
X190590Y203066D01*
X190452Y202858D01*
X190244Y202720D01*
X190000Y202673D01*
X189756Y202720D01*
X189686Y202766D01*
X189548Y202858D01*
X189410Y203066D01*
X189361Y203310D01*
X189410Y203555D01*
X189548Y203763D01*
X189686Y203854D01*
X189756Y203901D01*
X190000Y203951D01*
X190244Y203901D01*
D02*
G37*
G36*
X236024Y202025D02*
X234483Y200483D01*
X229024D01*
X228000Y201507D01*
Y206459D01*
X229024Y207484D01*
X233024D01*
X233524Y207983D01*
X234024Y208484D01*
Y217483D01*
X236024D01*
Y202025D01*
D02*
G37*
G36*
X27480Y205484D02*
Y200984D01*
X26980Y200483D01*
X25000D01*
X24500Y200984D01*
Y207464D01*
X24480Y207484D01*
X24980Y207983D01*
X25480Y208484D01*
Y217483D01*
X27480D01*
Y205484D01*
D02*
G37*
G36*
X202244Y200901D02*
X202452Y200763D01*
X202590Y200554D01*
X202639Y200310D01*
X202590Y200066D01*
X202452Y199858D01*
X202244Y199721D01*
X202000Y199672D01*
X201756Y199721D01*
X201686Y199767D01*
X201548Y199858D01*
X201410Y200066D01*
X201361Y200310D01*
X201410Y200554D01*
X201548Y200763D01*
X201686Y200854D01*
X201756Y200901D01*
X202000Y200951D01*
X202244Y200901D01*
D02*
G37*
G36*
X274294Y200400D02*
X274502Y200262D01*
X274640Y200055D01*
X274689Y199811D01*
X274640Y199566D01*
X274502Y199358D01*
X274294Y199221D01*
X274050Y199172D01*
X273806Y199221D01*
X273736Y199267D01*
X273598Y199358D01*
X273460Y199566D01*
X273411Y199811D01*
X273460Y200055D01*
X273598Y200262D01*
X273736Y200355D01*
X273806Y200400D01*
X274050Y200450D01*
X274294Y200400D01*
D02*
G37*
G36*
X248744Y199900D02*
X248952Y199762D01*
X249090Y199555D01*
X249139Y199311D01*
X249090Y199066D01*
X248952Y198858D01*
X248744Y198721D01*
X248500Y198672D01*
X248256Y198721D01*
X248186Y198767D01*
X248048Y198858D01*
X247910Y199066D01*
X247861Y199311D01*
X247910Y199555D01*
X248048Y199762D01*
X248186Y199855D01*
X248256Y199900D01*
X248500Y199951D01*
X248744Y199900D01*
D02*
G37*
G36*
X265544Y199400D02*
X265752Y199262D01*
X265890Y199055D01*
X265939Y198811D01*
X265890Y198566D01*
X265752Y198359D01*
X265544Y198221D01*
X265300Y198172D01*
X265056Y198221D01*
X264986Y198266D01*
X264848Y198359D01*
X264710Y198566D01*
X264661Y198811D01*
X264710Y199055D01*
X264848Y199262D01*
X264986Y199355D01*
X265056Y199400D01*
X265300Y199451D01*
X265544Y199400D01*
D02*
G37*
G36*
X56102Y198900D02*
X56310Y198763D01*
X56402Y198626D01*
X56448Y198555D01*
X56497Y198310D01*
X56448Y198066D01*
X56310Y197859D01*
X56102Y197721D01*
X55858Y197672D01*
X55614Y197721D01*
X55406Y197859D01*
X55268Y198066D01*
X55219Y198310D01*
X55268Y198555D01*
X55314Y198626D01*
X55406Y198763D01*
X55614Y198900D01*
X55858Y198951D01*
X56102Y198900D01*
D02*
G37*
G36*
X50602D02*
X50810Y198763D01*
X50902Y198626D01*
X50948Y198555D01*
X50997Y198310D01*
X50948Y198066D01*
X50810Y197859D01*
X50602Y197721D01*
X50358Y197672D01*
X50114Y197721D01*
X49906Y197859D01*
X49768Y198066D01*
X49719Y198310D01*
X49768Y198555D01*
X49814Y198626D01*
X49906Y198763D01*
X50114Y198900D01*
X50358Y198951D01*
X50602Y198900D01*
D02*
G37*
G36*
X190244Y197900D02*
X190452Y197763D01*
X190590Y197555D01*
X190639Y197310D01*
X190590Y197066D01*
X190452Y196859D01*
X190244Y196721D01*
X190000Y196672D01*
X189756Y196721D01*
X189686Y196766D01*
X189548Y196859D01*
X189410Y197066D01*
X189361Y197310D01*
X189410Y197555D01*
X189548Y197763D01*
X189686Y197854D01*
X189756Y197900D01*
X190000Y197950D01*
X190244Y197900D01*
D02*
G37*
G36*
X205782Y195501D02*
X205990Y195362D01*
X206128Y195155D01*
X206177Y194911D01*
X206128Y194667D01*
X205990Y194458D01*
X205782Y194320D01*
X205538Y194272D01*
X205294Y194320D01*
X205224Y194367D01*
X205086Y194458D01*
X204948Y194667D01*
X204899Y194911D01*
X204948Y195155D01*
X205086Y195362D01*
X205224Y195455D01*
X205294Y195501D01*
X205538Y195551D01*
X205782Y195501D01*
D02*
G37*
G36*
X215044Y194300D02*
X215252Y194162D01*
X215390Y193955D01*
X215439Y193710D01*
X215390Y193466D01*
X215252Y193259D01*
X215044Y193121D01*
X214800Y193072D01*
X214556Y193121D01*
X214486Y193166D01*
X214348Y193259D01*
X214210Y193466D01*
X214161Y193710D01*
X214210Y193955D01*
X214348Y194162D01*
X214486Y194255D01*
X214556Y194300D01*
X214800Y194351D01*
X215044Y194300D01*
D02*
G37*
G36*
X209544D02*
X209752Y194162D01*
X209890Y193955D01*
X209939Y193710D01*
X209890Y193466D01*
X209752Y193259D01*
X209544Y193121D01*
X209300Y193072D01*
X209056Y193121D01*
X208986Y193166D01*
X208848Y193259D01*
X208710Y193466D01*
X208661Y193710D01*
X208710Y193955D01*
X208848Y194162D01*
X208986Y194255D01*
X209056Y194300D01*
X209300Y194351D01*
X209544Y194300D01*
D02*
G37*
G36*
X70244Y193201D02*
X70452Y193062D01*
X70590Y192854D01*
X70639Y192611D01*
X70590Y192367D01*
X70452Y192158D01*
X70244Y192020D01*
X70000Y191972D01*
X69756Y192020D01*
X69686Y192067D01*
X69548Y192158D01*
X69410Y192367D01*
X69361Y192611D01*
X69410Y192854D01*
X69548Y193062D01*
X69686Y193155D01*
X69756Y193201D01*
X70000Y193251D01*
X70244Y193201D01*
D02*
G37*
G36*
Y187700D02*
X70452Y187563D01*
X70590Y187355D01*
X70639Y187110D01*
X70590Y186866D01*
X70452Y186659D01*
X70244Y186521D01*
X70000Y186472D01*
X69756Y186521D01*
X69686Y186566D01*
X69548Y186659D01*
X69410Y186866D01*
X69361Y187110D01*
X69410Y187355D01*
X69548Y187563D01*
X69686Y187654D01*
X69756Y187700D01*
X70000Y187750D01*
X70244Y187700D01*
D02*
G37*
G36*
X199844Y187690D02*
X200052Y187552D01*
X200144Y187415D01*
X200190Y187345D01*
X200240Y187101D01*
X200190Y186856D01*
X200052Y186648D01*
X199844Y186511D01*
X199600Y186461D01*
X199356Y186511D01*
X199148Y186648D01*
X199010Y186856D01*
X198962Y187101D01*
X199010Y187345D01*
X199056Y187415D01*
X199148Y187552D01*
X199356Y187690D01*
X199600Y187740D01*
X199844Y187690D01*
D02*
G37*
G36*
X165744Y183399D02*
X165952Y183262D01*
X166090Y183054D01*
X166139Y182809D01*
X166090Y182565D01*
X165952Y182358D01*
X165744Y182220D01*
X165500Y182171D01*
X165256Y182220D01*
X165186Y182265D01*
X165048Y182358D01*
X164910Y182565D01*
X164861Y182809D01*
X164910Y183054D01*
X165048Y183262D01*
X165186Y183353D01*
X165256Y183399D01*
X165500Y183449D01*
X165744Y183399D01*
D02*
G37*
G36*
X154244Y182901D02*
X154452Y182763D01*
X154590Y182554D01*
X154639Y182310D01*
X154590Y182067D01*
X154452Y181859D01*
X154244Y181720D01*
X154000Y181673D01*
X153756Y181720D01*
X153686Y181766D01*
X153548Y181859D01*
X153410Y182067D01*
X153361Y182310D01*
X153410Y182554D01*
X153548Y182763D01*
X153686Y182854D01*
X153756Y182901D01*
X154000Y182950D01*
X154244Y182901D01*
D02*
G37*
G36*
X147744D02*
X147952Y182763D01*
X148090Y182554D01*
X148139Y182310D01*
X148090Y182067D01*
X147952Y181859D01*
X147744Y181720D01*
X147500Y181673D01*
X147256Y181720D01*
X147186Y181766D01*
X147048Y181859D01*
X146910Y182067D01*
X146861Y182310D01*
X146910Y182554D01*
X147048Y182763D01*
X147186Y182854D01*
X147256Y182901D01*
X147500Y182950D01*
X147744Y182901D01*
D02*
G37*
G36*
X71744Y180482D02*
X71952Y180343D01*
X72090Y180136D01*
X72139Y179892D01*
X72090Y179648D01*
X72044Y179578D01*
X71952Y179439D01*
X71744Y179303D01*
X71500Y179253D01*
X71256Y179303D01*
X71048Y179439D01*
X70956Y179578D01*
X70910Y179648D01*
X70861Y179892D01*
X70910Y180136D01*
X71048Y180343D01*
X71256Y180482D01*
X71500Y180532D01*
X71744Y180482D01*
D02*
G37*
G36*
X159744Y180401D02*
X159952Y180262D01*
X160090Y180054D01*
X160139Y179811D01*
X160090Y179567D01*
X159952Y179358D01*
X159744Y179220D01*
X159500Y179173D01*
X159256Y179220D01*
X159186Y179267D01*
X159048Y179358D01*
X158910Y179567D01*
X158861Y179811D01*
X158910Y180054D01*
X159048Y180262D01*
X159186Y180354D01*
X159256Y180401D01*
X159500Y180450D01*
X159744Y180401D01*
D02*
G37*
G36*
X174917Y177850D02*
X175125Y177713D01*
X175263Y177505D01*
X175312Y177260D01*
X175263Y177016D01*
X175125Y176809D01*
X174917Y176671D01*
X174673Y176622D01*
X174429Y176671D01*
X174359Y176716D01*
X174221Y176809D01*
X174083Y177016D01*
X174034Y177260D01*
X174083Y177505D01*
X174221Y177713D01*
X174359Y177805D01*
X174429Y177850D01*
X174673Y177901D01*
X174917Y177850D01*
D02*
G37*
G36*
X160744D02*
X160952Y177713D01*
X161090Y177505D01*
X161139Y177260D01*
X161090Y177016D01*
X160952Y176809D01*
X160744Y176671D01*
X160500Y176622D01*
X160256Y176671D01*
X160186Y176716D01*
X160048Y176809D01*
X159910Y177016D01*
X159861Y177260D01*
X159910Y177505D01*
X160048Y177713D01*
X160186Y177805D01*
X160256Y177850D01*
X160500Y177901D01*
X160744Y177850D01*
D02*
G37*
G36*
X153544Y177401D02*
X153752Y177262D01*
X153890Y177055D01*
X153939Y176811D01*
X153890Y176567D01*
X153752Y176358D01*
X153544Y176221D01*
X153300Y176172D01*
X153056Y176221D01*
X152986Y176267D01*
X152848Y176358D01*
X152710Y176567D01*
X152661Y176811D01*
X152710Y177055D01*
X152848Y177262D01*
X152986Y177355D01*
X153056Y177401D01*
X153300Y177451D01*
X153544Y177401D01*
D02*
G37*
G36*
X23168Y176590D02*
X23376Y176453D01*
X23514Y176243D01*
X23563Y176000D01*
X23514Y175757D01*
X23468Y175686D01*
X23376Y175549D01*
X23168Y175410D01*
X22924Y175361D01*
X22680Y175410D01*
X22472Y175549D01*
X22380Y175686D01*
X22334Y175757D01*
X22285Y176000D01*
X22334Y176243D01*
X22472Y176453D01*
X22680Y176590D01*
X22924Y176639D01*
X23168Y176590D01*
D02*
G37*
G36*
X-3252Y176279D02*
X-3044Y176142D01*
X-2906Y175934D01*
X-2857Y175689D01*
X-2906Y175445D01*
X-3044Y175238D01*
X-3252Y175099D01*
X-3496Y175050D01*
X-3740Y175099D01*
X-3810Y175145D01*
X-3948Y175238D01*
X-4086Y175445D01*
X-4135Y175689D01*
X-4086Y175934D01*
X-3948Y176142D01*
X-3810Y176233D01*
X-3740Y176279D01*
X-3496Y176328D01*
X-3252Y176279D01*
D02*
G37*
G36*
X71744Y174820D02*
X71952Y174681D01*
X72090Y174474D01*
X72139Y174230D01*
X72090Y173986D01*
X72044Y173916D01*
X71952Y173777D01*
X71744Y173640D01*
X71500Y173591D01*
X71256Y173640D01*
X71048Y173777D01*
X70956Y173916D01*
X70910Y173986D01*
X70861Y174230D01*
X70910Y174474D01*
X71048Y174681D01*
X71256Y174820D01*
X71500Y174869D01*
X71744Y174820D01*
D02*
G37*
G36*
X41802Y168374D02*
X42010Y168236D01*
X42148Y168027D01*
X42197Y167783D01*
X42148Y167540D01*
X42102Y167469D01*
X42010Y167332D01*
X41802Y167193D01*
X41558Y167143D01*
X41314Y167193D01*
X41106Y167332D01*
X41014Y167469D01*
X40968Y167540D01*
X40919Y167783D01*
X40968Y168027D01*
X41106Y168236D01*
X41314Y168374D01*
X41558Y168422D01*
X41802Y168374D01*
D02*
G37*
G36*
X36814Y168283D02*
X37022Y168146D01*
X37114Y168007D01*
X37160Y167938D01*
X37209Y167693D01*
X37160Y167448D01*
X37022Y167242D01*
X36814Y167103D01*
X36570Y167054D01*
X36326Y167103D01*
X36118Y167242D01*
X35980Y167448D01*
X35931Y167693D01*
X35980Y167938D01*
X36026Y168007D01*
X36118Y168146D01*
X36326Y168283D01*
X36570Y168332D01*
X36814Y168283D01*
D02*
G37*
G36*
X22407D02*
X22615Y168146D01*
X22707Y168007D01*
X22753Y167938D01*
X22802Y167693D01*
X22753Y167448D01*
X22615Y167242D01*
X22407Y167103D01*
X22163Y167054D01*
X21919Y167103D01*
X21711Y167242D01*
X21573Y167448D01*
X21524Y167693D01*
X21573Y167938D01*
X21619Y168007D01*
X21711Y168146D01*
X21919Y168283D01*
X22163Y168332D01*
X22407Y168283D01*
D02*
G37*
G36*
X77480Y171310D02*
Y169983D01*
Y167983D01*
X76980Y167483D01*
X69480D01*
X67997Y166000D01*
X67000D01*
X66480Y166521D01*
Y167291D01*
X70500Y171310D01*
X71500Y172310D01*
X76480D01*
X77480Y171310D01*
D02*
G37*
G36*
X41802Y162710D02*
X42010Y162574D01*
X42148Y162364D01*
X42197Y162120D01*
X42148Y161878D01*
X42102Y161806D01*
X42010Y161669D01*
X41802Y161531D01*
X41558Y161481D01*
X41314Y161531D01*
X41106Y161669D01*
X41014Y161806D01*
X40968Y161878D01*
X40919Y162120D01*
X40968Y162364D01*
X41106Y162574D01*
X41314Y162710D01*
X41558Y162760D01*
X41802Y162710D01*
D02*
G37*
G36*
X36814Y162620D02*
X37022Y162484D01*
X37114Y162346D01*
X37160Y162276D01*
X37209Y162031D01*
X37160Y161787D01*
X37022Y161580D01*
X36814Y161442D01*
X36570Y161391D01*
X36326Y161442D01*
X36118Y161580D01*
X35980Y161787D01*
X35931Y162031D01*
X35980Y162276D01*
X36026Y162346D01*
X36118Y162484D01*
X36326Y162620D01*
X36570Y162671D01*
X36814Y162620D01*
D02*
G37*
G36*
X22407D02*
X22615Y162484D01*
X22707Y162346D01*
X22753Y162276D01*
X22802Y162031D01*
X22753Y161787D01*
X22615Y161580D01*
X22407Y161442D01*
X22163Y161391D01*
X21919Y161442D01*
X21711Y161580D01*
X21573Y161787D01*
X21524Y162031D01*
X21573Y162276D01*
X21619Y162346D01*
X21711Y162484D01*
X21919Y162620D01*
X22163Y162671D01*
X22407Y162620D01*
D02*
G37*
G36*
X89818Y162341D02*
X89888Y162295D01*
X90025Y162203D01*
X90164Y161995D01*
X90213Y161750D01*
X90164Y161506D01*
X90025Y161299D01*
X89888Y161206D01*
X89818Y161161D01*
X89573Y161112D01*
X89329Y161161D01*
X89121Y161299D01*
X88984Y161506D01*
X88935Y161750D01*
X88984Y161995D01*
X89121Y162203D01*
X89329Y162341D01*
X89573Y162390D01*
X89818Y162341D01*
D02*
G37*
G36*
Y156679D02*
X89888Y156633D01*
X90025Y156542D01*
X90164Y156333D01*
X90213Y156089D01*
X90164Y155845D01*
X90025Y155638D01*
X89888Y155545D01*
X89818Y155499D01*
X89573Y155450D01*
X89329Y155499D01*
X89121Y155638D01*
X88984Y155845D01*
X88935Y156089D01*
X88984Y156333D01*
X89121Y156542D01*
X89329Y156679D01*
X89573Y156728D01*
X89818Y156679D01*
D02*
G37*
G36*
X71833D02*
X72041Y156542D01*
X72179Y156333D01*
X72228Y156089D01*
X72179Y155845D01*
X72133Y155775D01*
X72041Y155638D01*
X71833Y155499D01*
X71589Y155450D01*
X71345Y155499D01*
X71137Y155638D01*
X71045Y155775D01*
X70999Y155845D01*
X70950Y156089D01*
X70999Y156333D01*
X71137Y156542D01*
X71345Y156679D01*
X71589Y156728D01*
X71833Y156679D01*
D02*
G37*
G36*
X-4252Y155780D02*
X-4044Y155641D01*
X-3906Y155433D01*
X-3857Y155190D01*
X-3906Y154946D01*
X-4044Y154737D01*
X-4252Y154598D01*
X-4496Y154551D01*
X-4740Y154598D01*
X-4810Y154646D01*
X-4948Y154737D01*
X-5086Y154946D01*
X-5135Y155190D01*
X-5086Y155433D01*
X-4948Y155641D01*
X-4810Y155734D01*
X-4740Y155780D01*
X-4496Y155827D01*
X-4252Y155780D01*
D02*
G37*
G36*
X146623Y154942D02*
X146831Y154804D01*
X146969Y154596D01*
X147018Y154352D01*
X146969Y154108D01*
X146831Y153900D01*
X146623Y153762D01*
X146379Y153714D01*
X146135Y153762D01*
X146065Y153808D01*
X145927Y153900D01*
X145789Y154108D01*
X145740Y154352D01*
X145789Y154596D01*
X145927Y154804D01*
X146065Y154896D01*
X146135Y154942D01*
X146379Y154992D01*
X146623Y154942D01*
D02*
G37*
G36*
X36154Y151806D02*
X36362Y151669D01*
X36500Y151461D01*
X36549Y151216D01*
X36500Y150972D01*
X36362Y150765D01*
X36154Y150626D01*
X35910Y150577D01*
X35666Y150626D01*
X35596Y150672D01*
X35458Y150765D01*
X35320Y150972D01*
X35271Y151216D01*
X35320Y151461D01*
X35458Y151669D01*
X35596Y151760D01*
X35666Y151806D01*
X35910Y151855D01*
X36154Y151806D01*
D02*
G37*
G36*
X23192Y151552D02*
X23400Y151415D01*
X23538Y151207D01*
X23587Y150962D01*
X23538Y150718D01*
X23400Y150511D01*
X23192Y150373D01*
X22948Y150323D01*
X22704Y150373D01*
X22634Y150418D01*
X22496Y150511D01*
X22358Y150718D01*
X22309Y150962D01*
X22358Y151207D01*
X22496Y151415D01*
X22634Y151506D01*
X22704Y151552D01*
X22948Y151602D01*
X23192Y151552D01*
D02*
G37*
G36*
X71833Y151016D02*
X72041Y150880D01*
X72179Y150671D01*
X72228Y150427D01*
X72179Y150183D01*
X72133Y150112D01*
X72041Y149976D01*
X71833Y149838D01*
X71589Y149787D01*
X71345Y149838D01*
X71137Y149976D01*
X71045Y150112D01*
X70999Y150183D01*
X70950Y150427D01*
X70999Y150671D01*
X71137Y150880D01*
X71345Y151016D01*
X71589Y151067D01*
X71833Y151016D01*
D02*
G37*
G36*
X241480Y153483D02*
Y150984D01*
X239980Y149484D01*
X229980D01*
X229480Y149984D01*
Y153983D01*
X229980Y154483D01*
X240480D01*
X241480Y153483D01*
D02*
G37*
G36*
X297000Y177311D02*
X301000Y173310D01*
X307000D01*
X309500Y170810D01*
Y151311D01*
X307500Y149311D01*
X304000D01*
X302500Y150811D01*
Y153311D01*
X305500Y156310D01*
Y158310D01*
X301500Y162311D01*
Y164811D01*
X304500Y167810D01*
Y169810D01*
X303500Y170810D01*
X297000D01*
X292500Y175311D01*
Y189311D01*
X297000D01*
Y177311D01*
D02*
G37*
G36*
X48500Y145310D02*
Y144310D01*
X44673Y140483D01*
X41000D01*
Y143312D01*
X43500Y145810D01*
X48000D01*
X48500Y145310D01*
D02*
G37*
G36*
X40000Y143310D02*
Y136811D01*
X36000D01*
Y140811D01*
X35307D01*
X34980Y140483D01*
X32480D01*
X31980Y140983D01*
X21980D01*
X21480Y141483D01*
Y143983D01*
X21980Y144483D01*
X38827D01*
X40000Y143310D01*
D02*
G37*
G36*
X34787Y138484D02*
X31980D01*
X31480Y137984D01*
Y136984D01*
X30980Y136484D01*
X21980D01*
X21480Y136984D01*
Y138984D01*
X21980Y139483D01*
X34787D01*
Y138484D01*
D02*
G37*
G36*
X59000Y146810D02*
Y145810D01*
X52000Y138811D01*
Y133310D01*
X43500D01*
X40980Y135831D01*
Y139483D01*
X45483D01*
X50655Y144656D01*
X52845D01*
X56500Y148310D01*
X57500D01*
X59000Y146810D01*
D02*
G37*
G36*
X220000Y137311D02*
X219000Y136311D01*
Y129101D01*
X218210Y128311D01*
X216090D01*
X215500Y128901D01*
Y138500D01*
X216310Y139311D01*
X220000D01*
Y137311D01*
D02*
G37*
G36*
X71100Y139400D02*
Y137938D01*
X71100Y137938D01*
Y127410D01*
X69500Y125811D01*
X63000D01*
X62000Y126811D01*
Y139811D01*
X63000Y140811D01*
X69690D01*
X71100Y139400D01*
D02*
G37*
G36*
X231000Y125838D02*
Y118837D01*
X230000Y117838D01*
X224000D01*
X223000Y118837D01*
Y125838D01*
X223500Y126338D01*
X230500D01*
X231000Y125838D01*
D02*
G37*
G36*
X167000Y126311D02*
X174000D01*
X175500Y124811D01*
Y116812D01*
X173000Y114312D01*
X160689D01*
X155500Y119501D01*
X146500D01*
X143500Y122501D01*
X137690D01*
X125000Y109811D01*
X101500Y109810D01*
X94500Y116812D01*
Y136001D01*
X101310Y142810D01*
X150500D01*
X167000Y126311D01*
D02*
G37*
G36*
X273500Y125900D02*
X273882Y125519D01*
Y125519D01*
X274853Y124547D01*
X274857Y124143D01*
X276500Y122501D01*
Y119311D01*
X277000Y118812D01*
X279500D01*
X280000Y118312D01*
Y115812D01*
X278145Y113956D01*
X276700D01*
X276455Y114200D01*
X274611D01*
X274000Y114812D01*
Y121201D01*
X273400Y121800D01*
Y123600D01*
X270500Y126500D01*
Y132310D01*
X273500D01*
Y125900D01*
D02*
G37*
G36*
X272500Y123310D02*
Y110811D01*
X272000Y110311D01*
X270000D01*
X269300Y111012D01*
Y123511D01*
X268500Y124311D01*
Y125811D01*
X270000D01*
X272500Y123310D01*
D02*
G37*
G36*
X284000Y114812D02*
Y110311D01*
X283500Y109811D01*
X275000D01*
X274000Y110811D01*
Y112812D01*
X274189Y113001D01*
X278400D01*
X280711Y115312D01*
X283500D01*
X284000Y114812D01*
D02*
G37*
G36*
X231000Y115997D02*
Y108996D01*
X230000Y107996D01*
X224000D01*
X223000Y108996D01*
Y115997D01*
X223500Y116497D01*
X230500D01*
X231000Y115997D01*
D02*
G37*
G36*
X265000Y112812D02*
Y108311D01*
Y106811D01*
X264500Y106312D01*
X259500D01*
X258500Y107311D01*
Y108311D01*
Y109311D01*
X259000Y109811D01*
X262000D01*
X262500Y110311D01*
Y112812D01*
X263000Y113312D01*
X264500D01*
X265000Y112812D01*
D02*
G37*
G36*
X220680Y121384D02*
X215388Y116093D01*
X191688D01*
X175497Y99901D01*
X174000D01*
X173480Y100420D01*
Y102983D01*
X191022Y120526D01*
X211022D01*
X216580Y126084D01*
X220680D01*
Y121384D01*
D02*
G37*
G36*
X221180Y109992D02*
X218781Y107592D01*
X190893D01*
X182784Y99484D01*
X180906Y99484D01*
X180784D01*
X177300Y96000D01*
X176619D01*
X176552Y96119D01*
Y98557D01*
X190022Y112025D01*
X213015D01*
X217300Y116312D01*
X221180D01*
Y109992D01*
D02*
G37*
G36*
X317000Y97311D02*
Y78811D01*
X315000Y76811D01*
X308156D01*
X308152Y76831D01*
X307644Y77591D01*
X306883Y78100D01*
X305985Y78278D01*
X305088Y78100D01*
X304327Y77591D01*
X303819Y76831D01*
X303815Y76811D01*
X299500D01*
X299152Y76463D01*
X298903D01*
Y76214D01*
X298000Y75311D01*
X295000D01*
X294000Y76311D01*
Y78999D01*
X294013Y79007D01*
X294018Y79011D01*
X294023Y79014D01*
X294159Y79151D01*
X294296Y79287D01*
X294299Y79292D01*
X294303Y79297D01*
X294441Y79506D01*
X294515Y79686D01*
X294590Y79867D01*
X294598Y79909D01*
X295000Y80311D01*
X298000D01*
X298903Y79408D01*
Y79221D01*
X299090D01*
X299500Y78811D01*
X304000D01*
X304411Y79221D01*
X304603D01*
Y79414D01*
X305500Y80311D01*
X311000D01*
X313000Y82311D01*
Y92311D01*
X311000Y94311D01*
X305000D01*
X304603Y94708D01*
Y95401D01*
X303910D01*
X303500Y95811D01*
X297500D01*
X297000Y96311D01*
Y97311D01*
X297500Y97811D01*
X303815D01*
X303819Y97791D01*
X304327Y97031D01*
X305088Y96522D01*
X305985Y96344D01*
X306883Y96522D01*
X307644Y97031D01*
X308152Y97791D01*
X308156Y97811D01*
X316500D01*
X317000Y97311D01*
D02*
G37*
G36*
X221180Y99992D02*
X215873Y94683D01*
X181700D01*
X181246Y95137D01*
X179437D01*
X179100Y95473D01*
Y96182D01*
X181330Y98484D01*
X207873D01*
X215773Y106384D01*
X221180D01*
Y99992D01*
D02*
G37*
G36*
X244600Y96604D02*
X243980Y95983D01*
Y93011D01*
X241280D01*
X240980Y93312D01*
Y99291D01*
X241640Y99951D01*
X244600D01*
Y96604D01*
D02*
G37*
G36*
X297944Y91900D02*
X298014Y91855D01*
X298152Y91764D01*
X298290Y91554D01*
X298339Y91312D01*
X298290Y91067D01*
X298152Y90859D01*
X298014Y90768D01*
X297944Y90721D01*
X297700Y90672D01*
X297456Y90721D01*
X297248Y90859D01*
X297110Y91067D01*
X297061Y91312D01*
X297110Y91554D01*
X297248Y91764D01*
X297456Y91900D01*
X297700Y91949D01*
X297944Y91900D01*
D02*
G37*
G36*
X221180Y90983D02*
X219080Y88884D01*
X205480D01*
X203682Y87086D01*
X183113D01*
X180989Y89211D01*
X180989D01*
X180315Y89885D01*
Y93449D01*
X181214D01*
X183979Y90684D01*
X199304D01*
X199417Y90571D01*
X201331Y92484D01*
X216680D01*
X219280Y95083D01*
Y96483D01*
X221180D01*
Y90983D01*
D02*
G37*
G36*
X282980Y97521D02*
X284980Y95521D01*
Y92330D01*
X285500Y91812D01*
X290000D01*
X290500Y91312D01*
Y90311D01*
X289673Y89483D01*
X282980D01*
X282480Y89983D01*
Y99984D01*
X282980D01*
Y97521D01*
D02*
G37*
G36*
X249480Y97518D02*
X251480Y95518D01*
Y92911D01*
Y92330D01*
X252000Y91812D01*
X256000D01*
X256500Y91312D01*
Y89811D01*
X256173Y89483D01*
X249480D01*
X248848Y90117D01*
Y99984D01*
X249480D01*
Y97518D01*
D02*
G37*
G36*
X281480Y97483D02*
Y96483D01*
X281500Y95404D01*
Y89711D01*
X281200Y89411D01*
X274700D01*
X274500Y89612D01*
Y91375D01*
X274801Y91676D01*
X278366D01*
X278980Y92291D01*
Y95680D01*
X280800Y97500D01*
Y99984D01*
X281480D01*
Y97483D01*
D02*
G37*
G36*
X239000Y99411D02*
Y93812D01*
X241000Y91812D01*
X245100D01*
X245480Y92191D01*
Y95569D01*
X247257Y97346D01*
Y99984D01*
X247980D01*
Y97483D01*
Y96483D01*
X248000Y95404D01*
Y89711D01*
X247700Y89411D01*
X235039D01*
X235014Y89420D01*
X234889Y89460D01*
X234762Y89489D01*
X234632Y89505D01*
X234501Y89512D01*
X234500D01*
X234369Y89505D01*
X234239Y89489D01*
X234112Y89460D01*
X233987Y89420D01*
X233866Y89371D01*
X233784Y89329D01*
X233751Y89311D01*
X233000D01*
X232500Y89811D01*
Y97312D01*
X231657Y98154D01*
X224000D01*
X223000Y99154D01*
Y106154D01*
X223500Y106653D01*
X231757D01*
X239000Y99411D01*
D02*
G37*
G36*
X231000Y96311D02*
Y89311D01*
X230000Y88311D01*
X224000D01*
X223000Y89311D01*
Y96311D01*
X223500Y96811D01*
X230500D01*
X231000Y96311D01*
D02*
G37*
G36*
X52460Y105315D02*
X56000Y101775D01*
Y92312D01*
Y90812D01*
X53500Y88311D01*
X52008D01*
X52004Y88315D01*
X43346D01*
X43000Y88661D01*
Y105661D01*
X43500Y106161D01*
X51614D01*
X52460Y105315D01*
D02*
G37*
G36*
X40980Y104732D02*
Y88731D01*
X40232Y87984D01*
X30228D01*
X29480Y88731D01*
Y104312D01*
X30901Y105731D01*
X39980D01*
X40980Y104732D01*
D02*
G37*
G36*
X311344Y87901D02*
X311414Y87854D01*
X311552Y87764D01*
X311690Y87555D01*
X311739Y87312D01*
X311690Y87068D01*
X311552Y86858D01*
X311414Y86768D01*
X311344Y86721D01*
X311100Y86673D01*
X310856Y86721D01*
X310648Y86858D01*
X310510Y87068D01*
X310461Y87312D01*
X310510Y87555D01*
X310648Y87764D01*
X310856Y87901D01*
X311100Y87950D01*
X311344Y87901D01*
D02*
G37*
G36*
X291244D02*
X291314Y87854D01*
X291452Y87764D01*
X291590Y87555D01*
X291639Y87312D01*
X291590Y87068D01*
X291452Y86858D01*
X291314Y86768D01*
X291244Y86721D01*
X291000Y86673D01*
X290756Y86721D01*
X290548Y86858D01*
X290410Y87068D01*
X290361Y87312D01*
X290410Y87555D01*
X290548Y87764D01*
X290756Y87901D01*
X291000Y87950D01*
X291244Y87901D01*
D02*
G37*
G36*
X295744Y85400D02*
X295814Y85355D01*
X295952Y85264D01*
X296090Y85054D01*
X296139Y84812D01*
X296090Y84567D01*
X295952Y84359D01*
X295814Y84267D01*
X295744Y84222D01*
X295500Y84172D01*
X295256Y84222D01*
X295048Y84359D01*
X294910Y84567D01*
X294861Y84812D01*
X294910Y85054D01*
X295048Y85264D01*
X295256Y85400D01*
X295500Y85449D01*
X295744Y85400D01*
D02*
G37*
G36*
X27960Y105661D02*
Y86272D01*
X25000Y83311D01*
X15000D01*
X14000Y84311D01*
Y104812D01*
X15350Y106161D01*
X27460D01*
X27960Y105661D01*
D02*
G37*
G36*
X272980Y83483D02*
Y80984D01*
X272327Y80330D01*
X265700D01*
Y82704D01*
X267480Y84483D01*
X271980D01*
X272980Y83483D01*
D02*
G37*
G36*
X293244Y80901D02*
X293314Y80854D01*
X293452Y80764D01*
X293590Y80554D01*
X293639Y80312D01*
X293590Y80067D01*
X293452Y79858D01*
X293314Y79768D01*
X293244Y79721D01*
X293000Y79672D01*
X292756Y79721D01*
X292548Y79858D01*
X292410Y80067D01*
X292361Y80312D01*
X292410Y80554D01*
X292548Y80764D01*
X292756Y80901D01*
X293000Y80949D01*
X293244Y80901D01*
D02*
G37*
G36*
X326500Y109464D02*
Y64504D01*
X325307Y63311D01*
X300000D01*
X298500Y64811D01*
Y74311D01*
X299500Y75311D01*
X303764D01*
X303819Y75036D01*
X304327Y74275D01*
X305088Y73766D01*
X305985Y73588D01*
X306883Y73766D01*
X307644Y74275D01*
X308152Y75036D01*
X308207Y75311D01*
X318500D01*
Y96311D01*
X318020Y96791D01*
Y97311D01*
X317942Y97701D01*
X317721Y98032D01*
X317221Y98532D01*
X316890Y98753D01*
X316500Y98830D01*
X308302D01*
X308152Y99586D01*
X307644Y100347D01*
X306883Y100856D01*
X305985Y101034D01*
X305088Y100856D01*
X304327Y100347D01*
X303819Y99586D01*
X303669Y98830D01*
X299481D01*
X298500Y99811D01*
Y108811D01*
X300173Y110484D01*
X325480D01*
X326500Y109464D01*
D02*
G37*
G36*
X263887Y77667D02*
X263895Y77495D01*
Y75207D01*
X262000Y73312D01*
X259500D01*
X258000Y74812D01*
Y77811D01*
X259000Y78812D01*
X262744D01*
X263887Y77667D01*
D02*
G37*
G36*
X233400Y75357D02*
Y69556D01*
X230911Y67068D01*
X228996D01*
X228500Y67564D01*
Y76500D01*
X228656Y76657D01*
X232100D01*
X233400Y75357D01*
D02*
G37*
G36*
X178921Y79172D02*
X178925Y79085D01*
X178937Y79000D01*
X178955Y78914D01*
X178982Y78830D01*
X179015Y78750D01*
X179055Y78672D01*
X179102Y78600D01*
X179155Y78531D01*
X179214Y78465D01*
X179279Y78407D01*
X179348Y78354D01*
X179414Y78312D01*
X179619Y78106D01*
X181595D01*
X181901Y77801D01*
X195700D01*
X200500Y73001D01*
Y68001D01*
X199511Y67011D01*
X191200D01*
X190600Y67611D01*
Y72412D01*
X190000Y73011D01*
X188427Y74584D01*
X182900D01*
X180628Y76856D01*
X180255D01*
X178537Y78574D01*
X178525Y78597D01*
X178508Y78629D01*
Y78860D01*
X178515Y78882D01*
X178537Y78966D01*
X178551Y79052D01*
X178558Y79138D01*
Y79172D01*
Y81811D01*
X178921D01*
Y79172D01*
D02*
G37*
G36*
X177346D02*
X177350Y79085D01*
X177362Y79000D01*
X177380Y78914D01*
X177390Y78882D01*
X177396Y78860D01*
Y78320D01*
X177400Y78316D01*
Y78297D01*
X182286Y73412D01*
X187600D01*
X188700Y72312D01*
Y67511D01*
X188000Y66812D01*
X180200D01*
X179400Y67611D01*
Y72812D01*
X178500Y73712D01*
Y75011D01*
X176700Y76811D01*
Y78475D01*
X176758Y78540D01*
X176810Y78610D01*
X176856Y78685D01*
X176895Y78763D01*
X176928Y78843D01*
X176953Y78927D01*
X176970Y79013D01*
X176981Y79100D01*
X176983Y79172D01*
Y81811D01*
X177346D01*
Y79172D01*
D02*
G37*
G36*
X175700Y76397D02*
X177500Y74597D01*
Y68310D01*
X176000Y66812D01*
X169000D01*
X168500Y67312D01*
Y69311D01*
Y71112D01*
X172944Y75556D01*
Y77500D01*
X174000Y78556D01*
Y81811D01*
X175700D01*
Y76397D01*
D02*
G37*
G36*
X289897Y79057D02*
X290794Y78878D01*
X291509Y79021D01*
X291929Y78753D01*
X292000Y78662D01*
Y76311D01*
X295000Y73312D01*
Y65812D01*
X288500D01*
X286000Y68312D01*
Y78812D01*
X286500Y79312D01*
X289516D01*
X289897Y79057D01*
D02*
G37*
G36*
X210000Y64311D02*
Y59311D01*
X208189Y57500D01*
X195811D01*
X190500Y62811D01*
Y64311D01*
X191000Y64811D01*
X209500D01*
X210000Y64311D01*
D02*
G37*
G36*
X191000Y60312D02*
Y58311D01*
X190189Y57500D01*
X180500D01*
X179500Y58500D01*
Y64311D01*
X180000Y64811D01*
X186500D01*
X191000Y60312D01*
D02*
G37*
G36*
X177500Y64311D02*
Y58500D01*
X176500Y57500D01*
X169500D01*
X168500Y58500D01*
Y64811D01*
X169000Y65311D01*
X176500D01*
X177500Y64311D01*
D02*
G37*
G36*
X233500Y63001D02*
Y58000D01*
X233000Y57500D01*
Y55001D01*
X232311Y54312D01*
X229189D01*
X228500Y55001D01*
Y63100D01*
X229100Y63700D01*
Y64000D01*
X229400Y64301D01*
X232200D01*
X233500Y63001D01*
D02*
G37*
G36*
X282500Y71811D02*
Y68812D01*
X287500Y63811D01*
X294500D01*
X297500Y60812D01*
Y51311D01*
X295500Y49312D01*
X287000D01*
X285000Y51311D01*
Y57311D01*
X282000Y60312D01*
X279000D01*
X273000Y66312D01*
Y73312D01*
X281000D01*
X282500Y71811D01*
D02*
G37*
G36*
X271500Y77900D02*
Y65311D01*
X275500Y61312D01*
Y50811D01*
X274000Y49312D01*
X263500D01*
X261000Y51811D01*
Y69500D01*
X266200Y74700D01*
Y78400D01*
X271000D01*
X271500Y77900D01*
D02*
G37*
G36*
X293960Y41157D02*
Y24157D01*
X288960D01*
Y41157D01*
X289460Y41657D01*
X293460D01*
X293960Y41157D01*
D02*
G37*
G36*
X283960D02*
Y24157D01*
X278960D01*
Y41157D01*
X279460Y41657D01*
X283460D01*
X283960Y41157D01*
D02*
G37*
G36*
X214960D02*
Y24157D01*
X209960D01*
Y41157D01*
X210460Y41657D01*
X214460D01*
X214960Y41157D01*
D02*
G37*
G36*
X204960D02*
Y24157D01*
X199960D01*
Y41157D01*
X200460Y41657D01*
X204460D01*
X204960Y41157D01*
D02*
G37*
G36*
X145960D02*
Y24157D01*
X140960D01*
Y41157D01*
X141460Y41657D01*
X145460D01*
X145960Y41157D01*
D02*
G37*
G36*
X76960D02*
Y24157D01*
X71960D01*
Y41157D01*
X72460Y41657D01*
X76460D01*
X76960Y41157D01*
D02*
G37*
G36*
X303000Y42911D02*
Y6311D01*
X301500Y4811D01*
X289500D01*
Y18312D01*
X294500D01*
X297900Y21711D01*
Y39911D01*
X295000Y42812D01*
X265000D01*
X262000Y39812D01*
X229500D01*
X228500Y40811D01*
Y43312D01*
X229500Y44311D01*
X256500D01*
X259000Y46812D01*
X299100D01*
X303000Y42911D01*
D02*
G37*
G36*
X273960Y4660D02*
X267500D01*
X265500Y6661D01*
Y36312D01*
X267500Y38311D01*
X273960D01*
Y4660D01*
D02*
G37*
G36*
X145960Y21662D02*
Y4660D01*
X140960D01*
Y21662D01*
X141460Y22162D01*
X145460D01*
X145960Y21662D01*
D02*
G37*
G36*
X135960D02*
Y4660D01*
X130960D01*
Y21662D01*
X131460Y22162D01*
X135460D01*
X135960Y21662D01*
D02*
G37*
G36*
X76960D02*
Y4660D01*
X71960D01*
Y21662D01*
X72460Y22162D01*
X76460D01*
X76960Y21662D01*
D02*
G37*
G36*
X47960D02*
Y4660D01*
X42960D01*
Y21662D01*
X43460Y22162D01*
X47460D01*
X47960Y21662D01*
D02*
G37*
G36*
X27960D02*
Y4660D01*
X22960D01*
Y21662D01*
X23460Y22162D01*
X27460D01*
X27960Y21662D01*
D02*
G37*
G36*
X136000Y38311D02*
Y24812D01*
X135500Y24311D01*
X129000D01*
X128000Y23312D01*
Y19311D01*
Y2310D01*
X127500Y1811D01*
X123500D01*
X123000Y2310D01*
Y19311D01*
Y37811D01*
X124000Y38811D01*
X135500D01*
X136000Y38311D01*
D02*
G37*
G36*
X284000Y1811D02*
X283500Y1311D01*
X279500D01*
X279000Y1811D01*
Y18812D01*
X284000D01*
Y1811D01*
D02*
G37*
G36*
X215000D02*
X214500Y1311D01*
X210500D01*
X210000Y1811D01*
Y18812D01*
X215000D01*
Y1811D01*
D02*
G37*
G36*
X205000D02*
X204500Y1311D01*
X200500D01*
X200000Y1811D01*
Y18812D01*
X205000D01*
Y1811D01*
D02*
G37*
G36*
X66960Y41157D02*
Y18812D01*
X67000D01*
Y1811D01*
X66500Y1311D01*
X62500D01*
X62000Y1811D01*
Y18312D01*
X61960D01*
Y41157D01*
X62460Y41657D01*
X66460D01*
X66960Y41157D01*
D02*
G37*
G36*
X38000Y1811D02*
X37500Y1311D01*
X33500D01*
X33000Y1811D01*
Y18812D01*
X38000D01*
Y1811D01*
D02*
G37*
G36*
X153093Y-33103D02*
Y-35786D01*
X151798D01*
Y-33094D01*
X149458Y-29385D01*
X150966D01*
X152474Y-31919D01*
X153944Y-29385D01*
X155434D01*
X153093Y-33103D01*
D02*
G37*
G36*
X165026Y-29394D02*
X165128D01*
X165229Y-29403D01*
X165350D01*
X165590Y-29431D01*
X165840Y-29459D01*
X166071Y-29505D01*
X166173Y-29533D01*
X166265Y-29561D01*
X166275D01*
X166284Y-29570D01*
X166339Y-29598D01*
X166423Y-29644D01*
X166534Y-29699D01*
X166654Y-29792D01*
X166774Y-29894D01*
X166894Y-30023D01*
X167005Y-30180D01*
Y-30190D01*
X167015Y-30199D01*
X167033Y-30227D01*
X167052Y-30254D01*
X167098Y-30347D01*
X167153Y-30467D01*
X167200Y-30615D01*
X167246Y-30782D01*
X167283Y-30976D01*
X167292Y-31179D01*
Y-31189D01*
Y-31207D01*
Y-31253D01*
X167283Y-31300D01*
Y-31364D01*
X167274Y-31429D01*
X167237Y-31596D01*
X167190Y-31790D01*
X167116Y-31984D01*
X167005Y-32188D01*
X166941Y-32280D01*
X166867Y-32373D01*
X166857Y-32382D01*
X166848Y-32391D01*
X166820Y-32419D01*
X166783Y-32447D01*
X166746Y-32484D01*
X166691Y-32530D01*
X166626Y-32576D01*
X166552Y-32622D01*
X166469Y-32678D01*
X166367Y-32724D01*
X166265Y-32770D01*
X166154Y-32817D01*
X166025Y-32863D01*
X165895Y-32900D01*
X165757Y-32937D01*
X165599Y-32965D01*
X165609D01*
X165618Y-32974D01*
X165673Y-33011D01*
X165747Y-33057D01*
X165840Y-33122D01*
X165951Y-33205D01*
X166062Y-33288D01*
X166182Y-33390D01*
X166284Y-33501D01*
X166293Y-33510D01*
X166339Y-33557D01*
X166395Y-33631D01*
X166478Y-33742D01*
X166589Y-33880D01*
X166645Y-33973D01*
X166709Y-34065D01*
X166783Y-34167D01*
X166857Y-34278D01*
X166941Y-34408D01*
X167024Y-34537D01*
X167810Y-35786D01*
X166256D01*
X165331Y-34398D01*
X165322Y-34389D01*
X165313Y-34361D01*
X165285Y-34324D01*
X165248Y-34278D01*
X165211Y-34223D01*
X165165Y-34149D01*
X165063Y-34001D01*
X164943Y-33834D01*
X164832Y-33686D01*
X164730Y-33547D01*
X164684Y-33501D01*
X164647Y-33455D01*
X164637Y-33446D01*
X164619Y-33427D01*
X164582Y-33390D01*
X164536Y-33344D01*
X164471Y-33307D01*
X164406Y-33261D01*
X164332Y-33224D01*
X164258Y-33187D01*
X164249D01*
X164221Y-33177D01*
X164175Y-33159D01*
X164101Y-33150D01*
X164008Y-33131D01*
X163897Y-33122D01*
X163768Y-33113D01*
X163352D01*
Y-35786D01*
X162057D01*
Y-29385D01*
X164943D01*
X165026Y-29394D01*
D02*
G37*
G36*
X160836Y-30467D02*
X157385D01*
Y-31882D01*
X160595D01*
Y-32965D01*
X157385D01*
Y-34704D01*
X160956D01*
Y-35786D01*
X156090D01*
Y-29385D01*
X160836D01*
Y-30467D01*
D02*
G37*
G36*
X149430Y-35786D02*
X148034D01*
X147479Y-34334D01*
X144907Y-34334D01*
X144380Y-35786D01*
X143011D01*
X145490Y-29385D01*
X146859D01*
X149430Y-35786D01*
D02*
G37*
G36*
X139524Y-34704D02*
X142743D01*
Y-35786D01*
X138229D01*
Y-29431D01*
X139524D01*
Y-34704D01*
D02*
G37*
G36*
X132207Y-29394D02*
X132447D01*
X132706Y-29413D01*
X132965Y-29431D01*
X133076Y-29440D01*
X133187Y-29450D01*
X133280Y-29468D01*
X133354Y-29487D01*
X133363D01*
X133382Y-29496D01*
X133409Y-29505D01*
X133446Y-29514D01*
X133548Y-29561D01*
X133678Y-29616D01*
X133816Y-29699D01*
X133974Y-29810D01*
X134122Y-29949D01*
X134270Y-30116D01*
Y-30125D01*
X134288Y-30134D01*
X134307Y-30162D01*
X134325Y-30199D01*
X134362Y-30254D01*
X134390Y-30310D01*
X134427Y-30375D01*
X134464Y-30449D01*
X134529Y-30634D01*
X134593Y-30837D01*
X134630Y-31087D01*
X134649Y-31355D01*
Y-31364D01*
Y-31383D01*
Y-31411D01*
Y-31457D01*
X134640Y-31503D01*
Y-31568D01*
X134621Y-31697D01*
X134593Y-31855D01*
X134556Y-32030D01*
X134501Y-32197D01*
X134427Y-32354D01*
X134418Y-32373D01*
X134390Y-32419D01*
X134344Y-32493D01*
X134279Y-32585D01*
X134205Y-32678D01*
X134103Y-32789D01*
X134001Y-32891D01*
X133881Y-32983D01*
X133863Y-32992D01*
X133826Y-33020D01*
X133761Y-33057D01*
X133678Y-33103D01*
X133576Y-33159D01*
X133465Y-33205D01*
X133345Y-33251D01*
X133215Y-33288D01*
X133197D01*
X133169Y-33298D01*
X133132D01*
X133086Y-33307D01*
X133021Y-33316D01*
X132956Y-33325D01*
X132873D01*
X132790Y-33335D01*
X132688Y-33344D01*
X132577Y-33353D01*
X132457Y-33362D01*
X132327D01*
X132188Y-33372D01*
X131041D01*
Y-35786D01*
X129746D01*
Y-29385D01*
X132105D01*
X132207Y-29394D01*
D02*
G37*
G36*
X121949Y-30467D02*
X120062D01*
Y-35786D01*
X118767D01*
Y-30467D01*
X116870D01*
Y-29385D01*
X121949D01*
Y-30467D01*
D02*
G37*
G36*
X125750Y-29274D02*
X125843D01*
X125963Y-29292D01*
X126102Y-29311D01*
X126259Y-29339D01*
X126426Y-29376D01*
X126601Y-29422D01*
X126786Y-29477D01*
X126971Y-29551D01*
X127166Y-29635D01*
X127351Y-29736D01*
X127536Y-29857D01*
X127711Y-29995D01*
X127878Y-30153D01*
X127887Y-30162D01*
X127915Y-30190D01*
X127961Y-30245D01*
X128007Y-30310D01*
X128072Y-30402D01*
X128146Y-30513D01*
X128220Y-30643D01*
X128303Y-30791D01*
X128387Y-30948D01*
X128461Y-31133D01*
X128535Y-31337D01*
X128599Y-31549D01*
X128655Y-31790D01*
X128692Y-32040D01*
X128720Y-32308D01*
X128729Y-32595D01*
Y-32613D01*
Y-32659D01*
X128720Y-32743D01*
Y-32854D01*
X128701Y-32983D01*
X128683Y-33131D01*
X128655Y-33307D01*
X128627Y-33483D01*
X128581Y-33677D01*
X128525Y-33880D01*
X128451Y-34084D01*
X128368Y-34287D01*
X128276Y-34482D01*
X128155Y-34676D01*
X128026Y-34861D01*
X127878Y-35037D01*
X127869Y-35046D01*
X127841Y-35074D01*
X127795Y-35120D01*
X127721Y-35175D01*
X127637Y-35240D01*
X127536Y-35314D01*
X127415Y-35388D01*
X127286Y-35471D01*
X127129Y-35555D01*
X126962Y-35629D01*
X126777Y-35703D01*
X126574Y-35767D01*
X126361Y-35823D01*
X126130Y-35869D01*
X125889Y-35897D01*
X125630Y-35906D01*
X125565D01*
X125491Y-35897D01*
X125399Y-35888D01*
X125279Y-35878D01*
X125140Y-35860D01*
X124983Y-35832D01*
X124816Y-35795D01*
X124631Y-35749D01*
X124455Y-35693D01*
X124261Y-35619D01*
X124076Y-35536D01*
X123882Y-35444D01*
X123706Y-35323D01*
X123530Y-35194D01*
X123364Y-35037D01*
X123355Y-35027D01*
X123327Y-35000D01*
X123290Y-34944D01*
X123234Y-34879D01*
X123170Y-34787D01*
X123096Y-34676D01*
X123022Y-34556D01*
X122948Y-34408D01*
X122864Y-34250D01*
X122790Y-34065D01*
X122716Y-33871D01*
X122652Y-33658D01*
X122596Y-33427D01*
X122559Y-33177D01*
X122531Y-32909D01*
X122522Y-32632D01*
Y-32622D01*
Y-32585D01*
Y-32539D01*
X122531Y-32465D01*
Y-32382D01*
X122541Y-32289D01*
X122550Y-32178D01*
X122559Y-32058D01*
X122596Y-31799D01*
X122642Y-31522D01*
X122716Y-31244D01*
X122809Y-30985D01*
Y-30976D01*
X122818Y-30967D01*
X122837Y-30939D01*
X122846Y-30902D01*
X122901Y-30809D01*
X122966Y-30689D01*
X123049Y-30550D01*
X123151Y-30412D01*
X123271Y-30254D01*
X123401Y-30106D01*
X123410Y-30097D01*
X123419Y-30088D01*
X123466Y-30042D01*
X123549Y-29968D01*
X123651Y-29884D01*
X123771Y-29792D01*
X123910Y-29690D01*
X124067Y-29598D01*
X124233Y-29524D01*
X124243D01*
X124261Y-29514D01*
X124298Y-29496D01*
X124344Y-29487D01*
X124400Y-29459D01*
X124465Y-29440D01*
X124548Y-29422D01*
X124631Y-29394D01*
X124835Y-29348D01*
X125066Y-29302D01*
X125334Y-29274D01*
X125612Y-29265D01*
X125676D01*
X125750Y-29274D01*
D02*
G37*
%LPC*%
G36*
X112204Y137249D02*
X110442Y137110D01*
X108723Y136698D01*
X107090Y136021D01*
X105583Y135098D01*
X104239Y133950D01*
X103091Y132606D01*
X102167Y131098D01*
X101491Y129465D01*
X101078Y127747D01*
X100939Y125985D01*
X101078Y124222D01*
X101491Y122503D01*
X102167Y120870D01*
X103091Y119363D01*
X104239Y118019D01*
X105583Y116871D01*
X107090Y115948D01*
X108723Y115271D01*
X110442Y114858D01*
X112204Y114720D01*
X113966Y114858D01*
X115685Y115271D01*
X117318Y115948D01*
X118825Y116871D01*
X120169Y118019D01*
X121317Y119363D01*
X122241Y120870D01*
X122917Y122503D01*
X123330Y124222D01*
X123469Y125985D01*
X123330Y127747D01*
X122917Y129465D01*
X122241Y131098D01*
X121317Y132606D01*
X120169Y133950D01*
X118825Y135098D01*
X117318Y136021D01*
X115685Y136698D01*
X113966Y137110D01*
X112204Y137249D01*
D02*
G37*
G36*
X164832Y-30467D02*
X163352D01*
Y-32095D01*
X164610D01*
X164795Y-32086D01*
X164989Y-32077D01*
X165183Y-32067D01*
X165266Y-32058D01*
X165340Y-32049D01*
X165414Y-32030D01*
X165461Y-32021D01*
X165470D01*
X165498Y-32003D01*
X165544Y-31984D01*
X165590Y-31956D01*
X165710Y-31873D01*
X165766Y-31818D01*
X165821Y-31753D01*
X165831Y-31744D01*
X165840Y-31716D01*
X165868Y-31679D01*
X165895Y-31623D01*
X165914Y-31549D01*
X165942Y-31466D01*
X165951Y-31374D01*
X165960Y-31272D01*
Y-31253D01*
Y-31216D01*
X165951Y-31161D01*
X165942Y-31087D01*
X165914Y-31004D01*
X165886Y-30920D01*
X165840Y-30828D01*
X165784Y-30754D01*
X165775Y-30745D01*
X165757Y-30717D01*
X165710Y-30689D01*
X165655Y-30643D01*
X165590Y-30597D01*
X165507Y-30560D01*
X165405Y-30523D01*
X165294Y-30495D01*
X165285D01*
X165257Y-30486D01*
X165202D01*
X165118Y-30476D01*
X164915D01*
X164832Y-30467D01*
D02*
G37*
G36*
X146165Y-30874D02*
X145296Y-33251D01*
X147062Y-33251D01*
X146165Y-30874D01*
D02*
G37*
G36*
X132003Y-30467D02*
X131041D01*
Y-32289D01*
X131929D01*
X131994Y-32280D01*
X132161D01*
X132327Y-32271D01*
X132494Y-32252D01*
X132642Y-32225D01*
X132706Y-32215D01*
X132762Y-32197D01*
X132771Y-32188D01*
X132808Y-32178D01*
X132854Y-32151D01*
X132910Y-32123D01*
X132975Y-32077D01*
X133039Y-32021D01*
X133113Y-31956D01*
X133169Y-31882D01*
X133178Y-31873D01*
X133197Y-31845D01*
X133215Y-31799D01*
X133243Y-31734D01*
X133271Y-31660D01*
X133298Y-31577D01*
X133308Y-31485D01*
X133317Y-31383D01*
Y-31364D01*
Y-31327D01*
X133308Y-31263D01*
X133289Y-31179D01*
X133261Y-31087D01*
X133224Y-30985D01*
X133178Y-30893D01*
X133104Y-30800D01*
X133095Y-30791D01*
X133067Y-30763D01*
X133021Y-30726D01*
X132965Y-30680D01*
X132891Y-30624D01*
X132799Y-30578D01*
X132697Y-30541D01*
X132586Y-30513D01*
X132577D01*
X132540Y-30504D01*
X132475Y-30495D01*
X132383Y-30486D01*
X132262D01*
X132179Y-30476D01*
X132096D01*
X132003Y-30467D01*
D02*
G37*
G36*
X125630Y-30365D02*
X125556D01*
X125501Y-30375D01*
X125427Y-30384D01*
X125353Y-30393D01*
X125168Y-30430D01*
X124964Y-30504D01*
X124853Y-30541D01*
X124742Y-30597D01*
X124640Y-30661D01*
X124529Y-30735D01*
X124428Y-30819D01*
X124335Y-30920D01*
X124326Y-30930D01*
X124317Y-30948D01*
X124289Y-30976D01*
X124261Y-31022D01*
X124224Y-31087D01*
X124187Y-31152D01*
X124141Y-31235D01*
X124095Y-31337D01*
X124048Y-31448D01*
X124002Y-31568D01*
X123965Y-31707D01*
X123928Y-31855D01*
X123900Y-32021D01*
X123873Y-32197D01*
X123863Y-32382D01*
X123854Y-32585D01*
Y-32595D01*
Y-32632D01*
Y-32687D01*
X123863Y-32761D01*
X123873Y-32854D01*
X123882Y-32965D01*
X123900Y-33076D01*
X123919Y-33205D01*
X123974Y-33473D01*
X124067Y-33742D01*
X124122Y-33880D01*
X124187Y-34010D01*
X124270Y-34130D01*
X124354Y-34241D01*
X124363Y-34250D01*
X124381Y-34269D01*
X124409Y-34297D01*
X124446Y-34324D01*
X124492Y-34371D01*
X124557Y-34417D01*
X124622Y-34472D01*
X124705Y-34519D01*
X124881Y-34630D01*
X125103Y-34713D01*
X125223Y-34750D01*
X125353Y-34778D01*
X125491Y-34796D01*
X125630Y-34805D01*
X125704D01*
X125760Y-34796D01*
X125824Y-34787D01*
X125898Y-34778D01*
X126074Y-34731D01*
X126278Y-34667D01*
X126379Y-34620D01*
X126490Y-34574D01*
X126592Y-34509D01*
X126703Y-34435D01*
X126805Y-34352D01*
X126897Y-34250D01*
X126907Y-34241D01*
X126916Y-34223D01*
X126944Y-34195D01*
X126971Y-34149D01*
X127018Y-34084D01*
X127055Y-34010D01*
X127101Y-33927D01*
X127147Y-33825D01*
X127193Y-33714D01*
X127240Y-33594D01*
X127286Y-33455D01*
X127323Y-33298D01*
X127351Y-33140D01*
X127378Y-32965D01*
X127388Y-32770D01*
X127397Y-32567D01*
Y-32558D01*
Y-32521D01*
Y-32465D01*
X127388Y-32382D01*
X127378Y-32289D01*
X127369Y-32188D01*
X127360Y-32067D01*
X127332Y-31947D01*
X127277Y-31679D01*
X127193Y-31401D01*
X127138Y-31263D01*
X127073Y-31142D01*
X126990Y-31022D01*
X126907Y-30911D01*
X126897Y-30902D01*
X126888Y-30883D01*
X126860Y-30865D01*
X126823Y-30828D01*
X126768Y-30782D01*
X126712Y-30735D01*
X126648Y-30689D01*
X126564Y-30634D01*
X126481Y-30587D01*
X126379Y-30541D01*
X126167Y-30449D01*
X126046Y-30412D01*
X125917Y-30393D01*
X125778Y-30375D01*
X125630Y-30365D01*
D02*
G37*
%LPD*%
D10*
X195728Y212810D02*
X199000D01*
X194358Y214181D02*
X195728Y212810D01*
X191381Y214181D02*
X194358D01*
X191919Y212881D02*
X193819D01*
X195189Y211510D01*
X198461D01*
X188390Y212810D02*
X190010D01*
X185700Y227258D02*
X187058Y225900D01*
X185700Y227258D02*
Y251739D01*
X189662Y225900D02*
X190100Y225462D01*
X187058Y225900D02*
X189662D01*
X247106Y250543D02*
X252953Y244696D01*
Y240358D02*
Y244696D01*
X241448Y256201D02*
X247106Y250543D01*
Y250543D02*
Y250543D01*
X253878Y235689D02*
Y239434D01*
X252953Y240358D02*
X253878Y239434D01*
X190162Y256201D02*
X241448D01*
X198461Y211510D02*
X199200Y210772D01*
X190100Y220938D02*
Y225462D01*
X199200Y208739D02*
Y210772D01*
X198461Y208000D02*
X199200Y208739D01*
X194462Y208000D02*
X198461D01*
X199350Y199511D02*
X200000Y198861D01*
X196751Y199511D02*
X199350D01*
X192700Y203562D02*
Y206239D01*
Y203562D02*
X196751Y199511D01*
X192700Y206239D02*
X194462Y208000D01*
X185700Y251739D02*
X190162Y256201D01*
X189362Y220200D02*
X190100Y220938D01*
X187461Y220200D02*
X189362D01*
X185700Y213664D02*
Y218439D01*
Y213664D02*
X187852Y211510D01*
X185700Y218439D02*
X187461Y220200D01*
X156555Y178108D02*
X157205Y178758D01*
X156555Y173682D02*
Y178108D01*
Y173682D02*
X156693Y173546D01*
Y171416D02*
Y173546D01*
X187000Y227797D02*
X187596Y227200D01*
X190581Y226819D02*
X190581D01*
X187596Y227200D02*
X190200D01*
X190581Y226819D02*
X191400Y226000D01*
X187000Y227797D02*
Y251200D01*
X190200Y227200D02*
X190581Y226819D01*
X247928Y247263D02*
Y247884D01*
X247488Y248323D02*
X247928Y247884D01*
X248988Y246201D02*
X249610D01*
X246867Y248323D02*
X247488D01*
X247449Y246783D02*
X247928Y247263D01*
X248510Y245723D02*
X248988Y246201D01*
X249610D02*
X251653Y244159D01*
X247449Y246163D02*
X247888Y245723D01*
X248510D01*
X245806Y249383D02*
Y250005D01*
X245328Y248284D02*
Y248904D01*
X240910Y254901D02*
X245806Y250005D01*
X245328Y248904D02*
X245806Y249383D01*
X246388Y247844D02*
X246867Y248323D01*
X247449Y246163D02*
Y246783D01*
X245328Y248284D02*
X245767Y247844D01*
X246388D01*
X251653Y240365D02*
Y244159D01*
X250728Y239440D02*
X251653Y240365D01*
X250728Y235689D02*
Y239440D01*
X200500Y208201D02*
Y211311D01*
X199000Y212810D02*
X200500Y211311D01*
X199000Y206700D02*
X200500Y208201D01*
X195000Y206700D02*
X199000D01*
X199350Y200811D02*
X200000Y201461D01*
X197290Y200811D02*
X199350D01*
X190700Y254901D02*
X240910D01*
X187000Y251200D02*
X190700Y254901D01*
X191400Y220400D02*
Y226000D01*
X189901Y218900D02*
X191400Y220400D01*
X188000Y218900D02*
X189901D01*
X187000Y217900D02*
X188000Y218900D01*
X187000Y214202D02*
Y217900D01*
Y214202D02*
X188390Y212810D01*
X194000Y204100D02*
X197290Y200811D01*
X194000Y205700D02*
X195000Y206700D01*
X194000Y204100D02*
Y205700D01*
X154605Y178758D02*
X155255Y178108D01*
Y173682D02*
Y178108D01*
X155118Y173546D02*
X155255Y173682D01*
X155118Y171416D02*
Y173546D01*
X190549Y211510D02*
X191919Y212881D01*
X190010Y212810D02*
X191381Y214181D01*
X187852Y211510D02*
X190549D01*
X198588Y252201D02*
X204600D01*
X196600Y250212D02*
X198588Y252201D01*
X196600Y247262D02*
X197600Y246262D01*
X196600Y247262D02*
Y250212D01*
X197900Y249674D02*
X199127Y250901D01*
X197900Y247800D02*
X198900Y246800D01*
X197900Y247800D02*
Y249674D01*
X199127Y250901D02*
X204062D01*
X197600Y244601D02*
Y246262D01*
X198900Y244062D02*
Y246800D01*
X213800Y250901D02*
X236962D01*
X242204Y245658D01*
X212900Y250001D02*
X213800Y250901D01*
X212900Y247362D02*
Y250001D01*
X242204Y240315D02*
Y245658D01*
X212400Y242301D02*
X215100Y239600D01*
X211638Y246100D02*
X212900Y247362D01*
X205600Y242301D02*
X212400D01*
X204062Y250901D02*
X204639Y250324D01*
Y247362D02*
Y250324D01*
Y247362D02*
X205900Y246100D01*
X211638D01*
X204200Y240900D02*
X205600Y242301D01*
X241280Y239391D02*
X242204Y240315D01*
X241280Y235689D02*
Y239391D01*
X215100Y217701D02*
Y239600D01*
X206200Y208801D02*
X215100Y217701D01*
X206200Y197578D02*
Y208801D01*
Y197578D02*
X206767Y197011D01*
X204200Y238239D02*
Y240900D01*
X203161Y237200D02*
X204200Y238239D01*
X197638Y242800D02*
X198900Y244062D01*
X197761Y237200D02*
X203161D01*
X195062Y234501D02*
X197761Y237200D01*
X192800Y242800D02*
X197638D01*
X191700Y235600D02*
X192800Y234501D01*
X195062D01*
X191700Y241701D02*
X192800Y242800D01*
X191700Y235600D02*
Y241701D01*
X164704Y173682D02*
Y180107D01*
X164054Y180757D02*
X164704Y180107D01*
X164567Y173546D02*
X164704Y173682D01*
X164567Y171416D02*
Y173546D01*
X213262Y252201D02*
X237500D01*
X243504Y246197D01*
X211600Y250539D02*
X213262Y252201D01*
X211600Y247901D02*
Y250539D01*
X243504Y240307D02*
Y246197D01*
Y240307D02*
X244429Y239384D01*
X211100Y247400D02*
X211600Y247901D01*
X206138Y241001D02*
X211861D01*
X204600Y252201D02*
X205939Y250862D01*
Y247901D02*
Y250862D01*
Y247901D02*
X206438Y247400D01*
X211100D01*
X205500Y240362D02*
X206138Y241001D01*
X244429Y235689D02*
Y239384D01*
X211861Y241001D02*
X213800Y239062D01*
X205500Y237701D02*
Y240362D01*
X213800Y218239D02*
Y239062D01*
X204900Y209339D02*
X213800Y218239D01*
X203699Y235900D02*
X205500Y237701D01*
X204900Y197743D02*
Y209339D01*
X204167Y197011D02*
X204900Y197743D01*
X192262Y244100D02*
X197100D01*
X197600Y244601D01*
X198300Y235900D02*
X203699D01*
X195600Y233201D02*
X198300Y235900D01*
X192262Y233201D02*
X195600D01*
X190400Y235062D02*
X192262Y233201D01*
X190400Y242239D02*
X192262Y244100D01*
X190400Y235062D02*
Y242239D01*
X166004Y180107D02*
X166654Y180757D01*
X166004Y173682D02*
X166142Y173546D01*
X166004Y173682D02*
Y180107D01*
X166142Y171418D02*
Y173546D01*
X166141Y171417D02*
X166142Y171418D01*
X209771Y187811D02*
X217839D01*
X209700Y183501D02*
X210090Y183110D01*
X208400Y182962D02*
X209552Y181810D01*
X209700Y185901D02*
X210310Y186511D01*
X208400Y182962D02*
Y186439D01*
X210310Y186511D02*
X217300D01*
X209700Y183501D02*
Y185901D01*
X208400Y186439D02*
X209771Y187811D01*
X210090Y183110D02*
X215728D01*
X209552Y181810D02*
X215190D01*
X205861Y174200D02*
X207551Y172511D01*
X204200Y174200D02*
X205861D01*
X207551Y172511D02*
X210200D01*
X206400Y175500D02*
X208089Y173811D01*
X209661D01*
X203661Y175500D02*
X206400D01*
X202000Y169473D02*
Y173838D01*
X203300Y170010D02*
Y173300D01*
X239815Y204153D02*
X251147D01*
X236500Y200838D02*
X239815Y204153D01*
X236500Y196149D02*
Y200838D01*
X263053Y212857D02*
X263327Y213130D01*
X263053Y207000D02*
Y212857D01*
X161417Y157527D02*
Y159292D01*
X161279Y157389D02*
X161417Y157527D01*
X161279Y151871D02*
Y157389D01*
Y151871D02*
X173838Y139311D01*
X193161D01*
X194873Y141023D01*
Y141645D01*
X194614Y141903D02*
X194873Y141645D01*
X194614Y141903D02*
Y142525D01*
X195053Y142964D01*
X195674D01*
X195934Y142704D01*
X196555D01*
X196995Y143145D01*
Y143765D01*
X196735Y144025D02*
X196995Y143765D01*
X196735Y144025D02*
Y144647D01*
X197175Y145086D01*
X197796D01*
X198055Y144826D01*
X198677D01*
X199116Y145265D01*
Y145887D01*
X198856Y146147D02*
X199116Y145887D01*
X198856Y146147D02*
Y146767D01*
X199296Y147206D01*
X199917D01*
X200177Y146948D01*
X200798D01*
X202000Y148150D01*
Y164149D01*
X203461Y165611D01*
X205200D01*
X205700Y166111D01*
Y167510D01*
X205200Y168010D02*
X205700Y167510D01*
X203461Y168010D02*
X205200D01*
X202000Y169473D02*
X203461Y168010D01*
X209661Y173811D02*
X210500Y174650D01*
Y177311D01*
X212000Y178811D01*
X215190D01*
X216200Y179821D01*
Y180800D01*
X215190Y181810D02*
X216200Y180800D01*
X217839Y187811D02*
X220039Y185610D01*
X221961D01*
X227000Y190649D01*
Y196150D01*
X228661Y197810D01*
X231000D01*
X232800Y196010D01*
Y194611D02*
Y196010D01*
Y194611D02*
X233050Y194360D01*
Y194360D02*
Y194360D01*
Y194360D02*
X233300Y194111D01*
X234461D01*
X236500Y196149D01*
X251147Y204153D02*
X252300Y203000D01*
Y200001D02*
Y203000D01*
Y200001D02*
X253100Y199200D01*
X255200D01*
X255700Y199700D01*
Y202700D01*
X257153Y204153D01*
X260447D01*
X261600Y203000D01*
Y199700D02*
Y203000D01*
Y199700D02*
X261987Y199313D01*
X262653D01*
X263300Y199960D01*
X237800Y195610D02*
Y200300D01*
X240353Y202853D02*
X250608D01*
X237800Y200300D02*
X240353Y202853D01*
X260177Y213130D02*
X260453Y212855D01*
Y207000D02*
Y212855D01*
X159842Y157569D02*
Y159292D01*
Y157569D02*
X159979Y157431D01*
Y151331D02*
Y157431D01*
Y151331D02*
X173300Y138011D01*
X193700D01*
X203300Y147610D01*
Y163610D01*
X204000Y164311D01*
X205738D01*
X207000Y165573D01*
Y168050D01*
X205738Y169310D02*
X207000Y168050D01*
X204000Y169310D02*
X205738D01*
X203300Y170010D02*
X204000Y169310D01*
X210200Y172511D02*
X211800Y174110D01*
Y176772D01*
X212538Y177510D01*
X215728D01*
X217500Y179282D01*
Y181340D01*
X215728Y183110D02*
X217500Y181340D01*
X217300Y186511D02*
X219500Y184310D01*
X222500D01*
X228300Y190111D01*
Y195610D01*
X229200Y196511D01*
X230461D01*
X231500Y195473D01*
Y194072D02*
Y195473D01*
Y194072D02*
X232761Y192810D01*
X235000D01*
X237800Y195610D01*
X250608Y202853D02*
X251000Y202462D01*
Y199462D02*
Y202462D01*
Y199462D02*
X252561Y197900D01*
X255738D01*
X257000Y199162D01*
Y202162D01*
X257692Y202853D01*
X259909D01*
X260300Y202462D01*
Y199162D02*
Y202462D01*
Y199162D02*
X261449Y198013D01*
X262647D01*
X263300Y197361D01*
X202000Y173838D02*
X203661Y175500D01*
X203300Y173300D02*
X204200Y174200D01*
X226662Y245071D02*
X228391Y246800D01*
X232361D01*
X227962Y241350D02*
Y244532D01*
X231823Y245500D02*
X232717Y244605D01*
X228930Y245500D02*
X231823D01*
X232361Y246800D02*
X234017Y245144D01*
X226662Y240812D02*
Y245071D01*
X234017Y240394D02*
Y245144D01*
X232717Y240327D02*
Y244605D01*
X227962Y244532D02*
X228930Y245500D01*
X221399Y245000D02*
X221399Y245000D01*
X221399D02*
X222170Y244230D01*
X219452Y245000D02*
X221399D01*
X222170Y240403D02*
Y244230D01*
X221937Y246300D02*
X221937D01*
X223469Y240941D02*
Y244768D01*
X217470Y244856D02*
X218913Y246300D01*
X221937Y246300D02*
X223469Y244768D01*
X221937Y246300D02*
X221937Y246300D01*
X217470Y208280D02*
Y244856D01*
X218769Y244318D02*
X219452Y245000D01*
X221399Y245000D02*
X221399D01*
X218769Y207742D02*
Y244318D01*
X218913Y246300D02*
X221937D01*
X223469Y240941D02*
X224300Y240110D01*
X232388Y239999D02*
X232717Y240327D01*
X226500Y238810D02*
X227962Y240273D01*
X234424Y236246D02*
Y239988D01*
X231831Y235689D02*
X232388Y236247D01*
X227962Y241350D02*
X227962Y241350D01*
X225961Y240110D02*
X226662Y240811D01*
X234424Y236246D02*
X234980Y235689D01*
X226662Y240812D02*
X226662Y240811D01*
X234017Y240394D02*
X234424Y239988D01*
X232388Y236247D02*
Y239999D01*
X227962Y240273D02*
Y241350D01*
X222170Y240403D02*
X223761Y238811D01*
Y238810D02*
Y238811D01*
X217538Y206510D02*
X218769Y207742D01*
X217000Y207810D02*
X217470Y208280D01*
X182600Y207553D02*
Y252762D01*
X188539Y258700D01*
X245461D01*
X181300Y253300D02*
X188001Y260000D01*
X246000D01*
X181300Y207015D02*
Y253300D01*
X188799Y199511D02*
X190850D01*
X191500Y198861D01*
X181300Y207015D02*
X188799Y199511D01*
X151830Y173682D02*
X151968Y173546D01*
Y171417D02*
Y173546D01*
X151300Y176011D02*
Y180160D01*
X151950Y180810D01*
X151830Y173682D02*
Y175480D01*
X151300Y176011D02*
X151830Y175480D01*
X264397Y250604D02*
Y250604D01*
Y250604D02*
X271851Y243149D01*
X259000Y256000D02*
X264397Y250604D01*
X271851Y241833D02*
X272776Y240908D01*
X271851Y241833D02*
Y243149D01*
X249999Y256000D02*
X259000D01*
X272776Y235689D02*
Y240908D01*
X190850Y200811D02*
X191500Y201461D01*
X182600Y207553D02*
X189338Y200811D01*
X190850D01*
X150000Y175472D02*
X150530Y174943D01*
Y173682D02*
Y174943D01*
X150393Y173546D02*
X150530Y173682D01*
X150393Y171417D02*
Y173546D01*
X149350Y180810D02*
X150000Y180160D01*
Y175472D02*
Y180160D01*
X257179Y254700D02*
X258462D01*
X260318Y252844D01*
X256681Y254203D02*
X257179Y254700D01*
X256681Y253398D02*
Y254203D01*
X256183Y252901D02*
X256681Y253398D01*
X260318Y252140D02*
X260318Y252844D01*
X255479Y252901D02*
X256183D01*
X254483Y254700D02*
X254981Y254203D01*
Y253398D02*
Y254203D01*
Y253398D02*
X255479Y252901D01*
X263477Y249685D02*
X270551Y242611D01*
Y241833D02*
Y242611D01*
X262225Y250938D02*
X263477Y249685D01*
X269626Y240908D02*
X270551Y241833D01*
X269626Y235689D02*
Y240908D01*
X259992Y251813D02*
X260318Y252140D01*
X259992Y251109D02*
X259992Y251813D01*
X259992Y251109D02*
X260490Y250611D01*
X261521Y250938D02*
X262225Y250938D01*
X261194Y250611D02*
X261521Y250938D01*
X260490Y250611D02*
X261194Y250611D01*
X249000Y257000D02*
X249999Y256000D01*
X247621Y256540D02*
X247621D01*
X245461Y258700D02*
X247621Y256540D01*
X246000Y260000D02*
X249000Y257000D01*
X249461Y254700D02*
X254483D01*
X247621Y256540D02*
X249461Y254700D01*
X189972Y144310D02*
X198300Y152638D01*
Y176484D01*
X174838Y144310D02*
X189972D01*
X190510Y143010D02*
X199600Y152100D01*
X174300Y143010D02*
X190510D01*
X199600Y152100D02*
Y175945D01*
X212600Y192360D02*
X213250Y191710D01*
X212600Y192360D02*
Y196300D01*
X213810Y197511D01*
X217200D01*
X217700Y197011D01*
Y191772D02*
Y197011D01*
Y191772D02*
X218961Y190510D01*
X222538D01*
X224000Y191972D01*
Y201649D01*
X222538Y203111D02*
X224000Y201649D01*
X211300Y203111D02*
X222538D01*
X210800Y203610D02*
X211300Y203111D01*
X210800Y203610D02*
Y206011D01*
X211300Y206510D01*
X217538D01*
X223761Y238810D02*
X226500D01*
X203000Y181571D02*
X203629Y182201D01*
X203000Y179345D02*
Y181571D01*
X199600Y175945D02*
X203000Y179345D01*
X164704Y152606D02*
X174300Y143010D01*
X164704Y152606D02*
Y157197D01*
X164567Y157334D02*
X164704Y157197D01*
X164567Y157334D02*
Y159292D01*
X201029Y182201D02*
X201700Y181529D01*
Y179884D02*
Y181529D01*
X198300Y176484D02*
X201700Y179884D01*
X166004Y153145D02*
X174838Y144310D01*
X166004Y153145D02*
Y157178D01*
X166141Y157316D01*
Y159292D01*
X224300Y240110D02*
X225961D01*
X210761Y207810D02*
X217000D01*
X209500Y206550D02*
X210761Y207810D01*
X209500Y203073D02*
Y206550D01*
Y203073D02*
X210761Y201811D01*
X222000D01*
X222700Y201111D01*
Y192510D02*
Y201111D01*
X222000Y191811D02*
X222700Y192510D01*
X219500Y191811D02*
X222000D01*
X219000Y192311D02*
X219500Y191811D01*
X219000Y192311D02*
Y197549D01*
X218369Y198180D02*
X219000Y197549D01*
X218369Y198180D02*
X218369D01*
X217739Y198811D02*
X218369Y198180D01*
X213271Y198811D02*
X217739D01*
X211300Y196839D02*
X213271Y198811D01*
X211300Y192360D02*
Y196839D01*
X210650Y191710D02*
X211300Y192360D01*
X145669Y156918D02*
Y159291D01*
X145157Y156406D02*
X145669Y156918D01*
X145157Y156298D02*
Y156406D01*
X147244Y156916D02*
Y159291D01*
Y156916D02*
X147757Y156403D01*
Y156298D02*
Y156403D01*
X71390Y190611D02*
X74501Y187500D01*
X77262D01*
X78662Y188900D01*
X73962Y186200D02*
X77800D01*
X71350Y188812D02*
X73962Y186200D01*
X77800D02*
X79201Y187601D01*
X78662Y188900D02*
X81499D01*
X70851Y189311D02*
X71350Y188812D01*
X79201Y187601D02*
X80961D01*
X125761Y172100D02*
X127700D01*
X123261Y174601D02*
X125761Y172100D01*
X117639Y174601D02*
X123261D01*
X168981Y183081D02*
Y183081D01*
X166962Y185100D02*
X168981Y183081D01*
Y183081D02*
X169428Y182634D01*
X163400Y185100D02*
X166962D01*
X160200Y181900D02*
X163400Y185100D01*
X156574Y182281D02*
X156955Y181900D01*
X156574Y182281D02*
X156574D01*
X156955Y181900D02*
X160200D01*
X156200Y182654D02*
Y182654D01*
Y182654D02*
X156574Y182281D01*
X147200Y184801D02*
X154054D01*
X145300Y182901D02*
X147200Y184801D01*
X154054D02*
X156200Y182654D01*
X145300Y180101D02*
Y182901D01*
X143000Y177801D02*
X145300Y180101D01*
X131639Y177801D02*
X143000D01*
X108940Y177700D02*
X109440Y177200D01*
X129700Y175862D02*
X131639Y177801D01*
X106939Y177700D02*
X108940D01*
X106439Y177200D02*
X106939Y177700D01*
X169428Y173140D02*
Y182634D01*
X129700Y174100D02*
Y175862D01*
X169291Y173003D02*
X169428Y173140D01*
X127700Y172100D02*
X129700Y174100D01*
X169291Y171416D02*
Y173003D01*
X117000Y173962D02*
X117639Y174601D01*
X117000Y172362D02*
Y173962D01*
X106439Y173062D02*
Y177200D01*
X109440Y172423D02*
Y177200D01*
X111062Y170800D02*
X115438D01*
X109440Y172423D02*
X111062Y170800D01*
X115438D02*
X117000Y172362D01*
X102101Y171800D02*
X105178D01*
X106439Y173062D01*
X68650Y189311D02*
X70851D01*
X68000Y188661D02*
X68650Y189311D01*
X81361Y183323D02*
Y187200D01*
X80961Y187601D02*
X81361Y187200D01*
Y183323D02*
X81742Y182942D01*
X61356Y235963D02*
Y241818D01*
X61082Y235689D02*
X61356Y235963D01*
X100339Y177801D02*
X100839Y177301D01*
X98339Y177801D02*
X100339D01*
X100839Y173062D02*
Y177301D01*
X97839D02*
X98339Y177801D01*
X92239Y173262D02*
Y180000D01*
X96578Y172001D02*
X97839Y173262D01*
Y177301D01*
X100839Y173062D02*
X102101Y171800D01*
X92239Y173262D02*
X93501Y172001D01*
X96578D01*
X89740Y180500D02*
X91739D01*
X89240Y180000D02*
X89740Y180500D01*
X82400Y173662D02*
Y182284D01*
X81742Y182942D02*
Y182942D01*
Y182942D02*
X82400Y182284D01*
X91739Y180500D02*
X92239Y180000D01*
X89240Y173262D02*
Y180000D01*
X87978Y172001D02*
X89240Y173262D01*
X82400Y173662D02*
X84061Y172001D01*
X87978D01*
X123800Y175900D02*
X126300Y173400D01*
X117100Y175900D02*
X123800D01*
X126300Y173400D02*
X127162D01*
X162862Y186400D02*
X167500D01*
X159661Y183200D02*
X162862Y186400D01*
X167500D02*
X170728Y183173D01*
X144000Y183439D02*
X146661Y186100D01*
X154592D02*
X157493Y183200D01*
X146661Y186100D02*
X154592D01*
X157493Y183200D02*
X159661D01*
X144000Y180639D02*
Y183439D01*
X142462Y179101D02*
X144000Y180639D01*
X131100Y179101D02*
X142462D01*
X109478Y179000D02*
X110740Y177739D01*
X128400Y176400D02*
X131100Y179101D01*
X100878D02*
X102139Y177839D01*
X105140Y177739D02*
X106401Y179000D01*
X128400Y174638D02*
Y176400D01*
X106401Y179000D02*
X109478D01*
X115700Y174501D02*
X117100Y175900D01*
X127162Y173400D02*
X128400Y174638D01*
X170728Y173182D02*
Y183173D01*
X115700Y172900D02*
Y174501D01*
X170728Y173182D02*
X170866Y173046D01*
Y171416D02*
Y173046D01*
X104639Y173100D02*
X105140Y173600D01*
Y177739D01*
X110740Y172961D02*
Y177739D01*
X102139Y173600D02*
Y177839D01*
Y173600D02*
X102639Y173100D01*
X111600Y172100D02*
X114900D01*
X115700Y172900D01*
X102639Y173100D02*
X104639D01*
X110740Y172961D02*
X111600Y172100D01*
X68650Y190611D02*
X71390D01*
X68000Y191261D02*
X68650Y190611D01*
X81499Y188900D02*
X82000Y188400D01*
X63956Y235965D02*
Y241818D01*
Y235965D02*
X64232Y235689D01*
X97801Y179101D02*
X100878D01*
X96539Y177839D02*
X97801Y179101D01*
X93540Y173801D02*
Y180539D01*
X89201Y181800D02*
X92278D01*
X93540Y180539D01*
X96539Y173801D02*
Y177839D01*
X96039Y173301D02*
X96539Y173801D01*
X93540D02*
X94039Y173301D01*
X96039D01*
X87940Y180539D02*
X89201Y181800D01*
X82661Y183861D02*
X83700Y182823D01*
Y174200D02*
Y182823D01*
X82000Y188400D02*
X82661Y187739D01*
Y183861D02*
Y187739D01*
X87940Y173801D02*
Y180539D01*
X87440Y173301D02*
X87940Y173801D01*
X83700Y174200D02*
X84600Y173301D01*
X87440D01*
X71350Y188812D02*
X71350D01*
X58261Y249411D02*
X133262D01*
X150039Y242461D01*
X172600Y219900D01*
X121276Y248111D02*
X133004D01*
X149303Y241359D01*
X171300Y219362D01*
X145939Y201601D02*
X159000D01*
X159600Y201000D01*
X160700D01*
X161301Y201601D02*
X168710D01*
X160700Y201000D02*
X161301Y201601D01*
X54630Y250230D02*
X55200Y250800D01*
X55040Y251519D02*
X55200Y251359D01*
Y250800D02*
Y251359D01*
X54208Y250230D02*
X54630D01*
X58178Y252840D02*
X58518Y252500D01*
X59338D02*
X59678Y252840D01*
X58518Y252500D02*
X59338D01*
X60118Y253601D02*
X145161D01*
X176000Y205161D02*
Y222762D01*
X145161Y253601D02*
X176000Y222762D01*
X55962Y254901D02*
X145700D01*
X177300Y205699D02*
Y223300D01*
X145700Y254901D02*
X177300Y223300D01*
X100162Y191901D02*
X106461D01*
X107547Y190814D01*
Y187762D02*
Y190814D01*
X100700Y193201D02*
X107000D01*
X108847Y188301D02*
Y191353D01*
X107000Y193201D02*
X108847Y191353D01*
X135147Y187801D02*
X137147D01*
X134647Y188301D02*
X135147Y187801D01*
X137147D02*
X137647Y188301D01*
X134609Y186501D02*
X137686D01*
X133347Y187762D02*
X134609Y186501D01*
X137686D02*
X138947Y187762D01*
X137647Y188301D02*
Y189847D01*
X134647Y188301D02*
Y191939D01*
X126689Y178700D02*
X128116Y180127D01*
X124212Y178700D02*
X126689D01*
X122516Y180396D02*
X124212Y178700D01*
X126150Y180000D02*
X126816Y180666D01*
X123816Y180934D02*
X124750Y180000D01*
X126150D01*
X128116Y180127D02*
Y181701D01*
X126816Y180666D02*
Y182239D01*
X123816Y180934D02*
Y182239D01*
X122516Y180396D02*
Y181701D01*
X138947Y189309D02*
X147439Y197801D01*
X146900Y199100D02*
X149711D01*
X138947Y187762D02*
Y189309D01*
X137647Y189847D02*
X146900Y199100D01*
X147439Y197801D02*
X149172D01*
X153556Y194300D02*
X154817Y195562D01*
X153017Y195600D02*
X153517Y196100D01*
X149711Y199100D02*
X151017Y197794D01*
X149717Y195562D02*
X150979Y194300D01*
X154817Y197345D02*
X155272Y197801D01*
X151017Y196100D02*
Y197794D01*
X153517Y197884D02*
X154734Y199100D01*
X149172Y197801D02*
X149717Y197256D01*
X154817Y195562D02*
Y197345D01*
X153517Y196100D02*
Y197884D01*
X151517Y195600D02*
X153017D01*
X150979Y194300D02*
X153556D01*
X149717Y195562D02*
Y197256D01*
X151017Y196100D02*
X151517Y195600D01*
X162244Y195361D02*
Y197172D01*
X157311Y199100D02*
X158444Y197967D01*
Y195900D02*
Y197967D01*
X160983Y194100D02*
X162244Y195361D01*
X157144D02*
X158406Y194100D01*
X158444Y195900D02*
X158944Y195400D01*
X160444D01*
X162244Y197172D02*
X162873Y197801D01*
X156772D02*
X157144Y197429D01*
X160944Y195900D02*
Y197711D01*
X162334Y199100D01*
X157144Y195361D02*
Y197429D01*
X158406Y194100D02*
X160983D01*
X160444Y195400D02*
X160944Y195900D01*
X161417Y171416D02*
Y171417D01*
X51909Y207001D02*
Y212855D01*
X51633Y213130D02*
X51909Y212855D01*
X42185Y235689D02*
Y239592D01*
X43110Y240516D01*
Y242049D01*
X55962Y254901D01*
X177300Y205699D02*
X195200Y187801D01*
X197229D01*
X197700Y188271D01*
X161417Y174848D02*
X161929Y175361D01*
X161417Y171417D02*
Y174848D01*
X33011Y207000D02*
Y212856D01*
X32736Y213130D02*
X33011Y212856D01*
X271400Y200310D02*
X272050Y200960D01*
X270110Y200310D02*
X271400D01*
X264219Y194420D02*
X270110Y200310D01*
X240739Y178731D02*
X264219Y194420D01*
X231785Y176950D02*
X240739Y178731D01*
X226253Y173993D02*
X231785Y176950D01*
X217536Y165275D02*
X226253Y173993D01*
X217536Y165275D02*
Y165275D01*
X214809Y162548D02*
X217536Y165275D01*
X209800Y150455D02*
X214809Y162548D01*
X209800Y142111D02*
Y150455D01*
X207324Y139635D02*
X209800Y142111D01*
X206702Y139635D02*
X207324D01*
X206473Y139863D02*
X206702Y139635D01*
X205852Y139863D02*
X206473D01*
X205412Y139424D02*
X205852Y139863D01*
X205412Y138803D02*
Y139424D01*
Y138803D02*
X205641Y138574D01*
Y137952D02*
Y138574D01*
X205202Y137513D02*
X205641Y137952D01*
X204580Y137513D02*
X205202D01*
X204352Y137741D02*
X204580Y137513D01*
X203730Y137741D02*
X204352D01*
X203291Y137302D02*
X203730Y137741D01*
X203291Y136680D02*
Y137302D01*
Y136680D02*
X203520Y136452D01*
Y135830D02*
Y136452D01*
X203080Y135391D02*
X203520Y135830D01*
X202459Y135391D02*
X203080D01*
X202230Y135620D02*
X202459Y135391D01*
X201609Y135620D02*
X202230D01*
X201170Y135180D02*
X201609Y135620D01*
X201170Y134560D02*
Y135180D01*
Y134560D02*
X201398Y134330D01*
Y133710D02*
Y134330D01*
X198500Y130810D02*
X201398Y133710D01*
X169838Y130810D02*
X198500D01*
X151830Y148819D02*
X169838Y130810D01*
X151830Y148819D02*
Y157342D01*
X151968Y157480D01*
Y159292D01*
X175590Y174848D02*
X176102Y175361D01*
X175590Y171417D02*
Y174848D01*
X51908Y200310D02*
X52600Y201003D01*
Y201901D01*
X53900Y203201D01*
X56594D01*
X60494Y199301D01*
X73584D01*
X76384Y196501D01*
X97400D01*
X100700Y193201D01*
X108847Y188301D02*
X109347Y187801D01*
X111347D01*
X111847Y188301D01*
Y191939D01*
X113109Y193201D01*
X116186D01*
X117447Y191939D01*
Y188301D02*
Y191939D01*
Y188301D02*
X117947Y187801D01*
X119947D01*
X120447Y188301D01*
Y191939D01*
X121709Y193201D01*
X124786D01*
X126047Y191939D01*
Y188301D02*
Y191939D01*
Y188301D02*
X126547Y187801D01*
X128547D01*
X129047Y188301D01*
Y191939D01*
X130309Y193201D01*
X133386D01*
X134647Y191939D01*
X154734Y199100D02*
X157311D01*
X162334D02*
X167710D01*
X184934Y181877D01*
Y156746D02*
Y181877D01*
X182700Y154510D02*
X184934Y156746D01*
X180300Y154510D02*
X182700D01*
X178878Y155933D02*
X180300Y154510D01*
X178878Y155933D02*
Y157433D01*
X178740Y157571D02*
X178878Y157433D01*
X178740Y157571D02*
Y159292D01*
X180315Y171416D02*
Y171417D01*
X156693Y157504D02*
Y159292D01*
X156556Y157367D02*
X156693Y157504D01*
X156556Y150254D02*
Y157367D01*
Y150254D02*
X172000Y134810D01*
X195860D01*
X198171Y137122D01*
Y137743D01*
X197912Y138003D02*
X198171Y137743D01*
X197912Y138003D02*
Y138623D01*
X198352Y139062D01*
X198973D01*
X199232Y138804D01*
X199853D01*
X200292Y139243D01*
Y139866D01*
X200034Y140123D02*
X200292Y139866D01*
X200034Y140123D02*
Y140744D01*
X200473Y141184D01*
X201094D01*
X201353Y140926D01*
X201974D01*
X202414Y141366D01*
Y141987D01*
X202155Y142245D02*
X202414Y141987D01*
X202155Y142245D02*
Y142867D01*
X202594Y143306D01*
X203216D01*
X203474Y143047D01*
X204097D01*
X206000Y144951D01*
Y160650D01*
X209700Y164349D01*
Y167839D01*
X211362Y169501D01*
X214851D01*
X215600Y170249D01*
Y173239D01*
X217061Y174700D01*
X219862D01*
X220500Y175339D01*
Y179439D01*
X222262Y181201D01*
X224600D01*
X226400Y179401D01*
X227261D01*
X228450Y180589D01*
Y181312D01*
X226669Y183093D02*
X228450Y181312D01*
X226669Y183093D02*
Y184970D01*
X228995Y187295D01*
X231005D01*
X235381Y182920D01*
X236881D01*
X237939Y183978D01*
Y184923D01*
X235448Y187415D02*
X237939Y184923D01*
X235448Y187415D02*
Y189586D01*
X237340Y191479D01*
X239919D01*
X244275Y187127D01*
X245588D01*
X250881Y192420D01*
Y193381D01*
X249462Y194800D02*
X250881Y193381D01*
X248600Y194800D02*
X249462D01*
X245900Y192101D02*
X248600Y194800D01*
X243562Y192101D02*
X245900D01*
X241100Y194562D02*
X243562Y192101D01*
X241100Y194562D02*
Y197039D01*
X244158Y200097D01*
X245836D01*
X246500Y200761D01*
X45334Y235689D02*
Y239592D01*
X44410Y240516D02*
X45334Y239592D01*
X44410Y240516D02*
Y241511D01*
X53358Y250459D01*
X53979D01*
X54208Y250230D01*
X55040Y251519D02*
Y252141D01*
X56500Y253601D01*
X57739D01*
X58178Y253161D01*
Y252840D02*
Y253161D01*
X59678Y252840D02*
Y253161D01*
X60118Y253601D01*
X176000Y205161D02*
X194662Y186501D01*
X196871D01*
X197700Y185671D01*
X155118Y157492D02*
Y159292D01*
Y157492D02*
X155256Y157354D01*
Y149716D02*
Y157354D01*
Y149716D02*
X171461Y133510D01*
X196398D01*
X207300Y144413D01*
Y160111D01*
X211000Y163811D01*
Y167300D01*
X211900Y168201D01*
X215389D01*
X216900Y169711D01*
Y172701D01*
X217600Y173400D01*
X220400D01*
X221800Y174801D01*
Y178901D01*
X222800Y179901D01*
X224061D01*
X225862Y178101D01*
X227800D01*
X229750Y180051D01*
Y181851D01*
X227969Y183631D02*
X229750Y181851D01*
X227969Y183631D02*
Y184431D01*
X229534Y185995D01*
X230467D01*
X234842Y181620D01*
X237419D01*
X239239Y183439D01*
Y185462D01*
X236748Y187953D02*
X239239Y185462D01*
X236748Y187953D02*
Y189048D01*
X237879Y190179D01*
X239381D01*
X243737Y185827D01*
X246126D01*
X252181Y191881D01*
Y193920D01*
X250000Y196100D02*
X252181Y193920D01*
X248061Y196100D02*
X250000D01*
X245361Y193401D02*
X248061Y196100D01*
X244100Y193401D02*
X245361D01*
X242400Y195100D02*
X244100Y193401D01*
X242400Y195100D02*
Y196501D01*
X244696Y198796D01*
X245864D01*
X246500Y198161D01*
X241280Y213129D02*
Y213130D01*
Y213129D02*
X241555Y212855D01*
Y207000D02*
Y212855D01*
X263051Y235964D02*
Y241818D01*
Y235964D02*
X263327Y235689D01*
X53900Y200919D02*
X54508Y200310D01*
X53900Y200919D02*
Y201362D01*
X54439Y201901D01*
X56055D01*
X59956Y198001D01*
X73045D01*
X75845Y195201D01*
X96861D01*
X100162Y191901D01*
X107547Y187762D02*
X108809Y186501D01*
X111886D01*
X113147Y187762D01*
Y191401D01*
X113647Y191901D01*
X115647D01*
X116147Y191401D01*
Y187762D02*
Y191401D01*
Y187762D02*
X117409Y186501D01*
X120486D01*
X121747Y187762D01*
Y191401D01*
X122247Y191901D01*
X124247D01*
X124747Y191401D01*
Y187762D02*
Y191401D01*
Y187762D02*
X126009Y186501D01*
X129086D01*
X130347Y187762D01*
Y191401D01*
X130847Y191901D01*
X132847D01*
X133347Y191401D01*
Y187762D02*
Y191401D01*
X155272Y197801D02*
X156772D01*
X162873D02*
X167172D01*
X183634Y181338D01*
Y171227D02*
Y181338D01*
X183195Y170788D02*
X183634Y171227D01*
X182439Y170788D02*
X183195D01*
X182000Y170349D02*
X182439Y170788D01*
X182000Y169727D02*
Y170349D01*
Y169727D02*
X182439Y169288D01*
X183195D01*
X183634Y168849D01*
Y168047D02*
Y168849D01*
X183195Y167607D02*
X183634Y168047D01*
X182539Y167607D02*
X183195D01*
X182100Y167168D02*
X182539Y167607D01*
X182100Y166548D02*
Y167168D01*
Y166548D02*
X182539Y166107D01*
X183195D01*
X183634Y165668D01*
Y165048D02*
Y165668D01*
X183195Y164608D02*
X183634Y165048D01*
X182539Y164608D02*
X183195D01*
X182100Y164169D02*
X182539Y164608D01*
X182100Y163548D02*
Y164169D01*
Y163548D02*
X182539Y163108D01*
X183195D01*
X183634Y162669D01*
Y162048D02*
Y162669D01*
X183195Y161608D02*
X183634Y162048D01*
X182439Y161608D02*
X183195D01*
X182000Y161169D02*
X182439Y161608D01*
X182000Y160547D02*
Y161169D01*
Y160547D02*
X182439Y160108D01*
X183195D01*
X183634Y159669D01*
Y157283D02*
Y159669D01*
X182161Y155810D02*
X183634Y157283D01*
X180838Y155810D02*
X182161D01*
X180178Y156472D02*
X180838Y155810D01*
X180178Y156472D02*
Y157490D01*
X180315Y157625D01*
Y159292D01*
X260451Y235963D02*
Y241818D01*
X260177Y235689D02*
X260451Y235963D01*
X180315Y171417D02*
Y173143D01*
X180177Y173282D02*
X180315Y173143D01*
X180177Y173282D02*
Y181133D01*
X170896Y190414D02*
X180177Y181133D01*
X146213Y190414D02*
X170896D01*
X139300Y183501D02*
X146213Y190414D01*
X128077Y183501D02*
X139300D01*
X126816Y182239D02*
X128077Y183501D01*
X122554D02*
X123816Y182239D01*
X119477Y183501D02*
X122554D01*
X118216Y182239D02*
X119477Y183501D01*
X118216Y180000D02*
Y182239D01*
X117716Y179500D02*
X118216Y180000D01*
X115716Y179500D02*
X117716D01*
X115216Y180000D02*
X115716Y179500D01*
X115216Y180000D02*
Y182239D01*
X113954Y183501D02*
X115216Y182239D01*
X107300Y183501D02*
X113954D01*
X105000Y185801D02*
X107300Y183501D01*
X101700Y185801D02*
X105000D01*
X99400Y183501D02*
X101700Y185801D01*
X97500Y183501D02*
X99400D01*
X96200Y184801D02*
X97500Y183501D01*
X96200Y184801D02*
Y190601D01*
X94400Y192401D02*
X96200Y190601D01*
X90790Y192401D02*
X94400D01*
X89528Y191139D02*
X90790Y192401D01*
X89528Y186900D02*
Y191139D01*
X89028Y186400D02*
X89528Y186900D01*
X87028Y186400D02*
X89028D01*
X86528Y186900D02*
X87028Y186400D01*
X86528Y186900D02*
Y191139D01*
X85267Y192401D02*
X86528Y191139D01*
X74951Y192401D02*
X85267D01*
X71551Y195800D02*
X74951Y192401D01*
X65762Y195800D02*
X71551D01*
X64000Y194039D02*
X65762Y195800D01*
X64000Y190839D02*
Y194039D01*
X62161Y189000D02*
X64000Y190839D01*
X59917Y189000D02*
X62161D01*
X59417Y189500D02*
X59917Y189000D01*
X59417Y189500D02*
Y195139D01*
X58155Y196400D02*
X59417Y195139D01*
X53579Y196400D02*
X58155D01*
X52317Y195139D02*
X53579Y196400D01*
X52317Y189500D02*
Y195139D01*
X51817Y189000D02*
X52317Y189500D01*
X48317Y189000D02*
X51817D01*
X47817Y189500D02*
X48317Y189000D01*
X47817Y189500D02*
Y195139D01*
X46556Y196400D02*
X47817Y195139D01*
X41978Y196400D02*
X46556D01*
X40717Y195139D02*
X41978Y196400D01*
X40717Y190456D02*
Y195139D01*
X39261Y189000D02*
X40717Y190456D01*
X35300Y189000D02*
X39261D01*
X34400Y189901D02*
X35300Y189000D01*
X34400Y189901D02*
Y199662D01*
X36639Y201901D01*
X41148D01*
X44409Y205162D01*
Y208218D01*
X45334Y209142D01*
Y213130D01*
X174015Y171417D02*
Y174847D01*
X173502Y175361D02*
X174015Y174847D01*
X175590Y171416D02*
Y171417D01*
X178740D02*
Y173105D01*
X178877Y173241D01*
Y180595D01*
X170358Y189114D02*
X178877Y180595D01*
X146752Y189114D02*
X170358D01*
X139839Y182201D02*
X146752Y189114D01*
X128616Y182201D02*
X139839D01*
X128116Y181701D02*
X128616Y182201D01*
X122016D02*
X122516Y181701D01*
X120016Y182201D02*
X122016D01*
X119516Y181701D02*
X120016Y182201D01*
X119516Y179462D02*
Y181701D01*
X118254Y178200D02*
X119516Y179462D01*
X115177Y178200D02*
X118254D01*
X113916Y179462D02*
X115177Y178200D01*
X113916Y179462D02*
Y181701D01*
X113416Y182201D02*
X113916Y181701D01*
X106762Y182201D02*
X113416D01*
X104462Y184501D02*
X106762Y182201D01*
X102239Y184501D02*
X104462D01*
X99938Y182201D02*
X102239Y184501D01*
X96961Y182201D02*
X99938D01*
X94900Y184262D02*
X96961Y182201D01*
X94900Y184262D02*
Y190062D01*
X93862Y191101D02*
X94900Y190062D01*
X91328Y191101D02*
X93862D01*
X90828Y190601D02*
X91328Y191101D01*
X90828Y186362D02*
Y190601D01*
X89567Y185100D02*
X90828Y186362D01*
X86490Y185100D02*
X89567D01*
X85228Y186362D02*
X86490Y185100D01*
X85228Y186362D02*
Y190601D01*
X84728Y191101D02*
X85228Y190601D01*
X74413Y191101D02*
X84728D01*
X71013Y194501D02*
X74413Y191101D01*
X66300Y194501D02*
X71013D01*
X65300Y193500D02*
X66300Y194501D01*
X65300Y190301D02*
Y193500D01*
X62700Y187700D02*
X65300Y190301D01*
X59378Y187700D02*
X62700D01*
X58117Y188962D02*
X59378Y187700D01*
X58117Y188962D02*
Y194600D01*
X57617Y195100D02*
X58117Y194600D01*
X54117Y195100D02*
X57617D01*
X53617Y194600D02*
X54117Y195100D01*
X53617Y188962D02*
Y194600D01*
X52355Y187700D02*
X53617Y188962D01*
X47778Y187700D02*
X52355D01*
X46517Y188962D02*
X47778Y187700D01*
X46517Y188962D02*
Y194600D01*
X46017Y195100D02*
X46517Y194600D01*
X42517Y195100D02*
X46017D01*
X42017Y194600D02*
X42517Y195100D01*
X42017Y189918D02*
Y194600D01*
X39800Y187700D02*
X42017Y189918D01*
X34762Y187700D02*
X39800D01*
X33100Y189362D02*
X34762Y187700D01*
X33100Y189362D02*
Y200201D01*
X36100Y203201D01*
X40609D01*
X43109Y205700D01*
Y208156D01*
X42184Y209082D02*
X43109Y208156D01*
X42184Y209082D02*
Y213130D01*
X251004Y207000D02*
Y212855D01*
X250728Y213130D02*
X251004Y212855D01*
X170866Y156801D02*
Y159292D01*
X170729Y156664D02*
X170866Y156801D01*
X170729Y154272D02*
Y156664D01*
Y154272D02*
X171253Y153747D01*
X171874D01*
X172253Y154126D01*
X172874D01*
X173314Y153687D01*
Y153065D02*
Y153687D01*
X172935Y152687D02*
X173314Y153065D01*
X172935Y152065D02*
Y152687D01*
Y152065D02*
X177026Y147975D01*
X186974D01*
X193500Y154500D01*
Y156176D01*
X193061Y156615D02*
X193500Y156176D01*
X192639Y156615D02*
X193061D01*
X192200Y157055D02*
X192639Y156615D01*
X192200Y157055D02*
Y157676D01*
X192639Y158115D01*
X193061D01*
X193500Y158555D01*
Y182097D01*
X171300Y204296D02*
X193500Y182097D01*
X171300Y204296D02*
Y219362D01*
X120836Y247671D02*
X121276Y248111D01*
X120836Y247140D02*
Y247671D01*
X120397Y246701D02*
X120836Y247140D01*
X119776Y246701D02*
X120397D01*
X119336Y247140D02*
X119776Y246701D01*
X119336Y247140D02*
Y247671D01*
X118897Y248111D02*
X119336Y247671D01*
X62826Y248111D02*
X118897D01*
X62386Y247671D02*
X62826Y248111D01*
X62386Y247140D02*
Y247671D01*
X61947Y246701D02*
X62386Y247140D01*
X61326Y246701D02*
X61947D01*
X60886Y247140D02*
X61326Y246701D01*
X60886Y247140D02*
Y247671D01*
X60447Y248111D02*
X60886Y247671D01*
X58800Y248111D02*
X60447D01*
X58152Y247462D02*
X58800Y248111D01*
X58152Y246841D02*
Y247462D01*
Y246841D02*
X58485Y246507D01*
Y245886D02*
Y246507D01*
X58046Y245446D02*
X58485Y245886D01*
X57425Y245446D02*
X58046D01*
X57091Y245780D02*
X57425Y245446D01*
X56470Y245780D02*
X57091D01*
X53858Y243168D02*
X56470Y245780D01*
X53858Y240516D02*
Y243168D01*
Y240516D02*
X54783Y239592D01*
Y235689D02*
Y239592D01*
X54509Y207001D02*
Y212858D01*
X54783Y213130D01*
X253604Y207000D02*
Y212857D01*
X253878Y213130D01*
X159842Y171417D02*
Y174847D01*
X159329Y175361D02*
X159842Y174847D01*
X35611Y207000D02*
Y212857D01*
X35885Y213130D01*
X178740Y171416D02*
Y171417D01*
X60211Y204601D02*
X60800Y204012D01*
Y202924D02*
Y204012D01*
Y202924D02*
X62124Y201601D01*
X74450D01*
X77250Y198801D01*
X98462D01*
X101962Y195300D01*
X139638D01*
X145939Y201601D01*
X168710D02*
X188700Y181611D01*
Y165623D02*
Y181611D01*
X188261Y165184D02*
X188700Y165623D01*
X187539Y165184D02*
X188261D01*
X187100Y164744D02*
X187539Y165184D01*
X187100Y164123D02*
Y164744D01*
Y164123D02*
X187539Y163684D01*
X188261D01*
X188700Y163244D01*
Y162624D02*
Y163244D01*
X188261Y162185D02*
X188700Y162624D01*
X187539Y162185D02*
X188261D01*
X187100Y161744D02*
X187539Y162185D01*
X187100Y161124D02*
Y161744D01*
Y161124D02*
X187539Y160685D01*
X188261D01*
X188700Y160245D01*
Y159624D02*
Y160245D01*
X188261Y159185D02*
X188700Y159624D01*
X187539Y159185D02*
X188261D01*
X187100Y158745D02*
X187539Y159185D01*
X187100Y158124D02*
Y158745D01*
Y158124D02*
X187539Y157685D01*
X188261D01*
X188700Y157245D01*
Y155550D02*
Y157245D01*
X187598Y154448D02*
X188700Y155550D01*
X186977Y154448D02*
X187598D01*
X186618Y154807D02*
X186977Y154448D01*
X185996Y154807D02*
X186618D01*
X185557Y154368D02*
X185996Y154807D01*
X185557Y153746D02*
Y154368D01*
Y153746D02*
X185916Y153387D01*
Y152767D02*
Y153387D01*
X185261Y152111D02*
X185916Y152767D01*
X179589Y152111D02*
X185261D01*
X175453Y156248D02*
X179589Y152111D01*
X175453Y156248D02*
Y157764D01*
X175590Y157901D01*
Y159292D01*
X159842Y171416D02*
Y171417D01*
X169291Y156801D02*
Y159292D01*
Y156801D02*
X169429Y156664D01*
Y153734D02*
Y156664D01*
Y153734D02*
X176488Y146675D01*
X187513D01*
X194800Y153962D01*
Y182635D01*
X172600Y204835D02*
X194800Y182635D01*
X172600Y204835D02*
Y219900D01*
X52558Y243707D02*
X58261Y249411D01*
X52558Y240516D02*
Y243707D01*
X51634Y239592D02*
X52558Y240516D01*
X51634Y235689D02*
Y239592D01*
X62100Y203889D02*
X62811Y204601D01*
X62100Y203463D02*
Y203889D01*
Y203463D02*
X62663Y202901D01*
X74989D01*
X77789Y200100D01*
X99000D01*
X102500Y196600D01*
X139100D01*
X145400Y202901D01*
X169249D01*
X190000Y182150D01*
Y155010D02*
Y182150D01*
X186835Y151846D02*
X190000Y155010D01*
X186834Y151846D02*
X186835D01*
X185800Y150811D02*
X186834Y151846D01*
X179051Y150811D02*
X185800D01*
X174153Y155710D02*
X179051Y150811D01*
X174153Y155710D02*
Y157659D01*
X174015Y157796D02*
X174153Y157659D01*
X174015Y157796D02*
Y159292D01*
X244155Y207000D02*
Y212857D01*
X244429Y213130D01*
X174015Y171416D02*
Y171417D01*
X271400Y199011D02*
X272050Y198361D01*
X270649Y199011D02*
X271400D01*
X265048Y193410D02*
X270649Y199011D01*
X241246Y177506D02*
X265048Y193410D01*
X232228Y175712D02*
X241246Y177506D01*
X227036Y172937D02*
X232228Y175712D01*
X224109Y170010D02*
X227036Y172937D01*
X224109Y170010D02*
Y170010D01*
X215911Y161812D02*
X224109Y170010D01*
X211100Y150196D02*
X215911Y161812D01*
X211100Y141572D02*
Y150196D01*
X199038Y129510D02*
X211100Y141572D01*
X169300Y129510D02*
X199038D01*
X150530Y148281D02*
X169300Y129510D01*
X150530Y148281D02*
Y157380D01*
X150393Y157518D02*
X150530Y157380D01*
X150393Y157518D02*
Y159292D01*
D15*
X228033Y142062D02*
X232401D01*
X263285Y117063D02*
Y124025D01*
X262994Y124317D02*
X263000Y124311D01*
X263285Y124025D01*
X28150Y167224D02*
Y169182D01*
X4587Y155018D02*
X7884D01*
X249873Y113312D02*
Y118904D01*
X66116Y150795D02*
X66500Y150410D01*
X66116Y150795D02*
Y154072D01*
X29586Y213129D02*
Y213130D01*
Y213129D02*
X29587D01*
Y207224D02*
Y213129D01*
Y207224D02*
X30000Y206810D01*
X71871Y106811D02*
Y110274D01*
X294251Y95262D02*
Y97984D01*
X289800Y90812D02*
X294251Y95262D01*
X14183Y159941D02*
X17480D01*
X76830Y235689D02*
Y242334D01*
X76831Y242336D01*
X278919Y174654D02*
Y178983D01*
X275926Y235689D02*
Y242336D01*
X275925Y235689D02*
X275926D01*
X135271Y199811D02*
X138000D01*
X135270Y199811D02*
X135271Y199811D01*
X61729Y103812D02*
Y106811D01*
X228033Y142062D02*
Y142063D01*
X282675Y105213D02*
Y107140D01*
X281730Y108083D02*
X282675Y107140D01*
X291000Y87312D02*
X291729Y88041D01*
X294000D01*
X67382Y207618D02*
X68000Y207000D01*
X67382Y207618D02*
Y213129D01*
X67381D02*
X67382D01*
X67381D02*
Y213130D01*
X148500Y216810D02*
X149499Y217311D01*
X151799D01*
X275925Y213129D02*
Y213130D01*
Y213129D02*
X275926D01*
Y206486D02*
Y213129D01*
X275925Y206484D02*
X275926Y206486D01*
X135772Y210540D02*
X140000D01*
X131500Y214810D02*
X135772Y210540D01*
X131500Y214810D02*
Y225310D01*
X132385Y226197D01*
X136999D01*
X29586Y235689D02*
Y242334D01*
X29587Y242336D01*
X276951Y129472D02*
Y134263D01*
X262907Y77579D02*
X263975Y78648D01*
X57933Y235689D02*
Y242336D01*
X57932Y235689D02*
X57933D01*
X151799Y217311D02*
Y217312D01*
X31073Y176202D02*
X33980D01*
X67382Y235689D02*
Y242336D01*
X67381Y235689D02*
X67382D01*
X245502Y137299D02*
Y137300D01*
X241000Y137299D02*
X245502D01*
X66649Y166653D02*
X67480Y167483D01*
X48484Y213129D02*
Y213130D01*
Y213129D02*
X48485D01*
Y206810D02*
Y213129D01*
X81127Y131796D02*
Y131797D01*
Y131796D02*
X82515D01*
X84500Y129811D01*
X269077Y125733D02*
X271500Y123310D01*
X56855Y147484D02*
Y150145D01*
X7884Y155018D02*
Y155019D01*
X14183Y154035D02*
X17480D01*
X81127Y133963D02*
X83849D01*
X84500Y133310D01*
X27160Y170171D02*
X28150Y169182D01*
X238130Y206484D02*
Y213130D01*
X26436Y213129D02*
Y213130D01*
Y213129D02*
X26437D01*
Y206527D02*
Y213129D01*
X180750Y91062D02*
X182500Y89311D01*
X14183Y175689D02*
X14938D01*
X17366Y178117D01*
X247579Y235689D02*
Y242334D01*
X247580Y242336D01*
X27785Y176202D02*
Y176204D01*
Y176202D02*
X31073D01*
X238130Y235689D02*
Y242334D01*
X238131Y242336D01*
X262771Y96811D02*
X262772D01*
X238718Y75484D02*
Y75485D01*
X89500Y111311D02*
X93500Y107311D01*
X89500Y111311D02*
Y114646D01*
X79135Y125011D02*
X89500Y114646D01*
X73700Y125011D02*
X79135D01*
X72756Y124066D02*
X73700Y125011D01*
X72756Y122389D02*
Y124066D01*
X259821Y112064D02*
X259822D01*
X259821D02*
X259899Y112142D01*
Y117063D01*
X175000Y95311D02*
X175590Y94722D01*
X264900Y98911D02*
Y107412D01*
X264872Y98911D02*
X264900D01*
X262771Y96811D02*
X264872Y98911D01*
X226240Y63792D02*
X226726Y64276D01*
X226240Y62811D02*
Y63792D01*
X31000Y51500D02*
X33500Y49000D01*
X31000Y51500D02*
Y56312D01*
X236000Y119811D02*
Y122541D01*
X74939Y164251D02*
Y164928D01*
X73000Y162311D02*
X74939Y164251D01*
X259234Y124811D02*
Y129472D01*
Y124811D02*
X259899Y124145D01*
Y121063D02*
Y124145D01*
X62500Y181349D02*
X65616D01*
X237045Y73812D02*
X238718Y75484D01*
X235000Y73812D02*
X237045D01*
X31460Y169464D02*
X31480D01*
X30709Y168712D02*
X31460Y169464D01*
X255297Y169810D02*
Y174654D01*
X235000Y76811D02*
X237391D01*
X238718Y75484D01*
X7884Y170766D02*
Y170767D01*
X4587Y170766D02*
X7884D01*
X240000Y164858D02*
X245502D01*
X262994Y124317D02*
X263000Y124311D01*
X257028Y235689D02*
Y242336D01*
X271045Y133356D02*
X272000Y134310D01*
X271045Y129472D02*
Y133356D01*
X71871Y113812D02*
Y117390D01*
X263500Y108811D02*
X264900Y107412D01*
X57932Y213129D02*
Y213130D01*
Y213129D02*
X57933D01*
Y206810D02*
Y213129D01*
X274982Y126330D02*
X276450Y124861D01*
X274982Y126330D02*
Y129472D01*
X262771Y100811D02*
X262772D01*
X262771D02*
Y103711D01*
X253329Y128139D02*
Y129472D01*
X252500Y127311D02*
X253329Y128139D01*
X250500Y127311D02*
X252500D01*
X274729Y77811D02*
Y80812D01*
X280888Y129472D02*
Y134198D01*
X273800Y93911D02*
X276507D01*
X36000Y51500D02*
Y56312D01*
X33500Y49000D02*
X36000Y51500D01*
X257028Y206484D02*
Y213130D01*
X290683Y143204D02*
Y143205D01*
Y143204D02*
X295259D01*
X281100Y107454D02*
X281730Y108083D01*
X281100Y105213D02*
Y107454D01*
X7884Y176673D02*
X11008D01*
X12452Y178117D01*
X61729Y122310D02*
Y122311D01*
X59000Y122310D02*
X61729D01*
X266477Y235689D02*
Y242336D01*
X266476Y235689D02*
X266477D01*
X46000Y49000D02*
Y56312D01*
X63800Y166653D02*
X66649D01*
X261203Y126109D02*
X262994Y124317D01*
X261203Y126109D02*
Y129472D01*
X274982Y174654D02*
Y178983D01*
X241484Y166827D02*
X245502D01*
X241000Y167311D02*
X241484Y166827D01*
X151799Y217311D02*
X153599D01*
X154199Y216710D01*
X290683Y153048D02*
X295917D01*
X279000Y117619D02*
X283000D01*
X14183Y169783D02*
X17480D01*
X31073Y176202D02*
Y176204D01*
X71239Y164073D02*
Y164928D01*
Y164073D02*
X73000Y162311D01*
X273014Y129472D02*
Y133298D01*
X272000Y134310D02*
X273014Y133298D01*
X53627Y181349D02*
Y181350D01*
Y181349D02*
X56500D01*
X4587Y160925D02*
X7884D01*
X262500Y77311D02*
X262907Y77579D01*
X229083Y66633D02*
X229950Y67501D01*
X270500Y92511D02*
Y95139D01*
X39035Y235689D02*
Y242334D01*
X39036Y242336D01*
X247579Y206484D02*
Y213130D01*
X20059Y127252D02*
X23606D01*
X290683Y164858D02*
X295000D01*
X241043Y153048D02*
X245502D01*
X39035Y213129D02*
Y213130D01*
Y213129D02*
X39036D01*
Y207347D02*
Y213129D01*
X38500Y206810D02*
X39036Y207347D01*
X289000Y90812D02*
X289800D01*
X266476Y213129D02*
Y213130D01*
Y213129D02*
X266477D01*
Y206484D02*
Y213129D01*
X81127Y135930D02*
Y135931D01*
Y135930D02*
X83619D01*
X85000Y137311D01*
X48484Y235689D02*
Y242336D01*
X70042Y103922D02*
X72560D01*
X32000Y127252D02*
X35606D01*
X269077Y125733D02*
Y129472D01*
X177165Y95147D02*
Y97492D01*
X265140Y174654D02*
Y178483D01*
X279000Y121004D02*
Y122310D01*
X276450Y124861D02*
X279000Y122310D01*
X222000Y69582D02*
X229829D01*
X259899Y117063D02*
Y121063D01*
X262771Y93783D02*
Y96811D01*
D16*
X139370Y155930D02*
Y159291D01*
X139780Y165900D02*
X142432Y168552D01*
X132300Y165900D02*
X139780D01*
X128815Y162415D02*
X132300Y165900D01*
X131720Y167300D02*
X139200D01*
X141032Y169132D01*
X128235Y163815D02*
X131720Y167300D01*
X126920Y168200D02*
X131700Y172980D01*
X123020Y168200D02*
X126920D01*
X131700Y172980D02*
Y173880D01*
X133100Y172400D02*
Y173300D01*
X127500Y166800D02*
X133100Y172400D01*
X123600Y166800D02*
X127500D01*
X94300Y158221D02*
X97120Y155400D01*
X61658Y168228D02*
X63335D01*
X92123Y158221D02*
X94300D01*
X91573Y157670D02*
X92123Y158221D01*
X73000Y176311D02*
X73500Y175811D01*
X70000Y176311D02*
X73000D01*
X68400Y174711D02*
X70000Y176311D01*
X68400Y171854D02*
Y174711D01*
X64862Y168316D02*
X68400Y171854D01*
X63422Y168316D02*
X64862D01*
X63335Y168228D02*
X63422Y168316D01*
X61658Y168228D02*
Y168228D01*
X142432Y171330D02*
X142520Y171417D01*
X142432Y168552D02*
Y171330D01*
X125195Y162415D02*
X128815D01*
X111980Y155400D02*
X118180D01*
X125195Y162415D01*
X97120Y155400D02*
X111805D01*
X92123Y159620D02*
X94880D01*
X72900Y177710D02*
X73500Y178311D01*
X69420Y177710D02*
X72900D01*
X67000Y175291D02*
X69420Y177710D01*
X67000Y172433D02*
Y175291D01*
X61658Y169802D02*
X63197D01*
X61658D02*
Y169804D01*
X91573Y160170D02*
X92123Y159620D01*
X64282Y169717D02*
X67000Y172433D01*
X63284Y169717D02*
X64282D01*
X63197Y169802D02*
X63284Y169717D01*
X140945Y171417D02*
X141032Y171330D01*
Y169132D02*
Y171330D01*
X124615Y163815D02*
X128235D01*
X108843Y158486D02*
X109195Y158134D01*
X107656Y158486D02*
X108843D01*
X107305Y158134D02*
X107656Y158486D01*
X109195Y157406D02*
Y158134D01*
X117600Y156800D02*
X124615Y163815D01*
X107305Y157346D02*
Y158134D01*
X109195Y157406D02*
X109800Y156800D01*
X117600D01*
X106759D02*
X107305Y157346D01*
X94880Y159620D02*
X97700Y156800D01*
X106759D01*
X119111Y162311D02*
X123600Y166800D01*
X118531Y163710D02*
X123020Y168200D01*
X80673Y150647D02*
X122327D01*
X134080Y162400D02*
X141880D01*
X122327Y150647D02*
X134080Y162400D01*
X81252Y152048D02*
X121748D01*
X133500Y163800D01*
X141300D01*
X6291Y166830D02*
X7884D01*
X30796Y164163D02*
X33020D01*
X30709Y164076D02*
X30796Y164163D01*
X28063D02*
X28150Y164076D01*
X20713Y164163D02*
X28063D01*
X15776Y163877D02*
X16060Y164163D01*
X19613D01*
X28150Y164076D02*
X30709D01*
X14183Y163877D02*
Y163879D01*
Y163877D02*
X15776D01*
X74139Y152559D02*
X78762D01*
X80673Y150647D01*
X73589Y152008D02*
X74139Y152559D01*
X33020Y164163D02*
X33570Y163612D01*
X19613Y164163D02*
X20163Y163612D01*
X20713Y164163D01*
X33570Y163612D02*
X34570D01*
X7884Y166830D02*
Y166831D01*
X2255Y166545D02*
X6007D01*
X6291Y166830D01*
X-1416Y162875D02*
X2255Y166545D01*
X-3261Y164577D02*
X-2557Y165281D01*
X-2745Y162875D02*
X-1416D01*
X-3261Y163390D02*
Y164577D01*
Y163390D02*
X-2745Y162875D01*
X33570Y166112D02*
X34570D01*
X30709Y165650D02*
X30796Y165562D01*
X28150Y165650D02*
X30709D01*
X28063Y165562D02*
X28150Y165650D01*
X20713Y165562D02*
X28063D01*
X73589Y154508D02*
X74139Y153958D01*
X79342D02*
X81252Y152048D01*
X74139Y153958D02*
X79342D01*
X33020Y165562D02*
X33570Y166112D01*
X30796Y165562D02*
X33020D01*
X20163Y166112D02*
X20713Y165562D01*
X14183Y165846D02*
X15774D01*
X16058Y165562D01*
X19613D01*
X14183Y165846D02*
Y165847D01*
X19613Y165562D02*
X20163Y166112D01*
X-836Y161476D02*
X2835Y165146D01*
X6009D02*
X6293Y164863D01*
X7884D01*
X2835Y165146D02*
X6009D01*
X-5057Y165281D02*
X-4661Y164885D01*
Y162811D02*
X-3325Y161476D01*
X-836D01*
X-4661Y162811D02*
Y164885D01*
X141300Y163800D02*
X145757Y168257D01*
Y171330D01*
X145669Y171417D02*
X145757Y171330D01*
X141880Y162400D02*
X147157Y167677D01*
Y171330D01*
X147244Y171417D01*
X93600Y163710D02*
X118531D01*
X114931Y162311D02*
X119111D01*
X131700Y173880D02*
X133520Y175700D01*
X114404Y160898D02*
Y161784D01*
X114931Y162311D01*
X114228Y160722D02*
X114404Y160898D01*
X91531Y163801D02*
X93020Y162311D01*
X83244Y163801D02*
X91531D01*
X93020Y162311D02*
X112077D01*
X61745Y163592D02*
X64339D01*
X61658Y163505D02*
X61745Y163592D01*
X112604Y160898D02*
Y161784D01*
X112077Y162311D02*
X112604Y161784D01*
X112780Y160722D02*
X114228D01*
X112604Y160898D02*
X112780Y160722D01*
X78055Y158610D02*
X83244Y163801D01*
X64339Y163592D02*
X69320Y158610D01*
X78055D01*
X136308Y171505D02*
Y173692D01*
X135700Y174300D02*
X136308Y173692D01*
X136221Y171417D02*
X136308Y171505D01*
X134100Y174300D02*
X135700D01*
X133100Y173300D02*
X134100Y174300D01*
X92111Y165200D02*
X93600Y163710D01*
X82664Y165200D02*
X92111D01*
X61744Y164991D02*
X64919D01*
X61658Y165077D02*
Y165079D01*
Y165077D02*
X61744Y164991D01*
X77475Y160011D02*
X82664Y165200D01*
X64919Y164991D02*
X69900Y160011D01*
X77475D01*
X136280Y175700D02*
X137708Y174272D01*
Y171505D02*
X137795Y171417D01*
X133520Y175700D02*
X136280D01*
X137708Y171505D02*
Y174272D01*
X88810Y54311D02*
X112000Y77500D01*
X45790Y38601D02*
X61500Y54311D01*
X88810D01*
X45480Y31233D02*
X45790Y31542D01*
Y38601D01*
X290683Y137299D02*
Y137300D01*
Y137299D02*
X294012D01*
X295000Y136311D01*
Y124311D02*
Y136311D01*
X290500Y119811D02*
X295000Y124311D01*
X53539Y161841D02*
X53627Y161930D01*
X50875Y161841D02*
X53539D01*
X46728Y157695D02*
X50875Y161841D01*
X42829Y157695D02*
X46728D01*
X41753Y158773D02*
X42829Y157695D01*
X255056Y75484D02*
X255057D01*
X290708Y97983D02*
Y97984D01*
X31073Y180140D02*
X32041D01*
X32325Y179857D01*
X44609D01*
X49497Y174966D01*
Y172632D02*
Y174966D01*
Y172632D02*
X50839Y171291D01*
X53540D01*
X53627Y171379D01*
X284221Y83811D02*
X286779D01*
X252480Y11737D02*
X257264D01*
X257500Y11501D01*
X73680Y235689D02*
X73681D01*
Y242483D01*
X104480Y31233D02*
Y40470D01*
X66116Y157615D02*
Y157615D01*
X64480Y159250D02*
X66116Y157615D01*
X64480Y159250D02*
Y160484D01*
X63035Y161930D02*
X64480Y160484D01*
X61658Y161930D02*
X63035D01*
X25480Y31231D02*
Y31233D01*
X59842Y110311D02*
X59843D01*
X57000Y113154D02*
X59842Y110311D01*
X57000Y113154D02*
Y118001D01*
X48190Y126811D02*
X57000Y118001D01*
X40000Y126811D02*
X48190D01*
X37000Y129811D02*
X40000Y126811D01*
X29393Y129811D02*
X37000D01*
X29393D02*
Y129812D01*
X255170Y55812D02*
X259000D01*
X293500Y112812D02*
Y115411D01*
X292600Y116312D02*
X293500Y115411D01*
X270500Y98681D02*
Y98682D01*
Y98681D02*
X273566D01*
X223576Y147388D02*
Y153399D01*
Y147388D02*
X225161Y145802D01*
X228033D01*
X145200Y217311D02*
X145201D01*
X52881Y158780D02*
X53627D01*
X51785Y157684D02*
X52881Y158780D01*
X51785Y156111D02*
Y157684D01*
X38367Y158773D02*
Y158782D01*
X37291Y157704D02*
X38367Y158782D01*
X32167Y157704D02*
X37291D01*
X31883Y157990D02*
X32167Y157704D01*
X31073Y157990D02*
X31883D01*
X31073Y157980D02*
Y157990D01*
X140945Y92677D02*
Y94955D01*
X137401Y98501D02*
X140945Y94955D01*
X129999Y98501D02*
X137401D01*
X124752Y93251D02*
X129999Y98501D01*
X124752Y93251D02*
X124752Y91558D01*
X111500Y55001D02*
X122000Y65500D01*
X133997D01*
X142519Y74023D01*
Y80551D01*
X238500Y106000D02*
X240002Y106000D01*
X241576Y104425D01*
X243663D01*
Y104426D01*
X94480Y31233D02*
Y46981D01*
X118000Y70500D01*
X134995D01*
X139370Y74874D01*
Y80551D01*
X56855Y177358D02*
X57480Y177983D01*
X56855Y173819D02*
Y177358D01*
X245148Y118904D02*
Y123152D01*
X246307Y124311D01*
X252666D01*
X255297Y126942D01*
Y129472D01*
X35480Y31231D02*
Y31233D01*
X26000Y72312D02*
X26851Y73163D01*
Y78562D01*
X32089Y83801D01*
X67300D01*
X72500Y89000D01*
X100500D01*
X107606Y96106D01*
X124606D01*
X129000Y100501D01*
X137800D01*
X142519Y95781D01*
Y92677D02*
Y95781D01*
X76797Y138095D02*
Y138096D01*
X75105Y138095D02*
X76797D01*
X74500Y138700D02*
X75105Y138095D01*
X74500Y138700D02*
Y142901D01*
X76000Y144401D01*
Y147388D01*
X24924Y152259D02*
X25393Y151789D01*
X26683D01*
X26968Y152074D01*
X27785D01*
X73680Y207000D02*
Y213130D01*
X232480Y11735D02*
Y11737D01*
X27785Y178171D02*
Y178173D01*
X298616Y88296D02*
X301753D01*
X297800Y89112D02*
X298616Y88296D01*
X290683Y139269D02*
X295043D01*
X297000Y137311D01*
Y105812D02*
Y137311D01*
X293000Y101812D02*
X297000Y105812D01*
X232480Y11737D02*
Y20811D01*
X285000Y198501D02*
Y200001D01*
X282500Y202501D02*
X285000Y200001D01*
X282500Y202501D02*
Y212855D01*
X282224Y213130D02*
X282500Y212855D01*
X277163Y104425D02*
Y104426D01*
X274100Y104425D02*
X277163D01*
X31073Y178171D02*
Y178173D01*
X279075Y202925D02*
Y213130D01*
Y202925D02*
X282500Y199501D01*
Y197500D02*
Y199501D01*
Y197500D02*
X286800Y193200D01*
Y169810D02*
Y193200D01*
X283000Y166010D02*
X286800Y169810D01*
X283000Y139811D02*
Y166010D01*
X281000Y137811D02*
X283000Y139811D01*
X142499Y216810D02*
X143000Y217311D01*
X145200D01*
X48000Y131000D02*
X49200D01*
X55800Y124400D01*
X70300D01*
X72410Y126511D01*
X80490D01*
X91440Y115561D01*
Y112844D02*
Y115561D01*
Y112844D02*
X96000Y108284D01*
Y104312D02*
Y108284D01*
X208200Y83711D02*
X210974D01*
X213274Y86011D01*
X232279D01*
X233480Y87212D01*
X233640D01*
X227480Y1001D02*
Y21520D01*
X222480Y26520D02*
X227480Y21520D01*
X222480Y26520D02*
Y31233D01*
X286779Y83811D02*
X286867Y83723D01*
X289694D01*
X290794Y84824D01*
X53627Y172953D02*
Y177806D01*
X139370Y90342D02*
Y92677D01*
Y90342D02*
X140200Y89512D01*
X250750Y105213D02*
Y108861D01*
X248911Y110701D02*
X250750Y108861D01*
X242111Y110701D02*
X248911D01*
X233000Y119811D02*
X242111Y110701D01*
X233000Y119811D02*
Y126811D01*
X235000Y128811D01*
X242900D01*
X252500Y138410D01*
Y151311D01*
X271045Y169857D01*
Y174654D01*
X280433Y51244D02*
Y55119D01*
X277500Y48311D02*
X280433Y51244D01*
X258500Y48311D02*
X277500D01*
X256000Y45812D02*
X258500Y48311D01*
X226353Y45812D02*
X256000D01*
X216632Y55532D02*
X226353Y45812D01*
X216632Y55532D02*
Y73743D01*
X220000Y77112D01*
X255056Y75484D02*
Y75485D01*
X286779Y82236D02*
X286780Y82237D01*
X284221Y82236D02*
X286779D01*
X79980Y209020D02*
Y213130D01*
Y209020D02*
X81850Y207150D01*
X84350D01*
X85500Y206000D01*
X89000D01*
X91500Y208501D01*
X124964Y199972D02*
X124965D01*
X125126Y199811D01*
X131727D01*
X222480Y11737D02*
Y20811D01*
X84480Y11735D02*
Y11737D01*
X280100Y124811D02*
X280900D01*
X278919Y125991D02*
X280100Y124811D01*
X278919Y125991D02*
Y129472D01*
X278272Y77811D02*
X280000D01*
X281000Y78812D01*
Y79812D01*
X164567Y80551D02*
Y83434D01*
X164000Y84000D02*
X164567Y83434D01*
X27785Y150104D02*
X31073D01*
X219442Y149869D02*
Y153399D01*
X133500Y85501D02*
X139999D01*
X142519Y88019D01*
Y92677D01*
X121520Y205092D02*
X124964D01*
X120800Y205810D02*
X121520Y205092D01*
X120800Y205810D02*
Y212110D01*
X123000Y214311D01*
X137795Y87501D02*
Y92677D01*
X245148Y118904D02*
Y118904D01*
X213508Y145802D02*
X218152D01*
X126500Y55001D02*
X130500Y59000D01*
X135500D01*
X147244Y70745D01*
Y80551D01*
X289694Y82323D02*
X290794Y81223D01*
X286867Y82323D02*
X289694D01*
X286780Y82237D02*
X286867Y82323D01*
X112780Y202532D02*
X113000Y202310D01*
X108035Y202532D02*
X112780D01*
X225742Y150068D02*
Y153399D01*
Y150068D02*
X227500Y148310D01*
X235500D01*
X238000Y145810D01*
X240000D01*
X289635Y96912D02*
X290708Y97983D01*
X285700Y96912D02*
X289635D01*
X284250Y98361D02*
X285700Y96912D01*
X284250Y98361D02*
Y98914D01*
X27785Y150104D02*
Y150106D01*
Y172266D02*
X31073D01*
X53539Y164991D02*
X53627Y165079D01*
X46592Y164991D02*
X53539D01*
X45977Y165606D02*
X46592Y164991D01*
X44153Y165606D02*
X45977D01*
X43558Y166202D02*
X44153Y165606D01*
X280000Y197001D02*
Y198501D01*
Y197001D02*
X285200Y191800D01*
Y170911D02*
Y191800D01*
X281000Y166710D02*
X285200Y170911D01*
X281000Y143710D02*
Y166710D01*
X27785Y157980D02*
X31073D01*
X114480Y31231D02*
Y31233D01*
Y54480D01*
X123500Y63500D01*
X134997D01*
X144094Y72597D01*
Y80551D01*
X36000Y72312D02*
Y78979D01*
X38021Y81001D01*
X72500D01*
X75000Y83500D01*
X103000D01*
X107500Y88001D01*
X124389D01*
X127500Y91111D01*
Y93001D01*
X131000Y96500D01*
X137200D01*
X139370Y94331D01*
Y92677D02*
Y94331D01*
X166141Y77277D02*
Y80551D01*
X53539Y169892D02*
X53627Y169804D01*
X50259Y169892D02*
X53539D01*
X48097Y172052D02*
X50259Y169892D01*
X48097Y172052D02*
Y174387D01*
X44029Y178456D02*
X48097Y174387D01*
X32349Y178456D02*
X44029D01*
X32065Y178171D02*
X32349Y178456D01*
X31073Y178171D02*
X32065D01*
X208583Y70983D02*
Y70985D01*
X199016Y80550D02*
X208583Y70983D01*
X180315Y80550D02*
X199016D01*
X180315D02*
Y80551D01*
X286780Y82237D02*
X286780Y82236D01*
X255500Y108811D02*
X256000Y108311D01*
Y104425D02*
Y108311D01*
X227244Y66172D02*
Y66173D01*
X222134Y66172D02*
X227244D01*
X222000Y66040D02*
X222134Y66172D01*
X222000Y66039D02*
Y66040D01*
X24924Y149759D02*
Y149790D01*
X25524Y150390D01*
X26691D01*
X26975Y150104D01*
X27785D01*
Y180140D02*
X31073D01*
X41753Y175028D02*
X42829Y173951D01*
X44258D01*
X45886Y172321D01*
Y170954D02*
Y172321D01*
Y170954D02*
X48699Y168141D01*
X53540D01*
X53627Y168228D01*
X153480Y31231D02*
Y31233D01*
X21000D02*
X25480D01*
X131000Y87501D02*
X137795D01*
X123500Y80001D02*
X131000Y87501D01*
X111000Y80001D02*
X123500D01*
X109000Y78000D02*
X111000Y80001D01*
X47500Y78000D02*
X109000D01*
X46000Y76500D02*
X47500Y78000D01*
X46000Y72312D02*
Y76500D01*
X238555Y103056D02*
X240335Y101276D01*
X243663D01*
Y101277D01*
X65157Y110311D02*
X65158D01*
X65157Y103926D02*
Y110311D01*
Y103926D02*
X65272Y103812D01*
X163480Y31231D02*
Y31233D01*
X278919Y129472D02*
Y135391D01*
X268500Y145810D02*
X278919Y135391D01*
X254500Y145810D02*
X268500D01*
X83129Y232371D02*
Y235689D01*
Y232371D02*
X85590Y229910D01*
X95300D01*
X100000Y225210D01*
Y220810D02*
Y225210D01*
Y220810D02*
X107870Y212942D01*
X113788D01*
X117000Y209729D01*
Y201811D02*
Y209729D01*
Y201811D02*
X118810Y200001D01*
X84480Y31231D02*
Y31233D01*
X14183Y156005D02*
X15776D01*
X16060Y156288D01*
X24417D01*
X24424Y156296D01*
X26669D01*
X26953Y156010D01*
X27785D01*
X259228Y100811D02*
X259229D01*
X258119Y99700D02*
X259228Y100811D01*
X253112Y99700D02*
X258119D01*
X253112D02*
Y99701D01*
X286612Y104425D02*
Y104426D01*
Y104425D02*
X287614D01*
X289000Y105810D01*
Y110811D01*
X287000Y112812D02*
X289000Y110811D01*
X91500Y40470D02*
Y48501D01*
X116001Y73001D01*
X133890D01*
X137795Y76906D01*
Y80551D01*
X236000Y126084D02*
Y126084D01*
Y126084D02*
X242273D01*
X251000Y134810D01*
X262000D01*
X263171Y133640D01*
Y129472D02*
Y133640D01*
X94480Y31231D02*
Y31233D01*
X183480Y31231D02*
Y31233D01*
X14183Y173721D02*
X15774D01*
X16058Y173435D01*
X18468D01*
X19576Y174543D01*
Y177858D01*
X21573Y179857D01*
X26509D01*
X26793Y180140D01*
X27785D01*
X291673Y213129D02*
Y213130D01*
Y213129D02*
X291674D01*
Y206484D02*
Y213129D01*
X273566Y98681D02*
X274637Y97611D01*
X278700D01*
X279525Y98436D01*
Y99111D01*
X65616Y177805D02*
Y177805D01*
X65000Y177190D02*
X65616Y177805D01*
X65000Y173310D02*
Y177190D01*
X63067Y171378D02*
X65000Y173310D01*
X61658Y171378D02*
X63067D01*
X61658D02*
Y171379D01*
X253112Y104425D02*
Y104426D01*
Y104425D02*
X256000D01*
X108035Y205090D02*
Y205092D01*
X3582Y162893D02*
X7884D01*
X-500Y158810D02*
X3582Y162893D01*
X-5000Y158810D02*
X-500D01*
X-7500Y156310D02*
X-5000Y158810D01*
X37291Y173951D02*
X38367Y175028D01*
X32167Y173951D02*
X37291D01*
X31883Y174233D02*
X32167Y173951D01*
X31073Y174233D02*
X31883D01*
X218152Y145802D02*
Y145803D01*
X124964Y205092D02*
X124965D01*
X288524Y235689D02*
Y242311D01*
X246025Y99111D02*
Y100636D01*
X247150Y101761D01*
X14183Y157973D02*
X15774D01*
X16058Y157687D01*
X23838D01*
X23845Y157695D01*
X26691D01*
X26975Y157980D01*
X27785D01*
X58430Y173819D02*
Y174934D01*
X59480Y175984D01*
X61500D01*
X267108Y125452D02*
Y129472D01*
X266824Y125169D02*
X267108Y125452D01*
X266824Y123486D02*
Y125169D01*
Y123486D02*
X267900Y122411D01*
Y92409D02*
Y122411D01*
Y92409D02*
X272991Y87319D01*
X273654D01*
X274091Y87757D01*
X274754D01*
X275222Y87288D01*
Y86625D02*
Y87288D01*
X274786Y86189D02*
X275222Y86625D01*
X274786Y85526D02*
Y86189D01*
Y85526D02*
X276588Y83723D01*
X284133D01*
X284220Y83811D01*
X284221D01*
X84480Y31233D02*
Y44981D01*
X114502Y75001D01*
X133497D01*
X136220Y77723D01*
Y80551D01*
X144094Y92677D02*
Y96407D01*
X142500Y98001D02*
X144094Y96407D01*
X142500Y98001D02*
Y106000D01*
X163480Y31233D02*
Y51500D01*
X301753Y90264D02*
X304547D01*
X305000Y89811D01*
Y88560D02*
Y89811D01*
Y88560D02*
X305500Y88061D01*
X308400D01*
X309500Y89161D01*
X301753Y82390D02*
X306000D01*
X31073Y180140D02*
Y180140D01*
X245502Y139269D02*
X250500D01*
X41393Y129812D02*
X42189D01*
X43500Y128500D01*
X48653D01*
X59843Y117312D01*
X27785Y174233D02*
Y174235D01*
X70531Y243632D02*
X71400Y244500D01*
X70531Y235689D02*
Y243632D01*
X286779Y83811D02*
X286780D01*
X237480Y1001D02*
Y21520D01*
X232480Y26520D02*
X237480Y21520D01*
X232480Y26520D02*
Y31233D01*
X111780Y205092D02*
X113000Y206311D01*
X108035Y205092D02*
X111780D01*
X172441Y88060D02*
X175000Y85501D01*
X172441Y88060D02*
Y92677D01*
X7884Y172736D02*
Y172737D01*
X6293Y172736D02*
X7884D01*
X6009Y173021D02*
X6293Y172736D01*
X2964Y173021D02*
X6009D01*
X995Y174989D02*
X2964Y173021D01*
X-1015Y174989D02*
X995D01*
X-1520Y174484D02*
X-1015Y174989D01*
X277163Y101276D02*
Y101277D01*
X273335Y101276D02*
X277163D01*
X270400Y104211D02*
X273335Y101276D01*
X77186Y105005D02*
Y110274D01*
X76103Y103922D02*
X77186Y105005D01*
X56855Y153688D02*
Y157913D01*
X228033Y145802D02*
X234124D01*
X236092Y143835D01*
X70531Y207069D02*
Y213130D01*
Y207069D02*
X72617Y204983D01*
X77217D01*
X79300Y202901D01*
X82931D01*
X84431Y204400D01*
X90100D01*
X91500Y203000D01*
X163480Y11737D02*
Y20811D01*
X102820Y205092D02*
X108035D01*
X88410Y219500D02*
X102820Y205092D01*
X81500Y219500D02*
X88410D01*
X79980Y217981D02*
X81500Y219500D01*
X79980Y213130D02*
Y217981D01*
X41753Y171474D02*
X42829Y172550D01*
X43678D01*
X44486Y171742D01*
Y170374D02*
Y171742D01*
Y170374D02*
X48120Y166742D01*
X53539D01*
X53627Y166654D01*
X53540Y163592D02*
X53627Y163505D01*
X46011Y163592D02*
X53540D01*
X45396Y164207D02*
X46011Y163592D01*
X44063Y164207D02*
X45396D01*
X43558Y163702D02*
X44063Y164207D01*
X65272Y122310D02*
Y122311D01*
X65158Y122197D02*
X65272Y122310D01*
X65158Y117312D02*
Y122197D01*
X253112Y101276D02*
Y101277D01*
Y101276D02*
X255965D01*
X259100Y104411D01*
X301753Y86326D02*
Y86327D01*
X298616Y86326D02*
X301753D01*
X297800Y85511D02*
X298616Y86326D01*
X27785Y152074D02*
X31073D01*
X245502Y143204D02*
Y143205D01*
X241759Y143204D02*
X245502D01*
X241129Y143835D02*
X241759Y143204D01*
X236092Y143835D02*
X241129D01*
X254597Y118904D02*
Y124004D01*
X257266Y126673D01*
Y129472D01*
X242100Y75484D02*
X242200D01*
X7884Y156988D02*
Y156989D01*
X6293Y156988D02*
X7884D01*
X6009Y157273D02*
X6293Y156988D01*
X3461Y157273D02*
X6009D01*
X678Y154490D02*
X3461Y157273D01*
X-2015Y154490D02*
X678D01*
X-2520Y153983D02*
X-2015Y154490D01*
X31073Y150104D02*
X31890D01*
X32175Y150390D01*
X33465D01*
X33934Y149920D01*
X278039Y108107D02*
X279525Y106622D01*
Y105213D02*
Y106622D01*
X66376Y147388D02*
X76000D01*
X62980Y150784D02*
X66376Y147388D01*
X62980Y150784D02*
Y153784D01*
X60351Y156412D02*
X62980Y153784D01*
X60351Y156412D02*
Y158354D01*
X60775Y158780D01*
X61658D01*
X222480Y11735D02*
Y11737D01*
X27785Y180140D02*
Y180140D01*
X119000Y55001D02*
X125000Y61001D01*
X134999D01*
X145669Y71668D01*
Y80551D01*
X301753Y84358D02*
Y84359D01*
Y84358D02*
X304447D01*
X304950Y84861D01*
Y86011D01*
X305600Y86661D01*
X308400D01*
X309500Y85562D01*
X301753Y94200D02*
Y94201D01*
X296618Y94200D02*
X301753D01*
X294000Y91583D02*
X296618Y94200D01*
X294000Y91583D02*
Y91584D01*
X119000Y21312D02*
Y55001D01*
X114480Y16792D02*
X119000Y21312D01*
X114480Y11737D02*
Y16792D01*
X104480Y11735D02*
Y11737D01*
X273014Y169310D02*
Y174654D01*
X235700Y109600D02*
X237100Y108201D01*
X244100D01*
X246025Y106275D01*
Y105213D02*
Y106275D01*
X153480Y4021D02*
Y11737D01*
Y4021D02*
X155190Y2310D01*
X186490D01*
X191116Y6937D01*
Y42617D01*
X198500Y50001D01*
X207989D01*
X214349Y56361D01*
Y72057D01*
X201905Y84500D02*
X214349Y72057D01*
X180086Y84500D02*
X201905D01*
X174015Y90574D02*
X180086Y84500D01*
X174015Y90574D02*
Y92677D01*
X131727Y199811D02*
X131728D01*
X143500Y110001D02*
X144700Y108800D01*
Y98400D02*
Y108800D01*
Y98400D02*
X145669Y97431D01*
Y92677D02*
Y97431D01*
X148819Y92677D02*
Y97982D01*
X147500Y99300D02*
X148819Y97982D01*
X147500Y99300D02*
Y105312D01*
X148500Y106312D01*
X265140Y125452D02*
Y129472D01*
Y125452D02*
X265424Y125169D01*
Y122907D02*
Y125169D01*
Y122907D02*
X266500Y121831D01*
Y91830D02*
Y121831D01*
Y91830D02*
X272001Y86329D01*
X272001Y86329D01*
X276008Y82323D01*
X284133D01*
X284220Y82236D01*
X284221D01*
X31073Y152074D02*
X31883D01*
X32167Y151789D01*
X33334D01*
X33934Y152390D01*
Y152420D01*
X153543Y92677D02*
Y96854D01*
X154000Y97312D01*
X286362Y145174D02*
X290683D01*
X284500Y143310D02*
X286362Y145174D01*
X284500Y134911D02*
Y143310D01*
Y134911D02*
X285750Y133660D01*
Y116312D02*
Y133660D01*
X84480Y11737D02*
Y21302D01*
X228033Y145802D02*
Y145803D01*
X284250Y105213D02*
Y107061D01*
X285500Y108310D01*
X287000Y108311D01*
X-1520Y176983D02*
X-925Y176390D01*
X1575D01*
X3544Y174420D01*
X6007D01*
X6291Y174705D01*
X7884D01*
X164000Y97000D02*
Y104601D01*
X154621Y113979D02*
X164000Y104601D01*
X137979Y113979D02*
X154621D01*
X122800Y98801D02*
X137979Y113979D01*
X106800Y98801D02*
X122800D01*
X100234Y92235D02*
X106800Y98801D01*
X72267Y92235D02*
X100234D01*
X65143Y85111D02*
X72267Y92235D01*
X31016Y85111D02*
X65143D01*
X25905Y80001D02*
X31016Y85111D01*
X13000Y80001D02*
X25905D01*
X9500Y83500D02*
X13000Y80001D01*
X9500Y83500D02*
Y106500D01*
X15000Y112001D01*
Y119501D01*
X19500Y124001D01*
X29000D01*
X30500Y122501D01*
X33000D01*
X35480Y120020D01*
Y115233D02*
Y120020D01*
X119000Y214311D02*
X123659Y218970D01*
Y230352D01*
X117349Y236663D02*
X123659Y230352D01*
X103624Y236663D02*
X117349D01*
X95676Y244611D02*
X103624Y236663D01*
X75808Y244611D02*
X95676D01*
X73681Y242483D02*
X75808Y244611D01*
X124964Y205090D02*
Y205092D01*
X272500Y189000D02*
X274500Y191000D01*
X272500Y182310D02*
Y189000D01*
Y182310D02*
X273014Y181798D01*
Y174654D02*
Y181798D01*
X221608Y147113D02*
Y153399D01*
X220299Y145802D02*
X221608Y147113D01*
X218152Y145802D02*
X220299D01*
X282856Y125855D02*
X283800Y124910D01*
X282856Y125855D02*
Y129472D01*
X104480Y31231D02*
Y31233D01*
X264235Y80484D02*
Y80576D01*
X262000Y82811D02*
X264235Y80576D01*
X97210Y144711D02*
X114400D01*
X90000Y137501D02*
X97210Y144711D01*
X90000Y129500D02*
Y137501D01*
X86872Y126373D02*
X90000Y129500D01*
X83000Y126373D02*
X86872D01*
X81461Y127911D02*
X83000Y126373D01*
X76500Y127911D02*
X81461D01*
X74500Y129911D02*
X76500Y127911D01*
X74500Y129911D02*
Y132963D01*
X75500Y133963D01*
X76797D01*
X35480Y31233D02*
Y42564D01*
X37728Y44811D01*
X112690Y146501D02*
X114600Y148410D01*
X96000Y146501D02*
X112690D01*
X88000Y138500D02*
X96000Y146501D01*
X88000Y130000D02*
Y138500D01*
X85810Y127811D02*
X88000Y130000D01*
X83500Y127811D02*
X85810D01*
X82000Y129311D02*
X83500Y127811D01*
X77500Y129311D02*
X82000D01*
X76797Y130015D02*
X77500Y129311D01*
X76797Y130015D02*
Y131797D01*
X23605Y132370D02*
X24441D01*
X26500Y130310D01*
Y128311D02*
Y130310D01*
Y128311D02*
X27655Y127155D01*
X29155D01*
X31500Y124811D01*
X48090D01*
X55000Y117901D01*
Y106000D02*
Y117901D01*
Y106000D02*
X61000Y100001D01*
X99500D01*
X103000Y103500D01*
X121000D01*
X137500Y120001D01*
X141500D01*
X38367Y155219D02*
Y155227D01*
X37291Y156305D02*
X38367Y155227D01*
X32175Y156305D02*
X37291D01*
X31891Y156020D02*
X32175Y156305D01*
X31073Y156020D02*
X31891D01*
X31073Y156010D02*
Y156020D01*
X6291Y158957D02*
X7884D01*
X6007Y158672D02*
X6291Y158957D01*
X2881Y158672D02*
X6007D01*
X98Y155889D02*
X2881Y158672D01*
X-1925Y155889D02*
X98D01*
X-2520Y156483D02*
X-1925Y155889D01*
X153480Y45981D02*
X159000Y51500D01*
X153480Y31233D02*
Y45981D01*
X268500Y191000D02*
X271045Y188455D01*
Y174654D02*
Y188455D01*
X283000Y121004D02*
Y122711D01*
X280900Y124811D02*
X283000Y122711D01*
X146100Y107912D02*
X148000Y109811D01*
X146100Y98800D02*
Y107912D01*
Y98800D02*
X147244Y97657D01*
Y92677D02*
Y97657D01*
X218152Y142062D02*
Y142063D01*
X213500Y142062D02*
X218152D01*
X150393Y92677D02*
Y98107D01*
X149000Y99501D02*
X150393Y98107D01*
X149000Y99501D02*
Y103312D01*
X152500Y106811D01*
Y111311D01*
X165900Y99101D02*
X168000Y97000D01*
X165900Y99101D02*
Y106100D01*
X155500Y116500D02*
X165900Y106100D01*
X137500Y116500D02*
X155500D01*
X122050Y101050D02*
X137500Y116500D01*
X104090Y101050D02*
X122050D01*
X99800Y96760D02*
X104090Y101050D01*
X73792Y96760D02*
X99800D01*
X63621Y86589D02*
X73792Y96760D01*
X30389Y86589D02*
X63621D01*
X25700Y81901D02*
X30389Y86589D01*
X13600Y81901D02*
X25700D01*
X11500Y84000D02*
X13600Y81901D01*
X11500Y84000D02*
Y106000D01*
X16500Y111001D01*
Y118500D01*
X20000Y122001D01*
X23500D01*
X25480Y120020D01*
Y115233D02*
Y120020D01*
X288524Y206484D02*
Y213130D01*
X14183Y167815D02*
Y167815D01*
Y167815D02*
X18504D01*
X21000Y170310D01*
X23500D01*
X24500Y169310D01*
X44471Y131000D02*
X48000D01*
X43459Y132010D02*
X44471Y131000D01*
X35965Y132010D02*
X43459D01*
X35606Y132370D02*
X35965Y132010D01*
X35605Y132370D02*
X35606D01*
X107000Y91501D02*
X120500D01*
X102000Y86501D02*
X107000Y91501D01*
X74500Y86501D02*
X102000D01*
X70400Y82401D02*
X74500Y86501D01*
X34014Y82401D02*
X70400D01*
X31000Y79387D02*
X34014Y82401D01*
X31000Y72312D02*
Y79387D01*
X79980Y231521D02*
Y235689D01*
Y231521D02*
X83189Y228310D01*
X94100D01*
X97900Y224511D01*
Y219911D02*
Y224511D01*
Y219911D02*
X106700Y211110D01*
X112876D01*
X115200Y208787D01*
Y199001D02*
Y208787D01*
X112000Y77500D02*
X124500D01*
X130500Y83500D01*
X141057D01*
X145669Y88112D01*
Y92677D01*
X102580Y202532D02*
X108035D01*
X87610Y217500D02*
X102580Y202532D01*
X83500Y217500D02*
X87610D01*
X83129Y217129D02*
X83500Y217500D01*
X83129Y213130D02*
Y217129D01*
X119000Y204000D02*
Y214311D01*
Y204000D02*
X120469Y202532D01*
X124964D01*
X166141Y70670D02*
X171500Y76029D01*
Y78312D01*
X170866Y78945D02*
X171500Y78312D01*
X170866Y78945D02*
Y80551D01*
X114480Y11735D02*
Y11737D01*
X254597Y118904D02*
Y118904D01*
X79980Y235689D02*
Y242311D01*
X282225Y235689D02*
Y242483D01*
X282224Y235689D02*
X282225D01*
X72000Y144810D02*
X73000Y143810D01*
Y137700D02*
Y143810D01*
Y137700D02*
X74771Y135930D01*
X76797D01*
Y135931D01*
X183480Y31233D02*
Y43183D01*
X286612Y99700D02*
Y99701D01*
Y99700D02*
X288991D01*
X290708Y97983D01*
X104480Y11737D02*
Y16792D01*
X109500Y21812D01*
Y40483D01*
X277163Y99700D02*
Y99701D01*
X274585Y99700D02*
X277163D01*
X273566Y98681D02*
X274585Y99700D01*
X53540Y160442D02*
X53627Y160354D01*
X51455Y160442D02*
X53540D01*
X47308Y156296D02*
X51455Y160442D01*
X42829Y156296D02*
X47308D01*
X41753Y155219D02*
X42829Y156296D01*
X245502Y141235D02*
Y141236D01*
X239980Y141235D02*
X245502D01*
X24924Y171918D02*
Y171950D01*
X25524Y172550D01*
X26691D01*
X26975Y172266D01*
X27785D01*
X83130Y235689D02*
Y242211D01*
X83129Y235689D02*
X83130D01*
X145200Y217311D02*
Y217312D01*
X131727Y199811D02*
Y199811D01*
X94480Y11735D02*
Y11737D01*
X277163Y102849D02*
Y102850D01*
Y102849D02*
X280261D01*
X280800Y102312D01*
X262000Y82811D02*
Y85312D01*
X260400Y86911D02*
X262000Y85312D01*
X236202Y86911D02*
X260400D01*
X233799Y84512D02*
X236202Y86911D01*
X214600Y84512D02*
X233799D01*
X211100Y81011D02*
X214600Y84512D01*
X27785Y174233D02*
X31073D01*
X24924Y174418D02*
X25393Y173951D01*
X26683D01*
X26967Y174233D01*
X27785D01*
X58430Y155833D02*
Y157913D01*
Y155833D02*
X61000Y153264D01*
Y149910D02*
Y153264D01*
Y149910D02*
X66100Y144810D01*
X72000D01*
X233640Y87212D02*
X234539Y88112D01*
X261200D01*
X264500Y84812D01*
X94480Y11737D02*
Y16292D01*
X99280Y21091D01*
Y48087D01*
X119193Y68001D01*
X134497D01*
X140945Y74449D01*
Y80551D01*
X124964Y202532D02*
X124965D01*
X77186Y117390D02*
Y121502D01*
X76299Y122389D02*
X77186Y121502D01*
X286612Y101276D02*
Y101277D01*
Y101276D02*
X289465D01*
X293500Y105312D01*
Y112812D01*
X37291Y172550D02*
X38367Y171474D01*
X32175Y172550D02*
X37291D01*
X31891Y172266D02*
X32175Y172550D01*
X31073Y172266D02*
X31891D01*
X242200Y75484D02*
X255056D01*
X27785Y178171D02*
X31073D01*
X163480Y11735D02*
Y11737D01*
X41271Y44811D02*
X47811D01*
X51000Y48000D01*
Y70500D01*
X49189Y72312D02*
X51000Y70500D01*
X46000Y72312D02*
X49189D01*
X27785Y156010D02*
X31073D01*
X125400Y85000D02*
X129950Y89551D01*
X109000Y85000D02*
X125400D01*
X105000Y81001D02*
X109000Y85000D01*
X76000Y81001D02*
X105000D01*
X74700Y79700D02*
X76000Y81001D01*
X42300Y79700D02*
X74700D01*
X41000Y78400D02*
X42300Y79700D01*
X41000Y72312D02*
Y78400D01*
X236092Y140292D02*
Y140293D01*
X234123Y138323D02*
X236092Y140292D01*
X228033Y138323D02*
X234123D01*
X286612Y102849D02*
Y102850D01*
Y102849D02*
X288846D01*
X290480Y104483D01*
Y114812D01*
X290500Y114831D01*
Y119811D01*
X71400Y244500D02*
X72791Y245891D01*
X96093D01*
X104022Y237963D01*
X118369D01*
X125300Y231031D01*
Y216611D02*
Y231031D01*
X123000Y214311D02*
X125300Y216611D01*
X279075Y235689D02*
Y242483D01*
X31073Y174233D02*
Y174235D01*
X26817Y178171D02*
X27785D01*
X26533Y178456D02*
X26817Y178171D01*
X22153Y178456D02*
X26533D01*
X20976Y177279D02*
X22153Y178456D01*
X20976Y173965D02*
Y177279D01*
X19048Y172036D02*
X20976Y173965D01*
X16060Y172036D02*
X19048D01*
X15776Y171753D02*
X16060Y172036D01*
X14183Y171753D02*
X15776D01*
X84000Y208501D02*
X86500D01*
X83129Y209371D02*
X84000Y208501D01*
X83129Y209371D02*
Y213130D01*
X291673Y235689D02*
X291674D01*
Y242311D01*
X136220Y90720D02*
Y92677D01*
X135000Y89500D02*
X136220Y90720D01*
X31073Y150104D02*
Y150106D01*
X290683Y141235D02*
Y141236D01*
X287000Y141235D02*
X290683D01*
X286000Y140235D02*
X287000Y141235D01*
X286000Y135810D02*
Y140235D01*
Y135810D02*
X287500Y134310D01*
Y118312D02*
Y134310D01*
Y118312D02*
X288500Y117312D01*
Y114312D02*
Y117312D01*
X287000Y112812D02*
X288500Y114312D01*
X252000Y96811D02*
X259229D01*
X250750Y98062D02*
X252000Y96811D01*
X250750Y98062D02*
Y98914D01*
X151968Y92677D02*
Y99344D01*
X151500Y99812D02*
X151968Y99344D01*
D17*
X223576Y157729D02*
Y159888D01*
X222480Y160984D02*
X223576Y159888D01*
X219442Y157728D02*
Y157729D01*
Y160945D02*
X219480Y160984D01*
X219442Y157729D02*
Y160945D01*
X225480Y160984D02*
X225742Y160722D01*
Y157729D02*
Y160722D01*
X223576Y157728D02*
Y157729D01*
X225742Y157728D02*
Y157729D01*
X221608Y160113D02*
X222480Y160984D01*
X221608Y157729D02*
Y160113D01*
Y157728D02*
Y157729D01*
D18*
X30709Y167225D02*
Y168712D01*
X247600Y105213D02*
Y107701D01*
X248200Y108300D01*
X249175Y105213D02*
Y107325D01*
X248200Y108300D02*
X249175Y107325D01*
X61658Y166654D02*
X61659Y166653D01*
X63800D01*
D21*
X291480Y31232D02*
D03*
Y11736D02*
D03*
X281480Y31232D02*
D03*
Y11736D02*
D03*
X271480Y31232D02*
D03*
Y11736D02*
D03*
X252480Y31232D02*
D03*
Y11736D02*
D03*
X242480Y31232D02*
D03*
Y11736D02*
D03*
X232480Y31232D02*
D03*
Y11736D02*
D03*
X222480Y31232D02*
D03*
Y11736D02*
D03*
X212480Y31232D02*
D03*
Y11736D02*
D03*
X202480Y31232D02*
D03*
Y11736D02*
D03*
X183480Y31232D02*
D03*
Y11736D02*
D03*
X173480Y31232D02*
D03*
Y11736D02*
D03*
X163480Y31232D02*
D03*
Y11736D02*
D03*
X153480Y31232D02*
D03*
Y11736D02*
D03*
X143480Y31232D02*
D03*
Y11736D02*
D03*
X133480Y31232D02*
D03*
Y11736D02*
D03*
X114480Y31232D02*
D03*
Y11736D02*
D03*
X104480Y31232D02*
D03*
Y11736D02*
D03*
X94480Y31232D02*
D03*
Y11736D02*
D03*
X84480Y31232D02*
D03*
Y11736D02*
D03*
X74480Y31232D02*
D03*
Y11736D02*
D03*
X64480Y31232D02*
D03*
Y11736D02*
D03*
X45480Y31232D02*
D03*
Y11736D02*
D03*
X35480Y31232D02*
D03*
Y11736D02*
D03*
X25480Y31232D02*
D03*
Y11736D02*
D03*
Y95736D02*
D03*
Y115232D02*
D03*
X35480Y95736D02*
D03*
Y115232D02*
D03*
X45480Y95736D02*
D03*
Y115232D02*
D03*
D22*
X20807Y45400D02*
D03*
X24193D02*
D03*
X221285Y132563D02*
D03*
X217899D02*
D03*
X287274Y94063D02*
D03*
X283888D02*
D03*
X276507Y93911D02*
D03*
X279893D02*
D03*
X263285Y121063D02*
D03*
X259899D02*
D03*
X271399Y117063D02*
D03*
X274785D02*
D03*
Y121063D02*
D03*
X271399D02*
D03*
X259899Y117063D02*
D03*
X263285D02*
D03*
X226240Y58984D02*
D03*
X229626D02*
D03*
X226305Y71889D02*
D03*
X229691D02*
D03*
X253774Y94063D02*
D03*
X250388D02*
D03*
X243195D02*
D03*
X246581D02*
D03*
X278723Y183563D02*
D03*
X275337D02*
D03*
X262399D02*
D03*
X265785D02*
D03*
X41753Y171473D02*
D03*
X38367D02*
D03*
X41753Y175027D02*
D03*
X38367D02*
D03*
X59807Y127811D02*
D03*
X63192D02*
D03*
X41753Y158772D02*
D03*
X38367D02*
D03*
X41753Y155218D02*
D03*
X38367D02*
D03*
X286692Y77811D02*
D03*
X283307D02*
D03*
X131807Y207811D02*
D03*
X135193D02*
D03*
D23*
X41272Y44811D02*
D03*
X37728D02*
D03*
X151771Y206811D02*
D03*
X148228D02*
D03*
Y210810D02*
D03*
X151771D02*
D03*
X223794Y95678D02*
D03*
X220250D02*
D03*
X223794Y115363D02*
D03*
X220250D02*
D03*
X223794Y125204D02*
D03*
X220250D02*
D03*
X223794Y105521D02*
D03*
X220250D02*
D03*
X294251Y97984D02*
D03*
X290708D02*
D03*
X262772Y100811D02*
D03*
X259228D02*
D03*
X259821Y112063D02*
D03*
X263365D02*
D03*
X271321D02*
D03*
X274865D02*
D03*
X262772Y96811D02*
D03*
X259228D02*
D03*
X61729Y122311D02*
D03*
X65272D02*
D03*
X72756Y122389D02*
D03*
X76300D02*
D03*
X72560Y103922D02*
D03*
X76104D02*
D03*
X291228Y77811D02*
D03*
X294772D02*
D03*
X65272Y103811D02*
D03*
X61729D02*
D03*
X135271Y199811D02*
D03*
X131728D02*
D03*
X274729Y77811D02*
D03*
X278272D02*
D03*
D24*
X26000Y56312D02*
D03*
Y72312D02*
D03*
X31000Y56312D02*
D03*
Y72312D02*
D03*
X36000Y56312D02*
D03*
Y72312D02*
D03*
X41000Y56312D02*
D03*
Y72312D02*
D03*
X46000Y56312D02*
D03*
Y72312D02*
D03*
D25*
X292661Y69811D02*
D03*
X275339D02*
D03*
X49339Y136811D02*
D03*
X66661D02*
D03*
D26*
X264235Y80483D02*
D03*
X265810D02*
D03*
X264235Y78908D02*
D03*
X265810D02*
D03*
D27*
X299999Y156504D02*
D03*
Y153119D02*
D03*
X236092Y134756D02*
D03*
Y131370D02*
D03*
X283000Y121004D02*
D03*
Y117618D02*
D03*
X279000Y117618D02*
D03*
Y121004D02*
D03*
X299541Y168450D02*
D03*
Y165064D02*
D03*
X74939Y164928D02*
D03*
Y168314D02*
D03*
X71239Y164928D02*
D03*
Y168314D02*
D03*
X29429Y138580D02*
D03*
Y141966D02*
D03*
X231592Y156756D02*
D03*
Y153370D02*
D03*
X236092Y156756D02*
D03*
Y153370D02*
D03*
Y161370D02*
D03*
Y164756D02*
D03*
Y172563D02*
D03*
Y169177D02*
D03*
D28*
X255170Y55811D02*
D03*
X238832D02*
D03*
X238718Y75484D02*
D03*
X255057D02*
D03*
D29*
X253202Y61815D02*
D03*
X240800D02*
D03*
Y49807D02*
D03*
X253202D02*
D03*
X253088Y81488D02*
D03*
X240687D02*
D03*
Y69480D02*
D03*
X253088D02*
D03*
D30*
X65158Y117311D02*
D03*
X59843D02*
D03*
X77186Y117389D02*
D03*
X71871D02*
D03*
X77186Y110273D02*
D03*
X71871Y110273D02*
D03*
X59842Y110311D02*
D03*
X65158D02*
D03*
D31*
X35606Y132370D02*
D03*
Y127252D02*
D03*
X41393Y129811D02*
D03*
X29393D02*
D03*
X23606Y127252D02*
D03*
Y132370D02*
D03*
D32*
X151799Y215342D02*
D03*
Y217311D02*
D03*
Y219280D02*
D03*
X145201D02*
D03*
Y217311D02*
D03*
Y215342D02*
D03*
D33*
X143500Y207311D02*
D03*
X268500Y191000D02*
D03*
X274500D02*
D03*
X287000Y112811D02*
D03*
X255500Y108811D02*
D03*
X290500Y119811D02*
D03*
X293500Y112811D02*
D03*
X-1000Y202811D02*
D03*
X314960Y23622D02*
D03*
X1000D02*
D03*
D34*
X136999Y226196D02*
D03*
Y219425D02*
D03*
D35*
X301753Y99909D02*
D03*
Y96760D02*
D03*
Y77862D02*
D03*
Y74713D02*
D03*
D36*
Y94201D02*
D03*
Y92232D02*
D03*
Y90264D02*
D03*
Y88295D02*
D03*
Y86327D02*
D03*
Y84358D02*
D03*
Y82390D02*
D03*
Y80421D02*
D03*
D37*
X124965Y207650D02*
D03*
Y205090D02*
D03*
Y202532D02*
D03*
Y199972D02*
D03*
X108035D02*
D03*
Y202532D02*
D03*
Y205090D02*
D03*
Y207650D02*
D03*
D38*
X144200Y225811D02*
D03*
X149800D02*
D03*
D39*
X157500Y220610D02*
D03*
Y215010D02*
D03*
D40*
X236000Y126084D02*
D03*
Y122541D02*
D03*
X270500Y95139D02*
D03*
Y98682D02*
D03*
X222000Y69582D02*
D03*
Y66039D02*
D03*
X162999Y217039D02*
D03*
Y220582D02*
D03*
X236092Y140292D02*
D03*
Y143835D02*
D03*
X192480Y67755D02*
D03*
Y64212D02*
D03*
X181228D02*
D03*
Y67755D02*
D03*
X170232Y64212D02*
D03*
Y67755D02*
D03*
X65616Y181348D02*
D03*
Y177805D02*
D03*
X53627Y177806D02*
D03*
Y181349D02*
D03*
X66116Y154072D02*
D03*
Y157615D02*
D03*
X56855Y153687D02*
D03*
Y150144D02*
D03*
X140000Y210539D02*
D03*
Y214082D02*
D03*
X294000Y88040D02*
D03*
Y91583D02*
D03*
D41*
X245148Y118904D02*
D03*
X249873D02*
D03*
X254597D02*
D03*
D42*
X228622Y66173D02*
D03*
Y64795D02*
D03*
X227244Y66173D02*
D03*
Y64795D02*
D03*
D43*
X253112Y99701D02*
D03*
Y101276D02*
D03*
Y102851D02*
D03*
Y104426D02*
D03*
X243663D02*
D03*
Y102851D02*
D03*
Y101276D02*
D03*
Y99701D02*
D03*
X286612D02*
D03*
X286612Y101276D02*
D03*
Y102851D02*
D03*
X286612Y104426D02*
D03*
X277163D02*
D03*
Y102851D02*
D03*
Y101276D02*
D03*
Y99701D02*
D03*
D44*
X246026Y99111D02*
D03*
X279526D02*
D03*
D45*
X247600Y98914D02*
D03*
X249175D02*
D03*
X250750D02*
D03*
Y105213D02*
D03*
X249175D02*
D03*
X247600D02*
D03*
X246026D02*
D03*
X281100Y98914D02*
D03*
X282675D02*
D03*
X284250D02*
D03*
Y105213D02*
D03*
X282675D02*
D03*
X281100D02*
D03*
X279526D02*
D03*
D46*
X134646Y171417D02*
D03*
Y159291D02*
D03*
X136221Y171417D02*
D03*
Y159291D02*
D03*
X137795Y171417D02*
D03*
Y159291D02*
D03*
X139370Y171417D02*
D03*
Y159291D02*
D03*
X140945Y171417D02*
D03*
Y159291D02*
D03*
X142520Y171417D02*
D03*
Y159291D02*
D03*
X144095Y171417D02*
D03*
Y159291D02*
D03*
X145669Y171417D02*
D03*
Y159291D02*
D03*
X147244Y171417D02*
D03*
Y159291D02*
D03*
X148819Y171417D02*
D03*
Y159291D02*
D03*
X150394Y171417D02*
D03*
Y159291D02*
D03*
X151969Y171417D02*
D03*
Y159291D02*
D03*
X153543Y171417D02*
D03*
Y159291D02*
D03*
X155118Y171417D02*
D03*
Y159291D02*
D03*
X156693Y171417D02*
D03*
Y159291D02*
D03*
X158268Y171417D02*
D03*
Y159291D02*
D03*
X159843Y171417D02*
D03*
Y159291D02*
D03*
X161417Y171417D02*
D03*
Y159291D02*
D03*
X162992Y171417D02*
D03*
Y159291D02*
D03*
X164567Y171417D02*
D03*
Y159291D02*
D03*
X166142Y171417D02*
D03*
Y159291D02*
D03*
X167717Y171417D02*
D03*
Y159291D02*
D03*
X169291Y171417D02*
D03*
Y159291D02*
D03*
X170866Y171417D02*
D03*
Y159291D02*
D03*
X172441Y171417D02*
D03*
Y159291D02*
D03*
X174016Y171417D02*
D03*
Y159291D02*
D03*
X175591Y171417D02*
D03*
Y159291D02*
D03*
X177165Y171417D02*
D03*
Y159291D02*
D03*
X178740Y171417D02*
D03*
Y159291D02*
D03*
X180315Y171417D02*
D03*
Y159291D02*
D03*
X134646Y92677D02*
D03*
Y80551D02*
D03*
X136221Y92677D02*
D03*
Y80551D02*
D03*
X137795Y92677D02*
D03*
Y80551D02*
D03*
X139370Y92677D02*
D03*
Y80551D02*
D03*
X140945Y92677D02*
D03*
Y80551D02*
D03*
X142520Y92677D02*
D03*
Y80551D02*
D03*
X144095Y92677D02*
D03*
Y80551D02*
D03*
X145669Y92677D02*
D03*
Y80551D02*
D03*
X147244Y92677D02*
D03*
Y80551D02*
D03*
X148819Y92677D02*
D03*
Y80551D02*
D03*
X150394Y92677D02*
D03*
Y80551D02*
D03*
X151969Y92677D02*
D03*
Y80551D02*
D03*
X153543Y92677D02*
D03*
Y80551D02*
D03*
X155118Y92677D02*
D03*
Y80551D02*
D03*
X156693D02*
D03*
X158268D02*
D03*
X159843D02*
D03*
X161417D02*
D03*
X162992D02*
D03*
X164567Y92677D02*
D03*
Y80551D02*
D03*
X166142Y92677D02*
D03*
Y80551D02*
D03*
X167717Y92677D02*
D03*
Y80551D02*
D03*
X169291Y92677D02*
D03*
Y80551D02*
D03*
X170866Y92677D02*
D03*
Y80551D02*
D03*
X172441Y92677D02*
D03*
Y80551D02*
D03*
X174016Y92677D02*
D03*
Y80551D02*
D03*
X175591Y92677D02*
D03*
Y80551D02*
D03*
X177165Y92677D02*
D03*
Y80551D02*
D03*
X178740Y92677D02*
D03*
Y80551D02*
D03*
X180315Y92677D02*
D03*
Y80551D02*
D03*
X156693Y92677D02*
D03*
X158268D02*
D03*
X159843D02*
D03*
X161417D02*
D03*
X162992D02*
D03*
D47*
X76797Y138096D02*
D03*
X81128D02*
D03*
Y131797D02*
D03*
X76797D02*
D03*
D48*
Y135931D02*
D03*
X81128Y133962D02*
D03*
Y135931D02*
D03*
X76797Y133962D02*
D03*
D49*
X3809Y121908D02*
D03*
D50*
X7884Y176673D02*
D03*
Y172736D02*
D03*
Y174705D02*
D03*
Y168799D02*
D03*
Y162894D02*
D03*
Y164862D02*
D03*
Y170768D02*
D03*
Y156988D02*
D03*
Y155020D02*
D03*
Y160925D02*
D03*
Y158957D02*
D03*
Y166831D02*
D03*
D51*
X14183Y154035D02*
D03*
Y156004D02*
D03*
Y159941D02*
D03*
Y157972D02*
D03*
Y171752D02*
D03*
Y173720D02*
D03*
Y175689D02*
D03*
Y165846D02*
D03*
Y161909D02*
D03*
Y163878D02*
D03*
Y169783D02*
D03*
Y167815D02*
D03*
D52*
X31073Y180140D02*
D03*
Y178172D02*
D03*
Y174235D02*
D03*
Y172266D02*
D03*
X27786D02*
D03*
Y174235D02*
D03*
Y178172D02*
D03*
Y180140D02*
D03*
Y150105D02*
D03*
Y152074D02*
D03*
Y156011D02*
D03*
Y157979D02*
D03*
X31073D02*
D03*
Y156011D02*
D03*
Y152074D02*
D03*
Y150105D02*
D03*
D53*
Y176203D02*
D03*
X27786D02*
D03*
Y154042D02*
D03*
X31073D02*
D03*
D54*
X53627Y161929D02*
D03*
Y158780D02*
D03*
Y160354D02*
D03*
Y163504D02*
D03*
Y168228D02*
D03*
Y165079D02*
D03*
Y166654D02*
D03*
Y172953D02*
D03*
Y169803D02*
D03*
Y171378D02*
D03*
X61659Y158780D02*
D03*
Y160354D02*
D03*
Y161929D02*
D03*
Y166654D02*
D03*
Y163504D02*
D03*
Y165079D02*
D03*
Y171378D02*
D03*
Y172953D02*
D03*
Y168228D02*
D03*
Y169803D02*
D03*
D55*
X56855Y157913D02*
D03*
X58430D02*
D03*
Y173819D02*
D03*
X56855D02*
D03*
D56*
X38029Y139073D02*
D03*
D57*
X33895D02*
D03*
X42163Y141041D02*
D03*
Y139073D02*
D03*
Y137104D02*
D03*
X33895D02*
D03*
Y141041D02*
D03*
D58*
X28150Y167225D02*
D03*
Y165650D02*
D03*
Y164075D02*
D03*
X30709Y167225D02*
D03*
Y165650D02*
D03*
Y164075D02*
D03*
X284221Y85386D02*
D03*
Y83811D02*
D03*
Y82236D02*
D03*
X286779Y85386D02*
D03*
Y83811D02*
D03*
Y82236D02*
D03*
D59*
X218152Y145803D02*
D03*
Y142063D02*
D03*
Y138323D02*
D03*
X228034Y145803D02*
D03*
Y142063D02*
D03*
Y138323D02*
D03*
D60*
X245502Y137300D02*
D03*
Y139268D02*
D03*
Y141236D02*
D03*
Y143205D02*
D03*
Y145174D02*
D03*
Y147142D02*
D03*
Y149110D02*
D03*
Y151079D02*
D03*
Y153048D02*
D03*
Y155016D02*
D03*
Y156984D02*
D03*
Y158953D02*
D03*
Y160922D02*
D03*
Y162890D02*
D03*
Y164858D02*
D03*
Y166827D02*
D03*
X290683D02*
D03*
Y164858D02*
D03*
Y162890D02*
D03*
Y160922D02*
D03*
Y158953D02*
D03*
Y156984D02*
D03*
Y155016D02*
D03*
Y153048D02*
D03*
Y151079D02*
D03*
Y149110D02*
D03*
Y147142D02*
D03*
Y145174D02*
D03*
Y143205D02*
D03*
Y141236D02*
D03*
Y139268D02*
D03*
Y137300D02*
D03*
D61*
X253329Y174654D02*
D03*
X255297D02*
D03*
X282857Y129473D02*
D03*
X280888D02*
D03*
X278920D02*
D03*
X276951D02*
D03*
X274983D02*
D03*
X255297D02*
D03*
X257266D02*
D03*
X259234D02*
D03*
X261203D02*
D03*
X263172D02*
D03*
X265140D02*
D03*
X267109D02*
D03*
X269077D02*
D03*
X271046D02*
D03*
X273014D02*
D03*
X282857Y174654D02*
D03*
X280888D02*
D03*
X278920D02*
D03*
X276951D02*
D03*
X274983D02*
D03*
X273014D02*
D03*
X271046D02*
D03*
X269077D02*
D03*
X267109D02*
D03*
X265140D02*
D03*
X263172D02*
D03*
X261203D02*
D03*
X259234D02*
D03*
X257266D02*
D03*
D62*
X253329Y129473D02*
D03*
D63*
X291674Y235689D02*
D03*
X288524D02*
D03*
X285374D02*
D03*
X282225D02*
D03*
X279075D02*
D03*
X275925D02*
D03*
X272776D02*
D03*
X269626D02*
D03*
X266477D02*
D03*
X263327D02*
D03*
X260177D02*
D03*
X257028D02*
D03*
X253878D02*
D03*
X250729D02*
D03*
X247579D02*
D03*
X244429D02*
D03*
X241280D02*
D03*
X238130D02*
D03*
X234981D02*
D03*
X231831D02*
D03*
X83130D02*
D03*
X79980D02*
D03*
X76830D02*
D03*
X73681D02*
D03*
X70531D02*
D03*
X67382D02*
D03*
X64232D02*
D03*
X61082D02*
D03*
X57933D02*
D03*
X54783D02*
D03*
X51634D02*
D03*
X48484D02*
D03*
X45334D02*
D03*
X42185D02*
D03*
X39035D02*
D03*
X35886D02*
D03*
X32736D02*
D03*
X29586D02*
D03*
X26437D02*
D03*
X23287D02*
D03*
D64*
X291674Y213130D02*
D03*
X288524D02*
D03*
X285374D02*
D03*
X282225D02*
D03*
X279075D02*
D03*
X275925D02*
D03*
X272776D02*
D03*
X269626D02*
D03*
X266477D02*
D03*
X263327D02*
D03*
X260177D02*
D03*
X257028D02*
D03*
X253878D02*
D03*
X250729D02*
D03*
X247579D02*
D03*
X244429D02*
D03*
X241280D02*
D03*
X238130D02*
D03*
X234981D02*
D03*
X231831D02*
D03*
X83130D02*
D03*
X79980D02*
D03*
X76830D02*
D03*
X73681D02*
D03*
X70531D02*
D03*
X67382D02*
D03*
X64232D02*
D03*
X61082D02*
D03*
X57933D02*
D03*
X54783D02*
D03*
X51634D02*
D03*
X48484D02*
D03*
X45334D02*
D03*
X42185D02*
D03*
X39035D02*
D03*
X35886D02*
D03*
X32736D02*
D03*
X29586D02*
D03*
X26437D02*
D03*
X23287D02*
D03*
D65*
X293504Y224410D02*
D03*
X230000D02*
D03*
X84960D02*
D03*
X21456D02*
D03*
D66*
X274252D02*
D03*
X249252D02*
D03*
X65708D02*
D03*
X40708D02*
D03*
D67*
X225742Y157729D02*
D03*
X219443D02*
D03*
X225742Y153398D02*
D03*
X219443D02*
D03*
D68*
X223577Y157729D02*
D03*
X221608D02*
D03*
Y153398D02*
D03*
X223577D02*
D03*
D119*
X120472Y125985D02*
D03*
X118050Y131831D02*
D03*
X112204Y134252D02*
D03*
X103936Y125985D02*
D03*
X106358Y131831D02*
D03*
X112204Y117717D02*
D03*
X106358Y120138D02*
D03*
X118050D02*
D03*
X8268Y0D02*
D03*
X5846Y5846D02*
D03*
X0Y8268D02*
D03*
X-8268Y0D02*
D03*
X-5846Y5846D02*
D03*
X0Y-8268D02*
D03*
X-5846Y-5846D02*
D03*
X5846D02*
D03*
X323228Y248031D02*
D03*
X320807Y253878D02*
D03*
X314961Y256299D02*
D03*
X306693Y248031D02*
D03*
X309115Y253878D02*
D03*
X314961Y239764D02*
D03*
X309115Y242185D02*
D03*
X320807D02*
D03*
X8268Y248031D02*
D03*
X5846Y253878D02*
D03*
X0Y256299D02*
D03*
X-8268Y248031D02*
D03*
X-5846Y253878D02*
D03*
X0Y239764D02*
D03*
X-5846Y242185D02*
D03*
X5846D02*
D03*
X320807Y-5846D02*
D03*
X309115D02*
D03*
X314961Y-8268D02*
D03*
X309115Y5846D02*
D03*
X306693Y0D02*
D03*
X314961Y8268D02*
D03*
X320807Y5846D02*
D03*
X323228Y0D02*
D03*
D130*
X57643Y165866D02*
D03*
D131*
X24347Y42654D02*
Y45246D01*
X24193Y45400D02*
X24347Y45246D01*
Y42654D02*
X24500Y42500D01*
X24193Y45400D02*
Y48193D01*
X20500Y45093D02*
X20807Y45400D01*
X24193Y48193D02*
X26000Y50001D01*
Y56312D01*
X20500Y42500D02*
Y45093D01*
D132*
X144911Y162311D02*
X148819D01*
X144173Y161573D02*
X144911Y162311D01*
X144095Y159291D02*
X144173Y159370D01*
Y161573D01*
X139945Y174305D02*
X143395D01*
X139370Y173730D02*
X139945Y174305D01*
X143395D02*
X144016Y173684D01*
Y171496D02*
X144095Y171417D01*
X144016Y171496D02*
Y173684D01*
X134646Y170433D02*
Y171417D01*
X133713Y169500D02*
X134646Y170433D01*
X133400Y169500D02*
X133713D01*
D133*
X139370Y171416D02*
Y173730D01*
X134600Y156714D02*
Y159246D01*
X134000Y156114D02*
X134600Y156714D01*
Y159246D02*
X134646Y159291D01*
X134000Y155900D02*
Y156114D01*
X33454Y154586D02*
X33591D01*
X167716Y80550D02*
Y83217D01*
X168500Y84000D01*
X132500Y94001D02*
X134000D01*
X134645Y93356D01*
Y92677D02*
Y93356D01*
X31073Y154042D02*
X32911D01*
X33454Y154586D01*
X33591D02*
Y154595D01*
X153543Y159292D02*
Y162311D01*
X148819Y168491D02*
Y171417D01*
Y168491D02*
X149500Y167810D01*
X172441Y80550D02*
Y82871D01*
X171500Y83811D02*
X172441Y82871D01*
X27785Y154042D02*
Y154042D01*
Y154042D02*
X31073D01*
X153543Y167810D02*
Y171417D01*
X180315Y91496D02*
Y92677D01*
Y91496D02*
X180750Y91062D01*
X178740Y78875D02*
Y80551D01*
Y78875D02*
X180033Y77583D01*
X180227D01*
X162992Y159292D02*
Y162311D01*
X177165Y159292D02*
Y162311D01*
X175590Y92677D02*
Y94722D01*
X155118Y89483D02*
Y92677D01*
X167716Y167810D02*
Y171417D01*
X148819Y159292D02*
Y162311D01*
X158267Y167810D02*
Y171417D01*
X134645Y79456D02*
Y80551D01*
X133600Y78412D02*
X134645Y79456D01*
X132900Y78412D02*
X133600D01*
X172441Y167810D02*
Y171417D01*
X162992Y167810D02*
Y171417D01*
X31073Y154042D02*
Y154042D01*
X172441Y159292D02*
Y162311D01*
X177165Y167810D02*
Y171417D01*
X169291Y77101D02*
Y80551D01*
X177165Y92677D02*
Y95147D01*
X170000Y89500D02*
X170866Y90367D01*
Y92677D01*
X177165Y78146D02*
Y80551D01*
Y78146D02*
X177333Y77978D01*
X158267Y159292D02*
Y162311D01*
X167716Y159292D02*
Y162311D01*
X178740Y92677D02*
Y94551D01*
D134*
X29771Y184230D02*
X67870D01*
X69350Y182750D02*
X73950D01*
X67870Y184230D02*
X69350Y182750D01*
X73950D02*
X77600Y179101D01*
X26480Y187521D02*
X29771Y184230D01*
X120800Y171200D02*
X123100D01*
X95201Y167600D02*
X117200D01*
X120800Y171200D01*
X94400Y168401D02*
X95201Y167600D01*
X83100Y168401D02*
X94400D01*
X77600Y173900D02*
X83100Y168401D01*
X218085Y100401D02*
Y100402D01*
X220250Y102568D02*
Y105522D01*
X218085Y100401D02*
X220250Y102568D01*
X257000Y114312D02*
Y117312D01*
X256000Y113312D02*
X257000Y114312D01*
X254500Y113312D02*
X256000D01*
X278919Y178983D02*
Y183367D01*
X278723Y183563D02*
X278919Y183367D01*
X26480Y187521D02*
Y201983D01*
X77600Y173900D02*
Y179101D01*
X299541Y168450D02*
X302139D01*
X302500Y168810D01*
X242000Y117312D02*
Y122810D01*
X243000Y169810D02*
X247500D01*
X245000Y113312D02*
X249873D01*
X287274Y94064D02*
X290000D01*
X220250Y112410D02*
Y115364D01*
X218085Y110246D02*
X220250Y112410D01*
X169500Y50501D02*
X183500D01*
X165499Y54501D02*
X169500Y50501D01*
X135999Y54501D02*
X165499D01*
X182500Y89311D02*
X203000D01*
X204249Y90561D01*
X218085D01*
X242000Y114812D02*
Y117312D01*
Y114812D02*
X243500Y113312D01*
X245000D01*
X223673Y58983D02*
X226240D01*
X-6500Y121908D02*
X3809D01*
X226240Y58983D02*
Y62811D01*
X299541Y165065D02*
X301747D01*
X302500Y164311D01*
X253774Y94064D02*
X256600D01*
X265785Y185564D02*
X266704Y186484D01*
X265785Y183563D02*
Y185564D01*
X218085Y120087D02*
X220250Y122250D01*
Y125205D01*
X257000Y117312D02*
Y122810D01*
X220250Y92725D02*
Y95679D01*
X218085Y90561D02*
X220250Y92725D01*
X295259Y143204D02*
X295894D01*
X297000Y144310D01*
Y150119D01*
X299999Y153119D01*
X215483Y117483D02*
X218085Y120087D01*
X191697Y117483D02*
X215483D01*
X174802Y100590D02*
X191697Y117483D01*
X246500Y127311D02*
X250500D01*
X261480Y186484D02*
X262399Y185564D01*
Y183563D02*
Y185564D01*
X274982Y183209D02*
X275337Y183563D01*
X274982Y178983D02*
Y183209D01*
X274418Y184482D02*
Y186484D01*
Y184482D02*
X275337Y183563D01*
X242000Y122810D02*
X246500Y127311D01*
X275337Y183563D02*
Y183563D01*
X214910Y97227D02*
X218085Y100401D01*
X181416Y97227D02*
X214910D01*
X180000Y95811D02*
X181416Y97227D01*
X226240Y56050D02*
Y58983D01*
X279642Y184982D02*
Y186484D01*
X278723Y184063D02*
X279642Y184982D01*
X278723Y183563D02*
Y184063D01*
X295000Y164858D02*
X299335D01*
X299541Y165065D01*
X189918Y110246D02*
X218085D01*
X177165Y97492D02*
X189918Y110246D01*
X265785Y180130D02*
Y183563D01*
X265140Y179483D02*
X265785Y180130D01*
X265140Y178483D02*
Y179483D01*
X249873Y113312D02*
X254500D01*
X255000Y182810D02*
X258500D01*
X247500Y175311D02*
X255000Y182810D01*
X247500Y169810D02*
Y175311D01*
D135*
X236092Y172563D02*
Y172564D01*
X233748Y172563D02*
X236092D01*
X233000Y173310D02*
X233748Y172563D01*
X236092Y156756D02*
X238945D01*
X232980Y165483D02*
X233708Y164757D01*
X236092D01*
X238635Y137299D02*
X241000D01*
X236092Y134757D02*
X238635Y137299D01*
X283306Y74812D02*
Y77811D01*
X232634Y169177D02*
X236092D01*
X221285Y129311D02*
Y132563D01*
X236194Y164858D02*
X240000D01*
X236092Y164757D02*
X236194Y164858D01*
X302692Y153119D02*
X303000Y152811D01*
X232480Y135984D02*
X233708Y134757D01*
X236092D01*
X226305Y71890D02*
Y74812D01*
X57000Y127811D02*
X59806D01*
X240500Y167810D02*
X241000Y167311D01*
X237458Y167810D02*
X240500D01*
X236092Y169177D02*
X237458Y167810D01*
X232980Y160484D02*
X233866Y161371D01*
X236092D01*
X232480Y130483D02*
X233366Y131370D01*
X236092D01*
X228500Y156756D02*
X231592D01*
X299999Y153119D02*
X302692D01*
X302693Y156504D02*
X303000Y156810D01*
X299999Y156504D02*
X302693D01*
X59806Y127811D02*
Y130617D01*
D136*
X108035Y207649D02*
Y207650D01*
X103500D02*
X108035D01*
X103500Y199972D02*
X108035D01*
D137*
X267500Y82173D02*
Y82311D01*
X265810Y78908D02*
X267453Y77266D01*
X265810Y78908D02*
Y78908D01*
X263975Y78648D02*
X264235Y78908D01*
Y78908D01*
X265810Y80483D02*
Y80484D01*
Y80483D02*
X267500Y82173D01*
X267453Y77266D02*
X267454D01*
D138*
X228622Y64796D02*
X229817Y63600D01*
X226726Y64276D02*
X227244Y64796D01*
X228622Y66172D02*
X229083Y66633D01*
X228622Y66172D02*
Y66173D01*
D139*
X286779Y85386D02*
X286780D01*
X288000Y86312D02*
Y87312D01*
X287074Y85386D02*
X288000Y86312D01*
X286780Y85386D02*
X287074D01*
X283925D02*
X284221D01*
X283000Y86312D02*
X283925Y85386D01*
X283000Y86312D02*
Y87312D01*
D140*
X81127Y138095D02*
Y138096D01*
Y138095D02*
X82127D01*
X84921Y140890D01*
X135193Y205118D02*
Y207811D01*
Y205118D02*
X135500Y204811D01*
X235000Y55812D02*
X238832D01*
X174802Y95508D02*
Y100590D01*
Y95508D02*
X175000Y95311D01*
X131500Y204811D02*
X131807Y205118D01*
Y207810D01*
Y207811D01*
X124964Y207649D02*
X124965Y207650D01*
X125126Y207810D01*
X131807D01*
D141*
X140000Y214082D02*
Y214083D01*
Y214082D02*
X143271D01*
X144532Y215343D01*
X145200D01*
Y215342D02*
Y215343D01*
X145201D01*
X245502Y162890D02*
Y162891D01*
X241579Y162890D02*
X245502D01*
X240500Y161811D02*
X241579Y162890D01*
D142*
X79900Y205000D02*
X81000D01*
X76830Y208070D02*
X79900Y205000D01*
X76830Y208070D02*
Y213130D01*
X285374Y206484D02*
Y213130D01*
D143*
X178740Y94551D02*
X180000Y95811D01*
D144*
X290000Y169810D02*
Y199500D01*
X285374Y204127D02*
X290000Y199500D01*
X285374Y204127D02*
Y206484D01*
D145*
X303366Y143311D02*
D03*
X323366D02*
D03*
Y123311D02*
D03*
X303366D02*
D03*
X313366Y133311D02*
D03*
Y189311D02*
D03*
X303366Y179311D02*
D03*
X323366D02*
D03*
Y199311D02*
D03*
X303366D02*
D03*
D146*
X208583Y70984D02*
D03*
X186732Y60984D02*
D03*
X197583Y70984D02*
D03*
Y60984D02*
D03*
X186732Y70984D02*
D03*
X175590Y60984D02*
D03*
Y70984D02*
D03*
X218085Y90560D02*
D03*
X225959D02*
D03*
Y100402D02*
D03*
X218085D02*
D03*
X225959Y110245D02*
D03*
X218085D02*
D03*
X225959Y120086D02*
D03*
X218085D02*
D03*
D147*
X314961Y248031D02*
D03*
X112204Y125985D02*
D03*
X0Y0D02*
D03*
Y248031D02*
D03*
X314961Y0D02*
D03*
D148*
X305985Y98689D02*
D03*
Y75933D02*
D03*
D149*
X304017Y70303D02*
D03*
Y104319D02*
D03*
D150*
X320474D02*
D03*
Y70303D02*
D03*
D151*
X270433Y55118D02*
D03*
X8809Y134773D02*
D03*
X310000Y55223D02*
D03*
D152*
X280433Y55118D02*
D03*
X290433D02*
D03*
X-1191Y134773D02*
D03*
X320000Y55223D02*
D03*
D153*
X-8455Y148346D02*
D03*
Y182362D02*
D03*
D154*
X3809Y151181D02*
D03*
D155*
X3553Y179527D02*
D03*
D156*
X8868Y149626D02*
D03*
Y181083D02*
D03*
D157*
X11427Y148346D02*
D03*
Y182362D02*
D03*
D158*
X202697Y224410D02*
D03*
X320807D02*
D03*
X-5847D02*
D03*
X112263D02*
D03*
D159*
X301378Y234902D02*
D03*
X222126D02*
D03*
X92834D02*
D03*
X13582D02*
D03*
D160*
X200000Y198861D02*
D03*
X157205Y178758D02*
D03*
X200000Y201461D02*
D03*
X154605Y178758D02*
D03*
X206767Y197011D02*
D03*
X164054Y180757D02*
D03*
X204167Y197011D02*
D03*
X166654Y180757D02*
D03*
X263300Y199960D02*
D03*
X263053Y207000D02*
D03*
X263300Y197361D02*
D03*
X260453Y207000D02*
D03*
X191500Y198861D02*
D03*
X151950Y180810D02*
D03*
X191500Y201461D02*
D03*
X149350Y180810D02*
D03*
X213250Y191710D02*
D03*
X203629Y182200D02*
D03*
X210650Y191710D02*
D03*
X201029Y182201D02*
D03*
X147757Y156298D02*
D03*
X146413Y154397D02*
D03*
X145157Y156298D02*
D03*
X91573Y157670D02*
D03*
X73500Y175811D02*
D03*
Y178311D02*
D03*
X91573Y160170D02*
D03*
X68000Y188661D02*
D03*
X61356Y241818D02*
D03*
X68000Y191261D02*
D03*
X63956Y241818D02*
D03*
X73589Y152008D02*
D03*
X34570Y163612D02*
D03*
X20163D02*
D03*
X-2557Y165281D02*
D03*
X34570Y166112D02*
D03*
X73589Y154508D02*
D03*
X20163Y166112D02*
D03*
X-5057Y165281D02*
D03*
X198800Y182201D02*
D03*
X206000Y182200D02*
D03*
X147500Y182310D02*
D03*
X-1520Y174484D02*
D03*
Y176983D02*
D03*
X153300Y176811D02*
D03*
X154000Y182310D02*
D03*
X159329Y175361D02*
D03*
X159500Y179811D02*
D03*
X160500Y177260D02*
D03*
X161929Y175361D02*
D03*
X165500Y182810D02*
D03*
X173502Y175361D02*
D03*
X174673Y177260D02*
D03*
X176102Y175361D02*
D03*
X189880Y197301D02*
D03*
X190000Y203310D02*
D03*
X197700Y185671D02*
D03*
Y188271D02*
D03*
X199600Y187101D02*
D03*
X202000Y200310D02*
D03*
X205538Y194911D02*
D03*
X209300Y193710D02*
D03*
X214800D02*
D03*
X22163Y162031D02*
D03*
Y167693D02*
D03*
X22924Y176000D02*
D03*
X22948Y150962D02*
D03*
X241555Y207000D02*
D03*
X244155D02*
D03*
X246500Y198161D02*
D03*
Y200761D02*
D03*
X248500Y199311D02*
D03*
X24924Y149759D02*
D03*
Y152259D02*
D03*
Y171918D02*
D03*
Y174418D02*
D03*
X251004Y207000D02*
D03*
X-2520Y153983D02*
D03*
Y156483D02*
D03*
X253604Y207000D02*
D03*
X260451Y241818D02*
D03*
X263051D02*
D03*
X265300Y198811D02*
D03*
X272050Y198361D02*
D03*
Y200960D02*
D03*
X274050Y199811D02*
D03*
X290794Y81223D02*
D03*
Y84824D02*
D03*
X291000Y87312D02*
D03*
X293000Y80312D02*
D03*
X295500Y84812D02*
D03*
X297700Y91312D02*
D03*
X297800Y85511D02*
D03*
Y89112D02*
D03*
X309500Y85562D02*
D03*
Y89161D02*
D03*
X311100Y87312D02*
D03*
X33011Y207000D02*
D03*
X33591Y154595D02*
D03*
X33934Y149920D02*
D03*
Y152420D02*
D03*
X-3496Y175689D02*
D03*
X35611Y207000D02*
D03*
X35910Y151216D02*
D03*
X36570Y162031D02*
D03*
Y167693D02*
D03*
X-3852Y167259D02*
D03*
X41558Y162120D02*
D03*
Y167783D02*
D03*
X43558Y163702D02*
D03*
Y166202D02*
D03*
X-4496Y155190D02*
D03*
X50358Y198310D02*
D03*
X51908Y200310D02*
D03*
X51909Y207001D02*
D03*
X54508Y200310D02*
D03*
X54509Y207001D02*
D03*
X55858Y198310D02*
D03*
X60211Y204601D02*
D03*
X61500Y206610D02*
D03*
X62811Y204601D02*
D03*
X70000Y187110D02*
D03*
Y192611D02*
D03*
X71500Y174230D02*
D03*
Y179892D02*
D03*
X71589Y150427D02*
D03*
Y156089D02*
D03*
X89573D02*
D03*
Y161750D02*
D03*
D161*
X139370Y155930D02*
D03*
X133400Y169500D02*
D03*
X123100Y171200D02*
D03*
X134000Y155900D02*
D03*
X103500Y199972D02*
D03*
Y207650D02*
D03*
X104480Y40470D02*
D03*
X109500Y40483D02*
D03*
X111500Y55001D02*
D03*
X113000Y202310D02*
D03*
Y206311D02*
D03*
X114400Y144711D02*
D03*
X114600Y148410D02*
D03*
X115200Y199001D02*
D03*
X118810Y200001D02*
D03*
X119000Y214311D02*
D03*
Y55001D02*
D03*
X120500Y91501D02*
D03*
X123000Y214311D02*
D03*
X124000Y3311D02*
D03*
Y6810D02*
D03*
X12452Y178117D02*
D03*
X124752Y91558D02*
D03*
X126500Y55001D02*
D03*
X127000Y3311D02*
D03*
Y6810D02*
D03*
X129950Y89551D02*
D03*
X131500Y204811D02*
D03*
X131960Y41157D02*
D03*
X132000Y20811D02*
D03*
X132500Y94001D02*
D03*
X132900Y78412D02*
D03*
X133500Y85501D02*
D03*
X134700Y230311D02*
D03*
X134960Y41157D02*
D03*
X135000Y20811D02*
D03*
Y89500D02*
D03*
X135500Y204811D02*
D03*
X135999Y54501D02*
D03*
X137795Y87501D02*
D03*
X137999Y230311D02*
D03*
X138000Y199811D02*
D03*
X140200Y89512D02*
D03*
X140945Y174410D02*
D03*
X141300Y230311D02*
D03*
X141500Y120001D02*
D03*
X141960Y20662D02*
D03*
Y40156D02*
D03*
X142499Y216810D02*
D03*
X142500Y106000D02*
D03*
X143500Y110001D02*
D03*
X144499Y230311D02*
D03*
X144960Y20662D02*
D03*
Y40156D02*
D03*
X14500Y224310D02*
D03*
X148000Y109811D02*
D03*
X148500Y106312D02*
D03*
Y216810D02*
D03*
Y222310D02*
D03*
X148819Y162311D02*
D03*
X149499Y230311D02*
D03*
X149500Y167810D02*
D03*
X15000Y84812D02*
D03*
Y88311D02*
D03*
Y91812D02*
D03*
X151500Y99812D02*
D03*
X152500Y111311D02*
D03*
X152999Y225811D02*
D03*
X153499Y230311D02*
D03*
X153543Y162311D02*
D03*
Y167810D02*
D03*
X154000Y97312D02*
D03*
X155118Y89483D02*
D03*
X157499Y207810D02*
D03*
Y211810D02*
D03*
X158267Y162311D02*
D03*
Y167810D02*
D03*
X159000Y51500D02*
D03*
X15980Y211983D02*
D03*
Y215984D02*
D03*
X162499Y207810D02*
D03*
Y211810D02*
D03*
X162992Y162311D02*
D03*
Y167810D02*
D03*
X163480Y20811D02*
D03*
Y51500D02*
D03*
X164000Y84000D02*
D03*
Y97000D02*
D03*
X165999Y207810D02*
D03*
Y211810D02*
D03*
X166141Y70670D02*
D03*
Y77277D02*
D03*
X167716Y162311D02*
D03*
Y167810D02*
D03*
X168000Y120310D02*
D03*
Y124311D02*
D03*
Y97000D02*
D03*
X168500Y84000D02*
D03*
X169291Y77101D02*
D03*
X170000Y89500D02*
D03*
X171500Y83811D02*
D03*
X172441Y162311D02*
D03*
Y167810D02*
D03*
X172500Y120310D02*
D03*
Y124311D02*
D03*
X17366Y178117D02*
D03*
X17480Y154035D02*
D03*
Y159941D02*
D03*
Y169783D02*
D03*
X175000Y85501D02*
D03*
X177165Y162311D02*
D03*
Y167810D02*
D03*
X183480Y43183D02*
D03*
X183500Y50501D02*
D03*
X187800Y101900D02*
D03*
X188500Y92312D02*
D03*
X189700Y103700D02*
D03*
X190300Y101200D02*
D03*
X191500Y92312D02*
D03*
X191600Y105601D02*
D03*
X19480Y211983D02*
D03*
Y215984D02*
D03*
X195500Y92312D02*
D03*
X198000D02*
D03*
X20000Y111811D02*
D03*
Y115312D02*
D03*
X20059Y127252D02*
D03*
X200960Y40156D02*
D03*
X201000Y2811D02*
D03*
X203960Y40156D02*
D03*
X204000Y2811D02*
D03*
X20500Y42500D02*
D03*
X208200Y83711D02*
D03*
X209000Y60312D02*
D03*
Y63811D02*
D03*
X21000Y31233D02*
D03*
Y84812D02*
D03*
Y88311D02*
D03*
Y91812D02*
D03*
X210960Y40156D02*
D03*
X211000Y2811D02*
D03*
X211100Y81011D02*
D03*
X213500Y142062D02*
D03*
X213508Y145802D02*
D03*
X213960Y40156D02*
D03*
X214000Y2811D02*
D03*
X217000Y129311D02*
D03*
X219442Y149869D02*
D03*
X219480Y160984D02*
D03*
X220000Y77112D02*
D03*
X221285Y129311D02*
D03*
X222480Y160984D02*
D03*
Y20811D02*
D03*
X223044Y224310D02*
D03*
X223673Y58983D02*
D03*
X224524Y210983D02*
D03*
Y215984D02*
D03*
X225480Y160984D02*
D03*
X226240Y56050D02*
D03*
X226305Y74812D02*
D03*
X227480Y1001D02*
D03*
X228500Y156756D02*
D03*
X229024Y201983D02*
D03*
Y205983D02*
D03*
X229524Y210983D02*
D03*
Y215984D02*
D03*
X230000Y40811D02*
D03*
Y55812D02*
D03*
Y74812D02*
D03*
X231592Y150595D02*
D03*
X231981Y206028D02*
D03*
X232024Y201983D02*
D03*
X232401Y142062D02*
D03*
X232480Y130483D02*
D03*
Y135984D02*
D03*
Y20811D02*
D03*
X232500Y58811D02*
D03*
Y71811D02*
D03*
X232634Y169177D02*
D03*
X232980Y160484D02*
D03*
Y165483D02*
D03*
X233000Y173310D02*
D03*
X233640Y87212D02*
D03*
X23480Y137984D02*
D03*
Y142483D02*
D03*
X235000Y40811D02*
D03*
Y55812D02*
D03*
Y73812D02*
D03*
Y76811D02*
D03*
X235700Y109600D02*
D03*
X236000Y119811D02*
D03*
X236092Y150595D02*
D03*
X237480Y1001D02*
D03*
X237544Y224310D02*
D03*
X238130Y206484D02*
D03*
X238131Y242336D02*
D03*
X238500Y106000D02*
D03*
X238555Y103056D02*
D03*
X238945Y156756D02*
D03*
X23960Y20662D02*
D03*
X239980Y141235D02*
D03*
X240000Y145810D02*
D03*
X240500Y161811D02*
D03*
X242000Y117312D02*
D03*
Y122810D02*
D03*
X242200Y75484D02*
D03*
X242480Y96983D02*
D03*
X242520Y90611D02*
D03*
X243000Y169810D02*
D03*
X24500Y169310D02*
D03*
Y42500D02*
D03*
X245000Y113312D02*
D03*
X246500Y127311D02*
D03*
X247000Y90812D02*
D03*
X247150Y101761D02*
D03*
X247500Y169810D02*
D03*
X247579Y206484D02*
D03*
X247580Y242336D02*
D03*
X248200Y108300D02*
D03*
X249873Y113312D02*
D03*
X250500Y127311D02*
D03*
Y139269D02*
D03*
Y90812D02*
D03*
X254500Y113312D02*
D03*
Y145810D02*
D03*
X255000Y90812D02*
D03*
X255297Y169810D02*
D03*
X256000Y104425D02*
D03*
X256600Y94064D02*
D03*
X257000Y117312D02*
D03*
Y122810D02*
D03*
X257028Y206484D02*
D03*
Y242336D02*
D03*
X257500Y11501D02*
D03*
X258500Y182810D02*
D03*
X259000Y55812D02*
D03*
X259100Y104411D02*
D03*
X259500Y77311D02*
D03*
X260000Y108811D02*
D03*
X261480Y186484D02*
D03*
X262000Y82811D02*
D03*
X262044Y224310D02*
D03*
X262500Y77311D02*
D03*
X262771Y103711D02*
D03*
Y93783D02*
D03*
X263000Y124311D02*
D03*
X263500Y108811D02*
D03*
X26437Y206527D02*
D03*
X264500Y84812D02*
D03*
X26480Y137984D02*
D03*
Y142483D02*
D03*
Y201983D02*
D03*
X266477Y206484D02*
D03*
Y242336D02*
D03*
X266704Y186484D02*
D03*
X267000Y20811D02*
D03*
X267500Y82311D02*
D03*
X26960Y20662D02*
D03*
X270000Y20811D02*
D03*
X270400Y104211D02*
D03*
X270500Y82311D02*
D03*
Y92511D02*
D03*
X27160Y170171D02*
D03*
X272000Y134310D02*
D03*
X273000Y20811D02*
D03*
X273014Y169310D02*
D03*
X273566Y98681D02*
D03*
X273800Y93911D02*
D03*
X274100Y104425D02*
D03*
X274418Y186484D02*
D03*
X274729Y80812D02*
D03*
X275925Y206484D02*
D03*
X275926Y242336D02*
D03*
X276020Y90611D02*
D03*
X276450Y124861D02*
D03*
X276951Y134263D02*
D03*
X277500Y111811D02*
D03*
Y114812D02*
D03*
X278039Y108107D02*
D03*
X279075Y242483D02*
D03*
X279642Y186484D02*
D03*
X279960Y40156D02*
D03*
X280000Y198501D02*
D03*
Y2811D02*
D03*
X280500Y111811D02*
D03*
Y90812D02*
D03*
X280800Y102312D02*
D03*
X280888Y134198D02*
D03*
X280900Y124811D02*
D03*
X281000Y137811D02*
D03*
Y143710D02*
D03*
Y79812D02*
D03*
X281500Y114312D02*
D03*
X281730Y108083D02*
D03*
X282225Y242483D02*
D03*
X282960Y40156D02*
D03*
X283000Y2811D02*
D03*
Y87312D02*
D03*
X283306Y74812D02*
D03*
X283500Y90812D02*
D03*
X283800Y124910D02*
D03*
X285000Y198501D02*
D03*
X285750Y116312D02*
D03*
X286044Y224310D02*
D03*
X287000Y108311D02*
D03*
X288000Y87312D02*
D03*
X288524Y206484D02*
D03*
Y242311D02*
D03*
X28900Y224310D02*
D03*
X289000Y90812D02*
D03*
X289960Y40156D02*
D03*
X290000Y169810D02*
D03*
Y94064D02*
D03*
X291674Y206484D02*
D03*
Y242311D02*
D03*
X292600Y116312D02*
D03*
X292960Y40156D02*
D03*
X293000Y101812D02*
D03*
X294500Y183310D02*
D03*
Y187811D02*
D03*
X29587Y242336D02*
D03*
X295917Y153048D02*
D03*
X296000Y25811D02*
D03*
X297500Y76311D02*
D03*
Y79312D02*
D03*
X298000Y96811D02*
D03*
X30000Y206810D02*
D03*
X300544Y224310D02*
D03*
X302500Y164311D02*
D03*
Y168810D02*
D03*
X303000Y152811D02*
D03*
Y156810D02*
D03*
X306000Y82390D02*
D03*
X31000Y89311D02*
D03*
Y94811D02*
D03*
Y99812D02*
D03*
X31480Y169464D02*
D03*
X32000Y127252D02*
D03*
X33500Y49000D02*
D03*
X33980Y176202D02*
D03*
X34000Y2811D02*
D03*
X37000D02*
D03*
X38500Y206810D02*
D03*
X39036Y242336D02*
D03*
X40000Y89311D02*
D03*
Y94811D02*
D03*
Y99812D02*
D03*
X43960Y20662D02*
D03*
X44000Y144810D02*
D03*
X44500Y134810D02*
D03*
X4587Y155018D02*
D03*
Y160925D02*
D03*
Y170766D02*
D03*
X46000Y49000D02*
D03*
X46960Y20662D02*
D03*
X47000Y144810D02*
D03*
X48000Y131000D02*
D03*
X48484Y242336D02*
D03*
X48485Y206810D02*
D03*
X49500Y89811D02*
D03*
Y93312D02*
D03*
X51785Y156111D02*
D03*
X53000Y89811D02*
D03*
Y93312D02*
D03*
X56500Y181349D02*
D03*
X56855Y147484D02*
D03*
X57000Y127811D02*
D03*
X57480Y177983D02*
D03*
X57500Y163311D02*
D03*
Y168310D02*
D03*
X57933Y206810D02*
D03*
Y242336D02*
D03*
X59000Y122310D02*
D03*
X59806Y130617D02*
D03*
X61500Y175984D02*
D03*
X61729Y106811D02*
D03*
X62500Y181349D02*
D03*
X62960Y21157D02*
D03*
X-6500Y121908D02*
D03*
X65960Y21157D02*
D03*
X66000Y127811D02*
D03*
Y130810D02*
D03*
X66500Y150410D02*
D03*
X67382Y242336D02*
D03*
X68000Y207000D02*
D03*
X69500Y127811D02*
D03*
Y130810D02*
D03*
X70042Y103922D02*
D03*
X71400Y244500D02*
D03*
X71871Y106811D02*
D03*
Y113812D02*
D03*
X72000Y144810D02*
D03*
Y171310D02*
D03*
X72960Y20662D02*
D03*
Y40156D02*
D03*
X73000Y162311D02*
D03*
X73680Y207000D02*
D03*
X73681Y242483D02*
D03*
X-7500Y156310D02*
D03*
X75000Y171310D02*
D03*
X75960Y20662D02*
D03*
Y40156D02*
D03*
X76000Y147388D02*
D03*
X76831Y242336D02*
D03*
X77500Y224310D02*
D03*
X79980Y242311D02*
D03*
X80500Y110811D02*
D03*
Y114312D02*
D03*
X81000Y205000D02*
D03*
X83130Y242211D02*
D03*
X84000Y107412D02*
D03*
Y110811D02*
D03*
Y114312D02*
D03*
X84480Y21302D02*
D03*
X84500Y129811D02*
D03*
Y133310D02*
D03*
X84921Y140890D02*
D03*
X85000Y137311D02*
D03*
X86500Y208501D02*
D03*
X91500Y203000D02*
D03*
Y208501D02*
D03*
Y40470D02*
D03*
X92000Y224310D02*
D03*
X93500Y107311D02*
D03*
X96000Y104312D02*
D03*
Y117112D02*
D03*
Y120811D02*
D03*
Y124811D02*
D03*
X99500Y117112D02*
D03*
Y120811D02*
D03*
Y124811D02*
D03*
D162*
X320474Y104319D02*
X322024D01*
X318924D02*
X320474D01*
X304017D02*
X306167D01*
X301867D02*
X304017D01*
Y70303D02*
X306167D01*
X301867D02*
X304017D01*
X320474D02*
X322024D01*
X318924D02*
X320474D01*
M02*
