G04*
G04 #@! TF.GenerationSoftware,Altium Limited,Altium Designer,23.2.1 (34)*
G04*
G04 Layer_Color=255*
%FSLAX25Y25*%
%MOIN*%
G70*
G04*
G04 #@! TF.SameCoordinates,387CD6D3-576D-47AB-95CD-A910FB3B32EF*
G04*
G04*
G04 #@! TF.FilePolarity,Positive*
G04*
G01*
G75*
%ADD145C,0.09095*%
%ADD146C,0.05118*%
%ADD147C,0.21260*%
%ADD148C,0.02600*%
%ADD149O,0.08268X0.03937*%
%ADD150O,0.07087X0.03937*%
%ADD151R,0.05937X0.05937*%
%ADD152C,0.05937*%
%ADD153O,0.10236X0.05118*%
%ADD154O,0.01968X0.03347*%
%ADD155C,0.02480*%
%ADD156O,0.04724X0.06496*%
%ADD157O,0.09055X0.04724*%
%ADD158C,0.11811*%
%ADD159C,0.04016*%
D145*
X303366Y143311D02*
D03*
X323366D02*
D03*
Y123311D02*
D03*
X303366D02*
D03*
X313366Y133311D02*
D03*
Y189311D02*
D03*
X303366Y179311D02*
D03*
X323366D02*
D03*
Y199311D02*
D03*
X303366D02*
D03*
D146*
X208583Y70984D02*
D03*
X186732Y60984D02*
D03*
X197583Y70984D02*
D03*
Y60984D02*
D03*
X186732Y70984D02*
D03*
X175590Y60984D02*
D03*
Y70984D02*
D03*
X218085Y90560D02*
D03*
X225959D02*
D03*
Y100402D02*
D03*
X218085D02*
D03*
X225959Y110245D02*
D03*
X218085D02*
D03*
X225959Y120086D02*
D03*
X218085D02*
D03*
D147*
X314961Y248031D02*
D03*
X112204Y125985D02*
D03*
X0Y0D02*
D03*
Y248031D02*
D03*
X314961Y0D02*
D03*
D148*
X305985Y98689D02*
D03*
Y75933D02*
D03*
D149*
X304017Y70303D02*
D03*
Y104319D02*
D03*
D150*
X320474D02*
D03*
Y70303D02*
D03*
D151*
X270433Y55118D02*
D03*
X8809Y134773D02*
D03*
X310000Y55223D02*
D03*
D152*
X280433Y55118D02*
D03*
X290433D02*
D03*
X-1191Y134773D02*
D03*
X320000Y55223D02*
D03*
D153*
X-8455Y148346D02*
D03*
Y182362D02*
D03*
D154*
X3809Y151181D02*
D03*
D155*
X3553Y179527D02*
D03*
D156*
X8868Y149626D02*
D03*
Y181083D02*
D03*
D157*
X11427Y148346D02*
D03*
Y182362D02*
D03*
D158*
X202697Y224410D02*
D03*
X320807D02*
D03*
X-5847D02*
D03*
X112263D02*
D03*
D159*
X301378Y234902D02*
D03*
X222126D02*
D03*
X92834D02*
D03*
X13582D02*
D03*
M02*
