G04*
G04 #@! TF.GenerationSoftware,Altium Limited,Altium Designer,23.2.1 (34)*
G04*
G04 Layer_Physical_Order=3*
G04 Layer_Color=16440176*
%FSLAX25Y25*%
%MOIN*%
G70*
G04*
G04 #@! TF.SameCoordinates,387CD6D3-576D-47AB-95CD-A910FB3B32EF*
G04*
G04*
G04 #@! TF.FilePolarity,Positive*
G04*
G01*
G75*
%ADD145C,0.09095*%
%ADD146C,0.05118*%
%ADD153O,0.10236X0.05118*%
%ADD156O,0.04724X0.06496*%
%ADD157O,0.09055X0.04724*%
%ADD160C,0.01600*%
%ADD161C,0.02000*%
%ADD162C,0.02400*%
G36*
X319743Y261645D02*
X320584Y261534D01*
X321411Y261350D01*
X322219Y261096D01*
X323002Y260771D01*
X323753Y260380D01*
X324468Y259925D01*
X325140Y259409D01*
X325765Y258837D01*
X326338Y258212D01*
X326853Y257540D01*
X327309Y256825D01*
X327700Y256073D01*
X328024Y255291D01*
X328279Y254482D01*
X328462Y253655D01*
X328573Y252815D01*
X328610Y251969D01*
Y232672D01*
X328110Y232441D01*
X327205Y233215D01*
X325748Y234107D01*
X324171Y234761D01*
X322510Y235159D01*
X320807Y235293D01*
X319105Y235159D01*
X317444Y234761D01*
X315866Y234107D01*
X314410Y233215D01*
X313112Y232106D01*
X312002Y230807D01*
X311110Y229351D01*
X310457Y227773D01*
X310058Y226112D01*
X309924Y224410D01*
X310058Y222707D01*
X310457Y221046D01*
X311110Y219469D01*
X312002Y218013D01*
X313112Y216714D01*
X314410Y215605D01*
X315866Y214712D01*
X317444Y214059D01*
X319105Y213660D01*
X320807Y213526D01*
X322510Y213660D01*
X324171Y214059D01*
X325748Y214712D01*
X327205Y215605D01*
X328110Y216378D01*
X328610Y216147D01*
Y201408D01*
X328110Y201308D01*
X327862Y201907D01*
X327037Y202982D01*
X325962Y203807D01*
X324710Y204326D01*
X323366Y204503D01*
X322022Y204326D01*
X320770Y203807D01*
X319695Y202982D01*
X318870Y201907D01*
X318351Y200655D01*
X318174Y199311D01*
X318351Y197967D01*
X318870Y196715D01*
X319695Y195640D01*
X320770Y194815D01*
X322022Y194296D01*
X323366Y194119D01*
X324710Y194296D01*
X325962Y194815D01*
X327037Y195640D01*
X327862Y196715D01*
X328110Y197314D01*
X328610Y197214D01*
Y181408D01*
X328110Y181308D01*
X327862Y181907D01*
X327037Y182982D01*
X325962Y183807D01*
X324710Y184326D01*
X323366Y184503D01*
X322022Y184326D01*
X320770Y183807D01*
X319695Y182982D01*
X318870Y181907D01*
X318351Y180655D01*
X318174Y179311D01*
X318351Y177967D01*
X318870Y176715D01*
X319695Y175640D01*
X320770Y174815D01*
X322022Y174296D01*
X323366Y174119D01*
X324710Y174296D01*
X325962Y174815D01*
X327037Y175640D01*
X327862Y176715D01*
X328110Y177314D01*
X328610Y177214D01*
Y145408D01*
X328110Y145308D01*
X327862Y145907D01*
X327037Y146982D01*
X325962Y147807D01*
X324710Y148326D01*
X323366Y148503D01*
X322022Y148326D01*
X320770Y147807D01*
X319695Y146982D01*
X318870Y145907D01*
X318351Y144655D01*
X318174Y143311D01*
X318351Y141967D01*
X318870Y140715D01*
X319695Y139640D01*
X320770Y138815D01*
X322022Y138296D01*
X323366Y138119D01*
X324710Y138296D01*
X325962Y138815D01*
X327037Y139640D01*
X327862Y140715D01*
X328110Y141314D01*
X328610Y141214D01*
Y125408D01*
X328110Y125308D01*
X327862Y125907D01*
X327037Y126982D01*
X325962Y127807D01*
X324710Y128326D01*
X323366Y128503D01*
X322022Y128326D01*
X320770Y127807D01*
X319695Y126982D01*
X318870Y125907D01*
X318351Y124655D01*
X318174Y123311D01*
X318351Y121967D01*
X318870Y120715D01*
X319695Y119640D01*
X320770Y118815D01*
X322022Y118296D01*
X323366Y118119D01*
X324710Y118296D01*
X325962Y118815D01*
X327037Y119640D01*
X327862Y120715D01*
X328110Y121314D01*
X328610Y121214D01*
Y-3937D01*
X328573Y-4783D01*
X328462Y-5623D01*
X328279Y-6450D01*
X328024Y-7259D01*
X327700Y-8041D01*
X327309Y-8793D01*
X326853Y-9508D01*
X326338Y-10180D01*
X325765Y-10805D01*
X325140Y-11377D01*
X324468Y-11893D01*
X323753Y-12348D01*
X323002Y-12740D01*
X322219Y-13064D01*
X321411Y-13318D01*
X320584Y-13502D01*
X319743Y-13612D01*
X318897Y-13649D01*
X300820D01*
X300697Y-13499D01*
Y8792D01*
X300619Y9182D01*
X300567Y9260D01*
X311669Y20360D01*
X311890Y20691D01*
X311890Y20691D01*
X311932Y20905D01*
X311968Y21081D01*
Y50811D01*
X311890Y51202D01*
X311669Y51532D01*
X311338Y51753D01*
X310948Y51831D01*
X310809D01*
X310775Y52331D01*
X311497Y52630D01*
X312117Y53106D01*
X312593Y53726D01*
X312892Y54448D01*
X312994Y55223D01*
X312892Y55998D01*
X312593Y56720D01*
X312117Y57340D01*
X311497Y57816D01*
X310775Y58115D01*
X310000Y58217D01*
X309225Y58115D01*
X308503Y57816D01*
X307883Y57340D01*
X307407Y56720D01*
X307108Y55998D01*
X307006Y55223D01*
X307108Y54448D01*
X307407Y53726D01*
X307883Y53106D01*
X308503Y52630D01*
X309225Y52331D01*
X309191Y51831D01*
X291561D01*
X291462Y52331D01*
X291930Y52525D01*
X292550Y53001D01*
X293026Y53621D01*
X293325Y54343D01*
X293427Y55118D01*
X293325Y55893D01*
X293026Y56615D01*
X292550Y57235D01*
X291930Y57711D01*
X291208Y58010D01*
X290433Y58112D01*
X289658Y58010D01*
X288936Y57711D01*
X288316Y57235D01*
X287840Y56615D01*
X287541Y55893D01*
X287439Y55118D01*
X287541Y54343D01*
X287840Y53621D01*
X288316Y53001D01*
X288936Y52525D01*
X289405Y52331D01*
X289306Y51831D01*
X281561D01*
X281462Y52331D01*
X281930Y52525D01*
X282551Y53001D01*
X283026Y53621D01*
X283325Y54343D01*
X283427Y55118D01*
X283325Y55893D01*
X283026Y56615D01*
X282551Y57235D01*
X281930Y57711D01*
X281208Y58010D01*
X280433Y58112D01*
X279658Y58010D01*
X278936Y57711D01*
X278316Y57235D01*
X277840Y56615D01*
X277541Y55893D01*
X277439Y55118D01*
X277541Y54343D01*
X277840Y53621D01*
X278316Y53001D01*
X278936Y52525D01*
X279405Y52331D01*
X279306Y51831D01*
X271561D01*
X271462Y52331D01*
X271930Y52525D01*
X272551Y53001D01*
X273026Y53621D01*
X273325Y54343D01*
X273427Y55118D01*
X273325Y55893D01*
X273026Y56615D01*
X272551Y57235D01*
X271930Y57711D01*
X271208Y58010D01*
X270433Y58112D01*
X269658Y58010D01*
X268936Y57711D01*
X268316Y57235D01*
X267840Y56615D01*
X267541Y55893D01*
X267439Y55118D01*
X267541Y54343D01*
X267840Y53621D01*
X268316Y53001D01*
X268936Y52525D01*
X269405Y52331D01*
X269306Y51831D01*
X244922D01*
X231721Y65032D01*
X231390Y65254D01*
X231000Y65331D01*
X225000D01*
X224610Y65254D01*
X224279Y65032D01*
X221779Y62532D01*
X221558Y62202D01*
X221480Y61812D01*
Y60725D01*
X221510Y60579D01*
X221524Y60429D01*
X221548Y60385D01*
X221558Y60335D01*
X221641Y60211D01*
X221712Y60079D01*
X221751Y60046D01*
X221779Y60004D01*
X221904Y59921D01*
X222019Y59826D01*
X222125Y59770D01*
X222166Y59608D01*
X222042Y58983D01*
X222166Y58359D01*
X222125Y58197D01*
X222019Y58141D01*
X221904Y58046D01*
X221779Y57963D01*
X221751Y57920D01*
X221712Y57888D01*
X221641Y57756D01*
X221558Y57632D01*
X221548Y57582D01*
X221524Y57538D01*
X221515Y57445D01*
X221379Y57351D01*
X221009Y57245D01*
X212221Y66032D01*
X211890Y66254D01*
X211500Y66331D01*
X208500D01*
X208110Y66254D01*
X207779Y66032D01*
X207279Y65532D01*
X207058Y65202D01*
X206980Y64811D01*
Y50501D01*
X207058Y50110D01*
X207279Y49779D01*
X210480Y46578D01*
Y41692D01*
X210336Y41664D01*
X209806Y41310D01*
X209453Y40781D01*
X209329Y40156D01*
X209453Y39532D01*
X209806Y39003D01*
X210336Y38649D01*
X210480Y38620D01*
Y31831D01*
X203422D01*
X200020Y35234D01*
Y51389D01*
X203201Y54571D01*
X203422Y54901D01*
X203500Y55291D01*
Y74005D01*
X203422Y74395D01*
X203201Y74726D01*
X201020Y76907D01*
Y92812D01*
X200942Y93202D01*
X200721Y93532D01*
X200221Y94032D01*
X199890Y94253D01*
X199500Y94331D01*
X194500D01*
X194110Y94253D01*
X193779Y94032D01*
X193279Y93532D01*
X193226Y93527D01*
X192721Y94032D01*
X192390Y94253D01*
X192000Y94331D01*
X186500D01*
X186110Y94253D01*
X185779Y94032D01*
X185279Y93532D01*
X185058Y93202D01*
X184980Y92812D01*
Y87811D01*
Y74453D01*
X184987Y74420D01*
X184983Y74386D01*
X185026Y74226D01*
X185058Y74063D01*
X185078Y73986D01*
X184857Y73527D01*
X184479Y73237D01*
X183973Y72577D01*
X183654Y71809D01*
X183546Y70984D01*
X183654Y70159D01*
X183973Y69391D01*
X184479Y68731D01*
X184857Y68441D01*
X185078Y67982D01*
X185058Y67905D01*
X185026Y67742D01*
X184983Y67582D01*
X184987Y67548D01*
X184980Y67515D01*
Y64453D01*
X184987Y64420D01*
X184983Y64386D01*
X185026Y64226D01*
X185058Y64063D01*
X185078Y63986D01*
X184857Y63527D01*
X184479Y63237D01*
X183973Y62577D01*
X183654Y61809D01*
X183546Y60984D01*
X183654Y60159D01*
X183973Y59391D01*
X184479Y58731D01*
X184857Y58441D01*
X185078Y57982D01*
X185058Y57905D01*
X185026Y57742D01*
X184983Y57582D01*
X184987Y57548D01*
X184980Y57515D01*
Y51996D01*
X184480Y51770D01*
X184124Y52008D01*
X183500Y52132D01*
X182876Y52008D01*
X182346Y51654D01*
X181993Y51125D01*
X181869Y50501D01*
X181993Y49876D01*
X182346Y49347D01*
X182876Y48993D01*
X183500Y48869D01*
X184124Y48993D01*
X184480Y49231D01*
X184980Y49005D01*
Y44649D01*
X184480Y44439D01*
X184104Y44691D01*
X183480Y44815D01*
X182856Y44691D01*
X182326Y44337D01*
X181973Y43808D01*
X181849Y43183D01*
X181973Y42559D01*
X182326Y42030D01*
X182856Y41676D01*
X183480Y41552D01*
X184104Y41676D01*
X184480Y41928D01*
X184980Y41718D01*
Y40234D01*
X183578Y38831D01*
X146600D01*
X146333Y39331D01*
X146467Y39532D01*
X146591Y40156D01*
X146467Y40781D01*
X146114Y41310D01*
X145584Y41664D01*
X144960Y41788D01*
X144336Y41664D01*
X143807Y41310D01*
X143710Y41166D01*
X143210D01*
X143114Y41310D01*
X142584Y41664D01*
X141960Y41788D01*
X141336Y41664D01*
X140806Y41310D01*
X140453Y40781D01*
X140356Y40294D01*
X139971Y40112D01*
X139846Y40097D01*
X136221Y43721D01*
X135890Y43942D01*
X135500Y44020D01*
X131500D01*
X131110Y43942D01*
X130779Y43721D01*
X129779Y42721D01*
X129558Y42391D01*
X129480Y42000D01*
Y31831D01*
X65922D01*
X57520Y40234D01*
Y92812D01*
X57442Y93202D01*
X57221Y93532D01*
X55721Y95032D01*
X55390Y95253D01*
X55000Y95331D01*
X47500D01*
X47110Y95253D01*
X46779Y95032D01*
X46000Y94253D01*
X45721Y94532D01*
X45390Y94753D01*
X45000Y94831D01*
X41627D01*
X41507Y95436D01*
X41153Y95965D01*
X40624Y96319D01*
X40000Y96443D01*
X39376Y96319D01*
X38846Y95965D01*
X38493Y95436D01*
X38373Y94831D01*
X32627D01*
X32507Y95436D01*
X32153Y95965D01*
X31624Y96319D01*
X31000Y96443D01*
X30376Y96319D01*
X29847Y95965D01*
X29493Y95436D01*
X29373Y94831D01*
X14020D01*
Y122389D01*
X16422Y124792D01*
X18504D01*
X18657Y124822D01*
X18812Y124840D01*
X18851Y124861D01*
X18894Y124870D01*
X19024Y124956D01*
X19161Y125031D01*
X19188Y125066D01*
X19225Y125091D01*
X19312Y125220D01*
X19409Y125342D01*
X19601Y125712D01*
X20059Y125621D01*
X20517Y125712D01*
X20709Y125342D01*
X20806Y125220D01*
X20893Y125091D01*
X20930Y125066D01*
X20957Y125031D01*
X21094Y124956D01*
X21224Y124870D01*
X21267Y124861D01*
X21306Y124840D01*
X21461Y124822D01*
X21614Y124792D01*
X30445D01*
X30598Y124822D01*
X30753Y124840D01*
X30792Y124861D01*
X30835Y124870D01*
X30965Y124956D01*
X31102Y125031D01*
X31129Y125066D01*
X31166Y125091D01*
X31253Y125220D01*
X31350Y125342D01*
X31542Y125712D01*
X32000Y125621D01*
X32458Y125712D01*
X32650Y125342D01*
X32747Y125220D01*
X32834Y125091D01*
X32871Y125066D01*
X32898Y125031D01*
X33035Y124956D01*
X33165Y124870D01*
X33208Y124861D01*
X33247Y124840D01*
X33402Y124822D01*
X33555Y124792D01*
X56285D01*
X56391Y124813D01*
X56499Y124814D01*
X56584Y124851D01*
X56676Y124870D01*
X56765Y124929D01*
X56864Y124972D01*
X57136D01*
X57235Y124929D01*
X57324Y124870D01*
X57416Y124851D01*
X57501Y124814D01*
X57609Y124813D01*
X57715Y124792D01*
X65285D01*
X65391Y124813D01*
X65499Y124814D01*
X65584Y124851D01*
X65676Y124870D01*
X65765Y124929D01*
X65864Y124972D01*
X65929Y125039D01*
X66006Y125091D01*
X66066Y125180D01*
X66141Y125258D01*
X66176Y125344D01*
X66227Y125421D01*
X66248Y125527D01*
X66288Y125627D01*
X66378Y126119D01*
X66377Y126254D01*
X66624Y126303D01*
X67154Y126657D01*
X67489Y127158D01*
X67702Y127186D01*
X67798D01*
X68011Y127158D01*
X68347Y126657D01*
X68876Y126303D01*
X69124Y126254D01*
X69121Y126119D01*
X69212Y125627D01*
X69252Y125527D01*
X69273Y125421D01*
X69324Y125344D01*
X69359Y125258D01*
X69434Y125180D01*
X69494Y125091D01*
X69571Y125039D01*
X69636Y124972D01*
X69735Y124929D01*
X69824Y124870D01*
X69916Y124851D01*
X70001Y124814D01*
X70109Y124813D01*
X70215Y124792D01*
X87578D01*
X93709Y118661D01*
X93833Y118578D01*
X93949Y118483D01*
X93997Y118468D01*
X94039Y118440D01*
X94186Y118411D01*
X94330Y118367D01*
X94455Y118234D01*
X94503Y118149D01*
X94593Y117885D01*
X94493Y117736D01*
X94369Y117112D01*
X94493Y116487D01*
X94846Y115958D01*
X95376Y115604D01*
X96000Y115480D01*
X96624Y115604D01*
X97154Y115958D01*
X97489Y116459D01*
X97702Y116487D01*
X97798D01*
X98011Y116459D01*
X98040Y116417D01*
X98234Y115956D01*
X98097Y115816D01*
X97958Y115675D01*
X97958Y115673D01*
X97956Y115672D01*
X97883Y115490D01*
X97851Y115410D01*
X97851Y115409D01*
X97850Y115408D01*
X97809Y115306D01*
X97809Y115304D01*
X97808Y115303D01*
X97790Y115207D01*
X97791Y115112D01*
X97773Y115019D01*
X97794Y114915D01*
X97795Y114809D01*
X97832Y114722D01*
X97851Y114629D01*
X97909Y114541D01*
X97951Y114443D01*
X98019Y114377D01*
X98071Y114298D01*
X107779Y104590D01*
X108110Y104369D01*
X108500Y104292D01*
X137500D01*
X137890Y104369D01*
X138221Y104590D01*
X138721Y105090D01*
X138942Y105421D01*
X139020Y105812D01*
Y140812D01*
X138942Y141202D01*
X138721Y141532D01*
X127520Y152734D01*
Y175889D01*
X141121Y189490D01*
X141342Y189821D01*
X141420Y190211D01*
Y200812D01*
X141342Y201202D01*
X141121Y201532D01*
X140790Y201753D01*
X140400Y201831D01*
X137311D01*
X136921Y201753D01*
X136590Y201532D01*
X100279Y165222D01*
X100058Y164891D01*
X99980Y164500D01*
Y135831D01*
X84922D01*
X81425Y139329D01*
Y141595D01*
X81347Y141985D01*
X81126Y142316D01*
X77175Y146267D01*
X77507Y146763D01*
X77631Y147388D01*
X77507Y148012D01*
X77153Y148541D01*
X76951Y148676D01*
X76962Y148727D01*
X77000Y148820D01*
Y148920D01*
X77020Y149019D01*
Y154812D01*
X76942Y155202D01*
X76721Y155532D01*
X64520Y167734D01*
Y175274D01*
X64498Y175385D01*
X64495Y175498D01*
X64459Y175578D01*
X64442Y175664D01*
X64379Y175758D01*
X64333Y175861D01*
X64333Y176106D01*
X64379Y176209D01*
X64442Y176303D01*
X64459Y176389D01*
X64495Y176469D01*
X64498Y176582D01*
X64520Y176693D01*
Y177312D01*
X64442Y177702D01*
X64221Y178032D01*
X60221Y182032D01*
X59890Y182254D01*
X59500Y182331D01*
X57768D01*
X57653Y182502D01*
X57124Y182856D01*
X56500Y182980D01*
X55876Y182856D01*
X55347Y182502D01*
X55232Y182331D01*
X45422D01*
X39721Y188032D01*
X39390Y188253D01*
X39000Y188331D01*
X-13500D01*
X-13650Y188454D01*
Y216148D01*
X-13150Y216379D01*
X-12244Y215605D01*
X-10788Y214712D01*
X-9210Y214059D01*
X-7549Y213660D01*
X-5847Y213526D01*
X-4144Y213660D01*
X-2484Y214059D01*
X-906Y214712D01*
X550Y215605D01*
X1849Y216714D01*
X2958Y218013D01*
X3850Y219469D01*
X4504Y221046D01*
X4903Y222707D01*
X5037Y224410D01*
X4903Y226112D01*
X4504Y227773D01*
X3850Y229351D01*
X2958Y230807D01*
X1849Y232106D01*
X550Y233215D01*
X-906Y234107D01*
X-2484Y234761D01*
X-4144Y235159D01*
X-5847Y235293D01*
X-7549Y235159D01*
X-9210Y234761D01*
X-10788Y234107D01*
X-12244Y233215D01*
X-13150Y232441D01*
X-13650Y232671D01*
Y251969D01*
X-13613Y252815D01*
X-13502Y253655D01*
X-13319Y254482D01*
X-13064Y255291D01*
X-12740Y256073D01*
X-12349Y256825D01*
X-11893Y257540D01*
X-11378Y258212D01*
X-10805Y258837D01*
X-10181Y259409D01*
X-9508Y259925D01*
X-8794Y260380D01*
X-8042Y260771D01*
X-7259Y261096D01*
X-6451Y261350D01*
X-5624Y261534D01*
X-4784Y261645D01*
X-3940Y261682D01*
X318897D01*
X319743Y261645D01*
D02*
G37*
G36*
X45000Y181312D02*
X59500D01*
X63500Y177312D01*
Y176693D01*
X63007Y176608D01*
X62653Y177137D01*
X62124Y177491D01*
X61500Y177615D01*
X60876Y177491D01*
X60347Y177137D01*
X59993Y176608D01*
X59869Y175984D01*
X59993Y175359D01*
X60347Y174830D01*
X60876Y174476D01*
X61500Y174352D01*
X62124Y174476D01*
X62653Y174830D01*
X63007Y175359D01*
X63500Y175274D01*
Y167312D01*
X76000Y154812D01*
Y149019D01*
X75376Y148895D01*
X74847Y148541D01*
X74493Y148012D01*
X74453Y147811D01*
X58421D01*
X58362Y148108D01*
X58008Y148637D01*
X57479Y148991D01*
X56855Y149115D01*
X56231Y148991D01*
X55702Y148637D01*
X55348Y148108D01*
X55289Y147811D01*
X36000D01*
X31982Y143793D01*
X31520Y143984D01*
Y165851D01*
X34221Y168552D01*
X34442Y168883D01*
X34520Y169273D01*
Y171311D01*
X34442Y171702D01*
X34221Y172032D01*
X33721Y172532D01*
X33390Y172754D01*
X33000Y172831D01*
X31000D01*
X30610Y172754D01*
X30279Y172532D01*
X29279Y171532D01*
X29058Y171202D01*
X28980Y170811D01*
Y169177D01*
X23779Y163976D01*
X23558Y163645D01*
X23480Y163254D01*
Y161734D01*
X23078Y161331D01*
X19422D01*
X18221Y162532D01*
X17890Y162753D01*
X17500Y162831D01*
X7922D01*
X7721Y163032D01*
X7390Y163253D01*
X7000Y163331D01*
X2500D01*
X2110Y163253D01*
X1779Y163032D01*
X1078Y162331D01*
X-6077D01*
X-6676Y162931D01*
Y164285D01*
X-6176Y164437D01*
X-6066Y164272D01*
X-5603Y163963D01*
X-5057Y163854D01*
X-4511Y163963D01*
X-4332Y164082D01*
X-3282D01*
X-3103Y163963D01*
X-2557Y163854D01*
X-2011Y163963D01*
X-1548Y164272D01*
X-1238Y164735D01*
X-1130Y165281D01*
X-1238Y165828D01*
X-1548Y166291D01*
X-2011Y166600D01*
X-2557Y166709D01*
X-3103Y166600D01*
X-3280Y166482D01*
X-4334D01*
X-4511Y166600D01*
X-5057Y166709D01*
X-5603Y166600D01*
X-6066Y166291D01*
X-6176Y166126D01*
X-6676Y166278D01*
Y168692D01*
X-5578Y169792D01*
X1578D01*
X2779Y168590D01*
X3110Y168369D01*
X3500Y168292D01*
X14578D01*
X15779Y167090D01*
X16110Y166869D01*
X16500Y166792D01*
X17500D01*
X17890Y166869D01*
X18221Y167090D01*
X19721Y168590D01*
X19942Y168921D01*
X20020Y169311D01*
Y170811D01*
X19942Y171202D01*
X19721Y171532D01*
X18221Y173032D01*
X17890Y173254D01*
X17500Y173331D01*
X-5D01*
X-272Y173831D01*
X-201Y173937D01*
X-93Y174484D01*
X-201Y175030D01*
X-320Y175207D01*
Y176260D01*
X-201Y176437D01*
X-93Y176983D01*
X-201Y177530D01*
X-511Y177993D01*
X-974Y178302D01*
X-1520Y178411D01*
X-2066Y178302D01*
X-2529Y177993D01*
X-2839Y177530D01*
X-2947Y176983D01*
X-2839Y176437D01*
X-2720Y176259D01*
Y175208D01*
X-2839Y175030D01*
X-2947Y174484D01*
X-2839Y173937D01*
X-2768Y173831D01*
X-3035Y173331D01*
X-7000D01*
X-7390Y173254D01*
X-7721Y173032D01*
X-10060Y170694D01*
X-10281Y170363D01*
X-10359Y169973D01*
Y161651D01*
X-10281Y161260D01*
X-10060Y160930D01*
X-7554Y158424D01*
X-7733Y157896D01*
X-8124Y157818D01*
X-8653Y157464D01*
X-9007Y156935D01*
X-9131Y156310D01*
X-9007Y155686D01*
X-8653Y155157D01*
X-8124Y154803D01*
X-7500Y154679D01*
X-6876Y154803D01*
X-6346Y155157D01*
X-5993Y155686D01*
X-5869Y156310D01*
X-5993Y156935D01*
X-6231Y157292D01*
X-6006Y157792D01*
X-3913D01*
X-3664Y157292D01*
X-3839Y157030D01*
X-3947Y156483D01*
X-3839Y155937D01*
X-3720Y155759D01*
Y154708D01*
X-3839Y154530D01*
X-3947Y153983D01*
X-3839Y153437D01*
X-3529Y152974D01*
X-3066Y152665D01*
X-2520Y152556D01*
X-1974Y152665D01*
X-1511Y152974D01*
X-1201Y153437D01*
X-1093Y153983D01*
X-1201Y154530D01*
X-1320Y154707D01*
Y155760D01*
X-1201Y155937D01*
X-1093Y156483D01*
X-1191Y156977D01*
X-1183Y157063D01*
X-928Y157520D01*
X-686Y157555D01*
X279Y156590D01*
X610Y156369D01*
X1000Y156292D01*
X25078D01*
X26980Y154389D01*
Y146734D01*
X25578Y145331D01*
X22500D01*
X22110Y145254D01*
X21779Y145032D01*
X21279Y144532D01*
X21058Y144202D01*
X20980Y143812D01*
Y141312D01*
X20576Y140812D01*
X-13500D01*
Y187311D01*
X39000D01*
X45000Y181312D01*
D02*
G37*
G36*
X19000Y170811D02*
Y169311D01*
X17500Y167812D01*
X16500D01*
X15000Y169311D01*
X3500D01*
X3000Y169811D01*
X2000Y170811D01*
X-6000D01*
X-7696Y169114D01*
Y162508D01*
X-6500Y161311D01*
X1500D01*
X2500Y162311D01*
X7000D01*
X7500Y161811D01*
X17500D01*
X18500Y160811D01*
X19000Y160311D01*
X23500D01*
X24500Y161311D01*
Y163254D01*
X30000Y168754D01*
Y170811D01*
X31000Y171811D01*
X33000D01*
X33500Y171311D01*
Y169273D01*
X30500Y166273D01*
Y142812D01*
X28500Y140812D01*
X22500D01*
X22000Y141312D01*
Y143812D01*
X22500Y144311D01*
X26000D01*
X28000Y146311D01*
Y154812D01*
X25500Y157311D01*
X1000D01*
X-500Y158811D01*
X-6500D01*
X-9339Y161651D01*
Y169973D01*
X-7000Y172311D01*
X17500D01*
X19000Y170811D01*
D02*
G37*
G36*
X140400Y190211D02*
X126500Y176312D01*
Y152312D01*
X138000Y140812D01*
Y105812D01*
X137500Y105312D01*
X108500D01*
X98792Y115019D01*
X98810Y115115D01*
X99382Y115504D01*
X99500Y115480D01*
X100124Y115604D01*
X100654Y115958D01*
X101007Y116487D01*
X101131Y117112D01*
X101007Y117736D01*
X100654Y118265D01*
X100124Y118619D01*
X99682Y118707D01*
Y119216D01*
X100124Y119304D01*
X100654Y119658D01*
X101007Y120187D01*
X101131Y120811D01*
X101007Y121436D01*
X100654Y121965D01*
X100124Y122319D01*
X99500Y122443D01*
X98876Y122319D01*
X98347Y121965D01*
X98011Y121464D01*
X97798Y121436D01*
X97702D01*
X97489Y121464D01*
X97154Y121965D01*
X96624Y122319D01*
X96000Y122443D01*
X95376Y122319D01*
X94846Y121965D01*
X94493Y121436D01*
X94369Y120811D01*
X94493Y120187D01*
X94818Y119701D01*
X94429Y119382D01*
X88000Y125812D01*
X70215D01*
X70124Y126303D01*
X70653Y126657D01*
X71007Y127186D01*
X71131Y127811D01*
X71007Y128435D01*
X70653Y128964D01*
X70509Y129060D01*
Y129560D01*
X70653Y129657D01*
X71007Y130186D01*
X71131Y130810D01*
X71007Y131435D01*
X70653Y131964D01*
X70124Y132318D01*
X69500Y132442D01*
X68876Y132318D01*
X68347Y131964D01*
X68011Y131463D01*
X67798Y131435D01*
X67702D01*
X67489Y131463D01*
X67154Y131964D01*
X66624Y132318D01*
X66000Y132442D01*
X65376Y132318D01*
X64846Y131964D01*
X64493Y131435D01*
X64369Y130810D01*
X64493Y130186D01*
X64846Y129657D01*
X64991Y129560D01*
Y129060D01*
X64846Y128964D01*
X64493Y128435D01*
X64369Y127811D01*
X64493Y127186D01*
X64846Y126657D01*
X65376Y126303D01*
X65285Y125812D01*
X57715D01*
X57624Y126303D01*
X58153Y126657D01*
X58507Y127186D01*
X58631Y127811D01*
X58507Y128435D01*
X58153Y128964D01*
X57624Y129318D01*
X57000Y129442D01*
X56376Y129318D01*
X55847Y128964D01*
X55493Y128435D01*
X55369Y127811D01*
X55493Y127186D01*
X55847Y126657D01*
X56376Y126303D01*
X56285Y125812D01*
X33555D01*
X33296Y126312D01*
X33507Y126628D01*
X33631Y127252D01*
X33507Y127877D01*
X33154Y128406D01*
X32624Y128760D01*
X32000Y128884D01*
X31376Y128760D01*
X30847Y128406D01*
X30493Y127877D01*
X30369Y127252D01*
X30493Y126628D01*
X30704Y126312D01*
X30445Y125812D01*
X21614D01*
X21355Y126312D01*
X21566Y126628D01*
X21690Y127252D01*
X21566Y127877D01*
X21213Y128406D01*
X20683Y128760D01*
X20059Y128884D01*
X19435Y128760D01*
X18905Y128406D01*
X18552Y127877D01*
X18428Y127252D01*
X18552Y126628D01*
X18763Y126312D01*
X18504Y125812D01*
X16000D01*
X13000Y122811D01*
Y94680D01*
X12779Y94532D01*
X11279Y93032D01*
X11058Y92702D01*
X11022Y92523D01*
X11000Y92501D01*
Y92410D01*
X10980Y92312D01*
Y48500D01*
X11000Y48402D01*
Y47501D01*
X13000Y45500D01*
X26500D01*
X28480Y43520D01*
Y22126D01*
X28419Y22074D01*
X27980Y21904D01*
X27584Y22169D01*
X26960Y22293D01*
X26336Y22169D01*
X25806Y21815D01*
X25710Y21671D01*
X25210D01*
X25113Y21815D01*
X24584Y22169D01*
X23960Y22293D01*
X23336Y22169D01*
X22806Y21815D01*
X22453Y21286D01*
X22329Y20662D01*
X22453Y20037D01*
X22806Y19508D01*
X23336Y19154D01*
X23960Y19030D01*
X24584Y19154D01*
X25113Y19508D01*
X25210Y19652D01*
X25710D01*
X25806Y19508D01*
X26336Y19154D01*
X26960Y19030D01*
X27584Y19154D01*
X27980Y19419D01*
X28419Y19249D01*
X28480Y19197D01*
Y15321D01*
X28464Y15296D01*
X28386Y14906D01*
X28464Y14515D01*
X28685Y14185D01*
X33779Y9091D01*
X34110Y8869D01*
X34500Y8792D01*
X256248D01*
X256297Y8802D01*
X256348Y8797D01*
X256491Y8840D01*
X256638Y8869D01*
X256680Y8898D01*
X256729Y8912D01*
X256844Y9007D01*
X256969Y9091D01*
X256997Y9133D01*
X257036Y9165D01*
X257107Y9297D01*
X257116Y9312D01*
X257884D01*
X257893Y9297D01*
X257964Y9165D01*
X258003Y9133D01*
X258031Y9091D01*
X258156Y9007D01*
X258272Y8912D01*
X258320Y8898D01*
X258362Y8869D01*
X258509Y8840D01*
X258652Y8797D01*
X258702Y8802D01*
X258752Y8792D01*
X299677D01*
Y-13499D01*
X-4500D01*
X-13500Y-4499D01*
Y139792D01*
X20576D01*
X20629Y139802D01*
X20683Y139797D01*
X20822Y139841D01*
X20966Y139869D01*
X21011Y139900D01*
X21063Y139916D01*
X21124Y139966D01*
X21965D01*
X22110Y139869D01*
X22428Y139806D01*
X22521Y139610D01*
X22558Y139292D01*
X22327Y139137D01*
X21973Y138608D01*
X21849Y137984D01*
X21973Y137359D01*
X22327Y136830D01*
X22856Y136476D01*
X23480Y136352D01*
X24104Y136476D01*
X24633Y136830D01*
X24730Y136974D01*
X25230D01*
X25326Y136830D01*
X25856Y136476D01*
X26480Y136352D01*
X27104Y136476D01*
X27634Y136830D01*
X27987Y137359D01*
X28111Y137984D01*
X27987Y138608D01*
X27634Y139137D01*
X27402Y139292D01*
X27553Y139792D01*
X28500D01*
X28890Y139869D01*
X29035Y139966D01*
X29328D01*
X32173Y142812D01*
X32372Y142851D01*
X32702Y143072D01*
X36422Y146792D01*
X43031D01*
X43084Y146713D01*
X42950Y146033D01*
X42847Y145964D01*
X42493Y145435D01*
X42369Y144810D01*
X42493Y144186D01*
X42847Y143657D01*
X43376Y143303D01*
X44000Y143179D01*
X44624Y143303D01*
X45153Y143657D01*
X45250Y143801D01*
X45750D01*
X45847Y143657D01*
X46376Y143303D01*
X47000Y143179D01*
X47624Y143303D01*
X48153Y143657D01*
X48507Y144186D01*
X48631Y144810D01*
X48507Y145435D01*
X48153Y145964D01*
X48050Y146033D01*
X47916Y146713D01*
X47969Y146792D01*
X55289D01*
X55381Y146810D01*
X55702Y146330D01*
X56231Y145976D01*
X56855Y145852D01*
X57479Y145976D01*
X58008Y146330D01*
X58329Y146810D01*
X58421Y146792D01*
X71030D01*
X71084Y146713D01*
X70950Y146033D01*
X70846Y145964D01*
X70493Y145435D01*
X70369Y144810D01*
X70493Y144186D01*
X70846Y143657D01*
X71376Y143303D01*
X72000Y143179D01*
X72624Y143303D01*
X73154Y143657D01*
X73507Y144186D01*
X73631Y144810D01*
X73507Y145435D01*
X73154Y145964D01*
X73050Y146033D01*
X72916Y146713D01*
X72970Y146792D01*
X74453D01*
X74486Y146798D01*
X74493Y146763D01*
X74847Y146234D01*
X75376Y145880D01*
X76000Y145756D01*
X76204Y145797D01*
X80405Y141595D01*
Y138906D01*
X84500Y134811D01*
X101000D01*
Y164500D01*
X137311Y200812D01*
X140400D01*
Y190211D01*
D02*
G37*
G36*
X45484Y93328D02*
X45480Y93312D01*
Y50532D01*
X45481Y50529D01*
X45376Y50508D01*
X44846Y50154D01*
X44493Y49625D01*
X44369Y49000D01*
X44493Y48376D01*
X44846Y47847D01*
X45376Y47493D01*
X45481Y47472D01*
X45480Y47469D01*
Y22595D01*
X45490Y22546D01*
X45485Y22496D01*
X45529Y22352D01*
X45558Y22205D01*
X45587Y22159D01*
X45550Y22062D01*
X45354Y21951D01*
X45070Y21844D01*
X44584Y22169D01*
X43960Y22293D01*
X43336Y22169D01*
X42807Y21815D01*
X42453Y21286D01*
X42329Y20662D01*
X42453Y20037D01*
X42807Y19508D01*
X43336Y19154D01*
X43960Y19030D01*
X44584Y19154D01*
X45114Y19508D01*
X45210Y19652D01*
X45710D01*
X45807Y19508D01*
X45898Y19447D01*
X46071Y18989D01*
X46035Y18846D01*
X45985Y18708D01*
X45987Y18654D01*
X45974Y18603D01*
X45996Y18457D01*
X46002Y18310D01*
X46025Y18262D01*
X46033Y18209D01*
X46051Y18157D01*
X46064Y18135D01*
X46069Y18110D01*
X46156Y17980D01*
X46171Y17950D01*
X46182Y17939D01*
X46256Y17816D01*
X46276Y17801D01*
X46290Y17779D01*
X46435Y17683D01*
X46575Y17579D01*
X46600Y17573D01*
X46621Y17559D01*
X46792Y17525D01*
X46961Y17482D01*
X46986Y17486D01*
X47012Y17481D01*
X292689D01*
X292788Y17501D01*
X293000D01*
X293053Y17553D01*
X293079Y17559D01*
X293410Y17779D01*
X297721Y22091D01*
X297942Y22421D01*
X297947Y22448D01*
X298000Y22501D01*
Y22713D01*
X298020Y22812D01*
Y26500D01*
X298000Y26599D01*
Y27501D01*
X293500Y32000D01*
X287500D01*
X286000Y33500D01*
Y42311D01*
X283827Y44484D01*
X233769D01*
X231221Y47032D01*
X222500Y55753D01*
Y57242D01*
X223000Y57509D01*
X223049Y57476D01*
X223673Y57352D01*
X224297Y57476D01*
X224827Y57830D01*
X225180Y58359D01*
X225304Y58983D01*
X225180Y59608D01*
X224827Y60137D01*
X224297Y60491D01*
X223673Y60615D01*
X223049Y60491D01*
X223000Y60458D01*
X222500Y60725D01*
Y61812D01*
X225000Y64311D01*
X231000D01*
X244500Y50811D01*
X310948D01*
Y21081D01*
X299677Y9811D01*
X258752D01*
X258600Y10311D01*
X258653Y10347D01*
X259007Y10876D01*
X259131Y11501D01*
X259007Y12125D01*
X258653Y12654D01*
X258124Y13008D01*
X257500Y13132D01*
X256876Y13008D01*
X256347Y12654D01*
X255993Y12125D01*
X255869Y11501D01*
X255993Y10876D01*
X256347Y10347D01*
X256399Y10311D01*
X256248Y9811D01*
X34500D01*
X29406Y14906D01*
X29500Y15000D01*
Y45000D01*
X27500Y47001D01*
X13500D01*
X12000Y48500D01*
Y92312D01*
X13500Y93812D01*
X29744D01*
X29847Y93658D01*
X30376Y93304D01*
X31000Y93180D01*
X31624Y93304D01*
X32153Y93658D01*
X32256Y93812D01*
X38744D01*
X38846Y93658D01*
X39376Y93304D01*
X40000Y93180D01*
X40624Y93304D01*
X41153Y93658D01*
X41256Y93812D01*
X45000D01*
X45484Y93328D01*
D02*
G37*
G36*
X193000Y92312D02*
Y34811D01*
X190000Y31811D01*
X130500D01*
Y42000D01*
X131500Y43001D01*
X135500D01*
X140689Y37811D01*
X184000D01*
X186000Y39812D01*
Y50811D01*
Y57515D01*
X186376Y57845D01*
X186732Y57798D01*
X187557Y57906D01*
X188325Y58225D01*
X188985Y58731D01*
X189491Y59391D01*
X189810Y60159D01*
X189918Y60984D01*
X189810Y61809D01*
X189491Y62577D01*
X188985Y63237D01*
X188325Y63743D01*
X187557Y64062D01*
X186732Y64170D01*
X186376Y64123D01*
X186000Y64453D01*
Y67515D01*
X186376Y67845D01*
X186732Y67798D01*
X187557Y67906D01*
X188325Y68225D01*
X188985Y68731D01*
X189491Y69391D01*
X189810Y70159D01*
X189918Y70984D01*
X189810Y71809D01*
X189491Y72577D01*
X188985Y73237D01*
X188325Y73743D01*
X187557Y74062D01*
X186732Y74170D01*
X186376Y74124D01*
X186000Y74453D01*
Y87811D01*
Y92812D01*
X186500Y93312D01*
X192000D01*
X193000Y92312D01*
D02*
G37*
G36*
X230500Y46312D02*
X233500Y43312D01*
X282500D01*
X284500Y41311D01*
Y32811D01*
X283500Y31811D01*
X211500D01*
Y38633D01*
X211584Y38649D01*
X212113Y39003D01*
X212210Y39147D01*
X212710D01*
X212807Y39003D01*
X213336Y38649D01*
X213960Y38525D01*
X214584Y38649D01*
X215113Y39003D01*
X215467Y39532D01*
X215591Y40156D01*
X215467Y40781D01*
X215113Y41310D01*
X214584Y41664D01*
X213960Y41788D01*
X213336Y41664D01*
X212807Y41310D01*
X212710Y41166D01*
X212210D01*
X212113Y41310D01*
X211584Y41664D01*
X211500Y41680D01*
Y47001D01*
X208000Y50501D01*
Y64811D01*
X208500Y65311D01*
X211500D01*
X230500Y46312D01*
D02*
G37*
G36*
X56500Y92812D02*
Y39812D01*
X65500Y30812D01*
X130402D01*
X130500Y30792D01*
X190000D01*
X190099Y30812D01*
X191000D01*
X194000Y33812D01*
Y34713D01*
X194020Y34811D01*
Y60077D01*
X194505Y60159D01*
X194824Y59391D01*
X195330Y58731D01*
X195990Y58225D01*
X196758Y57906D01*
X197583Y57798D01*
X198408Y57906D01*
X199176Y58225D01*
X199836Y58731D01*
X200342Y59391D01*
X200661Y60159D01*
X200769Y60984D01*
X200661Y61809D01*
X200342Y62577D01*
X199836Y63237D01*
X199176Y63743D01*
X198408Y64062D01*
X197583Y64170D01*
X196758Y64062D01*
X195990Y63743D01*
X195330Y63237D01*
X194824Y62577D01*
X194505Y61809D01*
X194020Y61891D01*
Y70077D01*
X194505Y70159D01*
X194824Y69391D01*
X195330Y68731D01*
X195990Y68225D01*
X196758Y67906D01*
X197583Y67798D01*
X198408Y67906D01*
X199176Y68225D01*
X199836Y68731D01*
X200342Y69391D01*
X200661Y70159D01*
X200769Y70984D01*
X200661Y71809D01*
X200342Y72577D01*
X199836Y73237D01*
X199176Y73743D01*
X198408Y74062D01*
X197583Y74170D01*
X196758Y74062D01*
X195990Y73743D01*
X195330Y73237D01*
X194824Y72577D01*
X194505Y71809D01*
X194020Y71891D01*
Y92312D01*
X194000Y92410D01*
Y92812D01*
X194500Y93312D01*
X199500D01*
X200000Y92812D01*
Y76485D01*
X202480Y74005D01*
Y55291D01*
X199000Y51811D01*
Y34811D01*
X203000Y30812D01*
X211402D01*
X211500Y30792D01*
X283500D01*
X283598Y30812D01*
X292689D01*
X297000Y26500D01*
Y22812D01*
X292689Y18500D01*
X47012D01*
X46993Y18553D01*
X47327Y19103D01*
X47584Y19154D01*
X48114Y19508D01*
X48467Y20037D01*
X48591Y20662D01*
X48467Y21286D01*
X48114Y21815D01*
X47584Y22169D01*
X46960Y22293D01*
X46887Y22278D01*
X46500Y22595D01*
Y47469D01*
X46624Y47493D01*
X47153Y47847D01*
X47507Y48376D01*
X47631Y49000D01*
X47507Y49625D01*
X47153Y50154D01*
X46624Y50508D01*
X46500Y50532D01*
Y93312D01*
X47500Y94311D01*
X55000D01*
X56500Y92812D01*
D02*
G37*
G36*
X121935Y-33003D02*
Y-35686D01*
X120640D01*
Y-32994D01*
X118300Y-29285D01*
X119808D01*
X121315Y-31819D01*
X122786Y-29285D01*
X124275D01*
X121935Y-33003D01*
D02*
G37*
G36*
X169434Y-35686D02*
X168037D01*
X166779Y-30904D01*
X165503Y-35686D01*
X164097D01*
X162580Y-29285D01*
X163902D01*
X164864Y-33688D01*
X166030Y-29285D01*
X167584D01*
X168694Y-33762D01*
X169674Y-29285D01*
X170979D01*
X169434Y-35686D01*
D02*
G37*
G36*
X141730Y-29257D02*
X141813Y-29266D01*
X141897Y-29276D01*
X141998Y-29294D01*
X142100Y-29322D01*
X142331Y-29387D01*
X142452Y-29433D01*
X142581Y-29498D01*
X142701Y-29562D01*
X142812Y-29636D01*
X142933Y-29729D01*
X143034Y-29831D01*
X143044Y-29840D01*
X143053Y-29849D01*
X143081Y-29877D01*
X143108Y-29914D01*
X143182Y-30006D01*
X143266Y-30136D01*
X143349Y-30293D01*
X143414Y-30478D01*
X143469Y-30682D01*
X143478Y-30783D01*
X143488Y-30894D01*
Y-30904D01*
Y-30931D01*
X143478Y-30978D01*
X143469Y-31033D01*
X143460Y-31107D01*
X143441Y-31190D01*
X143414Y-31283D01*
X143377Y-31385D01*
X143321Y-31486D01*
X143266Y-31597D01*
X143192Y-31708D01*
X143099Y-31819D01*
X142988Y-31930D01*
X142868Y-32041D01*
X142729Y-32143D01*
X142563Y-32245D01*
X142572D01*
X142590Y-32254D01*
X142618D01*
X142655Y-32273D01*
X142757Y-32300D01*
X142877Y-32356D01*
X143016Y-32430D01*
X143164Y-32522D01*
X143312Y-32643D01*
X143441Y-32781D01*
X143460Y-32800D01*
X143497Y-32855D01*
X143543Y-32939D01*
X143608Y-33059D01*
X143673Y-33198D01*
X143719Y-33373D01*
X143756Y-33558D01*
X143774Y-33771D01*
Y-33780D01*
Y-33808D01*
Y-33854D01*
X143765Y-33910D01*
X143756Y-33984D01*
X143737Y-34067D01*
X143719Y-34169D01*
X143700Y-34271D01*
X143626Y-34493D01*
X143571Y-34613D01*
X143515Y-34742D01*
X143441Y-34863D01*
X143358Y-34983D01*
X143266Y-35103D01*
X143155Y-35214D01*
X143145Y-35223D01*
X143127Y-35242D01*
X143090Y-35270D01*
X143044Y-35307D01*
X142979Y-35353D01*
X142914Y-35399D01*
X142822Y-35455D01*
X142729Y-35510D01*
X142627Y-35566D01*
X142507Y-35621D01*
X142378Y-35667D01*
X142248Y-35714D01*
X142100Y-35751D01*
X141952Y-35778D01*
X141786Y-35797D01*
X141619Y-35806D01*
X141536D01*
X141471Y-35797D01*
X141397Y-35788D01*
X141314Y-35778D01*
X141221Y-35760D01*
X141110Y-35741D01*
X140888Y-35686D01*
X140648Y-35593D01*
X140518Y-35538D01*
X140407Y-35473D01*
X140287Y-35390D01*
X140176Y-35307D01*
X140167Y-35297D01*
X140148Y-35279D01*
X140121Y-35251D01*
X140084Y-35214D01*
X140037Y-35168D01*
X139991Y-35103D01*
X139936Y-35038D01*
X139880Y-34955D01*
X139825Y-34863D01*
X139760Y-34770D01*
X139658Y-34548D01*
X139575Y-34289D01*
X139538Y-34150D01*
X139519Y-34002D01*
X140703Y-33854D01*
Y-33864D01*
Y-33873D01*
X140713Y-33928D01*
X140731Y-34012D01*
X140759Y-34113D01*
X140805Y-34224D01*
X140851Y-34345D01*
X140925Y-34456D01*
X141009Y-34557D01*
X141018Y-34567D01*
X141055Y-34594D01*
X141110Y-34631D01*
X141175Y-34668D01*
X141268Y-34715D01*
X141369Y-34752D01*
X141480Y-34779D01*
X141610Y-34789D01*
X141628D01*
X141675Y-34779D01*
X141739Y-34770D01*
X141832Y-34752D01*
X141934Y-34715D01*
X142035Y-34668D01*
X142146Y-34594D01*
X142248Y-34502D01*
X142257Y-34493D01*
X142294Y-34446D01*
X142331Y-34382D01*
X142387Y-34298D01*
X142433Y-34187D01*
X142479Y-34049D01*
X142507Y-33891D01*
X142516Y-33716D01*
Y-33706D01*
Y-33697D01*
Y-33642D01*
X142507Y-33558D01*
X142489Y-33447D01*
X142452Y-33327D01*
X142405Y-33207D01*
X142341Y-33087D01*
X142257Y-32976D01*
X142248Y-32966D01*
X142211Y-32929D01*
X142156Y-32883D01*
X142091Y-32837D01*
X141998Y-32781D01*
X141897Y-32744D01*
X141786Y-32707D01*
X141656Y-32698D01*
X141564D01*
X141499Y-32707D01*
X141416Y-32717D01*
X141314Y-32735D01*
X141212Y-32763D01*
X141092Y-32791D01*
X141221Y-31801D01*
X141305D01*
X141397Y-31792D01*
X141508Y-31782D01*
X141628Y-31755D01*
X141758Y-31718D01*
X141878Y-31662D01*
X141989Y-31588D01*
X141998Y-31579D01*
X142035Y-31542D01*
X142072Y-31496D01*
X142128Y-31422D01*
X142174Y-31338D01*
X142220Y-31237D01*
X142248Y-31116D01*
X142257Y-30978D01*
Y-30959D01*
Y-30922D01*
X142248Y-30867D01*
X142230Y-30793D01*
X142211Y-30709D01*
X142174Y-30626D01*
X142128Y-30534D01*
X142063Y-30460D01*
X142054Y-30450D01*
X142026Y-30432D01*
X141989Y-30395D01*
X141924Y-30358D01*
X141850Y-30330D01*
X141767Y-30293D01*
X141656Y-30275D01*
X141545Y-30265D01*
X141490D01*
X141434Y-30275D01*
X141360Y-30293D01*
X141277Y-30321D01*
X141184Y-30358D01*
X141092Y-30413D01*
X141009Y-30487D01*
X140999Y-30497D01*
X140972Y-30524D01*
X140935Y-30580D01*
X140888Y-30654D01*
X140842Y-30737D01*
X140805Y-30848D01*
X140768Y-30978D01*
X140740Y-31126D01*
X139612Y-30941D01*
Y-30931D01*
X139621Y-30913D01*
Y-30885D01*
X139630Y-30839D01*
X139658Y-30737D01*
X139695Y-30598D01*
X139751Y-30450D01*
X139806Y-30293D01*
X139880Y-30145D01*
X139963Y-30006D01*
X139973Y-29988D01*
X140010Y-29951D01*
X140065Y-29886D01*
X140139Y-29803D01*
X140232Y-29720D01*
X140343Y-29627D01*
X140481Y-29535D01*
X140629Y-29451D01*
X140639D01*
X140648Y-29442D01*
X140703Y-29424D01*
X140796Y-29387D01*
X140907Y-29350D01*
X141046Y-29313D01*
X141212Y-29276D01*
X141388Y-29257D01*
X141582Y-29248D01*
X141665D01*
X141730Y-29257D01*
D02*
G37*
G36*
X180589Y-29294D02*
X180691D01*
X180793Y-29303D01*
X180913D01*
X181154Y-29331D01*
X181403Y-29359D01*
X181635Y-29405D01*
X181736Y-29433D01*
X181829Y-29461D01*
X181838D01*
X181847Y-29470D01*
X181903Y-29498D01*
X181986Y-29544D01*
X182097Y-29599D01*
X182217Y-29692D01*
X182338Y-29794D01*
X182458Y-29923D01*
X182569Y-30080D01*
Y-30090D01*
X182578Y-30099D01*
X182597Y-30127D01*
X182615Y-30154D01*
X182661Y-30247D01*
X182717Y-30367D01*
X182763Y-30515D01*
X182809Y-30682D01*
X182846Y-30876D01*
X182856Y-31079D01*
Y-31089D01*
Y-31107D01*
Y-31153D01*
X182846Y-31200D01*
Y-31264D01*
X182837Y-31329D01*
X182800Y-31496D01*
X182754Y-31690D01*
X182680Y-31884D01*
X182569Y-32088D01*
X182504Y-32180D01*
X182430Y-32273D01*
X182421Y-32282D01*
X182412Y-32291D01*
X182384Y-32319D01*
X182347Y-32347D01*
X182310Y-32384D01*
X182254Y-32430D01*
X182190Y-32476D01*
X182116Y-32522D01*
X182032Y-32578D01*
X181931Y-32624D01*
X181829Y-32670D01*
X181718Y-32717D01*
X181588Y-32763D01*
X181459Y-32800D01*
X181320Y-32837D01*
X181163Y-32865D01*
X181172D01*
X181181Y-32874D01*
X181237Y-32911D01*
X181311Y-32957D01*
X181403Y-33022D01*
X181514Y-33105D01*
X181625Y-33188D01*
X181746Y-33290D01*
X181847Y-33401D01*
X181857Y-33410D01*
X181903Y-33457D01*
X181958Y-33531D01*
X182042Y-33642D01*
X182153Y-33780D01*
X182208Y-33873D01*
X182273Y-33965D01*
X182347Y-34067D01*
X182421Y-34178D01*
X182504Y-34308D01*
X182587Y-34437D01*
X183374Y-35686D01*
X181820D01*
X180895Y-34298D01*
X180885Y-34289D01*
X180876Y-34261D01*
X180848Y-34224D01*
X180811Y-34178D01*
X180774Y-34123D01*
X180728Y-34049D01*
X180626Y-33901D01*
X180506Y-33734D01*
X180395Y-33586D01*
X180293Y-33447D01*
X180247Y-33401D01*
X180210Y-33355D01*
X180201Y-33346D01*
X180182Y-33327D01*
X180145Y-33290D01*
X180099Y-33244D01*
X180034Y-33207D01*
X179970Y-33161D01*
X179896Y-33124D01*
X179822Y-33087D01*
X179812D01*
X179785Y-33077D01*
X179738Y-33059D01*
X179664Y-33050D01*
X179572Y-33031D01*
X179461Y-33022D01*
X179331Y-33013D01*
X178915D01*
Y-35686D01*
X177620D01*
Y-29285D01*
X180506D01*
X180589Y-29294D01*
D02*
G37*
G36*
X176399Y-30367D02*
X172949D01*
Y-31782D01*
X176159D01*
Y-32865D01*
X172949D01*
Y-34604D01*
X176519D01*
Y-35686D01*
X171654D01*
Y-29285D01*
X176399D01*
Y-30367D01*
D02*
G37*
G36*
X152747Y-29294D02*
X152987D01*
X153246Y-29313D01*
X153505Y-29331D01*
X153616Y-29340D01*
X153727Y-29350D01*
X153820Y-29368D01*
X153894Y-29387D01*
X153903D01*
X153922Y-29396D01*
X153949Y-29405D01*
X153986Y-29414D01*
X154088Y-29461D01*
X154218Y-29516D01*
X154356Y-29599D01*
X154514Y-29710D01*
X154662Y-29849D01*
X154810Y-30016D01*
Y-30025D01*
X154828Y-30034D01*
X154847Y-30062D01*
X154865Y-30099D01*
X154902Y-30154D01*
X154930Y-30210D01*
X154967Y-30275D01*
X155004Y-30349D01*
X155069Y-30534D01*
X155133Y-30737D01*
X155170Y-30987D01*
X155189Y-31255D01*
Y-31264D01*
Y-31283D01*
Y-31311D01*
Y-31357D01*
X155180Y-31403D01*
Y-31468D01*
X155161Y-31597D01*
X155133Y-31755D01*
X155096Y-31930D01*
X155041Y-32097D01*
X154967Y-32254D01*
X154958Y-32273D01*
X154930Y-32319D01*
X154884Y-32393D01*
X154819Y-32485D01*
X154745Y-32578D01*
X154643Y-32689D01*
X154541Y-32791D01*
X154421Y-32883D01*
X154403Y-32892D01*
X154366Y-32920D01*
X154301Y-32957D01*
X154218Y-33003D01*
X154116Y-33059D01*
X154005Y-33105D01*
X153885Y-33151D01*
X153755Y-33188D01*
X153737D01*
X153709Y-33198D01*
X153672D01*
X153626Y-33207D01*
X153561Y-33216D01*
X153496Y-33225D01*
X153413D01*
X153330Y-33235D01*
X153228Y-33244D01*
X153117Y-33253D01*
X152997Y-33262D01*
X152867D01*
X152728Y-33272D01*
X151581D01*
Y-35686D01*
X150286D01*
Y-29285D01*
X152645D01*
X152747Y-29294D01*
D02*
G37*
G36*
X133868Y-29294D02*
X133969D01*
X134071Y-29303D01*
X134191D01*
X134432Y-29331D01*
X134682Y-29359D01*
X134913Y-29405D01*
X135015Y-29433D01*
X135107Y-29461D01*
X135116D01*
X135126Y-29470D01*
X135181Y-29498D01*
X135264Y-29544D01*
X135375Y-29599D01*
X135496Y-29692D01*
X135616Y-29794D01*
X135736Y-29923D01*
X135847Y-30080D01*
Y-30090D01*
X135856Y-30099D01*
X135875Y-30127D01*
X135893Y-30154D01*
X135940Y-30247D01*
X135995Y-30367D01*
X136041Y-30515D01*
X136088Y-30682D01*
X136125Y-30876D01*
X136134Y-31079D01*
Y-31089D01*
Y-31107D01*
Y-31153D01*
X136125Y-31200D01*
Y-31264D01*
X136115Y-31329D01*
X136078Y-31496D01*
X136032Y-31690D01*
X135958Y-31884D01*
X135847Y-32088D01*
X135782Y-32180D01*
X135708Y-32273D01*
X135699Y-32282D01*
X135690Y-32291D01*
X135662Y-32319D01*
X135625Y-32347D01*
X135588Y-32384D01*
X135533Y-32430D01*
X135468Y-32476D01*
X135394Y-32522D01*
X135311Y-32578D01*
X135209Y-32624D01*
X135107Y-32670D01*
X134996Y-32717D01*
X134867Y-32763D01*
X134737Y-32800D01*
X134598Y-32837D01*
X134441Y-32865D01*
X134450D01*
X134460Y-32874D01*
X134515Y-32911D01*
X134589Y-32957D01*
X134682Y-33022D01*
X134793Y-33105D01*
X134904Y-33188D01*
X135024Y-33290D01*
X135126Y-33401D01*
X135135Y-33410D01*
X135181Y-33457D01*
X135237Y-33531D01*
X135320Y-33642D01*
X135431Y-33780D01*
X135486Y-33873D01*
X135551Y-33965D01*
X135625Y-34067D01*
X135699Y-34178D01*
X135782Y-34308D01*
X135866Y-34437D01*
X136652Y-35686D01*
X135098Y-35686D01*
X134173Y-34298D01*
X134164Y-34289D01*
X134154Y-34261D01*
X134127Y-34224D01*
X134090Y-34178D01*
X134053Y-34123D01*
X134006Y-34049D01*
X133905Y-33901D01*
X133784Y-33734D01*
X133673Y-33586D01*
X133572Y-33447D01*
X133525Y-33401D01*
X133488Y-33355D01*
X133479Y-33346D01*
X133461Y-33327D01*
X133424Y-33290D01*
X133377Y-33244D01*
X133313Y-33207D01*
X133248Y-33161D01*
X133174Y-33124D01*
X133100Y-33087D01*
X133091D01*
X133063Y-33077D01*
X133017Y-33059D01*
X132943Y-33050D01*
X132850Y-33031D01*
X132739Y-33022D01*
X132610Y-33013D01*
X132193D01*
Y-35686D01*
X130898D01*
Y-29285D01*
X133784D01*
X133868Y-29294D01*
D02*
G37*
G36*
X129677Y-30367D02*
X126227D01*
Y-31782D01*
X129437D01*
Y-32865D01*
X126227D01*
Y-34604D01*
X129798D01*
Y-35686D01*
X124932D01*
Y-29285D01*
X129677D01*
Y-30367D01*
D02*
G37*
G36*
X118272Y-35686D02*
X116875D01*
X116320Y-34234D01*
X113749D01*
X113222Y-35686D01*
X111853D01*
X114332Y-29285D01*
X115701D01*
X118272Y-35686D01*
D02*
G37*
G36*
X108365Y-34604D02*
X111584D01*
Y-35686D01*
X107070D01*
Y-29331D01*
X108365D01*
Y-34604D01*
D02*
G37*
G36*
X159213Y-29174D02*
X159305D01*
X159425Y-29192D01*
X159564Y-29211D01*
X159721Y-29239D01*
X159888Y-29276D01*
X160064Y-29322D01*
X160249Y-29377D01*
X160434Y-29451D01*
X160628Y-29535D01*
X160813Y-29636D01*
X160998Y-29757D01*
X161174Y-29895D01*
X161340Y-30053D01*
X161349Y-30062D01*
X161377Y-30090D01*
X161423Y-30145D01*
X161470Y-30210D01*
X161534Y-30302D01*
X161608Y-30413D01*
X161682Y-30543D01*
X161766Y-30691D01*
X161849Y-30848D01*
X161923Y-31033D01*
X161997Y-31237D01*
X162062Y-31449D01*
X162117Y-31690D01*
X162154Y-31940D01*
X162182Y-32208D01*
X162191Y-32495D01*
Y-32513D01*
Y-32559D01*
X162182Y-32643D01*
Y-32754D01*
X162163Y-32883D01*
X162145Y-33031D01*
X162117Y-33207D01*
X162089Y-33383D01*
X162043Y-33577D01*
X161988Y-33780D01*
X161914Y-33984D01*
X161830Y-34187D01*
X161738Y-34382D01*
X161618Y-34576D01*
X161488Y-34761D01*
X161340Y-34937D01*
X161331Y-34946D01*
X161303Y-34974D01*
X161257Y-35020D01*
X161183Y-35075D01*
X161100Y-35140D01*
X160998Y-35214D01*
X160878Y-35288D01*
X160748Y-35371D01*
X160591Y-35455D01*
X160424Y-35529D01*
X160239Y-35603D01*
X160036Y-35667D01*
X159823Y-35723D01*
X159592Y-35769D01*
X159351Y-35797D01*
X159092Y-35806D01*
X159028D01*
X158954Y-35797D01*
X158861Y-35788D01*
X158741Y-35778D01*
X158602Y-35760D01*
X158445Y-35732D01*
X158278Y-35695D01*
X158093Y-35649D01*
X157918Y-35593D01*
X157723Y-35519D01*
X157538Y-35436D01*
X157344Y-35344D01*
X157168Y-35223D01*
X156993Y-35094D01*
X156826Y-34937D01*
X156817Y-34927D01*
X156789Y-34900D01*
X156752Y-34844D01*
X156697Y-34779D01*
X156632Y-34687D01*
X156558Y-34576D01*
X156484Y-34456D01*
X156410Y-34308D01*
X156327Y-34150D01*
X156253Y-33965D01*
X156179Y-33771D01*
X156114Y-33558D01*
X156058Y-33327D01*
X156021Y-33077D01*
X155994Y-32809D01*
X155984Y-32532D01*
Y-32522D01*
Y-32485D01*
Y-32439D01*
X155994Y-32365D01*
Y-32282D01*
X156003Y-32189D01*
X156012Y-32078D01*
X156021Y-31958D01*
X156058Y-31699D01*
X156105Y-31422D01*
X156179Y-31144D01*
X156271Y-30885D01*
Y-30876D01*
X156280Y-30867D01*
X156299Y-30839D01*
X156308Y-30802D01*
X156364Y-30709D01*
X156428Y-30589D01*
X156512Y-30450D01*
X156613Y-30312D01*
X156734Y-30154D01*
X156863Y-30006D01*
X156872Y-29997D01*
X156882Y-29988D01*
X156928Y-29942D01*
X157011Y-29868D01*
X157113Y-29784D01*
X157233Y-29692D01*
X157372Y-29590D01*
X157529Y-29498D01*
X157696Y-29424D01*
X157705D01*
X157723Y-29414D01*
X157760Y-29396D01*
X157807Y-29387D01*
X157862Y-29359D01*
X157927Y-29340D01*
X158010Y-29322D01*
X158093Y-29294D01*
X158297Y-29248D01*
X158528Y-29202D01*
X158796Y-29174D01*
X159074Y-29165D01*
X159139D01*
X159213Y-29174D01*
D02*
G37*
G36*
X184558Y-29183D02*
X184576Y-29220D01*
X184613Y-29266D01*
X184659Y-29340D01*
X184715Y-29424D01*
X184780Y-29525D01*
X184844Y-29646D01*
X184918Y-29775D01*
X185002Y-29923D01*
X185085Y-30080D01*
X185168Y-30238D01*
X185251Y-30413D01*
X185418Y-30783D01*
X185566Y-31172D01*
Y-31181D01*
X185584Y-31218D01*
X185603Y-31274D01*
X185621Y-31357D01*
X185649Y-31449D01*
X185686Y-31560D01*
X185714Y-31690D01*
X185751Y-31838D01*
X185788Y-31986D01*
X185816Y-32152D01*
X185853Y-32337D01*
X185880Y-32522D01*
X185917Y-32902D01*
X185936Y-33309D01*
Y-33318D01*
Y-33346D01*
Y-33401D01*
Y-33466D01*
X185927Y-33549D01*
X185917Y-33651D01*
X185908Y-33771D01*
X185899Y-33901D01*
X185890Y-34039D01*
X185862Y-34187D01*
X185843Y-34354D01*
X185816Y-34520D01*
X185742Y-34881D01*
X185649Y-35270D01*
Y-35279D01*
X185631Y-35325D01*
X185612Y-35381D01*
X185584Y-35464D01*
X185547Y-35575D01*
X185501Y-35695D01*
X185455Y-35834D01*
X185390Y-35991D01*
X185316Y-36158D01*
X185242Y-36343D01*
X185150Y-36528D01*
X185057Y-36731D01*
X184946Y-36935D01*
X184835Y-37147D01*
X184715Y-37360D01*
X184576Y-37573D01*
X183725D01*
Y-37564D01*
X183744Y-37536D01*
X183762Y-37499D01*
X183781Y-37443D01*
X183818Y-37379D01*
X183845Y-37305D01*
X183929Y-37129D01*
X184012Y-36935D01*
X184095Y-36731D01*
X184169Y-36537D01*
X184234Y-36370D01*
Y-36361D01*
X184243Y-36352D01*
X184262Y-36296D01*
X184289Y-36213D01*
X184326Y-36102D01*
X184363Y-35963D01*
X184410Y-35797D01*
X184456Y-35621D01*
X184502Y-35427D01*
Y-35418D01*
X184511Y-35399D01*
Y-35371D01*
X184521Y-35334D01*
X184548Y-35233D01*
X184576Y-35094D01*
X184604Y-34937D01*
X184641Y-34761D01*
X184696Y-34400D01*
Y-34391D01*
Y-34382D01*
X184706Y-34354D01*
Y-34317D01*
X184715Y-34215D01*
X184733Y-34095D01*
X184743Y-33938D01*
X184752Y-33771D01*
X184761Y-33586D01*
Y-33401D01*
Y-33392D01*
Y-33355D01*
Y-33299D01*
Y-33225D01*
X184752Y-33133D01*
Y-33022D01*
X184743Y-32902D01*
X184733Y-32763D01*
X184724Y-32615D01*
X184706Y-32458D01*
X184659Y-32125D01*
X184604Y-31782D01*
X184530Y-31431D01*
Y-31422D01*
X184521Y-31385D01*
X184502Y-31338D01*
X184484Y-31264D01*
X184465Y-31172D01*
X184428Y-31070D01*
X184391Y-30941D01*
X184345Y-30802D01*
X184289Y-30645D01*
X184234Y-30469D01*
X184169Y-30284D01*
X184095Y-30090D01*
X184012Y-29877D01*
X183919Y-29655D01*
X183827Y-29414D01*
X183716Y-29174D01*
X184548D01*
X184558Y-29183D01*
D02*
G37*
G36*
X149334Y-29192D02*
X149315Y-29229D01*
X149287Y-29303D01*
X149250Y-29396D01*
X149195Y-29507D01*
X149139Y-29646D01*
X149084Y-29794D01*
X149019Y-29951D01*
X148945Y-30127D01*
X148880Y-30312D01*
X148742Y-30691D01*
X148621Y-31070D01*
X148566Y-31255D01*
X148520Y-31431D01*
Y-31440D01*
X148510Y-31468D01*
X148501Y-31523D01*
X148483Y-31588D01*
X148464Y-31681D01*
X148446Y-31782D01*
X148427Y-31893D01*
X148409Y-32023D01*
X148390Y-32162D01*
X148372Y-32319D01*
X148353Y-32476D01*
X148335Y-32652D01*
X148307Y-33013D01*
X148298Y-33401D01*
Y-33410D01*
Y-33429D01*
Y-33475D01*
Y-33521D01*
Y-33586D01*
X148307Y-33669D01*
Y-33753D01*
X148316Y-33854D01*
X148325Y-34076D01*
X148353Y-34326D01*
X148381Y-34594D01*
X148427Y-34872D01*
Y-34881D01*
X148436Y-34909D01*
Y-34946D01*
X148455Y-35001D01*
X148464Y-35066D01*
X148483Y-35140D01*
X148501Y-35233D01*
X148520Y-35325D01*
X148575Y-35547D01*
X148631Y-35788D01*
X148705Y-36037D01*
X148788Y-36287D01*
Y-36296D01*
X148797Y-36306D01*
X148806Y-36333D01*
X148816Y-36370D01*
X148834Y-36417D01*
X148862Y-36472D01*
X148880Y-36537D01*
X148917Y-36611D01*
X148954Y-36703D01*
X148991Y-36796D01*
X149038Y-36898D01*
X149084Y-37018D01*
X149139Y-37138D01*
X149195Y-37277D01*
X149260Y-37416D01*
X149334Y-37573D01*
X148492D01*
X148483Y-37564D01*
X148464Y-37527D01*
X148427Y-37471D01*
X148381Y-37397D01*
X148325Y-37305D01*
X148261Y-37194D01*
X148187Y-37064D01*
X148113Y-36925D01*
X148029Y-36777D01*
X147946Y-36611D01*
X147863Y-36435D01*
X147770Y-36259D01*
X147613Y-35871D01*
X147465Y-35473D01*
Y-35464D01*
X147447Y-35427D01*
X147437Y-35362D01*
X147410Y-35288D01*
X147382Y-35186D01*
X147354Y-35075D01*
X147326Y-34946D01*
X147299Y-34807D01*
X147262Y-34650D01*
X147234Y-34483D01*
X147178Y-34132D01*
X147141Y-33753D01*
X147123Y-33373D01*
Y-33355D01*
Y-33318D01*
Y-33253D01*
X147132Y-33161D01*
Y-33050D01*
X147141Y-32911D01*
X147160Y-32763D01*
X147178Y-32596D01*
X147197Y-32421D01*
X147225Y-32236D01*
X147299Y-31829D01*
X147410Y-31412D01*
X147474Y-31200D01*
X147548Y-30987D01*
Y-30978D01*
X147567Y-30941D01*
X147585Y-30894D01*
X147613Y-30820D01*
X147650Y-30737D01*
X147696Y-30635D01*
X147752Y-30515D01*
X147807Y-30395D01*
X147872Y-30256D01*
X147946Y-30117D01*
X148103Y-29812D01*
X148298Y-29488D01*
X148501Y-29174D01*
X149343D01*
X149334Y-29192D01*
D02*
G37*
%LPC*%
G36*
X71400Y246132D02*
X70776Y246008D01*
X70246Y245654D01*
X69893Y245125D01*
X69769Y244500D01*
X69798Y244351D01*
X69337Y244105D01*
X68721Y244722D01*
X68390Y244942D01*
X68000Y245020D01*
X57500D01*
X57110Y244942D01*
X56779Y244722D01*
X55779Y243722D01*
X55558Y243391D01*
X55480Y243001D01*
Y211923D01*
X53027Y209470D01*
X53007Y209439D01*
X52977Y209416D01*
X52897Y209274D01*
X52806Y209139D01*
X52799Y209102D01*
X52780Y209070D01*
X52760Y208908D01*
X52728Y208749D01*
X52731Y208736D01*
X52644Y208605D01*
X52352Y208371D01*
X52298Y208352D01*
X51909Y208429D01*
X51853Y208418D01*
X51729Y208736D01*
X51697Y208830D01*
X51684Y208853D01*
X51680Y208864D01*
X51674Y208891D01*
X51582Y209030D01*
X51498Y209174D01*
X51472Y209194D01*
X51453Y209222D01*
X51315Y209314D01*
X51182Y209416D01*
X51150Y209424D01*
X51123Y209442D01*
X50959Y209475D01*
X50797Y209518D01*
X50765Y209514D01*
X50732Y209520D01*
X36786D01*
X36752Y209513D01*
X36718Y209518D01*
X36558Y209475D01*
X36396Y209442D01*
X36367Y209423D01*
X36334Y209414D01*
X36202Y209313D01*
X36065Y209222D01*
X36046Y209193D01*
X36018Y209172D01*
X35936Y209028D01*
X35844Y208891D01*
X35839Y208864D01*
X35833Y208849D01*
X35820Y208827D01*
X35796Y208755D01*
X35663Y208418D01*
X35611Y208428D01*
X35065Y208319D01*
X34887Y208200D01*
X33735D01*
X33557Y208319D01*
X33011Y208428D01*
X32959Y208418D01*
X32826Y208755D01*
X32802Y208827D01*
X32789Y208849D01*
X32783Y208864D01*
X32778Y208891D01*
X32686Y209028D01*
X32604Y209172D01*
X32576Y209193D01*
X32557Y209222D01*
X32419Y209313D01*
X32288Y209414D01*
X32255Y209423D01*
X32226Y209442D01*
X32064Y209475D01*
X31904Y209518D01*
X31870Y209513D01*
X31836Y209520D01*
X29500D01*
X29110Y209442D01*
X28779Y209222D01*
X27779Y208222D01*
X27558Y207891D01*
X27384Y207819D01*
X27061Y208035D01*
X26437Y208159D01*
X25813Y208035D01*
X25284Y207681D01*
X24930Y207152D01*
X24806Y206527D01*
X24930Y205903D01*
X25284Y205374D01*
X25813Y205020D01*
X26437Y204896D01*
X26980Y205004D01*
X27480Y204760D01*
Y203795D01*
X26980Y203515D01*
X26480Y203615D01*
X25856Y203491D01*
X25326Y203137D01*
X24973Y202608D01*
X24849Y201983D01*
X24973Y201359D01*
X25326Y200830D01*
X25856Y200476D01*
X26480Y200352D01*
X26980Y200452D01*
X27480Y200172D01*
Y197001D01*
X27558Y196610D01*
X27779Y196280D01*
X31779Y192280D01*
X32110Y192059D01*
X32500Y191981D01*
X59078D01*
X65779Y185280D01*
X66110Y185058D01*
X66500Y184981D01*
X70500D01*
X70890Y185058D01*
X71221Y185280D01*
X72221Y186279D01*
X72442Y186610D01*
X72520Y187001D01*
Y195001D01*
X72442Y195391D01*
X72221Y195721D01*
X70020Y197923D01*
Y208501D01*
X69942Y208891D01*
X69721Y209222D01*
X68520Y210423D01*
Y237578D01*
X69721Y238779D01*
X69942Y239110D01*
X70020Y239500D01*
Y242897D01*
X70260Y243093D01*
X70493Y243182D01*
X70776Y242993D01*
X71400Y242869D01*
X71626Y242914D01*
X72051Y242489D01*
X72050Y242483D01*
X72174Y241859D01*
X72527Y241330D01*
X73057Y240976D01*
X73681Y240852D01*
X74305Y240976D01*
X74835Y241330D01*
X74907Y241439D01*
X75507Y241437D01*
X75678Y241182D01*
X76207Y240828D01*
X76831Y240704D01*
X77455Y240828D01*
X77984Y241182D01*
X78096Y241350D01*
X78698D01*
X78826Y241157D01*
X79356Y240803D01*
X79980Y240679D01*
X80604Y240803D01*
X81134Y241157D01*
X81221Y241288D01*
X81822D01*
X81976Y241057D01*
X82506Y240703D01*
X83130Y240579D01*
X83754Y240703D01*
X84284Y241057D01*
X84637Y241586D01*
X84761Y242211D01*
X84637Y242835D01*
X84284Y243364D01*
X83754Y243718D01*
X83130Y243842D01*
X82506Y243718D01*
X81976Y243364D01*
X81889Y243233D01*
X81288D01*
X81134Y243464D01*
X80604Y243818D01*
X79980Y243942D01*
X79356Y243818D01*
X78826Y243464D01*
X78715Y243297D01*
X78113D01*
X77984Y243489D01*
X77455Y243843D01*
X76831Y243967D01*
X76207Y243843D01*
X75678Y243489D01*
X75605Y243380D01*
X75005Y243382D01*
X74835Y243637D01*
X74305Y243991D01*
X73681Y244115D01*
X73456Y244070D01*
X73030Y244495D01*
X73031Y244500D01*
X72907Y245125D01*
X72553Y245654D01*
X72024Y246008D01*
X71400Y246132D01*
D02*
G37*
G36*
X282225Y244115D02*
X281601Y243991D01*
X281071Y243637D01*
X280951Y243456D01*
X280349D01*
X280228Y243637D01*
X279699Y243991D01*
X279075Y244115D01*
X278451Y243991D01*
X277922Y243637D01*
X277752Y243383D01*
X277151Y243382D01*
X277080Y243489D01*
X276550Y243843D01*
X275926Y243967D01*
X275302Y243843D01*
X274773Y243489D01*
X274419Y242960D01*
X274295Y242336D01*
X274419Y241711D01*
X274773Y241182D01*
X275302Y240828D01*
X275926Y240704D01*
X276550Y240828D01*
X277080Y241182D01*
X277249Y241436D01*
X277850Y241437D01*
X277922Y241330D01*
X278451Y240976D01*
X279075Y240852D01*
X279699Y240976D01*
X280228Y241330D01*
X280349Y241511D01*
X280951D01*
X281071Y241330D01*
X281601Y240976D01*
X282225Y240852D01*
X282849Y240976D01*
X283379Y241330D01*
X283732Y241859D01*
X283856Y242483D01*
X283732Y243108D01*
X283379Y243637D01*
X282849Y243991D01*
X282225Y244115D01*
D02*
G37*
G36*
X291674Y243942D02*
X291050Y243818D01*
X290521Y243464D01*
X290400Y243283D01*
X289798D01*
X289678Y243464D01*
X289148Y243818D01*
X288524Y243942D01*
X287900Y243818D01*
X287370Y243464D01*
X287017Y242935D01*
X286893Y242311D01*
X287017Y241686D01*
X287370Y241157D01*
X287900Y240803D01*
X288524Y240679D01*
X289148Y240803D01*
X289678Y241157D01*
X289798Y241338D01*
X290400D01*
X290521Y241157D01*
X291050Y240803D01*
X291674Y240679D01*
X292298Y240803D01*
X292828Y241157D01*
X293181Y241686D01*
X293305Y242311D01*
X293181Y242935D01*
X292828Y243464D01*
X292298Y243818D01*
X291674Y243942D01*
D02*
G37*
G36*
X247580Y243967D02*
X246956Y243843D01*
X246427Y243489D01*
X246073Y242960D01*
X245949Y242336D01*
X246073Y241711D01*
X246427Y241182D01*
X246956Y240828D01*
X247580Y240704D01*
X248204Y240828D01*
X248733Y241182D01*
X249087Y241711D01*
X249211Y242336D01*
X249087Y242960D01*
X248733Y243489D01*
X248204Y243843D01*
X247580Y243967D01*
D02*
G37*
G36*
X238131D02*
X237507Y243843D01*
X236978Y243489D01*
X236624Y242960D01*
X236500Y242336D01*
X236624Y241711D01*
X236978Y241182D01*
X237507Y240828D01*
X238131Y240704D01*
X238755Y240828D01*
X239284Y241182D01*
X239638Y241711D01*
X239762Y242336D01*
X239638Y242960D01*
X239284Y243489D01*
X238755Y243843D01*
X238131Y243967D01*
D02*
G37*
G36*
X48484D02*
X47860Y243843D01*
X47330Y243489D01*
X46977Y242960D01*
X46853Y242336D01*
X46977Y241711D01*
X47330Y241182D01*
X47860Y240828D01*
X48484Y240704D01*
X49108Y240828D01*
X49637Y241182D01*
X49991Y241711D01*
X50115Y242336D01*
X49991Y242960D01*
X49637Y243489D01*
X49108Y243843D01*
X48484Y243967D01*
D02*
G37*
G36*
X39036D02*
X38412Y243843D01*
X37883Y243489D01*
X37529Y242960D01*
X37405Y242336D01*
X37529Y241711D01*
X37883Y241182D01*
X38412Y240828D01*
X39036Y240704D01*
X39660Y240828D01*
X40189Y241182D01*
X40543Y241711D01*
X40667Y242336D01*
X40543Y242960D01*
X40189Y243489D01*
X39660Y243843D01*
X39036Y243967D01*
D02*
G37*
G36*
X29587D02*
X28963Y243843D01*
X28433Y243489D01*
X28080Y242960D01*
X27956Y242336D01*
X28080Y241711D01*
X28433Y241182D01*
X28963Y240828D01*
X29587Y240704D01*
X30211Y240828D01*
X30740Y241182D01*
X31094Y241711D01*
X31218Y242336D01*
X31094Y242960D01*
X30740Y243489D01*
X30211Y243843D01*
X29587Y243967D01*
D02*
G37*
G36*
X314960Y258331D02*
X312951Y258133D01*
X311019Y257547D01*
X309833Y256913D01*
X309238Y256595D01*
X307678Y255314D01*
X306397Y253754D01*
X305445Y251973D01*
X304859Y250041D01*
X304661Y248031D01*
X304859Y246022D01*
X305445Y244090D01*
X306397Y242309D01*
X307678Y240749D01*
X309238Y239468D01*
X309833Y239150D01*
X311019Y238516D01*
X312951Y237930D01*
X314960Y237732D01*
X316970Y237930D01*
X318902Y238516D01*
X320683Y239468D01*
X322243Y240749D01*
X323524Y242309D01*
X324476Y244090D01*
X325062Y246022D01*
X325260Y248031D01*
X325062Y250041D01*
X324476Y251973D01*
X323524Y253754D01*
X322243Y255314D01*
X320683Y256595D01*
X318902Y257547D01*
X316970Y258133D01*
X314960Y258331D01*
D02*
G37*
G36*
X-0D02*
X-2010Y258133D01*
X-3942Y257547D01*
X-5128Y256913D01*
X-5722Y256595D01*
X-7283Y255314D01*
X-8564Y253754D01*
X-9516Y251973D01*
X-10102Y250041D01*
X-10300Y248031D01*
X-10102Y246022D01*
X-9516Y244090D01*
X-8564Y242309D01*
X-7283Y240749D01*
X-5722Y239468D01*
X-5128Y239150D01*
X-3942Y238516D01*
X-2010Y237930D01*
X-0Y237732D01*
X2009Y237930D01*
X3941Y238516D01*
X5722Y239468D01*
X7283Y240749D01*
X8564Y242309D01*
X9515Y244090D01*
X10102Y246022D01*
X10299Y248031D01*
X10102Y250041D01*
X9515Y251973D01*
X8564Y253754D01*
X7283Y255314D01*
X5722Y256595D01*
X3941Y257547D01*
X2009Y258133D01*
X-0Y258331D01*
D02*
G37*
G36*
X301378Y237936D02*
X300593Y237832D01*
X299861Y237529D01*
X299233Y237047D01*
X298751Y236419D01*
X298448Y235687D01*
X298344Y234902D01*
X298448Y234117D01*
X298751Y233385D01*
X299233Y232757D01*
X299861Y232275D01*
X300593Y231971D01*
X301378Y231868D01*
X302164Y231971D01*
X302895Y232275D01*
X303523Y232757D01*
X304006Y233385D01*
X304309Y234117D01*
X304412Y234902D01*
X304309Y235687D01*
X304006Y236419D01*
X303523Y237047D01*
X302895Y237529D01*
X302164Y237832D01*
X301378Y237936D01*
D02*
G37*
G36*
X222126D02*
X221341Y237832D01*
X220609Y237529D01*
X219981Y237047D01*
X219499Y236419D01*
X219196Y235687D01*
X219092Y234902D01*
X219196Y234117D01*
X219499Y233385D01*
X219981Y232757D01*
X220609Y232275D01*
X221341Y231971D01*
X222126Y231868D01*
X222912Y231971D01*
X223643Y232275D01*
X224272Y232757D01*
X224754Y233385D01*
X225057Y234117D01*
X225160Y234902D01*
X225057Y235687D01*
X224754Y236419D01*
X224272Y237047D01*
X223643Y237529D01*
X222912Y237832D01*
X222126Y237936D01*
D02*
G37*
G36*
X92834D02*
X92049Y237832D01*
X91317Y237529D01*
X90689Y237047D01*
X90207Y236419D01*
X89904Y235687D01*
X89801Y234902D01*
X89904Y234117D01*
X90207Y233385D01*
X90689Y232757D01*
X91317Y232275D01*
X92049Y231971D01*
X92834Y231868D01*
X93620Y231971D01*
X94351Y232275D01*
X94980Y232757D01*
X95462Y233385D01*
X95765Y234117D01*
X95868Y234902D01*
X95765Y235687D01*
X95462Y236419D01*
X94980Y237047D01*
X94351Y237529D01*
X93620Y237832D01*
X92834Y237936D01*
D02*
G37*
G36*
X13582D02*
X12797Y237832D01*
X12065Y237529D01*
X11437Y237047D01*
X10955Y236419D01*
X10652Y235687D01*
X10548Y234902D01*
X10652Y234117D01*
X10955Y233385D01*
X11437Y232757D01*
X12065Y232275D01*
X12797Y231971D01*
X13582Y231868D01*
X14367Y231971D01*
X15099Y232275D01*
X15728Y232757D01*
X16210Y233385D01*
X16513Y234117D01*
X16616Y234902D01*
X16513Y235687D01*
X16210Y236419D01*
X15728Y237047D01*
X15099Y237529D01*
X14367Y237832D01*
X13582Y237936D01*
D02*
G37*
G36*
X153499Y231942D02*
X152875Y231818D01*
X152346Y231464D01*
X151992Y230935D01*
X151868Y230311D01*
X151992Y229686D01*
X152346Y229157D01*
X152875Y228803D01*
X153499Y228679D01*
X154123Y228803D01*
X154653Y229157D01*
X155006Y229686D01*
X155130Y230311D01*
X155006Y230935D01*
X154653Y231464D01*
X154123Y231818D01*
X153499Y231942D01*
D02*
G37*
G36*
X149499D02*
X148875Y231818D01*
X148345Y231464D01*
X147992Y230935D01*
X147868Y230311D01*
X147992Y229686D01*
X148345Y229157D01*
X148875Y228803D01*
X149499Y228679D01*
X150123Y228803D01*
X150653Y229157D01*
X151006Y229686D01*
X151130Y230311D01*
X151006Y230935D01*
X150653Y231464D01*
X150123Y231818D01*
X149499Y231942D01*
D02*
G37*
G36*
X152999Y227442D02*
X152375Y227318D01*
X151846Y226964D01*
X151492Y226435D01*
X151368Y225811D01*
X151492Y225186D01*
X151846Y224657D01*
X152375Y224303D01*
X152999Y224179D01*
X153623Y224303D01*
X154153Y224657D01*
X154506Y225186D01*
X154630Y225811D01*
X154506Y226435D01*
X154153Y226964D01*
X153623Y227318D01*
X152999Y227442D01*
D02*
G37*
G36*
X300544Y225942D02*
X299920Y225818D01*
X299391Y225464D01*
X299037Y224935D01*
X298913Y224310D01*
X299037Y223686D01*
X299391Y223157D01*
X299920Y222803D01*
X300544Y222679D01*
X301168Y222803D01*
X301697Y223157D01*
X302051Y223686D01*
X302175Y224310D01*
X302051Y224935D01*
X301697Y225464D01*
X301168Y225818D01*
X300544Y225942D01*
D02*
G37*
G36*
X286044D02*
X285420Y225818D01*
X284891Y225464D01*
X284537Y224935D01*
X284413Y224310D01*
X284537Y223686D01*
X284891Y223157D01*
X285420Y222803D01*
X286044Y222679D01*
X286668Y222803D01*
X287197Y223157D01*
X287551Y223686D01*
X287675Y224310D01*
X287551Y224935D01*
X287197Y225464D01*
X286668Y225818D01*
X286044Y225942D01*
D02*
G37*
G36*
X237544D02*
X236920Y225818D01*
X236390Y225464D01*
X236037Y224935D01*
X235913Y224310D01*
X236037Y223686D01*
X236390Y223157D01*
X236920Y222803D01*
X237544Y222679D01*
X238168Y222803D01*
X238698Y223157D01*
X239051Y223686D01*
X239175Y224310D01*
X239051Y224935D01*
X238698Y225464D01*
X238168Y225818D01*
X237544Y225942D01*
D02*
G37*
G36*
X223044D02*
X222420Y225818D01*
X221890Y225464D01*
X221537Y224935D01*
X221413Y224310D01*
X221537Y223686D01*
X221890Y223157D01*
X222420Y222803D01*
X223044Y222679D01*
X223668Y222803D01*
X224198Y223157D01*
X224551Y223686D01*
X224675Y224310D01*
X224551Y224935D01*
X224198Y225464D01*
X223668Y225818D01*
X223044Y225942D01*
D02*
G37*
G36*
X92000D02*
X91376Y225818D01*
X90847Y225464D01*
X90493Y224935D01*
X90369Y224310D01*
X90493Y223686D01*
X90847Y223157D01*
X91376Y222803D01*
X92000Y222679D01*
X92624Y222803D01*
X93154Y223157D01*
X93507Y223686D01*
X93631Y224310D01*
X93507Y224935D01*
X93154Y225464D01*
X92624Y225818D01*
X92000Y225942D01*
D02*
G37*
G36*
X77500D02*
X76876Y225818D01*
X76346Y225464D01*
X75993Y224935D01*
X75869Y224310D01*
X75993Y223686D01*
X76346Y223157D01*
X76876Y222803D01*
X77500Y222679D01*
X78124Y222803D01*
X78654Y223157D01*
X79007Y223686D01*
X79131Y224310D01*
X79007Y224935D01*
X78654Y225464D01*
X78124Y225818D01*
X77500Y225942D01*
D02*
G37*
G36*
X28900D02*
X28276Y225818D01*
X27746Y225464D01*
X27393Y224935D01*
X27269Y224310D01*
X27393Y223686D01*
X27746Y223157D01*
X28276Y222803D01*
X28900Y222679D01*
X29524Y222803D01*
X30053Y223157D01*
X30407Y223686D01*
X30531Y224310D01*
X30407Y224935D01*
X30053Y225464D01*
X29524Y225818D01*
X28900Y225942D01*
D02*
G37*
G36*
X14500D02*
X13876Y225818D01*
X13347Y225464D01*
X12993Y224935D01*
X12869Y224310D01*
X12993Y223686D01*
X13347Y223157D01*
X13876Y222803D01*
X14500Y222679D01*
X15124Y222803D01*
X15653Y223157D01*
X16007Y223686D01*
X16131Y224310D01*
X16007Y224935D01*
X15653Y225464D01*
X15124Y225818D01*
X14500Y225942D01*
D02*
G37*
G36*
X148500Y223942D02*
X147876Y223818D01*
X147346Y223464D01*
X146993Y222935D01*
X146869Y222310D01*
X146993Y221686D01*
X147346Y221157D01*
X147876Y220803D01*
X148500Y220679D01*
X149124Y220803D01*
X149653Y221157D01*
X150007Y221686D01*
X150131Y222310D01*
X150007Y222935D01*
X149653Y223464D01*
X149124Y223818D01*
X148500Y223942D01*
D02*
G37*
G36*
Y218442D02*
X147876Y218318D01*
X147346Y217964D01*
X146993Y217435D01*
X146869Y216810D01*
X146993Y216186D01*
X147346Y215657D01*
X147876Y215303D01*
X148500Y215179D01*
X149124Y215303D01*
X149653Y215657D01*
X150007Y216186D01*
X150131Y216810D01*
X150007Y217435D01*
X149653Y217964D01*
X149124Y218318D01*
X148500Y218442D01*
D02*
G37*
G36*
X142499D02*
X141875Y218318D01*
X141346Y217964D01*
X140992Y217435D01*
X140868Y216810D01*
X140992Y216186D01*
X141346Y215657D01*
X141875Y215303D01*
X142499Y215179D01*
X143123Y215303D01*
X143652Y215657D01*
X144006Y216186D01*
X144130Y216810D01*
X144006Y217435D01*
X143652Y217964D01*
X143123Y218318D01*
X142499Y218442D01*
D02*
G37*
G36*
X202697Y235293D02*
X200995Y235159D01*
X199334Y234761D01*
X197756Y234107D01*
X196300Y233215D01*
X195001Y232106D01*
X193892Y230807D01*
X193000Y229351D01*
X192346Y227773D01*
X191948Y226112D01*
X191814Y224410D01*
X191948Y222707D01*
X192346Y221046D01*
X193000Y219469D01*
X193892Y218013D01*
X195001Y216714D01*
X196300Y215605D01*
X197756Y214712D01*
X199334Y214059D01*
X200995Y213660D01*
X202697Y213526D01*
X204400Y213660D01*
X206060Y214059D01*
X207638Y214712D01*
X209094Y215605D01*
X210393Y216714D01*
X211502Y218013D01*
X212394Y219469D01*
X213048Y221046D01*
X213447Y222707D01*
X213581Y224410D01*
X213447Y226112D01*
X213048Y227773D01*
X212394Y229351D01*
X211502Y230807D01*
X210393Y232106D01*
X209094Y233215D01*
X207638Y234107D01*
X206060Y234761D01*
X204400Y235159D01*
X202697Y235293D01*
D02*
G37*
G36*
X123000Y215942D02*
X122376Y215818D01*
X121846Y215464D01*
X121493Y214935D01*
X121369Y214311D01*
X121493Y213686D01*
X121846Y213157D01*
X122376Y212803D01*
X123000Y212679D01*
X123624Y212803D01*
X124153Y213157D01*
X124507Y213686D01*
X124631Y214311D01*
X124507Y214935D01*
X124153Y215464D01*
X123624Y215818D01*
X123000Y215942D01*
D02*
G37*
G36*
X112263Y235293D02*
X110561Y235159D01*
X108900Y234761D01*
X107322Y234107D01*
X105866Y233215D01*
X104568Y232106D01*
X103458Y230807D01*
X102566Y229351D01*
X101913Y227773D01*
X101514Y226112D01*
X101380Y224410D01*
X101514Y222707D01*
X101913Y221046D01*
X102566Y219469D01*
X103458Y218013D01*
X104568Y216714D01*
X105866Y215605D01*
X107322Y214712D01*
X108900Y214059D01*
X110561Y213660D01*
X112263Y213526D01*
X113966Y213660D01*
X115627Y214059D01*
X116915Y214593D01*
X117269Y214373D01*
X117382Y214245D01*
X117493Y213686D01*
X117847Y213157D01*
X118376Y212803D01*
X119000Y212679D01*
X119624Y212803D01*
X120153Y213157D01*
X120507Y213686D01*
X120631Y214311D01*
X120507Y214935D01*
X120153Y215464D01*
X119655Y215797D01*
X119602Y215859D01*
X119503Y216324D01*
X119959Y216714D01*
X121068Y218013D01*
X121961Y219469D01*
X122614Y221046D01*
X123013Y222707D01*
X123147Y224410D01*
X123013Y226112D01*
X122614Y227773D01*
X121961Y229351D01*
X121068Y230807D01*
X119959Y232106D01*
X118661Y233215D01*
X117204Y234107D01*
X115627Y234761D01*
X113966Y235159D01*
X112263Y235293D01*
D02*
G37*
G36*
X165999Y213442D02*
X165375Y213318D01*
X164846Y212964D01*
X164510Y212463D01*
X164297Y212435D01*
X164201D01*
X163988Y212463D01*
X163653Y212964D01*
X163123Y213318D01*
X162499Y213442D01*
X161875Y213318D01*
X161346Y212964D01*
X160992Y212435D01*
X160868Y211810D01*
X160992Y211186D01*
X161346Y210657D01*
X161875Y210303D01*
X162499Y210179D01*
X163123Y210303D01*
X163653Y210657D01*
X163988Y211158D01*
X164201Y211186D01*
X164297D01*
X164510Y211158D01*
X164846Y210657D01*
X165375Y210303D01*
X165999Y210179D01*
X166623Y210303D01*
X167153Y210657D01*
X167506Y211186D01*
X167630Y211810D01*
X167506Y212435D01*
X167153Y212964D01*
X166623Y213318D01*
X165999Y213442D01*
D02*
G37*
G36*
X157499D02*
X156875Y213318D01*
X156345Y212964D01*
X155992Y212435D01*
X155868Y211810D01*
X155992Y211186D01*
X156345Y210657D01*
X156875Y210303D01*
X157499Y210179D01*
X158123Y210303D01*
X158652Y210657D01*
X159006Y211186D01*
X159130Y211810D01*
X159006Y212435D01*
X158652Y212964D01*
X158123Y213318D01*
X157499Y213442D01*
D02*
G37*
G36*
X165999Y209442D02*
X165375Y209318D01*
X164846Y208964D01*
X164510Y208463D01*
X164297Y208435D01*
X164201D01*
X163988Y208463D01*
X163653Y208964D01*
X163123Y209318D01*
X162499Y209442D01*
X161875Y209318D01*
X161346Y208964D01*
X160992Y208435D01*
X160868Y207810D01*
X160992Y207186D01*
X161346Y206657D01*
X161875Y206303D01*
X162499Y206179D01*
X163123Y206303D01*
X163653Y206657D01*
X163988Y207158D01*
X164201Y207186D01*
X164297D01*
X164510Y207158D01*
X164846Y206657D01*
X165375Y206303D01*
X165999Y206179D01*
X166623Y206303D01*
X167153Y206657D01*
X167506Y207186D01*
X167630Y207810D01*
X167506Y208435D01*
X167153Y208964D01*
X166623Y209318D01*
X165999Y209442D01*
D02*
G37*
G36*
X268500Y245020D02*
X254900D01*
X254510Y244942D01*
X254179Y244722D01*
X253579Y244122D01*
X253358Y243791D01*
X253280Y243401D01*
Y232860D01*
X253358Y232470D01*
X253579Y232139D01*
X257980Y227738D01*
Y213923D01*
X257478Y213420D01*
X236900D01*
X236510Y213342D01*
X236179Y213122D01*
X232779Y209721D01*
X232558Y209391D01*
X232480Y209000D01*
Y207954D01*
X232094Y207636D01*
X231981Y207659D01*
X231357Y207535D01*
X230827Y207181D01*
X230738Y207047D01*
X230238D01*
X230177Y207137D01*
X229648Y207491D01*
X229024Y207615D01*
X228400Y207491D01*
X227870Y207137D01*
X227517Y206608D01*
X227393Y205983D01*
X227517Y205359D01*
X227870Y204830D01*
X228400Y204476D01*
X229024Y204352D01*
X229648Y204476D01*
X230177Y204830D01*
X230267Y204964D01*
X230767D01*
X230827Y204874D01*
X231357Y204520D01*
X231981Y204396D01*
X232184Y204002D01*
X232024Y203615D01*
X231400Y203491D01*
X230871Y203137D01*
X230774Y202993D01*
X230274D01*
X230177Y203137D01*
X229648Y203491D01*
X229024Y203615D01*
X228400Y203491D01*
X227870Y203137D01*
X227517Y202608D01*
X227393Y201983D01*
X227517Y201359D01*
X227870Y200830D01*
X228400Y200476D01*
X229024Y200352D01*
X229648Y200476D01*
X230177Y200830D01*
X230274Y200974D01*
X230774D01*
X230871Y200830D01*
X230996Y200746D01*
X231060Y200102D01*
X228978Y198020D01*
X220122D01*
X213215Y204927D01*
X212885Y205148D01*
X212494Y205226D01*
X207432D01*
X207390Y205254D01*
X207000Y205331D01*
X188811D01*
X188421Y205254D01*
X188090Y205032D01*
X179078Y196020D01*
X158689D01*
X158299Y195942D01*
X157968Y195721D01*
X145779Y183532D01*
X145558Y183202D01*
X145480Y182811D01*
Y181734D01*
X143779Y180032D01*
X143558Y179702D01*
X143480Y179312D01*
Y160423D01*
X142379Y159321D01*
X142158Y158991D01*
X142080Y158600D01*
Y155826D01*
X142091Y155771D01*
X142086Y155715D01*
X142130Y155578D01*
X142158Y155436D01*
X142189Y155389D01*
X142206Y155336D01*
X142299Y155225D01*
X142379Y155105D01*
X142426Y155074D01*
X142462Y155031D01*
X142687Y154850D01*
X142749Y154818D01*
X142801Y154771D01*
X142924Y154727D01*
X143040Y154666D01*
X143192Y154609D01*
X143338Y154362D01*
X143377Y154270D01*
X143396Y154172D01*
X143452Y154088D01*
X143491Y153994D01*
X143562Y153924D01*
X143617Y153841D01*
X144579Y152879D01*
X144910Y152658D01*
X145300Y152580D01*
X203788D01*
X204179Y152658D01*
X204509Y152879D01*
X225422Y173792D01*
X231070D01*
X231387Y173405D01*
X231369Y173310D01*
X231493Y172686D01*
X231846Y172157D01*
X232376Y171803D01*
X233000Y171679D01*
X233624Y171803D01*
X234154Y172157D01*
X234507Y172686D01*
X234631Y173310D01*
X234612Y173405D01*
X234930Y173792D01*
X288578D01*
X290522Y171848D01*
X290275Y171387D01*
X290000Y171442D01*
X289376Y171318D01*
X288846Y170964D01*
X288493Y170435D01*
X288369Y169810D01*
X288493Y169186D01*
X288846Y168657D01*
X289376Y168303D01*
X290000Y168179D01*
X290624Y168303D01*
X291154Y168657D01*
X291221Y168758D01*
X291900Y168889D01*
X291980Y168834D01*
Y143312D01*
X292058Y142921D01*
X292279Y142590D01*
X303779Y131090D01*
X304110Y130869D01*
X304500Y130792D01*
X307908D01*
X307965Y130803D01*
X308023Y130798D01*
X308158Y130842D01*
X308298Y130869D01*
X308607Y130830D01*
X308864Y130718D01*
X308874Y130709D01*
X309695Y129640D01*
X310770Y128815D01*
X312022Y128296D01*
X313366Y128119D01*
X314710Y128296D01*
X315962Y128815D01*
X317037Y129640D01*
X317862Y130715D01*
X318381Y131967D01*
X318558Y133311D01*
X318381Y134655D01*
X317862Y135907D01*
X317037Y136982D01*
X315962Y137807D01*
X315748Y137896D01*
X315587Y138082D01*
X315442Y138342D01*
X315474Y138505D01*
X315517Y138666D01*
X315513Y138699D01*
X315520Y138733D01*
Y183889D01*
X315513Y183923D01*
X315517Y183956D01*
X315474Y184117D01*
X315442Y184280D01*
X315587Y184540D01*
X315748Y184727D01*
X315962Y184815D01*
X317037Y185640D01*
X317862Y186715D01*
X318381Y187967D01*
X318558Y189311D01*
X318381Y190655D01*
X317862Y191907D01*
X317037Y192982D01*
X315962Y193807D01*
X314710Y194326D01*
X313366Y194503D01*
X312022Y194326D01*
X310770Y193807D01*
X309695Y192982D01*
X308870Y191907D01*
X308800Y191739D01*
X308481Y191403D01*
X307961Y191527D01*
X307841Y191532D01*
X307724Y191555D01*
X307644Y191539D01*
X307563Y191542D01*
X307451Y191501D01*
X307334Y191478D01*
X307266Y191432D01*
X307190Y191404D01*
X307102Y191323D01*
X307003Y191256D01*
X297578Y181831D01*
X260326D01*
X260036Y182331D01*
X260131Y182810D01*
X260007Y183435D01*
X259653Y183964D01*
X259124Y184318D01*
X258500Y184442D01*
X257876Y184318D01*
X257520Y184080D01*
X257020Y184306D01*
Y192578D01*
X258422Y193981D01*
X272000D01*
X272390Y194059D01*
X272721Y194280D01*
X276521Y198080D01*
X276742Y198410D01*
X276820Y198801D01*
Y205157D01*
X277079Y205330D01*
X277432Y205859D01*
X277556Y206484D01*
X277432Y207108D01*
X277079Y207637D01*
X276820Y207810D01*
Y228201D01*
X276742Y228591D01*
X276521Y228922D01*
X270420Y235023D01*
Y243101D01*
X270342Y243491D01*
X270121Y243822D01*
X269221Y244722D01*
X268890Y244942D01*
X268500Y245020D01*
D02*
G37*
G36*
X291674Y208115D02*
X291050Y207991D01*
X290521Y207637D01*
X290400Y207456D01*
X289798D01*
X289678Y207637D01*
X289148Y207991D01*
X288524Y208115D01*
X287900Y207991D01*
X287370Y207637D01*
X287017Y207108D01*
X286893Y206484D01*
X287017Y205859D01*
X287370Y205330D01*
X287900Y204976D01*
X288524Y204852D01*
X289148Y204976D01*
X289678Y205330D01*
X289798Y205511D01*
X290400D01*
X290521Y205330D01*
X291050Y204976D01*
X291674Y204852D01*
X292298Y204976D01*
X292828Y205330D01*
X293181Y205859D01*
X293305Y206484D01*
X293181Y207108D01*
X292828Y207637D01*
X292298Y207991D01*
X291674Y208115D01*
D02*
G37*
G36*
X91500Y210132D02*
X90876Y210008D01*
X90346Y209654D01*
X89993Y209125D01*
X89869Y208501D01*
X89993Y207876D01*
X90346Y207347D01*
X90876Y206993D01*
X91500Y206869D01*
X92124Y206993D01*
X92654Y207347D01*
X93007Y207876D01*
X93131Y208501D01*
X93007Y209125D01*
X92654Y209654D01*
X92124Y210008D01*
X91500Y210132D01*
D02*
G37*
G36*
X86500D02*
X85876Y210008D01*
X85347Y209654D01*
X84993Y209125D01*
X84869Y208501D01*
X84993Y207876D01*
X85347Y207347D01*
X85876Y206993D01*
X86500Y206869D01*
X87124Y206993D01*
X87653Y207347D01*
X88007Y207876D01*
X88131Y208501D01*
X88007Y209125D01*
X87653Y209654D01*
X87124Y210008D01*
X86500Y210132D01*
D02*
G37*
G36*
X157499Y209442D02*
X156875Y209318D01*
X156345Y208964D01*
X155992Y208435D01*
X155868Y207810D01*
X155992Y207186D01*
X156345Y206657D01*
X156875Y206303D01*
X157499Y206179D01*
X158123Y206303D01*
X158652Y206657D01*
X159006Y207186D01*
X159130Y207810D01*
X159006Y208435D01*
X158652Y208964D01*
X158123Y209318D01*
X157499Y209442D01*
D02*
G37*
G36*
X103500Y209282D02*
X102876Y209158D01*
X102347Y208804D01*
X101993Y208275D01*
X101869Y207650D01*
X101993Y207026D01*
X102347Y206497D01*
X102876Y206143D01*
X103500Y206019D01*
X104124Y206143D01*
X104654Y206497D01*
X105007Y207026D01*
X105131Y207650D01*
X105007Y208275D01*
X104654Y208804D01*
X104124Y209158D01*
X103500Y209282D01*
D02*
G37*
G36*
X73680Y208632D02*
X73056Y208508D01*
X72527Y208154D01*
X72173Y207625D01*
X72049Y207000D01*
X72173Y206376D01*
X72527Y205847D01*
X73056Y205493D01*
X73680Y205369D01*
X74304Y205493D01*
X74834Y205847D01*
X75187Y206376D01*
X75311Y207000D01*
X75187Y207625D01*
X74834Y208154D01*
X74304Y208508D01*
X73680Y208632D01*
D02*
G37*
G36*
X113000Y207942D02*
X112376Y207818D01*
X111846Y207464D01*
X111493Y206935D01*
X111369Y206311D01*
X111493Y205686D01*
X111846Y205157D01*
X112376Y204803D01*
X113000Y204679D01*
X113624Y204803D01*
X114154Y205157D01*
X114507Y205686D01*
X114631Y206311D01*
X114507Y206935D01*
X114154Y207464D01*
X113624Y207818D01*
X113000Y207942D01*
D02*
G37*
G36*
X81000Y206632D02*
X80376Y206508D01*
X79847Y206154D01*
X79493Y205625D01*
X79369Y205000D01*
X79493Y204376D01*
X79847Y203847D01*
X80376Y203493D01*
X81000Y203369D01*
X81624Y203493D01*
X82153Y203847D01*
X82507Y204376D01*
X82631Y205000D01*
X82507Y205625D01*
X82153Y206154D01*
X81624Y206508D01*
X81000Y206632D01*
D02*
G37*
G36*
X135500Y206442D02*
X134876Y206318D01*
X134346Y205964D01*
X133993Y205435D01*
X133869Y204811D01*
X133993Y204186D01*
X134346Y203657D01*
X134876Y203303D01*
X135500Y203179D01*
X136124Y203303D01*
X136653Y203657D01*
X137007Y204186D01*
X137131Y204811D01*
X137007Y205435D01*
X136653Y205964D01*
X136124Y206318D01*
X135500Y206442D01*
D02*
G37*
G36*
X91500Y204632D02*
X90876Y204508D01*
X90346Y204154D01*
X89993Y203625D01*
X89869Y203000D01*
X89993Y202376D01*
X90346Y201847D01*
X90876Y201493D01*
X91500Y201369D01*
X92124Y201493D01*
X92654Y201847D01*
X93007Y202376D01*
X93131Y203000D01*
X93007Y203625D01*
X92654Y204154D01*
X92124Y204508D01*
X91500Y204632D01*
D02*
G37*
G36*
X113000Y203942D02*
X112376Y203818D01*
X111846Y203464D01*
X111493Y202935D01*
X111369Y202310D01*
X111493Y201686D01*
X111846Y201157D01*
X112376Y200803D01*
X113000Y200679D01*
X113624Y200803D01*
X114154Y201157D01*
X114507Y201686D01*
X114631Y202310D01*
X114507Y202935D01*
X114154Y203464D01*
X113624Y203818D01*
X113000Y203942D01*
D02*
G37*
G36*
X118810Y201632D02*
X118186Y201508D01*
X117657Y201154D01*
X117303Y200625D01*
X117179Y200001D01*
X117303Y199376D01*
X117657Y198847D01*
X118186Y198493D01*
X118810Y198369D01*
X119434Y198493D01*
X119964Y198847D01*
X120317Y199376D01*
X120441Y200001D01*
X120317Y200625D01*
X119964Y201154D01*
X119434Y201508D01*
X118810Y201632D01*
D02*
G37*
G36*
X103500Y201604D02*
X102876Y201480D01*
X102347Y201126D01*
X101993Y200597D01*
X101869Y199972D01*
X101993Y199348D01*
X102347Y198819D01*
X102876Y198465D01*
X103500Y198341D01*
X104124Y198465D01*
X104654Y198819D01*
X105007Y199348D01*
X105131Y199972D01*
X105007Y200597D01*
X104654Y201126D01*
X104124Y201480D01*
X103500Y201604D01*
D02*
G37*
G36*
X115200Y200632D02*
X114576Y200508D01*
X114047Y200154D01*
X113693Y199625D01*
X113569Y199001D01*
X113693Y198376D01*
X114047Y197847D01*
X114576Y197493D01*
X115200Y197369D01*
X115824Y197493D01*
X116353Y197847D01*
X116707Y198376D01*
X116831Y199001D01*
X116707Y199625D01*
X116353Y200154D01*
X115824Y200508D01*
X115200Y200632D01*
D02*
G37*
G36*
X285000Y200132D02*
X284376Y200008D01*
X283846Y199654D01*
X283493Y199125D01*
X283369Y198501D01*
X283493Y197876D01*
X283846Y197347D01*
X284376Y196993D01*
X285000Y196869D01*
X285624Y196993D01*
X286154Y197347D01*
X286507Y197876D01*
X286631Y198501D01*
X286507Y199125D01*
X286154Y199654D01*
X285624Y200008D01*
X285000Y200132D01*
D02*
G37*
G36*
X280000D02*
X279376Y200008D01*
X278847Y199654D01*
X278493Y199125D01*
X278369Y198501D01*
X278493Y197876D01*
X278847Y197347D01*
X279376Y196993D01*
X280000Y196869D01*
X280624Y196993D01*
X281153Y197347D01*
X281507Y197876D01*
X281631Y198501D01*
X281507Y199125D01*
X281153Y199654D01*
X280624Y200008D01*
X280000Y200132D01*
D02*
G37*
G36*
X303366Y204503D02*
X302022Y204326D01*
X300770Y203807D01*
X299695Y202982D01*
X298870Y201907D01*
X298351Y200655D01*
X298174Y199311D01*
X298351Y197967D01*
X298870Y196715D01*
X299695Y195640D01*
X300770Y194815D01*
X302022Y194296D01*
X303366Y194119D01*
X304710Y194296D01*
X305962Y194815D01*
X307037Y195640D01*
X307862Y196715D01*
X308381Y197967D01*
X308558Y199311D01*
X308381Y200655D01*
X307862Y201907D01*
X307037Y202982D01*
X305962Y203807D01*
X304710Y204326D01*
X303366Y204503D01*
D02*
G37*
G36*
X279642Y188115D02*
X279018Y187991D01*
X278488Y187637D01*
X278135Y187108D01*
X278011Y186484D01*
X278135Y185859D01*
X278488Y185330D01*
X279018Y184976D01*
X279642Y184852D01*
X280266Y184976D01*
X280796Y185330D01*
X281149Y185859D01*
X281273Y186484D01*
X281149Y187108D01*
X280796Y187637D01*
X280266Y187991D01*
X279642Y188115D01*
D02*
G37*
G36*
X274418D02*
X273794Y187991D01*
X273265Y187637D01*
X272911Y187108D01*
X272787Y186484D01*
X272911Y185859D01*
X273265Y185330D01*
X273794Y184976D01*
X274418Y184852D01*
X275042Y184976D01*
X275571Y185330D01*
X275925Y185859D01*
X276049Y186484D01*
X275925Y187108D01*
X275571Y187637D01*
X275042Y187991D01*
X274418Y188115D01*
D02*
G37*
G36*
X261480D02*
X260856Y187991D01*
X260327Y187637D01*
X259973Y187108D01*
X259849Y186484D01*
X259973Y185859D01*
X260327Y185330D01*
X260856Y184976D01*
X261480Y184852D01*
X262104Y184976D01*
X262633Y185330D01*
X262987Y185859D01*
X263111Y186484D01*
X262987Y187108D01*
X262633Y187637D01*
X262104Y187991D01*
X261480Y188115D01*
D02*
G37*
G36*
X140945Y176042D02*
X140321Y175918D01*
X139792Y175564D01*
X139438Y175035D01*
X139314Y174410D01*
X139438Y173786D01*
X139792Y173257D01*
X140321Y172903D01*
X140945Y172779D01*
X141569Y172903D01*
X142098Y173257D01*
X142452Y173786D01*
X142576Y174410D01*
X142452Y175035D01*
X142098Y175564D01*
X141569Y175918D01*
X140945Y176042D01*
D02*
G37*
G36*
X255297Y171442D02*
X254673Y171318D01*
X254144Y170964D01*
X253790Y170435D01*
X253666Y169810D01*
X253790Y169186D01*
X254144Y168657D01*
X254673Y168303D01*
X255297Y168179D01*
X255921Y168303D01*
X256451Y168657D01*
X256804Y169186D01*
X256928Y169810D01*
X256804Y170435D01*
X256451Y170964D01*
X255921Y171318D01*
X255297Y171442D01*
D02*
G37*
G36*
X247500D02*
X246876Y171318D01*
X246346Y170964D01*
X245993Y170435D01*
X245869Y169810D01*
X245993Y169186D01*
X246346Y168657D01*
X246876Y168303D01*
X247500Y168179D01*
X248124Y168303D01*
X248654Y168657D01*
X249007Y169186D01*
X249131Y169810D01*
X249007Y170435D01*
X248654Y170964D01*
X248124Y171318D01*
X247500Y171442D01*
D02*
G37*
G36*
X243000D02*
X242376Y171318D01*
X241846Y170964D01*
X241493Y170435D01*
X241369Y169810D01*
X241493Y169186D01*
X241846Y168657D01*
X242376Y168303D01*
X243000Y168179D01*
X243624Y168303D01*
X244153Y168657D01*
X244507Y169186D01*
X244631Y169810D01*
X244507Y170435D01*
X244153Y170964D01*
X243624Y171318D01*
X243000Y171442D01*
D02*
G37*
G36*
X133400Y171131D02*
X132776Y171007D01*
X132246Y170653D01*
X131893Y170124D01*
X131769Y169500D01*
X131893Y168876D01*
X132246Y168347D01*
X132776Y167993D01*
X133400Y167869D01*
X134024Y167993D01*
X134554Y168347D01*
X134907Y168876D01*
X135031Y169500D01*
X134907Y170124D01*
X134554Y170653D01*
X134024Y171007D01*
X133400Y171131D01*
D02*
G37*
G36*
X273014Y170942D02*
X272390Y170818D01*
X271861Y170464D01*
X271507Y169935D01*
X271383Y169310D01*
X271507Y168686D01*
X271861Y168157D01*
X272390Y167803D01*
X273014Y167679D01*
X273638Y167803D01*
X274167Y168157D01*
X274521Y168686D01*
X274645Y169310D01*
X274521Y169935D01*
X274167Y170464D01*
X273638Y170818D01*
X273014Y170942D01*
D02*
G37*
G36*
X232634Y170809D02*
X232010Y170685D01*
X231481Y170331D01*
X231127Y169802D01*
X231003Y169177D01*
X231127Y168553D01*
X231481Y168024D01*
X232010Y167670D01*
X232634Y167546D01*
X233258Y167670D01*
X233787Y168024D01*
X234141Y168553D01*
X234265Y169177D01*
X234141Y169802D01*
X233787Y170331D01*
X233258Y170685D01*
X232634Y170809D01*
D02*
G37*
G36*
X73000Y163942D02*
X72376Y163818D01*
X71846Y163464D01*
X71493Y162935D01*
X71369Y162311D01*
X71493Y161686D01*
X71846Y161157D01*
X72376Y160803D01*
X73000Y160679D01*
X73624Y160803D01*
X74154Y161157D01*
X74507Y161686D01*
X74631Y162311D01*
X74507Y162935D01*
X74154Y163464D01*
X73624Y163818D01*
X73000Y163942D01*
D02*
G37*
G36*
X240500Y163442D02*
X239876Y163318D01*
X239347Y162964D01*
X238993Y162435D01*
X238869Y161811D01*
X238993Y161186D01*
X239347Y160657D01*
X239876Y160303D01*
X240500Y160179D01*
X241124Y160303D01*
X241653Y160657D01*
X242007Y161186D01*
X242131Y161811D01*
X242007Y162435D01*
X241653Y162964D01*
X241124Y163318D01*
X240500Y163442D01*
D02*
G37*
G36*
X232980Y162115D02*
X232356Y161991D01*
X231826Y161637D01*
X231473Y161108D01*
X231349Y160484D01*
X231473Y159859D01*
X231826Y159330D01*
X232356Y158976D01*
X232980Y158852D01*
X233604Y158976D01*
X234134Y159330D01*
X234487Y159859D01*
X234611Y160484D01*
X234487Y161108D01*
X234134Y161637D01*
X233604Y161991D01*
X232980Y162115D01*
D02*
G37*
G36*
X238945Y158388D02*
X238321Y158264D01*
X237791Y157910D01*
X237438Y157381D01*
X237314Y156756D01*
X237438Y156132D01*
X237791Y155603D01*
X238321Y155249D01*
X238945Y155125D01*
X239569Y155249D01*
X240099Y155603D01*
X240452Y156132D01*
X240576Y156756D01*
X240452Y157381D01*
X240099Y157910D01*
X239569Y158264D01*
X238945Y158388D01*
D02*
G37*
G36*
X228500D02*
X227876Y158264D01*
X227346Y157910D01*
X226993Y157381D01*
X226869Y156756D01*
X226993Y156132D01*
X227346Y155603D01*
X227876Y155249D01*
X228500Y155125D01*
X229124Y155249D01*
X229654Y155603D01*
X230007Y156132D01*
X230131Y156756D01*
X230007Y157381D01*
X229654Y157910D01*
X229124Y158264D01*
X228500Y158388D01*
D02*
G37*
G36*
X139370Y157561D02*
X138746Y157437D01*
X138216Y157083D01*
X137863Y156554D01*
X137739Y155930D01*
X137863Y155306D01*
X138216Y154776D01*
X138746Y154423D01*
X139370Y154299D01*
X139994Y154423D01*
X140524Y154776D01*
X140877Y155306D01*
X141001Y155930D01*
X140877Y156554D01*
X140524Y157083D01*
X139994Y157437D01*
X139370Y157561D01*
D02*
G37*
G36*
X134000Y157531D02*
X133376Y157407D01*
X132846Y157053D01*
X132493Y156524D01*
X132369Y155900D01*
X132493Y155276D01*
X132846Y154746D01*
X133376Y154393D01*
X134000Y154269D01*
X134624Y154393D01*
X135153Y154746D01*
X135507Y155276D01*
X135631Y155900D01*
X135507Y156524D01*
X135153Y157053D01*
X134624Y157407D01*
X134000Y157531D01*
D02*
G37*
G36*
X78500Y182331D02*
X71500D01*
X71110Y182254D01*
X70779Y182032D01*
X69279Y180532D01*
X69058Y180202D01*
X68980Y179812D01*
Y174311D01*
X69058Y173921D01*
X69279Y173591D01*
X70279Y172590D01*
X70610Y172370D01*
X71000Y172292D01*
X75267D01*
X75980Y171578D01*
Y168812D01*
X76058Y168421D01*
X76279Y168090D01*
X87480Y156889D01*
Y155312D01*
X87558Y154921D01*
X87779Y154590D01*
X88279Y154090D01*
X88610Y153869D01*
X89000Y153792D01*
X92000D01*
X92390Y153869D01*
X92721Y154090D01*
X94221Y155590D01*
X94442Y155921D01*
X94520Y156312D01*
Y160555D01*
X94487Y160719D01*
X94465Y160884D01*
X94448Y160913D01*
X94442Y160945D01*
X94349Y161084D01*
X94266Y161228D01*
X94239Y161248D01*
X94221Y161276D01*
X94082Y161368D01*
X93950Y161470D01*
X93876Y161506D01*
X93716Y161548D01*
X93559Y161602D01*
X93437Y162016D01*
X93394Y162144D01*
X93367Y162276D01*
X93331Y162331D01*
X93310Y162393D01*
X93221Y162495D01*
X93147Y162607D01*
X86020Y169734D01*
Y174811D01*
X85942Y175202D01*
X85721Y175532D01*
X79221Y182032D01*
X78890Y182254D01*
X78500Y182331D01*
D02*
G37*
G36*
X219442Y151500D02*
X218818Y151376D01*
X218288Y151022D01*
X217935Y150493D01*
X217811Y149869D01*
X217935Y149244D01*
X218288Y148715D01*
X218818Y148361D01*
X219442Y148237D01*
X220066Y148361D01*
X220596Y148715D01*
X220949Y149244D01*
X221073Y149869D01*
X220949Y150493D01*
X220596Y151022D01*
X220066Y151376D01*
X219442Y151500D01*
D02*
G37*
G36*
X254500Y147442D02*
X253876Y147318D01*
X253346Y146964D01*
X252993Y146435D01*
X252869Y145810D01*
X252993Y145186D01*
X253346Y144657D01*
X253876Y144303D01*
X254500Y144179D01*
X255124Y144303D01*
X255654Y144657D01*
X256007Y145186D01*
X256131Y145810D01*
X256007Y146435D01*
X255654Y146964D01*
X255124Y147318D01*
X254500Y147442D01*
D02*
G37*
G36*
X240000D02*
X239376Y147318D01*
X238846Y146964D01*
X238493Y146435D01*
X238369Y145810D01*
X238493Y145186D01*
X238846Y144657D01*
X239376Y144303D01*
X240000Y144179D01*
X240624Y144303D01*
X241154Y144657D01*
X241507Y145186D01*
X241631Y145810D01*
X241507Y146435D01*
X241154Y146964D01*
X240624Y147318D01*
X240000Y147442D01*
D02*
G37*
G36*
X213508Y147434D02*
X212884Y147310D01*
X212354Y146956D01*
X212001Y146427D01*
X211877Y145802D01*
X212001Y145178D01*
X212354Y144649D01*
X212884Y144295D01*
X213508Y144171D01*
X214132Y144295D01*
X214662Y144649D01*
X215015Y145178D01*
X215139Y145802D01*
X215015Y146427D01*
X214662Y146956D01*
X214132Y147310D01*
X213508Y147434D01*
D02*
G37*
G36*
X281000Y145342D02*
X280376Y145218D01*
X279847Y144864D01*
X279493Y144335D01*
X279369Y143710D01*
X279493Y143086D01*
X279847Y142557D01*
X280376Y142203D01*
X281000Y142079D01*
X281624Y142203D01*
X282154Y142557D01*
X282507Y143086D01*
X282631Y143710D01*
X282507Y144335D01*
X282154Y144864D01*
X281624Y145218D01*
X281000Y145342D01*
D02*
G37*
G36*
X232401Y143694D02*
X231777Y143570D01*
X231247Y143216D01*
X230894Y142687D01*
X230770Y142062D01*
X230894Y141438D01*
X231247Y140909D01*
X231777Y140555D01*
X232401Y140431D01*
X233025Y140555D01*
X233555Y140909D01*
X233908Y141438D01*
X234032Y142062D01*
X233908Y142687D01*
X233555Y143216D01*
X233025Y143570D01*
X232401Y143694D01*
D02*
G37*
G36*
X213500D02*
X212876Y143570D01*
X212347Y143216D01*
X211993Y142687D01*
X211869Y142062D01*
X211993Y141438D01*
X212347Y140909D01*
X212876Y140555D01*
X213500Y140431D01*
X214124Y140555D01*
X214653Y140909D01*
X215007Y141438D01*
X215131Y142062D01*
X215007Y142687D01*
X214653Y143216D01*
X214124Y143570D01*
X213500Y143694D01*
D02*
G37*
G36*
X239980Y142867D02*
X239356Y142743D01*
X238826Y142389D01*
X238473Y141860D01*
X238349Y141235D01*
X238473Y140611D01*
X238826Y140082D01*
X239356Y139728D01*
X239980Y139604D01*
X240604Y139728D01*
X241133Y140082D01*
X241487Y140611D01*
X241611Y141235D01*
X241487Y141860D01*
X241133Y142389D01*
X240604Y142743D01*
X239980Y142867D01*
D02*
G37*
G36*
X250500Y140900D02*
X249876Y140776D01*
X249346Y140422D01*
X248993Y139893D01*
X248869Y139269D01*
X248993Y138644D01*
X249346Y138115D01*
X249876Y137761D01*
X250500Y137637D01*
X251124Y137761D01*
X251654Y138115D01*
X252007Y138644D01*
X252131Y139269D01*
X252007Y139893D01*
X251654Y140422D01*
X251124Y140776D01*
X250500Y140900D01*
D02*
G37*
G36*
X232480Y137615D02*
X231856Y137491D01*
X231327Y137137D01*
X230973Y136608D01*
X230849Y135984D01*
X230973Y135359D01*
X231327Y134830D01*
X231856Y134476D01*
X232480Y134352D01*
X233104Y134476D01*
X233633Y134830D01*
X233987Y135359D01*
X234111Y135984D01*
X233987Y136608D01*
X233633Y137137D01*
X233104Y137491D01*
X232480Y137615D01*
D02*
G37*
G36*
X272000Y135942D02*
X271376Y135818D01*
X270847Y135464D01*
X270493Y134935D01*
X270369Y134310D01*
X270493Y133686D01*
X270847Y133157D01*
X271376Y132803D01*
X272000Y132679D01*
X272624Y132803D01*
X273153Y133157D01*
X273507Y133686D01*
X273631Y134310D01*
X273507Y134935D01*
X273153Y135464D01*
X272624Y135818D01*
X272000Y135942D01*
D02*
G37*
G36*
X276951Y135894D02*
X276327Y135770D01*
X275798Y135416D01*
X275444Y134887D01*
X275320Y134263D01*
X275444Y133638D01*
X275798Y133109D01*
X276327Y132755D01*
X276951Y132631D01*
X277575Y132755D01*
X278104Y133109D01*
X278458Y133638D01*
X278582Y134263D01*
X278458Y134887D01*
X278104Y135416D01*
X277575Y135770D01*
X276951Y135894D01*
D02*
G37*
G36*
X281000Y139442D02*
X280376Y139318D01*
X279847Y138964D01*
X279493Y138435D01*
X279369Y137811D01*
X279493Y137186D01*
X279847Y136657D01*
X280376Y136303D01*
X280541Y136270D01*
Y135761D01*
X280264Y135706D01*
X279734Y135352D01*
X279381Y134823D01*
X279257Y134198D01*
X279381Y133574D01*
X279734Y133045D01*
X280264Y132691D01*
X280888Y132567D01*
X281512Y132691D01*
X282042Y133045D01*
X282395Y133574D01*
X282519Y134198D01*
X282395Y134823D01*
X282042Y135352D01*
X281512Y135706D01*
X281347Y135738D01*
Y136248D01*
X281624Y136303D01*
X282154Y136657D01*
X282507Y137186D01*
X282631Y137811D01*
X282507Y138435D01*
X282154Y138964D01*
X281624Y139318D01*
X281000Y139442D01*
D02*
G37*
G36*
X232480Y132115D02*
X231856Y131991D01*
X231327Y131637D01*
X230973Y131108D01*
X230849Y130483D01*
X230973Y129859D01*
X231327Y129330D01*
X231856Y128976D01*
X232480Y128852D01*
X233104Y128976D01*
X233633Y129330D01*
X233987Y129859D01*
X234111Y130483D01*
X233987Y131108D01*
X233633Y131637D01*
X233104Y131991D01*
X232480Y132115D01*
D02*
G37*
G36*
X221285Y130942D02*
X220661Y130818D01*
X220131Y130464D01*
X219778Y129935D01*
X219654Y129311D01*
X219778Y128686D01*
X220131Y128157D01*
X220661Y127803D01*
X221285Y127679D01*
X221909Y127803D01*
X222439Y128157D01*
X222792Y128686D01*
X222916Y129311D01*
X222792Y129935D01*
X222439Y130464D01*
X221909Y130818D01*
X221285Y130942D01*
D02*
G37*
G36*
X283800Y126542D02*
X283176Y126418D01*
X282646Y126064D01*
X282567Y125944D01*
X282067D01*
X282053Y125964D01*
X281524Y126318D01*
X280900Y126442D01*
X280276Y126318D01*
X279747Y125964D01*
X279393Y125435D01*
X279269Y124811D01*
X279393Y124186D01*
X279747Y123657D01*
X280276Y123303D01*
X280900Y123179D01*
X281524Y123303D01*
X282053Y123657D01*
X282133Y123776D01*
X282633D01*
X282646Y123757D01*
X283176Y123403D01*
X283800Y123279D01*
X284424Y123403D01*
X284953Y123757D01*
X285307Y124286D01*
X285431Y124910D01*
X285307Y125535D01*
X284953Y126064D01*
X284424Y126418D01*
X283800Y126542D01*
D02*
G37*
G36*
X250500Y128942D02*
X249876Y128818D01*
X249346Y128464D01*
X248993Y127935D01*
X248869Y127311D01*
X248993Y126686D01*
X249346Y126157D01*
X249876Y125803D01*
X250500Y125679D01*
X251124Y125803D01*
X251654Y126157D01*
X252007Y126686D01*
X252131Y127311D01*
X252007Y127935D01*
X251654Y128464D01*
X251124Y128818D01*
X250500Y128942D01*
D02*
G37*
G36*
X246500D02*
X245876Y128818D01*
X245346Y128464D01*
X244993Y127935D01*
X244869Y127311D01*
X244993Y126686D01*
X245346Y126157D01*
X245876Y125803D01*
X246500Y125679D01*
X247124Y125803D01*
X247654Y126157D01*
X248007Y126686D01*
X248131Y127311D01*
X248007Y127935D01*
X247654Y128464D01*
X247124Y128818D01*
X246500Y128942D01*
D02*
G37*
G36*
X276450Y126492D02*
X275826Y126368D01*
X275296Y126014D01*
X274943Y125485D01*
X274819Y124861D01*
X274943Y124236D01*
X275296Y123707D01*
X275826Y123353D01*
X276450Y123229D01*
X277074Y123353D01*
X277604Y123707D01*
X277957Y124236D01*
X278081Y124861D01*
X277957Y125485D01*
X277604Y126014D01*
X277074Y126368D01*
X276450Y126492D01*
D02*
G37*
G36*
X263000Y125942D02*
X262376Y125818D01*
X261846Y125464D01*
X261493Y124935D01*
X261369Y124311D01*
X261493Y123686D01*
X261846Y123157D01*
X262376Y122803D01*
X263000Y122679D01*
X263624Y122803D01*
X264154Y123157D01*
X264507Y123686D01*
X264631Y124311D01*
X264507Y124935D01*
X264154Y125464D01*
X263624Y125818D01*
X263000Y125942D01*
D02*
G37*
G36*
X172500D02*
X171876Y125818D01*
X171346Y125464D01*
X170993Y124935D01*
X170869Y124311D01*
X170993Y123686D01*
X171346Y123157D01*
X171876Y122803D01*
X172500Y122679D01*
X173124Y122803D01*
X173653Y123157D01*
X174007Y123686D01*
X174131Y124311D01*
X174007Y124935D01*
X173653Y125464D01*
X173124Y125818D01*
X172500Y125942D01*
D02*
G37*
G36*
X168000D02*
X167376Y125818D01*
X166847Y125464D01*
X166493Y124935D01*
X166369Y124311D01*
X166493Y123686D01*
X166847Y123157D01*
X167376Y122803D01*
X168000Y122679D01*
X168624Y122803D01*
X169153Y123157D01*
X169507Y123686D01*
X169631Y124311D01*
X169507Y124935D01*
X169153Y125464D01*
X168624Y125818D01*
X168000Y125942D01*
D02*
G37*
G36*
X257000Y124442D02*
X256376Y124318D01*
X255847Y123964D01*
X255493Y123435D01*
X255369Y122810D01*
X255493Y122186D01*
X255847Y121657D01*
X256376Y121303D01*
X257000Y121179D01*
X257624Y121303D01*
X258154Y121657D01*
X258507Y122186D01*
X258631Y122810D01*
X258507Y123435D01*
X258154Y123964D01*
X257624Y124318D01*
X257000Y124442D01*
D02*
G37*
G36*
X242000D02*
X241376Y124318D01*
X240846Y123964D01*
X240493Y123435D01*
X240369Y122810D01*
X240493Y122186D01*
X240846Y121657D01*
X241376Y121303D01*
X242000Y121179D01*
X242624Y121303D01*
X243154Y121657D01*
X243507Y122186D01*
X243631Y122810D01*
X243507Y123435D01*
X243154Y123964D01*
X242624Y124318D01*
X242000Y124442D01*
D02*
G37*
G36*
X172500Y121942D02*
X171876Y121818D01*
X171346Y121464D01*
X170993Y120935D01*
X170869Y120310D01*
X170993Y119686D01*
X171346Y119157D01*
X171876Y118803D01*
X172500Y118679D01*
X173124Y118803D01*
X173653Y119157D01*
X174007Y119686D01*
X174131Y120310D01*
X174007Y120935D01*
X173653Y121464D01*
X173124Y121818D01*
X172500Y121942D01*
D02*
G37*
G36*
X168000D02*
X167376Y121818D01*
X166847Y121464D01*
X166493Y120935D01*
X166369Y120310D01*
X166493Y119686D01*
X166847Y119157D01*
X167376Y118803D01*
X168000Y118679D01*
X168624Y118803D01*
X169153Y119157D01*
X169507Y119686D01*
X169631Y120310D01*
X169507Y120935D01*
X169153Y121464D01*
X168624Y121818D01*
X168000Y121942D01*
D02*
G37*
G36*
X141500Y121632D02*
X140876Y121508D01*
X140347Y121154D01*
X139993Y120625D01*
X139869Y120001D01*
X139993Y119376D01*
X140347Y118847D01*
X140876Y118493D01*
X141500Y118369D01*
X142124Y118493D01*
X142654Y118847D01*
X143007Y119376D01*
X143131Y120001D01*
X143007Y120625D01*
X142654Y121154D01*
X142124Y121508D01*
X141500Y121632D01*
D02*
G37*
G36*
X236000Y121443D02*
X235376Y121319D01*
X234846Y120965D01*
X234493Y120436D01*
X234369Y119811D01*
X234493Y119187D01*
X234846Y118658D01*
X235376Y118304D01*
X236000Y118180D01*
X236624Y118304D01*
X237154Y118658D01*
X237507Y119187D01*
X237631Y119811D01*
X237507Y120436D01*
X237154Y120965D01*
X236624Y121319D01*
X236000Y121443D01*
D02*
G37*
G36*
X303366Y128503D02*
X302022Y128326D01*
X300770Y127807D01*
X299695Y126982D01*
X298870Y125907D01*
X298351Y124655D01*
X298174Y123311D01*
X298351Y121967D01*
X298870Y120715D01*
X299695Y119640D01*
X300770Y118815D01*
X302022Y118296D01*
X303366Y118119D01*
X304710Y118296D01*
X305962Y118815D01*
X307037Y119640D01*
X307862Y120715D01*
X308381Y121967D01*
X308558Y123311D01*
X308381Y124655D01*
X307862Y125907D01*
X307037Y126982D01*
X305962Y127807D01*
X304710Y128326D01*
X303366Y128503D01*
D02*
G37*
G36*
X225959Y123272D02*
X225134Y123164D01*
X224366Y122845D01*
X223706Y122339D01*
X223200Y121679D01*
X222881Y120911D01*
X222773Y120086D01*
X222881Y119261D01*
X223200Y118493D01*
X223706Y117833D01*
X224366Y117327D01*
X225134Y117008D01*
X225959Y116900D01*
X226784Y117008D01*
X227552Y117327D01*
X228212Y117833D01*
X228718Y118493D01*
X229037Y119261D01*
X229145Y120086D01*
X229037Y120911D01*
X228718Y121679D01*
X228212Y122339D01*
X227552Y122845D01*
X226784Y123164D01*
X225959Y123272D01*
D02*
G37*
G36*
X257000Y118943D02*
X256376Y118819D01*
X255847Y118465D01*
X255493Y117936D01*
X255369Y117312D01*
X255493Y116687D01*
X255847Y116158D01*
X256376Y115804D01*
X257000Y115680D01*
X257624Y115804D01*
X258154Y116158D01*
X258507Y116687D01*
X258631Y117312D01*
X258507Y117936D01*
X258154Y118465D01*
X257624Y118819D01*
X257000Y118943D01*
D02*
G37*
G36*
X242000D02*
X241376Y118819D01*
X240846Y118465D01*
X240493Y117936D01*
X240369Y117312D01*
X240493Y116687D01*
X240846Y116158D01*
X241376Y115804D01*
X242000Y115680D01*
X242624Y115804D01*
X243154Y116158D01*
X243507Y116687D01*
X243631Y117312D01*
X243507Y117936D01*
X243154Y118465D01*
X242624Y118819D01*
X242000Y118943D01*
D02*
G37*
G36*
X292600Y117943D02*
X291976Y117819D01*
X291446Y117465D01*
X291093Y116936D01*
X290969Y116312D01*
X291093Y115687D01*
X291446Y115158D01*
X291976Y114804D01*
X292600Y114680D01*
X293224Y114804D01*
X293754Y115158D01*
X294107Y115687D01*
X294231Y116312D01*
X294107Y116936D01*
X293754Y117465D01*
X293224Y117819D01*
X292600Y117943D01*
D02*
G37*
G36*
X285750D02*
X285126Y117819D01*
X284596Y117465D01*
X284243Y116936D01*
X284119Y116312D01*
X284243Y115687D01*
X284596Y115158D01*
X285126Y114804D01*
X285750Y114680D01*
X286374Y114804D01*
X286904Y115158D01*
X287257Y115687D01*
X287381Y116312D01*
X287257Y116936D01*
X286904Y117465D01*
X286374Y117819D01*
X285750Y117943D01*
D02*
G37*
G36*
X277500Y116443D02*
X276876Y116319D01*
X276346Y115965D01*
X275993Y115436D01*
X275869Y114812D01*
X275993Y114187D01*
X276346Y113658D01*
X276876Y113304D01*
X277500Y113180D01*
X278124Y113304D01*
X278654Y113658D01*
X279007Y114187D01*
X279131Y114812D01*
X279007Y115436D01*
X278654Y115965D01*
X278124Y116319D01*
X277500Y116443D01*
D02*
G37*
G36*
X254500Y114943D02*
X253876Y114819D01*
X253346Y114465D01*
X252993Y113936D01*
X252869Y113312D01*
X252993Y112687D01*
X253346Y112158D01*
X253876Y111804D01*
X254500Y111680D01*
X255124Y111804D01*
X255654Y112158D01*
X256007Y112687D01*
X256131Y113312D01*
X256007Y113936D01*
X255654Y114465D01*
X255124Y114819D01*
X254500Y114943D01*
D02*
G37*
G36*
X249873D02*
X249249Y114819D01*
X248720Y114465D01*
X248366Y113936D01*
X248242Y113312D01*
X248366Y112687D01*
X248720Y112158D01*
X249249Y111804D01*
X249873Y111680D01*
X250497Y111804D01*
X251027Y112158D01*
X251380Y112687D01*
X251504Y113312D01*
X251380Y113936D01*
X251027Y114465D01*
X250497Y114819D01*
X249873Y114943D01*
D02*
G37*
G36*
X245000D02*
X244376Y114819D01*
X243847Y114465D01*
X243493Y113936D01*
X243369Y113312D01*
X243493Y112687D01*
X243847Y112158D01*
X244376Y111804D01*
X245000Y111680D01*
X245624Y111804D01*
X246153Y112158D01*
X246507Y112687D01*
X246631Y113312D01*
X246507Y113936D01*
X246153Y114465D01*
X245624Y114819D01*
X245000Y114943D01*
D02*
G37*
G36*
X152500Y112943D02*
X151876Y112819D01*
X151347Y112465D01*
X150993Y111936D01*
X150869Y111311D01*
X150993Y110687D01*
X151347Y110158D01*
X151876Y109804D01*
X152500Y109680D01*
X153124Y109804D01*
X153654Y110158D01*
X154007Y110687D01*
X154131Y111311D01*
X154007Y111936D01*
X153654Y112465D01*
X153124Y112819D01*
X152500Y112943D01*
D02*
G37*
G36*
X143500Y111632D02*
X142876Y111508D01*
X142347Y111154D01*
X141993Y110625D01*
X141869Y110001D01*
X141993Y109376D01*
X142347Y108847D01*
X142876Y108493D01*
X143500Y108369D01*
X144124Y108493D01*
X144653Y108847D01*
X145007Y109376D01*
X145131Y110001D01*
X145007Y110625D01*
X144653Y111154D01*
X144124Y111508D01*
X143500Y111632D01*
D02*
G37*
G36*
X235700Y111232D02*
X235076Y111108D01*
X234546Y110754D01*
X234193Y110225D01*
X234069Y109600D01*
X234193Y108976D01*
X234546Y108447D01*
X235076Y108093D01*
X235700Y107969D01*
X236324Y108093D01*
X236854Y108447D01*
X237207Y108976D01*
X237331Y109600D01*
X237207Y110225D01*
X236854Y110754D01*
X236324Y111108D01*
X235700Y111232D01*
D02*
G37*
G36*
X287000Y109943D02*
X286376Y109819D01*
X285846Y109465D01*
X285493Y108936D01*
X285369Y108311D01*
X285493Y107687D01*
X285846Y107158D01*
X286376Y106804D01*
X287000Y106680D01*
X287624Y106804D01*
X288154Y107158D01*
X288507Y107687D01*
X288631Y108311D01*
X288507Y108936D01*
X288154Y109465D01*
X287624Y109819D01*
X287000Y109943D01*
D02*
G37*
G36*
X248200Y109932D02*
X247576Y109808D01*
X247046Y109454D01*
X246693Y108925D01*
X246569Y108300D01*
X246693Y107676D01*
X247046Y107147D01*
X247576Y106793D01*
X248200Y106669D01*
X248824Y106793D01*
X249354Y107147D01*
X249707Y107676D01*
X249831Y108300D01*
X249707Y108925D01*
X249354Y109454D01*
X248824Y109808D01*
X248200Y109932D01*
D02*
G37*
G36*
X278039Y109738D02*
X277415Y109614D01*
X276886Y109260D01*
X276532Y108731D01*
X276408Y108107D01*
X276532Y107482D01*
X276886Y106953D01*
X277415Y106599D01*
X278039Y106475D01*
X278663Y106599D01*
X279192Y106953D01*
X279546Y107482D01*
X279611Y107808D01*
X279627Y107890D01*
X280137D01*
X280154Y107805D01*
X280223Y107459D01*
X280576Y106930D01*
X281106Y106576D01*
X281730Y106452D01*
X282354Y106576D01*
X282884Y106930D01*
X283237Y107459D01*
X283361Y108083D01*
X283237Y108708D01*
X282884Y109237D01*
X282354Y109591D01*
X281730Y109715D01*
X281106Y109591D01*
X280576Y109237D01*
X280223Y108708D01*
X280158Y108381D01*
X280142Y108300D01*
X279632D01*
X279615Y108385D01*
X279546Y108731D01*
X279192Y109260D01*
X278663Y109614D01*
X278039Y109738D01*
D02*
G37*
G36*
X148000Y111443D02*
X147376Y111319D01*
X146846Y110965D01*
X146493Y110436D01*
X146369Y109811D01*
X146493Y109187D01*
X146846Y108658D01*
X147376Y108304D01*
X147663Y108247D01*
X147733Y107723D01*
X147346Y107465D01*
X146993Y106936D01*
X146869Y106312D01*
X146993Y105687D01*
X147346Y105158D01*
X147876Y104804D01*
X148500Y104680D01*
X149124Y104804D01*
X149653Y105158D01*
X150007Y105687D01*
X150131Y106312D01*
X150007Y106936D01*
X149653Y107465D01*
X149124Y107819D01*
X148837Y107876D01*
X148767Y108400D01*
X149153Y108658D01*
X149507Y109187D01*
X149631Y109811D01*
X149507Y110436D01*
X149153Y110965D01*
X148624Y111319D01*
X148000Y111443D01*
D02*
G37*
G36*
X274100Y106056D02*
X273476Y105932D01*
X272947Y105578D01*
X272593Y105049D01*
X272527Y104717D01*
X272469Y104425D01*
X271993Y104403D01*
X271907Y104836D01*
X271553Y105365D01*
X271024Y105719D01*
X270400Y105843D01*
X269776Y105719D01*
X269247Y105365D01*
X268893Y104836D01*
X268769Y104211D01*
X268893Y103587D01*
X269247Y103058D01*
X269586Y102831D01*
X269434Y102331D01*
X264374D01*
X264107Y102831D01*
X264278Y103087D01*
X264402Y103711D01*
X264278Y104336D01*
X263925Y104865D01*
X263395Y105219D01*
X262771Y105343D01*
X262147Y105219D01*
X261617Y104865D01*
X261264Y104336D01*
X261140Y103711D01*
X261264Y103087D01*
X261435Y102831D01*
X261168Y102331D01*
X259405D01*
X259356Y102831D01*
X259724Y102904D01*
X260254Y103258D01*
X260607Y103787D01*
X260731Y104411D01*
X260607Y105036D01*
X260254Y105565D01*
X259724Y105919D01*
X259100Y106043D01*
X258476Y105919D01*
X257946Y105565D01*
X257855Y105428D01*
X257254D01*
X257154Y105578D01*
X256624Y105932D01*
X256000Y106056D01*
X255376Y105932D01*
X254847Y105578D01*
X254493Y105049D01*
X254369Y104425D01*
X254493Y103800D01*
X254847Y103271D01*
X255376Y102917D01*
X255714Y102850D01*
X255809Y102831D01*
X255760Y102334D01*
X255738Y102331D01*
X249000D01*
X248681Y102268D01*
X248657Y102386D01*
X248304Y102915D01*
X247774Y103269D01*
X247150Y103393D01*
X246526Y103269D01*
X245996Y102915D01*
X245643Y102386D01*
X245519Y101761D01*
X245643Y101137D01*
X245996Y100608D01*
X246183Y100483D01*
X246232Y99986D01*
X244213Y97966D01*
X243715Y98015D01*
X243634Y98137D01*
X243104Y98491D01*
X242480Y98615D01*
X241856Y98491D01*
X241326Y98137D01*
X240973Y97608D01*
X240849Y96983D01*
X240973Y96359D01*
X241326Y95830D01*
X241448Y95749D01*
X241497Y95251D01*
X240279Y94032D01*
X240058Y93702D01*
X239980Y93312D01*
Y90311D01*
X240058Y89921D01*
X240279Y89591D01*
X241279Y88591D01*
X241610Y88370D01*
X242000Y88292D01*
X248000D01*
X248390Y88370D01*
X248721Y88591D01*
X249221Y89091D01*
X249442Y89421D01*
X249520Y89811D01*
Y92889D01*
X251672Y95042D01*
X254774D01*
X255064Y94542D01*
X254969Y94064D01*
X255093Y93439D01*
X255447Y92910D01*
X255976Y92556D01*
X256600Y92432D01*
X257224Y92556D01*
X257753Y92910D01*
X258107Y93439D01*
X258231Y94064D01*
X258136Y94542D01*
X258426Y95042D01*
X272030D01*
X272297Y94542D01*
X272293Y94536D01*
X272169Y93911D01*
X272293Y93287D01*
X272646Y92758D01*
X273176Y92404D01*
X273480Y92344D01*
Y89311D01*
X273558Y88921D01*
X273779Y88591D01*
X274279Y88090D01*
X274610Y87870D01*
X275000Y87792D01*
X280500D01*
X280890Y87870D01*
X280982Y87931D01*
X281432Y87630D01*
X281369Y87312D01*
X281493Y86687D01*
X281846Y86158D01*
X282376Y85804D01*
X283000Y85680D01*
X283624Y85804D01*
X284154Y86158D01*
X284507Y86687D01*
X284631Y87312D01*
X284507Y87936D01*
X284154Y88465D01*
X283624Y88819D01*
X283000Y88943D01*
X282681Y88879D01*
X282381Y89329D01*
X282442Y89421D01*
X282520Y89811D01*
Y100310D01*
X282510Y100359D01*
X282515Y100409D01*
X282471Y100553D01*
X282442Y100700D01*
X282414Y100742D01*
X282399Y100790D01*
X282304Y100906D01*
X282221Y101031D01*
X282179Y101059D01*
X282147Y101098D01*
X281996Y101222D01*
X282307Y101687D01*
X282431Y102312D01*
X282307Y102936D01*
X281954Y103465D01*
X281424Y103819D01*
X280800Y103943D01*
X280176Y103819D01*
X279646Y103465D01*
X279293Y102936D01*
X279173Y102331D01*
X274362D01*
X274340Y102334D01*
X274291Y102831D01*
X274386Y102850D01*
X274724Y102917D01*
X275254Y103271D01*
X275607Y103800D01*
X275731Y104425D01*
X275607Y105049D01*
X275254Y105578D01*
X274724Y105932D01*
X274100Y106056D01*
D02*
G37*
G36*
X142500Y107632D02*
X141876Y107508D01*
X141347Y107154D01*
X140993Y106625D01*
X140869Y106000D01*
X140993Y105376D01*
X141347Y104847D01*
X141876Y104493D01*
X142500Y104369D01*
X143124Y104493D01*
X143654Y104847D01*
X144007Y105376D01*
X144131Y106000D01*
X144007Y106625D01*
X143654Y107154D01*
X143124Y107508D01*
X142500Y107632D01*
D02*
G37*
G36*
X322048Y106910D02*
X318899D01*
X318228Y106821D01*
X317604Y106562D01*
X317067Y106151D01*
X316655Y105614D01*
X316396Y104989D01*
X316308Y104319D01*
X316396Y103648D01*
X316655Y103024D01*
X317067Y102487D01*
X317604Y102075D01*
X318228Y101816D01*
X318899Y101728D01*
X322048D01*
X322719Y101816D01*
X323344Y102075D01*
X323880Y102487D01*
X324292Y103024D01*
X324551Y103648D01*
X324639Y104319D01*
X324551Y104989D01*
X324292Y105614D01*
X323880Y106151D01*
X323344Y106562D01*
X322719Y106821D01*
X322048Y106910D01*
D02*
G37*
G36*
X306182D02*
X301852D01*
X301181Y106821D01*
X300556Y106562D01*
X300020Y106151D01*
X299608Y105614D01*
X299349Y104989D01*
X299261Y104319D01*
X299349Y103648D01*
X299608Y103024D01*
X300020Y102487D01*
X300556Y102075D01*
X301181Y101816D01*
X301852Y101728D01*
X306182D01*
X306853Y101816D01*
X307478Y102075D01*
X308014Y102487D01*
X308426Y103024D01*
X308685Y103648D01*
X308773Y104319D01*
X308685Y104989D01*
X308426Y105614D01*
X308014Y106151D01*
X307478Y106562D01*
X306853Y106821D01*
X306182Y106910D01*
D02*
G37*
G36*
X238500Y107632D02*
X237876Y107508D01*
X237347Y107154D01*
X236993Y106625D01*
X236869Y106000D01*
X236993Y105376D01*
X237347Y104847D01*
X237477Y104760D01*
Y104323D01*
X237402Y104209D01*
X237048Y103680D01*
X236924Y103056D01*
X237048Y102431D01*
X237402Y101902D01*
X237931Y101549D01*
X238555Y101425D01*
X239180Y101549D01*
X239709Y101902D01*
X240062Y102431D01*
X240187Y103056D01*
X240062Y103680D01*
X239709Y104209D01*
X239578Y104297D01*
Y104734D01*
X239654Y104847D01*
X240007Y105376D01*
X240131Y106000D01*
X240007Y106625D01*
X239653Y107154D01*
X239124Y107508D01*
X238500Y107632D01*
D02*
G37*
G36*
X218085Y123272D02*
X217260Y123164D01*
X216492Y122845D01*
X215832Y122339D01*
X215326Y121679D01*
X215007Y120911D01*
X214899Y120086D01*
X215007Y119261D01*
X215326Y118493D01*
X215832Y117833D01*
X215869Y117805D01*
X215708Y117331D01*
X170500D01*
X170110Y117253D01*
X169779Y117032D01*
X153429Y100682D01*
X152794Y100755D01*
X152654Y100965D01*
X152124Y101319D01*
X151500Y101443D01*
X150876Y101319D01*
X150347Y100965D01*
X149993Y100436D01*
X149869Y99812D01*
X149993Y99187D01*
X150347Y98658D01*
X150557Y98517D01*
X150629Y97882D01*
X149078Y96331D01*
X134150D01*
X134003Y96302D01*
X133854Y96287D01*
X133809Y96263D01*
X133759Y96254D01*
X133635Y96170D01*
X133503Y96100D01*
X133471Y96061D01*
X133429Y96032D01*
X133345Y95908D01*
X133250Y95792D01*
X133101Y95512D01*
X132500Y95632D01*
X131899Y95512D01*
X131749Y95792D01*
X131655Y95908D01*
X131571Y96032D01*
X131529Y96061D01*
X131497Y96100D01*
X131365Y96170D01*
X131240Y96254D01*
X131191Y96263D01*
X131146Y96287D01*
X130997Y96302D01*
X130850Y96331D01*
X110111D01*
X88721Y117721D01*
X88390Y117943D01*
X88000Y118020D01*
X78020D01*
X77629Y117943D01*
X77510Y117863D01*
X77390Y117943D01*
X77000Y118020D01*
X20189D01*
X19799Y117943D01*
X19468Y117721D01*
X17779Y116032D01*
X17558Y115702D01*
X17480Y115312D01*
Y110311D01*
X17558Y109921D01*
X17779Y109590D01*
X18779Y108590D01*
X19110Y108370D01*
X19500Y108292D01*
X65578D01*
X68850Y105019D01*
X68535Y104547D01*
X68411Y103922D01*
X68535Y103298D01*
X68888Y102769D01*
X69418Y102415D01*
X70042Y102291D01*
X70666Y102415D01*
X71139Y102731D01*
X82480Y91389D01*
Y77311D01*
X82558Y76921D01*
X82779Y76591D01*
X84529Y74840D01*
X84860Y74620D01*
X85250Y74542D01*
X164929D01*
X164979Y74552D01*
X165029Y74547D01*
X165173Y74590D01*
X165319Y74620D01*
X165361Y74648D01*
X165410Y74662D01*
X165526Y74757D01*
X165650Y74840D01*
X165678Y74883D01*
X165717Y74915D01*
X165788Y75047D01*
X165871Y75171D01*
X165879Y75212D01*
X165883Y75221D01*
X166141Y75255D01*
X166399Y75221D01*
X166403Y75212D01*
X166411Y75171D01*
X166494Y75047D01*
X166565Y74915D01*
X166604Y74883D01*
X166632Y74840D01*
X166756Y74757D01*
X166872Y74662D01*
X166920Y74648D01*
X166963Y74620D01*
X167110Y74590D01*
X167253Y74547D01*
X167303Y74552D01*
X167353Y74542D01*
X169235D01*
X169281Y74516D01*
X169606Y74042D01*
X169580Y73911D01*
Y58412D01*
X169658Y58021D01*
X169879Y57691D01*
X171279Y56291D01*
X171610Y56069D01*
X172000Y55992D01*
X177300D01*
X177690Y56069D01*
X178021Y56291D01*
X180721Y58991D01*
X180942Y59321D01*
X181020Y59711D01*
Y94389D01*
X184922Y98292D01*
X206578D01*
X208884Y95985D01*
Y85716D01*
X208384Y85306D01*
X208200Y85343D01*
X207576Y85219D01*
X207047Y84865D01*
X206693Y84336D01*
X206569Y83711D01*
X206693Y83087D01*
X207047Y82558D01*
X207576Y82204D01*
X208200Y82080D01*
X208824Y82204D01*
X209353Y82558D01*
X209409Y82641D01*
X209987Y82719D01*
X209946Y82165D01*
X209593Y81636D01*
X209469Y81011D01*
X209593Y80387D01*
X209946Y79858D01*
X210476Y79504D01*
X211100Y79380D01*
X211724Y79504D01*
X212253Y79858D01*
X212415Y80100D01*
X213038Y80184D01*
X215385Y77837D01*
X215385Y77837D01*
X215385Y77837D01*
X215537Y77735D01*
X215716Y77615D01*
X215716Y77615D01*
X215716Y77615D01*
X215899Y77579D01*
X216106Y77538D01*
X216106Y77538D01*
X216106Y77538D01*
X218059D01*
X218377Y77151D01*
X218369Y77112D01*
X218493Y76487D01*
X218847Y75958D01*
X219376Y75604D01*
X220000Y75480D01*
X220624Y75604D01*
X221153Y75958D01*
X221507Y76487D01*
X221631Y77112D01*
X221623Y77151D01*
X221941Y77538D01*
X228832D01*
X232365Y74005D01*
X232406Y73977D01*
X232439Y73938D01*
X232571Y73867D01*
X232695Y73784D01*
X232745Y73774D01*
X232789Y73750D01*
X232939Y73736D01*
X233085Y73707D01*
X233135Y73716D01*
X233185Y73711D01*
X233385Y73731D01*
X233493Y73187D01*
X233846Y72658D01*
X234376Y72304D01*
X234920Y72196D01*
X234900Y71997D01*
X234905Y71947D01*
X234895Y71897D01*
X234924Y71750D01*
X234939Y71601D01*
X234963Y71556D01*
X234973Y71507D01*
X235056Y71382D01*
X235126Y71250D01*
X235166Y71218D01*
X235194Y71176D01*
X236779Y69591D01*
X237110Y69370D01*
X237500Y69292D01*
X265100D01*
X265490Y69370D01*
X265821Y69591D01*
X266042Y69921D01*
X266120Y70311D01*
Y79312D01*
X266042Y79702D01*
X265821Y80032D01*
X265490Y80253D01*
X265100Y80331D01*
X243922D01*
X238111Y86142D01*
X238110Y86143D01*
X238109Y86144D01*
X237945Y86253D01*
X237780Y86364D01*
X237779Y86364D01*
X237778Y86365D01*
X237583Y86403D01*
X237390Y86441D01*
X237389Y86441D01*
X237387Y86441D01*
X235602Y86436D01*
X235216Y86935D01*
X235271Y87212D01*
X235147Y87836D01*
X234793Y88365D01*
X234264Y88719D01*
X233640Y88843D01*
X233404Y88796D01*
X232911Y89204D01*
X232946Y91220D01*
X232945Y91229D01*
X232947Y91239D01*
X232946Y104279D01*
X232907Y104473D01*
X232868Y104669D01*
X232868Y104669D01*
X232868Y104669D01*
X232767Y104820D01*
X232647Y104999D01*
X228934Y108713D01*
X228915Y108725D01*
X228902Y108744D01*
X228805Y108802D01*
X228787Y108818D01*
X229037Y109420D01*
X229145Y110245D01*
X229037Y111070D01*
X228718Y111838D01*
X228212Y112498D01*
X227552Y113004D01*
X226784Y113323D01*
X225959Y113431D01*
X225134Y113323D01*
X224532Y113073D01*
X224516Y113091D01*
X224458Y113188D01*
X224439Y113201D01*
X224427Y113219D01*
X220614Y117032D01*
X220348Y117210D01*
X220268Y117526D01*
X220255Y117769D01*
X220338Y117833D01*
X220844Y118493D01*
X221163Y119261D01*
X221271Y120086D01*
X221163Y120911D01*
X220844Y121679D01*
X220338Y122339D01*
X219678Y122845D01*
X218910Y123164D01*
X218085Y123272D01*
D02*
G37*
G36*
X293000Y103443D02*
X292376Y103319D01*
X291846Y102965D01*
X291493Y102436D01*
X291369Y101812D01*
X291493Y101187D01*
X291846Y100658D01*
X292376Y100304D01*
X293000Y100180D01*
X293624Y100304D01*
X294153Y100658D01*
X294507Y101187D01*
X294631Y101812D01*
X294507Y102436D01*
X294153Y102965D01*
X293624Y103319D01*
X293000Y103443D01*
D02*
G37*
G36*
X40000Y101443D02*
X39376Y101319D01*
X38846Y100965D01*
X38493Y100436D01*
X38369Y99812D01*
X38493Y99187D01*
X38846Y98658D01*
X39376Y98304D01*
X40000Y98180D01*
X40624Y98304D01*
X41153Y98658D01*
X41507Y99187D01*
X41631Y99812D01*
X41507Y100436D01*
X41153Y100965D01*
X40624Y101319D01*
X40000Y101443D01*
D02*
G37*
G36*
X31000D02*
X30376Y101319D01*
X29847Y100965D01*
X29493Y100436D01*
X29369Y99812D01*
X29493Y99187D01*
X29847Y98658D01*
X30376Y98304D01*
X31000Y98180D01*
X31624Y98304D01*
X32153Y98658D01*
X32507Y99187D01*
X32631Y99812D01*
X32507Y100436D01*
X32153Y100965D01*
X31624Y101319D01*
X31000Y101443D01*
D02*
G37*
G36*
X305985Y101034D02*
X305088Y100856D01*
X304327Y100347D01*
X303819Y99586D01*
X303641Y98689D01*
X303819Y97791D01*
X304327Y97031D01*
X305088Y96522D01*
X305985Y96344D01*
X306883Y96522D01*
X307644Y97031D01*
X308152Y97791D01*
X308331Y98689D01*
X308152Y99586D01*
X307644Y100347D01*
X306883Y100856D01*
X305985Y101034D01*
D02*
G37*
G36*
X298000Y98443D02*
X297376Y98319D01*
X296847Y97965D01*
X296493Y97436D01*
X296369Y96811D01*
X296129Y96520D01*
X295000D01*
X294610Y96443D01*
X294279Y96222D01*
X292098Y94040D01*
X291595Y94245D01*
X291507Y94688D01*
X291154Y95217D01*
X290624Y95571D01*
X290000Y95695D01*
X289376Y95571D01*
X288846Y95217D01*
X288493Y94688D01*
X288369Y94064D01*
X288493Y93439D01*
X288846Y92910D01*
X289376Y92556D01*
X290000Y92432D01*
X290493Y92530D01*
X290872Y92303D01*
X290980Y92193D01*
Y89923D01*
X289490Y88432D01*
X289154Y88465D01*
X288624Y88819D01*
X288000Y88943D01*
X287376Y88819D01*
X286846Y88465D01*
X286493Y87936D01*
X286369Y87312D01*
X286493Y86687D01*
X286846Y86158D01*
X287376Y85804D01*
X288000Y85680D01*
X288624Y85804D01*
X288665Y85832D01*
X289148Y85973D01*
X289221Y85898D01*
X289279Y85811D01*
X289359Y85758D01*
X289427Y85689D01*
X289607Y85567D01*
X289475Y85370D01*
X289367Y84824D01*
X289475Y84277D01*
X289743Y83877D01*
X289676Y83824D01*
X289638Y83779D01*
X289590Y83746D01*
X289551Y83688D01*
X289512Y83656D01*
X289479Y83591D01*
X289419Y83520D01*
X289401Y83464D01*
X289369Y83416D01*
X289356Y83351D01*
X289330Y83302D01*
X289324Y83223D01*
X289298Y83141D01*
X289302Y83083D01*
X289291Y83025D01*
Y83021D01*
X289302Y82964D01*
X289298Y82905D01*
X289324Y82824D01*
X289330Y82745D01*
X289356Y82696D01*
X289369Y82631D01*
X289401Y82582D01*
X289419Y82527D01*
X289479Y82456D01*
X289512Y82391D01*
X289551Y82359D01*
X289590Y82301D01*
X289638Y82268D01*
X289676Y82223D01*
X289743Y82170D01*
X289475Y81770D01*
X289367Y81223D01*
X289475Y80677D01*
X289785Y80214D01*
X290248Y79905D01*
X290794Y79796D01*
X290807Y79680D01*
X290810Y79614D01*
X290819Y79580D01*
X290836Y79428D01*
X290880Y79331D01*
X290906Y79228D01*
X290962Y79152D01*
X291001Y79066D01*
X291116Y78905D01*
X291177Y78849D01*
X291223Y78780D01*
X291321Y78714D01*
X291407Y78634D01*
X291485Y78605D01*
X291554Y78558D01*
X291669Y78536D01*
X291779Y78494D01*
X291863Y78497D01*
X291944Y78481D01*
X295000D01*
X295390Y78558D01*
X295495Y78628D01*
X295584Y78639D01*
X296063Y78530D01*
X296130Y78482D01*
X296346Y78158D01*
X296491Y78061D01*
Y77561D01*
X296346Y77465D01*
X295993Y76936D01*
X295869Y76311D01*
X295993Y75687D01*
X296346Y75158D01*
X296876Y74804D01*
X297500Y74680D01*
X298124Y74804D01*
X298654Y75158D01*
X299007Y75687D01*
X299131Y76311D01*
X299007Y76936D01*
X298654Y77465D01*
X298509Y77561D01*
Y78061D01*
X298654Y78158D01*
X299007Y78687D01*
X299131Y79312D01*
X299270Y79481D01*
X301000D01*
X301390Y79558D01*
X301721Y79779D01*
X303937Y81996D01*
X304480Y81831D01*
X304493Y81766D01*
X304847Y81237D01*
X305376Y80883D01*
X306000Y80759D01*
X306624Y80883D01*
X307154Y81237D01*
X307507Y81766D01*
X307631Y82390D01*
X307514Y82981D01*
X307518Y83091D01*
X307726Y83481D01*
X307924D01*
X308071Y83510D01*
X308220Y83525D01*
X308264Y83549D01*
X308314Y83558D01*
X308438Y83642D01*
X308571Y83712D01*
X308603Y83751D01*
X308645Y83780D01*
X308728Y83904D01*
X308823Y84020D01*
X308940Y84239D01*
X308954Y84243D01*
X309500Y84134D01*
X310046Y84243D01*
X310509Y84552D01*
X310569Y84642D01*
X310602Y84622D01*
X310711Y84584D01*
X310811Y84528D01*
X311094Y84437D01*
X311251Y84418D01*
X311406Y84387D01*
X311447Y84395D01*
X311489Y84391D01*
X311641Y84434D01*
X311797Y84465D01*
X311831Y84488D01*
X311871Y84500D01*
X311996Y84598D01*
X312127Y84686D01*
X313221Y85780D01*
X313442Y86110D01*
X313520Y86501D01*
Y90000D01*
X313442Y90391D01*
X313221Y90721D01*
X311221Y92721D01*
X310890Y92943D01*
X310500Y93020D01*
X305422D01*
X302221Y96222D01*
X301890Y96443D01*
X301500Y96520D01*
X299870D01*
X299631Y96811D01*
X299507Y97436D01*
X299153Y97965D01*
X298624Y98319D01*
X298000Y98443D01*
D02*
G37*
G36*
X264500Y86443D02*
X263876Y86319D01*
X263347Y85965D01*
X262993Y85436D01*
X262869Y84812D01*
X262883Y84738D01*
X262825Y84644D01*
X262450Y84353D01*
X262000Y84443D01*
X261376Y84319D01*
X260846Y83965D01*
X260493Y83436D01*
X260369Y82811D01*
X260493Y82187D01*
X260846Y81658D01*
X261376Y81304D01*
X262000Y81180D01*
X262624Y81304D01*
X263154Y81658D01*
X263507Y82187D01*
X263631Y82811D01*
X263617Y82885D01*
X263675Y82979D01*
X264050Y83270D01*
X264500Y83180D01*
X265124Y83304D01*
X265653Y83658D01*
X266007Y84187D01*
X266131Y84812D01*
X266007Y85436D01*
X265653Y85965D01*
X265124Y86319D01*
X264500Y86443D01*
D02*
G37*
G36*
X270500Y83943D02*
X269876Y83819D01*
X269346Y83465D01*
X269250Y83321D01*
X268750D01*
X268653Y83465D01*
X268124Y83819D01*
X267500Y83943D01*
X266876Y83819D01*
X266347Y83465D01*
X265993Y82936D01*
X265869Y82311D01*
X265993Y81687D01*
X266347Y81158D01*
X266876Y80804D01*
X267500Y80680D01*
X268124Y80804D01*
X268653Y81158D01*
X268750Y81302D01*
X269250D01*
X269346Y81158D01*
X269876Y80804D01*
X270500Y80680D01*
X271124Y80804D01*
X271654Y81158D01*
X272007Y81687D01*
X272131Y82311D01*
X272007Y82936D01*
X271654Y83465D01*
X271124Y83819D01*
X270500Y83943D01*
D02*
G37*
G36*
X274729Y82443D02*
X274105Y82319D01*
X273575Y81965D01*
X273222Y81436D01*
X273098Y80812D01*
X273222Y80187D01*
X273575Y79658D01*
X274105Y79304D01*
X274729Y79180D01*
X275353Y79304D01*
X275883Y79658D01*
X276236Y80187D01*
X276360Y80812D01*
X276236Y81436D01*
X275883Y81965D01*
X275353Y82319D01*
X274729Y82443D01*
D02*
G37*
G36*
X281000Y81443D02*
X280376Y81319D01*
X279847Y80965D01*
X279493Y80436D01*
X279369Y79812D01*
X279493Y79187D01*
X279847Y78658D01*
X280376Y78304D01*
X281000Y78180D01*
X281624Y78304D01*
X282154Y78658D01*
X282507Y79187D01*
X282631Y79812D01*
X282507Y80436D01*
X282154Y80965D01*
X281624Y81319D01*
X281000Y81443D01*
D02*
G37*
G36*
X305985Y78278D02*
X305088Y78100D01*
X304327Y77591D01*
X303819Y76831D01*
X303641Y75933D01*
X303819Y75036D01*
X304327Y74275D01*
X305088Y73766D01*
X305985Y73588D01*
X306883Y73766D01*
X307644Y74275D01*
X308152Y75036D01*
X308331Y75933D01*
X308152Y76831D01*
X307644Y77591D01*
X306883Y78100D01*
X305985Y78278D01*
D02*
G37*
G36*
X283306Y76443D02*
X282682Y76319D01*
X282153Y75965D01*
X281799Y75436D01*
X281675Y74812D01*
X281799Y74187D01*
X282153Y73658D01*
X282682Y73304D01*
X283306Y73180D01*
X283930Y73304D01*
X284459Y73658D01*
X284813Y74187D01*
X284937Y74812D01*
X284813Y75436D01*
X284459Y75965D01*
X283930Y76319D01*
X283306Y76443D01*
D02*
G37*
G36*
X226305D02*
X225681Y76319D01*
X225151Y75965D01*
X224798Y75436D01*
X224674Y74812D01*
X224798Y74187D01*
X225151Y73658D01*
X225681Y73304D01*
X226305Y73180D01*
X226929Y73304D01*
X227459Y73658D01*
X227812Y74187D01*
X227936Y74812D01*
X227812Y75436D01*
X227459Y75965D01*
X226929Y76319D01*
X226305Y76443D01*
D02*
G37*
G36*
X166141Y72302D02*
X165517Y72178D01*
X164988Y71824D01*
X164634Y71295D01*
X164510Y70670D01*
X164634Y70046D01*
X164988Y69517D01*
X165517Y69163D01*
X166141Y69039D01*
X166765Y69163D01*
X167295Y69517D01*
X167648Y70046D01*
X167772Y70670D01*
X167648Y71295D01*
X167295Y71824D01*
X166765Y72178D01*
X166141Y72302D01*
D02*
G37*
G36*
X208583Y74170D02*
X207758Y74062D01*
X206990Y73743D01*
X206330Y73237D01*
X205824Y72577D01*
X205505Y71809D01*
X205397Y70984D01*
X205505Y70159D01*
X205824Y69391D01*
X206330Y68731D01*
X206990Y68225D01*
X207758Y67906D01*
X208583Y67798D01*
X209408Y67906D01*
X210176Y68225D01*
X210836Y68731D01*
X211342Y69391D01*
X211661Y70159D01*
X211769Y70984D01*
X211661Y71809D01*
X211342Y72577D01*
X210836Y73237D01*
X210176Y73743D01*
X209408Y74062D01*
X208583Y74170D01*
D02*
G37*
G36*
X322048Y72894D02*
X318899D01*
X318228Y72806D01*
X317604Y72547D01*
X317067Y72135D01*
X316655Y71599D01*
X316396Y70974D01*
X316308Y70303D01*
X316396Y69633D01*
X316655Y69008D01*
X317067Y68471D01*
X317604Y68060D01*
X318228Y67801D01*
X318899Y67712D01*
X322048D01*
X322719Y67801D01*
X323344Y68060D01*
X323880Y68471D01*
X324292Y69008D01*
X324551Y69633D01*
X324639Y70303D01*
X324551Y70974D01*
X324292Y71599D01*
X323880Y72135D01*
X323344Y72547D01*
X322719Y72806D01*
X322048Y72894D01*
D02*
G37*
G36*
X306182D02*
X301852D01*
X301181Y72806D01*
X300556Y72547D01*
X300020Y72135D01*
X299608Y71599D01*
X299349Y70974D01*
X299261Y70303D01*
X299349Y69633D01*
X299608Y69008D01*
X300020Y68471D01*
X300556Y68060D01*
X301181Y67801D01*
X301852Y67712D01*
X306182D01*
X306853Y67801D01*
X307478Y68060D01*
X308014Y68471D01*
X308426Y69008D01*
X308685Y69633D01*
X308773Y70303D01*
X308685Y70974D01*
X308426Y71599D01*
X308014Y72135D01*
X307478Y72547D01*
X306853Y72806D01*
X306182Y72894D01*
D02*
G37*
G36*
X259000Y57443D02*
X258376Y57319D01*
X257846Y56965D01*
X257493Y56436D01*
X257369Y55812D01*
X257493Y55187D01*
X257846Y54658D01*
X258376Y54304D01*
X259000Y54180D01*
X259624Y54304D01*
X260154Y54658D01*
X260507Y55187D01*
X260631Y55812D01*
X260507Y56436D01*
X260154Y56965D01*
X259624Y57319D01*
X259000Y57443D01*
D02*
G37*
G36*
X126500Y56632D02*
X125876Y56508D01*
X125347Y56154D01*
X124993Y55625D01*
X124869Y55001D01*
X124993Y54376D01*
X125347Y53847D01*
X125876Y53493D01*
X126500Y53369D01*
X127124Y53493D01*
X127654Y53847D01*
X128007Y54376D01*
X128131Y55001D01*
X128007Y55625D01*
X127654Y56154D01*
X127124Y56508D01*
X126500Y56632D01*
D02*
G37*
G36*
X119000D02*
X118376Y56508D01*
X117847Y56154D01*
X117493Y55625D01*
X117369Y55001D01*
X117493Y54376D01*
X117847Y53847D01*
X118376Y53493D01*
X119000Y53369D01*
X119624Y53493D01*
X120153Y53847D01*
X120507Y54376D01*
X120631Y55001D01*
X120507Y55625D01*
X120153Y56154D01*
X119624Y56508D01*
X119000Y56632D01*
D02*
G37*
G36*
X111500D02*
X110876Y56508D01*
X110346Y56154D01*
X109993Y55625D01*
X109869Y55001D01*
X109993Y54376D01*
X110346Y53847D01*
X110876Y53493D01*
X111500Y53369D01*
X112124Y53493D01*
X112654Y53847D01*
X113007Y54376D01*
X113131Y55001D01*
X113007Y55625D01*
X112654Y56154D01*
X112124Y56508D01*
X111500Y56632D01*
D02*
G37*
G36*
X135999Y56133D02*
X135375Y56008D01*
X134846Y55655D01*
X134492Y55126D01*
X134368Y54501D01*
X134492Y53877D01*
X134846Y53348D01*
X135375Y52994D01*
X135999Y52870D01*
X136623Y52994D01*
X137153Y53348D01*
X137506Y53877D01*
X137630Y54501D01*
X137506Y55126D01*
X137153Y55655D01*
X136623Y56008D01*
X135999Y56133D01*
D02*
G37*
G36*
X320000Y58217D02*
X319225Y58115D01*
X318503Y57816D01*
X317883Y57340D01*
X317407Y56720D01*
X317108Y55998D01*
X317006Y55223D01*
X317108Y54448D01*
X317407Y53726D01*
X317883Y53106D01*
X318503Y52630D01*
X319225Y52331D01*
X320000Y52229D01*
X320775Y52331D01*
X321497Y52630D01*
X322117Y53106D01*
X322593Y53726D01*
X322892Y54448D01*
X322994Y55223D01*
X322892Y55998D01*
X322593Y56720D01*
X322117Y57340D01*
X321497Y57816D01*
X320775Y58115D01*
X320000Y58217D01*
D02*
G37*
G36*
X163480Y53132D02*
X162856Y53008D01*
X162327Y52654D01*
X161973Y52125D01*
X161849Y51500D01*
X161973Y50876D01*
X162327Y50347D01*
X162856Y49993D01*
X163480Y49869D01*
X164104Y49993D01*
X164634Y50347D01*
X164987Y50876D01*
X165111Y51500D01*
X164987Y52125D01*
X164634Y52654D01*
X164104Y53008D01*
X163480Y53132D01*
D02*
G37*
G36*
X159000D02*
X158376Y53008D01*
X157846Y52654D01*
X157493Y52125D01*
X157369Y51500D01*
X157493Y50876D01*
X157846Y50347D01*
X158376Y49993D01*
X159000Y49869D01*
X159624Y49993D01*
X160153Y50347D01*
X160507Y50876D01*
X160631Y51500D01*
X160507Y52125D01*
X160153Y52654D01*
X159624Y53008D01*
X159000Y53132D01*
D02*
G37*
G36*
X75960Y41788D02*
X75336Y41664D01*
X74806Y41310D01*
X74710Y41166D01*
X74210D01*
X74114Y41310D01*
X73584Y41664D01*
X72960Y41788D01*
X72336Y41664D01*
X71807Y41310D01*
X71453Y40781D01*
X71329Y40156D01*
X71453Y39532D01*
X71807Y39003D01*
X72336Y38649D01*
X72960Y38525D01*
X73584Y38649D01*
X74114Y39003D01*
X74210Y39147D01*
X74710D01*
X74806Y39003D01*
X75336Y38649D01*
X75960Y38525D01*
X76584Y38649D01*
X77113Y39003D01*
X77467Y39532D01*
X77591Y40156D01*
X77467Y40781D01*
X77113Y41310D01*
X76584Y41664D01*
X75960Y41788D01*
D02*
G37*
G36*
X109500Y42115D02*
X108876Y41991D01*
X108346Y41637D01*
X107993Y41108D01*
X107869Y40483D01*
X107993Y39859D01*
X108346Y39330D01*
X108876Y38976D01*
X109500Y38852D01*
X110124Y38976D01*
X110653Y39330D01*
X111007Y39859D01*
X111131Y40483D01*
X111007Y41108D01*
X110653Y41637D01*
X110124Y41991D01*
X109500Y42115D01*
D02*
G37*
G36*
X104480Y42102D02*
X103856Y41978D01*
X103326Y41624D01*
X102973Y41095D01*
X102849Y40470D01*
X102973Y39846D01*
X103326Y39317D01*
X103856Y38963D01*
X104480Y38839D01*
X105104Y38963D01*
X105633Y39317D01*
X105987Y39846D01*
X106111Y40470D01*
X105987Y41095D01*
X105633Y41624D01*
X105104Y41978D01*
X104480Y42102D01*
D02*
G37*
G36*
X91500D02*
X90876Y41978D01*
X90346Y41624D01*
X89993Y41095D01*
X89869Y40470D01*
X89993Y39846D01*
X90346Y39317D01*
X90876Y38963D01*
X91500Y38839D01*
X92124Y38963D01*
X92654Y39317D01*
X93007Y39846D01*
X93131Y40470D01*
X93007Y41095D01*
X92654Y41624D01*
X92124Y41978D01*
X91500Y42102D01*
D02*
G37*
G36*
X314960Y10300D02*
X312951Y10102D01*
X311019Y9516D01*
X309833Y8882D01*
X309238Y8564D01*
X307678Y7283D01*
X306397Y5722D01*
X305445Y3941D01*
X304859Y2009D01*
X304661Y0D01*
X304859Y-2009D01*
X305445Y-3941D01*
X306397Y-5722D01*
X307678Y-7283D01*
X309238Y-8564D01*
X309833Y-8882D01*
X311019Y-9516D01*
X312951Y-10102D01*
X314960Y-10300D01*
X316970Y-10102D01*
X318902Y-9516D01*
X320683Y-8564D01*
X322243Y-7283D01*
X323524Y-5722D01*
X324476Y-3941D01*
X325062Y-2009D01*
X325260Y0D01*
X325062Y2009D01*
X324476Y3941D01*
X323524Y5722D01*
X322243Y7283D01*
X320683Y8564D01*
X318902Y9516D01*
X316970Y10102D01*
X314960Y10300D01*
D02*
G37*
%LPD*%
G36*
X69000Y243001D02*
Y239500D01*
X67500Y238000D01*
Y210000D01*
X69000Y208501D01*
Y197501D01*
X71500Y195001D01*
Y187001D01*
X70500Y186001D01*
X66500D01*
X59500Y193000D01*
X32500D01*
X28500Y197001D01*
Y207501D01*
X29500Y208501D01*
X31836D01*
X32002Y208010D01*
X31692Y207547D01*
X31584Y207000D01*
X31692Y206454D01*
X32002Y205991D01*
X32465Y205682D01*
X33011Y205573D01*
X33557Y205682D01*
X33734Y205800D01*
X34888D01*
X35065Y205682D01*
X35611Y205573D01*
X36157Y205682D01*
X36620Y205991D01*
X36930Y206454D01*
X37038Y207000D01*
X36930Y207547D01*
X36620Y208010D01*
X36786Y208501D01*
X50732D01*
X50881Y208067D01*
X50893Y208000D01*
X50590Y207548D01*
X50482Y207001D01*
X50590Y206455D01*
X50900Y205992D01*
X51363Y205683D01*
X51909Y205574D01*
X52455Y205683D01*
X52632Y205801D01*
X53786D01*
X53963Y205683D01*
X54509Y205574D01*
X55055Y205683D01*
X55518Y205992D01*
X55828Y206455D01*
X55936Y207001D01*
X55828Y207548D01*
X55518Y208011D01*
X55055Y208320D01*
X54509Y208429D01*
X54043Y208336D01*
X53855Y208535D01*
X53748Y208749D01*
X56500Y211501D01*
Y243001D01*
X57500Y244001D01*
X68000D01*
X69000Y243001D01*
D02*
G37*
%LPC*%
G36*
X63956Y243246D02*
X63410Y243137D01*
X63231Y243018D01*
X62081D01*
X61902Y243137D01*
X61356Y243246D01*
X60810Y243137D01*
X60347Y242828D01*
X60037Y242365D01*
X59929Y241818D01*
X60037Y241272D01*
X60347Y240809D01*
X60810Y240500D01*
X61356Y240391D01*
X61902Y240500D01*
X62078Y240617D01*
X63234D01*
X63410Y240500D01*
X63956Y240391D01*
X64502Y240500D01*
X64965Y240809D01*
X65275Y241272D01*
X65383Y241818D01*
X65275Y242365D01*
X64965Y242828D01*
X64502Y243137D01*
X63956Y243246D01*
D02*
G37*
G36*
X62811Y206028D02*
X62265Y205919D01*
X62087Y205800D01*
X60935D01*
X60757Y205919D01*
X60211Y206028D01*
X59665Y205919D01*
X59202Y205610D01*
X58892Y205147D01*
X58784Y204601D01*
X58892Y204054D01*
X59202Y203591D01*
X59665Y203282D01*
X60211Y203173D01*
X60757Y203282D01*
X60934Y203400D01*
X62088D01*
X62265Y203282D01*
X62811Y203173D01*
X63357Y203282D01*
X63820Y203591D01*
X64130Y204054D01*
X64238Y204601D01*
X64130Y205147D01*
X63820Y205610D01*
X63357Y205919D01*
X62811Y206028D01*
D02*
G37*
G36*
X54508Y201738D02*
X53962Y201629D01*
X53785Y201511D01*
X52631D01*
X52454Y201629D01*
X51908Y201738D01*
X51362Y201629D01*
X50899Y201320D01*
X50589Y200857D01*
X50481Y200310D01*
X50589Y199764D01*
X50899Y199301D01*
X51362Y198992D01*
X51908Y198883D01*
X52454Y198992D01*
X52632Y199111D01*
X53784D01*
X53962Y198992D01*
X54508Y198883D01*
X55054Y198992D01*
X55517Y199301D01*
X55827Y199764D01*
X55935Y200310D01*
X55827Y200857D01*
X55517Y201320D01*
X55054Y201629D01*
X54508Y201738D01*
D02*
G37*
G36*
X68000Y192688D02*
X67454Y192579D01*
X66991Y192270D01*
X66681Y191807D01*
X66573Y191261D01*
X66681Y190714D01*
X66800Y190536D01*
Y189385D01*
X66681Y189207D01*
X66573Y188661D01*
X66681Y188114D01*
X66991Y187651D01*
X67454Y187342D01*
X68000Y187233D01*
X68546Y187342D01*
X69009Y187651D01*
X69319Y188114D01*
X69427Y188661D01*
X69319Y189207D01*
X69201Y189383D01*
Y190538D01*
X69319Y190714D01*
X69427Y191261D01*
X69319Y191807D01*
X69009Y192270D01*
X68546Y192579D01*
X68000Y192688D01*
D02*
G37*
%LPD*%
G36*
X269400Y243101D02*
Y234600D01*
X275800Y228201D01*
Y198801D01*
X272000Y195001D01*
X258000D01*
X256000Y193000D01*
Y182811D01*
X258000Y180812D01*
X298000D01*
X307724Y190535D01*
X308245Y190411D01*
X308306Y190312D01*
X308174Y189311D01*
X308351Y187967D01*
X308870Y186715D01*
X309695Y185640D01*
X310770Y184815D01*
X312022Y184296D01*
X313366Y184119D01*
X314124Y184219D01*
X314500Y183889D01*
Y138733D01*
X314124Y138403D01*
X313366Y138503D01*
X312022Y138326D01*
X310770Y137807D01*
X309695Y136982D01*
X308870Y135907D01*
X308351Y134655D01*
X308174Y133311D01*
X308306Y132311D01*
X307908Y131811D01*
X304500D01*
X293000Y143312D01*
Y170811D01*
X289000Y174811D01*
X225000D01*
X203788Y153600D01*
X145300D01*
X144338Y154562D01*
X144599Y154954D01*
X144632Y154975D01*
X145157Y154871D01*
X145703Y154980D01*
X146153Y155280D01*
X146279Y155350D01*
X146636D01*
X146762Y155280D01*
X147211Y154980D01*
X147757Y154871D01*
X148303Y154980D01*
X148767Y155289D01*
X149076Y155752D01*
X149185Y156298D01*
X149076Y156845D01*
X148767Y157308D01*
X148303Y157617D01*
X147757Y157726D01*
X147211Y157617D01*
X146762Y157317D01*
X146636Y157247D01*
X146279D01*
X146153Y157317D01*
X145703Y157617D01*
X145157Y157726D01*
X144611Y157617D01*
X144148Y157308D01*
X143839Y156845D01*
X143730Y156298D01*
X143814Y155874D01*
X143593Y155712D01*
X143325Y155645D01*
X143100Y155826D01*
Y158600D01*
X144500Y160001D01*
Y179312D01*
X146500Y181312D01*
Y182811D01*
X158689Y195001D01*
X179500D01*
X188811Y204311D01*
X207000D01*
X207105Y204206D01*
X212494D01*
X219700Y197001D01*
X229400D01*
X233500Y201100D01*
Y201313D01*
X233531Y201359D01*
X233655Y201983D01*
X233531Y202608D01*
X233500Y202654D01*
Y205463D01*
X233612Y206028D01*
X233500Y206592D01*
Y209000D01*
X236900Y212401D01*
X257900D01*
X259000Y213500D01*
Y228161D01*
X254300Y232860D01*
Y243401D01*
X254900Y244001D01*
X268500D01*
X269400Y243101D01*
D02*
G37*
%LPC*%
G36*
X262951Y243318D02*
X260451D01*
X260347Y243314D01*
X260243Y243300D01*
X260141Y243278D01*
X260041Y243246D01*
X259944Y243206D01*
X259851Y243158D01*
X259763Y243101D01*
X259680Y243038D01*
X259603Y242967D01*
X259532Y242890D01*
X259530Y242887D01*
X259442Y242828D01*
X259132Y242365D01*
X259024Y241818D01*
X259132Y241272D01*
X259442Y240809D01*
X259905Y240500D01*
X260451Y240391D01*
X260997Y240500D01*
X261460Y240809D01*
X261506Y240878D01*
X261996D01*
X262042Y240809D01*
X262505Y240500D01*
X263051Y240391D01*
X263597Y240500D01*
X264060Y240809D01*
X264370Y241272D01*
X264478Y241818D01*
X264370Y242365D01*
X264060Y242828D01*
X263973Y242886D01*
X263971Y242889D01*
X263900Y242966D01*
X263823Y243037D01*
X263740Y243101D01*
X263651Y243157D01*
X263559Y243205D01*
X263462Y243245D01*
X263362Y243277D01*
X263260Y243300D01*
X263156Y243313D01*
X263052Y243318D01*
X262989D01*
X262951Y243318D01*
D02*
G37*
G36*
X263053Y208428D02*
X262507Y208319D01*
X262329Y208200D01*
X261177D01*
X260999Y208319D01*
X260453Y208428D01*
X259907Y208319D01*
X259444Y208010D01*
X259134Y207547D01*
X259026Y207000D01*
X259134Y206454D01*
X259444Y205991D01*
X259907Y205682D01*
X260453Y205573D01*
X260999Y205682D01*
X261176Y205800D01*
X262330D01*
X262507Y205682D01*
X263053Y205573D01*
X263599Y205682D01*
X264062Y205991D01*
X264372Y206454D01*
X264480Y207000D01*
X264372Y207547D01*
X264062Y208010D01*
X263599Y208319D01*
X263053Y208428D01*
D02*
G37*
G36*
X253604D02*
X253058Y208319D01*
X252880Y208200D01*
X251728D01*
X251550Y208319D01*
X251004Y208428D01*
X250458Y208319D01*
X249995Y208010D01*
X249685Y207547D01*
X249577Y207000D01*
X249685Y206454D01*
X249995Y205991D01*
X250458Y205682D01*
X251004Y205573D01*
X251550Y205682D01*
X251727Y205800D01*
X252881D01*
X253058Y205682D01*
X253604Y205573D01*
X254150Y205682D01*
X254613Y205991D01*
X254923Y206454D01*
X255031Y207000D01*
X254923Y207547D01*
X254613Y208010D01*
X254150Y208319D01*
X253604Y208428D01*
D02*
G37*
G36*
X244155D02*
X243609Y208319D01*
X243431Y208200D01*
X242279D01*
X242101Y208319D01*
X241555Y208428D01*
X241009Y208319D01*
X240546Y208010D01*
X240236Y207547D01*
X240128Y207000D01*
X240236Y206454D01*
X240546Y205991D01*
X241009Y205682D01*
X241555Y205573D01*
X242101Y205682D01*
X242278Y205800D01*
X243432D01*
X243609Y205682D01*
X244155Y205573D01*
X244701Y205682D01*
X245164Y205991D01*
X245474Y206454D01*
X245582Y207000D01*
X245474Y207547D01*
X245164Y208010D01*
X244701Y208319D01*
X244155Y208428D01*
D02*
G37*
G36*
X206767Y198438D02*
X206221Y198329D01*
X206044Y198211D01*
X204890D01*
X204713Y198329D01*
X204167Y198438D01*
X203621Y198329D01*
X203158Y198020D01*
X202848Y197557D01*
X202740Y197011D01*
X202848Y196464D01*
X203158Y196001D01*
X203621Y195692D01*
X204167Y195583D01*
X204713Y195692D01*
X204891Y195811D01*
X206043D01*
X206221Y195692D01*
X206767Y195583D01*
X207313Y195692D01*
X207776Y196001D01*
X208086Y196464D01*
X208194Y197011D01*
X208086Y197557D01*
X207776Y198020D01*
X207313Y198329D01*
X206767Y198438D01*
D02*
G37*
G36*
X200000Y202888D02*
X199454Y202779D01*
X198991Y202470D01*
X198681Y202007D01*
X198573Y201461D01*
X198681Y200914D01*
X198800Y200736D01*
Y199585D01*
X198681Y199407D01*
X198573Y198861D01*
X198681Y198314D01*
X198991Y197851D01*
X199454Y197542D01*
X200000Y197433D01*
X200546Y197542D01*
X201009Y197851D01*
X201319Y198314D01*
X201427Y198861D01*
X201319Y199407D01*
X201201Y199583D01*
Y200738D01*
X201319Y200914D01*
X201427Y201461D01*
X201319Y202007D01*
X201009Y202470D01*
X200546Y202779D01*
X200000Y202888D01*
D02*
G37*
G36*
X191500D02*
X190954Y202779D01*
X190491Y202470D01*
X190181Y202007D01*
X190073Y201461D01*
X190181Y200914D01*
X190481Y200465D01*
X190551Y200339D01*
Y199982D01*
X190481Y199856D01*
X190181Y199407D01*
X190073Y198861D01*
X190181Y198314D01*
X190491Y197851D01*
X190954Y197542D01*
X191500Y197433D01*
X192046Y197542D01*
X192509Y197851D01*
X192819Y198314D01*
X192927Y198861D01*
X192819Y199407D01*
X192519Y199856D01*
X192448Y199982D01*
Y200339D01*
X192519Y200465D01*
X192819Y200914D01*
X192927Y201461D01*
X192819Y202007D01*
X192509Y202470D01*
X192046Y202779D01*
X191500Y202888D01*
D02*
G37*
G36*
X272050Y202388D02*
X271504Y202279D01*
X271041Y201970D01*
X270731Y201507D01*
X270623Y200960D01*
X270731Y200414D01*
X270850Y200236D01*
Y199085D01*
X270731Y198907D01*
X270623Y198361D01*
X270731Y197814D01*
X271041Y197351D01*
X271504Y197042D01*
X272050Y196933D01*
X272596Y197042D01*
X273059Y197351D01*
X273369Y197814D01*
X273477Y198361D01*
X273369Y198907D01*
X273251Y199083D01*
Y200238D01*
X273369Y200414D01*
X273477Y200960D01*
X273369Y201507D01*
X273059Y201970D01*
X272596Y202279D01*
X272050Y202388D01*
D02*
G37*
G36*
X246500Y202188D02*
X245954Y202079D01*
X245491Y201770D01*
X245181Y201307D01*
X245073Y200761D01*
X245181Y200214D01*
X245300Y200036D01*
Y198885D01*
X245181Y198707D01*
X245073Y198161D01*
X245181Y197614D01*
X245491Y197151D01*
X245954Y196842D01*
X246500Y196733D01*
X247046Y196842D01*
X247509Y197151D01*
X247819Y197614D01*
X247927Y198161D01*
X247819Y198707D01*
X247701Y198883D01*
Y200038D01*
X247819Y200214D01*
X247927Y200761D01*
X247819Y201307D01*
X247509Y201770D01*
X247046Y202079D01*
X246500Y202188D01*
D02*
G37*
G36*
X263300Y201388D02*
X262754Y201279D01*
X262291Y200970D01*
X261981Y200507D01*
X261873Y199960D01*
X261981Y199414D01*
X262100Y199236D01*
Y198085D01*
X261981Y197907D01*
X261873Y197361D01*
X261981Y196814D01*
X262291Y196351D01*
X262754Y196042D01*
X263300Y195933D01*
X263846Y196042D01*
X264309Y196351D01*
X264619Y196814D01*
X264727Y197361D01*
X264619Y197907D01*
X264501Y198083D01*
Y199238D01*
X264619Y199414D01*
X264727Y199960D01*
X264619Y200507D01*
X264309Y200970D01*
X263846Y201279D01*
X263300Y201388D01*
D02*
G37*
G36*
X213250Y193138D02*
X212704Y193029D01*
X212527Y192911D01*
X211373D01*
X211196Y193029D01*
X210650Y193138D01*
X210104Y193029D01*
X209641Y192720D01*
X209331Y192257D01*
X209223Y191710D01*
X209331Y191164D01*
X209641Y190701D01*
X210104Y190392D01*
X210650Y190283D01*
X211196Y190392D01*
X211374Y190511D01*
X212526D01*
X212704Y190392D01*
X213250Y190283D01*
X213796Y190392D01*
X214259Y190701D01*
X214569Y191164D01*
X214677Y191710D01*
X214569Y192257D01*
X214259Y192720D01*
X213796Y193029D01*
X213250Y193138D01*
D02*
G37*
G36*
X197700Y189699D02*
X197154Y189590D01*
X196691Y189281D01*
X196381Y188818D01*
X196273Y188271D01*
X196381Y187725D01*
X196501Y187545D01*
Y186398D01*
X196381Y186218D01*
X196273Y185671D01*
X196381Y185125D01*
X196691Y184662D01*
X197154Y184353D01*
X197700Y184244D01*
X198246Y184353D01*
X198709Y184662D01*
X199019Y185125D01*
X199127Y185671D01*
X199019Y186218D01*
X198902Y186392D01*
Y187550D01*
X199019Y187725D01*
X199127Y188271D01*
X199019Y188818D01*
X198709Y189281D01*
X198246Y189590D01*
X197700Y189699D01*
D02*
G37*
G36*
X151950Y182238D02*
X151404Y182129D01*
X151227Y182011D01*
X150073D01*
X149896Y182129D01*
X149350Y182238D01*
X148804Y182129D01*
X148341Y181820D01*
X148031Y181357D01*
X147923Y180810D01*
X148031Y180264D01*
X148341Y179801D01*
X148804Y179492D01*
X149350Y179383D01*
X149896Y179492D01*
X150074Y179611D01*
X151226D01*
X151404Y179492D01*
X151950Y179383D01*
X152496Y179492D01*
X152959Y179801D01*
X153269Y180264D01*
X153377Y180810D01*
X153269Y181357D01*
X152959Y181820D01*
X152496Y182129D01*
X151950Y182238D01*
D02*
G37*
G36*
X166654Y182185D02*
X166108Y182076D01*
X165931Y181958D01*
X164777D01*
X164600Y182076D01*
X164054Y182185D01*
X163508Y182076D01*
X163045Y181767D01*
X162735Y181304D01*
X162627Y180757D01*
X162735Y180211D01*
X163045Y179748D01*
X163508Y179439D01*
X164054Y179330D01*
X164600Y179439D01*
X164778Y179557D01*
X165930D01*
X166108Y179439D01*
X166654Y179330D01*
X167200Y179439D01*
X167663Y179748D01*
X167973Y180211D01*
X168081Y180757D01*
X167973Y181304D01*
X167663Y181767D01*
X167200Y182076D01*
X166654Y182185D01*
D02*
G37*
G36*
X201029Y183628D02*
X200483Y183519D01*
X200020Y183210D01*
X199710Y182747D01*
X199602Y182201D01*
X199710Y181654D01*
X200020Y181191D01*
X200483Y180882D01*
X201029Y180773D01*
X201575Y180882D01*
X201753Y181001D01*
X202904D01*
X203083Y180881D01*
X203629Y180773D01*
X204175Y180881D01*
X204638Y181191D01*
X204948Y181654D01*
X205056Y182200D01*
X204948Y182746D01*
X204638Y183209D01*
X204175Y183519D01*
X203629Y183627D01*
X203083Y183519D01*
X202907Y183401D01*
X201752D01*
X201575Y183519D01*
X201029Y183628D01*
D02*
G37*
G36*
X157205Y180185D02*
X156659Y180076D01*
X156482Y179958D01*
X155328D01*
X155151Y180076D01*
X154605Y180185D01*
X154059Y180076D01*
X153596Y179767D01*
X153286Y179304D01*
X153178Y178758D01*
X153286Y178211D01*
X153596Y177748D01*
X154059Y177439D01*
X154605Y177330D01*
X155151Y177439D01*
X155329Y177557D01*
X156481D01*
X156659Y177439D01*
X157205Y177330D01*
X157751Y177439D01*
X158214Y177748D01*
X158524Y178211D01*
X158632Y178758D01*
X158524Y179304D01*
X158214Y179767D01*
X157751Y180076D01*
X157205Y180185D01*
D02*
G37*
G36*
X176102Y176788D02*
X175556Y176679D01*
X175379Y176561D01*
X174225D01*
X174048Y176679D01*
X173502Y176788D01*
X172956Y176679D01*
X172493Y176370D01*
X172183Y175907D01*
X172075Y175361D01*
X172183Y174814D01*
X172493Y174351D01*
X172956Y174042D01*
X173502Y173933D01*
X174048Y174042D01*
X174226Y174161D01*
X175378D01*
X175556Y174042D01*
X176102Y173933D01*
X176648Y174042D01*
X177111Y174351D01*
X177421Y174814D01*
X177529Y175361D01*
X177421Y175907D01*
X177111Y176370D01*
X176648Y176679D01*
X176102Y176788D01*
D02*
G37*
G36*
X161929D02*
X161383Y176679D01*
X161206Y176561D01*
X160052D01*
X159875Y176679D01*
X159329Y176788D01*
X158783Y176679D01*
X158320Y176370D01*
X158010Y175907D01*
X157902Y175361D01*
X158010Y174814D01*
X158320Y174351D01*
X158783Y174042D01*
X159329Y173933D01*
X159875Y174042D01*
X160053Y174161D01*
X161205D01*
X161383Y174042D01*
X161929Y173933D01*
X162475Y174042D01*
X162938Y174351D01*
X163248Y174814D01*
X163356Y175361D01*
X163248Y175907D01*
X162938Y176370D01*
X162475Y176679D01*
X161929Y176788D01*
D02*
G37*
G36*
X302500Y165942D02*
X301876Y165818D01*
X301346Y165464D01*
X300993Y164935D01*
X300869Y164311D01*
X300993Y163686D01*
X301346Y163157D01*
X301876Y162803D01*
X302500Y162679D01*
X303124Y162803D01*
X303654Y163157D01*
X304007Y163686D01*
X304131Y164311D01*
X304007Y164935D01*
X303654Y165464D01*
X303124Y165818D01*
X302500Y165942D01*
D02*
G37*
G36*
X303000Y154442D02*
X302376Y154318D01*
X301847Y153964D01*
X301493Y153435D01*
X301369Y152811D01*
X301493Y152186D01*
X301847Y151657D01*
X302376Y151303D01*
X303000Y151179D01*
X303624Y151303D01*
X304153Y151657D01*
X304507Y152186D01*
X304631Y152811D01*
X304507Y153435D01*
X304153Y153964D01*
X303624Y154318D01*
X303000Y154442D01*
D02*
G37*
%LPD*%
G36*
X85000Y174811D02*
Y169311D01*
X92426Y161886D01*
X92119Y161489D01*
X91573Y161598D01*
X91027Y161489D01*
X90564Y161180D01*
X90254Y160717D01*
X90146Y160170D01*
X90254Y159624D01*
X90374Y159445D01*
Y158396D01*
X90254Y158217D01*
X90146Y157670D01*
X90254Y157124D01*
X90564Y156661D01*
X91027Y156352D01*
X91573Y156243D01*
X92119Y156352D01*
X92582Y156661D01*
X92892Y157124D01*
X93000Y157670D01*
X92892Y158217D01*
X92774Y158393D01*
Y159448D01*
X92892Y159624D01*
X93000Y160170D01*
X92984Y160251D01*
X93427Y160591D01*
X93500Y160555D01*
Y156312D01*
X92000Y154812D01*
X89000D01*
X88500Y155312D01*
Y157311D01*
X77000Y168812D01*
Y172001D01*
X75689Y173311D01*
X71000D01*
X70000Y174311D01*
Y179812D01*
X71500Y181312D01*
X78500D01*
X85000Y174811D01*
D02*
G37*
%LPC*%
G36*
X73500Y179738D02*
X72954Y179629D01*
X72491Y179320D01*
X72181Y178857D01*
X72073Y178311D01*
X72181Y177764D01*
X72300Y177586D01*
Y176535D01*
X72181Y176357D01*
X72073Y175811D01*
X72181Y175264D01*
X72491Y174801D01*
X72954Y174492D01*
X73500Y174383D01*
X74046Y174492D01*
X74509Y174801D01*
X74819Y175264D01*
X74927Y175811D01*
X74819Y176357D01*
X74700Y176534D01*
Y177587D01*
X74819Y177764D01*
X74927Y178311D01*
X74819Y178857D01*
X74509Y179320D01*
X74046Y179629D01*
X73500Y179738D01*
D02*
G37*
%LPD*%
G36*
X279646Y101158D02*
X280176Y100804D01*
X280800Y100680D01*
X281000Y100720D01*
X281500Y100310D01*
Y89811D01*
X280500Y88811D01*
X275000D01*
X274500Y89311D01*
Y92455D01*
X274954Y92758D01*
X275307Y93287D01*
X275431Y93911D01*
X275307Y94536D01*
X274954Y95065D01*
X274424Y95419D01*
X273800Y95543D01*
X273565Y95496D01*
X273000Y96061D01*
X251250D01*
X248500Y93312D01*
Y89811D01*
X248000Y89311D01*
X242000D01*
X241000Y90311D01*
Y93312D01*
X243287Y95598D01*
X243634Y95830D01*
X243865Y96177D01*
X248282Y100594D01*
X248304Y100608D01*
X248318Y100629D01*
X249000Y101312D01*
X279544D01*
X279646Y101158D01*
D02*
G37*
%LPC*%
G36*
X273566Y100313D02*
X272942Y100189D01*
X272412Y99835D01*
X272059Y99306D01*
X271935Y98681D01*
X272059Y98057D01*
X272412Y97528D01*
X272942Y97174D01*
X273566Y97050D01*
X274190Y97174D01*
X274720Y97528D01*
X275073Y98057D01*
X275197Y98681D01*
X275073Y99306D01*
X274720Y99835D01*
X274190Y100189D01*
X273566Y100313D01*
D02*
G37*
%LPD*%
G36*
X77000Y111501D02*
X104689Y83811D01*
X162406D01*
X162493Y83376D01*
X162847Y82847D01*
X163376Y82493D01*
X164000Y82369D01*
X164624Y82493D01*
X165154Y82847D01*
X165507Y83376D01*
X165594Y83811D01*
X166906D01*
X166993Y83376D01*
X167347Y82847D01*
X167876Y82493D01*
X168500Y82369D01*
X169124Y82493D01*
X169653Y82847D01*
X170238Y82821D01*
X170346Y82658D01*
X170500Y82555D01*
Y82279D01*
X170480Y82180D01*
Y76292D01*
X169750Y75561D01*
X167353D01*
X167201Y76061D01*
X167295Y76124D01*
X167648Y76653D01*
X167772Y77277D01*
X167648Y77902D01*
X167295Y78431D01*
X166765Y78785D01*
X166141Y78909D01*
X165517Y78785D01*
X164988Y78431D01*
X164634Y77902D01*
X164510Y77277D01*
X164634Y76653D01*
X164988Y76124D01*
X165081Y76061D01*
X164929Y75561D01*
X85250D01*
X83500Y77311D01*
Y91812D01*
X71626Y103685D01*
X71673Y103922D01*
X71549Y104547D01*
X71405Y104763D01*
X71705Y105213D01*
X71871Y105180D01*
X72495Y105304D01*
X73024Y105658D01*
X73378Y106187D01*
X73502Y106811D01*
X73378Y107436D01*
X73024Y107965D01*
X72495Y108319D01*
X71871Y108443D01*
X71247Y108319D01*
X70718Y107965D01*
X70364Y107436D01*
X70240Y106811D01*
X70364Y106187D01*
X70474Y106023D01*
X70228Y105603D01*
X69746Y105566D01*
X66000Y109311D01*
X19500D01*
X18500Y110311D01*
Y115312D01*
X20189Y117000D01*
X77000D01*
Y111501D01*
D02*
G37*
G36*
X109689Y95311D02*
X130850D01*
X131118Y94811D01*
X130993Y94625D01*
X130869Y94001D01*
X130993Y93376D01*
X131346Y92847D01*
X131876Y92493D01*
X132500Y92369D01*
X133124Y92493D01*
X133653Y92847D01*
X134007Y93376D01*
X134131Y94001D01*
X134007Y94625D01*
X133882Y94811D01*
X134150Y95311D01*
X149500D01*
X151948Y97759D01*
X152409Y97513D01*
X152369Y97312D01*
X152493Y96687D01*
X152847Y96158D01*
X153376Y95804D01*
X154000Y95680D01*
X154624Y95804D01*
X155154Y96158D01*
X155507Y96687D01*
X155631Y97312D01*
X155507Y97936D01*
X155154Y98465D01*
X154624Y98819D01*
X154000Y98943D01*
X153798Y98903D01*
X153552Y99363D01*
X170500Y116312D01*
X219893D01*
X223706Y112498D01*
X223706Y112498D01*
X223200Y111838D01*
X222881Y111070D01*
X222773Y110245D01*
X222881Y109420D01*
X223200Y108652D01*
X223706Y107992D01*
X224366Y107486D01*
X225134Y107167D01*
X225959Y107059D01*
X226784Y107167D01*
X227552Y107486D01*
X228212Y107992D01*
X228212Y107992D01*
X231926Y104279D01*
X231927Y91238D01*
X231880Y88585D01*
X230680Y87384D01*
X225280D01*
X223604Y89061D01*
Y96396D01*
X220946Y99054D01*
X221163Y99577D01*
X221271Y100402D01*
X221163Y101227D01*
X220844Y101995D01*
X220338Y102655D01*
X219678Y103161D01*
X218910Y103480D01*
X218085Y103588D01*
X217260Y103480D01*
X216737Y103263D01*
X209689Y110311D01*
X208598D01*
X208500Y110331D01*
X184000D01*
X183902Y110311D01*
X183500D01*
X170750Y97562D01*
Y97489D01*
X170558Y97202D01*
X170480Y96811D01*
Y91430D01*
X170094Y91113D01*
X170000Y91132D01*
X169376Y91008D01*
X168846Y90654D01*
X168493Y90125D01*
X168369Y89500D01*
X168493Y88876D01*
X168846Y88347D01*
X169376Y87993D01*
X170000Y87869D01*
X170311Y87477D01*
X170324Y87135D01*
X168767Y85579D01*
X168500Y85632D01*
X167876Y85508D01*
X167347Y85154D01*
X167118Y84812D01*
X167005D01*
X166906Y84831D01*
X165594D01*
X165495Y84812D01*
X165382D01*
X165154Y85154D01*
X164624Y85508D01*
X164000Y85632D01*
X163376Y85508D01*
X162847Y85154D01*
X162618Y84812D01*
X162505D01*
X162406Y84831D01*
X135508D01*
X135098Y85331D01*
X135131Y85501D01*
X135007Y86125D01*
X134653Y86654D01*
X134124Y87008D01*
X133500Y87132D01*
X132876Y87008D01*
X132346Y86654D01*
X131993Y86125D01*
X131869Y85501D01*
X131902Y85331D01*
X131492Y84831D01*
X105111D01*
X78020Y111923D01*
Y117000D01*
X88000D01*
X109689Y95311D01*
D02*
G37*
G36*
X215539Y102273D02*
X215326Y101995D01*
X215007Y101227D01*
X214899Y100402D01*
X215007Y99577D01*
X215326Y98809D01*
X215832Y98149D01*
X216492Y97643D01*
X217260Y97324D01*
X218085Y97216D01*
X218910Y97324D01*
X219678Y97643D01*
X219956Y97856D01*
X222354Y95458D01*
Y87112D01*
X224080Y85385D01*
X237390Y85422D01*
X243500Y79312D01*
X265100D01*
Y70311D01*
X237500D01*
X235915Y71897D01*
X235978Y72541D01*
X236154Y72658D01*
X236507Y73187D01*
X236631Y73812D01*
X236507Y74436D01*
X236154Y74965D01*
X236009Y75062D01*
Y75561D01*
X236154Y75658D01*
X236507Y76187D01*
X236631Y76811D01*
X236507Y77436D01*
X236154Y77965D01*
X235624Y78319D01*
X235000Y78443D01*
X234376Y78319D01*
X233846Y77965D01*
X233493Y77436D01*
X233369Y76811D01*
X233493Y76187D01*
X233846Y75658D01*
X233991Y75561D01*
Y75062D01*
X233846Y74965D01*
X233729Y74790D01*
X233085Y74726D01*
X229254Y78557D01*
X220716D01*
X220624Y78619D01*
X220000Y78743D01*
X219376Y78619D01*
X219284Y78557D01*
X216106D01*
X210080Y84584D01*
X209904Y84739D01*
Y96408D01*
X207000Y99312D01*
X184500D01*
X180000Y94811D01*
Y59711D01*
X177300Y57011D01*
X172000D01*
X170600Y58412D01*
Y73911D01*
X171500Y74812D01*
Y82180D01*
X172124Y82304D01*
X172653Y82658D01*
X173007Y83187D01*
X173131Y83811D01*
X173007Y84436D01*
X172653Y84965D01*
X172124Y85319D01*
X171500Y85443D01*
Y88866D01*
X171507Y88876D01*
X171631Y89500D01*
X171507Y90125D01*
X171500Y90136D01*
Y96811D01*
X184000Y109311D01*
X208500D01*
X215539Y102273D01*
D02*
G37*
%LPC*%
G36*
X71871Y115443D02*
X71247Y115319D01*
X70718Y114965D01*
X70364Y114436D01*
X70240Y113812D01*
X70364Y113187D01*
X70718Y112658D01*
X71247Y112304D01*
X71871Y112180D01*
X72495Y112304D01*
X73024Y112658D01*
X73378Y113187D01*
X73502Y113812D01*
X73378Y114436D01*
X73024Y114965D01*
X72495Y115319D01*
X71871Y115443D01*
D02*
G37*
G36*
X132900Y80043D02*
X132276Y79919D01*
X131746Y79565D01*
X131393Y79036D01*
X131269Y78412D01*
X131393Y77787D01*
X131746Y77258D01*
X132276Y76904D01*
X132900Y76780D01*
X133524Y76904D01*
X134054Y77258D01*
X134407Y77787D01*
X134531Y78412D01*
X134407Y79036D01*
X134054Y79565D01*
X133524Y79919D01*
X132900Y80043D01*
D02*
G37*
G36*
X218085Y113431D02*
X217260Y113323D01*
X216492Y113004D01*
X215832Y112498D01*
X215326Y111838D01*
X215007Y111070D01*
X214899Y110245D01*
X215007Y109420D01*
X215326Y108652D01*
X215832Y107992D01*
X216492Y107486D01*
X217260Y107167D01*
X218085Y107059D01*
X218910Y107167D01*
X219678Y107486D01*
X220338Y107992D01*
X220844Y108652D01*
X221163Y109420D01*
X221271Y110245D01*
X221163Y111070D01*
X220844Y111838D01*
X220338Y112498D01*
X219678Y113004D01*
X218910Y113323D01*
X218085Y113431D01*
D02*
G37*
G36*
X93500Y108943D02*
X92876Y108819D01*
X92347Y108465D01*
X91993Y107936D01*
X91869Y107311D01*
X91993Y106687D01*
X92347Y106158D01*
X92876Y105804D01*
X93500Y105680D01*
X94124Y105804D01*
X94653Y106158D01*
X95007Y106687D01*
X95131Y107311D01*
X95007Y107936D01*
X94653Y108465D01*
X94124Y108819D01*
X93500Y108943D01*
D02*
G37*
G36*
X96000Y105943D02*
X95376Y105819D01*
X94846Y105465D01*
X94493Y104936D01*
X94369Y104312D01*
X94493Y103687D01*
X94846Y103158D01*
X95376Y102804D01*
X96000Y102680D01*
X96624Y102804D01*
X97154Y103158D01*
X97507Y103687D01*
X97631Y104312D01*
X97507Y104936D01*
X97154Y105465D01*
X96624Y105819D01*
X96000Y105943D01*
D02*
G37*
G36*
X225959Y103588D02*
X225134Y103480D01*
X224366Y103161D01*
X223706Y102655D01*
X223200Y101995D01*
X222881Y101227D01*
X222773Y100402D01*
X222881Y99577D01*
X223200Y98809D01*
X223706Y98149D01*
X224366Y97643D01*
X225134Y97324D01*
X225959Y97216D01*
X226784Y97324D01*
X227552Y97643D01*
X228212Y98149D01*
X228718Y98809D01*
X229037Y99577D01*
X229145Y100402D01*
X229037Y101227D01*
X228718Y101995D01*
X228212Y102655D01*
X227552Y103161D01*
X226784Y103480D01*
X225959Y103588D01*
D02*
G37*
G36*
X168000Y98632D02*
X167376Y98508D01*
X166847Y98154D01*
X166493Y97625D01*
X166369Y97000D01*
X166493Y96376D01*
X166847Y95847D01*
X167376Y95493D01*
X168000Y95369D01*
X168624Y95493D01*
X169153Y95847D01*
X169507Y96376D01*
X169631Y97000D01*
X169507Y97625D01*
X169153Y98154D01*
X168624Y98508D01*
X168000Y98632D01*
D02*
G37*
G36*
X164000D02*
X163376Y98508D01*
X162847Y98154D01*
X162493Y97625D01*
X162369Y97000D01*
X162493Y96376D01*
X162847Y95847D01*
X163376Y95493D01*
X164000Y95369D01*
X164624Y95493D01*
X165154Y95847D01*
X165507Y96376D01*
X165631Y97000D01*
X165507Y97625D01*
X165154Y98154D01*
X164624Y98508D01*
X164000Y98632D01*
D02*
G37*
G36*
X124752Y93190D02*
X124128Y93066D01*
X123599Y92712D01*
X123245Y92183D01*
X123121Y91558D01*
X123245Y90934D01*
X123599Y90405D01*
X124128Y90051D01*
X124752Y89927D01*
X125376Y90051D01*
X125906Y90405D01*
X126259Y90934D01*
X126383Y91558D01*
X126259Y92183D01*
X125906Y92712D01*
X125376Y93066D01*
X124752Y93190D01*
D02*
G37*
G36*
X120500Y93132D02*
X119876Y93008D01*
X119346Y92654D01*
X118993Y92125D01*
X118869Y91501D01*
X118993Y90876D01*
X119346Y90347D01*
X119876Y89993D01*
X120500Y89869D01*
X121124Y89993D01*
X121653Y90347D01*
X122007Y90876D01*
X122131Y91501D01*
X122007Y92125D01*
X121653Y92654D01*
X121124Y93008D01*
X120500Y93132D01*
D02*
G37*
G36*
X140200Y91143D02*
X139576Y91019D01*
X139047Y90665D01*
X138693Y90136D01*
X138569Y89512D01*
X138580Y89456D01*
X138148Y89061D01*
X137795Y89132D01*
X137171Y89008D01*
X137024Y88909D01*
X136574Y89210D01*
X136631Y89500D01*
X136507Y90125D01*
X136153Y90654D01*
X135624Y91008D01*
X135000Y91132D01*
X134376Y91008D01*
X133846Y90654D01*
X133493Y90125D01*
X133369Y89500D01*
X133493Y88876D01*
X133846Y88347D01*
X134376Y87993D01*
X135000Y87869D01*
X135624Y87993D01*
X135771Y88092D01*
X136221Y87791D01*
X136164Y87501D01*
X136288Y86876D01*
X136642Y86347D01*
X137171Y85993D01*
X137795Y85869D01*
X138419Y85993D01*
X138949Y86347D01*
X139302Y86876D01*
X139426Y87501D01*
X139415Y87556D01*
X139847Y87950D01*
X140200Y87880D01*
X140824Y88004D01*
X141353Y88358D01*
X141707Y88887D01*
X141831Y89512D01*
X141707Y90136D01*
X141353Y90665D01*
X140824Y91019D01*
X140200Y91143D01*
D02*
G37*
G36*
X129950Y91182D02*
X129326Y91058D01*
X128797Y90704D01*
X128443Y90175D01*
X128319Y89551D01*
X128443Y88926D01*
X128797Y88397D01*
X129326Y88043D01*
X129950Y87919D01*
X130574Y88043D01*
X131104Y88397D01*
X131457Y88926D01*
X131581Y89551D01*
X131457Y90175D01*
X131104Y90704D01*
X130574Y91058D01*
X129950Y91182D01*
D02*
G37*
G36*
X155118Y91115D02*
X154494Y90991D01*
X153964Y90637D01*
X153611Y90108D01*
X153487Y89483D01*
X153611Y88859D01*
X153964Y88330D01*
X154494Y87976D01*
X155118Y87852D01*
X155742Y87976D01*
X156272Y88330D01*
X156625Y88859D01*
X156749Y89483D01*
X156625Y90108D01*
X156272Y90637D01*
X155742Y90991D01*
X155118Y91115D01*
D02*
G37*
G36*
X218085Y93746D02*
X217260Y93638D01*
X216492Y93319D01*
X215832Y92813D01*
X215326Y92153D01*
X215007Y91385D01*
X214899Y90560D01*
X215007Y89735D01*
X215326Y88967D01*
X215832Y88307D01*
X216492Y87801D01*
X217260Y87482D01*
X218085Y87374D01*
X218910Y87482D01*
X219678Y87801D01*
X220338Y88307D01*
X220844Y88967D01*
X221163Y89735D01*
X221271Y90560D01*
X221163Y91385D01*
X220844Y92153D01*
X220338Y92813D01*
X219678Y93319D01*
X218910Y93638D01*
X218085Y93746D01*
D02*
G37*
G36*
X175000Y87132D02*
X174376Y87008D01*
X173846Y86654D01*
X173493Y86125D01*
X173369Y85501D01*
X173493Y84876D01*
X173846Y84347D01*
X174376Y83993D01*
X175000Y83869D01*
X175624Y83993D01*
X176154Y84347D01*
X176507Y84876D01*
X176631Y85501D01*
X176507Y86125D01*
X176154Y86654D01*
X175624Y87008D01*
X175000Y87132D01*
D02*
G37*
G36*
X242200Y77115D02*
X241576Y76991D01*
X241047Y76637D01*
X240693Y76108D01*
X240569Y75484D01*
X240693Y74859D01*
X241047Y74330D01*
X241576Y73976D01*
X242200Y73852D01*
X242824Y73976D01*
X243354Y74330D01*
X243707Y74859D01*
X243831Y75484D01*
X243707Y76108D01*
X243354Y76637D01*
X242824Y76991D01*
X242200Y77115D01*
D02*
G37*
G36*
X175590Y74170D02*
X174765Y74062D01*
X173997Y73743D01*
X173337Y73237D01*
X172831Y72577D01*
X172512Y71809D01*
X172404Y70984D01*
X172512Y70159D01*
X172831Y69391D01*
X173337Y68731D01*
X173997Y68225D01*
X174765Y67906D01*
X175590Y67798D01*
X176415Y67906D01*
X177183Y68225D01*
X177843Y68731D01*
X178349Y69391D01*
X178668Y70159D01*
X178776Y70984D01*
X178668Y71809D01*
X178349Y72577D01*
X177843Y73237D01*
X177183Y73743D01*
X176415Y74062D01*
X175590Y74170D01*
D02*
G37*
%LPD*%
G36*
X305000Y92001D02*
X310500D01*
X312500Y90000D01*
Y86501D01*
X311406Y85407D01*
X311124Y85498D01*
X310915Y85623D01*
X310819Y86108D01*
X310509Y86571D01*
X310046Y86880D01*
X309500Y86989D01*
X308954Y86880D01*
X308491Y86571D01*
X308181Y86108D01*
X308073Y85562D01*
X308181Y85015D01*
X308191Y85000D01*
X307924Y84500D01*
X305000D01*
X301000Y80501D01*
X298601D01*
X298124Y80819D01*
X297500Y80943D01*
X296876Y80819D01*
X296399Y80501D01*
X296000D01*
X295000Y79501D01*
X291944D01*
X291829Y79661D01*
X291803Y80214D01*
X292113Y80677D01*
X292221Y81223D01*
X292113Y81770D01*
X291803Y82233D01*
X291340Y82542D01*
X290794Y82651D01*
X290780Y82648D01*
X290311Y83021D01*
Y83025D01*
X290780Y83399D01*
X290794Y83396D01*
X291340Y83505D01*
X291803Y83814D01*
X292113Y84277D01*
X292221Y84824D01*
X292113Y85370D01*
X291803Y85833D01*
X291340Y86142D01*
X290794Y86251D01*
X290500Y86192D01*
X290000Y86532D01*
Y87501D01*
X292000Y89500D01*
Y92501D01*
X295000Y95500D01*
X297082D01*
X297376Y95304D01*
X298000Y95180D01*
X298624Y95304D01*
X298918Y95500D01*
X301500D01*
X305000Y92001D01*
D02*
G37*
%LPC*%
G36*
X309500Y90589D02*
X308954Y90480D01*
X308491Y90171D01*
X308181Y89708D01*
X308073Y89161D01*
X308181Y88615D01*
X308491Y88152D01*
X308954Y87843D01*
X309500Y87734D01*
X310046Y87843D01*
X310509Y88152D01*
X310819Y88615D01*
X310927Y89161D01*
X310819Y89708D01*
X310509Y90171D01*
X310046Y90480D01*
X309500Y90589D01*
D02*
G37*
G36*
X297800Y90539D02*
X297254Y90430D01*
X296791Y90121D01*
X296481Y89658D01*
X296373Y89112D01*
X296481Y88565D01*
X296791Y88102D01*
X297254Y87793D01*
X297800Y87684D01*
X298346Y87793D01*
X298809Y88102D01*
X299119Y88565D01*
X299227Y89112D01*
X299119Y89658D01*
X298809Y90121D01*
X298346Y90430D01*
X297800Y90539D01*
D02*
G37*
G36*
Y86939D02*
X297254Y86830D01*
X296791Y86521D01*
X296481Y86058D01*
X296373Y85511D01*
X296481Y84965D01*
X296791Y84502D01*
X297254Y84193D01*
X297800Y84084D01*
X298346Y84193D01*
X298809Y84502D01*
X299119Y84965D01*
X299227Y85511D01*
X299119Y86058D01*
X298809Y86521D01*
X298346Y86830D01*
X297800Y86939D01*
D02*
G37*
G36*
X3553Y181811D02*
X2679Y181638D01*
X1938Y181142D01*
X1443Y180402D01*
X1269Y179527D01*
X1443Y178653D01*
X1938Y177912D01*
X2679Y177417D01*
X3553Y177243D01*
X4427Y177417D01*
X5168Y177912D01*
X5663Y178653D01*
X5837Y179527D01*
X5663Y180402D01*
X5168Y181142D01*
X4427Y181638D01*
X3553Y181811D01*
D02*
G37*
G36*
X57480Y179615D02*
X56856Y179491D01*
X56327Y179137D01*
X55973Y178608D01*
X55849Y177983D01*
X55973Y177359D01*
X56327Y176830D01*
X56856Y176476D01*
X57480Y176352D01*
X58104Y176476D01*
X58634Y176830D01*
X58987Y177359D01*
X59111Y177983D01*
X58987Y178608D01*
X58634Y179137D01*
X58104Y179491D01*
X57480Y179615D01*
D02*
G37*
G36*
X24924Y175846D02*
X24378Y175737D01*
X23915Y175428D01*
X23605Y174965D01*
X23497Y174418D01*
X23605Y173872D01*
X23724Y173694D01*
Y172643D01*
X23605Y172465D01*
X23497Y171918D01*
X23605Y171372D01*
X23688Y171248D01*
X23857Y170860D01*
X23561Y170607D01*
X23347Y170464D01*
X22993Y169935D01*
X22869Y169310D01*
X22993Y168686D01*
X23347Y168157D01*
X23876Y167803D01*
X24500Y167679D01*
X25124Y167803D01*
X25653Y168157D01*
X26007Y168686D01*
X26131Y169310D01*
X26007Y169935D01*
X25812Y170227D01*
X25872Y170830D01*
X25910Y170894D01*
X25933Y170909D01*
X26243Y171372D01*
X26351Y171918D01*
X26243Y172465D01*
X26124Y172642D01*
Y173695D01*
X26243Y173872D01*
X26351Y174418D01*
X26243Y174965D01*
X25933Y175428D01*
X25470Y175737D01*
X24924Y175846D01*
D02*
G37*
G36*
X43558Y167630D02*
X43012Y167521D01*
X42549Y167212D01*
X42239Y166749D01*
X42131Y166202D01*
X42239Y165656D01*
X42358Y165478D01*
Y164427D01*
X42239Y164249D01*
X42131Y163702D01*
X42239Y163156D01*
X42549Y162693D01*
X43012Y162384D01*
X43558Y162275D01*
X44104Y162384D01*
X44567Y162693D01*
X44877Y163156D01*
X44985Y163702D01*
X44877Y164249D01*
X44758Y164426D01*
Y165479D01*
X44877Y165656D01*
X44985Y166202D01*
X44877Y166749D01*
X44567Y167212D01*
X44104Y167521D01*
X43558Y167630D01*
D02*
G37*
G36*
X34570Y167540D02*
X34024Y167431D01*
X33561Y167122D01*
X33251Y166659D01*
X33143Y166112D01*
X33251Y165566D01*
X33370Y165388D01*
Y164337D01*
X33251Y164159D01*
X33143Y163612D01*
X33251Y163066D01*
X33561Y162603D01*
X34024Y162294D01*
X34570Y162185D01*
X35116Y162294D01*
X35579Y162603D01*
X35889Y163066D01*
X35997Y163612D01*
X35889Y164159D01*
X35770Y164336D01*
Y165389D01*
X35889Y165566D01*
X35997Y166112D01*
X35889Y166659D01*
X35579Y167122D01*
X35116Y167431D01*
X34570Y167540D01*
D02*
G37*
G36*
X20163D02*
X19617Y167431D01*
X19154Y167122D01*
X18844Y166659D01*
X18736Y166112D01*
X18844Y165566D01*
X18963Y165388D01*
Y164337D01*
X18844Y164159D01*
X18736Y163612D01*
X18844Y163066D01*
X19154Y162603D01*
X19617Y162294D01*
X20163Y162185D01*
X20709Y162294D01*
X21172Y162603D01*
X21482Y163066D01*
X21590Y163612D01*
X21482Y164159D01*
X21363Y164336D01*
Y165389D01*
X21482Y165566D01*
X21590Y166112D01*
X21482Y166659D01*
X21172Y167122D01*
X20709Y167431D01*
X20163Y167540D01*
D02*
G37*
G36*
X51785Y157742D02*
X51161Y157618D01*
X50631Y157264D01*
X50278Y156735D01*
X50154Y156111D01*
X50278Y155486D01*
X50631Y154957D01*
X51161Y154603D01*
X51785Y154479D01*
X52409Y154603D01*
X52938Y154957D01*
X53292Y155486D01*
X53416Y156111D01*
X53292Y156735D01*
X52938Y157264D01*
X52409Y157618D01*
X51785Y157742D01*
D02*
G37*
G36*
X73589Y155936D02*
X73043Y155827D01*
X72580Y155518D01*
X72270Y155055D01*
X72162Y154508D01*
X72270Y153962D01*
X72390Y153783D01*
Y152734D01*
X72270Y152555D01*
X72162Y152008D01*
X72270Y151462D01*
X72580Y150999D01*
X73043Y150690D01*
X73589Y150581D01*
X74135Y150690D01*
X74598Y150999D01*
X74908Y151462D01*
X75016Y152008D01*
X74908Y152555D01*
X74790Y152731D01*
Y153786D01*
X74908Y153962D01*
X75016Y154508D01*
X74908Y155055D01*
X74598Y155518D01*
X74135Y155827D01*
X73589Y155936D01*
D02*
G37*
G36*
X33934Y153848D02*
X33388Y153739D01*
X32925Y153430D01*
X32615Y152967D01*
X32507Y152420D01*
X32615Y151874D01*
X32734Y151696D01*
Y150645D01*
X32615Y150467D01*
X32507Y149920D01*
X32615Y149374D01*
X32925Y148911D01*
X33388Y148602D01*
X33934Y148493D01*
X34480Y148602D01*
X34943Y148911D01*
X35253Y149374D01*
X35361Y149920D01*
X35253Y150467D01*
X35134Y150644D01*
Y151697D01*
X35253Y151874D01*
X35361Y152420D01*
X35253Y152967D01*
X34943Y153430D01*
X34480Y153739D01*
X33934Y153848D01*
D02*
G37*
G36*
X3809Y153893D02*
X3035Y153739D01*
X2379Y153301D01*
X1940Y152644D01*
X1786Y151870D01*
Y150492D01*
X1940Y149718D01*
X2379Y149062D01*
X3035Y148623D01*
X3809Y148469D01*
X4583Y148623D01*
X5240Y149062D01*
X5678Y149718D01*
X5832Y150492D01*
Y151870D01*
X5678Y152644D01*
X5240Y153301D01*
X4583Y153739D01*
X3809Y153893D01*
D02*
G37*
G36*
X24924Y153686D02*
X24378Y153577D01*
X23915Y153268D01*
X23605Y152805D01*
X23497Y152259D01*
X23605Y151712D01*
X23724Y151534D01*
Y150483D01*
X23605Y150305D01*
X23497Y149759D01*
X23605Y149212D01*
X23915Y148749D01*
X24378Y148440D01*
X24924Y148331D01*
X25470Y148440D01*
X25933Y148749D01*
X26243Y149212D01*
X26351Y149759D01*
X26243Y150305D01*
X26124Y150482D01*
Y151535D01*
X26243Y151712D01*
X26351Y152259D01*
X26243Y152805D01*
X25933Y153268D01*
X25470Y153577D01*
X24924Y153686D01*
D02*
G37*
G36*
X123100Y172831D02*
X122476Y172707D01*
X121947Y172353D01*
X121593Y171824D01*
X121469Y171200D01*
X121593Y170576D01*
X121947Y170046D01*
X122476Y169693D01*
X123100Y169569D01*
X123724Y169693D01*
X124253Y170046D01*
X124607Y170576D01*
X124731Y171200D01*
X124607Y171824D01*
X124253Y172353D01*
X123724Y172707D01*
X123100Y172831D01*
D02*
G37*
G36*
X114600Y150042D02*
X113976Y149918D01*
X113446Y149564D01*
X113093Y149035D01*
X112969Y148410D01*
X113093Y147786D01*
X113446Y147257D01*
X113976Y146903D01*
X114415Y146816D01*
X114400Y146342D01*
X113776Y146218D01*
X113247Y145864D01*
X112893Y145335D01*
X112769Y144711D01*
X112893Y144086D01*
X113247Y143557D01*
X113776Y143203D01*
X114400Y143079D01*
X115024Y143203D01*
X115553Y143557D01*
X115907Y144086D01*
X116031Y144711D01*
X115907Y145335D01*
X115553Y145864D01*
X115024Y146218D01*
X114585Y146305D01*
X114600Y146779D01*
X115224Y146903D01*
X115753Y147257D01*
X116107Y147786D01*
X116231Y148410D01*
X116107Y149035D01*
X115753Y149564D01*
X115224Y149918D01*
X114600Y150042D01*
D02*
G37*
G36*
X44500Y136442D02*
X43876Y136318D01*
X43347Y135964D01*
X42993Y135435D01*
X42869Y134810D01*
X42993Y134186D01*
X43347Y133657D01*
X43876Y133303D01*
X44500Y133179D01*
X45124Y133303D01*
X45654Y133657D01*
X46007Y134186D01*
X46131Y134810D01*
X46007Y135435D01*
X45654Y135964D01*
X45124Y136318D01*
X44500Y136442D01*
D02*
G37*
G36*
X112204Y136037D02*
X111521Y135901D01*
X110942Y135514D01*
X110556Y134935D01*
X110420Y134252D01*
X110556Y133569D01*
X110759Y133265D01*
X110760Y133262D01*
X110548Y132698D01*
X109549Y132395D01*
X108627Y131903D01*
X108080Y132151D01*
X108078Y132154D01*
X108006Y132513D01*
X107620Y133092D01*
X107041Y133479D01*
X106358Y133615D01*
X105675Y133479D01*
X105096Y133092D01*
X104709Y132513D01*
X104574Y131831D01*
X104709Y131148D01*
X105096Y130569D01*
X105675Y130182D01*
X106034Y130111D01*
X106037Y130109D01*
X106286Y129561D01*
X105793Y128640D01*
X105490Y127640D01*
X104927Y127429D01*
X104923Y127430D01*
X104619Y127633D01*
X103936Y127769D01*
X103253Y127633D01*
X102675Y127246D01*
X102288Y126667D01*
X102152Y125985D01*
X102288Y125302D01*
X102675Y124723D01*
X103253Y124336D01*
X103936Y124200D01*
X104619Y124336D01*
X104923Y124539D01*
X104927Y124540D01*
X105490Y124328D01*
X105793Y123329D01*
X106286Y122408D01*
X106037Y121860D01*
X106034Y121858D01*
X105675Y121787D01*
X105096Y121400D01*
X104709Y120821D01*
X104574Y120138D01*
X104709Y119456D01*
X105096Y118877D01*
X105675Y118490D01*
X106358Y118354D01*
X107041Y118490D01*
X107620Y118877D01*
X108006Y119456D01*
X108078Y119815D01*
X108080Y119817D01*
X108627Y120066D01*
X109549Y119574D01*
X110548Y119271D01*
X110760Y118707D01*
X110759Y118704D01*
X110556Y118400D01*
X110420Y117717D01*
X110556Y117034D01*
X110942Y116455D01*
X111521Y116068D01*
X112204Y115933D01*
X112887Y116068D01*
X113466Y116455D01*
X113853Y117034D01*
X113988Y117717D01*
X113853Y118400D01*
X113649Y118704D01*
X113648Y118707D01*
X113860Y119271D01*
X114859Y119574D01*
X115780Y120066D01*
X116328Y119817D01*
X116330Y119815D01*
X116402Y119456D01*
X116788Y118877D01*
X117367Y118490D01*
X118050Y118354D01*
X118733Y118490D01*
X119312Y118877D01*
X119699Y119456D01*
X119834Y120138D01*
X119699Y120821D01*
X119312Y121400D01*
X118733Y121787D01*
X118374Y121858D01*
X118371Y121860D01*
X118122Y122408D01*
X118615Y123329D01*
X118918Y124328D01*
X119481Y124540D01*
X119484Y124539D01*
X119789Y124336D01*
X120472Y124200D01*
X121154Y124336D01*
X121733Y124723D01*
X122120Y125302D01*
X122256Y125985D01*
X122120Y126667D01*
X121733Y127246D01*
X121154Y127633D01*
X120472Y127769D01*
X119789Y127633D01*
X119484Y127430D01*
X119481Y127429D01*
X118918Y127640D01*
X118615Y128640D01*
X118122Y129561D01*
X118371Y130109D01*
X118374Y130111D01*
X118733Y130182D01*
X119312Y130569D01*
X119699Y131148D01*
X119834Y131831D01*
X119699Y132513D01*
X119312Y133092D01*
X118733Y133479D01*
X118050Y133615D01*
X117367Y133479D01*
X116788Y133092D01*
X116402Y132513D01*
X116330Y132154D01*
X116328Y132151D01*
X115780Y131903D01*
X114859Y132395D01*
X113860Y132698D01*
X113648Y133262D01*
X113649Y133265D01*
X113853Y133569D01*
X113988Y134252D01*
X113853Y134935D01*
X113466Y135514D01*
X112887Y135901D01*
X112204Y136037D01*
D02*
G37*
G36*
X8809Y137767D02*
X8034Y137665D01*
X7312Y137366D01*
X6692Y136890D01*
X6216Y136270D01*
X5917Y135548D01*
X5815Y134773D01*
X5917Y133998D01*
X6216Y133276D01*
X6692Y132656D01*
X7312Y132180D01*
X8034Y131881D01*
X8809Y131779D01*
X9584Y131881D01*
X10306Y132180D01*
X10926Y132656D01*
X11402Y133276D01*
X11701Y133998D01*
X11803Y134773D01*
X11701Y135548D01*
X11402Y136270D01*
X10926Y136890D01*
X10306Y137366D01*
X9584Y137665D01*
X8809Y137767D01*
D02*
G37*
G36*
X-1191D02*
X-1966Y137665D01*
X-2688Y137366D01*
X-3308Y136890D01*
X-3784Y136270D01*
X-4083Y135548D01*
X-4185Y134773D01*
X-4083Y133998D01*
X-3784Y133276D01*
X-3308Y132656D01*
X-2688Y132180D01*
X-1966Y131881D01*
X-1191Y131779D01*
X-416Y131881D01*
X306Y132180D01*
X927Y132656D01*
X1402Y133276D01*
X1701Y133998D01*
X1803Y134773D01*
X1701Y135548D01*
X1402Y136270D01*
X927Y136890D01*
X306Y137366D01*
X-416Y137665D01*
X-1191Y137767D01*
D02*
G37*
G36*
X48000Y132632D02*
X47376Y132508D01*
X46847Y132154D01*
X46493Y131625D01*
X46369Y131000D01*
X46493Y130376D01*
X46847Y129847D01*
X47376Y129493D01*
X48000Y129369D01*
X48624Y129493D01*
X49154Y129847D01*
X49507Y130376D01*
X49631Y131000D01*
X49507Y131625D01*
X49154Y132154D01*
X48624Y132508D01*
X48000Y132632D01*
D02*
G37*
G36*
X59806Y132249D02*
X59182Y132125D01*
X58653Y131771D01*
X58299Y131242D01*
X58175Y130617D01*
X58299Y129993D01*
X58653Y129464D01*
X59182Y129110D01*
X59806Y128986D01*
X60430Y129110D01*
X60960Y129464D01*
X61313Y129993D01*
X61437Y130617D01*
X61313Y131242D01*
X60960Y131771D01*
X60430Y132125D01*
X59806Y132249D01*
D02*
G37*
G36*
X99500Y126443D02*
X98876Y126319D01*
X98347Y125965D01*
X98011Y125464D01*
X97798Y125436D01*
X97702D01*
X97489Y125464D01*
X97154Y125965D01*
X96624Y126319D01*
X96000Y126443D01*
X95376Y126319D01*
X94846Y125965D01*
X94493Y125436D01*
X94369Y124811D01*
X94493Y124187D01*
X94846Y123658D01*
X95376Y123304D01*
X96000Y123180D01*
X96624Y123304D01*
X97154Y123658D01*
X97489Y124159D01*
X97702Y124187D01*
X97798D01*
X98011Y124159D01*
X98347Y123658D01*
X98876Y123304D01*
X99500Y123180D01*
X100124Y123304D01*
X100654Y123658D01*
X101007Y124187D01*
X101131Y124811D01*
X101007Y125436D01*
X100654Y125965D01*
X100124Y126319D01*
X99500Y126443D01*
D02*
G37*
G36*
X-6500Y123540D02*
X-7124Y123416D01*
X-7654Y123062D01*
X-8007Y122533D01*
X-8131Y121908D01*
X-8007Y121284D01*
X-7654Y120755D01*
X-7124Y120401D01*
X-6500Y120277D01*
X-5876Y120401D01*
X-5347Y120755D01*
X-4993Y121284D01*
X-4869Y121908D01*
X-4993Y122533D01*
X-5347Y123062D01*
X-5876Y123416D01*
X-6500Y123540D01*
D02*
G37*
G36*
X20500Y44132D02*
X19876Y44008D01*
X19346Y43654D01*
X18993Y43125D01*
X18869Y42500D01*
X18993Y41876D01*
X19346Y41347D01*
X19876Y40993D01*
X20500Y40869D01*
X21124Y40993D01*
X21654Y41347D01*
X22007Y41876D01*
X22131Y42500D01*
X22007Y43125D01*
X21654Y43654D01*
X21124Y44008D01*
X20500Y44132D01*
D02*
G37*
G36*
X21000Y32864D02*
X20376Y32740D01*
X19847Y32386D01*
X19493Y31857D01*
X19369Y31233D01*
X19493Y30608D01*
X19847Y30079D01*
X20376Y29725D01*
X21000Y29601D01*
X21624Y29725D01*
X22153Y30079D01*
X22507Y30608D01*
X22631Y31233D01*
X22507Y31857D01*
X22153Y32386D01*
X21624Y32740D01*
X21000Y32864D01*
D02*
G37*
G36*
X214000Y4442D02*
X213376Y4318D01*
X212846Y3964D01*
X212750Y3820D01*
X212250D01*
X212154Y3964D01*
X211624Y4318D01*
X211000Y4442D01*
X210376Y4318D01*
X209846Y3964D01*
X209493Y3435D01*
X209369Y2811D01*
X209493Y2186D01*
X209846Y1657D01*
X210376Y1303D01*
X211000Y1179D01*
X211624Y1303D01*
X212154Y1657D01*
X212250Y1801D01*
X212750D01*
X212846Y1657D01*
X213376Y1303D01*
X214000Y1179D01*
X214624Y1303D01*
X215154Y1657D01*
X215507Y2186D01*
X215631Y2811D01*
X215507Y3435D01*
X215154Y3964D01*
X214624Y4318D01*
X214000Y4442D01*
D02*
G37*
G36*
X237480Y2632D02*
X236856Y2508D01*
X236327Y2154D01*
X235973Y1625D01*
X235849Y1001D01*
X235973Y376D01*
X236327Y-153D01*
X236856Y-507D01*
X237480Y-631D01*
X238104Y-507D01*
X238633Y-153D01*
X238987Y376D01*
X239111Y1001D01*
X238987Y1625D01*
X238633Y2154D01*
X238104Y2508D01*
X237480Y2632D01*
D02*
G37*
G36*
X227480D02*
X226856Y2508D01*
X226326Y2154D01*
X225973Y1625D01*
X225849Y1001D01*
X225973Y376D01*
X226326Y-153D01*
X226856Y-507D01*
X227480Y-631D01*
X228104Y-507D01*
X228633Y-153D01*
X228987Y376D01*
X229111Y1001D01*
X228987Y1625D01*
X228633Y2154D01*
X228104Y2508D01*
X227480Y2632D01*
D02*
G37*
G36*
X-0Y10300D02*
X-2010Y10102D01*
X-3942Y9516D01*
X-5128Y8882D01*
X-5722Y8564D01*
X-7283Y7283D01*
X-8564Y5722D01*
X-9516Y3941D01*
X-10102Y2009D01*
X-10300Y0D01*
X-10102Y-2009D01*
X-9516Y-3941D01*
X-8564Y-5722D01*
X-7283Y-7283D01*
X-5722Y-8564D01*
X-5128Y-8882D01*
X-3942Y-9516D01*
X-2010Y-10102D01*
X-0Y-10300D01*
X2009Y-10102D01*
X3941Y-9516D01*
X5722Y-8564D01*
X7283Y-7283D01*
X8564Y-5722D01*
X9515Y-3941D01*
X10102Y-2009D01*
X10299Y0D01*
X10102Y2009D01*
X9515Y3941D01*
X8564Y5722D01*
X7283Y7283D01*
X5722Y8564D01*
X3941Y9516D01*
X2009Y10102D01*
X-0Y10300D01*
D02*
G37*
G36*
X40000Y90943D02*
X39376Y90819D01*
X38846Y90465D01*
X38493Y89936D01*
X38369Y89311D01*
X38493Y88687D01*
X38846Y88158D01*
X39376Y87804D01*
X40000Y87680D01*
X40624Y87804D01*
X41153Y88158D01*
X41507Y88687D01*
X41631Y89311D01*
X41507Y89936D01*
X41153Y90465D01*
X40624Y90819D01*
X40000Y90943D01*
D02*
G37*
G36*
X31000D02*
X30376Y90819D01*
X29847Y90465D01*
X29493Y89936D01*
X29369Y89311D01*
X29493Y88687D01*
X29847Y88158D01*
X30376Y87804D01*
X31000Y87680D01*
X31624Y87804D01*
X32153Y88158D01*
X32507Y88687D01*
X32631Y89311D01*
X32507Y89936D01*
X32153Y90465D01*
X31624Y90819D01*
X31000Y90943D01*
D02*
G37*
G36*
X226240Y57682D02*
X225616Y57558D01*
X225086Y57204D01*
X224733Y56675D01*
X224609Y56050D01*
X224733Y55426D01*
X225086Y54897D01*
X225616Y54543D01*
X226240Y54419D01*
X226864Y54543D01*
X227394Y54897D01*
X227747Y55426D01*
X227871Y56050D01*
X227747Y56675D01*
X227394Y57204D01*
X226864Y57558D01*
X226240Y57682D01*
D02*
G37*
G36*
X235000Y57443D02*
X234376Y57319D01*
X233846Y56965D01*
X233493Y56436D01*
X233369Y55812D01*
X233493Y55187D01*
X233846Y54658D01*
X234376Y54304D01*
X235000Y54180D01*
X235624Y54304D01*
X236154Y54658D01*
X236507Y55187D01*
X236631Y55812D01*
X236507Y56436D01*
X236154Y56965D01*
X235624Y57319D01*
X235000Y57443D01*
D02*
G37*
G36*
X33500Y50632D02*
X32876Y50508D01*
X32346Y50154D01*
X31993Y49625D01*
X31869Y49000D01*
X31993Y48376D01*
X32346Y47847D01*
X32876Y47493D01*
X33500Y47369D01*
X34124Y47493D01*
X34653Y47847D01*
X35007Y48376D01*
X35131Y49000D01*
X35007Y49625D01*
X34653Y50154D01*
X34124Y50508D01*
X33500Y50632D01*
D02*
G37*
G36*
X235000Y42443D02*
X234376Y42319D01*
X233846Y41965D01*
X233493Y41436D01*
X233369Y40811D01*
X233493Y40187D01*
X233846Y39658D01*
X234376Y39304D01*
X235000Y39180D01*
X235624Y39304D01*
X236154Y39658D01*
X236507Y40187D01*
X236631Y40811D01*
X236507Y41436D01*
X236154Y41965D01*
X235624Y42319D01*
X235000Y42443D01*
D02*
G37*
G36*
X230000D02*
X229376Y42319D01*
X228847Y41965D01*
X228493Y41436D01*
X228369Y40811D01*
X228493Y40187D01*
X228847Y39658D01*
X229376Y39304D01*
X230000Y39180D01*
X230624Y39304D01*
X231153Y39658D01*
X231507Y40187D01*
X231631Y40811D01*
X231507Y41436D01*
X231153Y41965D01*
X230624Y42319D01*
X230000Y42443D01*
D02*
G37*
G36*
X135000Y22443D02*
X134376Y22319D01*
X133846Y21965D01*
X133750Y21821D01*
X133250D01*
X133153Y21965D01*
X132624Y22319D01*
X132000Y22443D01*
X131376Y22319D01*
X130847Y21965D01*
X130493Y21436D01*
X130369Y20811D01*
X130493Y20187D01*
X130847Y19658D01*
X131376Y19304D01*
X132000Y19180D01*
X132624Y19304D01*
X133153Y19658D01*
X133250Y19802D01*
X133750D01*
X133846Y19658D01*
X134376Y19304D01*
X135000Y19180D01*
X135624Y19304D01*
X136153Y19658D01*
X136507Y20187D01*
X136631Y20811D01*
X136507Y21436D01*
X136153Y21965D01*
X135624Y22319D01*
X135000Y22443D01*
D02*
G37*
G36*
X144960Y22293D02*
X144336Y22169D01*
X143807Y21815D01*
X143710Y21671D01*
X143210D01*
X143114Y21815D01*
X142584Y22169D01*
X141960Y22293D01*
X141336Y22169D01*
X140806Y21815D01*
X140453Y21286D01*
X140329Y20662D01*
X140453Y20037D01*
X140806Y19508D01*
X141336Y19154D01*
X141960Y19030D01*
X142584Y19154D01*
X143114Y19508D01*
X143210Y19652D01*
X143710D01*
X143807Y19508D01*
X144336Y19154D01*
X144960Y19030D01*
X145584Y19154D01*
X146114Y19508D01*
X146467Y20037D01*
X146591Y20662D01*
X146467Y21286D01*
X146114Y21815D01*
X145584Y22169D01*
X144960Y22293D01*
D02*
G37*
G36*
X75960D02*
X75336Y22169D01*
X74806Y21815D01*
X74710Y21671D01*
X74210D01*
X74114Y21815D01*
X73584Y22169D01*
X72960Y22293D01*
X72336Y22169D01*
X71807Y21815D01*
X71453Y21286D01*
X71329Y20662D01*
X71453Y20037D01*
X71807Y19508D01*
X72336Y19154D01*
X72960Y19030D01*
X73584Y19154D01*
X74114Y19508D01*
X74210Y19652D01*
X74710D01*
X74806Y19508D01*
X75336Y19154D01*
X75960Y19030D01*
X76584Y19154D01*
X77113Y19508D01*
X77467Y20037D01*
X77591Y20662D01*
X77467Y21286D01*
X77113Y21815D01*
X76584Y22169D01*
X75960Y22293D01*
D02*
G37*
G36*
X84480Y22933D02*
X83856Y22809D01*
X83327Y22455D01*
X82973Y21926D01*
X82849Y21302D01*
X82973Y20677D01*
X83327Y20148D01*
X83856Y19794D01*
X84480Y19670D01*
X85104Y19794D01*
X85633Y20148D01*
X85987Y20677D01*
X86111Y21302D01*
X85987Y21926D01*
X85633Y22455D01*
X85104Y22809D01*
X84480Y22933D01*
D02*
G37*
G36*
X232480Y22443D02*
X231856Y22319D01*
X231327Y21965D01*
X230973Y21436D01*
X230849Y20811D01*
X230973Y20187D01*
X231327Y19658D01*
X231856Y19304D01*
X232480Y19180D01*
X233104Y19304D01*
X233633Y19658D01*
X233987Y20187D01*
X234111Y20811D01*
X233987Y21436D01*
X233633Y21965D01*
X233104Y22319D01*
X232480Y22443D01*
D02*
G37*
G36*
X222480D02*
X221856Y22319D01*
X221326Y21965D01*
X220973Y21436D01*
X220849Y20811D01*
X220973Y20187D01*
X221326Y19658D01*
X221856Y19304D01*
X222480Y19180D01*
X223104Y19304D01*
X223634Y19658D01*
X223987Y20187D01*
X224111Y20811D01*
X223987Y21436D01*
X223634Y21965D01*
X223104Y22319D01*
X222480Y22443D01*
D02*
G37*
G36*
X163480D02*
X162856Y22319D01*
X162327Y21965D01*
X161973Y21436D01*
X161849Y20811D01*
X161973Y20187D01*
X162327Y19658D01*
X162856Y19304D01*
X163480Y19180D01*
X164104Y19304D01*
X164634Y19658D01*
X164987Y20187D01*
X165111Y20811D01*
X164987Y21436D01*
X164634Y21965D01*
X164104Y22319D01*
X163480Y22443D01*
D02*
G37*
G36*
X180395Y-30367D02*
X178915D01*
Y-31995D01*
X180173D01*
X180358Y-31986D01*
X180552Y-31977D01*
X180747Y-31967D01*
X180830Y-31958D01*
X180904Y-31949D01*
X180978Y-31930D01*
X181024Y-31921D01*
X181033D01*
X181061Y-31903D01*
X181107Y-31884D01*
X181154Y-31856D01*
X181274Y-31773D01*
X181329Y-31718D01*
X181385Y-31653D01*
X181394Y-31644D01*
X181403Y-31616D01*
X181431Y-31579D01*
X181459Y-31523D01*
X181477Y-31449D01*
X181505Y-31366D01*
X181514Y-31274D01*
X181524Y-31172D01*
Y-31153D01*
Y-31116D01*
X181514Y-31061D01*
X181505Y-30987D01*
X181477Y-30904D01*
X181450Y-30820D01*
X181403Y-30728D01*
X181348Y-30654D01*
X181339Y-30645D01*
X181320Y-30617D01*
X181274Y-30589D01*
X181218Y-30543D01*
X181154Y-30497D01*
X181070Y-30460D01*
X180969Y-30423D01*
X180858Y-30395D01*
X180848D01*
X180821Y-30386D01*
X180765D01*
X180682Y-30376D01*
X180478D01*
X180395Y-30367D01*
D02*
G37*
G36*
X152543D02*
X151581D01*
Y-32189D01*
X152469D01*
X152534Y-32180D01*
X152701D01*
X152867Y-32171D01*
X153034Y-32152D01*
X153182Y-32125D01*
X153246Y-32115D01*
X153302Y-32097D01*
X153311Y-32088D01*
X153348Y-32078D01*
X153394Y-32051D01*
X153450Y-32023D01*
X153515Y-31977D01*
X153579Y-31921D01*
X153653Y-31856D01*
X153709Y-31782D01*
X153718Y-31773D01*
X153737Y-31745D01*
X153755Y-31699D01*
X153783Y-31634D01*
X153811Y-31560D01*
X153838Y-31477D01*
X153848Y-31385D01*
X153857Y-31283D01*
Y-31264D01*
Y-31227D01*
X153848Y-31163D01*
X153829Y-31079D01*
X153801Y-30987D01*
X153764Y-30885D01*
X153718Y-30793D01*
X153644Y-30700D01*
X153635Y-30691D01*
X153607Y-30663D01*
X153561Y-30626D01*
X153505Y-30580D01*
X153431Y-30524D01*
X153339Y-30478D01*
X153237Y-30441D01*
X153126Y-30413D01*
X153117D01*
X153080Y-30404D01*
X153015Y-30395D01*
X152923Y-30386D01*
X152802D01*
X152719Y-30376D01*
X152636D01*
X152543Y-30367D01*
D02*
G37*
G36*
X133673Y-30367D02*
X132193D01*
Y-31995D01*
X133451D01*
X133636Y-31986D01*
X133831Y-31977D01*
X134025Y-31967D01*
X134108Y-31958D01*
X134182Y-31949D01*
X134256Y-31930D01*
X134302Y-31921D01*
X134312D01*
X134339Y-31903D01*
X134386Y-31884D01*
X134432Y-31856D01*
X134552Y-31773D01*
X134608Y-31718D01*
X134663Y-31653D01*
X134672Y-31644D01*
X134682Y-31616D01*
X134709Y-31579D01*
X134737Y-31523D01*
X134756Y-31449D01*
X134783Y-31366D01*
X134793Y-31274D01*
X134802Y-31172D01*
Y-31153D01*
Y-31116D01*
X134793Y-31061D01*
X134783Y-30987D01*
X134756Y-30904D01*
X134728Y-30820D01*
X134682Y-30728D01*
X134626Y-30654D01*
X134617Y-30645D01*
X134598Y-30617D01*
X134552Y-30589D01*
X134497Y-30543D01*
X134432Y-30497D01*
X134349Y-30460D01*
X134247Y-30423D01*
X134136Y-30395D01*
X134127D01*
X134099Y-30386D01*
X134043D01*
X133960Y-30376D01*
X133757D01*
X133673Y-30367D01*
D02*
G37*
G36*
X115007Y-30774D02*
X114137Y-33151D01*
X115904D01*
X115007Y-30774D01*
D02*
G37*
G36*
X159092Y-30265D02*
X159018D01*
X158963Y-30275D01*
X158889Y-30284D01*
X158815Y-30293D01*
X158630Y-30330D01*
X158426Y-30404D01*
X158315Y-30441D01*
X158204Y-30497D01*
X158103Y-30561D01*
X157992Y-30635D01*
X157890Y-30719D01*
X157797Y-30820D01*
X157788Y-30830D01*
X157779Y-30848D01*
X157751Y-30876D01*
X157723Y-30922D01*
X157686Y-30987D01*
X157649Y-31052D01*
X157603Y-31135D01*
X157557Y-31237D01*
X157511Y-31348D01*
X157464Y-31468D01*
X157427Y-31607D01*
X157390Y-31755D01*
X157363Y-31921D01*
X157335Y-32097D01*
X157326Y-32282D01*
X157316Y-32485D01*
Y-32495D01*
Y-32532D01*
Y-32587D01*
X157326Y-32661D01*
X157335Y-32754D01*
X157344Y-32865D01*
X157363Y-32976D01*
X157381Y-33105D01*
X157437Y-33373D01*
X157529Y-33642D01*
X157585Y-33780D01*
X157649Y-33910D01*
X157733Y-34030D01*
X157816Y-34141D01*
X157825Y-34150D01*
X157844Y-34169D01*
X157871Y-34197D01*
X157908Y-34224D01*
X157955Y-34271D01*
X158019Y-34317D01*
X158084Y-34372D01*
X158167Y-34419D01*
X158343Y-34530D01*
X158565Y-34613D01*
X158685Y-34650D01*
X158815Y-34678D01*
X158954Y-34696D01*
X159092Y-34705D01*
X159166D01*
X159222Y-34696D01*
X159287Y-34687D01*
X159361Y-34678D01*
X159536Y-34631D01*
X159740Y-34567D01*
X159842Y-34520D01*
X159953Y-34474D01*
X160054Y-34409D01*
X160165Y-34335D01*
X160267Y-34252D01*
X160360Y-34150D01*
X160369Y-34141D01*
X160378Y-34123D01*
X160406Y-34095D01*
X160434Y-34049D01*
X160480Y-33984D01*
X160517Y-33910D01*
X160563Y-33827D01*
X160609Y-33725D01*
X160656Y-33614D01*
X160702Y-33494D01*
X160748Y-33355D01*
X160785Y-33198D01*
X160813Y-33040D01*
X160841Y-32865D01*
X160850Y-32670D01*
X160859Y-32467D01*
Y-32458D01*
Y-32421D01*
Y-32365D01*
X160850Y-32282D01*
X160841Y-32189D01*
X160831Y-32088D01*
X160822Y-31967D01*
X160794Y-31847D01*
X160739Y-31579D01*
X160656Y-31301D01*
X160600Y-31163D01*
X160535Y-31042D01*
X160452Y-30922D01*
X160369Y-30811D01*
X160360Y-30802D01*
X160350Y-30783D01*
X160323Y-30765D01*
X160286Y-30728D01*
X160230Y-30682D01*
X160175Y-30635D01*
X160110Y-30589D01*
X160027Y-30534D01*
X159943Y-30487D01*
X159842Y-30441D01*
X159629Y-30349D01*
X159509Y-30312D01*
X159379Y-30293D01*
X159240Y-30275D01*
X159092Y-30265D01*
D02*
G37*
%LPD*%
D145*
X303366Y143311D02*
D03*
Y179311D02*
D03*
D146*
X175590Y60984D02*
D03*
X225959Y90560D02*
D03*
D153*
X-8455Y148346D02*
D03*
Y182362D02*
D03*
D156*
X8868Y149626D02*
D03*
Y181083D02*
D03*
D157*
X11427Y148346D02*
D03*
Y182362D02*
D03*
D160*
X146413Y154397D02*
D03*
X198800Y182201D02*
D03*
X206000Y182200D02*
D03*
X147500Y182310D02*
D03*
X153300Y176811D02*
D03*
X154000Y182310D02*
D03*
X159500Y179811D02*
D03*
X160500Y177260D02*
D03*
X165500Y182810D02*
D03*
X174673Y177260D02*
D03*
X189880Y197301D02*
D03*
X190000Y203310D02*
D03*
X199600Y187101D02*
D03*
X202000Y200310D02*
D03*
X205538Y194911D02*
D03*
X209300Y193710D02*
D03*
X214800D02*
D03*
X22163Y162031D02*
D03*
Y167693D02*
D03*
X22924Y176000D02*
D03*
X22948Y150962D02*
D03*
X248500Y199311D02*
D03*
X265300Y198811D02*
D03*
X274050Y199811D02*
D03*
X291000Y87312D02*
D03*
X293000Y80312D02*
D03*
X295500Y84812D02*
D03*
X297700Y91312D02*
D03*
X311100Y87312D02*
D03*
X33591Y154595D02*
D03*
X-3496Y175689D02*
D03*
X35910Y151216D02*
D03*
X36570Y162031D02*
D03*
Y167693D02*
D03*
X-3852Y167259D02*
D03*
X41558Y162120D02*
D03*
Y167783D02*
D03*
X-4496Y155190D02*
D03*
X50358Y198310D02*
D03*
X55858D02*
D03*
X61500Y206610D02*
D03*
X70000Y187110D02*
D03*
Y192611D02*
D03*
X71500Y174230D02*
D03*
Y179892D02*
D03*
X71589Y150427D02*
D03*
Y156089D02*
D03*
X89573D02*
D03*
Y161750D02*
D03*
D161*
X124000Y3311D02*
D03*
Y6810D02*
D03*
X12452Y178117D02*
D03*
X127000Y3311D02*
D03*
Y6810D02*
D03*
X131500Y204811D02*
D03*
X131960Y41157D02*
D03*
X134700Y230311D02*
D03*
X134960Y41157D02*
D03*
X137999Y230311D02*
D03*
X138000Y199811D02*
D03*
X141300Y230311D02*
D03*
X144499D02*
D03*
X148819Y162311D02*
D03*
X149500Y167810D02*
D03*
X15000Y84812D02*
D03*
Y88311D02*
D03*
Y91812D02*
D03*
X153543Y162311D02*
D03*
Y167810D02*
D03*
X158267Y162311D02*
D03*
Y167810D02*
D03*
X15980Y211983D02*
D03*
Y215984D02*
D03*
X162992Y162311D02*
D03*
Y167810D02*
D03*
X167716Y162311D02*
D03*
Y167810D02*
D03*
X169291Y77101D02*
D03*
X172441Y162311D02*
D03*
Y167810D02*
D03*
X17366Y178117D02*
D03*
X17480Y154035D02*
D03*
Y159941D02*
D03*
Y169783D02*
D03*
X177165Y162311D02*
D03*
Y167810D02*
D03*
X187800Y101900D02*
D03*
X188500Y92312D02*
D03*
X189700Y103700D02*
D03*
X190300Y101200D02*
D03*
X191500Y92312D02*
D03*
X191600Y105601D02*
D03*
X19480Y211983D02*
D03*
Y215984D02*
D03*
X195500Y92312D02*
D03*
X198000D02*
D03*
X20000Y111811D02*
D03*
Y115312D02*
D03*
X200960Y40156D02*
D03*
X201000Y2811D02*
D03*
X203960Y40156D02*
D03*
X204000Y2811D02*
D03*
X209000Y60312D02*
D03*
Y63811D02*
D03*
X21000Y84812D02*
D03*
Y88311D02*
D03*
Y91812D02*
D03*
X217000Y129311D02*
D03*
X219480Y160984D02*
D03*
X222480D02*
D03*
X224524Y210983D02*
D03*
Y215984D02*
D03*
X225480Y160984D02*
D03*
X229524Y210983D02*
D03*
Y215984D02*
D03*
X230000Y55812D02*
D03*
Y74812D02*
D03*
X231592Y150595D02*
D03*
X232500Y58811D02*
D03*
Y71811D02*
D03*
X232980Y165483D02*
D03*
X23480Y142483D02*
D03*
X236092Y150595D02*
D03*
X238130Y206484D02*
D03*
X242520Y90611D02*
D03*
X24500Y42500D02*
D03*
X247000Y90812D02*
D03*
X247579Y206484D02*
D03*
X250500Y90812D02*
D03*
X255000D02*
D03*
X257028Y206484D02*
D03*
Y242336D02*
D03*
X259500Y77311D02*
D03*
X260000Y108811D02*
D03*
X262044Y224310D02*
D03*
X262500Y77311D02*
D03*
X262771Y93783D02*
D03*
X263500Y108811D02*
D03*
X26480Y142483D02*
D03*
X266477Y206484D02*
D03*
Y242336D02*
D03*
X266704Y186484D02*
D03*
X267000Y20811D02*
D03*
X270000D02*
D03*
X270500Y92511D02*
D03*
X27160Y170171D02*
D03*
X273000Y20811D02*
D03*
X275925Y206484D02*
D03*
X276020Y90611D02*
D03*
X277500Y111811D02*
D03*
X279960Y40156D02*
D03*
X280000Y2811D02*
D03*
X280500Y111811D02*
D03*
Y90812D02*
D03*
X281500Y114312D02*
D03*
X282960Y40156D02*
D03*
X283000Y2811D02*
D03*
X283500Y90812D02*
D03*
X289000D02*
D03*
X289960Y40156D02*
D03*
X292960D02*
D03*
X294500Y183310D02*
D03*
Y187811D02*
D03*
X295917Y153048D02*
D03*
X296000Y25811D02*
D03*
X30000Y206810D02*
D03*
X302500Y168810D02*
D03*
X303000Y156810D02*
D03*
X31480Y169464D02*
D03*
X33980Y176202D02*
D03*
X34000Y2811D02*
D03*
X37000D02*
D03*
X38500Y206810D02*
D03*
X4587Y155018D02*
D03*
Y160925D02*
D03*
Y170766D02*
D03*
X48485Y206810D02*
D03*
X49500Y89811D02*
D03*
Y93312D02*
D03*
X53000Y89811D02*
D03*
Y93312D02*
D03*
X56500Y181349D02*
D03*
X57500Y163311D02*
D03*
Y168310D02*
D03*
X57933Y206810D02*
D03*
Y242336D02*
D03*
X59000Y122310D02*
D03*
X61729Y106811D02*
D03*
X62500Y181349D02*
D03*
X62960Y21157D02*
D03*
X65960D02*
D03*
X66500Y150410D02*
D03*
X67382Y242336D02*
D03*
X68000Y207000D02*
D03*
X72000Y171310D02*
D03*
X75000D02*
D03*
X80500Y110811D02*
D03*
Y114312D02*
D03*
X84000Y107412D02*
D03*
Y110811D02*
D03*
Y114312D02*
D03*
X84500Y129811D02*
D03*
Y133310D02*
D03*
X84921Y140890D02*
D03*
X85000Y137311D02*
D03*
D162*
X320474Y104319D02*
X322024D01*
X318924D02*
X320474D01*
X304017D02*
X306167D01*
X301867D02*
X304017D01*
Y70303D02*
X306167D01*
X301867D02*
X304017D01*
X320474D02*
X322024D01*
X318924D02*
X320474D01*
M02*
