G04*
G04 #@! TF.GenerationSoftware,Altium Limited,Altium Designer,23.2.1 (34)*
G04*
G04 Layer_Color=255*
%FSLAX25Y25*%
%MOIN*%
G70*
G04*
G04 #@! TF.SameCoordinates,387CD6D3-576D-47AB-95CD-A910FB3B32EF*
G04*
G04*
G04 #@! TF.FilePolarity,Positive*
G04*
G01*
G75*
%ADD21R,0.05000X0.14488*%
G04:AMPARAMS|DCode=22|XSize=21.26mil|YSize=23.62mil|CornerRadius=5.53mil|HoleSize=0mil|Usage=FLASHONLY|Rotation=180.000|XOffset=0mil|YOffset=0mil|HoleType=Round|Shape=RoundedRectangle|*
%AMROUNDEDRECTD22*
21,1,0.02126,0.01257,0,0,180.0*
21,1,0.01021,0.02362,0,0,180.0*
1,1,0.01106,-0.00510,0.00628*
1,1,0.01106,0.00510,0.00628*
1,1,0.01106,0.00510,-0.00628*
1,1,0.01106,-0.00510,-0.00628*
%
%ADD22ROUNDEDRECTD22*%
G04:AMPARAMS|DCode=23|XSize=19.68mil|YSize=23.62mil|CornerRadius=5.12mil|HoleSize=0mil|Usage=FLASHONLY|Rotation=0.000|XOffset=0mil|YOffset=0mil|HoleType=Round|Shape=RoundedRectangle|*
%AMROUNDEDRECTD23*
21,1,0.01968,0.01339,0,0,0.0*
21,1,0.00945,0.02362,0,0,0.0*
1,1,0.01024,0.00472,-0.00669*
1,1,0.01024,-0.00472,-0.00669*
1,1,0.01024,-0.00472,0.00669*
1,1,0.01024,0.00472,0.00669*
%
%ADD23ROUNDEDRECTD23*%
%ADD24R,0.02900X0.11000*%
%ADD25R,0.05512X0.08268*%
%ADD26C,0.01000*%
G04:AMPARAMS|DCode=27|XSize=21.26mil|YSize=23.62mil|CornerRadius=5.53mil|HoleSize=0mil|Usage=FLASHONLY|Rotation=90.000|XOffset=0mil|YOffset=0mil|HoleType=Round|Shape=RoundedRectangle|*
%AMROUNDEDRECTD27*
21,1,0.02126,0.01257,0,0,90.0*
21,1,0.01021,0.02362,0,0,90.0*
1,1,0.01106,0.00628,0.00510*
1,1,0.01106,0.00628,-0.00510*
1,1,0.01106,-0.00628,-0.00510*
1,1,0.01106,-0.00628,0.00510*
%
%ADD27ROUNDEDRECTD27*%
%ADD28R,0.03740X0.05512*%
%ADD29R,0.04528X0.02953*%
%ADD30R,0.02953X0.03150*%
%ADD31R,0.03268X0.02047*%
%ADD32R,0.01870X0.01181*%
%ADD33C,0.03937*%
%ADD34R,0.07165X0.04724*%
%ADD35R,0.04500X0.02300*%
%ADD36R,0.04500X0.01200*%
G04:AMPARAMS|DCode=37|XSize=57.87mil|YSize=18.9mil|CornerRadius=2.36mil|HoleSize=0mil|Usage=FLASHONLY|Rotation=0.000|XOffset=0mil|YOffset=0mil|HoleType=Round|Shape=RoundedRectangle|*
%AMROUNDEDRECTD37*
21,1,0.05787,0.01417,0,0,0.0*
21,1,0.05315,0.01890,0,0,0.0*
1,1,0.00472,0.02657,-0.00709*
1,1,0.00472,-0.02657,-0.00709*
1,1,0.00472,-0.02657,0.00709*
1,1,0.00472,0.02657,0.00709*
%
%ADD37ROUNDEDRECTD37*%
%ADD38R,0.02600X0.03700*%
%ADD39R,0.03700X0.02600*%
G04:AMPARAMS|DCode=40|XSize=19.68mil|YSize=23.62mil|CornerRadius=5.12mil|HoleSize=0mil|Usage=FLASHONLY|Rotation=90.000|XOffset=0mil|YOffset=0mil|HoleType=Round|Shape=RoundedRectangle|*
%AMROUNDEDRECTD40*
21,1,0.01968,0.01339,0,0,90.0*
21,1,0.00945,0.02362,0,0,90.0*
1,1,0.01024,0.00669,0.00472*
1,1,0.01024,0.00669,-0.00472*
1,1,0.01024,-0.00669,-0.00472*
1,1,0.01024,-0.00669,0.00472*
%
%ADD40ROUNDEDRECTD40*%
%ADD41R,0.01575X0.07480*%
%ADD42C,0.00800*%
G04:AMPARAMS|DCode=43|XSize=23.62mil|YSize=7.87mil|CornerRadius=0.98mil|HoleSize=0mil|Usage=FLASHONLY|Rotation=180.000|XOffset=0mil|YOffset=0mil|HoleType=Round|Shape=RoundedRectangle|*
%AMROUNDEDRECTD43*
21,1,0.02362,0.00591,0,0,180.0*
21,1,0.02165,0.00787,0,0,180.0*
1,1,0.00197,-0.01083,0.00295*
1,1,0.00197,0.01083,0.00295*
1,1,0.00197,0.01083,-0.00295*
1,1,0.00197,-0.01083,-0.00295*
%
%ADD43ROUNDEDRECTD43*%
G04:AMPARAMS|DCode=44|XSize=27.56mil|YSize=7.87mil|CornerRadius=0.98mil|HoleSize=0mil|Usage=FLASHONLY|Rotation=90.000|XOffset=0mil|YOffset=0mil|HoleType=Round|Shape=RoundedRectangle|*
%AMROUNDEDRECTD44*
21,1,0.02756,0.00591,0,0,90.0*
21,1,0.02559,0.00787,0,0,90.0*
1,1,0.00197,0.00295,0.01280*
1,1,0.00197,0.00295,-0.01280*
1,1,0.00197,-0.00295,-0.01280*
1,1,0.00197,-0.00295,0.01280*
%
%ADD44ROUNDEDRECTD44*%
G04:AMPARAMS|DCode=45|XSize=23.62mil|YSize=7.87mil|CornerRadius=0.98mil|HoleSize=0mil|Usage=FLASHONLY|Rotation=90.000|XOffset=0mil|YOffset=0mil|HoleType=Round|Shape=RoundedRectangle|*
%AMROUNDEDRECTD45*
21,1,0.02362,0.00591,0,0,90.0*
21,1,0.02165,0.00787,0,0,90.0*
1,1,0.00197,0.00295,0.01083*
1,1,0.00197,0.00295,-0.01083*
1,1,0.00197,-0.00295,-0.01083*
1,1,0.00197,-0.00295,0.01083*
%
%ADD45ROUNDEDRECTD45*%
%ADD46R,0.00787X0.02756*%
G04:AMPARAMS|DCode=47|XSize=25.59mil|YSize=15.75mil|CornerRadius=3.94mil|HoleSize=0mil|Usage=FLASHONLY|Rotation=180.000|XOffset=0mil|YOffset=0mil|HoleType=Round|Shape=RoundedRectangle|*
%AMROUNDEDRECTD47*
21,1,0.02559,0.00787,0,0,180.0*
21,1,0.01772,0.01575,0,0,180.0*
1,1,0.00787,-0.00886,0.00394*
1,1,0.00787,0.00886,0.00394*
1,1,0.00787,0.00886,-0.00394*
1,1,0.00787,-0.00886,-0.00394*
%
%ADD47ROUNDEDRECTD47*%
G04:AMPARAMS|DCode=48|XSize=25.59mil|YSize=11.81mil|CornerRadius=2.95mil|HoleSize=0mil|Usage=FLASHONLY|Rotation=180.000|XOffset=0mil|YOffset=0mil|HoleType=Round|Shape=RoundedRectangle|*
%AMROUNDEDRECTD48*
21,1,0.02559,0.00591,0,0,180.0*
21,1,0.01968,0.01181,0,0,180.0*
1,1,0.00591,-0.00984,0.00295*
1,1,0.00591,0.00984,0.00295*
1,1,0.00591,0.00984,-0.00295*
1,1,0.00591,-0.00984,-0.00295*
%
%ADD48ROUNDEDRECTD48*%
%ADD49R,0.15000X0.08000*%
%ADD50R,0.03150X0.01063*%
%ADD51R,0.03543X0.01063*%
G04:AMPARAMS|DCode=52|XSize=22.24mil|YSize=7.87mil|CornerRadius=1.97mil|HoleSize=0mil|Usage=FLASHONLY|Rotation=0.000|XOffset=0mil|YOffset=0mil|HoleType=Round|Shape=RoundedRectangle|*
%AMROUNDEDRECTD52*
21,1,0.02224,0.00394,0,0,0.0*
21,1,0.01831,0.00787,0,0,0.0*
1,1,0.00394,0.00915,-0.00197*
1,1,0.00394,-0.00915,-0.00197*
1,1,0.00394,-0.00915,0.00197*
1,1,0.00394,0.00915,0.00197*
%
%ADD52ROUNDEDRECTD52*%
G04:AMPARAMS|DCode=53|XSize=22.24mil|YSize=7.87mil|CornerRadius=0.98mil|HoleSize=0mil|Usage=FLASHONLY|Rotation=0.000|XOffset=0mil|YOffset=0mil|HoleType=Round|Shape=RoundedRectangle|*
%AMROUNDEDRECTD53*
21,1,0.02224,0.00591,0,0,0.0*
21,1,0.02028,0.00787,0,0,0.0*
1,1,0.00197,0.01014,-0.00295*
1,1,0.00197,-0.01014,-0.00295*
1,1,0.00197,-0.01014,0.00295*
1,1,0.00197,0.01014,0.00295*
%
%ADD53ROUNDEDRECTD53*%
G04:AMPARAMS|DCode=54|XSize=25.98mil|YSize=8.66mil|CornerRadius=1.08mil|HoleSize=0mil|Usage=FLASHONLY|Rotation=180.000|XOffset=0mil|YOffset=0mil|HoleType=Round|Shape=RoundedRectangle|*
%AMROUNDEDRECTD54*
21,1,0.02598,0.00650,0,0,180.0*
21,1,0.02382,0.00866,0,0,180.0*
1,1,0.00217,-0.01191,0.00325*
1,1,0.00217,0.01191,0.00325*
1,1,0.00217,0.01191,-0.00325*
1,1,0.00217,-0.01191,-0.00325*
%
%ADD54ROUNDEDRECTD54*%
G04:AMPARAMS|DCode=55|XSize=8.66mil|YSize=25.98mil|CornerRadius=1.08mil|HoleSize=0mil|Usage=FLASHONLY|Rotation=180.000|XOffset=0mil|YOffset=0mil|HoleType=Round|Shape=RoundedRectangle|*
%AMROUNDEDRECTD55*
21,1,0.00866,0.02382,0,0,180.0*
21,1,0.00650,0.02598,0,0,180.0*
1,1,0.00217,-0.00325,0.01191*
1,1,0.00217,0.00325,0.01191*
1,1,0.00217,0.00325,-0.01191*
1,1,0.00217,-0.00325,-0.01191*
%
%ADD55ROUNDEDRECTD55*%
%ADD56R,0.04528X0.05118*%
%ADD57R,0.02362X0.01181*%
%ADD58R,0.01654X0.00866*%
G04:AMPARAMS|DCode=59|XSize=47.64mil|YSize=22.84mil|CornerRadius=2.85mil|HoleSize=0mil|Usage=FLASHONLY|Rotation=180.000|XOffset=0mil|YOffset=0mil|HoleType=Round|Shape=RoundedRectangle|*
%AMROUNDEDRECTD59*
21,1,0.04764,0.01713,0,0,180.0*
21,1,0.04193,0.02284,0,0,180.0*
1,1,0.00571,-0.02097,0.00856*
1,1,0.00571,0.02097,0.00856*
1,1,0.00571,0.02097,-0.00856*
1,1,0.00571,-0.02097,-0.00856*
%
%ADD59ROUNDEDRECTD59*%
%ADD60R,0.05807X0.01181*%
%ADD61R,0.01181X0.05807*%
%ADD62O,0.01181X0.05807*%
%ADD63R,0.01614X0.08937*%
%ADD64R,0.01614X0.08937*%
%ADD65R,0.10000X0.01693*%
%ADD66R,0.18504X0.01693*%
G04:AMPARAMS|DCode=67|XSize=25.59mil|YSize=15.75mil|CornerRadius=3.94mil|HoleSize=0mil|Usage=FLASHONLY|Rotation=90.000|XOffset=0mil|YOffset=0mil|HoleType=Round|Shape=RoundedRectangle|*
%AMROUNDEDRECTD67*
21,1,0.02559,0.00787,0,0,90.0*
21,1,0.01772,0.01575,0,0,90.0*
1,1,0.00787,0.00394,0.00886*
1,1,0.00787,0.00394,-0.00886*
1,1,0.00787,-0.00394,-0.00886*
1,1,0.00787,-0.00394,0.00886*
%
%ADD67ROUNDEDRECTD67*%
G04:AMPARAMS|DCode=68|XSize=25.59mil|YSize=11.81mil|CornerRadius=2.95mil|HoleSize=0mil|Usage=FLASHONLY|Rotation=90.000|XOffset=0mil|YOffset=0mil|HoleType=Round|Shape=RoundedRectangle|*
%AMROUNDEDRECTD68*
21,1,0.02559,0.00591,0,0,90.0*
21,1,0.01968,0.01181,0,0,90.0*
1,1,0.00591,0.00295,0.00984*
1,1,0.00591,0.00295,-0.00984*
1,1,0.00591,-0.00295,-0.00984*
1,1,0.00591,-0.00295,0.00984*
%
%ADD68ROUNDEDRECTD68*%
%ADD130R,0.03543X0.10630*%
%ADD145C,0.09095*%
%ADD146C,0.05118*%
%ADD147C,0.21260*%
%ADD148C,0.02600*%
%ADD149O,0.08268X0.03937*%
%ADD150O,0.07087X0.03937*%
%ADD151R,0.05937X0.05937*%
%ADD152C,0.05937*%
%ADD153O,0.10236X0.05118*%
%ADD154O,0.01968X0.03347*%
%ADD155C,0.02480*%
%ADD156O,0.04724X0.06496*%
%ADD157O,0.09055X0.04724*%
%ADD158C,0.11811*%
%ADD159C,0.04016*%
D21*
X291480Y31232D02*
D03*
Y11736D02*
D03*
X281480Y31232D02*
D03*
Y11736D02*
D03*
X271480Y31232D02*
D03*
Y11736D02*
D03*
X252480Y31232D02*
D03*
Y11736D02*
D03*
X242480Y31232D02*
D03*
Y11736D02*
D03*
X232480Y31232D02*
D03*
Y11736D02*
D03*
X222480Y31232D02*
D03*
Y11736D02*
D03*
X212480Y31232D02*
D03*
Y11736D02*
D03*
X202480Y31232D02*
D03*
Y11736D02*
D03*
X183480Y31232D02*
D03*
Y11736D02*
D03*
X173480Y31232D02*
D03*
Y11736D02*
D03*
X163480Y31232D02*
D03*
Y11736D02*
D03*
X153480Y31232D02*
D03*
Y11736D02*
D03*
X143480Y31232D02*
D03*
Y11736D02*
D03*
X133480Y31232D02*
D03*
Y11736D02*
D03*
X114480Y31232D02*
D03*
Y11736D02*
D03*
X104480Y31232D02*
D03*
Y11736D02*
D03*
X94480Y31232D02*
D03*
Y11736D02*
D03*
X84480Y31232D02*
D03*
Y11736D02*
D03*
X74480Y31232D02*
D03*
Y11736D02*
D03*
X64480Y31232D02*
D03*
Y11736D02*
D03*
X45480Y31232D02*
D03*
Y11736D02*
D03*
X35480Y31232D02*
D03*
Y11736D02*
D03*
X25480Y31232D02*
D03*
Y11736D02*
D03*
Y95736D02*
D03*
Y115232D02*
D03*
X35480Y95736D02*
D03*
Y115232D02*
D03*
X45480Y95736D02*
D03*
Y115232D02*
D03*
D22*
X20807Y45400D02*
D03*
X24193D02*
D03*
X221285Y132563D02*
D03*
X217899D02*
D03*
X287274Y94063D02*
D03*
X283888D02*
D03*
X276507Y93911D02*
D03*
X279893D02*
D03*
X263285Y121063D02*
D03*
X259899D02*
D03*
X271399Y117063D02*
D03*
X274785D02*
D03*
Y121063D02*
D03*
X271399D02*
D03*
X259899Y117063D02*
D03*
X263285D02*
D03*
X226240Y58984D02*
D03*
X229626D02*
D03*
X226305Y71889D02*
D03*
X229691D02*
D03*
X253774Y94063D02*
D03*
X250388D02*
D03*
X243195D02*
D03*
X246581D02*
D03*
X278723Y183563D02*
D03*
X275337D02*
D03*
X262399D02*
D03*
X265785D02*
D03*
X41753Y171473D02*
D03*
X38367D02*
D03*
X41753Y175027D02*
D03*
X38367D02*
D03*
X59807Y127811D02*
D03*
X63192D02*
D03*
X41753Y158772D02*
D03*
X38367D02*
D03*
X41753Y155218D02*
D03*
X38367D02*
D03*
X286692Y77811D02*
D03*
X283307D02*
D03*
X131807Y207811D02*
D03*
X135193D02*
D03*
D23*
X41272Y44811D02*
D03*
X37728D02*
D03*
X151771Y206811D02*
D03*
X148228D02*
D03*
Y210810D02*
D03*
X151771D02*
D03*
X223794Y95678D02*
D03*
X220250D02*
D03*
X223794Y115363D02*
D03*
X220250D02*
D03*
X223794Y125204D02*
D03*
X220250D02*
D03*
X223794Y105521D02*
D03*
X220250D02*
D03*
X294251Y97984D02*
D03*
X290708D02*
D03*
X262772Y100811D02*
D03*
X259228D02*
D03*
X259821Y112063D02*
D03*
X263365D02*
D03*
X271321D02*
D03*
X274865D02*
D03*
X262772Y96811D02*
D03*
X259228D02*
D03*
X61729Y122311D02*
D03*
X65272D02*
D03*
X72756Y122389D02*
D03*
X76300D02*
D03*
X72560Y103922D02*
D03*
X76104D02*
D03*
X291228Y77811D02*
D03*
X294772D02*
D03*
X65272Y103811D02*
D03*
X61729D02*
D03*
X135271Y199811D02*
D03*
X131728D02*
D03*
X274729Y77811D02*
D03*
X278272D02*
D03*
D24*
X26000Y56312D02*
D03*
Y72312D02*
D03*
X31000Y56312D02*
D03*
Y72312D02*
D03*
X36000Y56312D02*
D03*
Y72312D02*
D03*
X41000Y56312D02*
D03*
Y72312D02*
D03*
X46000Y56312D02*
D03*
Y72312D02*
D03*
D25*
X292661Y69811D02*
D03*
X275339D02*
D03*
X49339Y136811D02*
D03*
X66661D02*
D03*
D26*
X264235Y80483D02*
D03*
X265810D02*
D03*
X264235Y78908D02*
D03*
X265810D02*
D03*
D27*
X299999Y156504D02*
D03*
Y153119D02*
D03*
X236092Y134756D02*
D03*
Y131370D02*
D03*
X283000Y121004D02*
D03*
Y117618D02*
D03*
X279000Y117618D02*
D03*
Y121004D02*
D03*
X299541Y168450D02*
D03*
Y165064D02*
D03*
X74939Y164928D02*
D03*
Y168314D02*
D03*
X71239Y164928D02*
D03*
Y168314D02*
D03*
X29429Y138580D02*
D03*
Y141966D02*
D03*
X231592Y156756D02*
D03*
Y153370D02*
D03*
X236092Y156756D02*
D03*
Y153370D02*
D03*
Y161370D02*
D03*
Y164756D02*
D03*
Y172563D02*
D03*
Y169177D02*
D03*
D28*
X255170Y55811D02*
D03*
X238832D02*
D03*
X238718Y75484D02*
D03*
X255057D02*
D03*
D29*
X253202Y61815D02*
D03*
X240800D02*
D03*
Y49807D02*
D03*
X253202D02*
D03*
X253088Y81488D02*
D03*
X240687D02*
D03*
Y69480D02*
D03*
X253088D02*
D03*
D30*
X65158Y117311D02*
D03*
X59843D02*
D03*
X77186Y117389D02*
D03*
X71871D02*
D03*
X77186Y110273D02*
D03*
X71871Y110273D02*
D03*
X59842Y110311D02*
D03*
X65158D02*
D03*
D31*
X35606Y132370D02*
D03*
Y127252D02*
D03*
X41393Y129811D02*
D03*
X29393D02*
D03*
X23606Y127252D02*
D03*
Y132370D02*
D03*
D32*
X151799Y215342D02*
D03*
Y217311D02*
D03*
Y219280D02*
D03*
X145201D02*
D03*
Y217311D02*
D03*
Y215342D02*
D03*
D33*
X143500Y207311D02*
D03*
X268500Y191000D02*
D03*
X274500D02*
D03*
X287000Y112811D02*
D03*
X255500Y108811D02*
D03*
X290500Y119811D02*
D03*
X293500Y112811D02*
D03*
X-1000Y202811D02*
D03*
X314960Y23622D02*
D03*
X1000D02*
D03*
D34*
X136999Y226196D02*
D03*
Y219425D02*
D03*
D35*
X301753Y99909D02*
D03*
Y96760D02*
D03*
Y77862D02*
D03*
Y74713D02*
D03*
D36*
Y94201D02*
D03*
Y92232D02*
D03*
Y90264D02*
D03*
Y88295D02*
D03*
Y86327D02*
D03*
Y84358D02*
D03*
Y82390D02*
D03*
Y80421D02*
D03*
D37*
X124965Y207650D02*
D03*
Y205090D02*
D03*
Y202532D02*
D03*
Y199972D02*
D03*
X108035D02*
D03*
Y202532D02*
D03*
Y205090D02*
D03*
Y207650D02*
D03*
D38*
X144200Y225811D02*
D03*
X149800D02*
D03*
D39*
X157500Y220610D02*
D03*
Y215010D02*
D03*
D40*
X236000Y126084D02*
D03*
Y122541D02*
D03*
X270500Y95139D02*
D03*
Y98682D02*
D03*
X222000Y69582D02*
D03*
Y66039D02*
D03*
X162999Y217039D02*
D03*
Y220582D02*
D03*
X236092Y140292D02*
D03*
Y143835D02*
D03*
X192480Y67755D02*
D03*
Y64212D02*
D03*
X181228D02*
D03*
Y67755D02*
D03*
X170232Y64212D02*
D03*
Y67755D02*
D03*
X65616Y181348D02*
D03*
Y177805D02*
D03*
X53627Y177806D02*
D03*
Y181349D02*
D03*
X66116Y154072D02*
D03*
Y157615D02*
D03*
X56855Y153687D02*
D03*
Y150144D02*
D03*
X140000Y210539D02*
D03*
Y214082D02*
D03*
X294000Y88040D02*
D03*
Y91583D02*
D03*
D41*
X245148Y118904D02*
D03*
X249873D02*
D03*
X254597D02*
D03*
D42*
X228622Y66173D02*
D03*
Y64795D02*
D03*
X227244Y66173D02*
D03*
Y64795D02*
D03*
D43*
X253112Y99701D02*
D03*
Y101276D02*
D03*
Y102851D02*
D03*
Y104426D02*
D03*
X243663D02*
D03*
Y102851D02*
D03*
Y101276D02*
D03*
Y99701D02*
D03*
X286612D02*
D03*
X286612Y101276D02*
D03*
Y102851D02*
D03*
X286612Y104426D02*
D03*
X277163D02*
D03*
Y102851D02*
D03*
Y101276D02*
D03*
Y99701D02*
D03*
D44*
X246026Y99111D02*
D03*
X279526D02*
D03*
D45*
X247600Y98914D02*
D03*
X249175D02*
D03*
X250750D02*
D03*
Y105213D02*
D03*
X249175D02*
D03*
X247600D02*
D03*
X246026D02*
D03*
X281100Y98914D02*
D03*
X282675D02*
D03*
X284250D02*
D03*
Y105213D02*
D03*
X282675D02*
D03*
X281100D02*
D03*
X279526D02*
D03*
D46*
X134646Y171417D02*
D03*
Y159291D02*
D03*
X136221Y171417D02*
D03*
Y159291D02*
D03*
X137795Y171417D02*
D03*
Y159291D02*
D03*
X139370Y171417D02*
D03*
Y159291D02*
D03*
X140945Y171417D02*
D03*
Y159291D02*
D03*
X142520Y171417D02*
D03*
Y159291D02*
D03*
X144095Y171417D02*
D03*
Y159291D02*
D03*
X145669Y171417D02*
D03*
Y159291D02*
D03*
X147244Y171417D02*
D03*
Y159291D02*
D03*
X148819Y171417D02*
D03*
Y159291D02*
D03*
X150394Y171417D02*
D03*
Y159291D02*
D03*
X151969Y171417D02*
D03*
Y159291D02*
D03*
X153543Y171417D02*
D03*
Y159291D02*
D03*
X155118Y171417D02*
D03*
Y159291D02*
D03*
X156693Y171417D02*
D03*
Y159291D02*
D03*
X158268Y171417D02*
D03*
Y159291D02*
D03*
X159843Y171417D02*
D03*
Y159291D02*
D03*
X161417Y171417D02*
D03*
Y159291D02*
D03*
X162992Y171417D02*
D03*
Y159291D02*
D03*
X164567Y171417D02*
D03*
Y159291D02*
D03*
X166142Y171417D02*
D03*
Y159291D02*
D03*
X167717Y171417D02*
D03*
Y159291D02*
D03*
X169291Y171417D02*
D03*
Y159291D02*
D03*
X170866Y171417D02*
D03*
Y159291D02*
D03*
X172441Y171417D02*
D03*
Y159291D02*
D03*
X174016Y171417D02*
D03*
Y159291D02*
D03*
X175591Y171417D02*
D03*
Y159291D02*
D03*
X177165Y171417D02*
D03*
Y159291D02*
D03*
X178740Y171417D02*
D03*
Y159291D02*
D03*
X180315Y171417D02*
D03*
Y159291D02*
D03*
X134646Y92677D02*
D03*
Y80551D02*
D03*
X136221Y92677D02*
D03*
Y80551D02*
D03*
X137795Y92677D02*
D03*
Y80551D02*
D03*
X139370Y92677D02*
D03*
Y80551D02*
D03*
X140945Y92677D02*
D03*
Y80551D02*
D03*
X142520Y92677D02*
D03*
Y80551D02*
D03*
X144095Y92677D02*
D03*
Y80551D02*
D03*
X145669Y92677D02*
D03*
Y80551D02*
D03*
X147244Y92677D02*
D03*
Y80551D02*
D03*
X148819Y92677D02*
D03*
Y80551D02*
D03*
X150394Y92677D02*
D03*
Y80551D02*
D03*
X151969Y92677D02*
D03*
Y80551D02*
D03*
X153543Y92677D02*
D03*
Y80551D02*
D03*
X155118Y92677D02*
D03*
Y80551D02*
D03*
X156693D02*
D03*
X158268D02*
D03*
X159843D02*
D03*
X161417D02*
D03*
X162992D02*
D03*
X164567Y92677D02*
D03*
Y80551D02*
D03*
X166142Y92677D02*
D03*
Y80551D02*
D03*
X167717Y92677D02*
D03*
Y80551D02*
D03*
X169291Y92677D02*
D03*
Y80551D02*
D03*
X170866Y92677D02*
D03*
Y80551D02*
D03*
X172441Y92677D02*
D03*
Y80551D02*
D03*
X174016Y92677D02*
D03*
Y80551D02*
D03*
X175591Y92677D02*
D03*
Y80551D02*
D03*
X177165Y92677D02*
D03*
Y80551D02*
D03*
X178740Y92677D02*
D03*
Y80551D02*
D03*
X180315Y92677D02*
D03*
Y80551D02*
D03*
X156693Y92677D02*
D03*
X158268D02*
D03*
X159843D02*
D03*
X161417D02*
D03*
X162992D02*
D03*
D47*
X76797Y138096D02*
D03*
X81128D02*
D03*
Y131797D02*
D03*
X76797D02*
D03*
D48*
Y135931D02*
D03*
X81128Y133962D02*
D03*
Y135931D02*
D03*
X76797Y133962D02*
D03*
D49*
X3809Y121908D02*
D03*
D50*
X7884Y176673D02*
D03*
Y172736D02*
D03*
Y174705D02*
D03*
Y168799D02*
D03*
Y162894D02*
D03*
Y164862D02*
D03*
Y170768D02*
D03*
Y156988D02*
D03*
Y155020D02*
D03*
Y160925D02*
D03*
Y158957D02*
D03*
Y166831D02*
D03*
D51*
X14183Y154035D02*
D03*
Y156004D02*
D03*
Y159941D02*
D03*
Y157972D02*
D03*
Y171752D02*
D03*
Y173720D02*
D03*
Y175689D02*
D03*
Y165846D02*
D03*
Y161909D02*
D03*
Y163878D02*
D03*
Y169783D02*
D03*
Y167815D02*
D03*
D52*
X31073Y180140D02*
D03*
Y178172D02*
D03*
Y174235D02*
D03*
Y172266D02*
D03*
X27786D02*
D03*
Y174235D02*
D03*
Y178172D02*
D03*
Y180140D02*
D03*
Y150105D02*
D03*
Y152074D02*
D03*
Y156011D02*
D03*
Y157979D02*
D03*
X31073D02*
D03*
Y156011D02*
D03*
Y152074D02*
D03*
Y150105D02*
D03*
D53*
Y176203D02*
D03*
X27786D02*
D03*
Y154042D02*
D03*
X31073D02*
D03*
D54*
X53627Y161929D02*
D03*
Y158780D02*
D03*
Y160354D02*
D03*
Y163504D02*
D03*
Y168228D02*
D03*
Y165079D02*
D03*
Y166654D02*
D03*
Y172953D02*
D03*
Y169803D02*
D03*
Y171378D02*
D03*
X61659Y158780D02*
D03*
Y160354D02*
D03*
Y161929D02*
D03*
Y166654D02*
D03*
Y163504D02*
D03*
Y165079D02*
D03*
Y171378D02*
D03*
Y172953D02*
D03*
Y168228D02*
D03*
Y169803D02*
D03*
D55*
X56855Y157913D02*
D03*
X58430D02*
D03*
Y173819D02*
D03*
X56855D02*
D03*
D56*
X38029Y139073D02*
D03*
D57*
X33895D02*
D03*
X42163Y141041D02*
D03*
Y139073D02*
D03*
Y137104D02*
D03*
X33895D02*
D03*
Y141041D02*
D03*
D58*
X28150Y167225D02*
D03*
Y165650D02*
D03*
Y164075D02*
D03*
X30709Y167225D02*
D03*
Y165650D02*
D03*
Y164075D02*
D03*
X284221Y85386D02*
D03*
Y83811D02*
D03*
Y82236D02*
D03*
X286779Y85386D02*
D03*
Y83811D02*
D03*
Y82236D02*
D03*
D59*
X218152Y145803D02*
D03*
Y142063D02*
D03*
Y138323D02*
D03*
X228034Y145803D02*
D03*
Y142063D02*
D03*
Y138323D02*
D03*
D60*
X245502Y137300D02*
D03*
Y139268D02*
D03*
Y141236D02*
D03*
Y143205D02*
D03*
Y145174D02*
D03*
Y147142D02*
D03*
Y149110D02*
D03*
Y151079D02*
D03*
Y153048D02*
D03*
Y155016D02*
D03*
Y156984D02*
D03*
Y158953D02*
D03*
Y160922D02*
D03*
Y162890D02*
D03*
Y164858D02*
D03*
Y166827D02*
D03*
X290683D02*
D03*
Y164858D02*
D03*
Y162890D02*
D03*
Y160922D02*
D03*
Y158953D02*
D03*
Y156984D02*
D03*
Y155016D02*
D03*
Y153048D02*
D03*
Y151079D02*
D03*
Y149110D02*
D03*
Y147142D02*
D03*
Y145174D02*
D03*
Y143205D02*
D03*
Y141236D02*
D03*
Y139268D02*
D03*
Y137300D02*
D03*
D61*
X253329Y174654D02*
D03*
X255297D02*
D03*
X282857Y129473D02*
D03*
X280888D02*
D03*
X278920D02*
D03*
X276951D02*
D03*
X274983D02*
D03*
X255297D02*
D03*
X257266D02*
D03*
X259234D02*
D03*
X261203D02*
D03*
X263172D02*
D03*
X265140D02*
D03*
X267109D02*
D03*
X269077D02*
D03*
X271046D02*
D03*
X273014D02*
D03*
X282857Y174654D02*
D03*
X280888D02*
D03*
X278920D02*
D03*
X276951D02*
D03*
X274983D02*
D03*
X273014D02*
D03*
X271046D02*
D03*
X269077D02*
D03*
X267109D02*
D03*
X265140D02*
D03*
X263172D02*
D03*
X261203D02*
D03*
X259234D02*
D03*
X257266D02*
D03*
D62*
X253329Y129473D02*
D03*
D63*
X291674Y235689D02*
D03*
X288524D02*
D03*
X285374D02*
D03*
X282225D02*
D03*
X279075D02*
D03*
X275925D02*
D03*
X272776D02*
D03*
X269626D02*
D03*
X266477D02*
D03*
X263327D02*
D03*
X260177D02*
D03*
X257028D02*
D03*
X253878D02*
D03*
X250729D02*
D03*
X247579D02*
D03*
X244429D02*
D03*
X241280D02*
D03*
X238130D02*
D03*
X234981D02*
D03*
X231831D02*
D03*
X83130D02*
D03*
X79980D02*
D03*
X76830D02*
D03*
X73681D02*
D03*
X70531D02*
D03*
X67382D02*
D03*
X64232D02*
D03*
X61082D02*
D03*
X57933D02*
D03*
X54783D02*
D03*
X51634D02*
D03*
X48484D02*
D03*
X45334D02*
D03*
X42185D02*
D03*
X39035D02*
D03*
X35886D02*
D03*
X32736D02*
D03*
X29586D02*
D03*
X26437D02*
D03*
X23287D02*
D03*
D64*
X291674Y213130D02*
D03*
X288524D02*
D03*
X285374D02*
D03*
X282225D02*
D03*
X279075D02*
D03*
X275925D02*
D03*
X272776D02*
D03*
X269626D02*
D03*
X266477D02*
D03*
X263327D02*
D03*
X260177D02*
D03*
X257028D02*
D03*
X253878D02*
D03*
X250729D02*
D03*
X247579D02*
D03*
X244429D02*
D03*
X241280D02*
D03*
X238130D02*
D03*
X234981D02*
D03*
X231831D02*
D03*
X83130D02*
D03*
X79980D02*
D03*
X76830D02*
D03*
X73681D02*
D03*
X70531D02*
D03*
X67382D02*
D03*
X64232D02*
D03*
X61082D02*
D03*
X57933D02*
D03*
X54783D02*
D03*
X51634D02*
D03*
X48484D02*
D03*
X45334D02*
D03*
X42185D02*
D03*
X39035D02*
D03*
X35886D02*
D03*
X32736D02*
D03*
X29586D02*
D03*
X26437D02*
D03*
X23287D02*
D03*
D65*
X293504Y224410D02*
D03*
X230000D02*
D03*
X84960D02*
D03*
X21456D02*
D03*
D66*
X274252D02*
D03*
X249252D02*
D03*
X65708D02*
D03*
X40708D02*
D03*
D67*
X225742Y157729D02*
D03*
X219443D02*
D03*
X225742Y153398D02*
D03*
X219443D02*
D03*
D68*
X223577Y157729D02*
D03*
X221608D02*
D03*
Y153398D02*
D03*
X223577D02*
D03*
D130*
X57643Y165866D02*
D03*
D145*
X303366Y143311D02*
D03*
X323366D02*
D03*
Y123311D02*
D03*
X303366D02*
D03*
X313366Y133311D02*
D03*
Y189311D02*
D03*
X303366Y179311D02*
D03*
X323366D02*
D03*
Y199311D02*
D03*
X303366D02*
D03*
D146*
X208583Y70984D02*
D03*
X186732Y60984D02*
D03*
X197583Y70984D02*
D03*
Y60984D02*
D03*
X186732Y70984D02*
D03*
X175590Y60984D02*
D03*
Y70984D02*
D03*
X218085Y90560D02*
D03*
X225959D02*
D03*
Y100402D02*
D03*
X218085D02*
D03*
X225959Y110245D02*
D03*
X218085D02*
D03*
X225959Y120086D02*
D03*
X218085D02*
D03*
D147*
X314961Y248031D02*
D03*
X112204Y125985D02*
D03*
X0Y0D02*
D03*
Y248031D02*
D03*
X314961Y0D02*
D03*
D148*
X305985Y98689D02*
D03*
Y75933D02*
D03*
D149*
X304017Y70303D02*
D03*
Y104319D02*
D03*
D150*
X320474D02*
D03*
Y70303D02*
D03*
D151*
X270433Y55118D02*
D03*
X8809Y134773D02*
D03*
X310000Y55223D02*
D03*
D152*
X280433Y55118D02*
D03*
X290433D02*
D03*
X-1191Y134773D02*
D03*
X320000Y55223D02*
D03*
D153*
X-8455Y148346D02*
D03*
Y182362D02*
D03*
D154*
X3809Y151181D02*
D03*
D155*
X3553Y179527D02*
D03*
D156*
X8868Y149626D02*
D03*
Y181083D02*
D03*
D157*
X11427Y148346D02*
D03*
Y182362D02*
D03*
D158*
X202697Y224410D02*
D03*
X320807D02*
D03*
X-5847D02*
D03*
X112263D02*
D03*
D159*
X301378Y234902D02*
D03*
X222126D02*
D03*
X92834D02*
D03*
X13582D02*
D03*
M02*
