G04*
G04 #@! TF.GenerationSoftware,Altium Limited,Altium Designer,23.2.1 (34)*
G04*
G04 Layer_Color=128*
%FSLAX25Y25*%
%MOIN*%
G70*
G04*
G04 #@! TF.SameCoordinates,387CD6D3-576D-47AB-95CD-A910FB3B32EF*
G04*
G04*
G04 #@! TF.FilePolarity,Positive*
G04*
G01*
G75*
G36*
X141928Y-58474D02*
X142030Y-58483D01*
X142150Y-58492D01*
X142270Y-58511D01*
X142409Y-58529D01*
X142705Y-58594D01*
X142853Y-58640D01*
X143001Y-58687D01*
X143149Y-58751D01*
X143288Y-58825D01*
X143417Y-58909D01*
X143537Y-59001D01*
X143547Y-59010D01*
X143565Y-59029D01*
X143593Y-59057D01*
X143630Y-59094D01*
X143676Y-59149D01*
X143732Y-59214D01*
X143787Y-59288D01*
X143852Y-59371D01*
X143907Y-59473D01*
X143963Y-59575D01*
X144018Y-59695D01*
X144065Y-59824D01*
X144111Y-59954D01*
X144148Y-60102D01*
X144176Y-60250D01*
X144185Y-60416D01*
X142890Y-60463D01*
Y-60453D01*
Y-60444D01*
X142871Y-60379D01*
X142853Y-60296D01*
X142816Y-60194D01*
X142770Y-60074D01*
X142705Y-59963D01*
X142622Y-59852D01*
X142529Y-59760D01*
X142520Y-59750D01*
X142483Y-59723D01*
X142418Y-59686D01*
X142326Y-59649D01*
X142215Y-59612D01*
X142076Y-59575D01*
X141909Y-59547D01*
X141715Y-59538D01*
X141623D01*
X141521Y-59547D01*
X141401Y-59565D01*
X141262Y-59593D01*
X141114Y-59639D01*
X140975Y-59695D01*
X140846Y-59778D01*
X140836Y-59787D01*
X140818Y-59806D01*
X140781Y-59834D01*
X140744Y-59880D01*
X140707Y-59935D01*
X140670Y-60009D01*
X140651Y-60083D01*
X140642Y-60176D01*
Y-60185D01*
Y-60213D01*
X140651Y-60259D01*
X140670Y-60305D01*
X140688Y-60370D01*
X140716Y-60435D01*
X140762Y-60500D01*
X140827Y-60564D01*
X140836Y-60574D01*
X140883Y-60601D01*
X140910Y-60620D01*
X140957Y-60638D01*
X141003Y-60666D01*
X141068Y-60694D01*
X141142Y-60722D01*
X141225Y-60759D01*
X141327Y-60796D01*
X141428Y-60833D01*
X141558Y-60870D01*
X141697Y-60907D01*
X141845Y-60944D01*
X142011Y-60990D01*
X142020D01*
X142057Y-60999D01*
X142104Y-61008D01*
X142168Y-61027D01*
X142242Y-61045D01*
X142335Y-61073D01*
X142437Y-61101D01*
X142538Y-61129D01*
X142760Y-61203D01*
X142992Y-61277D01*
X143214Y-61360D01*
X143306Y-61406D01*
X143399Y-61452D01*
X143408D01*
X143417Y-61462D01*
X143473Y-61499D01*
X143556Y-61554D01*
X143658Y-61628D01*
X143769Y-61721D01*
X143889Y-61832D01*
X144009Y-61961D01*
X144111Y-62109D01*
X144120Y-62128D01*
X144148Y-62183D01*
X144194Y-62266D01*
X144240Y-62387D01*
X144287Y-62535D01*
X144333Y-62710D01*
X144361Y-62905D01*
X144370Y-63127D01*
Y-63136D01*
Y-63154D01*
Y-63182D01*
Y-63219D01*
X144361Y-63265D01*
X144351Y-63330D01*
X144333Y-63460D01*
X144296Y-63626D01*
X144240Y-63802D01*
X144157Y-63978D01*
X144055Y-64163D01*
Y-64172D01*
X144037Y-64181D01*
X144000Y-64237D01*
X143926Y-64329D01*
X143833Y-64431D01*
X143713Y-64551D01*
X143556Y-64662D01*
X143389Y-64773D01*
X143186Y-64875D01*
X143177D01*
X143158Y-64884D01*
X143130Y-64893D01*
X143084Y-64912D01*
X143029Y-64930D01*
X142964Y-64949D01*
X142890Y-64967D01*
X142807Y-64986D01*
X142705Y-65014D01*
X142603Y-65032D01*
X142363Y-65069D01*
X142094Y-65097D01*
X141798Y-65106D01*
X141678D01*
X141595Y-65097D01*
X141493Y-65088D01*
X141382Y-65078D01*
X141253Y-65060D01*
X141114Y-65032D01*
X140809Y-64967D01*
X140651Y-64921D01*
X140503Y-64875D01*
X140346Y-64810D01*
X140198Y-64736D01*
X140059Y-64653D01*
X139930Y-64551D01*
X139921Y-64542D01*
X139902Y-64523D01*
X139865Y-64496D01*
X139828Y-64449D01*
X139773Y-64385D01*
X139717Y-64311D01*
X139652Y-64227D01*
X139588Y-64135D01*
X139523Y-64024D01*
X139458Y-63904D01*
X139393Y-63765D01*
X139329Y-63617D01*
X139282Y-63460D01*
X139227Y-63284D01*
X139190Y-63099D01*
X139162Y-62905D01*
X140420Y-62784D01*
Y-62794D01*
X140429Y-62812D01*
Y-62849D01*
X140439Y-62886D01*
X140476Y-62997D01*
X140522Y-63136D01*
X140577Y-63293D01*
X140661Y-63450D01*
X140753Y-63589D01*
X140873Y-63719D01*
X140892Y-63728D01*
X140938Y-63765D01*
X141012Y-63811D01*
X141123Y-63867D01*
X141262Y-63922D01*
X141419Y-63968D01*
X141604Y-64005D01*
X141817Y-64015D01*
X141919D01*
X142030Y-63996D01*
X142168Y-63978D01*
X142316Y-63950D01*
X142474Y-63904D01*
X142622Y-63839D01*
X142751Y-63756D01*
X142770Y-63746D01*
X142807Y-63709D01*
X142853Y-63654D01*
X142918Y-63580D01*
X142973Y-63487D01*
X143029Y-63376D01*
X143066Y-63265D01*
X143075Y-63136D01*
Y-63127D01*
Y-63099D01*
X143066Y-63053D01*
X143056Y-62997D01*
X143038Y-62942D01*
X143019Y-62877D01*
X142982Y-62812D01*
X142936Y-62747D01*
X142927Y-62738D01*
X142908Y-62720D01*
X142881Y-62692D01*
X142834Y-62655D01*
X142770Y-62609D01*
X142686Y-62562D01*
X142594Y-62516D01*
X142474Y-62470D01*
X142464D01*
X142427Y-62451D01*
X142363Y-62433D01*
X142316Y-62414D01*
X142261Y-62405D01*
X142196Y-62387D01*
X142122Y-62359D01*
X142039Y-62340D01*
X141946Y-62313D01*
X141835Y-62285D01*
X141715Y-62257D01*
X141586Y-62220D01*
X141438Y-62183D01*
X141428D01*
X141391Y-62174D01*
X141336Y-62155D01*
X141271Y-62137D01*
X141188Y-62109D01*
X141086Y-62081D01*
X140984Y-62044D01*
X140864Y-62007D01*
X140624Y-61915D01*
X140392Y-61804D01*
X140272Y-61748D01*
X140170Y-61684D01*
X140069Y-61619D01*
X139985Y-61554D01*
X139976Y-61545D01*
X139958Y-61526D01*
X139930Y-61499D01*
X139893Y-61462D01*
X139847Y-61406D01*
X139800Y-61341D01*
X139745Y-61277D01*
X139699Y-61193D01*
X139588Y-60999D01*
X139495Y-60777D01*
X139458Y-60657D01*
X139430Y-60537D01*
X139412Y-60398D01*
X139403Y-60259D01*
Y-60250D01*
Y-60241D01*
Y-60213D01*
Y-60176D01*
X139421Y-60083D01*
X139440Y-59963D01*
X139467Y-59824D01*
X139514Y-59667D01*
X139578Y-59501D01*
X139671Y-59343D01*
Y-59334D01*
X139680Y-59325D01*
X139726Y-59269D01*
X139782Y-59195D01*
X139874Y-59103D01*
X139985Y-59001D01*
X140124Y-58890D01*
X140281Y-58788D01*
X140466Y-58696D01*
X140476D01*
X140494Y-58687D01*
X140522Y-58677D01*
X140559Y-58659D01*
X140614Y-58640D01*
X140670Y-58622D01*
X140744Y-58603D01*
X140827Y-58576D01*
X141012Y-58539D01*
X141225Y-58502D01*
X141465Y-58474D01*
X141734Y-58465D01*
X141845D01*
X141928Y-58474D01*
D02*
G37*
G36*
X110617Y-58474D02*
X110718Y-58483D01*
X110839Y-58492D01*
X110959Y-58511D01*
X111098Y-58529D01*
X111394Y-58594D01*
X111542Y-58640D01*
X111690Y-58687D01*
X111838Y-58751D01*
X111976Y-58825D01*
X112106Y-58909D01*
X112226Y-59001D01*
X112235Y-59010D01*
X112254Y-59029D01*
X112282Y-59057D01*
X112319Y-59094D01*
X112365Y-59149D01*
X112420Y-59214D01*
X112476Y-59288D01*
X112541Y-59371D01*
X112596Y-59473D01*
X112652Y-59575D01*
X112707Y-59695D01*
X112753Y-59824D01*
X112800Y-59954D01*
X112837Y-60102D01*
X112864Y-60250D01*
X112874Y-60416D01*
X111579Y-60463D01*
Y-60453D01*
Y-60444D01*
X111560Y-60379D01*
X111542Y-60296D01*
X111505Y-60194D01*
X111458Y-60074D01*
X111394Y-59963D01*
X111310Y-59852D01*
X111218Y-59760D01*
X111209Y-59750D01*
X111172Y-59723D01*
X111107Y-59686D01*
X111014Y-59649D01*
X110903Y-59612D01*
X110765Y-59575D01*
X110598Y-59547D01*
X110404Y-59538D01*
X110311D01*
X110210Y-59547D01*
X110089Y-59565D01*
X109951Y-59593D01*
X109803Y-59639D01*
X109664Y-59695D01*
X109534Y-59778D01*
X109525Y-59787D01*
X109507Y-59806D01*
X109470Y-59834D01*
X109433Y-59880D01*
X109396Y-59935D01*
X109359Y-60009D01*
X109340Y-60083D01*
X109331Y-60176D01*
Y-60185D01*
Y-60213D01*
X109340Y-60259D01*
X109359Y-60305D01*
X109377Y-60370D01*
X109405Y-60435D01*
X109451Y-60500D01*
X109516Y-60564D01*
X109525Y-60574D01*
X109571Y-60601D01*
X109599Y-60620D01*
X109645Y-60638D01*
X109692Y-60666D01*
X109756Y-60694D01*
X109830Y-60722D01*
X109914Y-60759D01*
X110015Y-60796D01*
X110117Y-60833D01*
X110247Y-60870D01*
X110385Y-60907D01*
X110533Y-60944D01*
X110700Y-60990D01*
X110709D01*
X110746Y-60999D01*
X110792Y-61008D01*
X110857Y-61027D01*
X110931Y-61045D01*
X111024Y-61073D01*
X111125Y-61101D01*
X111227Y-61129D01*
X111449Y-61203D01*
X111680Y-61277D01*
X111902Y-61360D01*
X111995Y-61406D01*
X112087Y-61452D01*
X112097D01*
X112106Y-61462D01*
X112161Y-61499D01*
X112245Y-61554D01*
X112346Y-61628D01*
X112457Y-61721D01*
X112578Y-61832D01*
X112698Y-61961D01*
X112800Y-62109D01*
X112809Y-62128D01*
X112837Y-62183D01*
X112883Y-62266D01*
X112929Y-62387D01*
X112975Y-62535D01*
X113022Y-62710D01*
X113049Y-62905D01*
X113059Y-63127D01*
Y-63136D01*
Y-63154D01*
Y-63182D01*
Y-63219D01*
X113049Y-63265D01*
X113040Y-63330D01*
X113022Y-63460D01*
X112985Y-63626D01*
X112929Y-63802D01*
X112846Y-63978D01*
X112744Y-64163D01*
Y-64172D01*
X112726Y-64181D01*
X112689Y-64237D01*
X112615Y-64329D01*
X112522Y-64431D01*
X112402Y-64551D01*
X112245Y-64662D01*
X112078Y-64773D01*
X111875Y-64875D01*
X111865D01*
X111847Y-64884D01*
X111819Y-64893D01*
X111773Y-64912D01*
X111717Y-64930D01*
X111653Y-64949D01*
X111579Y-64967D01*
X111495Y-64986D01*
X111394Y-65014D01*
X111292Y-65032D01*
X111051Y-65069D01*
X110783Y-65097D01*
X110487Y-65106D01*
X110367D01*
X110284Y-65097D01*
X110182Y-65088D01*
X110071Y-65078D01*
X109941Y-65060D01*
X109803Y-65032D01*
X109497Y-64967D01*
X109340Y-64921D01*
X109192Y-64875D01*
X109035Y-64810D01*
X108887Y-64736D01*
X108748Y-64653D01*
X108619Y-64551D01*
X108609Y-64542D01*
X108591Y-64523D01*
X108554Y-64496D01*
X108517Y-64449D01*
X108461Y-64385D01*
X108406Y-64311D01*
X108341Y-64227D01*
X108276Y-64135D01*
X108212Y-64024D01*
X108147Y-63904D01*
X108082Y-63765D01*
X108017Y-63617D01*
X107971Y-63460D01*
X107916Y-63284D01*
X107879Y-63099D01*
X107851Y-62905D01*
X109109Y-62784D01*
Y-62794D01*
X109118Y-62812D01*
Y-62849D01*
X109127Y-62886D01*
X109164Y-62997D01*
X109211Y-63136D01*
X109266Y-63293D01*
X109349Y-63450D01*
X109442Y-63589D01*
X109562Y-63719D01*
X109581Y-63728D01*
X109627Y-63765D01*
X109701Y-63811D01*
X109812Y-63867D01*
X109951Y-63922D01*
X110108Y-63968D01*
X110293Y-64005D01*
X110506Y-64015D01*
X110607D01*
X110718Y-63996D01*
X110857Y-63978D01*
X111005Y-63950D01*
X111162Y-63904D01*
X111310Y-63839D01*
X111440Y-63756D01*
X111458Y-63746D01*
X111495Y-63709D01*
X111542Y-63654D01*
X111606Y-63580D01*
X111662Y-63487D01*
X111717Y-63376D01*
X111754Y-63265D01*
X111764Y-63136D01*
Y-63127D01*
Y-63099D01*
X111754Y-63053D01*
X111745Y-62997D01*
X111727Y-62942D01*
X111708Y-62877D01*
X111671Y-62812D01*
X111625Y-62747D01*
X111616Y-62738D01*
X111597Y-62720D01*
X111569Y-62692D01*
X111523Y-62655D01*
X111458Y-62609D01*
X111375Y-62562D01*
X111283Y-62516D01*
X111162Y-62470D01*
X111153D01*
X111116Y-62451D01*
X111051Y-62433D01*
X111005Y-62414D01*
X110950Y-62405D01*
X110885Y-62387D01*
X110811Y-62359D01*
X110728Y-62340D01*
X110635Y-62313D01*
X110524Y-62285D01*
X110404Y-62257D01*
X110274Y-62220D01*
X110126Y-62183D01*
X110117D01*
X110080Y-62174D01*
X110025Y-62155D01*
X109960Y-62137D01*
X109877Y-62109D01*
X109775Y-62081D01*
X109673Y-62044D01*
X109553Y-62007D01*
X109312Y-61915D01*
X109081Y-61804D01*
X108961Y-61748D01*
X108859Y-61684D01*
X108757Y-61619D01*
X108674Y-61554D01*
X108665Y-61545D01*
X108646Y-61526D01*
X108619Y-61499D01*
X108582Y-61462D01*
X108535Y-61406D01*
X108489Y-61341D01*
X108434Y-61277D01*
X108387Y-61193D01*
X108276Y-60999D01*
X108184Y-60777D01*
X108147Y-60657D01*
X108119Y-60537D01*
X108101Y-60398D01*
X108091Y-60259D01*
Y-60250D01*
Y-60241D01*
Y-60213D01*
Y-60176D01*
X108110Y-60083D01*
X108128Y-59963D01*
X108156Y-59824D01*
X108202Y-59667D01*
X108267Y-59501D01*
X108360Y-59343D01*
Y-59334D01*
X108369Y-59325D01*
X108415Y-59269D01*
X108471Y-59195D01*
X108563Y-59103D01*
X108674Y-59001D01*
X108813Y-58890D01*
X108970Y-58788D01*
X109155Y-58696D01*
X109164D01*
X109183Y-58687D01*
X109211Y-58677D01*
X109248Y-58659D01*
X109303Y-58640D01*
X109359Y-58622D01*
X109433Y-58603D01*
X109516Y-58576D01*
X109701Y-58539D01*
X109914Y-58502D01*
X110154Y-58474D01*
X110422Y-58465D01*
X110533D01*
X110617Y-58474D01*
D02*
G37*
G36*
X148708Y-61082D02*
X151252Y-64986D01*
X149578D01*
X147811Y-61980D01*
X146766Y-63053D01*
Y-64986D01*
X145471D01*
Y-58585D01*
X146766D01*
Y-61434D01*
X149393Y-58585D01*
X151132D01*
X148708Y-61082D01*
D02*
G37*
G36*
X191859Y-64986D02*
X190666D01*
X190657Y-59954D01*
X189399Y-64986D01*
X188150D01*
X186892Y-59954D01*
Y-64986D01*
X185699D01*
Y-58585D01*
X187632D01*
X188779Y-62960D01*
X189917Y-58585D01*
X191859D01*
Y-64986D01*
D02*
G37*
G36*
X131734Y-64986D02*
X130541D01*
X130532Y-59954D01*
X129274Y-64986D01*
X128025D01*
X126767Y-59954D01*
Y-64986D01*
X125574D01*
Y-58585D01*
X127507D01*
X128654Y-62960D01*
X129792Y-58585D01*
X131734D01*
Y-64986D01*
D02*
G37*
G36*
X177920Y-59667D02*
X176033D01*
Y-64986D01*
X174738D01*
Y-59667D01*
X172841D01*
Y-58585D01*
X177920D01*
Y-59667D01*
D02*
G37*
G36*
X172453D02*
X170566D01*
Y-64986D01*
X169271D01*
Y-59667D01*
X167375D01*
Y-58585D01*
X172453D01*
Y-59667D01*
D02*
G37*
G36*
X157394Y-58594D02*
X157579Y-58603D01*
X157764Y-58613D01*
X157940Y-58631D01*
X158097Y-58650D01*
X158115D01*
X158162Y-58659D01*
X158226Y-58677D01*
X158319Y-58705D01*
X158421Y-58742D01*
X158532Y-58788D01*
X158652Y-58844D01*
X158763Y-58918D01*
X158772Y-58927D01*
X158809Y-58955D01*
X158865Y-59001D01*
X158939Y-59057D01*
X159013Y-59140D01*
X159096Y-59232D01*
X159179Y-59334D01*
X159253Y-59454D01*
X159262Y-59473D01*
X159281Y-59510D01*
X159318Y-59584D01*
X159355Y-59676D01*
X159392Y-59787D01*
X159429Y-59908D01*
X159447Y-60056D01*
X159457Y-60204D01*
Y-60213D01*
Y-60222D01*
Y-60278D01*
X159447Y-60361D01*
X159429Y-60472D01*
X159392Y-60601D01*
X159355Y-60740D01*
X159290Y-60879D01*
X159207Y-61027D01*
X159198Y-61045D01*
X159161Y-61092D01*
X159105Y-61156D01*
X159040Y-61240D01*
X158948Y-61323D01*
X158837Y-61425D01*
X158707Y-61508D01*
X158559Y-61591D01*
X158569D01*
X158587Y-61600D01*
X158615Y-61610D01*
X158652Y-61619D01*
X158763Y-61665D01*
X158892Y-61730D01*
X159031Y-61804D01*
X159188Y-61906D01*
X159327Y-62026D01*
X159457Y-62174D01*
X159466Y-62192D01*
X159503Y-62248D01*
X159558Y-62331D01*
X159614Y-62442D01*
X159669Y-62590D01*
X159725Y-62747D01*
X159762Y-62932D01*
X159771Y-63136D01*
Y-63145D01*
Y-63154D01*
Y-63210D01*
X159762Y-63293D01*
X159743Y-63404D01*
X159725Y-63534D01*
X159688Y-63682D01*
X159632Y-63830D01*
X159568Y-63987D01*
X159558Y-64005D01*
X159531Y-64052D01*
X159484Y-64126D01*
X159420Y-64218D01*
X159346Y-64329D01*
X159244Y-64431D01*
X159142Y-64542D01*
X159013Y-64644D01*
X158994Y-64653D01*
X158948Y-64681D01*
X158874Y-64727D01*
X158772Y-64773D01*
X158643Y-64829D01*
X158495Y-64875D01*
X158328Y-64921D01*
X158143Y-64949D01*
X158106D01*
X158069Y-64958D01*
X157977D01*
X157912Y-64967D01*
X157736D01*
X157625Y-64977D01*
X157348D01*
X157190Y-64986D01*
X154415D01*
Y-58585D01*
X157227D01*
X157394Y-58594D01*
D02*
G37*
G36*
X138811Y-64986D02*
X137414D01*
X136859Y-63534D01*
X134287D01*
X133760Y-64986D01*
X132391D01*
X134870Y-58585D01*
X136239D01*
X138811Y-64986D01*
D02*
G37*
G36*
X124371Y-59667D02*
X120921Y-59667D01*
Y-61082D01*
X124131D01*
Y-62165D01*
X120921D01*
Y-63904D01*
X124492Y-63904D01*
Y-64986D01*
X119626Y-64986D01*
Y-58585D01*
X124371Y-58585D01*
Y-59667D01*
D02*
G37*
G36*
X118784Y-59667D02*
X116897D01*
Y-64986D01*
X115602D01*
Y-59667D01*
X113706D01*
Y-58585D01*
X118784D01*
Y-59667D01*
D02*
G37*
G36*
X107499Y-64986D02*
X106103D01*
X105548Y-63534D01*
X102976D01*
X102449Y-64986D01*
X101080D01*
X103559Y-58585D01*
X104928D01*
X107499Y-64986D01*
D02*
G37*
G36*
X98231Y-58594D02*
X98471D01*
X98730Y-58613D01*
X98989Y-58631D01*
X99100Y-58640D01*
X99211Y-58650D01*
X99304Y-58668D01*
X99378Y-58687D01*
X99387D01*
X99406Y-58696D01*
X99433Y-58705D01*
X99470Y-58714D01*
X99572Y-58761D01*
X99702Y-58816D01*
X99840Y-58899D01*
X99998Y-59010D01*
X100146Y-59149D01*
X100294Y-59316D01*
Y-59325D01*
X100312Y-59334D01*
X100331Y-59362D01*
X100349Y-59399D01*
X100386Y-59454D01*
X100414Y-59510D01*
X100451Y-59575D01*
X100488Y-59649D01*
X100553Y-59834D01*
X100617Y-60037D01*
X100654Y-60287D01*
X100673Y-60555D01*
Y-60564D01*
Y-60583D01*
Y-60611D01*
Y-60657D01*
X100664Y-60703D01*
Y-60768D01*
X100645Y-60897D01*
X100617Y-61055D01*
X100580Y-61230D01*
X100525Y-61397D01*
X100451Y-61554D01*
X100442Y-61573D01*
X100414Y-61619D01*
X100368Y-61693D01*
X100303Y-61785D01*
X100229Y-61878D01*
X100127Y-61989D01*
X100025Y-62091D01*
X99905Y-62183D01*
X99887Y-62192D01*
X99850Y-62220D01*
X99785Y-62257D01*
X99702Y-62303D01*
X99600Y-62359D01*
X99489Y-62405D01*
X99369Y-62451D01*
X99239Y-62488D01*
X99221D01*
X99193Y-62498D01*
X99156D01*
X99110Y-62507D01*
X99045Y-62516D01*
X98980Y-62525D01*
X98897D01*
X98814Y-62535D01*
X98712Y-62544D01*
X98601Y-62553D01*
X98481Y-62562D01*
X98351D01*
X98212Y-62572D01*
X97065D01*
Y-64986D01*
X95770D01*
Y-58585D01*
X98129D01*
X98231Y-58594D01*
D02*
G37*
G36*
X181721Y-58474D02*
X181814D01*
X181934Y-58492D01*
X182073Y-58511D01*
X182230Y-58539D01*
X182397Y-58576D01*
X182572Y-58622D01*
X182757Y-58677D01*
X182942Y-58751D01*
X183137Y-58835D01*
X183322Y-58936D01*
X183507Y-59057D01*
X183682Y-59195D01*
X183849Y-59353D01*
X183858Y-59362D01*
X183886Y-59390D01*
X183932Y-59445D01*
X183978Y-59510D01*
X184043Y-59602D01*
X184117Y-59713D01*
X184191Y-59843D01*
X184274Y-59991D01*
X184358Y-60148D01*
X184432Y-60333D01*
X184506Y-60537D01*
X184570Y-60749D01*
X184626Y-60990D01*
X184663Y-61240D01*
X184691Y-61508D01*
X184700Y-61795D01*
Y-61813D01*
Y-61859D01*
X184691Y-61943D01*
Y-62054D01*
X184672Y-62183D01*
X184654Y-62331D01*
X184626Y-62507D01*
X184598Y-62683D01*
X184552Y-62877D01*
X184496Y-63080D01*
X184422Y-63284D01*
X184339Y-63487D01*
X184247Y-63682D01*
X184126Y-63876D01*
X183997Y-64061D01*
X183849Y-64237D01*
X183840Y-64246D01*
X183812Y-64274D01*
X183766Y-64320D01*
X183692Y-64375D01*
X183608Y-64440D01*
X183507Y-64514D01*
X183386Y-64588D01*
X183257Y-64671D01*
X183100Y-64755D01*
X182933Y-64829D01*
X182748Y-64903D01*
X182545Y-64967D01*
X182332Y-65023D01*
X182101Y-65069D01*
X181860Y-65097D01*
X181601Y-65106D01*
X181536Y-65106D01*
X181462Y-65097D01*
X181370Y-65088D01*
X181250Y-65078D01*
X181111Y-65060D01*
X180954Y-65032D01*
X180787Y-64995D01*
X180602Y-64949D01*
X180426Y-64893D01*
X180232Y-64819D01*
X180047Y-64736D01*
X179853Y-64644D01*
X179677Y-64523D01*
X179501Y-64394D01*
X179335Y-64237D01*
X179326Y-64227D01*
X179298Y-64200D01*
X179261Y-64144D01*
X179205Y-64079D01*
X179141Y-63987D01*
X179067Y-63876D01*
X178993Y-63756D01*
X178919Y-63608D01*
X178835Y-63450D01*
X178761Y-63265D01*
X178687Y-63071D01*
X178623Y-62858D01*
X178567Y-62627D01*
X178530Y-62377D01*
X178502Y-62109D01*
X178493Y-61832D01*
Y-61822D01*
Y-61785D01*
Y-61739D01*
X178502Y-61665D01*
Y-61582D01*
X178512Y-61489D01*
X178521Y-61378D01*
X178530Y-61258D01*
X178567Y-60999D01*
X178613Y-60722D01*
X178687Y-60444D01*
X178780Y-60185D01*
Y-60176D01*
X178789Y-60167D01*
X178808Y-60139D01*
X178817Y-60102D01*
X178872Y-60009D01*
X178937Y-59889D01*
X179020Y-59750D01*
X179122Y-59612D01*
X179242Y-59454D01*
X179372Y-59306D01*
X179381Y-59297D01*
X179390Y-59288D01*
X179437Y-59242D01*
X179520Y-59168D01*
X179622Y-59084D01*
X179742Y-58992D01*
X179881Y-58890D01*
X180038Y-58798D01*
X180204Y-58724D01*
X180214D01*
X180232Y-58714D01*
X180269Y-58696D01*
X180315Y-58687D01*
X180371Y-58659D01*
X180436Y-58640D01*
X180519Y-58622D01*
X180602Y-58594D01*
X180806Y-58548D01*
X181037Y-58502D01*
X181305Y-58474D01*
X181583Y-58465D01*
X181647D01*
X181721Y-58474D01*
D02*
G37*
G36*
X163832Y-58474D02*
X163924D01*
X164045Y-58492D01*
X164183Y-58511D01*
X164341Y-58539D01*
X164507Y-58576D01*
X164683Y-58622D01*
X164868Y-58677D01*
X165053Y-58751D01*
X165247Y-58835D01*
X165432Y-58936D01*
X165617Y-59057D01*
X165793Y-59195D01*
X165959Y-59353D01*
X165969Y-59362D01*
X165996Y-59390D01*
X166043Y-59445D01*
X166089Y-59510D01*
X166154Y-59602D01*
X166228Y-59713D01*
X166302Y-59843D01*
X166385Y-59991D01*
X166468Y-60148D01*
X166542Y-60333D01*
X166616Y-60537D01*
X166681Y-60749D01*
X166736Y-60990D01*
X166773Y-61240D01*
X166801Y-61508D01*
X166810Y-61795D01*
Y-61813D01*
Y-61859D01*
X166801Y-61943D01*
Y-62054D01*
X166783Y-62183D01*
X166764Y-62331D01*
X166736Y-62507D01*
X166709Y-62683D01*
X166662Y-62877D01*
X166607Y-63080D01*
X166533Y-63284D01*
X166450Y-63487D01*
X166357Y-63682D01*
X166237Y-63876D01*
X166107Y-64061D01*
X165959Y-64237D01*
X165950Y-64246D01*
X165922Y-64274D01*
X165876Y-64320D01*
X165802Y-64375D01*
X165719Y-64440D01*
X165617Y-64514D01*
X165497Y-64588D01*
X165367Y-64671D01*
X165210Y-64755D01*
X165044Y-64829D01*
X164859Y-64903D01*
X164655Y-64967D01*
X164442Y-65023D01*
X164211Y-65069D01*
X163971Y-65097D01*
X163712Y-65106D01*
X163647D01*
X163573Y-65097D01*
X163480Y-65088D01*
X163360Y-65078D01*
X163221Y-65060D01*
X163064Y-65032D01*
X162898Y-64995D01*
X162713Y-64949D01*
X162537Y-64893D01*
X162343Y-64819D01*
X162158Y-64736D01*
X161963Y-64644D01*
X161788Y-64523D01*
X161612Y-64394D01*
X161445Y-64237D01*
X161436Y-64227D01*
X161408Y-64200D01*
X161371Y-64144D01*
X161316Y-64079D01*
X161251Y-63987D01*
X161177Y-63876D01*
X161103Y-63756D01*
X161029Y-63608D01*
X160946Y-63450D01*
X160872Y-63265D01*
X160798Y-63071D01*
X160733Y-62858D01*
X160678Y-62627D01*
X160641Y-62377D01*
X160613Y-62109D01*
X160604Y-61832D01*
Y-61822D01*
Y-61785D01*
Y-61739D01*
X160613Y-61665D01*
Y-61582D01*
X160622Y-61489D01*
X160631Y-61378D01*
X160641Y-61258D01*
X160678Y-60999D01*
X160724Y-60722D01*
X160798Y-60444D01*
X160890Y-60185D01*
Y-60176D01*
X160900Y-60167D01*
X160918Y-60139D01*
X160927Y-60102D01*
X160983Y-60009D01*
X161048Y-59889D01*
X161131Y-59750D01*
X161233Y-59612D01*
X161353Y-59454D01*
X161482Y-59306D01*
X161492Y-59297D01*
X161501Y-59288D01*
X161547Y-59242D01*
X161630Y-59168D01*
X161732Y-59084D01*
X161852Y-58992D01*
X161991Y-58890D01*
X162148Y-58798D01*
X162315Y-58724D01*
X162324D01*
X162343Y-58714D01*
X162380Y-58696D01*
X162426Y-58687D01*
X162481Y-58659D01*
X162546Y-58640D01*
X162629Y-58622D01*
X162713Y-58594D01*
X162916Y-58548D01*
X163147Y-58502D01*
X163416Y-58474D01*
X163693Y-58465D01*
X163758D01*
X163832Y-58474D01*
D02*
G37*
%LPC*%
G36*
X156996Y-59649D02*
X155710D01*
Y-61129D01*
X156950D01*
X157107Y-61119D01*
X157394D01*
X157449Y-61110D01*
X157505D01*
X157542Y-61101D01*
X157597Y-61092D01*
X157681Y-61064D01*
X157764Y-61036D01*
X157847Y-60999D01*
X157930Y-60953D01*
X158004Y-60888D01*
X158014Y-60879D01*
X158032Y-60851D01*
X158069Y-60814D01*
X158106Y-60749D01*
X158134Y-60675D01*
X158171Y-60592D01*
X158189Y-60490D01*
X158199Y-60379D01*
Y-60370D01*
Y-60333D01*
X158189Y-60278D01*
X158180Y-60204D01*
X158162Y-60130D01*
X158125Y-60056D01*
X158088Y-59972D01*
X158032Y-59898D01*
X158023Y-59889D01*
X158004Y-59871D01*
X157958Y-59834D01*
X157912Y-59797D01*
X157838Y-59760D01*
X157755Y-59723D01*
X157653Y-59695D01*
X157542Y-59676D01*
X157533D01*
X157496Y-59667D01*
X157394D01*
X157338Y-59658D01*
X157098D01*
X156996Y-59649D01*
D02*
G37*
G36*
X157052Y-62192D02*
X155710D01*
Y-63904D01*
X157135D01*
X157274Y-63894D01*
X157422D01*
X157570Y-63885D01*
X157690Y-63876D01*
X157745D01*
X157782Y-63867D01*
X157792D01*
X157829Y-63857D01*
X157884Y-63839D01*
X157949Y-63820D01*
X158023Y-63783D01*
X158106Y-63737D01*
X158180Y-63682D01*
X158254Y-63617D01*
X158263Y-63608D01*
X158282Y-63580D01*
X158310Y-63534D01*
X158347Y-63469D01*
X158384Y-63395D01*
X158411Y-63302D01*
X158430Y-63191D01*
X158439Y-63071D01*
Y-63062D01*
Y-63025D01*
X158430Y-62969D01*
X158421Y-62905D01*
X158402Y-62821D01*
X158374Y-62747D01*
X158337Y-62664D01*
X158291Y-62581D01*
X158282Y-62572D01*
X158263Y-62544D01*
X158236Y-62507D01*
X158189Y-62470D01*
X158134Y-62414D01*
X158060Y-62368D01*
X157977Y-62322D01*
X157884Y-62285D01*
X157875D01*
X157829Y-62266D01*
X157755Y-62257D01*
X157708Y-62248D01*
X157644Y-62239D01*
X157579Y-62229D01*
X157496Y-62220D01*
X157403Y-62211D01*
X157292D01*
X157181Y-62202D01*
X157052Y-62192D01*
D02*
G37*
G36*
X135545Y-60074D02*
X134676Y-62451D01*
X136443D01*
X135545Y-60074D01*
D02*
G37*
G36*
X104234Y-60074D02*
X103365Y-62451D01*
X105131D01*
X104234Y-60074D01*
D02*
G37*
G36*
X98027Y-59667D02*
X97065D01*
Y-61489D01*
X97953D01*
X98018Y-61480D01*
X98185D01*
X98351Y-61471D01*
X98518Y-61452D01*
X98666Y-61425D01*
X98730Y-61415D01*
X98786Y-61397D01*
X98795Y-61388D01*
X98832Y-61378D01*
X98878Y-61351D01*
X98934Y-61323D01*
X98999Y-61277D01*
X99063Y-61221D01*
X99137Y-61156D01*
X99193Y-61082D01*
X99202Y-61073D01*
X99221Y-61045D01*
X99239Y-60999D01*
X99267Y-60934D01*
X99295Y-60860D01*
X99322Y-60777D01*
X99332Y-60685D01*
X99341Y-60583D01*
Y-60564D01*
Y-60527D01*
X99332Y-60463D01*
X99313Y-60379D01*
X99285Y-60287D01*
X99248Y-60185D01*
X99202Y-60093D01*
X99128Y-60000D01*
X99119Y-59991D01*
X99091Y-59963D01*
X99045Y-59926D01*
X98989Y-59880D01*
X98915Y-59824D01*
X98823Y-59778D01*
X98721Y-59741D01*
X98610Y-59713D01*
X98601D01*
X98564Y-59704D01*
X98499Y-59695D01*
X98407Y-59686D01*
X98286D01*
X98203Y-59676D01*
X98120D01*
X98027Y-59667D01*
D02*
G37*
G36*
X181601Y-59565D02*
X181527Y-59565D01*
X181472Y-59575D01*
X181398Y-59584D01*
X181324Y-59593D01*
X181139Y-59630D01*
X180935Y-59704D01*
X180824Y-59741D01*
X180713Y-59797D01*
X180611Y-59861D01*
X180500Y-59935D01*
X180399Y-60019D01*
X180306Y-60120D01*
X180297Y-60130D01*
X180288Y-60148D01*
X180260Y-60176D01*
X180232Y-60222D01*
X180195Y-60287D01*
X180158Y-60352D01*
X180112Y-60435D01*
X180066Y-60537D01*
X180019Y-60648D01*
X179973Y-60768D01*
X179936Y-60907D01*
X179899Y-61055D01*
X179871Y-61221D01*
X179844Y-61397D01*
X179834Y-61582D01*
X179825Y-61785D01*
Y-61795D01*
Y-61832D01*
Y-61887D01*
X179834Y-61961D01*
X179844Y-62054D01*
X179853Y-62165D01*
X179871Y-62276D01*
X179890Y-62405D01*
X179945Y-62673D01*
X180038Y-62942D01*
X180093Y-63080D01*
X180158Y-63210D01*
X180241Y-63330D01*
X180325Y-63441D01*
X180334Y-63450D01*
X180352Y-63469D01*
X180380Y-63497D01*
X180417Y-63524D01*
X180463Y-63571D01*
X180528Y-63617D01*
X180593Y-63672D01*
X180676Y-63719D01*
X180852Y-63830D01*
X181074Y-63913D01*
X181194Y-63950D01*
X181324Y-63978D01*
X181462Y-63996D01*
X181601Y-64005D01*
X181675D01*
X181731Y-63996D01*
X181795Y-63987D01*
X181869Y-63978D01*
X182045Y-63931D01*
X182249Y-63867D01*
X182350Y-63820D01*
X182461Y-63774D01*
X182563Y-63709D01*
X182674Y-63635D01*
X182776Y-63552D01*
X182868Y-63450D01*
X182878Y-63441D01*
X182887Y-63423D01*
X182915Y-63395D01*
X182942Y-63349D01*
X182989Y-63284D01*
X183026Y-63210D01*
X183072Y-63127D01*
X183118Y-63025D01*
X183164Y-62914D01*
X183211Y-62794D01*
X183257Y-62655D01*
X183294Y-62498D01*
X183322Y-62340D01*
X183349Y-62165D01*
X183359Y-61970D01*
X183368Y-61767D01*
Y-61758D01*
Y-61721D01*
Y-61665D01*
X183359Y-61582D01*
X183349Y-61489D01*
X183340Y-61388D01*
X183331Y-61267D01*
X183303Y-61147D01*
X183248Y-60879D01*
X183164Y-60601D01*
X183109Y-60463D01*
X183044Y-60342D01*
X182961Y-60222D01*
X182878Y-60111D01*
X182868Y-60102D01*
X182859Y-60083D01*
X182831Y-60065D01*
X182794Y-60028D01*
X182739Y-59982D01*
X182683Y-59935D01*
X182619Y-59889D01*
X182535Y-59834D01*
X182452Y-59787D01*
X182350Y-59741D01*
X182138Y-59649D01*
X182017Y-59612D01*
X181888Y-59593D01*
X181749Y-59575D01*
X181601Y-59565D01*
D02*
G37*
G36*
X163712Y-59565D02*
X163638D01*
X163582Y-59575D01*
X163508Y-59584D01*
X163434Y-59593D01*
X163249Y-59630D01*
X163046Y-59704D01*
X162935Y-59741D01*
X162824Y-59797D01*
X162722Y-59861D01*
X162611Y-59935D01*
X162509Y-60019D01*
X162417Y-60120D01*
X162407Y-60130D01*
X162398Y-60148D01*
X162370Y-60176D01*
X162343Y-60222D01*
X162306Y-60287D01*
X162269Y-60352D01*
X162222Y-60435D01*
X162176Y-60537D01*
X162130Y-60648D01*
X162084Y-60768D01*
X162047Y-60907D01*
X162010Y-61055D01*
X161982Y-61221D01*
X161954Y-61397D01*
X161945Y-61582D01*
X161936Y-61785D01*
Y-61795D01*
Y-61832D01*
Y-61887D01*
X161945Y-61961D01*
X161954Y-62054D01*
X161963Y-62165D01*
X161982Y-62276D01*
X162000Y-62405D01*
X162056Y-62673D01*
X162148Y-62942D01*
X162204Y-63080D01*
X162269Y-63210D01*
X162352Y-63330D01*
X162435Y-63441D01*
X162444Y-63450D01*
X162463Y-63469D01*
X162491Y-63497D01*
X162528Y-63524D01*
X162574Y-63571D01*
X162639Y-63617D01*
X162703Y-63672D01*
X162787Y-63719D01*
X162962Y-63830D01*
X163184Y-63913D01*
X163305Y-63950D01*
X163434Y-63978D01*
X163573Y-63996D01*
X163712Y-64005D01*
X163786D01*
X163841Y-63996D01*
X163906Y-63987D01*
X163980Y-63978D01*
X164156Y-63931D01*
X164359Y-63867D01*
X164461Y-63820D01*
X164572Y-63774D01*
X164674Y-63709D01*
X164785Y-63635D01*
X164886Y-63552D01*
X164979Y-63450D01*
X164988Y-63441D01*
X164997Y-63423D01*
X165025Y-63395D01*
X165053Y-63349D01*
X165099Y-63284D01*
X165136Y-63210D01*
X165182Y-63127D01*
X165229Y-63025D01*
X165275Y-62914D01*
X165321Y-62794D01*
X165367Y-62655D01*
X165404Y-62498D01*
X165432Y-62340D01*
X165460Y-62165D01*
X165469Y-61970D01*
X165478Y-61767D01*
Y-61758D01*
Y-61721D01*
Y-61665D01*
X165469Y-61582D01*
X165460Y-61489D01*
X165451Y-61388D01*
X165441Y-61267D01*
X165414Y-61147D01*
X165358Y-60879D01*
X165275Y-60601D01*
X165219Y-60463D01*
X165155Y-60342D01*
X165071Y-60222D01*
X164988Y-60111D01*
X164979Y-60102D01*
X164970Y-60083D01*
X164942Y-60065D01*
X164905Y-60028D01*
X164849Y-59982D01*
X164794Y-59935D01*
X164729Y-59889D01*
X164646Y-59834D01*
X164563Y-59787D01*
X164461Y-59741D01*
X164248Y-59649D01*
X164128Y-59612D01*
X163998Y-59593D01*
X163860Y-59575D01*
X163712Y-59565D01*
D02*
G37*
%LPD*%
M02*
