G04*
G04 #@! TF.GenerationSoftware,Altium Limited,Altium Designer,23.2.1 (34)*
G04*
G04 Layer_Color=16711935*
%FSLAX25Y25*%
%MOIN*%
G70*
G04*
G04 #@! TF.SameCoordinates,387CD6D3-576D-47AB-95CD-A910FB3B32EF*
G04*
G04*
G04 #@! TF.FilePolarity,Negative*
G04*
G01*
G75*
%ADD116C,0.09494*%
%ADD117C,0.05518*%
%ADD118C,0.21660*%
%ADD119C,0.03000*%
%ADD120O,0.08668X0.04337*%
%ADD121O,0.07487X0.04337*%
%ADD122R,0.06337X0.06337*%
%ADD123C,0.06337*%
%ADD124O,0.10636X0.05518*%
%ADD125O,0.02368X0.03747*%
%ADD126C,0.02880*%
%ADD127C,0.12205*%
%ADD128C,0.04416*%
%ADD129C,0.03400*%
G36*
X146916Y-48974D02*
X147018Y-48983D01*
X147138Y-48992D01*
X147259Y-49011D01*
X147397Y-49029D01*
X147693Y-49094D01*
X147841Y-49140D01*
X147989Y-49187D01*
X148137Y-49251D01*
X148276Y-49325D01*
X148406Y-49409D01*
X148526Y-49501D01*
X148535Y-49510D01*
X148554Y-49529D01*
X148581Y-49557D01*
X148618Y-49594D01*
X148665Y-49649D01*
X148720Y-49714D01*
X148776Y-49788D01*
X148840Y-49871D01*
X148896Y-49973D01*
X148951Y-50075D01*
X149007Y-50195D01*
X149053Y-50324D01*
X149099Y-50454D01*
X149136Y-50602D01*
X149164Y-50750D01*
X149173Y-50916D01*
X147878Y-50963D01*
Y-50953D01*
Y-50944D01*
X147860Y-50879D01*
X147841Y-50796D01*
X147804Y-50694D01*
X147758Y-50574D01*
X147693Y-50463D01*
X147610Y-50352D01*
X147518Y-50260D01*
X147508Y-50250D01*
X147471Y-50223D01*
X147407Y-50186D01*
X147314Y-50149D01*
X147203Y-50112D01*
X147064Y-50075D01*
X146898Y-50047D01*
X146704Y-50038D01*
X146611D01*
X146509Y-50047D01*
X146389Y-50065D01*
X146250Y-50093D01*
X146102Y-50139D01*
X145964Y-50195D01*
X145834Y-50278D01*
X145825Y-50287D01*
X145806Y-50306D01*
X145769Y-50334D01*
X145732Y-50380D01*
X145695Y-50435D01*
X145658Y-50509D01*
X145640Y-50583D01*
X145631Y-50676D01*
Y-50685D01*
Y-50713D01*
X145640Y-50759D01*
X145658Y-50805D01*
X145677Y-50870D01*
X145705Y-50935D01*
X145751Y-51000D01*
X145816Y-51064D01*
X145825Y-51074D01*
X145871Y-51101D01*
X145899Y-51120D01*
X145945Y-51138D01*
X145991Y-51166D01*
X146056Y-51194D01*
X146130Y-51222D01*
X146213Y-51259D01*
X146315Y-51296D01*
X146417Y-51333D01*
X146546Y-51370D01*
X146685Y-51407D01*
X146833Y-51444D01*
X147000Y-51490D01*
X147009D01*
X147046Y-51499D01*
X147092Y-51508D01*
X147157Y-51527D01*
X147231Y-51545D01*
X147323Y-51573D01*
X147425Y-51601D01*
X147527Y-51629D01*
X147749Y-51703D01*
X147980Y-51777D01*
X148202Y-51860D01*
X148295Y-51906D01*
X148387Y-51952D01*
X148396D01*
X148406Y-51962D01*
X148461Y-51999D01*
X148544Y-52054D01*
X148646Y-52128D01*
X148757Y-52221D01*
X148877Y-52332D01*
X148998Y-52461D01*
X149099Y-52609D01*
X149109Y-52628D01*
X149136Y-52683D01*
X149183Y-52766D01*
X149229Y-52887D01*
X149275Y-53035D01*
X149321Y-53210D01*
X149349Y-53405D01*
X149358Y-53627D01*
Y-53636D01*
Y-53654D01*
Y-53682D01*
Y-53719D01*
X149349Y-53765D01*
X149340Y-53830D01*
X149321Y-53960D01*
X149284Y-54126D01*
X149229Y-54302D01*
X149146Y-54478D01*
X149044Y-54663D01*
Y-54672D01*
X149025Y-54681D01*
X148988Y-54737D01*
X148914Y-54829D01*
X148822Y-54931D01*
X148702Y-55051D01*
X148544Y-55162D01*
X148378Y-55273D01*
X148174Y-55375D01*
X148165D01*
X148147Y-55384D01*
X148119Y-55393D01*
X148073Y-55412D01*
X148017Y-55430D01*
X147952Y-55449D01*
X147878Y-55467D01*
X147795Y-55486D01*
X147693Y-55514D01*
X147592Y-55532D01*
X147351Y-55569D01*
X147083Y-55597D01*
X146787Y-55606D01*
X146667D01*
X146583Y-55597D01*
X146482Y-55588D01*
X146371Y-55578D01*
X146241Y-55560D01*
X146102Y-55532D01*
X145797Y-55467D01*
X145640Y-55421D01*
X145492Y-55375D01*
X145335Y-55310D01*
X145187Y-55236D01*
X145048Y-55153D01*
X144918Y-55051D01*
X144909Y-55042D01*
X144891Y-55023D01*
X144854Y-54996D01*
X144817Y-54949D01*
X144761Y-54885D01*
X144706Y-54811D01*
X144641Y-54727D01*
X144576Y-54635D01*
X144511Y-54524D01*
X144447Y-54404D01*
X144382Y-54265D01*
X144317Y-54117D01*
X144271Y-53960D01*
X144215Y-53784D01*
X144178Y-53599D01*
X144151Y-53405D01*
X145409Y-53284D01*
Y-53294D01*
X145418Y-53312D01*
Y-53349D01*
X145427Y-53386D01*
X145464Y-53497D01*
X145510Y-53636D01*
X145566Y-53793D01*
X145649Y-53950D01*
X145742Y-54089D01*
X145862Y-54219D01*
X145880Y-54228D01*
X145927Y-54265D01*
X146001Y-54311D01*
X146112Y-54367D01*
X146250Y-54422D01*
X146408Y-54468D01*
X146593Y-54505D01*
X146805Y-54515D01*
X146907D01*
X147018Y-54496D01*
X147157Y-54478D01*
X147305Y-54450D01*
X147462Y-54404D01*
X147610Y-54339D01*
X147740Y-54256D01*
X147758Y-54246D01*
X147795Y-54209D01*
X147841Y-54154D01*
X147906Y-54080D01*
X147962Y-53987D01*
X148017Y-53876D01*
X148054Y-53765D01*
X148063Y-53636D01*
Y-53627D01*
Y-53599D01*
X148054Y-53553D01*
X148045Y-53497D01*
X148026Y-53442D01*
X148008Y-53377D01*
X147971Y-53312D01*
X147925Y-53247D01*
X147915Y-53238D01*
X147897Y-53220D01*
X147869Y-53192D01*
X147823Y-53155D01*
X147758Y-53109D01*
X147675Y-53062D01*
X147582Y-53016D01*
X147462Y-52970D01*
X147453D01*
X147416Y-52951D01*
X147351Y-52933D01*
X147305Y-52914D01*
X147249Y-52905D01*
X147185Y-52887D01*
X147111Y-52859D01*
X147027Y-52840D01*
X146935Y-52813D01*
X146824Y-52785D01*
X146704Y-52757D01*
X146574Y-52720D01*
X146426Y-52683D01*
X146417D01*
X146380Y-52674D01*
X146324Y-52655D01*
X146260Y-52637D01*
X146176Y-52609D01*
X146075Y-52581D01*
X145973Y-52544D01*
X145853Y-52507D01*
X145612Y-52415D01*
X145381Y-52304D01*
X145261Y-52248D01*
X145159Y-52184D01*
X145057Y-52119D01*
X144974Y-52054D01*
X144965Y-52045D01*
X144946Y-52026D01*
X144918Y-51999D01*
X144881Y-51962D01*
X144835Y-51906D01*
X144789Y-51841D01*
X144733Y-51777D01*
X144687Y-51693D01*
X144576Y-51499D01*
X144484Y-51277D01*
X144447Y-51157D01*
X144419Y-51037D01*
X144400Y-50898D01*
X144391Y-50759D01*
Y-50750D01*
Y-50741D01*
Y-50713D01*
Y-50676D01*
X144410Y-50583D01*
X144428Y-50463D01*
X144456Y-50324D01*
X144502Y-50167D01*
X144567Y-50001D01*
X144659Y-49843D01*
Y-49834D01*
X144669Y-49825D01*
X144715Y-49769D01*
X144770Y-49695D01*
X144863Y-49603D01*
X144974Y-49501D01*
X145113Y-49390D01*
X145270Y-49288D01*
X145455Y-49196D01*
X145464D01*
X145483Y-49187D01*
X145510Y-49177D01*
X145547Y-49159D01*
X145603Y-49140D01*
X145658Y-49122D01*
X145732Y-49103D01*
X145816Y-49076D01*
X146001Y-49039D01*
X146213Y-49002D01*
X146454Y-48974D01*
X146722Y-48965D01*
X146833D01*
X146916Y-48974D01*
D02*
G37*
G36*
X95736Y-48974D02*
X95838Y-48983D01*
X95958Y-48992D01*
X96078Y-49011D01*
X96217Y-49029D01*
X96513Y-49094D01*
X96661Y-49140D01*
X96809Y-49187D01*
X96957Y-49251D01*
X97096Y-49325D01*
X97225Y-49409D01*
X97346Y-49501D01*
X97355Y-49510D01*
X97373Y-49529D01*
X97401Y-49557D01*
X97438Y-49594D01*
X97484Y-49649D01*
X97540Y-49714D01*
X97595Y-49788D01*
X97660Y-49871D01*
X97716Y-49973D01*
X97771Y-50075D01*
X97827Y-50195D01*
X97873Y-50324D01*
X97919Y-50454D01*
X97956Y-50602D01*
X97984Y-50750D01*
X97993Y-50916D01*
X96698Y-50963D01*
Y-50953D01*
Y-50944D01*
X96680Y-50879D01*
X96661Y-50796D01*
X96624Y-50694D01*
X96578Y-50574D01*
X96513Y-50463D01*
X96430Y-50352D01*
X96337Y-50260D01*
X96328Y-50250D01*
X96291Y-50223D01*
X96226Y-50186D01*
X96134Y-50149D01*
X96023Y-50112D01*
X95884Y-50075D01*
X95718Y-50047D01*
X95523Y-50038D01*
X95431D01*
X95329Y-50047D01*
X95209Y-50065D01*
X95070Y-50093D01*
X94922Y-50139D01*
X94783Y-50195D01*
X94654Y-50278D01*
X94645Y-50287D01*
X94626Y-50306D01*
X94589Y-50334D01*
X94552Y-50380D01*
X94515Y-50435D01*
X94478Y-50509D01*
X94460Y-50583D01*
X94450Y-50676D01*
Y-50685D01*
Y-50713D01*
X94460Y-50759D01*
X94478Y-50805D01*
X94497Y-50870D01*
X94524Y-50935D01*
X94571Y-51000D01*
X94635Y-51064D01*
X94645Y-51074D01*
X94691Y-51101D01*
X94719Y-51120D01*
X94765Y-51138D01*
X94811Y-51166D01*
X94876Y-51194D01*
X94950Y-51222D01*
X95033Y-51259D01*
X95135Y-51296D01*
X95237Y-51333D01*
X95366Y-51370D01*
X95505Y-51407D01*
X95653Y-51444D01*
X95819Y-51490D01*
X95829D01*
X95866Y-51499D01*
X95912Y-51508D01*
X95977Y-51527D01*
X96051Y-51545D01*
X96143Y-51573D01*
X96245Y-51601D01*
X96347Y-51629D01*
X96569Y-51703D01*
X96800Y-51777D01*
X97022Y-51860D01*
X97114Y-51906D01*
X97207Y-51952D01*
X97216D01*
X97225Y-51962D01*
X97281Y-51999D01*
X97364Y-52054D01*
X97466Y-52128D01*
X97577Y-52221D01*
X97697Y-52332D01*
X97817Y-52461D01*
X97919Y-52609D01*
X97928Y-52628D01*
X97956Y-52683D01*
X98002Y-52766D01*
X98049Y-52887D01*
X98095Y-53035D01*
X98141Y-53210D01*
X98169Y-53405D01*
X98178Y-53627D01*
Y-53636D01*
Y-53654D01*
Y-53682D01*
Y-53719D01*
X98169Y-53765D01*
X98160Y-53830D01*
X98141Y-53960D01*
X98104Y-54126D01*
X98049Y-54302D01*
X97965Y-54478D01*
X97864Y-54663D01*
Y-54672D01*
X97845Y-54681D01*
X97808Y-54737D01*
X97734Y-54829D01*
X97642Y-54931D01*
X97521Y-55051D01*
X97364Y-55162D01*
X97198Y-55273D01*
X96994Y-55375D01*
X96985D01*
X96966Y-55384D01*
X96939Y-55393D01*
X96892Y-55412D01*
X96837Y-55430D01*
X96772Y-55449D01*
X96698Y-55467D01*
X96615Y-55486D01*
X96513Y-55514D01*
X96411Y-55532D01*
X96171Y-55569D01*
X95903Y-55597D01*
X95607Y-55606D01*
X95486D01*
X95403Y-55597D01*
X95301Y-55588D01*
X95190Y-55578D01*
X95061Y-55560D01*
X94922Y-55532D01*
X94617Y-55467D01*
X94460Y-55421D01*
X94312Y-55375D01*
X94154Y-55310D01*
X94006Y-55236D01*
X93868Y-55153D01*
X93738Y-55051D01*
X93729Y-55042D01*
X93710Y-55023D01*
X93673Y-54996D01*
X93636Y-54949D01*
X93581Y-54885D01*
X93525Y-54811D01*
X93461Y-54727D01*
X93396Y-54635D01*
X93331Y-54524D01*
X93266Y-54404D01*
X93202Y-54265D01*
X93137Y-54117D01*
X93091Y-53960D01*
X93035Y-53784D01*
X92998Y-53599D01*
X92970Y-53405D01*
X94228Y-53284D01*
Y-53294D01*
X94238Y-53312D01*
Y-53349D01*
X94247Y-53386D01*
X94284Y-53497D01*
X94330Y-53636D01*
X94386Y-53793D01*
X94469Y-53950D01*
X94561Y-54089D01*
X94682Y-54219D01*
X94700Y-54228D01*
X94746Y-54265D01*
X94820Y-54311D01*
X94931Y-54367D01*
X95070Y-54422D01*
X95227Y-54468D01*
X95412Y-54505D01*
X95625Y-54515D01*
X95727D01*
X95838Y-54496D01*
X95977Y-54478D01*
X96125Y-54450D01*
X96282Y-54404D01*
X96430Y-54339D01*
X96559Y-54256D01*
X96578Y-54246D01*
X96615Y-54209D01*
X96661Y-54154D01*
X96726Y-54080D01*
X96781Y-53987D01*
X96837Y-53876D01*
X96874Y-53765D01*
X96883Y-53636D01*
Y-53627D01*
Y-53599D01*
X96874Y-53553D01*
X96865Y-53497D01*
X96846Y-53442D01*
X96828Y-53377D01*
X96791Y-53312D01*
X96744Y-53247D01*
X96735Y-53238D01*
X96717Y-53220D01*
X96689Y-53192D01*
X96643Y-53155D01*
X96578Y-53109D01*
X96495Y-53062D01*
X96402Y-53016D01*
X96282Y-52970D01*
X96273D01*
X96236Y-52951D01*
X96171Y-52933D01*
X96125Y-52914D01*
X96069Y-52905D01*
X96004Y-52887D01*
X95930Y-52859D01*
X95847Y-52840D01*
X95755Y-52813D01*
X95644Y-52785D01*
X95523Y-52757D01*
X95394Y-52720D01*
X95246Y-52683D01*
X95237D01*
X95200Y-52674D01*
X95144Y-52655D01*
X95079Y-52637D01*
X94996Y-52609D01*
X94894Y-52581D01*
X94793Y-52544D01*
X94672Y-52507D01*
X94432Y-52415D01*
X94201Y-52304D01*
X94080Y-52248D01*
X93979Y-52184D01*
X93877Y-52119D01*
X93794Y-52054D01*
X93784Y-52045D01*
X93766Y-52026D01*
X93738Y-51999D01*
X93701Y-51962D01*
X93655Y-51906D01*
X93609Y-51841D01*
X93553Y-51777D01*
X93507Y-51693D01*
X93396Y-51499D01*
X93303Y-51277D01*
X93266Y-51157D01*
X93239Y-51037D01*
X93220Y-50898D01*
X93211Y-50759D01*
Y-50750D01*
Y-50741D01*
Y-50713D01*
Y-50676D01*
X93229Y-50583D01*
X93248Y-50463D01*
X93276Y-50324D01*
X93322Y-50167D01*
X93387Y-50001D01*
X93479Y-49843D01*
Y-49834D01*
X93488Y-49825D01*
X93535Y-49769D01*
X93590Y-49695D01*
X93683Y-49603D01*
X93794Y-49501D01*
X93932Y-49390D01*
X94090Y-49288D01*
X94275Y-49196D01*
X94284D01*
X94302Y-49187D01*
X94330Y-49177D01*
X94367Y-49159D01*
X94423Y-49140D01*
X94478Y-49122D01*
X94552Y-49103D01*
X94635Y-49076D01*
X94820Y-49039D01*
X95033Y-49002D01*
X95274Y-48974D01*
X95542Y-48965D01*
X95653D01*
X95736Y-48974D01*
D02*
G37*
G36*
X153697Y-51582D02*
X156240Y-55486D01*
X154566D01*
X152799Y-52480D01*
X151754Y-53553D01*
Y-55486D01*
X150459D01*
Y-49085D01*
X151754D01*
Y-51934D01*
X154381Y-49085D01*
X156120D01*
X153697Y-51582D01*
D02*
G37*
G36*
X196848Y-55486D02*
X195655D01*
X195645Y-50454D01*
X194387Y-55486D01*
X193139D01*
X191881Y-50454D01*
Y-55486D01*
X190687D01*
Y-49085D01*
X192621D01*
X193768Y-53460D01*
X194905Y-49085D01*
X196848D01*
Y-55486D01*
D02*
G37*
G36*
X136723Y-55486D02*
X135530D01*
X135520Y-50454D01*
X134262Y-55486D01*
X133014D01*
X131756Y-50454D01*
Y-55486D01*
X130562D01*
Y-49085D01*
X132496D01*
X133643Y-53460D01*
X134780Y-49085D01*
X136723D01*
Y-55486D01*
D02*
G37*
G36*
X182908Y-50167D02*
X181021D01*
Y-55486D01*
X179726D01*
Y-50167D01*
X177830Y-50167D01*
Y-49085D01*
X182908Y-49085D01*
Y-50167D01*
D02*
G37*
G36*
X177441Y-50167D02*
X175554D01*
Y-55486D01*
X174259D01*
Y-50167D01*
X172363D01*
Y-49085D01*
X177441D01*
Y-50167D01*
D02*
G37*
G36*
X162382Y-49094D02*
X162567Y-49103D01*
X162752Y-49113D01*
X162928Y-49131D01*
X163085Y-49150D01*
X163104D01*
X163150Y-49159D01*
X163215Y-49177D01*
X163307Y-49205D01*
X163409Y-49242D01*
X163520Y-49288D01*
X163640Y-49344D01*
X163751Y-49418D01*
X163761Y-49427D01*
X163798Y-49455D01*
X163853Y-49501D01*
X163927Y-49557D01*
X164001Y-49640D01*
X164084Y-49732D01*
X164168Y-49834D01*
X164242Y-49954D01*
X164251Y-49973D01*
X164269Y-50010D01*
X164306Y-50084D01*
X164343Y-50176D01*
X164380Y-50287D01*
X164417Y-50408D01*
X164436Y-50556D01*
X164445Y-50704D01*
Y-50713D01*
Y-50722D01*
Y-50778D01*
X164436Y-50861D01*
X164417Y-50972D01*
X164380Y-51101D01*
X164343Y-51240D01*
X164279Y-51379D01*
X164195Y-51527D01*
X164186Y-51545D01*
X164149Y-51592D01*
X164094Y-51656D01*
X164029Y-51740D01*
X163936Y-51823D01*
X163825Y-51925D01*
X163696Y-52008D01*
X163548Y-52091D01*
X163557D01*
X163576Y-52100D01*
X163603Y-52110D01*
X163640Y-52119D01*
X163751Y-52165D01*
X163881Y-52230D01*
X164020Y-52304D01*
X164177Y-52406D01*
X164316Y-52526D01*
X164445Y-52674D01*
X164454Y-52692D01*
X164491Y-52748D01*
X164547Y-52831D01*
X164602Y-52942D01*
X164658Y-53090D01*
X164713Y-53247D01*
X164750Y-53432D01*
X164760Y-53636D01*
Y-53645D01*
Y-53654D01*
Y-53710D01*
X164750Y-53793D01*
X164732Y-53904D01*
X164713Y-54034D01*
X164676Y-54182D01*
X164621Y-54330D01*
X164556Y-54487D01*
X164547Y-54505D01*
X164519Y-54552D01*
X164473Y-54626D01*
X164408Y-54718D01*
X164334Y-54829D01*
X164232Y-54931D01*
X164131Y-55042D01*
X164001Y-55144D01*
X163983Y-55153D01*
X163936Y-55181D01*
X163862Y-55227D01*
X163761Y-55273D01*
X163631Y-55329D01*
X163483Y-55375D01*
X163317Y-55421D01*
X163132Y-55449D01*
X163095D01*
X163058Y-55458D01*
X162965D01*
X162900Y-55467D01*
X162725D01*
X162614Y-55477D01*
X162336D01*
X162179Y-55486D01*
X159404D01*
Y-49085D01*
X162216D01*
X162382Y-49094D01*
D02*
G37*
G36*
X143799Y-55486D02*
X142402D01*
X141847Y-54034D01*
X139276D01*
X138749Y-55486D01*
X137380D01*
X139859Y-49085D01*
X141228D01*
X143799Y-55486D01*
D02*
G37*
G36*
X127094Y-49094D02*
X127195D01*
X127297Y-49103D01*
X127417D01*
X127658Y-49131D01*
X127908Y-49159D01*
X128139Y-49205D01*
X128241Y-49233D01*
X128333Y-49261D01*
X128342D01*
X128352Y-49270D01*
X128407Y-49298D01*
X128490Y-49344D01*
X128601Y-49399D01*
X128722Y-49492D01*
X128842Y-49594D01*
X128962Y-49723D01*
X129073Y-49880D01*
Y-49890D01*
X129082Y-49899D01*
X129101Y-49927D01*
X129119Y-49954D01*
X129166Y-50047D01*
X129221Y-50167D01*
X129267Y-50315D01*
X129314Y-50482D01*
X129351Y-50676D01*
X129360Y-50879D01*
Y-50889D01*
Y-50907D01*
Y-50953D01*
X129351Y-51000D01*
Y-51064D01*
X129341Y-51129D01*
X129304Y-51296D01*
X129258Y-51490D01*
X129184Y-51684D01*
X129073Y-51888D01*
X129008Y-51980D01*
X128934Y-52073D01*
X128925Y-52082D01*
X128916Y-52091D01*
X128888Y-52119D01*
X128851Y-52147D01*
X128814Y-52184D01*
X128759Y-52230D01*
X128694Y-52276D01*
X128620Y-52322D01*
X128537Y-52378D01*
X128435Y-52424D01*
X128333Y-52470D01*
X128222Y-52517D01*
X128093Y-52563D01*
X127963Y-52600D01*
X127824Y-52637D01*
X127667Y-52665D01*
X127676D01*
X127686Y-52674D01*
X127741Y-52711D01*
X127815Y-52757D01*
X127908Y-52822D01*
X128019Y-52905D01*
X128130Y-52988D01*
X128250Y-53090D01*
X128352Y-53201D01*
X128361Y-53210D01*
X128407Y-53257D01*
X128463Y-53331D01*
X128546Y-53442D01*
X128657Y-53580D01*
X128712Y-53673D01*
X128777Y-53765D01*
X128851Y-53867D01*
X128925Y-53978D01*
X129008Y-54108D01*
X129092Y-54237D01*
X129878Y-55486D01*
X128324D01*
X127399Y-54098D01*
X127390Y-54089D01*
X127380Y-54061D01*
X127353Y-54024D01*
X127316Y-53978D01*
X127279Y-53923D01*
X127232Y-53849D01*
X127131Y-53701D01*
X127010Y-53534D01*
X126899Y-53386D01*
X126798Y-53247D01*
X126751Y-53201D01*
X126714Y-53155D01*
X126705Y-53146D01*
X126687Y-53127D01*
X126650Y-53090D01*
X126603Y-53044D01*
X126539Y-53007D01*
X126474Y-52961D01*
X126400Y-52924D01*
X126326Y-52887D01*
X126317D01*
X126289Y-52877D01*
X126243Y-52859D01*
X126169Y-52850D01*
X126076Y-52831D01*
X125965Y-52822D01*
X125836Y-52813D01*
X125419D01*
Y-55486D01*
X124124D01*
Y-49085D01*
X127010D01*
X127094Y-49094D01*
D02*
G37*
G36*
X122903Y-50167D02*
X119453Y-50167D01*
Y-51582D01*
X122663Y-51582D01*
Y-52665D01*
X119453Y-52665D01*
Y-54404D01*
X123024Y-54404D01*
Y-55486D01*
X118158Y-55486D01*
Y-49085D01*
X122903Y-49085D01*
Y-50167D01*
D02*
G37*
G36*
X114329Y-49094D02*
X114504Y-49103D01*
X114699Y-49113D01*
X114902Y-49140D01*
X115096Y-49168D01*
X115272Y-49214D01*
X115281D01*
X115300Y-49224D01*
X115328Y-49233D01*
X115365Y-49242D01*
X115476Y-49288D01*
X115605Y-49353D01*
X115753Y-49436D01*
X115920Y-49538D01*
X116077Y-49658D01*
X116234Y-49806D01*
X116243D01*
X116253Y-49825D01*
X116299Y-49880D01*
X116373Y-49973D01*
X116456Y-50093D01*
X116558Y-50241D01*
X116660Y-50417D01*
X116761Y-50620D01*
X116845Y-50842D01*
Y-50852D01*
X116854Y-50870D01*
X116863Y-50907D01*
X116882Y-50953D01*
X116891Y-51009D01*
X116909Y-51083D01*
X116928Y-51166D01*
X116956Y-51259D01*
X116974Y-51360D01*
X116993Y-51481D01*
X117011Y-51601D01*
X117020Y-51740D01*
X117048Y-52026D01*
X117057Y-52350D01*
Y-52359D01*
Y-52387D01*
Y-52424D01*
Y-52480D01*
X117048Y-52554D01*
Y-52628D01*
X117039Y-52720D01*
X117030Y-52822D01*
X117011Y-53035D01*
X116974Y-53257D01*
X116919Y-53488D01*
X116854Y-53710D01*
Y-53719D01*
X116845Y-53738D01*
X116826Y-53775D01*
X116808Y-53830D01*
X116789Y-53886D01*
X116752Y-53950D01*
X116678Y-54117D01*
X116586Y-54293D01*
X116465Y-54487D01*
X116327Y-54672D01*
X116169Y-54848D01*
X116151Y-54866D01*
X116105Y-54903D01*
X116031Y-54959D01*
X115929Y-55033D01*
X115799Y-55116D01*
X115651Y-55199D01*
X115466Y-55282D01*
X115263Y-55356D01*
X115254D01*
X115244Y-55366D01*
X115217D01*
X115189Y-55375D01*
X115087Y-55393D01*
X114958Y-55421D01*
X114800Y-55449D01*
X114606Y-55467D01*
X114375Y-55477D01*
X114125Y-55486D01*
X111702D01*
Y-49085D01*
X114255D01*
X114329Y-49094D01*
D02*
G37*
G36*
X107558Y-54404D02*
X110777D01*
Y-55486D01*
X106263D01*
Y-49131D01*
X107558D01*
Y-54404D01*
D02*
G37*
G36*
X186710Y-48974D02*
X186802D01*
X186923Y-48992D01*
X187061Y-49011D01*
X187219Y-49039D01*
X187385Y-49076D01*
X187561Y-49122D01*
X187746Y-49177D01*
X187931Y-49251D01*
X188125Y-49335D01*
X188310Y-49436D01*
X188495Y-49557D01*
X188671Y-49695D01*
X188837Y-49853D01*
X188847Y-49862D01*
X188874Y-49890D01*
X188921Y-49945D01*
X188967Y-50010D01*
X189032Y-50102D01*
X189106Y-50213D01*
X189180Y-50343D01*
X189263Y-50491D01*
X189346Y-50648D01*
X189420Y-50833D01*
X189494Y-51037D01*
X189559Y-51249D01*
X189614Y-51490D01*
X189651Y-51740D01*
X189679Y-52008D01*
X189688Y-52295D01*
Y-52313D01*
Y-52359D01*
X189679Y-52443D01*
Y-52554D01*
X189661Y-52683D01*
X189642Y-52831D01*
X189614Y-53007D01*
X189587Y-53183D01*
X189540Y-53377D01*
X189485Y-53580D01*
X189411Y-53784D01*
X189328Y-53987D01*
X189235Y-54182D01*
X189115Y-54376D01*
X188985Y-54561D01*
X188837Y-54737D01*
X188828Y-54746D01*
X188800Y-54774D01*
X188754Y-54820D01*
X188680Y-54875D01*
X188597Y-54940D01*
X188495Y-55014D01*
X188375Y-55088D01*
X188245Y-55171D01*
X188088Y-55255D01*
X187922Y-55329D01*
X187737Y-55403D01*
X187533Y-55467D01*
X187320Y-55523D01*
X187089Y-55569D01*
X186849Y-55597D01*
X186590Y-55606D01*
X186525D01*
X186451Y-55597D01*
X186358Y-55588D01*
X186238Y-55578D01*
X186099Y-55560D01*
X185942Y-55532D01*
X185776Y-55495D01*
X185591Y-55449D01*
X185415Y-55393D01*
X185221Y-55319D01*
X185036Y-55236D01*
X184841Y-55144D01*
X184666Y-55023D01*
X184490Y-54894D01*
X184323Y-54737D01*
X184314Y-54727D01*
X184286Y-54700D01*
X184249Y-54644D01*
X184194Y-54579D01*
X184129Y-54487D01*
X184055Y-54376D01*
X183981Y-54256D01*
X183907Y-54108D01*
X183824Y-53950D01*
X183750Y-53765D01*
X183676Y-53571D01*
X183611Y-53358D01*
X183556Y-53127D01*
X183519Y-52877D01*
X183491Y-52609D01*
X183482Y-52332D01*
Y-52322D01*
Y-52285D01*
Y-52239D01*
X183491Y-52165D01*
Y-52082D01*
X183500Y-51989D01*
X183509Y-51878D01*
X183519Y-51758D01*
X183556Y-51499D01*
X183602Y-51222D01*
X183676Y-50944D01*
X183768Y-50685D01*
Y-50676D01*
X183778Y-50667D01*
X183796Y-50639D01*
X183805Y-50602D01*
X183861Y-50509D01*
X183926Y-50389D01*
X184009Y-50250D01*
X184111Y-50112D01*
X184231Y-49954D01*
X184360Y-49806D01*
X184370Y-49797D01*
X184379Y-49788D01*
X184425Y-49742D01*
X184508Y-49668D01*
X184610Y-49584D01*
X184730Y-49492D01*
X184869Y-49390D01*
X185026Y-49298D01*
X185193Y-49224D01*
X185202D01*
X185221Y-49214D01*
X185258Y-49196D01*
X185304Y-49187D01*
X185359Y-49159D01*
X185424Y-49140D01*
X185507Y-49122D01*
X185591Y-49094D01*
X185794Y-49048D01*
X186025Y-49002D01*
X186294Y-48974D01*
X186571Y-48965D01*
X186636D01*
X186710Y-48974D01*
D02*
G37*
G36*
X168820Y-48974D02*
X168913D01*
X169033Y-48992D01*
X169172Y-49011D01*
X169329Y-49039D01*
X169496Y-49076D01*
X169671Y-49122D01*
X169856Y-49177D01*
X170041Y-49251D01*
X170236Y-49335D01*
X170421Y-49436D01*
X170606Y-49557D01*
X170781Y-49695D01*
X170948Y-49853D01*
X170957Y-49862D01*
X170985Y-49890D01*
X171031Y-49945D01*
X171077Y-50010D01*
X171142Y-50102D01*
X171216Y-50213D01*
X171290Y-50343D01*
X171373Y-50491D01*
X171457Y-50648D01*
X171531Y-50833D01*
X171605Y-51037D01*
X171669Y-51249D01*
X171725Y-51490D01*
X171762Y-51740D01*
X171790Y-52008D01*
X171799Y-52295D01*
Y-52313D01*
Y-52359D01*
X171790Y-52443D01*
Y-52554D01*
X171771Y-52683D01*
X171753Y-52831D01*
X171725Y-53007D01*
X171697Y-53183D01*
X171651Y-53377D01*
X171595Y-53580D01*
X171521Y-53784D01*
X171438Y-53987D01*
X171346Y-54182D01*
X171225Y-54376D01*
X171096Y-54561D01*
X170948Y-54737D01*
X170939Y-54746D01*
X170911Y-54774D01*
X170865Y-54820D01*
X170791Y-54875D01*
X170707Y-54940D01*
X170606Y-55014D01*
X170485Y-55088D01*
X170356Y-55171D01*
X170199Y-55255D01*
X170032Y-55329D01*
X169847Y-55403D01*
X169644Y-55467D01*
X169431Y-55523D01*
X169200Y-55569D01*
X168959Y-55597D01*
X168700Y-55606D01*
X168635D01*
X168561Y-55597D01*
X168469Y-55588D01*
X168349Y-55578D01*
X168210Y-55560D01*
X168053Y-55532D01*
X167886Y-55495D01*
X167701Y-55449D01*
X167525Y-55393D01*
X167331Y-55319D01*
X167146Y-55236D01*
X166952Y-55144D01*
X166776Y-55023D01*
X166600Y-54894D01*
X166434Y-54737D01*
X166425Y-54727D01*
X166397Y-54700D01*
X166360Y-54644D01*
X166304Y-54579D01*
X166240Y-54487D01*
X166166Y-54376D01*
X166092Y-54256D01*
X166018Y-54108D01*
X165934Y-53950D01*
X165860Y-53765D01*
X165786Y-53571D01*
X165722Y-53358D01*
X165666Y-53127D01*
X165629Y-52877D01*
X165601Y-52609D01*
X165592Y-52332D01*
Y-52322D01*
Y-52285D01*
Y-52239D01*
X165601Y-52165D01*
Y-52082D01*
X165611Y-51989D01*
X165620Y-51878D01*
X165629Y-51758D01*
X165666Y-51499D01*
X165712Y-51222D01*
X165786Y-50944D01*
X165879Y-50685D01*
Y-50676D01*
X165888Y-50667D01*
X165907Y-50639D01*
X165916Y-50602D01*
X165971Y-50509D01*
X166036Y-50389D01*
X166119Y-50250D01*
X166221Y-50112D01*
X166341Y-49954D01*
X166471Y-49806D01*
X166480Y-49797D01*
X166489Y-49788D01*
X166536Y-49742D01*
X166619Y-49668D01*
X166721Y-49584D01*
X166841Y-49492D01*
X166980Y-49390D01*
X167137Y-49298D01*
X167303Y-49224D01*
X167313D01*
X167331Y-49214D01*
X167368Y-49196D01*
X167414Y-49187D01*
X167470Y-49159D01*
X167535Y-49140D01*
X167618Y-49122D01*
X167701Y-49094D01*
X167905Y-49048D01*
X168136Y-49002D01*
X168404Y-48974D01*
X168682Y-48965D01*
X168746D01*
X168820Y-48974D01*
D02*
G37*
G36*
X102239Y-48974D02*
X102331D01*
X102452Y-48992D01*
X102590Y-49011D01*
X102748Y-49039D01*
X102914Y-49076D01*
X103090Y-49122D01*
X103275Y-49177D01*
X103460Y-49251D01*
X103654Y-49335D01*
X103839Y-49436D01*
X104024Y-49557D01*
X104200Y-49695D01*
X104366Y-49853D01*
X104376Y-49862D01*
X104403Y-49890D01*
X104450Y-49945D01*
X104496Y-50010D01*
X104561Y-50102D01*
X104635Y-50213D01*
X104709Y-50343D01*
X104792Y-50491D01*
X104875Y-50648D01*
X104949Y-50833D01*
X105023Y-51037D01*
X105088Y-51249D01*
X105143Y-51490D01*
X105180Y-51740D01*
X105208Y-52008D01*
X105217Y-52295D01*
Y-52313D01*
Y-52359D01*
X105208Y-52443D01*
Y-52554D01*
X105190Y-52683D01*
X105171Y-52831D01*
X105143Y-53007D01*
X105116Y-53183D01*
X105069Y-53377D01*
X105014Y-53580D01*
X104940Y-53784D01*
X104857Y-53987D01*
X104764Y-54182D01*
X104644Y-54376D01*
X104514Y-54561D01*
X104366Y-54737D01*
X104357Y-54746D01*
X104329Y-54774D01*
X104283Y-54820D01*
X104209Y-54875D01*
X104126Y-54940D01*
X104024Y-55014D01*
X103904Y-55088D01*
X103774Y-55171D01*
X103617Y-55255D01*
X103451Y-55329D01*
X103266Y-55403D01*
X103062Y-55467D01*
X102849Y-55523D01*
X102618Y-55569D01*
X102378Y-55597D01*
X102119Y-55606D01*
X102054D01*
X101980Y-55597D01*
X101887Y-55588D01*
X101767Y-55578D01*
X101628Y-55560D01*
X101471Y-55532D01*
X101305Y-55495D01*
X101120Y-55449D01*
X100944Y-55393D01*
X100750Y-55319D01*
X100565Y-55236D01*
X100370Y-55144D01*
X100195Y-55023D01*
X100019Y-54894D01*
X99852Y-54737D01*
X99843Y-54727D01*
X99815Y-54700D01*
X99778Y-54644D01*
X99723Y-54579D01*
X99658Y-54487D01*
X99584Y-54376D01*
X99510Y-54256D01*
X99436Y-54108D01*
X99353Y-53950D01*
X99279Y-53765D01*
X99205Y-53571D01*
X99140Y-53358D01*
X99085Y-53127D01*
X99048Y-52877D01*
X99020Y-52609D01*
X99011Y-52332D01*
Y-52322D01*
Y-52285D01*
Y-52239D01*
X99020Y-52165D01*
Y-52082D01*
X99029Y-51989D01*
X99038Y-51878D01*
X99048Y-51758D01*
X99085Y-51499D01*
X99131Y-51222D01*
X99205Y-50944D01*
X99297Y-50685D01*
Y-50676D01*
X99307Y-50667D01*
X99325Y-50639D01*
X99334Y-50602D01*
X99390Y-50509D01*
X99455Y-50389D01*
X99538Y-50250D01*
X99640Y-50112D01*
X99760Y-49954D01*
X99889Y-49806D01*
X99899Y-49797D01*
X99908Y-49788D01*
X99954Y-49742D01*
X100037Y-49668D01*
X100139Y-49584D01*
X100259Y-49492D01*
X100398Y-49390D01*
X100555Y-49298D01*
X100722Y-49224D01*
X100731D01*
X100750Y-49214D01*
X100787Y-49196D01*
X100833Y-49187D01*
X100888Y-49159D01*
X100953Y-49140D01*
X101036Y-49122D01*
X101120Y-49094D01*
X101323Y-49048D01*
X101554Y-49002D01*
X101823Y-48974D01*
X102100Y-48965D01*
X102165D01*
X102239Y-48974D01*
D02*
G37*
%LPC*%
G36*
X161985Y-50149D02*
X160699D01*
Y-51629D01*
X161938D01*
X162096Y-51619D01*
X162382D01*
X162438Y-51610D01*
X162493D01*
X162530Y-51601D01*
X162586Y-51592D01*
X162669Y-51564D01*
X162752Y-51536D01*
X162836Y-51499D01*
X162919Y-51453D01*
X162993Y-51388D01*
X163002Y-51379D01*
X163021Y-51351D01*
X163058Y-51314D01*
X163095Y-51249D01*
X163122Y-51175D01*
X163159Y-51092D01*
X163178Y-50990D01*
X163187Y-50879D01*
Y-50870D01*
Y-50833D01*
X163178Y-50778D01*
X163169Y-50704D01*
X163150Y-50630D01*
X163113Y-50556D01*
X163076Y-50472D01*
X163021Y-50398D01*
X163011Y-50389D01*
X162993Y-50371D01*
X162947Y-50334D01*
X162900Y-50297D01*
X162826Y-50260D01*
X162743Y-50223D01*
X162641Y-50195D01*
X162530Y-50176D01*
X162521D01*
X162484Y-50167D01*
X162382D01*
X162327Y-50158D01*
X162086D01*
X161985Y-50149D01*
D02*
G37*
G36*
X162040Y-52692D02*
X160699D01*
Y-54404D01*
X162123D01*
X162262Y-54394D01*
X162410D01*
X162558Y-54385D01*
X162678Y-54376D01*
X162734D01*
X162771Y-54367D01*
X162780D01*
X162817Y-54357D01*
X162873Y-54339D01*
X162937Y-54320D01*
X163011Y-54283D01*
X163095Y-54237D01*
X163169Y-54182D01*
X163243Y-54117D01*
X163252Y-54108D01*
X163270Y-54080D01*
X163298Y-54034D01*
X163335Y-53969D01*
X163372Y-53895D01*
X163400Y-53802D01*
X163418Y-53691D01*
X163428Y-53571D01*
Y-53562D01*
Y-53525D01*
X163418Y-53469D01*
X163409Y-53405D01*
X163391Y-53321D01*
X163363Y-53247D01*
X163326Y-53164D01*
X163280Y-53081D01*
X163270Y-53072D01*
X163252Y-53044D01*
X163224Y-53007D01*
X163178Y-52970D01*
X163122Y-52914D01*
X163048Y-52868D01*
X162965Y-52822D01*
X162873Y-52785D01*
X162863D01*
X162817Y-52766D01*
X162743Y-52757D01*
X162697Y-52748D01*
X162632Y-52739D01*
X162567Y-52729D01*
X162484Y-52720D01*
X162392Y-52711D01*
X162281D01*
X162170Y-52702D01*
X162040Y-52692D01*
D02*
G37*
G36*
X140534Y-50574D02*
X139664Y-52951D01*
X141431D01*
X140534Y-50574D01*
D02*
G37*
G36*
X126899Y-50167D02*
X125419D01*
Y-51795D01*
X126677D01*
X126862Y-51786D01*
X127057Y-51777D01*
X127251Y-51767D01*
X127334Y-51758D01*
X127408Y-51749D01*
X127482Y-51730D01*
X127528Y-51721D01*
X127538D01*
X127565Y-51703D01*
X127612Y-51684D01*
X127658Y-51656D01*
X127778Y-51573D01*
X127834Y-51518D01*
X127889Y-51453D01*
X127898Y-51444D01*
X127908Y-51416D01*
X127935Y-51379D01*
X127963Y-51323D01*
X127982Y-51249D01*
X128009Y-51166D01*
X128019Y-51074D01*
X128028Y-50972D01*
Y-50953D01*
Y-50916D01*
X128019Y-50861D01*
X128009Y-50787D01*
X127982Y-50704D01*
X127954Y-50620D01*
X127908Y-50528D01*
X127852Y-50454D01*
X127843Y-50445D01*
X127824Y-50417D01*
X127778Y-50389D01*
X127723Y-50343D01*
X127658Y-50297D01*
X127575Y-50260D01*
X127473Y-50223D01*
X127362Y-50195D01*
X127353D01*
X127325Y-50186D01*
X127269D01*
X127186Y-50176D01*
X126983D01*
X126899Y-50167D01*
D02*
G37*
G36*
X113838Y-50167D02*
X112997D01*
Y-54404D01*
X114134D01*
X114255Y-54394D01*
X114384D01*
X114514Y-54376D01*
X114634Y-54367D01*
X114736Y-54348D01*
X114754D01*
X114791Y-54330D01*
X114847Y-54311D01*
X114921Y-54283D01*
X115004Y-54246D01*
X115087Y-54200D01*
X115170Y-54145D01*
X115254Y-54080D01*
X115263Y-54071D01*
X115291Y-54043D01*
X115328Y-53997D01*
X115374Y-53932D01*
X115420Y-53849D01*
X115485Y-53747D01*
X115531Y-53617D01*
X115587Y-53469D01*
Y-53460D01*
X115596Y-53451D01*
Y-53423D01*
X115605Y-53386D01*
X115624Y-53349D01*
X115633Y-53294D01*
X115661Y-53155D01*
X115679Y-52988D01*
X115707Y-52794D01*
X115716Y-52554D01*
X115725Y-52295D01*
Y-52285D01*
Y-52258D01*
Y-52221D01*
Y-52174D01*
Y-52110D01*
X115716Y-52036D01*
X115707Y-51878D01*
X115688Y-51693D01*
X115670Y-51499D01*
X115633Y-51323D01*
X115587Y-51157D01*
Y-51148D01*
X115577Y-51138D01*
X115559Y-51092D01*
X115531Y-51018D01*
X115494Y-50926D01*
X115439Y-50833D01*
X115374Y-50731D01*
X115300Y-50630D01*
X115217Y-50537D01*
X115207Y-50528D01*
X115180Y-50500D01*
X115124Y-50463D01*
X115059Y-50417D01*
X114967Y-50361D01*
X114865Y-50315D01*
X114754Y-50269D01*
X114625Y-50232D01*
X114615D01*
X114569Y-50223D01*
X114495Y-50213D01*
X114393Y-50195D01*
X114329D01*
X114245Y-50186D01*
X114162D01*
X114070Y-50176D01*
X113959D01*
X113838Y-50167D01*
D02*
G37*
G36*
X186590Y-50065D02*
X186516D01*
X186460Y-50075D01*
X186386Y-50084D01*
X186312Y-50093D01*
X186127Y-50130D01*
X185924Y-50204D01*
X185813Y-50241D01*
X185702Y-50297D01*
X185600Y-50361D01*
X185489Y-50435D01*
X185387Y-50519D01*
X185295Y-50620D01*
X185285Y-50630D01*
X185276Y-50648D01*
X185248Y-50676D01*
X185221Y-50722D01*
X185184Y-50787D01*
X185147Y-50852D01*
X185100Y-50935D01*
X185054Y-51037D01*
X185008Y-51148D01*
X184962Y-51268D01*
X184925Y-51407D01*
X184888Y-51555D01*
X184860Y-51721D01*
X184832Y-51897D01*
X184823Y-52082D01*
X184814Y-52285D01*
Y-52295D01*
Y-52332D01*
Y-52387D01*
X184823Y-52461D01*
X184832Y-52554D01*
X184841Y-52665D01*
X184860Y-52776D01*
X184878Y-52905D01*
X184934Y-53173D01*
X185026Y-53442D01*
X185082Y-53580D01*
X185147Y-53710D01*
X185230Y-53830D01*
X185313Y-53941D01*
X185322Y-53950D01*
X185341Y-53969D01*
X185369Y-53997D01*
X185406Y-54024D01*
X185452Y-54071D01*
X185517Y-54117D01*
X185581Y-54172D01*
X185665Y-54219D01*
X185840Y-54330D01*
X186062Y-54413D01*
X186183Y-54450D01*
X186312Y-54478D01*
X186451Y-54496D01*
X186590Y-54505D01*
X186664D01*
X186719Y-54496D01*
X186784Y-54487D01*
X186858Y-54478D01*
X187034Y-54431D01*
X187237Y-54367D01*
X187339Y-54320D01*
X187450Y-54274D01*
X187552Y-54209D01*
X187663Y-54135D01*
X187764Y-54052D01*
X187857Y-53950D01*
X187866Y-53941D01*
X187875Y-53923D01*
X187903Y-53895D01*
X187931Y-53849D01*
X187977Y-53784D01*
X188014Y-53710D01*
X188060Y-53627D01*
X188107Y-53525D01*
X188153Y-53414D01*
X188199Y-53294D01*
X188245Y-53155D01*
X188282Y-52998D01*
X188310Y-52840D01*
X188338Y-52665D01*
X188347Y-52470D01*
X188356Y-52267D01*
Y-52258D01*
Y-52221D01*
Y-52165D01*
X188347Y-52082D01*
X188338Y-51989D01*
X188329Y-51888D01*
X188319Y-51767D01*
X188292Y-51647D01*
X188236Y-51379D01*
X188153Y-51101D01*
X188097Y-50963D01*
X188033Y-50842D01*
X187949Y-50722D01*
X187866Y-50611D01*
X187857Y-50602D01*
X187848Y-50583D01*
X187820Y-50565D01*
X187783Y-50528D01*
X187727Y-50482D01*
X187672Y-50435D01*
X187607Y-50389D01*
X187524Y-50334D01*
X187441Y-50287D01*
X187339Y-50241D01*
X187126Y-50149D01*
X187006Y-50112D01*
X186876Y-50093D01*
X186738Y-50075D01*
X186590Y-50065D01*
D02*
G37*
G36*
X168700Y-50065D02*
X168626D01*
X168571Y-50075D01*
X168497Y-50084D01*
X168423Y-50093D01*
X168238Y-50130D01*
X168034Y-50204D01*
X167923Y-50241D01*
X167812Y-50297D01*
X167710Y-50361D01*
X167599Y-50435D01*
X167498Y-50519D01*
X167405Y-50620D01*
X167396Y-50630D01*
X167387Y-50648D01*
X167359Y-50676D01*
X167331Y-50722D01*
X167294Y-50787D01*
X167257Y-50852D01*
X167211Y-50935D01*
X167165Y-51037D01*
X167118Y-51148D01*
X167072Y-51268D01*
X167035Y-51407D01*
X166998Y-51555D01*
X166970Y-51721D01*
X166943Y-51897D01*
X166933Y-52082D01*
X166924Y-52285D01*
Y-52295D01*
Y-52332D01*
Y-52387D01*
X166933Y-52461D01*
X166943Y-52554D01*
X166952Y-52665D01*
X166970Y-52776D01*
X166989Y-52905D01*
X167044Y-53173D01*
X167137Y-53442D01*
X167192Y-53580D01*
X167257Y-53710D01*
X167340Y-53830D01*
X167424Y-53941D01*
X167433Y-53950D01*
X167451Y-53969D01*
X167479Y-53997D01*
X167516Y-54024D01*
X167562Y-54071D01*
X167627Y-54117D01*
X167692Y-54172D01*
X167775Y-54219D01*
X167951Y-54330D01*
X168173Y-54413D01*
X168293Y-54450D01*
X168423Y-54478D01*
X168561Y-54496D01*
X168700Y-54505D01*
X168774D01*
X168830Y-54496D01*
X168894Y-54487D01*
X168968Y-54478D01*
X169144Y-54431D01*
X169348Y-54367D01*
X169449Y-54320D01*
X169560Y-54274D01*
X169662Y-54209D01*
X169773Y-54135D01*
X169875Y-54052D01*
X169967Y-53950D01*
X169977Y-53941D01*
X169986Y-53923D01*
X170014Y-53895D01*
X170041Y-53849D01*
X170088Y-53784D01*
X170125Y-53710D01*
X170171Y-53627D01*
X170217Y-53525D01*
X170263Y-53414D01*
X170310Y-53294D01*
X170356Y-53155D01*
X170393Y-52998D01*
X170421Y-52840D01*
X170448Y-52665D01*
X170458Y-52470D01*
X170467Y-52267D01*
Y-52258D01*
Y-52221D01*
Y-52165D01*
X170458Y-52082D01*
X170448Y-51989D01*
X170439Y-51888D01*
X170430Y-51767D01*
X170402Y-51647D01*
X170347Y-51379D01*
X170263Y-51101D01*
X170208Y-50963D01*
X170143Y-50842D01*
X170060Y-50722D01*
X169977Y-50611D01*
X169967Y-50602D01*
X169958Y-50583D01*
X169930Y-50565D01*
X169893Y-50528D01*
X169838Y-50482D01*
X169782Y-50435D01*
X169718Y-50389D01*
X169634Y-50334D01*
X169551Y-50287D01*
X169449Y-50241D01*
X169237Y-50149D01*
X169116Y-50112D01*
X168987Y-50093D01*
X168848Y-50075D01*
X168700Y-50065D01*
D02*
G37*
G36*
X102119Y-50065D02*
X102045D01*
X101989Y-50075D01*
X101915Y-50084D01*
X101841Y-50093D01*
X101656Y-50130D01*
X101453Y-50204D01*
X101342Y-50241D01*
X101231Y-50297D01*
X101129Y-50361D01*
X101018Y-50435D01*
X100916Y-50519D01*
X100824Y-50620D01*
X100814Y-50630D01*
X100805Y-50648D01*
X100777Y-50676D01*
X100750Y-50722D01*
X100713Y-50787D01*
X100676Y-50852D01*
X100629Y-50935D01*
X100583Y-51037D01*
X100537Y-51148D01*
X100491Y-51268D01*
X100454Y-51407D01*
X100417Y-51555D01*
X100389Y-51721D01*
X100361Y-51897D01*
X100352Y-52082D01*
X100343Y-52285D01*
Y-52295D01*
Y-52332D01*
Y-52387D01*
X100352Y-52461D01*
X100361Y-52554D01*
X100370Y-52665D01*
X100389Y-52776D01*
X100407Y-52905D01*
X100463Y-53173D01*
X100555Y-53442D01*
X100611Y-53580D01*
X100676Y-53710D01*
X100759Y-53830D01*
X100842Y-53941D01*
X100851Y-53950D01*
X100870Y-53969D01*
X100898Y-53997D01*
X100935Y-54024D01*
X100981Y-54071D01*
X101046Y-54117D01*
X101110Y-54172D01*
X101194Y-54219D01*
X101369Y-54330D01*
X101591Y-54413D01*
X101712Y-54450D01*
X101841Y-54478D01*
X101980Y-54496D01*
X102119Y-54505D01*
X102193D01*
X102248Y-54496D01*
X102313Y-54487D01*
X102387Y-54478D01*
X102563Y-54431D01*
X102766Y-54367D01*
X102868Y-54320D01*
X102979Y-54274D01*
X103081Y-54209D01*
X103192Y-54135D01*
X103293Y-54052D01*
X103386Y-53950D01*
X103395Y-53941D01*
X103404Y-53923D01*
X103432Y-53895D01*
X103460Y-53849D01*
X103506Y-53784D01*
X103543Y-53710D01*
X103589Y-53627D01*
X103636Y-53525D01*
X103682Y-53414D01*
X103728Y-53294D01*
X103774Y-53155D01*
X103811Y-52998D01*
X103839Y-52840D01*
X103867Y-52665D01*
X103876Y-52470D01*
X103885Y-52267D01*
Y-52258D01*
Y-52221D01*
Y-52165D01*
X103876Y-52082D01*
X103867Y-51989D01*
X103858Y-51888D01*
X103848Y-51767D01*
X103821Y-51647D01*
X103765Y-51379D01*
X103682Y-51101D01*
X103626Y-50963D01*
X103562Y-50842D01*
X103478Y-50722D01*
X103395Y-50611D01*
X103386Y-50602D01*
X103377Y-50583D01*
X103349Y-50565D01*
X103312Y-50528D01*
X103256Y-50482D01*
X103201Y-50435D01*
X103136Y-50389D01*
X103053Y-50334D01*
X102970Y-50287D01*
X102868Y-50241D01*
X102655Y-50149D01*
X102535Y-50112D01*
X102405Y-50093D01*
X102267Y-50075D01*
X102119Y-50065D01*
D02*
G37*
%LPD*%
D116*
X303366Y143311D02*
D03*
X323366D02*
D03*
Y123311D02*
D03*
X303366D02*
D03*
X313366Y133311D02*
D03*
Y189311D02*
D03*
X303366Y179311D02*
D03*
X323366D02*
D03*
Y199311D02*
D03*
X303366D02*
D03*
D117*
X208583Y70984D02*
D03*
X186732Y60984D02*
D03*
X197583Y70984D02*
D03*
Y60984D02*
D03*
X186732Y70984D02*
D03*
X175590Y60984D02*
D03*
Y70984D02*
D03*
X218085Y90560D02*
D03*
X225959D02*
D03*
Y100402D02*
D03*
X218085D02*
D03*
X225959Y110245D02*
D03*
X218085D02*
D03*
X225959Y120086D02*
D03*
X218085D02*
D03*
D118*
X314961Y248031D02*
D03*
X112204Y125985D02*
D03*
X0Y0D02*
D03*
Y248031D02*
D03*
X314961Y0D02*
D03*
D119*
X305985Y98689D02*
D03*
Y75933D02*
D03*
D120*
X304017Y70303D02*
D03*
Y104319D02*
D03*
D121*
X320474D02*
D03*
Y70303D02*
D03*
D122*
X270433Y55118D02*
D03*
X8809Y134773D02*
D03*
X310000Y55223D02*
D03*
D123*
X280433Y55118D02*
D03*
X290433D02*
D03*
X-1191Y134773D02*
D03*
X320000Y55223D02*
D03*
D124*
X-8455Y148346D02*
D03*
Y182362D02*
D03*
D125*
X3809Y151181D02*
D03*
D126*
X3553Y179527D02*
D03*
D127*
X202697Y224410D02*
D03*
X320807D02*
D03*
X-5847D02*
D03*
X112263D02*
D03*
D128*
X301378Y234902D02*
D03*
X222126D02*
D03*
X92834D02*
D03*
X13582D02*
D03*
D129*
X120472Y125985D02*
D03*
X118050Y131831D02*
D03*
X112204Y134252D02*
D03*
X103936Y125985D02*
D03*
X106358Y131831D02*
D03*
X112204Y117717D02*
D03*
X106358Y120138D02*
D03*
X118050D02*
D03*
X8268Y0D02*
D03*
X5846Y5846D02*
D03*
X0Y8268D02*
D03*
X-8268Y0D02*
D03*
X-5846Y5846D02*
D03*
X0Y-8268D02*
D03*
X-5846Y-5846D02*
D03*
X5846D02*
D03*
X323228Y248031D02*
D03*
X320807Y253878D02*
D03*
X314961Y256299D02*
D03*
X306693Y248031D02*
D03*
X309115Y253878D02*
D03*
X314961Y239764D02*
D03*
X309115Y242185D02*
D03*
X320807D02*
D03*
X8268Y248031D02*
D03*
X5846Y253878D02*
D03*
X0Y256299D02*
D03*
X-8268Y248031D02*
D03*
X-5846Y253878D02*
D03*
X0Y239764D02*
D03*
X-5846Y242185D02*
D03*
X5846D02*
D03*
X320807Y-5846D02*
D03*
X309115D02*
D03*
X314961Y-8268D02*
D03*
X309115Y5846D02*
D03*
X306693Y0D02*
D03*
X314961Y8268D02*
D03*
X320807Y5846D02*
D03*
X323228Y0D02*
D03*
M02*
