G04*
G04 #@! TF.GenerationSoftware,Altium Limited,Altium Designer,23.2.1 (34)*
G04*
G04 Layer_Color=8388736*
%FSLAX25Y25*%
%MOIN*%
G70*
G04*
G04 #@! TF.SameCoordinates,387CD6D3-576D-47AB-95CD-A910FB3B32EF*
G04*
G04*
G04 #@! TF.FilePolarity,Negative*
G04*
G01*
G75*
%ADD25R,0.05512X0.08268*%
%ADD26C,0.01000*%
%ADD36R,0.04500X0.01200*%
%ADD42C,0.00800*%
%ADD69R,0.05402X0.14890*%
G04:AMPARAMS|DCode=70|XSize=25.26mil|YSize=27.62mil|CornerRadius=7.53mil|HoleSize=0mil|Usage=FLASHONLY|Rotation=180.000|XOffset=0mil|YOffset=0mil|HoleType=Round|Shape=RoundedRectangle|*
%AMROUNDEDRECTD70*
21,1,0.02526,0.01257,0,0,180.0*
21,1,0.01021,0.02762,0,0,180.0*
1,1,0.01506,-0.00510,0.00628*
1,1,0.01506,0.00510,0.00628*
1,1,0.01506,0.00510,-0.00628*
1,1,0.01506,-0.00510,-0.00628*
%
%ADD70ROUNDEDRECTD70*%
G04:AMPARAMS|DCode=71|XSize=23.68mil|YSize=27.62mil|CornerRadius=7.12mil|HoleSize=0mil|Usage=FLASHONLY|Rotation=0.000|XOffset=0mil|YOffset=0mil|HoleType=Round|Shape=RoundedRectangle|*
%AMROUNDEDRECTD71*
21,1,0.02368,0.01339,0,0,0.0*
21,1,0.00945,0.02762,0,0,0.0*
1,1,0.01424,0.00472,-0.00669*
1,1,0.01424,-0.00472,-0.00669*
1,1,0.01424,-0.00472,0.00669*
1,1,0.01424,0.00472,0.00669*
%
%ADD71ROUNDEDRECTD71*%
%ADD72R,0.03300X0.11400*%
G04:AMPARAMS|DCode=73|XSize=25.26mil|YSize=27.62mil|CornerRadius=7.53mil|HoleSize=0mil|Usage=FLASHONLY|Rotation=90.000|XOffset=0mil|YOffset=0mil|HoleType=Round|Shape=RoundedRectangle|*
%AMROUNDEDRECTD73*
21,1,0.02526,0.01257,0,0,90.0*
21,1,0.01021,0.02762,0,0,90.0*
1,1,0.01506,0.00628,0.00510*
1,1,0.01506,0.00628,-0.00510*
1,1,0.01506,-0.00628,-0.00510*
1,1,0.01506,-0.00628,0.00510*
%
%ADD73ROUNDEDRECTD73*%
%ADD74R,0.04140X0.05912*%
%ADD75R,0.04928X0.03353*%
%ADD76R,0.03353X0.03550*%
%ADD77R,0.03661X0.02441*%
%ADD78R,0.02270X0.01581*%
%ADD79C,0.04337*%
%ADD80R,0.07565X0.05124*%
%ADD81R,0.04900X0.02700*%
G04:AMPARAMS|DCode=82|XSize=61.87mil|YSize=22.9mil|CornerRadius=4.36mil|HoleSize=0mil|Usage=FLASHONLY|Rotation=0.000|XOffset=0mil|YOffset=0mil|HoleType=Round|Shape=RoundedRectangle|*
%AMROUNDEDRECTD82*
21,1,0.06187,0.01417,0,0,0.0*
21,1,0.05315,0.02290,0,0,0.0*
1,1,0.00872,0.02657,-0.00709*
1,1,0.00872,-0.02657,-0.00709*
1,1,0.00872,-0.02657,0.00709*
1,1,0.00872,0.02657,0.00709*
%
%ADD82ROUNDEDRECTD82*%
%ADD83R,0.02994X0.04094*%
%ADD84R,0.04094X0.02994*%
G04:AMPARAMS|DCode=85|XSize=23.68mil|YSize=27.62mil|CornerRadius=7.12mil|HoleSize=0mil|Usage=FLASHONLY|Rotation=90.000|XOffset=0mil|YOffset=0mil|HoleType=Round|Shape=RoundedRectangle|*
%AMROUNDEDRECTD85*
21,1,0.02368,0.01339,0,0,90.0*
21,1,0.00945,0.02762,0,0,90.0*
1,1,0.01424,0.00669,0.00472*
1,1,0.01424,0.00669,-0.00472*
1,1,0.01424,-0.00669,-0.00472*
1,1,0.01424,-0.00669,0.00472*
%
%ADD85ROUNDEDRECTD85*%
%ADD86R,0.01975X0.07880*%
%ADD87R,0.05400X0.14888*%
G04:AMPARAMS|DCode=88|XSize=27.62mil|YSize=11.87mil|CornerRadius=2.98mil|HoleSize=0mil|Usage=FLASHONLY|Rotation=180.000|XOffset=0mil|YOffset=0mil|HoleType=Round|Shape=RoundedRectangle|*
%AMROUNDEDRECTD88*
21,1,0.02762,0.00591,0,0,180.0*
21,1,0.02165,0.01187,0,0,180.0*
1,1,0.00597,-0.01083,0.00295*
1,1,0.00597,0.01083,0.00295*
1,1,0.00597,0.01083,-0.00295*
1,1,0.00597,-0.01083,-0.00295*
%
%ADD88ROUNDEDRECTD88*%
G04:AMPARAMS|DCode=89|XSize=31.56mil|YSize=11.87mil|CornerRadius=2.98mil|HoleSize=0mil|Usage=FLASHONLY|Rotation=90.000|XOffset=0mil|YOffset=0mil|HoleType=Round|Shape=RoundedRectangle|*
%AMROUNDEDRECTD89*
21,1,0.03156,0.00591,0,0,90.0*
21,1,0.02559,0.01187,0,0,90.0*
1,1,0.00597,0.00295,0.01280*
1,1,0.00597,0.00295,-0.01280*
1,1,0.00597,-0.00295,-0.01280*
1,1,0.00597,-0.00295,0.01280*
%
%ADD89ROUNDEDRECTD89*%
G04:AMPARAMS|DCode=90|XSize=27.62mil|YSize=11.87mil|CornerRadius=2.98mil|HoleSize=0mil|Usage=FLASHONLY|Rotation=90.000|XOffset=0mil|YOffset=0mil|HoleType=Round|Shape=RoundedRectangle|*
%AMROUNDEDRECTD90*
21,1,0.02762,0.00591,0,0,90.0*
21,1,0.02165,0.01187,0,0,90.0*
1,1,0.00597,0.00295,0.01083*
1,1,0.00597,0.00295,-0.01083*
1,1,0.00597,-0.00295,-0.01083*
1,1,0.00597,-0.00295,0.01083*
%
%ADD90ROUNDEDRECTD90*%
%ADD91R,0.01187X0.03156*%
G04:AMPARAMS|DCode=92|XSize=29.59mil|YSize=19.75mil|CornerRadius=5.94mil|HoleSize=0mil|Usage=FLASHONLY|Rotation=180.000|XOffset=0mil|YOffset=0mil|HoleType=Round|Shape=RoundedRectangle|*
%AMROUNDEDRECTD92*
21,1,0.02959,0.00787,0,0,180.0*
21,1,0.01772,0.01975,0,0,180.0*
1,1,0.01187,-0.00886,0.00394*
1,1,0.01187,0.00886,0.00394*
1,1,0.01187,0.00886,-0.00394*
1,1,0.01187,-0.00886,-0.00394*
%
%ADD92ROUNDEDRECTD92*%
G04:AMPARAMS|DCode=93|XSize=29.59mil|YSize=15.81mil|CornerRadius=4.95mil|HoleSize=0mil|Usage=FLASHONLY|Rotation=180.000|XOffset=0mil|YOffset=0mil|HoleType=Round|Shape=RoundedRectangle|*
%AMROUNDEDRECTD93*
21,1,0.02959,0.00591,0,0,180.0*
21,1,0.01968,0.01581,0,0,180.0*
1,1,0.00991,-0.00984,0.00295*
1,1,0.00991,0.00984,0.00295*
1,1,0.00991,0.00984,-0.00295*
1,1,0.00991,-0.00984,-0.00295*
%
%ADD93ROUNDEDRECTD93*%
%ADD94R,0.15400X0.08400*%
%ADD95R,0.03543X0.01457*%
%ADD96R,0.03937X0.01457*%
G04:AMPARAMS|DCode=97|XSize=26.18mil|YSize=11.81mil|CornerRadius=3.94mil|HoleSize=0mil|Usage=FLASHONLY|Rotation=0.000|XOffset=0mil|YOffset=0mil|HoleType=Round|Shape=RoundedRectangle|*
%AMROUNDEDRECTD97*
21,1,0.02618,0.00394,0,0,0.0*
21,1,0.01831,0.01181,0,0,0.0*
1,1,0.00787,0.00915,-0.00197*
1,1,0.00787,-0.00915,-0.00197*
1,1,0.00787,-0.00915,0.00197*
1,1,0.00787,0.00915,0.00197*
%
%ADD97ROUNDEDRECTD97*%
G04:AMPARAMS|DCode=98|XSize=26.18mil|YSize=11.81mil|CornerRadius=2.95mil|HoleSize=0mil|Usage=FLASHONLY|Rotation=0.000|XOffset=0mil|YOffset=0mil|HoleType=Round|Shape=RoundedRectangle|*
%AMROUNDEDRECTD98*
21,1,0.02618,0.00591,0,0,0.0*
21,1,0.02028,0.01181,0,0,0.0*
1,1,0.00591,0.01014,-0.00295*
1,1,0.00591,-0.01014,-0.00295*
1,1,0.00591,-0.01014,0.00295*
1,1,0.00591,0.01014,0.00295*
%
%ADD98ROUNDEDRECTD98*%
G04:AMPARAMS|DCode=99|XSize=29.98mil|YSize=12.66mil|CornerRadius=3.08mil|HoleSize=0mil|Usage=FLASHONLY|Rotation=180.000|XOffset=0mil|YOffset=0mil|HoleType=Round|Shape=RoundedRectangle|*
%AMROUNDEDRECTD99*
21,1,0.02998,0.00650,0,0,180.0*
21,1,0.02382,0.01266,0,0,180.0*
1,1,0.00617,-0.01191,0.00325*
1,1,0.00617,0.01191,0.00325*
1,1,0.00617,0.01191,-0.00325*
1,1,0.00617,-0.01191,-0.00325*
%
%ADD99ROUNDEDRECTD99*%
%ADD100R,0.03943X0.11030*%
G04:AMPARAMS|DCode=101|XSize=12.66mil|YSize=29.98mil|CornerRadius=3.08mil|HoleSize=0mil|Usage=FLASHONLY|Rotation=180.000|XOffset=0mil|YOffset=0mil|HoleType=Round|Shape=RoundedRectangle|*
%AMROUNDEDRECTD101*
21,1,0.01266,0.02382,0,0,180.0*
21,1,0.00650,0.02998,0,0,180.0*
1,1,0.00617,-0.00325,0.01191*
1,1,0.00617,0.00325,0.01191*
1,1,0.00617,0.00325,-0.01191*
1,1,0.00617,-0.00325,-0.01191*
%
%ADD101ROUNDEDRECTD101*%
%ADD102R,0.04928X0.05518*%
%ADD103R,0.02762X0.01581*%
%ADD104R,0.02054X0.01266*%
G04:AMPARAMS|DCode=105|XSize=51.64mil|YSize=26.84mil|CornerRadius=4.85mil|HoleSize=0mil|Usage=FLASHONLY|Rotation=180.000|XOffset=0mil|YOffset=0mil|HoleType=Round|Shape=RoundedRectangle|*
%AMROUNDEDRECTD105*
21,1,0.05164,0.01713,0,0,180.0*
21,1,0.04193,0.02684,0,0,180.0*
1,1,0.00971,-0.02097,0.00856*
1,1,0.00971,0.02097,0.00856*
1,1,0.00971,0.02097,-0.00856*
1,1,0.00971,-0.02097,-0.00856*
%
%ADD105ROUNDEDRECTD105*%
%ADD106R,0.06207X0.01581*%
%ADD107R,0.01581X0.06207*%
%ADD108O,0.01581X0.06207*%
%ADD109R,0.02014X0.09337*%
%ADD110R,0.02014X0.09337*%
%ADD111R,0.10400X0.02093*%
%ADD112R,0.18904X0.02093*%
%ADD113C,0.11811*%
G04:AMPARAMS|DCode=114|XSize=29.59mil|YSize=19.75mil|CornerRadius=5.94mil|HoleSize=0mil|Usage=FLASHONLY|Rotation=90.000|XOffset=0mil|YOffset=0mil|HoleType=Round|Shape=RoundedRectangle|*
%AMROUNDEDRECTD114*
21,1,0.02959,0.00787,0,0,90.0*
21,1,0.01772,0.01975,0,0,90.0*
1,1,0.01187,0.00394,0.00886*
1,1,0.01187,0.00394,-0.00886*
1,1,0.01187,-0.00394,-0.00886*
1,1,0.01187,-0.00394,0.00886*
%
%ADD114ROUNDEDRECTD114*%
G04:AMPARAMS|DCode=115|XSize=29.59mil|YSize=15.81mil|CornerRadius=4.95mil|HoleSize=0mil|Usage=FLASHONLY|Rotation=90.000|XOffset=0mil|YOffset=0mil|HoleType=Round|Shape=RoundedRectangle|*
%AMROUNDEDRECTD115*
21,1,0.02959,0.00591,0,0,90.0*
21,1,0.01968,0.01581,0,0,90.0*
1,1,0.00991,0.00295,0.00984*
1,1,0.00991,0.00295,-0.00984*
1,1,0.00991,-0.00295,-0.00984*
1,1,0.00991,-0.00295,0.00984*
%
%ADD115ROUNDEDRECTD115*%
%ADD116C,0.09494*%
%ADD117C,0.05518*%
%ADD118C,0.21660*%
%ADD119C,0.03000*%
%ADD120O,0.08668X0.04337*%
%ADD121O,0.07487X0.04337*%
%ADD122R,0.06337X0.06337*%
%ADD123C,0.06337*%
%ADD124O,0.10636X0.05518*%
%ADD125O,0.02368X0.03747*%
%ADD126C,0.02880*%
%ADD127C,0.12205*%
%ADD128C,0.04416*%
%ADD129C,0.03400*%
G36*
X158716Y-48574D02*
X158818Y-48583D01*
X158938Y-48592D01*
X159059Y-48611D01*
X159197Y-48629D01*
X159493Y-48694D01*
X159641Y-48740D01*
X159789Y-48787D01*
X159937Y-48851D01*
X160076Y-48925D01*
X160206Y-49009D01*
X160326Y-49101D01*
X160335Y-49110D01*
X160354Y-49129D01*
X160381Y-49157D01*
X160418Y-49194D01*
X160465Y-49249D01*
X160520Y-49314D01*
X160576Y-49388D01*
X160640Y-49471D01*
X160696Y-49573D01*
X160751Y-49675D01*
X160807Y-49795D01*
X160853Y-49924D01*
X160899Y-50054D01*
X160936Y-50202D01*
X160964Y-50350D01*
X160973Y-50516D01*
X159678Y-50563D01*
Y-50553D01*
Y-50544D01*
X159660Y-50479D01*
X159641Y-50396D01*
X159604Y-50294D01*
X159558Y-50174D01*
X159493Y-50063D01*
X159410Y-49952D01*
X159318Y-49860D01*
X159308Y-49850D01*
X159271Y-49823D01*
X159207Y-49786D01*
X159114Y-49749D01*
X159003Y-49712D01*
X158864Y-49675D01*
X158698Y-49647D01*
X158504Y-49638D01*
X158411D01*
X158309Y-49647D01*
X158189Y-49665D01*
X158050Y-49693D01*
X157902Y-49739D01*
X157764Y-49795D01*
X157634Y-49878D01*
X157625Y-49887D01*
X157606Y-49906D01*
X157569Y-49934D01*
X157532Y-49980D01*
X157495Y-50035D01*
X157458Y-50109D01*
X157440Y-50183D01*
X157431Y-50276D01*
Y-50285D01*
Y-50313D01*
X157440Y-50359D01*
X157458Y-50405D01*
X157477Y-50470D01*
X157505Y-50535D01*
X157551Y-50600D01*
X157616Y-50664D01*
X157625Y-50674D01*
X157671Y-50701D01*
X157699Y-50720D01*
X157745Y-50738D01*
X157791Y-50766D01*
X157856Y-50794D01*
X157930Y-50822D01*
X158013Y-50859D01*
X158115Y-50896D01*
X158217Y-50933D01*
X158346Y-50970D01*
X158485Y-51007D01*
X158633Y-51044D01*
X158800Y-51090D01*
X158809D01*
X158846Y-51099D01*
X158892Y-51108D01*
X158957Y-51127D01*
X159031Y-51145D01*
X159123Y-51173D01*
X159225Y-51201D01*
X159327Y-51229D01*
X159549Y-51303D01*
X159780Y-51377D01*
X160002Y-51460D01*
X160095Y-51506D01*
X160187Y-51552D01*
X160196D01*
X160206Y-51562D01*
X160261Y-51599D01*
X160344Y-51654D01*
X160446Y-51728D01*
X160557Y-51821D01*
X160677Y-51932D01*
X160798Y-52061D01*
X160899Y-52209D01*
X160909Y-52228D01*
X160936Y-52283D01*
X160983Y-52366D01*
X161029Y-52487D01*
X161075Y-52635D01*
X161121Y-52810D01*
X161149Y-53005D01*
X161158Y-53227D01*
Y-53236D01*
Y-53254D01*
Y-53282D01*
Y-53319D01*
X161149Y-53365D01*
X161140Y-53430D01*
X161121Y-53560D01*
X161084Y-53726D01*
X161029Y-53902D01*
X160946Y-54078D01*
X160844Y-54263D01*
Y-54272D01*
X160825Y-54281D01*
X160788Y-54337D01*
X160714Y-54429D01*
X160622Y-54531D01*
X160502Y-54651D01*
X160344Y-54762D01*
X160178Y-54873D01*
X159974Y-54975D01*
X159965D01*
X159947Y-54984D01*
X159919Y-54993D01*
X159873Y-55012D01*
X159817Y-55030D01*
X159752Y-55049D01*
X159678Y-55067D01*
X159595Y-55086D01*
X159493Y-55114D01*
X159392Y-55132D01*
X159151Y-55169D01*
X158883Y-55197D01*
X158587Y-55206D01*
X158467D01*
X158383Y-55197D01*
X158282Y-55188D01*
X158171Y-55178D01*
X158041Y-55160D01*
X157902Y-55132D01*
X157597Y-55067D01*
X157440Y-55021D01*
X157292Y-54975D01*
X157135Y-54910D01*
X156987Y-54836D01*
X156848Y-54753D01*
X156718Y-54651D01*
X156709Y-54642D01*
X156691Y-54623D01*
X156654Y-54596D01*
X156617Y-54549D01*
X156561Y-54485D01*
X156506Y-54411D01*
X156441Y-54327D01*
X156376Y-54235D01*
X156311Y-54124D01*
X156247Y-54004D01*
X156182Y-53865D01*
X156117Y-53717D01*
X156071Y-53560D01*
X156015Y-53384D01*
X155978Y-53199D01*
X155951Y-53005D01*
X157209Y-52884D01*
Y-52894D01*
X157218Y-52912D01*
Y-52949D01*
X157227Y-52986D01*
X157264Y-53097D01*
X157310Y-53236D01*
X157366Y-53393D01*
X157449Y-53550D01*
X157542Y-53689D01*
X157662Y-53819D01*
X157680Y-53828D01*
X157727Y-53865D01*
X157801Y-53911D01*
X157912Y-53967D01*
X158050Y-54022D01*
X158208Y-54068D01*
X158393Y-54105D01*
X158605Y-54115D01*
X158707D01*
X158818Y-54096D01*
X158957Y-54078D01*
X159105Y-54050D01*
X159262Y-54004D01*
X159410Y-53939D01*
X159540Y-53856D01*
X159558Y-53846D01*
X159595Y-53809D01*
X159641Y-53754D01*
X159706Y-53680D01*
X159762Y-53587D01*
X159817Y-53476D01*
X159854Y-53365D01*
X159863Y-53236D01*
Y-53227D01*
Y-53199D01*
X159854Y-53153D01*
X159845Y-53097D01*
X159826Y-53042D01*
X159808Y-52977D01*
X159771Y-52912D01*
X159725Y-52847D01*
X159715Y-52838D01*
X159697Y-52820D01*
X159669Y-52792D01*
X159623Y-52755D01*
X159558Y-52709D01*
X159475Y-52662D01*
X159382Y-52616D01*
X159262Y-52570D01*
X159253D01*
X159216Y-52551D01*
X159151Y-52533D01*
X159105Y-52514D01*
X159049Y-52505D01*
X158985Y-52487D01*
X158911Y-52459D01*
X158827Y-52440D01*
X158735Y-52413D01*
X158624Y-52385D01*
X158504Y-52357D01*
X158374Y-52320D01*
X158226Y-52283D01*
X158217D01*
X158180Y-52274D01*
X158124Y-52255D01*
X158060Y-52237D01*
X157976Y-52209D01*
X157875Y-52181D01*
X157773Y-52144D01*
X157653Y-52107D01*
X157412Y-52015D01*
X157181Y-51904D01*
X157061Y-51848D01*
X156959Y-51784D01*
X156857Y-51719D01*
X156774Y-51654D01*
X156765Y-51645D01*
X156746Y-51626D01*
X156718Y-51599D01*
X156681Y-51562D01*
X156635Y-51506D01*
X156589Y-51441D01*
X156533Y-51377D01*
X156487Y-51293D01*
X156376Y-51099D01*
X156284Y-50877D01*
X156247Y-50757D01*
X156219Y-50637D01*
X156200Y-50498D01*
X156191Y-50359D01*
Y-50350D01*
Y-50341D01*
Y-50313D01*
Y-50276D01*
X156210Y-50183D01*
X156228Y-50063D01*
X156256Y-49924D01*
X156302Y-49767D01*
X156367Y-49601D01*
X156459Y-49443D01*
Y-49434D01*
X156469Y-49425D01*
X156515Y-49369D01*
X156570Y-49295D01*
X156663Y-49203D01*
X156774Y-49101D01*
X156913Y-48990D01*
X157070Y-48888D01*
X157255Y-48796D01*
X157264D01*
X157283Y-48787D01*
X157310Y-48777D01*
X157347Y-48759D01*
X157403Y-48740D01*
X157458Y-48722D01*
X157532Y-48703D01*
X157616Y-48676D01*
X157801Y-48639D01*
X158013Y-48602D01*
X158254Y-48574D01*
X158522Y-48565D01*
X158633D01*
X158716Y-48574D01*
D02*
G37*
G36*
X107536Y-48574D02*
X107638Y-48583D01*
X107758Y-48592D01*
X107878Y-48611D01*
X108017Y-48629D01*
X108313Y-48694D01*
X108461Y-48740D01*
X108609Y-48787D01*
X108757Y-48851D01*
X108896Y-48925D01*
X109025Y-49009D01*
X109146Y-49101D01*
X109155Y-49110D01*
X109173Y-49129D01*
X109201Y-49157D01*
X109238Y-49194D01*
X109284Y-49249D01*
X109340Y-49314D01*
X109395Y-49388D01*
X109460Y-49471D01*
X109516Y-49573D01*
X109571Y-49675D01*
X109627Y-49795D01*
X109673Y-49924D01*
X109719Y-50054D01*
X109756Y-50202D01*
X109784Y-50350D01*
X109793Y-50516D01*
X108498Y-50563D01*
Y-50553D01*
Y-50544D01*
X108480Y-50479D01*
X108461Y-50396D01*
X108424Y-50294D01*
X108378Y-50174D01*
X108313Y-50063D01*
X108230Y-49952D01*
X108137Y-49860D01*
X108128Y-49850D01*
X108091Y-49823D01*
X108026Y-49786D01*
X107934Y-49749D01*
X107823Y-49712D01*
X107684Y-49675D01*
X107518Y-49647D01*
X107323Y-49638D01*
X107231D01*
X107129Y-49647D01*
X107009Y-49665D01*
X106870Y-49693D01*
X106722Y-49739D01*
X106583Y-49795D01*
X106454Y-49878D01*
X106445Y-49887D01*
X106426Y-49906D01*
X106389Y-49934D01*
X106352Y-49980D01*
X106315Y-50035D01*
X106278Y-50109D01*
X106260Y-50183D01*
X106250Y-50276D01*
Y-50285D01*
Y-50313D01*
X106260Y-50359D01*
X106278Y-50405D01*
X106297Y-50470D01*
X106324Y-50535D01*
X106371Y-50600D01*
X106435Y-50664D01*
X106445Y-50674D01*
X106491Y-50701D01*
X106519Y-50720D01*
X106565Y-50738D01*
X106611Y-50766D01*
X106676Y-50794D01*
X106750Y-50822D01*
X106833Y-50859D01*
X106935Y-50896D01*
X107037Y-50933D01*
X107166Y-50970D01*
X107305Y-51007D01*
X107453Y-51044D01*
X107619Y-51090D01*
X107629D01*
X107666Y-51099D01*
X107712Y-51108D01*
X107777Y-51127D01*
X107851Y-51145D01*
X107943Y-51173D01*
X108045Y-51201D01*
X108147Y-51229D01*
X108369Y-51303D01*
X108600Y-51377D01*
X108822Y-51460D01*
X108914Y-51506D01*
X109007Y-51552D01*
X109016D01*
X109025Y-51562D01*
X109081Y-51599D01*
X109164Y-51654D01*
X109266Y-51728D01*
X109377Y-51821D01*
X109497Y-51932D01*
X109617Y-52061D01*
X109719Y-52209D01*
X109728Y-52228D01*
X109756Y-52283D01*
X109802Y-52366D01*
X109849Y-52487D01*
X109895Y-52635D01*
X109941Y-52810D01*
X109969Y-53005D01*
X109978Y-53227D01*
Y-53236D01*
Y-53254D01*
Y-53282D01*
Y-53319D01*
X109969Y-53365D01*
X109960Y-53430D01*
X109941Y-53560D01*
X109904Y-53726D01*
X109849Y-53902D01*
X109765Y-54078D01*
X109664Y-54263D01*
Y-54272D01*
X109645Y-54281D01*
X109608Y-54337D01*
X109534Y-54429D01*
X109442Y-54531D01*
X109321Y-54651D01*
X109164Y-54762D01*
X108998Y-54873D01*
X108794Y-54975D01*
X108785D01*
X108766Y-54984D01*
X108739Y-54993D01*
X108692Y-55012D01*
X108637Y-55030D01*
X108572Y-55049D01*
X108498Y-55067D01*
X108415Y-55086D01*
X108313Y-55114D01*
X108211Y-55132D01*
X107971Y-55169D01*
X107703Y-55197D01*
X107407Y-55206D01*
X107286D01*
X107203Y-55197D01*
X107101Y-55188D01*
X106990Y-55178D01*
X106861Y-55160D01*
X106722Y-55132D01*
X106417Y-55067D01*
X106260Y-55021D01*
X106112Y-54975D01*
X105954Y-54910D01*
X105806Y-54836D01*
X105668Y-54753D01*
X105538Y-54651D01*
X105529Y-54642D01*
X105510Y-54623D01*
X105473Y-54596D01*
X105436Y-54549D01*
X105381Y-54485D01*
X105325Y-54411D01*
X105261Y-54327D01*
X105196Y-54235D01*
X105131Y-54124D01*
X105066Y-54004D01*
X105002Y-53865D01*
X104937Y-53717D01*
X104891Y-53560D01*
X104835Y-53384D01*
X104798Y-53199D01*
X104770Y-53005D01*
X106028Y-52884D01*
Y-52894D01*
X106038Y-52912D01*
Y-52949D01*
X106047Y-52986D01*
X106084Y-53097D01*
X106130Y-53236D01*
X106186Y-53393D01*
X106269Y-53550D01*
X106361Y-53689D01*
X106482Y-53819D01*
X106500Y-53828D01*
X106546Y-53865D01*
X106620Y-53911D01*
X106731Y-53967D01*
X106870Y-54022D01*
X107027Y-54068D01*
X107212Y-54105D01*
X107425Y-54115D01*
X107527D01*
X107638Y-54096D01*
X107777Y-54078D01*
X107925Y-54050D01*
X108082Y-54004D01*
X108230Y-53939D01*
X108359Y-53856D01*
X108378Y-53846D01*
X108415Y-53809D01*
X108461Y-53754D01*
X108526Y-53680D01*
X108581Y-53587D01*
X108637Y-53476D01*
X108674Y-53365D01*
X108683Y-53236D01*
Y-53227D01*
Y-53199D01*
X108674Y-53153D01*
X108665Y-53097D01*
X108646Y-53042D01*
X108628Y-52977D01*
X108591Y-52912D01*
X108544Y-52847D01*
X108535Y-52838D01*
X108517Y-52820D01*
X108489Y-52792D01*
X108443Y-52755D01*
X108378Y-52709D01*
X108295Y-52662D01*
X108202Y-52616D01*
X108082Y-52570D01*
X108073D01*
X108036Y-52551D01*
X107971Y-52533D01*
X107925Y-52514D01*
X107869Y-52505D01*
X107804Y-52487D01*
X107730Y-52459D01*
X107647Y-52440D01*
X107555Y-52413D01*
X107444Y-52385D01*
X107323Y-52357D01*
X107194Y-52320D01*
X107046Y-52283D01*
X107037D01*
X107000Y-52274D01*
X106944Y-52255D01*
X106879Y-52237D01*
X106796Y-52209D01*
X106694Y-52181D01*
X106593Y-52144D01*
X106472Y-52107D01*
X106232Y-52015D01*
X106001Y-51904D01*
X105880Y-51848D01*
X105779Y-51784D01*
X105677Y-51719D01*
X105594Y-51654D01*
X105584Y-51645D01*
X105566Y-51626D01*
X105538Y-51599D01*
X105501Y-51562D01*
X105455Y-51506D01*
X105409Y-51441D01*
X105353Y-51377D01*
X105307Y-51293D01*
X105196Y-51099D01*
X105103Y-50877D01*
X105066Y-50757D01*
X105039Y-50637D01*
X105020Y-50498D01*
X105011Y-50359D01*
Y-50350D01*
Y-50341D01*
Y-50313D01*
Y-50276D01*
X105029Y-50183D01*
X105048Y-50063D01*
X105076Y-49924D01*
X105122Y-49767D01*
X105187Y-49601D01*
X105279Y-49443D01*
Y-49434D01*
X105288Y-49425D01*
X105335Y-49369D01*
X105390Y-49295D01*
X105483Y-49203D01*
X105594Y-49101D01*
X105732Y-48990D01*
X105890Y-48888D01*
X106075Y-48796D01*
X106084D01*
X106102Y-48787D01*
X106130Y-48777D01*
X106167Y-48759D01*
X106223Y-48740D01*
X106278Y-48722D01*
X106352Y-48703D01*
X106435Y-48676D01*
X106620Y-48639D01*
X106833Y-48602D01*
X107074Y-48574D01*
X107342Y-48565D01*
X107453D01*
X107536Y-48574D01*
D02*
G37*
G36*
X165497Y-51182D02*
X168040Y-55086D01*
X166366D01*
X164599Y-52080D01*
X163554Y-53153D01*
Y-55086D01*
X162259D01*
Y-48685D01*
X163554D01*
Y-51534D01*
X166181Y-48685D01*
X167920D01*
X165497Y-51182D01*
D02*
G37*
G36*
X148523Y-55086D02*
X147330D01*
X147320Y-50054D01*
X146062Y-55086D01*
X144814D01*
X143556Y-50054D01*
Y-55086D01*
X142362D01*
Y-48685D01*
X144296D01*
X145443Y-53060D01*
X146580Y-48685D01*
X148523D01*
Y-55086D01*
D02*
G37*
G36*
X186087Y-48694D02*
X186328D01*
X186587Y-48713D01*
X186846Y-48731D01*
X186957Y-48740D01*
X187068Y-48750D01*
X187160Y-48768D01*
X187234Y-48787D01*
X187243D01*
X187262Y-48796D01*
X187290Y-48805D01*
X187327Y-48814D01*
X187428Y-48861D01*
X187558Y-48916D01*
X187697Y-48999D01*
X187854Y-49110D01*
X188002Y-49249D01*
X188150Y-49416D01*
Y-49425D01*
X188168Y-49434D01*
X188187Y-49462D01*
X188205Y-49499D01*
X188242Y-49554D01*
X188270Y-49610D01*
X188307Y-49675D01*
X188344Y-49749D01*
X188409Y-49934D01*
X188474Y-50137D01*
X188511Y-50387D01*
X188529Y-50655D01*
Y-50664D01*
Y-50683D01*
Y-50711D01*
Y-50757D01*
X188520Y-50803D01*
Y-50868D01*
X188501Y-50997D01*
X188474Y-51155D01*
X188437Y-51330D01*
X188381Y-51497D01*
X188307Y-51654D01*
X188298Y-51673D01*
X188270Y-51719D01*
X188224Y-51793D01*
X188159Y-51885D01*
X188085Y-51978D01*
X187983Y-52089D01*
X187882Y-52191D01*
X187761Y-52283D01*
X187743Y-52292D01*
X187706Y-52320D01*
X187641Y-52357D01*
X187558Y-52403D01*
X187456Y-52459D01*
X187345Y-52505D01*
X187225Y-52551D01*
X187095Y-52588D01*
X187077D01*
X187049Y-52598D01*
X187012D01*
X186966Y-52607D01*
X186901Y-52616D01*
X186836Y-52625D01*
X186753D01*
X186670Y-52635D01*
X186568Y-52644D01*
X186457Y-52653D01*
X186337Y-52662D01*
X186207D01*
X186069Y-52672D01*
X184922D01*
Y-55086D01*
X183627D01*
Y-48685D01*
X185985D01*
X186087Y-48694D01*
D02*
G37*
G36*
X175829Y-49767D02*
X173942D01*
Y-55086D01*
X172647D01*
Y-49767D01*
X170751D01*
Y-48685D01*
X175829D01*
Y-49767D01*
D02*
G37*
G36*
X155599Y-55086D02*
X154202D01*
X153647Y-53634D01*
X151076D01*
X150549Y-55086D01*
X149180D01*
X151659Y-48685D01*
X153028D01*
X155599Y-55086D01*
D02*
G37*
G36*
X138894Y-48694D02*
X138995D01*
X139097Y-48703D01*
X139217D01*
X139458Y-48731D01*
X139708Y-48759D01*
X139939Y-48805D01*
X140041Y-48833D01*
X140133Y-48861D01*
X140142D01*
X140152Y-48870D01*
X140207Y-48898D01*
X140290Y-48944D01*
X140401Y-48999D01*
X140522Y-49092D01*
X140642Y-49194D01*
X140762Y-49323D01*
X140873Y-49480D01*
Y-49490D01*
X140882Y-49499D01*
X140901Y-49527D01*
X140919Y-49554D01*
X140966Y-49647D01*
X141021Y-49767D01*
X141067Y-49915D01*
X141114Y-50082D01*
X141151Y-50276D01*
X141160Y-50479D01*
Y-50489D01*
Y-50507D01*
Y-50553D01*
X141151Y-50600D01*
Y-50664D01*
X141141Y-50729D01*
X141104Y-50896D01*
X141058Y-51090D01*
X140984Y-51284D01*
X140873Y-51488D01*
X140808Y-51580D01*
X140734Y-51673D01*
X140725Y-51682D01*
X140716Y-51691D01*
X140688Y-51719D01*
X140651Y-51747D01*
X140614Y-51784D01*
X140559Y-51830D01*
X140494Y-51876D01*
X140420Y-51922D01*
X140337Y-51978D01*
X140235Y-52024D01*
X140133Y-52070D01*
X140022Y-52117D01*
X139893Y-52163D01*
X139763Y-52200D01*
X139624Y-52237D01*
X139467Y-52265D01*
X139476D01*
X139486Y-52274D01*
X139541Y-52311D01*
X139615Y-52357D01*
X139708Y-52422D01*
X139819Y-52505D01*
X139930Y-52588D01*
X140050Y-52690D01*
X140152Y-52801D01*
X140161Y-52810D01*
X140207Y-52857D01*
X140263Y-52931D01*
X140346Y-53042D01*
X140457Y-53180D01*
X140512Y-53273D01*
X140577Y-53365D01*
X140651Y-53467D01*
X140725Y-53578D01*
X140808Y-53708D01*
X140892Y-53837D01*
X141678Y-55086D01*
X140124D01*
X139199Y-53698D01*
X139190Y-53689D01*
X139180Y-53661D01*
X139153Y-53624D01*
X139116Y-53578D01*
X139079Y-53523D01*
X139032Y-53449D01*
X138931Y-53301D01*
X138810Y-53134D01*
X138699Y-52986D01*
X138598Y-52847D01*
X138551Y-52801D01*
X138514Y-52755D01*
X138505Y-52746D01*
X138487Y-52727D01*
X138450Y-52690D01*
X138403Y-52644D01*
X138339Y-52607D01*
X138274Y-52561D01*
X138200Y-52524D01*
X138126Y-52487D01*
X138117D01*
X138089Y-52477D01*
X138043Y-52459D01*
X137969Y-52450D01*
X137876Y-52431D01*
X137765Y-52422D01*
X137636Y-52413D01*
X137219D01*
Y-55086D01*
X135924D01*
Y-48685D01*
X138810D01*
X138894Y-48694D01*
D02*
G37*
G36*
X134703Y-49767D02*
X131253Y-49767D01*
Y-51182D01*
X134463Y-51182D01*
Y-52265D01*
X131253Y-52265D01*
Y-54004D01*
X134824Y-54004D01*
Y-55086D01*
X129958Y-55086D01*
Y-48685D01*
X134703Y-48685D01*
Y-49767D01*
D02*
G37*
G36*
X126129Y-48694D02*
X126304Y-48703D01*
X126499Y-48713D01*
X126702Y-48740D01*
X126896Y-48768D01*
X127072Y-48814D01*
X127081D01*
X127100Y-48824D01*
X127128Y-48833D01*
X127165Y-48842D01*
X127276Y-48888D01*
X127405Y-48953D01*
X127553Y-49036D01*
X127720Y-49138D01*
X127877Y-49258D01*
X128034Y-49406D01*
X128043D01*
X128053Y-49425D01*
X128099Y-49480D01*
X128173Y-49573D01*
X128256Y-49693D01*
X128358Y-49841D01*
X128460Y-50017D01*
X128561Y-50220D01*
X128645Y-50442D01*
Y-50452D01*
X128654Y-50470D01*
X128663Y-50507D01*
X128682Y-50553D01*
X128691Y-50609D01*
X128709Y-50683D01*
X128728Y-50766D01*
X128756Y-50859D01*
X128774Y-50960D01*
X128793Y-51081D01*
X128811Y-51201D01*
X128820Y-51340D01*
X128848Y-51626D01*
X128857Y-51950D01*
Y-51959D01*
Y-51987D01*
Y-52024D01*
Y-52080D01*
X128848Y-52154D01*
Y-52228D01*
X128839Y-52320D01*
X128830Y-52422D01*
X128811Y-52635D01*
X128774Y-52857D01*
X128719Y-53088D01*
X128654Y-53310D01*
Y-53319D01*
X128645Y-53338D01*
X128626Y-53375D01*
X128608Y-53430D01*
X128589Y-53486D01*
X128552Y-53550D01*
X128478Y-53717D01*
X128386Y-53893D01*
X128265Y-54087D01*
X128127Y-54272D01*
X127969Y-54448D01*
X127951Y-54466D01*
X127905Y-54503D01*
X127831Y-54559D01*
X127729Y-54633D01*
X127599Y-54716D01*
X127451Y-54799D01*
X127266Y-54882D01*
X127063Y-54956D01*
X127054D01*
X127044Y-54966D01*
X127017D01*
X126989Y-54975D01*
X126887Y-54993D01*
X126758Y-55021D01*
X126600Y-55049D01*
X126406Y-55067D01*
X126175Y-55077D01*
X125925Y-55086D01*
X123502D01*
Y-48685D01*
X126055D01*
X126129Y-48694D01*
D02*
G37*
G36*
X119358Y-54004D02*
X122577D01*
Y-55086D01*
X118063D01*
Y-48731D01*
X119358D01*
Y-54004D01*
D02*
G37*
G36*
X179631Y-48574D02*
X179723D01*
X179843Y-48592D01*
X179982Y-48611D01*
X180139Y-48639D01*
X180306Y-48676D01*
X180482Y-48722D01*
X180667Y-48777D01*
X180852Y-48851D01*
X181046Y-48935D01*
X181231Y-49036D01*
X181416Y-49157D01*
X181592Y-49295D01*
X181758Y-49453D01*
X181767Y-49462D01*
X181795Y-49490D01*
X181841Y-49545D01*
X181888Y-49610D01*
X181952Y-49702D01*
X182026Y-49813D01*
X182100Y-49943D01*
X182184Y-50091D01*
X182267Y-50248D01*
X182341Y-50433D01*
X182415Y-50637D01*
X182480Y-50849D01*
X182535Y-51090D01*
X182572Y-51340D01*
X182600Y-51608D01*
X182609Y-51895D01*
Y-51913D01*
Y-51959D01*
X182600Y-52043D01*
Y-52154D01*
X182581Y-52283D01*
X182563Y-52431D01*
X182535Y-52607D01*
X182507Y-52783D01*
X182461Y-52977D01*
X182406Y-53180D01*
X182332Y-53384D01*
X182248Y-53587D01*
X182156Y-53782D01*
X182036Y-53976D01*
X181906Y-54161D01*
X181758Y-54337D01*
X181749Y-54346D01*
X181721Y-54374D01*
X181675Y-54420D01*
X181601Y-54475D01*
X181518Y-54540D01*
X181416Y-54614D01*
X181296Y-54688D01*
X181166Y-54771D01*
X181009Y-54855D01*
X180842Y-54929D01*
X180657Y-55003D01*
X180454Y-55067D01*
X180241Y-55123D01*
X180010Y-55169D01*
X179769Y-55197D01*
X179510Y-55206D01*
X179446D01*
X179372Y-55197D01*
X179279Y-55188D01*
X179159Y-55178D01*
X179020Y-55160D01*
X178863Y-55132D01*
X178696Y-55095D01*
X178511Y-55049D01*
X178336Y-54993D01*
X178141Y-54919D01*
X177956Y-54836D01*
X177762Y-54744D01*
X177586Y-54623D01*
X177411Y-54494D01*
X177244Y-54337D01*
X177235Y-54327D01*
X177207Y-54300D01*
X177170Y-54244D01*
X177115Y-54179D01*
X177050Y-54087D01*
X176976Y-53976D01*
X176902Y-53856D01*
X176828Y-53708D01*
X176745Y-53550D01*
X176671Y-53365D01*
X176597Y-53171D01*
X176532Y-52958D01*
X176476Y-52727D01*
X176439Y-52477D01*
X176412Y-52209D01*
X176402Y-51932D01*
Y-51922D01*
Y-51885D01*
Y-51839D01*
X176412Y-51765D01*
Y-51682D01*
X176421Y-51589D01*
X176430Y-51478D01*
X176439Y-51358D01*
X176476Y-51099D01*
X176523Y-50822D01*
X176597Y-50544D01*
X176689Y-50285D01*
Y-50276D01*
X176698Y-50267D01*
X176717Y-50239D01*
X176726Y-50202D01*
X176782Y-50109D01*
X176846Y-49989D01*
X176930Y-49850D01*
X177031Y-49712D01*
X177152Y-49554D01*
X177281Y-49406D01*
X177290Y-49397D01*
X177300Y-49388D01*
X177346Y-49342D01*
X177429Y-49268D01*
X177531Y-49184D01*
X177651Y-49092D01*
X177790Y-48990D01*
X177947Y-48898D01*
X178114Y-48824D01*
X178123D01*
X178141Y-48814D01*
X178178Y-48796D01*
X178225Y-48787D01*
X178280Y-48759D01*
X178345Y-48740D01*
X178428Y-48722D01*
X178511Y-48694D01*
X178715Y-48648D01*
X178946Y-48602D01*
X179214Y-48574D01*
X179492Y-48565D01*
X179557D01*
X179631Y-48574D01*
D02*
G37*
G36*
X114039Y-48574D02*
X114131D01*
X114252Y-48592D01*
X114390Y-48611D01*
X114548Y-48639D01*
X114714Y-48676D01*
X114890Y-48722D01*
X115075Y-48777D01*
X115260Y-48851D01*
X115454Y-48935D01*
X115639Y-49036D01*
X115824Y-49157D01*
X116000Y-49295D01*
X116166Y-49453D01*
X116176Y-49462D01*
X116203Y-49490D01*
X116250Y-49545D01*
X116296Y-49610D01*
X116361Y-49702D01*
X116435Y-49813D01*
X116509Y-49943D01*
X116592Y-50091D01*
X116675Y-50248D01*
X116749Y-50433D01*
X116823Y-50637D01*
X116888Y-50849D01*
X116943Y-51090D01*
X116980Y-51340D01*
X117008Y-51608D01*
X117017Y-51895D01*
Y-51913D01*
Y-51959D01*
X117008Y-52043D01*
Y-52154D01*
X116990Y-52283D01*
X116971Y-52431D01*
X116943Y-52607D01*
X116916Y-52783D01*
X116869Y-52977D01*
X116814Y-53180D01*
X116740Y-53384D01*
X116657Y-53587D01*
X116564Y-53782D01*
X116444Y-53976D01*
X116314Y-54161D01*
X116166Y-54337D01*
X116157Y-54346D01*
X116129Y-54374D01*
X116083Y-54420D01*
X116009Y-54475D01*
X115926Y-54540D01*
X115824Y-54614D01*
X115704Y-54688D01*
X115574Y-54771D01*
X115417Y-54855D01*
X115251Y-54929D01*
X115066Y-55003D01*
X114862Y-55067D01*
X114649Y-55123D01*
X114418Y-55169D01*
X114178Y-55197D01*
X113919Y-55206D01*
X113854D01*
X113780Y-55197D01*
X113687Y-55188D01*
X113567Y-55178D01*
X113428Y-55160D01*
X113271Y-55132D01*
X113105Y-55095D01*
X112920Y-55049D01*
X112744Y-54993D01*
X112550Y-54919D01*
X112365Y-54836D01*
X112170Y-54744D01*
X111995Y-54623D01*
X111819Y-54494D01*
X111652Y-54337D01*
X111643Y-54327D01*
X111615Y-54300D01*
X111578Y-54244D01*
X111523Y-54179D01*
X111458Y-54087D01*
X111384Y-53976D01*
X111310Y-53856D01*
X111236Y-53708D01*
X111153Y-53550D01*
X111079Y-53365D01*
X111005Y-53171D01*
X110940Y-52958D01*
X110885Y-52727D01*
X110848Y-52477D01*
X110820Y-52209D01*
X110811Y-51932D01*
Y-51922D01*
Y-51885D01*
Y-51839D01*
X110820Y-51765D01*
Y-51682D01*
X110829Y-51589D01*
X110838Y-51478D01*
X110848Y-51358D01*
X110885Y-51099D01*
X110931Y-50822D01*
X111005Y-50544D01*
X111097Y-50285D01*
Y-50276D01*
X111107Y-50267D01*
X111125Y-50239D01*
X111134Y-50202D01*
X111190Y-50109D01*
X111255Y-49989D01*
X111338Y-49850D01*
X111440Y-49712D01*
X111560Y-49554D01*
X111689Y-49406D01*
X111699Y-49397D01*
X111708Y-49388D01*
X111754Y-49342D01*
X111837Y-49268D01*
X111939Y-49184D01*
X112059Y-49092D01*
X112198Y-48990D01*
X112355Y-48898D01*
X112522Y-48824D01*
X112531D01*
X112550Y-48814D01*
X112587Y-48796D01*
X112633Y-48787D01*
X112688Y-48759D01*
X112753Y-48740D01*
X112836Y-48722D01*
X112920Y-48694D01*
X113123Y-48648D01*
X113354Y-48602D01*
X113623Y-48574D01*
X113900Y-48565D01*
X113965D01*
X114039Y-48574D01*
D02*
G37*
%LPC*%
G36*
X185884Y-49767D02*
X184922D01*
Y-51589D01*
X185810D01*
X185874Y-51580D01*
X186041D01*
X186207Y-51571D01*
X186374Y-51552D01*
X186522Y-51525D01*
X186587Y-51515D01*
X186642Y-51497D01*
X186651Y-51488D01*
X186688Y-51478D01*
X186735Y-51451D01*
X186790Y-51423D01*
X186855Y-51377D01*
X186920Y-51321D01*
X186994Y-51256D01*
X187049Y-51182D01*
X187058Y-51173D01*
X187077Y-51145D01*
X187095Y-51099D01*
X187123Y-51034D01*
X187151Y-50960D01*
X187179Y-50877D01*
X187188Y-50785D01*
X187197Y-50683D01*
Y-50664D01*
Y-50627D01*
X187188Y-50563D01*
X187169Y-50479D01*
X187142Y-50387D01*
X187105Y-50285D01*
X187058Y-50193D01*
X186984Y-50100D01*
X186975Y-50091D01*
X186947Y-50063D01*
X186901Y-50026D01*
X186846Y-49980D01*
X186772Y-49924D01*
X186679Y-49878D01*
X186577Y-49841D01*
X186466Y-49813D01*
X186457D01*
X186420Y-49804D01*
X186355Y-49795D01*
X186263Y-49786D01*
X186143D01*
X186059Y-49776D01*
X185976D01*
X185884Y-49767D01*
D02*
G37*
G36*
X152334Y-50174D02*
X151464Y-52551D01*
X153231D01*
X152334Y-50174D01*
D02*
G37*
G36*
X138699Y-49767D02*
X137219D01*
Y-51395D01*
X138477D01*
X138662Y-51386D01*
X138857Y-51377D01*
X139051Y-51367D01*
X139134Y-51358D01*
X139208Y-51349D01*
X139282Y-51330D01*
X139328Y-51321D01*
X139338D01*
X139365Y-51303D01*
X139412Y-51284D01*
X139458Y-51256D01*
X139578Y-51173D01*
X139634Y-51118D01*
X139689Y-51053D01*
X139698Y-51044D01*
X139708Y-51016D01*
X139735Y-50979D01*
X139763Y-50923D01*
X139782Y-50849D01*
X139809Y-50766D01*
X139819Y-50674D01*
X139828Y-50572D01*
Y-50553D01*
Y-50516D01*
X139819Y-50461D01*
X139809Y-50387D01*
X139782Y-50304D01*
X139754Y-50220D01*
X139708Y-50128D01*
X139652Y-50054D01*
X139643Y-50045D01*
X139624Y-50017D01*
X139578Y-49989D01*
X139523Y-49943D01*
X139458Y-49897D01*
X139375Y-49860D01*
X139273Y-49823D01*
X139162Y-49795D01*
X139153D01*
X139125Y-49786D01*
X139069D01*
X138986Y-49776D01*
X138783D01*
X138699Y-49767D01*
D02*
G37*
G36*
X125638Y-49767D02*
X124797D01*
Y-54004D01*
X125934D01*
X126055Y-53994D01*
X126184D01*
X126314Y-53976D01*
X126434Y-53967D01*
X126536Y-53948D01*
X126554D01*
X126591Y-53930D01*
X126647Y-53911D01*
X126721Y-53883D01*
X126804Y-53846D01*
X126887Y-53800D01*
X126970Y-53745D01*
X127054Y-53680D01*
X127063Y-53671D01*
X127091Y-53643D01*
X127128Y-53597D01*
X127174Y-53532D01*
X127220Y-53449D01*
X127285Y-53347D01*
X127331Y-53217D01*
X127387Y-53069D01*
Y-53060D01*
X127396Y-53051D01*
Y-53023D01*
X127405Y-52986D01*
X127424Y-52949D01*
X127433Y-52894D01*
X127461Y-52755D01*
X127479Y-52588D01*
X127507Y-52394D01*
X127516Y-52154D01*
X127525Y-51895D01*
Y-51885D01*
Y-51858D01*
Y-51821D01*
Y-51774D01*
Y-51710D01*
X127516Y-51636D01*
X127507Y-51478D01*
X127488Y-51293D01*
X127470Y-51099D01*
X127433Y-50923D01*
X127387Y-50757D01*
Y-50748D01*
X127377Y-50738D01*
X127359Y-50692D01*
X127331Y-50618D01*
X127294Y-50526D01*
X127239Y-50433D01*
X127174Y-50331D01*
X127100Y-50230D01*
X127017Y-50137D01*
X127007Y-50128D01*
X126980Y-50100D01*
X126924Y-50063D01*
X126859Y-50017D01*
X126767Y-49961D01*
X126665Y-49915D01*
X126554Y-49869D01*
X126425Y-49832D01*
X126415D01*
X126369Y-49823D01*
X126295Y-49813D01*
X126193Y-49795D01*
X126129D01*
X126045Y-49786D01*
X125962D01*
X125870Y-49776D01*
X125759D01*
X125638Y-49767D01*
D02*
G37*
G36*
X179510Y-49665D02*
X179436D01*
X179381Y-49675D01*
X179307Y-49684D01*
X179233Y-49693D01*
X179048Y-49730D01*
X178844Y-49804D01*
X178733Y-49841D01*
X178622Y-49897D01*
X178521Y-49961D01*
X178410Y-50035D01*
X178308Y-50119D01*
X178215Y-50220D01*
X178206Y-50230D01*
X178197Y-50248D01*
X178169Y-50276D01*
X178141Y-50322D01*
X178104Y-50387D01*
X178067Y-50452D01*
X178021Y-50535D01*
X177975Y-50637D01*
X177929Y-50748D01*
X177882Y-50868D01*
X177845Y-51007D01*
X177808Y-51155D01*
X177781Y-51321D01*
X177753Y-51497D01*
X177744Y-51682D01*
X177734Y-51885D01*
Y-51895D01*
Y-51932D01*
Y-51987D01*
X177744Y-52061D01*
X177753Y-52154D01*
X177762Y-52265D01*
X177781Y-52376D01*
X177799Y-52505D01*
X177855Y-52773D01*
X177947Y-53042D01*
X178003Y-53180D01*
X178067Y-53310D01*
X178151Y-53430D01*
X178234Y-53541D01*
X178243Y-53550D01*
X178262Y-53569D01*
X178289Y-53597D01*
X178326Y-53624D01*
X178373Y-53671D01*
X178437Y-53717D01*
X178502Y-53772D01*
X178585Y-53819D01*
X178761Y-53930D01*
X178983Y-54013D01*
X179103Y-54050D01*
X179233Y-54078D01*
X179372Y-54096D01*
X179510Y-54105D01*
X179584D01*
X179640Y-54096D01*
X179705Y-54087D01*
X179779Y-54078D01*
X179954Y-54031D01*
X180158Y-53967D01*
X180260Y-53920D01*
X180371Y-53874D01*
X180472Y-53809D01*
X180583Y-53735D01*
X180685Y-53652D01*
X180778Y-53550D01*
X180787Y-53541D01*
X180796Y-53523D01*
X180824Y-53495D01*
X180852Y-53449D01*
X180898Y-53384D01*
X180935Y-53310D01*
X180981Y-53227D01*
X181027Y-53125D01*
X181074Y-53014D01*
X181120Y-52894D01*
X181166Y-52755D01*
X181203Y-52598D01*
X181231Y-52440D01*
X181259Y-52265D01*
X181268Y-52070D01*
X181277Y-51867D01*
Y-51858D01*
Y-51821D01*
Y-51765D01*
X181268Y-51682D01*
X181259Y-51589D01*
X181249Y-51488D01*
X181240Y-51367D01*
X181212Y-51247D01*
X181157Y-50979D01*
X181074Y-50701D01*
X181018Y-50563D01*
X180953Y-50442D01*
X180870Y-50322D01*
X180787Y-50211D01*
X180778Y-50202D01*
X180768Y-50183D01*
X180741Y-50165D01*
X180704Y-50128D01*
X180648Y-50082D01*
X180593Y-50035D01*
X180528Y-49989D01*
X180445Y-49934D01*
X180361Y-49887D01*
X180260Y-49841D01*
X180047Y-49749D01*
X179927Y-49712D01*
X179797Y-49693D01*
X179658Y-49675D01*
X179510Y-49665D01*
D02*
G37*
G36*
X113919Y-49665D02*
X113845D01*
X113789Y-49675D01*
X113715Y-49684D01*
X113641Y-49693D01*
X113456Y-49730D01*
X113253Y-49804D01*
X113142Y-49841D01*
X113031Y-49897D01*
X112929Y-49961D01*
X112818Y-50035D01*
X112716Y-50119D01*
X112624Y-50220D01*
X112614Y-50230D01*
X112605Y-50248D01*
X112577Y-50276D01*
X112550Y-50322D01*
X112513Y-50387D01*
X112476Y-50452D01*
X112429Y-50535D01*
X112383Y-50637D01*
X112337Y-50748D01*
X112291Y-50868D01*
X112254Y-51007D01*
X112217Y-51155D01*
X112189Y-51321D01*
X112161Y-51497D01*
X112152Y-51682D01*
X112143Y-51885D01*
Y-51895D01*
Y-51932D01*
Y-51987D01*
X112152Y-52061D01*
X112161Y-52154D01*
X112170Y-52265D01*
X112189Y-52376D01*
X112207Y-52505D01*
X112263Y-52773D01*
X112355Y-53042D01*
X112411Y-53180D01*
X112476Y-53310D01*
X112559Y-53430D01*
X112642Y-53541D01*
X112651Y-53550D01*
X112670Y-53569D01*
X112698Y-53597D01*
X112735Y-53624D01*
X112781Y-53671D01*
X112846Y-53717D01*
X112910Y-53772D01*
X112994Y-53819D01*
X113169Y-53930D01*
X113391Y-54013D01*
X113512Y-54050D01*
X113641Y-54078D01*
X113780Y-54096D01*
X113919Y-54105D01*
X113993D01*
X114048Y-54096D01*
X114113Y-54087D01*
X114187Y-54078D01*
X114363Y-54031D01*
X114566Y-53967D01*
X114668Y-53920D01*
X114779Y-53874D01*
X114881Y-53809D01*
X114992Y-53735D01*
X115093Y-53652D01*
X115186Y-53550D01*
X115195Y-53541D01*
X115204Y-53523D01*
X115232Y-53495D01*
X115260Y-53449D01*
X115306Y-53384D01*
X115343Y-53310D01*
X115389Y-53227D01*
X115436Y-53125D01*
X115482Y-53014D01*
X115528Y-52894D01*
X115574Y-52755D01*
X115611Y-52598D01*
X115639Y-52440D01*
X115667Y-52265D01*
X115676Y-52070D01*
X115685Y-51867D01*
Y-51858D01*
Y-51821D01*
Y-51765D01*
X115676Y-51682D01*
X115667Y-51589D01*
X115658Y-51488D01*
X115648Y-51367D01*
X115621Y-51247D01*
X115565Y-50979D01*
X115482Y-50701D01*
X115426Y-50563D01*
X115362Y-50442D01*
X115278Y-50322D01*
X115195Y-50211D01*
X115186Y-50202D01*
X115177Y-50183D01*
X115149Y-50165D01*
X115112Y-50128D01*
X115056Y-50082D01*
X115001Y-50035D01*
X114936Y-49989D01*
X114853Y-49934D01*
X114770Y-49887D01*
X114668Y-49841D01*
X114455Y-49749D01*
X114335Y-49712D01*
X114205Y-49693D01*
X114067Y-49675D01*
X113919Y-49665D01*
D02*
G37*
%LPD*%
D25*
X292661Y69811D02*
D03*
X275339D02*
D03*
X49339Y136811D02*
D03*
X66661D02*
D03*
D26*
X264235Y80483D02*
D03*
X265810D02*
D03*
X264235Y78908D02*
D03*
X265810D02*
D03*
D36*
X301753Y94201D02*
D03*
Y92232D02*
D03*
Y90264D02*
D03*
Y88295D02*
D03*
Y86327D02*
D03*
Y84358D02*
D03*
Y82390D02*
D03*
Y80421D02*
D03*
D42*
X228622Y66173D02*
D03*
Y64795D02*
D03*
X227244Y66173D02*
D03*
Y64795D02*
D03*
D69*
X291480Y31232D02*
D03*
Y11736D02*
D03*
X281480Y31232D02*
D03*
Y11736D02*
D03*
X271480Y31232D02*
D03*
Y11736D02*
D03*
X252480Y31232D02*
D03*
Y11736D02*
D03*
X242480Y31232D02*
D03*
Y11736D02*
D03*
X232480Y31232D02*
D03*
Y11736D02*
D03*
X222480Y31232D02*
D03*
Y11736D02*
D03*
X212480Y31232D02*
D03*
Y11736D02*
D03*
X202480Y31232D02*
D03*
Y11736D02*
D03*
X183480Y31232D02*
D03*
Y11736D02*
D03*
X173480Y31232D02*
D03*
Y11736D02*
D03*
X163480Y31232D02*
D03*
Y11736D02*
D03*
X153480Y31232D02*
D03*
Y11736D02*
D03*
X143480Y31232D02*
D03*
Y11736D02*
D03*
X133480Y31232D02*
D03*
Y11736D02*
D03*
X114480Y31232D02*
D03*
Y11736D02*
D03*
X104480Y31232D02*
D03*
Y11736D02*
D03*
X94480Y31232D02*
D03*
Y11736D02*
D03*
X84480Y31232D02*
D03*
Y11736D02*
D03*
X74480Y31232D02*
D03*
Y11736D02*
D03*
X64480Y31232D02*
D03*
Y11736D02*
D03*
X45480Y31232D02*
D03*
Y11736D02*
D03*
X35480Y31232D02*
D03*
Y11736D02*
D03*
X25480Y31232D02*
D03*
Y11736D02*
D03*
Y95736D02*
D03*
Y115232D02*
D03*
X35480Y95736D02*
D03*
Y115232D02*
D03*
X45480Y95736D02*
D03*
Y115232D02*
D03*
D70*
X20807Y45400D02*
D03*
X24193D02*
D03*
X221285Y132563D02*
D03*
X217899D02*
D03*
X287274Y94063D02*
D03*
X283888D02*
D03*
X276507Y93911D02*
D03*
X279893D02*
D03*
X263285Y121063D02*
D03*
X259899D02*
D03*
X271399Y117063D02*
D03*
X274785D02*
D03*
Y121063D02*
D03*
X271399D02*
D03*
X259899Y117063D02*
D03*
X263285D02*
D03*
X226240Y58984D02*
D03*
X229626D02*
D03*
X226305Y71889D02*
D03*
X229691D02*
D03*
X253774Y94063D02*
D03*
X250388D02*
D03*
X243195D02*
D03*
X246581D02*
D03*
X278723Y183563D02*
D03*
X275337D02*
D03*
X262399D02*
D03*
X265785D02*
D03*
X41753Y171473D02*
D03*
X38367D02*
D03*
X41753Y175027D02*
D03*
X38367D02*
D03*
X59807Y127811D02*
D03*
X63192D02*
D03*
X41753Y158772D02*
D03*
X38367D02*
D03*
X41753Y155218D02*
D03*
X38367D02*
D03*
X286692Y77811D02*
D03*
X283307D02*
D03*
X131807Y207811D02*
D03*
X135193D02*
D03*
D71*
X41272Y44811D02*
D03*
X37728D02*
D03*
X151771Y206811D02*
D03*
X148228D02*
D03*
Y210810D02*
D03*
X151771D02*
D03*
X223794Y95678D02*
D03*
X220250D02*
D03*
X223794Y115363D02*
D03*
X220250D02*
D03*
X223794Y125204D02*
D03*
X220250D02*
D03*
X223794Y105521D02*
D03*
X220250D02*
D03*
X294251Y97984D02*
D03*
X290708D02*
D03*
X262772Y100811D02*
D03*
X259228D02*
D03*
X259821Y112063D02*
D03*
X263365D02*
D03*
X271321D02*
D03*
X274865D02*
D03*
X262772Y96811D02*
D03*
X259228D02*
D03*
X61729Y122311D02*
D03*
X65272D02*
D03*
X72756Y122389D02*
D03*
X76300D02*
D03*
X72560Y103922D02*
D03*
X76104D02*
D03*
X291228Y77811D02*
D03*
X294772D02*
D03*
X65272Y103811D02*
D03*
X61729D02*
D03*
X135271Y199811D02*
D03*
X131728D02*
D03*
X274729Y77811D02*
D03*
X278272D02*
D03*
D72*
X26000Y56312D02*
D03*
Y72312D02*
D03*
X31000Y56312D02*
D03*
Y72312D02*
D03*
X36000Y56312D02*
D03*
Y72312D02*
D03*
X41000Y56312D02*
D03*
Y72312D02*
D03*
X46000Y56312D02*
D03*
Y72312D02*
D03*
D73*
X299999Y156504D02*
D03*
Y153119D02*
D03*
X236092Y134756D02*
D03*
Y131370D02*
D03*
X283000Y121004D02*
D03*
Y117618D02*
D03*
X279000Y117618D02*
D03*
Y121004D02*
D03*
X299541Y168450D02*
D03*
Y165064D02*
D03*
X74939Y164928D02*
D03*
Y168314D02*
D03*
X71239Y164928D02*
D03*
Y168314D02*
D03*
X29429Y138580D02*
D03*
Y141966D02*
D03*
X231592Y156756D02*
D03*
Y153370D02*
D03*
X236092Y156756D02*
D03*
Y153370D02*
D03*
Y161370D02*
D03*
Y164756D02*
D03*
Y172563D02*
D03*
Y169177D02*
D03*
D74*
X255170Y55811D02*
D03*
X238832D02*
D03*
X238718Y75484D02*
D03*
X255057D02*
D03*
D75*
X253202Y61815D02*
D03*
X240800D02*
D03*
Y49807D02*
D03*
X253202D02*
D03*
X253088Y81488D02*
D03*
X240687D02*
D03*
Y69480D02*
D03*
X253088D02*
D03*
D76*
X65158Y117311D02*
D03*
X59843D02*
D03*
X77186Y117389D02*
D03*
X71871D02*
D03*
X77186Y110273D02*
D03*
X71871Y110273D02*
D03*
X59842Y110311D02*
D03*
X65158D02*
D03*
D77*
X35606Y132370D02*
D03*
Y127252D02*
D03*
X41393Y129811D02*
D03*
X29393D02*
D03*
X23606Y127252D02*
D03*
Y132370D02*
D03*
D78*
X151799Y215342D02*
D03*
Y217311D02*
D03*
Y219280D02*
D03*
X145201D02*
D03*
Y217311D02*
D03*
Y215342D02*
D03*
D79*
X143500Y207311D02*
D03*
X268500Y191000D02*
D03*
X274500D02*
D03*
X287000Y112811D02*
D03*
X255500Y108811D02*
D03*
X290500Y119811D02*
D03*
X293500Y112811D02*
D03*
D80*
X136999Y226196D02*
D03*
Y219425D02*
D03*
D81*
X301753Y99909D02*
D03*
Y96760D02*
D03*
Y77862D02*
D03*
Y74713D02*
D03*
D82*
X124965Y207650D02*
D03*
Y205090D02*
D03*
Y202532D02*
D03*
Y199972D02*
D03*
X108035D02*
D03*
Y202532D02*
D03*
Y205090D02*
D03*
Y207650D02*
D03*
D83*
X144200Y225811D02*
D03*
X149800D02*
D03*
D84*
X157500Y220610D02*
D03*
Y215010D02*
D03*
D85*
X236000Y126084D02*
D03*
Y122541D02*
D03*
X270500Y95139D02*
D03*
Y98682D02*
D03*
X222000Y69582D02*
D03*
Y66039D02*
D03*
X162999Y217039D02*
D03*
Y220582D02*
D03*
X236092Y140292D02*
D03*
Y143835D02*
D03*
X192480Y67755D02*
D03*
Y64212D02*
D03*
X181228D02*
D03*
Y67755D02*
D03*
X170232Y64212D02*
D03*
Y67755D02*
D03*
X65616Y181348D02*
D03*
Y177805D02*
D03*
X53627Y177806D02*
D03*
Y181349D02*
D03*
X66116Y154072D02*
D03*
Y157615D02*
D03*
X56855Y153687D02*
D03*
Y150144D02*
D03*
X140000Y210539D02*
D03*
Y214082D02*
D03*
X294000Y88040D02*
D03*
Y91583D02*
D03*
D86*
X245148Y118904D02*
D03*
X249873D02*
D03*
X254597D02*
D03*
D87*
X291480Y31232D02*
D03*
Y11736D02*
D03*
X281480Y31232D02*
D03*
Y11736D02*
D03*
X271480Y31232D02*
D03*
Y11736D02*
D03*
X252480Y31232D02*
D03*
Y11736D02*
D03*
X242480Y31232D02*
D03*
Y11736D02*
D03*
X232480Y31232D02*
D03*
Y11736D02*
D03*
X222480Y31232D02*
D03*
Y11736D02*
D03*
X212480Y31232D02*
D03*
Y11736D02*
D03*
X202480Y31232D02*
D03*
Y11736D02*
D03*
X183480Y31232D02*
D03*
Y11736D02*
D03*
X173480Y31232D02*
D03*
Y11736D02*
D03*
X163480Y31232D02*
D03*
Y11736D02*
D03*
X153480Y31232D02*
D03*
Y11736D02*
D03*
X143480Y31232D02*
D03*
Y11736D02*
D03*
X133480Y31232D02*
D03*
Y11736D02*
D03*
X114480Y31232D02*
D03*
Y11736D02*
D03*
X104480Y31232D02*
D03*
Y11736D02*
D03*
X94480Y31232D02*
D03*
Y11736D02*
D03*
X84480Y31232D02*
D03*
Y11736D02*
D03*
X74480Y31232D02*
D03*
Y11736D02*
D03*
X64480Y31232D02*
D03*
Y11736D02*
D03*
X45480Y31232D02*
D03*
Y11736D02*
D03*
X35480Y31232D02*
D03*
Y11736D02*
D03*
X25480Y31232D02*
D03*
Y11736D02*
D03*
Y95736D02*
D03*
Y115232D02*
D03*
X35480Y95736D02*
D03*
Y115232D02*
D03*
X45480Y95736D02*
D03*
Y115232D02*
D03*
D88*
X253112Y99701D02*
D03*
Y101276D02*
D03*
Y102851D02*
D03*
Y104426D02*
D03*
X243663D02*
D03*
Y102851D02*
D03*
Y101276D02*
D03*
Y99701D02*
D03*
X286612D02*
D03*
X286612Y101276D02*
D03*
Y102851D02*
D03*
X286612Y104426D02*
D03*
X277163D02*
D03*
Y102851D02*
D03*
Y101276D02*
D03*
Y99701D02*
D03*
D89*
X246026Y99111D02*
D03*
X279526D02*
D03*
D90*
X247600Y98914D02*
D03*
X249175D02*
D03*
X250750D02*
D03*
Y105213D02*
D03*
X249175D02*
D03*
X247600D02*
D03*
X246026D02*
D03*
X281100Y98914D02*
D03*
X282675D02*
D03*
X284250D02*
D03*
Y105213D02*
D03*
X282675D02*
D03*
X281100D02*
D03*
X279526D02*
D03*
D91*
X134646Y171417D02*
D03*
Y159291D02*
D03*
X136221Y171417D02*
D03*
Y159291D02*
D03*
X137795Y171417D02*
D03*
Y159291D02*
D03*
X139370Y171417D02*
D03*
Y159291D02*
D03*
X140945Y171417D02*
D03*
Y159291D02*
D03*
X142520Y171417D02*
D03*
Y159291D02*
D03*
X144095Y171417D02*
D03*
Y159291D02*
D03*
X145669Y171417D02*
D03*
Y159291D02*
D03*
X147244Y171417D02*
D03*
Y159291D02*
D03*
X148819Y171417D02*
D03*
Y159291D02*
D03*
X150394Y171417D02*
D03*
Y159291D02*
D03*
X151969Y171417D02*
D03*
Y159291D02*
D03*
X153543Y171417D02*
D03*
Y159291D02*
D03*
X155118Y171417D02*
D03*
Y159291D02*
D03*
X156693Y171417D02*
D03*
Y159291D02*
D03*
X158268Y171417D02*
D03*
Y159291D02*
D03*
X159843Y171417D02*
D03*
Y159291D02*
D03*
X161417Y171417D02*
D03*
Y159291D02*
D03*
X162992Y171417D02*
D03*
Y159291D02*
D03*
X164567Y171417D02*
D03*
Y159291D02*
D03*
X166142Y171417D02*
D03*
Y159291D02*
D03*
X167717Y171417D02*
D03*
Y159291D02*
D03*
X169291Y171417D02*
D03*
Y159291D02*
D03*
X170866Y171417D02*
D03*
Y159291D02*
D03*
X172441Y171417D02*
D03*
Y159291D02*
D03*
X174016Y171417D02*
D03*
Y159291D02*
D03*
X175591Y171417D02*
D03*
Y159291D02*
D03*
X177165Y171417D02*
D03*
Y159291D02*
D03*
X178740Y171417D02*
D03*
Y159291D02*
D03*
X180315Y171417D02*
D03*
Y159291D02*
D03*
X134646Y92677D02*
D03*
Y80551D02*
D03*
X136221Y92677D02*
D03*
Y80551D02*
D03*
X137795Y92677D02*
D03*
Y80551D02*
D03*
X139370Y92677D02*
D03*
Y80551D02*
D03*
X140945Y92677D02*
D03*
Y80551D02*
D03*
X142520Y92677D02*
D03*
Y80551D02*
D03*
X144095Y92677D02*
D03*
Y80551D02*
D03*
X145669Y92677D02*
D03*
Y80551D02*
D03*
X147244Y92677D02*
D03*
Y80551D02*
D03*
X148819Y92677D02*
D03*
Y80551D02*
D03*
X150394Y92677D02*
D03*
Y80551D02*
D03*
X151969Y92677D02*
D03*
Y80551D02*
D03*
X153543Y92677D02*
D03*
Y80551D02*
D03*
X155118Y92677D02*
D03*
Y80551D02*
D03*
X156693D02*
D03*
X158268D02*
D03*
X159843D02*
D03*
X161417D02*
D03*
X162992D02*
D03*
X164567Y92677D02*
D03*
Y80551D02*
D03*
X166142Y92677D02*
D03*
Y80551D02*
D03*
X167717Y92677D02*
D03*
Y80551D02*
D03*
X169291Y92677D02*
D03*
Y80551D02*
D03*
X170866Y92677D02*
D03*
Y80551D02*
D03*
X172441Y92677D02*
D03*
Y80551D02*
D03*
X174016Y92677D02*
D03*
Y80551D02*
D03*
X175591Y92677D02*
D03*
Y80551D02*
D03*
X177165Y92677D02*
D03*
Y80551D02*
D03*
X178740Y92677D02*
D03*
Y80551D02*
D03*
X180315Y92677D02*
D03*
Y80551D02*
D03*
X156693Y92677D02*
D03*
X158268D02*
D03*
X159843D02*
D03*
X161417D02*
D03*
X162992D02*
D03*
D92*
X76797Y138096D02*
D03*
X81128D02*
D03*
Y131797D02*
D03*
X76797D02*
D03*
D93*
Y135931D02*
D03*
X81128Y133962D02*
D03*
Y135931D02*
D03*
X76797Y133962D02*
D03*
D94*
X3809Y121908D02*
D03*
D95*
X7884Y176673D02*
D03*
Y172736D02*
D03*
Y174705D02*
D03*
Y168799D02*
D03*
Y162894D02*
D03*
Y164862D02*
D03*
Y170768D02*
D03*
Y156988D02*
D03*
Y155020D02*
D03*
Y160925D02*
D03*
Y158957D02*
D03*
Y166831D02*
D03*
D96*
X14183Y154035D02*
D03*
Y156004D02*
D03*
Y159941D02*
D03*
Y157972D02*
D03*
Y171752D02*
D03*
Y173720D02*
D03*
Y175689D02*
D03*
Y165846D02*
D03*
Y161909D02*
D03*
Y163878D02*
D03*
Y169783D02*
D03*
Y167815D02*
D03*
D97*
X31073Y180140D02*
D03*
Y178172D02*
D03*
Y174235D02*
D03*
Y172266D02*
D03*
X27786D02*
D03*
Y174235D02*
D03*
Y178172D02*
D03*
Y180140D02*
D03*
Y150105D02*
D03*
Y152074D02*
D03*
Y156011D02*
D03*
Y157979D02*
D03*
X31073D02*
D03*
Y156011D02*
D03*
Y152074D02*
D03*
Y150105D02*
D03*
D98*
Y176203D02*
D03*
X27786D02*
D03*
Y154042D02*
D03*
X31073D02*
D03*
D99*
X53627Y161929D02*
D03*
Y158780D02*
D03*
Y160354D02*
D03*
Y163504D02*
D03*
Y168228D02*
D03*
Y165079D02*
D03*
Y166654D02*
D03*
Y172953D02*
D03*
Y169803D02*
D03*
Y171378D02*
D03*
X61659Y158780D02*
D03*
Y160354D02*
D03*
Y161929D02*
D03*
Y166654D02*
D03*
Y163504D02*
D03*
Y165079D02*
D03*
Y171378D02*
D03*
Y172953D02*
D03*
Y168228D02*
D03*
Y169803D02*
D03*
D100*
X57643Y165866D02*
D03*
D101*
X56855Y157913D02*
D03*
X58430D02*
D03*
Y173819D02*
D03*
X56855D02*
D03*
D102*
X38029Y139073D02*
D03*
D103*
X33895D02*
D03*
X42163Y141041D02*
D03*
Y139073D02*
D03*
Y137104D02*
D03*
X33895D02*
D03*
Y141041D02*
D03*
D104*
X28150Y167225D02*
D03*
Y165650D02*
D03*
Y164075D02*
D03*
X30709Y167225D02*
D03*
Y165650D02*
D03*
Y164075D02*
D03*
X284221Y85386D02*
D03*
Y83811D02*
D03*
Y82236D02*
D03*
X286779Y85386D02*
D03*
Y83811D02*
D03*
Y82236D02*
D03*
D105*
X218152Y145803D02*
D03*
Y142063D02*
D03*
Y138323D02*
D03*
X228034Y145803D02*
D03*
Y142063D02*
D03*
Y138323D02*
D03*
D106*
X245502Y137300D02*
D03*
Y139268D02*
D03*
Y141236D02*
D03*
Y143205D02*
D03*
Y145174D02*
D03*
Y147142D02*
D03*
Y149110D02*
D03*
Y151079D02*
D03*
Y153048D02*
D03*
Y155016D02*
D03*
Y156984D02*
D03*
Y158953D02*
D03*
Y160922D02*
D03*
Y162890D02*
D03*
Y164858D02*
D03*
Y166827D02*
D03*
X290683D02*
D03*
Y164858D02*
D03*
Y162890D02*
D03*
Y160922D02*
D03*
Y158953D02*
D03*
Y156984D02*
D03*
Y155016D02*
D03*
Y153048D02*
D03*
Y151079D02*
D03*
Y149110D02*
D03*
Y147142D02*
D03*
Y145174D02*
D03*
Y143205D02*
D03*
Y141236D02*
D03*
Y139268D02*
D03*
Y137300D02*
D03*
D107*
X253329Y174654D02*
D03*
X255297D02*
D03*
X282857Y129473D02*
D03*
X280888D02*
D03*
X278920D02*
D03*
X276951D02*
D03*
X274983D02*
D03*
X255297D02*
D03*
X257266D02*
D03*
X259234D02*
D03*
X261203D02*
D03*
X263172D02*
D03*
X265140D02*
D03*
X267109D02*
D03*
X269077D02*
D03*
X271046D02*
D03*
X273014D02*
D03*
X282857Y174654D02*
D03*
X280888D02*
D03*
X278920D02*
D03*
X276951D02*
D03*
X274983D02*
D03*
X273014D02*
D03*
X271046D02*
D03*
X269077D02*
D03*
X267109D02*
D03*
X265140D02*
D03*
X263172D02*
D03*
X261203D02*
D03*
X259234D02*
D03*
X257266D02*
D03*
D108*
X253329Y129473D02*
D03*
D109*
X291674Y235689D02*
D03*
X288524D02*
D03*
X285374D02*
D03*
X282225D02*
D03*
X279075D02*
D03*
X275925D02*
D03*
X272776D02*
D03*
X269626D02*
D03*
X266477D02*
D03*
X263327D02*
D03*
X260177D02*
D03*
X257028D02*
D03*
X253878D02*
D03*
X250729D02*
D03*
X247579D02*
D03*
X244429D02*
D03*
X241280D02*
D03*
X238130D02*
D03*
X234981D02*
D03*
X231831D02*
D03*
X83130D02*
D03*
X79980D02*
D03*
X76830D02*
D03*
X73681D02*
D03*
X70531D02*
D03*
X67382D02*
D03*
X64232D02*
D03*
X61082D02*
D03*
X57933D02*
D03*
X54783D02*
D03*
X51634D02*
D03*
X48484D02*
D03*
X45334D02*
D03*
X42185D02*
D03*
X39035D02*
D03*
X35886D02*
D03*
X32736D02*
D03*
X29586D02*
D03*
X26437D02*
D03*
X23287D02*
D03*
D110*
X291674Y213130D02*
D03*
X288524D02*
D03*
X285374D02*
D03*
X282225D02*
D03*
X279075D02*
D03*
X275925D02*
D03*
X272776D02*
D03*
X269626D02*
D03*
X266477D02*
D03*
X263327D02*
D03*
X260177D02*
D03*
X257028D02*
D03*
X253878D02*
D03*
X250729D02*
D03*
X247579D02*
D03*
X244429D02*
D03*
X241280D02*
D03*
X238130D02*
D03*
X234981D02*
D03*
X231831D02*
D03*
X83130D02*
D03*
X79980D02*
D03*
X76830D02*
D03*
X73681D02*
D03*
X70531D02*
D03*
X67382D02*
D03*
X64232D02*
D03*
X61082D02*
D03*
X57933D02*
D03*
X54783D02*
D03*
X51634D02*
D03*
X48484D02*
D03*
X45334D02*
D03*
X42185D02*
D03*
X39035D02*
D03*
X35886D02*
D03*
X32736D02*
D03*
X29586D02*
D03*
X26437D02*
D03*
X23287D02*
D03*
D111*
X293504Y224410D02*
D03*
X230000D02*
D03*
X84960D02*
D03*
X21456D02*
D03*
D112*
X274252D02*
D03*
X249252D02*
D03*
X65708D02*
D03*
X40708D02*
D03*
D113*
X-1000Y202811D02*
D03*
X314960Y23622D02*
D03*
X1000D02*
D03*
D114*
X225742Y157729D02*
D03*
X219443D02*
D03*
X225742Y153398D02*
D03*
X219443D02*
D03*
D115*
X223577Y157729D02*
D03*
X221608D02*
D03*
Y153398D02*
D03*
X223577D02*
D03*
D116*
X303366Y143311D02*
D03*
X323366D02*
D03*
Y123311D02*
D03*
X303366D02*
D03*
X313366Y133311D02*
D03*
Y189311D02*
D03*
X303366Y179311D02*
D03*
X323366D02*
D03*
Y199311D02*
D03*
X303366D02*
D03*
D117*
X208583Y70984D02*
D03*
X186732Y60984D02*
D03*
X197583Y70984D02*
D03*
Y60984D02*
D03*
X186732Y70984D02*
D03*
X175590Y60984D02*
D03*
Y70984D02*
D03*
X218085Y90560D02*
D03*
X225959D02*
D03*
Y100402D02*
D03*
X218085D02*
D03*
X225959Y110245D02*
D03*
X218085D02*
D03*
X225959Y120086D02*
D03*
X218085D02*
D03*
D118*
X314961Y248031D02*
D03*
X112204Y125985D02*
D03*
X0Y0D02*
D03*
Y248031D02*
D03*
X314961Y0D02*
D03*
D119*
X305985Y98689D02*
D03*
Y75933D02*
D03*
D120*
X304017Y70303D02*
D03*
Y104319D02*
D03*
D121*
X320474D02*
D03*
Y70303D02*
D03*
D122*
X270433Y55118D02*
D03*
X8809Y134773D02*
D03*
X310000Y55223D02*
D03*
D123*
X280433Y55118D02*
D03*
X290433D02*
D03*
X-1191Y134773D02*
D03*
X320000Y55223D02*
D03*
D124*
X-8455Y148346D02*
D03*
Y182362D02*
D03*
D125*
X3809Y151181D02*
D03*
D126*
X3553Y179527D02*
D03*
D127*
X202697Y224410D02*
D03*
X320807D02*
D03*
X-5847D02*
D03*
X112263D02*
D03*
D128*
X301378Y234902D02*
D03*
X222126D02*
D03*
X92834D02*
D03*
X13582D02*
D03*
D129*
X120472Y125985D02*
D03*
X118050Y131831D02*
D03*
X112204Y134252D02*
D03*
X103936Y125985D02*
D03*
X106358Y131831D02*
D03*
X112204Y117717D02*
D03*
X106358Y120138D02*
D03*
X118050D02*
D03*
X8268Y0D02*
D03*
X5846Y5846D02*
D03*
X0Y8268D02*
D03*
X-8268Y0D02*
D03*
X-5846Y5846D02*
D03*
X0Y-8268D02*
D03*
X-5846Y-5846D02*
D03*
X5846D02*
D03*
X323228Y248031D02*
D03*
X320807Y253878D02*
D03*
X314961Y256299D02*
D03*
X306693Y248031D02*
D03*
X309115Y253878D02*
D03*
X314961Y239764D02*
D03*
X309115Y242185D02*
D03*
X320807D02*
D03*
X8268Y248031D02*
D03*
X5846Y253878D02*
D03*
X0Y256299D02*
D03*
X-8268Y248031D02*
D03*
X-5846Y253878D02*
D03*
X0Y239764D02*
D03*
X-5846Y242185D02*
D03*
X5846D02*
D03*
X320807Y-5846D02*
D03*
X309115D02*
D03*
X314961Y-8268D02*
D03*
X309115Y5846D02*
D03*
X306693Y0D02*
D03*
X314961Y8268D02*
D03*
X320807Y5846D02*
D03*
X323228Y0D02*
D03*
M02*
