M48
;Layer_Color=9474304
;FILE_FORMAT=2:5
INCH,LZ
;TYPE=PLATED
T1F00S00C0.00800
%
T01
X-0001945Y-00211
X-0004823Y-0018032
Y-0013032
X-0004813Y-0006312
X0006055Y-0005099
Y-00131
Y-00211
X0014055
X0022055
X0030055
X0038055
X0038658Y-0018011
X0041658
X0044882Y-0016899
X0048107Y-0018011
X0051107
X0054331Y-0016899
X0057555Y-0018011
X0060555
X0063779Y-0016899
X0062055Y-00211
X0054055
X0046055
X0035433Y-00174
X0035177Y-0007032
Y-0003032
X0036829Y0003069
X0036677Y0006968
X0044677
Y0003469
X0045177Y-0003032
Y-0007032
X0054677
Y-0003032
Y0003469
Y0006968
X0063677
Y0003469
X0070677
Y0006968
X0078177
Y0003469
Y-0003531
X0070177
X0063778Y-0007431
X0073228Y-0016899
X0076377Y-0016532
X0079527
X0078055Y-00211
X0070055
X0086055
X0086177Y-0003531
X0084177Y0017469
X0079938Y002418
X0076985Y0025451
Y0028451
X0079938Y002968
X0075728Y0032004
X0085177Y0031468
Y0040468
X0086038Y004818
X0083085Y0049452
Y0052451
X0086038Y005368
X0075028Y0058404
X0070177Y0061968
X0066677Y0065969
X0055728Y0063305
X0045128Y0062805
X0042608Y0068024
X0030797Y0067804
X0029977Y0057595
Y0054596
X0027177Y0053469
Y0058969
X0021055Y0050901
Y00429
Y0034901
Y0026901
Y0018901
Y00109
Y0002901
X0029055
Y-0005099
Y0018901
Y0026901
Y0034901
Y00429
X0037585Y0042988
X0040385Y0044115
Y0047115
X0037585Y0048489
X0040177Y0053969
X0054628Y0053105
X0065128Y0053904
X0063028Y0044704
X0071485Y0043951
Y0046951
X0074438Y004818
Y004268
X0062828Y0031104
X0064328Y0020204
X0063779Y0016901
X0054331
X0043609Y0018606
X0041628Y0021804
X0039677Y0026969
X0040177Y0034969
X0048583Y0035691
X0051383Y0036819
Y0039819
X0048583Y0041192
X0050289Y004552
X0054418Y0079505
X0066229
X0062666Y00983
X0054666
X0046666
X0038666
X0030055
X0022055
X0014055
X0006055
Y00909
Y0082901
Y0074901
Y00669
Y00589
Y0050901
Y00429
Y0034901
Y0026901
Y0018901
Y00109
X-0004823Y0010968
Y0018969
Y0026969
Y0034969
Y0042968
Y0050968
Y0058969
Y0066969
Y0074968
Y0082968
Y0090969
X-0001945Y00983
X0070666
X0078666
X0073228Y0016901
X0035428Y0016604
X0094177Y0013969
Y0006968
Y-0003531
X0102055Y-0005099
Y0002901
X0110055
Y00109
X0102177Y0013969
X0109177Y0020968
X0115177Y0026469
X0122677Y0023469
Y0015469
X0116677Y0016468
X0122677Y0007468
Y0031468
Y0039469
X0117174Y0041383
X0110182Y0041233
X0113177Y0050968
X0115677Y0059969
X0106177Y0060469
X01025Y005
X0099177Y0048968
X0095691Y0050045
X0094177Y0040968
X0095677Y0037668
X0094177Y0031168
Y0027305
Y0022968
X0087677Y0035969
X0098677Y0067469
Y0070468
X0103041Y0073923
X0122677Y0071469
Y0063468
Y0055468
Y0047469
Y0079469
Y0087468
X0121677Y0097469
X0110666Y00983
X0102666
X0094666
X0086666
X0090677Y0090168
Y0087169
X0094055Y-00131
Y-00211
X0102055
Y-00131
X0110055
Y-00211
X0118055
Y-00131
X0110055Y-0005099
M30
