M48
;Layer_Color=9474304
;FILE_FORMAT=2:5
INCH,LZ
;TYPE=PLATED
T1F00S00C0.00800
%
T01
X-0001945Y-00211
X-0004823Y-0018032
Y-0013032
X-0004813Y-0006313
X0006055Y-00051
Y-00131
Y-00211
X0014055
X0022055
X0030055
X0038055
X0038658Y-0018011
X0041658
X0044882Y-00169
X0048107Y-0018011
X0051107
X0054331Y-00169
X0057555Y-0018011
X0060555
X0063779Y-00169
X0062055Y-00211
X0054055
X0046055
X0035433Y-00174
X0035432Y-0007432
X0035829Y-0002932
X0036829Y0003068
X0039329Y0007068
X0050329
X0047829Y0003068
X0045329Y-0002932
X004488Y-0007432
X0054329
X0055329Y-0002932
X0058329Y0002568
X0062329Y0007068
X0072829
X0078177Y0005968
X0086177
Y-0003532
X0078177
X0070177
X0070829Y0002568
X0073228Y00169
X0075677Y0020968
X0079677Y0025468
X0078388Y0029707
X0077161Y003266
X0074161
X0072888Y0029707
X0080177Y0036468
Y0044468
X007954Y0048843
X0078313Y0051796
X0075313
X007404Y0048843
X0066898Y0044862
X0057357Y0044602
X0049637Y0044715
Y0041715
X0046837Y0040588
Y0046088
X0049913Y0051179
X0040829Y0054068
X0034829Y0054568
X0032977Y0058596
Y0061595
X0030177Y0062968
X0030797Y0067804
X0033177Y0066468
X0042608Y0068024
X0051881Y0062164
X0064453Y0063116
X0061829Y0053068
X0061177Y0035468
X0051818Y00361
X0043177Y0032968
X0039294Y0027052
X0041177Y0021468
X0043609Y0018605
X0035434Y00169
X0029055Y00189
X0021055
Y00109
Y00029
X0029055
Y-00051
Y00269
X0021055
Y00349
Y00429
Y00509
X0029055
X0030177Y0057468
X0029055Y00429
X0033016Y0039953
X0035816Y0038581
Y0035581
X0033016Y0034453
X0029055Y00349
X0006055
Y00269
Y00189
Y00109
X-0004823Y0010968
Y0018968
Y0026968
Y0034968
Y0042968
Y0050968
Y0058968
Y0066968
Y0074968
Y0082968
Y0090968
X-0001945Y00983
X0006055
Y00909
Y00829
Y00749
Y00669
Y00589
Y00509
Y00429
X0014055Y00983
X0022055
X0030055
X0028177Y0087468
Y0084968
X0050482Y0079504
X0054418
X0062293
X0066229
X0074103Y0067742
X0078509Y0066918
X0081508
X0082736Y0063965
X0077236
X0085914Y0079504
X0086177Y0020468
X0064177Y0022968
X0063779Y00169
X0054331
X0063778Y-0007432
X0073228Y-00169
X0076377Y-0016532
X0079527
X0078055Y-00211
X0070055
X0086055
X0094055
Y-00131
X0102055
Y-00211
X0110055
Y-00131
Y-00051
X0102055
Y00029
X0110055
Y00109
X0102177Y0013968
X0094177
Y0005968
Y-0003532
X0089677Y0020468
Y0024468
X0094177Y0027304
Y0031168
X0095677Y0037668
X0088177Y0036468
Y0044468
Y0052468
Y0060468
X0097677
Y0052468
X0104577Y0049668
X0107077
X0110177Y0054576
X0114984Y0054475
X0114177Y0057168
X0114239Y0060804
X0110105
X010596Y0062668
X0099328Y0067804
Y0070804
X0090677Y0087168
Y0090168
X0109328Y0094804
Y0097304
X0112277Y0037668
X0115177
X0117377Y0030668
X0114777Y0026168
X0111677
X0104577Y0027168
X0101977Y0027304
X0107077Y0031668
X0105177Y0034168
X0118055Y-00131
Y-00211
M30
