G04*
G04 #@! TF.GenerationSoftware,Altium Limited,Altium Designer,22.5.1 (42)*
G04*
G04 Layer_Color=8388736*
%FSLAX25Y25*%
%MOIN*%
G70*
G04*
G04 #@! TF.SameCoordinates,7D5A9487-70C0-458F-A832-C6248EDC6538*
G04*
G04*
G04 #@! TF.FilePolarity,Negative*
G04*
G01*
G75*
%ADD32C,0.00800*%
%ADD46C,0.01000*%
G04:AMPARAMS|DCode=49|XSize=23.68mil|YSize=27.62mil|CornerRadius=7.12mil|HoleSize=0mil|Usage=FLASHONLY|Rotation=90.000|XOffset=0mil|YOffset=0mil|HoleType=Round|Shape=RoundedRectangle|*
%AMROUNDEDRECTD49*
21,1,0.02368,0.01339,0,0,90.0*
21,1,0.00945,0.02762,0,0,90.0*
1,1,0.01424,0.00669,0.00472*
1,1,0.01424,0.00669,-0.00472*
1,1,0.01424,-0.00669,-0.00472*
1,1,0.01424,-0.00669,0.00472*
%
%ADD49ROUNDEDRECTD49*%
%ADD50R,0.03353X0.03550*%
%ADD51R,0.03300X0.11400*%
%ADD52R,0.11400X0.03300*%
%ADD53R,0.05124X0.07565*%
%ADD54R,0.01581X0.02270*%
%ADD55R,0.04094X0.02994*%
%ADD56R,0.02994X0.04094*%
G04:AMPARAMS|DCode=57|XSize=25.26mil|YSize=27.62mil|CornerRadius=7.53mil|HoleSize=0mil|Usage=FLASHONLY|Rotation=270.000|XOffset=0mil|YOffset=0mil|HoleType=Round|Shape=RoundedRectangle|*
%AMROUNDEDRECTD57*
21,1,0.02526,0.01257,0,0,270.0*
21,1,0.01021,0.02762,0,0,270.0*
1,1,0.01506,-0.00628,-0.00510*
1,1,0.01506,-0.00628,0.00510*
1,1,0.01506,0.00628,0.00510*
1,1,0.01506,0.00628,-0.00510*
%
%ADD57ROUNDEDRECTD57*%
G04:AMPARAMS|DCode=58|XSize=29.59mil|YSize=19.75mil|CornerRadius=5.94mil|HoleSize=0mil|Usage=FLASHONLY|Rotation=270.000|XOffset=0mil|YOffset=0mil|HoleType=Round|Shape=RoundedRectangle|*
%AMROUNDEDRECTD58*
21,1,0.02959,0.00787,0,0,270.0*
21,1,0.01772,0.01975,0,0,270.0*
1,1,0.01187,-0.00394,-0.00886*
1,1,0.01187,-0.00394,0.00886*
1,1,0.01187,0.00394,0.00886*
1,1,0.01187,0.00394,-0.00886*
%
%ADD58ROUNDEDRECTD58*%
G04:AMPARAMS|DCode=59|XSize=29.59mil|YSize=15.81mil|CornerRadius=4.95mil|HoleSize=0mil|Usage=FLASHONLY|Rotation=270.000|XOffset=0mil|YOffset=0mil|HoleType=Round|Shape=RoundedRectangle|*
%AMROUNDEDRECTD59*
21,1,0.02959,0.00591,0,0,270.0*
21,1,0.01968,0.01581,0,0,270.0*
1,1,0.00991,-0.00295,-0.00984*
1,1,0.00991,-0.00295,0.00984*
1,1,0.00991,0.00295,0.00984*
1,1,0.00991,0.00295,-0.00984*
%
%ADD59ROUNDEDRECTD59*%
G04:AMPARAMS|DCode=60|XSize=61.87mil|YSize=22.9mil|CornerRadius=4.36mil|HoleSize=0mil|Usage=FLASHONLY|Rotation=0.000|XOffset=0mil|YOffset=0mil|HoleType=Round|Shape=RoundedRectangle|*
%AMROUNDEDRECTD60*
21,1,0.06187,0.01417,0,0,0.0*
21,1,0.05315,0.02290,0,0,0.0*
1,1,0.00872,0.02657,-0.00709*
1,1,0.00872,-0.02657,-0.00709*
1,1,0.00872,-0.02657,0.00709*
1,1,0.00872,0.02657,0.00709*
%
%ADD60ROUNDEDRECTD60*%
%ADD61R,0.01575X0.04331*%
%ADD62R,0.06896X0.05518*%
%ADD63C,0.11811*%
%ADD64R,0.02762X0.01581*%
%ADD65R,0.04928X0.05518*%
G04:AMPARAMS|DCode=66|XSize=25.26mil|YSize=27.62mil|CornerRadius=7.53mil|HoleSize=0mil|Usage=FLASHONLY|Rotation=0.000|XOffset=0mil|YOffset=0mil|HoleType=Round|Shape=RoundedRectangle|*
%AMROUNDEDRECTD66*
21,1,0.02526,0.01257,0,0,0.0*
21,1,0.01021,0.02762,0,0,0.0*
1,1,0.01506,0.00510,-0.00628*
1,1,0.01506,-0.00510,-0.00628*
1,1,0.01506,-0.00510,0.00628*
1,1,0.01506,0.00510,0.00628*
%
%ADD66ROUNDEDRECTD66*%
%ADD67R,0.03937X0.01457*%
%ADD68R,0.03543X0.01457*%
G04:AMPARAMS|DCode=69|XSize=26.18mil|YSize=11.81mil|CornerRadius=3.94mil|HoleSize=0mil|Usage=FLASHONLY|Rotation=270.000|XOffset=0mil|YOffset=0mil|HoleType=Round|Shape=RoundedRectangle|*
%AMROUNDEDRECTD69*
21,1,0.02618,0.00394,0,0,270.0*
21,1,0.01831,0.01181,0,0,270.0*
1,1,0.00787,-0.00197,-0.00915*
1,1,0.00787,-0.00197,0.00915*
1,1,0.00787,0.00197,0.00915*
1,1,0.00787,0.00197,-0.00915*
%
%ADD69ROUNDEDRECTD69*%
G04:AMPARAMS|DCode=70|XSize=26.18mil|YSize=11.81mil|CornerRadius=2.95mil|HoleSize=0mil|Usage=FLASHONLY|Rotation=270.000|XOffset=0mil|YOffset=0mil|HoleType=Round|Shape=RoundedRectangle|*
%AMROUNDEDRECTD70*
21,1,0.02618,0.00591,0,0,270.0*
21,1,0.02028,0.01181,0,0,270.0*
1,1,0.00591,-0.00295,-0.01014*
1,1,0.00591,-0.00295,0.01014*
1,1,0.00591,0.00295,0.01014*
1,1,0.00591,0.00295,-0.01014*
%
%ADD70ROUNDEDRECTD70*%
G04:AMPARAMS|DCode=71|XSize=26.18mil|YSize=11.81mil|CornerRadius=3.94mil|HoleSize=0mil|Usage=FLASHONLY|Rotation=180.000|XOffset=0mil|YOffset=0mil|HoleType=Round|Shape=RoundedRectangle|*
%AMROUNDEDRECTD71*
21,1,0.02618,0.00394,0,0,180.0*
21,1,0.01831,0.01181,0,0,180.0*
1,1,0.00787,-0.00915,0.00197*
1,1,0.00787,0.00915,0.00197*
1,1,0.00787,0.00915,-0.00197*
1,1,0.00787,-0.00915,-0.00197*
%
%ADD71ROUNDEDRECTD71*%
G04:AMPARAMS|DCode=72|XSize=26.18mil|YSize=11.81mil|CornerRadius=2.95mil|HoleSize=0mil|Usage=FLASHONLY|Rotation=180.000|XOffset=0mil|YOffset=0mil|HoleType=Round|Shape=RoundedRectangle|*
%AMROUNDEDRECTD72*
21,1,0.02618,0.00591,0,0,180.0*
21,1,0.02028,0.01181,0,0,180.0*
1,1,0.00591,-0.01014,0.00295*
1,1,0.00591,0.01014,0.00295*
1,1,0.00591,0.01014,-0.00295*
1,1,0.00591,-0.01014,-0.00295*
%
%ADD72ROUNDEDRECTD72*%
%ADD73R,0.02054X0.01266*%
%ADD74R,0.05912X0.04140*%
%ADD75R,0.03353X0.04928*%
%ADD76R,0.01187X0.03156*%
G04:AMPARAMS|DCode=77|XSize=29.98mil|YSize=12.66mil|CornerRadius=3.08mil|HoleSize=0mil|Usage=FLASHONLY|Rotation=180.000|XOffset=0mil|YOffset=0mil|HoleType=Round|Shape=RoundedRectangle|*
%AMROUNDEDRECTD77*
21,1,0.02998,0.00650,0,0,180.0*
21,1,0.02382,0.01266,0,0,180.0*
1,1,0.00617,-0.01191,0.00325*
1,1,0.00617,0.01191,0.00325*
1,1,0.00617,0.01191,-0.00325*
1,1,0.00617,-0.01191,-0.00325*
%
%ADD77ROUNDEDRECTD77*%
%ADD78R,0.03943X0.11030*%
G04:AMPARAMS|DCode=79|XSize=12.66mil|YSize=29.98mil|CornerRadius=3.08mil|HoleSize=0mil|Usage=FLASHONLY|Rotation=180.000|XOffset=0mil|YOffset=0mil|HoleType=Round|Shape=RoundedRectangle|*
%AMROUNDEDRECTD79*
21,1,0.01266,0.02382,0,0,180.0*
21,1,0.00650,0.02998,0,0,180.0*
1,1,0.00617,-0.00325,0.01191*
1,1,0.00617,0.00325,0.01191*
1,1,0.00617,0.00325,-0.01191*
1,1,0.00617,-0.00325,-0.01191*
%
%ADD79ROUNDEDRECTD79*%
%ADD80R,0.06306X0.06306*%
%ADD81C,0.06306*%
%ADD82C,0.24022*%
%ADD83C,0.02880*%
%ADD84O,0.10636X0.05518*%
%ADD85O,0.02368X0.03747*%
%ADD86R,0.06337X0.06337*%
%ADD87C,0.06337*%
%ADD88C,0.21660*%
%ADD89C,0.03400*%
G36*
X51236Y-126058D02*
X51338Y-126067D01*
X51458Y-126077D01*
X51578Y-126095D01*
X51717Y-126114D01*
X52013Y-126178D01*
X52161Y-126225D01*
X52309Y-126271D01*
X52457Y-126336D01*
X52596Y-126410D01*
X52725Y-126493D01*
X52846Y-126585D01*
X52855Y-126595D01*
X52873Y-126613D01*
X52901Y-126641D01*
X52938Y-126678D01*
X52984Y-126733D01*
X53040Y-126798D01*
X53095Y-126872D01*
X53160Y-126955D01*
X53216Y-127057D01*
X53271Y-127159D01*
X53327Y-127279D01*
X53373Y-127409D01*
X53419Y-127538D01*
X53456Y-127686D01*
X53484Y-127834D01*
X53493Y-128001D01*
X52198Y-128047D01*
Y-128038D01*
Y-128028D01*
X52180Y-127964D01*
X52161Y-127880D01*
X52124Y-127779D01*
X52078Y-127658D01*
X52013Y-127547D01*
X51930Y-127436D01*
X51837Y-127344D01*
X51828Y-127335D01*
X51791Y-127307D01*
X51726Y-127270D01*
X51634Y-127233D01*
X51523Y-127196D01*
X51384Y-127159D01*
X51218Y-127131D01*
X51023Y-127122D01*
X50931D01*
X50829Y-127131D01*
X50709Y-127150D01*
X50570Y-127177D01*
X50422Y-127224D01*
X50283Y-127279D01*
X50154Y-127362D01*
X50145Y-127372D01*
X50126Y-127390D01*
X50089Y-127418D01*
X50052Y-127464D01*
X50015Y-127520D01*
X49978Y-127594D01*
X49960Y-127668D01*
X49950Y-127760D01*
Y-127769D01*
Y-127797D01*
X49960Y-127843D01*
X49978Y-127890D01*
X49997Y-127954D01*
X50024Y-128019D01*
X50071Y-128084D01*
X50135Y-128149D01*
X50145Y-128158D01*
X50191Y-128186D01*
X50219Y-128204D01*
X50265Y-128223D01*
X50311Y-128250D01*
X50376Y-128278D01*
X50450Y-128306D01*
X50533Y-128343D01*
X50635Y-128380D01*
X50737Y-128417D01*
X50866Y-128454D01*
X51005Y-128491D01*
X51153Y-128528D01*
X51319Y-128574D01*
X51329D01*
X51366Y-128583D01*
X51412Y-128593D01*
X51477Y-128611D01*
X51551Y-128630D01*
X51643Y-128657D01*
X51745Y-128685D01*
X51847Y-128713D01*
X52069Y-128787D01*
X52300Y-128861D01*
X52522Y-128944D01*
X52614Y-128990D01*
X52707Y-129037D01*
X52716D01*
X52725Y-129046D01*
X52781Y-129083D01*
X52864Y-129138D01*
X52966Y-129212D01*
X53077Y-129305D01*
X53197Y-129416D01*
X53317Y-129545D01*
X53419Y-129693D01*
X53428Y-129712D01*
X53456Y-129767D01*
X53502Y-129851D01*
X53549Y-129971D01*
X53595Y-130119D01*
X53641Y-130295D01*
X53669Y-130489D01*
X53678Y-130711D01*
Y-130720D01*
Y-130739D01*
Y-130766D01*
Y-130803D01*
X53669Y-130850D01*
X53660Y-130914D01*
X53641Y-131044D01*
X53604Y-131210D01*
X53549Y-131386D01*
X53465Y-131562D01*
X53364Y-131747D01*
Y-131756D01*
X53345Y-131765D01*
X53308Y-131821D01*
X53234Y-131913D01*
X53142Y-132015D01*
X53021Y-132135D01*
X52864Y-132246D01*
X52698Y-132357D01*
X52494Y-132459D01*
X52485D01*
X52466Y-132468D01*
X52439Y-132478D01*
X52392Y-132496D01*
X52337Y-132515D01*
X52272Y-132533D01*
X52198Y-132552D01*
X52115Y-132570D01*
X52013Y-132598D01*
X51911Y-132616D01*
X51671Y-132653D01*
X51403Y-132681D01*
X51107Y-132690D01*
X50986D01*
X50903Y-132681D01*
X50801Y-132672D01*
X50690Y-132663D01*
X50561Y-132644D01*
X50422Y-132616D01*
X50117Y-132552D01*
X49960Y-132505D01*
X49812Y-132459D01*
X49654Y-132394D01*
X49506Y-132320D01*
X49368Y-132237D01*
X49238Y-132135D01*
X49229Y-132126D01*
X49210Y-132108D01*
X49173Y-132080D01*
X49136Y-132034D01*
X49081Y-131969D01*
X49025Y-131895D01*
X48961Y-131812D01*
X48896Y-131719D01*
X48831Y-131608D01*
X48766Y-131488D01*
X48702Y-131349D01*
X48637Y-131201D01*
X48591Y-131044D01*
X48535Y-130868D01*
X48498Y-130683D01*
X48470Y-130489D01*
X49728Y-130369D01*
Y-130378D01*
X49738Y-130396D01*
Y-130433D01*
X49747Y-130470D01*
X49784Y-130581D01*
X49830Y-130720D01*
X49886Y-130877D01*
X49969Y-131035D01*
X50061Y-131173D01*
X50182Y-131303D01*
X50200Y-131312D01*
X50246Y-131349D01*
X50320Y-131395D01*
X50431Y-131451D01*
X50570Y-131506D01*
X50727Y-131553D01*
X50912Y-131590D01*
X51125Y-131599D01*
X51227D01*
X51338Y-131580D01*
X51477Y-131562D01*
X51625Y-131534D01*
X51782Y-131488D01*
X51930Y-131423D01*
X52059Y-131340D01*
X52078Y-131331D01*
X52115Y-131294D01*
X52161Y-131238D01*
X52226Y-131164D01*
X52281Y-131072D01*
X52337Y-130961D01*
X52374Y-130850D01*
X52383Y-130720D01*
Y-130711D01*
Y-130683D01*
X52374Y-130637D01*
X52365Y-130581D01*
X52346Y-130526D01*
X52328Y-130461D01*
X52291Y-130396D01*
X52244Y-130332D01*
X52235Y-130322D01*
X52217Y-130304D01*
X52189Y-130276D01*
X52143Y-130239D01*
X52078Y-130193D01*
X51995Y-130147D01*
X51902Y-130100D01*
X51782Y-130054D01*
X51773D01*
X51736Y-130036D01*
X51671Y-130017D01*
X51625Y-129999D01*
X51569Y-129989D01*
X51504Y-129971D01*
X51430Y-129943D01*
X51347Y-129925D01*
X51255Y-129897D01*
X51144Y-129869D01*
X51023Y-129841D01*
X50894Y-129804D01*
X50746Y-129767D01*
X50737D01*
X50700Y-129758D01*
X50644Y-129740D01*
X50579Y-129721D01*
X50496Y-129693D01*
X50394Y-129666D01*
X50293Y-129629D01*
X50172Y-129592D01*
X49932Y-129499D01*
X49701Y-129388D01*
X49580Y-129333D01*
X49479Y-129268D01*
X49377Y-129203D01*
X49294Y-129138D01*
X49284Y-129129D01*
X49266Y-129111D01*
X49238Y-129083D01*
X49201Y-129046D01*
X49155Y-128990D01*
X49109Y-128926D01*
X49053Y-128861D01*
X49007Y-128778D01*
X48896Y-128583D01*
X48803Y-128361D01*
X48766Y-128241D01*
X48739Y-128121D01*
X48720Y-127982D01*
X48711Y-127843D01*
Y-127834D01*
Y-127825D01*
Y-127797D01*
Y-127760D01*
X48729Y-127668D01*
X48748Y-127547D01*
X48776Y-127409D01*
X48822Y-127251D01*
X48887Y-127085D01*
X48979Y-126928D01*
Y-126918D01*
X48988Y-126909D01*
X49035Y-126854D01*
X49090Y-126780D01*
X49183Y-126687D01*
X49294Y-126585D01*
X49432Y-126474D01*
X49590Y-126373D01*
X49775Y-126280D01*
X49784D01*
X49802Y-126271D01*
X49830Y-126262D01*
X49867Y-126243D01*
X49923Y-126225D01*
X49978Y-126206D01*
X50052Y-126188D01*
X50135Y-126160D01*
X50320Y-126123D01*
X50533Y-126086D01*
X50774Y-126058D01*
X51042Y-126049D01*
X51153D01*
X51236Y-126058D01*
D02*
G37*
G36*
X56Y-126058D02*
X158Y-126067D01*
X278Y-126077D01*
X398Y-126095D01*
X537Y-126114D01*
X833Y-126178D01*
X981Y-126225D01*
X1129Y-126271D01*
X1277Y-126336D01*
X1416Y-126410D01*
X1545Y-126493D01*
X1665Y-126585D01*
X1675Y-126595D01*
X1693Y-126613D01*
X1721Y-126641D01*
X1758Y-126678D01*
X1804Y-126733D01*
X1860Y-126798D01*
X1915Y-126872D01*
X1980Y-126955D01*
X2035Y-127057D01*
X2091Y-127159D01*
X2146Y-127279D01*
X2193Y-127409D01*
X2239Y-127538D01*
X2276Y-127686D01*
X2304Y-127834D01*
X2313Y-128001D01*
X1018Y-128047D01*
Y-128038D01*
Y-128028D01*
X999Y-127964D01*
X981Y-127880D01*
X944Y-127779D01*
X898Y-127658D01*
X833Y-127547D01*
X750Y-127436D01*
X657Y-127344D01*
X648Y-127335D01*
X611Y-127307D01*
X546Y-127270D01*
X454Y-127233D01*
X343Y-127196D01*
X204Y-127159D01*
X37Y-127131D01*
X-157Y-127122D01*
X-249D01*
X-351Y-127131D01*
X-471Y-127150D01*
X-610Y-127177D01*
X-758Y-127224D01*
X-897Y-127279D01*
X-1026Y-127362D01*
X-1036Y-127372D01*
X-1054Y-127390D01*
X-1091Y-127418D01*
X-1128Y-127464D01*
X-1165Y-127520D01*
X-1202Y-127594D01*
X-1221Y-127668D01*
X-1230Y-127760D01*
Y-127769D01*
Y-127797D01*
X-1221Y-127843D01*
X-1202Y-127890D01*
X-1184Y-127954D01*
X-1156Y-128019D01*
X-1110Y-128084D01*
X-1045Y-128149D01*
X-1036Y-128158D01*
X-989Y-128186D01*
X-962Y-128204D01*
X-915Y-128223D01*
X-869Y-128250D01*
X-804Y-128278D01*
X-730Y-128306D01*
X-647Y-128343D01*
X-545Y-128380D01*
X-444Y-128417D01*
X-314Y-128454D01*
X-175Y-128491D01*
X-27Y-128528D01*
X139Y-128574D01*
X148D01*
X185Y-128583D01*
X232Y-128593D01*
X296Y-128611D01*
X370Y-128630D01*
X463Y-128657D01*
X565Y-128685D01*
X666Y-128713D01*
X888Y-128787D01*
X1120Y-128861D01*
X1342Y-128944D01*
X1434Y-128990D01*
X1527Y-129037D01*
X1536D01*
X1545Y-129046D01*
X1601Y-129083D01*
X1684Y-129138D01*
X1786Y-129212D01*
X1897Y-129305D01*
X2017Y-129416D01*
X2137Y-129545D01*
X2239Y-129693D01*
X2248Y-129712D01*
X2276Y-129767D01*
X2322Y-129851D01*
X2368Y-129971D01*
X2415Y-130119D01*
X2461Y-130295D01*
X2489Y-130489D01*
X2498Y-130711D01*
Y-130720D01*
Y-130739D01*
Y-130766D01*
Y-130803D01*
X2489Y-130850D01*
X2479Y-130914D01*
X2461Y-131044D01*
X2424Y-131210D01*
X2368Y-131386D01*
X2285Y-131562D01*
X2183Y-131747D01*
Y-131756D01*
X2165Y-131765D01*
X2128Y-131821D01*
X2054Y-131913D01*
X1961Y-132015D01*
X1841Y-132135D01*
X1684Y-132246D01*
X1517Y-132357D01*
X1314Y-132459D01*
X1305D01*
X1286Y-132468D01*
X1258Y-132478D01*
X1212Y-132496D01*
X1157Y-132515D01*
X1092Y-132533D01*
X1018Y-132552D01*
X935Y-132570D01*
X833Y-132598D01*
X731Y-132616D01*
X491Y-132653D01*
X222Y-132681D01*
X-74Y-132690D01*
X-194D01*
X-277Y-132681D01*
X-379Y-132672D01*
X-490Y-132663D01*
X-619Y-132644D01*
X-758Y-132616D01*
X-1063Y-132552D01*
X-1221Y-132505D01*
X-1369Y-132459D01*
X-1526Y-132394D01*
X-1674Y-132320D01*
X-1813Y-132237D01*
X-1942Y-132135D01*
X-1951Y-132126D01*
X-1970Y-132108D01*
X-2007Y-132080D01*
X-2044Y-132034D01*
X-2099Y-131969D01*
X-2155Y-131895D01*
X-2220Y-131812D01*
X-2284Y-131719D01*
X-2349Y-131608D01*
X-2414Y-131488D01*
X-2479Y-131349D01*
X-2543Y-131201D01*
X-2590Y-131044D01*
X-2645Y-130868D01*
X-2682Y-130683D01*
X-2710Y-130489D01*
X-1452Y-130369D01*
Y-130378D01*
X-1443Y-130396D01*
Y-130433D01*
X-1433Y-130470D01*
X-1396Y-130581D01*
X-1350Y-130720D01*
X-1295Y-130877D01*
X-1211Y-131035D01*
X-1119Y-131173D01*
X-999Y-131303D01*
X-980Y-131312D01*
X-934Y-131349D01*
X-860Y-131395D01*
X-749Y-131451D01*
X-610Y-131506D01*
X-453Y-131553D01*
X-268Y-131590D01*
X-55Y-131599D01*
X47D01*
X158Y-131580D01*
X296Y-131562D01*
X444Y-131534D01*
X602Y-131488D01*
X750Y-131423D01*
X879Y-131340D01*
X898Y-131331D01*
X935Y-131294D01*
X981Y-131238D01*
X1046Y-131164D01*
X1101Y-131072D01*
X1157Y-130961D01*
X1194Y-130850D01*
X1203Y-130720D01*
Y-130711D01*
Y-130683D01*
X1194Y-130637D01*
X1184Y-130581D01*
X1166Y-130526D01*
X1147Y-130461D01*
X1110Y-130396D01*
X1064Y-130332D01*
X1055Y-130322D01*
X1036Y-130304D01*
X1009Y-130276D01*
X962Y-130239D01*
X898Y-130193D01*
X814Y-130147D01*
X722Y-130100D01*
X602Y-130054D01*
X592D01*
X555Y-130036D01*
X491Y-130017D01*
X444Y-129999D01*
X389Y-129989D01*
X324Y-129971D01*
X250Y-129943D01*
X167Y-129925D01*
X74Y-129897D01*
X-37Y-129869D01*
X-157Y-129841D01*
X-286Y-129804D01*
X-434Y-129767D01*
X-444D01*
X-481Y-129758D01*
X-536Y-129740D01*
X-601Y-129721D01*
X-684Y-129693D01*
X-786Y-129666D01*
X-888Y-129629D01*
X-1008Y-129592D01*
X-1248Y-129499D01*
X-1480Y-129388D01*
X-1600Y-129333D01*
X-1702Y-129268D01*
X-1803Y-129203D01*
X-1887Y-129138D01*
X-1896Y-129129D01*
X-1914Y-129111D01*
X-1942Y-129083D01*
X-1979Y-129046D01*
X-2025Y-128990D01*
X-2072Y-128926D01*
X-2127Y-128861D01*
X-2173Y-128778D01*
X-2284Y-128583D01*
X-2377Y-128361D01*
X-2414Y-128241D01*
X-2442Y-128121D01*
X-2460Y-127982D01*
X-2469Y-127843D01*
Y-127834D01*
Y-127825D01*
Y-127797D01*
Y-127760D01*
X-2451Y-127668D01*
X-2432Y-127547D01*
X-2405Y-127409D01*
X-2358Y-127251D01*
X-2294Y-127085D01*
X-2201Y-126928D01*
Y-126918D01*
X-2192Y-126909D01*
X-2146Y-126854D01*
X-2090Y-126780D01*
X-1998Y-126687D01*
X-1887Y-126585D01*
X-1748Y-126474D01*
X-1591Y-126373D01*
X-1406Y-126280D01*
X-1396D01*
X-1378Y-126271D01*
X-1350Y-126262D01*
X-1313Y-126243D01*
X-1258Y-126225D01*
X-1202Y-126206D01*
X-1128Y-126188D01*
X-1045Y-126160D01*
X-860Y-126123D01*
X-647Y-126086D01*
X-407Y-126058D01*
X-138Y-126049D01*
X-27D01*
X56Y-126058D01*
D02*
G37*
G36*
X58016Y-128667D02*
X60560Y-132570D01*
X58886D01*
X57119Y-129564D01*
X56074Y-130637D01*
Y-132570D01*
X54779D01*
Y-126169D01*
X56074D01*
Y-129018D01*
X58701Y-126169D01*
X60440D01*
X58016Y-128667D01*
D02*
G37*
G36*
X41043Y-132570D02*
X39849D01*
X39840Y-127538D01*
X38582Y-132570D01*
X37333D01*
X36075Y-127538D01*
Y-132570D01*
X34882D01*
Y-126169D01*
X36815D01*
X37962Y-130544D01*
X39100Y-126169D01*
X41043D01*
Y-132570D01*
D02*
G37*
G36*
X78607Y-126178D02*
X78847D01*
X79106Y-126197D01*
X79365Y-126215D01*
X79476Y-126225D01*
X79587Y-126234D01*
X79680Y-126252D01*
X79754Y-126271D01*
X79763D01*
X79782Y-126280D01*
X79809Y-126289D01*
X79846Y-126299D01*
X79948Y-126345D01*
X80078Y-126400D01*
X80216Y-126484D01*
X80374Y-126595D01*
X80522Y-126733D01*
X80670Y-126900D01*
Y-126909D01*
X80688Y-126918D01*
X80707Y-126946D01*
X80725Y-126983D01*
X80762Y-127039D01*
X80790Y-127094D01*
X80827Y-127159D01*
X80864Y-127233D01*
X80929Y-127418D01*
X80993Y-127621D01*
X81030Y-127871D01*
X81049Y-128139D01*
Y-128149D01*
Y-128167D01*
Y-128195D01*
Y-128241D01*
X81040Y-128287D01*
Y-128352D01*
X81021Y-128482D01*
X80993Y-128639D01*
X80956Y-128815D01*
X80901Y-128981D01*
X80827Y-129138D01*
X80818Y-129157D01*
X80790Y-129203D01*
X80744Y-129277D01*
X80679Y-129370D01*
X80605Y-129462D01*
X80503Y-129573D01*
X80401Y-129675D01*
X80281Y-129767D01*
X80263Y-129777D01*
X80226Y-129804D01*
X80161Y-129841D01*
X80078Y-129888D01*
X79976Y-129943D01*
X79865Y-129989D01*
X79745Y-130036D01*
X79615Y-130073D01*
X79597D01*
X79569Y-130082D01*
X79532D01*
X79486Y-130091D01*
X79421Y-130100D01*
X79356Y-130110D01*
X79273D01*
X79190Y-130119D01*
X79088Y-130128D01*
X78977Y-130137D01*
X78857Y-130147D01*
X78727D01*
X78588Y-130156D01*
X77441D01*
Y-132570D01*
X76146D01*
Y-126169D01*
X78505D01*
X78607Y-126178D01*
D02*
G37*
G36*
X68349Y-127251D02*
X66462D01*
Y-132570D01*
X65167D01*
Y-127251D01*
X63270D01*
Y-126169D01*
X68349D01*
Y-127251D01*
D02*
G37*
G36*
X48119Y-132570D02*
X46722D01*
X46167Y-131118D01*
X43596D01*
X43068Y-132570D01*
X41699D01*
X44178Y-126169D01*
X45547D01*
X48119Y-132570D01*
D02*
G37*
G36*
X31413Y-126178D02*
X31515D01*
X31617Y-126188D01*
X31737D01*
X31978Y-126215D01*
X32227Y-126243D01*
X32459Y-126289D01*
X32560Y-126317D01*
X32653Y-126345D01*
X32662D01*
X32671Y-126354D01*
X32727Y-126382D01*
X32810Y-126428D01*
X32921Y-126484D01*
X33041Y-126576D01*
X33162Y-126678D01*
X33282Y-126807D01*
X33393Y-126965D01*
Y-126974D01*
X33402Y-126983D01*
X33421Y-127011D01*
X33439Y-127039D01*
X33485Y-127131D01*
X33541Y-127251D01*
X33587Y-127399D01*
X33633Y-127566D01*
X33670Y-127760D01*
X33680Y-127964D01*
Y-127973D01*
Y-127991D01*
Y-128038D01*
X33670Y-128084D01*
Y-128149D01*
X33661Y-128213D01*
X33624Y-128380D01*
X33578Y-128574D01*
X33504Y-128768D01*
X33393Y-128972D01*
X33328Y-129064D01*
X33254Y-129157D01*
X33245Y-129166D01*
X33236Y-129175D01*
X33208Y-129203D01*
X33171Y-129231D01*
X33134Y-129268D01*
X33078Y-129314D01*
X33014Y-129360D01*
X32940Y-129407D01*
X32856Y-129462D01*
X32755Y-129508D01*
X32653Y-129555D01*
X32542Y-129601D01*
X32412Y-129647D01*
X32283Y-129684D01*
X32144Y-129721D01*
X31987Y-129749D01*
X31996D01*
X32005Y-129758D01*
X32061Y-129795D01*
X32135Y-129841D01*
X32227Y-129906D01*
X32338Y-129989D01*
X32449Y-130073D01*
X32570Y-130174D01*
X32671Y-130285D01*
X32681Y-130295D01*
X32727Y-130341D01*
X32782Y-130415D01*
X32866Y-130526D01*
X32977Y-130665D01*
X33032Y-130757D01*
X33097Y-130850D01*
X33171Y-130951D01*
X33245Y-131062D01*
X33328Y-131192D01*
X33411Y-131321D01*
X34198Y-132570D01*
X32644D01*
X31719Y-131183D01*
X31709Y-131173D01*
X31700Y-131146D01*
X31672Y-131109D01*
X31635Y-131062D01*
X31598Y-131007D01*
X31552Y-130933D01*
X31450Y-130785D01*
X31330Y-130618D01*
X31219Y-130470D01*
X31117Y-130332D01*
X31071Y-130285D01*
X31034Y-130239D01*
X31025Y-130230D01*
X31006Y-130211D01*
X30969Y-130174D01*
X30923Y-130128D01*
X30858Y-130091D01*
X30794Y-130045D01*
X30720Y-130008D01*
X30646Y-129971D01*
X30636D01*
X30609Y-129962D01*
X30562Y-129943D01*
X30488Y-129934D01*
X30396Y-129915D01*
X30285Y-129906D01*
X30155Y-129897D01*
X29739D01*
Y-132570D01*
X28444D01*
Y-126169D01*
X31330D01*
X31413Y-126178D01*
D02*
G37*
G36*
X27223Y-127251D02*
X23773Y-127251D01*
Y-128667D01*
X26983Y-128667D01*
Y-129749D01*
X23773Y-129749D01*
Y-131488D01*
X27343Y-131488D01*
Y-132570D01*
X22478Y-132570D01*
Y-126169D01*
X27223Y-126169D01*
Y-127251D01*
D02*
G37*
G36*
X18648Y-126178D02*
X18824Y-126188D01*
X19018Y-126197D01*
X19222Y-126225D01*
X19416Y-126252D01*
X19592Y-126299D01*
X19601D01*
X19620Y-126308D01*
X19647Y-126317D01*
X19684Y-126326D01*
X19795Y-126373D01*
X19925Y-126437D01*
X20073Y-126521D01*
X20239Y-126622D01*
X20397Y-126743D01*
X20554Y-126891D01*
X20563D01*
X20572Y-126909D01*
X20619Y-126965D01*
X20693Y-127057D01*
X20776Y-127177D01*
X20878Y-127325D01*
X20979Y-127501D01*
X21081Y-127705D01*
X21164Y-127927D01*
Y-127936D01*
X21174Y-127954D01*
X21183Y-127991D01*
X21201Y-128038D01*
X21211Y-128093D01*
X21229Y-128167D01*
X21248Y-128250D01*
X21275Y-128343D01*
X21294Y-128445D01*
X21312Y-128565D01*
X21331Y-128685D01*
X21340Y-128824D01*
X21368Y-129111D01*
X21377Y-129434D01*
Y-129444D01*
Y-129471D01*
Y-129508D01*
Y-129564D01*
X21368Y-129638D01*
Y-129712D01*
X21359Y-129804D01*
X21349Y-129906D01*
X21331Y-130119D01*
X21294Y-130341D01*
X21238Y-130572D01*
X21174Y-130794D01*
Y-130803D01*
X21164Y-130822D01*
X21146Y-130859D01*
X21127Y-130914D01*
X21109Y-130970D01*
X21072Y-131035D01*
X20998Y-131201D01*
X20905Y-131377D01*
X20785Y-131571D01*
X20646Y-131756D01*
X20489Y-131932D01*
X20471Y-131950D01*
X20424Y-131987D01*
X20350Y-132043D01*
X20249Y-132117D01*
X20119Y-132200D01*
X19971Y-132283D01*
X19786Y-132367D01*
X19583Y-132441D01*
X19573D01*
X19564Y-132450D01*
X19536D01*
X19509Y-132459D01*
X19407Y-132478D01*
X19277Y-132505D01*
X19120Y-132533D01*
X18926Y-132552D01*
X18695Y-132561D01*
X18445Y-132570D01*
X16021D01*
Y-126169D01*
X18574D01*
X18648Y-126178D01*
D02*
G37*
G36*
X11877Y-131488D02*
X15096D01*
Y-132570D01*
X10582D01*
Y-126215D01*
X11877D01*
Y-131488D01*
D02*
G37*
G36*
X72150Y-126058D02*
X72243D01*
X72363Y-126077D01*
X72502Y-126095D01*
X72659Y-126123D01*
X72826Y-126160D01*
X73001Y-126206D01*
X73186Y-126262D01*
X73371Y-126336D01*
X73566Y-126419D01*
X73751Y-126521D01*
X73936Y-126641D01*
X74111Y-126780D01*
X74278Y-126937D01*
X74287Y-126946D01*
X74315Y-126974D01*
X74361Y-127029D01*
X74407Y-127094D01*
X74472Y-127187D01*
X74546Y-127298D01*
X74620Y-127427D01*
X74703Y-127575D01*
X74787Y-127732D01*
X74861Y-127917D01*
X74935Y-128121D01*
X74999Y-128334D01*
X75055Y-128574D01*
X75092Y-128824D01*
X75120Y-129092D01*
X75129Y-129379D01*
Y-129397D01*
Y-129444D01*
X75120Y-129527D01*
Y-129638D01*
X75101Y-129767D01*
X75083Y-129915D01*
X75055Y-130091D01*
X75027Y-130267D01*
X74981Y-130461D01*
X74925Y-130665D01*
X74851Y-130868D01*
X74768Y-131072D01*
X74676Y-131266D01*
X74555Y-131460D01*
X74426Y-131645D01*
X74278Y-131821D01*
X74269Y-131830D01*
X74241Y-131858D01*
X74195Y-131904D01*
X74121Y-131960D01*
X74037Y-132024D01*
X73936Y-132098D01*
X73815Y-132172D01*
X73686Y-132256D01*
X73529Y-132339D01*
X73362Y-132413D01*
X73177Y-132487D01*
X72974Y-132552D01*
X72761Y-132607D01*
X72530Y-132653D01*
X72289Y-132681D01*
X72030Y-132690D01*
X71965D01*
X71891Y-132681D01*
X71799Y-132672D01*
X71679Y-132663D01*
X71540Y-132644D01*
X71383Y-132616D01*
X71216Y-132579D01*
X71031Y-132533D01*
X70855Y-132478D01*
X70661Y-132404D01*
X70476Y-132320D01*
X70282Y-132228D01*
X70106Y-132108D01*
X69930Y-131978D01*
X69764Y-131821D01*
X69755Y-131812D01*
X69727Y-131784D01*
X69690Y-131728D01*
X69634Y-131664D01*
X69570Y-131571D01*
X69496Y-131460D01*
X69422Y-131340D01*
X69348Y-131192D01*
X69264Y-131035D01*
X69190Y-130850D01*
X69116Y-130655D01*
X69052Y-130443D01*
X68996Y-130211D01*
X68959Y-129962D01*
X68931Y-129693D01*
X68922Y-129416D01*
Y-129407D01*
Y-129370D01*
Y-129323D01*
X68931Y-129249D01*
Y-129166D01*
X68941Y-129074D01*
X68950Y-128963D01*
X68959Y-128842D01*
X68996Y-128583D01*
X69042Y-128306D01*
X69116Y-128028D01*
X69209Y-127769D01*
Y-127760D01*
X69218Y-127751D01*
X69237Y-127723D01*
X69246Y-127686D01*
X69301Y-127594D01*
X69366Y-127473D01*
X69449Y-127335D01*
X69551Y-127196D01*
X69671Y-127039D01*
X69801Y-126891D01*
X69810Y-126881D01*
X69819Y-126872D01*
X69866Y-126826D01*
X69949Y-126752D01*
X70051Y-126669D01*
X70171Y-126576D01*
X70310Y-126474D01*
X70467Y-126382D01*
X70633Y-126308D01*
X70643D01*
X70661Y-126299D01*
X70698Y-126280D01*
X70744Y-126271D01*
X70800Y-126243D01*
X70865Y-126225D01*
X70948Y-126206D01*
X71031Y-126178D01*
X71235Y-126132D01*
X71466Y-126086D01*
X71734Y-126058D01*
X72012Y-126049D01*
X72076D01*
X72150Y-126058D01*
D02*
G37*
G36*
X6559Y-126058D02*
X6651D01*
X6771Y-126077D01*
X6910Y-126095D01*
X7067Y-126123D01*
X7234Y-126160D01*
X7410Y-126206D01*
X7595Y-126262D01*
X7780Y-126336D01*
X7974Y-126419D01*
X8159Y-126521D01*
X8344Y-126641D01*
X8520Y-126780D01*
X8686Y-126937D01*
X8695Y-126946D01*
X8723Y-126974D01*
X8769Y-127029D01*
X8816Y-127094D01*
X8880Y-127187D01*
X8954Y-127298D01*
X9028Y-127427D01*
X9112Y-127575D01*
X9195Y-127732D01*
X9269Y-127917D01*
X9343Y-128121D01*
X9408Y-128334D01*
X9463Y-128574D01*
X9500Y-128824D01*
X9528Y-129092D01*
X9537Y-129379D01*
Y-129397D01*
Y-129444D01*
X9528Y-129527D01*
Y-129638D01*
X9509Y-129767D01*
X9491Y-129915D01*
X9463Y-130091D01*
X9435Y-130267D01*
X9389Y-130461D01*
X9334Y-130665D01*
X9260Y-130868D01*
X9176Y-131072D01*
X9084Y-131266D01*
X8964Y-131460D01*
X8834Y-131645D01*
X8686Y-131821D01*
X8677Y-131830D01*
X8649Y-131858D01*
X8603Y-131904D01*
X8529Y-131960D01*
X8446Y-132024D01*
X8344Y-132098D01*
X8224Y-132172D01*
X8094Y-132256D01*
X7937Y-132339D01*
X7770Y-132413D01*
X7585Y-132487D01*
X7382Y-132552D01*
X7169Y-132607D01*
X6938Y-132653D01*
X6697Y-132681D01*
X6438Y-132690D01*
X6374D01*
X6300Y-132681D01*
X6207Y-132672D01*
X6087Y-132663D01*
X5948Y-132644D01*
X5791Y-132616D01*
X5624Y-132579D01*
X5439Y-132533D01*
X5264Y-132478D01*
X5069Y-132404D01*
X4884Y-132320D01*
X4690Y-132228D01*
X4514Y-132108D01*
X4339Y-131978D01*
X4172Y-131821D01*
X4163Y-131812D01*
X4135Y-131784D01*
X4098Y-131728D01*
X4043Y-131664D01*
X3978Y-131571D01*
X3904Y-131460D01*
X3830Y-131340D01*
X3756Y-131192D01*
X3673Y-131035D01*
X3599Y-130850D01*
X3525Y-130655D01*
X3460Y-130443D01*
X3404Y-130211D01*
X3367Y-129962D01*
X3340Y-129693D01*
X3330Y-129416D01*
Y-129407D01*
Y-129370D01*
Y-129323D01*
X3340Y-129249D01*
Y-129166D01*
X3349Y-129074D01*
X3358Y-128963D01*
X3367Y-128842D01*
X3404Y-128583D01*
X3451Y-128306D01*
X3525Y-128028D01*
X3617Y-127769D01*
Y-127760D01*
X3626Y-127751D01*
X3645Y-127723D01*
X3654Y-127686D01*
X3710Y-127594D01*
X3774Y-127473D01*
X3858Y-127335D01*
X3959Y-127196D01*
X4080Y-127039D01*
X4209Y-126891D01*
X4218Y-126881D01*
X4228Y-126872D01*
X4274Y-126826D01*
X4357Y-126752D01*
X4459Y-126669D01*
X4579Y-126576D01*
X4718Y-126474D01*
X4875Y-126382D01*
X5042Y-126308D01*
X5051D01*
X5069Y-126299D01*
X5106Y-126280D01*
X5153Y-126271D01*
X5208Y-126243D01*
X5273Y-126225D01*
X5356Y-126206D01*
X5439Y-126178D01*
X5643Y-126132D01*
X5874Y-126086D01*
X6142Y-126058D01*
X6420Y-126049D01*
X6485D01*
X6559Y-126058D01*
D02*
G37*
%LPC*%
G36*
X78403Y-127251D02*
X77441D01*
Y-129074D01*
X78329D01*
X78394Y-129064D01*
X78561D01*
X78727Y-129055D01*
X78894Y-129037D01*
X79042Y-129009D01*
X79106Y-129000D01*
X79162Y-128981D01*
X79171Y-128972D01*
X79208Y-128963D01*
X79254Y-128935D01*
X79310Y-128907D01*
X79375Y-128861D01*
X79439Y-128805D01*
X79513Y-128741D01*
X79569Y-128667D01*
X79578Y-128657D01*
X79597Y-128630D01*
X79615Y-128583D01*
X79643Y-128519D01*
X79671Y-128445D01*
X79698Y-128361D01*
X79708Y-128269D01*
X79717Y-128167D01*
Y-128149D01*
Y-128112D01*
X79708Y-128047D01*
X79689Y-127964D01*
X79661Y-127871D01*
X79624Y-127769D01*
X79578Y-127677D01*
X79504Y-127584D01*
X79495Y-127575D01*
X79467Y-127547D01*
X79421Y-127510D01*
X79365Y-127464D01*
X79291Y-127409D01*
X79199Y-127362D01*
X79097Y-127325D01*
X78986Y-127298D01*
X78977D01*
X78940Y-127288D01*
X78875Y-127279D01*
X78783Y-127270D01*
X78662D01*
X78579Y-127261D01*
X78496D01*
X78403Y-127251D01*
D02*
G37*
G36*
X44854Y-127658D02*
X43984Y-130036D01*
X45751D01*
X44854Y-127658D01*
D02*
G37*
G36*
X31219Y-127251D02*
X29739D01*
Y-128879D01*
X30997D01*
X31182Y-128870D01*
X31376Y-128861D01*
X31571Y-128852D01*
X31654Y-128842D01*
X31728Y-128833D01*
X31802Y-128815D01*
X31848Y-128805D01*
X31857D01*
X31885Y-128787D01*
X31931Y-128768D01*
X31978Y-128741D01*
X32098Y-128657D01*
X32153Y-128602D01*
X32209Y-128537D01*
X32218Y-128528D01*
X32227Y-128500D01*
X32255Y-128463D01*
X32283Y-128408D01*
X32301Y-128334D01*
X32329Y-128250D01*
X32338Y-128158D01*
X32348Y-128056D01*
Y-128038D01*
Y-128001D01*
X32338Y-127945D01*
X32329Y-127871D01*
X32301Y-127788D01*
X32274Y-127705D01*
X32227Y-127612D01*
X32172Y-127538D01*
X32163Y-127529D01*
X32144Y-127501D01*
X32098Y-127473D01*
X32042Y-127427D01*
X31978Y-127381D01*
X31894Y-127344D01*
X31793Y-127307D01*
X31682Y-127279D01*
X31672D01*
X31645Y-127270D01*
X31589D01*
X31506Y-127261D01*
X31302D01*
X31219Y-127251D01*
D02*
G37*
G36*
X18158Y-127251D02*
X17316D01*
Y-131488D01*
X18454D01*
X18574Y-131479D01*
X18704D01*
X18833Y-131460D01*
X18954Y-131451D01*
X19055Y-131432D01*
X19074D01*
X19111Y-131414D01*
X19166Y-131395D01*
X19240Y-131368D01*
X19324Y-131331D01*
X19407Y-131284D01*
X19490Y-131229D01*
X19573Y-131164D01*
X19583Y-131155D01*
X19610Y-131127D01*
X19647Y-131081D01*
X19694Y-131016D01*
X19740Y-130933D01*
X19805Y-130831D01*
X19851Y-130702D01*
X19906Y-130554D01*
Y-130544D01*
X19916Y-130535D01*
Y-130507D01*
X19925Y-130470D01*
X19943Y-130433D01*
X19953Y-130378D01*
X19980Y-130239D01*
X19999Y-130073D01*
X20027Y-129878D01*
X20036Y-129638D01*
X20045Y-129379D01*
Y-129370D01*
Y-129342D01*
Y-129305D01*
Y-129259D01*
Y-129194D01*
X20036Y-129120D01*
X20027Y-128963D01*
X20008Y-128778D01*
X19990Y-128583D01*
X19953Y-128408D01*
X19906Y-128241D01*
Y-128232D01*
X19897Y-128223D01*
X19879Y-128176D01*
X19851Y-128102D01*
X19814Y-128010D01*
X19758Y-127917D01*
X19694Y-127816D01*
X19620Y-127714D01*
X19536Y-127621D01*
X19527Y-127612D01*
X19499Y-127584D01*
X19444Y-127547D01*
X19379Y-127501D01*
X19287Y-127446D01*
X19185Y-127399D01*
X19074Y-127353D01*
X18944Y-127316D01*
X18935D01*
X18889Y-127307D01*
X18815Y-127298D01*
X18713Y-127279D01*
X18648D01*
X18565Y-127270D01*
X18482D01*
X18389Y-127261D01*
X18278D01*
X18158Y-127251D01*
D02*
G37*
G36*
X72030Y-127150D02*
X71956D01*
X71901Y-127159D01*
X71827Y-127168D01*
X71753Y-127177D01*
X71568Y-127214D01*
X71364Y-127288D01*
X71253Y-127325D01*
X71142Y-127381D01*
X71040Y-127446D01*
X70929Y-127520D01*
X70828Y-127603D01*
X70735Y-127705D01*
X70726Y-127714D01*
X70717Y-127732D01*
X70689Y-127760D01*
X70661Y-127806D01*
X70624Y-127871D01*
X70587Y-127936D01*
X70541Y-128019D01*
X70495Y-128121D01*
X70448Y-128232D01*
X70402Y-128352D01*
X70365Y-128491D01*
X70328Y-128639D01*
X70300Y-128805D01*
X70273Y-128981D01*
X70263Y-129166D01*
X70254Y-129370D01*
Y-129379D01*
Y-129416D01*
Y-129471D01*
X70263Y-129545D01*
X70273Y-129638D01*
X70282Y-129749D01*
X70300Y-129860D01*
X70319Y-129989D01*
X70374Y-130258D01*
X70467Y-130526D01*
X70522Y-130665D01*
X70587Y-130794D01*
X70670Y-130914D01*
X70754Y-131025D01*
X70763Y-131035D01*
X70781Y-131053D01*
X70809Y-131081D01*
X70846Y-131109D01*
X70892Y-131155D01*
X70957Y-131201D01*
X71022Y-131257D01*
X71105Y-131303D01*
X71281Y-131414D01*
X71503Y-131497D01*
X71623Y-131534D01*
X71753Y-131562D01*
X71891Y-131580D01*
X72030Y-131590D01*
X72104D01*
X72160Y-131580D01*
X72224Y-131571D01*
X72298Y-131562D01*
X72474Y-131516D01*
X72678Y-131451D01*
X72779Y-131405D01*
X72890Y-131358D01*
X72992Y-131294D01*
X73103Y-131220D01*
X73205Y-131136D01*
X73297Y-131035D01*
X73307Y-131025D01*
X73316Y-131007D01*
X73344Y-130979D01*
X73371Y-130933D01*
X73418Y-130868D01*
X73455Y-130794D01*
X73501Y-130711D01*
X73547Y-130609D01*
X73593Y-130498D01*
X73640Y-130378D01*
X73686Y-130239D01*
X73723Y-130082D01*
X73751Y-129925D01*
X73778Y-129749D01*
X73788Y-129555D01*
X73797Y-129351D01*
Y-129342D01*
Y-129305D01*
Y-129249D01*
X73788Y-129166D01*
X73778Y-129074D01*
X73769Y-128972D01*
X73760Y-128852D01*
X73732Y-128731D01*
X73677Y-128463D01*
X73593Y-128186D01*
X73538Y-128047D01*
X73473Y-127927D01*
X73390Y-127806D01*
X73307Y-127695D01*
X73297Y-127686D01*
X73288Y-127668D01*
X73260Y-127649D01*
X73223Y-127612D01*
X73168Y-127566D01*
X73112Y-127520D01*
X73048Y-127473D01*
X72964Y-127418D01*
X72881Y-127372D01*
X72779Y-127325D01*
X72567Y-127233D01*
X72446Y-127196D01*
X72317Y-127177D01*
X72178Y-127159D01*
X72030Y-127150D01*
D02*
G37*
G36*
X6438Y-127150D02*
X6364D01*
X6309Y-127159D01*
X6235Y-127168D01*
X6161Y-127177D01*
X5976Y-127214D01*
X5772Y-127288D01*
X5661Y-127325D01*
X5550Y-127381D01*
X5449Y-127446D01*
X5338Y-127520D01*
X5236Y-127603D01*
X5143Y-127705D01*
X5134Y-127714D01*
X5125Y-127732D01*
X5097Y-127760D01*
X5069Y-127806D01*
X5032Y-127871D01*
X4995Y-127936D01*
X4949Y-128019D01*
X4903Y-128121D01*
X4857Y-128232D01*
X4810Y-128352D01*
X4773Y-128491D01*
X4736Y-128639D01*
X4709Y-128805D01*
X4681Y-128981D01*
X4672Y-129166D01*
X4662Y-129370D01*
Y-129379D01*
Y-129416D01*
Y-129471D01*
X4672Y-129545D01*
X4681Y-129638D01*
X4690Y-129749D01*
X4709Y-129860D01*
X4727Y-129989D01*
X4783Y-130258D01*
X4875Y-130526D01*
X4931Y-130665D01*
X4995Y-130794D01*
X5079Y-130914D01*
X5162Y-131025D01*
X5171Y-131035D01*
X5190Y-131053D01*
X5217Y-131081D01*
X5254Y-131109D01*
X5301Y-131155D01*
X5365Y-131201D01*
X5430Y-131257D01*
X5513Y-131303D01*
X5689Y-131414D01*
X5911Y-131497D01*
X6031Y-131534D01*
X6161Y-131562D01*
X6300Y-131580D01*
X6438Y-131590D01*
X6512D01*
X6568Y-131580D01*
X6633Y-131571D01*
X6707Y-131562D01*
X6882Y-131516D01*
X7086Y-131451D01*
X7188Y-131405D01*
X7299Y-131358D01*
X7400Y-131294D01*
X7511Y-131220D01*
X7613Y-131136D01*
X7706Y-131035D01*
X7715Y-131025D01*
X7724Y-131007D01*
X7752Y-130979D01*
X7780Y-130933D01*
X7826Y-130868D01*
X7863Y-130794D01*
X7909Y-130711D01*
X7955Y-130609D01*
X8002Y-130498D01*
X8048Y-130378D01*
X8094Y-130239D01*
X8131Y-130082D01*
X8159Y-129925D01*
X8187Y-129749D01*
X8196Y-129555D01*
X8205Y-129351D01*
Y-129342D01*
Y-129305D01*
Y-129249D01*
X8196Y-129166D01*
X8187Y-129074D01*
X8177Y-128972D01*
X8168Y-128852D01*
X8140Y-128731D01*
X8085Y-128463D01*
X8002Y-128186D01*
X7946Y-128047D01*
X7881Y-127927D01*
X7798Y-127806D01*
X7715Y-127695D01*
X7706Y-127686D01*
X7696Y-127668D01*
X7669Y-127649D01*
X7632Y-127612D01*
X7576Y-127566D01*
X7521Y-127520D01*
X7456Y-127473D01*
X7373Y-127418D01*
X7289Y-127372D01*
X7188Y-127325D01*
X6975Y-127233D01*
X6855Y-127196D01*
X6725Y-127177D01*
X6586Y-127159D01*
X6438Y-127150D01*
D02*
G37*
%LPD*%
D32*
X311Y68189D02*
D03*
X1689D02*
D03*
X311Y66811D02*
D03*
X1689D02*
D03*
D46*
X-14713Y65788D02*
D03*
Y64213D02*
D03*
X-16288Y65788D02*
D03*
Y64213D02*
D03*
D49*
X49000Y-13228D02*
D03*
Y-16771D02*
D03*
X55000Y-4772D02*
D03*
Y-1229D02*
D03*
X51000Y-1228D02*
D03*
Y-4771D02*
D03*
X16500Y14228D02*
D03*
Y17772D02*
D03*
X6151Y17703D02*
D03*
Y14160D02*
D03*
X3001Y41729D02*
D03*
Y45272D02*
D03*
D50*
X114273Y52001D02*
D03*
X108958D02*
D03*
X114179Y32517D02*
D03*
X108864D02*
D03*
X108895Y39001D02*
D03*
X114210D02*
D03*
X108864Y45501D02*
D03*
X114179Y45501D02*
D03*
D51*
X68000Y69000D02*
D03*
Y85000D02*
D03*
X73000Y69000D02*
D03*
Y85000D02*
D03*
X78000Y69000D02*
D03*
Y85000D02*
D03*
X83000Y69000D02*
D03*
Y85000D02*
D03*
X88000Y69000D02*
D03*
Y85000D02*
D03*
D52*
X-37000Y0D02*
D03*
X-21000D02*
D03*
X-37000Y-5000D02*
D03*
X-21000D02*
D03*
X-37000Y-10000D02*
D03*
X-21000D02*
D03*
X-37000Y-15000D02*
D03*
X-21000D02*
D03*
X-37000Y-20000D02*
D03*
X-21000D02*
D03*
D53*
X40886Y-16000D02*
D03*
X34114D02*
D03*
D54*
X46468Y-9799D02*
D03*
X44500D02*
D03*
X42531D02*
D03*
Y-3201D02*
D03*
X44500D02*
D03*
X46468D02*
D03*
D55*
X35500Y-9800D02*
D03*
Y-4200D02*
D03*
D56*
X40200Y1500D02*
D03*
X45800D02*
D03*
D57*
X58500Y66807D02*
D03*
Y70193D02*
D03*
X-3000Y68693D02*
D03*
Y65307D02*
D03*
X5000Y68693D02*
D03*
Y65307D02*
D03*
X-9700Y59693D02*
D03*
Y56307D02*
D03*
X9000Y57307D02*
D03*
Y60693D02*
D03*
X-6175Y35307D02*
D03*
Y38693D02*
D03*
X-9729Y35307D02*
D03*
Y38693D02*
D03*
D58*
X61149Y9834D02*
D03*
Y14165D02*
D03*
X54850D02*
D03*
Y9834D02*
D03*
D59*
X58984D02*
D03*
X57015Y14165D02*
D03*
X58984D02*
D03*
X57015Y9834D02*
D03*
D60*
X42465Y15839D02*
D03*
Y13280D02*
D03*
Y10721D02*
D03*
Y8161D02*
D03*
X25535D02*
D03*
Y10721D02*
D03*
Y13280D02*
D03*
Y15839D02*
D03*
D61*
X10161Y73000D02*
D03*
X12130D02*
D03*
X14098D02*
D03*
X16067D02*
D03*
X18035D02*
D03*
X20004D02*
D03*
X21972D02*
D03*
X23941D02*
D03*
X25909D02*
D03*
X27878D02*
D03*
X29847D02*
D03*
X31815D02*
D03*
X33784D02*
D03*
X35752D02*
D03*
X37721D02*
D03*
X39689D02*
D03*
X41658D02*
D03*
X43626D02*
D03*
X45594D02*
D03*
X47563D02*
D03*
X49531D02*
D03*
X51500D02*
D03*
D62*
X1205Y80480D02*
D03*
X60457D02*
D03*
D63*
X84000Y-40500D02*
D03*
X-41000Y-39500D02*
D03*
X-39500Y83500D02*
D03*
D64*
X4134Y57032D02*
D03*
Y60969D02*
D03*
X-4134D02*
D03*
Y59000D02*
D03*
Y57032D02*
D03*
X4134Y59000D02*
D03*
D65*
X0D02*
D03*
D66*
X50693Y20000D02*
D03*
X47307D02*
D03*
X-3451Y18734D02*
D03*
X-6837D02*
D03*
X-3451Y22288D02*
D03*
X-6837D02*
D03*
D67*
X-20521Y31831D02*
D03*
Y33799D02*
D03*
Y27894D02*
D03*
Y25925D02*
D03*
Y29862D02*
D03*
Y39705D02*
D03*
Y37736D02*
D03*
Y35768D02*
D03*
Y21988D02*
D03*
Y23957D02*
D03*
Y20020D02*
D03*
Y18051D02*
D03*
D68*
X-26820Y30846D02*
D03*
Y22972D02*
D03*
Y24941D02*
D03*
Y19035D02*
D03*
Y21004D02*
D03*
Y34783D02*
D03*
Y28878D02*
D03*
Y26909D02*
D03*
Y32815D02*
D03*
Y38720D02*
D03*
Y36752D02*
D03*
Y40689D02*
D03*
D69*
X-1063Y46144D02*
D03*
X-3032D02*
D03*
X-6968D02*
D03*
X-8937D02*
D03*
Y42856D02*
D03*
X-6968D02*
D03*
X-3032D02*
D03*
X-1063D02*
D03*
D70*
X-5000Y46144D02*
D03*
Y42856D02*
D03*
D71*
X-13919Y13621D02*
D03*
Y15589D02*
D03*
Y19526D02*
D03*
Y21495D02*
D03*
X-10631D02*
D03*
Y19526D02*
D03*
Y15589D02*
D03*
Y13621D02*
D03*
D72*
X-13919Y17558D02*
D03*
X-10631D02*
D03*
D73*
X-11554Y29240D02*
D03*
Y27665D02*
D03*
Y26091D02*
D03*
X-8995Y29240D02*
D03*
Y27665D02*
D03*
Y26091D02*
D03*
D74*
X111500Y-21669D02*
D03*
Y-5331D02*
D03*
Y22669D02*
D03*
Y6331D02*
D03*
D75*
X117504Y-19701D02*
D03*
Y-7299D02*
D03*
X105496D02*
D03*
Y-19701D02*
D03*
X117504Y8299D02*
D03*
Y20701D02*
D03*
X105496D02*
D03*
Y8299D02*
D03*
D76*
X68110Y33307D02*
D03*
Y45433D02*
D03*
X66535Y33307D02*
D03*
Y45433D02*
D03*
X64961Y33307D02*
D03*
Y45433D02*
D03*
X63386Y33307D02*
D03*
Y45433D02*
D03*
X61811Y33307D02*
D03*
Y45433D02*
D03*
X60236Y33307D02*
D03*
Y45433D02*
D03*
X58661Y33307D02*
D03*
Y45433D02*
D03*
X57087Y33307D02*
D03*
Y45433D02*
D03*
X55512Y33307D02*
D03*
Y45433D02*
D03*
X53937Y33307D02*
D03*
Y45433D02*
D03*
X52362Y33307D02*
D03*
Y45433D02*
D03*
X50787Y33307D02*
D03*
Y45433D02*
D03*
X49213Y33307D02*
D03*
Y45433D02*
D03*
X47638Y33307D02*
D03*
Y45433D02*
D03*
X46063Y33307D02*
D03*
Y45433D02*
D03*
X44488Y33307D02*
D03*
Y45433D02*
D03*
X42913Y33307D02*
D03*
Y45433D02*
D03*
X41339Y33307D02*
D03*
Y45433D02*
D03*
X39764Y33307D02*
D03*
Y45433D02*
D03*
X38189Y33307D02*
D03*
Y45433D02*
D03*
X36614Y33307D02*
D03*
Y45433D02*
D03*
X35039Y33307D02*
D03*
Y45433D02*
D03*
X33465Y33307D02*
D03*
Y45433D02*
D03*
X31890Y33307D02*
D03*
Y45433D02*
D03*
X30315Y33307D02*
D03*
Y45433D02*
D03*
X28740Y33307D02*
D03*
Y45433D02*
D03*
X27165Y33307D02*
D03*
Y45433D02*
D03*
X25591Y33307D02*
D03*
Y45433D02*
D03*
X24016Y33307D02*
D03*
Y45433D02*
D03*
X22441Y33307D02*
D03*
Y45433D02*
D03*
X50787Y-33307D02*
D03*
X49213D02*
D03*
X47638D02*
D03*
X46063D02*
D03*
X44488D02*
D03*
X68110Y-45433D02*
D03*
Y-33307D02*
D03*
X66535Y-45433D02*
D03*
Y-33307D02*
D03*
X64961Y-45433D02*
D03*
Y-33307D02*
D03*
X63386Y-45433D02*
D03*
Y-33307D02*
D03*
X61811Y-45433D02*
D03*
Y-33307D02*
D03*
X60236Y-45433D02*
D03*
Y-33307D02*
D03*
X58661Y-45433D02*
D03*
Y-33307D02*
D03*
X57087Y-45433D02*
D03*
Y-33307D02*
D03*
X55512Y-45433D02*
D03*
Y-33307D02*
D03*
X53937Y-45433D02*
D03*
Y-33307D02*
D03*
X52362Y-45433D02*
D03*
Y-33307D02*
D03*
X50787Y-45433D02*
D03*
X49213D02*
D03*
X47638D02*
D03*
X46063D02*
D03*
X44488D02*
D03*
X42913D02*
D03*
Y-33307D02*
D03*
X41339Y-45433D02*
D03*
Y-33307D02*
D03*
X39764Y-45433D02*
D03*
Y-33307D02*
D03*
X38189Y-45433D02*
D03*
Y-33307D02*
D03*
X36614Y-45433D02*
D03*
Y-33307D02*
D03*
X35039Y-45433D02*
D03*
Y-33307D02*
D03*
X33465Y-45433D02*
D03*
Y-33307D02*
D03*
X31890Y-45433D02*
D03*
Y-33307D02*
D03*
X30315Y-45433D02*
D03*
Y-33307D02*
D03*
X28740Y-45433D02*
D03*
Y-33307D02*
D03*
X27165Y-45433D02*
D03*
Y-33307D02*
D03*
X25591Y-45433D02*
D03*
Y-33307D02*
D03*
X24016Y-45433D02*
D03*
Y-33307D02*
D03*
X22441Y-45433D02*
D03*
Y-33307D02*
D03*
D77*
X2923Y25945D02*
D03*
Y22795D02*
D03*
Y24370D02*
D03*
Y27520D02*
D03*
Y32244D02*
D03*
Y29095D02*
D03*
Y30669D02*
D03*
Y36969D02*
D03*
Y33819D02*
D03*
Y35394D02*
D03*
X10954Y22795D02*
D03*
Y24370D02*
D03*
Y25945D02*
D03*
Y30669D02*
D03*
Y27520D02*
D03*
Y29095D02*
D03*
Y35394D02*
D03*
Y36969D02*
D03*
Y32244D02*
D03*
Y33819D02*
D03*
D78*
X6938Y29882D02*
D03*
D79*
X6151Y21929D02*
D03*
X7726D02*
D03*
Y37835D02*
D03*
X6151D02*
D03*
D80*
X-41500Y56532D02*
D03*
D81*
X-31500D02*
D03*
X-21500D02*
D03*
D82*
X-14111Y81202D02*
D03*
Y-36900D02*
D03*
X104000Y81202D02*
D03*
Y-36900D02*
D03*
D83*
X-31151Y43543D02*
D03*
D84*
X-43159Y46378D02*
D03*
Y12362D02*
D03*
D85*
X-30895Y15197D02*
D03*
D86*
X-41500Y70500D02*
D03*
D87*
X-31500D02*
D03*
D88*
X0Y0D02*
D03*
D89*
X5846Y-5846D02*
D03*
X-5846D02*
D03*
X0Y-8268D02*
D03*
X-5846Y5846D02*
D03*
X-8268Y0D02*
D03*
X0Y8268D02*
D03*
X5846Y5846D02*
D03*
X8268Y0D02*
D03*
M02*
