G04*
G04 #@! TF.GenerationSoftware,Altium Limited,Altium Designer,22.5.1 (42)*
G04*
G04 Layer_Physical_Order=2*
G04 Layer_Color=6740479*
%FSLAX25Y25*%
%MOIN*%
G70*
G04*
G04 #@! TF.SameCoordinates,7D5A9487-70C0-458F-A832-C6248EDC6538*
G04*
G04*
G04 #@! TF.FilePolarity,Positive*
G04*
G01*
G75*
%ADD103O,0.09055X0.04724*%
%ADD104O,0.04724X0.06496*%
%ADD106O,0.10236X0.05118*%
%ADD109C,0.05937*%
%ADD111C,0.01600*%
%ADD112C,0.02000*%
G36*
X115460Y94179D02*
X115979Y94111D01*
X116490Y93998D01*
X116989Y93840D01*
X117473Y93640D01*
X117937Y93398D01*
X118378Y93117D01*
X118794Y92798D01*
X119180Y92445D01*
X119533Y92059D01*
X119852Y91644D01*
X120133Y91202D01*
X120375Y90738D01*
X120575Y90254D01*
X120732Y89755D01*
X120846Y89244D01*
X120914Y88725D01*
X120937Y88202D01*
Y-45396D01*
X120914Y-45919D01*
X120846Y-46438D01*
X120732Y-46949D01*
X120575Y-47448D01*
X120375Y-47932D01*
X120133Y-48396D01*
X119852Y-48838D01*
X119533Y-49253D01*
X119180Y-49639D01*
X118794Y-49992D01*
X118378Y-50311D01*
X117937Y-50592D01*
X117473Y-50834D01*
X116989Y-51034D01*
X116490Y-51192D01*
X115979Y-51305D01*
X115460Y-51373D01*
X114937Y-51396D01*
X-42300D01*
X-42823Y-51373D01*
X-43342Y-51305D01*
X-43853Y-51192D01*
X-44352Y-51034D01*
X-44836Y-50834D01*
X-45300Y-50592D01*
X-45742Y-50311D01*
X-46157Y-49992D01*
X-46543Y-49639D01*
X-46896Y-49253D01*
X-47215Y-48838D01*
X-47496Y-48396D01*
X-47738Y-47932D01*
X-47938Y-47448D01*
X-48096Y-46949D01*
X-48209Y-46438D01*
X-48277Y-45919D01*
X-48300Y-45396D01*
Y88202D01*
X-48277Y88725D01*
X-48209Y89244D01*
X-48096Y89755D01*
X-47938Y90254D01*
X-47738Y90738D01*
X-47496Y91202D01*
X-47215Y91644D01*
X-46896Y92059D01*
X-46543Y92445D01*
X-46157Y92798D01*
X-45742Y93117D01*
X-45300Y93398D01*
X-44836Y93640D01*
X-44352Y93840D01*
X-43853Y93998D01*
X-43342Y94111D01*
X-42823Y94179D01*
X-42300Y94202D01*
X84731D01*
X84998Y93702D01*
X84987Y93685D01*
X84871Y93100D01*
X84987Y92515D01*
X85319Y92019D01*
X85815Y91687D01*
X86400Y91571D01*
X86985Y91687D01*
X87481Y92019D01*
X87813Y92515D01*
X87929Y93100D01*
X87813Y93685D01*
X87802Y93702D01*
X88069Y94202D01*
X114937D01*
X115460Y94179D01*
D02*
G37*
G36*
X45854Y-106671D02*
X45955Y-106680D01*
X46076Y-106690D01*
X46205Y-106699D01*
X46344Y-106727D01*
X46640Y-106782D01*
X46945Y-106875D01*
X47102Y-106930D01*
X47250Y-106995D01*
X47389Y-107069D01*
X47519Y-107161D01*
X47528Y-107171D01*
X47546Y-107180D01*
X47583Y-107217D01*
X47630Y-107254D01*
X47685Y-107300D01*
X47741Y-107365D01*
X47805Y-107439D01*
X47879Y-107522D01*
X47953Y-107615D01*
X48027Y-107716D01*
X48101Y-107827D01*
X48166Y-107957D01*
X48240Y-108086D01*
X48296Y-108225D01*
X48351Y-108382D01*
X48388Y-108540D01*
X47102Y-108780D01*
Y-108771D01*
X47093Y-108762D01*
X47075Y-108706D01*
X47038Y-108623D01*
X46982Y-108512D01*
X46917Y-108392D01*
X46825Y-108271D01*
X46714Y-108151D01*
X46584Y-108040D01*
X46566Y-108031D01*
X46520Y-107994D01*
X46436Y-107948D01*
X46335Y-107901D01*
X46196Y-107846D01*
X46039Y-107809D01*
X45863Y-107772D01*
X45659Y-107763D01*
X45576D01*
X45521Y-107772D01*
X45447Y-107781D01*
X45363Y-107790D01*
X45271Y-107809D01*
X45169Y-107827D01*
X44956Y-107892D01*
X44845Y-107938D01*
X44734Y-107994D01*
X44623Y-108059D01*
X44512Y-108123D01*
X44411Y-108216D01*
X44309Y-108308D01*
X44300Y-108318D01*
X44290Y-108336D01*
X44263Y-108364D01*
X44235Y-108410D01*
X44198Y-108466D01*
X44152Y-108530D01*
X44105Y-108614D01*
X44068Y-108706D01*
X44022Y-108817D01*
X43976Y-108937D01*
X43930Y-109067D01*
X43893Y-109206D01*
X43865Y-109363D01*
X43837Y-109539D01*
X43828Y-109714D01*
X43819Y-109909D01*
Y-109918D01*
Y-109955D01*
Y-110020D01*
X43828Y-110094D01*
X43837Y-110195D01*
X43846Y-110297D01*
X43865Y-110427D01*
X43883Y-110556D01*
X43939Y-110834D01*
X44031Y-111120D01*
X44087Y-111259D01*
X44152Y-111389D01*
X44235Y-111518D01*
X44318Y-111629D01*
X44327Y-111638D01*
X44346Y-111657D01*
X44374Y-111685D01*
X44411Y-111722D01*
X44466Y-111759D01*
X44522Y-111814D01*
X44596Y-111860D01*
X44679Y-111916D01*
X44771Y-111971D01*
X44864Y-112018D01*
X45095Y-112110D01*
X45225Y-112147D01*
X45354Y-112175D01*
X45502Y-112193D01*
X45650Y-112203D01*
X45724D01*
X45798Y-112193D01*
X45909Y-112184D01*
X46029Y-112166D01*
X46168Y-112138D01*
X46316Y-112101D01*
X46464Y-112045D01*
X46473D01*
X46483Y-112036D01*
X46529Y-112018D01*
X46612Y-111981D01*
X46705Y-111934D01*
X46816Y-111879D01*
X46936Y-111814D01*
X47056Y-111740D01*
X47167Y-111657D01*
Y-110834D01*
X45687D01*
Y-109751D01*
X48471D01*
Y-112323D01*
X48453Y-112341D01*
X48425Y-112360D01*
X48397Y-112388D01*
X48351Y-112425D01*
X48305Y-112462D01*
X48175Y-112554D01*
X48000Y-112656D01*
X47796Y-112776D01*
X47565Y-112896D01*
X47287Y-113007D01*
X47278D01*
X47250Y-113017D01*
X47213Y-113035D01*
X47158Y-113054D01*
X47084Y-113072D01*
X47001Y-113100D01*
X46908Y-113128D01*
X46806Y-113155D01*
X46575Y-113211D01*
X46307Y-113257D01*
X46029Y-113294D01*
X45733Y-113303D01*
X45632D01*
X45567Y-113294D01*
X45474D01*
X45373Y-113285D01*
X45262Y-113266D01*
X45132Y-113248D01*
X44864Y-113202D01*
X44568Y-113128D01*
X44263Y-113026D01*
X44124Y-112961D01*
X43976Y-112887D01*
X43967Y-112878D01*
X43948Y-112869D01*
X43902Y-112841D01*
X43856Y-112804D01*
X43791Y-112767D01*
X43726Y-112711D01*
X43643Y-112647D01*
X43560Y-112573D01*
X43375Y-112406D01*
X43190Y-112193D01*
X43014Y-111953D01*
X42857Y-111675D01*
Y-111666D01*
X42838Y-111638D01*
X42820Y-111592D01*
X42801Y-111537D01*
X42773Y-111463D01*
X42736Y-111379D01*
X42709Y-111278D01*
X42672Y-111167D01*
X42635Y-111046D01*
X42607Y-110908D01*
X42542Y-110621D01*
X42505Y-110306D01*
X42487Y-109964D01*
Y-109955D01*
Y-109918D01*
Y-109862D01*
X42496Y-109798D01*
Y-109705D01*
X42505Y-109603D01*
X42524Y-109492D01*
X42542Y-109363D01*
X42588Y-109095D01*
X42662Y-108789D01*
X42764Y-108484D01*
X42829Y-108336D01*
X42903Y-108188D01*
X42912Y-108179D01*
X42921Y-108151D01*
X42949Y-108114D01*
X42977Y-108059D01*
X43023Y-107994D01*
X43079Y-107920D01*
X43143Y-107837D01*
X43208Y-107744D01*
X43291Y-107652D01*
X43384Y-107550D01*
X43486Y-107448D01*
X43597Y-107346D01*
X43717Y-107254D01*
X43837Y-107152D01*
X44124Y-106986D01*
X44133D01*
X44152Y-106967D01*
X44189Y-106958D01*
X44235Y-106930D01*
X44300Y-106912D01*
X44364Y-106884D01*
X44457Y-106856D01*
X44549Y-106819D01*
X44651Y-106791D01*
X44771Y-106764D01*
X44901Y-106736D01*
X45030Y-106708D01*
X45326Y-106671D01*
X45659Y-106662D01*
X45770D01*
X45854Y-106671D01*
D02*
G37*
G36*
X16855Y-110501D02*
Y-113183D01*
X15560D01*
Y-110491D01*
X13220Y-106782D01*
X14727D01*
X16235Y-109317D01*
X17706Y-106782D01*
X19195D01*
X16855Y-110501D01*
D02*
G37*
G36*
X54761Y-113183D02*
X53466D01*
X50867Y-108965D01*
Y-113183D01*
X49674D01*
Y-106782D01*
X50923D01*
X53568Y-111093D01*
Y-106782D01*
X54761D01*
Y-113183D01*
D02*
G37*
G36*
X58757Y-106791D02*
X58933Y-106801D01*
X59127Y-106810D01*
X59331Y-106838D01*
X59525Y-106865D01*
X59701Y-106912D01*
X59710D01*
X59729Y-106921D01*
X59756Y-106930D01*
X59793Y-106939D01*
X59904Y-106986D01*
X60034Y-107050D01*
X60182Y-107134D01*
X60348Y-107235D01*
X60506Y-107356D01*
X60663Y-107504D01*
X60672D01*
X60681Y-107522D01*
X60728Y-107578D01*
X60802Y-107670D01*
X60885Y-107790D01*
X60987Y-107938D01*
X61088Y-108114D01*
X61190Y-108318D01*
X61273Y-108540D01*
Y-108549D01*
X61283Y-108567D01*
X61292Y-108604D01*
X61310Y-108651D01*
X61320Y-108706D01*
X61338Y-108780D01*
X61357Y-108863D01*
X61384Y-108956D01*
X61403Y-109058D01*
X61421Y-109178D01*
X61440Y-109298D01*
X61449Y-109437D01*
X61477Y-109724D01*
X61486Y-110047D01*
Y-110057D01*
Y-110084D01*
Y-110121D01*
Y-110177D01*
X61477Y-110251D01*
Y-110325D01*
X61468Y-110417D01*
X61458Y-110519D01*
X61440Y-110732D01*
X61403Y-110954D01*
X61347Y-111185D01*
X61283Y-111407D01*
Y-111416D01*
X61273Y-111435D01*
X61255Y-111472D01*
X61236Y-111527D01*
X61218Y-111583D01*
X61181Y-111648D01*
X61107Y-111814D01*
X61014Y-111990D01*
X60894Y-112184D01*
X60755Y-112369D01*
X60598Y-112545D01*
X60580Y-112563D01*
X60533Y-112600D01*
X60459Y-112656D01*
X60358Y-112730D01*
X60228Y-112813D01*
X60080Y-112896D01*
X59895Y-112980D01*
X59692Y-113054D01*
X59682D01*
X59673Y-113063D01*
X59645D01*
X59618Y-113072D01*
X59516Y-113091D01*
X59386Y-113118D01*
X59229Y-113146D01*
X59035Y-113165D01*
X58804Y-113174D01*
X58554Y-113183D01*
X56130D01*
Y-106782D01*
X58683D01*
X58757Y-106791D01*
D02*
G37*
G36*
X34263Y-106754D02*
X34347Y-106764D01*
X34439Y-106773D01*
X34541Y-106791D01*
X34652Y-106810D01*
X34892Y-106875D01*
X35133Y-106967D01*
X35262Y-107023D01*
X35373Y-107087D01*
X35494Y-107171D01*
X35595Y-107263D01*
X35605Y-107272D01*
X35623Y-107282D01*
X35642Y-107319D01*
X35679Y-107356D01*
X35725Y-107402D01*
X35771Y-107467D01*
X35817Y-107531D01*
X35873Y-107615D01*
X35965Y-107800D01*
X36058Y-108012D01*
X36095Y-108133D01*
X36113Y-108262D01*
X36132Y-108401D01*
X36141Y-108540D01*
Y-108558D01*
Y-108614D01*
X36132Y-108697D01*
X36123Y-108799D01*
X36104Y-108928D01*
X36076Y-109067D01*
X36039Y-109215D01*
X35984Y-109363D01*
X35975Y-109381D01*
X35956Y-109428D01*
X35919Y-109511D01*
X35864Y-109613D01*
X35799Y-109733D01*
X35716Y-109872D01*
X35614Y-110020D01*
X35494Y-110177D01*
X35484Y-110186D01*
X35447Y-110232D01*
X35392Y-110297D01*
X35309Y-110390D01*
X35198Y-110501D01*
X35059Y-110649D01*
X34892Y-110806D01*
X34689Y-111000D01*
X34680Y-111009D01*
X34661Y-111019D01*
X34633Y-111046D01*
X34596Y-111083D01*
X34495Y-111176D01*
X34374Y-111287D01*
X34254Y-111407D01*
X34134Y-111527D01*
X34023Y-111629D01*
X33986Y-111675D01*
X33949Y-111712D01*
X33940Y-111722D01*
X33921Y-111740D01*
X33893Y-111777D01*
X33856Y-111823D01*
X33773Y-111925D01*
X33699Y-112045D01*
X36141D01*
Y-113183D01*
X31840D01*
Y-113174D01*
Y-113155D01*
X31849Y-113118D01*
X31858Y-113072D01*
X31868Y-113017D01*
X31877Y-112952D01*
X31914Y-112785D01*
X31969Y-112600D01*
X32043Y-112397D01*
X32136Y-112175D01*
X32256Y-111962D01*
Y-111953D01*
X32275Y-111934D01*
X32293Y-111897D01*
X32330Y-111860D01*
X32367Y-111796D01*
X32423Y-111731D01*
X32487Y-111648D01*
X32561Y-111555D01*
X32645Y-111444D01*
X32746Y-111333D01*
X32857Y-111204D01*
X32987Y-111065D01*
X33126Y-110926D01*
X33283Y-110769D01*
X33449Y-110602D01*
X33634Y-110427D01*
X33644Y-110417D01*
X33671Y-110390D01*
X33708Y-110353D01*
X33764Y-110297D01*
X33838Y-110242D01*
X33912Y-110168D01*
X34078Y-110001D01*
X34245Y-109825D01*
X34411Y-109650D01*
X34485Y-109576D01*
X34559Y-109492D01*
X34615Y-109428D01*
X34652Y-109372D01*
X34661Y-109354D01*
X34689Y-109307D01*
X34735Y-109233D01*
X34781Y-109132D01*
X34828Y-109021D01*
X34874Y-108891D01*
X34902Y-108762D01*
X34911Y-108623D01*
Y-108614D01*
Y-108604D01*
Y-108558D01*
X34902Y-108475D01*
X34883Y-108382D01*
X34855Y-108281D01*
X34818Y-108179D01*
X34763Y-108077D01*
X34689Y-107985D01*
X34680Y-107975D01*
X34652Y-107948D01*
X34596Y-107911D01*
X34532Y-107874D01*
X34439Y-107837D01*
X34337Y-107800D01*
X34217Y-107772D01*
X34078Y-107763D01*
X34014D01*
X33940Y-107772D01*
X33856Y-107790D01*
X33755Y-107818D01*
X33653Y-107864D01*
X33551Y-107920D01*
X33459Y-107994D01*
X33449Y-108003D01*
X33422Y-108040D01*
X33385Y-108096D01*
X33348Y-108179D01*
X33301Y-108281D01*
X33264Y-108419D01*
X33227Y-108577D01*
X33209Y-108762D01*
X31988Y-108641D01*
Y-108632D01*
X31997Y-108595D01*
Y-108549D01*
X32016Y-108475D01*
X32025Y-108392D01*
X32053Y-108299D01*
X32080Y-108197D01*
X32108Y-108077D01*
X32201Y-107846D01*
X32312Y-107605D01*
X32386Y-107485D01*
X32469Y-107374D01*
X32561Y-107282D01*
X32663Y-107189D01*
X32672Y-107180D01*
X32691Y-107171D01*
X32719Y-107152D01*
X32765Y-107115D01*
X32820Y-107087D01*
X32894Y-107050D01*
X32968Y-107004D01*
X33061Y-106967D01*
X33163Y-106921D01*
X33274Y-106884D01*
X33514Y-106810D01*
X33801Y-106764D01*
X33949Y-106754D01*
X34106Y-106745D01*
X34199D01*
X34263Y-106754D01*
D02*
G37*
G36*
X28787Y-106791D02*
X28889D01*
X28991Y-106801D01*
X29111D01*
X29352Y-106828D01*
X29601Y-106856D01*
X29833Y-106902D01*
X29934Y-106930D01*
X30027Y-106958D01*
X30036D01*
X30045Y-106967D01*
X30101Y-106995D01*
X30184Y-107041D01*
X30295Y-107097D01*
X30415Y-107189D01*
X30536Y-107291D01*
X30656Y-107420D01*
X30767Y-107578D01*
Y-107587D01*
X30776Y-107596D01*
X30795Y-107624D01*
X30813Y-107652D01*
X30859Y-107744D01*
X30915Y-107864D01*
X30961Y-108012D01*
X31007Y-108179D01*
X31044Y-108373D01*
X31054Y-108577D01*
Y-108586D01*
Y-108604D01*
Y-108651D01*
X31044Y-108697D01*
Y-108762D01*
X31035Y-108826D01*
X30998Y-108993D01*
X30952Y-109187D01*
X30878Y-109381D01*
X30767Y-109585D01*
X30702Y-109677D01*
X30628Y-109770D01*
X30619Y-109779D01*
X30610Y-109788D01*
X30582Y-109816D01*
X30545Y-109844D01*
X30508Y-109881D01*
X30452Y-109927D01*
X30388Y-109973D01*
X30314Y-110020D01*
X30230Y-110075D01*
X30129Y-110121D01*
X30027Y-110168D01*
X29916Y-110214D01*
X29786Y-110260D01*
X29657Y-110297D01*
X29518Y-110334D01*
X29361Y-110362D01*
X29370D01*
X29379Y-110371D01*
X29435Y-110408D01*
X29509Y-110454D01*
X29601Y-110519D01*
X29712Y-110602D01*
X29823Y-110686D01*
X29944Y-110787D01*
X30045Y-110898D01*
X30055Y-110908D01*
X30101Y-110954D01*
X30156Y-111028D01*
X30240Y-111139D01*
X30351Y-111278D01*
X30406Y-111370D01*
X30471Y-111463D01*
X30545Y-111564D01*
X30619Y-111675D01*
X30702Y-111805D01*
X30785Y-111934D01*
X31572Y-113183D01*
X30018D01*
X29093Y-111796D01*
X29083Y-111786D01*
X29074Y-111759D01*
X29046Y-111722D01*
X29009Y-111675D01*
X28972Y-111620D01*
X28926Y-111546D01*
X28824Y-111398D01*
X28704Y-111231D01*
X28593Y-111083D01*
X28491Y-110945D01*
X28445Y-110898D01*
X28408Y-110852D01*
X28399Y-110843D01*
X28380Y-110824D01*
X28343Y-110787D01*
X28297Y-110741D01*
X28232Y-110704D01*
X28168Y-110658D01*
X28094Y-110621D01*
X28020Y-110584D01*
X28010D01*
X27983Y-110575D01*
X27936Y-110556D01*
X27862Y-110547D01*
X27770Y-110528D01*
X27659Y-110519D01*
X27529Y-110510D01*
X27113D01*
Y-113183D01*
X25818D01*
Y-106782D01*
X28704D01*
X28787Y-106791D01*
D02*
G37*
G36*
X24597Y-107864D02*
X21147D01*
Y-109280D01*
X24357D01*
Y-110362D01*
X21147D01*
Y-112101D01*
X24717D01*
Y-113183D01*
X19852D01*
Y-106782D01*
X24597D01*
Y-107864D01*
D02*
G37*
G36*
X13192Y-113183D02*
X11795D01*
X11240Y-111731D01*
X8669D01*
X8141Y-113183D01*
X6772D01*
X9251Y-106782D01*
X10620D01*
X13192Y-113183D01*
D02*
G37*
G36*
X3285Y-112101D02*
X6504D01*
Y-113183D01*
X1990D01*
Y-106828D01*
X3285D01*
Y-112101D01*
D02*
G37*
G36*
X63068Y-106680D02*
X63086Y-106717D01*
X63123Y-106764D01*
X63170Y-106838D01*
X63225Y-106921D01*
X63290Y-107023D01*
X63355Y-107143D01*
X63429Y-107272D01*
X63512Y-107420D01*
X63595Y-107578D01*
X63678Y-107735D01*
X63762Y-107911D01*
X63928Y-108281D01*
X64076Y-108669D01*
Y-108678D01*
X64095Y-108715D01*
X64113Y-108771D01*
X64132Y-108854D01*
X64159Y-108947D01*
X64196Y-109058D01*
X64224Y-109187D01*
X64261Y-109335D01*
X64298Y-109483D01*
X64326Y-109650D01*
X64363Y-109835D01*
X64391Y-110020D01*
X64428Y-110399D01*
X64446Y-110806D01*
Y-110815D01*
Y-110843D01*
Y-110898D01*
Y-110963D01*
X64437Y-111046D01*
X64428Y-111148D01*
X64418Y-111268D01*
X64409Y-111398D01*
X64400Y-111537D01*
X64372Y-111685D01*
X64354Y-111851D01*
X64326Y-112018D01*
X64252Y-112378D01*
X64159Y-112767D01*
Y-112776D01*
X64141Y-112822D01*
X64122Y-112878D01*
X64095Y-112961D01*
X64058Y-113072D01*
X64011Y-113192D01*
X63965Y-113331D01*
X63900Y-113488D01*
X63826Y-113655D01*
X63752Y-113840D01*
X63660Y-114025D01*
X63567Y-114228D01*
X63456Y-114432D01*
X63345Y-114645D01*
X63225Y-114857D01*
X63086Y-115070D01*
X62235D01*
Y-115061D01*
X62254Y-115033D01*
X62272Y-114996D01*
X62291Y-114941D01*
X62328Y-114876D01*
X62356Y-114802D01*
X62439Y-114626D01*
X62522Y-114432D01*
X62605Y-114228D01*
X62679Y-114034D01*
X62744Y-113868D01*
Y-113858D01*
X62753Y-113849D01*
X62772Y-113794D01*
X62800Y-113710D01*
X62837Y-113599D01*
X62874Y-113461D01*
X62920Y-113294D01*
X62966Y-113118D01*
X63012Y-112924D01*
Y-112915D01*
X63022Y-112896D01*
Y-112869D01*
X63031Y-112832D01*
X63059Y-112730D01*
X63086Y-112591D01*
X63114Y-112434D01*
X63151Y-112258D01*
X63207Y-111897D01*
Y-111888D01*
Y-111879D01*
X63216Y-111851D01*
Y-111814D01*
X63225Y-111712D01*
X63244Y-111592D01*
X63253Y-111435D01*
X63262Y-111268D01*
X63271Y-111083D01*
Y-110898D01*
Y-110889D01*
Y-110852D01*
Y-110797D01*
Y-110723D01*
X63262Y-110630D01*
Y-110519D01*
X63253Y-110399D01*
X63244Y-110260D01*
X63234Y-110112D01*
X63216Y-109955D01*
X63170Y-109622D01*
X63114Y-109280D01*
X63040Y-108928D01*
Y-108919D01*
X63031Y-108882D01*
X63012Y-108836D01*
X62994Y-108762D01*
X62975Y-108669D01*
X62938Y-108567D01*
X62901Y-108438D01*
X62855Y-108299D01*
X62800Y-108142D01*
X62744Y-107966D01*
X62679Y-107781D01*
X62605Y-107587D01*
X62522Y-107374D01*
X62430Y-107152D01*
X62337Y-106912D01*
X62226Y-106671D01*
X63059D01*
X63068Y-106680D01*
D02*
G37*
G36*
X41765Y-106690D02*
X41747Y-106727D01*
X41719Y-106801D01*
X41682Y-106893D01*
X41626Y-107004D01*
X41571Y-107143D01*
X41515Y-107291D01*
X41451Y-107448D01*
X41377Y-107624D01*
X41312Y-107809D01*
X41173Y-108188D01*
X41053Y-108567D01*
X40997Y-108752D01*
X40951Y-108928D01*
Y-108937D01*
X40942Y-108965D01*
X40933Y-109021D01*
X40914Y-109085D01*
X40896Y-109178D01*
X40877Y-109280D01*
X40859Y-109391D01*
X40840Y-109520D01*
X40822Y-109659D01*
X40803Y-109816D01*
X40785Y-109973D01*
X40766Y-110149D01*
X40738Y-110510D01*
X40729Y-110898D01*
Y-110908D01*
Y-110926D01*
Y-110972D01*
Y-111019D01*
Y-111083D01*
X40738Y-111167D01*
Y-111250D01*
X40748Y-111352D01*
X40757Y-111574D01*
X40785Y-111823D01*
X40812Y-112092D01*
X40859Y-112369D01*
Y-112378D01*
X40868Y-112406D01*
Y-112443D01*
X40886Y-112499D01*
X40896Y-112563D01*
X40914Y-112637D01*
X40933Y-112730D01*
X40951Y-112822D01*
X41007Y-113044D01*
X41062Y-113285D01*
X41136Y-113535D01*
X41219Y-113784D01*
Y-113794D01*
X41229Y-113803D01*
X41238Y-113831D01*
X41247Y-113868D01*
X41266Y-113914D01*
X41293Y-113969D01*
X41312Y-114034D01*
X41349Y-114108D01*
X41386Y-114201D01*
X41423Y-114293D01*
X41469Y-114395D01*
X41515Y-114515D01*
X41571Y-114635D01*
X41626Y-114774D01*
X41691Y-114913D01*
X41765Y-115070D01*
X40923D01*
X40914Y-115061D01*
X40896Y-115024D01*
X40859Y-114968D01*
X40812Y-114894D01*
X40757Y-114802D01*
X40692Y-114691D01*
X40618Y-114561D01*
X40544Y-114423D01*
X40461Y-114275D01*
X40378Y-114108D01*
X40294Y-113932D01*
X40202Y-113757D01*
X40045Y-113368D01*
X39897Y-112970D01*
Y-112961D01*
X39878Y-112924D01*
X39869Y-112859D01*
X39841Y-112785D01*
X39813Y-112684D01*
X39786Y-112573D01*
X39758Y-112443D01*
X39730Y-112304D01*
X39693Y-112147D01*
X39665Y-111981D01*
X39610Y-111629D01*
X39573Y-111250D01*
X39554Y-110871D01*
Y-110852D01*
Y-110815D01*
Y-110750D01*
X39564Y-110658D01*
Y-110547D01*
X39573Y-110408D01*
X39591Y-110260D01*
X39610Y-110094D01*
X39628Y-109918D01*
X39656Y-109733D01*
X39730Y-109326D01*
X39841Y-108910D01*
X39906Y-108697D01*
X39980Y-108484D01*
Y-108475D01*
X39998Y-108438D01*
X40017Y-108392D01*
X40045Y-108318D01*
X40082Y-108234D01*
X40128Y-108133D01*
X40183Y-108012D01*
X40239Y-107892D01*
X40304Y-107753D01*
X40378Y-107615D01*
X40535Y-107309D01*
X40729Y-106986D01*
X40933Y-106671D01*
X41774D01*
X41765Y-106690D01*
D02*
G37*
%LPC*%
G36*
X47500Y88029D02*
X46915Y87913D01*
X46419Y87581D01*
X46087Y87085D01*
X45971Y86500D01*
X46087Y85915D01*
X46419Y85419D01*
X46915Y85087D01*
X47500Y84971D01*
X48085Y85087D01*
X48581Y85419D01*
X48913Y85915D01*
X49029Y86500D01*
X48913Y87085D01*
X48581Y87581D01*
X48085Y87913D01*
X47500Y88029D01*
D02*
G37*
G36*
X31500D02*
X30915Y87913D01*
X30419Y87581D01*
X30087Y87085D01*
X29971Y86500D01*
X30087Y85915D01*
X30419Y85419D01*
X30915Y85087D01*
X31500Y84971D01*
X32085Y85087D01*
X32581Y85419D01*
X32913Y85915D01*
X33029Y86500D01*
X32913Y87085D01*
X32581Y87581D01*
X32085Y87913D01*
X31500Y88029D01*
D02*
G37*
G36*
X40800Y86429D02*
X40215Y86313D01*
X39719Y85981D01*
X39387Y85485D01*
X39271Y84900D01*
X39387Y84315D01*
X39719Y83819D01*
X40215Y83487D01*
X40800Y83371D01*
X41385Y83487D01*
X41881Y83819D01*
X42213Y84315D01*
X42329Y84900D01*
X42213Y85485D01*
X41881Y85981D01*
X41385Y86313D01*
X40800Y86429D01*
D02*
G37*
G36*
X68500Y78529D02*
X67915Y78413D01*
X67419Y78081D01*
X67301Y77905D01*
X66699D01*
X66581Y78081D01*
X66085Y78413D01*
X65500Y78529D01*
X64915Y78413D01*
X64419Y78081D01*
X64087Y77585D01*
X63971Y77000D01*
X64087Y76415D01*
X64419Y75919D01*
X64915Y75587D01*
X65500Y75471D01*
X66085Y75587D01*
X66581Y75919D01*
X66699Y76095D01*
X67301D01*
X67419Y75919D01*
X67915Y75587D01*
X68500Y75471D01*
X69085Y75587D01*
X69581Y75919D01*
X69913Y76415D01*
X70029Y77000D01*
X69913Y77585D01*
X69581Y78081D01*
X69085Y78413D01*
X68500Y78529D01*
D02*
G37*
G36*
X88000Y79529D02*
X87415Y79413D01*
X86919Y79081D01*
X86587Y78585D01*
X86471Y78000D01*
X86587Y77415D01*
X86919Y76919D01*
X87415Y76587D01*
X88000Y76471D01*
X88585Y76587D01*
X89081Y76919D01*
X89413Y77415D01*
X89529Y78000D01*
X89413Y78585D01*
X89081Y79081D01*
X88585Y79413D01*
X88000Y79529D01*
D02*
G37*
G36*
X82000D02*
X81415Y79413D01*
X80919Y79081D01*
X80587Y78585D01*
X80471Y78000D01*
X80587Y77415D01*
X80919Y76919D01*
X81415Y76587D01*
X82000Y76471D01*
X82585Y76587D01*
X83081Y76919D01*
X83413Y77415D01*
X83529Y78000D01*
X83413Y78585D01*
X83081Y79081D01*
X82585Y79413D01*
X82000Y79529D01*
D02*
G37*
G36*
X78000D02*
X77415Y79413D01*
X76919Y79081D01*
X76587Y78585D01*
X76471Y78000D01*
X76587Y77415D01*
X76919Y76919D01*
X77415Y76587D01*
X78000Y76471D01*
X78585Y76587D01*
X79081Y76919D01*
X79413Y77415D01*
X79529Y78000D01*
X79413Y78585D01*
X79081Y79081D01*
X78585Y79413D01*
X78000Y79529D01*
D02*
G37*
G36*
X73000D02*
X72415Y79413D01*
X71919Y79081D01*
X71587Y78585D01*
X71471Y78000D01*
X71587Y77415D01*
X71919Y76919D01*
X72415Y76587D01*
X73000Y76471D01*
X73585Y76587D01*
X74081Y76919D01*
X74413Y77415D01*
X74529Y78000D01*
X74413Y78585D01*
X74081Y79081D01*
X73585Y79413D01*
X73000Y79529D01*
D02*
G37*
G36*
X18000Y78529D02*
X17415Y78413D01*
X16919Y78081D01*
X16587Y77585D01*
X16471Y77000D01*
X16587Y76415D01*
X16919Y75919D01*
X17415Y75587D01*
X18000Y75471D01*
X18585Y75587D01*
X19081Y75919D01*
X19413Y76415D01*
X19529Y77000D01*
X19413Y77585D01*
X19081Y78081D01*
X18585Y78413D01*
X18000Y78529D01*
D02*
G37*
G36*
X-41500Y73017D02*
X-42463Y72825D01*
X-43280Y72280D01*
X-43825Y71463D01*
X-44017Y70500D01*
X-43825Y69537D01*
X-43280Y68720D01*
X-42463Y68175D01*
X-41500Y67983D01*
X-40537Y68175D01*
X-39720Y68720D01*
X-39175Y69537D01*
X-38983Y70500D01*
X-39175Y71463D01*
X-39720Y72280D01*
X-40537Y72825D01*
X-41500Y73017D01*
D02*
G37*
G36*
X14250Y68025D02*
X13743Y67925D01*
X13313Y67637D01*
X13251Y67544D01*
X12649D01*
X12587Y67637D01*
X12157Y67925D01*
X11650Y68025D01*
X11143Y67925D01*
X10713Y67637D01*
X10425Y67207D01*
X10324Y66700D01*
X10425Y66193D01*
X10713Y65763D01*
X11143Y65475D01*
X11650Y65374D01*
X12157Y65475D01*
X12587Y65763D01*
X12649Y65856D01*
X13251D01*
X13313Y65763D01*
X13743Y65475D01*
X14250Y65374D01*
X14757Y65475D01*
X15187Y65763D01*
X15475Y66193D01*
X15575Y66700D01*
X15475Y67207D01*
X15187Y67637D01*
X14757Y67925D01*
X14250Y68025D01*
D02*
G37*
G36*
X26150Y67826D02*
X25643Y67725D01*
X25213Y67437D01*
X25151Y67344D01*
X24549D01*
X24487Y67437D01*
X24057Y67725D01*
X23550Y67826D01*
X23043Y67725D01*
X22613Y67437D01*
X22325Y67007D01*
X22224Y66500D01*
X22325Y65993D01*
X22613Y65563D01*
X23043Y65275D01*
X23550Y65175D01*
X24057Y65275D01*
X24487Y65563D01*
X24549Y65656D01*
X25151D01*
X25213Y65563D01*
X25643Y65275D01*
X26150Y65175D01*
X26657Y65275D01*
X27087Y65563D01*
X27375Y65993D01*
X27476Y66500D01*
X27375Y67007D01*
X27087Y67437D01*
X26657Y67725D01*
X26150Y67826D01*
D02*
G37*
G36*
X-11000Y68529D02*
X-11585Y68413D01*
X-12081Y68081D01*
X-12413Y67585D01*
X-12529Y67000D01*
X-12413Y66415D01*
X-12081Y65919D01*
X-11585Y65587D01*
X-11000Y65471D01*
X-10415Y65587D01*
X-9919Y65919D01*
X-9587Y66415D01*
X-9471Y67000D01*
X-9587Y67585D01*
X-9919Y68081D01*
X-10415Y68413D01*
X-11000Y68529D01*
D02*
G37*
G36*
X62000Y68336D02*
X61415Y68220D01*
X60919Y67888D01*
X60587Y67392D01*
X60471Y66807D01*
X60587Y66222D01*
X60741Y65991D01*
X60592Y65705D01*
X60454Y65520D01*
X59915Y65413D01*
X59419Y65081D01*
X59087Y64585D01*
X58971Y64000D01*
X59087Y63415D01*
X59419Y62919D01*
X59915Y62587D01*
X60500Y62471D01*
X61085Y62587D01*
X61581Y62919D01*
X61913Y63415D01*
X62029Y64000D01*
X61913Y64585D01*
X61759Y64816D01*
X61908Y65102D01*
X62046Y65287D01*
X62585Y65394D01*
X63081Y65726D01*
X63413Y66222D01*
X63529Y66807D01*
X63413Y67392D01*
X63081Y67888D01*
X62585Y68220D01*
X62000Y68336D01*
D02*
G37*
G36*
X88000Y62529D02*
X87415Y62413D01*
X86919Y62081D01*
X86587Y61585D01*
X86471Y61000D01*
X86587Y60415D01*
X86919Y59919D01*
X87415Y59587D01*
X88000Y59471D01*
X88585Y59587D01*
X89081Y59919D01*
X89413Y60415D01*
X89529Y61000D01*
X89413Y61585D01*
X89081Y62081D01*
X88585Y62413D01*
X88000Y62529D01*
D02*
G37*
G36*
X73000Y61529D02*
X72415Y61413D01*
X71919Y61081D01*
X71587Y60585D01*
X71471Y60000D01*
X71587Y59415D01*
X71919Y58919D01*
X72415Y58587D01*
X73000Y58471D01*
X73585Y58587D01*
X74081Y58919D01*
X74413Y59415D01*
X74529Y60000D01*
X74413Y60585D01*
X74081Y61081D01*
X73585Y61413D01*
X73000Y61529D01*
D02*
G37*
G36*
X-7000D02*
X-7585Y61413D01*
X-8081Y61081D01*
X-8413Y60585D01*
X-8529Y60000D01*
X-8413Y59415D01*
X-8081Y58919D01*
X-7585Y58587D01*
X-7000Y58471D01*
X-6415Y58587D01*
X-5919Y58919D01*
X-5587Y59415D01*
X-5471Y60000D01*
X-5587Y60585D01*
X-5919Y61081D01*
X-6415Y61413D01*
X-7000Y61529D01*
D02*
G37*
G36*
X-12500D02*
X-13085Y61413D01*
X-13581Y61081D01*
X-13913Y60585D01*
X-14029Y60000D01*
X-13913Y59415D01*
X-13581Y58919D01*
X-13085Y58587D01*
X-12500Y58471D01*
X-11915Y58587D01*
X-11419Y58919D01*
X-11087Y59415D01*
X-10971Y60000D01*
X-11087Y60585D01*
X-11419Y61081D01*
X-11915Y61413D01*
X-12500Y61529D01*
D02*
G37*
G36*
X43233Y63376D02*
X42726Y63275D01*
X42296Y62987D01*
X42009Y62557D01*
X41908Y62050D01*
X42009Y61543D01*
X42296Y61113D01*
X42389Y61051D01*
Y60449D01*
X42296Y60387D01*
X42009Y59957D01*
X41908Y59450D01*
X42009Y58943D01*
X42296Y58513D01*
X42726Y58226D01*
X43233Y58125D01*
X43741Y58226D01*
X44171Y58513D01*
X44458Y58943D01*
X44559Y59450D01*
X44458Y59957D01*
X44171Y60387D01*
X44078Y60449D01*
Y61051D01*
X44171Y61113D01*
X44458Y61543D01*
X44559Y62050D01*
X44458Y62557D01*
X44171Y62987D01*
X43741Y63275D01*
X43233Y63376D01*
D02*
G37*
G36*
X60500Y60529D02*
X59915Y60413D01*
X59419Y60081D01*
X59087Y59585D01*
X58971Y59000D01*
X59087Y58415D01*
X59419Y57919D01*
X59915Y57587D01*
X60500Y57471D01*
X61085Y57587D01*
X61581Y57919D01*
X61913Y58415D01*
X62029Y59000D01*
X61913Y59585D01*
X61581Y60081D01*
X61085Y60413D01*
X60500Y60529D01*
D02*
G37*
G36*
X48719Y57455D02*
X48211Y57354D01*
X47781Y57066D01*
X47719Y56973D01*
X47118D01*
X47056Y57066D01*
X46626Y57354D01*
X46119Y57455D01*
X45611Y57354D01*
X45181Y57066D01*
X44894Y56636D01*
X44793Y56129D01*
X44894Y55622D01*
X45181Y55192D01*
X45611Y54905D01*
X46119Y54804D01*
X46626Y54905D01*
X47056Y55192D01*
X47118Y55285D01*
X47719D01*
X47781Y55192D01*
X48211Y54905D01*
X48719Y54804D01*
X49226Y54905D01*
X49656Y55192D01*
X49943Y55622D01*
X50044Y56129D01*
X49943Y56636D01*
X49656Y57066D01*
X49226Y57354D01*
X48719Y57455D01*
D02*
G37*
G36*
X82500Y59529D02*
X81915Y59413D01*
X81419Y59081D01*
X81087Y58585D01*
X80971Y58000D01*
X81087Y57415D01*
X81419Y56919D01*
X81915Y56587D01*
X82500Y56471D01*
X83085Y56587D01*
X83581Y56919D01*
X83913Y57415D01*
X84029Y58000D01*
X83913Y58585D01*
X83581Y59081D01*
X83085Y59413D01*
X82500Y59529D01*
D02*
G37*
G36*
X36000Y61676D02*
X35493Y61575D01*
X35063Y61287D01*
X34775Y60857D01*
X34675Y60350D01*
X34775Y59843D01*
X35063Y59413D01*
X35156Y59351D01*
Y58749D01*
X35063Y58687D01*
X34775Y58257D01*
X34675Y57750D01*
X34775Y57243D01*
X35063Y56813D01*
X35493Y56525D01*
X36000Y56424D01*
X36507Y56525D01*
X36937Y56813D01*
X37225Y57243D01*
X37326Y57750D01*
X37225Y58257D01*
X36937Y58687D01*
X36844Y58749D01*
Y59351D01*
X36937Y59413D01*
X37225Y59843D01*
X37326Y60350D01*
X37225Y60857D01*
X36937Y61287D01*
X36507Y61575D01*
X36000Y61676D01*
D02*
G37*
G36*
X85000Y57029D02*
X84415Y56913D01*
X83919Y56581D01*
X83587Y56085D01*
X83471Y55500D01*
X83587Y54915D01*
X83919Y54419D01*
X84415Y54087D01*
X85000Y53971D01*
X85585Y54087D01*
X86081Y54419D01*
X86413Y54915D01*
X86529Y55500D01*
X86413Y56085D01*
X86081Y56581D01*
X85585Y56913D01*
X85000Y57029D01*
D02*
G37*
G36*
X-38047Y59984D02*
X-44953D01*
Y53079D01*
X-38047D01*
Y59984D01*
D02*
G37*
G36*
X-21500Y60014D02*
X-22401Y59895D01*
X-23241Y59548D01*
X-23963Y58994D01*
X-24516Y58273D01*
X-24864Y57433D01*
X-24983Y56532D01*
X-24864Y55630D01*
X-24516Y54790D01*
X-23963Y54069D01*
X-23241Y53515D01*
X-22401Y53168D01*
X-21500Y53049D01*
X-20599Y53168D01*
X-19759Y53515D01*
X-19038Y54069D01*
X-18484Y54790D01*
X-18136Y55630D01*
X-18018Y56532D01*
X-18136Y57433D01*
X-18484Y58273D01*
X-19038Y58994D01*
X-19759Y59548D01*
X-20599Y59895D01*
X-21500Y60014D01*
D02*
G37*
G36*
X-31500D02*
X-32401Y59895D01*
X-33241Y59548D01*
X-33963Y58994D01*
X-34516Y58273D01*
X-34864Y57433D01*
X-34982Y56532D01*
X-34864Y55630D01*
X-34516Y54790D01*
X-33963Y54069D01*
X-33241Y53515D01*
X-32401Y53168D01*
X-31500Y53049D01*
X-30599Y53168D01*
X-29759Y53515D01*
X-29037Y54069D01*
X-28484Y54790D01*
X-28136Y55630D01*
X-28018Y56532D01*
X-28136Y57433D01*
X-28484Y58273D01*
X-29037Y58994D01*
X-29759Y59548D01*
X-30599Y59895D01*
X-31500Y60014D01*
D02*
G37*
G36*
X9000Y55529D02*
X8415Y55413D01*
X7919Y55081D01*
X7587Y54585D01*
X7471Y54000D01*
X7587Y53415D01*
X7919Y52919D01*
X8415Y52587D01*
X9000Y52471D01*
X9585Y52587D01*
X10081Y52919D01*
X10413Y53415D01*
X10529Y54000D01*
X10413Y54585D01*
X10081Y55081D01*
X9585Y55413D01*
X9000Y55529D01*
D02*
G37*
G36*
X4500D02*
X3915Y55413D01*
X3419Y55081D01*
X3087Y54585D01*
X2971Y54000D01*
X3087Y53415D01*
X3419Y52919D01*
X3915Y52587D01*
X4500Y52471D01*
X5085Y52587D01*
X5581Y52919D01*
X5913Y53415D01*
X6029Y54000D01*
X5913Y54585D01*
X5581Y55081D01*
X5085Y55413D01*
X4500Y55529D01*
D02*
G37*
G36*
X75000Y53325D02*
X74493Y53225D01*
X74063Y52937D01*
X73775Y52507D01*
X73674Y52000D01*
X73775Y51493D01*
X74063Y51063D01*
X74493Y50775D01*
X75000Y50674D01*
X75507Y50775D01*
X75937Y51063D01*
X76225Y51493D01*
X76326Y52000D01*
X76225Y52507D01*
X75937Y52937D01*
X75507Y53225D01*
X75000Y53325D01*
D02*
G37*
G36*
X117500Y53530D02*
X116915Y53414D01*
X116419Y53082D01*
X116087Y52586D01*
X115971Y52001D01*
X116087Y51416D01*
X116419Y50920D01*
X116915Y50588D01*
X117500Y50472D01*
X118085Y50588D01*
X118581Y50920D01*
X118913Y51416D01*
X119029Y52001D01*
X118913Y52586D01*
X118581Y53082D01*
X118085Y53414D01*
X117500Y53530D01*
D02*
G37*
G36*
X-6652Y49974D02*
X-7159Y49873D01*
X-7589Y49586D01*
X-7651Y49493D01*
X-8253D01*
X-8315Y49586D01*
X-8745Y49873D01*
X-9252Y49974D01*
X-9759Y49873D01*
X-10189Y49586D01*
X-10477Y49156D01*
X-10577Y48649D01*
X-10477Y48141D01*
X-10189Y47711D01*
X-9759Y47424D01*
X-9252Y47323D01*
X-8745Y47424D01*
X-8315Y47711D01*
X-8253Y47804D01*
X-7651D01*
X-7589Y47711D01*
X-7159Y47424D01*
X-6652Y47323D01*
X-6145Y47424D01*
X-5715Y47711D01*
X-5427Y48141D01*
X-5327Y48649D01*
X-5427Y49156D01*
X-5715Y49586D01*
X-6145Y49873D01*
X-6652Y49974D01*
D02*
G37*
G36*
X45041Y49915D02*
X44534Y49814D01*
X44104Y49526D01*
X44042Y49433D01*
X43441D01*
X43379Y49526D01*
X42949Y49814D01*
X42441Y49915D01*
X41934Y49814D01*
X41504Y49526D01*
X41217Y49096D01*
X41116Y48589D01*
X41217Y48082D01*
X41504Y47652D01*
X41934Y47365D01*
X42441Y47264D01*
X42949Y47365D01*
X43379Y47652D01*
X43441Y47745D01*
X44042D01*
X44104Y47652D01*
X44534Y47365D01*
X45041Y47264D01*
X45549Y47365D01*
X45979Y47652D01*
X46266Y48082D01*
X46367Y48589D01*
X46266Y49096D01*
X45979Y49526D01*
X45549Y49814D01*
X45041Y49915D01*
D02*
G37*
G36*
X103500Y52029D02*
X102915Y51913D01*
X102419Y51581D01*
X102087Y51085D01*
X101971Y50500D01*
X102087Y49915D01*
X102419Y49419D01*
X102915Y49087D01*
X103500Y48971D01*
X104085Y49087D01*
X104581Y49419D01*
X104913Y49915D01*
X105029Y50500D01*
X104913Y51085D01*
X104581Y51581D01*
X104085Y51913D01*
X103500Y52029D01*
D02*
G37*
G36*
X16627Y53325D02*
X16120Y53225D01*
X15690Y52937D01*
X15403Y52507D01*
X15302Y52000D01*
X15403Y51493D01*
X15690Y51063D01*
X15783Y51001D01*
Y50399D01*
X15690Y50337D01*
X15403Y49907D01*
X15302Y49400D01*
X15403Y48893D01*
X15690Y48463D01*
X16120Y48175D01*
X16627Y48074D01*
X17134Y48175D01*
X17564Y48463D01*
X17852Y48893D01*
X17953Y49400D01*
X17852Y49907D01*
X17564Y50337D01*
X17471Y50399D01*
Y51001D01*
X17564Y51063D01*
X17852Y51493D01*
X17953Y52000D01*
X17852Y52507D01*
X17564Y52937D01*
X17134Y53225D01*
X16627Y53325D01*
D02*
G37*
G36*
X-31750Y49779D02*
X-32335Y49663D01*
X-32831Y49331D01*
X-33163Y48835D01*
X-33279Y48250D01*
X-33163Y47665D01*
X-32831Y47169D01*
X-32335Y46837D01*
X-31750Y46721D01*
X-31165Y46837D01*
X-30669Y47169D01*
X-30337Y47665D01*
X-30221Y48250D01*
X-30337Y48835D01*
X-30669Y49331D01*
X-31165Y49663D01*
X-31750Y49779D01*
D02*
G37*
G36*
X7500Y49529D02*
X6915Y49413D01*
X6419Y49081D01*
X6087Y48585D01*
X5971Y48000D01*
X6087Y47415D01*
X6419Y46919D01*
X6915Y46587D01*
X7500Y46471D01*
X8085Y46587D01*
X8581Y46919D01*
X8913Y47415D01*
X9029Y48000D01*
X8913Y48585D01*
X8581Y49081D01*
X8085Y49413D01*
X7500Y49529D01*
D02*
G37*
G36*
X75000Y48825D02*
X74493Y48725D01*
X74063Y48437D01*
X73775Y48007D01*
X73674Y47500D01*
X73775Y46993D01*
X74063Y46563D01*
X74493Y46275D01*
X75000Y46174D01*
X75507Y46275D01*
X75937Y46563D01*
X76225Y46993D01*
X76326Y47500D01*
X76225Y48007D01*
X75937Y48437D01*
X75507Y48725D01*
X75000Y48825D01*
D02*
G37*
G36*
X117500Y47030D02*
X116915Y46914D01*
X116419Y46582D01*
X116087Y46086D01*
X115971Y45501D01*
X116087Y44916D01*
X116419Y44420D01*
X116915Y44088D01*
X117500Y43972D01*
X118085Y44088D01*
X118581Y44420D01*
X118913Y44916D01*
X119029Y45501D01*
X118913Y46086D01*
X118581Y46582D01*
X118085Y46914D01*
X117500Y47030D01*
D02*
G37*
G36*
X105500Y47029D02*
X104915Y46913D01*
X104419Y46581D01*
X104087Y46085D01*
X103971Y45500D01*
X104087Y44915D01*
X104419Y44419D01*
X104915Y44087D01*
X105500Y43971D01*
X106085Y44087D01*
X106581Y44419D01*
X106913Y44915D01*
X107029Y45500D01*
X106913Y46085D01*
X106581Y46581D01*
X106085Y46913D01*
X105500Y47029D01*
D02*
G37*
G36*
X40271Y43639D02*
X39763Y43538D01*
X39333Y43250D01*
X39271Y43157D01*
X38670D01*
X38608Y43250D01*
X38178Y43538D01*
X37670Y43639D01*
X37163Y43538D01*
X36733Y43250D01*
X36446Y42820D01*
X36345Y42313D01*
X36446Y41806D01*
X36733Y41376D01*
X37163Y41089D01*
X37670Y40988D01*
X38178Y41089D01*
X38608Y41376D01*
X38670Y41469D01*
X39271D01*
X39333Y41376D01*
X39763Y41089D01*
X40271Y40988D01*
X40778Y41089D01*
X41208Y41376D01*
X41495Y41806D01*
X41596Y42313D01*
X41495Y42820D01*
X41208Y43250D01*
X40778Y43538D01*
X40271Y43639D01*
D02*
G37*
G36*
X7500Y45029D02*
X6915Y44913D01*
X6419Y44581D01*
X6087Y44085D01*
X5971Y43500D01*
X6087Y42915D01*
X6419Y42419D01*
X6915Y42087D01*
X7500Y41971D01*
X8085Y42087D01*
X8581Y42419D01*
X8913Y42915D01*
X9029Y43500D01*
X8913Y44085D01*
X8581Y44581D01*
X8085Y44913D01*
X7500Y45029D01*
D02*
G37*
G36*
X-31151Y45318D02*
X-31830Y45182D01*
X-32406Y44798D01*
X-32790Y44222D01*
X-32925Y43543D01*
X-32790Y42864D01*
X-32406Y42289D01*
X-31830Y41904D01*
X-31151Y41769D01*
X-30472Y41904D01*
X-29896Y42289D01*
X-29512Y42864D01*
X-29377Y43543D01*
X-29512Y44222D01*
X-29896Y44798D01*
X-30472Y45182D01*
X-31151Y45318D01*
D02*
G37*
G36*
X83000Y44529D02*
X82415Y44413D01*
X81919Y44081D01*
X81587Y43585D01*
X81471Y43000D01*
X81587Y42415D01*
X81919Y41919D01*
X82415Y41587D01*
X83000Y41471D01*
X83585Y41587D01*
X84081Y41919D01*
X84413Y42415D01*
X84529Y43000D01*
X84413Y43585D01*
X84081Y44081D01*
X83585Y44413D01*
X83000Y44529D01*
D02*
G37*
G36*
X18100Y40453D02*
X17593Y40352D01*
X17163Y40064D01*
X17101Y39971D01*
X16499D01*
X16437Y40064D01*
X16007Y40352D01*
X15500Y40453D01*
X14993Y40352D01*
X14563Y40064D01*
X14275Y39634D01*
X14242Y39468D01*
X13733D01*
X13725Y39507D01*
X13437Y39937D01*
X13007Y40225D01*
X12500Y40325D01*
X11993Y40225D01*
X11563Y39937D01*
X11275Y39507D01*
X11174Y39000D01*
X11275Y38493D01*
X11563Y38063D01*
X11993Y37775D01*
X12500Y37674D01*
X13007Y37775D01*
X13437Y38063D01*
X13725Y38493D01*
X13758Y38660D01*
X14267D01*
X14275Y38620D01*
X14563Y38190D01*
X14993Y37903D01*
X15500Y37802D01*
X16007Y37903D01*
X16437Y38190D01*
X16499Y38283D01*
X17101D01*
X17163Y38190D01*
X17593Y37903D01*
X18100Y37802D01*
X18607Y37903D01*
X19037Y38190D01*
X19325Y38620D01*
X19425Y39127D01*
X19325Y39634D01*
X19037Y40064D01*
X18607Y40352D01*
X18100Y40453D01*
D02*
G37*
G36*
X103000Y42029D02*
X102415Y41913D01*
X101919Y41581D01*
X101587Y41085D01*
X101471Y40500D01*
X101587Y39915D01*
X101919Y39419D01*
X102415Y39087D01*
X103000Y38971D01*
X103585Y39087D01*
X104081Y39419D01*
X104413Y39915D01*
X104529Y40500D01*
X104413Y41085D01*
X104081Y41581D01*
X103585Y41913D01*
X103000Y42029D01*
D02*
G37*
G36*
X49727Y38925D02*
X49219Y38825D01*
X48789Y38537D01*
X48727Y38444D01*
X48126D01*
X48064Y38537D01*
X47634Y38825D01*
X47126Y38925D01*
X46619Y38825D01*
X46189Y38537D01*
X45902Y38107D01*
X45801Y37600D01*
X45902Y37093D01*
X46189Y36663D01*
X46619Y36375D01*
X47126Y36275D01*
X47634Y36375D01*
X48064Y36663D01*
X48126Y36756D01*
X48727D01*
X48789Y36663D01*
X49219Y36375D01*
X49727Y36275D01*
X50234Y36375D01*
X50664Y36663D01*
X50951Y37093D01*
X51052Y37600D01*
X50951Y38107D01*
X50664Y38537D01*
X50234Y38825D01*
X49727Y38925D01*
D02*
G37*
G36*
X-34793Y43330D02*
X-35300Y43230D01*
X-35730Y42942D01*
X-36017Y42512D01*
X-36118Y42005D01*
X-36017Y41498D01*
X-35730Y41068D01*
X-35712Y41056D01*
Y40454D01*
X-35730Y40442D01*
X-36017Y40012D01*
X-36118Y39505D01*
X-36017Y38998D01*
X-35730Y38568D01*
X-35300Y38280D01*
X-34793Y38179D01*
X-34285Y38280D01*
X-33855Y38568D01*
X-33568Y38998D01*
X-33467Y39505D01*
X-33568Y40012D01*
X-33855Y40442D01*
X-33874Y40454D01*
Y41056D01*
X-33855Y41068D01*
X-33568Y41498D01*
X-33467Y42005D01*
X-33568Y42512D01*
X-33855Y42942D01*
X-34285Y43230D01*
X-34793Y43330D01*
D02*
G37*
G36*
X117500Y40530D02*
X116915Y40414D01*
X116419Y40082D01*
X116087Y39586D01*
X115971Y39001D01*
X116087Y38416D01*
X116419Y37920D01*
X116915Y37588D01*
X117500Y37472D01*
X118085Y37588D01*
X118581Y37920D01*
X118913Y38416D01*
X119029Y39001D01*
X118913Y39586D01*
X118581Y40082D01*
X118085Y40414D01*
X117500Y40530D01*
D02*
G37*
G36*
X90000Y39470D02*
X89415Y39354D01*
X88919Y39022D01*
X88587Y38526D01*
X88471Y37941D01*
X88587Y37356D01*
X88919Y36860D01*
X89415Y36528D01*
X90000Y36412D01*
X90585Y36528D01*
X91081Y36860D01*
X91413Y37356D01*
X91529Y37941D01*
X91413Y38526D01*
X91081Y39022D01*
X90585Y39354D01*
X90000Y39470D01*
D02*
G37*
G36*
X-13467Y36770D02*
X-13975Y36669D01*
X-14405Y36382D01*
X-14692Y35952D01*
X-14793Y35445D01*
X-14692Y34937D01*
X-14405Y34507D01*
X-13975Y34220D01*
X-13467Y34119D01*
X-12960Y34220D01*
X-12530Y34507D01*
X-12243Y34937D01*
X-12142Y35445D01*
X-12243Y35952D01*
X-12530Y36382D01*
X-12960Y36669D01*
X-13467Y36770D01*
D02*
G37*
G36*
X-30117Y36311D02*
X-30702Y36195D01*
X-31198Y35863D01*
X-31530Y35367D01*
X-31646Y34782D01*
X-31530Y34197D01*
X-31198Y33701D01*
X-30702Y33369D01*
X-30117Y33253D01*
X-29532Y33369D01*
X-29036Y33701D01*
X-28704Y34197D01*
X-28588Y34782D01*
X-28704Y35367D01*
X-29036Y35863D01*
X-29532Y36195D01*
X-30117Y36311D01*
D02*
G37*
G36*
X-17224Y35328D02*
X-17809Y35212D01*
X-18305Y34880D01*
X-18637Y34384D01*
X-18753Y33799D01*
X-18637Y33214D01*
X-18305Y32718D01*
X-17809Y32386D01*
X-17224Y32270D01*
X-16639Y32386D01*
X-16143Y32718D01*
X-15811Y33214D01*
X-15695Y33799D01*
X-15811Y34384D01*
X-16143Y34880D01*
X-16639Y35212D01*
X-17224Y35328D01*
D02*
G37*
G36*
X117500Y34046D02*
X116915Y33930D01*
X116419Y33598D01*
X116087Y33102D01*
X115971Y32517D01*
X116087Y31932D01*
X116419Y31436D01*
X116915Y31104D01*
X117500Y30988D01*
X118085Y31104D01*
X118581Y31436D01*
X118913Y31932D01*
X119029Y32517D01*
X118913Y33102D01*
X118581Y33598D01*
X118085Y33930D01*
X117500Y34046D01*
D02*
G37*
G36*
X45000Y30825D02*
X44493Y30725D01*
X44063Y30437D01*
X44001Y30344D01*
X43399D01*
X43337Y30437D01*
X42907Y30725D01*
X42400Y30825D01*
X41893Y30725D01*
X41463Y30437D01*
X41175Y30007D01*
X41074Y29500D01*
X41175Y28993D01*
X41463Y28563D01*
X41893Y28275D01*
X42400Y28174D01*
X42907Y28275D01*
X43337Y28563D01*
X43399Y28656D01*
X44001D01*
X44063Y28563D01*
X44493Y28275D01*
X45000Y28174D01*
X45507Y28275D01*
X45937Y28563D01*
X46225Y28993D01*
X46325Y29500D01*
X46225Y30007D01*
X45937Y30437D01*
X45507Y30725D01*
X45000Y30825D01*
D02*
G37*
G36*
X-37261Y30623D02*
X-37768Y30522D01*
X-38198Y30234D01*
X-38210Y30216D01*
X-38812D01*
X-38824Y30234D01*
X-39254Y30522D01*
X-39761Y30623D01*
X-40268Y30522D01*
X-40698Y30234D01*
X-40986Y29804D01*
X-41087Y29297D01*
X-40986Y28790D01*
X-40698Y28360D01*
X-40268Y28072D01*
X-39761Y27972D01*
X-39254Y28072D01*
X-38824Y28360D01*
X-38812Y28378D01*
X-38210D01*
X-38198Y28360D01*
X-37768Y28072D01*
X-37261Y27972D01*
X-36754Y28072D01*
X-36324Y28360D01*
X-36036Y28790D01*
X-35936Y29297D01*
X-36036Y29804D01*
X-36324Y30234D01*
X-36754Y30522D01*
X-37261Y30623D01*
D02*
G37*
G36*
X-12850Y32576D02*
X-13357Y32475D01*
X-13787Y32187D01*
X-14075Y31757D01*
X-14175Y31250D01*
X-14075Y30743D01*
X-13787Y30313D01*
X-13357Y30025D01*
X-12850Y29924D01*
X-12343Y30025D01*
X-11913Y30313D01*
X-11625Y30743D01*
X-11524Y31250D01*
X-11625Y31757D01*
X-11913Y32187D01*
X-12343Y32475D01*
X-12850Y32576D01*
D02*
G37*
G36*
X15400Y32529D02*
X14815Y32413D01*
X14319Y32081D01*
X13987Y31585D01*
X13871Y31000D01*
X13987Y30415D01*
X14319Y29919D01*
X14815Y29587D01*
X15400Y29471D01*
X15985Y29587D01*
X16481Y29919D01*
X16813Y30415D01*
X16929Y31000D01*
X16813Y31585D01*
X16481Y32081D01*
X15985Y32413D01*
X15400Y32529D01*
D02*
G37*
G36*
X109698Y30529D02*
X109113Y30413D01*
X108617Y30081D01*
X108285Y29585D01*
X108169Y29000D01*
X108285Y28415D01*
X108617Y27919D01*
X109113Y27587D01*
X109698Y27471D01*
X110283Y27587D01*
X110779Y27919D01*
X111111Y28415D01*
X111227Y29000D01*
X111111Y29585D01*
X110779Y30081D01*
X110283Y30413D01*
X109698Y30529D01*
D02*
G37*
G36*
X103000D02*
X102415Y30413D01*
X101919Y30081D01*
X101587Y29585D01*
X101471Y29000D01*
X101587Y28415D01*
X101919Y27919D01*
X102415Y27587D01*
X103000Y27471D01*
X103585Y27587D01*
X104081Y27919D01*
X104413Y28415D01*
X104529Y29000D01*
X104413Y29585D01*
X104081Y30081D01*
X103585Y30413D01*
X103000Y30529D01*
D02*
G37*
G36*
X90000Y27970D02*
X89415Y27854D01*
X88919Y27522D01*
X88587Y27026D01*
X88471Y26441D01*
X88587Y25856D01*
X88919Y25360D01*
X89415Y25028D01*
X90000Y24912D01*
X90585Y25028D01*
X91081Y25360D01*
X91413Y25856D01*
X91529Y26441D01*
X91413Y27026D01*
X91081Y27522D01*
X90585Y27854D01*
X90000Y27970D01*
D02*
G37*
G36*
X-3035Y29504D02*
X-3542Y29403D01*
X-3972Y29116D01*
X-4259Y28686D01*
X-4360Y28179D01*
X-4259Y27671D01*
X-3972Y27241D01*
X-3879Y27179D01*
Y26578D01*
X-3972Y26516D01*
X-4259Y26086D01*
X-4360Y25578D01*
X-4259Y25071D01*
X-3972Y24641D01*
X-3542Y24354D01*
X-3035Y24253D01*
X-2527Y24354D01*
X-2097Y24641D01*
X-1810Y25071D01*
X-1709Y25578D01*
X-1810Y26086D01*
X-2097Y26516D01*
X-2190Y26578D01*
Y27179D01*
X-2097Y27241D01*
X-1810Y27671D01*
X-1709Y28179D01*
X-1810Y28686D01*
X-2097Y29116D01*
X-2527Y29403D01*
X-3035Y29504D01*
D02*
G37*
G36*
X-6935D02*
X-7442Y29403D01*
X-7872Y29116D01*
X-8159Y28686D01*
X-8260Y28179D01*
X-8159Y27671D01*
X-7872Y27241D01*
X-7779Y27179D01*
Y26578D01*
X-7872Y26516D01*
X-8159Y26086D01*
X-8260Y25578D01*
X-8159Y25071D01*
X-7872Y24641D01*
X-7442Y24354D01*
X-6935Y24253D01*
X-6427Y24354D01*
X-5997Y24641D01*
X-5710Y25071D01*
X-5609Y25578D01*
X-5710Y26086D01*
X-5997Y26516D01*
X-6090Y26578D01*
Y27179D01*
X-5997Y27241D01*
X-5710Y27671D01*
X-5609Y28179D01*
X-5710Y28686D01*
X-5997Y29116D01*
X-6427Y29403D01*
X-6935Y29504D01*
D02*
G37*
G36*
X-14214Y29204D02*
X-14722Y29103D01*
X-15152Y28816D01*
X-15439Y28386D01*
X-15540Y27878D01*
X-15439Y27371D01*
X-15152Y26941D01*
X-15059Y26879D01*
Y26278D01*
X-15152Y26216D01*
X-15439Y25786D01*
X-15540Y25278D01*
X-15439Y24771D01*
X-15152Y24341D01*
X-14722Y24054D01*
X-14214Y23953D01*
X-13707Y24054D01*
X-13277Y24341D01*
X-12990Y24771D01*
X-12889Y25278D01*
X-12990Y25786D01*
X-13277Y26216D01*
X-13370Y26278D01*
Y26879D01*
X-13277Y26941D01*
X-12990Y27371D01*
X-12889Y27878D01*
X-12990Y28386D01*
X-13277Y28816D01*
X-13707Y29103D01*
X-14214Y29204D01*
D02*
G37*
G36*
X21373Y28826D02*
X20866Y28725D01*
X20436Y28437D01*
X20148Y28007D01*
X20048Y27500D01*
X20148Y26993D01*
X20436Y26563D01*
X20529Y26501D01*
Y25899D01*
X20436Y25837D01*
X20148Y25407D01*
X20048Y24900D01*
X20148Y24393D01*
X20436Y23963D01*
X20866Y23675D01*
X21373Y23574D01*
X21880Y23675D01*
X22310Y23963D01*
X22598Y24393D01*
X22698Y24900D01*
X22598Y25407D01*
X22310Y25837D01*
X22217Y25899D01*
Y26501D01*
X22310Y26563D01*
X22598Y26993D01*
X22698Y27500D01*
X22598Y28007D01*
X22310Y28437D01*
X21880Y28725D01*
X21373Y28826D01*
D02*
G37*
G36*
X76500Y26529D02*
X75915Y26413D01*
X75419Y26081D01*
X75087Y25585D01*
X74971Y25000D01*
X75087Y24415D01*
X75419Y23919D01*
X75915Y23587D01*
X76500Y23471D01*
X77085Y23587D01*
X77581Y23919D01*
X77913Y24415D01*
X78029Y25000D01*
X77913Y25585D01*
X77581Y26081D01*
X77085Y26413D01*
X76500Y26529D01*
D02*
G37*
G36*
X-30117Y26470D02*
X-30702Y26354D01*
X-31198Y26022D01*
X-31530Y25526D01*
X-31646Y24941D01*
X-31530Y24356D01*
X-31198Y23860D01*
X-30702Y23528D01*
X-30117Y23412D01*
X-29532Y23528D01*
X-29036Y23860D01*
X-28704Y24356D01*
X-28588Y24941D01*
X-28704Y25526D01*
X-29036Y26022D01*
X-29532Y26354D01*
X-30117Y26470D01*
D02*
G37*
G36*
X-17500Y25126D02*
X-18007Y25025D01*
X-18437Y24737D01*
X-18725Y24307D01*
X-18825Y23800D01*
X-18725Y23293D01*
X-18437Y22863D01*
X-18007Y22575D01*
X-17500Y22475D01*
X-16993Y22575D01*
X-16563Y22863D01*
X-16275Y23293D01*
X-16174Y23800D01*
X-16275Y24307D01*
X-16563Y24737D01*
X-16993Y25025D01*
X-17500Y25126D01*
D02*
G37*
G36*
X67000Y23029D02*
X66415Y22913D01*
X65919Y22581D01*
X65587Y22085D01*
X65471Y21500D01*
X65587Y20915D01*
X65919Y20419D01*
X66415Y20087D01*
X67000Y19971D01*
X67585Y20087D01*
X68081Y20419D01*
X68413Y20915D01*
X68529Y21500D01*
X68413Y22085D01*
X68081Y22581D01*
X67585Y22913D01*
X67000Y23029D01*
D02*
G37*
G36*
X14000Y22325D02*
X13493Y22225D01*
X13063Y21937D01*
X12775Y21507D01*
X12675Y21000D01*
X12775Y20493D01*
X13063Y20063D01*
X13493Y19775D01*
X14000Y19674D01*
X14507Y19775D01*
X14937Y20063D01*
X15225Y20493D01*
X15326Y21000D01*
X15225Y21507D01*
X14937Y21937D01*
X14507Y22225D01*
X14000Y22325D01*
D02*
G37*
G36*
X34000Y22029D02*
X33415Y21913D01*
X32919Y21581D01*
X32587Y21085D01*
X32471Y20500D01*
X32587Y19915D01*
X32919Y19419D01*
X33415Y19087D01*
X34000Y18971D01*
X34585Y19087D01*
X35081Y19419D01*
X35413Y19915D01*
X35529Y20500D01*
X35413Y21085D01*
X35081Y21581D01*
X34585Y21913D01*
X34000Y22029D01*
D02*
G37*
G36*
X-42204Y21855D02*
X-42789Y21739D01*
X-43285Y21407D01*
X-43617Y20911D01*
X-43733Y20326D01*
X-43617Y19741D01*
X-43285Y19245D01*
X-42789Y18913D01*
X-42204Y18797D01*
X-41619Y18913D01*
X-41123Y19245D01*
X-40791Y19741D01*
X-40675Y20326D01*
X-40791Y20911D01*
X-41123Y21407D01*
X-41619Y21739D01*
X-42204Y21855D01*
D02*
G37*
G36*
X-37224Y21824D02*
X-37731Y21724D01*
X-38161Y21436D01*
X-38449Y21006D01*
X-38550Y20499D01*
X-38449Y19992D01*
X-38161Y19562D01*
X-38143Y19550D01*
Y18948D01*
X-38161Y18936D01*
X-38449Y18506D01*
X-38550Y17999D01*
X-38449Y17492D01*
X-38161Y17062D01*
X-37731Y16774D01*
X-37224Y16673D01*
X-36717Y16774D01*
X-36287Y17062D01*
X-35999Y17492D01*
X-35899Y17999D01*
X-35999Y18506D01*
X-36287Y18936D01*
X-36305Y18948D01*
Y19550D01*
X-36287Y19562D01*
X-35999Y19992D01*
X-35899Y20499D01*
X-35999Y21006D01*
X-36287Y21436D01*
X-36717Y21724D01*
X-37224Y21824D01*
D02*
G37*
G36*
X58500Y19029D02*
X57915Y18913D01*
X57419Y18581D01*
X57087Y18085D01*
X56971Y17500D01*
X57087Y16915D01*
X57419Y16419D01*
X57915Y16087D01*
X58500Y15971D01*
X59085Y16087D01*
X59581Y16419D01*
X59913Y16915D01*
X60029Y17500D01*
X59913Y18085D01*
X59581Y18581D01*
X59085Y18913D01*
X58500Y19029D01*
D02*
G37*
G36*
X53500D02*
X52915Y18913D01*
X52419Y18581D01*
X52087Y18085D01*
X51971Y17500D01*
X52087Y16915D01*
X52419Y16419D01*
X52915Y16087D01*
X53500Y15971D01*
X54085Y16087D01*
X54581Y16419D01*
X54913Y16915D01*
X55029Y17500D01*
X54913Y18085D01*
X54581Y18581D01*
X54085Y18913D01*
X53500Y19029D01*
D02*
G37*
G36*
X21000Y18029D02*
X20415Y17913D01*
X19919Y17581D01*
X19587Y17085D01*
X19471Y16500D01*
X19587Y15915D01*
X19919Y15419D01*
X20415Y15087D01*
X21000Y14971D01*
X21585Y15087D01*
X22081Y15419D01*
X22413Y15915D01*
X22529Y16500D01*
X22413Y17085D01*
X22081Y17581D01*
X21585Y17913D01*
X21000Y18029D01*
D02*
G37*
G36*
X-30895Y17399D02*
X-31474Y17284D01*
X-31965Y16956D01*
X-32293Y16465D01*
X-32408Y15886D01*
Y14508D01*
X-32293Y13929D01*
X-31965Y13438D01*
X-31474Y13110D01*
X-30895Y12994D01*
X-30316Y13110D01*
X-29825Y13438D01*
X-29497Y13929D01*
X-29382Y14508D01*
Y15886D01*
X-29497Y16465D01*
X-29825Y16956D01*
X-30316Y17284D01*
X-30895Y17399D01*
D02*
G37*
G36*
X68800Y15694D02*
X68215Y15578D01*
X67719Y15246D01*
X67387Y14750D01*
X67271Y14165D01*
X67387Y13580D01*
X67719Y13084D01*
X68215Y12752D01*
X68800Y12636D01*
X69385Y12752D01*
X69881Y13084D01*
X70213Y13580D01*
X70329Y14165D01*
X70213Y14750D01*
X69881Y15246D01*
X69385Y15578D01*
X68800Y15694D01*
D02*
G37*
G36*
X-6126Y17231D02*
X-6634Y17130D01*
X-7064Y16842D01*
X-7351Y16412D01*
X-7452Y15905D01*
X-7351Y15398D01*
X-7064Y14968D01*
X-6971Y14906D01*
Y14304D01*
X-7064Y14242D01*
X-7351Y13812D01*
X-7452Y13305D01*
X-7351Y12798D01*
X-7064Y12368D01*
X-6634Y12080D01*
X-6126Y11980D01*
X-5619Y12080D01*
X-5189Y12368D01*
X-4902Y12798D01*
X-4801Y13305D01*
X-4902Y13812D01*
X-5189Y14242D01*
X-5282Y14304D01*
Y14906D01*
X-5189Y14968D01*
X-4902Y15398D01*
X-4801Y15905D01*
X-4902Y16412D01*
X-5189Y16842D01*
X-5619Y17130D01*
X-6126Y17231D01*
D02*
G37*
G36*
X-16423D02*
X-16931Y17130D01*
X-17361Y16842D01*
X-17648Y16412D01*
X-17749Y15905D01*
X-17648Y15398D01*
X-17361Y14968D01*
X-17268Y14906D01*
Y14304D01*
X-17361Y14242D01*
X-17648Y13812D01*
X-17749Y13305D01*
X-17648Y12798D01*
X-17361Y12368D01*
X-16931Y12080D01*
X-16423Y11980D01*
X-15916Y12080D01*
X-15486Y12368D01*
X-15199Y12798D01*
X-15098Y13305D01*
X-15199Y13812D01*
X-15486Y14242D01*
X-15579Y14304D01*
Y14906D01*
X-15486Y14968D01*
X-15199Y15398D01*
X-15098Y15905D01*
X-15199Y16412D01*
X-15486Y16842D01*
X-15916Y17130D01*
X-16423Y17231D01*
D02*
G37*
G36*
X51000Y12249D02*
X50415Y12133D01*
X49919Y11801D01*
X49587Y11305D01*
X49471Y10720D01*
X49587Y10135D01*
X49919Y9639D01*
X50415Y9307D01*
X51000Y9191D01*
X51585Y9307D01*
X52081Y9639D01*
X52413Y10135D01*
X52529Y10720D01*
X52413Y11305D01*
X52081Y11801D01*
X51585Y12133D01*
X51000Y12249D01*
D02*
G37*
G36*
X47339Y9690D02*
X46754Y9574D01*
X46258Y9242D01*
X45926Y8746D01*
X45810Y8161D01*
X45926Y7576D01*
X46258Y7080D01*
X46754Y6748D01*
X47339Y6632D01*
X47924Y6748D01*
X48420Y7080D01*
X48752Y7576D01*
X48868Y8161D01*
X48752Y8746D01*
X48420Y9242D01*
X47924Y9574D01*
X47339Y9690D01*
D02*
G37*
G36*
X-17500Y9029D02*
X-18085Y8913D01*
X-18581Y8581D01*
X-18913Y8085D01*
X-19029Y7500D01*
X-18913Y6915D01*
X-18581Y6419D01*
X-18085Y6087D01*
X-17500Y5971D01*
X-16915Y6087D01*
X-16419Y6419D01*
X-16087Y6915D01*
X-15971Y7500D01*
X-16087Y8085D01*
X-16419Y8581D01*
X-16915Y8913D01*
X-17500Y9029D01*
D02*
G37*
G36*
X58000Y8029D02*
X57415Y7913D01*
X56919Y7581D01*
X56587Y7085D01*
X56471Y6500D01*
X56587Y5915D01*
X56919Y5419D01*
X57415Y5087D01*
X58000Y4971D01*
X58585Y5087D01*
X59081Y5419D01*
X59413Y5915D01*
X59529Y6500D01*
X59413Y7085D01*
X59081Y7581D01*
X58585Y7913D01*
X58000Y8029D01*
D02*
G37*
G36*
X53500D02*
X52915Y7913D01*
X52419Y7581D01*
X52087Y7085D01*
X51971Y6500D01*
X52087Y5915D01*
X52419Y5419D01*
X52915Y5087D01*
X53500Y4971D01*
X54085Y5087D01*
X54581Y5419D01*
X54913Y5915D01*
X55029Y6500D01*
X54913Y7085D01*
X54581Y7581D01*
X54085Y7913D01*
X53500Y8029D01*
D02*
G37*
G36*
X21000Y6029D02*
X20415Y5913D01*
X19919Y5581D01*
X19587Y5085D01*
X19471Y4500D01*
X19587Y3915D01*
X19919Y3419D01*
X20415Y3087D01*
X21000Y2971D01*
X21585Y3087D01*
X22081Y3419D01*
X22413Y3915D01*
X22529Y4500D01*
X22413Y5085D01*
X22081Y5581D01*
X21585Y5913D01*
X21000Y6029D01*
D02*
G37*
G36*
X83000Y4029D02*
X82415Y3913D01*
X81919Y3581D01*
X81587Y3085D01*
X81471Y2500D01*
X81587Y1915D01*
X81919Y1419D01*
X82415Y1087D01*
X83000Y971D01*
X83585Y1087D01*
X84081Y1419D01*
X84413Y1915D01*
X84529Y2500D01*
X84413Y3085D01*
X84081Y3581D01*
X83585Y3913D01*
X83000Y4029D01*
D02*
G37*
G36*
X37000D02*
X36415Y3913D01*
X35919Y3581D01*
X35587Y3085D01*
X35471Y2500D01*
X35587Y1915D01*
X35919Y1419D01*
X36415Y1087D01*
X37000Y971D01*
X37585Y1087D01*
X38081Y1419D01*
X38413Y1915D01*
X38529Y2500D01*
X38413Y3085D01*
X38081Y3581D01*
X37585Y3913D01*
X37000Y4029D01*
D02*
G37*
G36*
X32500D02*
X31915Y3913D01*
X31419Y3581D01*
X31087Y3085D01*
X30971Y2500D01*
X31087Y1915D01*
X31419Y1419D01*
X31915Y1087D01*
X32500Y971D01*
X33085Y1087D01*
X33581Y1419D01*
X33913Y1915D01*
X34029Y2500D01*
X33913Y3085D01*
X33581Y3581D01*
X33085Y3913D01*
X32500Y4029D01*
D02*
G37*
G36*
X-44000Y1529D02*
X-44585Y1413D01*
X-45081Y1081D01*
X-45413Y585D01*
X-45529Y0D01*
X-45413Y-585D01*
X-45081Y-1081D01*
X-44585Y-1413D01*
X-44000Y-1529D01*
X-43415Y-1413D01*
X-42919Y-1081D01*
X-42587Y-585D01*
X-42471Y0D01*
X-42587Y585D01*
X-42919Y1081D01*
X-43415Y1413D01*
X-44000Y1529D01*
D02*
G37*
G36*
X55000Y-5971D02*
X54415Y-6087D01*
X53919Y-6419D01*
X53587Y-6915D01*
X53471Y-7500D01*
X53587Y-8085D01*
X53919Y-8581D01*
X54415Y-8913D01*
X55000Y-9029D01*
X55585Y-8913D01*
X56081Y-8581D01*
X56413Y-8085D01*
X56529Y-7500D01*
X56413Y-6915D01*
X56081Y-6419D01*
X55585Y-6087D01*
X55000Y-5971D01*
D02*
G37*
G36*
X45500Y-11174D02*
X44993Y-11275D01*
X44563Y-11563D01*
X44275Y-11993D01*
X44175Y-12500D01*
X44275Y-13007D01*
X44563Y-13437D01*
X44993Y-13725D01*
X45500Y-13826D01*
X46007Y-13725D01*
X46437Y-13437D01*
X46725Y-13007D01*
X46826Y-12500D01*
X46725Y-11993D01*
X46437Y-11563D01*
X46007Y-11275D01*
X45500Y-11174D01*
D02*
G37*
G36*
X29500Y-10971D02*
X28915Y-11087D01*
X28419Y-11419D01*
X28087Y-11915D01*
X27971Y-12500D01*
X28087Y-13085D01*
X28419Y-13581D01*
X28915Y-13913D01*
X29500Y-14029D01*
X30085Y-13913D01*
X30581Y-13581D01*
X30913Y-13085D01*
X31029Y-12500D01*
X30913Y-11915D01*
X30581Y-11419D01*
X30085Y-11087D01*
X29500Y-10971D01*
D02*
G37*
G36*
X25000D02*
X24415Y-11087D01*
X23919Y-11419D01*
X23587Y-11915D01*
X23471Y-12500D01*
X23587Y-13085D01*
X23919Y-13581D01*
X24415Y-13913D01*
X25000Y-14029D01*
X25585Y-13913D01*
X26081Y-13581D01*
X26413Y-13085D01*
X26529Y-12500D01*
X26413Y-11915D01*
X26081Y-11419D01*
X25585Y-11087D01*
X25000Y-10971D01*
D02*
G37*
G36*
X88250Y-12221D02*
X87665Y-12337D01*
X87169Y-12669D01*
X86837Y-13165D01*
X86721Y-13750D01*
X86837Y-14335D01*
X87169Y-14831D01*
X87665Y-15163D01*
X88250Y-15279D01*
X88835Y-15163D01*
X89331Y-14831D01*
X89663Y-14335D01*
X89779Y-13750D01*
X89663Y-13165D01*
X89331Y-12669D01*
X88835Y-12337D01*
X88250Y-12221D01*
D02*
G37*
G36*
X70000Y-12471D02*
X69415Y-12587D01*
X68919Y-12919D01*
X68587Y-13415D01*
X68471Y-14000D01*
X68587Y-14585D01*
X68919Y-15081D01*
X69415Y-15413D01*
X70000Y-15529D01*
X70585Y-15413D01*
X71081Y-15081D01*
X71413Y-14585D01*
X71529Y-14000D01*
X71413Y-13415D01*
X71081Y-12919D01*
X70585Y-12587D01*
X70000Y-12471D01*
D02*
G37*
G36*
X63000Y-15971D02*
X62415Y-16087D01*
X61919Y-16419D01*
X61587Y-16915D01*
X61471Y-17500D01*
X61587Y-18085D01*
X61919Y-18581D01*
X62415Y-18913D01*
X63000Y-19029D01*
X63585Y-18913D01*
X64081Y-18581D01*
X64413Y-18085D01*
X64529Y-17500D01*
X64413Y-16915D01*
X64081Y-16419D01*
X63585Y-16087D01*
X63000Y-15971D01*
D02*
G37*
G36*
X58500D02*
X57915Y-16087D01*
X57419Y-16419D01*
X57087Y-16915D01*
X56971Y-17500D01*
X57087Y-18085D01*
X57419Y-18581D01*
X57915Y-18913D01*
X58500Y-19029D01*
X59085Y-18913D01*
X59581Y-18581D01*
X59913Y-18085D01*
X60029Y-17500D01*
X59913Y-16915D01*
X59581Y-16419D01*
X59085Y-16087D01*
X58500Y-15971D01*
D02*
G37*
G36*
X29500Y-16971D02*
X28915Y-17087D01*
X28419Y-17419D01*
X28087Y-17915D01*
X27971Y-18500D01*
X28087Y-19085D01*
X28419Y-19581D01*
X28915Y-19913D01*
X29500Y-20029D01*
X30085Y-19913D01*
X30581Y-19581D01*
X30913Y-19085D01*
X31029Y-18500D01*
X30913Y-17915D01*
X30581Y-17419D01*
X30085Y-17087D01*
X29500Y-16971D01*
D02*
G37*
G36*
X25000D02*
X24415Y-17087D01*
X23919Y-17419D01*
X23587Y-17915D01*
X23471Y-18500D01*
X23587Y-19085D01*
X23919Y-19581D01*
X24415Y-19913D01*
X25000Y-20029D01*
X25585Y-19913D01*
X26081Y-19581D01*
X26413Y-19085D01*
X26529Y-18500D01*
X26413Y-17915D01*
X26081Y-17419D01*
X25585Y-17087D01*
X25000Y-16971D01*
D02*
G37*
G36*
X76500Y-17171D02*
X75915Y-17287D01*
X75419Y-17619D01*
X75087Y-18115D01*
X74971Y-18700D01*
X75087Y-19285D01*
X75419Y-19781D01*
X75915Y-20113D01*
X76500Y-20229D01*
X77085Y-20113D01*
X77581Y-19781D01*
X77913Y-19285D01*
X78029Y-18700D01*
X77913Y-18115D01*
X77581Y-17619D01*
X77085Y-17287D01*
X76500Y-17171D01*
D02*
G37*
G36*
X50500Y-17971D02*
X49915Y-18087D01*
X49419Y-18419D01*
X49087Y-18915D01*
X48971Y-19500D01*
X49087Y-20085D01*
X49419Y-20581D01*
X49915Y-20913D01*
X50500Y-21029D01*
X51085Y-20913D01*
X51581Y-20581D01*
X51913Y-20085D01*
X52029Y-19500D01*
X51913Y-18915D01*
X51581Y-18419D01*
X51085Y-18087D01*
X50500Y-17971D01*
D02*
G37*
G36*
X46000D02*
X45415Y-18087D01*
X44919Y-18419D01*
X44587Y-18915D01*
X44471Y-19500D01*
X44587Y-20085D01*
X44919Y-20581D01*
X45415Y-20913D01*
X46000Y-21029D01*
X46585Y-20913D01*
X47081Y-20581D01*
X47413Y-20085D01*
X47529Y-19500D01*
X47413Y-18915D01*
X47081Y-18419D01*
X46585Y-18087D01*
X46000Y-17971D01*
D02*
G37*
G36*
X21000D02*
X20415Y-18087D01*
X19919Y-18419D01*
X19587Y-18915D01*
X19471Y-19500D01*
X19587Y-20085D01*
X19919Y-20581D01*
X20415Y-20913D01*
X21000Y-21029D01*
X21585Y-20913D01*
X22081Y-20581D01*
X22413Y-20085D01*
X22529Y-19500D01*
X22413Y-18915D01*
X22081Y-18419D01*
X21585Y-18087D01*
X21000Y-17971D01*
D02*
G37*
G36*
X17000D02*
X16415Y-18087D01*
X15919Y-18419D01*
X15587Y-18915D01*
X15471Y-19500D01*
X15587Y-20085D01*
X15919Y-20581D01*
X16415Y-20913D01*
X17000Y-21029D01*
X17585Y-20913D01*
X18081Y-20581D01*
X18413Y-20085D01*
X18529Y-19500D01*
X18413Y-18915D01*
X18081Y-18419D01*
X17585Y-18087D01*
X17000Y-17971D01*
D02*
G37*
G36*
X66500Y-23471D02*
X65915Y-23587D01*
X65419Y-23919D01*
X65087Y-24415D01*
X64971Y-25000D01*
X65087Y-25585D01*
X65419Y-26081D01*
X65915Y-26413D01*
X66500Y-26529D01*
X67085Y-26413D01*
X67581Y-26081D01*
X67913Y-25585D01*
X68029Y-25000D01*
X67913Y-24415D01*
X67581Y-23919D01*
X67085Y-23587D01*
X66500Y-23471D01*
D02*
G37*
G36*
X55500Y-23971D02*
X54915Y-24087D01*
X54419Y-24419D01*
X54087Y-24915D01*
X53971Y-25500D01*
X54087Y-26085D01*
X54419Y-26581D01*
X54915Y-26913D01*
X55500Y-27029D01*
X56085Y-26913D01*
X56581Y-26581D01*
X56913Y-26085D01*
X57029Y-25500D01*
X56913Y-24915D01*
X56581Y-24419D01*
X56085Y-24087D01*
X55500Y-23971D01*
D02*
G37*
G36*
X37000Y-24471D02*
X36415Y-24587D01*
X35919Y-24919D01*
X35587Y-25415D01*
X35471Y-26000D01*
X35587Y-26585D01*
X35919Y-27081D01*
X36415Y-27413D01*
X37000Y-27529D01*
X37585Y-27413D01*
X38081Y-27081D01*
X38413Y-26585D01*
X38529Y-26000D01*
X38413Y-25415D01*
X38081Y-24919D01*
X37585Y-24587D01*
X37000Y-24471D01*
D02*
G37*
G36*
X43400Y-24571D02*
X42815Y-24687D01*
X42319Y-25019D01*
X41987Y-25515D01*
X41871Y-26100D01*
X41987Y-26685D01*
X42319Y-27181D01*
X42815Y-27513D01*
X43400Y-27629D01*
X43985Y-27513D01*
X44481Y-27181D01*
X44813Y-26685D01*
X44929Y-26100D01*
X44813Y-25515D01*
X44481Y-25019D01*
X43985Y-24687D01*
X43400Y-24571D01*
D02*
G37*
G36*
X63386Y-25971D02*
X62801Y-26087D01*
X62305Y-26419D01*
X61973Y-26915D01*
X61857Y-27500D01*
X61973Y-28085D01*
X62305Y-28581D01*
X62801Y-28913D01*
X63386Y-29029D01*
X63971Y-28913D01*
X64467Y-28581D01*
X64799Y-28085D01*
X64915Y-27500D01*
X64799Y-26915D01*
X64467Y-26419D01*
X63971Y-26087D01*
X63386Y-25971D01*
D02*
G37*
G36*
X69200Y-27871D02*
X68615Y-27987D01*
X68119Y-28319D01*
X67787Y-28815D01*
X67671Y-29400D01*
X67787Y-29985D01*
X68119Y-30481D01*
X68615Y-30813D01*
X69200Y-30929D01*
X69785Y-30813D01*
X70281Y-30481D01*
X70613Y-29985D01*
X70729Y-29400D01*
X70613Y-28815D01*
X70281Y-28319D01*
X69785Y-27987D01*
X69200Y-27871D01*
D02*
G37*
G36*
X1500Y-27971D02*
X915Y-28087D01*
X419Y-28419D01*
X87Y-28915D01*
X-29Y-29500D01*
X87Y-30085D01*
X419Y-30581D01*
X915Y-30913D01*
X1500Y-31029D01*
X2085Y-30913D01*
X2581Y-30581D01*
X2913Y-30085D01*
X3029Y-29500D01*
X2913Y-28915D01*
X2581Y-28419D01*
X2085Y-28087D01*
X1500Y-27971D01*
D02*
G37*
G36*
X40000Y-28471D02*
X39415Y-28587D01*
X38919Y-28919D01*
X38587Y-29415D01*
X38471Y-30000D01*
X38587Y-30585D01*
X38919Y-31081D01*
X39415Y-31413D01*
X40000Y-31529D01*
X40585Y-31413D01*
X41081Y-31081D01*
X41413Y-30585D01*
X41529Y-30000D01*
X41413Y-29415D01*
X41081Y-28919D01*
X40585Y-28587D01*
X40000Y-28471D01*
D02*
G37*
G36*
X26300Y-28771D02*
X25715Y-28887D01*
X25219Y-29219D01*
X24887Y-29715D01*
X24771Y-30300D01*
X24887Y-30885D01*
X25219Y-31381D01*
X25715Y-31713D01*
X26300Y-31829D01*
X26885Y-31713D01*
X27381Y-31381D01*
X27713Y-30885D01*
X27829Y-30300D01*
X27713Y-29715D01*
X27381Y-29219D01*
X26885Y-28887D01*
X26300Y-28771D01*
D02*
G37*
G36*
X74500Y-30471D02*
X73915Y-30587D01*
X73419Y-30919D01*
X73087Y-31415D01*
X72971Y-32000D01*
X73087Y-32585D01*
X73419Y-33081D01*
X73915Y-33413D01*
X74500Y-33529D01*
X75085Y-33413D01*
X75581Y-33081D01*
X75913Y-32585D01*
X76029Y-32000D01*
X75913Y-31415D01*
X75581Y-30919D01*
X75085Y-30587D01*
X74500Y-30471D01*
D02*
G37*
G36*
X38300Y-34971D02*
X37715Y-35087D01*
X37219Y-35419D01*
X36887Y-35915D01*
X36771Y-36500D01*
X36887Y-37085D01*
X37219Y-37581D01*
X37715Y-37913D01*
X38300Y-38029D01*
X38885Y-37913D01*
X39381Y-37581D01*
X39713Y-37085D01*
X39829Y-36500D01*
X39713Y-35915D01*
X39381Y-35419D01*
X38885Y-35087D01*
X38300Y-34971D01*
D02*
G37*
G36*
X34000D02*
X33415Y-35087D01*
X32919Y-35419D01*
X32587Y-35915D01*
X32471Y-36500D01*
X32587Y-37085D01*
X32919Y-37581D01*
X33415Y-37913D01*
X34000Y-38029D01*
X34585Y-37913D01*
X35081Y-37581D01*
X35413Y-37085D01*
X35529Y-36500D01*
X35413Y-35915D01*
X35081Y-35419D01*
X34585Y-35087D01*
X34000Y-34971D01*
D02*
G37*
G36*
X68000Y-35471D02*
X67415Y-35587D01*
X66919Y-35919D01*
X66587Y-36415D01*
X66471Y-37000D01*
X66587Y-37585D01*
X66919Y-38081D01*
X67415Y-38413D01*
X68000Y-38529D01*
X68585Y-38413D01*
X69081Y-38081D01*
X69413Y-37585D01*
X69529Y-37000D01*
X69413Y-36415D01*
X69081Y-35919D01*
X68585Y-35587D01*
X68000Y-35471D01*
D02*
G37*
G36*
X26300Y-38171D02*
X25715Y-38287D01*
X25219Y-38619D01*
X24887Y-39115D01*
X24771Y-39700D01*
X24887Y-40285D01*
X25219Y-40781D01*
X25715Y-41113D01*
X26300Y-41229D01*
X26885Y-41113D01*
X27381Y-40781D01*
X27713Y-40285D01*
X27829Y-39700D01*
X27713Y-39115D01*
X27381Y-38619D01*
X26885Y-38287D01*
X26300Y-38171D01*
D02*
G37*
G36*
X15000Y-39971D02*
X14415Y-40087D01*
X13919Y-40419D01*
X13587Y-40915D01*
X13471Y-41500D01*
X13587Y-42085D01*
X13919Y-42581D01*
X14415Y-42913D01*
X15000Y-43029D01*
X15585Y-42913D01*
X16081Y-42581D01*
X16413Y-42085D01*
X16529Y-41500D01*
X16413Y-40915D01*
X16081Y-40419D01*
X15585Y-40087D01*
X15000Y-39971D01*
D02*
G37*
G36*
X68000Y-40471D02*
X67415Y-40587D01*
X66919Y-40919D01*
X66587Y-41415D01*
X66471Y-42000D01*
X66587Y-42585D01*
X66919Y-43081D01*
X67415Y-43413D01*
X68000Y-43529D01*
X68585Y-43413D01*
X69081Y-43081D01*
X69413Y-42585D01*
X69529Y-42000D01*
X69413Y-41415D01*
X69081Y-40919D01*
X68585Y-40587D01*
X68000Y-40471D01*
D02*
G37*
G36*
X46000D02*
X45415Y-40587D01*
X44919Y-40919D01*
X44587Y-41415D01*
X44471Y-42000D01*
X44587Y-42585D01*
X44919Y-43081D01*
X45415Y-43413D01*
X46000Y-43529D01*
X46585Y-43413D01*
X47081Y-43081D01*
X47413Y-42585D01*
X47529Y-42000D01*
X47413Y-41415D01*
X47081Y-40919D01*
X46585Y-40587D01*
X46000Y-40471D01*
D02*
G37*
G36*
X42000D02*
X41415Y-40587D01*
X40919Y-40919D01*
X40587Y-41415D01*
X40471Y-42000D01*
X40587Y-42585D01*
X40919Y-43081D01*
X41415Y-43413D01*
X42000Y-43529D01*
X42585Y-43413D01*
X43081Y-43081D01*
X43413Y-42585D01*
X43529Y-42000D01*
X43413Y-41415D01*
X43081Y-40919D01*
X42585Y-40587D01*
X42000Y-40471D01*
D02*
G37*
G36*
X53000Y-40971D02*
X52415Y-41087D01*
X51919Y-41419D01*
X51587Y-41915D01*
X51471Y-42500D01*
X51587Y-43085D01*
X51919Y-43581D01*
X52415Y-43913D01*
X53000Y-44029D01*
X53585Y-43913D01*
X54081Y-43581D01*
X54413Y-43085D01*
X54529Y-42500D01*
X54413Y-41915D01*
X54081Y-41419D01*
X53585Y-41087D01*
X53000Y-40971D01*
D02*
G37*
G36*
X15500Y-43471D02*
X14915Y-43587D01*
X14419Y-43919D01*
X14087Y-44415D01*
X13971Y-45000D01*
X14087Y-45585D01*
X14419Y-46081D01*
X14915Y-46413D01*
X15500Y-46529D01*
X16085Y-46413D01*
X16581Y-46081D01*
X16913Y-45585D01*
X17029Y-45000D01*
X16913Y-44415D01*
X16581Y-43919D01*
X16085Y-43587D01*
X15500Y-43471D01*
D02*
G37*
G36*
X66535Y-46971D02*
X65950Y-47087D01*
X65454Y-47419D01*
X65122Y-47915D01*
X65006Y-48500D01*
X65122Y-49085D01*
X65454Y-49581D01*
X65950Y-49913D01*
X66535Y-50029D01*
X67120Y-49913D01*
X67616Y-49581D01*
X67948Y-49085D01*
X68064Y-48500D01*
X67948Y-47915D01*
X67616Y-47419D01*
X67120Y-47087D01*
X66535Y-46971D01*
D02*
G37*
G36*
X62500D02*
X61915Y-47087D01*
X61419Y-47419D01*
X61087Y-47915D01*
X60971Y-48500D01*
X61087Y-49085D01*
X61419Y-49581D01*
X61915Y-49913D01*
X62500Y-50029D01*
X63085Y-49913D01*
X63581Y-49581D01*
X63913Y-49085D01*
X64029Y-48500D01*
X63913Y-47915D01*
X63581Y-47419D01*
X63085Y-47087D01*
X62500Y-46971D01*
D02*
G37*
G36*
X57087D02*
X56502Y-47087D01*
X56006Y-47419D01*
X55674Y-47915D01*
X55558Y-48500D01*
X55674Y-49085D01*
X56006Y-49581D01*
X56502Y-49913D01*
X57087Y-50029D01*
X57672Y-49913D01*
X58168Y-49581D01*
X58500Y-49085D01*
X58616Y-48500D01*
X58500Y-47915D01*
X58168Y-47419D01*
X57672Y-47087D01*
X57087Y-46971D01*
D02*
G37*
G36*
X58267Y-107864D02*
X57425D01*
Y-112101D01*
X58563D01*
X58683Y-112092D01*
X58813D01*
X58942Y-112073D01*
X59063Y-112064D01*
X59164Y-112045D01*
X59183D01*
X59220Y-112027D01*
X59275Y-112008D01*
X59349Y-111981D01*
X59433Y-111944D01*
X59516Y-111897D01*
X59599Y-111842D01*
X59682Y-111777D01*
X59692Y-111768D01*
X59719Y-111740D01*
X59756Y-111694D01*
X59803Y-111629D01*
X59849Y-111546D01*
X59914Y-111444D01*
X59960Y-111315D01*
X60015Y-111167D01*
Y-111157D01*
X60025Y-111148D01*
Y-111120D01*
X60034Y-111083D01*
X60052Y-111046D01*
X60062Y-110991D01*
X60089Y-110852D01*
X60108Y-110686D01*
X60136Y-110491D01*
X60145Y-110251D01*
X60154Y-109992D01*
Y-109983D01*
Y-109955D01*
Y-109918D01*
Y-109872D01*
Y-109807D01*
X60145Y-109733D01*
X60136Y-109576D01*
X60117Y-109391D01*
X60099Y-109196D01*
X60062Y-109021D01*
X60015Y-108854D01*
Y-108845D01*
X60006Y-108836D01*
X59988Y-108789D01*
X59960Y-108715D01*
X59923Y-108623D01*
X59867Y-108530D01*
X59803Y-108429D01*
X59729Y-108327D01*
X59645Y-108234D01*
X59636Y-108225D01*
X59608Y-108197D01*
X59553Y-108160D01*
X59488Y-108114D01*
X59396Y-108059D01*
X59294Y-108012D01*
X59183Y-107966D01*
X59053Y-107929D01*
X59044D01*
X58998Y-107920D01*
X58924Y-107911D01*
X58822Y-107892D01*
X58757D01*
X58674Y-107883D01*
X58591D01*
X58498Y-107874D01*
X58387D01*
X58267Y-107864D01*
D02*
G37*
G36*
X28593D02*
X27113D01*
Y-109492D01*
X28371D01*
X28556Y-109483D01*
X28750Y-109474D01*
X28945Y-109465D01*
X29028Y-109455D01*
X29102Y-109446D01*
X29176Y-109428D01*
X29222Y-109418D01*
X29231D01*
X29259Y-109400D01*
X29305Y-109381D01*
X29352Y-109354D01*
X29472Y-109270D01*
X29527Y-109215D01*
X29583Y-109150D01*
X29592Y-109141D01*
X29601Y-109113D01*
X29629Y-109076D01*
X29657Y-109021D01*
X29675Y-108947D01*
X29703Y-108863D01*
X29712Y-108771D01*
X29722Y-108669D01*
Y-108651D01*
Y-108614D01*
X29712Y-108558D01*
X29703Y-108484D01*
X29675Y-108401D01*
X29648Y-108318D01*
X29601Y-108225D01*
X29546Y-108151D01*
X29537Y-108142D01*
X29518Y-108114D01*
X29472Y-108086D01*
X29416Y-108040D01*
X29352Y-107994D01*
X29268Y-107957D01*
X29167Y-107920D01*
X29056Y-107892D01*
X29046D01*
X29019Y-107883D01*
X28963D01*
X28880Y-107874D01*
X28676D01*
X28593Y-107864D01*
D02*
G37*
G36*
X9927Y-108271D02*
X9057Y-110649D01*
X10824D01*
X9927Y-108271D01*
D02*
G37*
%LPD*%
D103*
X-23277Y46378D02*
D03*
Y12362D02*
D03*
D104*
X-25836Y45098D02*
D03*
Y13642D02*
D03*
D106*
X-43159Y46378D02*
D03*
Y12362D02*
D03*
D109*
X-31500Y70500D02*
D03*
D111*
X34300Y56200D02*
D03*
X53500Y42500D02*
D03*
X35001Y42500D02*
D03*
X43001D02*
D03*
X43801Y51000D02*
D03*
X45300Y60700D02*
D03*
X47023Y58360D02*
D03*
X48426Y39600D02*
D03*
X40500Y30600D02*
D03*
X34300Y61900D02*
D03*
X-41061Y30997D02*
D03*
X-39200Y19205D02*
D03*
X-36769Y40711D02*
D03*
X-35361Y30197D02*
D03*
X-17500Y11210D02*
D03*
X-16900Y18000D02*
D03*
X-15014Y29978D02*
D03*
X-11514Y24079D02*
D03*
X-11404Y47297D02*
D03*
X-10000Y11710D02*
D03*
X-5035Y26878D02*
D03*
X-4700Y50000D02*
D03*
X14000Y41127D02*
D03*
X15600Y47527D02*
D03*
Y54127D02*
D03*
X20500Y47500D02*
D03*
X20600Y39627D02*
D03*
X23373Y26200D02*
D03*
X27165Y30240D02*
D03*
Y48100D02*
D03*
X30900Y30200D02*
D03*
X32350Y42650D02*
D03*
X36614Y30240D02*
D03*
X46800Y30700D02*
D03*
X50787Y30240D02*
D03*
X55512D02*
D03*
X60236D02*
D03*
Y42366D02*
D03*
X64961Y30240D02*
D03*
Y42366D02*
D03*
D112*
X21972Y69500D02*
D03*
X-44000Y-20000D02*
D03*
Y-10000D02*
D03*
Y-5000D02*
D03*
Y4500D02*
D03*
X-22252Y42132D02*
D03*
X-18500Y42000D02*
D03*
X-12500Y56500D02*
D03*
X-11000Y64000D02*
D03*
X-7000Y56500D02*
D03*
X-6000Y65000D02*
D03*
X1205Y85000D02*
D03*
X2000Y64500D02*
D03*
X3001Y48000D02*
D03*
X6500Y26500D02*
D03*
X6795Y32326D02*
D03*
X9000Y63500D02*
D03*
X10161Y69500D02*
D03*
X13500Y14229D02*
D03*
X16067Y69500D02*
D03*
X20500Y-45433D02*
D03*
X20800Y-30300D02*
D03*
X21000Y8161D02*
D03*
X22000Y79135D02*
D03*
X23500Y30000D02*
D03*
X24311Y86500D02*
D03*
X25000Y-4500D02*
D03*
X27600Y86500D02*
D03*
X27878Y69500D02*
D03*
X29500Y-4500D02*
D03*
X30500Y82000D02*
D03*
X33783Y69500D02*
D03*
X35000Y86500D02*
D03*
X38484Y82000D02*
D03*
X39689Y69500D02*
D03*
X40500Y-6000D02*
D03*
X43208Y82000D02*
D03*
X43500Y-30000D02*
D03*
X44500Y-6000D02*
D03*
X48000D02*
D03*
X49000Y2500D02*
D03*
X53500D02*
D03*
X56500Y-42000D02*
D03*
X58661Y-29500D02*
D03*
X60457Y85000D02*
D03*
X61000Y-42500D02*
D03*
X62000Y70500D02*
D03*
X62500Y6500D02*
D03*
X63000Y21500D02*
D03*
X78000Y-47000D02*
D03*
Y-32000D02*
D03*
X90000Y31559D02*
D03*
Y43059D02*
D03*
X108864Y49000D02*
D03*
X108958Y55500D02*
D03*
X111500Y-1500D02*
D03*
Y19000D02*
D03*
Y26500D02*
D03*
M02*
