G04*
G04 #@! TF.GenerationSoftware,Altium Limited,Altium Designer,22.5.1 (42)*
G04*
G04 Layer_Physical_Order=3*
G04 Layer_Color=16440176*
%FSLAX25Y25*%
%MOIN*%
G70*
G04*
G04 #@! TF.SameCoordinates,7D5A9487-70C0-458F-A832-C6248EDC6538*
G04*
G04*
G04 #@! TF.FilePolarity,Positive*
G04*
G01*
G75*
%ADD101C,0.05906*%
%ADD103O,0.09055X0.04724*%
%ADD104O,0.04724X0.06496*%
%ADD106O,0.10236X0.05118*%
%ADD111C,0.01600*%
%ADD112C,0.02000*%
G36*
X90300Y93201D02*
X114935Y93202D01*
X115373Y93183D01*
X115805Y93126D01*
X116231Y93032D01*
X116647Y92901D01*
X117050Y92734D01*
X117437Y92532D01*
X117805Y92298D01*
X118151Y92032D01*
X118473Y91738D01*
X118767Y91416D01*
X119033Y91070D01*
X119267Y90702D01*
X119468Y90315D01*
X119635Y89912D01*
X119767Y89496D01*
X119861Y89070D01*
X119918Y88638D01*
X119937Y88202D01*
Y57937D01*
X118500Y56500D01*
X110094D01*
X110039Y56581D01*
X109543Y56913D01*
X108958Y57029D01*
X108373Y56913D01*
X107877Y56581D01*
X107822Y56500D01*
X102000D01*
X100500Y55000D01*
Y49000D01*
X102000Y47500D01*
X105303D01*
X105352Y47000D01*
X105176Y46965D01*
X104915Y46913D01*
X104419Y46581D01*
X104087Y46085D01*
X103971Y45500D01*
X104087Y44915D01*
X104419Y44419D01*
X104915Y44087D01*
X105500Y43971D01*
X106085Y44087D01*
X106581Y44419D01*
X106913Y44915D01*
X107029Y45500D01*
X106913Y46085D01*
X106581Y46581D01*
X106085Y46913D01*
X105824Y46965D01*
X105648Y47000D01*
X105697Y47500D01*
X107000D01*
X110500Y44000D01*
Y27636D01*
X110419Y27581D01*
X110087Y27085D01*
X109971Y26500D01*
X110087Y25915D01*
X110419Y25419D01*
X110500Y25364D01*
Y20136D01*
X110419Y20081D01*
X110087Y19585D01*
X109971Y19000D01*
X110087Y18415D01*
X110419Y17919D01*
X110500Y17864D01*
Y-364D01*
X110419Y-419D01*
X110087Y-915D01*
X109971Y-1500D01*
X110087Y-2085D01*
X110419Y-2581D01*
X110500Y-2636D01*
Y-14000D01*
X90000Y-34500D01*
X-6705D01*
X-6885Y-33907D01*
X-7608Y-32555D01*
X-8581Y-31370D01*
X-9766Y-30397D01*
X-11118Y-29674D01*
X-12585Y-29229D01*
X-14111Y-29079D01*
X-15637Y-29229D01*
X-17104Y-29674D01*
X-18456Y-30397D01*
X-19641Y-31370D01*
X-20614Y-32555D01*
X-21180Y-33613D01*
X-21782Y-33718D01*
X-30000Y-25500D01*
Y5400D01*
X-26641Y8759D01*
X-19064D01*
X-18797Y8259D01*
X-18913Y8085D01*
X-19029Y7500D01*
X-18913Y6915D01*
X-18581Y6419D01*
X-18085Y6087D01*
X-17500Y5971D01*
X-16915Y6087D01*
X-16419Y6419D01*
X-16087Y6915D01*
X-15971Y7500D01*
X-16087Y8085D01*
X-16203Y8259D01*
X-15936Y8759D01*
X-1687D01*
X-1275Y8268D01*
X-1178Y7780D01*
X-901Y7367D01*
X-488Y7090D01*
X0Y6993D01*
X488Y7090D01*
X901Y7367D01*
X1178Y7780D01*
X1275Y8268D01*
X1687Y8759D01*
X16500D01*
X16883Y8917D01*
X16883Y8917D01*
X17065Y9100D01*
X18800D01*
X19515Y8385D01*
X19471Y8161D01*
X19587Y7576D01*
X19919Y7080D01*
X20415Y6748D01*
X21000Y6632D01*
X21079Y6516D01*
X21061Y6403D01*
X20830Y5996D01*
X20415Y5913D01*
X19919Y5581D01*
X19587Y5085D01*
X19471Y4500D01*
X19587Y3915D01*
X19919Y3419D01*
X20415Y3087D01*
X21000Y2971D01*
X21585Y3087D01*
X22081Y3419D01*
X22413Y3915D01*
X22529Y4500D01*
X22489Y4704D01*
X22950Y4950D01*
X27200Y700D01*
X45600D01*
X47034Y2134D01*
X47576Y1969D01*
X47587Y1915D01*
X47919Y1419D01*
X48415Y1087D01*
X49000Y971D01*
X49585Y1087D01*
X50081Y1419D01*
X50413Y1915D01*
X50529Y2500D01*
X50413Y3085D01*
X50081Y3581D01*
X49585Y3913D01*
X49531Y3924D01*
X49366Y4466D01*
X64500Y19600D01*
Y21352D01*
X64529Y21500D01*
X64500Y21648D01*
Y28612D01*
X64886Y28929D01*
X64961Y28914D01*
X65468Y29015D01*
X65898Y29303D01*
X66186Y29733D01*
X66286Y30240D01*
X66186Y30747D01*
X65898Y31177D01*
X65468Y31465D01*
X64961Y31565D01*
X64886Y31551D01*
X64500Y31868D01*
Y40738D01*
X64886Y41055D01*
X64961Y41041D01*
X65468Y41141D01*
X65898Y41429D01*
X66186Y41859D01*
X66286Y42366D01*
X66186Y42873D01*
X65898Y43303D01*
X65468Y43591D01*
X64961Y43692D01*
X64886Y43677D01*
X64500Y43994D01*
Y62500D01*
X61000Y66000D01*
Y68809D01*
X61500Y69070D01*
X62000Y68971D01*
X62585Y69087D01*
X63081Y69419D01*
X63413Y69915D01*
X63529Y70500D01*
X63413Y71085D01*
X63081Y71581D01*
X62585Y71913D01*
X62000Y72029D01*
X61500Y71930D01*
X61000Y72191D01*
Y73000D01*
X62250Y74250D01*
X69750D01*
X72000Y76500D01*
X72500Y76570D01*
X73000Y76471D01*
X73585Y76587D01*
X74081Y76919D01*
X74413Y77415D01*
X74529Y78000D01*
X74413Y78585D01*
X74081Y79081D01*
X73585Y79413D01*
X73000Y79529D01*
X72500Y79430D01*
X72000Y79691D01*
Y92200D01*
X73000Y93200D01*
X83219Y93200D01*
X84119Y94100D01*
X89500D01*
X90300Y93201D01*
D02*
G37*
G36*
X70500Y89500D02*
Y76500D01*
X69000Y75000D01*
X62500D01*
X61000Y76500D01*
Y83500D01*
X61373Y83808D01*
X61538Y83919D01*
X61870Y84415D01*
X61986Y85000D01*
X61870Y85585D01*
X61538Y86081D01*
X61042Y86413D01*
X60457Y86529D01*
X59872Y86413D01*
X59376Y86081D01*
X59276Y85932D01*
X58632Y85868D01*
X55500Y89000D01*
X39500D01*
X37001Y86501D01*
X36490Y86697D01*
X36413Y87085D01*
X36081Y87581D01*
X35585Y87913D01*
X35000Y88029D01*
X34415Y87913D01*
X33919Y87581D01*
X33587Y87085D01*
X33505Y86672D01*
X32995D01*
X32913Y87085D01*
X32581Y87581D01*
X32085Y87913D01*
X31500Y88029D01*
X30915Y87913D01*
X30419Y87581D01*
X30087Y87085D01*
X29971Y86500D01*
X30087Y85915D01*
X30364Y85500D01*
X30272Y85194D01*
X30145Y85000D01*
X28955D01*
X28828Y85194D01*
X28736Y85500D01*
X29013Y85915D01*
X29129Y86500D01*
X29013Y87085D01*
X28681Y87581D01*
X28185Y87913D01*
X27600Y88029D01*
X27015Y87913D01*
X26519Y87581D01*
X26223Y87139D01*
X25956Y87110D01*
X25688Y87139D01*
X25392Y87581D01*
X24896Y87913D01*
X24311Y88029D01*
X23726Y87913D01*
X23230Y87581D01*
X22898Y87085D01*
X22782Y86500D01*
X22898Y85915D01*
X23230Y85419D01*
X23726Y85087D01*
X24311Y84971D01*
X24896Y85087D01*
X25392Y85419D01*
X25688Y85861D01*
X25956Y85890D01*
X26223Y85861D01*
X26472Y85488D01*
X26484Y85271D01*
X26398Y84898D01*
X22137Y80637D01*
X22000Y80664D01*
X21415Y80548D01*
X20919Y80216D01*
X20587Y79720D01*
X20471Y79135D01*
X20498Y78998D01*
X19537Y78037D01*
X19081Y78081D01*
X18585Y78413D01*
X18000Y78529D01*
X17415Y78413D01*
X16919Y78081D01*
X16587Y77585D01*
X16471Y77000D01*
X7500D01*
X-4069Y65431D01*
X-4542Y65540D01*
X-4601Y65606D01*
X-4919Y66081D01*
X-5415Y66413D01*
X-6000Y66529D01*
X-6585Y66413D01*
X-7081Y66081D01*
X-7413Y65585D01*
X-7529Y65000D01*
X-7413Y64415D01*
X-7081Y63919D01*
X-6606Y63601D01*
X-6540Y63542D01*
X-6431Y63069D01*
X-11718Y57782D01*
X-11915Y57913D01*
X-12500Y58029D01*
X-13085Y57913D01*
X-13581Y57581D01*
X-13913Y57085D01*
X-14029Y56500D01*
X-13913Y55915D01*
X-13782Y55718D01*
X-15000Y54500D01*
X-18121D01*
X-18397Y55000D01*
X-18136Y55630D01*
X-18018Y56532D01*
X-18136Y57433D01*
X-18484Y58273D01*
X-19038Y58994D01*
X-19759Y59548D01*
X-20599Y59895D01*
X-21500Y60014D01*
X-22401Y59895D01*
X-23241Y59548D01*
X-23963Y58994D01*
X-24516Y58273D01*
X-24864Y57433D01*
X-24983Y56532D01*
X-24864Y55630D01*
X-24603Y55000D01*
X-24879Y54500D01*
X-34000D01*
X-35500Y56000D01*
Y88100D01*
X-29600Y94000D01*
X66000D01*
X70500Y89500D01*
D02*
G37*
G36*
X120500Y53000D02*
Y-44500D01*
X116000Y-49000D01*
X78197D01*
X78148Y-48500D01*
X78324Y-48465D01*
X78585Y-48413D01*
X79081Y-48081D01*
X79413Y-47585D01*
X79529Y-47000D01*
X79413Y-46415D01*
X79081Y-45919D01*
X78585Y-45587D01*
X78000Y-45471D01*
X77415Y-45587D01*
X76919Y-45919D01*
X76587Y-46415D01*
X76471Y-47000D01*
X76587Y-47585D01*
X76919Y-48081D01*
X77415Y-48413D01*
X77676Y-48465D01*
X77852Y-48500D01*
X77803Y-49000D01*
X68359D01*
X68042Y-48614D01*
X68064Y-48500D01*
X67948Y-47915D01*
X67616Y-47419D01*
X67120Y-47087D01*
X66535Y-46971D01*
X65950Y-47087D01*
X65454Y-47419D01*
X65122Y-47915D01*
X65006Y-48500D01*
X65007Y-48509D01*
X64674Y-48915D01*
X64361D01*
X64028Y-48509D01*
X64029Y-48500D01*
X63913Y-47915D01*
X63581Y-47419D01*
X63085Y-47087D01*
X62500Y-46971D01*
X61915Y-47087D01*
X61419Y-47419D01*
X61087Y-47915D01*
X60971Y-48500D01*
X60993Y-48614D01*
X60676Y-49000D01*
X58911D01*
X58594Y-48614D01*
X58616Y-48500D01*
X58500Y-47915D01*
X58168Y-47419D01*
X57672Y-47087D01*
X57087Y-46971D01*
X56502Y-47087D01*
X56006Y-47419D01*
X55674Y-47915D01*
X55558Y-48500D01*
X55580Y-48614D01*
X55263Y-49000D01*
X-38500D01*
X-46500Y-41000D01*
Y4900D01*
X-44400Y7000D01*
X-36500D01*
X-34500Y5000D01*
Y-23500D01*
X-22500Y-35500D01*
X-22166D01*
X-21831Y-35871D01*
X-21932Y-36900D01*
X-21782Y-38426D01*
X-21337Y-39893D01*
X-20614Y-41245D01*
X-19641Y-42430D01*
X-18456Y-43403D01*
X-17104Y-44126D01*
X-15637Y-44571D01*
X-14111Y-44721D01*
X-12585Y-44571D01*
X-11118Y-44126D01*
X-9766Y-43403D01*
X-8581Y-42430D01*
X-7608Y-41245D01*
X-6885Y-39893D01*
X-6440Y-38426D01*
X-6290Y-36900D01*
X-6391Y-35871D01*
X-6055Y-35500D01*
X32309D01*
X32570Y-36000D01*
X32471Y-36500D01*
X32587Y-37085D01*
X32919Y-37581D01*
X33415Y-37913D01*
X34000Y-38029D01*
X34585Y-37913D01*
X35081Y-37581D01*
X35413Y-37085D01*
X35529Y-36500D01*
X35430Y-36000D01*
X35691Y-35500D01*
X36609D01*
X36870Y-36000D01*
X36771Y-36500D01*
X36887Y-37085D01*
X37219Y-37581D01*
X37715Y-37913D01*
X38300Y-38029D01*
X38885Y-37913D01*
X39381Y-37581D01*
X39713Y-37085D01*
X39829Y-36500D01*
X39730Y-36000D01*
X39991Y-35500D01*
X91500D01*
X112000Y-15000D01*
Y-2930D01*
X112085Y-2913D01*
X112581Y-2581D01*
X112913Y-2085D01*
X113029Y-1500D01*
X112913Y-915D01*
X112581Y-419D01*
X112085Y-87D01*
X112000Y-70D01*
Y17570D01*
X112085Y17587D01*
X112581Y17919D01*
X112913Y18415D01*
X113029Y19000D01*
X112913Y19585D01*
X112581Y20081D01*
X112085Y20413D01*
X112000Y20430D01*
Y25070D01*
X112085Y25087D01*
X112581Y25419D01*
X112913Y25915D01*
X113029Y26500D01*
X112913Y27085D01*
X112581Y27581D01*
X112085Y27913D01*
X112000Y27930D01*
Y43500D01*
X108458Y47041D01*
X108705Y47502D01*
X108864Y47471D01*
X109449Y47587D01*
X109945Y47919D01*
X110277Y48415D01*
X110393Y49000D01*
X110277Y49585D01*
X109945Y50081D01*
X109449Y50413D01*
X108864Y50529D01*
X108279Y50413D01*
X107783Y50081D01*
X107451Y49585D01*
X107335Y49000D01*
X107366Y48841D01*
X106905Y48594D01*
X106500Y49000D01*
X103000D01*
X102000Y50000D01*
Y54000D01*
X103000Y55000D01*
X107528D01*
X107545Y54915D01*
X107877Y54419D01*
X108373Y54087D01*
X108958Y53971D01*
X109543Y54087D01*
X110039Y54419D01*
X110371Y54915D01*
X110388Y55000D01*
X118500D01*
X120500Y53000D01*
D02*
G37*
G36*
X40600Y82859D02*
X40600Y82859D01*
X42603D01*
X42682Y82891D01*
X42728Y82882D01*
X43208Y82978D01*
X43688Y82882D01*
X43734Y82891D01*
X43813Y82859D01*
X44559D01*
X44700Y82800D01*
X52000Y75500D01*
Y60800D01*
X54459Y58341D01*
Y34459D01*
X39250Y19250D01*
X35570D01*
X35303Y19750D01*
X35413Y19915D01*
X35529Y20500D01*
X35413Y21085D01*
X35081Y21581D01*
X34585Y21913D01*
X34000Y22029D01*
X33415Y21913D01*
X32919Y21581D01*
X32587Y21085D01*
X32471Y20500D01*
X32587Y19915D01*
X32697Y19750D01*
X32430Y19250D01*
X20250D01*
X17500Y16500D01*
Y10300D01*
X16500Y9300D01*
X-46500D01*
X-48300Y11100D01*
Y51400D01*
X-46600Y53100D01*
X-44953D01*
Y53079D01*
X-38047D01*
Y53100D01*
X-31888D01*
X-31500Y53049D01*
X-31112Y53100D01*
X-21888D01*
X-21500Y53049D01*
X-21112Y53100D01*
X-12300D01*
X-6912Y58488D01*
X-6415Y58587D01*
X-5919Y58919D01*
X-5587Y59415D01*
X-5488Y59912D01*
X9400Y74800D01*
X19300D01*
X27500Y83000D01*
X40259D01*
X40600Y82859D01*
D02*
G37*
G36*
X60000Y82000D02*
Y66000D01*
X60069Y65931D01*
X59960Y65458D01*
X59894Y65399D01*
X59419Y65081D01*
X59087Y64585D01*
X58971Y64000D01*
X59087Y63415D01*
X59419Y62919D01*
X59915Y62587D01*
X60500Y62471D01*
X61085Y62587D01*
X61581Y62919D01*
X61899Y63394D01*
X61958Y63459D01*
X62431Y63569D01*
X63000Y63000D01*
Y23029D01*
X62415Y22913D01*
X61919Y22581D01*
X61587Y22085D01*
X61471Y21500D01*
X61587Y20915D01*
X61919Y20419D01*
X62094Y20301D01*
X62166Y19666D01*
X60431Y17931D01*
X59958Y18041D01*
X59899Y18106D01*
X59581Y18581D01*
X59085Y18913D01*
X58500Y19029D01*
X57915Y18913D01*
X57419Y18581D01*
X57087Y18085D01*
X56971Y17500D01*
X57087Y16915D01*
X57419Y16419D01*
X57894Y16101D01*
X57960Y16042D01*
X58069Y15569D01*
X52994Y10494D01*
X52588Y10691D01*
X52527Y10734D01*
X52413Y11305D01*
X52081Y11801D01*
X51585Y12133D01*
X51000Y12249D01*
X50415Y12133D01*
X49919Y11801D01*
X49587Y11305D01*
X49471Y10720D01*
X49587Y10135D01*
X49919Y9639D01*
X50415Y9307D01*
X50986Y9193D01*
X51029Y9132D01*
X51226Y8726D01*
X49500Y7000D01*
X44000Y1500D01*
X38691D01*
X38430Y2000D01*
X38529Y2500D01*
X38413Y3085D01*
X38081Y3581D01*
X37585Y3913D01*
X37000Y4029D01*
X36415Y3913D01*
X35919Y3581D01*
X35587Y3085D01*
X35471Y2500D01*
X35570Y2000D01*
X35309Y1500D01*
X34191D01*
X33930Y2000D01*
X34029Y2500D01*
X33913Y3085D01*
X33581Y3581D01*
X33085Y3913D01*
X32500Y4029D01*
X31915Y3913D01*
X31419Y3581D01*
X31087Y3085D01*
X30971Y2500D01*
X31070Y2000D01*
X30809Y1500D01*
X27500D01*
X22067Y6933D01*
X22082Y7080D01*
X22413Y7576D01*
X22529Y8161D01*
X22413Y8746D01*
X22081Y9242D01*
X21585Y9574D01*
X21000Y9690D01*
X20415Y9574D01*
X19919Y9242D01*
X19772Y9228D01*
X18500Y10500D01*
Y16000D01*
X21000Y18500D01*
X39500D01*
X50121Y29121D01*
X50280Y29015D01*
X50787Y28914D01*
X51294Y29015D01*
X51724Y29303D01*
X52012Y29733D01*
X52113Y30240D01*
X52012Y30747D01*
X51906Y30906D01*
X55000Y34000D01*
Y59100D01*
X53000Y61100D01*
Y76500D01*
X46200Y83300D01*
X44800D01*
X44700Y83400D01*
X43813D01*
X43793Y83413D01*
X43208Y83529D01*
X42623Y83413D01*
X42603Y83400D01*
X40600D01*
X39500Y84500D01*
Y86500D01*
X40500Y87500D01*
X54500D01*
X60000Y82000D01*
D02*
G37*
G36*
X14455Y-110488D02*
Y-113170D01*
X13160D01*
Y-110478D01*
X10820Y-106769D01*
X12327D01*
X13835Y-109304D01*
X15306Y-106769D01*
X16795D01*
X14455Y-110488D01*
D02*
G37*
G36*
X61954Y-113170D02*
X60557D01*
X59299Y-108388D01*
X58022Y-113170D01*
X56616D01*
X55099Y-106769D01*
X56422D01*
X57384Y-111172D01*
X58550Y-106769D01*
X60104D01*
X61214Y-111246D01*
X62194Y-106769D01*
X63498D01*
X61954Y-113170D01*
D02*
G37*
G36*
X34250Y-106741D02*
X34333Y-106751D01*
X34416Y-106760D01*
X34518Y-106778D01*
X34620Y-106806D01*
X34851Y-106871D01*
X34971Y-106917D01*
X35101Y-106982D01*
X35221Y-107047D01*
X35332Y-107121D01*
X35452Y-107213D01*
X35554Y-107315D01*
X35563Y-107324D01*
X35573Y-107333D01*
X35600Y-107361D01*
X35628Y-107398D01*
X35702Y-107491D01*
X35785Y-107620D01*
X35869Y-107777D01*
X35933Y-107962D01*
X35989Y-108166D01*
X35998Y-108268D01*
X36007Y-108379D01*
Y-108388D01*
Y-108416D01*
X35998Y-108462D01*
X35989Y-108517D01*
X35980Y-108591D01*
X35961Y-108675D01*
X35933Y-108767D01*
X35896Y-108869D01*
X35841Y-108971D01*
X35785Y-109082D01*
X35711Y-109193D01*
X35619Y-109304D01*
X35508Y-109415D01*
X35388Y-109526D01*
X35249Y-109627D01*
X35082Y-109729D01*
X35092D01*
X35110Y-109738D01*
X35138D01*
X35175Y-109757D01*
X35277Y-109785D01*
X35397Y-109840D01*
X35536Y-109914D01*
X35684Y-110007D01*
X35832Y-110127D01*
X35961Y-110266D01*
X35980Y-110284D01*
X36017Y-110340D01*
X36063Y-110423D01*
X36128Y-110543D01*
X36192Y-110682D01*
X36239Y-110858D01*
X36276Y-111043D01*
X36294Y-111255D01*
Y-111265D01*
Y-111292D01*
Y-111339D01*
X36285Y-111394D01*
X36276Y-111468D01*
X36257Y-111551D01*
X36239Y-111653D01*
X36220Y-111755D01*
X36146Y-111977D01*
X36091Y-112097D01*
X36035Y-112227D01*
X35961Y-112347D01*
X35878Y-112467D01*
X35785Y-112587D01*
X35674Y-112698D01*
X35665Y-112708D01*
X35647Y-112726D01*
X35610Y-112754D01*
X35563Y-112791D01*
X35499Y-112837D01*
X35434Y-112883D01*
X35341Y-112939D01*
X35249Y-112994D01*
X35147Y-113050D01*
X35027Y-113105D01*
X34897Y-113152D01*
X34768Y-113198D01*
X34620Y-113235D01*
X34472Y-113263D01*
X34305Y-113281D01*
X34139Y-113290D01*
X34056D01*
X33991Y-113281D01*
X33917Y-113272D01*
X33834Y-113263D01*
X33741Y-113244D01*
X33630Y-113226D01*
X33408Y-113170D01*
X33168Y-113078D01*
X33038Y-113022D01*
X32927Y-112957D01*
X32807Y-112874D01*
X32696Y-112791D01*
X32687Y-112782D01*
X32668Y-112763D01*
X32640Y-112735D01*
X32603Y-112698D01*
X32557Y-112652D01*
X32511Y-112587D01*
X32455Y-112523D01*
X32400Y-112439D01*
X32344Y-112347D01*
X32280Y-112254D01*
X32178Y-112032D01*
X32095Y-111773D01*
X32058Y-111635D01*
X32039Y-111487D01*
X33223Y-111339D01*
Y-111348D01*
Y-111357D01*
X33232Y-111413D01*
X33251Y-111496D01*
X33279Y-111598D01*
X33325Y-111709D01*
X33371Y-111829D01*
X33445Y-111940D01*
X33528Y-112042D01*
X33538Y-112051D01*
X33575Y-112079D01*
X33630Y-112116D01*
X33695Y-112153D01*
X33787Y-112199D01*
X33889Y-112236D01*
X34000Y-112264D01*
X34130Y-112273D01*
X34148D01*
X34194Y-112264D01*
X34259Y-112254D01*
X34352Y-112236D01*
X34453Y-112199D01*
X34555Y-112153D01*
X34666Y-112079D01*
X34768Y-111986D01*
X34777Y-111977D01*
X34814Y-111931D01*
X34851Y-111866D01*
X34907Y-111783D01*
X34953Y-111672D01*
X34999Y-111533D01*
X35027Y-111376D01*
X35036Y-111200D01*
Y-111191D01*
Y-111181D01*
Y-111126D01*
X35027Y-111043D01*
X35008Y-110932D01*
X34971Y-110811D01*
X34925Y-110691D01*
X34860Y-110571D01*
X34777Y-110460D01*
X34768Y-110451D01*
X34731Y-110414D01*
X34675Y-110367D01*
X34611Y-110321D01*
X34518Y-110266D01*
X34416Y-110229D01*
X34305Y-110192D01*
X34176Y-110182D01*
X34083D01*
X34019Y-110192D01*
X33935Y-110201D01*
X33834Y-110219D01*
X33732Y-110247D01*
X33612Y-110275D01*
X33741Y-109285D01*
X33824D01*
X33917Y-109276D01*
X34028Y-109267D01*
X34148Y-109239D01*
X34278Y-109202D01*
X34398Y-109146D01*
X34509Y-109072D01*
X34518Y-109063D01*
X34555Y-109026D01*
X34592Y-108980D01*
X34648Y-108906D01*
X34694Y-108823D01*
X34740Y-108721D01*
X34768Y-108601D01*
X34777Y-108462D01*
Y-108443D01*
Y-108406D01*
X34768Y-108351D01*
X34749Y-108277D01*
X34731Y-108194D01*
X34694Y-108110D01*
X34648Y-108018D01*
X34583Y-107944D01*
X34574Y-107935D01*
X34546Y-107916D01*
X34509Y-107879D01*
X34444Y-107842D01*
X34370Y-107814D01*
X34287Y-107777D01*
X34176Y-107759D01*
X34065Y-107750D01*
X34009D01*
X33954Y-107759D01*
X33880Y-107777D01*
X33797Y-107805D01*
X33704Y-107842D01*
X33612Y-107898D01*
X33528Y-107972D01*
X33519Y-107981D01*
X33491Y-108009D01*
X33454Y-108064D01*
X33408Y-108138D01*
X33362Y-108221D01*
X33325Y-108332D01*
X33288Y-108462D01*
X33260Y-108610D01*
X32132Y-108425D01*
Y-108416D01*
X32141Y-108397D01*
Y-108369D01*
X32150Y-108323D01*
X32178Y-108221D01*
X32215Y-108083D01*
X32270Y-107935D01*
X32326Y-107777D01*
X32400Y-107629D01*
X32483Y-107491D01*
X32492Y-107472D01*
X32529Y-107435D01*
X32585Y-107370D01*
X32659Y-107287D01*
X32751Y-107204D01*
X32862Y-107111D01*
X33001Y-107019D01*
X33149Y-106936D01*
X33158D01*
X33168Y-106926D01*
X33223Y-106908D01*
X33316Y-106871D01*
X33427Y-106834D01*
X33565Y-106797D01*
X33732Y-106760D01*
X33908Y-106741D01*
X34102Y-106732D01*
X34185D01*
X34250Y-106741D01*
D02*
G37*
G36*
X73109Y-106778D02*
X73211D01*
X73313Y-106788D01*
X73433D01*
X73673Y-106815D01*
X73923Y-106843D01*
X74154Y-106889D01*
X74256Y-106917D01*
X74349Y-106945D01*
X74358D01*
X74367Y-106954D01*
X74423Y-106982D01*
X74506Y-107028D01*
X74617Y-107084D01*
X74737Y-107176D01*
X74857Y-107278D01*
X74978Y-107407D01*
X75089Y-107565D01*
Y-107574D01*
X75098Y-107583D01*
X75116Y-107611D01*
X75135Y-107639D01*
X75181Y-107731D01*
X75237Y-107851D01*
X75283Y-107999D01*
X75329Y-108166D01*
X75366Y-108360D01*
X75375Y-108564D01*
Y-108573D01*
Y-108591D01*
Y-108638D01*
X75366Y-108684D01*
Y-108749D01*
X75357Y-108813D01*
X75320Y-108980D01*
X75274Y-109174D01*
X75200Y-109368D01*
X75089Y-109572D01*
X75024Y-109664D01*
X74950Y-109757D01*
X74941Y-109766D01*
X74931Y-109775D01*
X74904Y-109803D01*
X74867Y-109831D01*
X74830Y-109868D01*
X74774Y-109914D01*
X74709Y-109960D01*
X74635Y-110007D01*
X74552Y-110062D01*
X74450Y-110108D01*
X74349Y-110155D01*
X74238Y-110201D01*
X74108Y-110247D01*
X73979Y-110284D01*
X73840Y-110321D01*
X73683Y-110349D01*
X73692D01*
X73701Y-110358D01*
X73757Y-110395D01*
X73831Y-110441D01*
X73923Y-110506D01*
X74034Y-110589D01*
X74145Y-110673D01*
X74265Y-110774D01*
X74367Y-110885D01*
X74376Y-110895D01*
X74423Y-110941D01*
X74478Y-111015D01*
X74561Y-111126D01*
X74672Y-111265D01*
X74728Y-111357D01*
X74793Y-111450D01*
X74867Y-111551D01*
X74941Y-111662D01*
X75024Y-111792D01*
X75107Y-111921D01*
X75893Y-113170D01*
X74339D01*
X73414Y-111783D01*
X73405Y-111773D01*
X73396Y-111746D01*
X73368Y-111709D01*
X73331Y-111662D01*
X73294Y-111607D01*
X73248Y-111533D01*
X73146Y-111385D01*
X73026Y-111218D01*
X72915Y-111070D01*
X72813Y-110932D01*
X72767Y-110885D01*
X72730Y-110839D01*
X72721Y-110830D01*
X72702Y-110811D01*
X72665Y-110774D01*
X72619Y-110728D01*
X72554Y-110691D01*
X72489Y-110645D01*
X72415Y-110608D01*
X72341Y-110571D01*
X72332D01*
X72304Y-110562D01*
X72258Y-110543D01*
X72184Y-110534D01*
X72092Y-110515D01*
X71981Y-110506D01*
X71851Y-110497D01*
X71435D01*
Y-113170D01*
X70140D01*
Y-106769D01*
X73026D01*
X73109Y-106778D01*
D02*
G37*
G36*
X68919Y-107851D02*
X65469D01*
Y-109267D01*
X68678D01*
Y-110349D01*
X65469D01*
Y-112088D01*
X69039D01*
Y-113170D01*
X64174D01*
Y-106769D01*
X68919D01*
Y-107851D01*
D02*
G37*
G36*
X45267Y-106778D02*
X45507D01*
X45766Y-106797D01*
X46025Y-106815D01*
X46136Y-106825D01*
X46247Y-106834D01*
X46340Y-106852D01*
X46414Y-106871D01*
X46423D01*
X46441Y-106880D01*
X46469Y-106889D01*
X46506Y-106899D01*
X46608Y-106945D01*
X46737Y-107000D01*
X46876Y-107084D01*
X47033Y-107195D01*
X47181Y-107333D01*
X47329Y-107500D01*
Y-107509D01*
X47348Y-107518D01*
X47366Y-107546D01*
X47385Y-107583D01*
X47422Y-107639D01*
X47450Y-107694D01*
X47487Y-107759D01*
X47524Y-107833D01*
X47588Y-108018D01*
X47653Y-108221D01*
X47690Y-108471D01*
X47709Y-108739D01*
Y-108749D01*
Y-108767D01*
Y-108795D01*
Y-108841D01*
X47699Y-108887D01*
Y-108952D01*
X47681Y-109082D01*
X47653Y-109239D01*
X47616Y-109415D01*
X47561Y-109581D01*
X47487Y-109738D01*
X47477Y-109757D01*
X47450Y-109803D01*
X47403Y-109877D01*
X47339Y-109970D01*
X47265Y-110062D01*
X47163Y-110173D01*
X47061Y-110275D01*
X46941Y-110367D01*
X46922Y-110377D01*
X46885Y-110404D01*
X46821Y-110441D01*
X46737Y-110488D01*
X46636Y-110543D01*
X46525Y-110589D01*
X46404Y-110636D01*
X46275Y-110673D01*
X46256D01*
X46229Y-110682D01*
X46192D01*
X46145Y-110691D01*
X46081Y-110700D01*
X46016Y-110710D01*
X45933D01*
X45849Y-110719D01*
X45748Y-110728D01*
X45637Y-110737D01*
X45516Y-110747D01*
X45387D01*
X45248Y-110756D01*
X44101D01*
Y-113170D01*
X42806D01*
Y-106769D01*
X45165D01*
X45267Y-106778D01*
D02*
G37*
G36*
X26387Y-106778D02*
X26489D01*
X26591Y-106788D01*
X26711D01*
X26952Y-106815D01*
X27201Y-106843D01*
X27433Y-106889D01*
X27534Y-106917D01*
X27627Y-106945D01*
X27636D01*
X27645Y-106954D01*
X27701Y-106982D01*
X27784Y-107028D01*
X27895Y-107084D01*
X28015Y-107176D01*
X28136Y-107278D01*
X28256Y-107407D01*
X28367Y-107565D01*
Y-107574D01*
X28376Y-107583D01*
X28395Y-107611D01*
X28413Y-107639D01*
X28459Y-107731D01*
X28515Y-107851D01*
X28561Y-107999D01*
X28607Y-108166D01*
X28644Y-108360D01*
X28654Y-108564D01*
Y-108573D01*
Y-108591D01*
Y-108638D01*
X28644Y-108684D01*
Y-108749D01*
X28635Y-108813D01*
X28598Y-108980D01*
X28552Y-109174D01*
X28478Y-109368D01*
X28367Y-109572D01*
X28302Y-109664D01*
X28228Y-109757D01*
X28219Y-109766D01*
X28210Y-109775D01*
X28182Y-109803D01*
X28145Y-109831D01*
X28108Y-109868D01*
X28052Y-109914D01*
X27988Y-109960D01*
X27914Y-110007D01*
X27830Y-110062D01*
X27729Y-110108D01*
X27627Y-110155D01*
X27516Y-110201D01*
X27386Y-110247D01*
X27257Y-110284D01*
X27118Y-110321D01*
X26961Y-110349D01*
X26970D01*
X26979Y-110358D01*
X27035Y-110395D01*
X27109Y-110441D01*
X27201Y-110506D01*
X27312Y-110589D01*
X27423Y-110673D01*
X27544Y-110774D01*
X27645Y-110885D01*
X27655Y-110895D01*
X27701Y-110941D01*
X27756Y-111015D01*
X27840Y-111126D01*
X27951Y-111265D01*
X28006Y-111357D01*
X28071Y-111450D01*
X28145Y-111551D01*
X28219Y-111662D01*
X28302Y-111792D01*
X28385Y-111921D01*
X29172Y-113170D01*
X27618Y-113170D01*
X26693Y-111783D01*
X26683Y-111773D01*
X26674Y-111746D01*
X26646Y-111709D01*
X26609Y-111662D01*
X26572Y-111607D01*
X26526Y-111533D01*
X26424Y-111385D01*
X26304Y-111218D01*
X26193Y-111070D01*
X26091Y-110932D01*
X26045Y-110885D01*
X26008Y-110839D01*
X25999Y-110830D01*
X25980Y-110811D01*
X25943Y-110774D01*
X25897Y-110728D01*
X25832Y-110691D01*
X25768Y-110645D01*
X25694Y-110608D01*
X25620Y-110571D01*
X25610D01*
X25583Y-110562D01*
X25536Y-110543D01*
X25462Y-110534D01*
X25370Y-110515D01*
X25259Y-110506D01*
X25129Y-110497D01*
X24713D01*
Y-113170D01*
X23418D01*
Y-106769D01*
X26304D01*
X26387Y-106778D01*
D02*
G37*
G36*
X22197Y-107851D02*
X18747D01*
Y-109267D01*
X21957D01*
Y-110349D01*
X18747D01*
Y-112088D01*
X22317D01*
Y-113170D01*
X17452D01*
Y-106769D01*
X22197D01*
Y-107851D01*
D02*
G37*
G36*
X10792Y-113170D02*
X9395D01*
X8840Y-111718D01*
X6269D01*
X5741Y-113170D01*
X4372D01*
X6851Y-106769D01*
X8220D01*
X10792Y-113170D01*
D02*
G37*
G36*
X885Y-112088D02*
X4104D01*
Y-113170D01*
X-410D01*
Y-106815D01*
X885D01*
Y-112088D01*
D02*
G37*
G36*
X51732Y-106658D02*
X51825D01*
X51945Y-106677D01*
X52084Y-106695D01*
X52241Y-106723D01*
X52408Y-106760D01*
X52583Y-106806D01*
X52768Y-106862D01*
X52953Y-106936D01*
X53148Y-107019D01*
X53333Y-107121D01*
X53518Y-107241D01*
X53693Y-107380D01*
X53860Y-107537D01*
X53869Y-107546D01*
X53897Y-107574D01*
X53943Y-107629D01*
X53989Y-107694D01*
X54054Y-107787D01*
X54128Y-107898D01*
X54202Y-108027D01*
X54285Y-108175D01*
X54369Y-108332D01*
X54443Y-108517D01*
X54517Y-108721D01*
X54581Y-108934D01*
X54637Y-109174D01*
X54674Y-109424D01*
X54702Y-109692D01*
X54711Y-109979D01*
Y-109997D01*
Y-110044D01*
X54702Y-110127D01*
Y-110238D01*
X54683Y-110367D01*
X54665Y-110515D01*
X54637Y-110691D01*
X54609Y-110867D01*
X54563Y-111061D01*
X54507Y-111265D01*
X54433Y-111468D01*
X54350Y-111672D01*
X54258Y-111866D01*
X54137Y-112060D01*
X54008Y-112245D01*
X53860Y-112421D01*
X53851Y-112430D01*
X53823Y-112458D01*
X53777Y-112504D01*
X53703Y-112560D01*
X53619Y-112624D01*
X53518Y-112698D01*
X53397Y-112772D01*
X53268Y-112856D01*
X53111Y-112939D01*
X52944Y-113013D01*
X52759Y-113087D01*
X52556Y-113152D01*
X52343Y-113207D01*
X52112Y-113253D01*
X51871Y-113281D01*
X51612Y-113290D01*
X51547D01*
X51473Y-113281D01*
X51381Y-113272D01*
X51261Y-113263D01*
X51122Y-113244D01*
X50965Y-113216D01*
X50798Y-113179D01*
X50613Y-113133D01*
X50437Y-113078D01*
X50243Y-113004D01*
X50058Y-112920D01*
X49864Y-112828D01*
X49688Y-112708D01*
X49512Y-112578D01*
X49346Y-112421D01*
X49337Y-112412D01*
X49309Y-112384D01*
X49272Y-112328D01*
X49216Y-112264D01*
X49152Y-112171D01*
X49078Y-112060D01*
X49004Y-111940D01*
X48930Y-111792D01*
X48846Y-111635D01*
X48772Y-111450D01*
X48698Y-111255D01*
X48634Y-111043D01*
X48578Y-110811D01*
X48541Y-110562D01*
X48513Y-110293D01*
X48504Y-110016D01*
Y-110007D01*
Y-109970D01*
Y-109923D01*
X48513Y-109849D01*
Y-109766D01*
X48523Y-109674D01*
X48532Y-109563D01*
X48541Y-109442D01*
X48578Y-109183D01*
X48624Y-108906D01*
X48698Y-108628D01*
X48791Y-108369D01*
Y-108360D01*
X48800Y-108351D01*
X48819Y-108323D01*
X48828Y-108286D01*
X48883Y-108194D01*
X48948Y-108073D01*
X49031Y-107935D01*
X49133Y-107796D01*
X49253Y-107639D01*
X49383Y-107491D01*
X49392Y-107481D01*
X49401Y-107472D01*
X49448Y-107426D01*
X49531Y-107352D01*
X49633Y-107269D01*
X49753Y-107176D01*
X49892Y-107074D01*
X50049Y-106982D01*
X50215Y-106908D01*
X50225D01*
X50243Y-106899D01*
X50280Y-106880D01*
X50326Y-106871D01*
X50382Y-106843D01*
X50447Y-106825D01*
X50530Y-106806D01*
X50613Y-106778D01*
X50817Y-106732D01*
X51048Y-106686D01*
X51316Y-106658D01*
X51594Y-106649D01*
X51658D01*
X51732Y-106658D01*
D02*
G37*
G36*
X77077Y-106667D02*
X77096Y-106704D01*
X77133Y-106751D01*
X77179Y-106825D01*
X77235Y-106908D01*
X77299Y-107010D01*
X77364Y-107130D01*
X77438Y-107259D01*
X77521Y-107407D01*
X77605Y-107565D01*
X77688Y-107722D01*
X77771Y-107898D01*
X77938Y-108268D01*
X78086Y-108656D01*
Y-108665D01*
X78104Y-108702D01*
X78123Y-108758D01*
X78141Y-108841D01*
X78169Y-108934D01*
X78206Y-109045D01*
X78234Y-109174D01*
X78271Y-109322D01*
X78308Y-109470D01*
X78335Y-109637D01*
X78372Y-109822D01*
X78400Y-110007D01*
X78437Y-110386D01*
X78456Y-110793D01*
Y-110802D01*
Y-110830D01*
Y-110885D01*
Y-110950D01*
X78446Y-111033D01*
X78437Y-111135D01*
X78428Y-111255D01*
X78419Y-111385D01*
X78409Y-111524D01*
X78382Y-111672D01*
X78363Y-111838D01*
X78335Y-112005D01*
X78261Y-112365D01*
X78169Y-112754D01*
Y-112763D01*
X78150Y-112809D01*
X78132Y-112865D01*
X78104Y-112948D01*
X78067Y-113059D01*
X78021Y-113179D01*
X77975Y-113318D01*
X77910Y-113475D01*
X77836Y-113642D01*
X77762Y-113827D01*
X77669Y-114012D01*
X77577Y-114215D01*
X77466Y-114419D01*
X77355Y-114632D01*
X77235Y-114844D01*
X77096Y-115057D01*
X76245D01*
Y-115048D01*
X76263Y-115020D01*
X76282Y-114983D01*
X76300Y-114928D01*
X76337Y-114863D01*
X76365Y-114789D01*
X76448Y-114613D01*
X76532Y-114419D01*
X76615Y-114215D01*
X76689Y-114021D01*
X76754Y-113855D01*
Y-113845D01*
X76763Y-113836D01*
X76781Y-113781D01*
X76809Y-113697D01*
X76846Y-113586D01*
X76883Y-113448D01*
X76929Y-113281D01*
X76976Y-113105D01*
X77022Y-112911D01*
Y-112902D01*
X77031Y-112883D01*
Y-112856D01*
X77040Y-112819D01*
X77068Y-112717D01*
X77096Y-112578D01*
X77124Y-112421D01*
X77161Y-112245D01*
X77216Y-111884D01*
Y-111875D01*
Y-111866D01*
X77225Y-111838D01*
Y-111801D01*
X77235Y-111699D01*
X77253Y-111579D01*
X77262Y-111422D01*
X77272Y-111255D01*
X77281Y-111070D01*
Y-110885D01*
Y-110876D01*
Y-110839D01*
Y-110784D01*
Y-110710D01*
X77272Y-110617D01*
Y-110506D01*
X77262Y-110386D01*
X77253Y-110247D01*
X77244Y-110099D01*
X77225Y-109942D01*
X77179Y-109609D01*
X77124Y-109267D01*
X77050Y-108915D01*
Y-108906D01*
X77040Y-108869D01*
X77022Y-108823D01*
X77003Y-108749D01*
X76985Y-108656D01*
X76948Y-108554D01*
X76911Y-108425D01*
X76865Y-108286D01*
X76809Y-108129D01*
X76754Y-107953D01*
X76689Y-107768D01*
X76615Y-107574D01*
X76532Y-107361D01*
X76439Y-107139D01*
X76347Y-106899D01*
X76236Y-106658D01*
X77068D01*
X77077Y-106667D01*
D02*
G37*
G36*
X41853Y-106677D02*
X41835Y-106714D01*
X41807Y-106788D01*
X41770Y-106880D01*
X41715Y-106991D01*
X41659Y-107130D01*
X41604Y-107278D01*
X41539Y-107435D01*
X41465Y-107611D01*
X41400Y-107796D01*
X41261Y-108175D01*
X41141Y-108554D01*
X41086Y-108739D01*
X41039Y-108915D01*
Y-108924D01*
X41030Y-108952D01*
X41021Y-109008D01*
X41002Y-109072D01*
X40984Y-109165D01*
X40965Y-109267D01*
X40947Y-109378D01*
X40928Y-109507D01*
X40910Y-109646D01*
X40891Y-109803D01*
X40873Y-109960D01*
X40854Y-110136D01*
X40827Y-110497D01*
X40817Y-110885D01*
Y-110895D01*
Y-110913D01*
Y-110959D01*
Y-111006D01*
Y-111070D01*
X40827Y-111154D01*
Y-111237D01*
X40836Y-111339D01*
X40845Y-111561D01*
X40873Y-111810D01*
X40901Y-112079D01*
X40947Y-112356D01*
Y-112365D01*
X40956Y-112393D01*
Y-112430D01*
X40975Y-112486D01*
X40984Y-112550D01*
X41002Y-112624D01*
X41021Y-112717D01*
X41039Y-112809D01*
X41095Y-113031D01*
X41150Y-113272D01*
X41224Y-113522D01*
X41308Y-113771D01*
Y-113781D01*
X41317Y-113790D01*
X41326Y-113818D01*
X41335Y-113855D01*
X41354Y-113901D01*
X41382Y-113956D01*
X41400Y-114021D01*
X41437Y-114095D01*
X41474Y-114188D01*
X41511Y-114280D01*
X41557Y-114382D01*
X41604Y-114502D01*
X41659Y-114622D01*
X41715Y-114761D01*
X41779Y-114900D01*
X41853Y-115057D01*
X41012D01*
X41002Y-115048D01*
X40984Y-115011D01*
X40947Y-114955D01*
X40901Y-114881D01*
X40845Y-114789D01*
X40780Y-114678D01*
X40706Y-114548D01*
X40632Y-114410D01*
X40549Y-114262D01*
X40466Y-114095D01*
X40383Y-113919D01*
X40290Y-113744D01*
X40133Y-113355D01*
X39985Y-112957D01*
Y-112948D01*
X39966Y-112911D01*
X39957Y-112846D01*
X39929Y-112772D01*
X39902Y-112671D01*
X39874Y-112560D01*
X39846Y-112430D01*
X39818Y-112291D01*
X39781Y-112134D01*
X39754Y-111968D01*
X39698Y-111616D01*
X39661Y-111237D01*
X39643Y-110858D01*
Y-110839D01*
Y-110802D01*
Y-110737D01*
X39652Y-110645D01*
Y-110534D01*
X39661Y-110395D01*
X39680Y-110247D01*
X39698Y-110081D01*
X39717Y-109905D01*
X39744Y-109720D01*
X39818Y-109313D01*
X39929Y-108897D01*
X39994Y-108684D01*
X40068Y-108471D01*
Y-108462D01*
X40087Y-108425D01*
X40105Y-108379D01*
X40133Y-108305D01*
X40170Y-108221D01*
X40216Y-108120D01*
X40272Y-107999D01*
X40327Y-107879D01*
X40392Y-107740D01*
X40466Y-107602D01*
X40623Y-107296D01*
X40817Y-106973D01*
X41021Y-106658D01*
X41863D01*
X41853Y-106677D01*
D02*
G37*
%LPC*%
G36*
X82000Y79529D02*
X81415Y79413D01*
X80919Y79081D01*
X80587Y78585D01*
X80471Y78000D01*
X80587Y77415D01*
X80919Y76919D01*
X81415Y76587D01*
X82000Y76471D01*
X82585Y76587D01*
X83081Y76919D01*
X83413Y77415D01*
X83529Y78000D01*
X83413Y78585D01*
X83081Y79081D01*
X82585Y79413D01*
X82000Y79529D01*
D02*
G37*
G36*
X78000D02*
X77415Y79413D01*
X76919Y79081D01*
X76587Y78585D01*
X76471Y78000D01*
X76587Y77415D01*
X76919Y76919D01*
X77415Y76587D01*
X78000Y76471D01*
X78585Y76587D01*
X79081Y76919D01*
X79413Y77415D01*
X79529Y78000D01*
X79413Y78585D01*
X79081Y79081D01*
X78585Y79413D01*
X78000Y79529D01*
D02*
G37*
G36*
X104000Y89023D02*
X102474Y88873D01*
X101007Y88428D01*
X99655Y87705D01*
X98470Y86732D01*
X97497Y85547D01*
X96774Y84195D01*
X96329Y82728D01*
X96179Y81202D01*
X96329Y79676D01*
X96774Y78209D01*
X97497Y76857D01*
X98470Y75672D01*
X99655Y74699D01*
X101007Y73976D01*
X102474Y73531D01*
X104000Y73381D01*
X105526Y73531D01*
X106993Y73976D01*
X108345Y74699D01*
X109530Y75672D01*
X110503Y76857D01*
X111226Y78209D01*
X111671Y79676D01*
X111821Y81202D01*
X111671Y82728D01*
X111226Y84195D01*
X110503Y85547D01*
X109530Y86732D01*
X108345Y87705D01*
X106993Y88428D01*
X105526Y88873D01*
X104000Y89023D01*
D02*
G37*
G36*
X88000Y62529D02*
X87415Y62413D01*
X86919Y62081D01*
X86587Y61585D01*
X86471Y61000D01*
X86587Y60415D01*
X86919Y59919D01*
X87415Y59587D01*
X88000Y59471D01*
X88585Y59587D01*
X89081Y59919D01*
X89413Y60415D01*
X89529Y61000D01*
X89413Y61585D01*
X89081Y62081D01*
X88585Y62413D01*
X88000Y62529D01*
D02*
G37*
G36*
X73000Y61529D02*
X72415Y61413D01*
X71919Y61081D01*
X71587Y60585D01*
X71471Y60000D01*
X71587Y59415D01*
X71919Y58919D01*
X72415Y58587D01*
X73000Y58471D01*
X73585Y58587D01*
X74081Y58919D01*
X74413Y59415D01*
X74529Y60000D01*
X74413Y60585D01*
X74081Y61081D01*
X73585Y61413D01*
X73000Y61529D01*
D02*
G37*
G36*
X82500Y59529D02*
X81915Y59413D01*
X81419Y59081D01*
X81087Y58585D01*
X80971Y58000D01*
X81087Y57415D01*
X81419Y56919D01*
X81915Y56587D01*
X82500Y56471D01*
X83085Y56587D01*
X83581Y56919D01*
X83913Y57415D01*
X84029Y58000D01*
X83913Y58585D01*
X83581Y59081D01*
X83085Y59413D01*
X82500Y59529D01*
D02*
G37*
G36*
X85000Y57029D02*
X84415Y56913D01*
X83919Y56581D01*
X83587Y56085D01*
X83471Y55500D01*
X83587Y54915D01*
X83919Y54419D01*
X84415Y54087D01*
X85000Y53971D01*
X85585Y54087D01*
X86081Y54419D01*
X86413Y54915D01*
X86529Y55500D01*
X86413Y56085D01*
X86081Y56581D01*
X85585Y56913D01*
X85000Y57029D01*
D02*
G37*
G36*
X75000Y53325D02*
X74493Y53225D01*
X74063Y52937D01*
X73775Y52507D01*
X73674Y52000D01*
X73775Y51493D01*
X74063Y51063D01*
X74493Y50775D01*
X75000Y50674D01*
X75507Y50775D01*
X75937Y51063D01*
X76225Y51493D01*
X76326Y52000D01*
X76225Y52507D01*
X75937Y52937D01*
X75507Y53225D01*
X75000Y53325D01*
D02*
G37*
G36*
Y48825D02*
X74493Y48725D01*
X74063Y48437D01*
X73775Y48007D01*
X73674Y47500D01*
X73775Y46993D01*
X74063Y46563D01*
X74493Y46275D01*
X75000Y46174D01*
X75507Y46275D01*
X75937Y46563D01*
X76225Y46993D01*
X76326Y47500D01*
X76225Y48007D01*
X75937Y48437D01*
X75507Y48725D01*
X75000Y48825D01*
D02*
G37*
G36*
X90000Y44588D02*
X89415Y44472D01*
X88919Y44140D01*
X88587Y43644D01*
X88471Y43059D01*
X88587Y42474D01*
X88919Y41978D01*
X89415Y41646D01*
X90000Y41530D01*
X90585Y41646D01*
X91081Y41978D01*
X91413Y42474D01*
X91529Y43059D01*
X91413Y43644D01*
X91081Y44140D01*
X90585Y44472D01*
X90000Y44588D01*
D02*
G37*
G36*
X83000Y44529D02*
X82415Y44413D01*
X81919Y44081D01*
X81587Y43585D01*
X81471Y43000D01*
X81587Y42415D01*
X81919Y41919D01*
X82415Y41587D01*
X83000Y41471D01*
X83585Y41587D01*
X84081Y41919D01*
X84413Y42415D01*
X84529Y43000D01*
X84413Y43585D01*
X84081Y44081D01*
X83585Y44413D01*
X83000Y44529D01*
D02*
G37*
G36*
X103000Y42029D02*
X102415Y41913D01*
X101919Y41581D01*
X101587Y41085D01*
X101471Y40500D01*
X101587Y39915D01*
X101919Y39419D01*
X102415Y39087D01*
X103000Y38971D01*
X103585Y39087D01*
X104081Y39419D01*
X104413Y39915D01*
X104529Y40500D01*
X104413Y41085D01*
X104081Y41581D01*
X103585Y41913D01*
X103000Y42029D01*
D02*
G37*
G36*
X90000Y39470D02*
X89415Y39354D01*
X88919Y39022D01*
X88587Y38526D01*
X88471Y37941D01*
X88587Y37356D01*
X88919Y36860D01*
X89415Y36528D01*
X90000Y36412D01*
X90585Y36528D01*
X91081Y36860D01*
X91413Y37356D01*
X91529Y37941D01*
X91413Y38526D01*
X91081Y39022D01*
X90585Y39354D01*
X90000Y39470D01*
D02*
G37*
G36*
Y33088D02*
X89415Y32972D01*
X88919Y32640D01*
X88587Y32144D01*
X88471Y31559D01*
X88587Y30974D01*
X88919Y30478D01*
X89415Y30146D01*
X90000Y30030D01*
X90585Y30146D01*
X91081Y30478D01*
X91413Y30974D01*
X91529Y31559D01*
X91413Y32144D01*
X91081Y32640D01*
X90585Y32972D01*
X90000Y33088D01*
D02*
G37*
G36*
X103000Y30529D02*
X102415Y30413D01*
X101919Y30081D01*
X101587Y29585D01*
X101471Y29000D01*
X101587Y28415D01*
X101919Y27919D01*
X102415Y27587D01*
X103000Y27471D01*
X103585Y27587D01*
X104081Y27919D01*
X104413Y28415D01*
X104529Y29000D01*
X104413Y29585D01*
X104081Y30081D01*
X103585Y30413D01*
X103000Y30529D01*
D02*
G37*
G36*
X90000Y27970D02*
X89415Y27854D01*
X88919Y27522D01*
X88587Y27026D01*
X88471Y26441D01*
X88587Y25856D01*
X88919Y25360D01*
X89415Y25028D01*
X90000Y24912D01*
X90585Y25028D01*
X91081Y25360D01*
X91413Y25856D01*
X91529Y26441D01*
X91413Y27026D01*
X91081Y27522D01*
X90585Y27854D01*
X90000Y27970D01*
D02*
G37*
G36*
X76500Y26529D02*
X75915Y26413D01*
X75419Y26081D01*
X75087Y25585D01*
X74971Y25000D01*
X75087Y24415D01*
X75419Y23919D01*
X75915Y23587D01*
X76500Y23471D01*
X77085Y23587D01*
X77581Y23919D01*
X77913Y24415D01*
X78029Y25000D01*
X77913Y25585D01*
X77581Y26081D01*
X77085Y26413D01*
X76500Y26529D01*
D02*
G37*
G36*
X68800Y15694D02*
X68215Y15578D01*
X67719Y15246D01*
X67387Y14750D01*
X67271Y14165D01*
X67387Y13580D01*
X67719Y13084D01*
X68215Y12752D01*
X68800Y12636D01*
X69385Y12752D01*
X69881Y13084D01*
X70213Y13580D01*
X70329Y14165D01*
X70213Y14750D01*
X69881Y15246D01*
X69385Y15578D01*
X68800Y15694D01*
D02*
G37*
G36*
X62500Y8029D02*
X61915Y7913D01*
X61419Y7581D01*
X61087Y7085D01*
X60971Y6500D01*
X61087Y5915D01*
X61419Y5419D01*
X61915Y5087D01*
X62500Y4971D01*
X63085Y5087D01*
X63581Y5419D01*
X63913Y5915D01*
X64029Y6500D01*
X63913Y7085D01*
X63581Y7581D01*
X63085Y7913D01*
X62500Y8029D01*
D02*
G37*
G36*
X5846Y7121D02*
X5358Y7024D01*
X4945Y6747D01*
X4669Y6334D01*
X4572Y5846D01*
X4669Y5358D01*
X4945Y4945D01*
X5358Y4669D01*
X5846Y4572D01*
X6334Y4669D01*
X6747Y4945D01*
X7024Y5358D01*
X7121Y5846D01*
X7024Y6334D01*
X6747Y6747D01*
X6334Y7024D01*
X5846Y7121D01*
D02*
G37*
G36*
X-5846D02*
X-6334Y7024D01*
X-6747Y6747D01*
X-7024Y6334D01*
X-7121Y5846D01*
X-7024Y5358D01*
X-6747Y4945D01*
X-6334Y4669D01*
X-5846Y4572D01*
X-5358Y4669D01*
X-4945Y4945D01*
X-4669Y5358D01*
X-4572Y5846D01*
X-4669Y6334D01*
X-4945Y6747D01*
X-5358Y7024D01*
X-5846Y7121D01*
D02*
G37*
G36*
X83000Y4029D02*
X82415Y3913D01*
X81919Y3581D01*
X81587Y3085D01*
X81471Y2500D01*
X81587Y1915D01*
X81919Y1419D01*
X82415Y1087D01*
X83000Y971D01*
X83585Y1087D01*
X84081Y1419D01*
X84413Y1915D01*
X84529Y2500D01*
X84413Y3085D01*
X84081Y3581D01*
X83585Y3913D01*
X83000Y4029D01*
D02*
G37*
G36*
X53500D02*
X52915Y3913D01*
X52419Y3581D01*
X52087Y3085D01*
X51971Y2500D01*
X52087Y1915D01*
X52419Y1419D01*
X52915Y1087D01*
X53500Y971D01*
X54085Y1087D01*
X54581Y1419D01*
X54913Y1915D01*
X55029Y2500D01*
X54913Y3085D01*
X54581Y3581D01*
X54085Y3913D01*
X53500Y4029D01*
D02*
G37*
G36*
X8268Y1275D02*
X7780Y1178D01*
X7367Y901D01*
X7090Y488D01*
X6993Y0D01*
X7090Y-488D01*
X7367Y-901D01*
X7780Y-1178D01*
X8268Y-1275D01*
X8755Y-1178D01*
X9169Y-901D01*
X9445Y-488D01*
X9542Y0D01*
X9445Y488D01*
X9169Y901D01*
X8755Y1178D01*
X8268Y1275D01*
D02*
G37*
G36*
X-8268D02*
X-8755Y1178D01*
X-9169Y901D01*
X-9445Y488D01*
X-9542Y0D01*
X-9445Y-488D01*
X-9169Y-901D01*
X-8755Y-1178D01*
X-8268Y-1275D01*
X-7780Y-1178D01*
X-7367Y-901D01*
X-7090Y-488D01*
X-6993Y0D01*
X-7090Y488D01*
X-7367Y901D01*
X-7780Y1178D01*
X-8268Y1275D01*
D02*
G37*
G36*
X48000Y-4471D02*
X47415Y-4587D01*
X46919Y-4919D01*
X46587Y-5415D01*
X46533Y-5684D01*
X46505Y-5828D01*
X45995D01*
X45967Y-5684D01*
X45913Y-5415D01*
X45581Y-4919D01*
X45085Y-4587D01*
X44500Y-4471D01*
X43915Y-4587D01*
X43419Y-4919D01*
X43087Y-5415D01*
X42971Y-6000D01*
X43087Y-6585D01*
X43419Y-7081D01*
X43915Y-7413D01*
X44500Y-7529D01*
X45085Y-7413D01*
X45581Y-7081D01*
X45913Y-6585D01*
X45967Y-6316D01*
X45995Y-6172D01*
X46505D01*
X46533Y-6316D01*
X46587Y-6585D01*
X46919Y-7081D01*
X47415Y-7413D01*
X48000Y-7529D01*
X48585Y-7413D01*
X49081Y-7081D01*
X49413Y-6585D01*
X49529Y-6000D01*
X49413Y-5415D01*
X49081Y-4919D01*
X48585Y-4587D01*
X48000Y-4471D01*
D02*
G37*
G36*
X29500Y-2971D02*
X28915Y-3087D01*
X28419Y-3419D01*
X28087Y-3915D01*
X27971Y-4500D01*
X28087Y-5085D01*
X28419Y-5581D01*
X28915Y-5913D01*
X29500Y-6029D01*
X30085Y-5913D01*
X30581Y-5581D01*
X30913Y-5085D01*
X31029Y-4500D01*
X30913Y-3915D01*
X30581Y-3419D01*
X30085Y-3087D01*
X29500Y-2971D01*
D02*
G37*
G36*
X25000D02*
X24415Y-3087D01*
X23919Y-3419D01*
X23587Y-3915D01*
X23471Y-4500D01*
X23587Y-5085D01*
X23919Y-5581D01*
X24415Y-5913D01*
X25000Y-6029D01*
X25585Y-5913D01*
X26081Y-5581D01*
X26413Y-5085D01*
X26529Y-4500D01*
X26413Y-3915D01*
X26081Y-3419D01*
X25585Y-3087D01*
X25000Y-2971D01*
D02*
G37*
G36*
X0Y6436D02*
X-1256Y6313D01*
X-2463Y5946D01*
X-3576Y5352D01*
X-4551Y4551D01*
X-5352Y3576D01*
X-5946Y2463D01*
X-6313Y1256D01*
X-6436Y0D01*
X-6313Y-1256D01*
X-5946Y-2463D01*
X-5352Y-3576D01*
X-4551Y-4551D01*
X-3576Y-5352D01*
X-2463Y-5946D01*
X-1256Y-6313D01*
X0Y-6436D01*
X1256Y-6313D01*
X2463Y-5946D01*
X3576Y-5352D01*
X4551Y-4551D01*
X5352Y-3576D01*
X5946Y-2463D01*
X6313Y-1256D01*
X6436Y0D01*
X6313Y1256D01*
X5946Y2463D01*
X5352Y3576D01*
X4551Y4551D01*
X3576Y5352D01*
X2463Y5946D01*
X1256Y6313D01*
X0Y6436D01*
D02*
G37*
G36*
X5846Y-4572D02*
X5358Y-4669D01*
X4945Y-4945D01*
X4669Y-5358D01*
X4572Y-5846D01*
X4669Y-6334D01*
X4945Y-6747D01*
X5358Y-7024D01*
X5846Y-7121D01*
X6334Y-7024D01*
X6747Y-6747D01*
X7024Y-6334D01*
X7121Y-5846D01*
X7024Y-5358D01*
X6747Y-4945D01*
X6334Y-4669D01*
X5846Y-4572D01*
D02*
G37*
G36*
X-5846D02*
X-6334Y-4669D01*
X-6747Y-4945D01*
X-7024Y-5358D01*
X-7121Y-5846D01*
X-7024Y-6334D01*
X-6747Y-6747D01*
X-6334Y-7024D01*
X-5846Y-7121D01*
X-5358Y-7024D01*
X-4945Y-6747D01*
X-4669Y-6334D01*
X-4572Y-5846D01*
X-4669Y-5358D01*
X-4945Y-4945D01*
X-5358Y-4669D01*
X-5846Y-4572D01*
D02*
G37*
G36*
X40500Y-4471D02*
X39915Y-4587D01*
X39419Y-4919D01*
X39087Y-5415D01*
X38971Y-6000D01*
X39087Y-6585D01*
X39419Y-7081D01*
X39915Y-7413D01*
X40500Y-7529D01*
X41085Y-7413D01*
X41581Y-7081D01*
X41913Y-6585D01*
X42029Y-6000D01*
X41913Y-5415D01*
X41581Y-4919D01*
X41085Y-4587D01*
X40500Y-4471D01*
D02*
G37*
G36*
X0Y-6993D02*
X-488Y-7090D01*
X-901Y-7367D01*
X-1178Y-7780D01*
X-1275Y-8268D01*
X-1178Y-8755D01*
X-901Y-9169D01*
X-488Y-9445D01*
X0Y-9542D01*
X488Y-9445D01*
X901Y-9169D01*
X1178Y-8755D01*
X1275Y-8268D01*
X1178Y-7780D01*
X901Y-7367D01*
X488Y-7090D01*
X0Y-6993D01*
D02*
G37*
G36*
X45500Y-11174D02*
X44993Y-11275D01*
X44563Y-11563D01*
X44275Y-11993D01*
X44175Y-12500D01*
X44275Y-13007D01*
X44563Y-13437D01*
X44993Y-13725D01*
X45500Y-13826D01*
X46007Y-13725D01*
X46437Y-13437D01*
X46725Y-13007D01*
X46826Y-12500D01*
X46725Y-11993D01*
X46437Y-11563D01*
X46007Y-11275D01*
X45500Y-11174D01*
D02*
G37*
G36*
X88250Y-12221D02*
X87665Y-12337D01*
X87169Y-12669D01*
X86837Y-13165D01*
X86721Y-13750D01*
X86837Y-14335D01*
X87169Y-14831D01*
X87665Y-15163D01*
X88250Y-15279D01*
X88835Y-15163D01*
X89331Y-14831D01*
X89663Y-14335D01*
X89779Y-13750D01*
X89663Y-13165D01*
X89331Y-12669D01*
X88835Y-12337D01*
X88250Y-12221D01*
D02*
G37*
G36*
X70000Y-12471D02*
X69415Y-12587D01*
X68919Y-12919D01*
X68587Y-13415D01*
X68471Y-14000D01*
X68587Y-14585D01*
X68919Y-15081D01*
X69415Y-15413D01*
X70000Y-15529D01*
X70585Y-15413D01*
X71081Y-15081D01*
X71413Y-14585D01*
X71529Y-14000D01*
X71413Y-13415D01*
X71081Y-12919D01*
X70585Y-12587D01*
X70000Y-12471D01*
D02*
G37*
G36*
X63000Y-15971D02*
X62415Y-16087D01*
X61919Y-16419D01*
X61587Y-16915D01*
X61471Y-17500D01*
X61587Y-18085D01*
X61919Y-18581D01*
X62415Y-18913D01*
X63000Y-19029D01*
X63585Y-18913D01*
X64081Y-18581D01*
X64413Y-18085D01*
X64529Y-17500D01*
X64413Y-16915D01*
X64081Y-16419D01*
X63585Y-16087D01*
X63000Y-15971D01*
D02*
G37*
G36*
X58500D02*
X57915Y-16087D01*
X57419Y-16419D01*
X57087Y-16915D01*
X56971Y-17500D01*
X57087Y-18085D01*
X57419Y-18581D01*
X57915Y-18913D01*
X58500Y-19029D01*
X59085Y-18913D01*
X59581Y-18581D01*
X59913Y-18085D01*
X60029Y-17500D01*
X59913Y-16915D01*
X59581Y-16419D01*
X59085Y-16087D01*
X58500Y-15971D01*
D02*
G37*
G36*
X76500Y-17171D02*
X75915Y-17287D01*
X75419Y-17619D01*
X75087Y-18115D01*
X74971Y-18700D01*
X75087Y-19285D01*
X75419Y-19781D01*
X75915Y-20113D01*
X76500Y-20229D01*
X77085Y-20113D01*
X77581Y-19781D01*
X77913Y-19285D01*
X78029Y-18700D01*
X77913Y-18115D01*
X77581Y-17619D01*
X77085Y-17287D01*
X76500Y-17171D01*
D02*
G37*
G36*
X21000Y-17971D02*
X20415Y-18087D01*
X19919Y-18419D01*
X19587Y-18915D01*
X19471Y-19500D01*
X19587Y-20085D01*
X19919Y-20581D01*
X20415Y-20913D01*
X21000Y-21029D01*
X21585Y-20913D01*
X22081Y-20581D01*
X22413Y-20085D01*
X22529Y-19500D01*
X22413Y-18915D01*
X22081Y-18419D01*
X21585Y-18087D01*
X21000Y-17971D01*
D02*
G37*
G36*
X17000D02*
X16415Y-18087D01*
X15919Y-18419D01*
X15587Y-18915D01*
X15471Y-19500D01*
X15587Y-20085D01*
X15919Y-20581D01*
X16415Y-20913D01*
X17000Y-21029D01*
X17585Y-20913D01*
X18081Y-20581D01*
X18413Y-20085D01*
X18529Y-19500D01*
X18413Y-18915D01*
X18081Y-18419D01*
X17585Y-18087D01*
X17000Y-17971D01*
D02*
G37*
G36*
X66500Y-23471D02*
X65915Y-23587D01*
X65419Y-23919D01*
X65087Y-24415D01*
X64971Y-25000D01*
X65087Y-25585D01*
X65419Y-26081D01*
X65915Y-26413D01*
X66500Y-26529D01*
X67085Y-26413D01*
X67581Y-26081D01*
X67913Y-25585D01*
X68029Y-25000D01*
X67913Y-24415D01*
X67581Y-23919D01*
X67085Y-23587D01*
X66500Y-23471D01*
D02*
G37*
G36*
X55500Y-23971D02*
X54915Y-24087D01*
X54419Y-24419D01*
X54087Y-24915D01*
X53971Y-25500D01*
X54087Y-26085D01*
X54419Y-26581D01*
X54915Y-26913D01*
X55500Y-27029D01*
X56085Y-26913D01*
X56581Y-26581D01*
X56913Y-26085D01*
X57029Y-25500D01*
X56913Y-24915D01*
X56581Y-24419D01*
X56085Y-24087D01*
X55500Y-23971D01*
D02*
G37*
G36*
X37000Y-24471D02*
X36415Y-24587D01*
X35919Y-24919D01*
X35587Y-25415D01*
X35471Y-26000D01*
X35587Y-26585D01*
X35919Y-27081D01*
X36415Y-27413D01*
X37000Y-27529D01*
X37585Y-27413D01*
X38081Y-27081D01*
X38413Y-26585D01*
X38529Y-26000D01*
X38413Y-25415D01*
X38081Y-24919D01*
X37585Y-24587D01*
X37000Y-24471D01*
D02*
G37*
G36*
X43400Y-24571D02*
X42815Y-24687D01*
X42319Y-25019D01*
X41987Y-25515D01*
X41871Y-26100D01*
X41987Y-26685D01*
X42319Y-27181D01*
X42815Y-27513D01*
X43400Y-27629D01*
X43985Y-27513D01*
X44481Y-27181D01*
X44813Y-26685D01*
X44929Y-26100D01*
X44813Y-25515D01*
X44481Y-25019D01*
X43985Y-24687D01*
X43400Y-24571D01*
D02*
G37*
G36*
X63386Y-25971D02*
X62801Y-26087D01*
X62305Y-26419D01*
X61973Y-26915D01*
X61857Y-27500D01*
X61973Y-28085D01*
X62305Y-28581D01*
X62801Y-28913D01*
X63386Y-29029D01*
X63971Y-28913D01*
X64467Y-28581D01*
X64799Y-28085D01*
X64915Y-27500D01*
X64799Y-26915D01*
X64467Y-26419D01*
X63971Y-26087D01*
X63386Y-25971D01*
D02*
G37*
G36*
X43500Y-28471D02*
X42915Y-28587D01*
X42419Y-28919D01*
X42087Y-29415D01*
X42033Y-29684D01*
X42005Y-29828D01*
X41495D01*
X41467Y-29684D01*
X41413Y-29415D01*
X41081Y-28919D01*
X40585Y-28587D01*
X40000Y-28471D01*
X39415Y-28587D01*
X38919Y-28919D01*
X38587Y-29415D01*
X38471Y-30000D01*
X38587Y-30585D01*
X38919Y-31081D01*
X39415Y-31413D01*
X40000Y-31529D01*
X40585Y-31413D01*
X41081Y-31081D01*
X41413Y-30585D01*
X41467Y-30316D01*
X41495Y-30172D01*
X42005D01*
X42033Y-30316D01*
X42087Y-30585D01*
X42419Y-31081D01*
X42915Y-31413D01*
X43500Y-31529D01*
X44085Y-31413D01*
X44581Y-31081D01*
X44913Y-30585D01*
X45029Y-30000D01*
X44913Y-29415D01*
X44581Y-28919D01*
X44085Y-28587D01*
X43500Y-28471D01*
D02*
G37*
G36*
X69200Y-27871D02*
X68615Y-27987D01*
X68119Y-28319D01*
X67787Y-28815D01*
X67671Y-29400D01*
X67787Y-29985D01*
X68119Y-30481D01*
X68615Y-30813D01*
X69200Y-30929D01*
X69785Y-30813D01*
X70281Y-30481D01*
X70613Y-29985D01*
X70729Y-29400D01*
X70613Y-28815D01*
X70281Y-28319D01*
X69785Y-27987D01*
X69200Y-27871D01*
D02*
G37*
G36*
X58661Y-27971D02*
X58076Y-28087D01*
X57580Y-28419D01*
X57248Y-28915D01*
X57132Y-29500D01*
X57248Y-30085D01*
X57580Y-30581D01*
X58076Y-30913D01*
X58661Y-31029D01*
X59246Y-30913D01*
X59742Y-30581D01*
X60074Y-30085D01*
X60190Y-29500D01*
X60074Y-28915D01*
X59742Y-28419D01*
X59246Y-28087D01*
X58661Y-27971D01*
D02*
G37*
G36*
X1500D02*
X915Y-28087D01*
X419Y-28419D01*
X87Y-28915D01*
X-29Y-29500D01*
X87Y-30085D01*
X419Y-30581D01*
X915Y-30913D01*
X1500Y-31029D01*
X2085Y-30913D01*
X2581Y-30581D01*
X2913Y-30085D01*
X3029Y-29500D01*
X2913Y-28915D01*
X2581Y-28419D01*
X2085Y-28087D01*
X1500Y-27971D01*
D02*
G37*
G36*
X26300Y-28771D02*
X25715Y-28887D01*
X25219Y-29219D01*
X24887Y-29715D01*
X24771Y-30300D01*
X24887Y-30885D01*
X25219Y-31381D01*
X25715Y-31713D01*
X26300Y-31829D01*
X26885Y-31713D01*
X27381Y-31381D01*
X27713Y-30885D01*
X27829Y-30300D01*
X27713Y-29715D01*
X27381Y-29219D01*
X26885Y-28887D01*
X26300Y-28771D01*
D02*
G37*
G36*
X20800D02*
X20215Y-28887D01*
X19719Y-29219D01*
X19387Y-29715D01*
X19271Y-30300D01*
X19387Y-30885D01*
X19719Y-31381D01*
X20215Y-31713D01*
X20800Y-31829D01*
X21385Y-31713D01*
X21881Y-31381D01*
X22213Y-30885D01*
X22329Y-30300D01*
X22213Y-29715D01*
X21881Y-29219D01*
X21385Y-28887D01*
X20800Y-28771D01*
D02*
G37*
G36*
X78000Y-30471D02*
X77415Y-30587D01*
X76919Y-30919D01*
X76587Y-31415D01*
X76471Y-32000D01*
X76587Y-32585D01*
X76919Y-33081D01*
X77415Y-33413D01*
X78000Y-33529D01*
X78585Y-33413D01*
X79081Y-33081D01*
X79413Y-32585D01*
X79529Y-32000D01*
X79413Y-31415D01*
X79081Y-30919D01*
X78585Y-30587D01*
X78000Y-30471D01*
D02*
G37*
G36*
X1205Y86529D02*
X620Y86413D01*
X124Y86081D01*
X-208Y85585D01*
X-324Y85000D01*
X-208Y84415D01*
X124Y83919D01*
X620Y83587D01*
X1205Y83471D01*
X1790Y83587D01*
X2286Y83919D01*
X2618Y84415D01*
X2734Y85000D01*
X2618Y85585D01*
X2286Y86081D01*
X1790Y86413D01*
X1205Y86529D01*
D02*
G37*
G36*
X-14111Y89023D02*
X-15637Y88873D01*
X-17104Y88428D01*
X-18456Y87705D01*
X-19641Y86732D01*
X-20614Y85547D01*
X-21337Y84195D01*
X-21782Y82728D01*
X-21932Y81202D01*
X-21782Y79676D01*
X-21337Y78209D01*
X-20614Y76857D01*
X-19641Y75672D01*
X-18456Y74699D01*
X-17104Y73976D01*
X-15637Y73531D01*
X-14111Y73381D01*
X-12585Y73531D01*
X-11118Y73976D01*
X-9766Y74699D01*
X-8581Y75672D01*
X-7608Y76857D01*
X-6885Y78209D01*
X-6440Y79676D01*
X-6290Y81202D01*
X-6440Y82728D01*
X-6885Y84195D01*
X-7608Y85547D01*
X-8581Y86732D01*
X-9766Y87705D01*
X-11118Y88428D01*
X-12585Y88873D01*
X-14111Y89023D01*
D02*
G37*
G36*
X-31500Y73017D02*
X-32463Y72825D01*
X-33280Y72280D01*
X-33825Y71463D01*
X-34017Y70500D01*
X-33825Y69537D01*
X-33280Y68720D01*
X-32463Y68175D01*
X-31500Y67983D01*
X-30537Y68175D01*
X-29720Y68720D01*
X-29175Y69537D01*
X-28983Y70500D01*
X-29175Y71463D01*
X-29720Y72280D01*
X-30537Y72825D01*
X-31500Y73017D01*
D02*
G37*
G36*
X-11000Y68529D02*
X-11585Y68413D01*
X-12081Y68081D01*
X-12413Y67585D01*
X-12529Y67000D01*
X-12413Y66415D01*
X-12081Y65919D01*
X-11905Y65801D01*
Y65199D01*
X-12081Y65081D01*
X-12413Y64585D01*
X-12529Y64000D01*
X-12413Y63415D01*
X-12081Y62919D01*
X-11585Y62587D01*
X-11000Y62471D01*
X-10415Y62587D01*
X-9919Y62919D01*
X-9587Y63415D01*
X-9471Y64000D01*
X-9587Y64585D01*
X-9919Y65081D01*
X-10095Y65199D01*
Y65801D01*
X-9919Y65919D01*
X-9587Y66415D01*
X-9471Y67000D01*
X-9587Y67585D01*
X-9919Y68081D01*
X-10415Y68413D01*
X-11000Y68529D01*
D02*
G37*
G36*
X117500Y53530D02*
X116915Y53414D01*
X116419Y53082D01*
X116087Y52586D01*
X115971Y52001D01*
X116087Y51416D01*
X116419Y50920D01*
X116915Y50588D01*
X117500Y50472D01*
X118085Y50588D01*
X118581Y50920D01*
X118913Y51416D01*
X119029Y52001D01*
X118913Y52586D01*
X118581Y53082D01*
X118085Y53414D01*
X117500Y53530D01*
D02*
G37*
G36*
Y47030D02*
X116915Y46914D01*
X116419Y46582D01*
X116087Y46086D01*
X115971Y45501D01*
X116087Y44916D01*
X116419Y44420D01*
X116915Y44088D01*
X117500Y43972D01*
X118085Y44088D01*
X118581Y44420D01*
X118913Y44916D01*
X119029Y45501D01*
X118913Y46086D01*
X118581Y46582D01*
X118085Y46914D01*
X117500Y47030D01*
D02*
G37*
G36*
Y40530D02*
X116915Y40414D01*
X116419Y40082D01*
X116087Y39586D01*
X115971Y39001D01*
X116087Y38416D01*
X116419Y37920D01*
X116915Y37588D01*
X117500Y37472D01*
X118085Y37588D01*
X118581Y37920D01*
X118913Y38416D01*
X119029Y39001D01*
X118913Y39586D01*
X118581Y40082D01*
X118085Y40414D01*
X117500Y40530D01*
D02*
G37*
G36*
Y34046D02*
X116915Y33930D01*
X116419Y33598D01*
X116087Y33102D01*
X115971Y32517D01*
X116087Y31932D01*
X116419Y31436D01*
X116915Y31104D01*
X117500Y30988D01*
X118085Y31104D01*
X118581Y31436D01*
X118913Y31932D01*
X119029Y32517D01*
X118913Y33102D01*
X118581Y33598D01*
X118085Y33930D01*
X117500Y34046D01*
D02*
G37*
G36*
X-44000Y6029D02*
X-44585Y5913D01*
X-45081Y5581D01*
X-45413Y5085D01*
X-45529Y4500D01*
X-45413Y3915D01*
X-45081Y3419D01*
X-44585Y3087D01*
X-44000Y2971D01*
X-43415Y3087D01*
X-42919Y3419D01*
X-42587Y3915D01*
X-42471Y4500D01*
X-42587Y5085D01*
X-42919Y5581D01*
X-43415Y5913D01*
X-44000Y6029D01*
D02*
G37*
G36*
Y-3471D02*
X-44585Y-3587D01*
X-45081Y-3919D01*
X-45413Y-4415D01*
X-45529Y-5000D01*
X-45413Y-5585D01*
X-45081Y-6081D01*
X-44585Y-6413D01*
X-44000Y-6529D01*
X-43415Y-6413D01*
X-42919Y-6081D01*
X-42587Y-5585D01*
X-42471Y-5000D01*
X-42587Y-4415D01*
X-42919Y-3919D01*
X-43415Y-3587D01*
X-44000Y-3471D01*
D02*
G37*
G36*
Y-8471D02*
X-44585Y-8587D01*
X-45081Y-8919D01*
X-45413Y-9415D01*
X-45529Y-10000D01*
X-45413Y-10585D01*
X-45081Y-11081D01*
X-44585Y-11413D01*
X-44000Y-11529D01*
X-43415Y-11413D01*
X-42919Y-11081D01*
X-42587Y-10585D01*
X-42471Y-10000D01*
X-42587Y-9415D01*
X-42919Y-8919D01*
X-43415Y-8587D01*
X-44000Y-8471D01*
D02*
G37*
G36*
Y-18471D02*
X-44585Y-18587D01*
X-45081Y-18919D01*
X-45413Y-19415D01*
X-45529Y-20000D01*
X-45413Y-20585D01*
X-45081Y-21081D01*
X-44585Y-21413D01*
X-44000Y-21529D01*
X-43415Y-21413D01*
X-42919Y-21081D01*
X-42587Y-20585D01*
X-42471Y-20000D01*
X-42587Y-19415D01*
X-42919Y-18919D01*
X-43415Y-18587D01*
X-44000Y-18471D01*
D02*
G37*
G36*
X26300Y-38171D02*
X25715Y-38287D01*
X25219Y-38619D01*
X24887Y-39115D01*
X24771Y-39700D01*
X24887Y-40285D01*
X25219Y-40781D01*
X25715Y-41113D01*
X26300Y-41229D01*
X26885Y-41113D01*
X27381Y-40781D01*
X27713Y-40285D01*
X27829Y-39700D01*
X27713Y-39115D01*
X27381Y-38619D01*
X26885Y-38287D01*
X26300Y-38171D01*
D02*
G37*
G36*
X15000Y-39971D02*
X14415Y-40087D01*
X13919Y-40419D01*
X13587Y-40915D01*
X13471Y-41500D01*
X13587Y-42085D01*
X13919Y-42581D01*
X14415Y-42913D01*
X15000Y-43029D01*
X15585Y-42913D01*
X16081Y-42581D01*
X16413Y-42085D01*
X16529Y-41500D01*
X16413Y-40915D01*
X16081Y-40419D01*
X15585Y-40087D01*
X15000Y-39971D01*
D02*
G37*
G36*
X56500Y-40471D02*
X55915Y-40587D01*
X55419Y-40919D01*
X55087Y-41415D01*
X54971Y-42000D01*
X55087Y-42585D01*
X55419Y-43081D01*
X55915Y-43413D01*
X56500Y-43529D01*
X57085Y-43413D01*
X57581Y-43081D01*
X57913Y-42585D01*
X58029Y-42000D01*
X57913Y-41415D01*
X57581Y-40919D01*
X57085Y-40587D01*
X56500Y-40471D01*
D02*
G37*
G36*
X46000D02*
X45415Y-40587D01*
X44919Y-40919D01*
X44587Y-41415D01*
X44471Y-42000D01*
X44587Y-42585D01*
X44919Y-43081D01*
X45415Y-43413D01*
X46000Y-43529D01*
X46585Y-43413D01*
X47081Y-43081D01*
X47413Y-42585D01*
X47529Y-42000D01*
X47413Y-41415D01*
X47081Y-40919D01*
X46585Y-40587D01*
X46000Y-40471D01*
D02*
G37*
G36*
X42000D02*
X41415Y-40587D01*
X40919Y-40919D01*
X40587Y-41415D01*
X40471Y-42000D01*
X40587Y-42585D01*
X40919Y-43081D01*
X41415Y-43413D01*
X42000Y-43529D01*
X42585Y-43413D01*
X43081Y-43081D01*
X43413Y-42585D01*
X43529Y-42000D01*
X43413Y-41415D01*
X43081Y-40919D01*
X42585Y-40587D01*
X42000Y-40471D01*
D02*
G37*
G36*
X61000Y-40971D02*
X60415Y-41087D01*
X59919Y-41419D01*
X59587Y-41915D01*
X59471Y-42500D01*
X59587Y-43085D01*
X59919Y-43581D01*
X60415Y-43913D01*
X61000Y-44029D01*
X61585Y-43913D01*
X62081Y-43581D01*
X62413Y-43085D01*
X62529Y-42500D01*
X62413Y-41915D01*
X62081Y-41419D01*
X61585Y-41087D01*
X61000Y-40971D01*
D02*
G37*
G36*
X53000D02*
X52415Y-41087D01*
X51919Y-41419D01*
X51587Y-41915D01*
X51471Y-42500D01*
X51587Y-43085D01*
X51919Y-43581D01*
X52415Y-43913D01*
X53000Y-44029D01*
X53585Y-43913D01*
X54081Y-43581D01*
X54413Y-43085D01*
X54529Y-42500D01*
X54413Y-41915D01*
X54081Y-41419D01*
X53585Y-41087D01*
X53000Y-40971D01*
D02*
G37*
G36*
X104000Y-29079D02*
X102474Y-29229D01*
X101007Y-29674D01*
X99655Y-30397D01*
X98470Y-31370D01*
X97497Y-32555D01*
X96774Y-33907D01*
X96329Y-35374D01*
X96179Y-36900D01*
X96329Y-38426D01*
X96774Y-39893D01*
X97497Y-41245D01*
X98470Y-42430D01*
X99655Y-43403D01*
X101007Y-44126D01*
X102474Y-44571D01*
X104000Y-44721D01*
X105526Y-44571D01*
X106993Y-44126D01*
X108345Y-43403D01*
X109530Y-42430D01*
X110503Y-41245D01*
X111226Y-39893D01*
X111671Y-38426D01*
X111821Y-36900D01*
X111671Y-35374D01*
X111226Y-33907D01*
X110503Y-32555D01*
X109530Y-31370D01*
X108345Y-30397D01*
X106993Y-29674D01*
X105526Y-29229D01*
X104000Y-29079D01*
D02*
G37*
G36*
X15500Y-43471D02*
X14915Y-43587D01*
X14419Y-43919D01*
X14087Y-44415D01*
X13971Y-45000D01*
X14087Y-45585D01*
X14419Y-46081D01*
X14915Y-46413D01*
X15500Y-46529D01*
X16085Y-46413D01*
X16581Y-46081D01*
X16913Y-45585D01*
X17029Y-45000D01*
X16913Y-44415D01*
X16581Y-43919D01*
X16085Y-43587D01*
X15500Y-43471D01*
D02*
G37*
G36*
X20500Y-43904D02*
X19915Y-44020D01*
X19419Y-44352D01*
X19087Y-44848D01*
X18971Y-45433D01*
X19087Y-46018D01*
X19419Y-46514D01*
X19915Y-46846D01*
X20500Y-46962D01*
X21085Y-46846D01*
X21581Y-46514D01*
X21913Y-46018D01*
X22029Y-45433D01*
X21913Y-44848D01*
X21581Y-44352D01*
X21085Y-44020D01*
X20500Y-43904D01*
D02*
G37*
G36*
X14250Y68025D02*
X13743Y67925D01*
X13313Y67637D01*
X13251Y67544D01*
X12649D01*
X12587Y67637D01*
X12157Y67925D01*
X11650Y68025D01*
X11143Y67925D01*
X10713Y67637D01*
X10425Y67207D01*
X10324Y66700D01*
X10425Y66193D01*
X10713Y65763D01*
X11143Y65475D01*
X11650Y65374D01*
X12157Y65475D01*
X12587Y65763D01*
X12649Y65856D01*
X13251D01*
X13313Y65763D01*
X13743Y65475D01*
X14250Y65374D01*
X14757Y65475D01*
X15187Y65763D01*
X15475Y66193D01*
X15575Y66700D01*
X15475Y67207D01*
X15187Y67637D01*
X14757Y67925D01*
X14250Y68025D01*
D02*
G37*
G36*
X26150Y67826D02*
X25643Y67725D01*
X25213Y67437D01*
X25151Y67344D01*
X24549D01*
X24487Y67437D01*
X24057Y67725D01*
X23550Y67826D01*
X23043Y67725D01*
X22613Y67437D01*
X22325Y67007D01*
X22224Y66500D01*
X22325Y65993D01*
X22613Y65563D01*
X23043Y65275D01*
X23550Y65175D01*
X24057Y65275D01*
X24487Y65563D01*
X24549Y65656D01*
X25151D01*
X25213Y65563D01*
X25643Y65275D01*
X26150Y65175D01*
X26657Y65275D01*
X27087Y65563D01*
X27375Y65993D01*
X27476Y66500D01*
X27375Y67007D01*
X27087Y67437D01*
X26657Y67725D01*
X26150Y67826D01*
D02*
G37*
G36*
X43233Y63376D02*
X42726Y63275D01*
X42296Y62987D01*
X42009Y62557D01*
X41908Y62050D01*
X42009Y61543D01*
X42296Y61113D01*
X42389Y61051D01*
Y60449D01*
X42296Y60387D01*
X42009Y59957D01*
X41908Y59450D01*
X42009Y58943D01*
X42296Y58513D01*
X42726Y58226D01*
X43233Y58125D01*
X43741Y58226D01*
X44171Y58513D01*
X44458Y58943D01*
X44559Y59450D01*
X44458Y59957D01*
X44171Y60387D01*
X44078Y60449D01*
Y61051D01*
X44171Y61113D01*
X44458Y61543D01*
X44559Y62050D01*
X44458Y62557D01*
X44171Y62987D01*
X43741Y63275D01*
X43233Y63376D01*
D02*
G37*
G36*
X48719Y57455D02*
X48211Y57354D01*
X47781Y57066D01*
X47719Y56973D01*
X47118D01*
X47056Y57066D01*
X46626Y57354D01*
X46119Y57455D01*
X45611Y57354D01*
X45181Y57066D01*
X44894Y56636D01*
X44793Y56129D01*
X44894Y55622D01*
X45181Y55192D01*
X45611Y54905D01*
X46119Y54804D01*
X46626Y54905D01*
X47056Y55192D01*
X47118Y55285D01*
X47719D01*
X47781Y55192D01*
X48211Y54905D01*
X48719Y54804D01*
X49226Y54905D01*
X49656Y55192D01*
X49943Y55622D01*
X50044Y56129D01*
X49943Y56636D01*
X49656Y57066D01*
X49226Y57354D01*
X48719Y57455D01*
D02*
G37*
G36*
X36000Y61676D02*
X35493Y61575D01*
X35063Y61287D01*
X34775Y60857D01*
X34675Y60350D01*
X34775Y59843D01*
X35063Y59413D01*
X35156Y59351D01*
Y58749D01*
X35063Y58687D01*
X34775Y58257D01*
X34675Y57750D01*
X34775Y57243D01*
X35063Y56813D01*
X35493Y56525D01*
X36000Y56424D01*
X36507Y56525D01*
X36937Y56813D01*
X37225Y57243D01*
X37326Y57750D01*
X37225Y58257D01*
X36937Y58687D01*
X36844Y58749D01*
Y59351D01*
X36937Y59413D01*
X37225Y59843D01*
X37326Y60350D01*
X37225Y60857D01*
X36937Y61287D01*
X36507Y61575D01*
X36000Y61676D01*
D02*
G37*
G36*
X9000Y55529D02*
X8415Y55413D01*
X7919Y55081D01*
X7587Y54585D01*
X7471Y54000D01*
X7587Y53415D01*
X7919Y52919D01*
X8415Y52587D01*
X9000Y52471D01*
X9585Y52587D01*
X10081Y52919D01*
X10413Y53415D01*
X10529Y54000D01*
X10413Y54585D01*
X10081Y55081D01*
X9585Y55413D01*
X9000Y55529D01*
D02*
G37*
G36*
X4500D02*
X3915Y55413D01*
X3419Y55081D01*
X3087Y54585D01*
X2971Y54000D01*
X3087Y53415D01*
X3419Y52919D01*
X3915Y52587D01*
X4500Y52471D01*
X5085Y52587D01*
X5581Y52919D01*
X5913Y53415D01*
X6029Y54000D01*
X5913Y54585D01*
X5581Y55081D01*
X5085Y55413D01*
X4500Y55529D01*
D02*
G37*
G36*
X-6652Y49974D02*
X-7159Y49873D01*
X-7589Y49586D01*
X-7651Y49493D01*
X-8253D01*
X-8315Y49586D01*
X-8745Y49873D01*
X-9252Y49974D01*
X-9759Y49873D01*
X-10189Y49586D01*
X-10477Y49156D01*
X-10577Y48649D01*
X-10477Y48141D01*
X-10189Y47711D01*
X-9759Y47424D01*
X-9252Y47323D01*
X-8745Y47424D01*
X-8315Y47711D01*
X-8253Y47804D01*
X-7651D01*
X-7589Y47711D01*
X-7159Y47424D01*
X-6652Y47323D01*
X-6145Y47424D01*
X-5715Y47711D01*
X-5427Y48141D01*
X-5327Y48649D01*
X-5427Y49156D01*
X-5715Y49586D01*
X-6145Y49873D01*
X-6652Y49974D01*
D02*
G37*
G36*
X45041Y49915D02*
X44534Y49814D01*
X44104Y49526D01*
X44042Y49433D01*
X43441D01*
X43379Y49526D01*
X42949Y49814D01*
X42441Y49915D01*
X41934Y49814D01*
X41504Y49526D01*
X41217Y49096D01*
X41116Y48589D01*
X41217Y48082D01*
X41504Y47652D01*
X41934Y47365D01*
X42441Y47264D01*
X42949Y47365D01*
X43379Y47652D01*
X43441Y47745D01*
X44042D01*
X44104Y47652D01*
X44534Y47365D01*
X45041Y47264D01*
X45549Y47365D01*
X45979Y47652D01*
X46266Y48082D01*
X46367Y48589D01*
X46266Y49096D01*
X45979Y49526D01*
X45549Y49814D01*
X45041Y49915D01*
D02*
G37*
G36*
X16627Y53325D02*
X16120Y53225D01*
X15690Y52937D01*
X15403Y52507D01*
X15302Y52000D01*
X15403Y51493D01*
X15690Y51063D01*
X15783Y51001D01*
Y50399D01*
X15690Y50337D01*
X15403Y49907D01*
X15302Y49400D01*
X15403Y48893D01*
X15690Y48463D01*
X16120Y48175D01*
X16627Y48074D01*
X17134Y48175D01*
X17564Y48463D01*
X17852Y48893D01*
X17953Y49400D01*
X17852Y49907D01*
X17564Y50337D01*
X17471Y50399D01*
Y51001D01*
X17564Y51063D01*
X17852Y51493D01*
X17953Y52000D01*
X17852Y52507D01*
X17564Y52937D01*
X17134Y53225D01*
X16627Y53325D01*
D02*
G37*
G36*
X-31750Y49779D02*
X-32335Y49663D01*
X-32831Y49331D01*
X-33163Y48835D01*
X-33279Y48250D01*
X-33163Y47665D01*
X-32831Y47169D01*
X-32335Y46837D01*
X-31750Y46721D01*
X-31165Y46837D01*
X-30669Y47169D01*
X-30337Y47665D01*
X-30221Y48250D01*
X-30337Y48835D01*
X-30669Y49331D01*
X-31165Y49663D01*
X-31750Y49779D01*
D02*
G37*
G36*
X7500Y49529D02*
X6915Y49413D01*
X6419Y49081D01*
X6087Y48585D01*
X5971Y48000D01*
X6087Y47415D01*
X6419Y46919D01*
X6915Y46587D01*
X7500Y46471D01*
X8085Y46587D01*
X8581Y46919D01*
X8913Y47415D01*
X9029Y48000D01*
X8913Y48585D01*
X8581Y49081D01*
X8085Y49413D01*
X7500Y49529D01*
D02*
G37*
G36*
X40271Y43639D02*
X39763Y43538D01*
X39333Y43250D01*
X39271Y43157D01*
X38670D01*
X38608Y43250D01*
X38178Y43538D01*
X37670Y43639D01*
X37163Y43538D01*
X36733Y43250D01*
X36446Y42820D01*
X36345Y42313D01*
X36446Y41806D01*
X36733Y41376D01*
X37163Y41089D01*
X37670Y40988D01*
X38178Y41089D01*
X38608Y41376D01*
X38670Y41469D01*
X39271D01*
X39333Y41376D01*
X39763Y41089D01*
X40271Y40988D01*
X40778Y41089D01*
X41208Y41376D01*
X41495Y41806D01*
X41596Y42313D01*
X41495Y42820D01*
X41208Y43250D01*
X40778Y43538D01*
X40271Y43639D01*
D02*
G37*
G36*
X7500Y45029D02*
X6915Y44913D01*
X6419Y44581D01*
X6087Y44085D01*
X5971Y43500D01*
X6087Y42915D01*
X6419Y42419D01*
X6915Y42087D01*
X7500Y41971D01*
X8085Y42087D01*
X8581Y42419D01*
X8913Y42915D01*
X9029Y43500D01*
X8913Y44085D01*
X8581Y44581D01*
X8085Y44913D01*
X7500Y45029D01*
D02*
G37*
G36*
X-31151Y45318D02*
X-31830Y45182D01*
X-32406Y44798D01*
X-32790Y44222D01*
X-32925Y43543D01*
X-32790Y42864D01*
X-32406Y42289D01*
X-31830Y41904D01*
X-31151Y41769D01*
X-30472Y41904D01*
X-29896Y42289D01*
X-29512Y42864D01*
X-29377Y43543D01*
X-29512Y44222D01*
X-29896Y44798D01*
X-30472Y45182D01*
X-31151Y45318D01*
D02*
G37*
G36*
X18100Y40453D02*
X17593Y40352D01*
X17163Y40064D01*
X17101Y39971D01*
X16499D01*
X16437Y40064D01*
X16007Y40352D01*
X15500Y40453D01*
X14993Y40352D01*
X14563Y40064D01*
X14275Y39634D01*
X14242Y39468D01*
X13733D01*
X13725Y39507D01*
X13437Y39937D01*
X13007Y40225D01*
X12500Y40325D01*
X11993Y40225D01*
X11563Y39937D01*
X11275Y39507D01*
X11174Y39000D01*
X11275Y38493D01*
X11563Y38063D01*
X11993Y37775D01*
X12500Y37674D01*
X13007Y37775D01*
X13437Y38063D01*
X13725Y38493D01*
X13758Y38660D01*
X14267D01*
X14275Y38620D01*
X14563Y38190D01*
X14993Y37903D01*
X15500Y37802D01*
X16007Y37903D01*
X16437Y38190D01*
X16499Y38283D01*
X17101D01*
X17163Y38190D01*
X17593Y37903D01*
X18100Y37802D01*
X18607Y37903D01*
X19037Y38190D01*
X19325Y38620D01*
X19425Y39127D01*
X19325Y39634D01*
X19037Y40064D01*
X18607Y40352D01*
X18100Y40453D01*
D02*
G37*
G36*
X49727Y38925D02*
X49219Y38825D01*
X48789Y38537D01*
X48727Y38444D01*
X48126D01*
X48064Y38537D01*
X47634Y38825D01*
X47126Y38925D01*
X46619Y38825D01*
X46189Y38537D01*
X45902Y38107D01*
X45801Y37600D01*
X45902Y37093D01*
X46189Y36663D01*
X46619Y36375D01*
X47126Y36275D01*
X47634Y36375D01*
X48064Y36663D01*
X48126Y36756D01*
X48727D01*
X48789Y36663D01*
X49219Y36375D01*
X49727Y36275D01*
X50234Y36375D01*
X50664Y36663D01*
X50951Y37093D01*
X51052Y37600D01*
X50951Y38107D01*
X50664Y38537D01*
X50234Y38825D01*
X49727Y38925D01*
D02*
G37*
G36*
X-34793Y43330D02*
X-35300Y43230D01*
X-35730Y42942D01*
X-36017Y42512D01*
X-36118Y42005D01*
X-36017Y41498D01*
X-35730Y41068D01*
X-35712Y41056D01*
Y40454D01*
X-35730Y40442D01*
X-36017Y40012D01*
X-36118Y39505D01*
X-36017Y38998D01*
X-35730Y38568D01*
X-35300Y38280D01*
X-34793Y38179D01*
X-34285Y38280D01*
X-33855Y38568D01*
X-33568Y38998D01*
X-33467Y39505D01*
X-33568Y40012D01*
X-33855Y40442D01*
X-33874Y40454D01*
Y41056D01*
X-33855Y41068D01*
X-33568Y41498D01*
X-33467Y42005D01*
X-33568Y42512D01*
X-33855Y42942D01*
X-34285Y43230D01*
X-34793Y43330D01*
D02*
G37*
G36*
X-13467Y36770D02*
X-13975Y36669D01*
X-14405Y36382D01*
X-14692Y35952D01*
X-14793Y35445D01*
X-14692Y34937D01*
X-14405Y34507D01*
X-13975Y34220D01*
X-13467Y34119D01*
X-12960Y34220D01*
X-12530Y34507D01*
X-12243Y34937D01*
X-12142Y35445D01*
X-12243Y35952D01*
X-12530Y36382D01*
X-12960Y36669D01*
X-13467Y36770D01*
D02*
G37*
G36*
X-30117Y36311D02*
X-30702Y36195D01*
X-31198Y35863D01*
X-31530Y35367D01*
X-31646Y34782D01*
X-31530Y34197D01*
X-31198Y33701D01*
X-30702Y33369D01*
X-30117Y33253D01*
X-29532Y33369D01*
X-29036Y33701D01*
X-28704Y34197D01*
X-28588Y34782D01*
X-28704Y35367D01*
X-29036Y35863D01*
X-29532Y36195D01*
X-30117Y36311D01*
D02*
G37*
G36*
X-17224Y35328D02*
X-17809Y35212D01*
X-18305Y34880D01*
X-18637Y34384D01*
X-18753Y33799D01*
X-18637Y33214D01*
X-18305Y32718D01*
X-17809Y32386D01*
X-17224Y32270D01*
X-16639Y32386D01*
X-16143Y32718D01*
X-15811Y33214D01*
X-15695Y33799D01*
X-15811Y34384D01*
X-16143Y34880D01*
X-16639Y35212D01*
X-17224Y35328D01*
D02*
G37*
G36*
X45000Y30825D02*
X44493Y30725D01*
X44063Y30437D01*
X44001Y30344D01*
X43399D01*
X43337Y30437D01*
X42907Y30725D01*
X42400Y30825D01*
X41893Y30725D01*
X41463Y30437D01*
X41175Y30007D01*
X41074Y29500D01*
X41175Y28993D01*
X41463Y28563D01*
X41893Y28275D01*
X42400Y28174D01*
X42907Y28275D01*
X43337Y28563D01*
X43399Y28656D01*
X44001D01*
X44063Y28563D01*
X44493Y28275D01*
X45000Y28174D01*
X45507Y28275D01*
X45937Y28563D01*
X46225Y28993D01*
X46325Y29500D01*
X46225Y30007D01*
X45937Y30437D01*
X45507Y30725D01*
X45000Y30825D01*
D02*
G37*
G36*
X-37261Y30623D02*
X-37768Y30522D01*
X-38198Y30234D01*
X-38210Y30216D01*
X-38812D01*
X-38824Y30234D01*
X-39254Y30522D01*
X-39761Y30623D01*
X-40268Y30522D01*
X-40698Y30234D01*
X-40986Y29804D01*
X-41087Y29297D01*
X-40986Y28790D01*
X-40698Y28360D01*
X-40268Y28072D01*
X-39761Y27972D01*
X-39254Y28072D01*
X-38824Y28360D01*
X-38812Y28378D01*
X-38210D01*
X-38198Y28360D01*
X-37768Y28072D01*
X-37261Y27972D01*
X-36754Y28072D01*
X-36324Y28360D01*
X-36036Y28790D01*
X-35936Y29297D01*
X-36036Y29804D01*
X-36324Y30234D01*
X-36754Y30522D01*
X-37261Y30623D01*
D02*
G37*
G36*
X-12850Y32576D02*
X-13357Y32475D01*
X-13787Y32187D01*
X-14075Y31757D01*
X-14175Y31250D01*
X-14075Y30743D01*
X-13787Y30313D01*
X-13357Y30025D01*
X-12850Y29924D01*
X-12343Y30025D01*
X-11913Y30313D01*
X-11625Y30743D01*
X-11524Y31250D01*
X-11625Y31757D01*
X-11913Y32187D01*
X-12343Y32475D01*
X-12850Y32576D01*
D02*
G37*
G36*
X15400Y32529D02*
X14815Y32413D01*
X14319Y32081D01*
X13987Y31585D01*
X13871Y31000D01*
X13987Y30415D01*
X14319Y29919D01*
X14815Y29587D01*
X15400Y29471D01*
X15985Y29587D01*
X16481Y29919D01*
X16813Y30415D01*
X16929Y31000D01*
X16813Y31585D01*
X16481Y32081D01*
X15985Y32413D01*
X15400Y32529D01*
D02*
G37*
G36*
X-3035Y29504D02*
X-3542Y29403D01*
X-3972Y29116D01*
X-4259Y28686D01*
X-4360Y28179D01*
X-4259Y27671D01*
X-3972Y27241D01*
X-3879Y27179D01*
Y26578D01*
X-3972Y26516D01*
X-4259Y26086D01*
X-4360Y25578D01*
X-4259Y25071D01*
X-3972Y24641D01*
X-3542Y24354D01*
X-3035Y24253D01*
X-2527Y24354D01*
X-2097Y24641D01*
X-1810Y25071D01*
X-1709Y25578D01*
X-1810Y26086D01*
X-2097Y26516D01*
X-2190Y26578D01*
Y27179D01*
X-2097Y27241D01*
X-1810Y27671D01*
X-1709Y28179D01*
X-1810Y28686D01*
X-2097Y29116D01*
X-2527Y29403D01*
X-3035Y29504D01*
D02*
G37*
G36*
X-6935D02*
X-7442Y29403D01*
X-7872Y29116D01*
X-8159Y28686D01*
X-8260Y28179D01*
X-8159Y27671D01*
X-7872Y27241D01*
X-7779Y27179D01*
Y26578D01*
X-7872Y26516D01*
X-8159Y26086D01*
X-8260Y25578D01*
X-8159Y25071D01*
X-7872Y24641D01*
X-7442Y24354D01*
X-6935Y24253D01*
X-6427Y24354D01*
X-5997Y24641D01*
X-5710Y25071D01*
X-5609Y25578D01*
X-5710Y26086D01*
X-5997Y26516D01*
X-6090Y26578D01*
Y27179D01*
X-5997Y27241D01*
X-5710Y27671D01*
X-5609Y28179D01*
X-5710Y28686D01*
X-5997Y29116D01*
X-6427Y29403D01*
X-6935Y29504D01*
D02*
G37*
G36*
X-14214Y29204D02*
X-14722Y29103D01*
X-15152Y28816D01*
X-15439Y28386D01*
X-15540Y27878D01*
X-15439Y27371D01*
X-15152Y26941D01*
X-15059Y26879D01*
Y26278D01*
X-15152Y26216D01*
X-15439Y25786D01*
X-15540Y25278D01*
X-15439Y24771D01*
X-15152Y24341D01*
X-14722Y24054D01*
X-14214Y23953D01*
X-13707Y24054D01*
X-13277Y24341D01*
X-12990Y24771D01*
X-12889Y25278D01*
X-12990Y25786D01*
X-13277Y26216D01*
X-13370Y26278D01*
Y26879D01*
X-13277Y26941D01*
X-12990Y27371D01*
X-12889Y27878D01*
X-12990Y28386D01*
X-13277Y28816D01*
X-13707Y29103D01*
X-14214Y29204D01*
D02*
G37*
G36*
X21373Y28826D02*
X20866Y28725D01*
X20436Y28437D01*
X20148Y28007D01*
X20048Y27500D01*
X20148Y26993D01*
X20436Y26563D01*
X20529Y26501D01*
Y25899D01*
X20436Y25837D01*
X20148Y25407D01*
X20048Y24900D01*
X20148Y24393D01*
X20436Y23963D01*
X20866Y23675D01*
X21373Y23574D01*
X21880Y23675D01*
X22310Y23963D01*
X22598Y24393D01*
X22698Y24900D01*
X22598Y25407D01*
X22310Y25837D01*
X22217Y25899D01*
Y26501D01*
X22310Y26563D01*
X22598Y26993D01*
X22698Y27500D01*
X22598Y28007D01*
X22310Y28437D01*
X21880Y28725D01*
X21373Y28826D01*
D02*
G37*
G36*
X-30117Y26470D02*
X-30702Y26354D01*
X-31198Y26022D01*
X-31530Y25526D01*
X-31646Y24941D01*
X-31530Y24356D01*
X-31198Y23860D01*
X-30702Y23528D01*
X-30117Y23412D01*
X-29532Y23528D01*
X-29036Y23860D01*
X-28704Y24356D01*
X-28588Y24941D01*
X-28704Y25526D01*
X-29036Y26022D01*
X-29532Y26354D01*
X-30117Y26470D01*
D02*
G37*
G36*
X-17500Y25126D02*
X-18007Y25025D01*
X-18437Y24737D01*
X-18725Y24307D01*
X-18825Y23800D01*
X-18725Y23293D01*
X-18437Y22863D01*
X-18007Y22575D01*
X-17500Y22475D01*
X-16993Y22575D01*
X-16563Y22863D01*
X-16275Y23293D01*
X-16174Y23800D01*
X-16275Y24307D01*
X-16563Y24737D01*
X-16993Y25025D01*
X-17500Y25126D01*
D02*
G37*
G36*
X14000Y22325D02*
X13493Y22225D01*
X13063Y21937D01*
X12775Y21507D01*
X12675Y21000D01*
X12775Y20493D01*
X13063Y20063D01*
X13493Y19775D01*
X14000Y19674D01*
X14507Y19775D01*
X14937Y20063D01*
X15225Y20493D01*
X15326Y21000D01*
X15225Y21507D01*
X14937Y21937D01*
X14507Y22225D01*
X14000Y22325D01*
D02*
G37*
G36*
X-42204Y21855D02*
X-42789Y21739D01*
X-43285Y21407D01*
X-43617Y20911D01*
X-43733Y20326D01*
X-43617Y19741D01*
X-43285Y19245D01*
X-42789Y18913D01*
X-42204Y18797D01*
X-41619Y18913D01*
X-41123Y19245D01*
X-40791Y19741D01*
X-40675Y20326D01*
X-40791Y20911D01*
X-41123Y21407D01*
X-41619Y21739D01*
X-42204Y21855D01*
D02*
G37*
G36*
X-37224Y21824D02*
X-37731Y21724D01*
X-38161Y21436D01*
X-38449Y21006D01*
X-38550Y20499D01*
X-38449Y19992D01*
X-38161Y19562D01*
X-38143Y19550D01*
Y18948D01*
X-38161Y18936D01*
X-38449Y18506D01*
X-38550Y17999D01*
X-38449Y17492D01*
X-38161Y17062D01*
X-37731Y16774D01*
X-37224Y16673D01*
X-36717Y16774D01*
X-36287Y17062D01*
X-35999Y17492D01*
X-35899Y17999D01*
X-35999Y18506D01*
X-36287Y18936D01*
X-36305Y18948D01*
Y19550D01*
X-36287Y19562D01*
X-35999Y19992D01*
X-35899Y20499D01*
X-35999Y21006D01*
X-36287Y21436D01*
X-36717Y21724D01*
X-37224Y21824D01*
D02*
G37*
G36*
X-30895Y17399D02*
X-31474Y17284D01*
X-31965Y16956D01*
X-32293Y16465D01*
X-32408Y15886D01*
Y14508D01*
X-32293Y13929D01*
X-31965Y13438D01*
X-31474Y13110D01*
X-30895Y12994D01*
X-30316Y13110D01*
X-29825Y13438D01*
X-29497Y13929D01*
X-29382Y14508D01*
Y15886D01*
X-29497Y16465D01*
X-29825Y16956D01*
X-30316Y17284D01*
X-30895Y17399D01*
D02*
G37*
G36*
X-6126Y17231D02*
X-6634Y17130D01*
X-7064Y16842D01*
X-7351Y16412D01*
X-7452Y15905D01*
X-7351Y15398D01*
X-7064Y14968D01*
X-6971Y14906D01*
Y14304D01*
X-7064Y14242D01*
X-7351Y13812D01*
X-7452Y13305D01*
X-7351Y12798D01*
X-7064Y12368D01*
X-6634Y12080D01*
X-6126Y11980D01*
X-5619Y12080D01*
X-5189Y12368D01*
X-4902Y12798D01*
X-4801Y13305D01*
X-4902Y13812D01*
X-5189Y14242D01*
X-5282Y14304D01*
Y14906D01*
X-5189Y14968D01*
X-4902Y15398D01*
X-4801Y15905D01*
X-4902Y16412D01*
X-5189Y16842D01*
X-5619Y17130D01*
X-6126Y17231D01*
D02*
G37*
G36*
X-16423D02*
X-16931Y17130D01*
X-17361Y16842D01*
X-17648Y16412D01*
X-17749Y15905D01*
X-17648Y15398D01*
X-17361Y14968D01*
X-17268Y14906D01*
Y14304D01*
X-17361Y14242D01*
X-17648Y13812D01*
X-17749Y13305D01*
X-17648Y12798D01*
X-17361Y12368D01*
X-16931Y12080D01*
X-16423Y11980D01*
X-15916Y12080D01*
X-15486Y12368D01*
X-15199Y12798D01*
X-15098Y13305D01*
X-15199Y13812D01*
X-15486Y14242D01*
X-15579Y14304D01*
Y14906D01*
X-15486Y14968D01*
X-15199Y15398D01*
X-15098Y15905D01*
X-15199Y16412D01*
X-15486Y16842D01*
X-15916Y17130D01*
X-16423Y17231D01*
D02*
G37*
G36*
X60500Y60529D02*
X59915Y60413D01*
X59419Y60081D01*
X59087Y59585D01*
X58971Y59000D01*
X59087Y58415D01*
X59419Y57919D01*
X59915Y57587D01*
X60500Y57471D01*
X61085Y57587D01*
X61581Y57919D01*
X61913Y58415D01*
X62029Y59000D01*
X61913Y59585D01*
X61581Y60081D01*
X61085Y60413D01*
X60500Y60529D01*
D02*
G37*
G36*
X60236Y43692D02*
X59729Y43591D01*
X59299Y43303D01*
X59011Y42873D01*
X58911Y42366D01*
X59011Y41859D01*
X59299Y41429D01*
X59729Y41141D01*
X60236Y41041D01*
X60743Y41141D01*
X61173Y41429D01*
X61461Y41859D01*
X61562Y42366D01*
X61461Y42873D01*
X61173Y43303D01*
X60743Y43591D01*
X60236Y43692D01*
D02*
G37*
G36*
Y31565D02*
X59729Y31465D01*
X59299Y31177D01*
X59011Y30747D01*
X58911Y30240D01*
X59011Y29733D01*
X59299Y29303D01*
X59729Y29015D01*
X60236Y28914D01*
X60743Y29015D01*
X61173Y29303D01*
X61461Y29733D01*
X61562Y30240D01*
X61461Y30747D01*
X61173Y31177D01*
X60743Y31465D01*
X60236Y31565D01*
D02*
G37*
G36*
X55512D02*
X55005Y31465D01*
X54575Y31177D01*
X54287Y30747D01*
X54186Y30240D01*
X54287Y29733D01*
X54575Y29303D01*
X55005Y29015D01*
X55512Y28914D01*
X56019Y29015D01*
X56449Y29303D01*
X56737Y29733D01*
X56837Y30240D01*
X56737Y30747D01*
X56449Y31177D01*
X56019Y31465D01*
X55512Y31565D01*
D02*
G37*
G36*
X53500Y19029D02*
X52915Y18913D01*
X52419Y18581D01*
X52087Y18085D01*
X51971Y17500D01*
X52087Y16915D01*
X52419Y16419D01*
X52915Y16087D01*
X53500Y15971D01*
X54085Y16087D01*
X54581Y16419D01*
X54913Y16915D01*
X55029Y17500D01*
X54913Y18085D01*
X54581Y18581D01*
X54085Y18913D01*
X53500Y19029D01*
D02*
G37*
G36*
X72915Y-107851D02*
X71435D01*
Y-109479D01*
X72693D01*
X72878Y-109470D01*
X73072Y-109461D01*
X73266Y-109452D01*
X73350Y-109442D01*
X73424Y-109433D01*
X73498Y-109415D01*
X73544Y-109405D01*
X73553D01*
X73581Y-109387D01*
X73627Y-109368D01*
X73673Y-109341D01*
X73794Y-109257D01*
X73849Y-109202D01*
X73905Y-109137D01*
X73914Y-109128D01*
X73923Y-109100D01*
X73951Y-109063D01*
X73979Y-109008D01*
X73997Y-108934D01*
X74025Y-108850D01*
X74034Y-108758D01*
X74043Y-108656D01*
Y-108638D01*
Y-108601D01*
X74034Y-108545D01*
X74025Y-108471D01*
X73997Y-108388D01*
X73969Y-108305D01*
X73923Y-108212D01*
X73868Y-108138D01*
X73858Y-108129D01*
X73840Y-108101D01*
X73794Y-108073D01*
X73738Y-108027D01*
X73673Y-107981D01*
X73590Y-107944D01*
X73488Y-107907D01*
X73377Y-107879D01*
X73368D01*
X73340Y-107870D01*
X73285D01*
X73202Y-107861D01*
X72998D01*
X72915Y-107851D01*
D02*
G37*
G36*
X45063D02*
X44101D01*
Y-109674D01*
X44989D01*
X45054Y-109664D01*
X45220D01*
X45387Y-109655D01*
X45553Y-109637D01*
X45701Y-109609D01*
X45766Y-109600D01*
X45822Y-109581D01*
X45831Y-109572D01*
X45868Y-109563D01*
X45914Y-109535D01*
X45970Y-109507D01*
X46034Y-109461D01*
X46099Y-109405D01*
X46173Y-109341D01*
X46229Y-109267D01*
X46238Y-109257D01*
X46256Y-109230D01*
X46275Y-109183D01*
X46303Y-109119D01*
X46330Y-109045D01*
X46358Y-108961D01*
X46367Y-108869D01*
X46377Y-108767D01*
Y-108749D01*
Y-108712D01*
X46367Y-108647D01*
X46349Y-108564D01*
X46321Y-108471D01*
X46284Y-108369D01*
X46238Y-108277D01*
X46164Y-108184D01*
X46155Y-108175D01*
X46127Y-108147D01*
X46081Y-108110D01*
X46025Y-108064D01*
X45951Y-108009D01*
X45859Y-107962D01*
X45757Y-107925D01*
X45646Y-107898D01*
X45637D01*
X45600Y-107888D01*
X45535Y-107879D01*
X45442Y-107870D01*
X45322D01*
X45239Y-107861D01*
X45156D01*
X45063Y-107851D01*
D02*
G37*
G36*
X26193Y-107851D02*
X24713D01*
Y-109479D01*
X25971D01*
X26156Y-109470D01*
X26350Y-109461D01*
X26545Y-109452D01*
X26628Y-109442D01*
X26702Y-109433D01*
X26776Y-109415D01*
X26822Y-109405D01*
X26831D01*
X26859Y-109387D01*
X26905Y-109368D01*
X26952Y-109341D01*
X27072Y-109257D01*
X27127Y-109202D01*
X27183Y-109137D01*
X27192Y-109128D01*
X27201Y-109100D01*
X27229Y-109063D01*
X27257Y-109008D01*
X27275Y-108934D01*
X27303Y-108850D01*
X27312Y-108758D01*
X27322Y-108656D01*
Y-108638D01*
Y-108601D01*
X27312Y-108545D01*
X27303Y-108471D01*
X27275Y-108388D01*
X27248Y-108305D01*
X27201Y-108212D01*
X27146Y-108138D01*
X27137Y-108129D01*
X27118Y-108101D01*
X27072Y-108073D01*
X27016Y-108027D01*
X26952Y-107981D01*
X26868Y-107944D01*
X26767Y-107907D01*
X26656Y-107879D01*
X26646D01*
X26619Y-107870D01*
X26563D01*
X26480Y-107861D01*
X26276D01*
X26193Y-107851D01*
D02*
G37*
G36*
X7527Y-108258D02*
X6657Y-110636D01*
X8424D01*
X7527Y-108258D01*
D02*
G37*
G36*
X51612Y-107750D02*
X51538D01*
X51483Y-107759D01*
X51409Y-107768D01*
X51335Y-107777D01*
X51150Y-107814D01*
X50946Y-107888D01*
X50835Y-107925D01*
X50724Y-107981D01*
X50622Y-108046D01*
X50511Y-108120D01*
X50410Y-108203D01*
X50317Y-108305D01*
X50308Y-108314D01*
X50299Y-108332D01*
X50271Y-108360D01*
X50243Y-108406D01*
X50206Y-108471D01*
X50169Y-108536D01*
X50123Y-108619D01*
X50077Y-108721D01*
X50030Y-108832D01*
X49984Y-108952D01*
X49947Y-109091D01*
X49910Y-109239D01*
X49882Y-109405D01*
X49855Y-109581D01*
X49845Y-109766D01*
X49836Y-109970D01*
Y-109979D01*
Y-110016D01*
Y-110071D01*
X49845Y-110145D01*
X49855Y-110238D01*
X49864Y-110349D01*
X49882Y-110460D01*
X49901Y-110589D01*
X49956Y-110858D01*
X50049Y-111126D01*
X50104Y-111265D01*
X50169Y-111394D01*
X50252Y-111514D01*
X50336Y-111625D01*
X50345Y-111635D01*
X50363Y-111653D01*
X50391Y-111681D01*
X50428Y-111709D01*
X50474Y-111755D01*
X50539Y-111801D01*
X50604Y-111857D01*
X50687Y-111903D01*
X50863Y-112014D01*
X51085Y-112097D01*
X51205Y-112134D01*
X51335Y-112162D01*
X51473Y-112180D01*
X51612Y-112190D01*
X51686D01*
X51742Y-112180D01*
X51806Y-112171D01*
X51880Y-112162D01*
X52056Y-112116D01*
X52260Y-112051D01*
X52361Y-112005D01*
X52472Y-111958D01*
X52574Y-111894D01*
X52685Y-111820D01*
X52787Y-111736D01*
X52879Y-111635D01*
X52889Y-111625D01*
X52898Y-111607D01*
X52926Y-111579D01*
X52953Y-111533D01*
X53000Y-111468D01*
X53037Y-111394D01*
X53083Y-111311D01*
X53129Y-111209D01*
X53175Y-111098D01*
X53222Y-110978D01*
X53268Y-110839D01*
X53305Y-110682D01*
X53333Y-110525D01*
X53360Y-110349D01*
X53370Y-110155D01*
X53379Y-109951D01*
Y-109942D01*
Y-109905D01*
Y-109849D01*
X53370Y-109766D01*
X53360Y-109674D01*
X53351Y-109572D01*
X53342Y-109452D01*
X53314Y-109331D01*
X53259Y-109063D01*
X53175Y-108786D01*
X53120Y-108647D01*
X53055Y-108527D01*
X52972Y-108406D01*
X52889Y-108295D01*
X52879Y-108286D01*
X52870Y-108268D01*
X52842Y-108249D01*
X52805Y-108212D01*
X52750Y-108166D01*
X52694Y-108120D01*
X52630Y-108073D01*
X52546Y-108018D01*
X52463Y-107972D01*
X52361Y-107925D01*
X52149Y-107833D01*
X52028Y-107796D01*
X51899Y-107777D01*
X51760Y-107759D01*
X51612Y-107750D01*
D02*
G37*
%LPD*%
D101*
X-31500Y56532D02*
D03*
D103*
X-23277Y46378D02*
D03*
Y12362D02*
D03*
D104*
X-25836Y45098D02*
D03*
Y13642D02*
D03*
D106*
X-43159Y46378D02*
D03*
Y12362D02*
D03*
D111*
X34300Y56200D02*
D03*
X53500Y42500D02*
D03*
X35001Y42500D02*
D03*
X43001D02*
D03*
X43801Y51000D02*
D03*
X45300Y60700D02*
D03*
X47023Y58360D02*
D03*
X48426Y39600D02*
D03*
X40500Y30600D02*
D03*
X34300Y61900D02*
D03*
X-41061Y30997D02*
D03*
X-39200Y19205D02*
D03*
X-36769Y40711D02*
D03*
X-35361Y30197D02*
D03*
X-17500Y11210D02*
D03*
X-16900Y18000D02*
D03*
X-15014Y29978D02*
D03*
X-11514Y24079D02*
D03*
X-11404Y47297D02*
D03*
X-10000Y11710D02*
D03*
X-5035Y26878D02*
D03*
X-4700Y50000D02*
D03*
X14000Y41127D02*
D03*
X15600Y47527D02*
D03*
Y54127D02*
D03*
X20500Y47500D02*
D03*
X20600Y39627D02*
D03*
X23373Y26200D02*
D03*
X27165Y30240D02*
D03*
Y48100D02*
D03*
X30900Y30200D02*
D03*
X32350Y42650D02*
D03*
X36614Y30240D02*
D03*
X46800Y30700D02*
D03*
X50787Y30240D02*
D03*
D112*
X21972Y69500D02*
D03*
X86400Y93100D02*
D03*
X-44000Y0D02*
D03*
X-22252Y42132D02*
D03*
X-18500Y42000D02*
D03*
X-12500Y60000D02*
D03*
X-7000Y56500D02*
D03*
X2000Y64500D02*
D03*
X3001Y48000D02*
D03*
X6500Y26500D02*
D03*
X6795Y32326D02*
D03*
X9000Y63500D02*
D03*
X10161Y69500D02*
D03*
X13500Y14229D02*
D03*
X16067Y69500D02*
D03*
X21000Y16500D02*
D03*
X23500Y30000D02*
D03*
X25000Y-18500D02*
D03*
Y-12500D02*
D03*
X27878Y69500D02*
D03*
X29500Y-18500D02*
D03*
Y-12500D02*
D03*
X30500Y82000D02*
D03*
X33783Y69500D02*
D03*
X38484Y82000D02*
D03*
X39689Y69500D02*
D03*
X40800Y84900D02*
D03*
X43208Y82000D02*
D03*
X46000Y-19500D02*
D03*
X47339Y8161D02*
D03*
X47500Y86500D02*
D03*
X50500Y-19500D02*
D03*
X53500Y6500D02*
D03*
X55000Y-7500D02*
D03*
X58000Y6500D02*
D03*
X62000Y66807D02*
D03*
X65500Y77000D02*
D03*
X67000Y21500D02*
D03*
X68000Y-42000D02*
D03*
Y-37000D02*
D03*
X68500Y77000D02*
D03*
X74500Y-32000D02*
D03*
X88000Y78000D02*
D03*
X103500Y50500D02*
D03*
X109698Y29000D02*
D03*
M02*
