G04*
G04 #@! TF.GenerationSoftware,Altium Limited,Altium Designer,22.5.1 (42)*
G04*
G04 Layer_Physical_Order=1*
G04 Layer_Color=255*
%FSLAX25Y25*%
%MOIN*%
G70*
G04*
G04 #@! TF.SameCoordinates,7D5A9487-70C0-458F-A832-C6248EDC6538*
G04*
G04*
G04 #@! TF.FilePolarity,Positive*
G04*
G01*
G75*
%ADD14C,0.01000*%
%ADD16C,0.00500*%
G04:AMPARAMS|DCode=18|XSize=19.68mil|YSize=23.62mil|CornerRadius=5.12mil|HoleSize=0mil|Usage=FLASHONLY|Rotation=90.000|XOffset=0mil|YOffset=0mil|HoleType=Round|Shape=RoundedRectangle|*
%AMROUNDEDRECTD18*
21,1,0.01968,0.01339,0,0,90.0*
21,1,0.00945,0.02362,0,0,90.0*
1,1,0.01024,0.00669,0.00472*
1,1,0.01024,0.00669,-0.00472*
1,1,0.01024,-0.00669,-0.00472*
1,1,0.01024,-0.00669,0.00472*
%
%ADD18ROUNDEDRECTD18*%
%ADD19R,0.02953X0.03150*%
%ADD20R,0.02900X0.11000*%
%ADD21R,0.11000X0.02900*%
%ADD22R,0.04724X0.07165*%
%ADD23R,0.01181X0.01870*%
%ADD24R,0.03700X0.02600*%
%ADD25R,0.02600X0.03700*%
G04:AMPARAMS|DCode=26|XSize=21.26mil|YSize=23.62mil|CornerRadius=5.53mil|HoleSize=0mil|Usage=FLASHONLY|Rotation=270.000|XOffset=0mil|YOffset=0mil|HoleType=Round|Shape=RoundedRectangle|*
%AMROUNDEDRECTD26*
21,1,0.02126,0.01257,0,0,270.0*
21,1,0.01021,0.02362,0,0,270.0*
1,1,0.01106,-0.00628,-0.00510*
1,1,0.01106,-0.00628,0.00510*
1,1,0.01106,0.00628,0.00510*
1,1,0.01106,0.00628,-0.00510*
%
%ADD26ROUNDEDRECTD26*%
G04:AMPARAMS|DCode=27|XSize=25.59mil|YSize=15.75mil|CornerRadius=3.94mil|HoleSize=0mil|Usage=FLASHONLY|Rotation=270.000|XOffset=0mil|YOffset=0mil|HoleType=Round|Shape=RoundedRectangle|*
%AMROUNDEDRECTD27*
21,1,0.02559,0.00787,0,0,270.0*
21,1,0.01772,0.01575,0,0,270.0*
1,1,0.00787,-0.00394,-0.00886*
1,1,0.00787,-0.00394,0.00886*
1,1,0.00787,0.00394,0.00886*
1,1,0.00787,0.00394,-0.00886*
%
%ADD27ROUNDEDRECTD27*%
G04:AMPARAMS|DCode=28|XSize=25.59mil|YSize=11.81mil|CornerRadius=2.95mil|HoleSize=0mil|Usage=FLASHONLY|Rotation=270.000|XOffset=0mil|YOffset=0mil|HoleType=Round|Shape=RoundedRectangle|*
%AMROUNDEDRECTD28*
21,1,0.02559,0.00591,0,0,270.0*
21,1,0.01968,0.01181,0,0,270.0*
1,1,0.00591,-0.00295,-0.00984*
1,1,0.00591,-0.00295,0.00984*
1,1,0.00591,0.00295,0.00984*
1,1,0.00591,0.00295,-0.00984*
%
%ADD28ROUNDEDRECTD28*%
G04:AMPARAMS|DCode=29|XSize=57.87mil|YSize=18.9mil|CornerRadius=2.36mil|HoleSize=0mil|Usage=FLASHONLY|Rotation=0.000|XOffset=0mil|YOffset=0mil|HoleType=Round|Shape=RoundedRectangle|*
%AMROUNDEDRECTD29*
21,1,0.05787,0.01417,0,0,0.0*
21,1,0.05315,0.01890,0,0,0.0*
1,1,0.00472,0.02657,-0.00709*
1,1,0.00472,-0.02657,-0.00709*
1,1,0.00472,-0.02657,0.00709*
1,1,0.00472,0.02657,0.00709*
%
%ADD29ROUNDEDRECTD29*%
%ADD30R,0.01181X0.03937*%
%ADD31R,0.06496X0.05118*%
%ADD32C,0.00800*%
%ADD33R,0.02362X0.01181*%
%ADD34R,0.04528X0.05118*%
G04:AMPARAMS|DCode=35|XSize=21.26mil|YSize=23.62mil|CornerRadius=5.53mil|HoleSize=0mil|Usage=FLASHONLY|Rotation=0.000|XOffset=0mil|YOffset=0mil|HoleType=Round|Shape=RoundedRectangle|*
%AMROUNDEDRECTD35*
21,1,0.02126,0.01257,0,0,0.0*
21,1,0.01021,0.02362,0,0,0.0*
1,1,0.01106,0.00510,-0.00628*
1,1,0.01106,-0.00510,-0.00628*
1,1,0.01106,-0.00510,0.00628*
1,1,0.01106,0.00510,0.00628*
%
%ADD35ROUNDEDRECTD35*%
%ADD36R,0.03543X0.01063*%
%ADD37R,0.03150X0.01063*%
G04:AMPARAMS|DCode=38|XSize=22.24mil|YSize=7.87mil|CornerRadius=1.97mil|HoleSize=0mil|Usage=FLASHONLY|Rotation=270.000|XOffset=0mil|YOffset=0mil|HoleType=Round|Shape=RoundedRectangle|*
%AMROUNDEDRECTD38*
21,1,0.02224,0.00394,0,0,270.0*
21,1,0.01831,0.00787,0,0,270.0*
1,1,0.00394,-0.00197,-0.00915*
1,1,0.00394,-0.00197,0.00915*
1,1,0.00394,0.00197,0.00915*
1,1,0.00394,0.00197,-0.00915*
%
%ADD38ROUNDEDRECTD38*%
G04:AMPARAMS|DCode=39|XSize=22.24mil|YSize=7.87mil|CornerRadius=0.98mil|HoleSize=0mil|Usage=FLASHONLY|Rotation=270.000|XOffset=0mil|YOffset=0mil|HoleType=Round|Shape=RoundedRectangle|*
%AMROUNDEDRECTD39*
21,1,0.02224,0.00591,0,0,270.0*
21,1,0.02028,0.00787,0,0,270.0*
1,1,0.00197,-0.00295,-0.01014*
1,1,0.00197,-0.00295,0.01014*
1,1,0.00197,0.00295,0.01014*
1,1,0.00197,0.00295,-0.01014*
%
%ADD39ROUNDEDRECTD39*%
G04:AMPARAMS|DCode=40|XSize=22.24mil|YSize=7.87mil|CornerRadius=1.97mil|HoleSize=0mil|Usage=FLASHONLY|Rotation=180.000|XOffset=0mil|YOffset=0mil|HoleType=Round|Shape=RoundedRectangle|*
%AMROUNDEDRECTD40*
21,1,0.02224,0.00394,0,0,180.0*
21,1,0.01831,0.00787,0,0,180.0*
1,1,0.00394,-0.00915,0.00197*
1,1,0.00394,0.00915,0.00197*
1,1,0.00394,0.00915,-0.00197*
1,1,0.00394,-0.00915,-0.00197*
%
%ADD40ROUNDEDRECTD40*%
G04:AMPARAMS|DCode=41|XSize=22.24mil|YSize=7.87mil|CornerRadius=0.98mil|HoleSize=0mil|Usage=FLASHONLY|Rotation=180.000|XOffset=0mil|YOffset=0mil|HoleType=Round|Shape=RoundedRectangle|*
%AMROUNDEDRECTD41*
21,1,0.02224,0.00591,0,0,180.0*
21,1,0.02028,0.00787,0,0,180.0*
1,1,0.00197,-0.01014,0.00295*
1,1,0.00197,0.01014,0.00295*
1,1,0.00197,0.01014,-0.00295*
1,1,0.00197,-0.01014,-0.00295*
%
%ADD41ROUNDEDRECTD41*%
%ADD42R,0.01654X0.00866*%
%ADD43R,0.05512X0.03740*%
%ADD44R,0.02953X0.04528*%
%ADD45R,0.00787X0.02756*%
%ADD46C,0.01000*%
G04:AMPARAMS|DCode=47|XSize=25.98mil|YSize=8.66mil|CornerRadius=1.08mil|HoleSize=0mil|Usage=FLASHONLY|Rotation=180.000|XOffset=0mil|YOffset=0mil|HoleType=Round|Shape=RoundedRectangle|*
%AMROUNDEDRECTD47*
21,1,0.02598,0.00650,0,0,180.0*
21,1,0.02382,0.00866,0,0,180.0*
1,1,0.00217,-0.01191,0.00325*
1,1,0.00217,0.01191,0.00325*
1,1,0.00217,0.01191,-0.00325*
1,1,0.00217,-0.01191,-0.00325*
%
%ADD47ROUNDEDRECTD47*%
G04:AMPARAMS|DCode=48|XSize=8.66mil|YSize=25.98mil|CornerRadius=1.08mil|HoleSize=0mil|Usage=FLASHONLY|Rotation=180.000|XOffset=0mil|YOffset=0mil|HoleType=Round|Shape=RoundedRectangle|*
%AMROUNDEDRECTD48*
21,1,0.00866,0.02382,0,0,180.0*
21,1,0.00650,0.02598,0,0,180.0*
1,1,0.00217,-0.00325,0.01191*
1,1,0.00217,0.00325,0.01191*
1,1,0.00217,0.00325,-0.01191*
1,1,0.00217,-0.00325,-0.01191*
%
%ADD48ROUNDEDRECTD48*%
%ADD90C,0.03937*%
%ADD91R,0.03543X0.10630*%
%ADD92C,0.00687*%
%ADD93C,0.00800*%
%ADD94C,0.00600*%
%ADD95C,0.00700*%
%ADD96C,0.01500*%
%ADD97C,0.02000*%
%ADD98C,0.01800*%
%ADD99C,0.00750*%
%ADD100R,0.05906X0.05906*%
%ADD101C,0.05906*%
%ADD102C,0.23622*%
%ADD103O,0.09055X0.04724*%
%ADD104O,0.04724X0.06496*%
%ADD105C,0.02480*%
%ADD106O,0.10236X0.05118*%
%ADD107O,0.01968X0.03347*%
%ADD108R,0.05937X0.05937*%
%ADD109C,0.05937*%
%ADD110C,0.21260*%
%ADD111C,0.01600*%
%ADD112C,0.02000*%
%ADD113C,0.03000*%
G36*
X-500Y70500D02*
X-300Y70300D01*
Y69200D01*
X-600Y68900D01*
Y67200D01*
X-1500D01*
X-2100Y67800D01*
X-6300D01*
X-7000Y68500D01*
Y70000D01*
X-6000Y71000D01*
X-1000D01*
X-500Y70500D01*
D02*
G37*
G36*
X11100Y64800D02*
Y60100D01*
X10500Y59500D01*
X7500D01*
X6500Y58500D01*
X3000D01*
Y59500D01*
X6000D01*
X6500Y60000D01*
Y63000D01*
X6000Y63500D01*
X-6500D01*
X-7000Y64000D01*
Y66000D01*
X-6500Y66500D01*
X-2000D01*
X-1000Y65500D01*
X2000D01*
X3000Y66500D01*
X9400D01*
X11100Y64800D01*
D02*
G37*
G36*
X34573Y62459D02*
X34805Y62305D01*
X34959Y62073D01*
X35014Y61800D01*
X34959Y61527D01*
X34805Y61295D01*
X34573Y61141D01*
X34300Y61086D01*
X34027Y61141D01*
X33949Y61193D01*
X33795Y61295D01*
X33641Y61527D01*
X33586Y61800D01*
X33641Y62073D01*
X33795Y62305D01*
X33949Y62407D01*
X34027Y62459D01*
X34300Y62514D01*
X34573Y62459D01*
D02*
G37*
G36*
X-17500Y68000D02*
Y66000D01*
X-18000Y65500D01*
X-21000D01*
X-27000Y59500D01*
Y55500D01*
X-24200Y52700D01*
X-19800Y52700D01*
X-17500Y55000D01*
X-17500Y59500D01*
X-15000Y62000D01*
X-4000D01*
X-3500Y61500D01*
Y59000D01*
X-4000Y58500D01*
X-6500D01*
X-7000Y59000D01*
X-13500D01*
X-14500Y58000D01*
X-14500Y52200D01*
X-17400Y49300D01*
X-29300Y49300D01*
X-34500Y54500D01*
X-35000Y55000D01*
Y59500D01*
X-26000Y68500D01*
X-18000D01*
X-17500Y68000D01*
D02*
G37*
G36*
X34573Y56859D02*
X34805Y56705D01*
X34959Y56473D01*
X35014Y56200D01*
X34959Y55927D01*
X34805Y55695D01*
X34573Y55541D01*
X34300Y55486D01*
X34027Y55541D01*
X33949Y55593D01*
X33795Y55695D01*
X33641Y55927D01*
X33586Y56200D01*
X33641Y56473D01*
X33795Y56705D01*
X33949Y56808D01*
X34027Y56859D01*
X34300Y56914D01*
X34573Y56859D01*
D02*
G37*
G36*
X-3500Y57000D02*
Y55500D01*
X-4000Y55000D01*
X-13000D01*
X-13500Y55500D01*
Y57000D01*
X-13000Y57500D01*
X-4000D01*
X-3500Y57000D01*
D02*
G37*
G36*
X-17000Y61500D02*
X-18500Y60000D01*
Y56500D01*
X-20000Y55000D01*
X-23000D01*
X-24000Y56000D01*
Y59500D01*
X-20000Y63500D01*
X-17000D01*
Y61500D01*
D02*
G37*
G36*
X15873Y54786D02*
X16105Y54632D01*
X16259Y54400D01*
X16314Y54127D01*
X16259Y53854D01*
X16105Y53622D01*
X15873Y53468D01*
X15600Y53413D01*
X15327Y53468D01*
X15249Y53520D01*
X15095Y53622D01*
X14941Y53854D01*
X14886Y54127D01*
X14941Y54400D01*
X15095Y54632D01*
X15249Y54735D01*
X15327Y54786D01*
X15600Y54841D01*
X15873Y54786D01*
D02*
G37*
G36*
X2000Y60500D02*
Y58000D01*
X2500Y57500D01*
X7500D01*
X8000Y58000D01*
X11000D01*
X11500Y57500D01*
Y53500D01*
X10500Y52500D01*
X1000D01*
X-1500Y55000D01*
Y60500D01*
X-1000Y61000D01*
X1500D01*
X2000Y60500D01*
D02*
G37*
G36*
X-4427Y50659D02*
X-4195Y50505D01*
X-4041Y50273D01*
X-3986Y50000D01*
X-4041Y49727D01*
X-4195Y49495D01*
X-4427Y49341D01*
X-4700Y49286D01*
X-4973Y49341D01*
X-5051Y49393D01*
X-5205Y49495D01*
X-5359Y49727D01*
X-5414Y50000D01*
X-5359Y50273D01*
X-5205Y50505D01*
X-5051Y50608D01*
X-4973Y50659D01*
X-4700Y50714D01*
X-4427Y50659D01*
D02*
G37*
G36*
X15873Y48186D02*
X16105Y48032D01*
X16259Y47800D01*
X16314Y47527D01*
X16259Y47254D01*
X16105Y47022D01*
X15873Y46868D01*
X15600Y46813D01*
X15327Y46868D01*
X15249Y46920D01*
X15095Y47022D01*
X14941Y47254D01*
X14886Y47527D01*
X14941Y47800D01*
X15095Y48032D01*
X15249Y48135D01*
X15327Y48186D01*
X15600Y48241D01*
X15873Y48186D01*
D02*
G37*
G36*
X-11131Y47956D02*
X-10899Y47802D01*
X-10745Y47570D01*
X-10690Y47297D01*
X-10745Y47024D01*
X-10899Y46792D01*
X-11131Y46638D01*
X-11404Y46583D01*
X-11677Y46638D01*
X-11755Y46690D01*
X-11909Y46792D01*
X-12063Y47024D01*
X-12118Y47297D01*
X-12063Y47570D01*
X-11909Y47802D01*
X-11755Y47905D01*
X-11677Y47956D01*
X-11404Y48011D01*
X-11131Y47956D01*
D02*
G37*
G36*
X14273Y41787D02*
X14505Y41632D01*
X14659Y41400D01*
X14714Y41127D01*
X14659Y40854D01*
X14505Y40622D01*
X14273Y40468D01*
X14000Y40413D01*
X13727Y40468D01*
X13649Y40519D01*
X13495Y40622D01*
X13341Y40854D01*
X13286Y41127D01*
X13341Y41400D01*
X13495Y41632D01*
X13649Y41735D01*
X13727Y41787D01*
X14000Y41841D01*
X14273Y41787D01*
D02*
G37*
G36*
X-36525Y41302D02*
X-36317Y41164D01*
X-36179Y40955D01*
X-36130Y40712D01*
X-36179Y40468D01*
X-36317Y40260D01*
X-36525Y40121D01*
X-36769Y40073D01*
X-37013Y40121D01*
X-37083Y40167D01*
X-37221Y40260D01*
X-37359Y40468D01*
X-37408Y40712D01*
X-37359Y40955D01*
X-37221Y41164D01*
X-37083Y41256D01*
X-37013Y41302D01*
X-36769Y41350D01*
X-36525Y41302D01*
D02*
G37*
G36*
X20873Y40286D02*
X21105Y40132D01*
X21259Y39900D01*
X21314Y39627D01*
X21259Y39354D01*
X21105Y39122D01*
X20873Y38968D01*
X20600Y38913D01*
X20327Y38968D01*
X20249Y39020D01*
X20095Y39122D01*
X19941Y39354D01*
X19886Y39627D01*
X19941Y39900D01*
X20095Y40132D01*
X20249Y40235D01*
X20327Y40286D01*
X20600Y40341D01*
X20873Y40286D01*
D02*
G37*
G36*
X-40788Y31656D02*
X-40556Y31502D01*
X-40402Y31270D01*
X-40347Y30997D01*
X-40402Y30724D01*
X-40556Y30492D01*
X-40788Y30338D01*
X-41061Y30283D01*
X-41334Y30338D01*
X-41412Y30389D01*
X-41566Y30492D01*
X-41720Y30724D01*
X-41775Y30997D01*
X-41720Y31270D01*
X-41566Y31502D01*
X-41412Y31604D01*
X-41334Y31656D01*
X-41061Y31711D01*
X-40788Y31656D01*
D02*
G37*
G36*
X-35088Y30856D02*
X-34856Y30702D01*
X-34702Y30470D01*
X-34647Y30197D01*
X-34702Y29924D01*
X-34856Y29692D01*
X-35088Y29538D01*
X-35361Y29483D01*
X-35634Y29538D01*
X-35712Y29590D01*
X-35866Y29692D01*
X-36020Y29924D01*
X-36075Y30197D01*
X-36020Y30470D01*
X-35866Y30702D01*
X-35712Y30804D01*
X-35634Y30856D01*
X-35361Y30911D01*
X-35088Y30856D01*
D02*
G37*
G36*
X-14741Y30638D02*
X-14510Y30483D01*
X-14355Y30252D01*
X-14301Y29978D01*
X-14355Y29705D01*
X-14510Y29474D01*
X-14741Y29319D01*
X-15014Y29265D01*
X-15288Y29319D01*
X-15365Y29371D01*
X-15519Y29474D01*
X-15674Y29705D01*
X-15728Y29978D01*
X-15674Y30252D01*
X-15519Y30483D01*
X-15365Y30586D01*
X-15288Y30638D01*
X-15014Y30692D01*
X-14741Y30638D01*
D02*
G37*
G36*
X-4761Y27538D02*
X-4530Y27383D01*
X-4375Y27152D01*
X-4321Y26878D01*
X-4375Y26605D01*
X-4530Y26374D01*
X-4761Y26219D01*
X-5035Y26165D01*
X-5308Y26219D01*
X-5385Y26271D01*
X-5539Y26374D01*
X-5694Y26605D01*
X-5748Y26878D01*
X-5694Y27152D01*
X-5539Y27383D01*
X-5385Y27486D01*
X-5308Y27538D01*
X-5035Y27592D01*
X-4761Y27538D01*
D02*
G37*
G36*
X23646Y26859D02*
X23878Y26705D01*
X24032Y26473D01*
X24087Y26200D01*
X24032Y25927D01*
X23878Y25695D01*
X23646Y25541D01*
X23373Y25486D01*
X23100Y25541D01*
X23022Y25592D01*
X22868Y25695D01*
X22714Y25927D01*
X22659Y26200D01*
X22714Y26473D01*
X22868Y26705D01*
X23022Y26807D01*
X23100Y26859D01*
X23373Y26914D01*
X23646Y26859D01*
D02*
G37*
G36*
X-11241Y24738D02*
X-11010Y24583D01*
X-10855Y24352D01*
X-10801Y24079D01*
X-10855Y23805D01*
X-11010Y23574D01*
X-11241Y23419D01*
X-11514Y23365D01*
X-11788Y23419D01*
X-11865Y23471D01*
X-12019Y23574D01*
X-12174Y23805D01*
X-12228Y24079D01*
X-12174Y24352D01*
X-12019Y24583D01*
X-11865Y24686D01*
X-11788Y24738D01*
X-11514Y24792D01*
X-11241Y24738D01*
D02*
G37*
G36*
X-38956Y19795D02*
X-38748Y19657D01*
X-38610Y19449D01*
X-38561Y19205D01*
X-38610Y18961D01*
X-38748Y18753D01*
X-38956Y18614D01*
X-39200Y18566D01*
X-39444Y18614D01*
X-39514Y18661D01*
X-39652Y18753D01*
X-39790Y18961D01*
X-39839Y19205D01*
X-39790Y19449D01*
X-39652Y19657D01*
X-39514Y19749D01*
X-39444Y19795D01*
X-39200Y19843D01*
X-38956Y19795D01*
D02*
G37*
G36*
X42000Y4000D02*
Y-500D01*
X43000Y-1500D01*
Y-3500D01*
X42500Y-4000D01*
X40000D01*
X37000Y-1000D01*
X32000D01*
X31000Y0D01*
Y3500D01*
X32500Y5000D01*
X41000D01*
X42000Y4000D01*
D02*
G37*
G36*
X57000D02*
Y2500D01*
X56000Y1500D01*
X48500D01*
X45000Y-2000D01*
Y-4500D01*
X45500Y-5000D01*
X48000D01*
X49000Y-4000D01*
X52000D01*
X52500Y-4500D01*
Y-6500D01*
X52000Y-7000D01*
X25000D01*
X24000Y-6000D01*
Y-4000D01*
X25000Y-3000D01*
X37000D01*
X39000Y-5000D01*
X43500D01*
X44000Y-4500D01*
Y4500D01*
X44500Y5000D01*
X56000D01*
X57000Y4000D01*
D02*
G37*
G36*
X51500Y-9000D02*
Y-13500D01*
X51000Y-14000D01*
X47500D01*
X47000Y-13500D01*
Y-12000D01*
X46000Y-11000D01*
Y-9000D01*
X46500Y-8500D01*
X51000D01*
X51500Y-9000D01*
D02*
G37*
G36*
X43000D02*
Y-18500D01*
X42500Y-19000D01*
X39500D01*
X39000Y-18500D01*
Y-9000D01*
X39500Y-8500D01*
X42500D01*
X43000Y-9000D01*
D02*
G37*
G36*
X51500Y-16500D02*
Y-20000D01*
X51000Y-20500D01*
X45500D01*
X45000Y-20000D01*
Y-16500D01*
X45500Y-16000D01*
X51000D01*
X51500Y-16500D01*
D02*
G37*
G36*
X37000Y-9000D02*
Y-11000D01*
X36000Y-12000D01*
Y-20500D01*
X35500Y-21000D01*
X25000D01*
X24000Y-20000D01*
Y-10000D01*
Y-9500D01*
X25000Y-8500D01*
X36500D01*
X37000Y-9000D01*
D02*
G37*
G36*
X72300Y-29200D02*
Y-48000D01*
X70100Y-50200D01*
X66100D01*
X65500Y-49600D01*
Y-48200D01*
X65900Y-47800D01*
X68800D01*
X69900Y-46700D01*
Y-35000D01*
X69100Y-34200D01*
X68000D01*
Y-29700D01*
X69200Y-28500D01*
X71600D01*
X72300Y-29200D01*
D02*
G37*
G36*
X45613Y-110588D02*
Y-113270D01*
X44318D01*
Y-110578D01*
X41978Y-106869D01*
X43486D01*
X44993Y-109404D01*
X46464Y-106869D01*
X47953D01*
X45613Y-110588D01*
D02*
G37*
G36*
X57546Y-106878D02*
X57647D01*
X57749Y-106888D01*
X57869D01*
X58110Y-106915D01*
X58360Y-106943D01*
X58591Y-106989D01*
X58693Y-107017D01*
X58785Y-107045D01*
X58794D01*
X58804Y-107054D01*
X58859Y-107082D01*
X58942Y-107128D01*
X59053Y-107184D01*
X59174Y-107276D01*
X59294Y-107378D01*
X59414Y-107507D01*
X59525Y-107665D01*
Y-107674D01*
X59534Y-107683D01*
X59553Y-107711D01*
X59571Y-107739D01*
X59618Y-107831D01*
X59673Y-107951D01*
X59719Y-108099D01*
X59766Y-108266D01*
X59803Y-108460D01*
X59812Y-108664D01*
Y-108673D01*
Y-108691D01*
Y-108738D01*
X59803Y-108784D01*
Y-108849D01*
X59793Y-108913D01*
X59756Y-109080D01*
X59710Y-109274D01*
X59636Y-109468D01*
X59525Y-109672D01*
X59460Y-109764D01*
X59386Y-109857D01*
X59377Y-109866D01*
X59368Y-109875D01*
X59340Y-109903D01*
X59303Y-109931D01*
X59266Y-109968D01*
X59211Y-110014D01*
X59146Y-110060D01*
X59072Y-110107D01*
X58989Y-110162D01*
X58887Y-110208D01*
X58785Y-110255D01*
X58674Y-110301D01*
X58545Y-110347D01*
X58415Y-110384D01*
X58276Y-110421D01*
X58119Y-110449D01*
X58128D01*
X58138Y-110458D01*
X58193Y-110495D01*
X58267Y-110541D01*
X58360Y-110606D01*
X58471Y-110689D01*
X58582Y-110773D01*
X58702Y-110874D01*
X58804Y-110985D01*
X58813Y-110995D01*
X58859Y-111041D01*
X58915Y-111115D01*
X58998Y-111226D01*
X59109Y-111365D01*
X59164Y-111457D01*
X59229Y-111550D01*
X59303Y-111651D01*
X59377Y-111762D01*
X59460Y-111892D01*
X59544Y-112021D01*
X60330Y-113270D01*
X58776D01*
X57851Y-111883D01*
X57842Y-111873D01*
X57832Y-111846D01*
X57805Y-111809D01*
X57768Y-111762D01*
X57731Y-111707D01*
X57684Y-111633D01*
X57583Y-111485D01*
X57462Y-111318D01*
X57351Y-111170D01*
X57250Y-111032D01*
X57203Y-110985D01*
X57166Y-110939D01*
X57157Y-110930D01*
X57139Y-110911D01*
X57102Y-110874D01*
X57055Y-110828D01*
X56991Y-110791D01*
X56926Y-110745D01*
X56852Y-110708D01*
X56778Y-110671D01*
X56769D01*
X56741Y-110662D01*
X56695Y-110643D01*
X56621Y-110634D01*
X56528Y-110615D01*
X56417Y-110606D01*
X56288Y-110597D01*
X55871D01*
Y-113270D01*
X54576D01*
Y-106869D01*
X57462D01*
X57546Y-106878D01*
D02*
G37*
G36*
X53355Y-107951D02*
X49905D01*
Y-109367D01*
X53115D01*
Y-110449D01*
X49905D01*
Y-112188D01*
X53476D01*
Y-113270D01*
X48610D01*
Y-106869D01*
X53355D01*
Y-107951D01*
D02*
G37*
G36*
X41950Y-113270D02*
X40553D01*
X39998Y-111818D01*
X37427Y-111818D01*
X36900Y-113270D01*
X35531D01*
X38010Y-106869D01*
X39379D01*
X41950Y-113270D01*
D02*
G37*
G36*
X32043Y-112188D02*
X35262D01*
Y-113270D01*
X30748D01*
Y-106915D01*
X32043D01*
Y-112188D01*
D02*
G37*
G36*
X24727Y-106878D02*
X24967D01*
X25226Y-106897D01*
X25485Y-106915D01*
X25596Y-106925D01*
X25707Y-106934D01*
X25800Y-106952D01*
X25874Y-106971D01*
X25883D01*
X25901Y-106980D01*
X25929Y-106989D01*
X25966Y-106999D01*
X26068Y-107045D01*
X26197Y-107100D01*
X26336Y-107184D01*
X26493Y-107295D01*
X26641Y-107433D01*
X26789Y-107600D01*
Y-107609D01*
X26808Y-107618D01*
X26826Y-107646D01*
X26845Y-107683D01*
X26882Y-107739D01*
X26910Y-107794D01*
X26947Y-107859D01*
X26984Y-107933D01*
X27048Y-108118D01*
X27113Y-108321D01*
X27150Y-108571D01*
X27169Y-108839D01*
Y-108849D01*
Y-108867D01*
Y-108895D01*
Y-108941D01*
X27159Y-108987D01*
Y-109052D01*
X27141Y-109182D01*
X27113Y-109339D01*
X27076Y-109515D01*
X27021Y-109681D01*
X26947Y-109838D01*
X26937Y-109857D01*
X26910Y-109903D01*
X26863Y-109977D01*
X26799Y-110070D01*
X26725Y-110162D01*
X26623Y-110273D01*
X26521Y-110375D01*
X26401Y-110467D01*
X26382Y-110477D01*
X26345Y-110504D01*
X26281Y-110541D01*
X26197Y-110588D01*
X26096Y-110643D01*
X25985Y-110689D01*
X25864Y-110736D01*
X25735Y-110773D01*
X25716D01*
X25689Y-110782D01*
X25652D01*
X25605Y-110791D01*
X25541Y-110800D01*
X25476Y-110810D01*
X25393D01*
X25309Y-110819D01*
X25208Y-110828D01*
X25097Y-110837D01*
X24976Y-110847D01*
X24847D01*
X24708Y-110856D01*
X23561D01*
Y-113270D01*
X22266D01*
Y-106869D01*
X24625D01*
X24727Y-106878D01*
D02*
G37*
G36*
X14468Y-107951D02*
X12581D01*
Y-113270D01*
X11286D01*
Y-107951D01*
X9390D01*
Y-106869D01*
X14468D01*
Y-107951D01*
D02*
G37*
G36*
X18270Y-106758D02*
X18363D01*
X18483Y-106777D01*
X18622Y-106795D01*
X18779Y-106823D01*
X18945Y-106860D01*
X19121Y-106906D01*
X19306Y-106962D01*
X19491Y-107036D01*
X19685Y-107119D01*
X19870Y-107221D01*
X20055Y-107341D01*
X20231Y-107480D01*
X20398Y-107637D01*
X20407Y-107646D01*
X20435Y-107674D01*
X20481Y-107729D01*
X20527Y-107794D01*
X20592Y-107887D01*
X20666Y-107998D01*
X20740Y-108127D01*
X20823Y-108275D01*
X20906Y-108432D01*
X20980Y-108617D01*
X21054Y-108821D01*
X21119Y-109034D01*
X21175Y-109274D01*
X21212Y-109524D01*
X21239Y-109792D01*
X21249Y-110079D01*
Y-110097D01*
Y-110144D01*
X21239Y-110227D01*
Y-110338D01*
X21221Y-110467D01*
X21202Y-110615D01*
X21175Y-110791D01*
X21147Y-110967D01*
X21101Y-111161D01*
X21045Y-111365D01*
X20971Y-111568D01*
X20888Y-111772D01*
X20795Y-111966D01*
X20675Y-112160D01*
X20546Y-112345D01*
X20398Y-112521D01*
X20388Y-112530D01*
X20361Y-112558D01*
X20314Y-112604D01*
X20240Y-112660D01*
X20157Y-112724D01*
X20055Y-112798D01*
X19935Y-112872D01*
X19806Y-112956D01*
X19648Y-113039D01*
X19482Y-113113D01*
X19297Y-113187D01*
X19093Y-113252D01*
X18881Y-113307D01*
X18649Y-113353D01*
X18409Y-113381D01*
X18150Y-113390D01*
X18085D01*
X18011Y-113381D01*
X17919Y-113372D01*
X17798Y-113363D01*
X17660Y-113344D01*
X17502Y-113316D01*
X17336Y-113279D01*
X17151Y-113233D01*
X16975Y-113178D01*
X16781Y-113104D01*
X16596Y-113020D01*
X16402Y-112928D01*
X16226Y-112808D01*
X16050Y-112678D01*
X15884Y-112521D01*
X15874Y-112512D01*
X15847Y-112484D01*
X15810Y-112428D01*
X15754Y-112364D01*
X15689Y-112271D01*
X15615Y-112160D01*
X15541Y-112040D01*
X15467Y-111892D01*
X15384Y-111735D01*
X15310Y-111550D01*
X15236Y-111355D01*
X15171Y-111143D01*
X15116Y-110911D01*
X15079Y-110662D01*
X15051Y-110393D01*
X15042Y-110116D01*
Y-110107D01*
Y-110070D01*
Y-110023D01*
X15051Y-109949D01*
Y-109866D01*
X15060Y-109774D01*
X15070Y-109663D01*
X15079Y-109542D01*
X15116Y-109283D01*
X15162Y-109006D01*
X15236Y-108728D01*
X15329Y-108469D01*
Y-108460D01*
X15338Y-108451D01*
X15356Y-108423D01*
X15366Y-108386D01*
X15421Y-108294D01*
X15486Y-108173D01*
X15569Y-108035D01*
X15671Y-107896D01*
X15791Y-107739D01*
X15921Y-107591D01*
X15930Y-107581D01*
X15939Y-107572D01*
X15985Y-107526D01*
X16069Y-107452D01*
X16170Y-107369D01*
X16291Y-107276D01*
X16429Y-107174D01*
X16587Y-107082D01*
X16753Y-107008D01*
X16762D01*
X16781Y-106999D01*
X16818Y-106980D01*
X16864Y-106971D01*
X16920Y-106943D01*
X16984Y-106925D01*
X17068Y-106906D01*
X17151Y-106878D01*
X17354Y-106832D01*
X17586Y-106786D01*
X17854Y-106758D01*
X18131Y-106749D01*
X18196D01*
X18270Y-106758D01*
D02*
G37*
%LPC*%
G36*
X57351Y-107951D02*
X55871D01*
Y-109579D01*
X57129D01*
X57314Y-109570D01*
X57509Y-109561D01*
X57703Y-109552D01*
X57786Y-109542D01*
X57860Y-109533D01*
X57934Y-109515D01*
X57980Y-109505D01*
X57990D01*
X58017Y-109487D01*
X58064Y-109468D01*
X58110Y-109441D01*
X58230Y-109357D01*
X58286Y-109302D01*
X58341Y-109237D01*
X58350Y-109228D01*
X58360Y-109200D01*
X58387Y-109163D01*
X58415Y-109108D01*
X58434Y-109034D01*
X58461Y-108950D01*
X58471Y-108858D01*
X58480Y-108756D01*
Y-108738D01*
Y-108701D01*
X58471Y-108645D01*
X58461Y-108571D01*
X58434Y-108488D01*
X58406Y-108405D01*
X58360Y-108312D01*
X58304Y-108238D01*
X58295Y-108229D01*
X58276Y-108201D01*
X58230Y-108173D01*
X58175Y-108127D01*
X58110Y-108081D01*
X58027Y-108044D01*
X57925Y-108007D01*
X57814Y-107979D01*
X57805D01*
X57777Y-107970D01*
X57721D01*
X57638Y-107961D01*
X57435D01*
X57351Y-107951D01*
D02*
G37*
G36*
X38685Y-108358D02*
X37815Y-110736D01*
X39582Y-110736D01*
X38685Y-108358D01*
D02*
G37*
G36*
X24523Y-107951D02*
X23561D01*
Y-109774D01*
X24449D01*
X24514Y-109764D01*
X24680D01*
X24847Y-109755D01*
X25013Y-109737D01*
X25161Y-109709D01*
X25226Y-109700D01*
X25282Y-109681D01*
X25291Y-109672D01*
X25328Y-109663D01*
X25374Y-109635D01*
X25430Y-109607D01*
X25494Y-109561D01*
X25559Y-109505D01*
X25633Y-109441D01*
X25689Y-109367D01*
X25698Y-109357D01*
X25716Y-109330D01*
X25735Y-109283D01*
X25763Y-109219D01*
X25790Y-109145D01*
X25818Y-109061D01*
X25827Y-108969D01*
X25837Y-108867D01*
Y-108849D01*
Y-108812D01*
X25827Y-108747D01*
X25809Y-108664D01*
X25781Y-108571D01*
X25744Y-108469D01*
X25698Y-108377D01*
X25624Y-108284D01*
X25615Y-108275D01*
X25587Y-108247D01*
X25541Y-108210D01*
X25485Y-108164D01*
X25411Y-108109D01*
X25319Y-108062D01*
X25217Y-108025D01*
X25106Y-107998D01*
X25097D01*
X25060Y-107988D01*
X24995Y-107979D01*
X24902Y-107970D01*
X24782D01*
X24699Y-107961D01*
X24616D01*
X24523Y-107951D01*
D02*
G37*
G36*
X18150Y-107850D02*
X18076D01*
X18020Y-107859D01*
X17946Y-107868D01*
X17872Y-107877D01*
X17687Y-107914D01*
X17484Y-107988D01*
X17373Y-108025D01*
X17262Y-108081D01*
X17160Y-108146D01*
X17049Y-108220D01*
X16947Y-108303D01*
X16855Y-108405D01*
X16846Y-108414D01*
X16836Y-108432D01*
X16809Y-108460D01*
X16781Y-108506D01*
X16744Y-108571D01*
X16707Y-108636D01*
X16661Y-108719D01*
X16614Y-108821D01*
X16568Y-108932D01*
X16522Y-109052D01*
X16485Y-109191D01*
X16448Y-109339D01*
X16420Y-109505D01*
X16392Y-109681D01*
X16383Y-109866D01*
X16374Y-110070D01*
Y-110079D01*
Y-110116D01*
Y-110171D01*
X16383Y-110245D01*
X16392Y-110338D01*
X16402Y-110449D01*
X16420Y-110560D01*
X16439Y-110689D01*
X16494Y-110958D01*
X16587Y-111226D01*
X16642Y-111365D01*
X16707Y-111494D01*
X16790Y-111614D01*
X16873Y-111725D01*
X16883Y-111735D01*
X16901Y-111753D01*
X16929Y-111781D01*
X16966Y-111809D01*
X17012Y-111855D01*
X17077Y-111901D01*
X17142Y-111957D01*
X17225Y-112003D01*
X17401Y-112114D01*
X17623Y-112197D01*
X17743Y-112234D01*
X17872Y-112262D01*
X18011Y-112280D01*
X18150Y-112290D01*
X18224D01*
X18279Y-112280D01*
X18344Y-112271D01*
X18418Y-112262D01*
X18594Y-112216D01*
X18797Y-112151D01*
X18899Y-112105D01*
X19010Y-112058D01*
X19112Y-111994D01*
X19223Y-111920D01*
X19325Y-111836D01*
X19417Y-111735D01*
X19426Y-111725D01*
X19436Y-111707D01*
X19463Y-111679D01*
X19491Y-111633D01*
X19537Y-111568D01*
X19574Y-111494D01*
X19621Y-111411D01*
X19667Y-111309D01*
X19713Y-111198D01*
X19759Y-111078D01*
X19806Y-110939D01*
X19843Y-110782D01*
X19870Y-110625D01*
X19898Y-110449D01*
X19907Y-110255D01*
X19917Y-110051D01*
Y-110042D01*
Y-110005D01*
Y-109949D01*
X19907Y-109866D01*
X19898Y-109774D01*
X19889Y-109672D01*
X19880Y-109552D01*
X19852Y-109431D01*
X19796Y-109163D01*
X19713Y-108886D01*
X19658Y-108747D01*
X19593Y-108627D01*
X19510Y-108506D01*
X19426Y-108395D01*
X19417Y-108386D01*
X19408Y-108368D01*
X19380Y-108349D01*
X19343Y-108312D01*
X19288Y-108266D01*
X19232Y-108220D01*
X19167Y-108173D01*
X19084Y-108118D01*
X19001Y-108072D01*
X18899Y-108025D01*
X18686Y-107933D01*
X18566Y-107896D01*
X18437Y-107877D01*
X18298Y-107859D01*
X18150Y-107850D01*
D02*
G37*
%LPD*%
D14*
X27878Y69500D02*
Y73000D01*
X21972Y69500D02*
Y73000D01*
X-20521Y33799D02*
X-17224D01*
X63386Y-30900D02*
Y-27500D01*
X111500Y19000D02*
Y26500D01*
X54850Y7850D02*
Y9834D01*
X53500Y6500D02*
X54850Y7850D01*
X-30117Y34782D02*
X-26820D01*
Y34783D01*
Y40689D02*
X-23696D01*
X-22252Y42132D01*
X57087Y-48500D02*
Y-47000D01*
X13500Y14229D02*
X16500D01*
X39689Y69500D02*
Y73000D01*
X114273Y52001D02*
X117500D01*
X27878Y69500D02*
Y73000D01*
X53000Y69500D02*
X53200D01*
X51500Y71000D02*
X53000Y69500D01*
X51500Y71000D02*
Y73000D01*
X51000Y-1228D02*
X51001Y-1229D01*
X55000D01*
X66500Y-29000D02*
Y-25000D01*
X65500Y-30000D02*
X66500Y-29000D01*
X21000Y8161D02*
X25535D01*
X21661Y15839D02*
X25535D01*
X21000Y16500D02*
X21661Y15839D01*
X3001Y45272D02*
Y48000D01*
X-14713Y64213D02*
X-11000Y64000D01*
X-20521Y23957D02*
X-17757D01*
X-17600Y23800D01*
X46468Y-3201D02*
X48441Y-1228D01*
X51000D01*
X-26820Y14626D02*
Y19035D01*
Y14626D02*
X-25836Y13642D01*
X61149Y7851D02*
Y9834D01*
Y7851D02*
X62500Y6500D01*
X-20521Y15118D02*
Y18051D01*
X-23277Y12362D02*
X-20521Y15118D01*
X57015Y7485D02*
Y9834D01*
Y7485D02*
X58000Y6500D01*
X45594Y73000D02*
Y75899D01*
X43208Y78285D02*
X45594Y75899D01*
X43208Y78285D02*
Y82000D01*
X6151Y12349D02*
Y14160D01*
Y12349D02*
X14000Y4500D01*
X21000D01*
X10161Y69500D02*
Y73000D01*
X58984Y7484D02*
Y9834D01*
X58000Y6500D02*
X58984Y7484D01*
X-19000Y66500D02*
X-16288Y65788D01*
X73000Y60000D02*
X77000D01*
X91500Y45500D01*
X105500D01*
X-30117Y24941D02*
X-26820D01*
X12700Y30669D02*
X15069D01*
X15400Y31000D01*
X114179Y45501D02*
X117500D01*
X55000Y-7500D02*
Y-4772D01*
X108958Y52001D02*
Y55500D01*
X108864Y45501D02*
Y49000D01*
X66535Y-35535D02*
Y-35100D01*
Y-35535D02*
X68000Y-37000D01*
X33783Y69500D02*
Y73000D01*
X114210Y39001D02*
X117500D01*
X-18500Y40500D02*
X-18500Y42000D01*
X-19295Y39705D02*
X-18500Y40500D01*
X-20521Y39705D02*
X-19295D01*
X16067Y69500D02*
Y73000D01*
X21972Y69500D02*
Y73000D01*
X114179Y32517D02*
X117500D01*
D16*
X25600Y59600D02*
X35250D01*
X36000Y60350D01*
X25062Y58300D02*
X35450D01*
X35451Y58300D02*
X36000Y57750D01*
X18350Y65012D02*
X25062Y58300D01*
X19650Y65550D02*
X25600Y59600D01*
X18350Y65012D02*
Y69801D01*
X19650Y65550D02*
Y69762D01*
X18035Y70116D02*
X18350Y69801D01*
X19650Y69762D02*
X20004Y70116D01*
X18035D02*
Y73000D01*
X20005Y70116D02*
Y73000D01*
X48038Y52200D02*
X55200D01*
X46777Y53462D02*
X48038Y52200D01*
X55200D02*
X55700Y51700D01*
Y50300D02*
Y51700D01*
X55200Y49800D02*
X55700Y50300D01*
X49038Y49800D02*
X55200D01*
X48577Y53500D02*
X55739D01*
X57000Y52239D01*
X48077Y54000D02*
X48577Y53500D01*
X48077Y54000D02*
Y55487D01*
X48719Y56129D01*
X36378Y54774D02*
X37420Y55816D01*
X36378Y54774D02*
Y54774D01*
X35998Y54393D02*
X36378Y54774D01*
X35998Y52366D02*
Y54393D01*
X37297Y53855D02*
X37958Y54516D01*
X37297Y52905D02*
Y53855D01*
X37958Y54516D02*
X38796D01*
X23942Y70659D02*
Y73000D01*
Y70659D02*
X24250Y70350D01*
Y67200D02*
Y70350D01*
X23550Y66500D02*
X24250Y67200D01*
X39764Y45433D02*
Y47336D01*
X39601Y47500D02*
X39764Y47336D01*
X39601Y47500D02*
Y50602D01*
X37297Y52905D02*
X39601Y50602D01*
X38796Y54516D02*
X40257Y53053D01*
X42054D01*
X43625Y54624D01*
Y56409D01*
X41337Y58697D02*
X43625Y56409D01*
X41337Y58697D02*
Y59708D01*
X41829Y60200D01*
X42483D01*
X43233Y59450D01*
X25910Y70709D02*
Y73000D01*
X25550Y70350D02*
X25910Y70709D01*
X25550Y67100D02*
Y70350D01*
Y67100D02*
X26151Y66500D01*
X39621Y33451D02*
X39764Y33307D01*
X39621Y33451D02*
Y41663D01*
X40271Y42313D01*
X38190Y45433D02*
Y47289D01*
X38300Y47400D01*
Y50064D01*
X35998Y52366D02*
X38300Y50064D01*
X37420Y55816D02*
X39334D01*
X40796Y54353D01*
X41515D01*
X42325Y55163D01*
Y55870D01*
X40036Y58159D02*
X42325Y55870D01*
X40036Y58159D02*
Y60247D01*
X41291Y61500D01*
X42684D01*
X43233Y62050D01*
X47638Y45433D02*
Y47038D01*
X47776Y47176D01*
Y48539D01*
X49038Y49800D01*
X46777Y53462D02*
Y55471D01*
X46119Y56129D02*
X46777Y55471D01*
X47126Y37600D02*
X47776Y36950D01*
Y33445D02*
Y36950D01*
X47638Y33307D02*
X47776Y33445D01*
X42913Y45433D02*
Y48117D01*
X42441Y48589D02*
X42913Y48117D01*
X49077Y36950D02*
X49727Y37600D01*
X49077Y33445D02*
Y36950D01*
Y33445D02*
X49213Y33307D01*
X44488Y45433D02*
Y48036D01*
X45041Y48589D01*
X38190Y33307D02*
X38320Y33438D01*
Y41663D01*
X37670Y42313D02*
X38320Y41663D01*
X49213Y45433D02*
Y47087D01*
X49077Y47224D02*
X49213Y47087D01*
X49077Y47224D02*
Y48000D01*
X49577Y48500D01*
X55739D01*
X57000Y49762D01*
Y52239D01*
X25550Y67100D02*
X26150Y66500D01*
X25550Y67100D02*
Y70350D01*
X25909Y70709D01*
Y73000D01*
X11650Y66700D02*
X12400Y67450D01*
Y70200D01*
X12130Y70470D02*
X12400Y70200D01*
X12130Y70470D02*
Y73000D01*
X44488Y30012D02*
X45000Y29500D01*
X44488Y30012D02*
Y33307D01*
X47638D02*
X47776Y33444D01*
X49075D02*
X49213Y33307D01*
X13700Y67250D02*
X14250Y66700D01*
X13700Y67250D02*
Y70100D01*
X14098Y70498D01*
Y73000D01*
X42400Y29500D02*
X42913Y30013D01*
Y33307D01*
X23550Y66500D02*
X24250Y67200D01*
Y70350D01*
X23941Y70659D02*
X24250Y70350D01*
X23941Y70659D02*
Y73000D01*
D18*
X49000Y-13228D02*
D03*
Y-16771D02*
D03*
X55000Y-4772D02*
D03*
Y-1229D02*
D03*
X51000Y-1228D02*
D03*
Y-4771D02*
D03*
X16500Y14228D02*
D03*
Y17772D02*
D03*
X6151Y17703D02*
D03*
Y14160D02*
D03*
X3001Y41729D02*
D03*
Y45272D02*
D03*
D19*
X114273Y52001D02*
D03*
X108958D02*
D03*
X114179Y32517D02*
D03*
X108864D02*
D03*
X108895Y39001D02*
D03*
X114210D02*
D03*
X108864Y45501D02*
D03*
X114179Y45501D02*
D03*
D20*
X68000Y69000D02*
D03*
Y85000D02*
D03*
X73000Y69000D02*
D03*
Y85000D02*
D03*
X78000Y69000D02*
D03*
Y85000D02*
D03*
X83000Y69000D02*
D03*
Y85000D02*
D03*
X88000Y69000D02*
D03*
Y85000D02*
D03*
D21*
X-37000Y0D02*
D03*
X-21000D02*
D03*
X-37000Y-5000D02*
D03*
X-21000D02*
D03*
X-37000Y-10000D02*
D03*
X-21000D02*
D03*
X-37000Y-15000D02*
D03*
X-21000D02*
D03*
X-37000Y-20000D02*
D03*
X-21000D02*
D03*
D22*
X40886Y-16000D02*
D03*
X34114D02*
D03*
D23*
X46468Y-9799D02*
D03*
X44500D02*
D03*
X42531D02*
D03*
Y-3201D02*
D03*
X44500D02*
D03*
X46468D02*
D03*
D24*
X35500Y-9800D02*
D03*
Y-4200D02*
D03*
D25*
X40200Y1500D02*
D03*
X45800D02*
D03*
D26*
X58500Y66807D02*
D03*
Y70193D02*
D03*
X-3000Y68693D02*
D03*
Y65307D02*
D03*
X5000Y68693D02*
D03*
Y65307D02*
D03*
X-9700Y59693D02*
D03*
Y56307D02*
D03*
X9000Y57307D02*
D03*
Y60693D02*
D03*
X-6175Y35307D02*
D03*
Y38693D02*
D03*
X-9729Y35307D02*
D03*
Y38693D02*
D03*
D27*
X61149Y9834D02*
D03*
Y14165D02*
D03*
X54850D02*
D03*
Y9834D02*
D03*
D28*
X58984D02*
D03*
X57015Y14165D02*
D03*
X58984D02*
D03*
X57015Y9834D02*
D03*
D29*
X42465Y15839D02*
D03*
Y13280D02*
D03*
Y10721D02*
D03*
Y8161D02*
D03*
X25535D02*
D03*
Y10721D02*
D03*
Y13280D02*
D03*
Y15839D02*
D03*
D30*
X10161Y73000D02*
D03*
X12130D02*
D03*
X14098D02*
D03*
X16067D02*
D03*
X18035D02*
D03*
X20004D02*
D03*
X21972D02*
D03*
X23941D02*
D03*
X25909D02*
D03*
X27878D02*
D03*
X29847D02*
D03*
X31815D02*
D03*
X33784D02*
D03*
X35752D02*
D03*
X37721D02*
D03*
X39689D02*
D03*
X41658D02*
D03*
X43626D02*
D03*
X45594D02*
D03*
X47563D02*
D03*
X49531D02*
D03*
X51500D02*
D03*
D31*
X1205Y80480D02*
D03*
X60457D02*
D03*
D32*
X311Y68189D02*
D03*
X1689D02*
D03*
X311Y66811D02*
D03*
X1689D02*
D03*
D33*
X4134Y57032D02*
D03*
Y60969D02*
D03*
X-4134D02*
D03*
Y59000D02*
D03*
Y57032D02*
D03*
X4134Y59000D02*
D03*
D34*
X0D02*
D03*
D35*
X50693Y20000D02*
D03*
X47307D02*
D03*
X-3451Y18734D02*
D03*
X-6837D02*
D03*
X-3451Y22288D02*
D03*
X-6837D02*
D03*
D36*
X-20521Y31831D02*
D03*
Y33799D02*
D03*
Y27894D02*
D03*
Y25925D02*
D03*
Y29862D02*
D03*
Y39705D02*
D03*
Y37736D02*
D03*
Y35768D02*
D03*
Y21988D02*
D03*
Y23957D02*
D03*
Y20020D02*
D03*
Y18051D02*
D03*
D37*
X-26820Y30846D02*
D03*
Y22972D02*
D03*
Y24941D02*
D03*
Y19035D02*
D03*
Y21004D02*
D03*
Y34783D02*
D03*
Y28878D02*
D03*
Y26909D02*
D03*
Y32815D02*
D03*
Y38720D02*
D03*
Y36752D02*
D03*
Y40689D02*
D03*
D38*
X-1063Y46144D02*
D03*
X-3032D02*
D03*
X-6968D02*
D03*
X-8937D02*
D03*
Y42856D02*
D03*
X-6968D02*
D03*
X-3032D02*
D03*
X-1063D02*
D03*
D39*
X-5000Y46144D02*
D03*
Y42856D02*
D03*
D40*
X-13919Y13621D02*
D03*
Y15589D02*
D03*
Y19526D02*
D03*
Y21495D02*
D03*
X-10631D02*
D03*
Y19526D02*
D03*
Y15589D02*
D03*
Y13621D02*
D03*
D41*
X-13919Y17558D02*
D03*
X-10631D02*
D03*
D42*
X-11554Y29240D02*
D03*
Y27665D02*
D03*
Y26091D02*
D03*
X-8995Y29240D02*
D03*
Y27665D02*
D03*
Y26091D02*
D03*
D43*
X111500Y-21669D02*
D03*
Y-5331D02*
D03*
Y22669D02*
D03*
Y6331D02*
D03*
D44*
X117504Y-19701D02*
D03*
Y-7299D02*
D03*
X105496D02*
D03*
Y-19701D02*
D03*
X117504Y8299D02*
D03*
Y20701D02*
D03*
X105496D02*
D03*
Y8299D02*
D03*
D45*
X68110Y33307D02*
D03*
Y45433D02*
D03*
X66535Y33307D02*
D03*
Y45433D02*
D03*
X64961Y33307D02*
D03*
Y45433D02*
D03*
X63386Y33307D02*
D03*
Y45433D02*
D03*
X61811Y33307D02*
D03*
Y45433D02*
D03*
X60236Y33307D02*
D03*
Y45433D02*
D03*
X58661Y33307D02*
D03*
Y45433D02*
D03*
X57087Y33307D02*
D03*
Y45433D02*
D03*
X55512Y33307D02*
D03*
Y45433D02*
D03*
X53937Y33307D02*
D03*
Y45433D02*
D03*
X52362Y33307D02*
D03*
Y45433D02*
D03*
X50787Y33307D02*
D03*
Y45433D02*
D03*
X49213Y33307D02*
D03*
Y45433D02*
D03*
X47638Y33307D02*
D03*
Y45433D02*
D03*
X46063Y33307D02*
D03*
Y45433D02*
D03*
X44488Y33307D02*
D03*
Y45433D02*
D03*
X42913Y33307D02*
D03*
Y45433D02*
D03*
X41339Y33307D02*
D03*
Y45433D02*
D03*
X39764Y33307D02*
D03*
Y45433D02*
D03*
X38189Y33307D02*
D03*
Y45433D02*
D03*
X36614Y33307D02*
D03*
Y45433D02*
D03*
X35039Y33307D02*
D03*
Y45433D02*
D03*
X33465Y33307D02*
D03*
Y45433D02*
D03*
X31890Y33307D02*
D03*
Y45433D02*
D03*
X30315Y33307D02*
D03*
Y45433D02*
D03*
X28740Y33307D02*
D03*
Y45433D02*
D03*
X27165Y33307D02*
D03*
Y45433D02*
D03*
X25591Y33307D02*
D03*
Y45433D02*
D03*
X24016Y33307D02*
D03*
Y45433D02*
D03*
X22441Y33307D02*
D03*
Y45433D02*
D03*
X50787Y-33307D02*
D03*
X49213D02*
D03*
X47638D02*
D03*
X46063D02*
D03*
X44488D02*
D03*
X68110Y-45433D02*
D03*
Y-33307D02*
D03*
X66535Y-45433D02*
D03*
Y-33307D02*
D03*
X64961Y-45433D02*
D03*
Y-33307D02*
D03*
X63386Y-45433D02*
D03*
Y-33307D02*
D03*
X61811Y-45433D02*
D03*
Y-33307D02*
D03*
X60236Y-45433D02*
D03*
Y-33307D02*
D03*
X58661Y-45433D02*
D03*
Y-33307D02*
D03*
X57087Y-45433D02*
D03*
Y-33307D02*
D03*
X55512Y-45433D02*
D03*
Y-33307D02*
D03*
X53937Y-45433D02*
D03*
Y-33307D02*
D03*
X52362Y-45433D02*
D03*
Y-33307D02*
D03*
X50787Y-45433D02*
D03*
X49213D02*
D03*
X47638D02*
D03*
X46063D02*
D03*
X44488D02*
D03*
X42913D02*
D03*
Y-33307D02*
D03*
X41339Y-45433D02*
D03*
Y-33307D02*
D03*
X39764Y-45433D02*
D03*
Y-33307D02*
D03*
X38189Y-45433D02*
D03*
Y-33307D02*
D03*
X36614Y-45433D02*
D03*
Y-33307D02*
D03*
X35039Y-45433D02*
D03*
Y-33307D02*
D03*
X33465Y-45433D02*
D03*
Y-33307D02*
D03*
X31890Y-45433D02*
D03*
Y-33307D02*
D03*
X30315Y-45433D02*
D03*
Y-33307D02*
D03*
X28740Y-45433D02*
D03*
Y-33307D02*
D03*
X27165Y-45433D02*
D03*
Y-33307D02*
D03*
X25591Y-45433D02*
D03*
Y-33307D02*
D03*
X24016Y-45433D02*
D03*
Y-33307D02*
D03*
X22441Y-45433D02*
D03*
Y-33307D02*
D03*
D46*
X-14713Y65788D02*
D03*
Y64213D02*
D03*
X-16288Y65788D02*
D03*
Y64213D02*
D03*
D47*
X2923Y25945D02*
D03*
Y22795D02*
D03*
Y24370D02*
D03*
Y27520D02*
D03*
Y32244D02*
D03*
Y29095D02*
D03*
Y30669D02*
D03*
Y36969D02*
D03*
Y33819D02*
D03*
Y35394D02*
D03*
X10954Y22795D02*
D03*
Y24370D02*
D03*
Y25945D02*
D03*
Y30669D02*
D03*
Y27520D02*
D03*
Y29095D02*
D03*
Y35394D02*
D03*
Y36969D02*
D03*
Y32244D02*
D03*
Y33819D02*
D03*
D48*
X6151Y21929D02*
D03*
X7726D02*
D03*
Y37835D02*
D03*
X6151D02*
D03*
D90*
X84000Y-40500D02*
D03*
X-41000Y-39500D02*
D03*
X-39500Y83500D02*
D03*
D91*
X6938Y29882D02*
D03*
D92*
X53500Y42500D02*
X54500D01*
X55512Y43512D01*
Y45433D01*
X50788Y41961D02*
Y45433D01*
X48426Y39600D02*
X50788Y41961D01*
X46064Y43563D02*
Y45433D01*
X45000Y42500D02*
X46064Y43563D01*
X43001Y42500D02*
X45000D01*
X36615Y43814D02*
Y45433D01*
X35300Y42500D02*
X36615Y43814D01*
X35001Y42500D02*
X35300D01*
X42601D02*
X43001D01*
X41339Y43761D02*
X42601Y42500D01*
X41339Y43761D02*
Y45433D01*
X41339Y31439D02*
Y33307D01*
X40500Y30600D02*
X41339Y31439D01*
X20500Y47500D02*
X22000D01*
X22441Y47059D01*
Y45433D02*
Y47059D01*
X27165Y45433D02*
Y48000D01*
X60236Y42366D02*
Y45433D01*
X50787Y30240D02*
Y33307D01*
X-5000Y42856D02*
Y46144D01*
X-16900Y18000D02*
X-16000D01*
X-14933Y17558D01*
X64961Y42366D02*
Y45433D01*
X31890Y43110D02*
X32350Y42650D01*
X31890Y43110D02*
Y45433D01*
Y31190D02*
Y33307D01*
X30900Y30200D02*
X31890Y31190D01*
X20500Y-45433D02*
X22441D01*
X55512Y30240D02*
Y33307D01*
X-14933Y17558D02*
X-10631D01*
X46063Y31437D02*
X46800Y30700D01*
X46063Y31437D02*
Y33307D01*
X22441Y31059D02*
Y33307D01*
Y31059D02*
X23500Y30000D01*
X60236Y30240D02*
Y33307D01*
X27165Y30240D02*
Y33307D01*
X64961Y30240D02*
Y33307D01*
D93*
X36614D02*
X36614Y33307D01*
X36614Y30240D02*
Y33307D01*
X36614Y30240D02*
X36614Y30240D01*
X63386Y-33307D02*
Y-30900D01*
X57087Y-47000D02*
Y-45433D01*
X60236Y-43264D02*
X61000Y-42500D01*
X60236Y-45433D02*
Y-43264D01*
X62500Y-48500D02*
X63386Y-47614D01*
Y-45433D01*
X61811Y-47811D02*
Y-45433D01*
Y-47811D02*
X62500Y-48500D01*
X55512Y-45433D02*
Y-42988D01*
X56500Y-42000D01*
X64961Y-30539D02*
X65500Y-30000D01*
X64961Y-33307D02*
Y-30539D01*
X20800Y-30300D02*
X22441Y-31941D01*
Y-33307D02*
Y-31941D01*
X66000Y-42000D02*
X68000D01*
X64961Y-43039D02*
X66000Y-42000D01*
X64961Y-45433D02*
Y-43039D01*
X66535Y-48500D02*
Y-45433D01*
X58661Y-33307D02*
Y-29500D01*
X10954Y30669D02*
X12700D01*
X42913Y-30587D02*
X43500Y-30000D01*
X42913Y-33307D02*
Y-30587D01*
X66535Y-35100D02*
Y-33307D01*
X-13467Y35445D02*
X-12950Y33750D01*
X-12204Y33004D01*
X-10396Y31796D01*
X-8995Y30395D01*
Y29240D02*
Y30395D01*
D94*
X-34793Y39505D02*
X-34398Y39900D01*
X-32580D01*
X-29716Y37036D01*
X-28695D01*
X-28411Y36751D01*
X-26820D01*
Y36752D01*
X-9252Y48649D02*
X-8652Y48048D01*
Y47348D02*
Y48048D01*
X-8937Y47063D02*
X-8652Y47348D01*
X-8937Y46144D02*
Y47063D01*
X15500Y-45000D02*
X17500D01*
X19500Y-43000D01*
X33000D01*
X33465Y-43465D01*
Y-45433D02*
Y-43465D01*
X14000Y21000D02*
Y22900D01*
X12530Y24370D02*
X14000Y22900D01*
X10954Y24370D02*
X12530D01*
X-7921Y21204D02*
X-6837Y22288D01*
X-9354Y21204D02*
X-7921D01*
X-9645Y21495D02*
X-9354Y21204D01*
X-10631Y21495D02*
X-9645D01*
X52362Y-45433D02*
Y-43138D01*
X53000Y-42500D01*
X73000Y63500D02*
Y69000D01*
X70800Y61300D02*
X73000Y63500D01*
X70800Y59000D02*
Y61300D01*
Y59000D02*
X72300Y57500D01*
X76400D01*
X86500Y47400D01*
Y41441D02*
Y47400D01*
Y41441D02*
X90000Y37941D01*
X-26820Y21003D02*
Y21004D01*
X-28411Y21003D02*
X-26820D01*
X-28695Y21288D02*
X-28411Y21003D01*
X-31243Y21288D02*
X-28695D01*
X-34026Y18505D02*
X-31243Y21288D01*
X-36719Y18505D02*
X-34026D01*
X-37224Y17999D02*
X-36719Y18505D01*
X-28413Y22972D02*
X-26820D01*
X-28697Y22688D02*
X-28413Y22972D01*
X-31823Y22688D02*
X-28697D01*
X-34606Y19905D02*
X-31823Y22688D01*
X-36629Y19905D02*
X-34606D01*
X-37224Y20499D02*
X-36629Y19905D01*
X71900Y50600D02*
X75000Y47500D01*
X63700Y50600D02*
X71900D01*
X52846Y61454D02*
X63700Y50600D01*
X51310Y62090D02*
X52846Y61454D01*
X46317Y67083D02*
X51310Y62090D01*
X44617Y67083D02*
X46317D01*
X41657Y70043D02*
X44617Y67083D01*
X41657Y70043D02*
Y73000D01*
X1500Y-29500D02*
X3000D01*
X15000Y-41500D01*
X-8937Y46144D02*
X-8936Y46143D01*
Y42857D02*
Y46143D01*
X-8937Y42856D02*
X-8936Y42857D01*
X-8937Y41937D02*
Y42856D01*
Y41937D02*
X-8652Y41652D01*
Y39770D02*
Y41652D01*
X-9729Y38693D02*
X-8652Y39770D01*
X-5101Y30669D02*
X2923D01*
X-6549Y31269D02*
X-5101Y30669D01*
X-8477Y33197D02*
X-6549Y31269D01*
X-8477Y33197D02*
Y34230D01*
X-9554Y35307D02*
X-8477Y34230D01*
X-9729Y35307D02*
X-9554D01*
X83000Y62000D02*
Y69000D01*
Y62000D02*
X85000Y60000D01*
Y55500D02*
Y60000D01*
X19220Y10720D02*
X25535D01*
X18000Y9500D02*
X19220Y10720D01*
X11700Y9500D02*
X18000D01*
X8700Y12500D02*
X11700Y9500D01*
X8700Y12500D02*
Y18874D01*
X7725Y19849D02*
X8700Y18874D01*
X7725Y19849D02*
Y21928D01*
X7726Y21929D01*
X12500Y39000D02*
X13400Y38100D01*
Y36400D02*
Y38100D01*
X12394Y35394D02*
X13400Y36400D01*
X10954Y35394D02*
X12394D01*
X83000Y79000D02*
Y85000D01*
X82000Y78000D02*
X83000Y79000D01*
X53000Y-42500D02*
X53937Y-43437D01*
Y-45433D02*
Y-43437D01*
X78000Y62500D02*
Y69000D01*
Y62500D02*
X82500Y58000D01*
X-3031Y42856D02*
Y46144D01*
X-17500Y7500D02*
X-8483Y9962D01*
X-4822Y11478D01*
X2923Y19223D01*
Y22795D01*
X30315Y-33307D02*
Y-30615D01*
X26700Y-27000D02*
X30315Y-30615D01*
X24000Y-27000D02*
X26700D01*
X22200Y-25200D02*
X24000Y-27000D01*
X14700Y-25200D02*
X22200D01*
X3300Y-13800D02*
X14700Y-25200D01*
X-4900Y-13800D02*
X3300D01*
X-13600Y-5100D02*
X-4900Y-13800D01*
X-13600Y-5100D02*
Y-1300D01*
X-14900Y0D02*
X-13600Y-1300D01*
X-21000Y0D02*
X-14900D01*
X-8995Y26091D02*
X-7447D01*
X-6935Y25578D01*
X17000Y-19500D02*
Y-6200D01*
X29900Y6700D01*
Y10100D01*
X29280Y10720D02*
X29900Y10100D01*
X25535Y10720D02*
X29280D01*
X73000Y78000D02*
Y85000D01*
X-13919Y13621D02*
X-10631D01*
X68100Y-18700D02*
X76500D01*
X64100Y-22701D02*
X68100Y-18700D01*
X54400Y-22701D02*
X64100D01*
X53100Y-24000D02*
X54400Y-22701D01*
X36000Y-24000D02*
X53100D01*
X33465Y-26535D02*
X36000Y-24000D01*
X33465Y-33307D02*
Y-26535D01*
X34952Y45520D02*
X35039Y45433D01*
X34952Y45520D02*
Y48048D01*
X31600Y51400D02*
X34952Y48048D01*
X17227Y51400D02*
X31600D01*
X16627Y52000D02*
X17227Y51400D01*
X57015Y14165D02*
Y16015D01*
X58500Y17500D01*
X25535Y13280D02*
X29220D01*
X31400Y11100D01*
Y6100D02*
Y11100D01*
X21000Y-4300D02*
X31400Y6100D01*
X21000Y-19500D02*
Y-4300D01*
X-37700Y28858D02*
X-37261Y29297D01*
X-37700Y28200D02*
Y28858D01*
Y28200D02*
X-37200Y27700D01*
X-35311D01*
X-33981Y29029D01*
Y29029D01*
X-32449Y30561D01*
X-28697D01*
X-28413Y30845D01*
X-26820D01*
Y30846D01*
X7500Y40800D02*
Y43500D01*
Y40800D02*
X7726Y40574D01*
Y37835D02*
Y40574D01*
X-39761Y29297D02*
X-39100Y28636D01*
Y27619D02*
Y28636D01*
Y27619D02*
X-37780Y26300D01*
X-34731D01*
X-32992Y28039D01*
Y28039D02*
Y28039D01*
Y28039D02*
X-31869Y29161D01*
X-28695D01*
X-28411Y28878D01*
X-26820D01*
X-14713Y65788D02*
X-13501Y67000D01*
X-11000D01*
X68000Y59400D02*
Y69000D01*
Y59400D02*
X71400Y56000D01*
X75700D01*
X80700Y51000D01*
Y12600D02*
Y51000D01*
X63000Y-5100D02*
X80700Y12600D01*
X63000Y-17500D02*
Y-5100D01*
X-13402Y26091D02*
X-11554D01*
X-14214Y25278D02*
X-13402Y26091D01*
X-20521Y35768D02*
X-20189Y36100D01*
X-17120D01*
X-13900Y39320D01*
Y47800D01*
X-9900Y51800D01*
X-3780D01*
X-2747Y50767D01*
Y47253D02*
Y50767D01*
X-3031Y46969D02*
X-2747Y47253D01*
X-3031Y46144D02*
Y46969D01*
X42465Y13280D02*
X49280D01*
X50165Y14165D01*
X54850D01*
X33465Y45433D02*
X33552Y45520D01*
Y47468D01*
X31020Y50000D02*
X33552Y47468D01*
X25586Y50000D02*
X31020D01*
X25059Y49473D02*
X25586Y50000D01*
X25059Y48927D02*
Y49473D01*
X24531Y48400D02*
X25059Y48927D01*
X23786Y48400D02*
X24531D01*
X23259Y48927D02*
X23786Y48400D01*
X23259Y48927D02*
Y49473D01*
X22731Y50000D02*
X23259Y49473D01*
X17227Y50000D02*
X22731D01*
X16627Y49400D02*
X17227Y50000D01*
X2836Y27608D02*
X2923Y27520D01*
X108Y27608D02*
X2836D01*
X-1321Y26179D02*
X108Y27608D01*
X-2435Y26179D02*
X-1321D01*
X-3035Y25578D02*
X-2435Y26179D01*
X28740Y45433D02*
X28828Y45346D01*
Y42662D02*
Y45346D01*
X28300Y42134D02*
X28828Y42662D01*
X27727Y42134D02*
X28300D01*
X27200Y41607D02*
X27727Y42134D01*
X27200Y40862D02*
Y41607D01*
Y40862D02*
X27727Y40334D01*
X28300D01*
X28828Y39807D01*
Y39107D02*
Y39807D01*
X27620Y37900D02*
X28828Y39107D01*
X21920Y37900D02*
X27620D01*
X19820Y35800D02*
X21920Y37900D01*
X15420Y35800D02*
X19820D01*
X13352Y33731D02*
X15420Y35800D01*
X11041Y33731D02*
X13352D01*
X10954Y33819D02*
X11041Y33731D01*
X44500Y-11500D02*
Y-9799D01*
Y-11500D02*
X45500Y-12500D01*
X-13919Y15589D02*
X-10631D01*
X38300Y-36500D02*
X40400D01*
X41339Y-35561D01*
Y-33307D01*
X2748Y33994D02*
X2923Y33819D01*
X526Y33994D02*
X2748D01*
X-2747Y37267D02*
X526Y33994D01*
X-2747Y37267D02*
Y41747D01*
X-3031Y42031D02*
X-2747Y41747D01*
X-3031Y42031D02*
Y42856D01*
X57690Y64000D02*
X60500D01*
X53952Y65548D02*
X57690Y64000D01*
X49532Y69968D02*
X53952Y65548D01*
X49532Y69968D02*
Y73000D01*
X43626Y70368D02*
Y73000D01*
Y70368D02*
X45159Y68835D01*
X46665D01*
X52222Y63278D01*
X54441Y62359D01*
X64800Y52000D01*
X75000D01*
X-41500Y54000D02*
Y56532D01*
Y54000D02*
X-36600Y49100D01*
Y44400D02*
Y49100D01*
X-45600Y35400D02*
X-36600Y44400D01*
X-45600Y19600D02*
Y35400D01*
Y19600D02*
X-42400Y16400D01*
X-38500D01*
X-35000Y12900D01*
Y7500D02*
Y12900D01*
Y7500D02*
X-29500Y2000D01*
Y-21400D02*
Y2000D01*
Y-21400D02*
X-27900Y-23000D01*
X-500D01*
X18200Y-41700D01*
X28800D01*
X31500Y-39000D01*
X42000D01*
X43000Y-38000D01*
X60311D01*
X61811Y-36500D01*
Y-33307D01*
X70000Y-14000D02*
X72500Y-11500D01*
X90000D01*
X103500Y2000D01*
X110000D01*
X111500Y3500D01*
Y6331D01*
X-3035Y28179D02*
X-2435Y27578D01*
X-1901D01*
X-472Y29008D01*
X2836D01*
X2923Y29095D01*
X-11754Y27466D02*
X-11554Y27666D01*
X-13802Y27466D02*
X-11754D01*
X-14214Y27878D02*
X-13802Y27466D01*
X42465Y10720D02*
X51000D01*
X-37000Y53500D02*
X-31750Y48250D01*
X-37000Y53500D02*
Y66000D01*
X-41500Y70500D02*
X-37000Y66000D01*
X-11554Y27666D02*
X-8995D01*
X-20521Y27894D02*
X-19106D01*
X-18822Y28178D01*
X-18058D01*
X-15858Y25978D01*
X-14914D01*
X-14214Y25278D01*
X-7907Y19804D02*
X-6837Y18734D01*
X-9446Y19804D02*
X-7907D01*
X-9724Y19526D02*
X-9446Y19804D01*
X-10631Y19526D02*
X-9724D01*
X-6175Y35132D02*
Y35307D01*
X-7077Y34230D02*
X-6175Y35132D01*
X-7077Y33777D02*
Y34230D01*
Y33777D02*
X-5756Y32456D01*
X-4822Y32069D01*
X-3799D01*
X-3389Y32479D01*
Y33502D01*
X-2979Y33913D01*
X-2399D01*
X-1989Y33502D01*
Y32479D02*
Y33502D01*
Y32479D02*
X-1579Y32069D01*
X2748D01*
X2923Y32244D01*
X-13919Y19526D02*
X-10631D01*
X-6968Y42032D02*
Y42856D01*
X-7252Y41748D02*
X-6968Y42032D01*
X-7252Y39770D02*
Y41748D01*
Y39770D02*
X-6175Y38693D01*
X1106Y35394D02*
X2923D01*
X-1347Y37847D02*
X1106Y35394D01*
X-1347Y37847D02*
Y41653D01*
X-1063Y41937D01*
Y42856D01*
X-21000Y-20000D02*
X-14500D01*
X-13500Y-21000D01*
X600D01*
X19300Y-39700D01*
X26300D01*
X25591Y-31009D02*
X26300Y-30300D01*
X25591Y-33307D02*
Y-31009D01*
X46000Y-42000D02*
X48500Y-39500D01*
X57500D01*
X58661Y-40661D01*
Y-45433D02*
Y-40661D01*
X76500Y-18700D02*
X88800D01*
X93500Y-14000D01*
X110000D01*
X111500Y-15500D01*
Y-21669D02*
Y-15500D01*
X-8995Y27666D02*
X-7447D01*
X-6935Y28179D01*
X-16107Y15589D02*
X-13919D01*
X-16423Y15905D02*
X-16107Y15589D01*
X-13919Y21495D02*
X-10631D01*
X-21000Y-5000D02*
X-16800D01*
X-6300Y-15500D01*
X2100D01*
X13700Y-27100D01*
X21000D01*
X24016Y-30116D01*
Y-33307D02*
Y-30116D01*
X30228Y45346D02*
X30315Y45433D01*
X30228Y38528D02*
Y45346D01*
X28200Y36500D02*
X30228Y38528D01*
X22500Y36500D02*
X28200D01*
X20400Y34400D02*
X22500Y36500D01*
X16000Y34400D02*
X20400D01*
X13931Y32331D02*
X16000Y34400D01*
X11041Y32331D02*
X13931D01*
X10954Y32244D02*
X11041Y32331D01*
X-21000Y-15000D02*
X-14400D01*
X-10400Y-19000D01*
X700D01*
X19500Y-37800D01*
X27000D01*
X28740Y-36060D01*
Y-33307D01*
X-11554Y26091D02*
X-8995D01*
X74250Y-13750D02*
X88250D01*
X71600Y-16400D02*
X74250Y-13750D01*
X67700Y-16400D02*
X71600D01*
X63399Y-20700D02*
X67700Y-16400D01*
X54299Y-20700D02*
X63399D01*
X52500Y-22500D02*
X54299Y-20700D01*
X35000Y-22500D02*
X52500D01*
X31890Y-25610D02*
X35000Y-22500D01*
X31890Y-33307D02*
Y-25610D01*
X-6726Y13905D02*
X-6126Y13305D01*
X-9523Y13905D02*
X-6726D01*
X-9807Y13621D02*
X-9523Y13905D01*
X-10631Y13621D02*
X-9807D01*
X78000Y78000D02*
Y85000D01*
X-31122Y26909D02*
X-26820D01*
X-35204Y22826D02*
X-31122Y26909D01*
X-39704Y22826D02*
X-35204D01*
X-42204Y20326D02*
X-39704Y22826D01*
X54850Y14165D02*
Y16150D01*
X53500Y17500D02*
X54850Y16150D01*
X6151Y17703D02*
Y21929D01*
X-20521Y37736D02*
X-20285Y37500D01*
X-17700D01*
X-15300Y39900D01*
Y48380D01*
X-10480Y53200D01*
X-3200D01*
X-1347Y51347D01*
Y47347D02*
Y51347D01*
Y47347D02*
X-1063Y47063D01*
Y46144D02*
Y47063D01*
X39764Y-30236D02*
X40000Y-30000D01*
X39764Y-33307D02*
Y-30236D01*
X-20521Y29862D02*
X-19362D01*
X-19078Y29578D01*
X-17478D01*
X-15279Y27378D01*
X-14714D01*
X-14214Y27878D01*
X-34793Y42005D02*
X-34086Y41300D01*
X-32000D01*
X-29136Y38436D01*
X-28697D01*
X-28413Y38720D01*
X-26820D01*
X27165Y-35135D02*
Y-33307D01*
X26100Y-36200D02*
X27165Y-35135D01*
X20400Y-36200D02*
X26100D01*
X1700Y-17500D02*
X20400Y-36200D01*
X-7300Y-17500D02*
X1700D01*
X-14800Y-10000D02*
X-7300Y-17500D01*
X-21000Y-10000D02*
X-14800D01*
X-7252Y48048D02*
X-6652Y48649D01*
X-7252Y47252D02*
Y48048D01*
Y47252D02*
X-6968Y46968D01*
Y46144D02*
Y46968D01*
X61149Y14165D02*
X68800D01*
X-6726Y15305D02*
X-6126Y15905D01*
X-9427Y15305D02*
X-6726D01*
X-9712Y15590D02*
X-9427Y15305D01*
X-9713Y15589D02*
X-9712Y15590D01*
X-10631Y15589D02*
X-9713D01*
X-16423Y13305D02*
X-16108Y13620D01*
X-14838D01*
X-14837Y13621D01*
X-13919D01*
X-3451Y22288D02*
X-2367Y21204D01*
X-1500D01*
X-900Y21804D01*
Y24100D01*
X857Y25857D01*
X2836D01*
X2923Y25945D01*
X10954Y27520D02*
X11041Y27608D01*
X13613D01*
X15720Y25500D01*
X20773D01*
X21373Y24900D01*
X35039Y-35461D02*
Y-33307D01*
X34000Y-36500D02*
X35039Y-35461D01*
X10954Y29095D02*
X11041Y29008D01*
X14193D01*
X16300Y26900D01*
X20773D01*
X21373Y27500D01*
X19280Y13280D02*
X25535D01*
X17000Y11000D02*
X19280Y13280D01*
X12500Y11000D02*
X17000D01*
X10400Y13100D02*
X12500Y11000D01*
X10400Y13100D02*
Y22785D01*
X10410Y22795D01*
X10954D01*
X40600Y-26100D02*
X43400D01*
X37800Y-28900D02*
X40600Y-26100D01*
X37800Y-31100D02*
Y-28900D01*
Y-31100D02*
X38189Y-31489D01*
Y-33307D02*
Y-31489D01*
X56507Y62993D02*
X60500Y59000D01*
X53093Y64407D02*
X56507Y62993D01*
X47563Y69937D02*
X53093Y64407D01*
X47563Y69937D02*
Y73000D01*
X15500Y39127D02*
X16100Y39727D01*
Y41300D01*
X17800Y43000D01*
X23520D01*
X24103Y43583D01*
Y45346D01*
X24016Y45433D02*
X24103Y45346D01*
X60236Y-33307D02*
Y-30764D01*
X61000Y-30000D01*
Y-28000D01*
X60000Y-27000D02*
X61000Y-28000D01*
X57000Y-27000D02*
X60000D01*
X55500Y-25500D02*
X57000Y-27000D01*
X18000Y77000D02*
X34084D01*
X35761Y78677D01*
Y84301D01*
X38573Y87113D01*
X42669D01*
X45973Y83809D01*
Y79318D02*
Y83809D01*
Y79318D02*
X48291Y77000D01*
X55800D01*
X57800Y75000D01*
X62000D01*
X64500Y72500D01*
Y59900D02*
Y72500D01*
Y59900D02*
X70300Y54100D01*
X75600D01*
X79100Y50600D01*
Y13500D02*
Y50600D01*
X60900Y-4700D02*
X79100Y13500D01*
X60900Y-15100D02*
Y-4700D01*
X58500Y-17500D02*
X60900Y-15100D01*
X-1063Y42856D02*
Y46144D01*
X5500Y46000D02*
X7500Y48000D01*
X5500Y40500D02*
Y46000D01*
Y40500D02*
X6151Y39849D01*
Y37835D02*
Y39849D01*
X36100Y-26900D02*
X37000Y-26000D01*
X36100Y-31000D02*
Y-26900D01*
Y-31000D02*
X36614Y-31514D01*
Y-33307D02*
Y-31514D01*
X36500Y-42000D02*
X42000D01*
X35039Y-43461D02*
X36500Y-42000D01*
X35039Y-45433D02*
Y-43461D01*
X88000Y61000D02*
Y69000D01*
X17500Y39727D02*
X18100Y39127D01*
X17500Y39727D02*
Y40720D01*
X18380Y41600D01*
X24100D01*
X25504Y43003D01*
Y45346D01*
X25591Y45433D01*
X-20521Y20020D02*
X-19106D01*
X-18822Y20304D01*
X-16804D01*
X-16304Y19804D01*
X-15104D01*
X-14826Y19526D01*
X-13919D01*
X2923Y36969D02*
Y41651D01*
X3001Y41729D01*
X-6968Y42856D02*
Y46144D01*
X-3451Y18734D02*
X-2381Y19804D01*
X-920D01*
X500Y21224D01*
Y23520D01*
X1437Y24457D01*
X2836D01*
X2923Y24370D01*
X-16288Y64212D02*
Y64213D01*
X-17500Y63000D02*
X-16288Y64212D01*
X-13431Y31831D02*
X-12850Y31250D01*
X-20521Y31831D02*
X-13431D01*
X-20521Y21988D02*
X-19362D01*
X-19078Y21704D01*
X-16224D01*
X-15724Y21204D01*
X-15196D01*
X-14905Y21495D01*
X-13919D01*
X10954Y25945D02*
X12655D01*
X16000Y22600D01*
Y18272D02*
Y22600D01*
Y18272D02*
X16500Y17772D01*
D95*
X-3000Y68693D02*
X311Y66811D01*
X-12214Y29240D02*
X-11554D01*
X-15014Y29978D02*
X-12214Y29240D01*
X1689Y66811D02*
X3161Y66000D01*
X-1100Y69000D02*
X311Y68189D01*
X-5000Y46144D02*
X-4700Y50000D01*
D96*
X111500Y-5331D02*
Y-1500D01*
X3161Y66000D02*
X5000Y65307D01*
X56607Y66807D02*
X58500D01*
X55388Y67312D02*
X56607Y66807D01*
X53200Y69500D02*
X55388Y67312D01*
X74500Y27000D02*
X76500Y25000D01*
X44500Y27000D02*
X74500D01*
X41500Y24000D02*
X44500Y27000D01*
X33000Y24000D02*
X41500D01*
X31500Y22500D02*
X33000Y24000D01*
X31500Y15000D02*
Y22500D01*
Y15000D02*
X38339Y8161D01*
X42465D01*
X88000Y78000D02*
Y85000D01*
X58807Y70500D02*
X62000D01*
X58500Y70193D02*
X58807Y70500D01*
X52193Y21500D02*
X63000D01*
X50693Y20000D02*
X52193Y21500D01*
X47307Y16807D02*
Y20000D01*
X46339Y15839D02*
X47307Y16807D01*
X42465Y15839D02*
X46339D01*
X42465Y8161D02*
X47339D01*
X34000Y20500D02*
X38661Y15839D01*
X42465D01*
X103000Y29000D02*
X106517Y32517D01*
X108864D01*
X104499Y39001D02*
X108895D01*
X103000Y40500D02*
X104499Y39001D01*
X64000Y24500D02*
X67000Y21500D01*
X49000Y24500D02*
X64000D01*
X47307Y22807D02*
X49000Y24500D01*
X47307Y20000D02*
Y22807D01*
X2905Y68374D02*
X5000Y68693D01*
X60457Y85000D02*
X68000D01*
X58500Y66807D02*
X62000D01*
D97*
X-44000Y-5000D02*
X-37000D01*
X-44000Y-20000D02*
X-37000D01*
X-44000Y0D02*
X-37000D01*
X60457Y80480D02*
Y85000D01*
X1205Y80480D02*
Y85000D01*
X-3000Y68693D02*
X-1700Y69993D01*
X-44000Y-10000D02*
X-37000D01*
X83000Y2500D02*
Y43000D01*
D98*
X-1207Y69993D02*
X9400Y80600D01*
X12900D01*
X22800Y90500D01*
X61500D01*
X64100Y93100D01*
X86400D01*
X88000Y91500D01*
Y85000D02*
Y91500D01*
X5000Y68693D02*
Y72600D01*
X10299Y77899D01*
X14399D01*
X20500Y84000D01*
X29000D01*
X31500Y86500D01*
X-1700Y69993D02*
X-1207D01*
D99*
X68110Y-33307D02*
Y-30490D01*
X69200Y-29400D01*
X1689Y68189D02*
X2905Y68374D01*
D100*
X-41500Y56532D02*
D03*
D101*
X-31500D02*
D03*
X-21500D02*
D03*
D102*
X-14111Y81202D02*
D03*
Y-36900D02*
D03*
X104000Y81202D02*
D03*
Y-36900D02*
D03*
D103*
X-23277Y46378D02*
D03*
Y12362D02*
D03*
D104*
X-25836Y45098D02*
D03*
Y13642D02*
D03*
D105*
X-31151Y43543D02*
D03*
D106*
X-43159Y46378D02*
D03*
Y12362D02*
D03*
D107*
X-30895Y15197D02*
D03*
D108*
X-41500Y70500D02*
D03*
D109*
X-31500D02*
D03*
D110*
X0Y0D02*
D03*
D111*
X36000Y57750D02*
D03*
X34300Y56200D02*
D03*
X53500Y42500D02*
D03*
X35001Y42500D02*
D03*
X37670Y42313D02*
D03*
X40271D02*
D03*
X42441Y48589D02*
D03*
X43001Y42500D02*
D03*
X43233Y59450D02*
D03*
Y62050D02*
D03*
X43801Y51000D02*
D03*
X45041Y48589D02*
D03*
X45300Y60700D02*
D03*
X46119Y56129D02*
D03*
X47023Y58360D02*
D03*
X47126Y37600D02*
D03*
X48426Y39600D02*
D03*
X48719Y56129D02*
D03*
X49727Y37600D02*
D03*
X40500Y30600D02*
D03*
X34300Y61900D02*
D03*
X-41061Y30997D02*
D03*
X-39761Y29297D02*
D03*
X-39200Y19205D02*
D03*
X-37261Y29297D02*
D03*
X-37224Y17999D02*
D03*
Y20499D02*
D03*
X-36769Y40711D02*
D03*
X-35361Y30197D02*
D03*
X-34793Y39505D02*
D03*
Y42005D02*
D03*
X-17500Y23800D02*
D03*
Y11210D02*
D03*
X-16900Y18000D02*
D03*
X-16423Y13305D02*
D03*
Y15905D02*
D03*
X-15014Y29978D02*
D03*
X-14214Y25278D02*
D03*
Y27878D02*
D03*
X-13467Y35445D02*
D03*
X-12850Y31250D02*
D03*
X-11514Y24079D02*
D03*
X-11404Y47297D02*
D03*
X-10000Y11710D02*
D03*
X-9252Y48649D02*
D03*
X-6935Y25578D02*
D03*
Y28179D02*
D03*
X-6652Y48649D02*
D03*
X-6126Y13305D02*
D03*
Y15905D02*
D03*
X-5035Y26878D02*
D03*
X-4700Y50000D02*
D03*
X-3035Y25578D02*
D03*
Y28179D02*
D03*
X11650Y66700D02*
D03*
X12500Y39000D02*
D03*
X14000Y21000D02*
D03*
Y41127D02*
D03*
X14250Y66700D02*
D03*
X15500Y39127D02*
D03*
X15600Y47527D02*
D03*
Y54127D02*
D03*
X16627Y49400D02*
D03*
Y52000D02*
D03*
X18100Y39127D02*
D03*
X20500Y47500D02*
D03*
X20600Y39627D02*
D03*
X21373Y24900D02*
D03*
Y27500D02*
D03*
X23373Y26200D02*
D03*
X23550Y66500D02*
D03*
X26150D02*
D03*
X27165Y30240D02*
D03*
Y48100D02*
D03*
X30900Y30200D02*
D03*
X32350Y42650D02*
D03*
X36000Y60350D02*
D03*
X36614Y30240D02*
D03*
X42400Y29500D02*
D03*
X45000D02*
D03*
X45500Y-12500D02*
D03*
X46800Y30700D02*
D03*
X50787Y30240D02*
D03*
X55512D02*
D03*
X60236D02*
D03*
Y42366D02*
D03*
X64961Y30240D02*
D03*
Y42366D02*
D03*
X75000Y47500D02*
D03*
Y52000D02*
D03*
D112*
X21972Y69500D02*
D03*
X86400Y93100D02*
D03*
X-44000Y-20000D02*
D03*
Y-10000D02*
D03*
Y-5000D02*
D03*
Y0D02*
D03*
Y4500D02*
D03*
X-42204Y20326D02*
D03*
X-31750Y48250D02*
D03*
X-30117Y24941D02*
D03*
Y34782D02*
D03*
X-22252Y42132D02*
D03*
X-18500Y42000D02*
D03*
X-17500Y7500D02*
D03*
X-17224Y33799D02*
D03*
X-12500Y56500D02*
D03*
Y60000D02*
D03*
X-11000Y64000D02*
D03*
Y67000D02*
D03*
X-7000Y56500D02*
D03*
Y60000D02*
D03*
X-6000Y65000D02*
D03*
X1205Y85000D02*
D03*
X1500Y-29500D02*
D03*
X2000Y64500D02*
D03*
X3001Y48000D02*
D03*
X4500Y54000D02*
D03*
X6500Y26500D02*
D03*
X6795Y32326D02*
D03*
X7500Y43500D02*
D03*
Y48000D02*
D03*
X9000Y54000D02*
D03*
Y63500D02*
D03*
X10161Y69500D02*
D03*
X13500Y14229D02*
D03*
X15000Y-41500D02*
D03*
X15400Y31000D02*
D03*
X15500Y-45000D02*
D03*
X16067Y69500D02*
D03*
X17000Y-19500D02*
D03*
X18000Y77000D02*
D03*
X20500Y-45433D02*
D03*
X20800Y-30300D02*
D03*
X21000Y-19500D02*
D03*
Y4500D02*
D03*
Y8161D02*
D03*
Y16500D02*
D03*
X22000Y79135D02*
D03*
X23500Y30000D02*
D03*
X24311Y86500D02*
D03*
X25000Y-18500D02*
D03*
Y-12500D02*
D03*
Y-4500D02*
D03*
X26300Y-39700D02*
D03*
Y-30300D02*
D03*
X27600Y86500D02*
D03*
X27878Y69500D02*
D03*
X29500Y-18500D02*
D03*
Y-12500D02*
D03*
Y-4500D02*
D03*
X30500Y82000D02*
D03*
X31500Y86500D02*
D03*
X32500Y2500D02*
D03*
X33783Y69500D02*
D03*
X34000Y-36500D02*
D03*
Y20500D02*
D03*
X35000Y86500D02*
D03*
X37000Y-26000D02*
D03*
Y2500D02*
D03*
X38300Y-36500D02*
D03*
X38484Y82000D02*
D03*
X39689Y69500D02*
D03*
X40000Y-30000D02*
D03*
X40500Y-6000D02*
D03*
X40800Y84900D02*
D03*
X42000Y-42000D02*
D03*
X43208Y82000D02*
D03*
X43400Y-26100D02*
D03*
X43500Y-30000D02*
D03*
X44500Y-6000D02*
D03*
X46000Y-42000D02*
D03*
Y-19500D02*
D03*
X47339Y8161D02*
D03*
X47500Y86500D02*
D03*
X48000Y-6000D02*
D03*
X49000Y2500D02*
D03*
X50500Y-19500D02*
D03*
X51000Y10720D02*
D03*
X53000Y-42500D02*
D03*
X53500Y2500D02*
D03*
Y6500D02*
D03*
Y17500D02*
D03*
X55000Y-7500D02*
D03*
X55500Y-25500D02*
D03*
X56500Y-42000D02*
D03*
X57087Y-48500D02*
D03*
X58000Y6500D02*
D03*
X58500Y-17500D02*
D03*
Y17500D02*
D03*
X58661Y-29500D02*
D03*
X60457Y85000D02*
D03*
X60500Y59000D02*
D03*
Y64000D02*
D03*
X61000Y-42500D02*
D03*
X62000Y66807D02*
D03*
Y70500D02*
D03*
X62500Y-48500D02*
D03*
Y6500D02*
D03*
X63000Y-17500D02*
D03*
Y21500D02*
D03*
X63386Y-27500D02*
D03*
X65500Y77000D02*
D03*
X66500Y-25000D02*
D03*
X66535Y-48500D02*
D03*
X67000Y21500D02*
D03*
X68000Y-42000D02*
D03*
Y-37000D02*
D03*
X68500Y77000D02*
D03*
X68800Y14165D02*
D03*
X69200Y-29400D02*
D03*
X70000Y-14000D02*
D03*
X73000Y60000D02*
D03*
Y78000D02*
D03*
X74500Y-32000D02*
D03*
X76500Y-18700D02*
D03*
Y25000D02*
D03*
X78000Y-47000D02*
D03*
Y-32000D02*
D03*
Y78000D02*
D03*
X82000D02*
D03*
X82500Y58000D02*
D03*
X83000Y2500D02*
D03*
Y43000D02*
D03*
X85000Y55500D02*
D03*
X88000Y61000D02*
D03*
Y78000D02*
D03*
X88250Y-13750D02*
D03*
X90000Y26441D02*
D03*
Y31559D02*
D03*
Y37941D02*
D03*
Y43059D02*
D03*
X103000Y29000D02*
D03*
Y40500D02*
D03*
X103500Y50500D02*
D03*
X105500Y45500D02*
D03*
X108864Y49000D02*
D03*
X108958Y55500D02*
D03*
X109698Y29000D02*
D03*
X111500Y-1500D02*
D03*
Y19000D02*
D03*
Y26500D02*
D03*
X117500Y32517D02*
D03*
Y39001D02*
D03*
Y45501D02*
D03*
Y52001D02*
D03*
D113*
X5846Y-5846D02*
D03*
X-5846D02*
D03*
X0Y-8268D02*
D03*
X-5846Y5846D02*
D03*
X-8268Y0D02*
D03*
X0Y8268D02*
D03*
X5846Y5846D02*
D03*
X8268Y0D02*
D03*
M02*
