G04*
G04 #@! TF.GenerationSoftware,Altium Limited,Altium Designer,22.5.1 (42)*
G04*
G04 Layer_Color=16711935*
%FSLAX25Y25*%
%MOIN*%
G70*
G04*
G04 #@! TF.SameCoordinates,7D5A9487-70C0-458F-A832-C6248EDC6538*
G04*
G04*
G04 #@! TF.FilePolarity,Negative*
G04*
G01*
G75*
%ADD32C,0.00800*%
G04:AMPARAMS|DCode=49|XSize=23.68mil|YSize=27.62mil|CornerRadius=7.12mil|HoleSize=0mil|Usage=FLASHONLY|Rotation=90.000|XOffset=0mil|YOffset=0mil|HoleType=Round|Shape=RoundedRectangle|*
%AMROUNDEDRECTD49*
21,1,0.02368,0.01339,0,0,90.0*
21,1,0.00945,0.02762,0,0,90.0*
1,1,0.01424,0.00669,0.00472*
1,1,0.01424,0.00669,-0.00472*
1,1,0.01424,-0.00669,-0.00472*
1,1,0.01424,-0.00669,0.00472*
%
%ADD49ROUNDEDRECTD49*%
G04:AMPARAMS|DCode=57|XSize=25.26mil|YSize=27.62mil|CornerRadius=7.53mil|HoleSize=0mil|Usage=FLASHONLY|Rotation=270.000|XOffset=0mil|YOffset=0mil|HoleType=Round|Shape=RoundedRectangle|*
%AMROUNDEDRECTD57*
21,1,0.02526,0.01257,0,0,270.0*
21,1,0.01021,0.02762,0,0,270.0*
1,1,0.01506,-0.00628,-0.00510*
1,1,0.01506,-0.00628,0.00510*
1,1,0.01506,0.00628,0.00510*
1,1,0.01506,0.00628,-0.00510*
%
%ADD57ROUNDEDRECTD57*%
%ADD63C,0.11811*%
G04:AMPARAMS|DCode=66|XSize=25.26mil|YSize=27.62mil|CornerRadius=7.53mil|HoleSize=0mil|Usage=FLASHONLY|Rotation=0.000|XOffset=0mil|YOffset=0mil|HoleType=Round|Shape=RoundedRectangle|*
%AMROUNDEDRECTD66*
21,1,0.02526,0.01257,0,0,0.0*
21,1,0.01021,0.02762,0,0,0.0*
1,1,0.01506,0.00510,-0.00628*
1,1,0.01506,-0.00510,-0.00628*
1,1,0.01506,-0.00510,0.00628*
1,1,0.01506,0.00510,0.00628*
%
%ADD66ROUNDEDRECTD66*%
%ADD80R,0.06306X0.06306*%
%ADD81C,0.06306*%
%ADD83C,0.02880*%
%ADD84O,0.10636X0.05518*%
%ADD85O,0.02368X0.03747*%
%ADD86R,0.06337X0.06337*%
%ADD87C,0.06337*%
%ADD88C,0.21660*%
%ADD89C,0.03400*%
%ADD119C,0.02400*%
G04:AMPARAMS|DCode=120|XSize=23.68mil|YSize=27.62mil|CornerRadius=7.12mil|HoleSize=0mil|Usage=FLASHONLY|Rotation=180.000|XOffset=0mil|YOffset=0mil|HoleType=Round|Shape=RoundedRectangle|*
%AMROUNDEDRECTD120*
21,1,0.02368,0.01339,0,0,180.0*
21,1,0.00945,0.02762,0,0,180.0*
1,1,0.01424,-0.00472,0.00669*
1,1,0.01424,0.00472,0.00669*
1,1,0.01424,0.00472,-0.00669*
1,1,0.01424,-0.00472,-0.00669*
%
%ADD120ROUNDEDRECTD120*%
%ADD121C,0.04337*%
%ADD122R,0.08400X0.15400*%
%ADD123R,0.01299X0.02874*%
%ADD124R,0.03661X0.02441*%
%ADD125C,0.00400*%
G36*
X39436Y-126458D02*
X39538Y-126467D01*
X39658Y-126477D01*
X39778Y-126495D01*
X39917Y-126514D01*
X40213Y-126578D01*
X40361Y-126625D01*
X40509Y-126671D01*
X40657Y-126736D01*
X40796Y-126810D01*
X40925Y-126893D01*
X41046Y-126985D01*
X41055Y-126995D01*
X41073Y-127013D01*
X41101Y-127041D01*
X41138Y-127078D01*
X41184Y-127133D01*
X41240Y-127198D01*
X41295Y-127272D01*
X41360Y-127355D01*
X41416Y-127457D01*
X41471Y-127559D01*
X41527Y-127679D01*
X41573Y-127809D01*
X41619Y-127938D01*
X41656Y-128086D01*
X41684Y-128234D01*
X41693Y-128401D01*
X40398Y-128447D01*
Y-128438D01*
Y-128428D01*
X40380Y-128364D01*
X40361Y-128280D01*
X40324Y-128179D01*
X40278Y-128058D01*
X40213Y-127947D01*
X40130Y-127836D01*
X40037Y-127744D01*
X40028Y-127735D01*
X39991Y-127707D01*
X39926Y-127670D01*
X39834Y-127633D01*
X39723Y-127596D01*
X39584Y-127559D01*
X39418Y-127531D01*
X39223Y-127522D01*
X39131D01*
X39029Y-127531D01*
X38909Y-127550D01*
X38770Y-127577D01*
X38622Y-127624D01*
X38483Y-127679D01*
X38354Y-127762D01*
X38345Y-127772D01*
X38326Y-127790D01*
X38289Y-127818D01*
X38252Y-127864D01*
X38215Y-127920D01*
X38178Y-127994D01*
X38160Y-128068D01*
X38150Y-128160D01*
Y-128169D01*
Y-128197D01*
X38160Y-128243D01*
X38178Y-128290D01*
X38197Y-128354D01*
X38224Y-128419D01*
X38271Y-128484D01*
X38335Y-128549D01*
X38345Y-128558D01*
X38391Y-128586D01*
X38419Y-128604D01*
X38465Y-128623D01*
X38511Y-128650D01*
X38576Y-128678D01*
X38650Y-128706D01*
X38733Y-128743D01*
X38835Y-128780D01*
X38937Y-128817D01*
X39066Y-128854D01*
X39205Y-128891D01*
X39353Y-128928D01*
X39519Y-128974D01*
X39529D01*
X39566Y-128983D01*
X39612Y-128993D01*
X39677Y-129011D01*
X39751Y-129030D01*
X39843Y-129057D01*
X39945Y-129085D01*
X40047Y-129113D01*
X40269Y-129187D01*
X40500Y-129261D01*
X40722Y-129344D01*
X40814Y-129390D01*
X40907Y-129437D01*
X40916D01*
X40925Y-129446D01*
X40981Y-129483D01*
X41064Y-129538D01*
X41166Y-129612D01*
X41277Y-129705D01*
X41397Y-129816D01*
X41517Y-129945D01*
X41619Y-130093D01*
X41628Y-130112D01*
X41656Y-130167D01*
X41702Y-130251D01*
X41749Y-130371D01*
X41795Y-130519D01*
X41841Y-130695D01*
X41869Y-130889D01*
X41878Y-131111D01*
Y-131120D01*
Y-131139D01*
Y-131166D01*
Y-131203D01*
X41869Y-131250D01*
X41860Y-131314D01*
X41841Y-131444D01*
X41804Y-131610D01*
X41749Y-131786D01*
X41665Y-131962D01*
X41564Y-132147D01*
Y-132156D01*
X41545Y-132165D01*
X41508Y-132221D01*
X41434Y-132313D01*
X41342Y-132415D01*
X41221Y-132535D01*
X41064Y-132646D01*
X40898Y-132757D01*
X40694Y-132859D01*
X40685D01*
X40666Y-132868D01*
X40639Y-132878D01*
X40592Y-132896D01*
X40537Y-132915D01*
X40472Y-132933D01*
X40398Y-132952D01*
X40315Y-132970D01*
X40213Y-132998D01*
X40111Y-133016D01*
X39871Y-133053D01*
X39603Y-133081D01*
X39307Y-133090D01*
X39186D01*
X39103Y-133081D01*
X39001Y-133072D01*
X38890Y-133063D01*
X38761Y-133044D01*
X38622Y-133016D01*
X38317Y-132952D01*
X38160Y-132905D01*
X38012Y-132859D01*
X37854Y-132794D01*
X37706Y-132720D01*
X37568Y-132637D01*
X37438Y-132535D01*
X37429Y-132526D01*
X37410Y-132508D01*
X37373Y-132480D01*
X37336Y-132434D01*
X37281Y-132369D01*
X37225Y-132295D01*
X37161Y-132212D01*
X37096Y-132119D01*
X37031Y-132008D01*
X36966Y-131888D01*
X36902Y-131749D01*
X36837Y-131601D01*
X36791Y-131444D01*
X36735Y-131268D01*
X36698Y-131083D01*
X36670Y-130889D01*
X37928Y-130769D01*
Y-130778D01*
X37938Y-130796D01*
Y-130833D01*
X37947Y-130870D01*
X37984Y-130981D01*
X38030Y-131120D01*
X38086Y-131277D01*
X38169Y-131435D01*
X38261Y-131573D01*
X38382Y-131703D01*
X38400Y-131712D01*
X38446Y-131749D01*
X38520Y-131795D01*
X38631Y-131851D01*
X38770Y-131906D01*
X38927Y-131953D01*
X39112Y-131990D01*
X39325Y-131999D01*
X39427D01*
X39538Y-131980D01*
X39677Y-131962D01*
X39825Y-131934D01*
X39982Y-131888D01*
X40130Y-131823D01*
X40259Y-131740D01*
X40278Y-131731D01*
X40315Y-131694D01*
X40361Y-131638D01*
X40426Y-131564D01*
X40481Y-131472D01*
X40537Y-131361D01*
X40574Y-131250D01*
X40583Y-131120D01*
Y-131111D01*
Y-131083D01*
X40574Y-131037D01*
X40565Y-130981D01*
X40546Y-130926D01*
X40528Y-130861D01*
X40491Y-130796D01*
X40444Y-130732D01*
X40435Y-130722D01*
X40417Y-130704D01*
X40389Y-130676D01*
X40343Y-130639D01*
X40278Y-130593D01*
X40195Y-130547D01*
X40102Y-130500D01*
X39982Y-130454D01*
X39973D01*
X39936Y-130436D01*
X39871Y-130417D01*
X39825Y-130399D01*
X39769Y-130389D01*
X39704Y-130371D01*
X39630Y-130343D01*
X39547Y-130325D01*
X39455Y-130297D01*
X39344Y-130269D01*
X39223Y-130241D01*
X39094Y-130204D01*
X38946Y-130167D01*
X38937D01*
X38900Y-130158D01*
X38844Y-130140D01*
X38779Y-130121D01*
X38696Y-130093D01*
X38594Y-130066D01*
X38493Y-130029D01*
X38372Y-129992D01*
X38132Y-129899D01*
X37901Y-129788D01*
X37780Y-129733D01*
X37679Y-129668D01*
X37577Y-129603D01*
X37494Y-129538D01*
X37484Y-129529D01*
X37466Y-129511D01*
X37438Y-129483D01*
X37401Y-129446D01*
X37355Y-129390D01*
X37309Y-129326D01*
X37253Y-129261D01*
X37207Y-129178D01*
X37096Y-128983D01*
X37003Y-128761D01*
X36966Y-128641D01*
X36939Y-128521D01*
X36920Y-128382D01*
X36911Y-128243D01*
Y-128234D01*
Y-128225D01*
Y-128197D01*
Y-128160D01*
X36929Y-128068D01*
X36948Y-127947D01*
X36976Y-127809D01*
X37022Y-127651D01*
X37087Y-127485D01*
X37179Y-127328D01*
Y-127318D01*
X37188Y-127309D01*
X37235Y-127254D01*
X37290Y-127180D01*
X37383Y-127087D01*
X37494Y-126985D01*
X37632Y-126874D01*
X37790Y-126773D01*
X37975Y-126680D01*
X37984D01*
X38002Y-126671D01*
X38030Y-126662D01*
X38067Y-126643D01*
X38123Y-126625D01*
X38178Y-126606D01*
X38252Y-126588D01*
X38335Y-126560D01*
X38520Y-126523D01*
X38733Y-126486D01*
X38974Y-126458D01*
X39242Y-126449D01*
X39353D01*
X39436Y-126458D01*
D02*
G37*
G36*
X-11744Y-126458D02*
X-11642Y-126467D01*
X-11522Y-126477D01*
X-11402Y-126495D01*
X-11263Y-126514D01*
X-10967Y-126578D01*
X-10819Y-126625D01*
X-10671Y-126671D01*
X-10523Y-126736D01*
X-10384Y-126810D01*
X-10255Y-126893D01*
X-10135Y-126985D01*
X-10125Y-126995D01*
X-10107Y-127013D01*
X-10079Y-127041D01*
X-10042Y-127078D01*
X-9996Y-127133D01*
X-9940Y-127198D01*
X-9885Y-127272D01*
X-9820Y-127355D01*
X-9765Y-127457D01*
X-9709Y-127559D01*
X-9654Y-127679D01*
X-9607Y-127809D01*
X-9561Y-127938D01*
X-9524Y-128086D01*
X-9496Y-128234D01*
X-9487Y-128401D01*
X-10782Y-128447D01*
Y-128438D01*
Y-128428D01*
X-10801Y-128364D01*
X-10819Y-128280D01*
X-10856Y-128179D01*
X-10902Y-128058D01*
X-10967Y-127947D01*
X-11050Y-127836D01*
X-11143Y-127744D01*
X-11152Y-127735D01*
X-11189Y-127707D01*
X-11254Y-127670D01*
X-11346Y-127633D01*
X-11457Y-127596D01*
X-11596Y-127559D01*
X-11763Y-127531D01*
X-11957Y-127522D01*
X-12049D01*
X-12151Y-127531D01*
X-12271Y-127550D01*
X-12410Y-127577D01*
X-12558Y-127624D01*
X-12697Y-127679D01*
X-12826Y-127762D01*
X-12836Y-127772D01*
X-12854Y-127790D01*
X-12891Y-127818D01*
X-12928Y-127864D01*
X-12965Y-127920D01*
X-13002Y-127994D01*
X-13021Y-128068D01*
X-13030Y-128160D01*
Y-128169D01*
Y-128197D01*
X-13021Y-128243D01*
X-13002Y-128290D01*
X-12984Y-128354D01*
X-12956Y-128419D01*
X-12910Y-128484D01*
X-12845Y-128549D01*
X-12836Y-128558D01*
X-12789Y-128586D01*
X-12762Y-128604D01*
X-12715Y-128623D01*
X-12669Y-128650D01*
X-12604Y-128678D01*
X-12530Y-128706D01*
X-12447Y-128743D01*
X-12345Y-128780D01*
X-12244Y-128817D01*
X-12114Y-128854D01*
X-11975Y-128891D01*
X-11827Y-128928D01*
X-11661Y-128974D01*
X-11652D01*
X-11615Y-128983D01*
X-11568Y-128993D01*
X-11504Y-129011D01*
X-11430Y-129030D01*
X-11337Y-129057D01*
X-11235Y-129085D01*
X-11134Y-129113D01*
X-10912Y-129187D01*
X-10680Y-129261D01*
X-10458Y-129344D01*
X-10366Y-129390D01*
X-10273Y-129437D01*
X-10264D01*
X-10255Y-129446D01*
X-10199Y-129483D01*
X-10116Y-129538D01*
X-10014Y-129612D01*
X-9903Y-129705D01*
X-9783Y-129816D01*
X-9663Y-129945D01*
X-9561Y-130093D01*
X-9552Y-130112D01*
X-9524Y-130167D01*
X-9478Y-130251D01*
X-9432Y-130371D01*
X-9385Y-130519D01*
X-9339Y-130695D01*
X-9311Y-130889D01*
X-9302Y-131111D01*
Y-131120D01*
Y-131139D01*
Y-131166D01*
Y-131203D01*
X-9311Y-131250D01*
X-9321Y-131314D01*
X-9339Y-131444D01*
X-9376Y-131610D01*
X-9432Y-131786D01*
X-9515Y-131962D01*
X-9617Y-132147D01*
Y-132156D01*
X-9635Y-132165D01*
X-9672Y-132221D01*
X-9746Y-132313D01*
X-9839Y-132415D01*
X-9959Y-132535D01*
X-10116Y-132646D01*
X-10283Y-132757D01*
X-10486Y-132859D01*
X-10495D01*
X-10514Y-132868D01*
X-10542Y-132878D01*
X-10588Y-132896D01*
X-10643Y-132915D01*
X-10708Y-132933D01*
X-10782Y-132952D01*
X-10865Y-132970D01*
X-10967Y-132998D01*
X-11069Y-133016D01*
X-11309Y-133053D01*
X-11578Y-133081D01*
X-11874Y-133090D01*
X-11994D01*
X-12077Y-133081D01*
X-12179Y-133072D01*
X-12290Y-133063D01*
X-12419Y-133044D01*
X-12558Y-133016D01*
X-12863Y-132952D01*
X-13021Y-132905D01*
X-13169Y-132859D01*
X-13326Y-132794D01*
X-13474Y-132720D01*
X-13613Y-132637D01*
X-13742Y-132535D01*
X-13751Y-132526D01*
X-13770Y-132508D01*
X-13807Y-132480D01*
X-13844Y-132434D01*
X-13899Y-132369D01*
X-13955Y-132295D01*
X-14020Y-132212D01*
X-14084Y-132119D01*
X-14149Y-132008D01*
X-14214Y-131888D01*
X-14279Y-131749D01*
X-14343Y-131601D01*
X-14390Y-131444D01*
X-14445Y-131268D01*
X-14482Y-131083D01*
X-14510Y-130889D01*
X-13252Y-130769D01*
Y-130778D01*
X-13243Y-130796D01*
Y-130833D01*
X-13233Y-130870D01*
X-13196Y-130981D01*
X-13150Y-131120D01*
X-13095Y-131277D01*
X-13011Y-131435D01*
X-12919Y-131573D01*
X-12799Y-131703D01*
X-12780Y-131712D01*
X-12734Y-131749D01*
X-12660Y-131795D01*
X-12549Y-131851D01*
X-12410Y-131906D01*
X-12253Y-131953D01*
X-12068Y-131990D01*
X-11855Y-131999D01*
X-11753D01*
X-11642Y-131980D01*
X-11504Y-131962D01*
X-11356Y-131934D01*
X-11198Y-131888D01*
X-11050Y-131823D01*
X-10921Y-131740D01*
X-10902Y-131731D01*
X-10865Y-131694D01*
X-10819Y-131638D01*
X-10754Y-131564D01*
X-10699Y-131472D01*
X-10643Y-131361D01*
X-10606Y-131250D01*
X-10597Y-131120D01*
Y-131111D01*
Y-131083D01*
X-10606Y-131037D01*
X-10616Y-130981D01*
X-10634Y-130926D01*
X-10653Y-130861D01*
X-10690Y-130796D01*
X-10736Y-130732D01*
X-10745Y-130722D01*
X-10764Y-130704D01*
X-10791Y-130676D01*
X-10838Y-130639D01*
X-10902Y-130593D01*
X-10986Y-130547D01*
X-11078Y-130500D01*
X-11198Y-130454D01*
X-11208D01*
X-11245Y-130436D01*
X-11309Y-130417D01*
X-11356Y-130399D01*
X-11411Y-130389D01*
X-11476Y-130371D01*
X-11550Y-130343D01*
X-11633Y-130325D01*
X-11726Y-130297D01*
X-11837Y-130269D01*
X-11957Y-130241D01*
X-12086Y-130204D01*
X-12234Y-130167D01*
X-12244D01*
X-12281Y-130158D01*
X-12336Y-130140D01*
X-12401Y-130121D01*
X-12484Y-130093D01*
X-12586Y-130066D01*
X-12688Y-130029D01*
X-12808Y-129992D01*
X-13048Y-129899D01*
X-13280Y-129788D01*
X-13400Y-129733D01*
X-13502Y-129668D01*
X-13603Y-129603D01*
X-13687Y-129538D01*
X-13696Y-129529D01*
X-13714Y-129511D01*
X-13742Y-129483D01*
X-13779Y-129446D01*
X-13825Y-129390D01*
X-13872Y-129326D01*
X-13927Y-129261D01*
X-13973Y-129178D01*
X-14084Y-128983D01*
X-14177Y-128761D01*
X-14214Y-128641D01*
X-14242Y-128521D01*
X-14260Y-128382D01*
X-14269Y-128243D01*
Y-128234D01*
Y-128225D01*
Y-128197D01*
Y-128160D01*
X-14251Y-128068D01*
X-14232Y-127947D01*
X-14205Y-127809D01*
X-14158Y-127651D01*
X-14094Y-127485D01*
X-14001Y-127328D01*
Y-127318D01*
X-13992Y-127309D01*
X-13946Y-127254D01*
X-13890Y-127180D01*
X-13798Y-127087D01*
X-13687Y-126985D01*
X-13548Y-126874D01*
X-13391Y-126773D01*
X-13206Y-126680D01*
X-13196D01*
X-13178Y-126671D01*
X-13150Y-126662D01*
X-13113Y-126643D01*
X-13058Y-126625D01*
X-13002Y-126606D01*
X-12928Y-126588D01*
X-12845Y-126560D01*
X-12660Y-126523D01*
X-12447Y-126486D01*
X-12207Y-126458D01*
X-11938Y-126449D01*
X-11827D01*
X-11744Y-126458D01*
D02*
G37*
G36*
X46216Y-129067D02*
X48760Y-132970D01*
X47086D01*
X45319Y-129964D01*
X44274Y-131037D01*
Y-132970D01*
X42979D01*
Y-126569D01*
X44274D01*
Y-129418D01*
X46901Y-126569D01*
X48640D01*
X46216Y-129067D01*
D02*
G37*
G36*
X89368Y-132970D02*
X88174D01*
X88165Y-127938D01*
X86907Y-132970D01*
X85658D01*
X84400Y-127938D01*
Y-132970D01*
X83207D01*
Y-126569D01*
X85140D01*
X86287Y-130944D01*
X87425Y-126569D01*
X89368D01*
Y-132970D01*
D02*
G37*
G36*
X29243Y-132970D02*
X28049D01*
X28040Y-127938D01*
X26782Y-132970D01*
X25533D01*
X24275Y-127938D01*
Y-132970D01*
X23082D01*
Y-126569D01*
X25015D01*
X26162Y-130944D01*
X27300Y-126569D01*
X29243D01*
Y-132970D01*
D02*
G37*
G36*
X75428Y-127651D02*
X73541D01*
Y-132970D01*
X72246D01*
Y-127651D01*
X70350Y-127651D01*
Y-126569D01*
X75428Y-126569D01*
Y-127651D01*
D02*
G37*
G36*
X69961Y-127651D02*
X68074D01*
Y-132970D01*
X66779D01*
Y-127651D01*
X64883D01*
Y-126569D01*
X69961D01*
Y-127651D01*
D02*
G37*
G36*
X54902Y-126578D02*
X55087Y-126588D01*
X55272Y-126597D01*
X55448Y-126615D01*
X55605Y-126634D01*
X55624D01*
X55670Y-126643D01*
X55735Y-126662D01*
X55827Y-126689D01*
X55929Y-126726D01*
X56040Y-126773D01*
X56160Y-126828D01*
X56271Y-126902D01*
X56280Y-126911D01*
X56317Y-126939D01*
X56373Y-126985D01*
X56447Y-127041D01*
X56521Y-127124D01*
X56604Y-127217D01*
X56687Y-127318D01*
X56761Y-127439D01*
X56771Y-127457D01*
X56789Y-127494D01*
X56826Y-127568D01*
X56863Y-127661D01*
X56900Y-127772D01*
X56937Y-127892D01*
X56956Y-128040D01*
X56965Y-128188D01*
Y-128197D01*
Y-128206D01*
Y-128262D01*
X56956Y-128345D01*
X56937Y-128456D01*
X56900Y-128586D01*
X56863Y-128724D01*
X56798Y-128863D01*
X56715Y-129011D01*
X56706Y-129030D01*
X56669Y-129076D01*
X56613Y-129141D01*
X56549Y-129224D01*
X56456Y-129307D01*
X56345Y-129409D01*
X56216Y-129492D01*
X56068Y-129575D01*
X56077D01*
X56095Y-129585D01*
X56123Y-129594D01*
X56160Y-129603D01*
X56271Y-129649D01*
X56401Y-129714D01*
X56539Y-129788D01*
X56697Y-129890D01*
X56835Y-130010D01*
X56965Y-130158D01*
X56974Y-130177D01*
X57011Y-130232D01*
X57067Y-130315D01*
X57122Y-130426D01*
X57178Y-130574D01*
X57233Y-130732D01*
X57270Y-130917D01*
X57279Y-131120D01*
Y-131129D01*
Y-131139D01*
Y-131194D01*
X57270Y-131277D01*
X57252Y-131388D01*
X57233Y-131518D01*
X57196Y-131666D01*
X57141Y-131814D01*
X57076Y-131971D01*
X57067Y-131990D01*
X57039Y-132036D01*
X56993Y-132110D01*
X56928Y-132202D01*
X56854Y-132313D01*
X56752Y-132415D01*
X56650Y-132526D01*
X56521Y-132628D01*
X56502Y-132637D01*
X56456Y-132665D01*
X56382Y-132711D01*
X56280Y-132757D01*
X56151Y-132813D01*
X56003Y-132859D01*
X55836Y-132905D01*
X55651Y-132933D01*
X55614D01*
X55577Y-132942D01*
X55485D01*
X55420Y-132952D01*
X55244D01*
X55133Y-132961D01*
X54856D01*
X54699Y-132970D01*
X51924D01*
Y-126569D01*
X54736D01*
X54902Y-126578D01*
D02*
G37*
G36*
X36319Y-132970D02*
X34922D01*
X34367Y-131518D01*
X31796D01*
X31268Y-132970D01*
X29899D01*
X32378Y-126569D01*
X33747D01*
X36319Y-132970D01*
D02*
G37*
G36*
X19613Y-126578D02*
X19715D01*
X19817Y-126588D01*
X19937D01*
X20178Y-126615D01*
X20427Y-126643D01*
X20659Y-126689D01*
X20760Y-126717D01*
X20853Y-126745D01*
X20862D01*
X20871Y-126754D01*
X20927Y-126782D01*
X21010Y-126828D01*
X21121Y-126884D01*
X21241Y-126976D01*
X21362Y-127078D01*
X21482Y-127207D01*
X21593Y-127365D01*
Y-127374D01*
X21602Y-127383D01*
X21621Y-127411D01*
X21639Y-127439D01*
X21685Y-127531D01*
X21741Y-127651D01*
X21787Y-127799D01*
X21833Y-127966D01*
X21870Y-128160D01*
X21880Y-128364D01*
Y-128373D01*
Y-128391D01*
Y-128438D01*
X21870Y-128484D01*
Y-128549D01*
X21861Y-128613D01*
X21824Y-128780D01*
X21778Y-128974D01*
X21704Y-129168D01*
X21593Y-129372D01*
X21528Y-129464D01*
X21454Y-129557D01*
X21445Y-129566D01*
X21436Y-129575D01*
X21408Y-129603D01*
X21371Y-129631D01*
X21334Y-129668D01*
X21278Y-129714D01*
X21214Y-129760D01*
X21140Y-129807D01*
X21056Y-129862D01*
X20955Y-129908D01*
X20853Y-129955D01*
X20742Y-130001D01*
X20612Y-130047D01*
X20483Y-130084D01*
X20344Y-130121D01*
X20187Y-130149D01*
X20196D01*
X20205Y-130158D01*
X20261Y-130195D01*
X20335Y-130241D01*
X20427Y-130306D01*
X20538Y-130389D01*
X20649Y-130473D01*
X20770Y-130574D01*
X20871Y-130685D01*
X20881Y-130695D01*
X20927Y-130741D01*
X20982Y-130815D01*
X21066Y-130926D01*
X21177Y-131065D01*
X21232Y-131157D01*
X21297Y-131250D01*
X21371Y-131351D01*
X21445Y-131462D01*
X21528Y-131592D01*
X21611Y-131721D01*
X22398Y-132970D01*
X20844D01*
X19919Y-131583D01*
X19909Y-131573D01*
X19900Y-131546D01*
X19872Y-131509D01*
X19835Y-131462D01*
X19798Y-131407D01*
X19752Y-131333D01*
X19650Y-131185D01*
X19530Y-131018D01*
X19419Y-130870D01*
X19317Y-130732D01*
X19271Y-130685D01*
X19234Y-130639D01*
X19225Y-130630D01*
X19206Y-130611D01*
X19169Y-130574D01*
X19123Y-130528D01*
X19058Y-130491D01*
X18994Y-130445D01*
X18920Y-130408D01*
X18846Y-130371D01*
X18836D01*
X18809Y-130362D01*
X18762Y-130343D01*
X18688Y-130334D01*
X18596Y-130315D01*
X18485Y-130306D01*
X18355Y-130297D01*
X17939D01*
Y-132970D01*
X16644D01*
Y-126569D01*
X19530D01*
X19613Y-126578D01*
D02*
G37*
G36*
X15423Y-127651D02*
X11973Y-127651D01*
Y-129067D01*
X15183Y-129067D01*
Y-130149D01*
X11973Y-130149D01*
Y-131888D01*
X15543Y-131888D01*
Y-132970D01*
X10678Y-132970D01*
Y-126569D01*
X15423Y-126569D01*
Y-127651D01*
D02*
G37*
G36*
X6848Y-126578D02*
X7024Y-126588D01*
X7218Y-126597D01*
X7422Y-126625D01*
X7616Y-126652D01*
X7792Y-126699D01*
X7801D01*
X7820Y-126708D01*
X7847Y-126717D01*
X7884Y-126726D01*
X7995Y-126773D01*
X8125Y-126837D01*
X8273Y-126921D01*
X8439Y-127022D01*
X8597Y-127143D01*
X8754Y-127291D01*
X8763D01*
X8772Y-127309D01*
X8819Y-127365D01*
X8893Y-127457D01*
X8976Y-127577D01*
X9078Y-127725D01*
X9179Y-127901D01*
X9281Y-128105D01*
X9364Y-128327D01*
Y-128336D01*
X9374Y-128354D01*
X9383Y-128391D01*
X9401Y-128438D01*
X9411Y-128493D01*
X9429Y-128567D01*
X9448Y-128650D01*
X9475Y-128743D01*
X9494Y-128845D01*
X9512Y-128965D01*
X9531Y-129085D01*
X9540Y-129224D01*
X9568Y-129511D01*
X9577Y-129834D01*
Y-129844D01*
Y-129871D01*
Y-129908D01*
Y-129964D01*
X9568Y-130038D01*
Y-130112D01*
X9559Y-130204D01*
X9549Y-130306D01*
X9531Y-130519D01*
X9494Y-130741D01*
X9438Y-130972D01*
X9374Y-131194D01*
Y-131203D01*
X9364Y-131222D01*
X9346Y-131259D01*
X9327Y-131314D01*
X9309Y-131370D01*
X9272Y-131435D01*
X9198Y-131601D01*
X9105Y-131777D01*
X8985Y-131971D01*
X8846Y-132156D01*
X8689Y-132332D01*
X8671Y-132350D01*
X8624Y-132387D01*
X8550Y-132443D01*
X8449Y-132517D01*
X8319Y-132600D01*
X8171Y-132683D01*
X7986Y-132767D01*
X7783Y-132841D01*
X7773D01*
X7764Y-132850D01*
X7736D01*
X7709Y-132859D01*
X7607Y-132878D01*
X7477Y-132905D01*
X7320Y-132933D01*
X7126Y-132952D01*
X6895Y-132961D01*
X6645Y-132970D01*
X4221D01*
Y-126569D01*
X6774D01*
X6848Y-126578D01*
D02*
G37*
G36*
X77Y-131888D02*
X3296D01*
Y-132970D01*
X-1218D01*
Y-126615D01*
X77D01*
Y-131888D01*
D02*
G37*
G36*
X79230Y-126458D02*
X79322D01*
X79442Y-126477D01*
X79581Y-126495D01*
X79738Y-126523D01*
X79905Y-126560D01*
X80081Y-126606D01*
X80266Y-126662D01*
X80451Y-126736D01*
X80645Y-126819D01*
X80830Y-126921D01*
X81015Y-127041D01*
X81191Y-127180D01*
X81357Y-127337D01*
X81366Y-127346D01*
X81394Y-127374D01*
X81440Y-127429D01*
X81487Y-127494D01*
X81551Y-127587D01*
X81625Y-127698D01*
X81699Y-127827D01*
X81783Y-127975D01*
X81866Y-128132D01*
X81940Y-128317D01*
X82014Y-128521D01*
X82079Y-128734D01*
X82134Y-128974D01*
X82171Y-129224D01*
X82199Y-129492D01*
X82208Y-129779D01*
Y-129797D01*
Y-129844D01*
X82199Y-129927D01*
Y-130038D01*
X82180Y-130167D01*
X82162Y-130315D01*
X82134Y-130491D01*
X82106Y-130667D01*
X82060Y-130861D01*
X82005Y-131065D01*
X81931Y-131268D01*
X81847Y-131472D01*
X81755Y-131666D01*
X81635Y-131860D01*
X81505Y-132045D01*
X81357Y-132221D01*
X81348Y-132230D01*
X81320Y-132258D01*
X81274Y-132304D01*
X81200Y-132360D01*
X81117Y-132424D01*
X81015Y-132498D01*
X80895Y-132572D01*
X80765Y-132656D01*
X80608Y-132739D01*
X80441Y-132813D01*
X80256Y-132887D01*
X80053Y-132952D01*
X79840Y-133007D01*
X79609Y-133053D01*
X79368Y-133081D01*
X79109Y-133090D01*
X79045D01*
X78971Y-133081D01*
X78878Y-133072D01*
X78758Y-133063D01*
X78619Y-133044D01*
X78462Y-133016D01*
X78295Y-132979D01*
X78110Y-132933D01*
X77935Y-132878D01*
X77740Y-132804D01*
X77555Y-132720D01*
X77361Y-132628D01*
X77185Y-132508D01*
X77010Y-132378D01*
X76843Y-132221D01*
X76834Y-132212D01*
X76806Y-132184D01*
X76769Y-132128D01*
X76714Y-132064D01*
X76649Y-131971D01*
X76575Y-131860D01*
X76501Y-131740D01*
X76427Y-131592D01*
X76344Y-131435D01*
X76270Y-131250D01*
X76196Y-131055D01*
X76131Y-130843D01*
X76075Y-130611D01*
X76038Y-130362D01*
X76011Y-130093D01*
X76001Y-129816D01*
Y-129807D01*
Y-129770D01*
Y-129723D01*
X76011Y-129649D01*
Y-129566D01*
X76020Y-129474D01*
X76029Y-129363D01*
X76038Y-129242D01*
X76075Y-128983D01*
X76122Y-128706D01*
X76196Y-128428D01*
X76288Y-128169D01*
Y-128160D01*
X76297Y-128151D01*
X76316Y-128123D01*
X76325Y-128086D01*
X76381Y-127994D01*
X76445Y-127873D01*
X76529Y-127735D01*
X76630Y-127596D01*
X76751Y-127439D01*
X76880Y-127291D01*
X76889Y-127281D01*
X76899Y-127272D01*
X76945Y-127226D01*
X77028Y-127152D01*
X77130Y-127069D01*
X77250Y-126976D01*
X77389Y-126874D01*
X77546Y-126782D01*
X77713Y-126708D01*
X77722D01*
X77740Y-126699D01*
X77777Y-126680D01*
X77824Y-126671D01*
X77879Y-126643D01*
X77944Y-126625D01*
X78027Y-126606D01*
X78110Y-126578D01*
X78314Y-126532D01*
X78545Y-126486D01*
X78813Y-126458D01*
X79091Y-126449D01*
X79156D01*
X79230Y-126458D01*
D02*
G37*
G36*
X61340Y-126458D02*
X61433D01*
X61553Y-126477D01*
X61692Y-126495D01*
X61849Y-126523D01*
X62015Y-126560D01*
X62191Y-126606D01*
X62376Y-126662D01*
X62561Y-126736D01*
X62755Y-126819D01*
X62940Y-126921D01*
X63125Y-127041D01*
X63301Y-127180D01*
X63468Y-127337D01*
X63477Y-127346D01*
X63505Y-127374D01*
X63551Y-127429D01*
X63597Y-127494D01*
X63662Y-127587D01*
X63736Y-127698D01*
X63810Y-127827D01*
X63893Y-127975D01*
X63976Y-128132D01*
X64050Y-128317D01*
X64124Y-128521D01*
X64189Y-128734D01*
X64245Y-128974D01*
X64282Y-129224D01*
X64309Y-129492D01*
X64319Y-129779D01*
Y-129797D01*
Y-129844D01*
X64309Y-129927D01*
Y-130038D01*
X64291Y-130167D01*
X64272Y-130315D01*
X64245Y-130491D01*
X64217Y-130667D01*
X64171Y-130861D01*
X64115Y-131065D01*
X64041Y-131268D01*
X63958Y-131472D01*
X63865Y-131666D01*
X63745Y-131860D01*
X63616Y-132045D01*
X63468Y-132221D01*
X63458Y-132230D01*
X63431Y-132258D01*
X63384Y-132304D01*
X63310Y-132360D01*
X63227Y-132424D01*
X63125Y-132498D01*
X63005Y-132572D01*
X62876Y-132656D01*
X62718Y-132739D01*
X62552Y-132813D01*
X62367Y-132887D01*
X62163Y-132952D01*
X61951Y-133007D01*
X61719Y-133053D01*
X61479Y-133081D01*
X61220Y-133090D01*
X61155D01*
X61081Y-133081D01*
X60989Y-133072D01*
X60868Y-133063D01*
X60730Y-133044D01*
X60572Y-133016D01*
X60406Y-132979D01*
X60221Y-132933D01*
X60045Y-132878D01*
X59851Y-132804D01*
X59666Y-132720D01*
X59472Y-132628D01*
X59296Y-132508D01*
X59120Y-132378D01*
X58954Y-132221D01*
X58944Y-132212D01*
X58917Y-132184D01*
X58880Y-132128D01*
X58824Y-132064D01*
X58759Y-131971D01*
X58685Y-131860D01*
X58611Y-131740D01*
X58537Y-131592D01*
X58454Y-131435D01*
X58380Y-131250D01*
X58306Y-131055D01*
X58241Y-130843D01*
X58186Y-130611D01*
X58149Y-130362D01*
X58121Y-130093D01*
X58112Y-129816D01*
Y-129807D01*
Y-129770D01*
Y-129723D01*
X58121Y-129649D01*
Y-129566D01*
X58130Y-129474D01*
X58140Y-129363D01*
X58149Y-129242D01*
X58186Y-128983D01*
X58232Y-128706D01*
X58306Y-128428D01*
X58399Y-128169D01*
Y-128160D01*
X58408Y-128151D01*
X58426Y-128123D01*
X58436Y-128086D01*
X58491Y-127994D01*
X58556Y-127873D01*
X58639Y-127735D01*
X58741Y-127596D01*
X58861Y-127439D01*
X58991Y-127291D01*
X59000Y-127281D01*
X59009Y-127272D01*
X59055Y-127226D01*
X59139Y-127152D01*
X59240Y-127069D01*
X59361Y-126976D01*
X59499Y-126874D01*
X59657Y-126782D01*
X59823Y-126708D01*
X59832D01*
X59851Y-126699D01*
X59888Y-126680D01*
X59934Y-126671D01*
X59990Y-126643D01*
X60054Y-126625D01*
X60138Y-126606D01*
X60221Y-126578D01*
X60424Y-126532D01*
X60656Y-126486D01*
X60924Y-126458D01*
X61201Y-126449D01*
X61266D01*
X61340Y-126458D01*
D02*
G37*
G36*
X-5241Y-126458D02*
X-5149D01*
X-5029Y-126477D01*
X-4890Y-126495D01*
X-4733Y-126523D01*
X-4566Y-126560D01*
X-4390Y-126606D01*
X-4205Y-126662D01*
X-4020Y-126736D01*
X-3826Y-126819D01*
X-3641Y-126921D01*
X-3456Y-127041D01*
X-3280Y-127180D01*
X-3114Y-127337D01*
X-3105Y-127346D01*
X-3077Y-127374D01*
X-3031Y-127429D01*
X-2984Y-127494D01*
X-2920Y-127587D01*
X-2846Y-127698D01*
X-2772Y-127827D01*
X-2688Y-127975D01*
X-2605Y-128132D01*
X-2531Y-128317D01*
X-2457Y-128521D01*
X-2392Y-128734D01*
X-2337Y-128974D01*
X-2300Y-129224D01*
X-2272Y-129492D01*
X-2263Y-129779D01*
Y-129797D01*
Y-129844D01*
X-2272Y-129927D01*
Y-130038D01*
X-2291Y-130167D01*
X-2309Y-130315D01*
X-2337Y-130491D01*
X-2365Y-130667D01*
X-2411Y-130861D01*
X-2466Y-131065D01*
X-2540Y-131268D01*
X-2624Y-131472D01*
X-2716Y-131666D01*
X-2836Y-131860D01*
X-2966Y-132045D01*
X-3114Y-132221D01*
X-3123Y-132230D01*
X-3151Y-132258D01*
X-3197Y-132304D01*
X-3271Y-132360D01*
X-3354Y-132424D01*
X-3456Y-132498D01*
X-3576Y-132572D01*
X-3706Y-132656D01*
X-3863Y-132739D01*
X-4030Y-132813D01*
X-4215Y-132887D01*
X-4418Y-132952D01*
X-4631Y-133007D01*
X-4862Y-133053D01*
X-5103Y-133081D01*
X-5362Y-133090D01*
X-5426D01*
X-5500Y-133081D01*
X-5593Y-133072D01*
X-5713Y-133063D01*
X-5852Y-133044D01*
X-6009Y-133016D01*
X-6176Y-132979D01*
X-6361Y-132933D01*
X-6536Y-132878D01*
X-6731Y-132804D01*
X-6916Y-132720D01*
X-7110Y-132628D01*
X-7286Y-132508D01*
X-7461Y-132378D01*
X-7628Y-132221D01*
X-7637Y-132212D01*
X-7665Y-132184D01*
X-7702Y-132128D01*
X-7757Y-132064D01*
X-7822Y-131971D01*
X-7896Y-131860D01*
X-7970Y-131740D01*
X-8044Y-131592D01*
X-8127Y-131435D01*
X-8201Y-131250D01*
X-8275Y-131055D01*
X-8340Y-130843D01*
X-8396Y-130611D01*
X-8433Y-130362D01*
X-8460Y-130093D01*
X-8470Y-129816D01*
Y-129807D01*
Y-129770D01*
Y-129723D01*
X-8460Y-129649D01*
Y-129566D01*
X-8451Y-129474D01*
X-8442Y-129363D01*
X-8433Y-129242D01*
X-8396Y-128983D01*
X-8349Y-128706D01*
X-8275Y-128428D01*
X-8183Y-128169D01*
Y-128160D01*
X-8174Y-128151D01*
X-8155Y-128123D01*
X-8146Y-128086D01*
X-8090Y-127994D01*
X-8026Y-127873D01*
X-7942Y-127735D01*
X-7841Y-127596D01*
X-7720Y-127439D01*
X-7591Y-127291D01*
X-7582Y-127281D01*
X-7572Y-127272D01*
X-7526Y-127226D01*
X-7443Y-127152D01*
X-7341Y-127069D01*
X-7221Y-126976D01*
X-7082Y-126874D01*
X-6925Y-126782D01*
X-6758Y-126708D01*
X-6749D01*
X-6731Y-126699D01*
X-6694Y-126680D01*
X-6647Y-126671D01*
X-6592Y-126643D01*
X-6527Y-126625D01*
X-6444Y-126606D01*
X-6361Y-126578D01*
X-6157Y-126532D01*
X-5926Y-126486D01*
X-5658Y-126458D01*
X-5380Y-126449D01*
X-5315D01*
X-5241Y-126458D01*
D02*
G37*
%LPC*%
G36*
X54504Y-127633D02*
X53219D01*
Y-129113D01*
X54458D01*
X54615Y-129104D01*
X54902D01*
X54958Y-129094D01*
X55013D01*
X55050Y-129085D01*
X55106Y-129076D01*
X55189Y-129048D01*
X55272Y-129020D01*
X55355Y-128983D01*
X55439Y-128937D01*
X55513Y-128872D01*
X55522Y-128863D01*
X55540Y-128835D01*
X55577Y-128798D01*
X55614Y-128734D01*
X55642Y-128660D01*
X55679Y-128576D01*
X55698Y-128475D01*
X55707Y-128364D01*
Y-128354D01*
Y-128317D01*
X55698Y-128262D01*
X55688Y-128188D01*
X55670Y-128114D01*
X55633Y-128040D01*
X55596Y-127957D01*
X55540Y-127883D01*
X55531Y-127873D01*
X55513Y-127855D01*
X55466Y-127818D01*
X55420Y-127781D01*
X55346Y-127744D01*
X55263Y-127707D01*
X55161Y-127679D01*
X55050Y-127661D01*
X55041D01*
X55004Y-127651D01*
X54902D01*
X54847Y-127642D01*
X54606D01*
X54504Y-127633D01*
D02*
G37*
G36*
X54560Y-130177D02*
X53219D01*
Y-131888D01*
X54643D01*
X54782Y-131879D01*
X54930D01*
X55078Y-131869D01*
X55198Y-131860D01*
X55254D01*
X55291Y-131851D01*
X55300D01*
X55337Y-131842D01*
X55392Y-131823D01*
X55457Y-131805D01*
X55531Y-131768D01*
X55614Y-131721D01*
X55688Y-131666D01*
X55762Y-131601D01*
X55772Y-131592D01*
X55790Y-131564D01*
X55818Y-131518D01*
X55855Y-131453D01*
X55892Y-131379D01*
X55920Y-131287D01*
X55938Y-131176D01*
X55947Y-131055D01*
Y-131046D01*
Y-131009D01*
X55938Y-130954D01*
X55929Y-130889D01*
X55910Y-130806D01*
X55883Y-130732D01*
X55846Y-130648D01*
X55799Y-130565D01*
X55790Y-130556D01*
X55772Y-130528D01*
X55744Y-130491D01*
X55698Y-130454D01*
X55642Y-130399D01*
X55568Y-130352D01*
X55485Y-130306D01*
X55392Y-130269D01*
X55383D01*
X55337Y-130251D01*
X55263Y-130241D01*
X55217Y-130232D01*
X55152Y-130223D01*
X55087Y-130214D01*
X55004Y-130204D01*
X54911Y-130195D01*
X54800D01*
X54689Y-130186D01*
X54560Y-130177D01*
D02*
G37*
G36*
X33054Y-128058D02*
X32184Y-130436D01*
X33951D01*
X33054Y-128058D01*
D02*
G37*
G36*
X19419Y-127651D02*
X17939D01*
Y-129279D01*
X19197D01*
X19382Y-129270D01*
X19576Y-129261D01*
X19771Y-129252D01*
X19854Y-129242D01*
X19928Y-129233D01*
X20002Y-129215D01*
X20048Y-129205D01*
X20057D01*
X20085Y-129187D01*
X20131Y-129168D01*
X20178Y-129141D01*
X20298Y-129057D01*
X20353Y-129002D01*
X20409Y-128937D01*
X20418Y-128928D01*
X20427Y-128900D01*
X20455Y-128863D01*
X20483Y-128808D01*
X20501Y-128734D01*
X20529Y-128650D01*
X20538Y-128558D01*
X20548Y-128456D01*
Y-128438D01*
Y-128401D01*
X20538Y-128345D01*
X20529Y-128271D01*
X20501Y-128188D01*
X20474Y-128105D01*
X20427Y-128012D01*
X20372Y-127938D01*
X20363Y-127929D01*
X20344Y-127901D01*
X20298Y-127873D01*
X20242Y-127827D01*
X20178Y-127781D01*
X20094Y-127744D01*
X19993Y-127707D01*
X19882Y-127679D01*
X19872D01*
X19845Y-127670D01*
X19789D01*
X19706Y-127661D01*
X19502D01*
X19419Y-127651D01*
D02*
G37*
G36*
X6358Y-127651D02*
X5516D01*
Y-131888D01*
X6654D01*
X6774Y-131879D01*
X6904D01*
X7033Y-131860D01*
X7154Y-131851D01*
X7255Y-131832D01*
X7274D01*
X7311Y-131814D01*
X7366Y-131795D01*
X7440Y-131768D01*
X7524Y-131731D01*
X7607Y-131684D01*
X7690Y-131629D01*
X7773Y-131564D01*
X7783Y-131555D01*
X7810Y-131527D01*
X7847Y-131481D01*
X7894Y-131416D01*
X7940Y-131333D01*
X8005Y-131231D01*
X8051Y-131102D01*
X8106Y-130954D01*
Y-130944D01*
X8116Y-130935D01*
Y-130907D01*
X8125Y-130870D01*
X8143Y-130833D01*
X8153Y-130778D01*
X8180Y-130639D01*
X8199Y-130473D01*
X8227Y-130278D01*
X8236Y-130038D01*
X8245Y-129779D01*
Y-129770D01*
Y-129742D01*
Y-129705D01*
Y-129659D01*
Y-129594D01*
X8236Y-129520D01*
X8227Y-129363D01*
X8208Y-129178D01*
X8190Y-128983D01*
X8153Y-128808D01*
X8106Y-128641D01*
Y-128632D01*
X8097Y-128623D01*
X8079Y-128576D01*
X8051Y-128502D01*
X8014Y-128410D01*
X7958Y-128317D01*
X7894Y-128216D01*
X7820Y-128114D01*
X7736Y-128021D01*
X7727Y-128012D01*
X7699Y-127984D01*
X7644Y-127947D01*
X7579Y-127901D01*
X7487Y-127846D01*
X7385Y-127799D01*
X7274Y-127753D01*
X7144Y-127716D01*
X7135D01*
X7089Y-127707D01*
X7015Y-127698D01*
X6913Y-127679D01*
X6848D01*
X6765Y-127670D01*
X6682D01*
X6589Y-127661D01*
X6478D01*
X6358Y-127651D01*
D02*
G37*
G36*
X79109Y-127550D02*
X79035D01*
X78980Y-127559D01*
X78906Y-127568D01*
X78832Y-127577D01*
X78647Y-127614D01*
X78443Y-127688D01*
X78332Y-127725D01*
X78221Y-127781D01*
X78120Y-127846D01*
X78009Y-127920D01*
X77907Y-128003D01*
X77814Y-128105D01*
X77805Y-128114D01*
X77796Y-128132D01*
X77768Y-128160D01*
X77740Y-128206D01*
X77703Y-128271D01*
X77666Y-128336D01*
X77620Y-128419D01*
X77574Y-128521D01*
X77528Y-128632D01*
X77481Y-128752D01*
X77444Y-128891D01*
X77407Y-129039D01*
X77380Y-129205D01*
X77352Y-129381D01*
X77343Y-129566D01*
X77333Y-129770D01*
Y-129779D01*
Y-129816D01*
Y-129871D01*
X77343Y-129945D01*
X77352Y-130038D01*
X77361Y-130149D01*
X77380Y-130260D01*
X77398Y-130389D01*
X77454Y-130658D01*
X77546Y-130926D01*
X77602Y-131065D01*
X77666Y-131194D01*
X77750Y-131314D01*
X77833Y-131425D01*
X77842Y-131435D01*
X77861Y-131453D01*
X77888Y-131481D01*
X77925Y-131509D01*
X77972Y-131555D01*
X78036Y-131601D01*
X78101Y-131657D01*
X78184Y-131703D01*
X78360Y-131814D01*
X78582Y-131897D01*
X78702Y-131934D01*
X78832Y-131962D01*
X78971Y-131980D01*
X79109Y-131990D01*
X79183D01*
X79239Y-131980D01*
X79304Y-131971D01*
X79378Y-131962D01*
X79553Y-131916D01*
X79757Y-131851D01*
X79859Y-131805D01*
X79970Y-131758D01*
X80071Y-131694D01*
X80182Y-131620D01*
X80284Y-131536D01*
X80377Y-131435D01*
X80386Y-131425D01*
X80395Y-131407D01*
X80423Y-131379D01*
X80451Y-131333D01*
X80497Y-131268D01*
X80534Y-131194D01*
X80580Y-131111D01*
X80626Y-131009D01*
X80673Y-130898D01*
X80719Y-130778D01*
X80765Y-130639D01*
X80802Y-130482D01*
X80830Y-130325D01*
X80858Y-130149D01*
X80867Y-129955D01*
X80876Y-129751D01*
Y-129742D01*
Y-129705D01*
Y-129649D01*
X80867Y-129566D01*
X80858Y-129474D01*
X80848Y-129372D01*
X80839Y-129252D01*
X80811Y-129131D01*
X80756Y-128863D01*
X80673Y-128586D01*
X80617Y-128447D01*
X80552Y-128327D01*
X80469Y-128206D01*
X80386Y-128095D01*
X80377Y-128086D01*
X80367Y-128068D01*
X80340Y-128049D01*
X80303Y-128012D01*
X80247Y-127966D01*
X80192Y-127920D01*
X80127Y-127873D01*
X80044Y-127818D01*
X79960Y-127772D01*
X79859Y-127725D01*
X79646Y-127633D01*
X79526Y-127596D01*
X79396Y-127577D01*
X79257Y-127559D01*
X79109Y-127550D01*
D02*
G37*
G36*
X61220Y-127550D02*
X61146D01*
X61090Y-127559D01*
X61016Y-127568D01*
X60942Y-127577D01*
X60757Y-127614D01*
X60554Y-127688D01*
X60443Y-127725D01*
X60332Y-127781D01*
X60230Y-127846D01*
X60119Y-127920D01*
X60017Y-128003D01*
X59925Y-128105D01*
X59916Y-128114D01*
X59906Y-128132D01*
X59879Y-128160D01*
X59851Y-128206D01*
X59814Y-128271D01*
X59777Y-128336D01*
X59731Y-128419D01*
X59684Y-128521D01*
X59638Y-128632D01*
X59592Y-128752D01*
X59555Y-128891D01*
X59518Y-129039D01*
X59490Y-129205D01*
X59462Y-129381D01*
X59453Y-129566D01*
X59444Y-129770D01*
Y-129779D01*
Y-129816D01*
Y-129871D01*
X59453Y-129945D01*
X59462Y-130038D01*
X59472Y-130149D01*
X59490Y-130260D01*
X59509Y-130389D01*
X59564Y-130658D01*
X59657Y-130926D01*
X59712Y-131065D01*
X59777Y-131194D01*
X59860Y-131314D01*
X59943Y-131425D01*
X59953Y-131435D01*
X59971Y-131453D01*
X59999Y-131481D01*
X60036Y-131509D01*
X60082Y-131555D01*
X60147Y-131601D01*
X60212Y-131657D01*
X60295Y-131703D01*
X60471Y-131814D01*
X60693Y-131897D01*
X60813Y-131934D01*
X60942Y-131962D01*
X61081Y-131980D01*
X61220Y-131990D01*
X61294D01*
X61349Y-131980D01*
X61414Y-131971D01*
X61488Y-131962D01*
X61664Y-131916D01*
X61867Y-131851D01*
X61969Y-131805D01*
X62080Y-131758D01*
X62182Y-131694D01*
X62293Y-131620D01*
X62395Y-131536D01*
X62487Y-131435D01*
X62496Y-131425D01*
X62506Y-131407D01*
X62533Y-131379D01*
X62561Y-131333D01*
X62607Y-131268D01*
X62644Y-131194D01*
X62691Y-131111D01*
X62737Y-131009D01*
X62783Y-130898D01*
X62829Y-130778D01*
X62876Y-130639D01*
X62913Y-130482D01*
X62940Y-130325D01*
X62968Y-130149D01*
X62977Y-129955D01*
X62987Y-129751D01*
Y-129742D01*
Y-129705D01*
Y-129649D01*
X62977Y-129566D01*
X62968Y-129474D01*
X62959Y-129372D01*
X62950Y-129252D01*
X62922Y-129131D01*
X62866Y-128863D01*
X62783Y-128586D01*
X62728Y-128447D01*
X62663Y-128327D01*
X62580Y-128206D01*
X62496Y-128095D01*
X62487Y-128086D01*
X62478Y-128068D01*
X62450Y-128049D01*
X62413Y-128012D01*
X62358Y-127966D01*
X62302Y-127920D01*
X62237Y-127873D01*
X62154Y-127818D01*
X62071Y-127772D01*
X61969Y-127725D01*
X61756Y-127633D01*
X61636Y-127596D01*
X61507Y-127577D01*
X61368Y-127559D01*
X61220Y-127550D01*
D02*
G37*
G36*
X-5362Y-127550D02*
X-5436D01*
X-5491Y-127559D01*
X-5565Y-127568D01*
X-5639Y-127577D01*
X-5824Y-127614D01*
X-6028Y-127688D01*
X-6139Y-127725D01*
X-6250Y-127781D01*
X-6351Y-127846D01*
X-6462Y-127920D01*
X-6564Y-128003D01*
X-6657Y-128105D01*
X-6666Y-128114D01*
X-6675Y-128132D01*
X-6703Y-128160D01*
X-6731Y-128206D01*
X-6768Y-128271D01*
X-6805Y-128336D01*
X-6851Y-128419D01*
X-6897Y-128521D01*
X-6943Y-128632D01*
X-6990Y-128752D01*
X-7027Y-128891D01*
X-7064Y-129039D01*
X-7091Y-129205D01*
X-7119Y-129381D01*
X-7128Y-129566D01*
X-7138Y-129770D01*
Y-129779D01*
Y-129816D01*
Y-129871D01*
X-7128Y-129945D01*
X-7119Y-130038D01*
X-7110Y-130149D01*
X-7091Y-130260D01*
X-7073Y-130389D01*
X-7017Y-130658D01*
X-6925Y-130926D01*
X-6869Y-131065D01*
X-6805Y-131194D01*
X-6721Y-131314D01*
X-6638Y-131425D01*
X-6629Y-131435D01*
X-6610Y-131453D01*
X-6583Y-131481D01*
X-6546Y-131509D01*
X-6499Y-131555D01*
X-6435Y-131601D01*
X-6370Y-131657D01*
X-6287Y-131703D01*
X-6111Y-131814D01*
X-5889Y-131897D01*
X-5769Y-131934D01*
X-5639Y-131962D01*
X-5500Y-131980D01*
X-5362Y-131990D01*
X-5288D01*
X-5232Y-131980D01*
X-5167Y-131971D01*
X-5093Y-131962D01*
X-4918Y-131916D01*
X-4714Y-131851D01*
X-4612Y-131805D01*
X-4501Y-131758D01*
X-4400Y-131694D01*
X-4289Y-131620D01*
X-4187Y-131536D01*
X-4094Y-131435D01*
X-4085Y-131425D01*
X-4076Y-131407D01*
X-4048Y-131379D01*
X-4020Y-131333D01*
X-3974Y-131268D01*
X-3937Y-131194D01*
X-3891Y-131111D01*
X-3845Y-131009D01*
X-3798Y-130898D01*
X-3752Y-130778D01*
X-3706Y-130639D01*
X-3669Y-130482D01*
X-3641Y-130325D01*
X-3613Y-130149D01*
X-3604Y-129955D01*
X-3595Y-129751D01*
Y-129742D01*
Y-129705D01*
Y-129649D01*
X-3604Y-129566D01*
X-3613Y-129474D01*
X-3623Y-129372D01*
X-3632Y-129252D01*
X-3660Y-129131D01*
X-3715Y-128863D01*
X-3798Y-128586D01*
X-3854Y-128447D01*
X-3919Y-128327D01*
X-4002Y-128206D01*
X-4085Y-128095D01*
X-4094Y-128086D01*
X-4104Y-128068D01*
X-4131Y-128049D01*
X-4168Y-128012D01*
X-4224Y-127966D01*
X-4279Y-127920D01*
X-4344Y-127873D01*
X-4427Y-127818D01*
X-4511Y-127772D01*
X-4612Y-127725D01*
X-4825Y-127633D01*
X-4945Y-127596D01*
X-5075Y-127577D01*
X-5214Y-127559D01*
X-5362Y-127550D01*
D02*
G37*
%LPD*%
D32*
X76053Y-40189D02*
D03*
X76053Y-38811D02*
D03*
X74675Y-40189D02*
D03*
X74675Y-38811D02*
D03*
D49*
X51999Y-39272D02*
D03*
Y-35728D02*
D03*
D57*
X-40000Y3693D02*
D03*
Y307D02*
D03*
D63*
X-42800Y-38900D02*
D03*
X108000Y-15500D02*
D03*
X-39500Y83500D02*
D03*
D66*
X12693Y31000D02*
D03*
X9307D02*
D03*
X12693Y27000D02*
D03*
X9307D02*
D03*
X74307Y-35000D02*
D03*
X77693D02*
D03*
X74307Y-44000D02*
D03*
X77693D02*
D03*
D80*
X-41500Y56532D02*
D03*
D81*
X-31500D02*
D03*
X-21500D02*
D03*
D83*
X-31151Y43543D02*
D03*
D84*
X-43159Y46378D02*
D03*
Y12362D02*
D03*
D85*
X-30895Y15197D02*
D03*
D86*
X-41500Y70500D02*
D03*
D87*
X-31500D02*
D03*
D88*
X0Y0D02*
D03*
D89*
X5846Y-5846D02*
D03*
X-5846D02*
D03*
X0Y-8268D02*
D03*
X-5846Y5846D02*
D03*
X-8268Y0D02*
D03*
X0Y8268D02*
D03*
X5846Y5846D02*
D03*
X8268Y0D02*
D03*
D119*
X36300Y60700D02*
D03*
Y57400D02*
D03*
X16500Y84000D02*
D03*
X54500Y85500D02*
D03*
X37500Y43000D02*
D03*
X40500D02*
D03*
X43600Y62400D02*
D03*
Y59100D02*
D03*
X42000Y49000D02*
D03*
X45500D02*
D03*
X11000Y21000D02*
D03*
X75000Y52000D02*
D03*
Y47500D02*
D03*
X63000Y-25000D02*
D03*
X64000Y-40000D02*
D03*
X15000Y66752D02*
D03*
X23000D02*
D03*
X27000D02*
D03*
X11000D02*
D03*
D120*
X9728Y34999D02*
D03*
X13272D02*
D03*
X113335Y52000D02*
D03*
X109792D02*
D03*
X109697Y45500D02*
D03*
X113240D02*
D03*
X109729Y39000D02*
D03*
X113272D02*
D03*
X113241Y32516D02*
D03*
X109698D02*
D03*
D121*
X33000Y-16500D02*
D03*
X61000Y59000D02*
D03*
X66500D02*
D03*
D122*
X-36500Y-11500D02*
D03*
D123*
X24311Y79135D02*
D03*
Y89568D02*
D03*
X25885Y79135D02*
D03*
Y89568D02*
D03*
X27460Y79135D02*
D03*
Y89568D02*
D03*
X29035Y79135D02*
D03*
Y89568D02*
D03*
X30610Y79135D02*
D03*
Y89568D02*
D03*
X32185Y79135D02*
D03*
Y89568D02*
D03*
X33759Y79135D02*
D03*
Y89568D02*
D03*
X35334Y79135D02*
D03*
Y89568D02*
D03*
X36909Y79135D02*
D03*
Y89568D02*
D03*
X38484Y79135D02*
D03*
Y89568D02*
D03*
X40059Y79135D02*
D03*
Y89568D02*
D03*
X41633Y79135D02*
D03*
Y89568D02*
D03*
X43208Y79135D02*
D03*
Y89568D02*
D03*
X44783Y79135D02*
D03*
Y89568D02*
D03*
X46358Y79135D02*
D03*
Y89568D02*
D03*
D124*
X99394Y40500D02*
D03*
X93606Y43059D02*
D03*
Y37941D02*
D03*
X93606Y26441D02*
D03*
Y31559D02*
D03*
X99394Y29000D02*
D03*
D125*
X-14111Y81202D02*
D03*
Y-36900D02*
D03*
X104000Y81202D02*
D03*
Y-36900D02*
D03*
M02*
