G04*
G04 #@! TF.GenerationSoftware,Altium Limited,Altium Designer,22.5.1 (42)*
G04*
G04 Layer_Color=255*
%FSLAX25Y25*%
%MOIN*%
G70*
G04*
G04 #@! TF.SameCoordinates,7D5A9487-70C0-458F-A832-C6248EDC6538*
G04*
G04*
G04 #@! TF.FilePolarity,Positive*
G04*
G01*
G75*
G04:AMPARAMS|DCode=18|XSize=19.68mil|YSize=23.62mil|CornerRadius=5.12mil|HoleSize=0mil|Usage=FLASHONLY|Rotation=90.000|XOffset=0mil|YOffset=0mil|HoleType=Round|Shape=RoundedRectangle|*
%AMROUNDEDRECTD18*
21,1,0.01968,0.01339,0,0,90.0*
21,1,0.00945,0.02362,0,0,90.0*
1,1,0.01024,0.00669,0.00472*
1,1,0.01024,0.00669,-0.00472*
1,1,0.01024,-0.00669,-0.00472*
1,1,0.01024,-0.00669,0.00472*
%
%ADD18ROUNDEDRECTD18*%
%ADD19R,0.02953X0.03150*%
%ADD20R,0.02900X0.11000*%
%ADD21R,0.11000X0.02900*%
%ADD22R,0.04724X0.07165*%
%ADD23R,0.01181X0.01870*%
%ADD24R,0.03700X0.02600*%
%ADD25R,0.02600X0.03700*%
G04:AMPARAMS|DCode=26|XSize=21.26mil|YSize=23.62mil|CornerRadius=5.53mil|HoleSize=0mil|Usage=FLASHONLY|Rotation=270.000|XOffset=0mil|YOffset=0mil|HoleType=Round|Shape=RoundedRectangle|*
%AMROUNDEDRECTD26*
21,1,0.02126,0.01257,0,0,270.0*
21,1,0.01021,0.02362,0,0,270.0*
1,1,0.01106,-0.00628,-0.00510*
1,1,0.01106,-0.00628,0.00510*
1,1,0.01106,0.00628,0.00510*
1,1,0.01106,0.00628,-0.00510*
%
%ADD26ROUNDEDRECTD26*%
G04:AMPARAMS|DCode=27|XSize=25.59mil|YSize=15.75mil|CornerRadius=3.94mil|HoleSize=0mil|Usage=FLASHONLY|Rotation=270.000|XOffset=0mil|YOffset=0mil|HoleType=Round|Shape=RoundedRectangle|*
%AMROUNDEDRECTD27*
21,1,0.02559,0.00787,0,0,270.0*
21,1,0.01772,0.01575,0,0,270.0*
1,1,0.00787,-0.00394,-0.00886*
1,1,0.00787,-0.00394,0.00886*
1,1,0.00787,0.00394,0.00886*
1,1,0.00787,0.00394,-0.00886*
%
%ADD27ROUNDEDRECTD27*%
G04:AMPARAMS|DCode=28|XSize=25.59mil|YSize=11.81mil|CornerRadius=2.95mil|HoleSize=0mil|Usage=FLASHONLY|Rotation=270.000|XOffset=0mil|YOffset=0mil|HoleType=Round|Shape=RoundedRectangle|*
%AMROUNDEDRECTD28*
21,1,0.02559,0.00591,0,0,270.0*
21,1,0.01968,0.01181,0,0,270.0*
1,1,0.00591,-0.00295,-0.00984*
1,1,0.00591,-0.00295,0.00984*
1,1,0.00591,0.00295,0.00984*
1,1,0.00591,0.00295,-0.00984*
%
%ADD28ROUNDEDRECTD28*%
G04:AMPARAMS|DCode=29|XSize=57.87mil|YSize=18.9mil|CornerRadius=2.36mil|HoleSize=0mil|Usage=FLASHONLY|Rotation=0.000|XOffset=0mil|YOffset=0mil|HoleType=Round|Shape=RoundedRectangle|*
%AMROUNDEDRECTD29*
21,1,0.05787,0.01417,0,0,0.0*
21,1,0.05315,0.01890,0,0,0.0*
1,1,0.00472,0.02657,-0.00709*
1,1,0.00472,-0.02657,-0.00709*
1,1,0.00472,-0.02657,0.00709*
1,1,0.00472,0.02657,0.00709*
%
%ADD29ROUNDEDRECTD29*%
%ADD30R,0.01181X0.03937*%
%ADD31R,0.06496X0.05118*%
%ADD32C,0.00800*%
%ADD33R,0.02362X0.01181*%
%ADD34R,0.04528X0.05118*%
G04:AMPARAMS|DCode=35|XSize=21.26mil|YSize=23.62mil|CornerRadius=5.53mil|HoleSize=0mil|Usage=FLASHONLY|Rotation=0.000|XOffset=0mil|YOffset=0mil|HoleType=Round|Shape=RoundedRectangle|*
%AMROUNDEDRECTD35*
21,1,0.02126,0.01257,0,0,0.0*
21,1,0.01021,0.02362,0,0,0.0*
1,1,0.01106,0.00510,-0.00628*
1,1,0.01106,-0.00510,-0.00628*
1,1,0.01106,-0.00510,0.00628*
1,1,0.01106,0.00510,0.00628*
%
%ADD35ROUNDEDRECTD35*%
%ADD36R,0.03543X0.01063*%
%ADD37R,0.03150X0.01063*%
G04:AMPARAMS|DCode=38|XSize=22.24mil|YSize=7.87mil|CornerRadius=1.97mil|HoleSize=0mil|Usage=FLASHONLY|Rotation=270.000|XOffset=0mil|YOffset=0mil|HoleType=Round|Shape=RoundedRectangle|*
%AMROUNDEDRECTD38*
21,1,0.02224,0.00394,0,0,270.0*
21,1,0.01831,0.00787,0,0,270.0*
1,1,0.00394,-0.00197,-0.00915*
1,1,0.00394,-0.00197,0.00915*
1,1,0.00394,0.00197,0.00915*
1,1,0.00394,0.00197,-0.00915*
%
%ADD38ROUNDEDRECTD38*%
G04:AMPARAMS|DCode=39|XSize=22.24mil|YSize=7.87mil|CornerRadius=0.98mil|HoleSize=0mil|Usage=FLASHONLY|Rotation=270.000|XOffset=0mil|YOffset=0mil|HoleType=Round|Shape=RoundedRectangle|*
%AMROUNDEDRECTD39*
21,1,0.02224,0.00591,0,0,270.0*
21,1,0.02028,0.00787,0,0,270.0*
1,1,0.00197,-0.00295,-0.01014*
1,1,0.00197,-0.00295,0.01014*
1,1,0.00197,0.00295,0.01014*
1,1,0.00197,0.00295,-0.01014*
%
%ADD39ROUNDEDRECTD39*%
G04:AMPARAMS|DCode=40|XSize=22.24mil|YSize=7.87mil|CornerRadius=1.97mil|HoleSize=0mil|Usage=FLASHONLY|Rotation=180.000|XOffset=0mil|YOffset=0mil|HoleType=Round|Shape=RoundedRectangle|*
%AMROUNDEDRECTD40*
21,1,0.02224,0.00394,0,0,180.0*
21,1,0.01831,0.00787,0,0,180.0*
1,1,0.00394,-0.00915,0.00197*
1,1,0.00394,0.00915,0.00197*
1,1,0.00394,0.00915,-0.00197*
1,1,0.00394,-0.00915,-0.00197*
%
%ADD40ROUNDEDRECTD40*%
G04:AMPARAMS|DCode=41|XSize=22.24mil|YSize=7.87mil|CornerRadius=0.98mil|HoleSize=0mil|Usage=FLASHONLY|Rotation=180.000|XOffset=0mil|YOffset=0mil|HoleType=Round|Shape=RoundedRectangle|*
%AMROUNDEDRECTD41*
21,1,0.02224,0.00591,0,0,180.0*
21,1,0.02028,0.00787,0,0,180.0*
1,1,0.00197,-0.01014,0.00295*
1,1,0.00197,0.01014,0.00295*
1,1,0.00197,0.01014,-0.00295*
1,1,0.00197,-0.01014,-0.00295*
%
%ADD41ROUNDEDRECTD41*%
%ADD42R,0.01654X0.00866*%
%ADD43R,0.05512X0.03740*%
%ADD44R,0.02953X0.04528*%
%ADD45R,0.00787X0.02756*%
%ADD46C,0.01000*%
G04:AMPARAMS|DCode=47|XSize=25.98mil|YSize=8.66mil|CornerRadius=1.08mil|HoleSize=0mil|Usage=FLASHONLY|Rotation=180.000|XOffset=0mil|YOffset=0mil|HoleType=Round|Shape=RoundedRectangle|*
%AMROUNDEDRECTD47*
21,1,0.02598,0.00650,0,0,180.0*
21,1,0.02382,0.00866,0,0,180.0*
1,1,0.00217,-0.01191,0.00325*
1,1,0.00217,0.01191,0.00325*
1,1,0.00217,0.01191,-0.00325*
1,1,0.00217,-0.01191,-0.00325*
%
%ADD47ROUNDEDRECTD47*%
G04:AMPARAMS|DCode=48|XSize=8.66mil|YSize=25.98mil|CornerRadius=1.08mil|HoleSize=0mil|Usage=FLASHONLY|Rotation=180.000|XOffset=0mil|YOffset=0mil|HoleType=Round|Shape=RoundedRectangle|*
%AMROUNDEDRECTD48*
21,1,0.00866,0.02382,0,0,180.0*
21,1,0.00650,0.02598,0,0,180.0*
1,1,0.00217,-0.00325,0.01191*
1,1,0.00217,0.00325,0.01191*
1,1,0.00217,0.00325,-0.01191*
1,1,0.00217,-0.00325,-0.01191*
%
%ADD48ROUNDEDRECTD48*%
%ADD90C,0.03937*%
%ADD91R,0.03543X0.10630*%
%ADD100R,0.05906X0.05906*%
%ADD101C,0.05906*%
%ADD102C,0.23622*%
%ADD103O,0.09055X0.04724*%
%ADD104O,0.04724X0.06496*%
%ADD105C,0.02480*%
%ADD106O,0.10236X0.05118*%
%ADD107O,0.01968X0.03347*%
%ADD108R,0.05937X0.05937*%
%ADD109C,0.05937*%
%ADD110C,0.21260*%
D18*
X49000Y-13228D02*
D03*
Y-16771D02*
D03*
X55000Y-4772D02*
D03*
Y-1229D02*
D03*
X51000Y-1228D02*
D03*
Y-4771D02*
D03*
X16500Y14228D02*
D03*
Y17772D02*
D03*
X6151Y17703D02*
D03*
Y14160D02*
D03*
X3001Y41729D02*
D03*
Y45272D02*
D03*
D19*
X114273Y52001D02*
D03*
X108958D02*
D03*
X114179Y32517D02*
D03*
X108864D02*
D03*
X108895Y39001D02*
D03*
X114210D02*
D03*
X108864Y45501D02*
D03*
X114179Y45501D02*
D03*
D20*
X68000Y69000D02*
D03*
Y85000D02*
D03*
X73000Y69000D02*
D03*
Y85000D02*
D03*
X78000Y69000D02*
D03*
Y85000D02*
D03*
X83000Y69000D02*
D03*
Y85000D02*
D03*
X88000Y69000D02*
D03*
Y85000D02*
D03*
D21*
X-37000Y0D02*
D03*
X-21000D02*
D03*
X-37000Y-5000D02*
D03*
X-21000D02*
D03*
X-37000Y-10000D02*
D03*
X-21000D02*
D03*
X-37000Y-15000D02*
D03*
X-21000D02*
D03*
X-37000Y-20000D02*
D03*
X-21000D02*
D03*
D22*
X40886Y-16000D02*
D03*
X34114D02*
D03*
D23*
X46468Y-9799D02*
D03*
X44500D02*
D03*
X42531D02*
D03*
Y-3201D02*
D03*
X44500D02*
D03*
X46468D02*
D03*
D24*
X35500Y-9800D02*
D03*
Y-4200D02*
D03*
D25*
X40200Y1500D02*
D03*
X45800D02*
D03*
D26*
X58500Y66807D02*
D03*
Y70193D02*
D03*
X-3000Y68693D02*
D03*
Y65307D02*
D03*
X5000Y68693D02*
D03*
Y65307D02*
D03*
X-9700Y59693D02*
D03*
Y56307D02*
D03*
X9000Y57307D02*
D03*
Y60693D02*
D03*
X-6175Y35307D02*
D03*
Y38693D02*
D03*
X-9729Y35307D02*
D03*
Y38693D02*
D03*
D27*
X61149Y9834D02*
D03*
Y14165D02*
D03*
X54850D02*
D03*
Y9834D02*
D03*
D28*
X58984D02*
D03*
X57015Y14165D02*
D03*
X58984D02*
D03*
X57015Y9834D02*
D03*
D29*
X42465Y15839D02*
D03*
Y13280D02*
D03*
Y10721D02*
D03*
Y8161D02*
D03*
X25535D02*
D03*
Y10721D02*
D03*
Y13280D02*
D03*
Y15839D02*
D03*
D30*
X10161Y73000D02*
D03*
X12130D02*
D03*
X14098D02*
D03*
X16067D02*
D03*
X18035D02*
D03*
X20004D02*
D03*
X21972D02*
D03*
X23941D02*
D03*
X25909D02*
D03*
X27878D02*
D03*
X29847D02*
D03*
X31815D02*
D03*
X33784D02*
D03*
X35752D02*
D03*
X37721D02*
D03*
X39689D02*
D03*
X41658D02*
D03*
X43626D02*
D03*
X45594D02*
D03*
X47563D02*
D03*
X49531D02*
D03*
X51500D02*
D03*
D31*
X1205Y80480D02*
D03*
X60457D02*
D03*
D32*
X311Y68189D02*
D03*
X1689D02*
D03*
X311Y66811D02*
D03*
X1689D02*
D03*
D33*
X4134Y57032D02*
D03*
Y60969D02*
D03*
X-4134D02*
D03*
Y59000D02*
D03*
Y57032D02*
D03*
X4134Y59000D02*
D03*
D34*
X0D02*
D03*
D35*
X50693Y20000D02*
D03*
X47307D02*
D03*
X-3451Y18734D02*
D03*
X-6837D02*
D03*
X-3451Y22288D02*
D03*
X-6837D02*
D03*
D36*
X-20521Y31831D02*
D03*
Y33799D02*
D03*
Y27894D02*
D03*
Y25925D02*
D03*
Y29862D02*
D03*
Y39705D02*
D03*
Y37736D02*
D03*
Y35768D02*
D03*
Y21988D02*
D03*
Y23957D02*
D03*
Y20020D02*
D03*
Y18051D02*
D03*
D37*
X-26820Y30846D02*
D03*
Y22972D02*
D03*
Y24941D02*
D03*
Y19035D02*
D03*
Y21004D02*
D03*
Y34783D02*
D03*
Y28878D02*
D03*
Y26909D02*
D03*
Y32815D02*
D03*
Y38720D02*
D03*
Y36752D02*
D03*
Y40689D02*
D03*
D38*
X-1063Y46144D02*
D03*
X-3032D02*
D03*
X-6968D02*
D03*
X-8937D02*
D03*
Y42856D02*
D03*
X-6968D02*
D03*
X-3032D02*
D03*
X-1063D02*
D03*
D39*
X-5000Y46144D02*
D03*
Y42856D02*
D03*
D40*
X-13919Y13621D02*
D03*
Y15589D02*
D03*
Y19526D02*
D03*
Y21495D02*
D03*
X-10631D02*
D03*
Y19526D02*
D03*
Y15589D02*
D03*
Y13621D02*
D03*
D41*
X-13919Y17558D02*
D03*
X-10631D02*
D03*
D42*
X-11554Y29240D02*
D03*
Y27665D02*
D03*
Y26091D02*
D03*
X-8995Y29240D02*
D03*
Y27665D02*
D03*
Y26091D02*
D03*
D43*
X111500Y-21669D02*
D03*
Y-5331D02*
D03*
Y22669D02*
D03*
Y6331D02*
D03*
D44*
X117504Y-19701D02*
D03*
Y-7299D02*
D03*
X105496D02*
D03*
Y-19701D02*
D03*
X117504Y8299D02*
D03*
Y20701D02*
D03*
X105496D02*
D03*
Y8299D02*
D03*
D45*
X68110Y33307D02*
D03*
Y45433D02*
D03*
X66535Y33307D02*
D03*
Y45433D02*
D03*
X64961Y33307D02*
D03*
Y45433D02*
D03*
X63386Y33307D02*
D03*
Y45433D02*
D03*
X61811Y33307D02*
D03*
Y45433D02*
D03*
X60236Y33307D02*
D03*
Y45433D02*
D03*
X58661Y33307D02*
D03*
Y45433D02*
D03*
X57087Y33307D02*
D03*
Y45433D02*
D03*
X55512Y33307D02*
D03*
Y45433D02*
D03*
X53937Y33307D02*
D03*
Y45433D02*
D03*
X52362Y33307D02*
D03*
Y45433D02*
D03*
X50787Y33307D02*
D03*
Y45433D02*
D03*
X49213Y33307D02*
D03*
Y45433D02*
D03*
X47638Y33307D02*
D03*
Y45433D02*
D03*
X46063Y33307D02*
D03*
Y45433D02*
D03*
X44488Y33307D02*
D03*
Y45433D02*
D03*
X42913Y33307D02*
D03*
Y45433D02*
D03*
X41339Y33307D02*
D03*
Y45433D02*
D03*
X39764Y33307D02*
D03*
Y45433D02*
D03*
X38189Y33307D02*
D03*
Y45433D02*
D03*
X36614Y33307D02*
D03*
Y45433D02*
D03*
X35039Y33307D02*
D03*
Y45433D02*
D03*
X33465Y33307D02*
D03*
Y45433D02*
D03*
X31890Y33307D02*
D03*
Y45433D02*
D03*
X30315Y33307D02*
D03*
Y45433D02*
D03*
X28740Y33307D02*
D03*
Y45433D02*
D03*
X27165Y33307D02*
D03*
Y45433D02*
D03*
X25591Y33307D02*
D03*
Y45433D02*
D03*
X24016Y33307D02*
D03*
Y45433D02*
D03*
X22441Y33307D02*
D03*
Y45433D02*
D03*
X50787Y-33307D02*
D03*
X49213D02*
D03*
X47638D02*
D03*
X46063D02*
D03*
X44488D02*
D03*
X68110Y-45433D02*
D03*
Y-33307D02*
D03*
X66535Y-45433D02*
D03*
Y-33307D02*
D03*
X64961Y-45433D02*
D03*
Y-33307D02*
D03*
X63386Y-45433D02*
D03*
Y-33307D02*
D03*
X61811Y-45433D02*
D03*
Y-33307D02*
D03*
X60236Y-45433D02*
D03*
Y-33307D02*
D03*
X58661Y-45433D02*
D03*
Y-33307D02*
D03*
X57087Y-45433D02*
D03*
Y-33307D02*
D03*
X55512Y-45433D02*
D03*
Y-33307D02*
D03*
X53937Y-45433D02*
D03*
Y-33307D02*
D03*
X52362Y-45433D02*
D03*
Y-33307D02*
D03*
X50787Y-45433D02*
D03*
X49213D02*
D03*
X47638D02*
D03*
X46063D02*
D03*
X44488D02*
D03*
X42913D02*
D03*
Y-33307D02*
D03*
X41339Y-45433D02*
D03*
Y-33307D02*
D03*
X39764Y-45433D02*
D03*
Y-33307D02*
D03*
X38189Y-45433D02*
D03*
Y-33307D02*
D03*
X36614Y-45433D02*
D03*
Y-33307D02*
D03*
X35039Y-45433D02*
D03*
Y-33307D02*
D03*
X33465Y-45433D02*
D03*
Y-33307D02*
D03*
X31890Y-45433D02*
D03*
Y-33307D02*
D03*
X30315Y-45433D02*
D03*
Y-33307D02*
D03*
X28740Y-45433D02*
D03*
Y-33307D02*
D03*
X27165Y-45433D02*
D03*
Y-33307D02*
D03*
X25591Y-45433D02*
D03*
Y-33307D02*
D03*
X24016Y-45433D02*
D03*
Y-33307D02*
D03*
X22441Y-45433D02*
D03*
Y-33307D02*
D03*
D46*
X-14713Y65788D02*
D03*
Y64213D02*
D03*
X-16288Y65788D02*
D03*
Y64213D02*
D03*
D47*
X2923Y25945D02*
D03*
Y22795D02*
D03*
Y24370D02*
D03*
Y27520D02*
D03*
Y32244D02*
D03*
Y29095D02*
D03*
Y30669D02*
D03*
Y36969D02*
D03*
Y33819D02*
D03*
Y35394D02*
D03*
X10954Y22795D02*
D03*
Y24370D02*
D03*
Y25945D02*
D03*
Y30669D02*
D03*
Y27520D02*
D03*
Y29095D02*
D03*
Y35394D02*
D03*
Y36969D02*
D03*
Y32244D02*
D03*
Y33819D02*
D03*
D48*
X6151Y21929D02*
D03*
X7726D02*
D03*
Y37835D02*
D03*
X6151D02*
D03*
D90*
X84000Y-40500D02*
D03*
X-41000Y-39500D02*
D03*
X-39500Y83500D02*
D03*
D91*
X6938Y29882D02*
D03*
D100*
X-41500Y56532D02*
D03*
D101*
X-31500D02*
D03*
X-21500D02*
D03*
D102*
X-14111Y81202D02*
D03*
Y-36900D02*
D03*
X104000Y81202D02*
D03*
Y-36900D02*
D03*
D103*
X-23277Y46378D02*
D03*
Y12362D02*
D03*
D104*
X-25836Y45098D02*
D03*
Y13642D02*
D03*
D105*
X-31151Y43543D02*
D03*
D106*
X-43159Y46378D02*
D03*
Y12362D02*
D03*
D107*
X-30895Y15197D02*
D03*
D108*
X-41500Y70500D02*
D03*
D109*
X-31500D02*
D03*
D110*
X0Y0D02*
D03*
M02*
