M48
;Layer_Color=9474304
;FILE_FORMAT=2:5
INCH,LZ
;TYPE=PLATED
T1F00S00C0.00800
T2F00S00C0.01000
T3F00S00C0.01500
T6F00S00C0.03543
T7F00S00C0.03937
T8F00S00C0.11811
T9F00S00C0.14567
%
T01
X-00392Y0019205
X-0037224Y0017999
Y0020499
X-0037261Y0029297
X-0039761
X-0041061Y0030997
X-0035361Y0030197
X-0034793Y0039505
Y0042005
X-0036769Y0040711
X-0013467Y0035445
X-001285Y003125
X-0015014Y0029978
X-0014214Y0027878
Y0025278
X-0011514Y0024079
X-0006935Y0025578
Y0028179
X-0005035Y0026878
X-0003035Y0025578
Y0028179
X-0006126Y0015905
Y0013305
X-001Y001171
X-00175Y001121
X-0016423Y0013305
Y0015905
X-00169Y0018
X-00175Y00238
X-0011404Y0047297
X-0009252Y0048649
X-0006652
X-00047Y005
X0016627Y00494
Y0052
X00156Y0054127
Y0047527
X00205Y00475
X0027165Y00481
X003235Y004265
X0035001Y00425
X003767Y0042313
X0040271
X0043001Y00425
X0042441Y0048589
X0045041
X0043801Y0051
X0046119Y0056129
X0048719
X0047023Y005836
X00453Y00607
X0043233Y005945
Y006205
X0036Y006035
Y005775
X00343Y00562
Y00619
X002615Y00665
X002355
X001425Y00667
X001165
X0014Y0041127
X00155Y0039127
X00181
X00206Y0039627
X00125Y0039
X0014Y0021
X0021373Y00249
Y00275
X0023373Y00262
X0027165Y003024
X00309Y00302
X0036614Y003024
X00405Y00306
X00424Y00295
X0045
X00468Y00307
X0050787Y003024
X0055512
X0060236
X0064961
Y0042366
X0060236
X00535Y00425
X0048426Y00396
X0047126Y00376
X0049727
X0075Y00475
Y0052
X00455Y-00125
T02
X01175Y0032517
Y0039001
Y0045501
Y0052001
X0108864Y0049
X0108958Y00555
X01035Y00505
X01055Y00455
X0103Y00405
Y0029
X0109698
X01115Y00265
Y0019
Y-00015
X0083Y00025
X008825Y-001375
X00765Y-00187
X007Y-0014
X0063Y-00175
X00585
X00505Y-00195
X0046
X00434Y-00261
X00435Y-003
X004
X0037Y-0026
X00383Y-00365
X0034
X00263Y-00397
Y-00303
X00208
X0021Y-00195
X0017
X0025Y-00185
X00295
Y-00125
X0025
Y-00045
X00295
X00325Y00025
X0037
X00405Y-0006
X00445
X0048
X0055Y-00075
X00535Y00025
Y00065
X0058
X00625
X00688Y0014165
X0067Y00215
X0063
X00585Y00175
X00535
X0051Y001072
X0047339Y0008161
X0049Y00025
X0021Y00045
Y0008161
Y00165
X00135Y0014229
X00154Y0031
X00235Y003
X0006795Y0032326
X00065Y00265
X00075Y00435
Y0048
X0003001
X00045Y0054
X0009
Y00635
X0010161Y00695
X0016067
X0021972
X0027878
X0033783
X0039689
X0038484Y0082
X0043208
X00408Y00849
X0035Y00865
X00315
X00276
X0024311
X0022Y0079135
X0018Y0077
X00305Y0082
X00475Y00865
X0060457Y0085
X00655Y0077
X00685
X0073Y0078
X0078
X0082
X0088
X00864Y00931
X0088Y0061
X00825Y0058
X0085Y00555
X0083Y0043
X009Y0043059
Y0037941
Y0031559
Y0026441
X00765Y0025
X0073Y006
X00605Y0059
Y0064
X0062Y0066807
Y00705
X0002Y00645
X-0006Y0065
X-0011Y0064
Y0067
X-00125Y006
Y00565
X-0007
Y006
X-00185Y0042
X-0022252Y0042132
X-0017224Y0033799
X-0030117Y0034782
Y0024941
X-003175Y004825
X-00175Y00075
X00015Y-00295
X0015Y-00415
X00155Y-0045
X00205Y-0045433
X0042Y-0042
X0046
X0053Y-00425
X00565Y-0042
X0061Y-00425
X00625Y-00485
X0066535
X0068Y-0042
Y-0037
X00692Y-00294
X00665Y-0025
X0063386Y-00275
X0058661Y-00295
X00555Y-00255
X0057087Y-00485
X0078Y-0047
Y-0032
X00745
X0034Y00205
X0001205Y0085
X-0042204Y0020326
X-0044Y00045
Y0
Y-0005
Y-001
Y-002
T03
X-0005846Y-0005846
X-0008268Y0
X-0005846Y0005846
X0Y0008268
X0005846Y0005846
X0008268Y0
X0005846Y-0005846
X0Y-0008268
T06
X-00315Y0056532
X-00215
X-00415
T07
X-00315Y00705
X-00415
T08
X0Y0
T09
X-0014111Y-00369
Y0081202
X0104
Y-00369
M30
