G04*
G04 #@! TF.GenerationSoftware,Altium Limited,Altium Designer,22.5.1 (42)*
G04*
G04 Layer_Color=128*
%FSLAX25Y25*%
%MOIN*%
G70*
G04*
G04 #@! TF.SameCoordinates,343D76CA-8D90-4984-A01A-401E7FF7C9D5*
G04*
G04*
G04 #@! TF.FilePolarity,Positive*
G04*
G01*
G75*
%ADD12R,0.02402X0.07874*%
%ADD13R,0.10551X0.14173*%
%ADD31R,0.10000X0.02520*%
%ADD32R,0.18504X0.02520*%
%ADD33R,0.01811X0.05709*%
G36*
X97322Y-68699D02*
X97424Y-68708D01*
X97544Y-68718D01*
X97664Y-68736D01*
X97803Y-68755D01*
X98099Y-68819D01*
X98247Y-68866D01*
X98395Y-68912D01*
X98543Y-68977D01*
X98682Y-69051D01*
X98811Y-69134D01*
X98931Y-69226D01*
X98940Y-69236D01*
X98959Y-69254D01*
X98987Y-69282D01*
X99024Y-69319D01*
X99070Y-69375D01*
X99125Y-69439D01*
X99181Y-69513D01*
X99246Y-69596D01*
X99301Y-69698D01*
X99357Y-69800D01*
X99412Y-69920D01*
X99459Y-70050D01*
X99505Y-70179D01*
X99542Y-70327D01*
X99570Y-70475D01*
X99579Y-70642D01*
X98284Y-70688D01*
Y-70679D01*
Y-70670D01*
X98265Y-70605D01*
X98247Y-70521D01*
X98210Y-70420D01*
X98163Y-70300D01*
X98099Y-70188D01*
X98015Y-70078D01*
X97923Y-69985D01*
X97914Y-69976D01*
X97877Y-69948D01*
X97812Y-69911D01*
X97720Y-69874D01*
X97609Y-69837D01*
X97470Y-69800D01*
X97303Y-69772D01*
X97109Y-69763D01*
X97017D01*
X96915Y-69772D01*
X96795Y-69791D01*
X96656Y-69819D01*
X96508Y-69865D01*
X96369Y-69920D01*
X96240Y-70003D01*
X96230Y-70013D01*
X96212Y-70031D01*
X96175Y-70059D01*
X96138Y-70105D01*
X96101Y-70161D01*
X96064Y-70235D01*
X96045Y-70309D01*
X96036Y-70401D01*
Y-70411D01*
Y-70438D01*
X96045Y-70485D01*
X96064Y-70531D01*
X96082Y-70596D01*
X96110Y-70660D01*
X96156Y-70725D01*
X96221Y-70790D01*
X96230Y-70799D01*
X96276Y-70827D01*
X96304Y-70845D01*
X96351Y-70864D01*
X96397Y-70891D01*
X96461Y-70919D01*
X96536Y-70947D01*
X96619Y-70984D01*
X96721Y-71021D01*
X96822Y-71058D01*
X96952Y-71095D01*
X97091Y-71132D01*
X97238Y-71169D01*
X97405Y-71215D01*
X97414D01*
X97451Y-71224D01*
X97498Y-71234D01*
X97562Y-71252D01*
X97636Y-71271D01*
X97729Y-71298D01*
X97831Y-71326D01*
X97932Y-71354D01*
X98154Y-71428D01*
X98386Y-71502D01*
X98608Y-71585D01*
X98700Y-71631D01*
X98793Y-71678D01*
X98802D01*
X98811Y-71687D01*
X98866Y-71724D01*
X98950Y-71780D01*
X99051Y-71854D01*
X99163Y-71946D01*
X99283Y-72057D01*
X99403Y-72186D01*
X99505Y-72334D01*
X99514Y-72353D01*
X99542Y-72408D01*
X99588Y-72492D01*
X99634Y-72612D01*
X99681Y-72760D01*
X99727Y-72936D01*
X99755Y-73130D01*
X99764Y-73352D01*
Y-73361D01*
Y-73380D01*
Y-73408D01*
Y-73444D01*
X99755Y-73491D01*
X99745Y-73555D01*
X99727Y-73685D01*
X99690Y-73852D01*
X99634Y-74027D01*
X99551Y-74203D01*
X99449Y-74388D01*
Y-74397D01*
X99431Y-74406D01*
X99394Y-74462D01*
X99320Y-74555D01*
X99227Y-74656D01*
X99107Y-74777D01*
X98950Y-74888D01*
X98783Y-74998D01*
X98580Y-75100D01*
X98571D01*
X98552Y-75109D01*
X98524Y-75119D01*
X98478Y-75137D01*
X98423Y-75156D01*
X98358Y-75174D01*
X98284Y-75193D01*
X98201Y-75211D01*
X98099Y-75239D01*
X97997Y-75257D01*
X97757Y-75295D01*
X97488Y-75322D01*
X97192Y-75331D01*
X97072D01*
X96989Y-75322D01*
X96887Y-75313D01*
X96776Y-75304D01*
X96647Y-75285D01*
X96508Y-75257D01*
X96202Y-75193D01*
X96045Y-75147D01*
X95897Y-75100D01*
X95740Y-75036D01*
X95592Y-74962D01*
X95453Y-74878D01*
X95324Y-74777D01*
X95315Y-74767D01*
X95296Y-74749D01*
X95259Y-74721D01*
X95222Y-74675D01*
X95166Y-74610D01*
X95111Y-74536D01*
X95046Y-74453D01*
X94982Y-74360D01*
X94917Y-74249D01*
X94852Y-74129D01*
X94787Y-73990D01*
X94723Y-73842D01*
X94676Y-73685D01*
X94621Y-73509D01*
X94584Y-73324D01*
X94556Y-73130D01*
X95814Y-73010D01*
Y-73019D01*
X95823Y-73037D01*
Y-73075D01*
X95833Y-73111D01*
X95870Y-73223D01*
X95916Y-73361D01*
X95971Y-73519D01*
X96055Y-73676D01*
X96147Y-73814D01*
X96267Y-73944D01*
X96286Y-73953D01*
X96332Y-73990D01*
X96406Y-74037D01*
X96517Y-74092D01*
X96656Y-74147D01*
X96813Y-74194D01*
X96998Y-74231D01*
X97211Y-74240D01*
X97312D01*
X97424Y-74221D01*
X97562Y-74203D01*
X97710Y-74175D01*
X97868Y-74129D01*
X98015Y-74064D01*
X98145Y-73981D01*
X98163Y-73972D01*
X98201Y-73935D01*
X98247Y-73879D01*
X98312Y-73805D01*
X98367Y-73713D01*
X98423Y-73602D01*
X98460Y-73491D01*
X98469Y-73361D01*
Y-73352D01*
Y-73324D01*
X98460Y-73278D01*
X98450Y-73223D01*
X98432Y-73167D01*
X98413Y-73102D01*
X98376Y-73037D01*
X98330Y-72973D01*
X98321Y-72964D01*
X98302Y-72945D01*
X98274Y-72917D01*
X98228Y-72880D01*
X98163Y-72834D01*
X98080Y-72788D01*
X97988Y-72742D01*
X97868Y-72695D01*
X97858D01*
X97821Y-72677D01*
X97757Y-72658D01*
X97710Y-72640D01*
X97655Y-72631D01*
X97590Y-72612D01*
X97516Y-72584D01*
X97433Y-72566D01*
X97340Y-72538D01*
X97229Y-72510D01*
X97109Y-72483D01*
X96979Y-72445D01*
X96832Y-72408D01*
X96822D01*
X96785Y-72399D01*
X96730Y-72381D01*
X96665Y-72362D01*
X96582Y-72334D01*
X96480Y-72307D01*
X96378Y-72270D01*
X96258Y-72233D01*
X96018Y-72140D01*
X95786Y-72029D01*
X95666Y-71974D01*
X95564Y-71909D01*
X95463Y-71844D01*
X95379Y-71780D01*
X95370Y-71770D01*
X95351Y-71752D01*
X95324Y-71724D01*
X95287Y-71687D01*
X95240Y-71631D01*
X95194Y-71567D01*
X95139Y-71502D01*
X95093Y-71419D01*
X94982Y-71224D01*
X94889Y-71003D01*
X94852Y-70882D01*
X94824Y-70762D01*
X94806Y-70623D01*
X94797Y-70485D01*
Y-70475D01*
Y-70466D01*
Y-70438D01*
Y-70401D01*
X94815Y-70309D01*
X94834Y-70188D01*
X94861Y-70050D01*
X94908Y-69893D01*
X94972Y-69726D01*
X95065Y-69569D01*
Y-69560D01*
X95074Y-69550D01*
X95120Y-69495D01*
X95176Y-69421D01*
X95268Y-69328D01*
X95379Y-69226D01*
X95518Y-69116D01*
X95675Y-69014D01*
X95860Y-68921D01*
X95870D01*
X95888Y-68912D01*
X95916Y-68903D01*
X95953Y-68884D01*
X96008Y-68866D01*
X96064Y-68847D01*
X96138Y-68829D01*
X96221Y-68801D01*
X96406Y-68764D01*
X96619Y-68727D01*
X96859Y-68699D01*
X97127Y-68690D01*
X97238D01*
X97322Y-68699D01*
D02*
G37*
G36*
X66011Y-68699D02*
X66112Y-68708D01*
X66233Y-68718D01*
X66353Y-68736D01*
X66492Y-68755D01*
X66787Y-68819D01*
X66936Y-68866D01*
X67084Y-68912D01*
X67232Y-68977D01*
X67370Y-69051D01*
X67500Y-69134D01*
X67620Y-69226D01*
X67629Y-69236D01*
X67648Y-69254D01*
X67676Y-69282D01*
X67712Y-69319D01*
X67759Y-69375D01*
X67814Y-69439D01*
X67870Y-69513D01*
X67935Y-69596D01*
X67990Y-69698D01*
X68046Y-69800D01*
X68101Y-69920D01*
X68147Y-70050D01*
X68194Y-70179D01*
X68231Y-70327D01*
X68258Y-70475D01*
X68268Y-70642D01*
X66973Y-70688D01*
Y-70679D01*
Y-70670D01*
X66954Y-70605D01*
X66936Y-70521D01*
X66899Y-70420D01*
X66852Y-70300D01*
X66787Y-70188D01*
X66704Y-70078D01*
X66612Y-69985D01*
X66602Y-69976D01*
X66566Y-69948D01*
X66501Y-69911D01*
X66408Y-69874D01*
X66297Y-69837D01*
X66159Y-69800D01*
X65992Y-69772D01*
X65798Y-69763D01*
X65705D01*
X65604Y-69772D01*
X65483Y-69791D01*
X65345Y-69819D01*
X65197Y-69865D01*
X65058Y-69920D01*
X64928Y-70003D01*
X64919Y-70013D01*
X64900Y-70031D01*
X64864Y-70059D01*
X64827Y-70105D01*
X64789Y-70161D01*
X64753Y-70235D01*
X64734Y-70309D01*
X64725Y-70401D01*
Y-70411D01*
Y-70438D01*
X64734Y-70485D01*
X64753Y-70531D01*
X64771Y-70596D01*
X64799Y-70660D01*
X64845Y-70725D01*
X64910Y-70790D01*
X64919Y-70799D01*
X64965Y-70827D01*
X64993Y-70845D01*
X65039Y-70864D01*
X65086Y-70891D01*
X65150Y-70919D01*
X65224Y-70947D01*
X65308Y-70984D01*
X65409Y-71021D01*
X65511Y-71058D01*
X65640Y-71095D01*
X65779Y-71132D01*
X65927Y-71169D01*
X66094Y-71215D01*
X66103D01*
X66140Y-71224D01*
X66186Y-71234D01*
X66251Y-71252D01*
X66325Y-71271D01*
X66418Y-71298D01*
X66519Y-71326D01*
X66621Y-71354D01*
X66843Y-71428D01*
X67074Y-71502D01*
X67296Y-71585D01*
X67389Y-71631D01*
X67481Y-71678D01*
X67491D01*
X67500Y-71687D01*
X67555Y-71724D01*
X67638Y-71780D01*
X67740Y-71854D01*
X67851Y-71946D01*
X67972Y-72057D01*
X68092Y-72186D01*
X68194Y-72334D01*
X68203Y-72353D01*
X68231Y-72408D01*
X68277Y-72492D01*
X68323Y-72612D01*
X68369Y-72760D01*
X68415Y-72936D01*
X68443Y-73130D01*
X68453Y-73352D01*
Y-73361D01*
Y-73380D01*
Y-73408D01*
Y-73444D01*
X68443Y-73491D01*
X68434Y-73555D01*
X68415Y-73685D01*
X68379Y-73852D01*
X68323Y-74027D01*
X68240Y-74203D01*
X68138Y-74388D01*
Y-74397D01*
X68120Y-74406D01*
X68083Y-74462D01*
X68009Y-74555D01*
X67916Y-74656D01*
X67796Y-74777D01*
X67638Y-74888D01*
X67472Y-74998D01*
X67269Y-75100D01*
X67259D01*
X67241Y-75109D01*
X67213Y-75119D01*
X67167Y-75137D01*
X67111Y-75156D01*
X67047Y-75174D01*
X66973Y-75193D01*
X66889Y-75211D01*
X66787Y-75239D01*
X66686Y-75257D01*
X66445Y-75295D01*
X66177Y-75322D01*
X65881Y-75331D01*
X65761D01*
X65677Y-75322D01*
X65576Y-75313D01*
X65465Y-75304D01*
X65335Y-75285D01*
X65197Y-75257D01*
X64891Y-75193D01*
X64734Y-75147D01*
X64586Y-75100D01*
X64429Y-75036D01*
X64281Y-74962D01*
X64142Y-74878D01*
X64012Y-74777D01*
X64003Y-74767D01*
X63985Y-74749D01*
X63948Y-74721D01*
X63911Y-74675D01*
X63855Y-74610D01*
X63800Y-74536D01*
X63735Y-74453D01*
X63670Y-74360D01*
X63606Y-74249D01*
X63541Y-74129D01*
X63476Y-73990D01*
X63411Y-73842D01*
X63365Y-73685D01*
X63310Y-73509D01*
X63273Y-73324D01*
X63245Y-73130D01*
X64503Y-73010D01*
Y-73019D01*
X64512Y-73037D01*
Y-73075D01*
X64521Y-73111D01*
X64558Y-73223D01*
X64605Y-73361D01*
X64660Y-73519D01*
X64743Y-73676D01*
X64836Y-73814D01*
X64956Y-73944D01*
X64974Y-73953D01*
X65021Y-73990D01*
X65095Y-74037D01*
X65206Y-74092D01*
X65345Y-74147D01*
X65502Y-74194D01*
X65687Y-74231D01*
X65899Y-74240D01*
X66001D01*
X66112Y-74221D01*
X66251Y-74203D01*
X66399Y-74175D01*
X66556Y-74129D01*
X66704Y-74064D01*
X66834Y-73981D01*
X66852Y-73972D01*
X66889Y-73935D01*
X66936Y-73879D01*
X67000Y-73805D01*
X67056Y-73713D01*
X67111Y-73602D01*
X67148Y-73491D01*
X67158Y-73361D01*
Y-73352D01*
Y-73324D01*
X67148Y-73278D01*
X67139Y-73223D01*
X67121Y-73167D01*
X67102Y-73102D01*
X67065Y-73037D01*
X67019Y-72973D01*
X67010Y-72964D01*
X66991Y-72945D01*
X66963Y-72917D01*
X66917Y-72880D01*
X66852Y-72834D01*
X66769Y-72788D01*
X66676Y-72742D01*
X66556Y-72695D01*
X66547D01*
X66510Y-72677D01*
X66445Y-72658D01*
X66399Y-72640D01*
X66344Y-72631D01*
X66279Y-72612D01*
X66205Y-72584D01*
X66122Y-72566D01*
X66029Y-72538D01*
X65918Y-72510D01*
X65798Y-72483D01*
X65668Y-72445D01*
X65520Y-72408D01*
X65511D01*
X65474Y-72399D01*
X65419Y-72381D01*
X65354Y-72362D01*
X65271Y-72334D01*
X65169Y-72307D01*
X65067Y-72270D01*
X64947Y-72233D01*
X64706Y-72140D01*
X64475Y-72029D01*
X64355Y-71974D01*
X64253Y-71909D01*
X64151Y-71844D01*
X64068Y-71780D01*
X64059Y-71770D01*
X64040Y-71752D01*
X64012Y-71724D01*
X63976Y-71687D01*
X63929Y-71631D01*
X63883Y-71567D01*
X63828Y-71502D01*
X63781Y-71419D01*
X63670Y-71224D01*
X63578Y-71003D01*
X63541Y-70882D01*
X63513Y-70762D01*
X63495Y-70623D01*
X63485Y-70485D01*
Y-70475D01*
Y-70466D01*
Y-70438D01*
Y-70401D01*
X63504Y-70309D01*
X63522Y-70188D01*
X63550Y-70050D01*
X63596Y-69893D01*
X63661Y-69726D01*
X63753Y-69569D01*
Y-69560D01*
X63763Y-69550D01*
X63809Y-69495D01*
X63864Y-69421D01*
X63957Y-69328D01*
X64068Y-69226D01*
X64207Y-69116D01*
X64364Y-69014D01*
X64549Y-68921D01*
X64558D01*
X64577Y-68912D01*
X64605Y-68903D01*
X64641Y-68884D01*
X64697Y-68866D01*
X64753Y-68847D01*
X64827Y-68829D01*
X64910Y-68801D01*
X65095Y-68764D01*
X65308Y-68727D01*
X65548Y-68699D01*
X65816Y-68690D01*
X65927D01*
X66011Y-68699D01*
D02*
G37*
G36*
X104102Y-71308D02*
X106646Y-75211D01*
X104972D01*
X103205Y-72205D01*
X102160Y-73278D01*
Y-75211D01*
X100865D01*
Y-68810D01*
X102160D01*
Y-71659D01*
X104787Y-68810D01*
X106526D01*
X104102Y-71308D01*
D02*
G37*
G36*
X87128Y-75211D02*
X85935D01*
X85926Y-70179D01*
X84668Y-75211D01*
X83419D01*
X82161Y-70179D01*
Y-75211D01*
X80968D01*
Y-68810D01*
X82901D01*
X84048Y-73185D01*
X85186Y-68810D01*
X87128D01*
Y-75211D01*
D02*
G37*
G36*
X47363D02*
X46169D01*
X46160Y-70179D01*
X44902Y-75211D01*
X43653D01*
X42395Y-70179D01*
Y-75211D01*
X41202D01*
Y-68810D01*
X43135D01*
X44282Y-73185D01*
X45420Y-68810D01*
X47363D01*
Y-75211D01*
D02*
G37*
G36*
X94204D02*
X92808D01*
X92253Y-73759D01*
X89681D01*
X89154Y-75211D01*
X87785D01*
X90264Y-68810D01*
X91633D01*
X94204Y-75211D01*
D02*
G37*
G36*
X79765Y-69893D02*
X76315D01*
Y-71308D01*
X79525D01*
Y-72390D01*
X76315D01*
Y-74129D01*
X79886D01*
Y-75211D01*
X75020D01*
Y-68810D01*
X79765D01*
Y-69893D01*
D02*
G37*
G36*
X74178D02*
X72291D01*
Y-75211D01*
X70996D01*
Y-69893D01*
X69100D01*
Y-68810D01*
X74178D01*
Y-69893D01*
D02*
G37*
G36*
X62893Y-75211D02*
X61497D01*
X60941Y-73759D01*
X58370D01*
X57843Y-75211D01*
X56474D01*
X58953Y-68810D01*
X60322D01*
X62893Y-75211D01*
D02*
G37*
G36*
X53625Y-68819D02*
X53865D01*
X54124Y-68838D01*
X54383Y-68857D01*
X54494Y-68866D01*
X54605Y-68875D01*
X54698Y-68893D01*
X54772Y-68912D01*
X54781D01*
X54799Y-68921D01*
X54827Y-68931D01*
X54864Y-68940D01*
X54966Y-68986D01*
X55096Y-69042D01*
X55234Y-69125D01*
X55392Y-69236D01*
X55540Y-69375D01*
X55687Y-69541D01*
Y-69550D01*
X55706Y-69560D01*
X55725Y-69587D01*
X55743Y-69624D01*
X55780Y-69680D01*
X55808Y-69735D01*
X55845Y-69800D01*
X55882Y-69874D01*
X55947Y-70059D01*
X56011Y-70262D01*
X56048Y-70512D01*
X56067Y-70780D01*
Y-70790D01*
Y-70808D01*
Y-70836D01*
Y-70882D01*
X56058Y-70929D01*
Y-70993D01*
X56039Y-71123D01*
X56011Y-71280D01*
X55974Y-71456D01*
X55919Y-71622D01*
X55845Y-71780D01*
X55836Y-71798D01*
X55808Y-71844D01*
X55761Y-71918D01*
X55697Y-72011D01*
X55623Y-72103D01*
X55521Y-72214D01*
X55419Y-72316D01*
X55299Y-72408D01*
X55281Y-72418D01*
X55244Y-72445D01*
X55179Y-72483D01*
X55096Y-72529D01*
X54994Y-72584D01*
X54883Y-72631D01*
X54763Y-72677D01*
X54633Y-72714D01*
X54615D01*
X54587Y-72723D01*
X54550D01*
X54504Y-72732D01*
X54439Y-72742D01*
X54374Y-72751D01*
X54291D01*
X54208Y-72760D01*
X54106Y-72769D01*
X53995Y-72778D01*
X53874Y-72788D01*
X53745D01*
X53606Y-72797D01*
X52459D01*
Y-75211D01*
X51164D01*
Y-68810D01*
X53523D01*
X53625Y-68819D01*
D02*
G37*
G36*
X33423Y-69893D02*
X31536D01*
Y-75211D01*
X30241D01*
Y-69893D01*
X28345D01*
Y-68810D01*
X33423D01*
Y-69893D01*
D02*
G37*
G36*
X27956D02*
X26069D01*
Y-75211D01*
X24774D01*
Y-69893D01*
X22878D01*
Y-68810D01*
X27956D01*
Y-69893D01*
D02*
G37*
G36*
X12897Y-68819D02*
X13082Y-68829D01*
X13267Y-68838D01*
X13443Y-68857D01*
X13600Y-68875D01*
X13619D01*
X13665Y-68884D01*
X13730Y-68903D01*
X13822Y-68931D01*
X13924Y-68967D01*
X14035Y-69014D01*
X14155Y-69069D01*
X14266Y-69143D01*
X14275Y-69152D01*
X14312Y-69180D01*
X14368Y-69226D01*
X14442Y-69282D01*
X14516Y-69365D01*
X14599Y-69458D01*
X14682Y-69560D01*
X14756Y-69680D01*
X14765Y-69698D01*
X14784Y-69735D01*
X14821Y-69809D01*
X14858Y-69902D01*
X14895Y-70013D01*
X14932Y-70133D01*
X14951Y-70281D01*
X14960Y-70429D01*
Y-70438D01*
Y-70447D01*
Y-70503D01*
X14951Y-70586D01*
X14932Y-70697D01*
X14895Y-70827D01*
X14858Y-70965D01*
X14793Y-71104D01*
X14710Y-71252D01*
X14701Y-71271D01*
X14664Y-71317D01*
X14608Y-71382D01*
X14544Y-71465D01*
X14451Y-71548D01*
X14340Y-71650D01*
X14211Y-71733D01*
X14062Y-71816D01*
X14072D01*
X14090Y-71826D01*
X14118Y-71835D01*
X14155Y-71844D01*
X14266Y-71890D01*
X14396Y-71955D01*
X14534Y-72029D01*
X14692Y-72131D01*
X14830Y-72251D01*
X14960Y-72399D01*
X14969Y-72418D01*
X15006Y-72473D01*
X15062Y-72557D01*
X15117Y-72667D01*
X15173Y-72816D01*
X15228Y-72973D01*
X15265Y-73158D01*
X15274Y-73361D01*
Y-73370D01*
Y-73380D01*
Y-73435D01*
X15265Y-73519D01*
X15247Y-73629D01*
X15228Y-73759D01*
X15191Y-73907D01*
X15136Y-74055D01*
X15071Y-74212D01*
X15062Y-74231D01*
X15034Y-74277D01*
X14988Y-74351D01*
X14923Y-74444D01*
X14849Y-74555D01*
X14747Y-74656D01*
X14645Y-74767D01*
X14516Y-74869D01*
X14497Y-74878D01*
X14451Y-74906D01*
X14377Y-74952D01*
X14275Y-74998D01*
X14146Y-75054D01*
X13998Y-75100D01*
X13831Y-75147D01*
X13646Y-75174D01*
X13609D01*
X13572Y-75183D01*
X13480D01*
X13415Y-75193D01*
X13239D01*
X13128Y-75202D01*
X12851D01*
X12694Y-75211D01*
X9919D01*
Y-68810D01*
X12731D01*
X12897Y-68819D01*
D02*
G37*
G36*
X37225Y-68699D02*
X37317D01*
X37437Y-68718D01*
X37576Y-68736D01*
X37733Y-68764D01*
X37900Y-68801D01*
X38076Y-68847D01*
X38261Y-68903D01*
X38445Y-68977D01*
X38640Y-69060D01*
X38825Y-69162D01*
X39010Y-69282D01*
X39186Y-69421D01*
X39352Y-69578D01*
X39361Y-69587D01*
X39389Y-69615D01*
X39435Y-69670D01*
X39481Y-69735D01*
X39546Y-69828D01*
X39620Y-69939D01*
X39694Y-70068D01*
X39778Y-70216D01*
X39861Y-70373D01*
X39935Y-70559D01*
X40009Y-70762D01*
X40074Y-70975D01*
X40129Y-71215D01*
X40166Y-71465D01*
X40194Y-71733D01*
X40203Y-72020D01*
Y-72039D01*
Y-72085D01*
X40194Y-72168D01*
Y-72279D01*
X40175Y-72408D01*
X40157Y-72557D01*
X40129Y-72732D01*
X40101Y-72908D01*
X40055Y-73102D01*
X39999Y-73306D01*
X39926Y-73509D01*
X39842Y-73713D01*
X39750Y-73907D01*
X39630Y-74101D01*
X39500Y-74286D01*
X39352Y-74462D01*
X39343Y-74471D01*
X39315Y-74499D01*
X39269Y-74545D01*
X39195Y-74601D01*
X39112Y-74665D01*
X39010Y-74739D01*
X38890Y-74813D01*
X38760Y-74897D01*
X38603Y-74980D01*
X38436Y-75054D01*
X38251Y-75128D01*
X38048Y-75193D01*
X37835Y-75248D01*
X37604Y-75295D01*
X37363Y-75322D01*
X37104Y-75331D01*
X37040D01*
X36966Y-75322D01*
X36873Y-75313D01*
X36753Y-75304D01*
X36614Y-75285D01*
X36457Y-75257D01*
X36290Y-75221D01*
X36105Y-75174D01*
X35930Y-75119D01*
X35735Y-75045D01*
X35550Y-74962D01*
X35356Y-74869D01*
X35180Y-74749D01*
X35005Y-74619D01*
X34838Y-74462D01*
X34829Y-74453D01*
X34801Y-74425D01*
X34764Y-74370D01*
X34709Y-74305D01*
X34644Y-74212D01*
X34570Y-74101D01*
X34496Y-73981D01*
X34422Y-73833D01*
X34339Y-73676D01*
X34265Y-73491D01*
X34191Y-73296D01*
X34126Y-73084D01*
X34070Y-72852D01*
X34033Y-72603D01*
X34005Y-72334D01*
X33996Y-72057D01*
Y-72048D01*
Y-72011D01*
Y-71965D01*
X34005Y-71890D01*
Y-71807D01*
X34015Y-71715D01*
X34024Y-71604D01*
X34033Y-71483D01*
X34070Y-71224D01*
X34117Y-70947D01*
X34191Y-70670D01*
X34283Y-70411D01*
Y-70401D01*
X34292Y-70392D01*
X34311Y-70364D01*
X34320Y-70327D01*
X34376Y-70235D01*
X34440Y-70114D01*
X34524Y-69976D01*
X34625Y-69837D01*
X34745Y-69680D01*
X34875Y-69532D01*
X34884Y-69523D01*
X34894Y-69513D01*
X34940Y-69467D01*
X35023Y-69393D01*
X35125Y-69310D01*
X35245Y-69217D01*
X35384Y-69116D01*
X35541Y-69023D01*
X35708Y-68949D01*
X35717D01*
X35735Y-68940D01*
X35772Y-68921D01*
X35818Y-68912D01*
X35874Y-68884D01*
X35939Y-68866D01*
X36022Y-68847D01*
X36105Y-68819D01*
X36309Y-68773D01*
X36540Y-68727D01*
X36808Y-68699D01*
X37086Y-68690D01*
X37150D01*
X37225Y-68699D01*
D02*
G37*
G36*
X19335D02*
X19428D01*
X19548Y-68718D01*
X19687Y-68736D01*
X19844Y-68764D01*
X20010Y-68801D01*
X20186Y-68847D01*
X20371Y-68903D01*
X20556Y-68977D01*
X20750Y-69060D01*
X20935Y-69162D01*
X21120Y-69282D01*
X21296Y-69421D01*
X21463Y-69578D01*
X21472Y-69587D01*
X21499Y-69615D01*
X21546Y-69670D01*
X21592Y-69735D01*
X21657Y-69828D01*
X21731Y-69939D01*
X21805Y-70068D01*
X21888Y-70216D01*
X21971Y-70373D01*
X22045Y-70559D01*
X22119Y-70762D01*
X22184Y-70975D01*
X22240Y-71215D01*
X22277Y-71465D01*
X22304Y-71733D01*
X22314Y-72020D01*
Y-72039D01*
Y-72085D01*
X22304Y-72168D01*
Y-72279D01*
X22286Y-72408D01*
X22267Y-72557D01*
X22240Y-72732D01*
X22212Y-72908D01*
X22165Y-73102D01*
X22110Y-73306D01*
X22036Y-73509D01*
X21953Y-73713D01*
X21860Y-73907D01*
X21740Y-74101D01*
X21611Y-74286D01*
X21463Y-74462D01*
X21453Y-74471D01*
X21426Y-74499D01*
X21379Y-74545D01*
X21305Y-74601D01*
X21222Y-74665D01*
X21120Y-74739D01*
X21000Y-74813D01*
X20871Y-74897D01*
X20713Y-74980D01*
X20547Y-75054D01*
X20362Y-75128D01*
X20158Y-75193D01*
X19946Y-75248D01*
X19714Y-75295D01*
X19474Y-75322D01*
X19215Y-75331D01*
X19150D01*
X19076Y-75322D01*
X18983Y-75313D01*
X18863Y-75304D01*
X18724Y-75285D01*
X18567Y-75257D01*
X18401Y-75221D01*
X18216Y-75174D01*
X18040Y-75119D01*
X17846Y-75045D01*
X17661Y-74962D01*
X17467Y-74869D01*
X17291Y-74749D01*
X17115Y-74619D01*
X16949Y-74462D01*
X16939Y-74453D01*
X16912Y-74425D01*
X16874Y-74370D01*
X16819Y-74305D01*
X16754Y-74212D01*
X16680Y-74101D01*
X16606Y-73981D01*
X16532Y-73833D01*
X16449Y-73676D01*
X16375Y-73491D01*
X16301Y-73296D01*
X16236Y-73084D01*
X16181Y-72852D01*
X16144Y-72603D01*
X16116Y-72334D01*
X16107Y-72057D01*
Y-72048D01*
Y-72011D01*
Y-71965D01*
X16116Y-71890D01*
Y-71807D01*
X16125Y-71715D01*
X16135Y-71604D01*
X16144Y-71483D01*
X16181Y-71224D01*
X16227Y-70947D01*
X16301Y-70670D01*
X16394Y-70411D01*
Y-70401D01*
X16403Y-70392D01*
X16421Y-70364D01*
X16431Y-70327D01*
X16486Y-70235D01*
X16551Y-70114D01*
X16634Y-69976D01*
X16736Y-69837D01*
X16856Y-69680D01*
X16986Y-69532D01*
X16995Y-69523D01*
X17004Y-69513D01*
X17050Y-69467D01*
X17133Y-69393D01*
X17235Y-69310D01*
X17356Y-69217D01*
X17494Y-69116D01*
X17652Y-69023D01*
X17818Y-68949D01*
X17827D01*
X17846Y-68940D01*
X17883Y-68921D01*
X17929Y-68912D01*
X17985Y-68884D01*
X18049Y-68866D01*
X18133Y-68847D01*
X18216Y-68819D01*
X18419Y-68773D01*
X18651Y-68727D01*
X18919Y-68699D01*
X19196Y-68690D01*
X19261D01*
X19335Y-68699D01*
D02*
G37*
%LPC*%
G36*
X90939Y-70300D02*
X90070Y-72677D01*
X91837D01*
X90939Y-70300D01*
D02*
G37*
G36*
X59628D02*
X58759Y-72677D01*
X60525D01*
X59628Y-70300D01*
D02*
G37*
G36*
X53421Y-69893D02*
X52459D01*
Y-71715D01*
X53347D01*
X53412Y-71706D01*
X53579D01*
X53745Y-71696D01*
X53912Y-71678D01*
X54060Y-71650D01*
X54124Y-71641D01*
X54180Y-71622D01*
X54189Y-71613D01*
X54226Y-71604D01*
X54272Y-71576D01*
X54328Y-71548D01*
X54393Y-71502D01*
X54457Y-71447D01*
X54531Y-71382D01*
X54587Y-71308D01*
X54596Y-71298D01*
X54615Y-71271D01*
X54633Y-71224D01*
X54661Y-71160D01*
X54689Y-71086D01*
X54716Y-71003D01*
X54725Y-70910D01*
X54735Y-70808D01*
Y-70790D01*
Y-70753D01*
X54725Y-70688D01*
X54707Y-70605D01*
X54679Y-70512D01*
X54642Y-70411D01*
X54596Y-70318D01*
X54522Y-70226D01*
X54513Y-70216D01*
X54485Y-70188D01*
X54439Y-70152D01*
X54383Y-70105D01*
X54309Y-70050D01*
X54217Y-70003D01*
X54115Y-69967D01*
X54004Y-69939D01*
X53995D01*
X53958Y-69929D01*
X53893Y-69920D01*
X53800Y-69911D01*
X53680D01*
X53597Y-69902D01*
X53514D01*
X53421Y-69893D01*
D02*
G37*
G36*
X12499Y-69874D02*
X11214D01*
Y-71354D01*
X12453D01*
X12610Y-71345D01*
X12897D01*
X12953Y-71336D01*
X13008D01*
X13045Y-71326D01*
X13101Y-71317D01*
X13184Y-71289D01*
X13267Y-71262D01*
X13350Y-71224D01*
X13433Y-71178D01*
X13508Y-71114D01*
X13517Y-71104D01*
X13535Y-71077D01*
X13572Y-71039D01*
X13609Y-70975D01*
X13637Y-70901D01*
X13674Y-70818D01*
X13692Y-70716D01*
X13702Y-70605D01*
Y-70596D01*
Y-70559D01*
X13692Y-70503D01*
X13683Y-70429D01*
X13665Y-70355D01*
X13628Y-70281D01*
X13591Y-70198D01*
X13535Y-70124D01*
X13526Y-70114D01*
X13508Y-70096D01*
X13461Y-70059D01*
X13415Y-70022D01*
X13341Y-69985D01*
X13258Y-69948D01*
X13156Y-69920D01*
X13045Y-69902D01*
X13036D01*
X12999Y-69893D01*
X12897D01*
X12842Y-69883D01*
X12601D01*
X12499Y-69874D01*
D02*
G37*
G36*
X12555Y-72418D02*
X11214D01*
Y-74129D01*
X12638D01*
X12777Y-74120D01*
X12925D01*
X13073Y-74111D01*
X13193Y-74101D01*
X13249D01*
X13286Y-74092D01*
X13295D01*
X13332Y-74083D01*
X13387Y-74064D01*
X13452Y-74046D01*
X13526Y-74009D01*
X13609Y-73962D01*
X13683Y-73907D01*
X13757Y-73842D01*
X13767Y-73833D01*
X13785Y-73805D01*
X13813Y-73759D01*
X13850Y-73694D01*
X13887Y-73620D01*
X13915Y-73528D01*
X13933Y-73417D01*
X13942Y-73296D01*
Y-73287D01*
Y-73250D01*
X13933Y-73195D01*
X13924Y-73130D01*
X13905Y-73047D01*
X13878Y-72973D01*
X13840Y-72890D01*
X13794Y-72806D01*
X13785Y-72797D01*
X13767Y-72769D01*
X13739Y-72732D01*
X13692Y-72695D01*
X13637Y-72640D01*
X13563Y-72593D01*
X13480Y-72547D01*
X13387Y-72510D01*
X13378D01*
X13332Y-72492D01*
X13258Y-72483D01*
X13212Y-72473D01*
X13147Y-72464D01*
X13082Y-72455D01*
X12999Y-72445D01*
X12906Y-72436D01*
X12795D01*
X12684Y-72427D01*
X12555Y-72418D01*
D02*
G37*
G36*
X37104Y-69791D02*
X37030D01*
X36975Y-69800D01*
X36901Y-69809D01*
X36827Y-69819D01*
X36642Y-69855D01*
X36438Y-69929D01*
X36327Y-69967D01*
X36216Y-70022D01*
X36115Y-70087D01*
X36004Y-70161D01*
X35902Y-70244D01*
X35809Y-70346D01*
X35800Y-70355D01*
X35791Y-70373D01*
X35763Y-70401D01*
X35735Y-70447D01*
X35698Y-70512D01*
X35661Y-70577D01*
X35615Y-70660D01*
X35569Y-70762D01*
X35523Y-70873D01*
X35476Y-70993D01*
X35439Y-71132D01*
X35402Y-71280D01*
X35375Y-71447D01*
X35347Y-71622D01*
X35337Y-71807D01*
X35328Y-72011D01*
Y-72020D01*
Y-72057D01*
Y-72113D01*
X35337Y-72186D01*
X35347Y-72279D01*
X35356Y-72390D01*
X35375Y-72501D01*
X35393Y-72631D01*
X35449Y-72899D01*
X35541Y-73167D01*
X35597Y-73306D01*
X35661Y-73435D01*
X35745Y-73555D01*
X35828Y-73667D01*
X35837Y-73676D01*
X35855Y-73694D01*
X35883Y-73722D01*
X35920Y-73750D01*
X35967Y-73796D01*
X36031Y-73842D01*
X36096Y-73898D01*
X36179Y-73944D01*
X36355Y-74055D01*
X36577Y-74138D01*
X36697Y-74175D01*
X36827Y-74203D01*
X36966Y-74221D01*
X37104Y-74231D01*
X37178D01*
X37234Y-74221D01*
X37299Y-74212D01*
X37373Y-74203D01*
X37548Y-74157D01*
X37752Y-74092D01*
X37854Y-74046D01*
X37965Y-74000D01*
X38066Y-73935D01*
X38177Y-73861D01*
X38279Y-73778D01*
X38372Y-73676D01*
X38381Y-73667D01*
X38390Y-73648D01*
X38418Y-73620D01*
X38445Y-73574D01*
X38492Y-73509D01*
X38529Y-73435D01*
X38575Y-73352D01*
X38621Y-73250D01*
X38668Y-73139D01*
X38714Y-73019D01*
X38760Y-72880D01*
X38797Y-72723D01*
X38825Y-72566D01*
X38853Y-72390D01*
X38862Y-72196D01*
X38871Y-71992D01*
Y-71983D01*
Y-71946D01*
Y-71890D01*
X38862Y-71807D01*
X38853Y-71715D01*
X38843Y-71613D01*
X38834Y-71493D01*
X38806Y-71372D01*
X38751Y-71104D01*
X38668Y-70827D01*
X38612Y-70688D01*
X38547Y-70568D01*
X38464Y-70447D01*
X38381Y-70337D01*
X38372Y-70327D01*
X38362Y-70309D01*
X38335Y-70290D01*
X38298Y-70253D01*
X38242Y-70207D01*
X38186Y-70161D01*
X38122Y-70114D01*
X38039Y-70059D01*
X37955Y-70013D01*
X37854Y-69967D01*
X37641Y-69874D01*
X37521Y-69837D01*
X37391Y-69819D01*
X37252Y-69800D01*
X37104Y-69791D01*
D02*
G37*
G36*
X19215D02*
X19141D01*
X19085Y-69800D01*
X19011Y-69809D01*
X18937Y-69819D01*
X18752Y-69855D01*
X18549Y-69929D01*
X18438Y-69967D01*
X18327Y-70022D01*
X18225Y-70087D01*
X18114Y-70161D01*
X18012Y-70244D01*
X17920Y-70346D01*
X17911Y-70355D01*
X17901Y-70373D01*
X17874Y-70401D01*
X17846Y-70447D01*
X17809Y-70512D01*
X17772Y-70577D01*
X17726Y-70660D01*
X17679Y-70762D01*
X17633Y-70873D01*
X17587Y-70993D01*
X17550Y-71132D01*
X17513Y-71280D01*
X17485Y-71447D01*
X17457Y-71622D01*
X17448Y-71807D01*
X17439Y-72011D01*
Y-72020D01*
Y-72057D01*
Y-72113D01*
X17448Y-72186D01*
X17457Y-72279D01*
X17467Y-72390D01*
X17485Y-72501D01*
X17504Y-72631D01*
X17559Y-72899D01*
X17652Y-73167D01*
X17707Y-73306D01*
X17772Y-73435D01*
X17855Y-73555D01*
X17938Y-73667D01*
X17948Y-73676D01*
X17966Y-73694D01*
X17994Y-73722D01*
X18031Y-73750D01*
X18077Y-73796D01*
X18142Y-73842D01*
X18206Y-73898D01*
X18290Y-73944D01*
X18465Y-74055D01*
X18688Y-74138D01*
X18808Y-74175D01*
X18937Y-74203D01*
X19076Y-74221D01*
X19215Y-74231D01*
X19289D01*
X19344Y-74221D01*
X19409Y-74212D01*
X19483Y-74203D01*
X19659Y-74157D01*
X19862Y-74092D01*
X19964Y-74046D01*
X20075Y-74000D01*
X20177Y-73935D01*
X20288Y-73861D01*
X20390Y-73778D01*
X20482Y-73676D01*
X20491Y-73667D01*
X20501Y-73648D01*
X20528Y-73620D01*
X20556Y-73574D01*
X20602Y-73509D01*
X20639Y-73435D01*
X20686Y-73352D01*
X20732Y-73250D01*
X20778Y-73139D01*
X20824Y-73019D01*
X20871Y-72880D01*
X20908Y-72723D01*
X20935Y-72566D01*
X20963Y-72390D01*
X20972Y-72196D01*
X20981Y-71992D01*
Y-71983D01*
Y-71946D01*
Y-71890D01*
X20972Y-71807D01*
X20963Y-71715D01*
X20954Y-71613D01*
X20945Y-71493D01*
X20917Y-71372D01*
X20861Y-71104D01*
X20778Y-70827D01*
X20723Y-70688D01*
X20658Y-70568D01*
X20574Y-70447D01*
X20491Y-70337D01*
X20482Y-70327D01*
X20473Y-70309D01*
X20445Y-70290D01*
X20408Y-70253D01*
X20353Y-70207D01*
X20297Y-70161D01*
X20232Y-70114D01*
X20149Y-70059D01*
X20066Y-70013D01*
X19964Y-69967D01*
X19751Y-69874D01*
X19631Y-69837D01*
X19502Y-69819D01*
X19363Y-69800D01*
X19215Y-69791D01*
D02*
G37*
%LPD*%
D12*
X85915Y73802D02*
D03*
X81978D02*
D03*
X78041D02*
D03*
X74104D02*
D03*
X70167D02*
D03*
X66230D02*
D03*
X62293D02*
D03*
X58356D02*
D03*
X54419D02*
D03*
X30797D02*
D03*
X34734D02*
D03*
X38671D02*
D03*
X50482D02*
D03*
X42608D02*
D03*
X46545D02*
D03*
D13*
X19025Y84826D02*
D03*
X97687D02*
D03*
D31*
X92303Y0D02*
D03*
X25807D02*
D03*
D32*
X71555D02*
D03*
X46555D02*
D03*
D33*
X88976Y12165D02*
D03*
Y-12165D02*
D03*
X85827Y12165D02*
D03*
Y-12165D02*
D03*
X82677Y12165D02*
D03*
Y-12165D02*
D03*
X79528Y12165D02*
D03*
Y-12165D02*
D03*
X76378Y12165D02*
D03*
Y-12165D02*
D03*
X73228Y12165D02*
D03*
Y-12165D02*
D03*
X70079Y12165D02*
D03*
Y-12165D02*
D03*
X66929Y12165D02*
D03*
Y-12165D02*
D03*
X63780Y12165D02*
D03*
Y-12165D02*
D03*
X60630Y12165D02*
D03*
Y-12165D02*
D03*
X57480Y12165D02*
D03*
Y-12165D02*
D03*
X54331Y12165D02*
D03*
Y-12165D02*
D03*
X51181Y12165D02*
D03*
Y-12165D02*
D03*
X48031Y12165D02*
D03*
Y-12165D02*
D03*
X44882Y12165D02*
D03*
Y-12165D02*
D03*
X41732Y12165D02*
D03*
Y-12165D02*
D03*
X38583Y12165D02*
D03*
Y-12165D02*
D03*
X35433Y12165D02*
D03*
Y-12165D02*
D03*
X32283Y12165D02*
D03*
Y-12165D02*
D03*
X29134Y12165D02*
D03*
Y-12165D02*
D03*
M02*
