G04*
G04 #@! TF.GenerationSoftware,Altium Limited,Altium Designer,22.5.1 (42)*
G04*
G04 Layer_Physical_Order=2*
G04 Layer_Color=6740479*
%FSLAX25Y25*%
%MOIN*%
G70*
G04*
G04 #@! TF.SameCoordinates,343D76CA-8D90-4984-A01A-401E7FF7C9D5*
G04*
G04*
G04 #@! TF.FilePolarity,Positive*
G04*
G01*
G75*
%ADD30C,0.01600*%
G36*
X121789Y99004D02*
X122514Y98704D01*
X123137Y98226D01*
X123615Y97604D01*
X123915Y96879D01*
X124012Y96144D01*
X124003Y96100D01*
Y3593D01*
X123518Y3471D01*
X123462Y3576D01*
X122661Y4551D01*
X121686Y5352D01*
X120573Y5946D01*
X119366Y6313D01*
X118110Y6436D01*
X116855Y6313D01*
X115647Y5946D01*
X114534Y5352D01*
X113559Y4551D01*
X112759Y3576D01*
X112164Y2463D01*
X111797Y1256D01*
X111674Y0D01*
X111797Y-1256D01*
X112164Y-2463D01*
X112759Y-3576D01*
X113559Y-4551D01*
X114534Y-5352D01*
X115647Y-5946D01*
X116855Y-6313D01*
X118110Y-6436D01*
X119366Y-6313D01*
X120573Y-5946D01*
X121686Y-5352D01*
X122661Y-4551D01*
X123462Y-3576D01*
X123518Y-3471D01*
X124003Y-3593D01*
Y-18900D01*
X124012Y-18943D01*
X123915Y-19678D01*
X123615Y-20403D01*
X123137Y-21025D01*
X122514Y-21503D01*
X121789Y-21803D01*
X121054Y-21900D01*
X121011Y-21891D01*
X-2901D01*
X-2944Y-21900D01*
X-3679Y-21803D01*
X-4404Y-21503D01*
X-5027Y-21025D01*
X-5504Y-20403D01*
X-5805Y-19678D01*
X-5901Y-18943D01*
X-5893Y-18900D01*
Y-3593D01*
X-5408Y-3471D01*
X-5352Y-3576D01*
X-4551Y-4551D01*
X-3576Y-5352D01*
X-2463Y-5946D01*
X-1256Y-6313D01*
X0Y-6436D01*
X1256Y-6313D01*
X2463Y-5946D01*
X3576Y-5352D01*
X4551Y-4551D01*
X5352Y-3576D01*
X5946Y-2463D01*
X6313Y-1256D01*
X6436Y0D01*
X6313Y1256D01*
X5946Y2463D01*
X5352Y3576D01*
X4551Y4551D01*
X3576Y5352D01*
X2463Y5946D01*
X1256Y6313D01*
X0Y6436D01*
X-1256Y6313D01*
X-2463Y5946D01*
X-3576Y5352D01*
X-4551Y4551D01*
X-5352Y3576D01*
X-5408Y3471D01*
X-5893Y3593D01*
Y96100D01*
X-5901Y96144D01*
X-5805Y96879D01*
X-5504Y97604D01*
X-5027Y98226D01*
X-4404Y98704D01*
X-3679Y99004D01*
X-2944Y99101D01*
X-2901Y99092D01*
X121011D01*
X121054Y99101D01*
X121789Y99004D01*
D02*
G37*
G36*
X41267Y-63102D02*
Y-65784D01*
X39972D01*
Y-63092D01*
X37631Y-59383D01*
X39139D01*
X40647Y-61918D01*
X42118Y-59383D01*
X43607D01*
X41267Y-63102D01*
D02*
G37*
G36*
X76833Y-65784D02*
X75436D01*
X74178Y-61002D01*
X72902Y-65784D01*
X71496D01*
X69979Y-59383D01*
X71301D01*
X72263Y-63786D01*
X73429Y-59383D01*
X74983D01*
X76093Y-63860D01*
X77073Y-59383D01*
X78378D01*
X76833Y-65784D01*
D02*
G37*
G36*
X82022Y-59392D02*
X82124D01*
X82226Y-59402D01*
X82346D01*
X82586Y-59429D01*
X82836Y-59457D01*
X83067Y-59503D01*
X83169Y-59531D01*
X83262Y-59559D01*
X83271D01*
X83280Y-59568D01*
X83336Y-59596D01*
X83419Y-59642D01*
X83530Y-59698D01*
X83650Y-59790D01*
X83770Y-59892D01*
X83891Y-60021D01*
X84002Y-60179D01*
Y-60188D01*
X84011Y-60197D01*
X84029Y-60225D01*
X84048Y-60252D01*
X84094Y-60345D01*
X84150Y-60465D01*
X84196Y-60613D01*
X84242Y-60780D01*
X84279Y-60974D01*
X84288Y-61177D01*
Y-61187D01*
Y-61205D01*
Y-61251D01*
X84279Y-61298D01*
Y-61362D01*
X84270Y-61427D01*
X84233Y-61594D01*
X84187Y-61788D01*
X84113Y-61982D01*
X84002Y-62186D01*
X83937Y-62278D01*
X83863Y-62371D01*
X83854Y-62380D01*
X83844Y-62389D01*
X83817Y-62417D01*
X83780Y-62445D01*
X83743Y-62482D01*
X83687Y-62528D01*
X83622Y-62574D01*
X83548Y-62621D01*
X83465Y-62676D01*
X83363Y-62722D01*
X83262Y-62769D01*
X83151Y-62815D01*
X83021Y-62861D01*
X82892Y-62898D01*
X82753Y-62935D01*
X82596Y-62963D01*
X82605D01*
X82614Y-62972D01*
X82670Y-63009D01*
X82744Y-63055D01*
X82836Y-63120D01*
X82947Y-63203D01*
X83058Y-63287D01*
X83178Y-63388D01*
X83280Y-63499D01*
X83289Y-63508D01*
X83336Y-63555D01*
X83391Y-63629D01*
X83474Y-63740D01*
X83585Y-63879D01*
X83641Y-63971D01*
X83706Y-64064D01*
X83780Y-64165D01*
X83854Y-64276D01*
X83937Y-64406D01*
X84020Y-64535D01*
X84806Y-65784D01*
X83252D01*
X82327Y-64397D01*
X82318Y-64387D01*
X82309Y-64359D01*
X82281Y-64323D01*
X82244Y-64276D01*
X82207Y-64221D01*
X82161Y-64147D01*
X82059Y-63999D01*
X81939Y-63832D01*
X81828Y-63684D01*
X81726Y-63546D01*
X81680Y-63499D01*
X81643Y-63453D01*
X81634Y-63444D01*
X81615Y-63425D01*
X81578Y-63388D01*
X81532Y-63342D01*
X81467Y-63305D01*
X81402Y-63259D01*
X81328Y-63222D01*
X81254Y-63185D01*
X81245D01*
X81217Y-63175D01*
X81171Y-63157D01*
X81097Y-63148D01*
X81005Y-63129D01*
X80894Y-63120D01*
X80764Y-63111D01*
X80348D01*
Y-65784D01*
X79053D01*
Y-59383D01*
X81939D01*
X82022Y-59392D01*
D02*
G37*
G36*
X67102D02*
X67342D01*
X67601Y-59411D01*
X67860Y-59429D01*
X67971Y-59439D01*
X68082Y-59448D01*
X68175Y-59466D01*
X68249Y-59485D01*
X68258D01*
X68277Y-59494D01*
X68304Y-59503D01*
X68341Y-59513D01*
X68443Y-59559D01*
X68573Y-59614D01*
X68711Y-59698D01*
X68869Y-59808D01*
X69017Y-59947D01*
X69165Y-60114D01*
Y-60123D01*
X69183Y-60132D01*
X69202Y-60160D01*
X69220Y-60197D01*
X69257Y-60252D01*
X69285Y-60308D01*
X69322Y-60373D01*
X69359Y-60447D01*
X69424Y-60632D01*
X69488Y-60835D01*
X69525Y-61085D01*
X69544Y-61353D01*
Y-61362D01*
Y-61381D01*
Y-61409D01*
Y-61455D01*
X69535Y-61501D01*
Y-61566D01*
X69516Y-61695D01*
X69488Y-61853D01*
X69451Y-62028D01*
X69396Y-62195D01*
X69322Y-62352D01*
X69313Y-62371D01*
X69285Y-62417D01*
X69239Y-62491D01*
X69174Y-62584D01*
X69100Y-62676D01*
X68998Y-62787D01*
X68896Y-62889D01*
X68776Y-62981D01*
X68758Y-62990D01*
X68721Y-63018D01*
X68656Y-63055D01*
X68573Y-63102D01*
X68471Y-63157D01*
X68360Y-63203D01*
X68240Y-63249D01*
X68110Y-63287D01*
X68092D01*
X68064Y-63296D01*
X68027D01*
X67981Y-63305D01*
X67916Y-63314D01*
X67851Y-63323D01*
X67768D01*
X67685Y-63333D01*
X67583Y-63342D01*
X67472Y-63351D01*
X67352Y-63361D01*
X67222D01*
X67083Y-63370D01*
X65936D01*
Y-65784D01*
X64641D01*
Y-59383D01*
X67000D01*
X67102Y-59392D01*
D02*
G37*
G36*
X58675Y-59355D02*
X58758Y-59364D01*
X58851Y-59374D01*
X58953Y-59392D01*
X59064Y-59411D01*
X59304Y-59475D01*
X59545Y-59568D01*
X59674Y-59623D01*
X59785Y-59688D01*
X59905Y-59772D01*
X60007Y-59864D01*
X60016Y-59873D01*
X60035Y-59882D01*
X60053Y-59920D01*
X60090Y-59957D01*
X60137Y-60003D01*
X60183Y-60067D01*
X60229Y-60132D01*
X60285Y-60216D01*
X60377Y-60400D01*
X60470Y-60613D01*
X60507Y-60733D01*
X60525Y-60863D01*
X60544Y-61002D01*
X60553Y-61141D01*
Y-61159D01*
Y-61215D01*
X60544Y-61298D01*
X60534Y-61400D01*
X60516Y-61529D01*
X60488Y-61668D01*
X60451Y-61816D01*
X60396Y-61964D01*
X60386Y-61982D01*
X60368Y-62028D01*
X60331Y-62112D01*
X60275Y-62213D01*
X60211Y-62334D01*
X60127Y-62472D01*
X60026Y-62621D01*
X59905Y-62778D01*
X59896Y-62787D01*
X59859Y-62833D01*
X59804Y-62898D01*
X59720Y-62990D01*
X59609Y-63102D01*
X59471Y-63249D01*
X59304Y-63407D01*
X59101Y-63601D01*
X59091Y-63610D01*
X59073Y-63620D01*
X59045Y-63647D01*
X59008Y-63684D01*
X58906Y-63777D01*
X58786Y-63888D01*
X58666Y-64008D01*
X58546Y-64128D01*
X58435Y-64230D01*
X58398Y-64276D01*
X58361Y-64313D01*
X58351Y-64323D01*
X58333Y-64341D01*
X58305Y-64378D01*
X58268Y-64424D01*
X58185Y-64526D01*
X58111Y-64646D01*
X60553D01*
Y-65784D01*
X56252D01*
Y-65775D01*
Y-65756D01*
X56261Y-65719D01*
X56270Y-65673D01*
X56279Y-65618D01*
X56289Y-65553D01*
X56326Y-65386D01*
X56381Y-65201D01*
X56455Y-64998D01*
X56548Y-64776D01*
X56668Y-64563D01*
Y-64554D01*
X56686Y-64535D01*
X56705Y-64498D01*
X56742Y-64461D01*
X56779Y-64397D01*
X56834Y-64332D01*
X56899Y-64249D01*
X56973Y-64156D01*
X57056Y-64045D01*
X57158Y-63934D01*
X57269Y-63805D01*
X57399Y-63666D01*
X57537Y-63527D01*
X57695Y-63370D01*
X57861Y-63203D01*
X58046Y-63028D01*
X58055Y-63018D01*
X58083Y-62990D01*
X58120Y-62954D01*
X58176Y-62898D01*
X58250Y-62843D01*
X58324Y-62769D01*
X58490Y-62602D01*
X58657Y-62426D01*
X58823Y-62251D01*
X58897Y-62177D01*
X58971Y-62093D01*
X59027Y-62028D01*
X59064Y-61973D01*
X59073Y-61954D01*
X59101Y-61908D01*
X59147Y-61834D01*
X59193Y-61733D01*
X59239Y-61621D01*
X59286Y-61492D01*
X59313Y-61362D01*
X59323Y-61224D01*
Y-61215D01*
Y-61205D01*
Y-61159D01*
X59313Y-61076D01*
X59295Y-60983D01*
X59267Y-60882D01*
X59230Y-60780D01*
X59175Y-60678D01*
X59101Y-60585D01*
X59091Y-60576D01*
X59064Y-60549D01*
X59008Y-60511D01*
X58943Y-60474D01*
X58851Y-60438D01*
X58749Y-60400D01*
X58629Y-60373D01*
X58490Y-60364D01*
X58425D01*
X58351Y-60373D01*
X58268Y-60391D01*
X58166Y-60419D01*
X58065Y-60465D01*
X57963Y-60521D01*
X57870Y-60595D01*
X57861Y-60604D01*
X57833Y-60641D01*
X57796Y-60697D01*
X57759Y-60780D01*
X57713Y-60882D01*
X57676Y-61020D01*
X57639Y-61177D01*
X57621Y-61362D01*
X56400Y-61242D01*
Y-61233D01*
X56409Y-61196D01*
Y-61150D01*
X56427Y-61076D01*
X56437Y-60992D01*
X56464Y-60900D01*
X56492Y-60798D01*
X56520Y-60678D01*
X56612Y-60447D01*
X56723Y-60206D01*
X56797Y-60086D01*
X56881Y-59975D01*
X56973Y-59882D01*
X57075Y-59790D01*
X57084Y-59781D01*
X57103Y-59772D01*
X57130Y-59753D01*
X57177Y-59716D01*
X57232Y-59688D01*
X57306Y-59651D01*
X57380Y-59605D01*
X57473Y-59568D01*
X57574Y-59522D01*
X57685Y-59485D01*
X57926Y-59411D01*
X58213Y-59364D01*
X58361Y-59355D01*
X58518Y-59346D01*
X58610D01*
X58675Y-59355D01*
D02*
G37*
G36*
X53199Y-59392D02*
X53301D01*
X53403Y-59402D01*
X53523D01*
X53763Y-59429D01*
X54013Y-59457D01*
X54244Y-59503D01*
X54346Y-59531D01*
X54439Y-59559D01*
X54448D01*
X54457Y-59568D01*
X54513Y-59596D01*
X54596Y-59642D01*
X54707Y-59698D01*
X54827Y-59790D01*
X54947Y-59892D01*
X55068Y-60021D01*
X55179Y-60179D01*
Y-60188D01*
X55188Y-60197D01*
X55206Y-60225D01*
X55225Y-60252D01*
X55271Y-60345D01*
X55327Y-60465D01*
X55373Y-60613D01*
X55419Y-60780D01*
X55456Y-60974D01*
X55465Y-61177D01*
Y-61187D01*
Y-61205D01*
Y-61251D01*
X55456Y-61298D01*
Y-61362D01*
X55447Y-61427D01*
X55410Y-61594D01*
X55364Y-61788D01*
X55290Y-61982D01*
X55179Y-62186D01*
X55114Y-62278D01*
X55040Y-62371D01*
X55031Y-62380D01*
X55021Y-62389D01*
X54994Y-62417D01*
X54957Y-62445D01*
X54920Y-62482D01*
X54864Y-62528D01*
X54799Y-62574D01*
X54725Y-62621D01*
X54642Y-62676D01*
X54540Y-62722D01*
X54439Y-62769D01*
X54328Y-62815D01*
X54198Y-62861D01*
X54069Y-62898D01*
X53930Y-62935D01*
X53773Y-62963D01*
X53782D01*
X53791Y-62972D01*
X53847Y-63009D01*
X53921Y-63055D01*
X54013Y-63120D01*
X54124Y-63203D01*
X54235Y-63287D01*
X54355Y-63388D01*
X54457Y-63499D01*
X54466Y-63508D01*
X54513Y-63555D01*
X54568Y-63629D01*
X54651Y-63740D01*
X54762Y-63879D01*
X54818Y-63971D01*
X54883Y-64064D01*
X54957Y-64165D01*
X55031Y-64276D01*
X55114Y-64406D01*
X55197Y-64535D01*
X55983Y-65784D01*
X54429Y-65784D01*
X53504Y-64397D01*
X53495Y-64387D01*
X53486Y-64359D01*
X53458Y-64323D01*
X53421Y-64276D01*
X53384Y-64221D01*
X53338Y-64147D01*
X53236Y-63999D01*
X53116Y-63832D01*
X53005Y-63684D01*
X52903Y-63546D01*
X52857Y-63499D01*
X52820Y-63453D01*
X52811Y-63444D01*
X52792Y-63425D01*
X52755Y-63388D01*
X52709Y-63342D01*
X52644Y-63305D01*
X52579Y-63259D01*
X52505Y-63222D01*
X52431Y-63185D01*
X52422D01*
X52394Y-63175D01*
X52348Y-63157D01*
X52274Y-63148D01*
X52182Y-63129D01*
X52071Y-63120D01*
X51941Y-63111D01*
X51525D01*
Y-65784D01*
X50230D01*
Y-59383D01*
X53116D01*
X53199Y-59392D01*
D02*
G37*
G36*
X49009Y-60465D02*
X45559D01*
Y-61880D01*
X48768D01*
Y-62963D01*
X45559D01*
Y-64702D01*
X49129D01*
Y-65784D01*
X44264D01*
Y-59383D01*
X49009D01*
Y-60465D01*
D02*
G37*
G36*
X37604Y-65784D02*
X36207D01*
X35652Y-64332D01*
X33080D01*
X32553Y-65784D01*
X31184D01*
X33663Y-59383D01*
X35032D01*
X37604Y-65784D01*
D02*
G37*
G36*
X27697Y-64702D02*
X30916D01*
Y-65784D01*
X26402D01*
Y-59429D01*
X27697D01*
Y-64702D01*
D02*
G37*
G36*
X85990Y-59281D02*
X86009Y-59318D01*
X86046Y-59364D01*
X86092Y-59439D01*
X86148Y-59522D01*
X86212Y-59623D01*
X86277Y-59744D01*
X86351Y-59873D01*
X86434Y-60021D01*
X86518Y-60179D01*
X86601Y-60336D01*
X86684Y-60511D01*
X86851Y-60882D01*
X86999Y-61270D01*
Y-61279D01*
X87017Y-61316D01*
X87036Y-61372D01*
X87054Y-61455D01*
X87082Y-61547D01*
X87119Y-61659D01*
X87147Y-61788D01*
X87184Y-61936D01*
X87221Y-62084D01*
X87248Y-62251D01*
X87285Y-62436D01*
X87313Y-62621D01*
X87350Y-63000D01*
X87369Y-63407D01*
Y-63416D01*
Y-63444D01*
Y-63499D01*
Y-63564D01*
X87359Y-63647D01*
X87350Y-63749D01*
X87341Y-63869D01*
X87332Y-63999D01*
X87322Y-64138D01*
X87295Y-64285D01*
X87276Y-64452D01*
X87248Y-64618D01*
X87174Y-64979D01*
X87082Y-65368D01*
Y-65377D01*
X87063Y-65423D01*
X87045Y-65479D01*
X87017Y-65562D01*
X86980Y-65673D01*
X86934Y-65793D01*
X86888Y-65932D01*
X86823Y-66089D01*
X86749Y-66256D01*
X86675Y-66441D01*
X86582Y-66626D01*
X86490Y-66829D01*
X86379Y-67033D01*
X86268Y-67246D01*
X86148Y-67458D01*
X86009Y-67671D01*
X85158D01*
Y-67662D01*
X85176Y-67634D01*
X85195Y-67597D01*
X85213Y-67541D01*
X85250Y-67477D01*
X85278Y-67403D01*
X85361Y-67227D01*
X85445Y-67033D01*
X85528Y-66829D01*
X85602Y-66635D01*
X85667Y-66469D01*
Y-66459D01*
X85676Y-66450D01*
X85694Y-66395D01*
X85722Y-66311D01*
X85759Y-66200D01*
X85796Y-66062D01*
X85842Y-65895D01*
X85889Y-65719D01*
X85935Y-65525D01*
Y-65516D01*
X85944Y-65497D01*
Y-65469D01*
X85953Y-65433D01*
X85981Y-65331D01*
X86009Y-65192D01*
X86037Y-65035D01*
X86074Y-64859D01*
X86129Y-64498D01*
Y-64489D01*
Y-64480D01*
X86138Y-64452D01*
Y-64415D01*
X86148Y-64313D01*
X86166Y-64193D01*
X86175Y-64036D01*
X86185Y-63869D01*
X86194Y-63684D01*
Y-63499D01*
Y-63490D01*
Y-63453D01*
Y-63398D01*
Y-63323D01*
X86185Y-63231D01*
Y-63120D01*
X86175Y-63000D01*
X86166Y-62861D01*
X86157Y-62713D01*
X86138Y-62556D01*
X86092Y-62223D01*
X86037Y-61880D01*
X85963Y-61529D01*
Y-61520D01*
X85953Y-61483D01*
X85935Y-61436D01*
X85916Y-61362D01*
X85898Y-61270D01*
X85861Y-61168D01*
X85824Y-61039D01*
X85778Y-60900D01*
X85722Y-60743D01*
X85667Y-60567D01*
X85602Y-60382D01*
X85528Y-60188D01*
X85445Y-59975D01*
X85352Y-59753D01*
X85260Y-59513D01*
X85149Y-59272D01*
X85981D01*
X85990Y-59281D01*
D02*
G37*
G36*
X63689Y-59290D02*
X63670Y-59328D01*
X63642Y-59402D01*
X63605Y-59494D01*
X63550Y-59605D01*
X63494Y-59744D01*
X63439Y-59892D01*
X63374Y-60049D01*
X63300Y-60225D01*
X63235Y-60410D01*
X63097Y-60789D01*
X62976Y-61168D01*
X62921Y-61353D01*
X62875Y-61529D01*
Y-61538D01*
X62865Y-61566D01*
X62856Y-61621D01*
X62838Y-61686D01*
X62819Y-61779D01*
X62801Y-61880D01*
X62782Y-61992D01*
X62764Y-62121D01*
X62745Y-62260D01*
X62727Y-62417D01*
X62708Y-62574D01*
X62690Y-62750D01*
X62662Y-63111D01*
X62653Y-63499D01*
Y-63508D01*
Y-63527D01*
Y-63573D01*
Y-63620D01*
Y-63684D01*
X62662Y-63767D01*
Y-63851D01*
X62671Y-63952D01*
X62680Y-64174D01*
X62708Y-64424D01*
X62736Y-64692D01*
X62782Y-64970D01*
Y-64979D01*
X62791Y-65007D01*
Y-65044D01*
X62810Y-65100D01*
X62819Y-65164D01*
X62838Y-65238D01*
X62856Y-65331D01*
X62875Y-65423D01*
X62930Y-65645D01*
X62986Y-65886D01*
X63060Y-66136D01*
X63143Y-66385D01*
Y-66395D01*
X63152Y-66404D01*
X63161Y-66431D01*
X63171Y-66469D01*
X63189Y-66515D01*
X63217Y-66570D01*
X63235Y-66635D01*
X63272Y-66709D01*
X63309Y-66802D01*
X63346Y-66894D01*
X63393Y-66996D01*
X63439Y-67116D01*
X63494Y-67236D01*
X63550Y-67375D01*
X63615Y-67514D01*
X63689Y-67671D01*
X62847D01*
X62838Y-67662D01*
X62819Y-67625D01*
X62782Y-67569D01*
X62736Y-67495D01*
X62680Y-67403D01*
X62616Y-67292D01*
X62542Y-67162D01*
X62468Y-67023D01*
X62384Y-66875D01*
X62301Y-66709D01*
X62218Y-66533D01*
X62125Y-66357D01*
X61968Y-65969D01*
X61820Y-65571D01*
Y-65562D01*
X61802Y-65525D01*
X61792Y-65460D01*
X61765Y-65386D01*
X61737Y-65285D01*
X61709Y-65174D01*
X61681Y-65044D01*
X61654Y-64905D01*
X61617Y-64748D01*
X61589Y-64582D01*
X61533Y-64230D01*
X61496Y-63851D01*
X61478Y-63472D01*
Y-63453D01*
Y-63416D01*
Y-63351D01*
X61487Y-63259D01*
Y-63148D01*
X61496Y-63009D01*
X61515Y-62861D01*
X61533Y-62695D01*
X61552Y-62519D01*
X61580Y-62334D01*
X61654Y-61927D01*
X61765Y-61510D01*
X61829Y-61298D01*
X61903Y-61085D01*
Y-61076D01*
X61922Y-61039D01*
X61940Y-60992D01*
X61968Y-60918D01*
X62005Y-60835D01*
X62051Y-60733D01*
X62107Y-60613D01*
X62162Y-60493D01*
X62227Y-60354D01*
X62301Y-60216D01*
X62458Y-59910D01*
X62653Y-59587D01*
X62856Y-59272D01*
X63698D01*
X63689Y-59290D01*
D02*
G37*
%LPC*%
G36*
X103041Y75249D02*
X102534Y75148D01*
X102104Y74860D01*
X101817Y74430D01*
X101716Y73923D01*
X101817Y73416D01*
X102104Y72986D01*
X102534Y72698D01*
X103041Y72598D01*
X103549Y72698D01*
X103979Y72986D01*
X104266Y73416D01*
X104367Y73923D01*
X104266Y74430D01*
X103979Y74860D01*
X103549Y75148D01*
X103041Y75249D01*
D02*
G37*
G36*
X63594Y77841D02*
X60992D01*
X60991Y77840D01*
X60991Y77839D01*
Y69766D01*
X60991Y69765D01*
X60992Y69764D01*
X63594D01*
X63595Y69765D01*
X63595Y69766D01*
Y77839D01*
X63595Y77840D01*
X63594Y77841D01*
D02*
G37*
G36*
X59657D02*
X57055D01*
X57054Y77840D01*
X57054Y77839D01*
Y69766D01*
X57054Y69765D01*
X57055Y69764D01*
X59657D01*
X59658Y69765D01*
X59658Y69766D01*
Y77839D01*
X59658Y77840D01*
X59657Y77841D01*
D02*
G37*
G36*
X51783D02*
X49181D01*
X49180Y77840D01*
X49180Y77839D01*
Y69766D01*
X49180Y69765D01*
X49181Y69764D01*
X51783D01*
X51784Y69765D01*
X51784Y69766D01*
Y77839D01*
X51784Y77840D01*
X51783Y77841D01*
D02*
G37*
G36*
X47846D02*
X45244D01*
X45243Y77840D01*
X45243Y77839D01*
Y69766D01*
X45243Y69765D01*
X45244Y69764D01*
X47846D01*
X47847Y69765D01*
X47847Y69766D01*
Y77839D01*
X47847Y77840D01*
X47846Y77841D01*
D02*
G37*
G36*
X39972D02*
X37370D01*
X37369Y77840D01*
X37369Y77839D01*
Y69766D01*
X37369Y69765D01*
X37370Y69764D01*
X39972D01*
X39973Y69765D01*
X39973Y69766D01*
Y77839D01*
X39973Y77840D01*
X39972Y77841D01*
D02*
G37*
G36*
X36035D02*
X33433D01*
X33432Y77840D01*
X33432Y77839D01*
Y69766D01*
X33432Y69765D01*
X33433Y69764D01*
X36035D01*
X36036Y69765D01*
X36036Y69766D01*
Y77839D01*
X36036Y77840D01*
X36035Y77841D01*
D02*
G37*
G36*
X98677Y71794D02*
X98170Y71693D01*
X97740Y71406D01*
X97453Y70976D01*
X97352Y70468D01*
X97453Y69961D01*
X97740Y69531D01*
X98170Y69244D01*
X98273Y69223D01*
Y68714D01*
X98170Y68693D01*
X97740Y68406D01*
X97453Y67976D01*
X97352Y67469D01*
X97453Y66961D01*
X97740Y66531D01*
X98170Y66244D01*
X98677Y66143D01*
X99184Y66244D01*
X99614Y66531D01*
X99902Y66961D01*
X100003Y67469D01*
X99902Y67976D01*
X99614Y68406D01*
X99184Y68693D01*
X99081Y68714D01*
Y69223D01*
X99184Y69244D01*
X99614Y69531D01*
X99902Y69961D01*
X100003Y70468D01*
X99902Y70976D01*
X99614Y71406D01*
X99184Y71693D01*
X98677Y71794D01*
D02*
G37*
G36*
X29977Y60001D02*
X29977Y60001D01*
X29977Y60001D01*
X29802Y59993D01*
X29802Y59993D01*
X29802Y59993D01*
X29629Y59971D01*
X29629Y59971D01*
X29629Y59971D01*
X29459Y59934D01*
X29459Y59934D01*
X29459D01*
X29293Y59881D01*
X29293Y59881D01*
X29293D01*
X29131Y59815D01*
X29131Y59815D01*
X29131Y59814D01*
X28977Y59733D01*
X28977Y59733D01*
X28977Y59733D01*
X28829Y59639D01*
X28829Y59639D01*
X28828Y59639D01*
X28690Y59533D01*
X28690Y59533D01*
X28690Y59533D01*
X28561Y59415D01*
X28561Y59415D01*
X28561Y59415D01*
X28444Y59285D01*
X28444Y59285D01*
X28444Y59285D01*
X28337Y59148D01*
X28337Y59148D01*
X28337Y59148D01*
X28244Y59000D01*
X28244Y59000D01*
X28244Y59000D01*
X28163Y58845D01*
Y58845D01*
X28163Y58845D01*
X28096Y58684D01*
Y58684D01*
X28096Y58684D01*
X28044Y58518D01*
Y58518D01*
X28044Y58518D01*
X28006Y58348D01*
X28006Y58348D01*
X28006Y58348D01*
X27983Y58175D01*
X27983Y58175D01*
X27983Y58175D01*
X27976Y57999D01*
X27976Y57999D01*
X27976Y57999D01*
Y54194D01*
X27976Y54194D01*
X27976Y54194D01*
X27983Y54019D01*
X27983Y54019D01*
X27983Y54019D01*
X28006Y53847D01*
X28006Y53847D01*
X28006Y53847D01*
X28044Y53676D01*
X28044Y53676D01*
X28044Y53676D01*
X28096Y53510D01*
X28096Y53510D01*
Y53510D01*
X28163Y53349D01*
X28163Y53349D01*
Y53349D01*
X28244Y53194D01*
X28244Y53194D01*
X28244Y53194D01*
X28337Y53048D01*
X28337Y53048D01*
X28337Y53048D01*
X28444Y52908D01*
X28444Y52908D01*
X28444Y52908D01*
X28561Y52781D01*
X28561Y52781D01*
X28561Y52781D01*
X28690Y52663D01*
X28690Y52663D01*
X28690Y52663D01*
X28828Y52556D01*
X28829Y52556D01*
X28829Y52556D01*
X28977Y52463D01*
X28977Y52463D01*
X28977Y52463D01*
X29131Y52381D01*
X29131D01*
X29131Y52381D01*
X29293Y52315D01*
X29293D01*
X29293Y52315D01*
X29459Y52263D01*
X29459D01*
X29459Y52263D01*
X29629Y52223D01*
X29629Y52223D01*
X29629Y52223D01*
X29802Y52200D01*
X29802Y52200D01*
X29802Y52200D01*
X29977Y52193D01*
X29977Y52193D01*
X29977Y52193D01*
X30151Y52200D01*
X30151Y52200D01*
X30151Y52200D01*
X30324Y52223D01*
X30324Y52223D01*
X30324Y52223D01*
X30494Y52263D01*
X30494Y52263D01*
X30494D01*
X30661Y52315D01*
X30662Y52315D01*
X30662D01*
X30823Y52381D01*
X30823Y52381D01*
X30823D01*
X30978Y52463D01*
X30978Y52463D01*
X30978Y52463D01*
X31125Y52556D01*
X31125Y52556D01*
X31125Y52556D01*
X31263Y52663D01*
X31263Y52663D01*
X31263Y52663D01*
X31392Y52781D01*
X31392Y52781D01*
X31392Y52781D01*
X31510Y52908D01*
X31510Y52908D01*
X31510Y52908D01*
X31616Y53048D01*
X31616Y53048D01*
X31616Y53048D01*
X31710Y53194D01*
X31710Y53194D01*
X31710Y53194D01*
X31790Y53349D01*
Y53349D01*
X31790Y53349D01*
X31857Y53510D01*
Y53510D01*
X31857Y53510D01*
X31909Y53676D01*
X31909Y53676D01*
X31909Y53676D01*
X31947Y53847D01*
X31947Y53847D01*
X31947Y53847D01*
X31970Y54019D01*
X31970Y54019D01*
X31970Y54019D01*
X31978Y54194D01*
X31978Y54194D01*
X31978Y54194D01*
Y57999D01*
X31978Y57999D01*
X31978Y57999D01*
X31970Y58175D01*
X31970Y58175D01*
X31970Y58175D01*
X31947Y58348D01*
X31947Y58348D01*
X31947Y58348D01*
X31909Y58518D01*
X31909Y58518D01*
X31909Y58518D01*
X31857Y58684D01*
X31857Y58684D01*
Y58684D01*
X31790Y58845D01*
X31790Y58845D01*
Y58845D01*
X31710Y59000D01*
X31710Y59000D01*
X31710Y59000D01*
X31616Y59148D01*
X31616Y59148D01*
X31616Y59148D01*
X31510Y59285D01*
X31510Y59285D01*
X31510Y59285D01*
X31392Y59415D01*
X31392Y59415D01*
X31392Y59415D01*
X31263Y59533D01*
X31263Y59533D01*
X31263Y59533D01*
X31125Y59639D01*
X31125Y59639D01*
X31125Y59639D01*
X30978Y59733D01*
X30978Y59733D01*
X30978Y59733D01*
X30823Y59815D01*
X30823D01*
X30823Y59815D01*
X30662Y59881D01*
X30662D01*
X30661Y59881D01*
X30494Y59934D01*
X30494D01*
X30494Y59934D01*
X30324Y59971D01*
X30324Y59971D01*
X30324Y59971D01*
X30151Y59993D01*
X30151Y59993D01*
X30151Y59993D01*
X29977Y60001D01*
D02*
G37*
G36*
X83085Y54856D02*
X83085Y54856D01*
X83085Y54856D01*
X82911Y54849D01*
X82911Y54849D01*
X82911Y54849D01*
X82738Y54827D01*
X82738Y54826D01*
X82738Y54826D01*
X82568Y54787D01*
X82568Y54787D01*
X82568D01*
X82401Y54737D01*
X82401Y54737D01*
X82401D01*
X82240Y54669D01*
X82240Y54669D01*
X82240Y54669D01*
X82085Y54588D01*
X82085Y54587D01*
X82085Y54587D01*
X81938Y54495D01*
X81938Y54495D01*
X81937Y54495D01*
X81800Y54387D01*
X81800Y54387D01*
X81800Y54387D01*
X81670Y54270D01*
X81670Y54270D01*
X81670Y54270D01*
X81552Y54142D01*
X81552Y54142D01*
X81552Y54142D01*
X81446Y54003D01*
X81446Y54003D01*
X81446Y54003D01*
X81352Y53855D01*
X81352Y53855D01*
X81352Y53855D01*
X81272Y53702D01*
Y53702D01*
X81272Y53702D01*
X81205Y53539D01*
Y53539D01*
X81205Y53539D01*
X81153Y53373D01*
Y53373D01*
X81153Y53373D01*
X81115Y53203D01*
X81115Y53203D01*
X81115Y53203D01*
X81092Y53030D01*
X81092Y53030D01*
X81092Y53030D01*
X81084Y52855D01*
X81084Y52855D01*
X81084Y52855D01*
Y49051D01*
X81084Y49051D01*
X81084Y49051D01*
X81092Y48876D01*
X81092Y48876D01*
X81092Y48876D01*
X81115Y48702D01*
X81115Y48702D01*
X81115Y48702D01*
X81153Y48532D01*
X81153Y48532D01*
X81153Y48532D01*
X81205Y48366D01*
X81205Y48366D01*
Y48366D01*
X81272Y48204D01*
X81272Y48204D01*
Y48204D01*
X81352Y48050D01*
X81352Y48050D01*
X81352Y48050D01*
X81446Y47902D01*
X81446Y47902D01*
X81446Y47902D01*
X81552Y47764D01*
X81552Y47764D01*
X81552Y47764D01*
X81670Y47636D01*
X81670Y47636D01*
X81670Y47636D01*
X81800Y47518D01*
X81800Y47518D01*
X81800Y47518D01*
X81937Y47411D01*
X81938Y47411D01*
X81938Y47411D01*
X82085Y47318D01*
X82085Y47318D01*
X82085Y47317D01*
X82240Y47236D01*
X82240Y47236D01*
X82240Y47236D01*
X82401Y47170D01*
X82401D01*
X82401Y47170D01*
X82568Y47117D01*
X82568D01*
X82568Y47117D01*
X82738Y47078D01*
X82738Y47078D01*
X82738Y47078D01*
X82911Y47057D01*
X82911Y47057D01*
X82911Y47057D01*
X83085Y47049D01*
X83085Y47049D01*
X83085Y47049D01*
X83260Y47057D01*
X83260Y47057D01*
X83260Y47057D01*
X83433Y47078D01*
X83433Y47078D01*
X83433Y47078D01*
X83603Y47117D01*
X83604Y47117D01*
X83604Y47117D01*
X83770Y47170D01*
X83770Y47170D01*
X83770D01*
X83932Y47236D01*
X83932Y47236D01*
X83932Y47236D01*
X84086Y47317D01*
X84086Y47318D01*
X84086Y47318D01*
X84234Y47411D01*
X84234Y47411D01*
X84234Y47411D01*
X84372Y47518D01*
X84372Y47518D01*
X84372Y47518D01*
X84501Y47636D01*
X84501Y47636D01*
X84501Y47636D01*
X84618Y47764D01*
X84618Y47764D01*
X84618Y47764D01*
X84725Y47902D01*
X84725Y47902D01*
X84725Y47902D01*
X84818Y48050D01*
X84818Y48050D01*
X84818Y48050D01*
X84899Y48204D01*
Y48204D01*
X84899Y48204D01*
X84966Y48366D01*
Y48366D01*
X84966Y48366D01*
X85018Y48532D01*
Y48532D01*
X85018Y48532D01*
X85056Y48702D01*
X85056Y48702D01*
X85056Y48702D01*
X85079Y48876D01*
X85079Y48876D01*
X85079Y48877D01*
X85086Y49051D01*
X85086Y49051D01*
X85086Y49051D01*
Y52855D01*
X85086Y52855D01*
X85086Y52855D01*
X85079Y53030D01*
X85079Y53030D01*
X85079Y53030D01*
X85056Y53203D01*
X85056Y53203D01*
X85056Y53203D01*
X85018Y53373D01*
X85018Y53373D01*
X85018Y53373D01*
X84966Y53539D01*
X84966Y53539D01*
Y53539D01*
X84899Y53702D01*
X84899Y53702D01*
Y53702D01*
X84818Y53855D01*
X84818Y53855D01*
X84818Y53855D01*
X84725Y54003D01*
X84725Y54003D01*
X84725Y54003D01*
X84618Y54142D01*
X84618Y54142D01*
X84618Y54142D01*
X84501Y54270D01*
X84501Y54270D01*
X84501Y54270D01*
X84372Y54387D01*
X84372Y54387D01*
X84372Y54387D01*
X84234Y54495D01*
X84234Y54495D01*
X84234Y54495D01*
X84086Y54587D01*
X84086Y54587D01*
X84086Y54588D01*
X83932Y54669D01*
X83932Y54669D01*
X83932Y54669D01*
X83770Y54737D01*
X83770D01*
X83770Y54737D01*
X83604Y54787D01*
X83604D01*
X83603Y54787D01*
X83433Y54826D01*
X83433Y54826D01*
X83433Y54827D01*
X83260Y54849D01*
X83260Y54849D01*
X83260Y54849D01*
X83085Y54856D01*
D02*
G37*
G36*
X40385Y49520D02*
X40385Y49520D01*
X40385Y49520D01*
X40210Y49512D01*
X40210Y49512D01*
X40210Y49512D01*
X40037Y49490D01*
X40037Y49490D01*
X40037Y49490D01*
X39867Y49453D01*
X39867Y49452D01*
X39867D01*
X39701Y49400D01*
X39701Y49400D01*
X39701D01*
X39539Y49334D01*
X39539Y49334D01*
X39539Y49333D01*
X39385Y49253D01*
X39385Y49252D01*
X39385Y49252D01*
X39237Y49158D01*
X39237Y49158D01*
X39237Y49158D01*
X39099Y49052D01*
X39099Y49052D01*
X39099Y49052D01*
X38969Y48934D01*
X38969Y48934D01*
X38969Y48934D01*
X38852Y48804D01*
X38852Y48804D01*
X38852Y48804D01*
X38745Y48667D01*
X38745Y48667D01*
X38745Y48667D01*
X38652Y48519D01*
X38652Y48519D01*
X38652Y48519D01*
X38571Y48364D01*
Y48364D01*
X38571Y48364D01*
X38504Y48203D01*
Y48203D01*
X38504Y48203D01*
X38452Y48037D01*
Y48037D01*
X38452Y48037D01*
X38414Y47867D01*
X38414Y47867D01*
X38414Y47867D01*
X38391Y47694D01*
X38391Y47694D01*
X38391Y47693D01*
X38384Y47519D01*
X38384Y47519D01*
X38384Y47519D01*
Y43714D01*
X38384Y43714D01*
X38384Y43714D01*
X38391Y43538D01*
X38391Y43538D01*
X38391Y43538D01*
X38414Y43366D01*
X38414Y43366D01*
X38414Y43366D01*
X38452Y43195D01*
X38452Y43195D01*
X38452Y43195D01*
X38504Y43029D01*
X38504Y43029D01*
Y43029D01*
X38571Y42868D01*
X38571Y42868D01*
Y42868D01*
X38652Y42713D01*
X38652Y42713D01*
X38652Y42713D01*
X38745Y42567D01*
X38745Y42567D01*
X38745Y42567D01*
X38852Y42427D01*
X38852Y42427D01*
X38852Y42427D01*
X38969Y42300D01*
X38969Y42300D01*
X38969Y42300D01*
X39099Y42182D01*
X39099Y42182D01*
X39099Y42182D01*
X39237Y42075D01*
X39237Y42075D01*
X39237Y42075D01*
X39385Y41982D01*
X39385Y41982D01*
X39385Y41982D01*
X39539Y41901D01*
X39539D01*
X39539Y41901D01*
X39701Y41833D01*
X39701D01*
X39701Y41833D01*
X39867Y41781D01*
X39867D01*
X39867Y41781D01*
X40037Y41743D01*
X40037Y41743D01*
X40037Y41742D01*
X40210Y41719D01*
X40210Y41719D01*
X40210Y41719D01*
X40385Y41712D01*
X40385Y41712D01*
X40385Y41712D01*
X40559Y41719D01*
X40559Y41719D01*
X40559Y41719D01*
X40732Y41742D01*
X40732Y41743D01*
X40732Y41743D01*
X40902Y41781D01*
X40903Y41781D01*
X40903D01*
X41069Y41833D01*
X41070Y41833D01*
X41070D01*
X41231Y41901D01*
X41231Y41901D01*
X41231D01*
X41386Y41982D01*
X41386Y41982D01*
X41386Y41982D01*
X41533Y42075D01*
X41533Y42075D01*
X41533Y42075D01*
X41671Y42182D01*
X41671Y42182D01*
X41671Y42182D01*
X41800Y42300D01*
X41800Y42300D01*
X41800Y42300D01*
X41918Y42427D01*
X41918Y42427D01*
X41918Y42427D01*
X42024Y42567D01*
X42024Y42567D01*
X42024Y42567D01*
X42118Y42713D01*
X42118Y42713D01*
X42118Y42713D01*
X42198Y42868D01*
Y42868D01*
X42198Y42868D01*
X42265Y43029D01*
Y43029D01*
X42265Y43029D01*
X42317Y43195D01*
X42317Y43195D01*
X42317Y43195D01*
X42355Y43366D01*
X42355Y43366D01*
X42355Y43366D01*
X42378Y43538D01*
X42378Y43538D01*
X42378Y43538D01*
X42386Y43714D01*
X42386Y43714D01*
X42386Y43714D01*
Y47519D01*
X42386Y47519D01*
X42386Y47519D01*
X42378Y47693D01*
X42378Y47694D01*
X42378Y47694D01*
X42355Y47867D01*
X42355Y47867D01*
X42355Y47867D01*
X42317Y48037D01*
X42317Y48037D01*
X42317Y48037D01*
X42265Y48203D01*
X42265Y48203D01*
Y48203D01*
X42198Y48364D01*
X42198Y48364D01*
Y48364D01*
X42118Y48519D01*
X42118Y48519D01*
X42118Y48519D01*
X42024Y48667D01*
X42024Y48667D01*
X42024Y48667D01*
X41918Y48804D01*
X41918Y48804D01*
X41918Y48804D01*
X41800Y48934D01*
X41800Y48934D01*
X41800Y48934D01*
X41671Y49052D01*
X41671Y49052D01*
X41671Y49052D01*
X41533Y49158D01*
X41533Y49158D01*
X41533Y49158D01*
X41386Y49252D01*
X41386Y49252D01*
X41386Y49253D01*
X41231Y49334D01*
X41231D01*
X41231Y49334D01*
X41070Y49400D01*
X41070D01*
X41069Y49400D01*
X40903Y49452D01*
X40903D01*
X40902Y49453D01*
X40732Y49490D01*
X40732Y49490D01*
X40732Y49490D01*
X40559Y49512D01*
X40559Y49512D01*
X40559Y49512D01*
X40385Y49520D01*
D02*
G37*
G36*
X71485Y49356D02*
X71485Y49356D01*
X71485Y49356D01*
X71311Y49349D01*
X71311Y49349D01*
X71311Y49349D01*
X71138Y49327D01*
X71138Y49327D01*
X71138Y49327D01*
X70968Y49288D01*
X70968Y49288D01*
X70968D01*
X70801Y49237D01*
X70801Y49237D01*
X70801D01*
X70640Y49169D01*
X70640Y49169D01*
X70640Y49169D01*
X70485Y49088D01*
X70485Y49087D01*
X70485Y49087D01*
X70338Y48995D01*
X70338Y48995D01*
X70337Y48995D01*
X70200Y48887D01*
X70200Y48887D01*
X70200Y48887D01*
X70070Y48770D01*
X70070Y48770D01*
X70070Y48770D01*
X69952Y48642D01*
X69952Y48642D01*
X69952Y48642D01*
X69846Y48503D01*
X69846Y48503D01*
X69846Y48503D01*
X69752Y48355D01*
X69752Y48355D01*
X69752Y48355D01*
X69672Y48202D01*
Y48202D01*
X69672Y48202D01*
X69605Y48039D01*
Y48039D01*
X69605Y48039D01*
X69553Y47873D01*
Y47873D01*
X69553Y47873D01*
X69515Y47703D01*
X69515Y47703D01*
X69515Y47703D01*
X69492Y47530D01*
X69492Y47530D01*
X69492Y47530D01*
X69484Y47355D01*
X69484Y47355D01*
X69484Y47355D01*
Y43551D01*
X69484Y43551D01*
X69484Y43551D01*
X69492Y43376D01*
X69492Y43376D01*
X69492Y43376D01*
X69515Y43202D01*
X69515Y43202D01*
X69515Y43202D01*
X69553Y43032D01*
X69553Y43032D01*
X69553Y43032D01*
X69605Y42866D01*
X69605Y42866D01*
Y42866D01*
X69672Y42704D01*
X69672Y42704D01*
Y42704D01*
X69752Y42550D01*
X69752Y42550D01*
X69752Y42550D01*
X69846Y42402D01*
X69846Y42402D01*
X69846Y42402D01*
X69952Y42264D01*
X69952Y42264D01*
X69952Y42264D01*
X70070Y42136D01*
X70070Y42136D01*
X70070Y42136D01*
X70200Y42018D01*
X70200Y42018D01*
X70200Y42018D01*
X70337Y41911D01*
X70338Y41911D01*
X70338Y41911D01*
X70485Y41818D01*
X70485Y41818D01*
X70485Y41818D01*
X70640Y41736D01*
X70640Y41736D01*
X70640Y41736D01*
X70801Y41669D01*
X70801D01*
X70801Y41669D01*
X70968Y41618D01*
X70968D01*
X70968Y41618D01*
X71138Y41578D01*
X71138Y41579D01*
X71138Y41578D01*
X71311Y41557D01*
X71311Y41557D01*
X71311Y41557D01*
X71485Y41549D01*
X71485Y41549D01*
X71485Y41549D01*
X71660Y41557D01*
X71660Y41557D01*
X71660Y41557D01*
X71833Y41578D01*
X71833Y41579D01*
X71833Y41578D01*
X72003Y41618D01*
X72004Y41618D01*
X72004Y41618D01*
X72170Y41669D01*
X72170Y41669D01*
X72170D01*
X72332Y41736D01*
X72332Y41736D01*
X72332Y41736D01*
X72486Y41818D01*
X72486Y41818D01*
X72486Y41818D01*
X72634Y41911D01*
X72634Y41911D01*
X72634Y41911D01*
X72772Y42018D01*
X72772Y42018D01*
X72772Y42018D01*
X72901Y42136D01*
X72901Y42136D01*
X72901Y42136D01*
X73018Y42264D01*
X73018Y42264D01*
X73018Y42264D01*
X73125Y42402D01*
X73125Y42402D01*
X73125Y42402D01*
X73218Y42550D01*
X73218Y42550D01*
X73218Y42550D01*
X73299Y42704D01*
Y42704D01*
X73299Y42704D01*
X73366Y42866D01*
Y42866D01*
X73366Y42866D01*
X73418Y43032D01*
Y43032D01*
X73418Y43032D01*
X73456Y43202D01*
X73456Y43202D01*
X73456Y43202D01*
X73479Y43376D01*
X73479Y43376D01*
X73479Y43376D01*
X73486Y43551D01*
X73486Y43551D01*
X73486Y43551D01*
Y47355D01*
X73486Y47355D01*
X73486Y47355D01*
X73479Y47530D01*
X73479Y47530D01*
X73479Y47530D01*
X73456Y47703D01*
X73456Y47703D01*
X73456Y47703D01*
X73418Y47873D01*
X73418Y47873D01*
X73418Y47873D01*
X73366Y48039D01*
X73366Y48039D01*
Y48039D01*
X73299Y48202D01*
X73299Y48202D01*
Y48202D01*
X73218Y48355D01*
X73218Y48355D01*
X73218Y48355D01*
X73125Y48503D01*
X73125Y48503D01*
X73125Y48503D01*
X73018Y48642D01*
X73018Y48642D01*
X73018Y48642D01*
X72901Y48770D01*
X72901Y48770D01*
X72901Y48770D01*
X72772Y48887D01*
X72772Y48887D01*
X72772Y48887D01*
X72634Y48995D01*
X72634Y48995D01*
X72634Y48995D01*
X72486Y49087D01*
X72486Y49087D01*
X72486Y49088D01*
X72332Y49169D01*
X72332Y49169D01*
X72332Y49169D01*
X72170Y49237D01*
X72170D01*
X72170Y49237D01*
X72004Y49288D01*
X72004D01*
X72003Y49288D01*
X71833Y49327D01*
X71833Y49327D01*
X71833Y49327D01*
X71660Y49349D01*
X71660Y49349D01*
X71660Y49349D01*
X71485Y49356D01*
D02*
G37*
G36*
X95691Y51371D02*
X95184Y51270D01*
X94754Y50982D01*
X94467Y50552D01*
X94366Y50045D01*
X94467Y49538D01*
X94754Y49108D01*
X95184Y48821D01*
X95691Y48720D01*
X96199Y48821D01*
X96629Y49108D01*
X96916Y49538D01*
X97017Y50045D01*
X96916Y50552D01*
X96629Y50982D01*
X96199Y51270D01*
X95691Y51371D01*
D02*
G37*
G36*
X102500Y51326D02*
X101993Y51225D01*
X101563Y50937D01*
X101275Y50507D01*
X101174Y50000D01*
X101275Y49493D01*
X101563Y49063D01*
X101993Y48775D01*
X102500Y48674D01*
X103007Y48775D01*
X103437Y49063D01*
X103725Y49493D01*
X103825Y50000D01*
X103725Y50507D01*
X103437Y50937D01*
X103007Y51225D01*
X102500Y51326D01*
D02*
G37*
G36*
X51383Y42223D02*
X51383Y42223D01*
X51383Y42223D01*
X51208Y42215D01*
X51208Y42215D01*
X51208Y42215D01*
X51035Y42193D01*
X51035Y42193D01*
X51035Y42193D01*
X50865Y42156D01*
X50865Y42156D01*
X50865D01*
X50699Y42103D01*
X50699Y42103D01*
X50699D01*
X50537Y42037D01*
X50537Y42037D01*
X50537Y42037D01*
X50383Y41956D01*
X50383Y41955D01*
X50383Y41955D01*
X50235Y41861D01*
X50235Y41861D01*
X50235Y41861D01*
X50096Y41755D01*
X50096Y41755D01*
X50096Y41755D01*
X49968Y41637D01*
X49967Y41637D01*
X49967Y41637D01*
X49850Y41507D01*
X49850Y41507D01*
X49850Y41507D01*
X49743Y41370D01*
X49743Y41370D01*
X49743Y41370D01*
X49650Y41222D01*
X49650Y41222D01*
X49650Y41222D01*
X49569Y41067D01*
Y41067D01*
X49569Y41067D01*
X49502Y40906D01*
Y40906D01*
X49502Y40906D01*
X49450Y40740D01*
Y40740D01*
X49450Y40740D01*
X49412Y40570D01*
X49412Y40570D01*
X49412Y40570D01*
X49389Y40397D01*
X49389Y40397D01*
X49389Y40396D01*
X49382Y40222D01*
X49382Y40222D01*
X49382Y40222D01*
Y36417D01*
X49382Y36417D01*
X49382Y36417D01*
X49389Y36241D01*
X49389Y36241D01*
X49389Y36241D01*
X49412Y36069D01*
X49412Y36069D01*
X49412Y36069D01*
X49450Y35898D01*
X49450Y35898D01*
X49450Y35898D01*
X49502Y35732D01*
X49502Y35732D01*
Y35732D01*
X49569Y35571D01*
X49569Y35571D01*
Y35571D01*
X49650Y35416D01*
X49650Y35416D01*
X49650Y35416D01*
X49743Y35270D01*
X49743Y35270D01*
X49743Y35270D01*
X49850Y35130D01*
X49850Y35130D01*
X49850Y35130D01*
X49967Y35003D01*
X49968Y35003D01*
X49968Y35003D01*
X50096Y34885D01*
X50096Y34885D01*
X50096Y34885D01*
X50235Y34778D01*
X50235Y34778D01*
X50235Y34778D01*
X50383Y34685D01*
X50383Y34685D01*
X50383Y34685D01*
X50537Y34604D01*
X50537D01*
X50537Y34604D01*
X50699Y34536D01*
X50699D01*
X50699Y34536D01*
X50865Y34484D01*
X50865D01*
X50865Y34484D01*
X51035Y34445D01*
X51035Y34446D01*
X51035Y34445D01*
X51208Y34422D01*
X51208Y34422D01*
X51208Y34422D01*
X51383Y34415D01*
X51383Y34415D01*
X51383Y34415D01*
X51557Y34422D01*
X51557Y34422D01*
X51557Y34422D01*
X51730Y34445D01*
X51730Y34446D01*
X51730Y34445D01*
X51900Y34484D01*
X51901Y34484D01*
X51901D01*
X52068Y34536D01*
X52068Y34536D01*
X52068D01*
X52229Y34604D01*
X52229Y34604D01*
X52229D01*
X52384Y34685D01*
X52384Y34685D01*
X52384Y34685D01*
X52531Y34778D01*
X52531Y34778D01*
X52531Y34778D01*
X52669Y34885D01*
X52669Y34885D01*
X52669Y34885D01*
X52798Y35003D01*
X52798Y35003D01*
X52798Y35003D01*
X52916Y35130D01*
X52916Y35130D01*
X52916Y35130D01*
X53022Y35270D01*
X53022Y35270D01*
X53022Y35270D01*
X53116Y35416D01*
X53116Y35416D01*
X53116Y35416D01*
X53196Y35571D01*
Y35571D01*
X53196Y35571D01*
X53263Y35732D01*
Y35732D01*
X53263Y35732D01*
X53315Y35898D01*
X53315Y35898D01*
X53315Y35898D01*
X53353Y36069D01*
X53353Y36069D01*
X53353Y36069D01*
X53376Y36241D01*
X53376Y36241D01*
X53376Y36241D01*
X53384Y36416D01*
X53384Y36417D01*
X53384Y36417D01*
Y40222D01*
X53384Y40222D01*
X53384Y40222D01*
X53376Y40397D01*
X53376Y40397D01*
X53376Y40397D01*
X53353Y40570D01*
X53353Y40570D01*
X53353Y40570D01*
X53315Y40740D01*
X53315Y40740D01*
X53315Y40740D01*
X53263Y40906D01*
X53263Y40906D01*
Y40906D01*
X53196Y41067D01*
X53196Y41067D01*
Y41067D01*
X53116Y41222D01*
X53116Y41222D01*
X53116Y41222D01*
X53022Y41370D01*
X53022Y41370D01*
X53022Y41370D01*
X52916Y41507D01*
X52916Y41507D01*
X52916Y41507D01*
X52798Y41637D01*
X52798Y41637D01*
X52798Y41637D01*
X52669Y41755D01*
X52669Y41755D01*
X52669Y41755D01*
X52531Y41861D01*
X52531Y41861D01*
X52531Y41861D01*
X52384Y41955D01*
X52384Y41955D01*
X52384Y41956D01*
X52229Y42037D01*
X52229D01*
X52229Y42037D01*
X52068Y42103D01*
X52068D01*
X52068Y42103D01*
X51901Y42156D01*
X51901D01*
X51900Y42156D01*
X51730Y42193D01*
X51730Y42193D01*
X51730Y42193D01*
X51557Y42215D01*
X51557Y42215D01*
X51557Y42215D01*
X51383Y42223D01*
D02*
G37*
G36*
X117174Y42708D02*
X116667Y42608D01*
X116237Y42320D01*
X115949Y41890D01*
X115848Y41383D01*
X115949Y40876D01*
X116237Y40446D01*
X116667Y40158D01*
X117174Y40058D01*
X117681Y40158D01*
X118111Y40446D01*
X118398Y40876D01*
X118499Y41383D01*
X118398Y41890D01*
X118111Y42320D01*
X117681Y42608D01*
X117174Y42708D01*
D02*
G37*
G36*
X110182Y42558D02*
X109675Y42458D01*
X109245Y42170D01*
X108958Y41740D01*
X108857Y41233D01*
X108958Y40726D01*
X109245Y40296D01*
X109675Y40008D01*
X110182Y39908D01*
X110690Y40008D01*
X111120Y40296D01*
X111407Y40726D01*
X111508Y41233D01*
X111407Y41740D01*
X111120Y42170D01*
X110690Y42458D01*
X110182Y42558D01*
D02*
G37*
G36*
X95677Y38994D02*
X95170Y38893D01*
X94740Y38606D01*
X94453Y38176D01*
X94352Y37668D01*
X94453Y37161D01*
X94740Y36731D01*
X95170Y36444D01*
X95677Y36343D01*
X96184Y36444D01*
X96614Y36731D01*
X96902Y37161D01*
X97003Y37668D01*
X96902Y38176D01*
X96614Y38606D01*
X96184Y38893D01*
X95677Y38994D01*
D02*
G37*
G36*
X76985Y30856D02*
X76985Y30856D01*
X76985Y30856D01*
X76811Y30849D01*
X76811Y30849D01*
X76811Y30849D01*
X76638Y30827D01*
X76638Y30827D01*
X76638Y30827D01*
X76468Y30788D01*
X76468Y30788D01*
X76468D01*
X76301Y30737D01*
X76301Y30737D01*
X76301D01*
X76140Y30670D01*
X76140Y30670D01*
X76140Y30670D01*
X75985Y30588D01*
X75985Y30587D01*
X75985Y30587D01*
X75838Y30495D01*
X75838Y30495D01*
X75837Y30495D01*
X75700Y30387D01*
X75700Y30387D01*
X75700Y30387D01*
X75570Y30270D01*
X75570Y30270D01*
X75570Y30270D01*
X75452Y30142D01*
X75452Y30142D01*
X75452Y30142D01*
X75346Y30003D01*
X75346Y30003D01*
X75346Y30003D01*
X75252Y29855D01*
X75252Y29855D01*
X75252Y29855D01*
X75172Y29702D01*
Y29702D01*
X75172Y29702D01*
X75105Y29539D01*
Y29539D01*
X75105Y29539D01*
X75053Y29373D01*
Y29373D01*
X75053Y29373D01*
X75015Y29203D01*
X75015Y29203D01*
X75015Y29203D01*
X74992Y29030D01*
X74992Y29030D01*
X74992Y29030D01*
X74984Y28855D01*
X74984Y28855D01*
X74984Y28855D01*
Y25051D01*
X74984Y25051D01*
X74984Y25051D01*
X74992Y24876D01*
X74992Y24876D01*
X74992Y24876D01*
X75015Y24702D01*
X75015Y24702D01*
X75015Y24702D01*
X75053Y24532D01*
X75053Y24532D01*
X75053Y24532D01*
X75105Y24366D01*
X75105Y24366D01*
Y24366D01*
X75172Y24204D01*
X75172Y24204D01*
Y24204D01*
X75252Y24050D01*
X75252Y24050D01*
X75252Y24050D01*
X75346Y23902D01*
X75346Y23902D01*
X75346Y23902D01*
X75452Y23764D01*
X75452Y23764D01*
X75452Y23764D01*
X75570Y23636D01*
X75570Y23636D01*
X75570Y23636D01*
X75700Y23518D01*
X75700Y23518D01*
X75700Y23518D01*
X75837Y23411D01*
X75838Y23411D01*
X75838Y23411D01*
X75985Y23318D01*
X75985Y23318D01*
X75985Y23317D01*
X76140Y23236D01*
X76140Y23235D01*
X76140Y23235D01*
X76301Y23169D01*
X76301D01*
X76301Y23169D01*
X76468Y23118D01*
X76468D01*
X76468Y23117D01*
X76638Y23078D01*
X76638Y23078D01*
X76638Y23078D01*
X76811Y23057D01*
X76811Y23057D01*
X76811Y23057D01*
X76985Y23049D01*
X76985Y23049D01*
X76985Y23049D01*
X77160Y23057D01*
X77160Y23057D01*
X77160Y23057D01*
X77333Y23078D01*
X77333Y23078D01*
X77333Y23078D01*
X77503Y23117D01*
X77504Y23118D01*
X77504Y23118D01*
X77670Y23169D01*
X77670Y23169D01*
X77670D01*
X77832Y23235D01*
X77832Y23235D01*
X77832Y23236D01*
X77986Y23317D01*
X77986Y23318D01*
X77986Y23318D01*
X78134Y23411D01*
X78134Y23411D01*
X78134Y23411D01*
X78272Y23518D01*
X78272Y23518D01*
X78272Y23518D01*
X78401Y23636D01*
X78401Y23636D01*
X78401Y23636D01*
X78518Y23764D01*
X78518Y23764D01*
X78518Y23764D01*
X78625Y23902D01*
X78625Y23902D01*
X78625Y23902D01*
X78718Y24050D01*
X78718Y24050D01*
X78718Y24050D01*
X78799Y24204D01*
Y24204D01*
X78799Y24204D01*
X78866Y24366D01*
Y24366D01*
X78866Y24366D01*
X78918Y24532D01*
Y24532D01*
X78918Y24532D01*
X78956Y24702D01*
X78956Y24702D01*
X78956Y24702D01*
X78979Y24876D01*
X78979Y24876D01*
X78979Y24877D01*
X78986Y25051D01*
X78986Y25051D01*
X78986Y25051D01*
Y28855D01*
X78986Y28855D01*
X78986Y28855D01*
X78979Y29030D01*
X78979Y29030D01*
X78979Y29030D01*
X78956Y29203D01*
X78956Y29203D01*
X78956Y29203D01*
X78918Y29373D01*
X78918Y29373D01*
X78918Y29373D01*
X78866Y29539D01*
X78866Y29539D01*
Y29539D01*
X78799Y29702D01*
X78799Y29702D01*
Y29702D01*
X78718Y29855D01*
X78718Y29855D01*
X78718Y29855D01*
X78625Y30003D01*
X78625Y30003D01*
X78625Y30003D01*
X78518Y30142D01*
X78518Y30142D01*
X78518Y30142D01*
X78401Y30270D01*
X78401Y30270D01*
X78401Y30270D01*
X78272Y30387D01*
X78272Y30387D01*
X78272Y30387D01*
X78134Y30495D01*
X78134Y30495D01*
X78134Y30495D01*
X77986Y30587D01*
X77986Y30587D01*
X77986Y30588D01*
X77832Y30670D01*
X77832Y30670D01*
X77832Y30670D01*
X77670Y30737D01*
X77670D01*
X77670Y30737D01*
X77504Y30788D01*
X77504D01*
X77503Y30788D01*
X77333Y30827D01*
X77333Y30827D01*
X77333Y30827D01*
X77160Y30849D01*
X77160Y30849D01*
X77160Y30849D01*
X76985Y30856D01*
D02*
G37*
G36*
X94177Y32494D02*
X93670Y32393D01*
X93240Y32106D01*
X92953Y31676D01*
X92852Y31168D01*
X92953Y30661D01*
X93240Y30231D01*
X93670Y29944D01*
X94177Y29843D01*
X94684Y29944D01*
X95114Y30231D01*
X95402Y30661D01*
X95503Y31168D01*
X95402Y31676D01*
X95114Y32106D01*
X94684Y32393D01*
X94177Y32494D01*
D02*
G37*
G36*
Y28630D02*
X93670Y28529D01*
X93240Y28242D01*
X92953Y27812D01*
X92852Y27305D01*
X92953Y26797D01*
X93240Y26367D01*
X93670Y26080D01*
X94177Y25979D01*
X94684Y26080D01*
X95114Y26367D01*
X95402Y26797D01*
X95503Y27305D01*
X95402Y27812D01*
X95114Y28242D01*
X94684Y28529D01*
X94177Y28630D01*
D02*
G37*
G36*
Y24294D02*
X93670Y24193D01*
X93240Y23906D01*
X92953Y23476D01*
X92852Y22968D01*
X92953Y22461D01*
X93240Y22031D01*
X93670Y21744D01*
X94177Y21643D01*
X94684Y21744D01*
X95114Y22031D01*
X95402Y22461D01*
X95503Y22968D01*
X95402Y23476D01*
X95114Y23906D01*
X94684Y24193D01*
X94177Y24294D01*
D02*
G37*
G36*
X84177Y18794D02*
X83670Y18693D01*
X83240Y18406D01*
X82953Y17976D01*
X82852Y17469D01*
X82953Y16961D01*
X83240Y16531D01*
X83670Y16244D01*
X84177Y16143D01*
X84684Y16244D01*
X85114Y16531D01*
X85402Y16961D01*
X85503Y17469D01*
X85402Y17976D01*
X85114Y18406D01*
X84684Y18693D01*
X84177Y18794D01*
D02*
G37*
G36*
X95433Y-5474D02*
X94455Y-5669D01*
X93625Y-6223D01*
X93071Y-7053D01*
X92876Y-8032D01*
X93071Y-9010D01*
X93625Y-9840D01*
X94455Y-10394D01*
X95433Y-10588D01*
X96412Y-10394D01*
X97241Y-9840D01*
X97795Y-9010D01*
X97990Y-8032D01*
X97795Y-7053D01*
X97241Y-6223D01*
X96412Y-5669D01*
X95433Y-5474D01*
D02*
G37*
G36*
X22677D02*
X21699Y-5669D01*
X20869Y-6223D01*
X20315Y-7053D01*
X20120Y-8032D01*
X20315Y-9010D01*
X20869Y-9840D01*
X21699Y-10394D01*
X22677Y-10588D01*
X23656Y-10394D01*
X24485Y-9840D01*
X25040Y-9010D01*
X25234Y-8032D01*
X25040Y-7053D01*
X24485Y-6223D01*
X23656Y-5669D01*
X22677Y-5474D01*
D02*
G37*
G36*
X60958Y-16009D02*
X60958Y-16009D01*
X60958Y-16009D01*
X57153D01*
X57153Y-16009D01*
X57153Y-16009D01*
X56979Y-16017D01*
X56979Y-16017D01*
X56979Y-16017D01*
X56806Y-16040D01*
X56806Y-16040D01*
X56806Y-16040D01*
X56635Y-16079D01*
X56635Y-16079D01*
X56635Y-16079D01*
X56469Y-16130D01*
X56469Y-16130D01*
X56469D01*
X56308Y-16197D01*
X56308Y-16197D01*
X56308D01*
X56153Y-16277D01*
X56153Y-16278D01*
X56153Y-16278D01*
X56006Y-16372D01*
X56006Y-16372D01*
X56006Y-16372D01*
X55867Y-16478D01*
X55867Y-16478D01*
X55867Y-16478D01*
X55739Y-16596D01*
X55739Y-16596D01*
X55738Y-16596D01*
X55620Y-16725D01*
X55620Y-16725D01*
X55620Y-16725D01*
X55514Y-16863D01*
X55514Y-16863D01*
X55514Y-16863D01*
X55420Y-17010D01*
X55420Y-17010D01*
X55420Y-17010D01*
X55339Y-17165D01*
Y-17165D01*
X55339Y-17165D01*
X55273Y-17326D01*
Y-17326D01*
X55273Y-17326D01*
X55220Y-17493D01*
X55220Y-17493D01*
X55220Y-17493D01*
X55182Y-17663D01*
X55182Y-17663D01*
X55182Y-17663D01*
X55160Y-17836D01*
X55160Y-17836D01*
X55160Y-17836D01*
X55152Y-18011D01*
X55152Y-18011D01*
X55152Y-18011D01*
X55160Y-18186D01*
X55160Y-18186D01*
X55160Y-18186D01*
X55182Y-18359D01*
X55182Y-18359D01*
X55182Y-18359D01*
X55220Y-18529D01*
X55220Y-18529D01*
Y-18529D01*
X55273Y-18695D01*
X55273Y-18695D01*
Y-18695D01*
X55339Y-18857D01*
X55339Y-18857D01*
X55339Y-18857D01*
X55420Y-19011D01*
X55420Y-19011D01*
X55420Y-19011D01*
X55514Y-19159D01*
X55514Y-19159D01*
X55514Y-19159D01*
X55620Y-19297D01*
X55620Y-19297D01*
X55620Y-19297D01*
X55738Y-19426D01*
X55739Y-19426D01*
X55739Y-19426D01*
X55867Y-19543D01*
X55867Y-19543D01*
X55867Y-19543D01*
X56006Y-19650D01*
X56006Y-19650D01*
X56006Y-19650D01*
X56153Y-19743D01*
X56153Y-19743D01*
X56153Y-19744D01*
X56308Y-19825D01*
X56308D01*
X56308Y-19825D01*
X56469Y-19892D01*
X56469D01*
X56469Y-19892D01*
X56635Y-19943D01*
X56635Y-19943D01*
X56635Y-19943D01*
X56806Y-19982D01*
X56806Y-19982D01*
X56806Y-19982D01*
X56979Y-20005D01*
X56979Y-20005D01*
X56979Y-20005D01*
X57153Y-20012D01*
X57153Y-20012D01*
X57153Y-20012D01*
X60958D01*
X60958Y-20012D01*
X60958Y-20012D01*
X61133Y-20005D01*
X61133Y-20005D01*
X61133Y-20005D01*
X61306Y-19982D01*
X61306Y-19982D01*
X61306Y-19982D01*
X61476Y-19943D01*
X61476Y-19943D01*
X61476Y-19943D01*
X61642Y-19892D01*
X61643Y-19892D01*
X61643D01*
X61805Y-19825D01*
X61805Y-19825D01*
X61805Y-19824D01*
X61959Y-19744D01*
X61959Y-19743D01*
X61959Y-19743D01*
X62106Y-19650D01*
X62106Y-19650D01*
X62106Y-19650D01*
X62245Y-19543D01*
X62245Y-19543D01*
X62245Y-19543D01*
X62373Y-19426D01*
X62373Y-19426D01*
X62373Y-19426D01*
X62491Y-19297D01*
X62491Y-19297D01*
X62491Y-19297D01*
X62598Y-19159D01*
X62598Y-19159D01*
X62598Y-19159D01*
X62691Y-19011D01*
X62691Y-19011D01*
X62691Y-19011D01*
X62772Y-18857D01*
Y-18857D01*
X62772Y-18857D01*
X62839Y-18695D01*
Y-18695D01*
X62839Y-18695D01*
X62891Y-18529D01*
Y-18529D01*
X62891Y-18529D01*
X62929Y-18359D01*
X62929Y-18359D01*
X62929Y-18359D01*
X62952Y-18186D01*
X62952Y-18186D01*
X62952Y-18185D01*
X62959Y-18011D01*
X62959Y-18011D01*
X62959Y-18011D01*
X62952Y-17837D01*
X62952Y-17836D01*
X62952Y-17836D01*
X62929Y-17663D01*
X62929Y-17663D01*
X62929Y-17663D01*
X62891Y-17493D01*
X62891Y-17493D01*
Y-17493D01*
X62839Y-17326D01*
X62839Y-17326D01*
Y-17326D01*
X62772Y-17165D01*
X62772Y-17165D01*
Y-17165D01*
X62691Y-17010D01*
X62691Y-17010D01*
X62691Y-17010D01*
X62598Y-16863D01*
X62598Y-16863D01*
X62598Y-16863D01*
X62491Y-16725D01*
X62491Y-16725D01*
X62491Y-16725D01*
X62373Y-16596D01*
X62373Y-16596D01*
X62373Y-16596D01*
X62245Y-16478D01*
X62245Y-16478D01*
X62245Y-16478D01*
X62106Y-16372D01*
X62106Y-16372D01*
X62106Y-16372D01*
X61959Y-16278D01*
X61959Y-16278D01*
X61959Y-16277D01*
X61805Y-16197D01*
X61805D01*
X61805Y-16197D01*
X61643Y-16130D01*
X61643D01*
X61642Y-16130D01*
X61476Y-16079D01*
X61476D01*
X61476Y-16079D01*
X61306Y-16040D01*
X61306Y-16040D01*
X61306Y-16040D01*
X61133Y-16017D01*
X61133Y-16017D01*
X61133Y-16017D01*
X60958Y-16009D01*
D02*
G37*
G36*
X51509D02*
X51509Y-16009D01*
X51509Y-16009D01*
X47704D01*
X47704Y-16009D01*
X47704Y-16009D01*
X47529Y-16017D01*
X47529Y-16017D01*
X47529Y-16017D01*
X47356Y-16040D01*
X47356Y-16040D01*
X47356Y-16040D01*
X47186Y-16079D01*
X47186Y-16079D01*
X47186Y-16079D01*
X47020Y-16130D01*
X47020Y-16130D01*
X47020D01*
X46859Y-16197D01*
X46859Y-16197D01*
X46859D01*
X46704Y-16277D01*
X46704Y-16278D01*
X46704Y-16278D01*
X46556Y-16372D01*
X46556Y-16372D01*
X46556Y-16372D01*
X46418Y-16478D01*
X46418Y-16478D01*
X46418Y-16478D01*
X46288Y-16596D01*
X46288Y-16596D01*
X46288Y-16596D01*
X46170Y-16725D01*
X46170Y-16725D01*
X46170Y-16725D01*
X46064Y-16863D01*
X46064Y-16863D01*
X46064Y-16863D01*
X45970Y-17010D01*
X45970Y-17010D01*
X45970Y-17010D01*
X45889Y-17165D01*
Y-17165D01*
X45889Y-17165D01*
X45823Y-17326D01*
Y-17326D01*
X45823Y-17326D01*
X45770Y-17493D01*
Y-17493D01*
X45770Y-17493D01*
X45733Y-17663D01*
X45733Y-17663D01*
X45733Y-17663D01*
X45711Y-17836D01*
X45711Y-17836D01*
X45711Y-17836D01*
X45703Y-18011D01*
X45703Y-18011D01*
X45703Y-18011D01*
X45711Y-18186D01*
X45711Y-18186D01*
X45711Y-18186D01*
X45733Y-18359D01*
X45733Y-18359D01*
X45733Y-18359D01*
X45770Y-18529D01*
X45770Y-18529D01*
Y-18529D01*
X45823Y-18695D01*
X45823Y-18695D01*
Y-18695D01*
X45889Y-18857D01*
X45889Y-18857D01*
X45889Y-18857D01*
X45970Y-19011D01*
X45970Y-19011D01*
X45970Y-19011D01*
X46064Y-19159D01*
X46064Y-19159D01*
X46064Y-19159D01*
X46170Y-19297D01*
X46170Y-19297D01*
X46170Y-19297D01*
X46288Y-19426D01*
X46288Y-19426D01*
X46288Y-19426D01*
X46418Y-19543D01*
X46418Y-19543D01*
X46418Y-19543D01*
X46556Y-19650D01*
X46556Y-19650D01*
X46556Y-19650D01*
X46704Y-19743D01*
X46704Y-19743D01*
X46704Y-19744D01*
X46859Y-19825D01*
X46859D01*
X46859Y-19825D01*
X47020Y-19892D01*
X47020D01*
X47020Y-19892D01*
X47186Y-19943D01*
X47186D01*
X47186Y-19943D01*
X47356Y-19982D01*
X47356Y-19982D01*
X47356Y-19982D01*
X47529Y-20005D01*
X47529Y-20005D01*
X47529Y-20005D01*
X47704Y-20012D01*
X47704Y-20012D01*
X47704Y-20012D01*
X51509D01*
X51509Y-20012D01*
X51509Y-20012D01*
X51684Y-20005D01*
X51684Y-20005D01*
X51684Y-20005D01*
X51856Y-19982D01*
X51856Y-19982D01*
X51856Y-19982D01*
X52027Y-19943D01*
X52027Y-19943D01*
X52027Y-19943D01*
X52193Y-19892D01*
X52194Y-19892D01*
X52194D01*
X52355Y-19825D01*
X52355Y-19825D01*
X52355D01*
X52510Y-19744D01*
X52510Y-19743D01*
X52510Y-19743D01*
X52656Y-19650D01*
X52656Y-19650D01*
X52656Y-19650D01*
X52796Y-19543D01*
X52796Y-19543D01*
X52796Y-19543D01*
X52923Y-19426D01*
X52923Y-19426D01*
X52923Y-19426D01*
X53041Y-19297D01*
X53041Y-19297D01*
X53041Y-19297D01*
X53148Y-19159D01*
X53148Y-19159D01*
X53148Y-19159D01*
X53241Y-19011D01*
X53241Y-19011D01*
X53241Y-19011D01*
X53322Y-18857D01*
Y-18857D01*
X53322Y-18857D01*
X53389Y-18695D01*
Y-18695D01*
X53389Y-18695D01*
X53441Y-18529D01*
Y-18529D01*
X53441Y-18529D01*
X53480Y-18359D01*
X53480Y-18359D01*
X53480Y-18359D01*
X53503Y-18186D01*
X53503Y-18186D01*
X53503Y-18185D01*
X53510Y-18011D01*
X53510Y-18011D01*
X53510Y-18011D01*
X53503Y-17837D01*
X53503Y-17836D01*
X53503Y-17836D01*
X53480Y-17663D01*
X53480Y-17663D01*
X53480Y-17663D01*
X53441Y-17493D01*
X53441Y-17493D01*
Y-17493D01*
X53389Y-17326D01*
X53389Y-17326D01*
Y-17326D01*
X53322Y-17165D01*
X53322Y-17165D01*
Y-17165D01*
X53241Y-17010D01*
X53241Y-17010D01*
X53241Y-17010D01*
X53148Y-16863D01*
X53148Y-16863D01*
X53148Y-16863D01*
X53041Y-16725D01*
X53041Y-16725D01*
X53041Y-16725D01*
X52923Y-16596D01*
X52923Y-16596D01*
X52923Y-16596D01*
X52796Y-16478D01*
X52796Y-16478D01*
X52796Y-16478D01*
X52656Y-16372D01*
X52656Y-16372D01*
X52656Y-16372D01*
X52510Y-16278D01*
X52510Y-16278D01*
X52510Y-16277D01*
X52355Y-16197D01*
X52355D01*
X52355Y-16197D01*
X52194Y-16130D01*
X52194D01*
X52193Y-16130D01*
X52027Y-16079D01*
X52027Y-16079D01*
X52027Y-16079D01*
X51856Y-16040D01*
X51856Y-16040D01*
X51856Y-16040D01*
X51684Y-16017D01*
X51684Y-16017D01*
X51684Y-16017D01*
X51509Y-16009D01*
D02*
G37*
G36*
X42061D02*
X42061Y-16009D01*
X42061Y-16009D01*
X38256D01*
X38256Y-16009D01*
X38256Y-16009D01*
X38081Y-16017D01*
X38081Y-16017D01*
X38081Y-16017D01*
X37908Y-16040D01*
X37908Y-16040D01*
X37908Y-16040D01*
X37738Y-16079D01*
X37738Y-16079D01*
X37738Y-16079D01*
X37572Y-16130D01*
X37572Y-16130D01*
X37572D01*
X37411Y-16197D01*
X37411Y-16197D01*
X37411D01*
X37256Y-16277D01*
X37256Y-16278D01*
X37256Y-16278D01*
X37108Y-16372D01*
X37108Y-16372D01*
X37108Y-16372D01*
X36970Y-16478D01*
X36970Y-16478D01*
X36970Y-16478D01*
X36841Y-16596D01*
X36840Y-16596D01*
X36840Y-16596D01*
X36722Y-16725D01*
X36722Y-16725D01*
X36722Y-16725D01*
X36616Y-16863D01*
X36616Y-16863D01*
X36616Y-16863D01*
X36522Y-17010D01*
X36522Y-17010D01*
X36522Y-17010D01*
X36441Y-17165D01*
Y-17165D01*
X36441Y-17165D01*
X36375Y-17326D01*
Y-17326D01*
X36375Y-17326D01*
X36322Y-17493D01*
Y-17493D01*
X36322Y-17493D01*
X36285Y-17663D01*
X36285Y-17663D01*
X36285Y-17663D01*
X36263Y-17836D01*
X36263Y-17836D01*
X36263Y-17836D01*
X36255Y-18011D01*
X36255Y-18011D01*
X36255Y-18011D01*
X36263Y-18186D01*
X36263Y-18186D01*
X36263Y-18186D01*
X36285Y-18359D01*
X36285Y-18359D01*
X36285Y-18359D01*
X36322Y-18529D01*
X36322Y-18529D01*
Y-18529D01*
X36375Y-18695D01*
X36375Y-18695D01*
Y-18695D01*
X36441Y-18857D01*
X36441Y-18857D01*
X36441Y-18857D01*
X36522Y-19011D01*
X36522Y-19011D01*
X36522Y-19011D01*
X36616Y-19159D01*
X36616Y-19159D01*
X36616Y-19159D01*
X36722Y-19297D01*
X36722Y-19297D01*
X36722Y-19297D01*
X36840Y-19426D01*
X36841Y-19426D01*
X36841Y-19426D01*
X36970Y-19543D01*
X36970Y-19543D01*
X36970Y-19543D01*
X37108Y-19650D01*
X37108Y-19650D01*
X37108Y-19650D01*
X37256Y-19743D01*
X37256Y-19743D01*
X37256Y-19744D01*
X37411Y-19825D01*
X37411D01*
X37411Y-19825D01*
X37572Y-19892D01*
X37572D01*
X37572Y-19892D01*
X37738Y-19943D01*
X37738D01*
X37738Y-19943D01*
X37908Y-19982D01*
X37908Y-19982D01*
X37908Y-19982D01*
X38081Y-20005D01*
X38081Y-20005D01*
X38081Y-20005D01*
X38256Y-20012D01*
X38256Y-20012D01*
X38256Y-20012D01*
X42061D01*
X42061Y-20012D01*
X42061Y-20012D01*
X42236Y-20005D01*
X42236Y-20005D01*
X42236Y-20005D01*
X42408Y-19982D01*
X42408Y-19982D01*
X42408Y-19982D01*
X42579Y-19943D01*
X42579Y-19943D01*
X42579Y-19943D01*
X42746Y-19892D01*
X42746Y-19892D01*
X42746D01*
X42907Y-19825D01*
X42907Y-19825D01*
X42907D01*
X43062Y-19744D01*
X43062Y-19743D01*
X43062Y-19743D01*
X43208Y-19650D01*
X43208Y-19650D01*
X43208Y-19650D01*
X43348Y-19543D01*
X43348Y-19543D01*
X43348Y-19543D01*
X43475Y-19426D01*
X43475Y-19426D01*
X43475Y-19426D01*
X43593Y-19297D01*
X43593Y-19297D01*
X43593Y-19297D01*
X43700Y-19159D01*
X43700Y-19159D01*
X43700Y-19159D01*
X43793Y-19011D01*
X43793Y-19011D01*
X43793Y-19011D01*
X43874Y-18857D01*
Y-18857D01*
X43874Y-18857D01*
X43941Y-18695D01*
Y-18695D01*
X43941Y-18695D01*
X43993Y-18529D01*
Y-18529D01*
X43993Y-18529D01*
X44032Y-18359D01*
X44032Y-18359D01*
X44032Y-18359D01*
X44055Y-18186D01*
X44055Y-18186D01*
X44055Y-18185D01*
X44062Y-18011D01*
X44062Y-18011D01*
X44062Y-18011D01*
X44055Y-17837D01*
X44055Y-17836D01*
X44055Y-17836D01*
X44032Y-17663D01*
X44032Y-17663D01*
X44032Y-17663D01*
X43993Y-17493D01*
X43993Y-17493D01*
Y-17493D01*
X43941Y-17326D01*
X43941Y-17326D01*
Y-17326D01*
X43874Y-17165D01*
X43874Y-17165D01*
Y-17165D01*
X43793Y-17010D01*
X43793Y-17010D01*
X43793Y-17010D01*
X43700Y-16863D01*
X43700Y-16863D01*
X43700Y-16863D01*
X43593Y-16725D01*
X43593Y-16725D01*
X43593Y-16725D01*
X43475Y-16596D01*
X43475Y-16596D01*
X43475Y-16596D01*
X43348Y-16478D01*
X43348Y-16478D01*
X43348Y-16478D01*
X43208Y-16372D01*
X43208Y-16372D01*
X43208Y-16372D01*
X43062Y-16278D01*
X43062Y-16278D01*
X43062Y-16277D01*
X42907Y-16197D01*
X42907D01*
X42907Y-16197D01*
X42746Y-16130D01*
X42746D01*
X42746Y-16130D01*
X42579Y-16079D01*
X42579Y-16079D01*
X42579Y-16079D01*
X42408Y-16040D01*
X42408Y-16040D01*
X42408Y-16040D01*
X42236Y-16017D01*
X42236Y-16017D01*
X42236Y-16017D01*
X42061Y-16009D01*
D02*
G37*
G36*
X79527Y-15206D02*
X79020Y-15307D01*
X78590Y-15594D01*
X78303Y-16024D01*
X78202Y-16532D01*
X78303Y-17039D01*
X78590Y-17469D01*
X79020Y-17756D01*
X79527Y-17857D01*
X80034Y-17756D01*
X80464Y-17469D01*
X80752Y-17039D01*
X80853Y-16532D01*
X80752Y-16024D01*
X80464Y-15594D01*
X80034Y-15307D01*
X79527Y-15206D01*
D02*
G37*
G36*
X76377D02*
X75870Y-15307D01*
X75440Y-15594D01*
X75153Y-16024D01*
X75052Y-16532D01*
X75153Y-17039D01*
X75440Y-17469D01*
X75870Y-17756D01*
X76377Y-17857D01*
X76884Y-17756D01*
X77314Y-17469D01*
X77602Y-17039D01*
X77703Y-16532D01*
X77602Y-16024D01*
X77314Y-15594D01*
X76884Y-15307D01*
X76377Y-15206D01*
D02*
G37*
G36*
X81828Y-60465D02*
X80348D01*
Y-62093D01*
X81606D01*
X81791Y-62084D01*
X81985Y-62075D01*
X82179Y-62066D01*
X82263Y-62056D01*
X82337Y-62047D01*
X82411Y-62028D01*
X82457Y-62019D01*
X82466D01*
X82494Y-62001D01*
X82540Y-61982D01*
X82586Y-61954D01*
X82707Y-61871D01*
X82762Y-61816D01*
X82818Y-61751D01*
X82827Y-61742D01*
X82836Y-61714D01*
X82864Y-61677D01*
X82892Y-61621D01*
X82910Y-61547D01*
X82938Y-61464D01*
X82947Y-61372D01*
X82956Y-61270D01*
Y-61251D01*
Y-61215D01*
X82947Y-61159D01*
X82938Y-61085D01*
X82910Y-61002D01*
X82882Y-60918D01*
X82836Y-60826D01*
X82781Y-60752D01*
X82771Y-60743D01*
X82753Y-60715D01*
X82707Y-60687D01*
X82651Y-60641D01*
X82586Y-60595D01*
X82503Y-60558D01*
X82401Y-60521D01*
X82290Y-60493D01*
X82281D01*
X82253Y-60484D01*
X82198D01*
X82115Y-60474D01*
X81911D01*
X81828Y-60465D01*
D02*
G37*
G36*
X66898D02*
X65936D01*
Y-62287D01*
X66824D01*
X66889Y-62278D01*
X67056D01*
X67222Y-62269D01*
X67389Y-62251D01*
X67537Y-62223D01*
X67601Y-62213D01*
X67657Y-62195D01*
X67666Y-62186D01*
X67703Y-62177D01*
X67749Y-62149D01*
X67805Y-62121D01*
X67870Y-62075D01*
X67934Y-62019D01*
X68008Y-61954D01*
X68064Y-61880D01*
X68073Y-61871D01*
X68092Y-61844D01*
X68110Y-61797D01*
X68138Y-61733D01*
X68166Y-61659D01*
X68193Y-61575D01*
X68203Y-61483D01*
X68212Y-61381D01*
Y-61362D01*
Y-61326D01*
X68203Y-61261D01*
X68184Y-61177D01*
X68156Y-61085D01*
X68119Y-60983D01*
X68073Y-60891D01*
X67999Y-60798D01*
X67990Y-60789D01*
X67962Y-60761D01*
X67916Y-60724D01*
X67860Y-60678D01*
X67786Y-60623D01*
X67694Y-60576D01*
X67592Y-60539D01*
X67481Y-60511D01*
X67472D01*
X67435Y-60502D01*
X67370Y-60493D01*
X67278Y-60484D01*
X67157D01*
X67074Y-60474D01*
X66991D01*
X66898Y-60465D01*
D02*
G37*
G36*
X53005Y-60465D02*
X51525D01*
Y-62093D01*
X52783D01*
X52968Y-62084D01*
X53162Y-62075D01*
X53356Y-62066D01*
X53440Y-62056D01*
X53514Y-62047D01*
X53588Y-62028D01*
X53634Y-62019D01*
X53643D01*
X53671Y-62001D01*
X53717Y-61982D01*
X53763Y-61954D01*
X53884Y-61871D01*
X53939Y-61816D01*
X53995Y-61751D01*
X54004Y-61742D01*
X54013Y-61714D01*
X54041Y-61677D01*
X54069Y-61621D01*
X54087Y-61547D01*
X54115Y-61464D01*
X54124Y-61372D01*
X54133Y-61270D01*
Y-61251D01*
Y-61215D01*
X54124Y-61159D01*
X54115Y-61085D01*
X54087Y-61002D01*
X54059Y-60918D01*
X54013Y-60826D01*
X53958Y-60752D01*
X53948Y-60743D01*
X53930Y-60715D01*
X53884Y-60687D01*
X53828Y-60641D01*
X53763Y-60595D01*
X53680Y-60558D01*
X53578Y-60521D01*
X53467Y-60493D01*
X53458D01*
X53430Y-60484D01*
X53375D01*
X53292Y-60474D01*
X53088D01*
X53005Y-60465D01*
D02*
G37*
G36*
X34338Y-60872D02*
X33469Y-63249D01*
X35236D01*
X34338Y-60872D01*
D02*
G37*
%LPD*%
D30*
X21055Y2901D02*
D03*
Y10900D02*
D03*
Y18901D02*
D03*
Y26901D02*
D03*
Y34901D02*
D03*
Y42900D02*
D03*
Y50901D02*
D03*
X27177Y53469D02*
D03*
Y58969D02*
D03*
X29055Y-5099D02*
D03*
Y2901D02*
D03*
Y18901D02*
D03*
Y26901D02*
D03*
Y34901D02*
D03*
Y42900D02*
D03*
X35177Y-7032D02*
D03*
Y-3032D02*
D03*
X35428Y16604D02*
D03*
X36677Y6968D02*
D03*
X36829Y3069D02*
D03*
X37585Y42988D02*
D03*
Y48489D02*
D03*
X39677Y26969D02*
D03*
X40177Y34969D02*
D03*
Y53969D02*
D03*
X41628Y21804D02*
D03*
X43609Y18606D02*
D03*
X44677Y3469D02*
D03*
Y6968D02*
D03*
X45128Y62805D02*
D03*
X45177Y-7032D02*
D03*
Y-3032D02*
D03*
X48583Y35691D02*
D03*
Y41192D02*
D03*
X50289Y45520D02*
D03*
X54331Y16901D02*
D03*
X54628Y53105D02*
D03*
X54677Y-7032D02*
D03*
Y-3032D02*
D03*
Y3469D02*
D03*
Y6968D02*
D03*
X55728Y63305D02*
D03*
X62828Y31104D02*
D03*
X63028Y44704D02*
D03*
X63677Y3469D02*
D03*
Y6968D02*
D03*
X63778Y-7431D02*
D03*
X63779Y16901D02*
D03*
X64328Y20204D02*
D03*
X65128Y53904D02*
D03*
X66677Y65969D02*
D03*
X70177Y-3531D02*
D03*
Y61968D02*
D03*
X70677Y3469D02*
D03*
Y6968D02*
D03*
X73228Y16901D02*
D03*
X74438Y42680D02*
D03*
Y48180D02*
D03*
X75028Y58404D02*
D03*
X75728Y32004D02*
D03*
X78177Y-3531D02*
D03*
Y3469D02*
D03*
Y6968D02*
D03*
X79938Y24180D02*
D03*
Y29680D02*
D03*
X85177Y31468D02*
D03*
Y40468D02*
D03*
X86038Y48180D02*
D03*
Y53680D02*
D03*
X87677Y35969D02*
D03*
X122677Y7468D02*
D03*
Y15469D02*
D03*
Y23469D02*
D03*
Y31468D02*
D03*
Y39469D02*
D03*
Y47469D02*
D03*
Y55468D02*
D03*
Y63468D02*
D03*
Y71469D02*
D03*
Y79469D02*
D03*
Y87468D02*
D03*
X35433Y-17400D02*
D03*
X38055Y-21100D02*
D03*
X38666Y98300D02*
D03*
X6055D02*
D03*
Y-21100D02*
D03*
Y10900D02*
D03*
Y18901D02*
D03*
Y-5099D02*
D03*
Y26901D02*
D03*
Y34901D02*
D03*
Y-13100D02*
D03*
Y42900D02*
D03*
Y50901D02*
D03*
Y58900D02*
D03*
Y66900D02*
D03*
Y74901D02*
D03*
Y82901D02*
D03*
Y90900D02*
D03*
X42608Y68024D02*
D03*
X44882Y-16899D02*
D03*
X46055Y-21100D02*
D03*
X46666Y98300D02*
D03*
X-1945D02*
D03*
Y-21100D02*
D03*
X-4813Y-6312D02*
D03*
X-4823Y-18032D02*
D03*
Y10968D02*
D03*
Y18969D02*
D03*
Y26969D02*
D03*
Y34969D02*
D03*
Y-13032D02*
D03*
Y42968D02*
D03*
Y50968D02*
D03*
Y58969D02*
D03*
Y66969D02*
D03*
Y74968D02*
D03*
Y82968D02*
D03*
Y90969D02*
D03*
X54055Y-21100D02*
D03*
X54331Y-16899D02*
D03*
X54418Y79505D02*
D03*
X54666Y98300D02*
D03*
X62055Y-21100D02*
D03*
X62666Y98300D02*
D03*
X63779Y-16899D02*
D03*
X66229Y79505D02*
D03*
X70055Y-21100D02*
D03*
X70666Y98300D02*
D03*
X73228Y-16899D02*
D03*
X78055Y-21100D02*
D03*
X78666Y98300D02*
D03*
X22055D02*
D03*
Y-21100D02*
D03*
X86055D02*
D03*
X86177Y-3531D02*
D03*
X86666Y98300D02*
D03*
X90677Y87169D02*
D03*
Y90168D02*
D03*
X94055Y-21100D02*
D03*
Y-13100D02*
D03*
X94177Y6968D02*
D03*
Y13969D02*
D03*
Y-3531D02*
D03*
Y40968D02*
D03*
X94666Y98300D02*
D03*
X30055D02*
D03*
Y-21100D02*
D03*
X99177Y48968D02*
D03*
X102055Y2901D02*
D03*
Y-21100D02*
D03*
Y-5099D02*
D03*
Y-13100D02*
D03*
X102177Y13969D02*
D03*
X102666Y98300D02*
D03*
X30797Y67804D02*
D03*
X106177Y60469D02*
D03*
X14055Y98300D02*
D03*
Y-21100D02*
D03*
X109177Y20968D02*
D03*
X110055Y2901D02*
D03*
Y-21100D02*
D03*
Y10900D02*
D03*
Y-5099D02*
D03*
Y-13100D02*
D03*
X110666Y98300D02*
D03*
X113177Y50968D02*
D03*
X115177Y26469D02*
D03*
X115677Y59969D02*
D03*
X116677Y16468D02*
D03*
X118055Y-21100D02*
D03*
Y-13100D02*
D03*
X121677Y97469D02*
D03*
M02*
