G04*
G04 #@! TF.GenerationSoftware,Altium Limited,Altium Designer,22.5.1 (42)*
G04*
G04 Layer_Color=8421504*
%FSLAX25Y25*%
%MOIN*%
G70*
G04*
G04 #@! TF.SameCoordinates,343D76CA-8D90-4984-A01A-401E7FF7C9D5*
G04*
G04*
G04 #@! TF.FilePolarity,Positive*
G04*
G01*
G75*
%ADD12R,0.02402X0.07874*%
%ADD13R,0.10551X0.14173*%
%ADD14C,0.03937*%
G36*
X85687Y-68746D02*
X85789Y-68755D01*
X85909Y-68764D01*
X86030Y-68783D01*
X86168Y-68801D01*
X86464Y-68866D01*
X86612Y-68912D01*
X86760Y-68959D01*
X86908Y-69023D01*
X87047Y-69097D01*
X87177Y-69181D01*
X87297Y-69273D01*
X87306Y-69282D01*
X87325Y-69301D01*
X87352Y-69329D01*
X87389Y-69366D01*
X87436Y-69421D01*
X87491Y-69486D01*
X87547Y-69560D01*
X87611Y-69643D01*
X87667Y-69745D01*
X87722Y-69847D01*
X87778Y-69967D01*
X87824Y-70096D01*
X87870Y-70226D01*
X87907Y-70374D01*
X87935Y-70522D01*
X87944Y-70688D01*
X86649Y-70735D01*
Y-70725D01*
Y-70716D01*
X86631Y-70651D01*
X86612Y-70568D01*
X86575Y-70466D01*
X86529Y-70346D01*
X86464Y-70235D01*
X86381Y-70124D01*
X86289Y-70032D01*
X86279Y-70022D01*
X86242Y-69995D01*
X86178Y-69958D01*
X86085Y-69921D01*
X85974Y-69884D01*
X85835Y-69847D01*
X85669Y-69819D01*
X85475Y-69810D01*
X85382D01*
X85280Y-69819D01*
X85160Y-69837D01*
X85021Y-69865D01*
X84873Y-69911D01*
X84735Y-69967D01*
X84605Y-70050D01*
X84596Y-70059D01*
X84577Y-70078D01*
X84540Y-70106D01*
X84503Y-70152D01*
X84466Y-70207D01*
X84429Y-70281D01*
X84411Y-70355D01*
X84402Y-70448D01*
Y-70457D01*
Y-70485D01*
X84411Y-70531D01*
X84429Y-70577D01*
X84448Y-70642D01*
X84476Y-70707D01*
X84522Y-70772D01*
X84587Y-70836D01*
X84596Y-70846D01*
X84642Y-70873D01*
X84670Y-70892D01*
X84716Y-70910D01*
X84762Y-70938D01*
X84827Y-70966D01*
X84901Y-70994D01*
X84984Y-71031D01*
X85086Y-71068D01*
X85188Y-71105D01*
X85317Y-71142D01*
X85456Y-71179D01*
X85604Y-71216D01*
X85771Y-71262D01*
X85780D01*
X85817Y-71271D01*
X85863Y-71280D01*
X85928Y-71299D01*
X86002Y-71317D01*
X86094Y-71345D01*
X86196Y-71373D01*
X86298Y-71401D01*
X86520Y-71475D01*
X86751Y-71549D01*
X86973Y-71632D01*
X87066Y-71678D01*
X87158Y-71724D01*
X87167D01*
X87177Y-71734D01*
X87232Y-71771D01*
X87315Y-71826D01*
X87417Y-71900D01*
X87528Y-71993D01*
X87648Y-72104D01*
X87769Y-72233D01*
X87870Y-72381D01*
X87880Y-72400D01*
X87907Y-72455D01*
X87954Y-72538D01*
X88000Y-72659D01*
X88046Y-72807D01*
X88092Y-72982D01*
X88120Y-73177D01*
X88129Y-73399D01*
Y-73408D01*
Y-73426D01*
Y-73454D01*
Y-73491D01*
X88120Y-73537D01*
X88111Y-73602D01*
X88092Y-73732D01*
X88055Y-73898D01*
X88000Y-74074D01*
X87917Y-74250D01*
X87815Y-74435D01*
Y-74444D01*
X87796Y-74453D01*
X87759Y-74509D01*
X87685Y-74601D01*
X87593Y-74703D01*
X87473Y-74823D01*
X87315Y-74934D01*
X87149Y-75045D01*
X86945Y-75147D01*
X86936D01*
X86918Y-75156D01*
X86890Y-75165D01*
X86844Y-75184D01*
X86788Y-75202D01*
X86723Y-75221D01*
X86649Y-75239D01*
X86566Y-75258D01*
X86464Y-75286D01*
X86363Y-75304D01*
X86122Y-75341D01*
X85854Y-75369D01*
X85558Y-75378D01*
X85438D01*
X85354Y-75369D01*
X85253Y-75360D01*
X85142Y-75350D01*
X85012Y-75332D01*
X84873Y-75304D01*
X84568Y-75239D01*
X84411Y-75193D01*
X84263Y-75147D01*
X84106Y-75082D01*
X83958Y-75008D01*
X83819Y-74925D01*
X83689Y-74823D01*
X83680Y-74814D01*
X83662Y-74795D01*
X83625Y-74768D01*
X83588Y-74721D01*
X83532Y-74657D01*
X83477Y-74583D01*
X83412Y-74499D01*
X83347Y-74407D01*
X83282Y-74296D01*
X83218Y-74176D01*
X83153Y-74037D01*
X83088Y-73889D01*
X83042Y-73732D01*
X82986Y-73556D01*
X82949Y-73371D01*
X82922Y-73177D01*
X84180Y-73056D01*
Y-73066D01*
X84189Y-73084D01*
Y-73121D01*
X84198Y-73158D01*
X84235Y-73269D01*
X84281Y-73408D01*
X84337Y-73565D01*
X84420Y-73722D01*
X84513Y-73861D01*
X84633Y-73991D01*
X84651Y-74000D01*
X84698Y-74037D01*
X84772Y-74083D01*
X84883Y-74139D01*
X85021Y-74194D01*
X85179Y-74240D01*
X85364Y-74277D01*
X85576Y-74287D01*
X85678D01*
X85789Y-74268D01*
X85928Y-74250D01*
X86076Y-74222D01*
X86233Y-74176D01*
X86381Y-74111D01*
X86511Y-74028D01*
X86529Y-74018D01*
X86566Y-73981D01*
X86612Y-73926D01*
X86677Y-73852D01*
X86733Y-73759D01*
X86788Y-73648D01*
X86825Y-73537D01*
X86834Y-73408D01*
Y-73399D01*
Y-73371D01*
X86825Y-73325D01*
X86816Y-73269D01*
X86797Y-73214D01*
X86779Y-73149D01*
X86742Y-73084D01*
X86696Y-73019D01*
X86686Y-73010D01*
X86668Y-72992D01*
X86640Y-72964D01*
X86594Y-72927D01*
X86529Y-72881D01*
X86446Y-72834D01*
X86353Y-72788D01*
X86233Y-72742D01*
X86224D01*
X86187Y-72723D01*
X86122Y-72705D01*
X86076Y-72686D01*
X86020Y-72677D01*
X85956Y-72659D01*
X85882Y-72631D01*
X85798Y-72612D01*
X85706Y-72585D01*
X85595Y-72557D01*
X85475Y-72529D01*
X85345Y-72492D01*
X85197Y-72455D01*
X85188D01*
X85151Y-72446D01*
X85095Y-72427D01*
X85031Y-72409D01*
X84947Y-72381D01*
X84846Y-72353D01*
X84744Y-72316D01*
X84624Y-72279D01*
X84383Y-72187D01*
X84152Y-72076D01*
X84032Y-72020D01*
X83930Y-71956D01*
X83828Y-71891D01*
X83745Y-71826D01*
X83736Y-71817D01*
X83717Y-71798D01*
X83689Y-71771D01*
X83652Y-71734D01*
X83606Y-71678D01*
X83560Y-71613D01*
X83504Y-71549D01*
X83458Y-71465D01*
X83347Y-71271D01*
X83255Y-71049D01*
X83218Y-70929D01*
X83190Y-70809D01*
X83171Y-70670D01*
X83162Y-70531D01*
Y-70522D01*
Y-70513D01*
Y-70485D01*
Y-70448D01*
X83181Y-70355D01*
X83199Y-70235D01*
X83227Y-70096D01*
X83273Y-69939D01*
X83338Y-69773D01*
X83430Y-69615D01*
Y-69606D01*
X83440Y-69597D01*
X83486Y-69541D01*
X83541Y-69467D01*
X83634Y-69375D01*
X83745Y-69273D01*
X83884Y-69162D01*
X84041Y-69060D01*
X84226Y-68968D01*
X84235D01*
X84254Y-68959D01*
X84281Y-68949D01*
X84318Y-68931D01*
X84374Y-68912D01*
X84429Y-68894D01*
X84503Y-68875D01*
X84587Y-68848D01*
X84772Y-68811D01*
X84984Y-68774D01*
X85225Y-68746D01*
X85493Y-68737D01*
X85604D01*
X85687Y-68746D01*
D02*
G37*
G36*
X54376D02*
X54478Y-68755D01*
X54598Y-68764D01*
X54718Y-68783D01*
X54857Y-68801D01*
X55153Y-68866D01*
X55301Y-68912D01*
X55449Y-68959D01*
X55597Y-69023D01*
X55736Y-69097D01*
X55865Y-69181D01*
X55986Y-69273D01*
X55995Y-69282D01*
X56013Y-69301D01*
X56041Y-69329D01*
X56078Y-69366D01*
X56124Y-69421D01*
X56180Y-69486D01*
X56235Y-69560D01*
X56300Y-69643D01*
X56356Y-69745D01*
X56411Y-69847D01*
X56467Y-69967D01*
X56513Y-70096D01*
X56559Y-70226D01*
X56596Y-70374D01*
X56624Y-70522D01*
X56633Y-70688D01*
X55338Y-70735D01*
Y-70725D01*
Y-70716D01*
X55320Y-70651D01*
X55301Y-70568D01*
X55264Y-70466D01*
X55218Y-70346D01*
X55153Y-70235D01*
X55070Y-70124D01*
X54977Y-70032D01*
X54968Y-70022D01*
X54931Y-69995D01*
X54866Y-69958D01*
X54774Y-69921D01*
X54663Y-69884D01*
X54524Y-69847D01*
X54358Y-69819D01*
X54163Y-69810D01*
X54071D01*
X53969Y-69819D01*
X53849Y-69837D01*
X53710Y-69865D01*
X53562Y-69911D01*
X53423Y-69967D01*
X53294Y-70050D01*
X53285Y-70059D01*
X53266Y-70078D01*
X53229Y-70106D01*
X53192Y-70152D01*
X53155Y-70207D01*
X53118Y-70281D01*
X53100Y-70355D01*
X53090Y-70448D01*
Y-70457D01*
Y-70485D01*
X53100Y-70531D01*
X53118Y-70577D01*
X53137Y-70642D01*
X53164Y-70707D01*
X53211Y-70772D01*
X53275Y-70836D01*
X53285Y-70846D01*
X53331Y-70873D01*
X53359Y-70892D01*
X53405Y-70910D01*
X53451Y-70938D01*
X53516Y-70966D01*
X53590Y-70994D01*
X53673Y-71031D01*
X53775Y-71068D01*
X53877Y-71105D01*
X54006Y-71142D01*
X54145Y-71179D01*
X54293Y-71216D01*
X54459Y-71262D01*
X54469D01*
X54506Y-71271D01*
X54552Y-71280D01*
X54617Y-71299D01*
X54691Y-71317D01*
X54783Y-71345D01*
X54885Y-71373D01*
X54987Y-71401D01*
X55209Y-71475D01*
X55440Y-71549D01*
X55662Y-71632D01*
X55754Y-71678D01*
X55847Y-71724D01*
X55856D01*
X55865Y-71734D01*
X55921Y-71771D01*
X56004Y-71826D01*
X56106Y-71900D01*
X56217Y-71993D01*
X56337Y-72104D01*
X56457Y-72233D01*
X56559Y-72381D01*
X56568Y-72400D01*
X56596Y-72455D01*
X56642Y-72538D01*
X56689Y-72659D01*
X56735Y-72807D01*
X56781Y-72982D01*
X56809Y-73177D01*
X56818Y-73399D01*
Y-73408D01*
Y-73426D01*
Y-73454D01*
Y-73491D01*
X56809Y-73537D01*
X56800Y-73602D01*
X56781Y-73732D01*
X56744Y-73898D01*
X56689Y-74074D01*
X56605Y-74250D01*
X56504Y-74435D01*
Y-74444D01*
X56485Y-74453D01*
X56448Y-74509D01*
X56374Y-74601D01*
X56282Y-74703D01*
X56161Y-74823D01*
X56004Y-74934D01*
X55838Y-75045D01*
X55634Y-75147D01*
X55625D01*
X55606Y-75156D01*
X55579Y-75165D01*
X55532Y-75184D01*
X55477Y-75202D01*
X55412Y-75221D01*
X55338Y-75239D01*
X55255Y-75258D01*
X55153Y-75286D01*
X55051Y-75304D01*
X54811Y-75341D01*
X54543Y-75369D01*
X54247Y-75378D01*
X54126D01*
X54043Y-75369D01*
X53941Y-75360D01*
X53830Y-75350D01*
X53701Y-75332D01*
X53562Y-75304D01*
X53257Y-75239D01*
X53100Y-75193D01*
X52952Y-75147D01*
X52794Y-75082D01*
X52646Y-75008D01*
X52508Y-74925D01*
X52378Y-74823D01*
X52369Y-74814D01*
X52350Y-74795D01*
X52313Y-74768D01*
X52276Y-74721D01*
X52221Y-74657D01*
X52165Y-74583D01*
X52101Y-74499D01*
X52036Y-74407D01*
X51971Y-74296D01*
X51906Y-74176D01*
X51842Y-74037D01*
X51777Y-73889D01*
X51731Y-73732D01*
X51675Y-73556D01*
X51638Y-73371D01*
X51610Y-73177D01*
X52868Y-73056D01*
Y-73066D01*
X52878Y-73084D01*
Y-73121D01*
X52887Y-73158D01*
X52924Y-73269D01*
X52970Y-73408D01*
X53026Y-73565D01*
X53109Y-73722D01*
X53201Y-73861D01*
X53322Y-73991D01*
X53340Y-74000D01*
X53386Y-74037D01*
X53460Y-74083D01*
X53571Y-74139D01*
X53710Y-74194D01*
X53867Y-74240D01*
X54052Y-74277D01*
X54265Y-74287D01*
X54367D01*
X54478Y-74268D01*
X54617Y-74250D01*
X54765Y-74222D01*
X54922Y-74176D01*
X55070Y-74111D01*
X55199Y-74028D01*
X55218Y-74018D01*
X55255Y-73981D01*
X55301Y-73926D01*
X55366Y-73852D01*
X55421Y-73759D01*
X55477Y-73648D01*
X55514Y-73537D01*
X55523Y-73408D01*
Y-73399D01*
Y-73371D01*
X55514Y-73325D01*
X55505Y-73269D01*
X55486Y-73214D01*
X55468Y-73149D01*
X55431Y-73084D01*
X55384Y-73019D01*
X55375Y-73010D01*
X55357Y-72992D01*
X55329Y-72964D01*
X55283Y-72927D01*
X55218Y-72881D01*
X55135Y-72834D01*
X55042Y-72788D01*
X54922Y-72742D01*
X54913D01*
X54876Y-72723D01*
X54811Y-72705D01*
X54765Y-72686D01*
X54709Y-72677D01*
X54644Y-72659D01*
X54570Y-72631D01*
X54487Y-72612D01*
X54395Y-72585D01*
X54284Y-72557D01*
X54163Y-72529D01*
X54034Y-72492D01*
X53886Y-72455D01*
X53877D01*
X53840Y-72446D01*
X53784Y-72427D01*
X53719Y-72409D01*
X53636Y-72381D01*
X53534Y-72353D01*
X53433Y-72316D01*
X53312Y-72279D01*
X53072Y-72187D01*
X52841Y-72076D01*
X52720Y-72020D01*
X52619Y-71956D01*
X52517Y-71891D01*
X52434Y-71826D01*
X52424Y-71817D01*
X52406Y-71798D01*
X52378Y-71771D01*
X52341Y-71734D01*
X52295Y-71678D01*
X52249Y-71613D01*
X52193Y-71549D01*
X52147Y-71465D01*
X52036Y-71271D01*
X51943Y-71049D01*
X51906Y-70929D01*
X51879Y-70809D01*
X51860Y-70670D01*
X51851Y-70531D01*
Y-70522D01*
Y-70513D01*
Y-70485D01*
Y-70448D01*
X51869Y-70355D01*
X51888Y-70235D01*
X51916Y-70096D01*
X51962Y-69939D01*
X52027Y-69773D01*
X52119Y-69615D01*
Y-69606D01*
X52128Y-69597D01*
X52175Y-69541D01*
X52230Y-69467D01*
X52323Y-69375D01*
X52434Y-69273D01*
X52572Y-69162D01*
X52730Y-69060D01*
X52915Y-68968D01*
X52924D01*
X52942Y-68959D01*
X52970Y-68949D01*
X53007Y-68931D01*
X53063Y-68912D01*
X53118Y-68894D01*
X53192Y-68875D01*
X53275Y-68848D01*
X53460Y-68811D01*
X53673Y-68774D01*
X53914Y-68746D01*
X54182Y-68737D01*
X54293D01*
X54376Y-68746D01*
D02*
G37*
G36*
X92468Y-71354D02*
X95011Y-75258D01*
X93337D01*
X91570Y-72252D01*
X90525Y-73325D01*
Y-75258D01*
X89230D01*
Y-68857D01*
X90525D01*
Y-71706D01*
X93152Y-68857D01*
X94891D01*
X92468Y-71354D01*
D02*
G37*
G36*
X75494Y-75258D02*
X74301D01*
X74291Y-70226D01*
X73033Y-75258D01*
X71785D01*
X70527Y-70226D01*
Y-75258D01*
X69333D01*
Y-68857D01*
X71267D01*
X72414Y-73232D01*
X73551Y-68857D01*
X75494D01*
Y-75258D01*
D02*
G37*
G36*
X82570D02*
X81173D01*
X80618Y-73806D01*
X78047D01*
X77520Y-75258D01*
X76151D01*
X78630Y-68857D01*
X79999D01*
X82570Y-75258D01*
D02*
G37*
G36*
X68131Y-69939D02*
X64681D01*
Y-71354D01*
X67890D01*
Y-72437D01*
X64681D01*
Y-74176D01*
X68251D01*
Y-75258D01*
X63386D01*
Y-68857D01*
X68131D01*
Y-69939D01*
D02*
G37*
G36*
X62544D02*
X60657D01*
Y-75258D01*
X59362D01*
Y-69939D01*
X57466D01*
Y-68857D01*
X62544D01*
Y-69939D01*
D02*
G37*
G36*
X51259Y-75258D02*
X49862D01*
X49307Y-73806D01*
X46736Y-73806D01*
X46208Y-75258D01*
X44839D01*
X47318Y-68857D01*
X48687D01*
X51259Y-75258D01*
D02*
G37*
G36*
X41990Y-68866D02*
X42231D01*
X42490Y-68885D01*
X42749Y-68903D01*
X42860Y-68913D01*
X42971Y-68922D01*
X43063Y-68940D01*
X43137Y-68959D01*
X43147D01*
X43165Y-68968D01*
X43193Y-68977D01*
X43230Y-68986D01*
X43332Y-69033D01*
X43461Y-69088D01*
X43600Y-69172D01*
X43757Y-69282D01*
X43905Y-69421D01*
X44053Y-69588D01*
Y-69597D01*
X44072Y-69606D01*
X44090Y-69634D01*
X44109Y-69671D01*
X44146Y-69726D01*
X44173Y-69782D01*
X44210Y-69847D01*
X44247Y-69921D01*
X44312Y-70106D01*
X44377Y-70309D01*
X44414Y-70559D01*
X44432Y-70827D01*
Y-70837D01*
Y-70855D01*
Y-70883D01*
Y-70929D01*
X44423Y-70975D01*
Y-71040D01*
X44405Y-71169D01*
X44377Y-71327D01*
X44340Y-71502D01*
X44284Y-71669D01*
X44210Y-71826D01*
X44201Y-71845D01*
X44173Y-71891D01*
X44127Y-71965D01*
X44062Y-72057D01*
X43988Y-72150D01*
X43887Y-72261D01*
X43785Y-72363D01*
X43665Y-72455D01*
X43646Y-72464D01*
X43609Y-72492D01*
X43544Y-72529D01*
X43461Y-72575D01*
X43359Y-72631D01*
X43248Y-72677D01*
X43128Y-72724D01*
X42999Y-72760D01*
X42980D01*
X42952Y-72770D01*
X42915D01*
X42869Y-72779D01*
X42804Y-72788D01*
X42740Y-72798D01*
X42656D01*
X42573Y-72807D01*
X42471Y-72816D01*
X42360Y-72825D01*
X42240Y-72834D01*
X42111D01*
X41972Y-72844D01*
X40825D01*
Y-75258D01*
X39530D01*
Y-68857D01*
X41889D01*
X41990Y-68866D01*
D02*
G37*
G36*
X33536D02*
X33776D01*
X34035Y-68885D01*
X34294Y-68903D01*
X34405Y-68913D01*
X34516Y-68922D01*
X34609Y-68940D01*
X34683Y-68959D01*
X34692D01*
X34711Y-68968D01*
X34738Y-68977D01*
X34775Y-68986D01*
X34877Y-69033D01*
X35007Y-69088D01*
X35145Y-69172D01*
X35303Y-69282D01*
X35451Y-69421D01*
X35599Y-69588D01*
Y-69597D01*
X35617Y-69606D01*
X35636Y-69634D01*
X35654Y-69671D01*
X35691Y-69726D01*
X35719Y-69782D01*
X35756Y-69847D01*
X35793Y-69921D01*
X35858Y-70106D01*
X35922Y-70309D01*
X35959Y-70559D01*
X35978Y-70827D01*
Y-70837D01*
Y-70855D01*
Y-70883D01*
Y-70929D01*
X35969Y-70975D01*
Y-71040D01*
X35950Y-71169D01*
X35922Y-71327D01*
X35885Y-71502D01*
X35830Y-71669D01*
X35756Y-71826D01*
X35747Y-71845D01*
X35719Y-71891D01*
X35673Y-71965D01*
X35608Y-72057D01*
X35534Y-72150D01*
X35432Y-72261D01*
X35330Y-72363D01*
X35210Y-72455D01*
X35192Y-72464D01*
X35155Y-72492D01*
X35090Y-72529D01*
X35007Y-72575D01*
X34905Y-72631D01*
X34794Y-72677D01*
X34674Y-72724D01*
X34544Y-72760D01*
X34526D01*
X34498Y-72770D01*
X34461D01*
X34415Y-72779D01*
X34350Y-72788D01*
X34285Y-72798D01*
X34202D01*
X34119Y-72807D01*
X34017Y-72816D01*
X33906Y-72825D01*
X33786Y-72834D01*
X33656D01*
X33517Y-72844D01*
X32370D01*
Y-75258D01*
X31075D01*
Y-68857D01*
X33434D01*
X33536Y-68866D01*
D02*
G37*
G36*
X23278Y-69939D02*
X21391D01*
Y-75258D01*
X20096D01*
Y-69939D01*
X18199D01*
Y-68857D01*
X23278D01*
Y-69939D01*
D02*
G37*
G36*
X27079Y-68746D02*
X27172D01*
X27292Y-68764D01*
X27431Y-68783D01*
X27588Y-68811D01*
X27755Y-68848D01*
X27930Y-68894D01*
X28115Y-68950D01*
X28300Y-69024D01*
X28495Y-69107D01*
X28680Y-69209D01*
X28865Y-69329D01*
X29040Y-69467D01*
X29207Y-69625D01*
X29216Y-69634D01*
X29244Y-69662D01*
X29290Y-69717D01*
X29336Y-69782D01*
X29401Y-69875D01*
X29475Y-69986D01*
X29549Y-70115D01*
X29632Y-70263D01*
X29716Y-70420D01*
X29790Y-70605D01*
X29864Y-70809D01*
X29928Y-71021D01*
X29984Y-71262D01*
X30021Y-71512D01*
X30049Y-71780D01*
X30058Y-72067D01*
Y-72085D01*
Y-72131D01*
X30049Y-72215D01*
Y-72326D01*
X30030Y-72455D01*
X30012Y-72603D01*
X29984Y-72779D01*
X29956Y-72955D01*
X29910Y-73149D01*
X29854Y-73352D01*
X29780Y-73556D01*
X29697Y-73760D01*
X29605Y-73954D01*
X29484Y-74148D01*
X29355Y-74333D01*
X29207Y-74509D01*
X29198Y-74518D01*
X29170Y-74546D01*
X29124Y-74592D01*
X29050Y-74647D01*
X28966Y-74712D01*
X28865Y-74786D01*
X28744Y-74860D01*
X28615Y-74943D01*
X28458Y-75027D01*
X28291Y-75101D01*
X28106Y-75175D01*
X27903Y-75239D01*
X27690Y-75295D01*
X27459Y-75341D01*
X27218Y-75369D01*
X26959Y-75378D01*
X26894D01*
X26820Y-75369D01*
X26728Y-75360D01*
X26608Y-75350D01*
X26469Y-75332D01*
X26312Y-75304D01*
X26145Y-75267D01*
X25960Y-75221D01*
X25784Y-75165D01*
X25590Y-75091D01*
X25405Y-75008D01*
X25211Y-74916D01*
X25035Y-74796D01*
X24859Y-74666D01*
X24693Y-74509D01*
X24684Y-74499D01*
X24656Y-74472D01*
X24619Y-74416D01*
X24563Y-74351D01*
X24499Y-74259D01*
X24425Y-74148D01*
X24351Y-74028D01*
X24277Y-73880D01*
X24193Y-73722D01*
X24119Y-73537D01*
X24045Y-73343D01*
X23981Y-73130D01*
X23925Y-72899D01*
X23888Y-72650D01*
X23860Y-72381D01*
X23851Y-72104D01*
Y-72094D01*
Y-72057D01*
Y-72011D01*
X23860Y-71937D01*
Y-71854D01*
X23870Y-71762D01*
X23879Y-71650D01*
X23888Y-71530D01*
X23925Y-71271D01*
X23971Y-70994D01*
X24045Y-70716D01*
X24138Y-70457D01*
Y-70448D01*
X24147Y-70439D01*
X24166Y-70411D01*
X24175Y-70374D01*
X24230Y-70281D01*
X24295Y-70161D01*
X24378Y-70022D01*
X24480Y-69884D01*
X24600Y-69726D01*
X24730Y-69578D01*
X24739Y-69569D01*
X24748Y-69560D01*
X24795Y-69514D01*
X24878Y-69440D01*
X24980Y-69356D01*
X25100Y-69264D01*
X25239Y-69162D01*
X25396Y-69070D01*
X25562Y-68996D01*
X25572D01*
X25590Y-68986D01*
X25627Y-68968D01*
X25673Y-68959D01*
X25729Y-68931D01*
X25794Y-68913D01*
X25877Y-68894D01*
X25960Y-68866D01*
X26164Y-68820D01*
X26395Y-68774D01*
X26663Y-68746D01*
X26941Y-68737D01*
X27005D01*
X27079Y-68746D01*
D02*
G37*
%LPC*%
G36*
X79305Y-70346D02*
X78435Y-72723D01*
X80202D01*
X79305Y-70346D01*
D02*
G37*
G36*
X47994D02*
X47124Y-72723D01*
X48891D01*
X47994Y-70346D01*
D02*
G37*
G36*
X41787Y-69939D02*
X40825D01*
Y-71762D01*
X41713D01*
X41778Y-71752D01*
X41944D01*
X42111Y-71743D01*
X42277Y-71724D01*
X42425Y-71697D01*
X42490Y-71688D01*
X42545Y-71669D01*
X42555Y-71660D01*
X42592Y-71650D01*
X42638Y-71623D01*
X42693Y-71595D01*
X42758Y-71549D01*
X42823Y-71493D01*
X42897Y-71428D01*
X42952Y-71354D01*
X42962Y-71345D01*
X42980Y-71317D01*
X42999Y-71271D01*
X43026Y-71206D01*
X43054Y-71132D01*
X43082Y-71049D01*
X43091Y-70957D01*
X43100Y-70855D01*
Y-70837D01*
Y-70799D01*
X43091Y-70735D01*
X43073Y-70651D01*
X43045Y-70559D01*
X43008Y-70457D01*
X42962Y-70365D01*
X42888Y-70272D01*
X42878Y-70263D01*
X42851Y-70235D01*
X42804Y-70198D01*
X42749Y-70152D01*
X42675Y-70096D01*
X42582Y-70050D01*
X42481Y-70013D01*
X42370Y-69986D01*
X42360D01*
X42323Y-69976D01*
X42259Y-69967D01*
X42166Y-69958D01*
X42046D01*
X41963Y-69949D01*
X41879D01*
X41787Y-69939D01*
D02*
G37*
G36*
X33332D02*
X32370D01*
Y-71762D01*
X33258D01*
X33323Y-71752D01*
X33490D01*
X33656Y-71743D01*
X33823Y-71724D01*
X33971Y-71697D01*
X34035Y-71688D01*
X34091Y-71669D01*
X34100Y-71660D01*
X34137Y-71650D01*
X34183Y-71623D01*
X34239Y-71595D01*
X34304Y-71549D01*
X34368Y-71493D01*
X34442Y-71428D01*
X34498Y-71354D01*
X34507Y-71345D01*
X34526Y-71317D01*
X34544Y-71271D01*
X34572Y-71206D01*
X34600Y-71132D01*
X34627Y-71049D01*
X34637Y-70957D01*
X34646Y-70855D01*
Y-70837D01*
Y-70799D01*
X34637Y-70735D01*
X34618Y-70651D01*
X34590Y-70559D01*
X34553Y-70457D01*
X34507Y-70365D01*
X34433Y-70272D01*
X34424Y-70263D01*
X34396Y-70235D01*
X34350Y-70198D01*
X34294Y-70152D01*
X34220Y-70096D01*
X34128Y-70050D01*
X34026Y-70013D01*
X33915Y-69986D01*
X33906D01*
X33869Y-69976D01*
X33804Y-69967D01*
X33712Y-69958D01*
X33591D01*
X33508Y-69949D01*
X33425D01*
X33332Y-69939D01*
D02*
G37*
G36*
X26959Y-69837D02*
X26885D01*
X26830Y-69847D01*
X26756Y-69856D01*
X26682Y-69865D01*
X26497Y-69902D01*
X26293Y-69976D01*
X26182Y-70013D01*
X26071Y-70069D01*
X25969Y-70134D01*
X25858Y-70207D01*
X25757Y-70291D01*
X25664Y-70392D01*
X25655Y-70402D01*
X25646Y-70420D01*
X25618Y-70448D01*
X25590Y-70494D01*
X25553Y-70559D01*
X25516Y-70624D01*
X25470Y-70707D01*
X25424Y-70809D01*
X25377Y-70920D01*
X25331Y-71040D01*
X25294Y-71179D01*
X25257Y-71327D01*
X25229Y-71493D01*
X25202Y-71669D01*
X25192Y-71854D01*
X25183Y-72057D01*
Y-72067D01*
Y-72104D01*
Y-72159D01*
X25192Y-72233D01*
X25202Y-72326D01*
X25211Y-72437D01*
X25229Y-72548D01*
X25248Y-72677D01*
X25303Y-72945D01*
X25396Y-73214D01*
X25451Y-73352D01*
X25516Y-73482D01*
X25599Y-73602D01*
X25683Y-73713D01*
X25692Y-73722D01*
X25710Y-73741D01*
X25738Y-73769D01*
X25775Y-73796D01*
X25821Y-73843D01*
X25886Y-73889D01*
X25951Y-73944D01*
X26034Y-73991D01*
X26210Y-74102D01*
X26432Y-74185D01*
X26552Y-74222D01*
X26682Y-74250D01*
X26820Y-74268D01*
X26959Y-74277D01*
X27033D01*
X27089Y-74268D01*
X27153Y-74259D01*
X27227Y-74250D01*
X27403Y-74203D01*
X27607Y-74139D01*
X27708Y-74092D01*
X27819Y-74046D01*
X27921Y-73981D01*
X28032Y-73907D01*
X28134Y-73824D01*
X28226Y-73722D01*
X28236Y-73713D01*
X28245Y-73695D01*
X28273Y-73667D01*
X28300Y-73621D01*
X28347Y-73556D01*
X28384Y-73482D01*
X28430Y-73399D01*
X28476Y-73297D01*
X28522Y-73186D01*
X28569Y-73066D01*
X28615Y-72927D01*
X28652Y-72770D01*
X28680Y-72613D01*
X28707Y-72437D01*
X28717Y-72242D01*
X28726Y-72039D01*
Y-72030D01*
Y-71993D01*
Y-71937D01*
X28717Y-71854D01*
X28707Y-71762D01*
X28698Y-71660D01*
X28689Y-71539D01*
X28661Y-71419D01*
X28606Y-71151D01*
X28522Y-70873D01*
X28467Y-70735D01*
X28402Y-70614D01*
X28319Y-70494D01*
X28236Y-70383D01*
X28226Y-70374D01*
X28217Y-70355D01*
X28189Y-70337D01*
X28152Y-70300D01*
X28097Y-70254D01*
X28041Y-70207D01*
X27977Y-70161D01*
X27893Y-70106D01*
X27810Y-70060D01*
X27708Y-70013D01*
X27496Y-69921D01*
X27375Y-69884D01*
X27246Y-69865D01*
X27107Y-69847D01*
X26959Y-69837D01*
D02*
G37*
%LPD*%
D12*
X30796Y73802D02*
D03*
X34733D02*
D03*
X38671D02*
D03*
X42608D02*
D03*
X46545D02*
D03*
X50481D02*
D03*
X54418D02*
D03*
X58355D02*
D03*
X62292D02*
D03*
X85915D02*
D03*
X81977D02*
D03*
X78040D02*
D03*
X66229D02*
D03*
X74103D02*
D03*
X70166D02*
D03*
D13*
X97686Y84826D02*
D03*
X19025D02*
D03*
D14*
X76277Y-11631D02*
D03*
X99177Y31168D02*
D03*
X88677Y22468D02*
D03*
X99177Y37668D02*
D03*
M02*
