G04*
G04 #@! TF.GenerationSoftware,Altium Limited,Altium Designer,22.5.1 (42)*
G04*
G04 Layer_Color=128*
%FSLAX25Y25*%
%MOIN*%
G70*
G04*
G04 #@! TF.SameCoordinates,343D76CA-8D90-4984-A01A-401E7FF7C9D5*
G04*
G04*
G04 #@! TF.FilePolarity,Positive*
G04*
G01*
G75*
%ADD27C,0.01000*%
%ADD40C,0.00200*%
D27*
X-2901Y101101D02*
G03*
X-7901Y96100I0J-5000D01*
G01*
X126011D02*
G03*
X121011Y101101I-5000J0D01*
G01*
Y-23900D02*
G03*
X126011Y-18900I0J5000D01*
G01*
X-7901D02*
G03*
X-2901Y-23900I5000J0D01*
G01*
X-7901Y-18900D02*
Y96100D01*
X-2901Y101101D02*
X121011D01*
X126011Y-18900D02*
Y96100D01*
X-2901Y-23900D02*
X121011D01*
D40*
X93425Y-8032D02*
X97441D01*
X95433Y-10039D02*
Y-6024D01*
X20669Y-8032D02*
X24685D01*
X22677Y-10039D02*
Y-6024D01*
X112205Y0D02*
X124016D01*
X118110Y-5906D02*
Y5906D01*
X-5906Y0D02*
X5906D01*
X0Y-5906D02*
Y5906D01*
X20655Y2901D02*
X21455D01*
X21055Y2500D02*
Y3300D01*
X20655Y10900D02*
X21455D01*
X21055Y10501D02*
Y11300D01*
X20655Y18901D02*
X21455D01*
X21055Y18500D02*
Y19300D01*
X20655Y26901D02*
X21455D01*
X21055Y26500D02*
Y27301D01*
X20655Y34901D02*
X21455D01*
X21055Y34501D02*
Y35300D01*
X20655Y42900D02*
X21455D01*
X21055Y42500D02*
Y43301D01*
X20655Y50901D02*
X21455D01*
X21055Y50501D02*
Y51301D01*
X26777Y53469D02*
X27577D01*
X27177Y53069D02*
Y53869D01*
X26777Y58969D02*
X27577D01*
X27177Y58569D02*
Y59368D01*
X28655Y-5099D02*
X29455D01*
X29055Y-5500D02*
Y-4699D01*
X28655Y2901D02*
X29455D01*
X29055Y2500D02*
Y3300D01*
X28655Y18901D02*
X29455D01*
X29055Y18500D02*
Y19300D01*
X28655Y26901D02*
X29455D01*
X29055Y26500D02*
Y27301D01*
X28655Y34901D02*
X29455D01*
X29055Y34501D02*
Y35300D01*
X28655Y42900D02*
X29455D01*
X29055Y42500D02*
Y43301D01*
X29577Y54596D02*
X30377D01*
X29977Y54195D02*
Y54996D01*
X29577Y57595D02*
X30377D01*
X29977Y57196D02*
Y57995D01*
X34777Y-7032D02*
X35577D01*
X35177Y-7431D02*
Y-6632D01*
X34777Y-3032D02*
X35577D01*
X35177Y-3432D02*
Y-2631D01*
X35028Y16604D02*
X35828D01*
X35428Y16205D02*
Y17005D01*
X36277Y6968D02*
X37077D01*
X36677Y6568D02*
Y7368D01*
X36429Y3069D02*
X37229D01*
X36829Y2668D02*
Y3469D01*
X37185Y42988D02*
X37985D01*
X37585Y42588D02*
Y43389D01*
X37185Y48489D02*
X37985D01*
X37585Y48088D02*
Y48888D01*
X39277Y26969D02*
X40077D01*
X39677Y26568D02*
Y27369D01*
X39777Y34969D02*
X40577D01*
X40177Y34569D02*
Y35368D01*
X39777Y53969D02*
X40577D01*
X40177Y53569D02*
Y54369D01*
X39985Y44115D02*
X40785D01*
X40385Y43716D02*
Y44515D01*
X39985Y47115D02*
X40785D01*
X40385Y46716D02*
Y47515D01*
X41228Y21804D02*
X42028D01*
X41628Y21405D02*
Y22205D01*
X43209Y18606D02*
X44009D01*
X43609Y18205D02*
Y19005D01*
X44277Y3469D02*
X45077D01*
X44677Y3069D02*
Y3869D01*
X44277Y6968D02*
X45077D01*
X44677Y6568D02*
Y7368D01*
X44728Y62805D02*
X45528D01*
X45128Y62405D02*
Y63204D01*
X44777Y-7032D02*
X45577D01*
X45177Y-7431D02*
Y-6632D01*
X44777Y-3032D02*
X45577D01*
X45177Y-3432D02*
Y-2631D01*
X48183Y35691D02*
X48983D01*
X48583Y35291D02*
Y36092D01*
X48183Y41192D02*
X48983D01*
X48583Y40791D02*
Y41592D01*
X49889Y45520D02*
X50689D01*
X50289Y45120D02*
Y45921D01*
X50983Y36819D02*
X51783D01*
X51383Y36419D02*
Y37218D01*
X50983Y39819D02*
X51783D01*
X51383Y39419D02*
Y40218D01*
X53931Y16901D02*
X54731D01*
X54331Y16500D02*
Y17300D01*
X54228Y53105D02*
X55028D01*
X54628Y52705D02*
Y53505D01*
X54277Y-7032D02*
X55077D01*
X54677Y-7431D02*
Y-6632D01*
X54277Y-3032D02*
X55077D01*
X54677Y-3432D02*
Y-2631D01*
X54277Y3469D02*
X55077D01*
X54677Y3069D02*
Y3869D01*
X54277Y6968D02*
X55077D01*
X54677Y6568D02*
Y7368D01*
X55328Y63305D02*
X56128D01*
X55728Y62905D02*
Y63705D01*
X62428Y31104D02*
X63228D01*
X62828Y30705D02*
Y31504D01*
X62628Y44704D02*
X63428D01*
X63028Y44304D02*
Y45105D01*
X63277Y3469D02*
X64077D01*
X63677Y3069D02*
Y3869D01*
X63277Y6968D02*
X64077D01*
X63677Y6568D02*
Y7368D01*
X63378Y-7431D02*
X64178D01*
X63778Y-7831D02*
Y-7032D01*
X63379Y16901D02*
X64179D01*
X63779Y16500D02*
Y17300D01*
X63928Y20204D02*
X64728D01*
X64328Y19805D02*
Y20605D01*
X64728Y53904D02*
X65528D01*
X65128Y53505D02*
Y54304D01*
X66277Y65969D02*
X67077D01*
X66677Y65569D02*
Y66369D01*
X69777Y-3531D02*
X70577D01*
X70177Y-3932D02*
Y-3131D01*
X69777Y61968D02*
X70577D01*
X70177Y61568D02*
Y62369D01*
X70277Y3469D02*
X71077D01*
X70677Y3069D02*
Y3869D01*
X70277Y6968D02*
X71077D01*
X70677Y6568D02*
Y7368D01*
X71085Y43951D02*
X71885D01*
X71485Y43551D02*
Y44352D01*
X71085Y46951D02*
X71885D01*
X71485Y46551D02*
Y47352D01*
X72828Y16901D02*
X73628D01*
X73228Y16500D02*
Y17300D01*
X74038Y42680D02*
X74838D01*
X74438Y42279D02*
Y43080D01*
X74038Y48180D02*
X74838D01*
X74438Y47780D02*
Y48579D01*
X74628Y58404D02*
X75428D01*
X75028Y58004D02*
Y58805D01*
X75328Y32004D02*
X76128D01*
X75728Y31604D02*
Y32405D01*
X76585Y25451D02*
X77385D01*
X76985Y25052D02*
Y25852D01*
X76585Y28451D02*
X77385D01*
X76985Y28051D02*
Y28852D01*
X77777Y-3531D02*
X78577D01*
X78177Y-3932D02*
Y-3131D01*
X77777Y3469D02*
X78577D01*
X78177Y3069D02*
Y3869D01*
X77777Y6968D02*
X78577D01*
X78177Y6568D02*
Y7368D01*
X79538Y24180D02*
X80338D01*
X79938Y23779D02*
Y24579D01*
X79538Y29680D02*
X80338D01*
X79938Y29280D02*
Y30079D01*
X82685Y49452D02*
X83485D01*
X83085Y49051D02*
Y49852D01*
X82685Y52451D02*
X83485D01*
X83085Y52052D02*
Y52851D01*
X84777Y31468D02*
X85577D01*
X85177Y31069D02*
Y31868D01*
X84777Y40468D02*
X85577D01*
X85177Y40069D02*
Y40868D01*
X85638Y48180D02*
X86438D01*
X86038Y47780D02*
Y48579D01*
X85638Y53680D02*
X86438D01*
X86038Y53280D02*
Y54080D01*
X87277Y35969D02*
X88077D01*
X87677Y35568D02*
Y36369D01*
X102100Y50000D02*
X102900D01*
X102500Y49600D02*
Y50400D01*
X95291Y50045D02*
X96091D01*
X95691Y49645D02*
Y50445D01*
X109782Y41233D02*
X110582D01*
X110182Y40833D02*
Y41633D01*
X116774Y41383D02*
X117574D01*
X117174Y40983D02*
Y41783D01*
X122277Y7468D02*
X123077D01*
X122677Y7068D02*
Y7869D01*
X122277Y15469D02*
X123077D01*
X122677Y15068D02*
Y15868D01*
X122277Y23469D02*
X123077D01*
X122677Y23068D02*
Y23868D01*
X122277Y31468D02*
X123077D01*
X122677Y31069D02*
Y31868D01*
X122277Y39469D02*
X123077D01*
X122677Y39068D02*
Y39869D01*
X122277Y47469D02*
X123077D01*
X122677Y47069D02*
Y47868D01*
X122277Y55468D02*
X123077D01*
X122677Y55068D02*
Y55869D01*
X122277Y63468D02*
X123077D01*
X122677Y63068D02*
Y63868D01*
X122277Y71469D02*
X123077D01*
X122677Y71069D02*
Y71868D01*
X122277Y79469D02*
X123077D01*
X122677Y79068D02*
Y79869D01*
X122277Y87468D02*
X123077D01*
X122677Y87068D02*
Y87868D01*
X35033Y-17400D02*
X35833D01*
X35433Y-17799D02*
Y-16999D01*
X37655Y-21100D02*
X38455D01*
X38055Y-21499D02*
Y-20699D01*
X38258Y-18011D02*
X39058D01*
X38658Y-18410D02*
Y-17610D01*
X38266Y98300D02*
X39066D01*
X38666Y97900D02*
Y98700D01*
X5655Y98300D02*
X6455D01*
X6055Y97900D02*
Y98700D01*
X5655Y-21100D02*
X6455D01*
X6055Y-21499D02*
Y-20699D01*
X5655Y10900D02*
X6455D01*
X6055Y10501D02*
Y11300D01*
X5655Y18901D02*
X6455D01*
X6055Y18500D02*
Y19300D01*
X5655Y-5099D02*
X6455D01*
X6055Y-5500D02*
Y-4699D01*
X5655Y26901D02*
X6455D01*
X6055Y26500D02*
Y27301D01*
X5655Y34901D02*
X6455D01*
X6055Y34501D02*
Y35300D01*
X5655Y-13100D02*
X6455D01*
X6055Y-13499D02*
Y-12699D01*
X5655Y42900D02*
X6455D01*
X6055Y42500D02*
Y43301D01*
X5655Y50901D02*
X6455D01*
X6055Y50501D02*
Y51301D01*
X5655Y58900D02*
X6455D01*
X6055Y58500D02*
Y59301D01*
X5655Y66900D02*
X6455D01*
X6055Y66501D02*
Y67300D01*
X5655Y74901D02*
X6455D01*
X6055Y74501D02*
Y75301D01*
X5655Y82901D02*
X6455D01*
X6055Y82500D02*
Y83301D01*
X5655Y90900D02*
X6455D01*
X6055Y90500D02*
Y91300D01*
X41258Y-18011D02*
X42058D01*
X41658Y-18410D02*
Y-17610D01*
X42208Y68024D02*
X43008D01*
X42608Y67624D02*
Y68424D01*
X44482Y-16899D02*
X45282D01*
X44882Y-17300D02*
Y-16499D01*
X45655Y-21100D02*
X46455D01*
X46055Y-21499D02*
Y-20699D01*
X46266Y98300D02*
X47066D01*
X46666Y97900D02*
Y98700D01*
X-2345Y98300D02*
X-1545D01*
X-1945Y97900D02*
Y98700D01*
X-2345Y-21100D02*
X-1545D01*
X-1945Y-21499D02*
Y-20699D01*
X47707Y-18011D02*
X48507D01*
X48107Y-18410D02*
Y-17610D01*
X-5213Y-6312D02*
X-4413D01*
X-4813Y-6713D02*
Y-5912D01*
X-5223Y-18032D02*
X-4423D01*
X-4823Y-18431D02*
Y-17631D01*
X-5223Y10968D02*
X-4423D01*
X-4823Y10569D02*
Y11368D01*
X-5223Y18969D02*
X-4423D01*
X-4823Y18568D02*
Y19368D01*
X-5223Y26969D02*
X-4423D01*
X-4823Y26568D02*
Y27369D01*
X-5223Y34969D02*
X-4423D01*
X-4823Y34569D02*
Y35368D01*
X-5223Y-13032D02*
X-4423D01*
X-4823Y-13431D02*
Y-12631D01*
X-5223Y42968D02*
X-4423D01*
X-4823Y42568D02*
Y43369D01*
X-5223Y50968D02*
X-4423D01*
X-4823Y50568D02*
Y51368D01*
X-5223Y58969D02*
X-4423D01*
X-4823Y58569D02*
Y59368D01*
X-5223Y66969D02*
X-4423D01*
X-4823Y66568D02*
Y67369D01*
X-5223Y74968D02*
X-4423D01*
X-4823Y74568D02*
Y75368D01*
X-5223Y82968D02*
X-4423D01*
X-4823Y82569D02*
Y83368D01*
X-5223Y90969D02*
X-4423D01*
X-4823Y90569D02*
Y91369D01*
X50707Y-18011D02*
X51507D01*
X51107Y-18410D02*
Y-17610D01*
X53655Y-21100D02*
X54455D01*
X54055Y-21499D02*
Y-20699D01*
X53931Y-16899D02*
X54731D01*
X54331Y-17300D02*
Y-16499D01*
X54018Y79505D02*
X54818D01*
X54418Y79105D02*
Y79905D01*
X54266Y98300D02*
X55066D01*
X54666Y97900D02*
Y98700D01*
X57155Y-18011D02*
X57955D01*
X57555Y-18410D02*
Y-17610D01*
X60155Y-18011D02*
X60955D01*
X60555Y-18410D02*
Y-17610D01*
X61655Y-21100D02*
X62455D01*
X62055Y-21499D02*
Y-20699D01*
X62266Y98300D02*
X63066D01*
X62666Y97900D02*
Y98700D01*
X63379Y-16899D02*
X64179D01*
X63779Y-17300D02*
Y-16499D01*
X65829Y79505D02*
X66629D01*
X66229Y79105D02*
Y79905D01*
X69655Y-21100D02*
X70455D01*
X70055Y-21499D02*
Y-20699D01*
X70266Y98300D02*
X71066D01*
X70666Y97900D02*
Y98700D01*
X72828Y-16899D02*
X73628D01*
X73228Y-17300D02*
Y-16499D01*
X75977Y-16532D02*
X76777D01*
X76377Y-16931D02*
Y-16131D01*
X77655Y-21100D02*
X78455D01*
X78055Y-21499D02*
Y-20699D01*
X78266Y98300D02*
X79066D01*
X78666Y97900D02*
Y98700D01*
X79127Y-16532D02*
X79927D01*
X79527Y-16931D02*
Y-16131D01*
X83777Y17469D02*
X84577D01*
X84177Y17068D02*
Y17868D01*
X21655Y98300D02*
X22455D01*
X22055Y97900D02*
Y98700D01*
X21655Y-21100D02*
X22455D01*
X22055Y-21499D02*
Y-20699D01*
X85655Y-21100D02*
X86455D01*
X86055Y-21499D02*
Y-20699D01*
X85777Y-3531D02*
X86577D01*
X86177Y-3932D02*
Y-3131D01*
X86266Y98300D02*
X87066D01*
X86666Y97900D02*
Y98700D01*
X90277Y87169D02*
X91077D01*
X90677Y86769D02*
Y87568D01*
X90277Y90168D02*
X91077D01*
X90677Y89768D02*
Y90569D01*
X93655Y-21100D02*
X94455D01*
X94055Y-21499D02*
Y-20699D01*
X93655Y-13100D02*
X94455D01*
X94055Y-13499D02*
Y-12699D01*
X93777Y6968D02*
X94577D01*
X94177Y6568D02*
Y7368D01*
X93777Y13969D02*
X94577D01*
X94177Y13568D02*
Y14368D01*
X93777Y22968D02*
X94577D01*
X94177Y22569D02*
Y23369D01*
X93777Y27305D02*
X94577D01*
X94177Y26904D02*
Y27705D01*
X93777Y31168D02*
X94577D01*
X94177Y30768D02*
Y31569D01*
X93777Y-3531D02*
X94577D01*
X94177Y-3932D02*
Y-3131D01*
X93777Y40968D02*
X94577D01*
X94177Y40569D02*
Y41368D01*
X94266Y98300D02*
X95066D01*
X94666Y97900D02*
Y98700D01*
X95277Y37668D02*
X96077D01*
X95677Y37268D02*
Y38069D01*
X29655Y98300D02*
X30455D01*
X30055Y97900D02*
Y98700D01*
X29655Y-21100D02*
X30455D01*
X30055Y-21499D02*
Y-20699D01*
X98277Y67469D02*
X99077D01*
X98677Y67068D02*
Y67869D01*
X98277Y70468D02*
X99077D01*
X98677Y70069D02*
Y70868D01*
X98777Y48968D02*
X99577D01*
X99177Y48568D02*
Y49369D01*
X101655Y2901D02*
X102455D01*
X102055Y2500D02*
Y3300D01*
X101655Y-21100D02*
X102455D01*
X102055Y-21499D02*
Y-20699D01*
X101655Y-5099D02*
X102455D01*
X102055Y-5500D02*
Y-4699D01*
X101655Y-13100D02*
X102455D01*
X102055Y-13499D02*
Y-12699D01*
X101777Y13969D02*
X102577D01*
X102177Y13568D02*
Y14368D01*
X102266Y98300D02*
X103066D01*
X102666Y97900D02*
Y98700D01*
X102641Y73923D02*
X103441D01*
X103041Y73523D02*
Y74323D01*
X30397Y67804D02*
X31197D01*
X30797Y67405D02*
Y68204D01*
X105777Y60469D02*
X106577D01*
X106177Y60069D02*
Y60869D01*
X13655Y98300D02*
X14455D01*
X14055Y97900D02*
Y98700D01*
X13655Y-21100D02*
X14455D01*
X14055Y-21499D02*
Y-20699D01*
X108777Y20968D02*
X109577D01*
X109177Y20569D02*
Y21369D01*
X109655Y2901D02*
X110455D01*
X110055Y2500D02*
Y3300D01*
X109655Y-21100D02*
X110455D01*
X110055Y-21499D02*
Y-20699D01*
X109655Y10900D02*
X110455D01*
X110055Y10501D02*
Y11300D01*
X109655Y-5099D02*
X110455D01*
X110055Y-5500D02*
Y-4699D01*
X109655Y-13100D02*
X110455D01*
X110055Y-13499D02*
Y-12699D01*
X110266Y98300D02*
X111066D01*
X110666Y97900D02*
Y98700D01*
X112777Y50968D02*
X113577D01*
X113177Y50568D02*
Y51368D01*
X114777Y26469D02*
X115577D01*
X115177Y26068D02*
Y26869D01*
X115277Y59969D02*
X116077D01*
X115677Y59569D02*
Y60369D01*
X116277Y16468D02*
X117077D01*
X116677Y16069D02*
Y16869D01*
X117655Y-21100D02*
X118455D01*
X118055Y-21499D02*
Y-20699D01*
X117655Y-13100D02*
X118455D01*
X118055Y-13499D02*
Y-12699D01*
X121277Y97469D02*
X122077D01*
X121677Y97069D02*
Y97869D01*
M02*
