M48
;Layer_Color=9474304
;FILE_FORMAT=2:5
INCH,LZ
;TYPE=PLATED
T4F00S00C0.02362
T5F00S00C0.02953
%
G90
G05
T04
G00X0306182Y0070303
M15
G01X0301852
M16
G00X0322048Y0070303
M15
G01X0318899
M16
G00X0322048Y0104319
M15
G01X0318899
M16
G00X0306182Y0104319
M15
G01X0301852
M16
G00X0008868Y0148346
M15
G01X0013986
M16
G00X0008868Y0148346
M15
G01Y0150905
M16
G00X0008868Y0179803
M15
G01Y0182362
M16
G00X0008868Y0182362
M15
G01X0013986
M16
T05
G00X-0011064Y0148346
M15
G01X-0005846
M16
G00X-0011064Y0182362
M15
G01X-0005846
M16
M17
M30
