M48
;Layer_Color=9474304
;FILE_FORMAT=2:5
INCH,LZ
;TYPE=PLATED
T1F00S00C0.00800
T2F00S00C0.01000
T3F00S00C0.01500
T6F00S00C0.03150
T7F00S00C0.03937
T8F00S00C0.06063
T9F00S00C0.11811
%
T01
X0290794Y0081223
X0293Y0080312
X0290794Y0084824
X0291Y0087312
X02955Y0084812
X02978Y0085511
Y0089112
X02977Y0091312
X03095Y0089161
X03111Y0087312
X03095Y0085562
X027405Y0199811
X027205Y020096
Y0198361
X02653Y0198811
X02633Y019996
Y0197361
X0263053Y0207
X0260453
X0253604
X0251004
X0244155
X0241555
X02465Y0200761
Y0198161
X02485Y0199311
X02148Y019371
X021325Y019171
X021065
X02093Y019371
X0205538Y0194911
X0206767Y0197011
X0204167
X0202Y020031
X02Y0201461
Y0198861
X01915
Y0201461
X019Y020331
X018988Y0197301
X01977Y0188271
Y0185671
X01996Y0187101
X01988Y0182201
X0201029
X0203629Y01822
X0206
X0174673Y017726
X0173502Y0175361
X0176102
X0161929
X0159329
X01605Y017726
X01595Y0179811
X0157205Y0178758
X0154605
X01533Y0176811
X015195Y018081
X014935
X01475Y018231
X0154
X0164054Y0180757
X0166654
X01655Y018281
X0147757Y0156298
X0145157
X0146413Y0154397
X0091573Y015767
Y016017
X0089573Y016175
Y0156089
X0073589Y0154508
Y0152008
X0071589Y0150427
Y0156089
X00715Y017423
X00735Y0175811
Y0178311
X00715Y0179892
X007Y018711
X0068Y0188661
Y0191261
X007Y0192611
X0062811Y0204601
X0060211
X00615Y020661
X0054509Y0207001
X0051909
X0051908Y020031
X0054508
X0055858Y019831
X0050358
X0035611Y0207
X0033011
X0024924Y0174418
Y0171918
X0022924Y0176
X0022163Y0167693
X0020163Y0166112
Y0163612
X0022163Y0162031
X0022948Y0150962
X0024924Y0149759
Y0152259
X0033934Y015242
Y014992
X003591Y0151216
X0033591Y0154595
X003457Y0163612
Y0166112
X003657Y0167693
X0041558Y0167783
X0043558Y0166202
Y0163702
X0041558Y016212
X003657Y0162031
X-0002557Y0165281
X-0005057
X-0003852Y0167259
X-0003496Y0175689
X-000152Y0174484
Y0176983
X-000252Y0156483
Y0153983
X-0004496Y015519
X0061356Y0241818
X0063956
X0260451
X0263051
T02
X0034Y0002811
X0037
X004396Y0020662
X004696
X006296Y0021157
X006596
X007296Y0020662
X007596
Y0040156
X007296
X0046Y0049
X00335
X00245Y00425
X00205
X0021Y0031233
X002396Y0020662
X002696
X008448Y0021302
X00915Y004047
X010448
X01095Y0040483
X01115Y0055001
X0119
X01265
X0135999Y0054501
X013496Y0041157
X013196
X014196Y0040156
X014496
Y0020662
X014196
X0135Y0020811
X0132
X0127Y000681
X0124
Y0003311
X0127
X016348Y0020811
Y00515
X0159
X01835Y0050501
X018348Y0043183
X020096Y0040156
X020396
X021096
X021396
X023Y0040811
Y0055812
X022624Y005605
X0223673Y0058983
X02325Y0058811
X0209Y0060312
Y0063811
X0166141Y007067
X0201Y0002811
X0204
X0211
X0214
X022748Y0001001
X022248Y0020811
X023248
X0235Y0040811
Y0055812
X0259
X027996Y0040156
X028296
X028996
X029296
X0296Y0025811
X0273Y0020811
X027
X0267
X02575Y0011501
X023748Y0001001
X028Y0002811
X0283
X0283306Y0074812
X0281Y0079812
X0274729Y0080812
X02705Y0082311
X02675
X02645Y0084812
X0262Y0082811
X02625Y0077311
X02595
X0255Y0090812
X02505
X0247
X024252Y0090611
X024248Y0096983
X024715Y0101761
X02482Y01083
X0249873Y0113312
X02545
X0257Y0117312
Y012281
X0263Y0124311
X027645Y0124861
X02809Y0124811
X02838Y012491
X028575Y0116312
X02815Y0114312
X02805Y0111811
X02775
Y0114812
X0278039Y0108107
X028173Y0108083
X0287Y0108311
X02808Y0102312
X02741Y0104425
X02704Y0104211
X0262771Y0103711
X02591Y0104411
X0256Y0104425
X026Y0108811
X02635
X0262771Y0093783
X02566Y0094064
X02705Y0092511
X02738Y0093911
X0273566Y0098681
X027602Y0090611
X02805Y0090812
X02835
X0283Y0087312
X0288
X0289Y0090812
X029Y0094064
X0293Y0101812
X0298Y0096811
X02975Y0079312
Y0076311
X0306Y008239
X02926Y0116312
X0280888Y0134198
X0281Y0137811
Y014371
X0276951Y0134263
X0272Y013431
X02505Y0139269
X02545Y014581
X024
X023998Y0141235
X0236092Y0150595
X0238945Y0156756
X02405Y0161811
X0243Y016981
X02475
X0255297
X02585Y018281
X026148Y0186484
X0266704
X0274418
X0279642
X028Y0198501
X0285
X0288524Y0206484
X0291674
X0275925
X0266477
X0257028
X0247579
X023813
X0237544Y022431
X0262044
X0286044
X0300544
X02945Y0187811
Y018331
X029Y016981
X03025Y016881
Y0164311
X0303Y015681
Y0152811
X0295917Y0153048
X0273014Y016931
X02505Y0127311
X02465
X0242Y012281
Y0117312
X0245Y0113312
X02357Y01096
X02385Y0106
X0238555Y0103056
X0236Y0119811
X0235Y0076811
Y0073812
X02422Y0075484
X023Y0074812
X0226305
X022Y0077112
X02111Y0081011
X02082Y0083711
X0198Y0092312
X01955
X01915
X01885
X01878Y01019
X01903Y01012
X01897Y01037
X01916Y0105601
X0168Y0097
X0164
X0154Y0097312
X01515Y0099812
X01485Y0106312
X0148Y0109811
X01435Y0110001
X01425Y0106
X01415Y0120001
X01525Y0111311
X0155118Y0089483
X0164Y0084
X01685
X01715Y0083811
X0175Y0085501
X017Y00895
X0169291Y0077101
X0166141Y0077277
X01329Y0078412
X01335Y0085501
X0135Y00895
X0137795Y0087501
X01402Y0089512
X012995Y0089551
X01325Y0094001
X0124752Y0091558
X01205Y0091501
X0096Y0104312
X00935Y0107311
X0084Y0107412
Y0110811
X00805
Y0114312
X0084
X0096Y0117112
X00995
Y0120811
X0096
Y0124811
X00995
X00845Y0129811
Y013331
X0085Y0137311
X0084921Y014089
X01144Y0144711
X01146Y014841
X0134Y01559
X013937Y015593
X0148819Y0162311
X0153543
X0158267
X0162992
X0167716
X0172441
X0177165
Y016781
X0172441
X0167716
X0162992
X0158267
X0153543
X01495
X0140945Y017441
X01334Y01695
X01231Y01712
X011881Y0200001
X01152Y0199001
X0113Y020231
Y0206311
X01035Y020765
Y0199972
X00915Y0203
Y0208501
X00865
X0081Y0205
X0092Y022431
X0119Y0214311
X0123
X01315Y0204811
X01355
X0138Y0199811
X0142499Y021681
X01485
Y022231
X0152999Y0225811
X0157499Y021181
Y020781
X0162499
X0165999
Y021181
X0162499
X0224524Y0210983
Y0215984
X0229524
Y0210983
X0229024Y0205983
X0231981Y0206028
X0232024Y0201983
X0229024
X0223044Y022431
X0233Y017331
X0232634Y0169177
X023298Y0165483
Y0160484
X022548Y0160984
X022248
X021948
X0219442Y0149869
X0213508Y0145802
X02135Y0142062
X0217Y0129311
X0221285
X023248Y0130483
Y0135984
X0232401Y0142062
X0231592Y0150595
X02285Y0156756
X023364Y0087212
X02325Y0071811
X01725Y012031
Y0124311
X0168
Y012031
X0071871Y0113812
Y0106811
X0070042Y0103922
X0061729Y0106811
X0059Y012231
X0057Y0127811
X0059806Y0130617
X0066Y013081
Y0127811
X00695
Y013081
X0072Y014481
X0076Y0147388
X00665Y015041
X0056855Y0147484
X0047Y014481
X0044
X00445Y013481
X0048Y0131
X0032Y0127252
X0020059
X002Y0115312
Y0111811
X0021Y0091812
Y0088311
Y0084812
X0015
Y0088311
Y0091812
X0031Y0089311
Y0094811
Y0099812
X004
Y0094811
Y0089311
X00495Y0089811
Y0093312
X0053
Y0089811
X0051785Y0156111
X00575Y0163311
Y016831
X005748Y0177983
X00565Y0181349
X00625
X00615Y0175984
X0072Y017131
X0075
X0073Y0162311
X007368Y0207
X0068
X0057933Y020681
X0048485
X00385
X003
X0026437Y0206527
X002648Y0201983
X001948Y0211983
X001598
Y0215984
X001948
X00145Y022431
X00289
X00775
X003398Y0176202
X003148Y0169464
X002716Y0170171
X00245Y016931
X001748Y0169783
X0017366Y0178117
X0012452
X0004587Y0170766
Y0160925
Y0155018
X-00075Y015631
X001748Y0154035
Y0159941
X002348Y0142483
X002648
Y0137984
X002348
X-00065Y0121908
X0029587Y0242336
X0039036
X0048484
X0057933
X0067382
X00714Y02445
X0073681Y0242483
X0076831Y0242336
X007998Y0242311
X008313Y0242211
X01347Y0230311
X0137999
X01413
X0144499
X0149499
X0153499
X0238131Y0242336
X024758
X0257028
X0266477
X0275926
X0279075Y0242483
X0282225
X0288524Y0242311
X0291674
T03
X-0005846Y-0005846
X0Y-0008268
X0005846Y-0005846
X0008268Y0
X0005846Y0005846
X0Y0008268
X-0005846Y0005846
X-0008268Y0
X0306693
X0309115Y0005846
X0314961Y0008268
X0320807Y0005846
X0323228Y0
X0320807Y-0005846
X0314961Y-0008268
X0309115Y-0005846
X011805Y0120138
X0112204Y0117717
X0106358Y0120138
X0103936Y0125985
X0106358Y0131831
X0112204Y0134252
X011805Y0131831
X0120472Y0125985
X0005846Y0242185
X0Y0239764
X-0005846Y0242185
X-0008268Y0248031
X-0005846Y0253878
X0Y0256299
X0005846Y0253878
X0008268Y0248031
X0306693
X0309115Y0242185
X0314961Y0239764
X0320807Y0242185
X0323228Y0248031
X0320807Y0253878
X0314961Y0256299
X0309115Y0253878
T06
X017559Y0060984
Y0070984
X0186732
Y0060984
X0197583
Y0070984
X0208583
X0218085Y009056
X0225959
Y0100402
X0218085
Y0110245
X0225959
Y0120086
X0218085
T07
X0270433Y0055118
X0280433
X0290433
X031Y0055223
X032
X0008809Y0134773
X-0001191
T08
X0303366Y0123311
X0313366Y0133311
X0323366Y0123311
Y0143311
X0303366
Y0179311
Y0199311
X0323366
Y0179311
X0313366Y0189311
T09
X0Y0
X0314961
X0112204Y0125985
X0Y0248031
X0314961
M30
