G04*
G04 #@! TF.GenerationSoftware,Altium Limited,Altium Designer,22.5.1 (42)*
G04*
G04 Layer_Color=255*
%FSLAX25Y25*%
%MOIN*%
G70*
G04*
G04 #@! TF.SameCoordinates,343D76CA-8D90-4984-A01A-401E7FF7C9D5*
G04*
G04*
G04 #@! TF.FilePolarity,Positive*
G04*
G01*
G75*
%ADD12R,0.02402X0.07874*%
%ADD13R,0.10551X0.14173*%
%ADD28C,0.04016*%
%ADD29C,0.11811*%
%ADD31R,0.10000X0.02520*%
%ADD32R,0.18504X0.02520*%
%ADD33R,0.01811X0.05709*%
D12*
X85915Y73802D02*
D03*
X81978D02*
D03*
X78041D02*
D03*
X74104D02*
D03*
X70167D02*
D03*
X66230D02*
D03*
X62293D02*
D03*
X58356D02*
D03*
X54419D02*
D03*
X30797D02*
D03*
X34734D02*
D03*
X38671D02*
D03*
X50482D02*
D03*
X42608D02*
D03*
X46545D02*
D03*
D13*
X19025Y84826D02*
D03*
X97687D02*
D03*
D28*
X95433Y-8032D02*
D03*
X22677D02*
D03*
D29*
X118110Y0D02*
D03*
X0D02*
D03*
D31*
X92303D02*
D03*
X25807D02*
D03*
D32*
X71555D02*
D03*
X46555D02*
D03*
D33*
X88976Y12165D02*
D03*
Y-12165D02*
D03*
X85827Y12165D02*
D03*
Y-12165D02*
D03*
X82677Y12165D02*
D03*
Y-12165D02*
D03*
X79528Y12165D02*
D03*
Y-12165D02*
D03*
X76378Y12165D02*
D03*
Y-12165D02*
D03*
X73228Y12165D02*
D03*
Y-12165D02*
D03*
X70079Y12165D02*
D03*
Y-12165D02*
D03*
X66929Y12165D02*
D03*
Y-12165D02*
D03*
X63780Y12165D02*
D03*
Y-12165D02*
D03*
X60630Y12165D02*
D03*
Y-12165D02*
D03*
X57480Y12165D02*
D03*
Y-12165D02*
D03*
X54331Y12165D02*
D03*
Y-12165D02*
D03*
X51181Y12165D02*
D03*
Y-12165D02*
D03*
X48031Y12165D02*
D03*
Y-12165D02*
D03*
X44882Y12165D02*
D03*
Y-12165D02*
D03*
X41732Y12165D02*
D03*
Y-12165D02*
D03*
X38583Y12165D02*
D03*
Y-12165D02*
D03*
X35433Y12165D02*
D03*
Y-12165D02*
D03*
X32283Y12165D02*
D03*
Y-12165D02*
D03*
X29134Y12165D02*
D03*
Y-12165D02*
D03*
M02*
