G04*
G04 #@! TF.GenerationSoftware,Altium Limited,Altium Designer,22.5.1 (42)*
G04*
G04 Layer_Color=32896*
%FSLAX25Y25*%
%MOIN*%
G70*
G04*
G04 #@! TF.SameCoordinates,343D76CA-8D90-4984-A01A-401E7FF7C9D5*
G04*
G04*
G04 #@! TF.FilePolarity,Positive*
G04*
G01*
G75*
%ADD10C,0.00787*%
%ADD11C,0.00500*%
G36*
X25555Y-13250D02*
X26555Y-16750D01*
X24555D01*
X25555Y-13250D01*
D02*
G37*
G36*
X83888Y57468D02*
X34286D01*
Y65491D01*
X83888D01*
Y57468D01*
D02*
G37*
G36*
X97045Y15883D02*
Y15244D01*
X95469D01*
Y14473D01*
X94759D01*
Y15244D01*
X94281D01*
Y15888D01*
X94759D01*
Y18330D01*
X95380D01*
X97045Y15883D01*
D02*
G37*
G36*
X92788Y18330D02*
X92883Y18319D01*
X92977Y18297D01*
X93060Y18275D01*
X93138Y18241D01*
X93210Y18208D01*
X93271Y18175D01*
X93332Y18136D01*
X93382Y18097D01*
X93432Y18064D01*
X93471Y18031D01*
X93499Y17997D01*
X93527Y17975D01*
X93543Y17953D01*
X93554Y17942D01*
X93560Y17936D01*
X93626Y17842D01*
X93682Y17731D01*
X93732Y17614D01*
X93776Y17492D01*
X93810Y17365D01*
X93843Y17231D01*
X93865Y17104D01*
X93887Y16976D01*
X93898Y16854D01*
X93910Y16743D01*
X93921Y16637D01*
X93926Y16549D01*
X93932Y16477D01*
Y16421D01*
Y16399D01*
Y16382D01*
Y16377D01*
Y16371D01*
X93926Y16171D01*
X93915Y15988D01*
X93898Y15816D01*
X93876Y15661D01*
X93854Y15522D01*
X93826Y15394D01*
X93793Y15283D01*
X93760Y15183D01*
X93732Y15100D01*
X93699Y15022D01*
X93671Y14961D01*
X93643Y14911D01*
X93626Y14878D01*
X93610Y14850D01*
X93599Y14834D01*
X93593Y14828D01*
X93527Y14750D01*
X93454Y14689D01*
X93382Y14628D01*
X93305Y14584D01*
X93232Y14539D01*
X93155Y14506D01*
X93083Y14479D01*
X93010Y14456D01*
X92944Y14434D01*
X92883Y14423D01*
X92827Y14412D01*
X92783Y14406D01*
X92744D01*
X92711Y14401D01*
X92689D01*
X92589Y14406D01*
X92494Y14417D01*
X92400Y14440D01*
X92317Y14462D01*
X92239Y14490D01*
X92167Y14523D01*
X92106Y14562D01*
X92045Y14601D01*
X91995Y14634D01*
X91945Y14673D01*
X91906Y14706D01*
X91873Y14734D01*
X91851Y14756D01*
X91834Y14778D01*
X91823Y14789D01*
X91817Y14795D01*
X91751Y14889D01*
X91695Y15000D01*
X91640Y15117D01*
X91601Y15244D01*
X91562Y15372D01*
X91534Y15500D01*
X91506Y15633D01*
X91484Y15761D01*
X91473Y15883D01*
X91462Y15994D01*
X91451Y16099D01*
X91445Y16188D01*
X91440Y16260D01*
Y16316D01*
Y16338D01*
Y16354D01*
Y16360D01*
Y16365D01*
X91445Y16565D01*
X91456Y16748D01*
X91473Y16915D01*
X91501Y17070D01*
X91529Y17215D01*
X91556Y17342D01*
X91595Y17459D01*
X91628Y17559D01*
X91662Y17653D01*
X91695Y17725D01*
X91728Y17792D01*
X91756Y17847D01*
X91784Y17886D01*
X91800Y17914D01*
X91812Y17931D01*
X91817Y17936D01*
X91878Y18008D01*
X91945Y18069D01*
X92017Y18119D01*
X92089Y18169D01*
X92161Y18208D01*
X92233Y18236D01*
X92300Y18264D01*
X92372Y18286D01*
X92439Y18302D01*
X92494Y18314D01*
X92550Y18325D01*
X92594Y18330D01*
X92633Y18336D01*
X92689D01*
X92788Y18330D01*
D02*
G37*
G36*
X95681Y-15443D02*
X95786Y-15454D01*
X95886Y-15476D01*
X95969Y-15498D01*
X96036Y-15521D01*
X96092Y-15543D01*
X96125Y-15554D01*
X96130Y-15560D01*
X96136D01*
X96225Y-15609D01*
X96308Y-15665D01*
X96375Y-15720D01*
X96430Y-15770D01*
X96474Y-15820D01*
X96508Y-15859D01*
X96530Y-15881D01*
X96536Y-15892D01*
X96586Y-15976D01*
X96630Y-16064D01*
X96663Y-16159D01*
X96697Y-16248D01*
X96719Y-16331D01*
X96735Y-16392D01*
X96741Y-16420D01*
Y-16436D01*
X96746Y-16447D01*
Y-16453D01*
X96069Y-16564D01*
X96053Y-16475D01*
X96030Y-16398D01*
X96008Y-16331D01*
X95981Y-16281D01*
X95953Y-16237D01*
X95931Y-16203D01*
X95914Y-16187D01*
X95908Y-16181D01*
X95859Y-16137D01*
X95803Y-16103D01*
X95748Y-16081D01*
X95697Y-16064D01*
X95653Y-16053D01*
X95620Y-16048D01*
X95587D01*
X95520Y-16053D01*
X95453Y-16064D01*
X95403Y-16087D01*
X95359Y-16103D01*
X95320Y-16126D01*
X95298Y-16148D01*
X95281Y-16159D01*
X95276Y-16164D01*
X95237Y-16209D01*
X95209Y-16264D01*
X95187Y-16314D01*
X95176Y-16364D01*
X95165Y-16409D01*
X95159Y-16442D01*
Y-16464D01*
Y-16475D01*
X95165Y-16558D01*
X95181Y-16631D01*
X95209Y-16692D01*
X95237Y-16742D01*
X95270Y-16786D01*
X95292Y-16814D01*
X95315Y-16836D01*
X95320Y-16841D01*
X95387Y-16886D01*
X95459Y-16919D01*
X95537Y-16941D01*
X95609Y-16958D01*
X95675Y-16964D01*
X95731Y-16969D01*
X95781D01*
X95859Y-17563D01*
X95786Y-17546D01*
X95725Y-17530D01*
X95664Y-17519D01*
X95614Y-17513D01*
X95575Y-17507D01*
X95520D01*
X95442Y-17513D01*
X95376Y-17535D01*
X95315Y-17558D01*
X95259Y-17591D01*
X95220Y-17618D01*
X95187Y-17646D01*
X95165Y-17669D01*
X95159Y-17674D01*
X95109Y-17741D01*
X95070Y-17813D01*
X95043Y-17885D01*
X95020Y-17957D01*
X95009Y-18024D01*
X95004Y-18074D01*
Y-18107D01*
Y-18113D01*
Y-18118D01*
X95009Y-18224D01*
X95026Y-18318D01*
X95054Y-18401D01*
X95082Y-18468D01*
X95115Y-18518D01*
X95137Y-18556D01*
X95159Y-18584D01*
X95165Y-18590D01*
X95226Y-18645D01*
X95292Y-18690D01*
X95353Y-18717D01*
X95415Y-18740D01*
X95470Y-18751D01*
X95509Y-18756D01*
X95537Y-18762D01*
X95548D01*
X95625Y-18756D01*
X95692Y-18740D01*
X95753Y-18717D01*
X95809Y-18690D01*
X95847Y-18667D01*
X95881Y-18645D01*
X95903Y-18629D01*
X95908Y-18623D01*
X95958Y-18562D01*
X96003Y-18495D01*
X96030Y-18423D01*
X96058Y-18357D01*
X96075Y-18296D01*
X96086Y-18246D01*
X96092Y-18212D01*
Y-18207D01*
Y-18201D01*
X96802Y-18290D01*
X96791Y-18379D01*
X96769Y-18462D01*
X96719Y-18618D01*
X96658Y-18751D01*
X96619Y-18806D01*
X96586Y-18862D01*
X96552Y-18912D01*
X96519Y-18950D01*
X96491Y-18989D01*
X96463Y-19017D01*
X96441Y-19039D01*
X96425Y-19056D01*
X96413Y-19067D01*
X96408Y-19073D01*
X96341Y-19123D01*
X96269Y-19173D01*
X96203Y-19211D01*
X96125Y-19245D01*
X95981Y-19300D01*
X95847Y-19333D01*
X95781Y-19345D01*
X95725Y-19356D01*
X95675Y-19361D01*
X95631Y-19367D01*
X95592Y-19372D01*
X95542D01*
X95442Y-19367D01*
X95342Y-19356D01*
X95253Y-19339D01*
X95165Y-19317D01*
X95087Y-19289D01*
X95009Y-19261D01*
X94937Y-19228D01*
X94876Y-19195D01*
X94821Y-19161D01*
X94765Y-19128D01*
X94726Y-19100D01*
X94687Y-19073D01*
X94660Y-19050D01*
X94638Y-19034D01*
X94626Y-19023D01*
X94621Y-19017D01*
X94554Y-18950D01*
X94499Y-18878D01*
X94449Y-18806D01*
X94404Y-18734D01*
X94371Y-18656D01*
X94338Y-18584D01*
X94293Y-18451D01*
X94282Y-18390D01*
X94271Y-18329D01*
X94260Y-18279D01*
X94254Y-18235D01*
X94249Y-18201D01*
Y-18173D01*
Y-18157D01*
Y-18151D01*
X94260Y-18024D01*
X94282Y-17913D01*
X94310Y-17807D01*
X94349Y-17724D01*
X94388Y-17652D01*
X94415Y-17602D01*
X94438Y-17569D01*
X94449Y-17558D01*
X94526Y-17474D01*
X94615Y-17402D01*
X94704Y-17347D01*
X94787Y-17302D01*
X94859Y-17269D01*
X94920Y-17252D01*
X94943Y-17241D01*
X94959D01*
X94971Y-17236D01*
X94976D01*
X94876Y-17175D01*
X94793Y-17113D01*
X94721Y-17047D01*
X94654Y-16980D01*
X94599Y-16914D01*
X94554Y-16847D01*
X94521Y-16781D01*
X94488Y-16719D01*
X94465Y-16658D01*
X94449Y-16603D01*
X94438Y-16553D01*
X94432Y-16509D01*
X94427Y-16475D01*
X94421Y-16447D01*
Y-16431D01*
Y-16425D01*
X94427Y-16359D01*
X94432Y-16298D01*
X94465Y-16175D01*
X94504Y-16064D01*
X94554Y-15970D01*
X94604Y-15892D01*
X94649Y-15837D01*
X94665Y-15815D01*
X94682Y-15798D01*
X94687Y-15793D01*
X94693Y-15787D01*
X94754Y-15726D01*
X94826Y-15671D01*
X94893Y-15626D01*
X94965Y-15587D01*
X95043Y-15548D01*
X95115Y-15521D01*
X95253Y-15482D01*
X95315Y-15465D01*
X95376Y-15454D01*
X95426Y-15449D01*
X95476Y-15443D01*
X95514Y-15437D01*
X95564D01*
X95681Y-15443D01*
D02*
G37*
G36*
X92717D02*
X92806Y-15454D01*
X92895Y-15471D01*
X92978Y-15493D01*
X93056Y-15521D01*
X93128Y-15554D01*
X93200Y-15582D01*
X93256Y-15615D01*
X93311Y-15654D01*
X93361Y-15682D01*
X93400Y-15715D01*
X93439Y-15743D01*
X93466Y-15765D01*
X93483Y-15781D01*
X93494Y-15793D01*
X93500Y-15798D01*
X93561Y-15870D01*
X93611Y-15942D01*
X93661Y-16020D01*
X93700Y-16098D01*
X93733Y-16175D01*
X93761Y-16259D01*
X93799Y-16409D01*
X93816Y-16475D01*
X93827Y-16542D01*
X93833Y-16597D01*
X93838Y-16647D01*
X93844Y-16692D01*
Y-16719D01*
Y-16742D01*
Y-16747D01*
X93838Y-16847D01*
X93827Y-16947D01*
X93816Y-17041D01*
X93794Y-17125D01*
X93766Y-17208D01*
X93738Y-17280D01*
X93711Y-17352D01*
X93677Y-17413D01*
X93650Y-17469D01*
X93622Y-17519D01*
X93594Y-17558D01*
X93566Y-17596D01*
X93544Y-17618D01*
X93533Y-17641D01*
X93522Y-17652D01*
X93516Y-17657D01*
X93455Y-17718D01*
X93389Y-17774D01*
X93322Y-17818D01*
X93256Y-17857D01*
X93189Y-17890D01*
X93128Y-17924D01*
X93006Y-17963D01*
X92900Y-17990D01*
X92856Y-17996D01*
X92817Y-18001D01*
X92784Y-18007D01*
X92739D01*
X92662Y-18001D01*
X92589Y-17990D01*
X92523Y-17979D01*
X92456Y-17957D01*
X92334Y-17907D01*
X92234Y-17846D01*
X92157Y-17785D01*
X92123Y-17757D01*
X92096Y-17735D01*
X92073Y-17713D01*
X92057Y-17696D01*
X92051Y-17691D01*
X92046Y-17685D01*
X92057Y-17802D01*
X92068Y-17913D01*
X92079Y-18013D01*
X92096Y-18101D01*
X92112Y-18179D01*
X92129Y-18251D01*
X92146Y-18312D01*
X92162Y-18368D01*
X92184Y-18418D01*
X92195Y-18457D01*
X92212Y-18490D01*
X92223Y-18512D01*
X92234Y-18534D01*
X92245Y-18545D01*
X92251Y-18556D01*
X92312Y-18623D01*
X92379Y-18673D01*
X92440Y-18712D01*
X92501Y-18734D01*
X92556Y-18751D01*
X92595Y-18756D01*
X92623Y-18762D01*
X92634D01*
X92695Y-18756D01*
X92756Y-18745D01*
X92800Y-18729D01*
X92845Y-18712D01*
X92878Y-18695D01*
X92900Y-18679D01*
X92917Y-18667D01*
X92923Y-18662D01*
X92961Y-18618D01*
X92989Y-18568D01*
X93011Y-18512D01*
X93028Y-18457D01*
X93045Y-18412D01*
X93050Y-18373D01*
X93056Y-18346D01*
Y-18335D01*
X93766Y-18418D01*
X93749Y-18507D01*
X93727Y-18584D01*
X93705Y-18662D01*
X93677Y-18729D01*
X93650Y-18795D01*
X93622Y-18856D01*
X93589Y-18906D01*
X93561Y-18956D01*
X93528Y-18995D01*
X93505Y-19034D01*
X93477Y-19061D01*
X93455Y-19089D01*
X93439Y-19106D01*
X93422Y-19123D01*
X93417Y-19128D01*
X93411Y-19134D01*
X93355Y-19178D01*
X93300Y-19211D01*
X93178Y-19272D01*
X93061Y-19311D01*
X92945Y-19345D01*
X92839Y-19361D01*
X92795Y-19367D01*
X92756D01*
X92728Y-19372D01*
X92684D01*
X92567Y-19367D01*
X92462Y-19350D01*
X92362Y-19328D01*
X92262Y-19300D01*
X92173Y-19261D01*
X92090Y-19222D01*
X92012Y-19184D01*
X91946Y-19139D01*
X91885Y-19095D01*
X91829Y-19056D01*
X91785Y-19012D01*
X91746Y-18978D01*
X91713Y-18950D01*
X91690Y-18928D01*
X91679Y-18912D01*
X91674Y-18906D01*
X91602Y-18812D01*
X91546Y-18706D01*
X91491Y-18590D01*
X91446Y-18473D01*
X91407Y-18346D01*
X91374Y-18218D01*
X91352Y-18096D01*
X91330Y-17968D01*
X91313Y-17852D01*
X91302Y-17746D01*
X91291Y-17646D01*
X91285Y-17558D01*
X91280Y-17485D01*
Y-17430D01*
Y-17413D01*
Y-17397D01*
Y-17391D01*
Y-17385D01*
X91285Y-17197D01*
X91296Y-17025D01*
X91313Y-16864D01*
X91341Y-16714D01*
X91369Y-16581D01*
X91396Y-16459D01*
X91435Y-16348D01*
X91468Y-16248D01*
X91502Y-16164D01*
X91535Y-16092D01*
X91568Y-16031D01*
X91596Y-15981D01*
X91624Y-15942D01*
X91641Y-15915D01*
X91652Y-15898D01*
X91657Y-15892D01*
X91729Y-15815D01*
X91807Y-15743D01*
X91885Y-15682D01*
X91962Y-15632D01*
X92046Y-15587D01*
X92123Y-15548D01*
X92201Y-15521D01*
X92279Y-15493D01*
X92345Y-15476D01*
X92412Y-15460D01*
X92467Y-15449D01*
X92517Y-15443D01*
X92562D01*
X92589Y-15437D01*
X92617D01*
X92717Y-15443D01*
D02*
G37*
G36*
X24912Y18826D02*
X25001Y18820D01*
X25173Y18792D01*
X25317Y18748D01*
X25383Y18726D01*
X25445Y18698D01*
X25500Y18676D01*
X25545Y18648D01*
X25589Y18626D01*
X25622Y18609D01*
X25650Y18587D01*
X25667Y18576D01*
X25678Y18570D01*
X25683Y18565D01*
X25744Y18509D01*
X25800Y18454D01*
X25850Y18387D01*
X25894Y18315D01*
X25961Y18171D01*
X26016Y18032D01*
X26033Y17960D01*
X26050Y17899D01*
X26066Y17843D01*
X26072Y17794D01*
X26083Y17749D01*
Y17721D01*
X26088Y17699D01*
Y17694D01*
X25356Y17621D01*
X25345Y17732D01*
X25322Y17827D01*
X25300Y17910D01*
X25273Y17971D01*
X25250Y18021D01*
X25228Y18054D01*
X25211Y18077D01*
X25206Y18082D01*
X25150Y18126D01*
X25089Y18160D01*
X25028Y18188D01*
X24967Y18204D01*
X24917Y18215D01*
X24873Y18221D01*
X24834D01*
X24751Y18215D01*
X24679Y18199D01*
X24618Y18176D01*
X24562Y18154D01*
X24523Y18132D01*
X24490Y18110D01*
X24473Y18093D01*
X24468Y18088D01*
X24423Y18032D01*
X24390Y17971D01*
X24368Y17910D01*
X24351Y17849D01*
X24340Y17794D01*
X24335Y17743D01*
Y17716D01*
Y17710D01*
Y17705D01*
X24340Y17621D01*
X24357Y17544D01*
X24385Y17466D01*
X24412Y17399D01*
X24440Y17338D01*
X24468Y17294D01*
X24484Y17266D01*
X24490Y17255D01*
X24512Y17222D01*
X24545Y17183D01*
X24590Y17133D01*
X24634Y17089D01*
X24734Y16983D01*
X24834Y16878D01*
X24934Y16778D01*
X24978Y16733D01*
X25023Y16700D01*
X25056Y16667D01*
X25078Y16645D01*
X25095Y16628D01*
X25100Y16622D01*
X25211Y16517D01*
X25311Y16417D01*
X25406Y16323D01*
X25489Y16239D01*
X25567Y16156D01*
X25633Y16079D01*
X25694Y16012D01*
X25744Y15945D01*
X25789Y15890D01*
X25828Y15840D01*
X25861Y15801D01*
X25883Y15762D01*
X25905Y15740D01*
X25916Y15718D01*
X25927Y15707D01*
Y15701D01*
X26000Y15573D01*
X26055Y15440D01*
X26100Y15318D01*
X26133Y15207D01*
X26155Y15107D01*
X26160Y15068D01*
X26166Y15035D01*
X26172Y15007D01*
X26177Y14985D01*
Y14974D01*
Y14968D01*
X23596D01*
Y15651D01*
X25062D01*
X25017Y15723D01*
X24967Y15784D01*
X24945Y15812D01*
X24928Y15834D01*
X24917Y15845D01*
X24912Y15851D01*
X24890Y15873D01*
X24867Y15901D01*
X24801Y15962D01*
X24729Y16034D01*
X24656Y16106D01*
X24584Y16173D01*
X24523Y16228D01*
X24501Y16251D01*
X24484Y16267D01*
X24473Y16273D01*
X24468Y16278D01*
X24346Y16395D01*
X24246Y16489D01*
X24162Y16578D01*
X24096Y16645D01*
X24046Y16700D01*
X24013Y16739D01*
X23990Y16767D01*
X23985Y16772D01*
X23913Y16867D01*
X23852Y16955D01*
X23802Y17039D01*
X23763Y17111D01*
X23730Y17172D01*
X23707Y17222D01*
X23696Y17249D01*
X23691Y17261D01*
X23658Y17349D01*
X23635Y17438D01*
X23619Y17522D01*
X23607Y17599D01*
X23602Y17660D01*
X23596Y17710D01*
Y17743D01*
Y17755D01*
X23602Y17838D01*
X23613Y17921D01*
X23624Y17999D01*
X23646Y18071D01*
X23702Y18199D01*
X23757Y18310D01*
X23791Y18360D01*
X23818Y18398D01*
X23846Y18437D01*
X23874Y18465D01*
X23896Y18487D01*
X23907Y18509D01*
X23918Y18515D01*
X23924Y18520D01*
X23985Y18576D01*
X24057Y18626D01*
X24124Y18665D01*
X24201Y18698D01*
X24346Y18754D01*
X24490Y18792D01*
X24556Y18804D01*
X24618Y18815D01*
X24673Y18820D01*
X24723Y18826D01*
X24762Y18831D01*
X24817D01*
X24912Y18826D01*
D02*
G37*
G36*
X49787Y-92141D02*
X48492D01*
Y-90207D01*
X47446Y-89134D01*
X45680Y-92141D01*
X44005D01*
X46549Y-88237D01*
X44126Y-85739D01*
X45865D01*
X48492Y-88589D01*
Y-85739D01*
X49787D01*
Y-92141D01*
D02*
G37*
G36*
X12518Y-92141D02*
X11325D01*
Y-87923D01*
X8726Y-92141D01*
X7431D01*
Y-85739D01*
X8624D01*
Y-90050D01*
X11270Y-85739D01*
X12518D01*
Y-92141D01*
D02*
G37*
G36*
X73670Y-92141D02*
X72477D01*
Y-87108D01*
X71219Y-92141D01*
X69970D01*
X68712Y-87108D01*
X68703Y-92141D01*
X67510D01*
Y-85739D01*
X69452D01*
X70590Y-90115D01*
X71737Y-85739D01*
X73670D01*
Y-92141D01*
D02*
G37*
G36*
X34848Y-85628D02*
X35088Y-85656D01*
X35301Y-85703D01*
X35514Y-85758D01*
X35699Y-85823D01*
X35884Y-85897D01*
X36041Y-85980D01*
X36189Y-86063D01*
X36328Y-86146D01*
X36439Y-86230D01*
X36541Y-86304D01*
X36624Y-86369D01*
X36689Y-86424D01*
X36735Y-86470D01*
X36763Y-86498D01*
X36772Y-86507D01*
X36920Y-86683D01*
X37040Y-86868D01*
X37151Y-87062D01*
X37244Y-87266D01*
X37327Y-87479D01*
X37392Y-87682D01*
X37447Y-87885D01*
X37493Y-88080D01*
X37530Y-88274D01*
X37549Y-88441D01*
X37567Y-88598D01*
X37586Y-88727D01*
Y-88838D01*
X37595Y-88921D01*
Y-88977D01*
Y-88986D01*
Y-88995D01*
X37586Y-89273D01*
X37558Y-89532D01*
X37521Y-89782D01*
X37466Y-90004D01*
X37410Y-90216D01*
X37336Y-90420D01*
X37262Y-90596D01*
X37188Y-90753D01*
X37114Y-90901D01*
X37040Y-91031D01*
X36966Y-91132D01*
X36911Y-91225D01*
X36855Y-91290D01*
X36818Y-91345D01*
X36790Y-91373D01*
X36781Y-91382D01*
X36624Y-91539D01*
X36457Y-91669D01*
X36282Y-91789D01*
X36106Y-91882D01*
X35930Y-91965D01*
X35754Y-92039D01*
X35588Y-92094D01*
X35431Y-92141D01*
X35273Y-92177D01*
X35135Y-92205D01*
X35005Y-92224D01*
X34903Y-92233D01*
X34811Y-92242D01*
X34746Y-92251D01*
X34691D01*
X34496Y-92242D01*
X34321Y-92233D01*
X34145Y-92205D01*
X33988Y-92168D01*
X33840Y-92131D01*
X33701Y-92094D01*
X33571Y-92048D01*
X33451Y-91992D01*
X33349Y-91946D01*
X33257Y-91900D01*
X33174Y-91863D01*
X33109Y-91826D01*
X33053Y-91789D01*
X33016Y-91761D01*
X32998Y-91752D01*
X32989Y-91743D01*
X32868Y-91641D01*
X32757Y-91530D01*
X32554Y-91280D01*
X32387Y-91021D01*
X32258Y-90772D01*
X32202Y-90651D01*
X32156Y-90540D01*
X32119Y-90438D01*
X32082Y-90355D01*
X32054Y-90281D01*
X32036Y-90226D01*
X32027Y-90189D01*
Y-90180D01*
X33285Y-89791D01*
X33359Y-90041D01*
X33442Y-90254D01*
X33525Y-90429D01*
X33618Y-90577D01*
X33692Y-90688D01*
X33756Y-90762D01*
X33803Y-90808D01*
X33821Y-90827D01*
X33969Y-90938D01*
X34117Y-91012D01*
X34265Y-91067D01*
X34395Y-91114D01*
X34515Y-91132D01*
X34617Y-91141D01*
X34654Y-91151D01*
X34700D01*
X34829Y-91141D01*
X34950Y-91132D01*
X35172Y-91067D01*
X35366Y-90993D01*
X35523Y-90892D01*
X35653Y-90799D01*
X35745Y-90725D01*
X35782Y-90688D01*
X35810Y-90661D01*
X35819Y-90651D01*
X35828Y-90642D01*
X35902Y-90540D01*
X35967Y-90420D01*
X36032Y-90290D01*
X36078Y-90152D01*
X36152Y-89865D01*
X36208Y-89578D01*
X36226Y-89439D01*
X36235Y-89319D01*
X36254Y-89199D01*
Y-89097D01*
X36263Y-89023D01*
Y-88959D01*
Y-88912D01*
Y-88903D01*
X36254Y-88690D01*
X36245Y-88496D01*
X36226Y-88320D01*
X36198Y-88154D01*
X36161Y-88006D01*
X36124Y-87867D01*
X36087Y-87747D01*
X36041Y-87636D01*
X36004Y-87543D01*
X35967Y-87460D01*
X35930Y-87395D01*
X35893Y-87340D01*
X35865Y-87293D01*
X35847Y-87266D01*
X35828Y-87247D01*
Y-87238D01*
X35745Y-87146D01*
X35653Y-87062D01*
X35560Y-86997D01*
X35458Y-86942D01*
X35264Y-86849D01*
X35079Y-86785D01*
X34922Y-86748D01*
X34848Y-86739D01*
X34792Y-86729D01*
X34737Y-86720D01*
X34672D01*
X34487Y-86729D01*
X34321Y-86766D01*
X34173Y-86813D01*
X34043Y-86868D01*
X33941Y-86923D01*
X33867Y-86970D01*
X33821Y-87007D01*
X33803Y-87016D01*
X33682Y-87127D01*
X33571Y-87256D01*
X33488Y-87386D01*
X33423Y-87515D01*
X33377Y-87626D01*
X33349Y-87710D01*
X33331Y-87747D01*
Y-87774D01*
X33322Y-87784D01*
Y-87793D01*
X32045Y-87488D01*
X32138Y-87220D01*
X32239Y-86988D01*
X32350Y-86785D01*
X32452Y-86618D01*
X32554Y-86489D01*
X32591Y-86433D01*
X32628Y-86387D01*
X32656Y-86359D01*
X32683Y-86331D01*
X32693Y-86313D01*
X32702D01*
X32841Y-86193D01*
X32998Y-86082D01*
X33146Y-85989D01*
X33303Y-85915D01*
X33470Y-85841D01*
X33627Y-85786D01*
X33784Y-85739D01*
X33932Y-85703D01*
X34071Y-85675D01*
X34200Y-85656D01*
X34311Y-85638D01*
X34413Y-85628D01*
X34496Y-85619D01*
X34607D01*
X34848Y-85628D01*
D02*
G37*
G36*
X104954Y-92141D02*
X102179D01*
X102021Y-92131D01*
X101744D01*
X101633Y-92122D01*
X101457D01*
X101392Y-92113D01*
X101300D01*
X101263Y-92103D01*
X101226D01*
X101041Y-92076D01*
X100874Y-92030D01*
X100726Y-91983D01*
X100597Y-91928D01*
X100495Y-91882D01*
X100421Y-91835D01*
X100375Y-91808D01*
X100356Y-91798D01*
X100227Y-91697D01*
X100125Y-91585D01*
X100023Y-91484D01*
X99949Y-91373D01*
X99885Y-91280D01*
X99838Y-91206D01*
X99811Y-91160D01*
X99801Y-91141D01*
X99737Y-90984D01*
X99681Y-90836D01*
X99644Y-90688D01*
X99626Y-90559D01*
X99607Y-90448D01*
X99598Y-90364D01*
Y-90309D01*
Y-90300D01*
Y-90290D01*
X99607Y-90087D01*
X99644Y-89902D01*
X99700Y-89745D01*
X99755Y-89597D01*
X99811Y-89486D01*
X99866Y-89403D01*
X99903Y-89347D01*
X99912Y-89328D01*
X100042Y-89180D01*
X100181Y-89060D01*
X100338Y-88959D01*
X100477Y-88885D01*
X100606Y-88820D01*
X100717Y-88774D01*
X100754Y-88764D01*
X100782Y-88755D01*
X100800Y-88746D01*
X100810D01*
X100662Y-88662D01*
X100532Y-88579D01*
X100421Y-88477D01*
X100329Y-88394D01*
X100264Y-88311D01*
X100208Y-88246D01*
X100171Y-88200D01*
X100162Y-88182D01*
X100079Y-88033D01*
X100014Y-87895D01*
X99977Y-87756D01*
X99940Y-87626D01*
X99922Y-87515D01*
X99912Y-87432D01*
Y-87377D01*
Y-87367D01*
Y-87358D01*
X99922Y-87210D01*
X99940Y-87062D01*
X99977Y-86942D01*
X100014Y-86831D01*
X100051Y-86739D01*
X100088Y-86664D01*
X100107Y-86628D01*
X100116Y-86609D01*
X100190Y-86489D01*
X100273Y-86387D01*
X100356Y-86295D01*
X100430Y-86211D01*
X100504Y-86156D01*
X100560Y-86110D01*
X100597Y-86082D01*
X100606Y-86072D01*
X100717Y-85998D01*
X100837Y-85943D01*
X100948Y-85897D01*
X101050Y-85860D01*
X101143Y-85832D01*
X101207Y-85813D01*
X101254Y-85804D01*
X101272D01*
X101429Y-85786D01*
X101605Y-85767D01*
X101790Y-85758D01*
X101975Y-85749D01*
X102142Y-85739D01*
X104954D01*
Y-92141D01*
D02*
G37*
G36*
X91994Y-86822D02*
X90098D01*
Y-92141D01*
X88803D01*
Y-86822D01*
X86916D01*
Y-85739D01*
X91994D01*
Y-86822D01*
D02*
G37*
G36*
X86528D02*
X84631D01*
Y-92141D01*
X83336D01*
Y-86822D01*
X81449D01*
Y-85739D01*
X86528D01*
Y-86822D01*
D02*
G37*
G36*
X57788Y-92141D02*
X56493D01*
Y-85739D01*
X57788D01*
Y-92141D01*
D02*
G37*
G36*
X55226D02*
X50712D01*
Y-91058D01*
X53931D01*
Y-85786D01*
X55226D01*
Y-92141D01*
D02*
G37*
G36*
X30907D02*
X29612D01*
Y-89467D01*
X29196D01*
X29067Y-89477D01*
X28956Y-89486D01*
X28863Y-89504D01*
X28789Y-89513D01*
X28743Y-89532D01*
X28715Y-89541D01*
X28706D01*
X28632Y-89578D01*
X28558Y-89615D01*
X28493Y-89662D01*
X28428Y-89698D01*
X28382Y-89745D01*
X28345Y-89782D01*
X28327Y-89800D01*
X28317Y-89810D01*
X28280Y-89856D01*
X28234Y-89902D01*
X28132Y-90041D01*
X28021Y-90189D01*
X27901Y-90355D01*
X27799Y-90503D01*
X27753Y-90577D01*
X27716Y-90633D01*
X27679Y-90679D01*
X27651Y-90716D01*
X27642Y-90744D01*
X27633Y-90753D01*
X26708Y-92141D01*
X25154D01*
X25940Y-90892D01*
X26023Y-90762D01*
X26107Y-90633D01*
X26181Y-90522D01*
X26255Y-90420D01*
X26319Y-90328D01*
X26375Y-90235D01*
X26486Y-90096D01*
X26569Y-89985D01*
X26625Y-89911D01*
X26671Y-89865D01*
X26680Y-89856D01*
X26782Y-89745D01*
X26902Y-89643D01*
X27013Y-89560D01*
X27124Y-89477D01*
X27217Y-89412D01*
X27291Y-89366D01*
X27346Y-89328D01*
X27355Y-89319D01*
X27365D01*
X27207Y-89292D01*
X27069Y-89254D01*
X26939Y-89218D01*
X26810Y-89171D01*
X26699Y-89125D01*
X26597Y-89079D01*
X26495Y-89033D01*
X26412Y-88977D01*
X26338Y-88931D01*
X26273Y-88885D01*
X26218Y-88838D01*
X26181Y-88801D01*
X26144Y-88774D01*
X26116Y-88746D01*
X26107Y-88736D01*
X26097Y-88727D01*
X26023Y-88635D01*
X25959Y-88542D01*
X25848Y-88339D01*
X25774Y-88144D01*
X25727Y-87950D01*
X25690Y-87784D01*
X25681Y-87719D01*
Y-87654D01*
X25672Y-87608D01*
Y-87562D01*
Y-87543D01*
Y-87534D01*
X25681Y-87331D01*
X25718Y-87136D01*
X25764Y-86970D01*
X25811Y-86822D01*
X25866Y-86702D01*
X25912Y-86609D01*
X25931Y-86581D01*
X25949Y-86554D01*
X25959Y-86544D01*
Y-86535D01*
X26070Y-86378D01*
X26190Y-86248D01*
X26310Y-86146D01*
X26430Y-86054D01*
X26541Y-85998D01*
X26625Y-85952D01*
X26680Y-85925D01*
X26689Y-85915D01*
X26699D01*
X26791Y-85887D01*
X26893Y-85860D01*
X27124Y-85813D01*
X27374Y-85786D01*
X27614Y-85758D01*
X27735D01*
X27836Y-85749D01*
X27938D01*
X28021Y-85739D01*
X30907D01*
Y-92141D01*
D02*
G37*
G36*
X24451D02*
X19585D01*
Y-91058D01*
X23156D01*
Y-89319D01*
X19946D01*
Y-88237D01*
X23156D01*
Y-86822D01*
X19706D01*
Y-85739D01*
X24451D01*
Y-92141D01*
D02*
G37*
G36*
X18485Y-92141D02*
X13619D01*
Y-91058D01*
X17190D01*
Y-89319D01*
X13980D01*
Y-88237D01*
X17190D01*
Y-86822D01*
X13739D01*
Y-85739D01*
X18485D01*
Y-92141D01*
D02*
G37*
G36*
X95953Y-85628D02*
X96222Y-85656D01*
X96453Y-85703D01*
X96656Y-85749D01*
X96740Y-85777D01*
X96823Y-85795D01*
X96888Y-85813D01*
X96943Y-85841D01*
X96989Y-85851D01*
X97026Y-85869D01*
X97045Y-85878D01*
X97054D01*
X97221Y-85952D01*
X97378Y-86045D01*
X97517Y-86146D01*
X97637Y-86239D01*
X97739Y-86322D01*
X97822Y-86396D01*
X97868Y-86443D01*
X97877Y-86452D01*
X97887Y-86461D01*
X98016Y-86609D01*
X98136Y-86766D01*
X98238Y-86905D01*
X98321Y-87044D01*
X98386Y-87164D01*
X98442Y-87256D01*
X98451Y-87293D01*
X98469Y-87321D01*
X98479Y-87331D01*
Y-87340D01*
X98571Y-87599D01*
X98645Y-87876D01*
X98691Y-88154D01*
X98728Y-88413D01*
X98738Y-88533D01*
X98747Y-88644D01*
X98756Y-88736D01*
Y-88820D01*
X98765Y-88894D01*
Y-88940D01*
Y-88977D01*
Y-88986D01*
X98756Y-89264D01*
X98728Y-89532D01*
X98691Y-89782D01*
X98636Y-90013D01*
X98571Y-90226D01*
X98497Y-90420D01*
X98423Y-90605D01*
X98340Y-90762D01*
X98266Y-90910D01*
X98192Y-91031D01*
X98118Y-91141D01*
X98053Y-91234D01*
X97998Y-91299D01*
X97961Y-91354D01*
X97933Y-91382D01*
X97924Y-91391D01*
X97757Y-91549D01*
X97581Y-91678D01*
X97406Y-91798D01*
X97211Y-91891D01*
X97026Y-91974D01*
X96832Y-92048D01*
X96656Y-92103D01*
X96471Y-92150D01*
X96305Y-92187D01*
X96148Y-92215D01*
X96009Y-92233D01*
X95889Y-92242D01*
X95796Y-92251D01*
X95722Y-92261D01*
X95657D01*
X95398Y-92251D01*
X95158Y-92224D01*
X94927Y-92177D01*
X94714Y-92122D01*
X94510Y-92057D01*
X94325Y-91983D01*
X94159Y-91909D01*
X94002Y-91826D01*
X93872Y-91743D01*
X93752Y-91669D01*
X93650Y-91595D01*
X93567Y-91530D01*
X93493Y-91474D01*
X93447Y-91428D01*
X93419Y-91400D01*
X93410Y-91391D01*
X93262Y-91215D01*
X93132Y-91031D01*
X93012Y-90836D01*
X92919Y-90642D01*
X92836Y-90438D01*
X92762Y-90235D01*
X92707Y-90031D01*
X92660Y-89837D01*
X92633Y-89662D01*
X92605Y-89486D01*
X92586Y-89338D01*
X92568Y-89208D01*
Y-89097D01*
X92559Y-89014D01*
Y-88968D01*
Y-88949D01*
X92568Y-88662D01*
X92596Y-88394D01*
X92633Y-88144D01*
X92688Y-87904D01*
X92753Y-87691D01*
X92827Y-87488D01*
X92901Y-87303D01*
X92984Y-87146D01*
X93067Y-86997D01*
X93141Y-86868D01*
X93215Y-86757D01*
X93280Y-86664D01*
X93326Y-86600D01*
X93373Y-86544D01*
X93400Y-86516D01*
X93410Y-86507D01*
X93576Y-86350D01*
X93752Y-86211D01*
X93937Y-86091D01*
X94122Y-85989D01*
X94316Y-85906D01*
X94501Y-85832D01*
X94686Y-85777D01*
X94862Y-85730D01*
X95028Y-85693D01*
X95186Y-85666D01*
X95324Y-85647D01*
X95445Y-85628D01*
X95537D01*
X95611Y-85619D01*
X95676D01*
X95953Y-85628D01*
D02*
G37*
G36*
X78064D02*
X78332Y-85656D01*
X78563Y-85703D01*
X78767Y-85749D01*
X78850Y-85777D01*
X78933Y-85795D01*
X78998Y-85813D01*
X79054Y-85841D01*
X79100Y-85851D01*
X79137Y-85869D01*
X79155Y-85878D01*
X79165D01*
X79331Y-85952D01*
X79488Y-86045D01*
X79627Y-86146D01*
X79747Y-86239D01*
X79849Y-86322D01*
X79932Y-86396D01*
X79979Y-86443D01*
X79988Y-86452D01*
X79997Y-86461D01*
X80127Y-86609D01*
X80247Y-86766D01*
X80349Y-86905D01*
X80432Y-87044D01*
X80497Y-87164D01*
X80552Y-87256D01*
X80561Y-87293D01*
X80580Y-87321D01*
X80589Y-87331D01*
Y-87340D01*
X80682Y-87599D01*
X80756Y-87876D01*
X80802Y-88154D01*
X80839Y-88413D01*
X80848Y-88533D01*
X80857Y-88644D01*
X80867Y-88736D01*
Y-88820D01*
X80876Y-88894D01*
Y-88940D01*
Y-88977D01*
Y-88986D01*
X80867Y-89264D01*
X80839Y-89532D01*
X80802Y-89782D01*
X80746Y-90013D01*
X80682Y-90226D01*
X80608Y-90420D01*
X80534Y-90605D01*
X80450Y-90762D01*
X80376Y-90910D01*
X80302Y-91031D01*
X80228Y-91141D01*
X80164Y-91234D01*
X80108Y-91299D01*
X80071Y-91354D01*
X80043Y-91382D01*
X80034Y-91391D01*
X79868Y-91549D01*
X79692Y-91678D01*
X79516Y-91798D01*
X79322Y-91891D01*
X79137Y-91974D01*
X78943Y-92048D01*
X78767Y-92103D01*
X78582Y-92150D01*
X78415Y-92187D01*
X78258Y-92215D01*
X78119Y-92233D01*
X77999Y-92242D01*
X77907Y-92251D01*
X77833Y-92261D01*
X77768D01*
X77509Y-92251D01*
X77268Y-92224D01*
X77037Y-92177D01*
X76824Y-92122D01*
X76621Y-92057D01*
X76436Y-91983D01*
X76269Y-91909D01*
X76112Y-91826D01*
X75983Y-91743D01*
X75862Y-91669D01*
X75761Y-91595D01*
X75677Y-91530D01*
X75603Y-91474D01*
X75557Y-91428D01*
X75529Y-91400D01*
X75520Y-91391D01*
X75372Y-91215D01*
X75243Y-91031D01*
X75122Y-90836D01*
X75030Y-90642D01*
X74947Y-90438D01*
X74873Y-90235D01*
X74817Y-90031D01*
X74771Y-89837D01*
X74743Y-89662D01*
X74715Y-89486D01*
X74697Y-89338D01*
X74678Y-89208D01*
Y-89097D01*
X74669Y-89014D01*
Y-88968D01*
Y-88949D01*
X74678Y-88662D01*
X74706Y-88394D01*
X74743Y-88144D01*
X74799Y-87904D01*
X74863Y-87691D01*
X74937Y-87488D01*
X75011Y-87303D01*
X75095Y-87146D01*
X75178Y-86997D01*
X75252Y-86868D01*
X75326Y-86757D01*
X75391Y-86664D01*
X75437Y-86600D01*
X75483Y-86544D01*
X75511Y-86516D01*
X75520Y-86507D01*
X75687Y-86350D01*
X75862Y-86211D01*
X76047Y-86091D01*
X76232Y-85989D01*
X76427Y-85906D01*
X76612Y-85832D01*
X76797Y-85777D01*
X76972Y-85730D01*
X77139Y-85693D01*
X77296Y-85666D01*
X77435Y-85647D01*
X77555Y-85628D01*
X77648D01*
X77722Y-85619D01*
X77786D01*
X78064Y-85628D01*
D02*
G37*
G36*
X61747Y-85628D02*
X61987Y-85656D01*
X62200Y-85693D01*
X62385Y-85730D01*
X62468Y-85758D01*
X62542Y-85777D01*
X62598Y-85795D01*
X62653Y-85813D01*
X62690Y-85832D01*
X62718Y-85841D01*
X62737Y-85851D01*
X62746D01*
X62931Y-85943D01*
X63088Y-86045D01*
X63227Y-86156D01*
X63338Y-86257D01*
X63430Y-86350D01*
X63486Y-86424D01*
X63532Y-86480D01*
X63541Y-86489D01*
Y-86498D01*
X63634Y-86655D01*
X63699Y-86822D01*
X63745Y-86979D01*
X63773Y-87118D01*
X63791Y-87238D01*
X63810Y-87331D01*
Y-87367D01*
Y-87395D01*
Y-87405D01*
Y-87414D01*
X63800Y-87552D01*
X63782Y-87691D01*
X63754Y-87811D01*
X63717Y-87932D01*
X63625Y-88154D01*
X63514Y-88348D01*
X63467Y-88431D01*
X63412Y-88496D01*
X63366Y-88561D01*
X63319Y-88616D01*
X63282Y-88653D01*
X63255Y-88681D01*
X63236Y-88700D01*
X63227Y-88709D01*
X63144Y-88774D01*
X63042Y-88838D01*
X62940Y-88903D01*
X62820Y-88959D01*
X62589Y-89069D01*
X62348Y-89162D01*
X62228Y-89199D01*
X62126Y-89236D01*
X62024Y-89264D01*
X61941Y-89292D01*
X61876Y-89310D01*
X61821Y-89328D01*
X61784Y-89338D01*
X61775D01*
X61627Y-89375D01*
X61497Y-89412D01*
X61377Y-89439D01*
X61266Y-89467D01*
X61173Y-89495D01*
X61090Y-89513D01*
X61016Y-89541D01*
X60951Y-89560D01*
X60896Y-89569D01*
X60850Y-89587D01*
X60785Y-89606D01*
X60748Y-89625D01*
X60739D01*
X60618Y-89671D01*
X60526Y-89717D01*
X60443Y-89763D01*
X60378Y-89810D01*
X60332Y-89846D01*
X60304Y-89874D01*
X60285Y-89893D01*
X60276Y-89902D01*
X60230Y-89967D01*
X60193Y-90031D01*
X60174Y-90096D01*
X60156Y-90152D01*
X60147Y-90207D01*
X60137Y-90254D01*
Y-90281D01*
Y-90290D01*
X60147Y-90420D01*
X60184Y-90531D01*
X60239Y-90642D01*
X60295Y-90734D01*
X60359Y-90808D01*
X60406Y-90864D01*
X60443Y-90901D01*
X60461Y-90910D01*
X60591Y-90993D01*
X60739Y-91058D01*
X60896Y-91105D01*
X61044Y-91132D01*
X61183Y-91151D01*
X61294Y-91169D01*
X61395D01*
X61608Y-91160D01*
X61793Y-91123D01*
X61950Y-91077D01*
X62089Y-91021D01*
X62200Y-90966D01*
X62274Y-90920D01*
X62320Y-90882D01*
X62339Y-90873D01*
X62459Y-90744D01*
X62552Y-90605D01*
X62635Y-90448D01*
X62690Y-90290D01*
X62737Y-90152D01*
X62774Y-90041D01*
X62783Y-90004D01*
Y-89967D01*
X62792Y-89948D01*
Y-89939D01*
X64050Y-90059D01*
X64022Y-90254D01*
X63985Y-90438D01*
X63930Y-90614D01*
X63884Y-90772D01*
X63819Y-90920D01*
X63754Y-91058D01*
X63689Y-91179D01*
X63625Y-91290D01*
X63560Y-91382D01*
X63495Y-91465D01*
X63440Y-91539D01*
X63384Y-91604D01*
X63347Y-91650D01*
X63310Y-91678D01*
X63292Y-91697D01*
X63282Y-91706D01*
X63153Y-91808D01*
X63014Y-91891D01*
X62866Y-91965D01*
X62709Y-92030D01*
X62561Y-92076D01*
X62404Y-92122D01*
X62098Y-92187D01*
X61960Y-92215D01*
X61830Y-92233D01*
X61719Y-92242D01*
X61617Y-92251D01*
X61534Y-92261D01*
X61414D01*
X61118Y-92251D01*
X60850Y-92224D01*
X60609Y-92187D01*
X60507Y-92168D01*
X60406Y-92141D01*
X60322Y-92122D01*
X60248Y-92103D01*
X60184Y-92085D01*
X60128Y-92067D01*
X60082Y-92048D01*
X60054Y-92039D01*
X60036Y-92030D01*
X60026D01*
X59823Y-91928D01*
X59656Y-91817D01*
X59499Y-91706D01*
X59379Y-91585D01*
X59286Y-91484D01*
X59212Y-91391D01*
X59175Y-91336D01*
X59157Y-91326D01*
Y-91317D01*
X59055Y-91132D01*
X58972Y-90956D01*
X58916Y-90781D01*
X58879Y-90614D01*
X58861Y-90485D01*
X58852Y-90420D01*
X58842Y-90374D01*
Y-90337D01*
Y-90309D01*
Y-90290D01*
Y-90281D01*
X58852Y-90059D01*
X58879Y-89865D01*
X58926Y-89689D01*
X58972Y-89541D01*
X59018Y-89421D01*
X59064Y-89338D01*
X59092Y-89282D01*
X59101Y-89264D01*
X59203Y-89116D01*
X59323Y-88986D01*
X59444Y-88875D01*
X59555Y-88783D01*
X59656Y-88709D01*
X59740Y-88653D01*
X59795Y-88616D01*
X59804Y-88607D01*
X59814D01*
X59906Y-88561D01*
X59999Y-88515D01*
X60221Y-88431D01*
X60452Y-88357D01*
X60674Y-88283D01*
X60776Y-88256D01*
X60877Y-88228D01*
X60970Y-88200D01*
X61044Y-88182D01*
X61109Y-88163D01*
X61155Y-88154D01*
X61192Y-88144D01*
X61201D01*
X61368Y-88098D01*
X61516Y-88061D01*
X61654Y-88024D01*
X61784Y-87987D01*
X61886Y-87950D01*
X61987Y-87913D01*
X62071Y-87876D01*
X62145Y-87849D01*
X62209Y-87821D01*
X62256Y-87793D01*
X62302Y-87774D01*
X62330Y-87756D01*
X62376Y-87728D01*
X62385Y-87719D01*
X62450Y-87654D01*
X62496Y-87590D01*
X62524Y-87525D01*
X62542Y-87460D01*
X62561Y-87414D01*
X62570Y-87367D01*
Y-87340D01*
Y-87331D01*
X62561Y-87238D01*
X62542Y-87164D01*
X62505Y-87090D01*
X62468Y-87034D01*
X62431Y-86988D01*
X62394Y-86961D01*
X62376Y-86942D01*
X62367Y-86933D01*
X62237Y-86849D01*
X62098Y-86794D01*
X61950Y-86748D01*
X61812Y-86720D01*
X61691Y-86702D01*
X61590Y-86692D01*
X61497D01*
X61303Y-86702D01*
X61136Y-86729D01*
X60998Y-86766D01*
X60887Y-86803D01*
X60794Y-86840D01*
X60729Y-86877D01*
X60692Y-86905D01*
X60683Y-86914D01*
X60591Y-87007D01*
X60507Y-87118D01*
X60443Y-87229D01*
X60396Y-87349D01*
X60359Y-87451D01*
X60341Y-87534D01*
X60322Y-87599D01*
Y-87608D01*
Y-87617D01*
X59027Y-87571D01*
X59037Y-87405D01*
X59064Y-87256D01*
X59101Y-87108D01*
X59148Y-86979D01*
X59194Y-86849D01*
X59249Y-86729D01*
X59305Y-86628D01*
X59360Y-86526D01*
X59425Y-86443D01*
X59481Y-86369D01*
X59536Y-86304D01*
X59582Y-86248D01*
X59619Y-86211D01*
X59647Y-86184D01*
X59666Y-86165D01*
X59675Y-86156D01*
X59795Y-86063D01*
X59925Y-85980D01*
X60063Y-85906D01*
X60211Y-85841D01*
X60359Y-85795D01*
X60507Y-85749D01*
X60803Y-85684D01*
X60942Y-85666D01*
X61062Y-85647D01*
X61183Y-85638D01*
X61284Y-85628D01*
X61368Y-85619D01*
X61479D01*
X61747Y-85628D01*
D02*
G37*
G36*
X41369D02*
X41610Y-85656D01*
X41822Y-85693D01*
X42007Y-85730D01*
X42091Y-85758D01*
X42165Y-85777D01*
X42220Y-85795D01*
X42276Y-85813D01*
X42313Y-85832D01*
X42340Y-85841D01*
X42359Y-85851D01*
X42368D01*
X42553Y-85943D01*
X42710Y-86045D01*
X42849Y-86156D01*
X42960Y-86257D01*
X43053Y-86350D01*
X43108Y-86424D01*
X43154Y-86480D01*
X43164Y-86489D01*
Y-86498D01*
X43256Y-86655D01*
X43321Y-86822D01*
X43367Y-86979D01*
X43395Y-87118D01*
X43413Y-87238D01*
X43432Y-87331D01*
Y-87367D01*
Y-87395D01*
Y-87405D01*
Y-87414D01*
X43423Y-87552D01*
X43404Y-87691D01*
X43376Y-87811D01*
X43339Y-87932D01*
X43247Y-88154D01*
X43136Y-88348D01*
X43090Y-88431D01*
X43034Y-88496D01*
X42988Y-88561D01*
X42942Y-88616D01*
X42905Y-88653D01*
X42877Y-88681D01*
X42858Y-88700D01*
X42849Y-88709D01*
X42766Y-88774D01*
X42664Y-88838D01*
X42562Y-88903D01*
X42442Y-88959D01*
X42211Y-89069D01*
X41970Y-89162D01*
X41850Y-89199D01*
X41748Y-89236D01*
X41647Y-89264D01*
X41563Y-89292D01*
X41499Y-89310D01*
X41443Y-89328D01*
X41406Y-89338D01*
X41397D01*
X41249Y-89375D01*
X41119Y-89412D01*
X40999Y-89439D01*
X40888Y-89467D01*
X40796Y-89495D01*
X40712Y-89513D01*
X40638Y-89541D01*
X40574Y-89560D01*
X40518Y-89569D01*
X40472Y-89587D01*
X40407Y-89606D01*
X40370Y-89625D01*
X40361D01*
X40241Y-89671D01*
X40148Y-89717D01*
X40065Y-89763D01*
X40000Y-89810D01*
X39954Y-89846D01*
X39926Y-89874D01*
X39908Y-89893D01*
X39898Y-89902D01*
X39852Y-89967D01*
X39815Y-90031D01*
X39797Y-90096D01*
X39778Y-90152D01*
X39769Y-90207D01*
X39760Y-90254D01*
Y-90281D01*
Y-90290D01*
X39769Y-90420D01*
X39806Y-90531D01*
X39861Y-90642D01*
X39917Y-90734D01*
X39982Y-90808D01*
X40028Y-90864D01*
X40065Y-90901D01*
X40083Y-90910D01*
X40213Y-90993D01*
X40361Y-91058D01*
X40518Y-91105D01*
X40666Y-91132D01*
X40805Y-91151D01*
X40916Y-91169D01*
X41018D01*
X41230Y-91160D01*
X41415Y-91123D01*
X41573Y-91077D01*
X41711Y-91021D01*
X41822Y-90966D01*
X41896Y-90920D01*
X41943Y-90882D01*
X41961Y-90873D01*
X42081Y-90744D01*
X42174Y-90605D01*
X42257Y-90448D01*
X42313Y-90290D01*
X42359Y-90152D01*
X42396Y-90041D01*
X42405Y-90004D01*
Y-89967D01*
X42414Y-89948D01*
Y-89939D01*
X43672Y-90059D01*
X43645Y-90254D01*
X43608Y-90438D01*
X43552Y-90614D01*
X43506Y-90772D01*
X43441Y-90920D01*
X43376Y-91058D01*
X43312Y-91179D01*
X43247Y-91290D01*
X43182Y-91382D01*
X43117Y-91465D01*
X43062Y-91539D01*
X43006Y-91604D01*
X42969Y-91650D01*
X42932Y-91678D01*
X42914Y-91697D01*
X42905Y-91706D01*
X42775Y-91808D01*
X42636Y-91891D01*
X42488Y-91965D01*
X42331Y-92030D01*
X42183Y-92076D01*
X42026Y-92122D01*
X41721Y-92187D01*
X41582Y-92215D01*
X41452Y-92233D01*
X41341Y-92242D01*
X41240Y-92251D01*
X41156Y-92261D01*
X41036D01*
X40740Y-92251D01*
X40472Y-92224D01*
X40231Y-92187D01*
X40130Y-92168D01*
X40028Y-92141D01*
X39945Y-92122D01*
X39871Y-92103D01*
X39806Y-92085D01*
X39750Y-92067D01*
X39704Y-92048D01*
X39676Y-92039D01*
X39658Y-92030D01*
X39649D01*
X39445Y-91928D01*
X39279Y-91817D01*
X39121Y-91706D01*
X39001Y-91585D01*
X38909Y-91484D01*
X38835Y-91391D01*
X38798Y-91336D01*
X38779Y-91326D01*
Y-91317D01*
X38677Y-91132D01*
X38594Y-90956D01*
X38539Y-90781D01*
X38502Y-90614D01*
X38483Y-90485D01*
X38474Y-90420D01*
X38465Y-90374D01*
Y-90337D01*
Y-90309D01*
Y-90290D01*
Y-90281D01*
X38474Y-90059D01*
X38502Y-89865D01*
X38548Y-89689D01*
X38594Y-89541D01*
X38640Y-89421D01*
X38687Y-89338D01*
X38714Y-89282D01*
X38724Y-89264D01*
X38825Y-89116D01*
X38946Y-88986D01*
X39066Y-88875D01*
X39177Y-88783D01*
X39279Y-88709D01*
X39362Y-88653D01*
X39417Y-88616D01*
X39427Y-88607D01*
X39436D01*
X39528Y-88561D01*
X39621Y-88515D01*
X39843Y-88431D01*
X40074Y-88357D01*
X40296Y-88283D01*
X40398Y-88256D01*
X40500Y-88228D01*
X40592Y-88200D01*
X40666Y-88182D01*
X40731Y-88163D01*
X40777Y-88154D01*
X40814Y-88144D01*
X40823D01*
X40990Y-88098D01*
X41138Y-88061D01*
X41277Y-88024D01*
X41406Y-87987D01*
X41508Y-87950D01*
X41610Y-87913D01*
X41693Y-87876D01*
X41767Y-87849D01*
X41832Y-87821D01*
X41878Y-87793D01*
X41924Y-87774D01*
X41952Y-87756D01*
X41998Y-87728D01*
X42007Y-87719D01*
X42072Y-87654D01*
X42118Y-87590D01*
X42146Y-87525D01*
X42165Y-87460D01*
X42183Y-87414D01*
X42192Y-87367D01*
Y-87340D01*
Y-87331D01*
X42183Y-87238D01*
X42165Y-87164D01*
X42128Y-87090D01*
X42091Y-87034D01*
X42054Y-86988D01*
X42017Y-86961D01*
X41998Y-86942D01*
X41989Y-86933D01*
X41859Y-86849D01*
X41721Y-86794D01*
X41573Y-86748D01*
X41434Y-86720D01*
X41314Y-86702D01*
X41212Y-86692D01*
X41119D01*
X40925Y-86702D01*
X40759Y-86729D01*
X40620Y-86766D01*
X40509Y-86803D01*
X40416Y-86840D01*
X40352Y-86877D01*
X40315Y-86905D01*
X40305Y-86914D01*
X40213Y-87007D01*
X40130Y-87118D01*
X40065Y-87229D01*
X40019Y-87349D01*
X39982Y-87451D01*
X39963Y-87534D01*
X39945Y-87599D01*
Y-87608D01*
Y-87617D01*
X38650Y-87571D01*
X38659Y-87405D01*
X38687Y-87256D01*
X38724Y-87108D01*
X38770Y-86979D01*
X38816Y-86849D01*
X38872Y-86729D01*
X38927Y-86628D01*
X38983Y-86526D01*
X39047Y-86443D01*
X39103Y-86369D01*
X39158Y-86304D01*
X39205Y-86248D01*
X39242Y-86211D01*
X39269Y-86184D01*
X39288Y-86165D01*
X39297Y-86156D01*
X39417Y-86063D01*
X39547Y-85980D01*
X39686Y-85906D01*
X39834Y-85841D01*
X39982Y-85795D01*
X40130Y-85749D01*
X40426Y-85684D01*
X40564Y-85666D01*
X40685Y-85647D01*
X40805Y-85638D01*
X40907Y-85628D01*
X40990Y-85619D01*
X41101D01*
X41369Y-85628D01*
D02*
G37*
G36*
X106693Y86456D02*
X106787Y86451D01*
X106876Y86434D01*
X106959Y86418D01*
X107037Y86395D01*
X107109Y86373D01*
X107176Y86345D01*
X107237Y86318D01*
X107292Y86290D01*
X107337Y86262D01*
X107376Y86240D01*
X107409Y86218D01*
X107437Y86201D01*
X107453Y86184D01*
X107464Y86179D01*
X107470Y86173D01*
X107526Y86118D01*
X107575Y86057D01*
X107625Y85990D01*
X107664Y85924D01*
X107731Y85790D01*
X107775Y85657D01*
X107792Y85596D01*
X107808Y85535D01*
X107820Y85485D01*
X107831Y85441D01*
X107836Y85402D01*
Y85374D01*
X107842Y85357D01*
Y85352D01*
X107359Y85302D01*
X107348Y85430D01*
X107326Y85541D01*
X107292Y85641D01*
X107254Y85718D01*
X107220Y85785D01*
X107187Y85829D01*
X107165Y85857D01*
X107154Y85868D01*
X107070Y85935D01*
X106982Y85985D01*
X106887Y86023D01*
X106804Y86046D01*
X106726Y86062D01*
X106660Y86068D01*
X106638Y86073D01*
X106604D01*
X106488Y86068D01*
X106382Y86046D01*
X106293Y86012D01*
X106216Y85979D01*
X106155Y85940D01*
X106116Y85913D01*
X106088Y85890D01*
X106077Y85879D01*
X106010Y85802D01*
X105960Y85724D01*
X105921Y85646D01*
X105899Y85568D01*
X105883Y85507D01*
X105877Y85452D01*
X105872Y85418D01*
Y85413D01*
Y85407D01*
X105883Y85308D01*
X105905Y85202D01*
X105944Y85108D01*
X105983Y85019D01*
X106027Y84947D01*
X106066Y84886D01*
X106077Y84864D01*
X106088Y84847D01*
X106099Y84841D01*
Y84836D01*
X106143Y84775D01*
X106199Y84714D01*
X106260Y84647D01*
X106327Y84580D01*
X106465Y84447D01*
X106604Y84314D01*
X106676Y84253D01*
X106737Y84197D01*
X106798Y84148D01*
X106848Y84103D01*
X106887Y84070D01*
X106921Y84042D01*
X106943Y84026D01*
X106948Y84020D01*
X107087Y83903D01*
X107215Y83792D01*
X107320Y83693D01*
X107403Y83609D01*
X107475Y83537D01*
X107526Y83487D01*
X107553Y83454D01*
X107564Y83448D01*
Y83443D01*
X107642Y83348D01*
X107703Y83260D01*
X107759Y83171D01*
X107803Y83093D01*
X107836Y83026D01*
X107859Y82977D01*
X107870Y82943D01*
X107875Y82938D01*
Y82932D01*
X107897Y82871D01*
X107908Y82816D01*
X107920Y82760D01*
X107925Y82710D01*
X107931Y82666D01*
Y82632D01*
Y82610D01*
Y82605D01*
X105383D01*
Y83060D01*
X107276D01*
X107209Y83154D01*
X107176Y83193D01*
X107148Y83232D01*
X107120Y83265D01*
X107098Y83287D01*
X107081Y83304D01*
X107076Y83310D01*
X107048Y83337D01*
X107015Y83365D01*
X106937Y83437D01*
X106848Y83520D01*
X106754Y83604D01*
X106665Y83676D01*
X106626Y83709D01*
X106593Y83742D01*
X106565Y83765D01*
X106543Y83781D01*
X106532Y83792D01*
X106527Y83798D01*
X106438Y83876D01*
X106349Y83948D01*
X106271Y84020D01*
X106199Y84081D01*
X106132Y84142D01*
X106077Y84197D01*
X106021Y84247D01*
X105977Y84292D01*
X105933Y84336D01*
X105899Y84370D01*
X105872Y84397D01*
X105844Y84425D01*
X105816Y84458D01*
X105805Y84469D01*
X105727Y84564D01*
X105661Y84647D01*
X105605Y84730D01*
X105561Y84797D01*
X105527Y84858D01*
X105505Y84902D01*
X105494Y84930D01*
X105489Y84941D01*
X105455Y85024D01*
X105433Y85108D01*
X105411Y85185D01*
X105400Y85252D01*
X105394Y85313D01*
X105389Y85357D01*
Y85385D01*
Y85396D01*
X105394Y85480D01*
X105405Y85557D01*
X105417Y85635D01*
X105439Y85702D01*
X105494Y85835D01*
X105550Y85940D01*
X105583Y85990D01*
X105611Y86029D01*
X105639Y86068D01*
X105666Y86096D01*
X105688Y86118D01*
X105700Y86140D01*
X105711Y86146D01*
X105716Y86151D01*
X105777Y86207D01*
X105844Y86257D01*
X105916Y86295D01*
X105988Y86329D01*
X106132Y86384D01*
X106277Y86423D01*
X106338Y86434D01*
X106399Y86445D01*
X106454Y86451D01*
X106499Y86456D01*
X106538Y86462D01*
X106593D01*
X106693Y86456D01*
D02*
G37*
G36*
X109013Y83798D02*
Y83681D01*
X109024Y83582D01*
X109029Y83498D01*
X109041Y83432D01*
X109052Y83382D01*
X109057Y83343D01*
X109068Y83321D01*
Y83315D01*
X109091Y83260D01*
X109118Y83215D01*
X109152Y83176D01*
X109179Y83138D01*
X109213Y83115D01*
X109235Y83093D01*
X109251Y83082D01*
X109257Y83076D01*
X109313Y83049D01*
X109368Y83026D01*
X109424Y83015D01*
X109474Y83004D01*
X109523Y82999D01*
X109557Y82993D01*
X109590D01*
X109679Y82999D01*
X109762Y83021D01*
X109829Y83043D01*
X109890Y83076D01*
X109934Y83104D01*
X109968Y83132D01*
X109990Y83149D01*
X109995Y83154D01*
X110023Y83187D01*
X110045Y83226D01*
X110079Y83315D01*
X110112Y83415D01*
X110128Y83515D01*
X110145Y83609D01*
Y83648D01*
X110151Y83681D01*
X110156Y83715D01*
Y83737D01*
Y83748D01*
Y83754D01*
X110617Y83687D01*
Y83582D01*
X110611Y83487D01*
X110595Y83393D01*
X110583Y83310D01*
X110561Y83232D01*
X110539Y83165D01*
X110517Y83099D01*
X110495Y83043D01*
X110467Y82993D01*
X110445Y82949D01*
X110423Y82910D01*
X110400Y82882D01*
X110384Y82860D01*
X110373Y82838D01*
X110367Y82832D01*
X110362Y82827D01*
X110306Y82777D01*
X110250Y82732D01*
X110189Y82693D01*
X110123Y82660D01*
X109995Y82610D01*
X109873Y82577D01*
X109757Y82555D01*
X109712Y82549D01*
X109668Y82544D01*
X109634Y82538D01*
X109584D01*
X109462Y82544D01*
X109351Y82560D01*
X109251Y82582D01*
X109163Y82610D01*
X109091Y82632D01*
X109041Y82655D01*
X109007Y82671D01*
X108996Y82677D01*
X108907Y82732D01*
X108830Y82799D01*
X108769Y82866D01*
X108713Y82927D01*
X108674Y82988D01*
X108647Y83032D01*
X108630Y83065D01*
X108624Y83071D01*
Y83076D01*
X108586Y83187D01*
X108552Y83304D01*
X108530Y83432D01*
X108519Y83554D01*
X108508Y83659D01*
Y83704D01*
X108502Y83748D01*
Y83781D01*
Y83803D01*
Y83820D01*
Y83826D01*
Y86445D01*
X109013D01*
Y83798D01*
D02*
G37*
G36*
X19517Y-14081D02*
X19667Y-14108D01*
X19795Y-14153D01*
X19906Y-14197D01*
X19956Y-14225D01*
X19995Y-14247D01*
X20033Y-14269D01*
X20061Y-14292D01*
X20083Y-14308D01*
X20100Y-14319D01*
X20111Y-14325D01*
X20117Y-14330D01*
X20222Y-14436D01*
X20305Y-14552D01*
X20372Y-14674D01*
X20427Y-14797D01*
X20461Y-14902D01*
X20477Y-14946D01*
X20489Y-14985D01*
X20494Y-15019D01*
X20500Y-15041D01*
X20505Y-15057D01*
Y-15063D01*
X20033Y-15146D01*
X20011Y-15024D01*
X19978Y-14919D01*
X19939Y-14830D01*
X19900Y-14758D01*
X19861Y-14702D01*
X19828Y-14663D01*
X19806Y-14636D01*
X19800Y-14630D01*
X19728Y-14575D01*
X19650Y-14530D01*
X19578Y-14502D01*
X19506Y-14480D01*
X19440Y-14469D01*
X19389Y-14458D01*
X19345D01*
X19245Y-14464D01*
X19157Y-14486D01*
X19079Y-14514D01*
X19012Y-14541D01*
X18962Y-14575D01*
X18923Y-14602D01*
X18896Y-14625D01*
X18890Y-14630D01*
X18829Y-14697D01*
X18785Y-14769D01*
X18757Y-14841D01*
X18735Y-14908D01*
X18724Y-14969D01*
X18712Y-15013D01*
Y-15046D01*
Y-15052D01*
Y-15057D01*
Y-15119D01*
X18724Y-15174D01*
X18751Y-15268D01*
X18790Y-15352D01*
X18835Y-15424D01*
X18879Y-15474D01*
X18918Y-15513D01*
X18946Y-15535D01*
X18951Y-15540D01*
X18957D01*
X19051Y-15590D01*
X19140Y-15629D01*
X19234Y-15657D01*
X19317Y-15674D01*
X19389Y-15685D01*
X19451Y-15696D01*
X19523D01*
X19545Y-15690D01*
X19573D01*
X19628Y-16106D01*
X19556Y-16090D01*
X19489Y-16079D01*
X19434Y-16068D01*
X19384Y-16062D01*
X19345Y-16057D01*
X19295D01*
X19179Y-16068D01*
X19073Y-16090D01*
X18979Y-16123D01*
X18901Y-16162D01*
X18840Y-16201D01*
X18796Y-16234D01*
X18768Y-16256D01*
X18757Y-16267D01*
X18685Y-16351D01*
X18629Y-16439D01*
X18590Y-16528D01*
X18568Y-16617D01*
X18552Y-16689D01*
X18546Y-16750D01*
X18540Y-16772D01*
Y-16789D01*
Y-16800D01*
Y-16806D01*
X18552Y-16928D01*
X18579Y-17039D01*
X18612Y-17133D01*
X18657Y-17216D01*
X18701Y-17283D01*
X18735Y-17333D01*
X18762Y-17366D01*
X18774Y-17377D01*
X18862Y-17455D01*
X18957Y-17511D01*
X19051Y-17549D01*
X19140Y-17577D01*
X19218Y-17594D01*
X19279Y-17599D01*
X19301Y-17605D01*
X19334D01*
X19434Y-17599D01*
X19528Y-17577D01*
X19612Y-17549D01*
X19678Y-17516D01*
X19734Y-17488D01*
X19778Y-17461D01*
X19800Y-17438D01*
X19811Y-17433D01*
X19878Y-17355D01*
X19933Y-17266D01*
X19983Y-17172D01*
X20022Y-17072D01*
X20050Y-16989D01*
X20061Y-16950D01*
X20067Y-16917D01*
X20072Y-16889D01*
X20078Y-16867D01*
X20083Y-16856D01*
Y-16850D01*
X20555Y-16911D01*
X20544Y-17000D01*
X20527Y-17083D01*
X20477Y-17239D01*
X20416Y-17372D01*
X20383Y-17427D01*
X20350Y-17483D01*
X20316Y-17533D01*
X20283Y-17572D01*
X20255Y-17610D01*
X20228Y-17638D01*
X20211Y-17660D01*
X20194Y-17677D01*
X20183Y-17688D01*
X20178Y-17694D01*
X20111Y-17744D01*
X20044Y-17794D01*
X19978Y-17832D01*
X19906Y-17866D01*
X19767Y-17921D01*
X19634Y-17955D01*
X19573Y-17966D01*
X19517Y-17977D01*
X19467Y-17982D01*
X19423Y-17988D01*
X19389Y-17993D01*
X19340D01*
X19234Y-17988D01*
X19140Y-17977D01*
X19045Y-17960D01*
X18957Y-17938D01*
X18873Y-17910D01*
X18801Y-17882D01*
X18729Y-17849D01*
X18668Y-17816D01*
X18607Y-17788D01*
X18557Y-17755D01*
X18513Y-17727D01*
X18479Y-17699D01*
X18452Y-17677D01*
X18429Y-17660D01*
X18418Y-17649D01*
X18413Y-17644D01*
X18346Y-17577D01*
X18291Y-17505D01*
X18241Y-17433D01*
X18196Y-17361D01*
X18163Y-17294D01*
X18130Y-17222D01*
X18085Y-17089D01*
X18074Y-17028D01*
X18063Y-16972D01*
X18052Y-16922D01*
X18046Y-16878D01*
X18041Y-16845D01*
Y-16817D01*
Y-16800D01*
Y-16795D01*
X18046Y-16661D01*
X18069Y-16539D01*
X18102Y-16434D01*
X18135Y-16345D01*
X18169Y-16273D01*
X18202Y-16217D01*
X18224Y-16184D01*
X18230Y-16173D01*
X18307Y-16090D01*
X18391Y-16018D01*
X18479Y-15962D01*
X18568Y-15918D01*
X18646Y-15884D01*
X18707Y-15862D01*
X18729Y-15857D01*
X18746Y-15851D01*
X18757Y-15846D01*
X18762D01*
X18668Y-15796D01*
X18590Y-15746D01*
X18524Y-15690D01*
X18468Y-15640D01*
X18424Y-15596D01*
X18391Y-15557D01*
X18374Y-15535D01*
X18368Y-15524D01*
X18324Y-15446D01*
X18291Y-15368D01*
X18263Y-15291D01*
X18246Y-15218D01*
X18235Y-15157D01*
X18230Y-15113D01*
Y-15080D01*
Y-15069D01*
X18235Y-14974D01*
X18252Y-14880D01*
X18274Y-14797D01*
X18302Y-14725D01*
X18329Y-14663D01*
X18352Y-14614D01*
X18368Y-14586D01*
X18374Y-14575D01*
X18429Y-14491D01*
X18496Y-14419D01*
X18563Y-14358D01*
X18629Y-14303D01*
X18685Y-14264D01*
X18735Y-14231D01*
X18768Y-14214D01*
X18774Y-14208D01*
X18779D01*
X18879Y-14164D01*
X18979Y-14131D01*
X19079Y-14103D01*
X19168Y-14086D01*
X19240Y-14075D01*
X19301Y-14070D01*
X19440D01*
X19517Y-14081D01*
D02*
G37*
G36*
X21710Y-16734D02*
Y-16850D01*
X21721Y-16950D01*
X21726Y-17033D01*
X21737Y-17100D01*
X21748Y-17150D01*
X21754Y-17189D01*
X21765Y-17211D01*
Y-17216D01*
X21787Y-17272D01*
X21815Y-17316D01*
X21848Y-17355D01*
X21876Y-17394D01*
X21909Y-17416D01*
X21932Y-17438D01*
X21948Y-17449D01*
X21954Y-17455D01*
X22009Y-17483D01*
X22065Y-17505D01*
X22120Y-17516D01*
X22170Y-17527D01*
X22220Y-17533D01*
X22253Y-17538D01*
X22287D01*
X22376Y-17533D01*
X22459Y-17511D01*
X22525Y-17488D01*
X22586Y-17455D01*
X22631Y-17427D01*
X22664Y-17400D01*
X22686Y-17383D01*
X22692Y-17377D01*
X22720Y-17344D01*
X22742Y-17305D01*
X22775Y-17216D01*
X22808Y-17117D01*
X22825Y-17017D01*
X22842Y-16922D01*
Y-16883D01*
X22847Y-16850D01*
X22853Y-16817D01*
Y-16795D01*
Y-16783D01*
Y-16778D01*
X23313Y-16845D01*
Y-16950D01*
X23308Y-17044D01*
X23291Y-17139D01*
X23280Y-17222D01*
X23258Y-17300D01*
X23236Y-17366D01*
X23213Y-17433D01*
X23191Y-17488D01*
X23164Y-17538D01*
X23141Y-17583D01*
X23119Y-17622D01*
X23097Y-17649D01*
X23080Y-17672D01*
X23069Y-17694D01*
X23064Y-17699D01*
X23058Y-17705D01*
X23003Y-17755D01*
X22947Y-17799D01*
X22886Y-17838D01*
X22819Y-17871D01*
X22692Y-17921D01*
X22570Y-17955D01*
X22453Y-17977D01*
X22409Y-17982D01*
X22364Y-17988D01*
X22331Y-17993D01*
X22281D01*
X22159Y-17988D01*
X22048Y-17971D01*
X21948Y-17949D01*
X21859Y-17921D01*
X21787Y-17899D01*
X21737Y-17877D01*
X21704Y-17860D01*
X21693Y-17855D01*
X21604Y-17799D01*
X21526Y-17733D01*
X21465Y-17666D01*
X21410Y-17605D01*
X21371Y-17544D01*
X21343Y-17500D01*
X21327Y-17466D01*
X21321Y-17461D01*
Y-17455D01*
X21282Y-17344D01*
X21249Y-17228D01*
X21227Y-17100D01*
X21215Y-16978D01*
X21204Y-16872D01*
Y-16828D01*
X21199Y-16783D01*
Y-16750D01*
Y-16728D01*
Y-16711D01*
Y-16706D01*
Y-14086D01*
X21710D01*
Y-16734D01*
D02*
G37*
%LPC*%
G36*
X83188Y64680D02*
X81921D01*
X80404Y60139D01*
Y60129D01*
X80395Y60111D01*
X80385Y60083D01*
X80367Y60037D01*
X80330Y59926D01*
X80284Y59787D01*
X80237Y59630D01*
X80182Y59473D01*
X80136Y59325D01*
X80099Y59195D01*
X80089Y59214D01*
X80080Y59260D01*
X80052Y59343D01*
X80015Y59454D01*
X79969Y59602D01*
X79904Y59778D01*
X79840Y59982D01*
X79756Y60222D01*
X78221Y64680D01*
X77083D01*
Y58280D01*
X77897D01*
Y63635D01*
X79766Y58280D01*
X80524D01*
X82374Y63728D01*
Y58280D01*
X83188D01*
Y64680D01*
D02*
G37*
G36*
X51451Y62923D02*
X50665D01*
Y60342D01*
Y60333D01*
Y60315D01*
Y60287D01*
Y60241D01*
Y60139D01*
X50656Y60009D01*
Y59870D01*
X50647Y59732D01*
X50637Y59611D01*
X50619Y59510D01*
Y59500D01*
X50600Y59464D01*
X50582Y59408D01*
X50554Y59334D01*
X50508Y59260D01*
X50452Y59177D01*
X50388Y59103D01*
X50304Y59029D01*
X50295Y59020D01*
X50258Y59001D01*
X50212Y58973D01*
X50138Y58946D01*
X50055Y58908D01*
X49953Y58881D01*
X49842Y58862D01*
X49712Y58853D01*
X49648D01*
X49583Y58862D01*
X49500Y58872D01*
X49398Y58899D01*
X49287Y58927D01*
X49167Y58973D01*
X49046Y59029D01*
X49028Y59038D01*
X48991Y59066D01*
X48935Y59103D01*
X48871Y59158D01*
X48797Y59232D01*
X48723Y59316D01*
X48658Y59408D01*
X48602Y59519D01*
X48593Y59538D01*
X48584Y59575D01*
X48565Y59649D01*
X48538Y59750D01*
X48510Y59880D01*
X48491Y60037D01*
X48482Y60222D01*
X48473Y60435D01*
Y62923D01*
X47687D01*
Y58280D01*
X48390D01*
Y58955D01*
X48399Y58946D01*
X48417Y58918D01*
X48445Y58881D01*
X48491Y58834D01*
X48547Y58779D01*
X48612Y58705D01*
X48686Y58640D01*
X48778Y58566D01*
X48880Y58492D01*
X48991Y58428D01*
X49111Y58363D01*
X49241Y58298D01*
X49389Y58252D01*
X49537Y58215D01*
X49703Y58187D01*
X49870Y58178D01*
X49934D01*
X50018Y58187D01*
X50119Y58196D01*
X50240Y58215D01*
X50369Y58242D01*
X50499Y58280D01*
X50637Y58335D01*
X50656Y58344D01*
X50693Y58363D01*
X50758Y58400D01*
X50832Y58446D01*
X50924Y58501D01*
X51007Y58566D01*
X51091Y58640D01*
X51165Y58723D01*
X51174Y58733D01*
X51192Y58770D01*
X51220Y58816D01*
X51257Y58890D01*
X51303Y58973D01*
X51340Y59075D01*
X51377Y59186D01*
X51405Y59306D01*
Y59316D01*
X51414Y59352D01*
X51424Y59408D01*
Y59482D01*
X51433Y59593D01*
X51442Y59713D01*
X51451Y59870D01*
Y62923D01*
D02*
G37*
G36*
X41600Y63025D02*
X41526D01*
X41471Y63016D01*
X41415D01*
X41341Y63006D01*
X41165Y62979D01*
X40971Y62932D01*
X40768Y62858D01*
X40564Y62766D01*
X40370Y62636D01*
X40361D01*
X40351Y62618D01*
X40296Y62562D01*
X40213Y62479D01*
X40111Y62359D01*
X40009Y62211D01*
X39907Y62026D01*
X39815Y61813D01*
X39750Y61563D01*
X40518Y61443D01*
Y61452D01*
X40527Y61462D01*
X40536Y61517D01*
X40564Y61600D01*
X40610Y61702D01*
X40657Y61813D01*
X40731Y61933D01*
X40814Y62044D01*
X40906Y62137D01*
X40916Y62146D01*
X40953Y62174D01*
X41017Y62211D01*
X41091Y62257D01*
X41193Y62303D01*
X41304Y62340D01*
X41434Y62368D01*
X41572Y62377D01*
X41628D01*
X41674Y62368D01*
X41776Y62359D01*
X41915Y62322D01*
X42063Y62275D01*
X42229Y62201D01*
X42386Y62090D01*
X42460Y62026D01*
X42534Y61952D01*
Y61942D01*
X42553Y61933D01*
X42571Y61905D01*
X42590Y61869D01*
X42618Y61822D01*
X42655Y61767D01*
X42682Y61702D01*
X42719Y61628D01*
X42756Y61536D01*
X42784Y61434D01*
X42821Y61323D01*
X42849Y61203D01*
X42867Y61073D01*
X42886Y60925D01*
X42904Y60768D01*
Y60601D01*
Y60592D01*
Y60564D01*
Y60509D01*
X42895Y60453D01*
Y60370D01*
X42886Y60287D01*
X42858Y60083D01*
X42821Y59861D01*
X42756Y59630D01*
X42673Y59426D01*
X42618Y59325D01*
X42553Y59241D01*
X42534Y59223D01*
X42488Y59177D01*
X42405Y59112D01*
X42303Y59038D01*
X42164Y58955D01*
X42007Y58890D01*
X41822Y58844D01*
X41720Y58834D01*
X41619Y58825D01*
X41600D01*
X41545Y58834D01*
X41452Y58844D01*
X41350Y58862D01*
X41230Y58890D01*
X41101Y58946D01*
X40971Y59010D01*
X40851Y59103D01*
X40832Y59112D01*
X40805Y59158D01*
X40749Y59223D01*
X40684Y59325D01*
X40620Y59445D01*
X40546Y59593D01*
X40490Y59778D01*
X40453Y59982D01*
X39676Y59880D01*
Y59870D01*
X39685Y59843D01*
X39695Y59806D01*
X39704Y59750D01*
X39722Y59676D01*
X39741Y59602D01*
X39806Y59417D01*
X39889Y59223D01*
X40009Y59010D01*
X40157Y58807D01*
X40240Y58714D01*
X40333Y58622D01*
X40342Y58613D01*
X40361Y58603D01*
X40388Y58585D01*
X40425Y58557D01*
X40472Y58520D01*
X40536Y58483D01*
X40610Y58446D01*
X40684Y58400D01*
X40869Y58316D01*
X41091Y58252D01*
X41332Y58196D01*
X41471Y58187D01*
X41609Y58178D01*
X41702D01*
X41767Y58187D01*
X41850Y58196D01*
X41942Y58215D01*
X42044Y58233D01*
X42155Y58252D01*
X42405Y58326D01*
X42525Y58381D01*
X42655Y58437D01*
X42784Y58511D01*
X42904Y58594D01*
X43025Y58687D01*
X43136Y58798D01*
X43145Y58807D01*
X43163Y58825D01*
X43191Y58862D01*
X43228Y58908D01*
X43265Y58973D01*
X43321Y59057D01*
X43367Y59149D01*
X43422Y59251D01*
X43478Y59371D01*
X43524Y59510D01*
X43580Y59649D01*
X43617Y59815D01*
X43654Y59982D01*
X43681Y60176D01*
X43700Y60370D01*
X43709Y60583D01*
Y60712D01*
X43700Y60777D01*
Y60851D01*
X43691Y60934D01*
X43681Y61027D01*
X43654Y61230D01*
X43607Y61452D01*
X43552Y61674D01*
X43469Y61896D01*
Y61905D01*
X43459Y61924D01*
X43441Y61952D01*
X43422Y61989D01*
X43367Y62090D01*
X43284Y62211D01*
X43173Y62349D01*
X43043Y62488D01*
X42886Y62627D01*
X42710Y62738D01*
X42701D01*
X42682Y62747D01*
X42655Y62766D01*
X42618Y62784D01*
X42571Y62803D01*
X42516Y62831D01*
X42377Y62886D01*
X42220Y62932D01*
X42026Y62979D01*
X41822Y63016D01*
X41600Y63025D01*
D02*
G37*
G36*
X37105D02*
X37012D01*
X36947Y63016D01*
X36873Y63006D01*
X36781Y62988D01*
X36679Y62969D01*
X36559Y62941D01*
X36448Y62914D01*
X36318Y62867D01*
X36198Y62821D01*
X36069Y62757D01*
X35939Y62682D01*
X35810Y62599D01*
X35689Y62498D01*
X35578Y62387D01*
X35569Y62377D01*
X35551Y62359D01*
X35523Y62322D01*
X35486Y62266D01*
X35440Y62201D01*
X35393Y62128D01*
X35338Y62035D01*
X35282Y61924D01*
X35227Y61804D01*
X35171Y61674D01*
X35125Y61526D01*
X35079Y61369D01*
X35042Y61193D01*
X35014Y61008D01*
X34996Y60814D01*
X34986Y60601D01*
Y60490D01*
X34996Y60398D01*
X38464D01*
Y60388D01*
Y60361D01*
X38455Y60324D01*
Y60268D01*
X38446Y60203D01*
X38427Y60129D01*
X38400Y59963D01*
X38344Y59778D01*
X38270Y59575D01*
X38168Y59390D01*
X38039Y59223D01*
X38030D01*
X38020Y59205D01*
X37965Y59158D01*
X37882Y59093D01*
X37771Y59029D01*
X37623Y58955D01*
X37456Y58890D01*
X37271Y58844D01*
X37169Y58834D01*
X37058Y58825D01*
X36984D01*
X36901Y58834D01*
X36799Y58853D01*
X36688Y58881D01*
X36559Y58918D01*
X36439Y58973D01*
X36318Y59047D01*
X36309Y59057D01*
X36263Y59093D01*
X36207Y59149D01*
X36143Y59223D01*
X36069Y59325D01*
X35985Y59454D01*
X35902Y59602D01*
X35828Y59778D01*
X35014Y59676D01*
Y59667D01*
X35023Y59649D01*
X35033Y59611D01*
X35051Y59556D01*
X35079Y59500D01*
X35107Y59426D01*
X35181Y59269D01*
X35273Y59093D01*
X35403Y58908D01*
X35551Y58733D01*
X35736Y58566D01*
X35745D01*
X35763Y58548D01*
X35791Y58529D01*
X35828Y58501D01*
X35884Y58474D01*
X35939Y58446D01*
X36013Y58409D01*
X36096Y58372D01*
X36189Y58335D01*
X36281Y58298D01*
X36513Y58242D01*
X36772Y58196D01*
X37058Y58178D01*
X37160D01*
X37225Y58187D01*
X37308Y58196D01*
X37410Y58215D01*
X37521Y58233D01*
X37641Y58252D01*
X37900Y58326D01*
X38039Y58381D01*
X38168Y58437D01*
X38307Y58511D01*
X38437Y58594D01*
X38557Y58687D01*
X38677Y58798D01*
X38686Y58807D01*
X38705Y58825D01*
X38733Y58862D01*
X38770Y58918D01*
X38816Y58982D01*
X38862Y59057D01*
X38918Y59149D01*
X38973Y59251D01*
X39029Y59371D01*
X39084Y59500D01*
X39130Y59649D01*
X39177Y59806D01*
X39214Y59972D01*
X39241Y60157D01*
X39260Y60352D01*
X39269Y60555D01*
Y60666D01*
X39260Y60749D01*
X39251Y60851D01*
X39241Y60962D01*
X39223Y61092D01*
X39195Y61221D01*
X39121Y61517D01*
X39075Y61665D01*
X39019Y61822D01*
X38945Y61970D01*
X38862Y62109D01*
X38770Y62248D01*
X38668Y62377D01*
X38659Y62387D01*
X38640Y62405D01*
X38603Y62433D01*
X38557Y62479D01*
X38501Y62525D01*
X38427Y62581D01*
X38344Y62646D01*
X38242Y62701D01*
X38141Y62766D01*
X38020Y62821D01*
X37891Y62877D01*
X37752Y62923D01*
X37604Y62969D01*
X37447Y62997D01*
X37280Y63016D01*
X37105Y63025D01*
D02*
G37*
G36*
X75566Y64680D02*
X74715D01*
Y58280D01*
X75566D01*
Y64680D01*
D02*
G37*
G36*
X73217D02*
X70590D01*
X70451Y64671D01*
X70294Y64662D01*
X70127Y64653D01*
X69970Y64634D01*
X69831Y64616D01*
X69813D01*
X69748Y64597D01*
X69665Y64579D01*
X69554Y64551D01*
X69433Y64505D01*
X69304Y64449D01*
X69165Y64385D01*
X69045Y64310D01*
X69026Y64301D01*
X68989Y64274D01*
X68934Y64218D01*
X68860Y64153D01*
X68777Y64070D01*
X68693Y63959D01*
X68601Y63839D01*
X68527Y63700D01*
X68518Y63682D01*
X68499Y63635D01*
X68462Y63552D01*
X68425Y63441D01*
X68397Y63311D01*
X68360Y63164D01*
X68342Y62997D01*
X68333Y62821D01*
Y62747D01*
X68342Y62682D01*
X68351Y62618D01*
X68360Y62534D01*
X68379Y62442D01*
X68397Y62340D01*
X68462Y62128D01*
X68499Y62016D01*
X68555Y61896D01*
X68619Y61776D01*
X68684Y61665D01*
X68767Y61554D01*
X68860Y61443D01*
X68869Y61434D01*
X68888Y61415D01*
X68915Y61387D01*
X68962Y61360D01*
X69017Y61313D01*
X69091Y61267D01*
X69184Y61212D01*
X69285Y61165D01*
X69406Y61110D01*
X69544Y61054D01*
X69692Y61008D01*
X69868Y60971D01*
X70053Y60934D01*
X70257Y60906D01*
X70488Y60888D01*
X70728Y60879D01*
X72366D01*
Y58280D01*
X73217D01*
Y64680D01*
D02*
G37*
G36*
X67112D02*
X66261D01*
Y58280D01*
X67112D01*
Y64680D01*
D02*
G37*
G36*
X44754Y63025D02*
X44690D01*
X44606Y63016D01*
X44505Y62997D01*
X44384Y62960D01*
X44255Y62914D01*
X44107Y62849D01*
X43950Y62766D01*
X44236Y62044D01*
X44246Y62054D01*
X44283Y62072D01*
X44338Y62100D01*
X44412Y62128D01*
X44495Y62155D01*
X44597Y62183D01*
X44699Y62201D01*
X44801Y62211D01*
X44847D01*
X44893Y62201D01*
X44958Y62192D01*
X45023Y62174D01*
X45106Y62146D01*
X45189Y62109D01*
X45263Y62054D01*
X45272Y62044D01*
X45300Y62026D01*
X45328Y61989D01*
X45374Y61942D01*
X45420Y61878D01*
X45467Y61804D01*
X45513Y61721D01*
X45550Y61619D01*
X45559Y61600D01*
X45568Y61545D01*
X45587Y61462D01*
X45615Y61351D01*
X45642Y61212D01*
X45661Y61054D01*
X45670Y60888D01*
X45679Y60703D01*
Y58280D01*
X46466D01*
Y62923D01*
X45753D01*
Y62220D01*
X45744Y62229D01*
X45707Y62294D01*
X45661Y62377D01*
X45587Y62479D01*
X45513Y62581D01*
X45430Y62692D01*
X45346Y62784D01*
X45263Y62858D01*
X45254Y62867D01*
X45226Y62886D01*
X45171Y62914D01*
X45115Y62941D01*
X45041Y62969D01*
X44949Y62997D01*
X44856Y63016D01*
X44754Y63025D01*
D02*
G37*
G36*
X54532D02*
X54439D01*
X54374Y63016D01*
X54291Y63006D01*
X54199Y62988D01*
X54097Y62969D01*
X53977Y62951D01*
X53727Y62867D01*
X53597Y62821D01*
X53468Y62757D01*
X53338Y62692D01*
X53209Y62599D01*
X53089Y62507D01*
X52968Y62396D01*
X52959Y62387D01*
X52941Y62368D01*
X52913Y62331D01*
X52876Y62285D01*
X52830Y62220D01*
X52774Y62137D01*
X52719Y62044D01*
X52663Y61942D01*
X52608Y61831D01*
X52552Y61693D01*
X52497Y61554D01*
X52450Y61397D01*
X52413Y61230D01*
X52386Y61054D01*
X52367Y60869D01*
X52358Y60666D01*
Y60518D01*
X52367Y60444D01*
X52376Y60352D01*
Y60259D01*
X52395Y60157D01*
X52423Y59926D01*
X52478Y59695D01*
X52543Y59464D01*
X52635Y59251D01*
Y59241D01*
X52645Y59232D01*
X52663Y59205D01*
X52682Y59167D01*
X52746Y59075D01*
X52830Y58964D01*
X52941Y58834D01*
X53079Y58705D01*
X53237Y58575D01*
X53422Y58455D01*
X53431D01*
X53440Y58446D01*
X53468Y58428D01*
X53514Y58409D01*
X53560Y58390D01*
X53616Y58372D01*
X53755Y58316D01*
X53912Y58270D01*
X54106Y58224D01*
X54310Y58187D01*
X54532Y58178D01*
X54624D01*
X54698Y58187D01*
X54781Y58196D01*
X54874Y58215D01*
X54985Y58233D01*
X55096Y58252D01*
X55346Y58326D01*
X55484Y58381D01*
X55614Y58437D01*
X55743Y58511D01*
X55873Y58594D01*
X55993Y58687D01*
X56113Y58798D01*
X56123Y58807D01*
X56141Y58825D01*
X56169Y58862D01*
X56206Y58918D01*
X56252Y58982D01*
X56298Y59057D01*
X56354Y59149D01*
X56409Y59260D01*
X56465Y59380D01*
X56520Y59519D01*
X56567Y59667D01*
X56613Y59824D01*
X56650Y60000D01*
X56678Y60185D01*
X56696Y60388D01*
X56705Y60601D01*
Y60657D01*
X56696Y60721D01*
Y60814D01*
X56687Y60916D01*
X56668Y61045D01*
X56650Y61175D01*
X56613Y61323D01*
X56576Y61471D01*
X56530Y61628D01*
X56474Y61795D01*
X56400Y61952D01*
X56326Y62100D01*
X56224Y62248D01*
X56123Y62387D01*
X55993Y62507D01*
X55984Y62516D01*
X55965Y62525D01*
X55928Y62553D01*
X55882Y62590D01*
X55827Y62627D01*
X55753Y62673D01*
X55679Y62720D01*
X55586Y62766D01*
X55484Y62812D01*
X55373Y62858D01*
X55124Y62941D01*
X54837Y63006D01*
X54689Y63016D01*
X54532Y63025D01*
D02*
G37*
G36*
X60072Y64792D02*
X59952D01*
X59887Y64782D01*
X59823D01*
X59647Y64764D01*
X59453Y64736D01*
X59249Y64690D01*
X59027Y64634D01*
X58824Y64560D01*
X58814D01*
X58796Y64551D01*
X58768Y64533D01*
X58731Y64514D01*
X58639Y64468D01*
X58518Y64385D01*
X58380Y64292D01*
X58241Y64172D01*
X58111Y64033D01*
X57991Y63876D01*
Y63867D01*
X57982Y63857D01*
X57963Y63829D01*
X57945Y63802D01*
X57899Y63709D01*
X57843Y63589D01*
X57778Y63441D01*
X57732Y63265D01*
X57686Y63080D01*
X57667Y62877D01*
X58481Y62812D01*
Y62821D01*
Y62840D01*
X58491Y62867D01*
X58500Y62914D01*
X58528Y63016D01*
X58565Y63154D01*
X58620Y63302D01*
X58703Y63450D01*
X58805Y63589D01*
X58935Y63718D01*
X58953Y63728D01*
X58999Y63765D01*
X59092Y63820D01*
X59212Y63876D01*
X59369Y63931D01*
X59554Y63987D01*
X59786Y64024D01*
X60045Y64033D01*
X60174D01*
X60230Y64024D01*
X60304Y64015D01*
X60470Y63996D01*
X60655Y63959D01*
X60840Y63913D01*
X61016Y63839D01*
X61090Y63793D01*
X61164Y63746D01*
X61182Y63737D01*
X61219Y63700D01*
X61275Y63635D01*
X61330Y63561D01*
X61395Y63459D01*
X61451Y63349D01*
X61488Y63219D01*
X61506Y63071D01*
Y63052D01*
Y63016D01*
X61497Y62951D01*
X61478Y62877D01*
X61451Y62784D01*
X61404Y62692D01*
X61349Y62599D01*
X61266Y62507D01*
X61256Y62498D01*
X61210Y62470D01*
X61173Y62442D01*
X61136Y62423D01*
X61081Y62396D01*
X61016Y62359D01*
X60933Y62331D01*
X60840Y62294D01*
X60738Y62257D01*
X60618Y62211D01*
X60489Y62174D01*
X60341Y62128D01*
X60174Y62090D01*
X59989Y62044D01*
X59980D01*
X59943Y62035D01*
X59887Y62026D01*
X59823Y62007D01*
X59739Y61989D01*
X59638Y61961D01*
X59536Y61933D01*
X59425Y61905D01*
X59184Y61841D01*
X58953Y61776D01*
X58842Y61739D01*
X58740Y61702D01*
X58648Y61674D01*
X58574Y61637D01*
X58565D01*
X58546Y61628D01*
X58518Y61610D01*
X58481Y61591D01*
X58380Y61536D01*
X58259Y61462D01*
X58121Y61360D01*
X57982Y61249D01*
X57852Y61119D01*
X57741Y60980D01*
X57732Y60962D01*
X57695Y60916D01*
X57658Y60833D01*
X57603Y60721D01*
X57556Y60592D01*
X57510Y60435D01*
X57482Y60259D01*
X57473Y60074D01*
Y59991D01*
X57492Y59889D01*
X57510Y59759D01*
X57547Y59611D01*
X57593Y59454D01*
X57667Y59288D01*
X57769Y59112D01*
Y59103D01*
X57778Y59093D01*
X57825Y59038D01*
X57889Y58955D01*
X57982Y58862D01*
X58102Y58751D01*
X58250Y58631D01*
X58417Y58520D01*
X58611Y58418D01*
X58620D01*
X58639Y58409D01*
X58666Y58400D01*
X58703Y58381D01*
X58759Y58363D01*
X58824Y58335D01*
X58972Y58298D01*
X59147Y58252D01*
X59360Y58205D01*
X59591Y58178D01*
X59841Y58169D01*
X59989D01*
X60063Y58178D01*
X60146D01*
X60239Y58187D01*
X60350Y58196D01*
X60581Y58233D01*
X60822Y58270D01*
X61062Y58335D01*
X61293Y58418D01*
X61303D01*
X61321Y58428D01*
X61349Y58446D01*
X61386Y58464D01*
X61497Y58520D01*
X61626Y58603D01*
X61774Y58714D01*
X61932Y58844D01*
X62080Y59001D01*
X62218Y59177D01*
Y59186D01*
X62237Y59205D01*
X62246Y59232D01*
X62274Y59269D01*
X62292Y59316D01*
X62320Y59371D01*
X62385Y59510D01*
X62450Y59685D01*
X62505Y59880D01*
X62542Y60102D01*
X62561Y60333D01*
X61765Y60407D01*
Y60398D01*
Y60388D01*
X61756Y60361D01*
Y60324D01*
X61737Y60241D01*
X61710Y60120D01*
X61673Y60000D01*
X61636Y59861D01*
X61571Y59732D01*
X61506Y59611D01*
X61497Y59602D01*
X61469Y59565D01*
X61423Y59500D01*
X61349Y59436D01*
X61256Y59352D01*
X61155Y59269D01*
X61016Y59186D01*
X60868Y59112D01*
X60859D01*
X60849Y59103D01*
X60822Y59093D01*
X60794Y59084D01*
X60701Y59057D01*
X60581Y59020D01*
X60433Y58982D01*
X60267Y58955D01*
X60082Y58936D01*
X59878Y58927D01*
X59795D01*
X59702Y58936D01*
X59591Y58946D01*
X59462Y58964D01*
X59314Y58982D01*
X59166Y59020D01*
X59027Y59066D01*
X59009Y59075D01*
X58962Y59093D01*
X58898Y59131D01*
X58814Y59167D01*
X58731Y59232D01*
X58639Y59297D01*
X58546Y59371D01*
X58472Y59464D01*
X58463Y59473D01*
X58444Y59510D01*
X58417Y59556D01*
X58380Y59630D01*
X58343Y59704D01*
X58315Y59797D01*
X58296Y59898D01*
X58287Y60009D01*
Y60018D01*
Y60065D01*
X58296Y60120D01*
X58306Y60194D01*
X58333Y60268D01*
X58361Y60361D01*
X58407Y60453D01*
X58472Y60536D01*
X58481Y60546D01*
X58509Y60574D01*
X58546Y60611D01*
X58611Y60666D01*
X58685Y60721D01*
X58787Y60786D01*
X58907Y60851D01*
X59046Y60906D01*
X59055Y60916D01*
X59101Y60925D01*
X59175Y60953D01*
X59221Y60962D01*
X59286Y60980D01*
X59351Y61008D01*
X59434Y61027D01*
X59527Y61054D01*
X59638Y61082D01*
X59749Y61110D01*
X59878Y61147D01*
X60026Y61184D01*
X60183Y61221D01*
X60193D01*
X60220Y61230D01*
X60267Y61239D01*
X60322Y61258D01*
X60396Y61277D01*
X60479Y61295D01*
X60664Y61351D01*
X60868Y61415D01*
X61081Y61480D01*
X61266Y61545D01*
X61349Y61582D01*
X61423Y61619D01*
X61432D01*
X61441Y61628D01*
X61497Y61665D01*
X61580Y61711D01*
X61673Y61785D01*
X61784Y61869D01*
X61895Y61970D01*
X62006Y62090D01*
X62098Y62220D01*
X62107Y62239D01*
X62135Y62285D01*
X62172Y62359D01*
X62209Y62451D01*
X62246Y62572D01*
X62283Y62710D01*
X62311Y62858D01*
X62320Y63016D01*
Y63025D01*
Y63034D01*
Y63062D01*
Y63099D01*
X62302Y63191D01*
X62283Y63311D01*
X62255Y63450D01*
X62209Y63608D01*
X62144Y63765D01*
X62052Y63922D01*
Y63931D01*
X62043Y63941D01*
X61996Y63996D01*
X61932Y64070D01*
X61848Y64162D01*
X61737Y64264D01*
X61599Y64375D01*
X61432Y64477D01*
X61247Y64569D01*
X61238D01*
X61219Y64579D01*
X61192Y64588D01*
X61155Y64606D01*
X61108Y64625D01*
X61044Y64644D01*
X60905Y64680D01*
X60729Y64718D01*
X60526Y64754D01*
X60313Y64782D01*
X60072Y64792D01*
D02*
G37*
%LPD*%
G36*
X37188Y62368D02*
X37290Y62359D01*
X37410Y62331D01*
X37558Y62285D01*
X37715Y62220D01*
X37863Y62128D01*
X38011Y62007D01*
X38030Y61989D01*
X38067Y61942D01*
X38131Y61859D01*
X38196Y61748D01*
X38270Y61619D01*
X38335Y61452D01*
X38390Y61258D01*
X38418Y61045D01*
X35819D01*
Y61054D01*
Y61073D01*
X35828Y61101D01*
Y61138D01*
X35847Y61249D01*
X35874Y61369D01*
X35921Y61517D01*
X35967Y61656D01*
X36041Y61795D01*
X36124Y61915D01*
Y61924D01*
X36143Y61933D01*
X36189Y61989D01*
X36272Y62063D01*
X36383Y62146D01*
X36522Y62229D01*
X36688Y62303D01*
X36883Y62359D01*
X36984Y62368D01*
X37095Y62377D01*
X37151D01*
X37188Y62368D01*
D02*
G37*
G36*
X72366Y61637D02*
X70645D01*
X70580Y61646D01*
X70516D01*
X70442Y61656D01*
X70266Y61674D01*
X70072Y61711D01*
X69877Y61767D01*
X69702Y61841D01*
X69618Y61887D01*
X69554Y61942D01*
X69535Y61961D01*
X69498Y61998D01*
X69443Y62072D01*
X69378Y62164D01*
X69313Y62285D01*
X69258Y62433D01*
X69221Y62599D01*
X69202Y62793D01*
Y62803D01*
Y62812D01*
Y62858D01*
X69211Y62941D01*
X69230Y63034D01*
X69248Y63136D01*
X69285Y63256D01*
X69341Y63367D01*
X69406Y63478D01*
X69415Y63487D01*
X69443Y63524D01*
X69489Y63570D01*
X69544Y63635D01*
X69628Y63700D01*
X69720Y63756D01*
X69822Y63811D01*
X69942Y63857D01*
X69951D01*
X69988Y63867D01*
X70044Y63876D01*
X70118Y63894D01*
X70229Y63903D01*
X70368Y63913D01*
X70534Y63922D01*
X72366D01*
Y61637D01*
D02*
G37*
G36*
X54633Y62368D02*
X54735Y62359D01*
X54874Y62322D01*
X55031Y62266D01*
X55198Y62192D01*
X55355Y62081D01*
X55438Y62007D01*
X55512Y61933D01*
Y61924D01*
X55531Y61915D01*
X55549Y61887D01*
X55577Y61850D01*
X55605Y61804D01*
X55632Y61748D01*
X55669Y61674D01*
X55706Y61600D01*
X55743Y61508D01*
X55780Y61415D01*
X55808Y61304D01*
X55836Y61184D01*
X55864Y61054D01*
X55882Y60916D01*
X55891Y60759D01*
X55901Y60601D01*
Y60592D01*
Y60564D01*
Y60518D01*
X55891Y60453D01*
Y60379D01*
X55882Y60296D01*
X55854Y60102D01*
X55808Y59880D01*
X55734Y59658D01*
X55642Y59445D01*
X55577Y59352D01*
X55512Y59260D01*
X55503D01*
X55494Y59241D01*
X55438Y59195D01*
X55355Y59121D01*
X55244Y59047D01*
X55105Y58964D01*
X54939Y58890D01*
X54744Y58844D01*
X54643Y58834D01*
X54532Y58825D01*
X54476D01*
X54430Y58834D01*
X54328Y58853D01*
X54189Y58881D01*
X54041Y58936D01*
X53875Y59010D01*
X53718Y59121D01*
X53634Y59195D01*
X53560Y59269D01*
X53551Y59279D01*
X53542Y59288D01*
X53523Y59316D01*
X53496Y59352D01*
X53468Y59399D01*
X53431Y59454D01*
X53394Y59528D01*
X53357Y59602D01*
X53320Y59695D01*
X53292Y59797D01*
X53255Y59908D01*
X53227Y60028D01*
X53200Y60167D01*
X53181Y60305D01*
X53163Y60462D01*
Y60629D01*
Y60638D01*
Y60666D01*
Y60712D01*
X53172Y60768D01*
Y60842D01*
X53181Y60925D01*
X53209Y61119D01*
X53255Y61323D01*
X53329Y61545D01*
X53431Y61748D01*
X53486Y61850D01*
X53560Y61933D01*
Y61942D01*
X53579Y61952D01*
X53634Y62007D01*
X53718Y62072D01*
X53829Y62155D01*
X53967Y62239D01*
X54134Y62313D01*
X54319Y62359D01*
X54421Y62368D01*
X54532Y62377D01*
X54587D01*
X54633Y62368D01*
D02*
G37*
%LPC*%
G36*
X95469Y17209D02*
Y15888D01*
X96363D01*
X95469Y17209D01*
D02*
G37*
G36*
X92711Y17725D02*
X92689D01*
X92639Y17720D01*
X92594Y17714D01*
X92555Y17697D01*
X92522Y17681D01*
X92494Y17664D01*
X92472Y17653D01*
X92461Y17642D01*
X92455Y17636D01*
X92422Y17598D01*
X92389Y17548D01*
X92361Y17492D01*
X92333Y17437D01*
X92317Y17381D01*
X92300Y17337D01*
X92295Y17309D01*
X92289Y17303D01*
Y17298D01*
X92278Y17248D01*
X92267Y17187D01*
X92256Y17115D01*
X92244Y17043D01*
X92233Y16893D01*
X92228Y16737D01*
X92222Y16665D01*
Y16593D01*
X92217Y16532D01*
Y16477D01*
Y16432D01*
Y16393D01*
Y16371D01*
Y16365D01*
Y16243D01*
X92222Y16127D01*
Y16021D01*
X92228Y15927D01*
X92233Y15838D01*
X92239Y15761D01*
X92250Y15688D01*
X92256Y15627D01*
X92261Y15572D01*
X92272Y15527D01*
X92278Y15489D01*
X92283Y15455D01*
X92289Y15433D01*
Y15411D01*
X92295Y15405D01*
Y15400D01*
X92317Y15322D01*
X92344Y15261D01*
X92372Y15205D01*
X92394Y15167D01*
X92417Y15133D01*
X92439Y15111D01*
X92450Y15100D01*
X92455Y15094D01*
X92494Y15067D01*
X92533Y15045D01*
X92572Y15033D01*
X92611Y15022D01*
X92639Y15017D01*
X92666Y15011D01*
X92689D01*
X92738Y15017D01*
X92783Y15022D01*
X92822Y15039D01*
X92855Y15056D01*
X92883Y15067D01*
X92905Y15083D01*
X92916Y15089D01*
X92922Y15094D01*
X92955Y15133D01*
X92988Y15183D01*
X93016Y15239D01*
X93044Y15294D01*
X93060Y15344D01*
X93077Y15389D01*
X93083Y15416D01*
X93088Y15428D01*
X93099Y15483D01*
X93110Y15544D01*
X93121Y15611D01*
X93127Y15683D01*
X93138Y15838D01*
X93144Y15994D01*
X93149Y16066D01*
Y16138D01*
X93155Y16199D01*
Y16254D01*
Y16299D01*
Y16338D01*
Y16360D01*
Y16365D01*
Y16488D01*
X93149Y16604D01*
Y16704D01*
X93144Y16804D01*
X93138Y16887D01*
X93133Y16970D01*
X93127Y17037D01*
X93116Y17104D01*
X93110Y17159D01*
X93105Y17203D01*
X93099Y17242D01*
X93094Y17276D01*
X93088Y17298D01*
Y17320D01*
X93083Y17326D01*
Y17331D01*
X93060Y17409D01*
X93033Y17476D01*
X93010Y17525D01*
X92983Y17570D01*
X92961Y17598D01*
X92944Y17620D01*
X92933Y17631D01*
X92927Y17636D01*
X92888Y17664D01*
X92844Y17686D01*
X92805Y17703D01*
X92766Y17714D01*
X92738Y17720D01*
X92711Y17725D01*
D02*
G37*
G36*
X92684Y-16048D02*
X92651D01*
X92573Y-16059D01*
X92501Y-16081D01*
X92434Y-16109D01*
X92379Y-16148D01*
X92334Y-16187D01*
X92301Y-16214D01*
X92279Y-16237D01*
X92273Y-16248D01*
X92218Y-16331D01*
X92179Y-16420D01*
X92146Y-16514D01*
X92129Y-16603D01*
X92118Y-16686D01*
X92107Y-16747D01*
Y-16775D01*
Y-16792D01*
Y-16803D01*
Y-16808D01*
X92112Y-16925D01*
X92129Y-17025D01*
X92157Y-17108D01*
X92179Y-17180D01*
X92207Y-17230D01*
X92234Y-17269D01*
X92251Y-17297D01*
X92256Y-17302D01*
X92312Y-17358D01*
X92373Y-17397D01*
X92434Y-17430D01*
X92490Y-17447D01*
X92540Y-17458D01*
X92578Y-17463D01*
X92601Y-17469D01*
X92612D01*
X92689Y-17463D01*
X92762Y-17441D01*
X92823Y-17413D01*
X92878Y-17380D01*
X92923Y-17352D01*
X92950Y-17324D01*
X92972Y-17302D01*
X92978Y-17297D01*
X93028Y-17224D01*
X93061Y-17136D01*
X93089Y-17047D01*
X93106Y-16952D01*
X93117Y-16875D01*
X93122Y-16808D01*
Y-16781D01*
Y-16764D01*
Y-16753D01*
Y-16747D01*
X93117Y-16620D01*
X93100Y-16509D01*
X93078Y-16414D01*
X93056Y-16342D01*
X93033Y-16286D01*
X93011Y-16248D01*
X92995Y-16220D01*
X92989Y-16214D01*
X92934Y-16159D01*
X92878Y-16120D01*
X92823Y-16087D01*
X92767Y-16070D01*
X92723Y-16059D01*
X92684Y-16048D01*
D02*
G37*
G36*
X103659Y-86803D02*
X102373D01*
X102271Y-86813D01*
X102031D01*
X101975Y-86822D01*
X101873D01*
X101836Y-86831D01*
X101827D01*
X101716Y-86849D01*
X101614Y-86877D01*
X101531Y-86914D01*
X101457Y-86951D01*
X101411Y-86988D01*
X101365Y-87025D01*
X101346Y-87044D01*
X101337Y-87053D01*
X101281Y-87127D01*
X101244Y-87210D01*
X101207Y-87284D01*
X101189Y-87358D01*
X101180Y-87432D01*
X101170Y-87488D01*
Y-87525D01*
Y-87534D01*
X101180Y-87645D01*
X101198Y-87747D01*
X101235Y-87830D01*
X101263Y-87904D01*
X101300Y-87969D01*
X101337Y-88006D01*
X101355Y-88033D01*
X101365Y-88043D01*
X101439Y-88108D01*
X101522Y-88154D01*
X101605Y-88191D01*
X101688Y-88218D01*
X101772Y-88246D01*
X101827Y-88256D01*
X101864Y-88265D01*
X101920D01*
X101975Y-88274D01*
X102262D01*
X102419Y-88283D01*
X103659D01*
Y-86803D01*
D02*
G37*
G36*
Y-89347D02*
X102317D01*
X102188Y-89356D01*
X102077Y-89366D01*
X101966D01*
X101873Y-89375D01*
X101790Y-89384D01*
X101725Y-89393D01*
X101661Y-89403D01*
X101614Y-89412D01*
X101540Y-89421D01*
X101494Y-89439D01*
X101485D01*
X101392Y-89477D01*
X101309Y-89523D01*
X101235Y-89569D01*
X101180Y-89625D01*
X101133Y-89662D01*
X101106Y-89698D01*
X101087Y-89726D01*
X101078Y-89736D01*
X101032Y-89819D01*
X100995Y-89902D01*
X100967Y-89976D01*
X100948Y-90059D01*
X100939Y-90124D01*
X100930Y-90180D01*
Y-90216D01*
Y-90226D01*
X100939Y-90346D01*
X100958Y-90457D01*
X100985Y-90549D01*
X101022Y-90623D01*
X101059Y-90688D01*
X101087Y-90734D01*
X101106Y-90762D01*
X101115Y-90772D01*
X101189Y-90836D01*
X101263Y-90892D01*
X101346Y-90938D01*
X101420Y-90975D01*
X101485Y-90993D01*
X101540Y-91012D01*
X101577Y-91021D01*
X101587D01*
X101624Y-91031D01*
X101679D01*
X101799Y-91040D01*
X101947Y-91049D01*
X102095D01*
X102234Y-91058D01*
X103659D01*
Y-89347D01*
D02*
G37*
G36*
X29612Y-86822D02*
X28132D01*
X28049Y-86831D01*
X27846D01*
X27762Y-86840D01*
X27707D01*
X27679Y-86849D01*
X27670D01*
X27559Y-86877D01*
X27457Y-86914D01*
X27374Y-86951D01*
X27309Y-86997D01*
X27254Y-87044D01*
X27207Y-87072D01*
X27189Y-87099D01*
X27180Y-87108D01*
X27124Y-87182D01*
X27078Y-87275D01*
X27050Y-87358D01*
X27022Y-87441D01*
X27013Y-87515D01*
X27004Y-87571D01*
Y-87608D01*
Y-87626D01*
X27013Y-87728D01*
X27022Y-87821D01*
X27050Y-87904D01*
X27069Y-87978D01*
X27096Y-88033D01*
X27124Y-88070D01*
X27133Y-88098D01*
X27143Y-88108D01*
X27198Y-88172D01*
X27254Y-88228D01*
X27374Y-88311D01*
X27420Y-88339D01*
X27466Y-88357D01*
X27494Y-88376D01*
X27503D01*
X27550Y-88385D01*
X27624Y-88403D01*
X27698Y-88413D01*
X27781Y-88422D01*
X27975Y-88431D01*
X28169Y-88441D01*
X28354Y-88450D01*
X29612D01*
Y-86822D01*
D02*
G37*
G36*
X95731Y-86720D02*
X95657D01*
X95509Y-86729D01*
X95371Y-86748D01*
X95241Y-86766D01*
X95121Y-86803D01*
X94908Y-86896D01*
X94806Y-86942D01*
X94723Y-86988D01*
X94640Y-87044D01*
X94575Y-87090D01*
X94520Y-87136D01*
X94464Y-87182D01*
X94427Y-87220D01*
X94399Y-87238D01*
X94390Y-87256D01*
X94381Y-87266D01*
X94298Y-87377D01*
X94214Y-87497D01*
X94150Y-87617D01*
X94094Y-87756D01*
X94011Y-88033D01*
X93955Y-88302D01*
X93928Y-88422D01*
X93918Y-88542D01*
X93909Y-88644D01*
X93900Y-88736D01*
X93891Y-88820D01*
Y-88875D01*
Y-88912D01*
Y-88921D01*
X93900Y-89125D01*
X93909Y-89319D01*
X93937Y-89495D01*
X93965Y-89652D01*
X94002Y-89810D01*
X94048Y-89948D01*
X94094Y-90069D01*
X94140Y-90180D01*
X94187Y-90281D01*
X94233Y-90364D01*
X94270Y-90438D01*
X94316Y-90503D01*
X94344Y-90549D01*
X94372Y-90577D01*
X94381Y-90596D01*
X94390Y-90605D01*
X94483Y-90707D01*
X94584Y-90790D01*
X94695Y-90864D01*
X94797Y-90929D01*
X94908Y-90975D01*
X95010Y-91021D01*
X95213Y-91086D01*
X95389Y-91132D01*
X95463Y-91141D01*
X95528Y-91151D01*
X95583Y-91160D01*
X95657D01*
X95796Y-91151D01*
X95935Y-91132D01*
X96064Y-91105D01*
X96185Y-91067D01*
X96407Y-90984D01*
X96582Y-90873D01*
X96666Y-90827D01*
X96730Y-90772D01*
X96795Y-90725D01*
X96841Y-90679D01*
X96878Y-90651D01*
X96906Y-90623D01*
X96925Y-90605D01*
X96934Y-90596D01*
X97017Y-90485D01*
X97100Y-90364D01*
X97165Y-90235D01*
X97221Y-90096D01*
X97313Y-89828D01*
X97369Y-89560D01*
X97387Y-89430D01*
X97406Y-89319D01*
X97415Y-89208D01*
X97424Y-89116D01*
X97433Y-89042D01*
Y-88986D01*
Y-88949D01*
Y-88940D01*
X97424Y-88736D01*
X97415Y-88551D01*
X97387Y-88376D01*
X97359Y-88209D01*
X97322Y-88061D01*
X97285Y-87923D01*
X97239Y-87802D01*
X97193Y-87691D01*
X97147Y-87590D01*
X97100Y-87506D01*
X97063Y-87441D01*
X97026Y-87377D01*
X96999Y-87331D01*
X96971Y-87303D01*
X96962Y-87284D01*
X96952Y-87275D01*
X96860Y-87173D01*
X96758Y-87090D01*
X96647Y-87016D01*
X96545Y-86951D01*
X96434Y-86896D01*
X96323Y-86859D01*
X96120Y-86785D01*
X95935Y-86748D01*
X95861Y-86739D01*
X95787Y-86729D01*
X95731Y-86720D01*
D02*
G37*
G36*
X77842D02*
X77768D01*
X77620Y-86729D01*
X77481Y-86748D01*
X77352Y-86766D01*
X77231Y-86803D01*
X77019Y-86896D01*
X76917Y-86942D01*
X76834Y-86988D01*
X76750Y-87044D01*
X76686Y-87090D01*
X76630Y-87136D01*
X76575Y-87182D01*
X76538Y-87220D01*
X76510Y-87238D01*
X76501Y-87256D01*
X76491Y-87266D01*
X76408Y-87377D01*
X76325Y-87497D01*
X76260Y-87617D01*
X76205Y-87756D01*
X76121Y-88033D01*
X76066Y-88302D01*
X76038Y-88422D01*
X76029Y-88542D01*
X76020Y-88644D01*
X76010Y-88736D01*
X76001Y-88820D01*
Y-88875D01*
Y-88912D01*
Y-88921D01*
X76010Y-89125D01*
X76020Y-89319D01*
X76047Y-89495D01*
X76075Y-89652D01*
X76112Y-89810D01*
X76158Y-89948D01*
X76205Y-90069D01*
X76251Y-90180D01*
X76297Y-90281D01*
X76343Y-90364D01*
X76380Y-90438D01*
X76427Y-90503D01*
X76454Y-90549D01*
X76482Y-90577D01*
X76491Y-90596D01*
X76501Y-90605D01*
X76593Y-90707D01*
X76695Y-90790D01*
X76806Y-90864D01*
X76908Y-90929D01*
X77019Y-90975D01*
X77120Y-91021D01*
X77324Y-91086D01*
X77500Y-91132D01*
X77574Y-91141D01*
X77638Y-91151D01*
X77694Y-91160D01*
X77768D01*
X77907Y-91151D01*
X78045Y-91132D01*
X78175Y-91105D01*
X78295Y-91067D01*
X78517Y-90984D01*
X78693Y-90873D01*
X78776Y-90827D01*
X78841Y-90772D01*
X78906Y-90725D01*
X78952Y-90679D01*
X78989Y-90651D01*
X79017Y-90623D01*
X79035Y-90605D01*
X79044Y-90596D01*
X79128Y-90485D01*
X79211Y-90364D01*
X79276Y-90235D01*
X79331Y-90096D01*
X79424Y-89828D01*
X79479Y-89560D01*
X79498Y-89430D01*
X79516Y-89319D01*
X79525Y-89208D01*
X79535Y-89116D01*
X79544Y-89042D01*
Y-88986D01*
Y-88949D01*
Y-88940D01*
X79535Y-88736D01*
X79525Y-88551D01*
X79498Y-88376D01*
X79470Y-88209D01*
X79433Y-88061D01*
X79396Y-87923D01*
X79350Y-87802D01*
X79303Y-87691D01*
X79257Y-87590D01*
X79211Y-87506D01*
X79174Y-87441D01*
X79137Y-87377D01*
X79109Y-87331D01*
X79081Y-87303D01*
X79072Y-87284D01*
X79063Y-87275D01*
X78970Y-87173D01*
X78869Y-87090D01*
X78758Y-87016D01*
X78656Y-86951D01*
X78545Y-86896D01*
X78434Y-86859D01*
X78230Y-86785D01*
X78045Y-86748D01*
X77971Y-86739D01*
X77897Y-86729D01*
X77842Y-86720D01*
D02*
G37*
%LPD*%
D10*
X27254Y73133D02*
G03*
X27254Y73133I-394J0D01*
G01*
X98425Y-11750D02*
Y-9843D01*
X91536Y-11750D02*
X98425D01*
Y2756D02*
Y11750D01*
X91536D02*
X98425D01*
X19685D02*
X26575D01*
X19685Y2756D02*
Y11750D01*
Y-11750D02*
Y-9843D01*
Y-11750D02*
X26575D01*
D11*
X13238Y98999D02*
X103474D01*
X100384Y95495D02*
X103474D01*
X13238D02*
X16329D01*
X100384Y93487D02*
Y95495D01*
X16329Y93487D02*
Y95495D01*
X13238D02*
Y98999D01*
X103474Y95495D02*
Y98999D01*
X88435Y77739D02*
X90640D01*
X26073D02*
X28277D01*
M02*
