G04*
G04 #@! TF.GenerationSoftware,Altium Limited,Altium Designer,22.5.1 (42)*
G04*
G04 Layer_Physical_Order=3*
G04 Layer_Color=16440176*
%FSLAX25Y25*%
%MOIN*%
G70*
G04*
G04 #@! TF.SameCoordinates,343D76CA-8D90-4984-A01A-401E7FF7C9D5*
G04*
G04*
G04 #@! TF.FilePolarity,Positive*
G04*
G01*
G75*
%ADD30C,0.01600*%
G36*
X121789Y99004D02*
X122514Y98704D01*
X123137Y98226D01*
X123615Y97604D01*
X123915Y96879D01*
X124012Y96144D01*
X124003Y96100D01*
Y3593D01*
X123518Y3471D01*
X123462Y3576D01*
X122661Y4551D01*
X121686Y5352D01*
X120573Y5946D01*
X119366Y6313D01*
X118110Y6436D01*
X116855Y6313D01*
X115647Y5946D01*
X114534Y5352D01*
X113559Y4551D01*
X112759Y3576D01*
X112164Y2463D01*
X111797Y1256D01*
X111674Y0D01*
X111797Y-1256D01*
X112164Y-2463D01*
X112759Y-3576D01*
X113559Y-4551D01*
X114534Y-5352D01*
X115647Y-5946D01*
X116855Y-6313D01*
X118110Y-6436D01*
X119366Y-6313D01*
X120573Y-5946D01*
X121686Y-5352D01*
X122661Y-4551D01*
X123462Y-3576D01*
X123518Y-3471D01*
X124003Y-3593D01*
Y-18900D01*
X124012Y-18943D01*
X123915Y-19678D01*
X123615Y-20403D01*
X123137Y-21025D01*
X122514Y-21503D01*
X121789Y-21803D01*
X121054Y-21900D01*
X121011Y-21891D01*
X-2901D01*
X-2944Y-21900D01*
X-3679Y-21803D01*
X-4404Y-21503D01*
X-5027Y-21025D01*
X-5504Y-20403D01*
X-5805Y-19678D01*
X-5901Y-18943D01*
X-5893Y-18900D01*
Y-3593D01*
X-5408Y-3471D01*
X-5352Y-3576D01*
X-4551Y-4551D01*
X-3576Y-5352D01*
X-2463Y-5946D01*
X-1256Y-6313D01*
X0Y-6436D01*
X1256Y-6313D01*
X2463Y-5946D01*
X3576Y-5352D01*
X4551Y-4551D01*
X5352Y-3576D01*
X5946Y-2463D01*
X6313Y-1256D01*
X6436Y0D01*
X6313Y1256D01*
X5946Y2463D01*
X5352Y3576D01*
X4551Y4551D01*
X3576Y5352D01*
X2463Y5946D01*
X1256Y6313D01*
X0Y6436D01*
X-1256Y6313D01*
X-2463Y5946D01*
X-3576Y5352D01*
X-4551Y4551D01*
X-5352Y3576D01*
X-5408Y3471D01*
X-5893Y3593D01*
Y96100D01*
X-5901Y96144D01*
X-5805Y96879D01*
X-5504Y97604D01*
X-5027Y98226D01*
X-4404Y98704D01*
X-3679Y99004D01*
X-2944Y99101D01*
X-2901Y99092D01*
X121011D01*
X121054Y99101D01*
X121789Y99004D01*
D02*
G37*
G36*
X51497Y-59272D02*
X51599Y-59281D01*
X51719Y-59291D01*
X51849Y-59300D01*
X51988Y-59328D01*
X52284Y-59383D01*
X52589Y-59476D01*
X52746Y-59531D01*
X52894Y-59596D01*
X53033Y-59670D01*
X53162Y-59762D01*
X53172Y-59772D01*
X53190Y-59781D01*
X53227Y-59818D01*
X53273Y-59855D01*
X53329Y-59901D01*
X53384Y-59966D01*
X53449Y-60040D01*
X53523Y-60123D01*
X53597Y-60216D01*
X53671Y-60317D01*
X53745Y-60428D01*
X53810Y-60558D01*
X53884Y-60687D01*
X53939Y-60826D01*
X53995Y-60983D01*
X54032Y-61141D01*
X52746Y-61381D01*
Y-61372D01*
X52737Y-61363D01*
X52718Y-61307D01*
X52681Y-61224D01*
X52626Y-61113D01*
X52561Y-60993D01*
X52469Y-60872D01*
X52358Y-60752D01*
X52228Y-60641D01*
X52210Y-60632D01*
X52163Y-60595D01*
X52080Y-60549D01*
X51978Y-60502D01*
X51840Y-60447D01*
X51682Y-60410D01*
X51507Y-60373D01*
X51303Y-60364D01*
X51220D01*
X51164Y-60373D01*
X51090Y-60382D01*
X51007Y-60391D01*
X50915Y-60410D01*
X50813Y-60428D01*
X50600Y-60493D01*
X50489Y-60539D01*
X50378Y-60595D01*
X50267Y-60660D01*
X50156Y-60724D01*
X50054Y-60817D01*
X49953Y-60909D01*
X49943Y-60919D01*
X49934Y-60937D01*
X49906Y-60965D01*
X49879Y-61011D01*
X49842Y-61067D01*
X49795Y-61131D01*
X49749Y-61215D01*
X49712Y-61307D01*
X49666Y-61418D01*
X49620Y-61538D01*
X49573Y-61668D01*
X49536Y-61807D01*
X49509Y-61964D01*
X49481Y-62140D01*
X49472Y-62315D01*
X49462Y-62510D01*
Y-62519D01*
Y-62556D01*
Y-62621D01*
X49472Y-62695D01*
X49481Y-62796D01*
X49490Y-62898D01*
X49509Y-63028D01*
X49527Y-63157D01*
X49583Y-63435D01*
X49675Y-63721D01*
X49731Y-63860D01*
X49795Y-63990D01*
X49879Y-64119D01*
X49962Y-64230D01*
X49971Y-64239D01*
X49990Y-64258D01*
X50017Y-64286D01*
X50054Y-64323D01*
X50110Y-64360D01*
X50165Y-64415D01*
X50239Y-64461D01*
X50323Y-64517D01*
X50415Y-64572D01*
X50508Y-64619D01*
X50739Y-64711D01*
X50868Y-64748D01*
X50998Y-64776D01*
X51146Y-64794D01*
X51294Y-64804D01*
X51368D01*
X51442Y-64794D01*
X51553Y-64785D01*
X51673Y-64767D01*
X51812Y-64739D01*
X51960Y-64702D01*
X52108Y-64646D01*
X52117D01*
X52126Y-64637D01*
X52173Y-64619D01*
X52256Y-64582D01*
X52348Y-64535D01*
X52459Y-64480D01*
X52580Y-64415D01*
X52700Y-64341D01*
X52811Y-64258D01*
Y-63435D01*
X51331D01*
Y-62352D01*
X54115D01*
Y-64924D01*
X54097Y-64942D01*
X54069Y-64961D01*
X54041Y-64989D01*
X53995Y-65026D01*
X53949Y-65063D01*
X53819Y-65155D01*
X53643Y-65257D01*
X53440Y-65377D01*
X53209Y-65497D01*
X52931Y-65608D01*
X52922D01*
X52894Y-65618D01*
X52857Y-65636D01*
X52802Y-65655D01*
X52728Y-65673D01*
X52644Y-65701D01*
X52552Y-65729D01*
X52450Y-65756D01*
X52219Y-65812D01*
X51951Y-65858D01*
X51673Y-65895D01*
X51377Y-65904D01*
X51275D01*
X51211Y-65895D01*
X51118D01*
X51016Y-65886D01*
X50905Y-65867D01*
X50776Y-65849D01*
X50508Y-65803D01*
X50212Y-65729D01*
X49906Y-65627D01*
X49768Y-65562D01*
X49620Y-65488D01*
X49610Y-65479D01*
X49592Y-65470D01*
X49546Y-65442D01*
X49499Y-65405D01*
X49435Y-65368D01*
X49370Y-65312D01*
X49287Y-65248D01*
X49203Y-65174D01*
X49018Y-65007D01*
X48833Y-64794D01*
X48658Y-64554D01*
X48500Y-64276D01*
Y-64267D01*
X48482Y-64239D01*
X48463Y-64193D01*
X48445Y-64138D01*
X48417Y-64064D01*
X48380Y-63980D01*
X48352Y-63879D01*
X48315Y-63768D01*
X48278Y-63647D01*
X48251Y-63509D01*
X48186Y-63222D01*
X48149Y-62907D01*
X48130Y-62565D01*
Y-62556D01*
Y-62519D01*
Y-62463D01*
X48140Y-62399D01*
Y-62306D01*
X48149Y-62204D01*
X48167Y-62093D01*
X48186Y-61964D01*
X48232Y-61696D01*
X48306Y-61390D01*
X48408Y-61085D01*
X48473Y-60937D01*
X48547Y-60789D01*
X48556Y-60780D01*
X48565Y-60752D01*
X48593Y-60715D01*
X48621Y-60660D01*
X48667Y-60595D01*
X48722Y-60521D01*
X48787Y-60438D01*
X48852Y-60345D01*
X48935Y-60253D01*
X49028Y-60151D01*
X49129Y-60049D01*
X49240Y-59947D01*
X49361Y-59855D01*
X49481Y-59753D01*
X49768Y-59587D01*
X49777D01*
X49795Y-59568D01*
X49832Y-59559D01*
X49879Y-59531D01*
X49943Y-59513D01*
X50008Y-59485D01*
X50101Y-59457D01*
X50193Y-59420D01*
X50295Y-59392D01*
X50415Y-59365D01*
X50545Y-59337D01*
X50674Y-59309D01*
X50970Y-59272D01*
X51303Y-59263D01*
X51414D01*
X51497Y-59272D01*
D02*
G37*
G36*
X24987Y-63102D02*
Y-65784D01*
X23692D01*
Y-63092D01*
X21352Y-59383D01*
X22859D01*
X24367Y-61918D01*
X25838Y-59383D01*
X27327D01*
X24987Y-63102D01*
D02*
G37*
G36*
X93696Y-65784D02*
X92401D01*
X89802Y-61566D01*
Y-65784D01*
X88608D01*
Y-59383D01*
X89857D01*
X92503Y-63694D01*
Y-59383D01*
X93696D01*
Y-65784D01*
D02*
G37*
G36*
X60405D02*
X59110D01*
X56511Y-61566D01*
Y-65784D01*
X55318D01*
Y-59383D01*
X56566D01*
X59212Y-63694D01*
Y-59383D01*
X60405D01*
Y-65784D01*
D02*
G37*
G36*
X42294Y-59355D02*
X42377Y-59365D01*
X42460Y-59374D01*
X42562Y-59392D01*
X42664Y-59420D01*
X42895Y-59485D01*
X43015Y-59531D01*
X43145Y-59596D01*
X43265Y-59661D01*
X43376Y-59735D01*
X43496Y-59827D01*
X43598Y-59929D01*
X43607Y-59938D01*
X43616Y-59947D01*
X43644Y-59975D01*
X43672Y-60012D01*
X43746Y-60105D01*
X43829Y-60234D01*
X43912Y-60391D01*
X43977Y-60576D01*
X44033Y-60780D01*
X44042Y-60882D01*
X44051Y-60993D01*
Y-61002D01*
Y-61030D01*
X44042Y-61076D01*
X44033Y-61131D01*
X44023Y-61205D01*
X44005Y-61289D01*
X43977Y-61381D01*
X43940Y-61483D01*
X43885Y-61585D01*
X43829Y-61696D01*
X43755Y-61807D01*
X43663Y-61918D01*
X43552Y-62029D01*
X43431Y-62140D01*
X43293Y-62241D01*
X43126Y-62343D01*
X43135D01*
X43154Y-62352D01*
X43182D01*
X43219Y-62371D01*
X43320Y-62399D01*
X43441Y-62454D01*
X43579Y-62528D01*
X43727Y-62621D01*
X43875Y-62741D01*
X44005Y-62880D01*
X44023Y-62898D01*
X44060Y-62954D01*
X44107Y-63037D01*
X44171Y-63157D01*
X44236Y-63296D01*
X44282Y-63472D01*
X44319Y-63657D01*
X44338Y-63869D01*
Y-63879D01*
Y-63906D01*
Y-63953D01*
X44329Y-64008D01*
X44319Y-64082D01*
X44301Y-64165D01*
X44282Y-64267D01*
X44264Y-64369D01*
X44190Y-64591D01*
X44134Y-64711D01*
X44079Y-64841D01*
X44005Y-64961D01*
X43922Y-65081D01*
X43829Y-65201D01*
X43718Y-65312D01*
X43709Y-65322D01*
X43690Y-65340D01*
X43653Y-65368D01*
X43607Y-65405D01*
X43542Y-65451D01*
X43478Y-65497D01*
X43385Y-65553D01*
X43293Y-65608D01*
X43191Y-65664D01*
X43071Y-65719D01*
X42941Y-65766D01*
X42812Y-65812D01*
X42664Y-65849D01*
X42516Y-65877D01*
X42349Y-65895D01*
X42183Y-65904D01*
X42099D01*
X42035Y-65895D01*
X41961Y-65886D01*
X41877Y-65877D01*
X41785Y-65858D01*
X41674Y-65840D01*
X41452Y-65784D01*
X41211Y-65692D01*
X41082Y-65636D01*
X40971Y-65571D01*
X40851Y-65488D01*
X40740Y-65405D01*
X40730Y-65396D01*
X40712Y-65377D01*
X40684Y-65349D01*
X40647Y-65312D01*
X40601Y-65266D01*
X40555Y-65201D01*
X40499Y-65137D01*
X40444Y-65053D01*
X40388Y-64961D01*
X40323Y-64868D01*
X40222Y-64646D01*
X40138Y-64387D01*
X40101Y-64249D01*
X40083Y-64101D01*
X41267Y-63953D01*
Y-63962D01*
Y-63971D01*
X41276Y-64027D01*
X41295Y-64110D01*
X41322Y-64212D01*
X41369Y-64323D01*
X41415Y-64443D01*
X41489Y-64554D01*
X41572Y-64656D01*
X41581Y-64665D01*
X41618Y-64693D01*
X41674Y-64730D01*
X41739Y-64767D01*
X41831Y-64813D01*
X41933Y-64850D01*
X42044Y-64878D01*
X42173Y-64887D01*
X42192D01*
X42238Y-64878D01*
X42303Y-64868D01*
X42395Y-64850D01*
X42497Y-64813D01*
X42599Y-64767D01*
X42710Y-64693D01*
X42812Y-64600D01*
X42821Y-64591D01*
X42858Y-64545D01*
X42895Y-64480D01*
X42950Y-64397D01*
X42997Y-64286D01*
X43043Y-64147D01*
X43071Y-63990D01*
X43080Y-63814D01*
Y-63805D01*
Y-63795D01*
Y-63740D01*
X43071Y-63657D01*
X43052Y-63546D01*
X43015Y-63425D01*
X42969Y-63305D01*
X42904Y-63185D01*
X42821Y-63074D01*
X42812Y-63065D01*
X42775Y-63028D01*
X42719Y-62981D01*
X42654Y-62935D01*
X42562Y-62880D01*
X42460Y-62843D01*
X42349Y-62806D01*
X42220Y-62796D01*
X42127D01*
X42062Y-62806D01*
X41979Y-62815D01*
X41877Y-62833D01*
X41776Y-62861D01*
X41655Y-62889D01*
X41785Y-61899D01*
X41868D01*
X41961Y-61890D01*
X42072Y-61881D01*
X42192Y-61853D01*
X42321Y-61816D01*
X42442Y-61760D01*
X42553Y-61686D01*
X42562Y-61677D01*
X42599Y-61640D01*
X42636Y-61594D01*
X42691Y-61520D01*
X42738Y-61437D01*
X42784Y-61335D01*
X42812Y-61215D01*
X42821Y-61076D01*
Y-61057D01*
Y-61020D01*
X42812Y-60965D01*
X42793Y-60891D01*
X42775Y-60808D01*
X42738Y-60724D01*
X42691Y-60632D01*
X42627Y-60558D01*
X42617Y-60549D01*
X42590Y-60530D01*
X42553Y-60493D01*
X42488Y-60456D01*
X42414Y-60428D01*
X42331Y-60391D01*
X42220Y-60373D01*
X42109Y-60364D01*
X42053D01*
X41998Y-60373D01*
X41924Y-60391D01*
X41840Y-60419D01*
X41748Y-60456D01*
X41655Y-60512D01*
X41572Y-60586D01*
X41563Y-60595D01*
X41535Y-60623D01*
X41498Y-60678D01*
X41452Y-60752D01*
X41406Y-60835D01*
X41369Y-60946D01*
X41332Y-61076D01*
X41304Y-61224D01*
X40175Y-61039D01*
Y-61030D01*
X40185Y-61011D01*
Y-60983D01*
X40194Y-60937D01*
X40222Y-60835D01*
X40259Y-60697D01*
X40314Y-60549D01*
X40370Y-60391D01*
X40444Y-60243D01*
X40527Y-60105D01*
X40536Y-60086D01*
X40573Y-60049D01*
X40629Y-59984D01*
X40703Y-59901D01*
X40795Y-59818D01*
X40906Y-59725D01*
X41045Y-59633D01*
X41193Y-59550D01*
X41202D01*
X41211Y-59540D01*
X41267Y-59522D01*
X41359Y-59485D01*
X41470Y-59448D01*
X41609Y-59411D01*
X41776Y-59374D01*
X41951Y-59355D01*
X42146Y-59346D01*
X42229D01*
X42294Y-59355D01*
D02*
G37*
G36*
X99810Y-60465D02*
X96360D01*
Y-61881D01*
X99570D01*
Y-62963D01*
X96360D01*
Y-64702D01*
X99930D01*
Y-65784D01*
X95065Y-65784D01*
Y-59383D01*
X99810Y-59383D01*
Y-60465D01*
D02*
G37*
G36*
X87915Y-65784D02*
X86518D01*
X85963Y-64332D01*
X83391D01*
X82864Y-65784D01*
X81495D01*
X83974Y-59383D01*
X85343D01*
X87915Y-65784D01*
D02*
G37*
G36*
X78008Y-64702D02*
X81227D01*
Y-65784D01*
X76713D01*
Y-59429D01*
X78008D01*
Y-64702D01*
D02*
G37*
G36*
X73179Y-59392D02*
X73420D01*
X73679Y-59411D01*
X73938Y-59429D01*
X74049Y-59439D01*
X74160Y-59448D01*
X74252Y-59466D01*
X74326Y-59485D01*
X74336D01*
X74354Y-59494D01*
X74382Y-59503D01*
X74419Y-59513D01*
X74521Y-59559D01*
X74650Y-59614D01*
X74789Y-59698D01*
X74946Y-59809D01*
X75094Y-59947D01*
X75242Y-60114D01*
Y-60123D01*
X75261Y-60132D01*
X75279Y-60160D01*
X75298Y-60197D01*
X75335Y-60253D01*
X75362Y-60308D01*
X75399Y-60373D01*
X75436Y-60447D01*
X75501Y-60632D01*
X75566Y-60835D01*
X75603Y-61085D01*
X75621Y-61353D01*
Y-61363D01*
Y-61381D01*
Y-61409D01*
Y-61455D01*
X75612Y-61501D01*
Y-61566D01*
X75594Y-61696D01*
X75566Y-61853D01*
X75529Y-62029D01*
X75473Y-62195D01*
X75399Y-62352D01*
X75390Y-62371D01*
X75362Y-62417D01*
X75316Y-62491D01*
X75251Y-62584D01*
X75177Y-62676D01*
X75076Y-62787D01*
X74974Y-62889D01*
X74854Y-62981D01*
X74835Y-62991D01*
X74798Y-63018D01*
X74733Y-63055D01*
X74650Y-63102D01*
X74548Y-63157D01*
X74437Y-63203D01*
X74317Y-63250D01*
X74188Y-63287D01*
X74169D01*
X74141Y-63296D01*
X74104D01*
X74058Y-63305D01*
X73993Y-63314D01*
X73929Y-63324D01*
X73845D01*
X73762Y-63333D01*
X73660Y-63342D01*
X73549Y-63351D01*
X73429Y-63361D01*
X73300D01*
X73161Y-63370D01*
X72014D01*
Y-65784D01*
X70719D01*
Y-59383D01*
X73078D01*
X73179Y-59392D01*
D02*
G37*
G36*
X64401D02*
X64577Y-59402D01*
X64771Y-59411D01*
X64975Y-59439D01*
X65169Y-59466D01*
X65345Y-59513D01*
X65354D01*
X65372Y-59522D01*
X65400Y-59531D01*
X65437Y-59540D01*
X65548Y-59587D01*
X65678Y-59651D01*
X65826Y-59735D01*
X65992Y-59836D01*
X66149Y-59957D01*
X66307Y-60105D01*
X66316D01*
X66325Y-60123D01*
X66371Y-60179D01*
X66445Y-60271D01*
X66529Y-60391D01*
X66630Y-60539D01*
X66732Y-60715D01*
X66834Y-60919D01*
X66917Y-61141D01*
Y-61150D01*
X66926Y-61168D01*
X66936Y-61205D01*
X66954Y-61252D01*
X66963Y-61307D01*
X66982Y-61381D01*
X67000Y-61464D01*
X67028Y-61557D01*
X67047Y-61659D01*
X67065Y-61779D01*
X67084Y-61899D01*
X67093Y-62038D01*
X67121Y-62325D01*
X67130Y-62648D01*
Y-62658D01*
Y-62685D01*
Y-62722D01*
Y-62778D01*
X67121Y-62852D01*
Y-62926D01*
X67111Y-63018D01*
X67102Y-63120D01*
X67084Y-63333D01*
X67047Y-63555D01*
X66991Y-63786D01*
X66926Y-64008D01*
Y-64017D01*
X66917Y-64036D01*
X66899Y-64073D01*
X66880Y-64128D01*
X66862Y-64184D01*
X66825Y-64249D01*
X66751Y-64415D01*
X66658Y-64591D01*
X66538Y-64785D01*
X66399Y-64970D01*
X66242Y-65146D01*
X66223Y-65164D01*
X66177Y-65201D01*
X66103Y-65257D01*
X66001Y-65331D01*
X65872Y-65414D01*
X65724Y-65497D01*
X65539Y-65581D01*
X65335Y-65655D01*
X65326D01*
X65317Y-65664D01*
X65289D01*
X65261Y-65673D01*
X65160Y-65692D01*
X65030Y-65719D01*
X64873Y-65747D01*
X64679Y-65766D01*
X64447Y-65775D01*
X64198Y-65784D01*
X61774D01*
Y-59383D01*
X64327D01*
X64401Y-59392D01*
D02*
G37*
G36*
X36919Y-59392D02*
X37021D01*
X37123Y-59402D01*
X37243D01*
X37484Y-59429D01*
X37733Y-59457D01*
X37965Y-59503D01*
X38066Y-59531D01*
X38159Y-59559D01*
X38168D01*
X38177Y-59568D01*
X38233Y-59596D01*
X38316Y-59642D01*
X38427Y-59698D01*
X38547Y-59790D01*
X38668Y-59892D01*
X38788Y-60021D01*
X38899Y-60179D01*
Y-60188D01*
X38908Y-60197D01*
X38927Y-60225D01*
X38945Y-60253D01*
X38991Y-60345D01*
X39047Y-60465D01*
X39093Y-60613D01*
X39139Y-60780D01*
X39176Y-60974D01*
X39186Y-61178D01*
Y-61187D01*
Y-61205D01*
Y-61252D01*
X39176Y-61298D01*
Y-61363D01*
X39167Y-61427D01*
X39130Y-61594D01*
X39084Y-61788D01*
X39010Y-61982D01*
X38899Y-62186D01*
X38834Y-62278D01*
X38760Y-62371D01*
X38751Y-62380D01*
X38742Y-62389D01*
X38714Y-62417D01*
X38677Y-62445D01*
X38640Y-62482D01*
X38584Y-62528D01*
X38520Y-62574D01*
X38446Y-62621D01*
X38362Y-62676D01*
X38261Y-62722D01*
X38159Y-62769D01*
X38048Y-62815D01*
X37918Y-62861D01*
X37789Y-62898D01*
X37650Y-62935D01*
X37493Y-62963D01*
X37502D01*
X37511Y-62972D01*
X37567Y-63009D01*
X37641Y-63055D01*
X37733Y-63120D01*
X37844Y-63203D01*
X37955Y-63287D01*
X38076Y-63388D01*
X38177Y-63499D01*
X38187Y-63509D01*
X38233Y-63555D01*
X38288Y-63629D01*
X38372Y-63740D01*
X38483Y-63879D01*
X38538Y-63971D01*
X38603Y-64064D01*
X38677Y-64165D01*
X38751Y-64276D01*
X38834Y-64406D01*
X38917Y-64535D01*
X39704Y-65784D01*
X38150Y-65784D01*
X37225Y-64397D01*
X37215Y-64387D01*
X37206Y-64360D01*
X37178Y-64323D01*
X37141Y-64276D01*
X37104Y-64221D01*
X37058Y-64147D01*
X36956Y-63999D01*
X36836Y-63832D01*
X36725Y-63684D01*
X36623Y-63546D01*
X36577Y-63499D01*
X36540Y-63453D01*
X36531Y-63444D01*
X36512Y-63425D01*
X36475Y-63388D01*
X36429Y-63342D01*
X36364Y-63305D01*
X36300Y-63259D01*
X36226Y-63222D01*
X36152Y-63185D01*
X36142D01*
X36115Y-63176D01*
X36068Y-63157D01*
X35994Y-63148D01*
X35902Y-63129D01*
X35791Y-63120D01*
X35661Y-63111D01*
X35245D01*
Y-65784D01*
X33950D01*
Y-59383D01*
X36836D01*
X36919Y-59392D01*
D02*
G37*
G36*
X32729Y-60465D02*
X29279D01*
Y-61881D01*
X32489D01*
Y-62963D01*
X29279D01*
Y-64702D01*
X32849D01*
Y-65784D01*
X27984D01*
Y-59383D01*
X32729D01*
Y-60465D01*
D02*
G37*
G36*
X21324Y-65784D02*
X19927D01*
X19372Y-64332D01*
X16801D01*
X16273Y-65784D01*
X14904D01*
X17383Y-59383D01*
X18752D01*
X21324Y-65784D01*
D02*
G37*
G36*
X11417Y-64702D02*
X14636D01*
Y-65784D01*
X10122D01*
Y-59429D01*
X11417D01*
Y-64702D01*
D02*
G37*
G36*
X101512Y-59281D02*
X101531Y-59318D01*
X101568Y-59365D01*
X101614Y-59439D01*
X101669Y-59522D01*
X101734Y-59624D01*
X101799Y-59744D01*
X101873Y-59873D01*
X101956Y-60021D01*
X102039Y-60179D01*
X102123Y-60336D01*
X102206Y-60512D01*
X102372Y-60882D01*
X102520Y-61270D01*
Y-61279D01*
X102539Y-61316D01*
X102557Y-61372D01*
X102576Y-61455D01*
X102604Y-61548D01*
X102641Y-61659D01*
X102668Y-61788D01*
X102705Y-61936D01*
X102742Y-62084D01*
X102770Y-62251D01*
X102807Y-62436D01*
X102835Y-62621D01*
X102872Y-63000D01*
X102890Y-63407D01*
Y-63416D01*
Y-63444D01*
Y-63499D01*
Y-63564D01*
X102881Y-63647D01*
X102872Y-63749D01*
X102863Y-63869D01*
X102853Y-63999D01*
X102844Y-64138D01*
X102816Y-64286D01*
X102798Y-64452D01*
X102770Y-64619D01*
X102696Y-64979D01*
X102604Y-65368D01*
Y-65377D01*
X102585Y-65423D01*
X102567Y-65479D01*
X102539Y-65562D01*
X102502Y-65673D01*
X102456Y-65793D01*
X102409Y-65932D01*
X102345Y-66089D01*
X102271Y-66256D01*
X102197Y-66441D01*
X102104Y-66626D01*
X102012Y-66829D01*
X101901Y-67033D01*
X101790Y-67246D01*
X101669Y-67458D01*
X101531Y-67671D01*
X100680D01*
Y-67662D01*
X100698Y-67634D01*
X100717Y-67597D01*
X100735Y-67542D01*
X100772Y-67477D01*
X100800Y-67403D01*
X100883Y-67227D01*
X100966Y-67033D01*
X101050Y-66829D01*
X101124Y-66635D01*
X101188Y-66469D01*
Y-66459D01*
X101198Y-66450D01*
X101216Y-66395D01*
X101244Y-66311D01*
X101281Y-66200D01*
X101318Y-66062D01*
X101364Y-65895D01*
X101410Y-65719D01*
X101457Y-65525D01*
Y-65516D01*
X101466Y-65497D01*
Y-65470D01*
X101475Y-65433D01*
X101503Y-65331D01*
X101531Y-65192D01*
X101558Y-65035D01*
X101595Y-64859D01*
X101651Y-64498D01*
Y-64489D01*
Y-64480D01*
X101660Y-64452D01*
Y-64415D01*
X101669Y-64313D01*
X101688Y-64193D01*
X101697Y-64036D01*
X101706Y-63869D01*
X101716Y-63684D01*
Y-63499D01*
Y-63490D01*
Y-63453D01*
Y-63398D01*
Y-63324D01*
X101706Y-63231D01*
Y-63120D01*
X101697Y-63000D01*
X101688Y-62861D01*
X101679Y-62713D01*
X101660Y-62556D01*
X101614Y-62223D01*
X101558Y-61881D01*
X101484Y-61529D01*
Y-61520D01*
X101475Y-61483D01*
X101457Y-61437D01*
X101438Y-61363D01*
X101420Y-61270D01*
X101383Y-61168D01*
X101346Y-61039D01*
X101299Y-60900D01*
X101244Y-60743D01*
X101188Y-60567D01*
X101124Y-60382D01*
X101050Y-60188D01*
X100966Y-59975D01*
X100874Y-59753D01*
X100781Y-59513D01*
X100670Y-59272D01*
X101503D01*
X101512Y-59281D01*
D02*
G37*
G36*
X47409Y-59291D02*
X47390Y-59328D01*
X47363Y-59402D01*
X47326Y-59494D01*
X47270Y-59605D01*
X47215Y-59744D01*
X47159Y-59892D01*
X47094Y-60049D01*
X47020Y-60225D01*
X46956Y-60410D01*
X46817Y-60789D01*
X46697Y-61168D01*
X46641Y-61353D01*
X46595Y-61529D01*
Y-61538D01*
X46586Y-61566D01*
X46576Y-61622D01*
X46558Y-61686D01*
X46539Y-61779D01*
X46521Y-61881D01*
X46502Y-61992D01*
X46484Y-62121D01*
X46465Y-62260D01*
X46447Y-62417D01*
X46428Y-62574D01*
X46410Y-62750D01*
X46382Y-63111D01*
X46373Y-63499D01*
Y-63509D01*
Y-63527D01*
Y-63573D01*
Y-63620D01*
Y-63684D01*
X46382Y-63768D01*
Y-63851D01*
X46391Y-63953D01*
X46401Y-64175D01*
X46428Y-64424D01*
X46456Y-64693D01*
X46502Y-64970D01*
Y-64979D01*
X46512Y-65007D01*
Y-65044D01*
X46530Y-65100D01*
X46539Y-65164D01*
X46558Y-65238D01*
X46576Y-65331D01*
X46595Y-65423D01*
X46650Y-65645D01*
X46706Y-65886D01*
X46780Y-66136D01*
X46863Y-66385D01*
Y-66395D01*
X46872Y-66404D01*
X46882Y-66432D01*
X46891Y-66469D01*
X46909Y-66515D01*
X46937Y-66570D01*
X46956Y-66635D01*
X46993Y-66709D01*
X47030Y-66802D01*
X47067Y-66894D01*
X47113Y-66996D01*
X47159Y-67116D01*
X47215Y-67236D01*
X47270Y-67375D01*
X47335Y-67514D01*
X47409Y-67671D01*
X46567D01*
X46558Y-67662D01*
X46539Y-67625D01*
X46502Y-67569D01*
X46456Y-67495D01*
X46401Y-67403D01*
X46336Y-67292D01*
X46262Y-67162D01*
X46188Y-67024D01*
X46105Y-66876D01*
X46021Y-66709D01*
X45938Y-66533D01*
X45846Y-66358D01*
X45688Y-65969D01*
X45540Y-65571D01*
Y-65562D01*
X45522Y-65525D01*
X45513Y-65460D01*
X45485Y-65386D01*
X45457Y-65285D01*
X45429Y-65174D01*
X45402Y-65044D01*
X45374Y-64905D01*
X45337Y-64748D01*
X45309Y-64582D01*
X45254Y-64230D01*
X45217Y-63851D01*
X45198Y-63472D01*
Y-63453D01*
Y-63416D01*
Y-63351D01*
X45207Y-63259D01*
Y-63148D01*
X45217Y-63009D01*
X45235Y-62861D01*
X45254Y-62695D01*
X45272Y-62519D01*
X45300Y-62334D01*
X45374Y-61927D01*
X45485Y-61511D01*
X45550Y-61298D01*
X45624Y-61085D01*
Y-61076D01*
X45642Y-61039D01*
X45661Y-60993D01*
X45688Y-60919D01*
X45725Y-60835D01*
X45772Y-60734D01*
X45827Y-60613D01*
X45883Y-60493D01*
X45947Y-60354D01*
X46021Y-60216D01*
X46179Y-59910D01*
X46373Y-59587D01*
X46576Y-59272D01*
X47418D01*
X47409Y-59291D01*
D02*
G37*
%LPC*%
G36*
X103041Y75249D02*
X102534Y75148D01*
X102104Y74860D01*
X101817Y74430D01*
X101716Y73923D01*
X101817Y73416D01*
X102104Y72986D01*
X102534Y72698D01*
X103041Y72598D01*
X103549Y72698D01*
X103979Y72986D01*
X104266Y73416D01*
X104367Y73923D01*
X104266Y74430D01*
X103979Y74860D01*
X103549Y75148D01*
X103041Y75249D01*
D02*
G37*
G36*
X63593Y77841D02*
X60991D01*
X60990Y77840D01*
X60990Y77839D01*
Y69766D01*
X60990Y69765D01*
X60991Y69764D01*
X63593D01*
X63594Y69765D01*
X63594Y69766D01*
Y77839D01*
X63594Y77840D01*
X63593Y77841D01*
D02*
G37*
G36*
X59656D02*
X57054D01*
X57053Y77840D01*
X57053Y77839D01*
Y69766D01*
X57053Y69765D01*
X57054Y69764D01*
X59656D01*
X59657Y69765D01*
X59657Y69766D01*
Y77839D01*
X59657Y77840D01*
X59656Y77841D01*
D02*
G37*
G36*
X51782D02*
X49180D01*
X49179Y77840D01*
X49179Y77839D01*
Y69766D01*
X49179Y69765D01*
X49180Y69764D01*
X51782D01*
X51783Y69765D01*
X51783Y69766D01*
Y77839D01*
X51783Y77840D01*
X51782Y77841D01*
D02*
G37*
G36*
X47845D02*
X45243D01*
X45242Y77840D01*
X45242Y77839D01*
Y69766D01*
X45242Y69765D01*
X45243Y69764D01*
X47845D01*
X47846Y69765D01*
X47846Y69766D01*
Y77839D01*
X47846Y77840D01*
X47845Y77841D01*
D02*
G37*
G36*
X39971D02*
X37369D01*
X37368Y77840D01*
X37368Y77839D01*
Y69766D01*
X37368Y69765D01*
X37369Y69764D01*
X39971D01*
X39972Y69765D01*
X39972Y69766D01*
Y77839D01*
X39972Y77840D01*
X39971Y77841D01*
D02*
G37*
G36*
X36034D02*
X33432D01*
X33431Y77840D01*
X33431Y77839D01*
Y69766D01*
X33431Y69765D01*
X33432Y69764D01*
X36034D01*
X36035Y69765D01*
X36035Y69766D01*
Y77839D01*
X36035Y77840D01*
X36034Y77841D01*
D02*
G37*
G36*
X98677Y71794D02*
X98170Y71693D01*
X97740Y71406D01*
X97453Y70976D01*
X97352Y70468D01*
X97453Y69961D01*
X97740Y69531D01*
X98170Y69244D01*
X98273Y69223D01*
Y68714D01*
X98170Y68693D01*
X97740Y68406D01*
X97453Y67976D01*
X97352Y67469D01*
X97453Y66961D01*
X97740Y66531D01*
X98170Y66244D01*
X98677Y66143D01*
X99184Y66244D01*
X99614Y66531D01*
X99902Y66961D01*
X100003Y67469D01*
X99902Y67976D01*
X99614Y68406D01*
X99184Y68693D01*
X99081Y68714D01*
Y69223D01*
X99184Y69244D01*
X99614Y69531D01*
X99902Y69961D01*
X100003Y70468D01*
X99902Y70976D01*
X99614Y71406D01*
X99184Y71693D01*
X98677Y71794D01*
D02*
G37*
G36*
X29977Y60001D02*
X29977Y60001D01*
X29977Y60001D01*
X29802Y59993D01*
X29802Y59993D01*
X29802Y59993D01*
X29629Y59971D01*
X29629Y59971D01*
X29629Y59971D01*
X29459Y59934D01*
X29459Y59934D01*
X29459D01*
X29293Y59881D01*
X29293Y59881D01*
X29293D01*
X29131Y59815D01*
X29131Y59815D01*
X29131Y59814D01*
X28977Y59733D01*
X28977Y59733D01*
X28977Y59733D01*
X28829Y59639D01*
X28829Y59639D01*
X28828Y59639D01*
X28690Y59533D01*
X28690Y59533D01*
X28690Y59533D01*
X28561Y59415D01*
X28561Y59415D01*
X28561Y59415D01*
X28444Y59285D01*
X28444Y59285D01*
X28444Y59285D01*
X28337Y59148D01*
X28337Y59148D01*
X28337Y59148D01*
X28244Y59000D01*
X28244Y59000D01*
X28244Y59000D01*
X28163Y58845D01*
Y58845D01*
X28163Y58845D01*
X28096Y58684D01*
Y58684D01*
X28096Y58684D01*
X28044Y58518D01*
Y58518D01*
X28044Y58518D01*
X28006Y58348D01*
X28006Y58348D01*
X28006Y58348D01*
X27983Y58175D01*
X27983Y58175D01*
X27983Y58175D01*
X27976Y57999D01*
X27976Y57999D01*
X27976Y57999D01*
Y54194D01*
X27976Y54194D01*
X27976Y54194D01*
X27983Y54019D01*
X27983Y54019D01*
X27983Y54019D01*
X28006Y53847D01*
X28006Y53847D01*
X28006Y53847D01*
X28044Y53676D01*
X28044Y53676D01*
X28044Y53676D01*
X28096Y53510D01*
X28096Y53510D01*
Y53510D01*
X28163Y53349D01*
X28163Y53349D01*
Y53349D01*
X28244Y53194D01*
X28244Y53194D01*
X28244Y53194D01*
X28337Y53048D01*
X28337Y53048D01*
X28337Y53048D01*
X28444Y52908D01*
X28444Y52908D01*
X28444Y52908D01*
X28561Y52781D01*
X28561Y52781D01*
X28561Y52781D01*
X28690Y52663D01*
X28690Y52663D01*
X28690Y52663D01*
X28828Y52556D01*
X28829Y52556D01*
X28829Y52556D01*
X28977Y52463D01*
X28977Y52463D01*
X28977Y52463D01*
X29131Y52381D01*
X29131D01*
X29131Y52381D01*
X29293Y52315D01*
X29293D01*
X29293Y52315D01*
X29459Y52263D01*
X29459D01*
X29459Y52263D01*
X29629Y52223D01*
X29629Y52223D01*
X29629Y52223D01*
X29802Y52200D01*
X29802Y52200D01*
X29802Y52200D01*
X29977Y52193D01*
X29977Y52193D01*
X29977Y52193D01*
X30151Y52200D01*
X30151Y52200D01*
X30151Y52200D01*
X30324Y52223D01*
X30324Y52223D01*
X30324Y52223D01*
X30494Y52263D01*
X30494Y52263D01*
X30494D01*
X30661Y52315D01*
X30662Y52315D01*
X30662D01*
X30823Y52381D01*
X30823Y52381D01*
X30823D01*
X30978Y52463D01*
X30978Y52463D01*
X30978Y52463D01*
X31125Y52556D01*
X31125Y52556D01*
X31125Y52556D01*
X31263Y52663D01*
X31263Y52663D01*
X31263Y52663D01*
X31392Y52781D01*
X31392Y52781D01*
X31392Y52781D01*
X31510Y52908D01*
X31510Y52908D01*
X31510Y52908D01*
X31616Y53048D01*
X31616Y53048D01*
X31616Y53048D01*
X31710Y53194D01*
X31710Y53194D01*
X31710Y53194D01*
X31790Y53349D01*
Y53349D01*
X31790Y53349D01*
X31857Y53510D01*
Y53510D01*
X31857Y53510D01*
X31909Y53676D01*
X31909Y53676D01*
X31909Y53676D01*
X31947Y53847D01*
X31947Y53847D01*
X31947Y53847D01*
X31970Y54019D01*
X31970Y54019D01*
X31970Y54019D01*
X31978Y54194D01*
X31978Y54194D01*
X31978Y54194D01*
Y57999D01*
X31978Y57999D01*
X31978Y57999D01*
X31970Y58175D01*
X31970Y58175D01*
X31970Y58175D01*
X31947Y58348D01*
X31947Y58348D01*
X31947Y58348D01*
X31909Y58518D01*
X31909Y58518D01*
X31909Y58518D01*
X31857Y58684D01*
X31857Y58684D01*
Y58684D01*
X31790Y58845D01*
X31790Y58845D01*
Y58845D01*
X31710Y59000D01*
X31710Y59000D01*
X31710Y59000D01*
X31616Y59148D01*
X31616Y59148D01*
X31616Y59148D01*
X31510Y59285D01*
X31510Y59285D01*
X31510Y59285D01*
X31392Y59415D01*
X31392Y59415D01*
X31392Y59415D01*
X31263Y59533D01*
X31263Y59533D01*
X31263Y59533D01*
X31125Y59639D01*
X31125Y59639D01*
X31125Y59639D01*
X30978Y59733D01*
X30978Y59733D01*
X30978Y59733D01*
X30823Y59815D01*
X30823D01*
X30823Y59815D01*
X30662Y59881D01*
X30662D01*
X30661Y59881D01*
X30494Y59934D01*
X30494D01*
X30494Y59934D01*
X30324Y59971D01*
X30324Y59971D01*
X30324Y59971D01*
X30151Y59993D01*
X30151Y59993D01*
X30151Y59993D01*
X29977Y60001D01*
D02*
G37*
G36*
X83085Y54856D02*
X83085Y54856D01*
X83085Y54856D01*
X82911Y54849D01*
X82911Y54849D01*
X82911Y54849D01*
X82738Y54827D01*
X82738Y54826D01*
X82738Y54826D01*
X82568Y54787D01*
X82568Y54787D01*
X82568D01*
X82401Y54737D01*
X82401Y54737D01*
X82401D01*
X82240Y54669D01*
X82240Y54669D01*
X82240Y54669D01*
X82085Y54588D01*
X82085Y54587D01*
X82085Y54587D01*
X81938Y54495D01*
X81938Y54495D01*
X81937Y54495D01*
X81800Y54387D01*
X81800Y54387D01*
X81800Y54387D01*
X81670Y54270D01*
X81670Y54270D01*
X81670Y54270D01*
X81552Y54142D01*
X81552Y54142D01*
X81552Y54142D01*
X81446Y54003D01*
X81446Y54003D01*
X81446Y54003D01*
X81352Y53855D01*
X81352Y53855D01*
X81352Y53855D01*
X81272Y53702D01*
Y53702D01*
X81272Y53702D01*
X81205Y53539D01*
Y53539D01*
X81205Y53539D01*
X81153Y53373D01*
Y53373D01*
X81153Y53373D01*
X81115Y53203D01*
X81115Y53203D01*
X81115Y53203D01*
X81092Y53030D01*
X81092Y53030D01*
X81092Y53030D01*
X81084Y52855D01*
X81084Y52855D01*
X81084Y52855D01*
Y49051D01*
X81084Y49051D01*
X81084Y49051D01*
X81092Y48876D01*
X81092Y48876D01*
X81092Y48876D01*
X81115Y48702D01*
X81115Y48702D01*
X81115Y48702D01*
X81153Y48532D01*
X81153Y48532D01*
X81153Y48532D01*
X81205Y48366D01*
X81205Y48366D01*
Y48366D01*
X81272Y48204D01*
X81272Y48204D01*
Y48204D01*
X81352Y48050D01*
X81352Y48050D01*
X81352Y48050D01*
X81446Y47902D01*
X81446Y47902D01*
X81446Y47902D01*
X81552Y47764D01*
X81552Y47764D01*
X81552Y47764D01*
X81670Y47636D01*
X81670Y47636D01*
X81670Y47636D01*
X81800Y47518D01*
X81800Y47518D01*
X81800Y47518D01*
X81937Y47411D01*
X81938Y47411D01*
X81938Y47411D01*
X82085Y47318D01*
X82085Y47318D01*
X82085Y47317D01*
X82240Y47236D01*
X82240Y47236D01*
X82240Y47236D01*
X82401Y47170D01*
X82401D01*
X82401Y47170D01*
X82568Y47117D01*
X82568D01*
X82568Y47117D01*
X82738Y47078D01*
X82738Y47078D01*
X82738Y47078D01*
X82911Y47057D01*
X82911Y47057D01*
X82911Y47057D01*
X83085Y47049D01*
X83085Y47049D01*
X83085Y47049D01*
X83260Y47057D01*
X83260Y47057D01*
X83260Y47057D01*
X83433Y47078D01*
X83433Y47078D01*
X83433Y47078D01*
X83603Y47117D01*
X83604Y47117D01*
X83604Y47117D01*
X83770Y47170D01*
X83770Y47170D01*
X83770D01*
X83932Y47236D01*
X83932Y47236D01*
X83932Y47236D01*
X84086Y47317D01*
X84086Y47318D01*
X84086Y47318D01*
X84234Y47411D01*
X84234Y47411D01*
X84234Y47411D01*
X84372Y47518D01*
X84372Y47518D01*
X84372Y47518D01*
X84501Y47636D01*
X84501Y47636D01*
X84501Y47636D01*
X84618Y47764D01*
X84618Y47764D01*
X84618Y47764D01*
X84725Y47902D01*
X84725Y47902D01*
X84725Y47902D01*
X84818Y48050D01*
X84818Y48050D01*
X84818Y48050D01*
X84899Y48204D01*
Y48204D01*
X84899Y48204D01*
X84966Y48366D01*
Y48366D01*
X84966Y48366D01*
X85018Y48532D01*
Y48532D01*
X85018Y48532D01*
X85056Y48702D01*
X85056Y48702D01*
X85056Y48702D01*
X85079Y48876D01*
X85079Y48876D01*
X85079Y48877D01*
X85086Y49051D01*
X85086Y49051D01*
X85086Y49051D01*
Y52855D01*
X85086Y52855D01*
X85086Y52855D01*
X85079Y53030D01*
X85079Y53030D01*
X85079Y53030D01*
X85056Y53203D01*
X85056Y53203D01*
X85056Y53203D01*
X85018Y53373D01*
X85018Y53373D01*
X85018Y53373D01*
X84966Y53539D01*
X84966Y53539D01*
Y53539D01*
X84899Y53702D01*
X84899Y53702D01*
Y53702D01*
X84818Y53855D01*
X84818Y53855D01*
X84818Y53855D01*
X84725Y54003D01*
X84725Y54003D01*
X84725Y54003D01*
X84618Y54142D01*
X84618Y54142D01*
X84618Y54142D01*
X84501Y54270D01*
X84501Y54270D01*
X84501Y54270D01*
X84372Y54387D01*
X84372Y54387D01*
X84372Y54387D01*
X84234Y54495D01*
X84234Y54495D01*
X84234Y54495D01*
X84086Y54587D01*
X84086Y54587D01*
X84086Y54588D01*
X83932Y54669D01*
X83932Y54669D01*
X83932Y54669D01*
X83770Y54737D01*
X83770D01*
X83770Y54737D01*
X83604Y54787D01*
X83604D01*
X83603Y54787D01*
X83433Y54826D01*
X83433Y54826D01*
X83433Y54827D01*
X83260Y54849D01*
X83260Y54849D01*
X83260Y54849D01*
X83085Y54856D01*
D02*
G37*
G36*
X40385Y49520D02*
X40385Y49520D01*
X40385Y49520D01*
X40210Y49512D01*
X40210Y49512D01*
X40210Y49512D01*
X40037Y49490D01*
X40037Y49490D01*
X40037Y49490D01*
X39867Y49453D01*
X39867Y49452D01*
X39867D01*
X39701Y49400D01*
X39701Y49400D01*
X39701D01*
X39539Y49334D01*
X39539Y49334D01*
X39539Y49333D01*
X39385Y49253D01*
X39385Y49252D01*
X39385Y49252D01*
X39237Y49158D01*
X39237Y49158D01*
X39237Y49158D01*
X39099Y49052D01*
X39099Y49052D01*
X39099Y49052D01*
X38969Y48934D01*
X38969Y48934D01*
X38969Y48934D01*
X38852Y48804D01*
X38852Y48804D01*
X38852Y48804D01*
X38745Y48667D01*
X38745Y48667D01*
X38745Y48667D01*
X38652Y48519D01*
X38652Y48519D01*
X38652Y48519D01*
X38571Y48364D01*
Y48364D01*
X38571Y48364D01*
X38504Y48203D01*
Y48203D01*
X38504Y48203D01*
X38452Y48037D01*
Y48037D01*
X38452Y48037D01*
X38414Y47867D01*
X38414Y47867D01*
X38414Y47867D01*
X38391Y47694D01*
X38391Y47694D01*
X38391Y47693D01*
X38384Y47519D01*
X38384Y47519D01*
X38384Y47519D01*
Y43714D01*
X38384Y43714D01*
X38384Y43714D01*
X38391Y43538D01*
X38391Y43538D01*
X38391Y43538D01*
X38414Y43366D01*
X38414Y43366D01*
X38414Y43366D01*
X38452Y43195D01*
X38452Y43195D01*
X38452Y43195D01*
X38504Y43029D01*
X38504Y43029D01*
Y43029D01*
X38571Y42868D01*
X38571Y42868D01*
Y42868D01*
X38652Y42713D01*
X38652Y42713D01*
X38652Y42713D01*
X38745Y42567D01*
X38745Y42567D01*
X38745Y42567D01*
X38852Y42427D01*
X38852Y42427D01*
X38852Y42427D01*
X38969Y42300D01*
X38969Y42300D01*
X38969Y42300D01*
X39099Y42182D01*
X39099Y42182D01*
X39099Y42182D01*
X39237Y42075D01*
X39237Y42075D01*
X39237Y42075D01*
X39385Y41982D01*
X39385Y41982D01*
X39385Y41982D01*
X39539Y41901D01*
X39539D01*
X39539Y41901D01*
X39701Y41833D01*
X39701D01*
X39701Y41833D01*
X39867Y41781D01*
X39867D01*
X39867Y41781D01*
X40037Y41743D01*
X40037Y41743D01*
X40037Y41742D01*
X40210Y41719D01*
X40210Y41719D01*
X40210Y41719D01*
X40385Y41712D01*
X40385Y41712D01*
X40385Y41712D01*
X40559Y41719D01*
X40559Y41719D01*
X40559Y41719D01*
X40732Y41742D01*
X40732Y41743D01*
X40732Y41743D01*
X40902Y41781D01*
X40903Y41781D01*
X40903D01*
X41069Y41833D01*
X41070Y41833D01*
X41070D01*
X41231Y41901D01*
X41231Y41901D01*
X41231D01*
X41386Y41982D01*
X41386Y41982D01*
X41386Y41982D01*
X41533Y42075D01*
X41533Y42075D01*
X41533Y42075D01*
X41671Y42182D01*
X41671Y42182D01*
X41671Y42182D01*
X41800Y42300D01*
X41800Y42300D01*
X41800Y42300D01*
X41918Y42427D01*
X41918Y42427D01*
X41918Y42427D01*
X42024Y42567D01*
X42024Y42567D01*
X42024Y42567D01*
X42118Y42713D01*
X42118Y42713D01*
X42118Y42713D01*
X42198Y42868D01*
Y42868D01*
X42198Y42868D01*
X42265Y43029D01*
Y43029D01*
X42265Y43029D01*
X42317Y43195D01*
X42317Y43195D01*
X42317Y43195D01*
X42355Y43366D01*
X42355Y43366D01*
X42355Y43366D01*
X42378Y43538D01*
X42378Y43538D01*
X42378Y43538D01*
X42386Y43714D01*
X42386Y43714D01*
X42386Y43714D01*
Y47519D01*
X42386Y47519D01*
X42386Y47519D01*
X42378Y47693D01*
X42378Y47694D01*
X42378Y47694D01*
X42355Y47867D01*
X42355Y47867D01*
X42355Y47867D01*
X42317Y48037D01*
X42317Y48037D01*
X42317Y48037D01*
X42265Y48203D01*
X42265Y48203D01*
Y48203D01*
X42198Y48364D01*
X42198Y48364D01*
Y48364D01*
X42118Y48519D01*
X42118Y48519D01*
X42118Y48519D01*
X42024Y48667D01*
X42024Y48667D01*
X42024Y48667D01*
X41918Y48804D01*
X41918Y48804D01*
X41918Y48804D01*
X41800Y48934D01*
X41800Y48934D01*
X41800Y48934D01*
X41671Y49052D01*
X41671Y49052D01*
X41671Y49052D01*
X41533Y49158D01*
X41533Y49158D01*
X41533Y49158D01*
X41386Y49252D01*
X41386Y49252D01*
X41386Y49253D01*
X41231Y49334D01*
X41231D01*
X41231Y49334D01*
X41070Y49400D01*
X41070D01*
X41069Y49400D01*
X40903Y49452D01*
X40903D01*
X40902Y49453D01*
X40732Y49490D01*
X40732Y49490D01*
X40732Y49490D01*
X40559Y49512D01*
X40559Y49512D01*
X40559Y49512D01*
X40385Y49520D01*
D02*
G37*
G36*
X71485Y49356D02*
X71485Y49356D01*
X71485Y49356D01*
X71311Y49349D01*
X71311Y49349D01*
X71311Y49349D01*
X71138Y49327D01*
X71138Y49327D01*
X71138Y49327D01*
X70968Y49288D01*
X70968Y49288D01*
X70968D01*
X70801Y49237D01*
X70801Y49237D01*
X70801D01*
X70640Y49169D01*
X70640Y49169D01*
X70640Y49169D01*
X70485Y49088D01*
X70485Y49087D01*
X70485Y49087D01*
X70338Y48995D01*
X70338Y48995D01*
X70337Y48995D01*
X70200Y48887D01*
X70200Y48887D01*
X70200Y48887D01*
X70070Y48770D01*
X70070Y48770D01*
X70070Y48770D01*
X69952Y48642D01*
X69952Y48642D01*
X69952Y48642D01*
X69846Y48503D01*
X69846Y48503D01*
X69846Y48503D01*
X69752Y48355D01*
X69752Y48355D01*
X69752Y48355D01*
X69672Y48202D01*
Y48202D01*
X69672Y48202D01*
X69605Y48039D01*
Y48039D01*
X69605Y48039D01*
X69553Y47873D01*
Y47873D01*
X69553Y47873D01*
X69515Y47703D01*
X69515Y47703D01*
X69515Y47703D01*
X69492Y47530D01*
X69492Y47530D01*
X69492Y47530D01*
X69484Y47355D01*
X69484Y47355D01*
X69484Y47355D01*
Y43551D01*
X69484Y43551D01*
X69484Y43551D01*
X69492Y43376D01*
X69492Y43376D01*
X69492Y43376D01*
X69515Y43202D01*
X69515Y43202D01*
X69515Y43202D01*
X69553Y43032D01*
X69553Y43032D01*
X69553Y43032D01*
X69605Y42866D01*
X69605Y42866D01*
Y42866D01*
X69672Y42704D01*
X69672Y42704D01*
Y42704D01*
X69752Y42550D01*
X69752Y42550D01*
X69752Y42550D01*
X69846Y42402D01*
X69846Y42402D01*
X69846Y42402D01*
X69952Y42264D01*
X69952Y42264D01*
X69952Y42264D01*
X70070Y42136D01*
X70070Y42136D01*
X70070Y42136D01*
X70200Y42018D01*
X70200Y42018D01*
X70200Y42018D01*
X70337Y41911D01*
X70338Y41911D01*
X70338Y41911D01*
X70485Y41818D01*
X70485Y41818D01*
X70485Y41818D01*
X70640Y41736D01*
X70640Y41736D01*
X70640Y41736D01*
X70801Y41669D01*
X70801D01*
X70801Y41669D01*
X70968Y41618D01*
X70968D01*
X70968Y41618D01*
X71138Y41578D01*
X71138Y41579D01*
X71138Y41578D01*
X71311Y41557D01*
X71311Y41557D01*
X71311Y41557D01*
X71485Y41549D01*
X71485Y41549D01*
X71485Y41549D01*
X71660Y41557D01*
X71660Y41557D01*
X71660Y41557D01*
X71833Y41578D01*
X71833Y41579D01*
X71833Y41578D01*
X72003Y41618D01*
X72004Y41618D01*
X72004Y41618D01*
X72170Y41669D01*
X72170Y41669D01*
X72170D01*
X72332Y41736D01*
X72332Y41736D01*
X72332Y41736D01*
X72486Y41818D01*
X72486Y41818D01*
X72486Y41818D01*
X72634Y41911D01*
X72634Y41911D01*
X72634Y41911D01*
X72772Y42018D01*
X72772Y42018D01*
X72772Y42018D01*
X72901Y42136D01*
X72901Y42136D01*
X72901Y42136D01*
X73018Y42264D01*
X73018Y42264D01*
X73018Y42264D01*
X73125Y42402D01*
X73125Y42402D01*
X73125Y42402D01*
X73218Y42550D01*
X73218Y42550D01*
X73218Y42550D01*
X73299Y42704D01*
Y42704D01*
X73299Y42704D01*
X73366Y42866D01*
Y42866D01*
X73366Y42866D01*
X73418Y43032D01*
Y43032D01*
X73418Y43032D01*
X73456Y43202D01*
X73456Y43202D01*
X73456Y43202D01*
X73479Y43376D01*
X73479Y43376D01*
X73479Y43376D01*
X73486Y43551D01*
X73486Y43551D01*
X73486Y43551D01*
Y47355D01*
X73486Y47355D01*
X73486Y47355D01*
X73479Y47530D01*
X73479Y47530D01*
X73479Y47530D01*
X73456Y47703D01*
X73456Y47703D01*
X73456Y47703D01*
X73418Y47873D01*
X73418Y47873D01*
X73418Y47873D01*
X73366Y48039D01*
X73366Y48039D01*
Y48039D01*
X73299Y48202D01*
X73299Y48202D01*
Y48202D01*
X73218Y48355D01*
X73218Y48355D01*
X73218Y48355D01*
X73125Y48503D01*
X73125Y48503D01*
X73125Y48503D01*
X73018Y48642D01*
X73018Y48642D01*
X73018Y48642D01*
X72901Y48770D01*
X72901Y48770D01*
X72901Y48770D01*
X72772Y48887D01*
X72772Y48887D01*
X72772Y48887D01*
X72634Y48995D01*
X72634Y48995D01*
X72634Y48995D01*
X72486Y49087D01*
X72486Y49087D01*
X72486Y49088D01*
X72332Y49169D01*
X72332Y49169D01*
X72332Y49169D01*
X72170Y49237D01*
X72170D01*
X72170Y49237D01*
X72004Y49288D01*
X72004D01*
X72003Y49288D01*
X71833Y49327D01*
X71833Y49327D01*
X71833Y49327D01*
X71660Y49349D01*
X71660Y49349D01*
X71660Y49349D01*
X71485Y49356D01*
D02*
G37*
G36*
X95691Y51371D02*
X95184Y51270D01*
X94754Y50982D01*
X94467Y50552D01*
X94366Y50045D01*
X94467Y49538D01*
X94754Y49108D01*
X95184Y48821D01*
X95691Y48720D01*
X96199Y48821D01*
X96629Y49108D01*
X96916Y49538D01*
X97017Y50045D01*
X96916Y50552D01*
X96629Y50982D01*
X96199Y51270D01*
X95691Y51371D01*
D02*
G37*
G36*
X102500Y51326D02*
X101993Y51225D01*
X101563Y50937D01*
X101275Y50507D01*
X101174Y50000D01*
X101275Y49493D01*
X101563Y49063D01*
X101993Y48775D01*
X102500Y48674D01*
X103007Y48775D01*
X103437Y49063D01*
X103725Y49493D01*
X103825Y50000D01*
X103725Y50507D01*
X103437Y50937D01*
X103007Y51225D01*
X102500Y51326D01*
D02*
G37*
G36*
X51383Y42223D02*
X51383Y42223D01*
X51383Y42223D01*
X51208Y42215D01*
X51208Y42215D01*
X51208Y42215D01*
X51035Y42193D01*
X51035Y42193D01*
X51035Y42193D01*
X50865Y42156D01*
X50865Y42156D01*
X50865D01*
X50699Y42103D01*
X50699Y42103D01*
X50699D01*
X50537Y42037D01*
X50537Y42037D01*
X50537Y42037D01*
X50383Y41956D01*
X50383Y41955D01*
X50383Y41955D01*
X50235Y41861D01*
X50235Y41861D01*
X50235Y41861D01*
X50096Y41755D01*
X50096Y41755D01*
X50096Y41755D01*
X49968Y41637D01*
X49967Y41637D01*
X49967Y41637D01*
X49850Y41507D01*
X49850Y41507D01*
X49850Y41507D01*
X49743Y41370D01*
X49743Y41370D01*
X49743Y41370D01*
X49650Y41222D01*
X49650Y41222D01*
X49650Y41222D01*
X49569Y41067D01*
Y41067D01*
X49569Y41067D01*
X49502Y40906D01*
Y40906D01*
X49502Y40906D01*
X49450Y40740D01*
Y40740D01*
X49450Y40740D01*
X49412Y40570D01*
X49412Y40570D01*
X49412Y40570D01*
X49389Y40397D01*
X49389Y40397D01*
X49389Y40396D01*
X49382Y40222D01*
X49382Y40222D01*
X49382Y40222D01*
Y36417D01*
X49382Y36417D01*
X49382Y36417D01*
X49389Y36241D01*
X49389Y36241D01*
X49389Y36241D01*
X49412Y36069D01*
X49412Y36069D01*
X49412Y36069D01*
X49450Y35898D01*
X49450Y35898D01*
X49450Y35898D01*
X49502Y35732D01*
X49502Y35732D01*
Y35732D01*
X49569Y35571D01*
X49569Y35571D01*
Y35571D01*
X49650Y35416D01*
X49650Y35416D01*
X49650Y35416D01*
X49743Y35270D01*
X49743Y35270D01*
X49743Y35270D01*
X49850Y35130D01*
X49850Y35130D01*
X49850Y35130D01*
X49967Y35003D01*
X49968Y35003D01*
X49968Y35003D01*
X50096Y34885D01*
X50096Y34885D01*
X50096Y34885D01*
X50235Y34778D01*
X50235Y34778D01*
X50235Y34778D01*
X50383Y34685D01*
X50383Y34685D01*
X50383Y34685D01*
X50537Y34604D01*
X50537D01*
X50537Y34604D01*
X50699Y34536D01*
X50699D01*
X50699Y34536D01*
X50865Y34484D01*
X50865D01*
X50865Y34484D01*
X51035Y34445D01*
X51035Y34446D01*
X51035Y34445D01*
X51208Y34422D01*
X51208Y34422D01*
X51208Y34422D01*
X51383Y34415D01*
X51383Y34415D01*
X51383Y34415D01*
X51557Y34422D01*
X51557Y34422D01*
X51557Y34422D01*
X51730Y34445D01*
X51730Y34446D01*
X51730Y34445D01*
X51900Y34484D01*
X51901Y34484D01*
X51901D01*
X52068Y34536D01*
X52068Y34536D01*
X52068D01*
X52229Y34604D01*
X52229Y34604D01*
X52229D01*
X52384Y34685D01*
X52384Y34685D01*
X52384Y34685D01*
X52531Y34778D01*
X52531Y34778D01*
X52531Y34778D01*
X52669Y34885D01*
X52669Y34885D01*
X52669Y34885D01*
X52798Y35003D01*
X52798Y35003D01*
X52798Y35003D01*
X52916Y35130D01*
X52916Y35130D01*
X52916Y35130D01*
X53022Y35270D01*
X53022Y35270D01*
X53022Y35270D01*
X53116Y35416D01*
X53116Y35416D01*
X53116Y35416D01*
X53196Y35571D01*
Y35571D01*
X53196Y35571D01*
X53263Y35732D01*
Y35732D01*
X53263Y35732D01*
X53315Y35898D01*
X53315Y35898D01*
X53315Y35898D01*
X53353Y36069D01*
X53353Y36069D01*
X53353Y36069D01*
X53376Y36241D01*
X53376Y36241D01*
X53376Y36241D01*
X53384Y36416D01*
X53384Y36417D01*
X53384Y36417D01*
Y40222D01*
X53384Y40222D01*
X53384Y40222D01*
X53376Y40397D01*
X53376Y40397D01*
X53376Y40397D01*
X53353Y40570D01*
X53353Y40570D01*
X53353Y40570D01*
X53315Y40740D01*
X53315Y40740D01*
X53315Y40740D01*
X53263Y40906D01*
X53263Y40906D01*
Y40906D01*
X53196Y41067D01*
X53196Y41067D01*
Y41067D01*
X53116Y41222D01*
X53116Y41222D01*
X53116Y41222D01*
X53022Y41370D01*
X53022Y41370D01*
X53022Y41370D01*
X52916Y41507D01*
X52916Y41507D01*
X52916Y41507D01*
X52798Y41637D01*
X52798Y41637D01*
X52798Y41637D01*
X52669Y41755D01*
X52669Y41755D01*
X52669Y41755D01*
X52531Y41861D01*
X52531Y41861D01*
X52531Y41861D01*
X52384Y41955D01*
X52384Y41955D01*
X52384Y41956D01*
X52229Y42037D01*
X52229D01*
X52229Y42037D01*
X52068Y42103D01*
X52068D01*
X52068Y42103D01*
X51901Y42156D01*
X51901D01*
X51900Y42156D01*
X51730Y42193D01*
X51730Y42193D01*
X51730Y42193D01*
X51557Y42215D01*
X51557Y42215D01*
X51557Y42215D01*
X51383Y42223D01*
D02*
G37*
G36*
X117174Y42708D02*
X116667Y42608D01*
X116237Y42320D01*
X115949Y41890D01*
X115848Y41383D01*
X115949Y40876D01*
X116237Y40446D01*
X116667Y40158D01*
X117174Y40058D01*
X117681Y40158D01*
X118111Y40446D01*
X118398Y40876D01*
X118499Y41383D01*
X118398Y41890D01*
X118111Y42320D01*
X117681Y42608D01*
X117174Y42708D01*
D02*
G37*
G36*
X110182Y42558D02*
X109675Y42458D01*
X109245Y42170D01*
X108958Y41740D01*
X108857Y41233D01*
X108958Y40726D01*
X109245Y40296D01*
X109675Y40008D01*
X110182Y39908D01*
X110690Y40008D01*
X111120Y40296D01*
X111407Y40726D01*
X111508Y41233D01*
X111407Y41740D01*
X111120Y42170D01*
X110690Y42458D01*
X110182Y42558D01*
D02*
G37*
G36*
X95677Y38994D02*
X95170Y38893D01*
X94740Y38606D01*
X94453Y38176D01*
X94352Y37668D01*
X94453Y37161D01*
X94740Y36731D01*
X95170Y36444D01*
X95677Y36343D01*
X96184Y36444D01*
X96614Y36731D01*
X96902Y37161D01*
X97003Y37668D01*
X96902Y38176D01*
X96614Y38606D01*
X96184Y38893D01*
X95677Y38994D01*
D02*
G37*
G36*
X76985Y30856D02*
X76985Y30856D01*
X76985Y30856D01*
X76811Y30849D01*
X76811Y30849D01*
X76811Y30849D01*
X76638Y30827D01*
X76638Y30827D01*
X76638Y30827D01*
X76468Y30788D01*
X76468Y30788D01*
X76468D01*
X76301Y30737D01*
X76301Y30737D01*
X76301D01*
X76140Y30670D01*
X76140Y30670D01*
X76140Y30670D01*
X75985Y30588D01*
X75985Y30587D01*
X75985Y30587D01*
X75838Y30495D01*
X75838Y30495D01*
X75837Y30495D01*
X75700Y30387D01*
X75700Y30387D01*
X75700Y30387D01*
X75570Y30270D01*
X75570Y30270D01*
X75570Y30270D01*
X75452Y30142D01*
X75452Y30142D01*
X75452Y30142D01*
X75346Y30003D01*
X75346Y30003D01*
X75346Y30003D01*
X75252Y29855D01*
X75252Y29855D01*
X75252Y29855D01*
X75172Y29702D01*
Y29702D01*
X75172Y29702D01*
X75105Y29539D01*
Y29539D01*
X75105Y29539D01*
X75053Y29373D01*
Y29373D01*
X75053Y29373D01*
X75015Y29203D01*
X75015Y29203D01*
X75015Y29203D01*
X74992Y29030D01*
X74992Y29030D01*
X74992Y29030D01*
X74984Y28855D01*
X74984Y28855D01*
X74984Y28855D01*
Y25051D01*
X74984Y25051D01*
X74984Y25051D01*
X74992Y24876D01*
X74992Y24876D01*
X74992Y24876D01*
X75015Y24702D01*
X75015Y24702D01*
X75015Y24702D01*
X75053Y24532D01*
X75053Y24532D01*
X75053Y24532D01*
X75105Y24366D01*
X75105Y24366D01*
Y24366D01*
X75172Y24204D01*
X75172Y24204D01*
Y24204D01*
X75252Y24050D01*
X75252Y24050D01*
X75252Y24050D01*
X75346Y23902D01*
X75346Y23902D01*
X75346Y23902D01*
X75452Y23764D01*
X75452Y23764D01*
X75452Y23764D01*
X75570Y23636D01*
X75570Y23636D01*
X75570Y23636D01*
X75700Y23518D01*
X75700Y23518D01*
X75700Y23518D01*
X75837Y23411D01*
X75838Y23411D01*
X75838Y23411D01*
X75985Y23318D01*
X75985Y23318D01*
X75985Y23317D01*
X76140Y23236D01*
X76140Y23235D01*
X76140Y23235D01*
X76301Y23169D01*
X76301D01*
X76301Y23169D01*
X76468Y23118D01*
X76468D01*
X76468Y23117D01*
X76638Y23078D01*
X76638Y23078D01*
X76638Y23078D01*
X76811Y23057D01*
X76811Y23057D01*
X76811Y23057D01*
X76985Y23049D01*
X76985Y23049D01*
X76985Y23049D01*
X77160Y23057D01*
X77160Y23057D01*
X77160Y23057D01*
X77333Y23078D01*
X77333Y23078D01*
X77333Y23078D01*
X77503Y23117D01*
X77504Y23118D01*
X77504Y23118D01*
X77670Y23169D01*
X77670Y23169D01*
X77670D01*
X77832Y23235D01*
X77832Y23235D01*
X77832Y23236D01*
X77986Y23317D01*
X77986Y23318D01*
X77986Y23318D01*
X78134Y23411D01*
X78134Y23411D01*
X78134Y23411D01*
X78272Y23518D01*
X78272Y23518D01*
X78272Y23518D01*
X78401Y23636D01*
X78401Y23636D01*
X78401Y23636D01*
X78518Y23764D01*
X78518Y23764D01*
X78518Y23764D01*
X78625Y23902D01*
X78625Y23902D01*
X78625Y23902D01*
X78718Y24050D01*
X78718Y24050D01*
X78718Y24050D01*
X78799Y24204D01*
Y24204D01*
X78799Y24204D01*
X78866Y24366D01*
Y24366D01*
X78866Y24366D01*
X78918Y24532D01*
Y24532D01*
X78918Y24532D01*
X78956Y24702D01*
X78956Y24702D01*
X78956Y24702D01*
X78979Y24876D01*
X78979Y24876D01*
X78979Y24877D01*
X78986Y25051D01*
X78986Y25051D01*
X78986Y25051D01*
Y28855D01*
X78986Y28855D01*
X78986Y28855D01*
X78979Y29030D01*
X78979Y29030D01*
X78979Y29030D01*
X78956Y29203D01*
X78956Y29203D01*
X78956Y29203D01*
X78918Y29373D01*
X78918Y29373D01*
X78918Y29373D01*
X78866Y29539D01*
X78866Y29539D01*
Y29539D01*
X78799Y29702D01*
X78799Y29702D01*
Y29702D01*
X78718Y29855D01*
X78718Y29855D01*
X78718Y29855D01*
X78625Y30003D01*
X78625Y30003D01*
X78625Y30003D01*
X78518Y30142D01*
X78518Y30142D01*
X78518Y30142D01*
X78401Y30270D01*
X78401Y30270D01*
X78401Y30270D01*
X78272Y30387D01*
X78272Y30387D01*
X78272Y30387D01*
X78134Y30495D01*
X78134Y30495D01*
X78134Y30495D01*
X77986Y30587D01*
X77986Y30587D01*
X77986Y30588D01*
X77832Y30670D01*
X77832Y30670D01*
X77832Y30670D01*
X77670Y30737D01*
X77670D01*
X77670Y30737D01*
X77504Y30788D01*
X77504D01*
X77503Y30788D01*
X77333Y30827D01*
X77333Y30827D01*
X77333Y30827D01*
X77160Y30849D01*
X77160Y30849D01*
X77160Y30849D01*
X76985Y30856D01*
D02*
G37*
G36*
X94177Y32494D02*
X93670Y32393D01*
X93240Y32106D01*
X92953Y31676D01*
X92852Y31168D01*
X92953Y30661D01*
X93240Y30231D01*
X93670Y29944D01*
X94177Y29843D01*
X94684Y29944D01*
X95114Y30231D01*
X95402Y30661D01*
X95503Y31168D01*
X95402Y31676D01*
X95114Y32106D01*
X94684Y32393D01*
X94177Y32494D01*
D02*
G37*
G36*
Y28630D02*
X93670Y28529D01*
X93240Y28242D01*
X92953Y27812D01*
X92852Y27305D01*
X92953Y26797D01*
X93240Y26367D01*
X93670Y26080D01*
X94177Y25979D01*
X94684Y26080D01*
X95114Y26367D01*
X95402Y26797D01*
X95503Y27305D01*
X95402Y27812D01*
X95114Y28242D01*
X94684Y28529D01*
X94177Y28630D01*
D02*
G37*
G36*
Y24294D02*
X93670Y24193D01*
X93240Y23906D01*
X92953Y23476D01*
X92852Y22968D01*
X92953Y22461D01*
X93240Y22031D01*
X93670Y21744D01*
X94177Y21643D01*
X94684Y21744D01*
X95114Y22031D01*
X95402Y22461D01*
X95503Y22968D01*
X95402Y23476D01*
X95114Y23906D01*
X94684Y24193D01*
X94177Y24294D01*
D02*
G37*
G36*
X84177Y18794D02*
X83670Y18693D01*
X83240Y18406D01*
X82953Y17976D01*
X82852Y17469D01*
X82953Y16961D01*
X83240Y16531D01*
X83670Y16244D01*
X84177Y16143D01*
X84684Y16244D01*
X85114Y16531D01*
X85402Y16961D01*
X85503Y17469D01*
X85402Y17976D01*
X85114Y18406D01*
X84684Y18693D01*
X84177Y18794D01*
D02*
G37*
G36*
X71083Y15121D02*
X69072D01*
X69071Y15120D01*
X69071Y15120D01*
Y9211D01*
X69071Y9210D01*
X69072Y9209D01*
X71083D01*
X71084Y9210D01*
X71084Y9211D01*
Y15120D01*
X71084Y15120D01*
X71083Y15121D01*
D02*
G37*
G36*
X67934D02*
X65923D01*
X65922Y15120D01*
X65922Y15120D01*
Y9211D01*
X65922Y9210D01*
X65923Y9209D01*
X67934D01*
X67935Y9210D01*
X67935Y9211D01*
Y15120D01*
X67935Y15120D01*
X67934Y15121D01*
D02*
G37*
G36*
X61634D02*
X59623D01*
X59622Y15120D01*
X59622Y15120D01*
Y9211D01*
X59622Y9210D01*
X59623Y9209D01*
X61634D01*
X61635Y9210D01*
X61635Y9211D01*
Y15120D01*
X61635Y15120D01*
X61634Y15121D01*
D02*
G37*
G36*
X58485D02*
X56474D01*
X56473Y15120D01*
X56473Y15120D01*
Y9211D01*
X56473Y9210D01*
X56474Y9209D01*
X58485D01*
X58486Y9210D01*
X58486Y9211D01*
Y15120D01*
X58486Y15120D01*
X58485Y15121D01*
D02*
G37*
G36*
X52186D02*
X50175D01*
X50174Y15120D01*
X50174Y15120D01*
Y9211D01*
X50174Y9210D01*
X50175Y9209D01*
X52186D01*
X52187Y9210D01*
X52187Y9211D01*
Y15120D01*
X52187Y15120D01*
X52186Y15121D01*
D02*
G37*
G36*
X49036D02*
X47025D01*
X47024Y15120D01*
X47024Y15120D01*
Y9211D01*
X47024Y9210D01*
X47025Y9209D01*
X49036D01*
X49037Y9210D01*
X49037Y9211D01*
Y15120D01*
X49037Y15120D01*
X49036Y15121D01*
D02*
G37*
G36*
X95433Y-5474D02*
X94455Y-5669D01*
X93625Y-6223D01*
X93071Y-7053D01*
X92876Y-8032D01*
X93071Y-9010D01*
X93625Y-9840D01*
X94455Y-10394D01*
X95433Y-10588D01*
X96412Y-10394D01*
X97241Y-9840D01*
X97795Y-9010D01*
X97990Y-8032D01*
X97795Y-7053D01*
X97241Y-6223D01*
X96412Y-5669D01*
X95433Y-5474D01*
D02*
G37*
G36*
X22677D02*
X21699Y-5669D01*
X20869Y-6223D01*
X20315Y-7053D01*
X20120Y-8032D01*
X20315Y-9010D01*
X20869Y-9840D01*
X21699Y-10394D01*
X22677Y-10588D01*
X23656Y-10394D01*
X24485Y-9840D01*
X25040Y-9010D01*
X25234Y-8032D01*
X25040Y-7053D01*
X24485Y-6223D01*
X23656Y-5669D01*
X22677Y-5474D01*
D02*
G37*
G36*
X61634Y-9210D02*
X59623D01*
X59622Y-9211D01*
X59622Y-9211D01*
Y-15121D01*
X59622Y-15121D01*
X59623Y-15122D01*
X61634D01*
X61635Y-15121D01*
X61635Y-15121D01*
Y-9211D01*
X61635Y-9211D01*
X61634Y-9210D01*
D02*
G37*
G36*
X58485D02*
X56474D01*
X56473Y-9211D01*
X56473Y-9211D01*
Y-15121D01*
X56473Y-15121D01*
X56474Y-15122D01*
X58485D01*
X58486Y-15121D01*
X58486Y-15121D01*
Y-9211D01*
X58486Y-9211D01*
X58485Y-9210D01*
D02*
G37*
G36*
X52186D02*
X50175D01*
X50174Y-9211D01*
X50174Y-9211D01*
Y-15121D01*
X50174Y-15121D01*
X50175Y-15122D01*
X52186D01*
X52187Y-15121D01*
X52187Y-15121D01*
Y-9211D01*
X52187Y-9211D01*
X52186Y-9210D01*
D02*
G37*
G36*
X49036D02*
X47025D01*
X47024Y-9211D01*
X47024Y-9211D01*
Y-15121D01*
X47024Y-15121D01*
X47025Y-15122D01*
X49036D01*
X49037Y-15121D01*
X49037Y-15121D01*
Y-9211D01*
X49037Y-9211D01*
X49036Y-9210D01*
D02*
G37*
G36*
X42737D02*
X40726D01*
X40725Y-9211D01*
X40725Y-9211D01*
Y-15121D01*
X40725Y-15121D01*
X40726Y-15122D01*
X42737D01*
X42738Y-15121D01*
X42738Y-15121D01*
Y-9211D01*
X42738Y-9211D01*
X42737Y-9210D01*
D02*
G37*
G36*
X39587D02*
X37576D01*
X37575Y-9211D01*
X37575Y-9211D01*
Y-15121D01*
X37575Y-15121D01*
X37576Y-15122D01*
X39587D01*
X39588Y-15121D01*
X39588Y-15121D01*
Y-9211D01*
X39588Y-9211D01*
X39587Y-9210D01*
D02*
G37*
G36*
X60958Y-16009D02*
X60958Y-16009D01*
X60958Y-16009D01*
X57153D01*
X57153Y-16009D01*
X57153Y-16009D01*
X56979Y-16017D01*
X56979Y-16017D01*
X56979Y-16017D01*
X56806Y-16040D01*
X56806Y-16040D01*
X56806Y-16040D01*
X56635Y-16079D01*
X56635Y-16079D01*
X56635Y-16079D01*
X56469Y-16130D01*
X56469Y-16130D01*
X56469D01*
X56308Y-16197D01*
X56308Y-16197D01*
X56308D01*
X56153Y-16277D01*
X56153Y-16278D01*
X56153Y-16278D01*
X56006Y-16372D01*
X56006Y-16372D01*
X56006Y-16372D01*
X55867Y-16478D01*
X55867Y-16478D01*
X55867Y-16478D01*
X55739Y-16596D01*
X55739Y-16596D01*
X55738Y-16596D01*
X55620Y-16725D01*
X55620Y-16725D01*
X55620Y-16725D01*
X55514Y-16863D01*
X55514Y-16863D01*
X55514Y-16863D01*
X55420Y-17010D01*
X55420Y-17010D01*
X55420Y-17010D01*
X55339Y-17165D01*
Y-17165D01*
X55339Y-17165D01*
X55273Y-17326D01*
Y-17326D01*
X55273Y-17326D01*
X55220Y-17493D01*
X55220Y-17493D01*
X55220Y-17493D01*
X55182Y-17663D01*
X55182Y-17663D01*
X55182Y-17663D01*
X55160Y-17836D01*
X55160Y-17836D01*
X55160Y-17836D01*
X55152Y-18011D01*
X55152Y-18011D01*
X55152Y-18011D01*
X55160Y-18186D01*
X55160Y-18186D01*
X55160Y-18186D01*
X55182Y-18359D01*
X55182Y-18359D01*
X55182Y-18359D01*
X55220Y-18529D01*
X55220Y-18529D01*
Y-18529D01*
X55273Y-18695D01*
X55273Y-18695D01*
Y-18695D01*
X55339Y-18857D01*
X55339Y-18857D01*
X55339Y-18857D01*
X55420Y-19011D01*
X55420Y-19011D01*
X55420Y-19011D01*
X55514Y-19159D01*
X55514Y-19159D01*
X55514Y-19159D01*
X55620Y-19297D01*
X55620Y-19297D01*
X55620Y-19297D01*
X55738Y-19426D01*
X55739Y-19426D01*
X55739Y-19426D01*
X55867Y-19543D01*
X55867Y-19543D01*
X55867Y-19543D01*
X56006Y-19650D01*
X56006Y-19650D01*
X56006Y-19650D01*
X56153Y-19743D01*
X56153Y-19743D01*
X56153Y-19744D01*
X56308Y-19825D01*
X56308D01*
X56308Y-19825D01*
X56469Y-19892D01*
X56469D01*
X56469Y-19892D01*
X56635Y-19943D01*
X56635Y-19943D01*
X56635Y-19943D01*
X56806Y-19982D01*
X56806Y-19982D01*
X56806Y-19982D01*
X56979Y-20005D01*
X56979Y-20005D01*
X56979Y-20005D01*
X57153Y-20012D01*
X57153Y-20012D01*
X57153Y-20012D01*
X60958D01*
X60958Y-20012D01*
X60958Y-20012D01*
X61133Y-20005D01*
X61133Y-20005D01*
X61133Y-20005D01*
X61306Y-19982D01*
X61306Y-19982D01*
X61306Y-19982D01*
X61476Y-19943D01*
X61476Y-19943D01*
X61476Y-19943D01*
X61642Y-19892D01*
X61643Y-19892D01*
X61643D01*
X61805Y-19825D01*
X61805Y-19825D01*
X61805Y-19824D01*
X61959Y-19744D01*
X61959Y-19743D01*
X61959Y-19743D01*
X62106Y-19650D01*
X62106Y-19650D01*
X62106Y-19650D01*
X62245Y-19543D01*
X62245Y-19543D01*
X62245Y-19543D01*
X62373Y-19426D01*
X62373Y-19426D01*
X62373Y-19426D01*
X62491Y-19297D01*
X62491Y-19297D01*
X62491Y-19297D01*
X62598Y-19159D01*
X62598Y-19159D01*
X62598Y-19159D01*
X62691Y-19011D01*
X62691Y-19011D01*
X62691Y-19011D01*
X62772Y-18857D01*
Y-18857D01*
X62772Y-18857D01*
X62839Y-18695D01*
Y-18695D01*
X62839Y-18695D01*
X62891Y-18529D01*
Y-18529D01*
X62891Y-18529D01*
X62929Y-18359D01*
X62929Y-18359D01*
X62929Y-18359D01*
X62952Y-18186D01*
X62952Y-18186D01*
X62952Y-18185D01*
X62959Y-18011D01*
X62959Y-18011D01*
X62959Y-18011D01*
X62952Y-17837D01*
X62952Y-17836D01*
X62952Y-17836D01*
X62929Y-17663D01*
X62929Y-17663D01*
X62929Y-17663D01*
X62891Y-17493D01*
X62891Y-17493D01*
Y-17493D01*
X62839Y-17326D01*
X62839Y-17326D01*
Y-17326D01*
X62772Y-17165D01*
X62772Y-17165D01*
Y-17165D01*
X62691Y-17010D01*
X62691Y-17010D01*
X62691Y-17010D01*
X62598Y-16863D01*
X62598Y-16863D01*
X62598Y-16863D01*
X62491Y-16725D01*
X62491Y-16725D01*
X62491Y-16725D01*
X62373Y-16596D01*
X62373Y-16596D01*
X62373Y-16596D01*
X62245Y-16478D01*
X62245Y-16478D01*
X62245Y-16478D01*
X62106Y-16372D01*
X62106Y-16372D01*
X62106Y-16372D01*
X61959Y-16278D01*
X61959Y-16278D01*
X61959Y-16277D01*
X61805Y-16197D01*
X61805D01*
X61805Y-16197D01*
X61643Y-16130D01*
X61643D01*
X61642Y-16130D01*
X61476Y-16079D01*
X61476D01*
X61476Y-16079D01*
X61306Y-16040D01*
X61306Y-16040D01*
X61306Y-16040D01*
X61133Y-16017D01*
X61133Y-16017D01*
X61133Y-16017D01*
X60958Y-16009D01*
D02*
G37*
G36*
X51509D02*
X51509Y-16009D01*
X51509Y-16009D01*
X47704D01*
X47704Y-16009D01*
X47704Y-16009D01*
X47529Y-16017D01*
X47529Y-16017D01*
X47529Y-16017D01*
X47356Y-16040D01*
X47356Y-16040D01*
X47356Y-16040D01*
X47186Y-16079D01*
X47186Y-16079D01*
X47186Y-16079D01*
X47020Y-16130D01*
X47020Y-16130D01*
X47020D01*
X46859Y-16197D01*
X46859Y-16197D01*
X46859D01*
X46704Y-16277D01*
X46704Y-16278D01*
X46704Y-16278D01*
X46556Y-16372D01*
X46556Y-16372D01*
X46556Y-16372D01*
X46418Y-16478D01*
X46418Y-16478D01*
X46418Y-16478D01*
X46288Y-16596D01*
X46288Y-16596D01*
X46288Y-16596D01*
X46170Y-16725D01*
X46170Y-16725D01*
X46170Y-16725D01*
X46064Y-16863D01*
X46064Y-16863D01*
X46064Y-16863D01*
X45970Y-17010D01*
X45970Y-17010D01*
X45970Y-17010D01*
X45889Y-17165D01*
Y-17165D01*
X45889Y-17165D01*
X45823Y-17326D01*
Y-17326D01*
X45823Y-17326D01*
X45770Y-17493D01*
Y-17493D01*
X45770Y-17493D01*
X45733Y-17663D01*
X45733Y-17663D01*
X45733Y-17663D01*
X45711Y-17836D01*
X45711Y-17836D01*
X45711Y-17836D01*
X45703Y-18011D01*
X45703Y-18011D01*
X45703Y-18011D01*
X45711Y-18186D01*
X45711Y-18186D01*
X45711Y-18186D01*
X45733Y-18359D01*
X45733Y-18359D01*
X45733Y-18359D01*
X45770Y-18529D01*
X45770Y-18529D01*
Y-18529D01*
X45823Y-18695D01*
X45823Y-18695D01*
Y-18695D01*
X45889Y-18857D01*
X45889Y-18857D01*
X45889Y-18857D01*
X45970Y-19011D01*
X45970Y-19011D01*
X45970Y-19011D01*
X46064Y-19159D01*
X46064Y-19159D01*
X46064Y-19159D01*
X46170Y-19297D01*
X46170Y-19297D01*
X46170Y-19297D01*
X46288Y-19426D01*
X46288Y-19426D01*
X46288Y-19426D01*
X46418Y-19543D01*
X46418Y-19543D01*
X46418Y-19543D01*
X46556Y-19650D01*
X46556Y-19650D01*
X46556Y-19650D01*
X46704Y-19743D01*
X46704Y-19743D01*
X46704Y-19744D01*
X46859Y-19825D01*
X46859D01*
X46859Y-19825D01*
X47020Y-19892D01*
X47020D01*
X47020Y-19892D01*
X47186Y-19943D01*
X47186D01*
X47186Y-19943D01*
X47356Y-19982D01*
X47356Y-19982D01*
X47356Y-19982D01*
X47529Y-20005D01*
X47529Y-20005D01*
X47529Y-20005D01*
X47704Y-20012D01*
X47704Y-20012D01*
X47704Y-20012D01*
X51509D01*
X51509Y-20012D01*
X51509Y-20012D01*
X51684Y-20005D01*
X51684Y-20005D01*
X51684Y-20005D01*
X51856Y-19982D01*
X51856Y-19982D01*
X51856Y-19982D01*
X52027Y-19943D01*
X52027Y-19943D01*
X52027Y-19943D01*
X52193Y-19892D01*
X52194Y-19892D01*
X52194D01*
X52355Y-19825D01*
X52355Y-19825D01*
X52355D01*
X52510Y-19744D01*
X52510Y-19743D01*
X52510Y-19743D01*
X52656Y-19650D01*
X52656Y-19650D01*
X52656Y-19650D01*
X52796Y-19543D01*
X52796Y-19543D01*
X52796Y-19543D01*
X52923Y-19426D01*
X52923Y-19426D01*
X52923Y-19426D01*
X53041Y-19297D01*
X53041Y-19297D01*
X53041Y-19297D01*
X53148Y-19159D01*
X53148Y-19159D01*
X53148Y-19159D01*
X53241Y-19011D01*
X53241Y-19011D01*
X53241Y-19011D01*
X53322Y-18857D01*
Y-18857D01*
X53322Y-18857D01*
X53389Y-18695D01*
Y-18695D01*
X53389Y-18695D01*
X53441Y-18529D01*
Y-18529D01*
X53441Y-18529D01*
X53480Y-18359D01*
X53480Y-18359D01*
X53480Y-18359D01*
X53503Y-18186D01*
X53503Y-18186D01*
X53503Y-18185D01*
X53510Y-18011D01*
X53510Y-18011D01*
X53510Y-18011D01*
X53503Y-17837D01*
X53503Y-17836D01*
X53503Y-17836D01*
X53480Y-17663D01*
X53480Y-17663D01*
X53480Y-17663D01*
X53441Y-17493D01*
X53441Y-17493D01*
Y-17493D01*
X53389Y-17326D01*
X53389Y-17326D01*
Y-17326D01*
X53322Y-17165D01*
X53322Y-17165D01*
Y-17165D01*
X53241Y-17010D01*
X53241Y-17010D01*
X53241Y-17010D01*
X53148Y-16863D01*
X53148Y-16863D01*
X53148Y-16863D01*
X53041Y-16725D01*
X53041Y-16725D01*
X53041Y-16725D01*
X52923Y-16596D01*
X52923Y-16596D01*
X52923Y-16596D01*
X52796Y-16478D01*
X52796Y-16478D01*
X52796Y-16478D01*
X52656Y-16372D01*
X52656Y-16372D01*
X52656Y-16372D01*
X52510Y-16278D01*
X52510Y-16278D01*
X52510Y-16277D01*
X52355Y-16197D01*
X52355D01*
X52355Y-16197D01*
X52194Y-16130D01*
X52194D01*
X52193Y-16130D01*
X52027Y-16079D01*
X52027Y-16079D01*
X52027Y-16079D01*
X51856Y-16040D01*
X51856Y-16040D01*
X51856Y-16040D01*
X51684Y-16017D01*
X51684Y-16017D01*
X51684Y-16017D01*
X51509Y-16009D01*
D02*
G37*
G36*
X42061D02*
X42061Y-16009D01*
X42061Y-16009D01*
X38256D01*
X38256Y-16009D01*
X38256Y-16009D01*
X38081Y-16017D01*
X38081Y-16017D01*
X38081Y-16017D01*
X37908Y-16040D01*
X37908Y-16040D01*
X37908Y-16040D01*
X37738Y-16079D01*
X37738Y-16079D01*
X37738Y-16079D01*
X37572Y-16130D01*
X37572Y-16130D01*
X37572D01*
X37411Y-16197D01*
X37411Y-16197D01*
X37411D01*
X37256Y-16277D01*
X37256Y-16278D01*
X37256Y-16278D01*
X37108Y-16372D01*
X37108Y-16372D01*
X37108Y-16372D01*
X36970Y-16478D01*
X36970Y-16478D01*
X36970Y-16478D01*
X36841Y-16596D01*
X36840Y-16596D01*
X36840Y-16596D01*
X36722Y-16725D01*
X36722Y-16725D01*
X36722Y-16725D01*
X36616Y-16863D01*
X36616Y-16863D01*
X36616Y-16863D01*
X36522Y-17010D01*
X36522Y-17010D01*
X36522Y-17010D01*
X36441Y-17165D01*
Y-17165D01*
X36441Y-17165D01*
X36375Y-17326D01*
Y-17326D01*
X36375Y-17326D01*
X36322Y-17493D01*
Y-17493D01*
X36322Y-17493D01*
X36285Y-17663D01*
X36285Y-17663D01*
X36285Y-17663D01*
X36263Y-17836D01*
X36263Y-17836D01*
X36263Y-17836D01*
X36255Y-18011D01*
X36255Y-18011D01*
X36255Y-18011D01*
X36263Y-18186D01*
X36263Y-18186D01*
X36263Y-18186D01*
X36285Y-18359D01*
X36285Y-18359D01*
X36285Y-18359D01*
X36322Y-18529D01*
X36322Y-18529D01*
Y-18529D01*
X36375Y-18695D01*
X36375Y-18695D01*
Y-18695D01*
X36441Y-18857D01*
X36441Y-18857D01*
X36441Y-18857D01*
X36522Y-19011D01*
X36522Y-19011D01*
X36522Y-19011D01*
X36616Y-19159D01*
X36616Y-19159D01*
X36616Y-19159D01*
X36722Y-19297D01*
X36722Y-19297D01*
X36722Y-19297D01*
X36840Y-19426D01*
X36841Y-19426D01*
X36841Y-19426D01*
X36970Y-19543D01*
X36970Y-19543D01*
X36970Y-19543D01*
X37108Y-19650D01*
X37108Y-19650D01*
X37108Y-19650D01*
X37256Y-19743D01*
X37256Y-19743D01*
X37256Y-19744D01*
X37411Y-19825D01*
X37411D01*
X37411Y-19825D01*
X37572Y-19892D01*
X37572D01*
X37572Y-19892D01*
X37738Y-19943D01*
X37738D01*
X37738Y-19943D01*
X37908Y-19982D01*
X37908Y-19982D01*
X37908Y-19982D01*
X38081Y-20005D01*
X38081Y-20005D01*
X38081Y-20005D01*
X38256Y-20012D01*
X38256Y-20012D01*
X38256Y-20012D01*
X42061D01*
X42061Y-20012D01*
X42061Y-20012D01*
X42236Y-20005D01*
X42236Y-20005D01*
X42236Y-20005D01*
X42408Y-19982D01*
X42408Y-19982D01*
X42408Y-19982D01*
X42579Y-19943D01*
X42579Y-19943D01*
X42579Y-19943D01*
X42746Y-19892D01*
X42746Y-19892D01*
X42746D01*
X42907Y-19825D01*
X42907Y-19825D01*
X42907D01*
X43062Y-19744D01*
X43062Y-19743D01*
X43062Y-19743D01*
X43208Y-19650D01*
X43208Y-19650D01*
X43208Y-19650D01*
X43348Y-19543D01*
X43348Y-19543D01*
X43348Y-19543D01*
X43475Y-19426D01*
X43475Y-19426D01*
X43475Y-19426D01*
X43593Y-19297D01*
X43593Y-19297D01*
X43593Y-19297D01*
X43700Y-19159D01*
X43700Y-19159D01*
X43700Y-19159D01*
X43793Y-19011D01*
X43793Y-19011D01*
X43793Y-19011D01*
X43874Y-18857D01*
Y-18857D01*
X43874Y-18857D01*
X43941Y-18695D01*
Y-18695D01*
X43941Y-18695D01*
X43993Y-18529D01*
Y-18529D01*
X43993Y-18529D01*
X44032Y-18359D01*
X44032Y-18359D01*
X44032Y-18359D01*
X44055Y-18186D01*
X44055Y-18186D01*
X44055Y-18185D01*
X44062Y-18011D01*
X44062Y-18011D01*
X44062Y-18011D01*
X44055Y-17837D01*
X44055Y-17836D01*
X44055Y-17836D01*
X44032Y-17663D01*
X44032Y-17663D01*
X44032Y-17663D01*
X43993Y-17493D01*
X43993Y-17493D01*
Y-17493D01*
X43941Y-17326D01*
X43941Y-17326D01*
Y-17326D01*
X43874Y-17165D01*
X43874Y-17165D01*
Y-17165D01*
X43793Y-17010D01*
X43793Y-17010D01*
X43793Y-17010D01*
X43700Y-16863D01*
X43700Y-16863D01*
X43700Y-16863D01*
X43593Y-16725D01*
X43593Y-16725D01*
X43593Y-16725D01*
X43475Y-16596D01*
X43475Y-16596D01*
X43475Y-16596D01*
X43348Y-16478D01*
X43348Y-16478D01*
X43348Y-16478D01*
X43208Y-16372D01*
X43208Y-16372D01*
X43208Y-16372D01*
X43062Y-16278D01*
X43062Y-16278D01*
X43062Y-16277D01*
X42907Y-16197D01*
X42907D01*
X42907Y-16197D01*
X42746Y-16130D01*
X42746D01*
X42746Y-16130D01*
X42579Y-16079D01*
X42579Y-16079D01*
X42579Y-16079D01*
X42408Y-16040D01*
X42408Y-16040D01*
X42408Y-16040D01*
X42236Y-16017D01*
X42236Y-16017D01*
X42236Y-16017D01*
X42061Y-16009D01*
D02*
G37*
G36*
X79527Y-15206D02*
X79020Y-15307D01*
X78590Y-15594D01*
X78303Y-16024D01*
X78202Y-16532D01*
X78303Y-17039D01*
X78590Y-17469D01*
X79020Y-17756D01*
X79527Y-17857D01*
X80034Y-17756D01*
X80464Y-17469D01*
X80752Y-17039D01*
X80853Y-16532D01*
X80752Y-16024D01*
X80464Y-15594D01*
X80034Y-15307D01*
X79527Y-15206D01*
D02*
G37*
G36*
X76377D02*
X75870Y-15307D01*
X75440Y-15594D01*
X75153Y-16024D01*
X75052Y-16532D01*
X75153Y-17039D01*
X75440Y-17469D01*
X75870Y-17756D01*
X76377Y-17857D01*
X76884Y-17756D01*
X77314Y-17469D01*
X77602Y-17039D01*
X77703Y-16532D01*
X77602Y-16024D01*
X77314Y-15594D01*
X76884Y-15307D01*
X76377Y-15206D01*
D02*
G37*
G36*
X84649Y-60872D02*
X83780Y-63250D01*
X85547D01*
X84649Y-60872D01*
D02*
G37*
G36*
X72976Y-60465D02*
X72014D01*
Y-62288D01*
X72902D01*
X72967Y-62278D01*
X73133D01*
X73300Y-62269D01*
X73466Y-62251D01*
X73614Y-62223D01*
X73679Y-62214D01*
X73734Y-62195D01*
X73744Y-62186D01*
X73781Y-62177D01*
X73827Y-62149D01*
X73882Y-62121D01*
X73947Y-62075D01*
X74012Y-62019D01*
X74086Y-61955D01*
X74141Y-61881D01*
X74151Y-61871D01*
X74169Y-61844D01*
X74188Y-61797D01*
X74215Y-61733D01*
X74243Y-61659D01*
X74271Y-61575D01*
X74280Y-61483D01*
X74289Y-61381D01*
Y-61363D01*
Y-61326D01*
X74280Y-61261D01*
X74262Y-61178D01*
X74234Y-61085D01*
X74197Y-60983D01*
X74151Y-60891D01*
X74077Y-60798D01*
X74067Y-60789D01*
X74040Y-60761D01*
X73993Y-60724D01*
X73938Y-60678D01*
X73864Y-60623D01*
X73771Y-60576D01*
X73670Y-60539D01*
X73559Y-60512D01*
X73549D01*
X73512Y-60502D01*
X73448Y-60493D01*
X73355Y-60484D01*
X73235D01*
X73152Y-60475D01*
X73068D01*
X72976Y-60465D01*
D02*
G37*
G36*
X63911D02*
X63069D01*
Y-64702D01*
X64207D01*
X64327Y-64693D01*
X64457D01*
X64586Y-64674D01*
X64706Y-64665D01*
X64808Y-64646D01*
X64827D01*
X64864Y-64628D01*
X64919Y-64609D01*
X64993Y-64582D01*
X65076Y-64545D01*
X65160Y-64498D01*
X65243Y-64443D01*
X65326Y-64378D01*
X65335Y-64369D01*
X65363Y-64341D01*
X65400Y-64295D01*
X65446Y-64230D01*
X65493Y-64147D01*
X65557Y-64045D01*
X65604Y-63916D01*
X65659Y-63768D01*
Y-63758D01*
X65668Y-63749D01*
Y-63721D01*
X65678Y-63684D01*
X65696Y-63647D01*
X65705Y-63592D01*
X65733Y-63453D01*
X65752Y-63287D01*
X65779Y-63092D01*
X65789Y-62852D01*
X65798Y-62593D01*
Y-62584D01*
Y-62556D01*
Y-62519D01*
Y-62473D01*
Y-62408D01*
X65789Y-62334D01*
X65779Y-62177D01*
X65761Y-61992D01*
X65742Y-61797D01*
X65705Y-61622D01*
X65659Y-61455D01*
Y-61446D01*
X65650Y-61437D01*
X65631Y-61390D01*
X65604Y-61316D01*
X65567Y-61224D01*
X65511Y-61131D01*
X65446Y-61030D01*
X65372Y-60928D01*
X65289Y-60835D01*
X65280Y-60826D01*
X65252Y-60798D01*
X65197Y-60761D01*
X65132Y-60715D01*
X65039Y-60660D01*
X64938Y-60613D01*
X64827Y-60567D01*
X64697Y-60530D01*
X64688D01*
X64642Y-60521D01*
X64568Y-60512D01*
X64466Y-60493D01*
X64401D01*
X64318Y-60484D01*
X64235D01*
X64142Y-60475D01*
X64031D01*
X63911Y-60465D01*
D02*
G37*
G36*
X36725Y-60465D02*
X35245D01*
Y-62093D01*
X36503D01*
X36688Y-62084D01*
X36882Y-62075D01*
X37077Y-62066D01*
X37160Y-62056D01*
X37234Y-62047D01*
X37308Y-62029D01*
X37354Y-62019D01*
X37363D01*
X37391Y-62001D01*
X37437Y-61982D01*
X37484Y-61955D01*
X37604Y-61871D01*
X37659Y-61816D01*
X37715Y-61751D01*
X37724Y-61742D01*
X37733Y-61714D01*
X37761Y-61677D01*
X37789Y-61622D01*
X37807Y-61548D01*
X37835Y-61464D01*
X37844Y-61372D01*
X37854Y-61270D01*
Y-61252D01*
Y-61215D01*
X37844Y-61159D01*
X37835Y-61085D01*
X37807Y-61002D01*
X37780Y-60919D01*
X37733Y-60826D01*
X37678Y-60752D01*
X37669Y-60743D01*
X37650Y-60715D01*
X37604Y-60687D01*
X37548Y-60641D01*
X37484Y-60595D01*
X37400Y-60558D01*
X37299Y-60521D01*
X37188Y-60493D01*
X37178D01*
X37151Y-60484D01*
X37095D01*
X37012Y-60475D01*
X36808D01*
X36725Y-60465D01*
D02*
G37*
G36*
X18059Y-60872D02*
X17189Y-63250D01*
X18956D01*
X18059Y-60872D01*
D02*
G37*
%LPD*%
D30*
X21055Y2901D02*
D03*
Y10900D02*
D03*
Y18901D02*
D03*
Y26901D02*
D03*
Y34901D02*
D03*
Y42900D02*
D03*
Y50901D02*
D03*
X27177Y53469D02*
D03*
Y58969D02*
D03*
X29055Y-5099D02*
D03*
Y2901D02*
D03*
Y18901D02*
D03*
Y26901D02*
D03*
Y34901D02*
D03*
Y42900D02*
D03*
X35177Y-7032D02*
D03*
Y-3032D02*
D03*
X35428Y16604D02*
D03*
X36677Y6968D02*
D03*
X36829Y3069D02*
D03*
X37585Y42988D02*
D03*
Y48489D02*
D03*
X39677Y26969D02*
D03*
X40177Y34969D02*
D03*
Y53969D02*
D03*
X41628Y21804D02*
D03*
X43609Y18606D02*
D03*
X44677Y3469D02*
D03*
Y6968D02*
D03*
X45128Y62805D02*
D03*
X45177Y-7032D02*
D03*
Y-3032D02*
D03*
X48583Y35691D02*
D03*
Y41192D02*
D03*
X50289Y45520D02*
D03*
X54331Y16901D02*
D03*
X54628Y53105D02*
D03*
X54677Y-7032D02*
D03*
Y-3032D02*
D03*
Y3469D02*
D03*
Y6968D02*
D03*
X55728Y63305D02*
D03*
X62828Y31104D02*
D03*
X63028Y44704D02*
D03*
X63677Y3469D02*
D03*
Y6968D02*
D03*
X63778Y-7431D02*
D03*
X63779Y16901D02*
D03*
X64328Y20204D02*
D03*
X65128Y53904D02*
D03*
X66677Y65969D02*
D03*
X70177Y-3531D02*
D03*
Y61968D02*
D03*
X70677Y3469D02*
D03*
Y6968D02*
D03*
X73228Y16901D02*
D03*
X74438Y42680D02*
D03*
Y48180D02*
D03*
X75028Y58404D02*
D03*
X75728Y32004D02*
D03*
X78177Y-3531D02*
D03*
Y3469D02*
D03*
Y6968D02*
D03*
X79938Y24180D02*
D03*
Y29680D02*
D03*
X85177Y31468D02*
D03*
Y40468D02*
D03*
X86038Y48180D02*
D03*
Y53680D02*
D03*
X87677Y35969D02*
D03*
X122677Y7468D02*
D03*
Y15469D02*
D03*
Y23469D02*
D03*
Y31468D02*
D03*
Y39469D02*
D03*
Y47469D02*
D03*
Y55468D02*
D03*
Y63468D02*
D03*
Y71469D02*
D03*
Y79469D02*
D03*
Y87468D02*
D03*
X35433Y-17400D02*
D03*
X38055Y-21100D02*
D03*
X38666Y98300D02*
D03*
X6055D02*
D03*
Y-21100D02*
D03*
Y10900D02*
D03*
Y18901D02*
D03*
Y-5099D02*
D03*
Y26901D02*
D03*
Y34901D02*
D03*
Y-13100D02*
D03*
Y42900D02*
D03*
Y50901D02*
D03*
Y58900D02*
D03*
Y66900D02*
D03*
Y74901D02*
D03*
Y82901D02*
D03*
Y90900D02*
D03*
X42608Y68024D02*
D03*
X44882Y-16899D02*
D03*
X46055Y-21100D02*
D03*
X46666Y98300D02*
D03*
X-1945D02*
D03*
Y-21100D02*
D03*
X-4813Y-6312D02*
D03*
X-4823Y-18032D02*
D03*
Y10968D02*
D03*
Y18969D02*
D03*
Y26969D02*
D03*
Y34969D02*
D03*
Y-13032D02*
D03*
Y42968D02*
D03*
Y50968D02*
D03*
Y58969D02*
D03*
Y66969D02*
D03*
Y74968D02*
D03*
Y82968D02*
D03*
Y90969D02*
D03*
X54055Y-21100D02*
D03*
X54331Y-16899D02*
D03*
X54418Y79505D02*
D03*
X54666Y98300D02*
D03*
X62055Y-21100D02*
D03*
X62666Y98300D02*
D03*
X63779Y-16899D02*
D03*
X66229Y79505D02*
D03*
X70055Y-21100D02*
D03*
X70666Y98300D02*
D03*
X73228Y-16899D02*
D03*
X78055Y-21100D02*
D03*
X78666Y98300D02*
D03*
X22055D02*
D03*
Y-21100D02*
D03*
X86055D02*
D03*
X86177Y-3531D02*
D03*
X86666Y98300D02*
D03*
X90677Y87169D02*
D03*
Y90168D02*
D03*
X94055Y-21100D02*
D03*
Y-13100D02*
D03*
X94177Y6968D02*
D03*
Y13969D02*
D03*
Y-3531D02*
D03*
Y40968D02*
D03*
X94666Y98300D02*
D03*
X30055D02*
D03*
Y-21100D02*
D03*
X99177Y48968D02*
D03*
X102055Y2901D02*
D03*
Y-21100D02*
D03*
Y-5099D02*
D03*
Y-13100D02*
D03*
X102177Y13969D02*
D03*
X102666Y98300D02*
D03*
X30797Y67804D02*
D03*
X106177Y60469D02*
D03*
X14055Y98300D02*
D03*
Y-21100D02*
D03*
X109177Y20968D02*
D03*
X110055Y2901D02*
D03*
Y-21100D02*
D03*
Y10900D02*
D03*
Y-5099D02*
D03*
Y-13100D02*
D03*
X110666Y98300D02*
D03*
X113177Y50968D02*
D03*
X115177Y26469D02*
D03*
X115677Y59969D02*
D03*
X116677Y16468D02*
D03*
X118055Y-21100D02*
D03*
Y-13100D02*
D03*
X121677Y97469D02*
D03*
M02*
