G04*
G04 #@! TF.GenerationSoftware,Altium Limited,Altium Designer,22.5.1 (42)*
G04*
G04 Layer_Color=255*
%FSLAX25Y25*%
%MOIN*%
G70*
G04*
G04 #@! TF.SameCoordinates,343D76CA-8D90-4984-A01A-401E7FF7C9D5*
G04*
G04*
G04 #@! TF.FilePolarity,Positive*
G04*
G01*
G75*
%ADD12R,0.02402X0.07874*%
%ADD13R,0.10551X0.14173*%
%ADD14C,0.03937*%
%ADD25C,0.00787*%
%ADD28C,0.04016*%
%ADD29C,0.11811*%
D12*
X30796Y73802D02*
D03*
X34733D02*
D03*
X38671D02*
D03*
X42608D02*
D03*
X46545D02*
D03*
X50481D02*
D03*
X54418D02*
D03*
X58355D02*
D03*
X62292D02*
D03*
X85915D02*
D03*
X81977D02*
D03*
X78040D02*
D03*
X66229D02*
D03*
X74103D02*
D03*
X70166D02*
D03*
D13*
X97686Y84826D02*
D03*
X19025D02*
D03*
D14*
X76277Y-11631D02*
D03*
X99177Y31168D02*
D03*
X88677Y22468D02*
D03*
X99177Y37668D02*
D03*
D25*
X117177Y44238D02*
D03*
Y46698D02*
D03*
X110177Y44238D02*
D03*
Y46698D02*
D03*
X102677D02*
D03*
Y44238D02*
D03*
X95677Y46698D02*
D03*
Y44238D02*
D03*
X103041Y69359D02*
D03*
X100581D02*
D03*
D28*
X95433Y-8032D02*
D03*
X22677D02*
D03*
D29*
X118110Y0D02*
D03*
X0D02*
D03*
M02*
