G04*
G04 #@! TF.GenerationSoftware,Altium Limited,Altium Designer,22.5.1 (42)*
G04*
G04 Layer_Physical_Order=3*
G04 Layer_Color=16440176*
%FSLAX25Y25*%
%MOIN*%
G70*
G04*
G04 #@! TF.SameCoordinates,A2539C74-7FEE-43BD-A04A-5197B4AA8E51*
G04*
G04*
G04 #@! TF.FilePolarity,Positive*
G04*
G01*
G75*
%ADD27C,0.01600*%
G36*
X121789Y99004D02*
X122514Y98704D01*
X123137Y98226D01*
X123615Y97604D01*
X123915Y96879D01*
X124012Y96144D01*
X124003Y96100D01*
Y3593D01*
X123518Y3471D01*
X123462Y3576D01*
X122661Y4551D01*
X121686Y5352D01*
X120573Y5946D01*
X119366Y6313D01*
X118110Y6436D01*
X116855Y6313D01*
X115647Y5946D01*
X114534Y5352D01*
X113559Y4551D01*
X112759Y3576D01*
X112164Y2463D01*
X111797Y1256D01*
X111674Y0D01*
X111797Y-1256D01*
X112164Y-2463D01*
X112759Y-3576D01*
X113559Y-4551D01*
X114534Y-5352D01*
X115647Y-5946D01*
X116855Y-6313D01*
X118110Y-6436D01*
X119366Y-6313D01*
X120573Y-5946D01*
X121686Y-5352D01*
X122661Y-4551D01*
X123462Y-3576D01*
X123518Y-3471D01*
X124003Y-3593D01*
Y-18900D01*
X124012Y-18943D01*
X123915Y-19678D01*
X123615Y-20403D01*
X123137Y-21025D01*
X122514Y-21503D01*
X121789Y-21803D01*
X121054Y-21900D01*
X121011Y-21891D01*
X-2901D01*
X-2944Y-21900D01*
X-3679Y-21803D01*
X-4404Y-21503D01*
X-5027Y-21025D01*
X-5504Y-20403D01*
X-5805Y-19678D01*
X-5901Y-18943D01*
X-5893Y-18900D01*
Y-3593D01*
X-5408Y-3471D01*
X-5352Y-3576D01*
X-4551Y-4551D01*
X-3576Y-5352D01*
X-2463Y-5946D01*
X-1256Y-6313D01*
X0Y-6436D01*
X1256Y-6313D01*
X2463Y-5946D01*
X3576Y-5352D01*
X4551Y-4551D01*
X5352Y-3576D01*
X5946Y-2463D01*
X6313Y-1256D01*
X6436Y0D01*
X6313Y1256D01*
X5946Y2463D01*
X5352Y3576D01*
X4551Y4551D01*
X3576Y5352D01*
X2463Y5946D01*
X1256Y6313D01*
X0Y6436D01*
X-1256Y6313D01*
X-2463Y5946D01*
X-3576Y5352D01*
X-4551Y4551D01*
X-5352Y3576D01*
X-5408Y3471D01*
X-5893Y3593D01*
Y96100D01*
X-5901Y96144D01*
X-5805Y96879D01*
X-5504Y97604D01*
X-5027Y98226D01*
X-4404Y98704D01*
X-3679Y99004D01*
X-2944Y99101D01*
X-2901Y99092D01*
X109092D01*
X109142Y98592D01*
X109038Y98572D01*
X108821Y98529D01*
X108391Y98241D01*
X108103Y97811D01*
X108002Y97304D01*
X108103Y96797D01*
X108391Y96367D01*
X108409Y96355D01*
Y95753D01*
X108391Y95741D01*
X108103Y95311D01*
X108002Y94804D01*
X108103Y94297D01*
X108391Y93867D01*
X108821Y93579D01*
X109328Y93479D01*
X109835Y93579D01*
X110265Y93867D01*
X110553Y94297D01*
X110653Y94804D01*
X110553Y95311D01*
X110265Y95741D01*
X110247Y95753D01*
Y96355D01*
X110265Y96367D01*
X110553Y96797D01*
X110653Y97304D01*
X110553Y97811D01*
X110265Y98241D01*
X109835Y98529D01*
X109618Y98572D01*
X109514Y98592D01*
X109564Y99092D01*
X121011D01*
X121054Y99101D01*
X121789Y99004D01*
D02*
G37*
G36*
X51497Y-59272D02*
X51599Y-59281D01*
X51719Y-59291D01*
X51849Y-59300D01*
X51988Y-59328D01*
X52284Y-59383D01*
X52589Y-59476D01*
X52746Y-59531D01*
X52894Y-59596D01*
X53033Y-59670D01*
X53162Y-59762D01*
X53172Y-59772D01*
X53190Y-59781D01*
X53227Y-59818D01*
X53273Y-59855D01*
X53329Y-59901D01*
X53384Y-59966D01*
X53449Y-60040D01*
X53523Y-60123D01*
X53597Y-60216D01*
X53671Y-60317D01*
X53745Y-60428D01*
X53810Y-60558D01*
X53884Y-60687D01*
X53939Y-60826D01*
X53995Y-60983D01*
X54032Y-61141D01*
X52746Y-61381D01*
Y-61372D01*
X52737Y-61363D01*
X52718Y-61307D01*
X52681Y-61224D01*
X52626Y-61113D01*
X52561Y-60993D01*
X52469Y-60872D01*
X52358Y-60752D01*
X52228Y-60641D01*
X52210Y-60632D01*
X52163Y-60595D01*
X52080Y-60549D01*
X51978Y-60502D01*
X51840Y-60447D01*
X51682Y-60410D01*
X51507Y-60373D01*
X51303Y-60364D01*
X51220D01*
X51164Y-60373D01*
X51090Y-60382D01*
X51007Y-60391D01*
X50915Y-60410D01*
X50813Y-60428D01*
X50600Y-60493D01*
X50489Y-60539D01*
X50378Y-60595D01*
X50267Y-60660D01*
X50156Y-60724D01*
X50054Y-60817D01*
X49953Y-60909D01*
X49943Y-60919D01*
X49934Y-60937D01*
X49906Y-60965D01*
X49879Y-61011D01*
X49842Y-61067D01*
X49795Y-61131D01*
X49749Y-61215D01*
X49712Y-61307D01*
X49666Y-61418D01*
X49620Y-61538D01*
X49573Y-61668D01*
X49536Y-61807D01*
X49509Y-61964D01*
X49481Y-62140D01*
X49472Y-62315D01*
X49462Y-62510D01*
Y-62519D01*
Y-62556D01*
Y-62621D01*
X49472Y-62695D01*
X49481Y-62796D01*
X49490Y-62898D01*
X49509Y-63028D01*
X49527Y-63157D01*
X49583Y-63435D01*
X49675Y-63721D01*
X49731Y-63860D01*
X49795Y-63990D01*
X49879Y-64119D01*
X49962Y-64230D01*
X49971Y-64239D01*
X49990Y-64258D01*
X50017Y-64286D01*
X50054Y-64323D01*
X50110Y-64360D01*
X50165Y-64415D01*
X50239Y-64461D01*
X50323Y-64517D01*
X50415Y-64572D01*
X50508Y-64619D01*
X50739Y-64711D01*
X50868Y-64748D01*
X50998Y-64776D01*
X51146Y-64794D01*
X51294Y-64804D01*
X51368D01*
X51442Y-64794D01*
X51553Y-64785D01*
X51673Y-64767D01*
X51812Y-64739D01*
X51960Y-64702D01*
X52108Y-64646D01*
X52117D01*
X52126Y-64637D01*
X52173Y-64619D01*
X52256Y-64582D01*
X52348Y-64535D01*
X52459Y-64480D01*
X52580Y-64415D01*
X52700Y-64341D01*
X52811Y-64258D01*
Y-63435D01*
X51331D01*
Y-62352D01*
X54115D01*
Y-64924D01*
X54097Y-64942D01*
X54069Y-64961D01*
X54041Y-64989D01*
X53995Y-65026D01*
X53949Y-65063D01*
X53819Y-65155D01*
X53643Y-65257D01*
X53440Y-65377D01*
X53209Y-65497D01*
X52931Y-65608D01*
X52922D01*
X52894Y-65618D01*
X52857Y-65636D01*
X52802Y-65655D01*
X52728Y-65673D01*
X52644Y-65701D01*
X52552Y-65729D01*
X52450Y-65756D01*
X52219Y-65812D01*
X51951Y-65858D01*
X51673Y-65895D01*
X51377Y-65904D01*
X51275D01*
X51211Y-65895D01*
X51118D01*
X51016Y-65886D01*
X50905Y-65867D01*
X50776Y-65849D01*
X50508Y-65803D01*
X50212Y-65729D01*
X49906Y-65627D01*
X49768Y-65562D01*
X49620Y-65488D01*
X49610Y-65479D01*
X49592Y-65470D01*
X49546Y-65442D01*
X49499Y-65405D01*
X49435Y-65368D01*
X49370Y-65312D01*
X49287Y-65248D01*
X49203Y-65174D01*
X49018Y-65007D01*
X48833Y-64794D01*
X48658Y-64554D01*
X48500Y-64276D01*
Y-64267D01*
X48482Y-64239D01*
X48463Y-64193D01*
X48445Y-64138D01*
X48417Y-64064D01*
X48380Y-63980D01*
X48352Y-63879D01*
X48315Y-63768D01*
X48278Y-63647D01*
X48251Y-63509D01*
X48186Y-63222D01*
X48149Y-62907D01*
X48130Y-62565D01*
Y-62556D01*
Y-62519D01*
Y-62463D01*
X48140Y-62399D01*
Y-62306D01*
X48149Y-62204D01*
X48167Y-62093D01*
X48186Y-61964D01*
X48232Y-61696D01*
X48306Y-61390D01*
X48408Y-61085D01*
X48473Y-60937D01*
X48547Y-60789D01*
X48556Y-60780D01*
X48565Y-60752D01*
X48593Y-60715D01*
X48621Y-60660D01*
X48667Y-60595D01*
X48722Y-60521D01*
X48787Y-60438D01*
X48852Y-60345D01*
X48935Y-60253D01*
X49028Y-60151D01*
X49129Y-60049D01*
X49240Y-59947D01*
X49361Y-59855D01*
X49481Y-59753D01*
X49768Y-59587D01*
X49777D01*
X49795Y-59568D01*
X49832Y-59559D01*
X49879Y-59531D01*
X49943Y-59513D01*
X50008Y-59485D01*
X50101Y-59457D01*
X50193Y-59420D01*
X50295Y-59392D01*
X50415Y-59365D01*
X50545Y-59337D01*
X50674Y-59309D01*
X50970Y-59272D01*
X51303Y-59263D01*
X51414D01*
X51497Y-59272D01*
D02*
G37*
G36*
X24987Y-63102D02*
Y-65784D01*
X23692D01*
Y-63092D01*
X21352Y-59383D01*
X22859D01*
X24367Y-61918D01*
X25838Y-59383D01*
X27327D01*
X24987Y-63102D01*
D02*
G37*
G36*
X93696Y-65784D02*
X92401D01*
X89802Y-61566D01*
Y-65784D01*
X88608D01*
Y-59383D01*
X89857D01*
X92503Y-63694D01*
Y-59383D01*
X93696D01*
Y-65784D01*
D02*
G37*
G36*
X60405D02*
X59110D01*
X56511Y-61566D01*
Y-65784D01*
X55318D01*
Y-59383D01*
X56566D01*
X59212Y-63694D01*
Y-59383D01*
X60405D01*
Y-65784D01*
D02*
G37*
G36*
X42294Y-59355D02*
X42377Y-59365D01*
X42460Y-59374D01*
X42562Y-59392D01*
X42664Y-59420D01*
X42895Y-59485D01*
X43015Y-59531D01*
X43145Y-59596D01*
X43265Y-59661D01*
X43376Y-59735D01*
X43496Y-59827D01*
X43598Y-59929D01*
X43607Y-59938D01*
X43616Y-59947D01*
X43644Y-59975D01*
X43672Y-60012D01*
X43746Y-60105D01*
X43829Y-60234D01*
X43912Y-60391D01*
X43977Y-60576D01*
X44033Y-60780D01*
X44042Y-60882D01*
X44051Y-60993D01*
Y-61002D01*
Y-61030D01*
X44042Y-61076D01*
X44033Y-61131D01*
X44023Y-61205D01*
X44005Y-61289D01*
X43977Y-61381D01*
X43940Y-61483D01*
X43885Y-61585D01*
X43829Y-61696D01*
X43755Y-61807D01*
X43663Y-61918D01*
X43552Y-62029D01*
X43431Y-62140D01*
X43293Y-62241D01*
X43126Y-62343D01*
X43135D01*
X43154Y-62352D01*
X43182D01*
X43219Y-62371D01*
X43320Y-62399D01*
X43441Y-62454D01*
X43579Y-62528D01*
X43727Y-62621D01*
X43875Y-62741D01*
X44005Y-62880D01*
X44023Y-62898D01*
X44060Y-62954D01*
X44107Y-63037D01*
X44171Y-63157D01*
X44236Y-63296D01*
X44282Y-63472D01*
X44319Y-63657D01*
X44338Y-63869D01*
Y-63879D01*
Y-63906D01*
Y-63953D01*
X44329Y-64008D01*
X44319Y-64082D01*
X44301Y-64165D01*
X44282Y-64267D01*
X44264Y-64369D01*
X44190Y-64591D01*
X44134Y-64711D01*
X44079Y-64841D01*
X44005Y-64961D01*
X43922Y-65081D01*
X43829Y-65201D01*
X43718Y-65312D01*
X43709Y-65322D01*
X43690Y-65340D01*
X43653Y-65368D01*
X43607Y-65405D01*
X43542Y-65451D01*
X43478Y-65497D01*
X43385Y-65553D01*
X43293Y-65608D01*
X43191Y-65664D01*
X43071Y-65719D01*
X42941Y-65766D01*
X42812Y-65812D01*
X42664Y-65849D01*
X42516Y-65877D01*
X42349Y-65895D01*
X42183Y-65904D01*
X42099D01*
X42035Y-65895D01*
X41961Y-65886D01*
X41877Y-65877D01*
X41785Y-65858D01*
X41674Y-65840D01*
X41452Y-65784D01*
X41211Y-65692D01*
X41082Y-65636D01*
X40971Y-65571D01*
X40851Y-65488D01*
X40740Y-65405D01*
X40730Y-65396D01*
X40712Y-65377D01*
X40684Y-65349D01*
X40647Y-65312D01*
X40601Y-65266D01*
X40555Y-65201D01*
X40499Y-65137D01*
X40444Y-65053D01*
X40388Y-64961D01*
X40323Y-64868D01*
X40222Y-64646D01*
X40138Y-64387D01*
X40101Y-64249D01*
X40083Y-64101D01*
X41267Y-63953D01*
Y-63962D01*
Y-63971D01*
X41276Y-64027D01*
X41295Y-64110D01*
X41322Y-64212D01*
X41369Y-64323D01*
X41415Y-64443D01*
X41489Y-64554D01*
X41572Y-64656D01*
X41581Y-64665D01*
X41618Y-64693D01*
X41674Y-64730D01*
X41739Y-64767D01*
X41831Y-64813D01*
X41933Y-64850D01*
X42044Y-64878D01*
X42173Y-64887D01*
X42192D01*
X42238Y-64878D01*
X42303Y-64868D01*
X42395Y-64850D01*
X42497Y-64813D01*
X42599Y-64767D01*
X42710Y-64693D01*
X42812Y-64600D01*
X42821Y-64591D01*
X42858Y-64545D01*
X42895Y-64480D01*
X42950Y-64397D01*
X42997Y-64286D01*
X43043Y-64147D01*
X43071Y-63990D01*
X43080Y-63814D01*
Y-63805D01*
Y-63795D01*
Y-63740D01*
X43071Y-63657D01*
X43052Y-63546D01*
X43015Y-63425D01*
X42969Y-63305D01*
X42904Y-63185D01*
X42821Y-63074D01*
X42812Y-63065D01*
X42775Y-63028D01*
X42719Y-62981D01*
X42654Y-62935D01*
X42562Y-62880D01*
X42460Y-62843D01*
X42349Y-62806D01*
X42220Y-62796D01*
X42127D01*
X42062Y-62806D01*
X41979Y-62815D01*
X41877Y-62833D01*
X41776Y-62861D01*
X41655Y-62889D01*
X41785Y-61899D01*
X41868D01*
X41961Y-61890D01*
X42072Y-61881D01*
X42192Y-61853D01*
X42321Y-61816D01*
X42442Y-61760D01*
X42553Y-61686D01*
X42562Y-61677D01*
X42599Y-61640D01*
X42636Y-61594D01*
X42691Y-61520D01*
X42738Y-61437D01*
X42784Y-61335D01*
X42812Y-61215D01*
X42821Y-61076D01*
Y-61057D01*
Y-61020D01*
X42812Y-60965D01*
X42793Y-60891D01*
X42775Y-60808D01*
X42738Y-60724D01*
X42691Y-60632D01*
X42627Y-60558D01*
X42617Y-60549D01*
X42590Y-60530D01*
X42553Y-60493D01*
X42488Y-60456D01*
X42414Y-60428D01*
X42331Y-60391D01*
X42220Y-60373D01*
X42109Y-60364D01*
X42053D01*
X41998Y-60373D01*
X41924Y-60391D01*
X41840Y-60419D01*
X41748Y-60456D01*
X41655Y-60512D01*
X41572Y-60586D01*
X41563Y-60595D01*
X41535Y-60623D01*
X41498Y-60678D01*
X41452Y-60752D01*
X41406Y-60835D01*
X41369Y-60946D01*
X41332Y-61076D01*
X41304Y-61224D01*
X40175Y-61039D01*
Y-61030D01*
X40185Y-61011D01*
Y-60983D01*
X40194Y-60937D01*
X40222Y-60835D01*
X40259Y-60697D01*
X40314Y-60549D01*
X40370Y-60391D01*
X40444Y-60243D01*
X40527Y-60105D01*
X40536Y-60086D01*
X40573Y-60049D01*
X40629Y-59984D01*
X40703Y-59901D01*
X40795Y-59818D01*
X40906Y-59725D01*
X41045Y-59633D01*
X41193Y-59550D01*
X41202D01*
X41211Y-59540D01*
X41267Y-59522D01*
X41359Y-59485D01*
X41470Y-59448D01*
X41609Y-59411D01*
X41776Y-59374D01*
X41951Y-59355D01*
X42146Y-59346D01*
X42229D01*
X42294Y-59355D01*
D02*
G37*
G36*
X99810Y-60465D02*
X96360D01*
Y-61881D01*
X99570D01*
Y-62963D01*
X96360D01*
Y-64702D01*
X99930D01*
Y-65784D01*
X95065Y-65784D01*
Y-59383D01*
X99810Y-59383D01*
Y-60465D01*
D02*
G37*
G36*
X87915Y-65784D02*
X86518D01*
X85963Y-64332D01*
X83391D01*
X82864Y-65784D01*
X81495D01*
X83974Y-59383D01*
X85343D01*
X87915Y-65784D01*
D02*
G37*
G36*
X78008Y-64702D02*
X81227D01*
Y-65784D01*
X76713D01*
Y-59429D01*
X78008D01*
Y-64702D01*
D02*
G37*
G36*
X73179Y-59392D02*
X73420D01*
X73679Y-59411D01*
X73938Y-59429D01*
X74049Y-59439D01*
X74160Y-59448D01*
X74252Y-59466D01*
X74326Y-59485D01*
X74336D01*
X74354Y-59494D01*
X74382Y-59503D01*
X74419Y-59513D01*
X74521Y-59559D01*
X74650Y-59614D01*
X74789Y-59698D01*
X74946Y-59809D01*
X75094Y-59947D01*
X75242Y-60114D01*
Y-60123D01*
X75261Y-60132D01*
X75279Y-60160D01*
X75298Y-60197D01*
X75335Y-60253D01*
X75362Y-60308D01*
X75399Y-60373D01*
X75436Y-60447D01*
X75501Y-60632D01*
X75566Y-60835D01*
X75603Y-61085D01*
X75621Y-61353D01*
Y-61363D01*
Y-61381D01*
Y-61409D01*
Y-61455D01*
X75612Y-61501D01*
Y-61566D01*
X75594Y-61696D01*
X75566Y-61853D01*
X75529Y-62029D01*
X75473Y-62195D01*
X75399Y-62352D01*
X75390Y-62371D01*
X75362Y-62417D01*
X75316Y-62491D01*
X75251Y-62584D01*
X75177Y-62676D01*
X75076Y-62787D01*
X74974Y-62889D01*
X74854Y-62981D01*
X74835Y-62991D01*
X74798Y-63018D01*
X74733Y-63055D01*
X74650Y-63102D01*
X74548Y-63157D01*
X74437Y-63203D01*
X74317Y-63250D01*
X74188Y-63287D01*
X74169D01*
X74141Y-63296D01*
X74104D01*
X74058Y-63305D01*
X73993Y-63314D01*
X73929Y-63324D01*
X73845D01*
X73762Y-63333D01*
X73660Y-63342D01*
X73549Y-63351D01*
X73429Y-63361D01*
X73300D01*
X73161Y-63370D01*
X72014D01*
Y-65784D01*
X70719D01*
Y-59383D01*
X73078D01*
X73179Y-59392D01*
D02*
G37*
G36*
X64401D02*
X64577Y-59402D01*
X64771Y-59411D01*
X64975Y-59439D01*
X65169Y-59466D01*
X65345Y-59513D01*
X65354D01*
X65372Y-59522D01*
X65400Y-59531D01*
X65437Y-59540D01*
X65548Y-59587D01*
X65678Y-59651D01*
X65826Y-59735D01*
X65992Y-59836D01*
X66149Y-59957D01*
X66307Y-60105D01*
X66316D01*
X66325Y-60123D01*
X66371Y-60179D01*
X66445Y-60271D01*
X66529Y-60391D01*
X66630Y-60539D01*
X66732Y-60715D01*
X66834Y-60919D01*
X66917Y-61141D01*
Y-61150D01*
X66926Y-61168D01*
X66936Y-61205D01*
X66954Y-61252D01*
X66963Y-61307D01*
X66982Y-61381D01*
X67000Y-61464D01*
X67028Y-61557D01*
X67047Y-61659D01*
X67065Y-61779D01*
X67084Y-61899D01*
X67093Y-62038D01*
X67121Y-62325D01*
X67130Y-62648D01*
Y-62658D01*
Y-62685D01*
Y-62722D01*
Y-62778D01*
X67121Y-62852D01*
Y-62926D01*
X67111Y-63018D01*
X67102Y-63120D01*
X67084Y-63333D01*
X67047Y-63555D01*
X66991Y-63786D01*
X66926Y-64008D01*
Y-64017D01*
X66917Y-64036D01*
X66899Y-64073D01*
X66880Y-64128D01*
X66862Y-64184D01*
X66825Y-64249D01*
X66751Y-64415D01*
X66658Y-64591D01*
X66538Y-64785D01*
X66399Y-64970D01*
X66242Y-65146D01*
X66223Y-65164D01*
X66177Y-65201D01*
X66103Y-65257D01*
X66001Y-65331D01*
X65872Y-65414D01*
X65724Y-65497D01*
X65539Y-65581D01*
X65335Y-65655D01*
X65326D01*
X65317Y-65664D01*
X65289D01*
X65261Y-65673D01*
X65160Y-65692D01*
X65030Y-65719D01*
X64873Y-65747D01*
X64679Y-65766D01*
X64447Y-65775D01*
X64198Y-65784D01*
X61774D01*
Y-59383D01*
X64327D01*
X64401Y-59392D01*
D02*
G37*
G36*
X36919Y-59392D02*
X37021D01*
X37123Y-59402D01*
X37243D01*
X37484Y-59429D01*
X37733Y-59457D01*
X37965Y-59503D01*
X38066Y-59531D01*
X38159Y-59559D01*
X38168D01*
X38177Y-59568D01*
X38233Y-59596D01*
X38316Y-59642D01*
X38427Y-59698D01*
X38547Y-59790D01*
X38668Y-59892D01*
X38788Y-60021D01*
X38899Y-60179D01*
Y-60188D01*
X38908Y-60197D01*
X38927Y-60225D01*
X38945Y-60253D01*
X38991Y-60345D01*
X39047Y-60465D01*
X39093Y-60613D01*
X39139Y-60780D01*
X39176Y-60974D01*
X39186Y-61178D01*
Y-61187D01*
Y-61205D01*
Y-61252D01*
X39176Y-61298D01*
Y-61363D01*
X39167Y-61427D01*
X39130Y-61594D01*
X39084Y-61788D01*
X39010Y-61982D01*
X38899Y-62186D01*
X38834Y-62278D01*
X38760Y-62371D01*
X38751Y-62380D01*
X38742Y-62389D01*
X38714Y-62417D01*
X38677Y-62445D01*
X38640Y-62482D01*
X38584Y-62528D01*
X38520Y-62574D01*
X38446Y-62621D01*
X38362Y-62676D01*
X38261Y-62722D01*
X38159Y-62769D01*
X38048Y-62815D01*
X37918Y-62861D01*
X37789Y-62898D01*
X37650Y-62935D01*
X37493Y-62963D01*
X37502D01*
X37511Y-62972D01*
X37567Y-63009D01*
X37641Y-63055D01*
X37733Y-63120D01*
X37844Y-63203D01*
X37955Y-63287D01*
X38076Y-63388D01*
X38177Y-63499D01*
X38187Y-63509D01*
X38233Y-63555D01*
X38288Y-63629D01*
X38372Y-63740D01*
X38483Y-63879D01*
X38538Y-63971D01*
X38603Y-64064D01*
X38677Y-64165D01*
X38751Y-64276D01*
X38834Y-64406D01*
X38917Y-64535D01*
X39704Y-65784D01*
X38150Y-65784D01*
X37225Y-64397D01*
X37215Y-64387D01*
X37206Y-64360D01*
X37178Y-64323D01*
X37141Y-64276D01*
X37104Y-64221D01*
X37058Y-64147D01*
X36956Y-63999D01*
X36836Y-63832D01*
X36725Y-63684D01*
X36623Y-63546D01*
X36577Y-63499D01*
X36540Y-63453D01*
X36531Y-63444D01*
X36512Y-63425D01*
X36475Y-63388D01*
X36429Y-63342D01*
X36364Y-63305D01*
X36300Y-63259D01*
X36226Y-63222D01*
X36152Y-63185D01*
X36142D01*
X36115Y-63176D01*
X36068Y-63157D01*
X35994Y-63148D01*
X35902Y-63129D01*
X35791Y-63120D01*
X35661Y-63111D01*
X35245D01*
Y-65784D01*
X33950D01*
Y-59383D01*
X36836D01*
X36919Y-59392D01*
D02*
G37*
G36*
X32729Y-60465D02*
X29279D01*
Y-61881D01*
X32489D01*
Y-62963D01*
X29279D01*
Y-64702D01*
X32849D01*
Y-65784D01*
X27984D01*
Y-59383D01*
X32729D01*
Y-60465D01*
D02*
G37*
G36*
X21324Y-65784D02*
X19927D01*
X19372Y-64332D01*
X16801D01*
X16273Y-65784D01*
X14904D01*
X17383Y-59383D01*
X18752D01*
X21324Y-65784D01*
D02*
G37*
G36*
X11417Y-64702D02*
X14636D01*
Y-65784D01*
X10122D01*
Y-59429D01*
X11417D01*
Y-64702D01*
D02*
G37*
G36*
X101512Y-59281D02*
X101531Y-59318D01*
X101568Y-59365D01*
X101614Y-59439D01*
X101669Y-59522D01*
X101734Y-59624D01*
X101799Y-59744D01*
X101873Y-59873D01*
X101956Y-60021D01*
X102039Y-60179D01*
X102123Y-60336D01*
X102206Y-60512D01*
X102372Y-60882D01*
X102520Y-61270D01*
Y-61279D01*
X102539Y-61316D01*
X102557Y-61372D01*
X102576Y-61455D01*
X102604Y-61548D01*
X102641Y-61659D01*
X102668Y-61788D01*
X102705Y-61936D01*
X102742Y-62084D01*
X102770Y-62251D01*
X102807Y-62436D01*
X102835Y-62621D01*
X102872Y-63000D01*
X102890Y-63407D01*
Y-63416D01*
Y-63444D01*
Y-63499D01*
Y-63564D01*
X102881Y-63647D01*
X102872Y-63749D01*
X102863Y-63869D01*
X102853Y-63999D01*
X102844Y-64138D01*
X102816Y-64286D01*
X102798Y-64452D01*
X102770Y-64619D01*
X102696Y-64979D01*
X102604Y-65368D01*
Y-65377D01*
X102585Y-65423D01*
X102567Y-65479D01*
X102539Y-65562D01*
X102502Y-65673D01*
X102456Y-65793D01*
X102409Y-65932D01*
X102345Y-66089D01*
X102271Y-66256D01*
X102197Y-66441D01*
X102104Y-66626D01*
X102012Y-66829D01*
X101901Y-67033D01*
X101790Y-67246D01*
X101669Y-67458D01*
X101531Y-67671D01*
X100680D01*
Y-67662D01*
X100698Y-67634D01*
X100717Y-67597D01*
X100735Y-67542D01*
X100772Y-67477D01*
X100800Y-67403D01*
X100883Y-67227D01*
X100966Y-67033D01*
X101050Y-66829D01*
X101124Y-66635D01*
X101188Y-66469D01*
Y-66459D01*
X101198Y-66450D01*
X101216Y-66395D01*
X101244Y-66311D01*
X101281Y-66200D01*
X101318Y-66062D01*
X101364Y-65895D01*
X101410Y-65719D01*
X101457Y-65525D01*
Y-65516D01*
X101466Y-65497D01*
Y-65470D01*
X101475Y-65433D01*
X101503Y-65331D01*
X101531Y-65192D01*
X101558Y-65035D01*
X101595Y-64859D01*
X101651Y-64498D01*
Y-64489D01*
Y-64480D01*
X101660Y-64452D01*
Y-64415D01*
X101669Y-64313D01*
X101688Y-64193D01*
X101697Y-64036D01*
X101706Y-63869D01*
X101716Y-63684D01*
Y-63499D01*
Y-63490D01*
Y-63453D01*
Y-63398D01*
Y-63324D01*
X101706Y-63231D01*
Y-63120D01*
X101697Y-63000D01*
X101688Y-62861D01*
X101679Y-62713D01*
X101660Y-62556D01*
X101614Y-62223D01*
X101558Y-61881D01*
X101484Y-61529D01*
Y-61520D01*
X101475Y-61483D01*
X101457Y-61437D01*
X101438Y-61363D01*
X101420Y-61270D01*
X101383Y-61168D01*
X101346Y-61039D01*
X101299Y-60900D01*
X101244Y-60743D01*
X101188Y-60567D01*
X101124Y-60382D01*
X101050Y-60188D01*
X100966Y-59975D01*
X100874Y-59753D01*
X100781Y-59513D01*
X100670Y-59272D01*
X101503D01*
X101512Y-59281D01*
D02*
G37*
G36*
X47409Y-59291D02*
X47390Y-59328D01*
X47363Y-59402D01*
X47326Y-59494D01*
X47270Y-59605D01*
X47215Y-59744D01*
X47159Y-59892D01*
X47094Y-60049D01*
X47020Y-60225D01*
X46956Y-60410D01*
X46817Y-60789D01*
X46697Y-61168D01*
X46641Y-61353D01*
X46595Y-61529D01*
Y-61538D01*
X46586Y-61566D01*
X46576Y-61622D01*
X46558Y-61686D01*
X46539Y-61779D01*
X46521Y-61881D01*
X46502Y-61992D01*
X46484Y-62121D01*
X46465Y-62260D01*
X46447Y-62417D01*
X46428Y-62574D01*
X46410Y-62750D01*
X46382Y-63111D01*
X46373Y-63499D01*
Y-63509D01*
Y-63527D01*
Y-63573D01*
Y-63620D01*
Y-63684D01*
X46382Y-63768D01*
Y-63851D01*
X46391Y-63953D01*
X46401Y-64175D01*
X46428Y-64424D01*
X46456Y-64693D01*
X46502Y-64970D01*
Y-64979D01*
X46512Y-65007D01*
Y-65044D01*
X46530Y-65100D01*
X46539Y-65164D01*
X46558Y-65238D01*
X46576Y-65331D01*
X46595Y-65423D01*
X46650Y-65645D01*
X46706Y-65886D01*
X46780Y-66136D01*
X46863Y-66385D01*
Y-66395D01*
X46872Y-66404D01*
X46882Y-66432D01*
X46891Y-66469D01*
X46909Y-66515D01*
X46937Y-66570D01*
X46956Y-66635D01*
X46993Y-66709D01*
X47030Y-66802D01*
X47067Y-66894D01*
X47113Y-66996D01*
X47159Y-67116D01*
X47215Y-67236D01*
X47270Y-67375D01*
X47335Y-67514D01*
X47409Y-67671D01*
X46567D01*
X46558Y-67662D01*
X46539Y-67625D01*
X46502Y-67569D01*
X46456Y-67495D01*
X46401Y-67403D01*
X46336Y-67292D01*
X46262Y-67162D01*
X46188Y-67024D01*
X46105Y-66876D01*
X46021Y-66709D01*
X45938Y-66533D01*
X45846Y-66358D01*
X45688Y-65969D01*
X45540Y-65571D01*
Y-65562D01*
X45522Y-65525D01*
X45513Y-65460D01*
X45485Y-65386D01*
X45457Y-65285D01*
X45429Y-65174D01*
X45402Y-65044D01*
X45374Y-64905D01*
X45337Y-64748D01*
X45309Y-64582D01*
X45254Y-64230D01*
X45217Y-63851D01*
X45198Y-63472D01*
Y-63453D01*
Y-63416D01*
Y-63351D01*
X45207Y-63259D01*
Y-63148D01*
X45217Y-63009D01*
X45235Y-62861D01*
X45254Y-62695D01*
X45272Y-62519D01*
X45300Y-62334D01*
X45374Y-61927D01*
X45485Y-61511D01*
X45550Y-61298D01*
X45624Y-61085D01*
Y-61076D01*
X45642Y-61039D01*
X45661Y-60993D01*
X45688Y-60919D01*
X45725Y-60835D01*
X45772Y-60734D01*
X45827Y-60613D01*
X45883Y-60493D01*
X45947Y-60354D01*
X46021Y-60216D01*
X46179Y-59910D01*
X46373Y-59587D01*
X46576Y-59272D01*
X47418D01*
X47409Y-59291D01*
D02*
G37*
%LPC*%
G36*
X28177Y88793D02*
X27670Y88693D01*
X27240Y88405D01*
X26952Y87975D01*
X26851Y87468D01*
X26952Y86961D01*
X27240Y86531D01*
X27258Y86519D01*
Y85917D01*
X27240Y85905D01*
X26952Y85475D01*
X26851Y84968D01*
X26952Y84461D01*
X27240Y84031D01*
X27670Y83743D01*
X28177Y83643D01*
X28684Y83743D01*
X29114Y84031D01*
X29402Y84461D01*
X29502Y84968D01*
X29402Y85475D01*
X29114Y85905D01*
X29096Y85917D01*
Y86519D01*
X29114Y86531D01*
X29402Y86961D01*
X29502Y87468D01*
X29402Y87975D01*
X29114Y88405D01*
X28684Y88693D01*
X28177Y88793D01*
D02*
G37*
G36*
X83278Y77840D02*
X80676D01*
X80675Y77840D01*
X80675Y77839D01*
Y69765D01*
X80675Y69764D01*
X80676Y69764D01*
X83278D01*
X83279Y69764D01*
X83279Y69765D01*
Y77839D01*
X83279Y77840D01*
X83278Y77840D01*
D02*
G37*
G36*
X79341D02*
X76739D01*
X76738Y77840D01*
X76738Y77839D01*
Y69765D01*
X76738Y69764D01*
X76739Y69764D01*
X79341D01*
X79342Y69764D01*
X79342Y69765D01*
Y77839D01*
X79342Y77840D01*
X79341Y77840D01*
D02*
G37*
G36*
X71467D02*
X68865D01*
X68864Y77840D01*
X68864Y77839D01*
Y69765D01*
X68864Y69764D01*
X68865Y69764D01*
X71467D01*
X71468Y69764D01*
X71468Y69765D01*
Y77839D01*
X71468Y77840D01*
X71467Y77840D01*
D02*
G37*
G36*
X67530D02*
X64928D01*
X64927Y77840D01*
X64927Y77839D01*
Y69765D01*
X64927Y69764D01*
X64928Y69764D01*
X67530D01*
X67531Y69764D01*
X67531Y69765D01*
Y77839D01*
X67531Y77840D01*
X67530Y77840D01*
D02*
G37*
G36*
X59656D02*
X57054D01*
X57053Y77840D01*
X57053Y77839D01*
Y69765D01*
X57053Y69764D01*
X57054Y69764D01*
X59656D01*
X59657Y69764D01*
X59657Y69765D01*
Y77839D01*
X59657Y77840D01*
X59656Y77840D01*
D02*
G37*
G36*
X55719D02*
X53117D01*
X53116Y77840D01*
X53116Y77839D01*
Y69765D01*
X53116Y69764D01*
X53117Y69764D01*
X55719D01*
X55720Y69764D01*
X55720Y69765D01*
Y77839D01*
X55720Y77840D01*
X55719Y77840D01*
D02*
G37*
G36*
X81912Y68919D02*
X81912Y68919D01*
X81912Y68919D01*
X78107D01*
X78107Y68919D01*
X78107Y68919D01*
X77933Y68911D01*
X77933Y68911D01*
X77933Y68911D01*
X77759Y68888D01*
X77759Y68888D01*
X77759Y68888D01*
X77588Y68850D01*
X77588Y68850D01*
X77588Y68850D01*
X77422Y68798D01*
X77422Y68798D01*
X77422D01*
X77261Y68731D01*
X77261Y68731D01*
X77261D01*
X77106Y68651D01*
X77106Y68651D01*
X77106Y68651D01*
X76959Y68557D01*
X76959Y68557D01*
X76959Y68557D01*
X76821Y68451D01*
X76821Y68450D01*
X76821Y68450D01*
X76692Y68332D01*
X76692Y68332D01*
X76692Y68332D01*
X76574Y68203D01*
X76574Y68203D01*
X76574Y68203D01*
X76468Y68065D01*
X76468Y68065D01*
X76468Y68065D01*
X76374Y67918D01*
X76374Y67918D01*
X76374Y67918D01*
X76293Y67763D01*
Y67763D01*
X76293Y67763D01*
X76227Y67602D01*
Y67602D01*
X76227Y67602D01*
X76174Y67435D01*
X76174Y67435D01*
X76174Y67435D01*
X76136Y67265D01*
X76136Y67265D01*
X76136Y67265D01*
X76114Y67092D01*
X76114Y67092D01*
X76113Y67092D01*
X76106Y66918D01*
X76106Y66918D01*
X76106Y66918D01*
X76113Y66743D01*
X76114Y66743D01*
X76114Y66743D01*
X76136Y66570D01*
X76136Y66570D01*
X76136Y66570D01*
X76174Y66400D01*
X76174Y66400D01*
Y66399D01*
X76227Y66233D01*
X76227Y66233D01*
Y66233D01*
X76293Y66071D01*
X76293Y66071D01*
X76293Y66071D01*
X76374Y65917D01*
X76374Y65917D01*
X76374Y65917D01*
X76468Y65769D01*
X76468Y65769D01*
X76468Y65769D01*
X76574Y65631D01*
X76574Y65631D01*
X76574Y65631D01*
X76692Y65502D01*
X76692Y65502D01*
X76692Y65502D01*
X76821Y65385D01*
X76821Y65385D01*
X76821Y65385D01*
X76959Y65278D01*
X76959Y65278D01*
X76959Y65278D01*
X77106Y65185D01*
X77106Y65185D01*
X77106Y65185D01*
X77261Y65104D01*
X77261D01*
X77261Y65104D01*
X77422Y65037D01*
X77422D01*
X77422Y65037D01*
X77588Y64985D01*
X77588Y64985D01*
X77588Y64985D01*
X77759Y64947D01*
X77759Y64947D01*
X77759Y64947D01*
X77933Y64924D01*
X77933Y64924D01*
X77933Y64924D01*
X78107Y64917D01*
X78107Y64917D01*
X78107Y64917D01*
X81912D01*
X81912Y64917D01*
X81912Y64917D01*
X82087Y64924D01*
X82087Y64924D01*
X82087Y64924D01*
X82260Y64947D01*
X82260Y64947D01*
X82260Y64947D01*
X82430Y64985D01*
X82430Y64985D01*
X82430Y64985D01*
X82596Y65037D01*
X82596Y65037D01*
X82596D01*
X82758Y65104D01*
X82758Y65104D01*
X82758Y65104D01*
X82912Y65185D01*
X82912Y65185D01*
X82912Y65185D01*
X83059Y65278D01*
X83059Y65278D01*
X83059Y65278D01*
X83198Y65385D01*
X83198Y65385D01*
X83198Y65385D01*
X83326Y65502D01*
X83326Y65502D01*
X83326Y65502D01*
X83444Y65631D01*
X83444Y65631D01*
X83444Y65631D01*
X83552Y65769D01*
X83552Y65769D01*
X83552Y65769D01*
X83644Y65917D01*
X83645Y65917D01*
X83645Y65917D01*
X83726Y66071D01*
Y66071D01*
X83726Y66071D01*
X83793Y66233D01*
Y66233D01*
X83793Y66233D01*
X83845Y66399D01*
Y66400D01*
X83845Y66400D01*
X83883Y66570D01*
X83883Y66570D01*
X83883Y66570D01*
X83906Y66743D01*
X83906Y66743D01*
X83906Y66743D01*
X83913Y66918D01*
X83913Y66918D01*
X83913Y66918D01*
X83906Y67092D01*
X83906Y67092D01*
X83906Y67092D01*
X83883Y67265D01*
X83883Y67265D01*
X83883Y67265D01*
X83845Y67435D01*
X83845Y67435D01*
Y67435D01*
X83793Y67602D01*
X83793Y67602D01*
Y67602D01*
X83726Y67763D01*
X83726Y67763D01*
Y67763D01*
X83645Y67918D01*
X83645Y67918D01*
X83644Y67918D01*
X83552Y68065D01*
X83552Y68065D01*
X83552Y68065D01*
X83444Y68203D01*
X83444Y68203D01*
X83444Y68203D01*
X83326Y68332D01*
X83326Y68332D01*
X83326Y68332D01*
X83198Y68450D01*
X83198Y68450D01*
X83198Y68451D01*
X83059Y68557D01*
X83059Y68557D01*
X83059Y68557D01*
X82912Y68651D01*
X82912Y68651D01*
X82912Y68651D01*
X82758Y68731D01*
X82758D01*
X82758Y68731D01*
X82596Y68798D01*
X82596D01*
X82596Y68798D01*
X82430Y68850D01*
X82430D01*
X82430Y68850D01*
X82260Y68888D01*
X82260Y68888D01*
X82260Y68888D01*
X82087Y68911D01*
X82087Y68911D01*
X82087Y68911D01*
X81912Y68919D01*
D02*
G37*
G36*
X99328Y72129D02*
X98821Y72029D01*
X98391Y71741D01*
X98103Y71311D01*
X98002Y70804D01*
X98103Y70297D01*
X98391Y69867D01*
X98821Y69579D01*
X98924Y69559D01*
Y69049D01*
X98821Y69029D01*
X98391Y68741D01*
X98103Y68311D01*
X98002Y67804D01*
X98103Y67297D01*
X98391Y66867D01*
X98821Y66579D01*
X99328Y66479D01*
X99835Y66579D01*
X100265Y66867D01*
X100553Y67297D01*
X100654Y67804D01*
X100553Y68311D01*
X100265Y68741D01*
X99835Y69029D01*
X99732Y69049D01*
Y69559D01*
X99835Y69579D01*
X100265Y69867D01*
X100553Y70297D01*
X100654Y70804D01*
X100553Y71311D01*
X100265Y71741D01*
X99835Y72029D01*
X99328Y72129D01*
D02*
G37*
G36*
X32977Y64000D02*
X32977Y64000D01*
X32977Y64000D01*
X32802Y63992D01*
X32802Y63992D01*
X32802Y63992D01*
X32629Y63970D01*
X32629Y63970D01*
X32629Y63970D01*
X32459Y63933D01*
X32459Y63933D01*
X32459D01*
X32293Y63880D01*
X32293Y63880D01*
X32293D01*
X32131Y63814D01*
X32131Y63814D01*
X32131Y63814D01*
X31977Y63733D01*
X31977Y63733D01*
X31976Y63733D01*
X31828Y63639D01*
X31828Y63639D01*
X31828Y63639D01*
X31690Y63533D01*
X31690Y63533D01*
X31690Y63533D01*
X31561Y63415D01*
X31561Y63415D01*
X31561Y63415D01*
X31444Y63285D01*
X31444Y63285D01*
X31444Y63285D01*
X31337Y63148D01*
X31337Y63148D01*
X31337Y63148D01*
X31244Y63000D01*
X31244Y62999D01*
X31244Y62999D01*
X31163Y62845D01*
Y62844D01*
X31163Y62844D01*
X31096Y62683D01*
Y62683D01*
X31096Y62683D01*
X31044Y62517D01*
Y62517D01*
X31044Y62517D01*
X31006Y62347D01*
X31006Y62347D01*
X31006Y62347D01*
X30983Y62174D01*
X30983Y62174D01*
X30983Y62174D01*
X30976Y61999D01*
X30976Y61999D01*
X30976Y61999D01*
Y58194D01*
X30976Y58194D01*
X30976Y58194D01*
X30983Y58019D01*
X30983Y58019D01*
X30983Y58019D01*
X31006Y57847D01*
X31006Y57847D01*
X31006Y57847D01*
X31044Y57676D01*
X31044Y57676D01*
X31044Y57676D01*
X31096Y57510D01*
X31096Y57510D01*
Y57510D01*
X31163Y57349D01*
X31163Y57349D01*
Y57349D01*
X31244Y57193D01*
X31244Y57193D01*
X31244Y57193D01*
X31337Y57047D01*
X31337Y57047D01*
X31337Y57047D01*
X31444Y56907D01*
X31444Y56907D01*
X31444Y56907D01*
X31561Y56780D01*
X31561Y56780D01*
X31561Y56780D01*
X31690Y56662D01*
X31690Y56662D01*
X31690Y56662D01*
X31828Y56555D01*
X31828Y56555D01*
X31828Y56555D01*
X31976Y56462D01*
X31977Y56462D01*
X31977Y56462D01*
X32131Y56381D01*
X32131D01*
X32131Y56381D01*
X32293Y56314D01*
X32293D01*
X32293Y56314D01*
X32459Y56262D01*
X32459D01*
X32459Y56262D01*
X32629Y56223D01*
X32629Y56223D01*
X32629Y56223D01*
X32802Y56200D01*
X32802Y56200D01*
X32802Y56200D01*
X32977Y56193D01*
X32977Y56193D01*
X32977Y56193D01*
X33151Y56200D01*
X33151Y56200D01*
X33151Y56200D01*
X33324Y56223D01*
X33324Y56223D01*
X33324Y56223D01*
X33494Y56262D01*
X33494Y56262D01*
X33494D01*
X33661Y56314D01*
X33661Y56314D01*
X33661D01*
X33822Y56381D01*
X33822Y56381D01*
X33823D01*
X33977Y56462D01*
X33977Y56462D01*
X33978Y56462D01*
X34125Y56555D01*
X34125Y56555D01*
X34125Y56555D01*
X34263Y56662D01*
X34263Y56662D01*
X34263Y56662D01*
X34392Y56780D01*
X34392Y56780D01*
X34392Y56780D01*
X34510Y56907D01*
X34510Y56907D01*
X34510Y56907D01*
X34616Y57047D01*
X34616Y57047D01*
X34616Y57047D01*
X34710Y57193D01*
X34710Y57193D01*
X34710Y57193D01*
X34790Y57349D01*
Y57349D01*
X34790Y57349D01*
X34857Y57510D01*
Y57510D01*
X34857Y57510D01*
X34909Y57676D01*
X34909Y57676D01*
X34909Y57676D01*
X34947Y57847D01*
X34947Y57847D01*
X34947Y57847D01*
X34970Y58019D01*
X34970Y58019D01*
X34970Y58019D01*
X34978Y58194D01*
X34978Y58194D01*
X34978Y58194D01*
Y61999D01*
X34978Y61999D01*
X34978Y61999D01*
X34970Y62174D01*
X34970Y62174D01*
X34970Y62174D01*
X34947Y62347D01*
X34947Y62347D01*
X34947Y62347D01*
X34909Y62517D01*
X34909Y62517D01*
X34909Y62517D01*
X34857Y62683D01*
X34857Y62683D01*
Y62683D01*
X34790Y62844D01*
X34790Y62844D01*
Y62845D01*
X34710Y62999D01*
X34710Y62999D01*
X34710Y63000D01*
X34616Y63148D01*
X34616Y63148D01*
X34616Y63148D01*
X34510Y63285D01*
X34510Y63285D01*
X34510Y63285D01*
X34392Y63415D01*
X34392Y63415D01*
X34392Y63415D01*
X34263Y63533D01*
X34263Y63533D01*
X34263Y63533D01*
X34125Y63639D01*
X34125Y63639D01*
X34125Y63639D01*
X33978Y63733D01*
X33977Y63733D01*
X33977Y63733D01*
X33823Y63814D01*
X33822D01*
X33822Y63814D01*
X33661Y63880D01*
X33661D01*
X33661Y63880D01*
X33494Y63933D01*
X33494D01*
X33494Y63933D01*
X33324Y63970D01*
X33324Y63970D01*
X33324Y63970D01*
X33151Y63992D01*
X33151Y63992D01*
X33151Y63992D01*
X32977Y64000D01*
D02*
G37*
G36*
X114239Y62129D02*
X113732Y62029D01*
X113302Y61741D01*
X113014Y61311D01*
X112914Y60804D01*
X113014Y60297D01*
X113302Y59867D01*
X113732Y59579D01*
X114239Y59478D01*
X114746Y59579D01*
X115176Y59867D01*
X115464Y60297D01*
X115565Y60804D01*
X115464Y61311D01*
X115176Y61741D01*
X114746Y62029D01*
X114239Y62129D01*
D02*
G37*
G36*
X110105D02*
X109598Y62029D01*
X109168Y61741D01*
X108880Y61311D01*
X108780Y60804D01*
X108880Y60297D01*
X109168Y59867D01*
X109598Y59579D01*
X110105Y59478D01*
X110612Y59579D01*
X111042Y59867D01*
X111330Y60297D01*
X111431Y60804D01*
X111330Y61311D01*
X111042Y61741D01*
X110612Y62029D01*
X110105Y62129D01*
D02*
G37*
G36*
X114177Y58494D02*
X113670Y58393D01*
X113240Y58105D01*
X112952Y57675D01*
X112852Y57168D01*
X112952Y56661D01*
X113240Y56231D01*
X113670Y55943D01*
X114177Y55843D01*
X114684Y55943D01*
X115114Y56231D01*
X115402Y56661D01*
X115503Y57168D01*
X115402Y57675D01*
X115114Y58105D01*
X114684Y58393D01*
X114177Y58494D01*
D02*
G37*
G36*
X78716Y53797D02*
X78716Y53797D01*
X78716Y53797D01*
X74911D01*
X74911Y53797D01*
X74911Y53797D01*
X74737Y53789D01*
X74737Y53789D01*
X74737Y53789D01*
X74564Y53766D01*
X74564Y53766D01*
X74564Y53766D01*
X74393Y53728D01*
X74393Y53728D01*
X74393Y53728D01*
X74227Y53676D01*
X74227Y53676D01*
X74227D01*
X74066Y53609D01*
X74066Y53609D01*
X74066D01*
X73910Y53529D01*
X73910Y53529D01*
X73910Y53529D01*
X73763Y53435D01*
X73763Y53435D01*
X73763Y53435D01*
X73625Y53329D01*
X73625Y53329D01*
X73625Y53329D01*
X73496Y53211D01*
X73496Y53211D01*
X73496Y53211D01*
X73378Y53082D01*
X73378Y53082D01*
X73378Y53082D01*
X73272Y52944D01*
X73272Y52944D01*
X73272Y52944D01*
X73178Y52797D01*
X73178Y52797D01*
X73178Y52797D01*
X73097Y52641D01*
Y52641D01*
X73097Y52641D01*
X73031Y52480D01*
Y52480D01*
X73031Y52480D01*
X72978Y52313D01*
X72978Y52313D01*
X72978Y52313D01*
X72940Y52143D01*
X72940Y52143D01*
X72940Y52143D01*
X72918Y51970D01*
X72918Y51970D01*
X72918Y51970D01*
X72910Y51796D01*
X72910Y51796D01*
X72910Y51796D01*
X72918Y51621D01*
X72918Y51621D01*
X72918Y51621D01*
X72940Y51448D01*
X72940Y51448D01*
X72940Y51448D01*
X72978Y51278D01*
X72978Y51278D01*
Y51278D01*
X73031Y51112D01*
X73031Y51112D01*
Y51112D01*
X73097Y50950D01*
X73097Y50950D01*
X73097Y50950D01*
X73178Y50796D01*
X73178Y50796D01*
X73178Y50795D01*
X73272Y50647D01*
X73272Y50647D01*
X73272Y50647D01*
X73378Y50509D01*
X73378Y50509D01*
X73378Y50509D01*
X73496Y50380D01*
X73496Y50380D01*
X73496Y50380D01*
X73625Y50263D01*
X73625Y50263D01*
X73625Y50263D01*
X73763Y50156D01*
X73763Y50156D01*
X73763Y50156D01*
X73910Y50063D01*
X73910Y50063D01*
X73910Y50063D01*
X74066Y49982D01*
X74066D01*
X74066Y49982D01*
X74227Y49915D01*
X74227D01*
X74227Y49915D01*
X74393Y49863D01*
X74393Y49863D01*
X74393Y49863D01*
X74564Y49825D01*
X74564Y49825D01*
X74564Y49825D01*
X74737Y49802D01*
X74737Y49802D01*
X74737Y49802D01*
X74911Y49795D01*
X74911Y49795D01*
X74911Y49795D01*
X78716D01*
X78716Y49795D01*
X78716Y49795D01*
X78891Y49802D01*
X78891Y49802D01*
X78891Y49802D01*
X79064Y49825D01*
X79064Y49825D01*
X79064Y49825D01*
X79234Y49863D01*
X79234Y49863D01*
X79234Y49863D01*
X79400Y49915D01*
X79400Y49915D01*
X79400D01*
X79562Y49982D01*
X79562Y49982D01*
X79562Y49982D01*
X79716Y50063D01*
X79716Y50063D01*
X79717Y50063D01*
X79864Y50156D01*
X79864Y50156D01*
X79864Y50156D01*
X80003Y50263D01*
X80003Y50263D01*
X80003Y50263D01*
X80131Y50380D01*
X80131Y50380D01*
X80131Y50380D01*
X80249Y50509D01*
X80249Y50509D01*
X80249Y50509D01*
X80356Y50647D01*
X80356Y50647D01*
X80356Y50647D01*
X80449Y50795D01*
X80449Y50796D01*
X80449Y50796D01*
X80530Y50950D01*
Y50950D01*
X80530Y50950D01*
X80597Y51112D01*
Y51112D01*
X80597Y51112D01*
X80649Y51278D01*
Y51278D01*
X80649Y51278D01*
X80687Y51448D01*
X80687Y51448D01*
X80687Y51448D01*
X80710Y51621D01*
X80710Y51621D01*
X80710Y51621D01*
X80717Y51796D01*
X80717Y51796D01*
X80717Y51796D01*
X80710Y51970D01*
X80710Y51970D01*
X80710Y51970D01*
X80687Y52143D01*
X80687Y52143D01*
X80687Y52143D01*
X80649Y52313D01*
X80649Y52313D01*
Y52313D01*
X80597Y52480D01*
X80597Y52480D01*
Y52480D01*
X80530Y52641D01*
X80530Y52641D01*
Y52641D01*
X80449Y52797D01*
X80449Y52797D01*
X80449Y52797D01*
X80356Y52944D01*
X80356Y52944D01*
X80356Y52944D01*
X80249Y53082D01*
X80249Y53082D01*
X80249Y53082D01*
X80131Y53211D01*
X80131Y53211D01*
X80131Y53211D01*
X80003Y53329D01*
X80003Y53329D01*
X80003Y53329D01*
X79864Y53435D01*
X79864Y53435D01*
X79864Y53435D01*
X79717Y53529D01*
X79716Y53529D01*
X79716Y53529D01*
X79562Y53609D01*
X79562D01*
X79562Y53609D01*
X79400Y53676D01*
X79400D01*
X79400Y53676D01*
X79234Y53728D01*
X79234D01*
X79234Y53728D01*
X79064Y53766D01*
X79064Y53766D01*
X79064Y53766D01*
X78891Y53789D01*
X78891Y53789D01*
X78891Y53789D01*
X78716Y53797D01*
D02*
G37*
G36*
X110177Y55902D02*
X109670Y55801D01*
X109240Y55513D01*
X108952Y55083D01*
X108852Y54576D01*
X108952Y54069D01*
X109240Y53639D01*
X109670Y53351D01*
X110177Y53251D01*
X110684Y53351D01*
X111114Y53639D01*
X111401Y54069D01*
X111502Y54576D01*
X111401Y55083D01*
X111114Y55513D01*
X110684Y55801D01*
X110177Y55902D01*
D02*
G37*
G36*
X107077Y50994D02*
X106570Y50893D01*
X106140Y50605D01*
X106128Y50587D01*
X105526D01*
X105514Y50605D01*
X105084Y50893D01*
X104577Y50994D01*
X104070Y50893D01*
X103640Y50605D01*
X103352Y50175D01*
X103252Y49668D01*
X103352Y49161D01*
X103640Y48731D01*
X104070Y48443D01*
X104577Y48342D01*
X105084Y48443D01*
X105514Y48731D01*
X105526Y48749D01*
X106128D01*
X106140Y48731D01*
X106570Y48443D01*
X107077Y48342D01*
X107584Y48443D01*
X108014Y48731D01*
X108302Y49161D01*
X108403Y49668D01*
X108302Y50175D01*
X108014Y50605D01*
X107584Y50893D01*
X107077Y50994D01*
D02*
G37*
G36*
X49637Y47118D02*
X49637Y47118D01*
X49636Y47118D01*
X49461Y47110D01*
X49461Y47110D01*
X49461Y47110D01*
X49288Y47088D01*
X49288Y47088D01*
X49288Y47088D01*
X49118Y47050D01*
X49118Y47050D01*
X49118D01*
X48952Y46997D01*
X48952Y46997D01*
X48952D01*
X48790Y46931D01*
X48790Y46931D01*
X48790Y46931D01*
X48636Y46850D01*
X48636Y46850D01*
X48636Y46850D01*
X48488Y46756D01*
X48488Y46756D01*
X48488Y46755D01*
X48350Y46650D01*
X48350Y46650D01*
X48350Y46650D01*
X48221Y46532D01*
X48221Y46531D01*
X48221Y46531D01*
X48104Y46402D01*
X48104Y46402D01*
X48104Y46402D01*
X47997Y46264D01*
X47997Y46264D01*
X47997Y46264D01*
X47904Y46117D01*
X47903Y46117D01*
X47903Y46117D01*
X47822Y45962D01*
Y45962D01*
X47822Y45962D01*
X47756Y45801D01*
Y45801D01*
X47755Y45801D01*
X47703Y45635D01*
X47703Y45635D01*
X47703Y45635D01*
X47665Y45464D01*
X47665Y45464D01*
X47665Y45464D01*
X47642Y45291D01*
X47642Y45291D01*
X47642Y45291D01*
X47635Y45117D01*
X47635Y45117D01*
X47635Y45117D01*
Y41312D01*
X47635Y41312D01*
X47635Y41312D01*
X47642Y41137D01*
X47642Y41137D01*
X47642Y41137D01*
X47665Y40964D01*
X47665Y40964D01*
X47665Y40964D01*
X47703Y40793D01*
X47703Y40793D01*
X47703Y40793D01*
X47755Y40627D01*
X47756Y40627D01*
Y40627D01*
X47822Y40465D01*
X47822Y40465D01*
X47822Y40465D01*
X47903Y40311D01*
X47903Y40311D01*
X47904Y40311D01*
X47997Y40164D01*
X47997Y40164D01*
X47997Y40164D01*
X48104Y40025D01*
X48104Y40025D01*
X48104Y40025D01*
X48221Y39897D01*
X48221Y39897D01*
X48221Y39897D01*
X48350Y39779D01*
X48350Y39779D01*
X48350Y39779D01*
X48488Y39672D01*
X48488Y39672D01*
X48488Y39672D01*
X48636Y39579D01*
X48636Y39579D01*
X48636Y39579D01*
X48790Y39498D01*
X48790D01*
X48790Y39498D01*
X48952Y39431D01*
X48952D01*
X48952Y39431D01*
X49118Y39379D01*
X49118D01*
X49118Y39379D01*
X49288Y39341D01*
X49288Y39341D01*
X49288Y39341D01*
X49461Y39318D01*
X49461Y39318D01*
X49461Y39318D01*
X49636Y39311D01*
X49637Y39311D01*
X49637Y39311D01*
X49810Y39318D01*
X49811Y39318D01*
X49811Y39318D01*
X49984Y39341D01*
X49984Y39341D01*
X49984Y39341D01*
X50154Y39379D01*
X50154Y39379D01*
X50154D01*
X50321Y39431D01*
X50321Y39431D01*
X50321D01*
X50482Y39498D01*
X50482Y39498D01*
X50482D01*
X50637Y39579D01*
X50637Y39579D01*
X50637Y39579D01*
X50784Y39672D01*
X50784Y39672D01*
X50784Y39672D01*
X50922Y39779D01*
X50922Y39779D01*
X50922Y39779D01*
X51051Y39897D01*
X51051Y39897D01*
X51051Y39897D01*
X51169Y40025D01*
X51169Y40025D01*
X51169Y40025D01*
X51275Y40164D01*
X51275Y40164D01*
X51275Y40164D01*
X51369Y40311D01*
X51369Y40311D01*
X51369Y40311D01*
X51449Y40465D01*
Y40465D01*
X51450Y40465D01*
X51516Y40627D01*
Y40627D01*
X51516Y40627D01*
X51569Y40793D01*
Y40793D01*
X51569Y40793D01*
X51607Y40964D01*
X51607Y40964D01*
X51607Y40964D01*
X51630Y41137D01*
X51630Y41137D01*
X51630Y41137D01*
X51638Y41312D01*
X51638Y41312D01*
X51638Y41312D01*
Y45117D01*
X51638Y45117D01*
X51638Y45117D01*
X51630Y45291D01*
X51630Y45291D01*
X51630Y45291D01*
X51607Y45464D01*
X51607Y45464D01*
X51607Y45464D01*
X51569Y45635D01*
X51569Y45635D01*
X51569Y45635D01*
X51516Y45801D01*
X51516Y45801D01*
Y45801D01*
X51450Y45962D01*
X51449Y45962D01*
Y45962D01*
X51369Y46117D01*
X51369Y46117D01*
X51369Y46117D01*
X51275Y46264D01*
X51275Y46264D01*
X51275Y46264D01*
X51169Y46402D01*
X51169Y46402D01*
X51169Y46402D01*
X51051Y46531D01*
X51051Y46531D01*
X51051Y46532D01*
X50922Y46650D01*
X50922Y46650D01*
X50922Y46650D01*
X50784Y46755D01*
X50784Y46756D01*
X50784Y46756D01*
X50637Y46850D01*
X50637Y46850D01*
X50637Y46850D01*
X50482Y46931D01*
X50482D01*
X50482Y46931D01*
X50321Y46997D01*
X50321D01*
X50321Y46997D01*
X50154Y47050D01*
X50154Y47050D01*
X50154Y47050D01*
X49984Y47088D01*
X49984Y47088D01*
X49984Y47088D01*
X49811Y47110D01*
X49811Y47110D01*
X49810Y47110D01*
X49637Y47118D01*
D02*
G37*
G36*
X35816Y40984D02*
X35816Y40984D01*
X35816Y40984D01*
X35641Y40976D01*
X35641Y40976D01*
X35641Y40976D01*
X35468Y40954D01*
X35468Y40954D01*
X35468Y40954D01*
X35298Y40916D01*
X35298Y40916D01*
X35298D01*
X35131Y40863D01*
X35131Y40863D01*
X35131D01*
X34969Y40797D01*
X34969Y40797D01*
X34969Y40797D01*
X34815Y40716D01*
X34815Y40716D01*
X34815Y40716D01*
X34667Y40622D01*
X34667Y40622D01*
X34667Y40622D01*
X34529Y40516D01*
X34529Y40515D01*
X34529Y40515D01*
X34400Y40397D01*
X34400Y40397D01*
X34400Y40397D01*
X34283Y40268D01*
X34283Y40268D01*
X34283Y40268D01*
X34176Y40130D01*
X34176Y40130D01*
X34176Y40130D01*
X34083Y39983D01*
X34083Y39983D01*
X34083Y39983D01*
X34002Y39828D01*
Y39828D01*
X34002Y39828D01*
X33935Y39667D01*
Y39667D01*
X33935Y39667D01*
X33883Y39501D01*
X33883Y39501D01*
X33883Y39501D01*
X33845Y39330D01*
X33845Y39330D01*
X33845Y39330D01*
X33822Y39157D01*
X33822Y39157D01*
X33822Y39157D01*
X33815Y38983D01*
X33815Y38983D01*
X33815Y38983D01*
Y35178D01*
X33815Y35178D01*
X33815Y35178D01*
X33822Y35003D01*
X33822Y35002D01*
X33822Y35002D01*
X33845Y34830D01*
X33845Y34830D01*
X33845Y34829D01*
X33883Y34659D01*
X33883Y34659D01*
X33883Y34659D01*
X33935Y34493D01*
X33935Y34493D01*
Y34493D01*
X34002Y34331D01*
X34002Y34331D01*
X34002Y34331D01*
X34083Y34177D01*
X34083Y34177D01*
X34083Y34177D01*
X34176Y34030D01*
X34176Y34030D01*
X34176Y34030D01*
X34283Y33891D01*
X34283Y33891D01*
X34283Y33891D01*
X34400Y33763D01*
X34400Y33763D01*
X34400Y33763D01*
X34529Y33645D01*
X34529Y33645D01*
X34529Y33645D01*
X34667Y33538D01*
X34667Y33538D01*
X34667Y33538D01*
X34815Y33445D01*
X34815Y33445D01*
X34815Y33445D01*
X34969Y33364D01*
X34969D01*
X34969Y33364D01*
X35131Y33297D01*
X35131D01*
X35131Y33297D01*
X35298Y33245D01*
X35298D01*
X35298Y33245D01*
X35468Y33207D01*
X35468Y33207D01*
X35468Y33207D01*
X35641Y33184D01*
X35641Y33184D01*
X35641Y33184D01*
X35816Y33176D01*
X35816Y33177D01*
X35816Y33176D01*
X35990Y33184D01*
X35990Y33184D01*
X35990Y33184D01*
X36163Y33207D01*
X36163Y33207D01*
X36163Y33207D01*
X36333Y33245D01*
X36333Y33245D01*
X36333D01*
X36500Y33297D01*
X36500Y33297D01*
X36500D01*
X36661Y33364D01*
X36661Y33364D01*
X36661D01*
X36816Y33445D01*
X36816Y33445D01*
X36816Y33445D01*
X36963Y33538D01*
X36963Y33538D01*
X36963Y33538D01*
X37102Y33645D01*
X37102Y33645D01*
X37102Y33645D01*
X37231Y33763D01*
X37231Y33763D01*
X37231Y33763D01*
X37349Y33891D01*
X37349Y33891D01*
X37349Y33891D01*
X37455Y34030D01*
X37455Y34030D01*
X37455Y34030D01*
X37549Y34177D01*
X37549Y34177D01*
X37549Y34177D01*
X37629Y34331D01*
Y34331D01*
X37629Y34331D01*
X37696Y34493D01*
Y34493D01*
X37696Y34493D01*
X37748Y34659D01*
Y34659D01*
X37748Y34659D01*
X37786Y34829D01*
X37786Y34829D01*
X37786Y34830D01*
X37809Y35002D01*
X37809Y35002D01*
X37809Y35003D01*
X37817Y35178D01*
X37817Y35178D01*
X37817Y35178D01*
Y38983D01*
X37817Y38983D01*
X37817Y38983D01*
X37809Y39157D01*
X37809Y39157D01*
X37809Y39157D01*
X37786Y39330D01*
X37786Y39330D01*
X37786Y39330D01*
X37748Y39501D01*
X37748Y39501D01*
X37748Y39501D01*
X37696Y39667D01*
X37696Y39667D01*
Y39667D01*
X37629Y39828D01*
X37629Y39828D01*
Y39828D01*
X37549Y39983D01*
X37549Y39983D01*
X37549Y39983D01*
X37455Y40130D01*
X37455Y40130D01*
X37455Y40130D01*
X37349Y40268D01*
X37349Y40268D01*
X37349Y40268D01*
X37231Y40397D01*
X37231Y40397D01*
X37231Y40397D01*
X37102Y40515D01*
X37102Y40515D01*
X37102Y40516D01*
X36963Y40622D01*
X36963Y40622D01*
X36963Y40622D01*
X36816Y40716D01*
X36816Y40716D01*
X36816Y40716D01*
X36661Y40797D01*
X36661D01*
X36661Y40797D01*
X36500Y40863D01*
X36500D01*
X36500Y40863D01*
X36333Y40916D01*
X36333Y40916D01*
X36333Y40916D01*
X36163Y40954D01*
X36163Y40954D01*
X36163Y40954D01*
X35990Y40976D01*
X35990Y40976D01*
X35990Y40976D01*
X35816Y40984D01*
D02*
G37*
G36*
X115177Y38993D02*
X114670Y38893D01*
X114240Y38605D01*
X113998Y38243D01*
X113727Y38206D01*
X113456Y38243D01*
X113214Y38605D01*
X112784Y38893D01*
X112277Y38993D01*
X111770Y38893D01*
X111340Y38605D01*
X111052Y38175D01*
X110951Y37668D01*
X111052Y37161D01*
X111340Y36731D01*
X111770Y36443D01*
X112277Y36342D01*
X112784Y36443D01*
X113214Y36731D01*
X113456Y37093D01*
X113727Y37130D01*
X113998Y37093D01*
X114240Y36731D01*
X114670Y36443D01*
X115177Y36342D01*
X115684Y36443D01*
X116114Y36731D01*
X116402Y37161D01*
X116502Y37668D01*
X116402Y38175D01*
X116114Y38605D01*
X115684Y38893D01*
X115177Y38993D01*
D02*
G37*
G36*
X95677D02*
X95170Y38893D01*
X94740Y38605D01*
X94452Y38175D01*
X94352Y37668D01*
X94452Y37161D01*
X94740Y36731D01*
X95170Y36443D01*
X95677Y36342D01*
X96184Y36443D01*
X96614Y36731D01*
X96902Y37161D01*
X97003Y37668D01*
X96902Y38175D01*
X96614Y38605D01*
X96184Y38893D01*
X95677Y38993D01*
D02*
G37*
G36*
X77563Y34661D02*
X77563Y34661D01*
X77563Y34661D01*
X73759D01*
X73759Y34661D01*
X73759Y34661D01*
X73585Y34653D01*
X73585Y34653D01*
X73585Y34653D01*
X73411Y34630D01*
X73411Y34630D01*
X73411Y34630D01*
X73241Y34592D01*
X73241Y34592D01*
X73241Y34592D01*
X73075Y34540D01*
X73075Y34540D01*
X73075D01*
X72913Y34473D01*
X72913Y34473D01*
X72913D01*
X72759Y34393D01*
X72759Y34393D01*
X72758Y34393D01*
X72610Y34299D01*
X72610Y34299D01*
X72610Y34299D01*
X72472Y34193D01*
X72472Y34193D01*
X72472Y34193D01*
X72344Y34075D01*
X72344Y34075D01*
X72344Y34075D01*
X72226Y33946D01*
X72226Y33946D01*
X72226Y33946D01*
X72119Y33808D01*
X72119Y33808D01*
X72119Y33808D01*
X72026Y33661D01*
X72026Y33661D01*
X72026Y33661D01*
X71944Y33505D01*
X71944Y33505D01*
X71944Y33505D01*
X71878Y33344D01*
Y33344D01*
X71878Y33344D01*
X71826Y33177D01*
Y33177D01*
X71826Y33177D01*
X71787Y33007D01*
X71787Y33007D01*
X71787Y33007D01*
X71766Y32834D01*
X71766Y32834D01*
X71766Y32834D01*
X71758Y32660D01*
X71758Y32660D01*
X71758Y32660D01*
X71766Y32485D01*
X71766Y32485D01*
X71766Y32485D01*
X71787Y32312D01*
X71787Y32312D01*
X71787Y32312D01*
X71826Y32142D01*
X71826Y32142D01*
X71826Y32142D01*
X71878Y31976D01*
X71878Y31976D01*
Y31976D01*
X71944Y31814D01*
X71944Y31813D01*
X71944Y31813D01*
X72026Y31659D01*
X72026Y31659D01*
X72026Y31659D01*
X72119Y31511D01*
X72119Y31511D01*
X72119Y31511D01*
X72226Y31373D01*
X72226Y31373D01*
X72226Y31373D01*
X72344Y31244D01*
X72344Y31244D01*
X72344Y31244D01*
X72472Y31127D01*
X72472Y31127D01*
X72472Y31127D01*
X72610Y31020D01*
X72610Y31020D01*
X72610Y31020D01*
X72758Y30927D01*
X72759Y30927D01*
X72759Y30927D01*
X72913Y30846D01*
X72913D01*
X72913Y30846D01*
X73075Y30779D01*
X73075D01*
X73075Y30779D01*
X73241Y30727D01*
X73241D01*
X73241Y30727D01*
X73411Y30689D01*
X73411Y30689D01*
X73411Y30689D01*
X73585Y30666D01*
X73585Y30666D01*
X73585Y30666D01*
X73759Y30659D01*
X73759Y30659D01*
X73759Y30659D01*
X77563D01*
X77563Y30659D01*
X77563Y30659D01*
X77738Y30666D01*
X77738Y30666D01*
X77738Y30666D01*
X77911Y30689D01*
X77911Y30689D01*
X77911Y30689D01*
X78081Y30727D01*
X78081Y30727D01*
X78081Y30727D01*
X78247Y30779D01*
X78247Y30779D01*
X78247D01*
X78410Y30846D01*
X78410Y30846D01*
X78411D01*
X78563Y30927D01*
X78563Y30927D01*
X78564Y30927D01*
X78712Y31020D01*
X78712Y31020D01*
X78712Y31020D01*
X78851Y31127D01*
X78851Y31127D01*
X78851Y31127D01*
X78979Y31244D01*
X78979Y31244D01*
X78979Y31244D01*
X79096Y31373D01*
X79096Y31373D01*
X79096Y31373D01*
X79204Y31511D01*
X79204Y31511D01*
X79204Y31511D01*
X79296Y31659D01*
X79296Y31659D01*
X79296Y31659D01*
X79378Y31813D01*
X79378Y31813D01*
X79378Y31814D01*
X79445Y31976D01*
Y31976D01*
X79445Y31976D01*
X79496Y32142D01*
Y32142D01*
X79496Y32142D01*
X79535Y32312D01*
X79535Y32312D01*
X79535Y32312D01*
X79557Y32485D01*
X79557Y32485D01*
X79557Y32485D01*
X79564Y32660D01*
X79564Y32660D01*
X79564Y32660D01*
X79557Y32834D01*
X79557Y32834D01*
X79557Y32834D01*
X79535Y33007D01*
X79535Y33007D01*
X79535Y33007D01*
X79496Y33177D01*
X79496Y33177D01*
Y33177D01*
X79445Y33344D01*
X79445Y33344D01*
Y33344D01*
X79378Y33505D01*
X79378Y33505D01*
X79378Y33505D01*
X79296Y33661D01*
X79296Y33661D01*
X79296Y33661D01*
X79204Y33808D01*
X79204Y33808D01*
X79204Y33808D01*
X79096Y33946D01*
X79096Y33946D01*
X79096Y33946D01*
X78979Y34075D01*
X78979Y34075D01*
X78979Y34075D01*
X78851Y34193D01*
X78851Y34193D01*
X78851Y34193D01*
X78712Y34299D01*
X78712Y34299D01*
X78712Y34299D01*
X78564Y34393D01*
X78563Y34393D01*
X78563Y34393D01*
X78411Y34473D01*
X78411D01*
X78410Y34473D01*
X78247Y34540D01*
X78247D01*
X78247Y34540D01*
X78081Y34592D01*
X78081D01*
X78081Y34592D01*
X77911Y34630D01*
X77911Y34630D01*
X77911Y34630D01*
X77738Y34653D01*
X77738Y34653D01*
X77738Y34653D01*
X77563Y34661D01*
D02*
G37*
G36*
X105177Y35493D02*
X104670Y35393D01*
X104240Y35105D01*
X103952Y34675D01*
X103851Y34168D01*
X103952Y33661D01*
X104240Y33231D01*
X104670Y32943D01*
X105177Y32842D01*
X105684Y32943D01*
X106114Y33231D01*
X106402Y33661D01*
X106502Y34168D01*
X106402Y34675D01*
X106114Y35105D01*
X105684Y35393D01*
X105177Y35493D01*
D02*
G37*
G36*
X107077Y32994D02*
X106570Y32893D01*
X106140Y32605D01*
X105852Y32175D01*
X105752Y31668D01*
X105852Y31161D01*
X106140Y30731D01*
X106570Y30443D01*
X107077Y30343D01*
X107584Y30443D01*
X108014Y30731D01*
X108302Y31161D01*
X108403Y31668D01*
X108302Y32175D01*
X108014Y32605D01*
X107584Y32893D01*
X107077Y32994D01*
D02*
G37*
G36*
X94177Y32493D02*
X93670Y32393D01*
X93240Y32105D01*
X92952Y31675D01*
X92852Y31168D01*
X92952Y30661D01*
X93240Y30231D01*
X93670Y29943D01*
X94177Y29842D01*
X94684Y29943D01*
X95114Y30231D01*
X95402Y30661D01*
X95503Y31168D01*
X95402Y31675D01*
X95114Y32105D01*
X94684Y32393D01*
X94177Y32493D01*
D02*
G37*
G36*
X117377Y31993D02*
X116870Y31893D01*
X116440Y31605D01*
X116152Y31175D01*
X116051Y30668D01*
X116152Y30161D01*
X116440Y29731D01*
X116870Y29443D01*
X117377Y29342D01*
X117884Y29443D01*
X118314Y29731D01*
X118602Y30161D01*
X118702Y30668D01*
X118602Y31175D01*
X118314Y31605D01*
X117884Y31893D01*
X117377Y31993D01*
D02*
G37*
G36*
X94177Y28629D02*
X93670Y28529D01*
X93240Y28241D01*
X92952Y27811D01*
X92852Y27304D01*
X92952Y26797D01*
X93240Y26367D01*
X93670Y26079D01*
X94177Y25978D01*
X94684Y26079D01*
X95114Y26367D01*
X95402Y26797D01*
X95503Y27304D01*
X95402Y27811D01*
X95114Y28241D01*
X94684Y28529D01*
X94177Y28629D01*
D02*
G37*
G36*
X104577Y28493D02*
X104070Y28393D01*
X103640Y28105D01*
X103352Y27675D01*
X103252Y27168D01*
X103352Y26661D01*
X103640Y26231D01*
X104070Y25943D01*
X104577Y25842D01*
X105084Y25943D01*
X105514Y26231D01*
X105802Y26661D01*
X105903Y27168D01*
X105802Y27675D01*
X105514Y28105D01*
X105084Y28393D01*
X104577Y28493D01*
D02*
G37*
G36*
X89677Y25793D02*
X89170Y25693D01*
X88740Y25405D01*
X88452Y24975D01*
X88352Y24468D01*
X88452Y23961D01*
X88740Y23531D01*
X89170Y23243D01*
X89677Y23143D01*
X90184Y23243D01*
X90614Y23531D01*
X90902Y23961D01*
X91003Y24468D01*
X90902Y24975D01*
X90614Y25405D01*
X90184Y25693D01*
X89677Y25793D01*
D02*
G37*
G36*
Y21793D02*
X89170Y21693D01*
X88740Y21405D01*
X88452Y20975D01*
X88352Y20468D01*
X88452Y19961D01*
X88740Y19531D01*
X89170Y19243D01*
X89677Y19142D01*
X90184Y19243D01*
X90614Y19531D01*
X90902Y19961D01*
X91003Y20468D01*
X90902Y20975D01*
X90614Y21405D01*
X90184Y21693D01*
X89677Y21793D01*
D02*
G37*
G36*
X86177D02*
X85670Y21693D01*
X85240Y21405D01*
X84952Y20975D01*
X84851Y20468D01*
X84952Y19961D01*
X85240Y19531D01*
X85670Y19243D01*
X86177Y19142D01*
X86684Y19243D01*
X87114Y19531D01*
X87402Y19961D01*
X87502Y20468D01*
X87402Y20975D01*
X87114Y21405D01*
X86684Y21693D01*
X86177Y21793D01*
D02*
G37*
G36*
X71083Y15121D02*
X69073D01*
X69072Y15120D01*
X69071Y15120D01*
Y9211D01*
X69072Y9210D01*
X69073Y9209D01*
X71083D01*
X71084Y9210D01*
X71085Y9211D01*
Y15120D01*
X71084Y15120D01*
X71083Y15121D01*
D02*
G37*
G36*
X67935D02*
X65924D01*
X65923Y15120D01*
X65922Y15120D01*
Y9211D01*
X65923Y9210D01*
X65924Y9209D01*
X67935D01*
X67935Y9210D01*
X67936Y9211D01*
Y15120D01*
X67935Y15120D01*
X67935Y15121D01*
D02*
G37*
G36*
X61634D02*
X59623D01*
X59623Y15120D01*
X59622Y15120D01*
Y9211D01*
X59623Y9210D01*
X59623Y9209D01*
X61634D01*
X61635Y9210D01*
X61636Y9211D01*
Y15120D01*
X61635Y15120D01*
X61634Y15121D01*
D02*
G37*
G36*
X58486D02*
X56475D01*
X56474Y15120D01*
X56473Y15120D01*
Y9211D01*
X56474Y9210D01*
X56475Y9209D01*
X58486D01*
X58486Y9210D01*
X58487Y9211D01*
Y15120D01*
X58486Y15120D01*
X58486Y15121D01*
D02*
G37*
G36*
X52187D02*
X50175D01*
X50175Y15120D01*
X50174Y15120D01*
Y9211D01*
X50175Y9210D01*
X50175Y9209D01*
X52187D01*
X52187Y9210D01*
X52188Y9211D01*
Y15120D01*
X52187Y15120D01*
X52187Y15121D01*
D02*
G37*
G36*
X49036D02*
X47025D01*
X47025Y15120D01*
X47024Y15120D01*
Y9211D01*
X47025Y9210D01*
X47025Y9209D01*
X49036D01*
X49037Y9210D01*
X49038Y9211D01*
Y15120D01*
X49037Y15120D01*
X49036Y15121D01*
D02*
G37*
G36*
X95433Y-5474D02*
X94455Y-5669D01*
X93625Y-6223D01*
X93071Y-7053D01*
X92876Y-8032D01*
X93071Y-9010D01*
X93625Y-9840D01*
X94455Y-10394D01*
X95433Y-10588D01*
X96412Y-10394D01*
X97241Y-9840D01*
X97795Y-9010D01*
X97990Y-8032D01*
X97795Y-7053D01*
X97241Y-6223D01*
X96412Y-5669D01*
X95433Y-5474D01*
D02*
G37*
G36*
X22677D02*
X21699Y-5669D01*
X20869Y-6223D01*
X20315Y-7053D01*
X20120Y-8032D01*
X20315Y-9010D01*
X20869Y-9840D01*
X21699Y-10394D01*
X22677Y-10588D01*
X23656Y-10394D01*
X24485Y-9840D01*
X25040Y-9010D01*
X25234Y-8032D01*
X25040Y-7053D01*
X24485Y-6223D01*
X23656Y-5669D01*
X22677Y-5474D01*
D02*
G37*
G36*
X61634Y-9210D02*
X59623D01*
X59623Y-9211D01*
X59622Y-9211D01*
Y-15121D01*
X59623Y-15121D01*
X59623Y-15122D01*
X61634D01*
X61635Y-15121D01*
X61636Y-15121D01*
Y-9211D01*
X61635Y-9211D01*
X61634Y-9210D01*
D02*
G37*
G36*
X58486D02*
X56475D01*
X56474Y-9211D01*
X56473Y-9211D01*
Y-15121D01*
X56474Y-15121D01*
X56475Y-15122D01*
X58486D01*
X58486Y-15121D01*
X58487Y-15121D01*
Y-9211D01*
X58486Y-9211D01*
X58486Y-9210D01*
D02*
G37*
G36*
X52187D02*
X50175D01*
X50175Y-9211D01*
X50174Y-9211D01*
Y-15121D01*
X50175Y-15121D01*
X50175Y-15122D01*
X52187D01*
X52187Y-15121D01*
X52188Y-15121D01*
Y-9211D01*
X52187Y-9211D01*
X52187Y-9210D01*
D02*
G37*
G36*
X49036D02*
X47025D01*
X47025Y-9211D01*
X47024Y-9211D01*
Y-15121D01*
X47025Y-15121D01*
X47025Y-15122D01*
X49036D01*
X49037Y-15121D01*
X49038Y-15121D01*
Y-9211D01*
X49037Y-9211D01*
X49036Y-9210D01*
D02*
G37*
G36*
X42737D02*
X40727D01*
X40726Y-9211D01*
X40725Y-9211D01*
Y-15121D01*
X40726Y-15121D01*
X40727Y-15122D01*
X42737D01*
X42738Y-15121D01*
X42739Y-15121D01*
Y-9211D01*
X42738Y-9211D01*
X42737Y-9210D01*
D02*
G37*
G36*
X39588D02*
X37576D01*
X37576Y-9211D01*
X37575Y-9211D01*
Y-15121D01*
X37576Y-15121D01*
X37576Y-15122D01*
X39588D01*
X39588Y-15121D01*
X39589Y-15121D01*
Y-9211D01*
X39588Y-9211D01*
X39588Y-9210D01*
D02*
G37*
G36*
X60958Y-16010D02*
X60958Y-16010D01*
X60958Y-16010D01*
X57153D01*
X57153Y-16010D01*
X57153Y-16010D01*
X56979Y-16018D01*
X56979Y-16018D01*
X56979Y-16018D01*
X56806Y-16041D01*
X56806Y-16041D01*
X56806Y-16041D01*
X56635Y-16079D01*
X56635Y-16079D01*
X56635Y-16079D01*
X56469Y-16131D01*
X56469Y-16131D01*
X56469D01*
X56308Y-16198D01*
X56308Y-16198D01*
X56308D01*
X56152Y-16278D01*
X56152Y-16278D01*
X56152Y-16278D01*
X56005Y-16372D01*
X56005Y-16372D01*
X56005Y-16372D01*
X55867Y-16478D01*
X55867Y-16478D01*
X55867Y-16478D01*
X55738Y-16596D01*
X55738Y-16596D01*
X55738Y-16596D01*
X55620Y-16725D01*
X55620Y-16725D01*
X55620Y-16725D01*
X55514Y-16863D01*
X55514Y-16863D01*
X55514Y-16863D01*
X55420Y-17010D01*
X55420Y-17010D01*
X55420Y-17010D01*
X55339Y-17165D01*
Y-17165D01*
X55339Y-17166D01*
X55273Y-17327D01*
Y-17327D01*
X55273Y-17327D01*
X55220Y-17494D01*
X55220Y-17494D01*
X55220Y-17494D01*
X55182Y-17664D01*
X55182Y-17664D01*
X55182Y-17664D01*
X55160Y-17837D01*
X55160Y-17837D01*
X55160Y-17837D01*
X55152Y-18011D01*
X55152Y-18011D01*
X55152Y-18011D01*
X55160Y-18186D01*
X55160Y-18186D01*
X55160Y-18186D01*
X55182Y-18359D01*
X55182Y-18359D01*
X55182Y-18359D01*
X55220Y-18529D01*
X55220Y-18529D01*
Y-18529D01*
X55273Y-18695D01*
X55273Y-18695D01*
Y-18695D01*
X55339Y-18857D01*
X55339Y-18857D01*
X55339Y-18857D01*
X55420Y-19012D01*
X55420Y-19012D01*
X55420Y-19012D01*
X55514Y-19160D01*
X55514Y-19160D01*
X55514Y-19160D01*
X55620Y-19298D01*
X55620Y-19298D01*
X55620Y-19298D01*
X55738Y-19427D01*
X55738Y-19427D01*
X55738Y-19427D01*
X55867Y-19544D01*
X55867Y-19544D01*
X55867Y-19544D01*
X56005Y-19651D01*
X56005Y-19651D01*
X56005Y-19651D01*
X56152Y-19744D01*
X56152Y-19744D01*
X56152Y-19744D01*
X56308Y-19825D01*
X56308D01*
X56308Y-19825D01*
X56469Y-19892D01*
X56469D01*
X56469Y-19892D01*
X56635Y-19944D01*
X56635Y-19944D01*
X56635Y-19944D01*
X56806Y-19982D01*
X56806Y-19982D01*
X56806Y-19982D01*
X56979Y-20005D01*
X56979Y-20005D01*
X56979Y-20005D01*
X57153Y-20012D01*
X57153Y-20012D01*
X57153Y-20012D01*
X60958D01*
X60958Y-20012D01*
X60958Y-20012D01*
X61133Y-20005D01*
X61133Y-20005D01*
X61133Y-20005D01*
X61306Y-19982D01*
X61306Y-19982D01*
X61306Y-19982D01*
X61476Y-19944D01*
X61476Y-19944D01*
X61476Y-19944D01*
X61642Y-19892D01*
X61642Y-19892D01*
X61642D01*
X61804Y-19825D01*
X61804Y-19825D01*
X61804Y-19825D01*
X61958Y-19744D01*
X61958Y-19744D01*
X61959Y-19744D01*
X62106Y-19651D01*
X62106Y-19651D01*
X62106Y-19651D01*
X62245Y-19544D01*
X62245Y-19544D01*
X62245Y-19544D01*
X62373Y-19427D01*
X62373Y-19427D01*
X62373Y-19427D01*
X62491Y-19298D01*
X62491Y-19298D01*
X62491Y-19298D01*
X62598Y-19160D01*
X62598Y-19160D01*
X62598Y-19160D01*
X62691Y-19012D01*
X62691Y-19012D01*
X62691Y-19012D01*
X62772Y-18857D01*
Y-18857D01*
X62772Y-18857D01*
X62839Y-18695D01*
Y-18695D01*
X62839Y-18695D01*
X62891Y-18529D01*
Y-18529D01*
X62891Y-18529D01*
X62929Y-18359D01*
X62929Y-18359D01*
X62929Y-18359D01*
X62952Y-18186D01*
X62952Y-18186D01*
X62952Y-18186D01*
X62959Y-18011D01*
X62959Y-18011D01*
X62959Y-18011D01*
X62952Y-17837D01*
X62952Y-17837D01*
X62952Y-17837D01*
X62929Y-17664D01*
X62929Y-17664D01*
X62929Y-17664D01*
X62891Y-17494D01*
X62891Y-17494D01*
Y-17494D01*
X62839Y-17327D01*
X62839Y-17327D01*
Y-17327D01*
X62772Y-17166D01*
X62772Y-17166D01*
Y-17165D01*
X62691Y-17010D01*
X62691Y-17010D01*
X62691Y-17010D01*
X62598Y-16863D01*
X62598Y-16863D01*
X62598Y-16863D01*
X62491Y-16725D01*
X62491Y-16725D01*
X62491Y-16725D01*
X62373Y-16596D01*
X62373Y-16596D01*
X62373Y-16596D01*
X62245Y-16478D01*
X62245Y-16478D01*
X62245Y-16478D01*
X62106Y-16372D01*
X62106Y-16372D01*
X62106Y-16372D01*
X61959Y-16278D01*
X61958Y-16278D01*
X61958Y-16278D01*
X61804Y-16198D01*
X61804D01*
X61804Y-16198D01*
X61642Y-16131D01*
X61642D01*
X61642Y-16131D01*
X61476Y-16079D01*
X61476D01*
X61476Y-16079D01*
X61306Y-16041D01*
X61306Y-16041D01*
X61306Y-16041D01*
X61133Y-16018D01*
X61133Y-16018D01*
X61133Y-16018D01*
X60958Y-16010D01*
D02*
G37*
G36*
X51509D02*
X51509Y-16010D01*
X51509Y-16010D01*
X47704D01*
X47704Y-16010D01*
X47704Y-16010D01*
X47529Y-16018D01*
X47529Y-16018D01*
X47529Y-16018D01*
X47356Y-16041D01*
X47356Y-16041D01*
X47356Y-16041D01*
X47186Y-16079D01*
X47186Y-16079D01*
X47186Y-16079D01*
X47020Y-16131D01*
X47020Y-16131D01*
X47020D01*
X46859Y-16198D01*
X46859Y-16198D01*
X46859D01*
X46703Y-16278D01*
X46703Y-16278D01*
X46703Y-16278D01*
X46555Y-16372D01*
X46555Y-16372D01*
X46555Y-16372D01*
X46418Y-16478D01*
X46418Y-16478D01*
X46418Y-16478D01*
X46288Y-16596D01*
X46288Y-16596D01*
X46288Y-16596D01*
X46170Y-16725D01*
X46170Y-16725D01*
X46170Y-16725D01*
X46064Y-16863D01*
X46064Y-16863D01*
X46064Y-16863D01*
X45970Y-17010D01*
X45970Y-17010D01*
X45970Y-17010D01*
X45889Y-17165D01*
Y-17165D01*
X45889Y-17166D01*
X45823Y-17327D01*
Y-17327D01*
X45823Y-17327D01*
X45770Y-17494D01*
Y-17494D01*
X45770Y-17494D01*
X45733Y-17664D01*
X45733Y-17664D01*
X45733Y-17664D01*
X45711Y-17837D01*
X45711Y-17837D01*
X45711Y-17837D01*
X45703Y-18011D01*
X45703Y-18011D01*
X45703Y-18011D01*
X45711Y-18186D01*
X45711Y-18186D01*
X45711Y-18186D01*
X45733Y-18359D01*
X45733Y-18359D01*
X45733Y-18359D01*
X45770Y-18529D01*
X45770Y-18529D01*
Y-18529D01*
X45823Y-18695D01*
X45823Y-18695D01*
Y-18695D01*
X45889Y-18857D01*
X45889Y-18857D01*
X45889Y-18857D01*
X45970Y-19012D01*
X45970Y-19012D01*
X45970Y-19012D01*
X46064Y-19160D01*
X46064Y-19160D01*
X46064Y-19160D01*
X46170Y-19298D01*
X46170Y-19298D01*
X46170Y-19298D01*
X46288Y-19427D01*
X46288Y-19427D01*
X46288Y-19427D01*
X46418Y-19544D01*
X46418Y-19544D01*
X46418Y-19544D01*
X46555Y-19651D01*
X46555Y-19651D01*
X46555Y-19651D01*
X46703Y-19744D01*
X46703Y-19744D01*
X46703Y-19744D01*
X46859Y-19825D01*
X46859D01*
X46859Y-19825D01*
X47020Y-19892D01*
X47020D01*
X47020Y-19892D01*
X47186Y-19944D01*
X47186D01*
X47186Y-19944D01*
X47356Y-19982D01*
X47356Y-19982D01*
X47356Y-19982D01*
X47529Y-20005D01*
X47529Y-20005D01*
X47529Y-20005D01*
X47704Y-20012D01*
X47704Y-20012D01*
X47704Y-20012D01*
X51509D01*
X51509Y-20012D01*
X51509Y-20012D01*
X51684Y-20005D01*
X51684Y-20005D01*
X51684Y-20005D01*
X51856Y-19982D01*
X51856Y-19982D01*
X51856Y-19982D01*
X52027Y-19944D01*
X52027Y-19944D01*
X52027Y-19944D01*
X52193Y-19892D01*
X52193Y-19892D01*
X52193D01*
X52354Y-19825D01*
X52354Y-19825D01*
X52355D01*
X52509Y-19744D01*
X52509Y-19744D01*
X52510Y-19744D01*
X52656Y-19651D01*
X52656Y-19651D01*
X52656Y-19651D01*
X52796Y-19544D01*
X52796Y-19544D01*
X52796Y-19544D01*
X52923Y-19427D01*
X52923Y-19427D01*
X52923Y-19427D01*
X53041Y-19298D01*
X53041Y-19298D01*
X53041Y-19298D01*
X53148Y-19160D01*
X53148Y-19160D01*
X53148Y-19160D01*
X53241Y-19012D01*
X53241Y-19012D01*
X53241Y-19012D01*
X53322Y-18857D01*
Y-18857D01*
X53322Y-18857D01*
X53389Y-18695D01*
Y-18695D01*
X53389Y-18695D01*
X53441Y-18529D01*
Y-18529D01*
X53441Y-18529D01*
X53480Y-18359D01*
X53480Y-18359D01*
X53480Y-18359D01*
X53503Y-18186D01*
X53503Y-18186D01*
X53503Y-18186D01*
X53510Y-18011D01*
X53510Y-18011D01*
X53510Y-18011D01*
X53503Y-17837D01*
X53503Y-17837D01*
X53503Y-17837D01*
X53480Y-17664D01*
X53480Y-17664D01*
X53480Y-17664D01*
X53441Y-17494D01*
X53441Y-17494D01*
Y-17494D01*
X53389Y-17327D01*
X53389Y-17327D01*
Y-17327D01*
X53322Y-17166D01*
X53322Y-17166D01*
Y-17165D01*
X53241Y-17010D01*
X53241Y-17010D01*
X53241Y-17010D01*
X53148Y-16863D01*
X53148Y-16863D01*
X53148Y-16863D01*
X53041Y-16725D01*
X53041Y-16725D01*
X53041Y-16725D01*
X52923Y-16596D01*
X52923Y-16596D01*
X52923Y-16596D01*
X52796Y-16478D01*
X52796Y-16478D01*
X52796Y-16478D01*
X52656Y-16372D01*
X52656Y-16372D01*
X52656Y-16372D01*
X52510Y-16278D01*
X52509Y-16278D01*
X52509Y-16278D01*
X52355Y-16198D01*
X52354D01*
X52354Y-16198D01*
X52193Y-16131D01*
X52193D01*
X52193Y-16131D01*
X52027Y-16079D01*
X52027Y-16079D01*
X52027Y-16079D01*
X51856Y-16041D01*
X51856Y-16041D01*
X51856Y-16041D01*
X51684Y-16018D01*
X51684Y-16018D01*
X51684Y-16018D01*
X51509Y-16010D01*
D02*
G37*
G36*
X42061D02*
X42061Y-16010D01*
X42061Y-16010D01*
X38256D01*
X38256Y-16010D01*
X38256Y-16010D01*
X38081Y-16018D01*
X38081Y-16018D01*
X38081Y-16018D01*
X37908Y-16041D01*
X37908Y-16041D01*
X37908Y-16041D01*
X37738Y-16079D01*
X37738Y-16079D01*
X37738Y-16079D01*
X37572Y-16131D01*
X37572Y-16131D01*
X37572D01*
X37411Y-16198D01*
X37411Y-16198D01*
X37411D01*
X37255Y-16278D01*
X37255Y-16278D01*
X37255Y-16278D01*
X37107Y-16372D01*
X37107Y-16372D01*
X37107Y-16372D01*
X36970Y-16478D01*
X36970Y-16478D01*
X36970Y-16478D01*
X36840Y-16596D01*
X36840Y-16596D01*
X36840Y-16596D01*
X36722Y-16725D01*
X36722Y-16725D01*
X36722Y-16725D01*
X36616Y-16863D01*
X36616Y-16863D01*
X36616Y-16863D01*
X36522Y-17010D01*
X36522Y-17010D01*
X36522Y-17010D01*
X36441Y-17165D01*
Y-17165D01*
X36441Y-17166D01*
X36375Y-17327D01*
Y-17327D01*
X36375Y-17327D01*
X36322Y-17494D01*
Y-17494D01*
X36322Y-17494D01*
X36285Y-17664D01*
X36285Y-17664D01*
X36285Y-17664D01*
X36263Y-17837D01*
X36263Y-17837D01*
X36263Y-17837D01*
X36255Y-18011D01*
X36255Y-18011D01*
X36255Y-18011D01*
X36263Y-18186D01*
X36263Y-18186D01*
X36263Y-18186D01*
X36285Y-18359D01*
X36285Y-18359D01*
X36285Y-18359D01*
X36322Y-18529D01*
X36322Y-18529D01*
Y-18529D01*
X36375Y-18695D01*
X36375Y-18695D01*
Y-18695D01*
X36441Y-18857D01*
X36441Y-18857D01*
X36441Y-18857D01*
X36522Y-19012D01*
X36522Y-19012D01*
X36522Y-19012D01*
X36616Y-19160D01*
X36616Y-19160D01*
X36616Y-19160D01*
X36722Y-19298D01*
X36722Y-19298D01*
X36722Y-19298D01*
X36840Y-19427D01*
X36840Y-19427D01*
X36840Y-19427D01*
X36970Y-19544D01*
X36970Y-19544D01*
X36970Y-19544D01*
X37107Y-19651D01*
X37107Y-19651D01*
X37107Y-19651D01*
X37255Y-19744D01*
X37255Y-19744D01*
X37255Y-19744D01*
X37411Y-19825D01*
X37411D01*
X37411Y-19825D01*
X37572Y-19892D01*
X37572D01*
X37572Y-19892D01*
X37738Y-19944D01*
X37738D01*
X37738Y-19944D01*
X37908Y-19982D01*
X37908Y-19982D01*
X37908Y-19982D01*
X38081Y-20005D01*
X38081Y-20005D01*
X38081Y-20005D01*
X38256Y-20012D01*
X38256Y-20012D01*
X38256Y-20012D01*
X42061D01*
X42061Y-20012D01*
X42061Y-20012D01*
X42236Y-20005D01*
X42236Y-20005D01*
X42236Y-20005D01*
X42408Y-19982D01*
X42408Y-19982D01*
X42408Y-19982D01*
X42579Y-19944D01*
X42579Y-19944D01*
X42579Y-19944D01*
X42745Y-19892D01*
X42745Y-19892D01*
X42745D01*
X42906Y-19825D01*
X42906Y-19825D01*
X42906D01*
X43062Y-19744D01*
X43062Y-19744D01*
X43062Y-19744D01*
X43208Y-19651D01*
X43208Y-19651D01*
X43208Y-19651D01*
X43348Y-19544D01*
X43348Y-19544D01*
X43348Y-19544D01*
X43475Y-19427D01*
X43475Y-19427D01*
X43475Y-19427D01*
X43593Y-19298D01*
X43593Y-19298D01*
X43593Y-19298D01*
X43700Y-19160D01*
X43700Y-19160D01*
X43700Y-19160D01*
X43793Y-19012D01*
X43793Y-19012D01*
X43793Y-19012D01*
X43874Y-18857D01*
Y-18857D01*
X43874Y-18857D01*
X43941Y-18695D01*
Y-18695D01*
X43941Y-18695D01*
X43993Y-18529D01*
Y-18529D01*
X43993Y-18529D01*
X44032Y-18359D01*
X44032Y-18359D01*
X44032Y-18359D01*
X44055Y-18186D01*
X44055Y-18186D01*
X44055Y-18186D01*
X44062Y-18011D01*
X44062Y-18011D01*
X44062Y-18011D01*
X44055Y-17837D01*
X44055Y-17837D01*
X44055Y-17837D01*
X44032Y-17664D01*
X44032Y-17664D01*
X44032Y-17664D01*
X43993Y-17494D01*
X43993Y-17494D01*
Y-17494D01*
X43941Y-17327D01*
X43941Y-17327D01*
Y-17327D01*
X43874Y-17166D01*
X43874Y-17166D01*
Y-17165D01*
X43793Y-17010D01*
X43793Y-17010D01*
X43793Y-17010D01*
X43700Y-16863D01*
X43700Y-16863D01*
X43700Y-16863D01*
X43593Y-16725D01*
X43593Y-16725D01*
X43593Y-16725D01*
X43475Y-16596D01*
X43475Y-16596D01*
X43475Y-16596D01*
X43348Y-16478D01*
X43348Y-16478D01*
X43348Y-16478D01*
X43208Y-16372D01*
X43208Y-16372D01*
X43208Y-16372D01*
X43062Y-16278D01*
X43062Y-16278D01*
X43062Y-16278D01*
X42906Y-16198D01*
X42906D01*
X42906Y-16198D01*
X42745Y-16131D01*
X42745D01*
X42745Y-16131D01*
X42579Y-16079D01*
X42579Y-16079D01*
X42579Y-16079D01*
X42408Y-16041D01*
X42408Y-16041D01*
X42408Y-16041D01*
X42236Y-16018D01*
X42236Y-16018D01*
X42236Y-16018D01*
X42061Y-16010D01*
D02*
G37*
G36*
X79527Y-15206D02*
X79020Y-15307D01*
X78590Y-15595D01*
X78302Y-16025D01*
X78202Y-16532D01*
X78302Y-17039D01*
X78590Y-17469D01*
X79020Y-17757D01*
X79527Y-17857D01*
X80034Y-17757D01*
X80464Y-17469D01*
X80752Y-17039D01*
X80853Y-16532D01*
X80752Y-16025D01*
X80464Y-15595D01*
X80034Y-15307D01*
X79527Y-15206D01*
D02*
G37*
G36*
X76377D02*
X75870Y-15307D01*
X75440Y-15595D01*
X75152Y-16025D01*
X75051Y-16532D01*
X75152Y-17039D01*
X75440Y-17469D01*
X75870Y-17757D01*
X76377Y-17857D01*
X76884Y-17757D01*
X77314Y-17469D01*
X77602Y-17039D01*
X77702Y-16532D01*
X77602Y-16025D01*
X77314Y-15595D01*
X76884Y-15307D01*
X76377Y-15206D01*
D02*
G37*
G36*
X84649Y-60872D02*
X83780Y-63250D01*
X85547D01*
X84649Y-60872D01*
D02*
G37*
G36*
X72976Y-60465D02*
X72014D01*
Y-62288D01*
X72902D01*
X72967Y-62278D01*
X73133D01*
X73300Y-62269D01*
X73466Y-62251D01*
X73614Y-62223D01*
X73679Y-62214D01*
X73734Y-62195D01*
X73744Y-62186D01*
X73781Y-62177D01*
X73827Y-62149D01*
X73882Y-62121D01*
X73947Y-62075D01*
X74012Y-62019D01*
X74086Y-61955D01*
X74141Y-61881D01*
X74151Y-61871D01*
X74169Y-61844D01*
X74188Y-61797D01*
X74215Y-61733D01*
X74243Y-61659D01*
X74271Y-61575D01*
X74280Y-61483D01*
X74289Y-61381D01*
Y-61363D01*
Y-61326D01*
X74280Y-61261D01*
X74262Y-61178D01*
X74234Y-61085D01*
X74197Y-60983D01*
X74151Y-60891D01*
X74077Y-60798D01*
X74067Y-60789D01*
X74040Y-60761D01*
X73993Y-60724D01*
X73938Y-60678D01*
X73864Y-60623D01*
X73771Y-60576D01*
X73670Y-60539D01*
X73559Y-60512D01*
X73549D01*
X73512Y-60502D01*
X73448Y-60493D01*
X73355Y-60484D01*
X73235D01*
X73152Y-60475D01*
X73068D01*
X72976Y-60465D01*
D02*
G37*
G36*
X63911D02*
X63069D01*
Y-64702D01*
X64207D01*
X64327Y-64693D01*
X64457D01*
X64586Y-64674D01*
X64706Y-64665D01*
X64808Y-64646D01*
X64827D01*
X64864Y-64628D01*
X64919Y-64609D01*
X64993Y-64582D01*
X65076Y-64545D01*
X65160Y-64498D01*
X65243Y-64443D01*
X65326Y-64378D01*
X65335Y-64369D01*
X65363Y-64341D01*
X65400Y-64295D01*
X65446Y-64230D01*
X65493Y-64147D01*
X65557Y-64045D01*
X65604Y-63916D01*
X65659Y-63768D01*
Y-63758D01*
X65668Y-63749D01*
Y-63721D01*
X65678Y-63684D01*
X65696Y-63647D01*
X65705Y-63592D01*
X65733Y-63453D01*
X65752Y-63287D01*
X65779Y-63092D01*
X65789Y-62852D01*
X65798Y-62593D01*
Y-62584D01*
Y-62556D01*
Y-62519D01*
Y-62473D01*
Y-62408D01*
X65789Y-62334D01*
X65779Y-62177D01*
X65761Y-61992D01*
X65742Y-61797D01*
X65705Y-61622D01*
X65659Y-61455D01*
Y-61446D01*
X65650Y-61437D01*
X65631Y-61390D01*
X65604Y-61316D01*
X65567Y-61224D01*
X65511Y-61131D01*
X65446Y-61030D01*
X65372Y-60928D01*
X65289Y-60835D01*
X65280Y-60826D01*
X65252Y-60798D01*
X65197Y-60761D01*
X65132Y-60715D01*
X65039Y-60660D01*
X64938Y-60613D01*
X64827Y-60567D01*
X64697Y-60530D01*
X64688D01*
X64642Y-60521D01*
X64568Y-60512D01*
X64466Y-60493D01*
X64401D01*
X64318Y-60484D01*
X64235D01*
X64142Y-60475D01*
X64031D01*
X63911Y-60465D01*
D02*
G37*
G36*
X36725Y-60465D02*
X35245D01*
Y-62093D01*
X36503D01*
X36688Y-62084D01*
X36882Y-62075D01*
X37077Y-62066D01*
X37160Y-62056D01*
X37234Y-62047D01*
X37308Y-62029D01*
X37354Y-62019D01*
X37363D01*
X37391Y-62001D01*
X37437Y-61982D01*
X37484Y-61955D01*
X37604Y-61871D01*
X37659Y-61816D01*
X37715Y-61751D01*
X37724Y-61742D01*
X37733Y-61714D01*
X37761Y-61677D01*
X37789Y-61622D01*
X37807Y-61548D01*
X37835Y-61464D01*
X37844Y-61372D01*
X37854Y-61270D01*
Y-61252D01*
Y-61215D01*
X37844Y-61159D01*
X37835Y-61085D01*
X37807Y-61002D01*
X37780Y-60919D01*
X37733Y-60826D01*
X37678Y-60752D01*
X37669Y-60743D01*
X37650Y-60715D01*
X37604Y-60687D01*
X37548Y-60641D01*
X37484Y-60595D01*
X37400Y-60558D01*
X37299Y-60521D01*
X37188Y-60493D01*
X37178D01*
X37151Y-60484D01*
X37095D01*
X37012Y-60475D01*
X36808D01*
X36725Y-60465D01*
D02*
G37*
G36*
X18059Y-60872D02*
X17189Y-63250D01*
X18956D01*
X18059Y-60872D01*
D02*
G37*
%LPD*%
D27*
X46837Y40588D02*
D03*
Y46088D02*
D03*
X57357Y44602D02*
D03*
X51818Y36100D02*
D03*
X-4823Y-18032D02*
D03*
Y-13032D02*
D03*
Y10968D02*
D03*
Y18968D02*
D03*
Y26968D02*
D03*
Y34968D02*
D03*
Y42968D02*
D03*
Y50968D02*
D03*
Y58968D02*
D03*
Y66968D02*
D03*
Y74968D02*
D03*
Y82968D02*
D03*
Y90968D02*
D03*
X-4813Y-6313D02*
D03*
X-1945Y-21100D02*
D03*
Y98300D02*
D03*
X6055Y-21100D02*
D03*
Y-13100D02*
D03*
Y-5100D02*
D03*
Y10900D02*
D03*
Y18900D02*
D03*
Y26900D02*
D03*
Y34900D02*
D03*
Y42900D02*
D03*
Y50900D02*
D03*
Y58900D02*
D03*
Y66900D02*
D03*
Y74900D02*
D03*
Y82900D02*
D03*
Y90900D02*
D03*
Y98300D02*
D03*
X14055Y-21100D02*
D03*
Y98300D02*
D03*
X21055Y2900D02*
D03*
Y10900D02*
D03*
Y18900D02*
D03*
Y26900D02*
D03*
Y34900D02*
D03*
Y42900D02*
D03*
Y50900D02*
D03*
X22055Y-21100D02*
D03*
Y98300D02*
D03*
X29055Y-5100D02*
D03*
Y2900D02*
D03*
Y18900D02*
D03*
Y26900D02*
D03*
Y34900D02*
D03*
Y42900D02*
D03*
Y50900D02*
D03*
X30055Y-21100D02*
D03*
Y98300D02*
D03*
X30177Y57468D02*
D03*
Y62968D02*
D03*
X30797Y67804D02*
D03*
X33177Y66468D02*
D03*
X33016Y34453D02*
D03*
Y39953D02*
D03*
X34829Y54568D02*
D03*
X35432Y-7432D02*
D03*
X35433Y-17400D02*
D03*
X35434Y16900D02*
D03*
X35829Y-2932D02*
D03*
X36829Y3068D02*
D03*
X38055Y-21100D02*
D03*
X39294Y27052D02*
D03*
X39329Y7068D02*
D03*
X40829Y54068D02*
D03*
X41177Y21468D02*
D03*
X42608Y68024D02*
D03*
X43177Y32968D02*
D03*
X43609Y18605D02*
D03*
X44880Y-7432D02*
D03*
X44882Y-16900D02*
D03*
X45329Y-2932D02*
D03*
X46055Y-21100D02*
D03*
X47829Y3068D02*
D03*
X49913Y51179D02*
D03*
X50329Y7068D02*
D03*
X50482Y79504D02*
D03*
X51881Y62164D02*
D03*
X54055Y-21100D02*
D03*
X54329Y-7432D02*
D03*
X54331Y-16900D02*
D03*
Y16900D02*
D03*
X54418Y79504D02*
D03*
X55329Y-2932D02*
D03*
X58329Y2568D02*
D03*
X61177Y35468D02*
D03*
X61829Y53068D02*
D03*
X62055Y-21100D02*
D03*
X62293Y79504D02*
D03*
X62329Y7068D02*
D03*
X63778Y-7432D02*
D03*
X63779Y-16900D02*
D03*
Y16900D02*
D03*
X64177Y22968D02*
D03*
X64453Y63116D02*
D03*
X66229Y79504D02*
D03*
X66898Y44862D02*
D03*
X70055Y-21100D02*
D03*
X70177Y-3532D02*
D03*
X70829Y2568D02*
D03*
X72829Y7068D02*
D03*
X72888Y29707D02*
D03*
X73228Y-16900D02*
D03*
Y16900D02*
D03*
X74040Y48843D02*
D03*
X74103Y67742D02*
D03*
X75677Y20968D02*
D03*
X77236Y63965D02*
D03*
X78055Y-21100D02*
D03*
X78177Y-3532D02*
D03*
Y5968D02*
D03*
X78388Y29707D02*
D03*
X79540Y48843D02*
D03*
X79677Y25468D02*
D03*
X80177Y36468D02*
D03*
Y44468D02*
D03*
X82736Y63965D02*
D03*
X85914Y79504D02*
D03*
X86055Y-21100D02*
D03*
X86177Y-3532D02*
D03*
Y5968D02*
D03*
X88177Y36468D02*
D03*
Y44468D02*
D03*
Y52468D02*
D03*
Y60468D02*
D03*
X90677Y87168D02*
D03*
Y90168D02*
D03*
X94055Y-21100D02*
D03*
Y-13100D02*
D03*
X94177Y-3532D02*
D03*
Y5968D02*
D03*
Y13968D02*
D03*
X97677Y52468D02*
D03*
Y60468D02*
D03*
X101977Y27304D02*
D03*
X102055Y-21100D02*
D03*
Y-13100D02*
D03*
Y-5100D02*
D03*
Y2900D02*
D03*
X102177Y13968D02*
D03*
X105960Y62668D02*
D03*
X110055Y-21100D02*
D03*
Y-13100D02*
D03*
Y-5100D02*
D03*
Y2900D02*
D03*
Y10900D02*
D03*
X111677Y26168D02*
D03*
X114777D02*
D03*
X114984Y54475D02*
D03*
X118055Y-21100D02*
D03*
Y-13100D02*
D03*
M02*
