G04*
G04 #@! TF.GenerationSoftware,Altium Limited,Altium Designer,22.5.1 (42)*
G04*
G04 Layer_Color=32896*
%FSLAX25Y25*%
%MOIN*%
G70*
G04*
G04 #@! TF.SameCoordinates,A2539C74-7FEE-43BD-A04A-5197B4AA8E51*
G04*
G04*
G04 #@! TF.FilePolarity,Positive*
G04*
G01*
G75*
%ADD10C,0.00787*%
%ADD11C,0.00500*%
%ADD23C,0.00600*%
%ADD52C,0.00394*%
%ADD53C,0.00472*%
G36*
X25555Y-13250D02*
X26555Y-16750D01*
X24555D01*
X25555Y-13250D01*
D02*
G37*
G36*
X97045Y15883D02*
Y15244D01*
X95469D01*
Y14473D01*
X94759D01*
Y15244D01*
X94281D01*
Y15888D01*
X94759D01*
Y18330D01*
X95380D01*
X97045Y15883D01*
D02*
G37*
G36*
X92788Y18330D02*
X92883Y18319D01*
X92977Y18297D01*
X93060Y18275D01*
X93138Y18241D01*
X93210Y18208D01*
X93271Y18175D01*
X93332Y18136D01*
X93382Y18097D01*
X93432Y18064D01*
X93471Y18031D01*
X93499Y17997D01*
X93527Y17975D01*
X93543Y17953D01*
X93554Y17942D01*
X93560Y17936D01*
X93626Y17842D01*
X93682Y17731D01*
X93732Y17614D01*
X93776Y17492D01*
X93810Y17365D01*
X93843Y17231D01*
X93865Y17104D01*
X93887Y16976D01*
X93898Y16854D01*
X93910Y16743D01*
X93921Y16637D01*
X93926Y16549D01*
X93932Y16477D01*
Y16421D01*
Y16399D01*
Y16382D01*
Y16377D01*
Y16371D01*
X93926Y16171D01*
X93915Y15988D01*
X93898Y15816D01*
X93876Y15661D01*
X93854Y15522D01*
X93826Y15394D01*
X93793Y15283D01*
X93760Y15183D01*
X93732Y15100D01*
X93699Y15022D01*
X93671Y14961D01*
X93643Y14911D01*
X93626Y14878D01*
X93610Y14850D01*
X93599Y14834D01*
X93593Y14828D01*
X93527Y14750D01*
X93454Y14689D01*
X93382Y14628D01*
X93305Y14584D01*
X93232Y14539D01*
X93155Y14506D01*
X93083Y14479D01*
X93010Y14456D01*
X92944Y14434D01*
X92883Y14423D01*
X92827Y14412D01*
X92783Y14406D01*
X92744D01*
X92711Y14401D01*
X92689D01*
X92589Y14406D01*
X92494Y14417D01*
X92400Y14440D01*
X92317Y14462D01*
X92239Y14490D01*
X92167Y14523D01*
X92106Y14562D01*
X92045Y14601D01*
X91995Y14634D01*
X91945Y14673D01*
X91906Y14706D01*
X91873Y14734D01*
X91851Y14756D01*
X91834Y14778D01*
X91823Y14789D01*
X91817Y14795D01*
X91751Y14889D01*
X91695Y15000D01*
X91640Y15117D01*
X91601Y15244D01*
X91562Y15372D01*
X91534Y15500D01*
X91506Y15633D01*
X91484Y15761D01*
X91473Y15883D01*
X91462Y15994D01*
X91451Y16099D01*
X91445Y16188D01*
X91440Y16260D01*
Y16316D01*
Y16338D01*
Y16354D01*
Y16360D01*
Y16365D01*
X91445Y16565D01*
X91456Y16748D01*
X91473Y16915D01*
X91501Y17070D01*
X91529Y17215D01*
X91556Y17342D01*
X91595Y17459D01*
X91628Y17559D01*
X91662Y17653D01*
X91695Y17725D01*
X91728Y17792D01*
X91756Y17847D01*
X91784Y17886D01*
X91800Y17914D01*
X91812Y17931D01*
X91817Y17936D01*
X91878Y18008D01*
X91945Y18069D01*
X92017Y18119D01*
X92089Y18169D01*
X92161Y18208D01*
X92233Y18236D01*
X92300Y18264D01*
X92372Y18286D01*
X92439Y18302D01*
X92494Y18314D01*
X92550Y18325D01*
X92594Y18330D01*
X92633Y18336D01*
X92689D01*
X92788Y18330D01*
D02*
G37*
G36*
X95681Y-15443D02*
X95786Y-15454D01*
X95886Y-15476D01*
X95969Y-15498D01*
X96036Y-15521D01*
X96092Y-15543D01*
X96125Y-15554D01*
X96130Y-15560D01*
X96136D01*
X96225Y-15609D01*
X96308Y-15665D01*
X96375Y-15720D01*
X96430Y-15770D01*
X96474Y-15820D01*
X96508Y-15859D01*
X96530Y-15881D01*
X96536Y-15892D01*
X96586Y-15976D01*
X96630Y-16064D01*
X96663Y-16159D01*
X96697Y-16248D01*
X96719Y-16331D01*
X96735Y-16392D01*
X96741Y-16420D01*
Y-16436D01*
X96746Y-16447D01*
Y-16453D01*
X96069Y-16564D01*
X96053Y-16475D01*
X96030Y-16398D01*
X96008Y-16331D01*
X95981Y-16281D01*
X95953Y-16237D01*
X95931Y-16203D01*
X95914Y-16187D01*
X95908Y-16181D01*
X95859Y-16137D01*
X95803Y-16103D01*
X95748Y-16081D01*
X95697Y-16064D01*
X95653Y-16053D01*
X95620Y-16048D01*
X95587D01*
X95520Y-16053D01*
X95453Y-16064D01*
X95403Y-16087D01*
X95359Y-16103D01*
X95320Y-16126D01*
X95298Y-16148D01*
X95281Y-16159D01*
X95276Y-16164D01*
X95237Y-16209D01*
X95209Y-16264D01*
X95187Y-16314D01*
X95176Y-16364D01*
X95165Y-16409D01*
X95159Y-16442D01*
Y-16464D01*
Y-16475D01*
X95165Y-16558D01*
X95181Y-16631D01*
X95209Y-16692D01*
X95237Y-16742D01*
X95270Y-16786D01*
X95292Y-16814D01*
X95315Y-16836D01*
X95320Y-16841D01*
X95387Y-16886D01*
X95459Y-16919D01*
X95537Y-16941D01*
X95609Y-16958D01*
X95675Y-16964D01*
X95731Y-16969D01*
X95781D01*
X95859Y-17563D01*
X95786Y-17546D01*
X95725Y-17530D01*
X95664Y-17519D01*
X95614Y-17513D01*
X95575Y-17507D01*
X95520D01*
X95442Y-17513D01*
X95376Y-17535D01*
X95315Y-17558D01*
X95259Y-17591D01*
X95220Y-17618D01*
X95187Y-17646D01*
X95165Y-17669D01*
X95159Y-17674D01*
X95109Y-17741D01*
X95070Y-17813D01*
X95043Y-17885D01*
X95020Y-17957D01*
X95009Y-18024D01*
X95004Y-18074D01*
Y-18107D01*
Y-18113D01*
Y-18118D01*
X95009Y-18224D01*
X95026Y-18318D01*
X95054Y-18401D01*
X95082Y-18468D01*
X95115Y-18518D01*
X95137Y-18556D01*
X95159Y-18584D01*
X95165Y-18590D01*
X95226Y-18645D01*
X95292Y-18690D01*
X95353Y-18717D01*
X95415Y-18740D01*
X95470Y-18751D01*
X95509Y-18756D01*
X95537Y-18762D01*
X95548D01*
X95625Y-18756D01*
X95692Y-18740D01*
X95753Y-18717D01*
X95809Y-18690D01*
X95847Y-18667D01*
X95881Y-18645D01*
X95903Y-18629D01*
X95908Y-18623D01*
X95958Y-18562D01*
X96003Y-18495D01*
X96030Y-18423D01*
X96058Y-18357D01*
X96075Y-18296D01*
X96086Y-18246D01*
X96092Y-18212D01*
Y-18207D01*
Y-18201D01*
X96802Y-18290D01*
X96791Y-18379D01*
X96769Y-18462D01*
X96719Y-18618D01*
X96658Y-18751D01*
X96619Y-18806D01*
X96586Y-18862D01*
X96552Y-18912D01*
X96519Y-18950D01*
X96491Y-18989D01*
X96463Y-19017D01*
X96441Y-19039D01*
X96425Y-19056D01*
X96413Y-19067D01*
X96408Y-19073D01*
X96341Y-19123D01*
X96269Y-19173D01*
X96203Y-19211D01*
X96125Y-19245D01*
X95981Y-19300D01*
X95847Y-19333D01*
X95781Y-19345D01*
X95725Y-19356D01*
X95675Y-19361D01*
X95631Y-19367D01*
X95592Y-19372D01*
X95542D01*
X95442Y-19367D01*
X95342Y-19356D01*
X95253Y-19339D01*
X95165Y-19317D01*
X95087Y-19289D01*
X95009Y-19261D01*
X94937Y-19228D01*
X94876Y-19195D01*
X94821Y-19161D01*
X94765Y-19128D01*
X94726Y-19100D01*
X94687Y-19073D01*
X94660Y-19050D01*
X94638Y-19034D01*
X94626Y-19023D01*
X94621Y-19017D01*
X94554Y-18950D01*
X94499Y-18878D01*
X94449Y-18806D01*
X94404Y-18734D01*
X94371Y-18656D01*
X94338Y-18584D01*
X94293Y-18451D01*
X94282Y-18390D01*
X94271Y-18329D01*
X94260Y-18279D01*
X94254Y-18235D01*
X94249Y-18201D01*
Y-18173D01*
Y-18157D01*
Y-18151D01*
X94260Y-18024D01*
X94282Y-17913D01*
X94310Y-17807D01*
X94349Y-17724D01*
X94388Y-17652D01*
X94415Y-17602D01*
X94438Y-17569D01*
X94449Y-17558D01*
X94526Y-17474D01*
X94615Y-17402D01*
X94704Y-17347D01*
X94787Y-17302D01*
X94859Y-17269D01*
X94920Y-17252D01*
X94943Y-17241D01*
X94959D01*
X94971Y-17236D01*
X94976D01*
X94876Y-17175D01*
X94793Y-17113D01*
X94721Y-17047D01*
X94654Y-16980D01*
X94599Y-16914D01*
X94554Y-16847D01*
X94521Y-16781D01*
X94488Y-16719D01*
X94465Y-16658D01*
X94449Y-16603D01*
X94438Y-16553D01*
X94432Y-16509D01*
X94427Y-16475D01*
X94421Y-16447D01*
Y-16431D01*
Y-16425D01*
X94427Y-16359D01*
X94432Y-16298D01*
X94465Y-16175D01*
X94504Y-16064D01*
X94554Y-15970D01*
X94604Y-15892D01*
X94649Y-15837D01*
X94665Y-15815D01*
X94682Y-15798D01*
X94687Y-15793D01*
X94693Y-15787D01*
X94754Y-15726D01*
X94826Y-15671D01*
X94893Y-15626D01*
X94965Y-15587D01*
X95043Y-15548D01*
X95115Y-15521D01*
X95253Y-15482D01*
X95315Y-15465D01*
X95376Y-15454D01*
X95426Y-15449D01*
X95476Y-15443D01*
X95514Y-15437D01*
X95564D01*
X95681Y-15443D01*
D02*
G37*
G36*
X92717D02*
X92806Y-15454D01*
X92895Y-15471D01*
X92978Y-15493D01*
X93056Y-15521D01*
X93128Y-15554D01*
X93200Y-15582D01*
X93256Y-15615D01*
X93311Y-15654D01*
X93361Y-15682D01*
X93400Y-15715D01*
X93439Y-15743D01*
X93466Y-15765D01*
X93483Y-15781D01*
X93494Y-15793D01*
X93500Y-15798D01*
X93561Y-15870D01*
X93611Y-15942D01*
X93661Y-16020D01*
X93700Y-16098D01*
X93733Y-16175D01*
X93761Y-16259D01*
X93799Y-16409D01*
X93816Y-16475D01*
X93827Y-16542D01*
X93833Y-16597D01*
X93838Y-16647D01*
X93844Y-16692D01*
Y-16719D01*
Y-16742D01*
Y-16747D01*
X93838Y-16847D01*
X93827Y-16947D01*
X93816Y-17041D01*
X93794Y-17125D01*
X93766Y-17208D01*
X93738Y-17280D01*
X93711Y-17352D01*
X93677Y-17413D01*
X93650Y-17469D01*
X93622Y-17519D01*
X93594Y-17558D01*
X93566Y-17596D01*
X93544Y-17618D01*
X93533Y-17641D01*
X93522Y-17652D01*
X93516Y-17657D01*
X93455Y-17718D01*
X93389Y-17774D01*
X93322Y-17818D01*
X93256Y-17857D01*
X93189Y-17890D01*
X93128Y-17924D01*
X93006Y-17963D01*
X92900Y-17990D01*
X92856Y-17996D01*
X92817Y-18001D01*
X92784Y-18007D01*
X92739D01*
X92662Y-18001D01*
X92589Y-17990D01*
X92523Y-17979D01*
X92456Y-17957D01*
X92334Y-17907D01*
X92234Y-17846D01*
X92157Y-17785D01*
X92123Y-17757D01*
X92096Y-17735D01*
X92073Y-17713D01*
X92057Y-17696D01*
X92051Y-17691D01*
X92046Y-17685D01*
X92057Y-17802D01*
X92068Y-17913D01*
X92079Y-18013D01*
X92096Y-18101D01*
X92112Y-18179D01*
X92129Y-18251D01*
X92146Y-18312D01*
X92162Y-18368D01*
X92184Y-18418D01*
X92195Y-18457D01*
X92212Y-18490D01*
X92223Y-18512D01*
X92234Y-18534D01*
X92245Y-18545D01*
X92251Y-18556D01*
X92312Y-18623D01*
X92379Y-18673D01*
X92440Y-18712D01*
X92501Y-18734D01*
X92556Y-18751D01*
X92595Y-18756D01*
X92623Y-18762D01*
X92634D01*
X92695Y-18756D01*
X92756Y-18745D01*
X92800Y-18729D01*
X92845Y-18712D01*
X92878Y-18695D01*
X92900Y-18679D01*
X92917Y-18667D01*
X92923Y-18662D01*
X92961Y-18618D01*
X92989Y-18568D01*
X93011Y-18512D01*
X93028Y-18457D01*
X93045Y-18412D01*
X93050Y-18373D01*
X93056Y-18346D01*
Y-18335D01*
X93766Y-18418D01*
X93749Y-18507D01*
X93727Y-18584D01*
X93705Y-18662D01*
X93677Y-18729D01*
X93650Y-18795D01*
X93622Y-18856D01*
X93589Y-18906D01*
X93561Y-18956D01*
X93528Y-18995D01*
X93505Y-19034D01*
X93477Y-19061D01*
X93455Y-19089D01*
X93439Y-19106D01*
X93422Y-19123D01*
X93417Y-19128D01*
X93411Y-19134D01*
X93355Y-19178D01*
X93300Y-19211D01*
X93178Y-19272D01*
X93061Y-19311D01*
X92945Y-19345D01*
X92839Y-19361D01*
X92795Y-19367D01*
X92756D01*
X92728Y-19372D01*
X92684D01*
X92567Y-19367D01*
X92462Y-19350D01*
X92362Y-19328D01*
X92262Y-19300D01*
X92173Y-19261D01*
X92090Y-19222D01*
X92012Y-19184D01*
X91946Y-19139D01*
X91885Y-19095D01*
X91829Y-19056D01*
X91785Y-19012D01*
X91746Y-18978D01*
X91713Y-18950D01*
X91690Y-18928D01*
X91679Y-18912D01*
X91674Y-18906D01*
X91602Y-18812D01*
X91546Y-18706D01*
X91491Y-18590D01*
X91446Y-18473D01*
X91407Y-18346D01*
X91374Y-18218D01*
X91352Y-18096D01*
X91330Y-17968D01*
X91313Y-17852D01*
X91302Y-17746D01*
X91291Y-17646D01*
X91285Y-17558D01*
X91280Y-17485D01*
Y-17430D01*
Y-17413D01*
Y-17397D01*
Y-17391D01*
Y-17385D01*
X91285Y-17197D01*
X91296Y-17025D01*
X91313Y-16864D01*
X91341Y-16714D01*
X91369Y-16581D01*
X91396Y-16459D01*
X91435Y-16348D01*
X91468Y-16248D01*
X91502Y-16164D01*
X91535Y-16092D01*
X91568Y-16031D01*
X91596Y-15981D01*
X91624Y-15942D01*
X91641Y-15915D01*
X91652Y-15898D01*
X91657Y-15892D01*
X91729Y-15815D01*
X91807Y-15743D01*
X91885Y-15682D01*
X91962Y-15632D01*
X92046Y-15587D01*
X92123Y-15548D01*
X92201Y-15521D01*
X92279Y-15493D01*
X92345Y-15476D01*
X92412Y-15460D01*
X92467Y-15449D01*
X92517Y-15443D01*
X92562D01*
X92589Y-15437D01*
X92617D01*
X92717Y-15443D01*
D02*
G37*
G36*
X24912Y18826D02*
X25001Y18820D01*
X25173Y18792D01*
X25317Y18748D01*
X25383Y18726D01*
X25445Y18698D01*
X25500Y18676D01*
X25545Y18648D01*
X25589Y18626D01*
X25622Y18609D01*
X25650Y18587D01*
X25667Y18576D01*
X25678Y18570D01*
X25683Y18565D01*
X25744Y18509D01*
X25800Y18454D01*
X25850Y18387D01*
X25894Y18315D01*
X25961Y18171D01*
X26016Y18032D01*
X26033Y17960D01*
X26050Y17899D01*
X26066Y17843D01*
X26072Y17794D01*
X26083Y17749D01*
Y17721D01*
X26088Y17699D01*
Y17694D01*
X25356Y17621D01*
X25345Y17732D01*
X25322Y17827D01*
X25300Y17910D01*
X25273Y17971D01*
X25250Y18021D01*
X25228Y18054D01*
X25211Y18077D01*
X25206Y18082D01*
X25150Y18126D01*
X25089Y18160D01*
X25028Y18188D01*
X24967Y18204D01*
X24917Y18215D01*
X24873Y18221D01*
X24834D01*
X24751Y18215D01*
X24679Y18199D01*
X24618Y18176D01*
X24562Y18154D01*
X24523Y18132D01*
X24490Y18110D01*
X24473Y18093D01*
X24468Y18088D01*
X24423Y18032D01*
X24390Y17971D01*
X24368Y17910D01*
X24351Y17849D01*
X24340Y17794D01*
X24335Y17743D01*
Y17716D01*
Y17710D01*
Y17705D01*
X24340Y17621D01*
X24357Y17544D01*
X24385Y17466D01*
X24412Y17399D01*
X24440Y17338D01*
X24468Y17294D01*
X24484Y17266D01*
X24490Y17255D01*
X24512Y17222D01*
X24545Y17183D01*
X24590Y17133D01*
X24634Y17089D01*
X24734Y16983D01*
X24834Y16878D01*
X24934Y16778D01*
X24978Y16733D01*
X25023Y16700D01*
X25056Y16667D01*
X25078Y16645D01*
X25095Y16628D01*
X25100Y16622D01*
X25211Y16517D01*
X25311Y16417D01*
X25406Y16323D01*
X25489Y16239D01*
X25567Y16156D01*
X25633Y16079D01*
X25694Y16012D01*
X25744Y15945D01*
X25789Y15890D01*
X25828Y15840D01*
X25861Y15801D01*
X25883Y15762D01*
X25905Y15740D01*
X25916Y15718D01*
X25927Y15707D01*
Y15701D01*
X26000Y15573D01*
X26055Y15440D01*
X26100Y15318D01*
X26133Y15207D01*
X26155Y15107D01*
X26160Y15068D01*
X26166Y15035D01*
X26172Y15007D01*
X26177Y14985D01*
Y14974D01*
Y14968D01*
X23596D01*
Y15651D01*
X25062D01*
X25017Y15723D01*
X24967Y15784D01*
X24945Y15812D01*
X24928Y15834D01*
X24917Y15845D01*
X24912Y15851D01*
X24890Y15873D01*
X24867Y15901D01*
X24801Y15962D01*
X24729Y16034D01*
X24656Y16106D01*
X24584Y16173D01*
X24523Y16228D01*
X24501Y16251D01*
X24484Y16267D01*
X24473Y16273D01*
X24468Y16278D01*
X24346Y16395D01*
X24246Y16489D01*
X24162Y16578D01*
X24096Y16645D01*
X24046Y16700D01*
X24013Y16739D01*
X23990Y16767D01*
X23985Y16772D01*
X23913Y16867D01*
X23852Y16955D01*
X23802Y17039D01*
X23763Y17111D01*
X23730Y17172D01*
X23707Y17222D01*
X23696Y17249D01*
X23691Y17261D01*
X23658Y17349D01*
X23635Y17438D01*
X23619Y17522D01*
X23607Y17599D01*
X23602Y17660D01*
X23596Y17710D01*
Y17743D01*
Y17755D01*
X23602Y17838D01*
X23613Y17921D01*
X23624Y17999D01*
X23646Y18071D01*
X23702Y18199D01*
X23757Y18310D01*
X23791Y18360D01*
X23818Y18398D01*
X23846Y18437D01*
X23874Y18465D01*
X23896Y18487D01*
X23907Y18509D01*
X23918Y18515D01*
X23924Y18520D01*
X23985Y18576D01*
X24057Y18626D01*
X24124Y18665D01*
X24201Y18698D01*
X24346Y18754D01*
X24490Y18792D01*
X24556Y18804D01*
X24618Y18815D01*
X24673Y18820D01*
X24723Y18826D01*
X24762Y18831D01*
X24817D01*
X24912Y18826D01*
D02*
G37*
G36*
X49787Y-92141D02*
X48492D01*
Y-90207D01*
X47446Y-89134D01*
X45680Y-92141D01*
X44005D01*
X46549Y-88237D01*
X44126Y-85739D01*
X45865D01*
X48492Y-88589D01*
Y-85739D01*
X49787D01*
Y-92141D01*
D02*
G37*
G36*
X12518Y-92141D02*
X11325D01*
Y-87923D01*
X8726Y-92141D01*
X7431D01*
Y-85739D01*
X8624D01*
Y-90050D01*
X11270Y-85739D01*
X12518D01*
Y-92141D01*
D02*
G37*
G36*
X73670Y-92141D02*
X72477D01*
Y-87108D01*
X71219Y-92141D01*
X69970D01*
X68712Y-87108D01*
X68703Y-92141D01*
X67510D01*
Y-85739D01*
X69452D01*
X70590Y-90115D01*
X71737Y-85739D01*
X73670D01*
Y-92141D01*
D02*
G37*
G36*
X34848Y-85628D02*
X35088Y-85656D01*
X35301Y-85703D01*
X35514Y-85758D01*
X35699Y-85823D01*
X35884Y-85897D01*
X36041Y-85980D01*
X36189Y-86063D01*
X36328Y-86146D01*
X36439Y-86230D01*
X36541Y-86304D01*
X36624Y-86369D01*
X36689Y-86424D01*
X36735Y-86470D01*
X36763Y-86498D01*
X36772Y-86507D01*
X36920Y-86683D01*
X37040Y-86868D01*
X37151Y-87062D01*
X37244Y-87266D01*
X37327Y-87479D01*
X37392Y-87682D01*
X37447Y-87885D01*
X37493Y-88080D01*
X37530Y-88274D01*
X37549Y-88441D01*
X37567Y-88598D01*
X37586Y-88727D01*
Y-88838D01*
X37595Y-88921D01*
Y-88977D01*
Y-88986D01*
Y-88995D01*
X37586Y-89273D01*
X37558Y-89532D01*
X37521Y-89782D01*
X37466Y-90004D01*
X37410Y-90216D01*
X37336Y-90420D01*
X37262Y-90596D01*
X37188Y-90753D01*
X37114Y-90901D01*
X37040Y-91031D01*
X36966Y-91132D01*
X36911Y-91225D01*
X36855Y-91290D01*
X36818Y-91345D01*
X36790Y-91373D01*
X36781Y-91382D01*
X36624Y-91539D01*
X36457Y-91669D01*
X36282Y-91789D01*
X36106Y-91882D01*
X35930Y-91965D01*
X35754Y-92039D01*
X35588Y-92094D01*
X35431Y-92141D01*
X35273Y-92177D01*
X35135Y-92205D01*
X35005Y-92224D01*
X34903Y-92233D01*
X34811Y-92242D01*
X34746Y-92251D01*
X34691D01*
X34496Y-92242D01*
X34321Y-92233D01*
X34145Y-92205D01*
X33988Y-92168D01*
X33840Y-92131D01*
X33701Y-92094D01*
X33571Y-92048D01*
X33451Y-91992D01*
X33349Y-91946D01*
X33257Y-91900D01*
X33174Y-91863D01*
X33109Y-91826D01*
X33053Y-91789D01*
X33016Y-91761D01*
X32998Y-91752D01*
X32989Y-91743D01*
X32868Y-91641D01*
X32757Y-91530D01*
X32554Y-91280D01*
X32387Y-91021D01*
X32258Y-90772D01*
X32202Y-90651D01*
X32156Y-90540D01*
X32119Y-90438D01*
X32082Y-90355D01*
X32054Y-90281D01*
X32036Y-90226D01*
X32027Y-90189D01*
Y-90180D01*
X33285Y-89791D01*
X33359Y-90041D01*
X33442Y-90254D01*
X33525Y-90429D01*
X33618Y-90577D01*
X33692Y-90688D01*
X33756Y-90762D01*
X33803Y-90808D01*
X33821Y-90827D01*
X33969Y-90938D01*
X34117Y-91012D01*
X34265Y-91067D01*
X34395Y-91114D01*
X34515Y-91132D01*
X34617Y-91141D01*
X34654Y-91151D01*
X34700D01*
X34829Y-91141D01*
X34950Y-91132D01*
X35172Y-91067D01*
X35366Y-90993D01*
X35523Y-90892D01*
X35653Y-90799D01*
X35745Y-90725D01*
X35782Y-90688D01*
X35810Y-90661D01*
X35819Y-90651D01*
X35828Y-90642D01*
X35902Y-90540D01*
X35967Y-90420D01*
X36032Y-90290D01*
X36078Y-90152D01*
X36152Y-89865D01*
X36208Y-89578D01*
X36226Y-89439D01*
X36235Y-89319D01*
X36254Y-89199D01*
Y-89097D01*
X36263Y-89023D01*
Y-88959D01*
Y-88912D01*
Y-88903D01*
X36254Y-88690D01*
X36245Y-88496D01*
X36226Y-88320D01*
X36198Y-88154D01*
X36161Y-88006D01*
X36124Y-87867D01*
X36087Y-87747D01*
X36041Y-87636D01*
X36004Y-87543D01*
X35967Y-87460D01*
X35930Y-87395D01*
X35893Y-87340D01*
X35865Y-87293D01*
X35847Y-87266D01*
X35828Y-87247D01*
Y-87238D01*
X35745Y-87146D01*
X35653Y-87062D01*
X35560Y-86997D01*
X35458Y-86942D01*
X35264Y-86849D01*
X35079Y-86785D01*
X34922Y-86748D01*
X34848Y-86739D01*
X34792Y-86729D01*
X34737Y-86720D01*
X34672D01*
X34487Y-86729D01*
X34321Y-86766D01*
X34173Y-86813D01*
X34043Y-86868D01*
X33941Y-86923D01*
X33867Y-86970D01*
X33821Y-87007D01*
X33803Y-87016D01*
X33682Y-87127D01*
X33571Y-87256D01*
X33488Y-87386D01*
X33423Y-87515D01*
X33377Y-87626D01*
X33349Y-87710D01*
X33331Y-87747D01*
Y-87774D01*
X33322Y-87784D01*
Y-87793D01*
X32045Y-87488D01*
X32138Y-87220D01*
X32239Y-86988D01*
X32350Y-86785D01*
X32452Y-86618D01*
X32554Y-86489D01*
X32591Y-86433D01*
X32628Y-86387D01*
X32656Y-86359D01*
X32683Y-86331D01*
X32693Y-86313D01*
X32702D01*
X32841Y-86193D01*
X32998Y-86082D01*
X33146Y-85989D01*
X33303Y-85915D01*
X33470Y-85841D01*
X33627Y-85786D01*
X33784Y-85739D01*
X33932Y-85703D01*
X34071Y-85675D01*
X34200Y-85656D01*
X34311Y-85638D01*
X34413Y-85628D01*
X34496Y-85619D01*
X34607D01*
X34848Y-85628D01*
D02*
G37*
G36*
X104954Y-92141D02*
X102179D01*
X102021Y-92131D01*
X101744D01*
X101633Y-92122D01*
X101457D01*
X101392Y-92113D01*
X101300D01*
X101263Y-92103D01*
X101226D01*
X101041Y-92076D01*
X100874Y-92030D01*
X100726Y-91983D01*
X100597Y-91928D01*
X100495Y-91882D01*
X100421Y-91835D01*
X100375Y-91808D01*
X100356Y-91798D01*
X100227Y-91697D01*
X100125Y-91585D01*
X100023Y-91484D01*
X99949Y-91373D01*
X99885Y-91280D01*
X99838Y-91206D01*
X99811Y-91160D01*
X99801Y-91141D01*
X99737Y-90984D01*
X99681Y-90836D01*
X99644Y-90688D01*
X99626Y-90559D01*
X99607Y-90448D01*
X99598Y-90364D01*
Y-90309D01*
Y-90300D01*
Y-90290D01*
X99607Y-90087D01*
X99644Y-89902D01*
X99700Y-89745D01*
X99755Y-89597D01*
X99811Y-89486D01*
X99866Y-89403D01*
X99903Y-89347D01*
X99912Y-89328D01*
X100042Y-89180D01*
X100181Y-89060D01*
X100338Y-88959D01*
X100477Y-88885D01*
X100606Y-88820D01*
X100717Y-88774D01*
X100754Y-88764D01*
X100782Y-88755D01*
X100800Y-88746D01*
X100810D01*
X100662Y-88662D01*
X100532Y-88579D01*
X100421Y-88477D01*
X100329Y-88394D01*
X100264Y-88311D01*
X100208Y-88246D01*
X100171Y-88200D01*
X100162Y-88182D01*
X100079Y-88033D01*
X100014Y-87895D01*
X99977Y-87756D01*
X99940Y-87626D01*
X99922Y-87515D01*
X99912Y-87432D01*
Y-87377D01*
Y-87367D01*
Y-87358D01*
X99922Y-87210D01*
X99940Y-87062D01*
X99977Y-86942D01*
X100014Y-86831D01*
X100051Y-86739D01*
X100088Y-86664D01*
X100107Y-86628D01*
X100116Y-86609D01*
X100190Y-86489D01*
X100273Y-86387D01*
X100356Y-86295D01*
X100430Y-86211D01*
X100504Y-86156D01*
X100560Y-86110D01*
X100597Y-86082D01*
X100606Y-86072D01*
X100717Y-85998D01*
X100837Y-85943D01*
X100948Y-85897D01*
X101050Y-85860D01*
X101143Y-85832D01*
X101207Y-85813D01*
X101254Y-85804D01*
X101272D01*
X101429Y-85786D01*
X101605Y-85767D01*
X101790Y-85758D01*
X101975Y-85749D01*
X102142Y-85739D01*
X104954D01*
Y-92141D01*
D02*
G37*
G36*
X91994Y-86822D02*
X90098D01*
Y-92141D01*
X88803D01*
Y-86822D01*
X86916D01*
Y-85739D01*
X91994D01*
Y-86822D01*
D02*
G37*
G36*
X86528D02*
X84631D01*
Y-92141D01*
X83336D01*
Y-86822D01*
X81449D01*
Y-85739D01*
X86528D01*
Y-86822D01*
D02*
G37*
G36*
X57788Y-92141D02*
X56493D01*
Y-85739D01*
X57788D01*
Y-92141D01*
D02*
G37*
G36*
X55226D02*
X50712D01*
Y-91058D01*
X53931D01*
Y-85786D01*
X55226D01*
Y-92141D01*
D02*
G37*
G36*
X30907D02*
X29612D01*
Y-89467D01*
X29196D01*
X29067Y-89477D01*
X28956Y-89486D01*
X28863Y-89504D01*
X28789Y-89513D01*
X28743Y-89532D01*
X28715Y-89541D01*
X28706D01*
X28632Y-89578D01*
X28558Y-89615D01*
X28493Y-89662D01*
X28428Y-89698D01*
X28382Y-89745D01*
X28345Y-89782D01*
X28327Y-89800D01*
X28317Y-89810D01*
X28280Y-89856D01*
X28234Y-89902D01*
X28132Y-90041D01*
X28021Y-90189D01*
X27901Y-90355D01*
X27799Y-90503D01*
X27753Y-90577D01*
X27716Y-90633D01*
X27679Y-90679D01*
X27651Y-90716D01*
X27642Y-90744D01*
X27633Y-90753D01*
X26708Y-92141D01*
X25154D01*
X25940Y-90892D01*
X26023Y-90762D01*
X26107Y-90633D01*
X26181Y-90522D01*
X26255Y-90420D01*
X26319Y-90328D01*
X26375Y-90235D01*
X26486Y-90096D01*
X26569Y-89985D01*
X26625Y-89911D01*
X26671Y-89865D01*
X26680Y-89856D01*
X26782Y-89745D01*
X26902Y-89643D01*
X27013Y-89560D01*
X27124Y-89477D01*
X27217Y-89412D01*
X27291Y-89366D01*
X27346Y-89328D01*
X27355Y-89319D01*
X27365D01*
X27207Y-89292D01*
X27069Y-89254D01*
X26939Y-89218D01*
X26810Y-89171D01*
X26699Y-89125D01*
X26597Y-89079D01*
X26495Y-89033D01*
X26412Y-88977D01*
X26338Y-88931D01*
X26273Y-88885D01*
X26218Y-88838D01*
X26181Y-88801D01*
X26144Y-88774D01*
X26116Y-88746D01*
X26107Y-88736D01*
X26097Y-88727D01*
X26023Y-88635D01*
X25959Y-88542D01*
X25848Y-88339D01*
X25774Y-88144D01*
X25727Y-87950D01*
X25690Y-87784D01*
X25681Y-87719D01*
Y-87654D01*
X25672Y-87608D01*
Y-87562D01*
Y-87543D01*
Y-87534D01*
X25681Y-87331D01*
X25718Y-87136D01*
X25764Y-86970D01*
X25811Y-86822D01*
X25866Y-86702D01*
X25912Y-86609D01*
X25931Y-86581D01*
X25949Y-86554D01*
X25959Y-86544D01*
Y-86535D01*
X26070Y-86378D01*
X26190Y-86248D01*
X26310Y-86146D01*
X26430Y-86054D01*
X26541Y-85998D01*
X26625Y-85952D01*
X26680Y-85925D01*
X26689Y-85915D01*
X26699D01*
X26791Y-85887D01*
X26893Y-85860D01*
X27124Y-85813D01*
X27374Y-85786D01*
X27614Y-85758D01*
X27735D01*
X27836Y-85749D01*
X27938D01*
X28021Y-85739D01*
X30907D01*
Y-92141D01*
D02*
G37*
G36*
X24451D02*
X19585D01*
Y-91058D01*
X23156D01*
Y-89319D01*
X19946D01*
Y-88237D01*
X23156D01*
Y-86822D01*
X19706D01*
Y-85739D01*
X24451D01*
Y-92141D01*
D02*
G37*
G36*
X18485Y-92141D02*
X13619D01*
Y-91058D01*
X17190D01*
Y-89319D01*
X13980D01*
Y-88237D01*
X17190D01*
Y-86822D01*
X13739D01*
Y-85739D01*
X18485D01*
Y-92141D01*
D02*
G37*
G36*
X95953Y-85628D02*
X96222Y-85656D01*
X96453Y-85703D01*
X96656Y-85749D01*
X96740Y-85777D01*
X96823Y-85795D01*
X96888Y-85813D01*
X96943Y-85841D01*
X96989Y-85851D01*
X97026Y-85869D01*
X97045Y-85878D01*
X97054D01*
X97221Y-85952D01*
X97378Y-86045D01*
X97517Y-86146D01*
X97637Y-86239D01*
X97739Y-86322D01*
X97822Y-86396D01*
X97868Y-86443D01*
X97877Y-86452D01*
X97887Y-86461D01*
X98016Y-86609D01*
X98136Y-86766D01*
X98238Y-86905D01*
X98321Y-87044D01*
X98386Y-87164D01*
X98442Y-87256D01*
X98451Y-87293D01*
X98469Y-87321D01*
X98479Y-87331D01*
Y-87340D01*
X98571Y-87599D01*
X98645Y-87876D01*
X98691Y-88154D01*
X98728Y-88413D01*
X98738Y-88533D01*
X98747Y-88644D01*
X98756Y-88736D01*
Y-88820D01*
X98765Y-88894D01*
Y-88940D01*
Y-88977D01*
Y-88986D01*
X98756Y-89264D01*
X98728Y-89532D01*
X98691Y-89782D01*
X98636Y-90013D01*
X98571Y-90226D01*
X98497Y-90420D01*
X98423Y-90605D01*
X98340Y-90762D01*
X98266Y-90910D01*
X98192Y-91031D01*
X98118Y-91141D01*
X98053Y-91234D01*
X97998Y-91299D01*
X97961Y-91354D01*
X97933Y-91382D01*
X97924Y-91391D01*
X97757Y-91549D01*
X97581Y-91678D01*
X97406Y-91798D01*
X97211Y-91891D01*
X97026Y-91974D01*
X96832Y-92048D01*
X96656Y-92103D01*
X96471Y-92150D01*
X96305Y-92187D01*
X96148Y-92215D01*
X96009Y-92233D01*
X95889Y-92242D01*
X95796Y-92251D01*
X95722Y-92261D01*
X95657D01*
X95398Y-92251D01*
X95158Y-92224D01*
X94927Y-92177D01*
X94714Y-92122D01*
X94510Y-92057D01*
X94325Y-91983D01*
X94159Y-91909D01*
X94002Y-91826D01*
X93872Y-91743D01*
X93752Y-91669D01*
X93650Y-91595D01*
X93567Y-91530D01*
X93493Y-91474D01*
X93447Y-91428D01*
X93419Y-91400D01*
X93410Y-91391D01*
X93262Y-91215D01*
X93132Y-91031D01*
X93012Y-90836D01*
X92919Y-90642D01*
X92836Y-90438D01*
X92762Y-90235D01*
X92707Y-90031D01*
X92660Y-89837D01*
X92633Y-89662D01*
X92605Y-89486D01*
X92586Y-89338D01*
X92568Y-89208D01*
Y-89097D01*
X92559Y-89014D01*
Y-88968D01*
Y-88949D01*
X92568Y-88662D01*
X92596Y-88394D01*
X92633Y-88144D01*
X92688Y-87904D01*
X92753Y-87691D01*
X92827Y-87488D01*
X92901Y-87303D01*
X92984Y-87146D01*
X93067Y-86997D01*
X93141Y-86868D01*
X93215Y-86757D01*
X93280Y-86664D01*
X93326Y-86600D01*
X93373Y-86544D01*
X93400Y-86516D01*
X93410Y-86507D01*
X93576Y-86350D01*
X93752Y-86211D01*
X93937Y-86091D01*
X94122Y-85989D01*
X94316Y-85906D01*
X94501Y-85832D01*
X94686Y-85777D01*
X94862Y-85730D01*
X95028Y-85693D01*
X95186Y-85666D01*
X95324Y-85647D01*
X95445Y-85628D01*
X95537D01*
X95611Y-85619D01*
X95676D01*
X95953Y-85628D01*
D02*
G37*
G36*
X78064D02*
X78332Y-85656D01*
X78563Y-85703D01*
X78767Y-85749D01*
X78850Y-85777D01*
X78933Y-85795D01*
X78998Y-85813D01*
X79054Y-85841D01*
X79100Y-85851D01*
X79137Y-85869D01*
X79155Y-85878D01*
X79165D01*
X79331Y-85952D01*
X79488Y-86045D01*
X79627Y-86146D01*
X79747Y-86239D01*
X79849Y-86322D01*
X79932Y-86396D01*
X79979Y-86443D01*
X79988Y-86452D01*
X79997Y-86461D01*
X80127Y-86609D01*
X80247Y-86766D01*
X80349Y-86905D01*
X80432Y-87044D01*
X80497Y-87164D01*
X80552Y-87256D01*
X80561Y-87293D01*
X80580Y-87321D01*
X80589Y-87331D01*
Y-87340D01*
X80682Y-87599D01*
X80756Y-87876D01*
X80802Y-88154D01*
X80839Y-88413D01*
X80848Y-88533D01*
X80857Y-88644D01*
X80867Y-88736D01*
Y-88820D01*
X80876Y-88894D01*
Y-88940D01*
Y-88977D01*
Y-88986D01*
X80867Y-89264D01*
X80839Y-89532D01*
X80802Y-89782D01*
X80746Y-90013D01*
X80682Y-90226D01*
X80608Y-90420D01*
X80534Y-90605D01*
X80450Y-90762D01*
X80376Y-90910D01*
X80302Y-91031D01*
X80228Y-91141D01*
X80164Y-91234D01*
X80108Y-91299D01*
X80071Y-91354D01*
X80043Y-91382D01*
X80034Y-91391D01*
X79868Y-91549D01*
X79692Y-91678D01*
X79516Y-91798D01*
X79322Y-91891D01*
X79137Y-91974D01*
X78943Y-92048D01*
X78767Y-92103D01*
X78582Y-92150D01*
X78415Y-92187D01*
X78258Y-92215D01*
X78119Y-92233D01*
X77999Y-92242D01*
X77907Y-92251D01*
X77833Y-92261D01*
X77768D01*
X77509Y-92251D01*
X77268Y-92224D01*
X77037Y-92177D01*
X76824Y-92122D01*
X76621Y-92057D01*
X76436Y-91983D01*
X76269Y-91909D01*
X76112Y-91826D01*
X75983Y-91743D01*
X75862Y-91669D01*
X75761Y-91595D01*
X75677Y-91530D01*
X75603Y-91474D01*
X75557Y-91428D01*
X75529Y-91400D01*
X75520Y-91391D01*
X75372Y-91215D01*
X75243Y-91031D01*
X75122Y-90836D01*
X75030Y-90642D01*
X74947Y-90438D01*
X74873Y-90235D01*
X74817Y-90031D01*
X74771Y-89837D01*
X74743Y-89662D01*
X74715Y-89486D01*
X74697Y-89338D01*
X74678Y-89208D01*
Y-89097D01*
X74669Y-89014D01*
Y-88968D01*
Y-88949D01*
X74678Y-88662D01*
X74706Y-88394D01*
X74743Y-88144D01*
X74799Y-87904D01*
X74863Y-87691D01*
X74937Y-87488D01*
X75011Y-87303D01*
X75095Y-87146D01*
X75178Y-86997D01*
X75252Y-86868D01*
X75326Y-86757D01*
X75391Y-86664D01*
X75437Y-86600D01*
X75483Y-86544D01*
X75511Y-86516D01*
X75520Y-86507D01*
X75687Y-86350D01*
X75862Y-86211D01*
X76047Y-86091D01*
X76232Y-85989D01*
X76427Y-85906D01*
X76612Y-85832D01*
X76797Y-85777D01*
X76972Y-85730D01*
X77139Y-85693D01*
X77296Y-85666D01*
X77435Y-85647D01*
X77555Y-85628D01*
X77648D01*
X77722Y-85619D01*
X77786D01*
X78064Y-85628D01*
D02*
G37*
G36*
X61747Y-85628D02*
X61987Y-85656D01*
X62200Y-85693D01*
X62385Y-85730D01*
X62468Y-85758D01*
X62542Y-85777D01*
X62598Y-85795D01*
X62653Y-85813D01*
X62690Y-85832D01*
X62718Y-85841D01*
X62737Y-85851D01*
X62746D01*
X62931Y-85943D01*
X63088Y-86045D01*
X63227Y-86156D01*
X63338Y-86257D01*
X63430Y-86350D01*
X63486Y-86424D01*
X63532Y-86480D01*
X63541Y-86489D01*
Y-86498D01*
X63634Y-86655D01*
X63699Y-86822D01*
X63745Y-86979D01*
X63773Y-87118D01*
X63791Y-87238D01*
X63810Y-87331D01*
Y-87367D01*
Y-87395D01*
Y-87405D01*
Y-87414D01*
X63800Y-87552D01*
X63782Y-87691D01*
X63754Y-87811D01*
X63717Y-87932D01*
X63625Y-88154D01*
X63514Y-88348D01*
X63467Y-88431D01*
X63412Y-88496D01*
X63366Y-88561D01*
X63319Y-88616D01*
X63282Y-88653D01*
X63255Y-88681D01*
X63236Y-88700D01*
X63227Y-88709D01*
X63144Y-88774D01*
X63042Y-88838D01*
X62940Y-88903D01*
X62820Y-88959D01*
X62589Y-89069D01*
X62348Y-89162D01*
X62228Y-89199D01*
X62126Y-89236D01*
X62024Y-89264D01*
X61941Y-89292D01*
X61876Y-89310D01*
X61821Y-89328D01*
X61784Y-89338D01*
X61775D01*
X61627Y-89375D01*
X61497Y-89412D01*
X61377Y-89439D01*
X61266Y-89467D01*
X61173Y-89495D01*
X61090Y-89513D01*
X61016Y-89541D01*
X60951Y-89560D01*
X60896Y-89569D01*
X60850Y-89587D01*
X60785Y-89606D01*
X60748Y-89625D01*
X60739D01*
X60618Y-89671D01*
X60526Y-89717D01*
X60443Y-89763D01*
X60378Y-89810D01*
X60332Y-89846D01*
X60304Y-89874D01*
X60285Y-89893D01*
X60276Y-89902D01*
X60230Y-89967D01*
X60193Y-90031D01*
X60174Y-90096D01*
X60156Y-90152D01*
X60147Y-90207D01*
X60137Y-90254D01*
Y-90281D01*
Y-90290D01*
X60147Y-90420D01*
X60184Y-90531D01*
X60239Y-90642D01*
X60295Y-90734D01*
X60359Y-90808D01*
X60406Y-90864D01*
X60443Y-90901D01*
X60461Y-90910D01*
X60591Y-90993D01*
X60739Y-91058D01*
X60896Y-91105D01*
X61044Y-91132D01*
X61183Y-91151D01*
X61294Y-91169D01*
X61395D01*
X61608Y-91160D01*
X61793Y-91123D01*
X61950Y-91077D01*
X62089Y-91021D01*
X62200Y-90966D01*
X62274Y-90920D01*
X62320Y-90882D01*
X62339Y-90873D01*
X62459Y-90744D01*
X62552Y-90605D01*
X62635Y-90448D01*
X62690Y-90290D01*
X62737Y-90152D01*
X62774Y-90041D01*
X62783Y-90004D01*
Y-89967D01*
X62792Y-89948D01*
Y-89939D01*
X64050Y-90059D01*
X64022Y-90254D01*
X63985Y-90438D01*
X63930Y-90614D01*
X63884Y-90772D01*
X63819Y-90920D01*
X63754Y-91058D01*
X63689Y-91179D01*
X63625Y-91290D01*
X63560Y-91382D01*
X63495Y-91465D01*
X63440Y-91539D01*
X63384Y-91604D01*
X63347Y-91650D01*
X63310Y-91678D01*
X63292Y-91697D01*
X63282Y-91706D01*
X63153Y-91808D01*
X63014Y-91891D01*
X62866Y-91965D01*
X62709Y-92030D01*
X62561Y-92076D01*
X62404Y-92122D01*
X62098Y-92187D01*
X61960Y-92215D01*
X61830Y-92233D01*
X61719Y-92242D01*
X61617Y-92251D01*
X61534Y-92261D01*
X61414D01*
X61118Y-92251D01*
X60850Y-92224D01*
X60609Y-92187D01*
X60507Y-92168D01*
X60406Y-92141D01*
X60322Y-92122D01*
X60248Y-92103D01*
X60184Y-92085D01*
X60128Y-92067D01*
X60082Y-92048D01*
X60054Y-92039D01*
X60036Y-92030D01*
X60026D01*
X59823Y-91928D01*
X59656Y-91817D01*
X59499Y-91706D01*
X59379Y-91585D01*
X59286Y-91484D01*
X59212Y-91391D01*
X59175Y-91336D01*
X59157Y-91326D01*
Y-91317D01*
X59055Y-91132D01*
X58972Y-90956D01*
X58916Y-90781D01*
X58879Y-90614D01*
X58861Y-90485D01*
X58852Y-90420D01*
X58842Y-90374D01*
Y-90337D01*
Y-90309D01*
Y-90290D01*
Y-90281D01*
X58852Y-90059D01*
X58879Y-89865D01*
X58926Y-89689D01*
X58972Y-89541D01*
X59018Y-89421D01*
X59064Y-89338D01*
X59092Y-89282D01*
X59101Y-89264D01*
X59203Y-89116D01*
X59323Y-88986D01*
X59444Y-88875D01*
X59555Y-88783D01*
X59656Y-88709D01*
X59740Y-88653D01*
X59795Y-88616D01*
X59804Y-88607D01*
X59814D01*
X59906Y-88561D01*
X59999Y-88515D01*
X60221Y-88431D01*
X60452Y-88357D01*
X60674Y-88283D01*
X60776Y-88256D01*
X60877Y-88228D01*
X60970Y-88200D01*
X61044Y-88182D01*
X61109Y-88163D01*
X61155Y-88154D01*
X61192Y-88144D01*
X61201D01*
X61368Y-88098D01*
X61516Y-88061D01*
X61654Y-88024D01*
X61784Y-87987D01*
X61886Y-87950D01*
X61987Y-87913D01*
X62071Y-87876D01*
X62145Y-87849D01*
X62209Y-87821D01*
X62256Y-87793D01*
X62302Y-87774D01*
X62330Y-87756D01*
X62376Y-87728D01*
X62385Y-87719D01*
X62450Y-87654D01*
X62496Y-87590D01*
X62524Y-87525D01*
X62542Y-87460D01*
X62561Y-87414D01*
X62570Y-87367D01*
Y-87340D01*
Y-87331D01*
X62561Y-87238D01*
X62542Y-87164D01*
X62505Y-87090D01*
X62468Y-87034D01*
X62431Y-86988D01*
X62394Y-86961D01*
X62376Y-86942D01*
X62367Y-86933D01*
X62237Y-86849D01*
X62098Y-86794D01*
X61950Y-86748D01*
X61812Y-86720D01*
X61691Y-86702D01*
X61590Y-86692D01*
X61497D01*
X61303Y-86702D01*
X61136Y-86729D01*
X60998Y-86766D01*
X60887Y-86803D01*
X60794Y-86840D01*
X60729Y-86877D01*
X60692Y-86905D01*
X60683Y-86914D01*
X60591Y-87007D01*
X60507Y-87118D01*
X60443Y-87229D01*
X60396Y-87349D01*
X60359Y-87451D01*
X60341Y-87534D01*
X60322Y-87599D01*
Y-87608D01*
Y-87617D01*
X59027Y-87571D01*
X59037Y-87405D01*
X59064Y-87256D01*
X59101Y-87108D01*
X59148Y-86979D01*
X59194Y-86849D01*
X59249Y-86729D01*
X59305Y-86628D01*
X59360Y-86526D01*
X59425Y-86443D01*
X59481Y-86369D01*
X59536Y-86304D01*
X59582Y-86248D01*
X59619Y-86211D01*
X59647Y-86184D01*
X59666Y-86165D01*
X59675Y-86156D01*
X59795Y-86063D01*
X59925Y-85980D01*
X60063Y-85906D01*
X60211Y-85841D01*
X60359Y-85795D01*
X60507Y-85749D01*
X60803Y-85684D01*
X60942Y-85666D01*
X61062Y-85647D01*
X61183Y-85638D01*
X61284Y-85628D01*
X61368Y-85619D01*
X61479D01*
X61747Y-85628D01*
D02*
G37*
G36*
X41369D02*
X41610Y-85656D01*
X41822Y-85693D01*
X42007Y-85730D01*
X42091Y-85758D01*
X42165Y-85777D01*
X42220Y-85795D01*
X42276Y-85813D01*
X42313Y-85832D01*
X42340Y-85841D01*
X42359Y-85851D01*
X42368D01*
X42553Y-85943D01*
X42710Y-86045D01*
X42849Y-86156D01*
X42960Y-86257D01*
X43053Y-86350D01*
X43108Y-86424D01*
X43154Y-86480D01*
X43164Y-86489D01*
Y-86498D01*
X43256Y-86655D01*
X43321Y-86822D01*
X43367Y-86979D01*
X43395Y-87118D01*
X43413Y-87238D01*
X43432Y-87331D01*
Y-87367D01*
Y-87395D01*
Y-87405D01*
Y-87414D01*
X43423Y-87552D01*
X43404Y-87691D01*
X43376Y-87811D01*
X43339Y-87932D01*
X43247Y-88154D01*
X43136Y-88348D01*
X43090Y-88431D01*
X43034Y-88496D01*
X42988Y-88561D01*
X42942Y-88616D01*
X42905Y-88653D01*
X42877Y-88681D01*
X42858Y-88700D01*
X42849Y-88709D01*
X42766Y-88774D01*
X42664Y-88838D01*
X42562Y-88903D01*
X42442Y-88959D01*
X42211Y-89069D01*
X41970Y-89162D01*
X41850Y-89199D01*
X41748Y-89236D01*
X41647Y-89264D01*
X41563Y-89292D01*
X41499Y-89310D01*
X41443Y-89328D01*
X41406Y-89338D01*
X41397D01*
X41249Y-89375D01*
X41119Y-89412D01*
X40999Y-89439D01*
X40888Y-89467D01*
X40796Y-89495D01*
X40712Y-89513D01*
X40638Y-89541D01*
X40574Y-89560D01*
X40518Y-89569D01*
X40472Y-89587D01*
X40407Y-89606D01*
X40370Y-89625D01*
X40361D01*
X40241Y-89671D01*
X40148Y-89717D01*
X40065Y-89763D01*
X40000Y-89810D01*
X39954Y-89846D01*
X39926Y-89874D01*
X39908Y-89893D01*
X39898Y-89902D01*
X39852Y-89967D01*
X39815Y-90031D01*
X39797Y-90096D01*
X39778Y-90152D01*
X39769Y-90207D01*
X39760Y-90254D01*
Y-90281D01*
Y-90290D01*
X39769Y-90420D01*
X39806Y-90531D01*
X39861Y-90642D01*
X39917Y-90734D01*
X39982Y-90808D01*
X40028Y-90864D01*
X40065Y-90901D01*
X40083Y-90910D01*
X40213Y-90993D01*
X40361Y-91058D01*
X40518Y-91105D01*
X40666Y-91132D01*
X40805Y-91151D01*
X40916Y-91169D01*
X41018D01*
X41230Y-91160D01*
X41415Y-91123D01*
X41573Y-91077D01*
X41711Y-91021D01*
X41822Y-90966D01*
X41896Y-90920D01*
X41943Y-90882D01*
X41961Y-90873D01*
X42081Y-90744D01*
X42174Y-90605D01*
X42257Y-90448D01*
X42313Y-90290D01*
X42359Y-90152D01*
X42396Y-90041D01*
X42405Y-90004D01*
Y-89967D01*
X42414Y-89948D01*
Y-89939D01*
X43672Y-90059D01*
X43645Y-90254D01*
X43608Y-90438D01*
X43552Y-90614D01*
X43506Y-90772D01*
X43441Y-90920D01*
X43376Y-91058D01*
X43312Y-91179D01*
X43247Y-91290D01*
X43182Y-91382D01*
X43117Y-91465D01*
X43062Y-91539D01*
X43006Y-91604D01*
X42969Y-91650D01*
X42932Y-91678D01*
X42914Y-91697D01*
X42905Y-91706D01*
X42775Y-91808D01*
X42636Y-91891D01*
X42488Y-91965D01*
X42331Y-92030D01*
X42183Y-92076D01*
X42026Y-92122D01*
X41721Y-92187D01*
X41582Y-92215D01*
X41452Y-92233D01*
X41341Y-92242D01*
X41240Y-92251D01*
X41156Y-92261D01*
X41036D01*
X40740Y-92251D01*
X40472Y-92224D01*
X40231Y-92187D01*
X40130Y-92168D01*
X40028Y-92141D01*
X39945Y-92122D01*
X39871Y-92103D01*
X39806Y-92085D01*
X39750Y-92067D01*
X39704Y-92048D01*
X39676Y-92039D01*
X39658Y-92030D01*
X39649D01*
X39445Y-91928D01*
X39279Y-91817D01*
X39121Y-91706D01*
X39001Y-91585D01*
X38909Y-91484D01*
X38835Y-91391D01*
X38798Y-91336D01*
X38779Y-91326D01*
Y-91317D01*
X38677Y-91132D01*
X38594Y-90956D01*
X38539Y-90781D01*
X38502Y-90614D01*
X38483Y-90485D01*
X38474Y-90420D01*
X38465Y-90374D01*
Y-90337D01*
Y-90309D01*
Y-90290D01*
Y-90281D01*
X38474Y-90059D01*
X38502Y-89865D01*
X38548Y-89689D01*
X38594Y-89541D01*
X38640Y-89421D01*
X38687Y-89338D01*
X38714Y-89282D01*
X38724Y-89264D01*
X38825Y-89116D01*
X38946Y-88986D01*
X39066Y-88875D01*
X39177Y-88783D01*
X39279Y-88709D01*
X39362Y-88653D01*
X39417Y-88616D01*
X39427Y-88607D01*
X39436D01*
X39528Y-88561D01*
X39621Y-88515D01*
X39843Y-88431D01*
X40074Y-88357D01*
X40296Y-88283D01*
X40398Y-88256D01*
X40500Y-88228D01*
X40592Y-88200D01*
X40666Y-88182D01*
X40731Y-88163D01*
X40777Y-88154D01*
X40814Y-88144D01*
X40823D01*
X40990Y-88098D01*
X41138Y-88061D01*
X41277Y-88024D01*
X41406Y-87987D01*
X41508Y-87950D01*
X41610Y-87913D01*
X41693Y-87876D01*
X41767Y-87849D01*
X41832Y-87821D01*
X41878Y-87793D01*
X41924Y-87774D01*
X41952Y-87756D01*
X41998Y-87728D01*
X42007Y-87719D01*
X42072Y-87654D01*
X42118Y-87590D01*
X42146Y-87525D01*
X42165Y-87460D01*
X42183Y-87414D01*
X42192Y-87367D01*
Y-87340D01*
Y-87331D01*
X42183Y-87238D01*
X42165Y-87164D01*
X42128Y-87090D01*
X42091Y-87034D01*
X42054Y-86988D01*
X42017Y-86961D01*
X41998Y-86942D01*
X41989Y-86933D01*
X41859Y-86849D01*
X41721Y-86794D01*
X41573Y-86748D01*
X41434Y-86720D01*
X41314Y-86702D01*
X41212Y-86692D01*
X41119D01*
X40925Y-86702D01*
X40759Y-86729D01*
X40620Y-86766D01*
X40509Y-86803D01*
X40416Y-86840D01*
X40352Y-86877D01*
X40315Y-86905D01*
X40305Y-86914D01*
X40213Y-87007D01*
X40130Y-87118D01*
X40065Y-87229D01*
X40019Y-87349D01*
X39982Y-87451D01*
X39963Y-87534D01*
X39945Y-87599D01*
Y-87608D01*
Y-87617D01*
X38650Y-87571D01*
X38659Y-87405D01*
X38687Y-87256D01*
X38724Y-87108D01*
X38770Y-86979D01*
X38816Y-86849D01*
X38872Y-86729D01*
X38927Y-86628D01*
X38983Y-86526D01*
X39047Y-86443D01*
X39103Y-86369D01*
X39158Y-86304D01*
X39205Y-86248D01*
X39242Y-86211D01*
X39269Y-86184D01*
X39288Y-86165D01*
X39297Y-86156D01*
X39417Y-86063D01*
X39547Y-85980D01*
X39686Y-85906D01*
X39834Y-85841D01*
X39982Y-85795D01*
X40130Y-85749D01*
X40426Y-85684D01*
X40564Y-85666D01*
X40685Y-85647D01*
X40805Y-85638D01*
X40907Y-85628D01*
X40990Y-85619D01*
X41101D01*
X41369Y-85628D01*
D02*
G37*
G36*
X109364Y84824D02*
Y84391D01*
X107694D01*
Y83469D01*
X107222D01*
Y84391D01*
X106700D01*
Y84824D01*
X107222D01*
Y87310D01*
X107605D01*
X109364Y84824D01*
D02*
G37*
G36*
X110352Y84663D02*
Y84546D01*
X110363Y84446D01*
X110369Y84363D01*
X110380Y84297D01*
X110391Y84246D01*
X110396Y84208D01*
X110407Y84185D01*
Y84180D01*
X110430Y84124D01*
X110457Y84080D01*
X110491Y84041D01*
X110519Y84002D01*
X110552Y83980D01*
X110574Y83958D01*
X110591Y83947D01*
X110596Y83941D01*
X110652Y83913D01*
X110707Y83891D01*
X110763Y83880D01*
X110813Y83869D01*
X110863Y83864D01*
X110896Y83858D01*
X110929D01*
X111018Y83864D01*
X111101Y83886D01*
X111168Y83908D01*
X111229Y83941D01*
X111273Y83969D01*
X111307Y83997D01*
X111329Y84013D01*
X111334Y84019D01*
X111362Y84052D01*
X111384Y84091D01*
X111418Y84180D01*
X111451Y84280D01*
X111468Y84380D01*
X111484Y84474D01*
Y84513D01*
X111490Y84546D01*
X111495Y84579D01*
Y84602D01*
Y84613D01*
Y84618D01*
X111956Y84552D01*
Y84446D01*
X111950Y84352D01*
X111934Y84258D01*
X111923Y84174D01*
X111900Y84097D01*
X111878Y84030D01*
X111856Y83964D01*
X111834Y83908D01*
X111806Y83858D01*
X111784Y83814D01*
X111762Y83775D01*
X111740Y83747D01*
X111723Y83725D01*
X111712Y83703D01*
X111706Y83697D01*
X111701Y83692D01*
X111645Y83642D01*
X111590Y83597D01*
X111529Y83558D01*
X111462Y83525D01*
X111334Y83475D01*
X111212Y83442D01*
X111096Y83420D01*
X111051Y83414D01*
X111007Y83408D01*
X110974Y83403D01*
X110924D01*
X110801Y83408D01*
X110690Y83425D01*
X110591Y83447D01*
X110502Y83475D01*
X110430Y83497D01*
X110380Y83520D01*
X110346Y83536D01*
X110335Y83542D01*
X110247Y83597D01*
X110169Y83664D01*
X110108Y83730D01*
X110052Y83791D01*
X110013Y83852D01*
X109986Y83897D01*
X109969Y83930D01*
X109964Y83936D01*
Y83941D01*
X109925Y84052D01*
X109891Y84169D01*
X109869Y84297D01*
X109858Y84419D01*
X109847Y84524D01*
Y84568D01*
X109841Y84613D01*
Y84646D01*
Y84668D01*
Y84685D01*
Y84690D01*
Y87310D01*
X110352D01*
Y84663D01*
D02*
G37*
G36*
X93547Y24300D02*
X93608Y24211D01*
X93681Y24122D01*
X93747Y24044D01*
X93814Y23978D01*
X93864Y23922D01*
X93886Y23906D01*
X93903Y23889D01*
X93908Y23883D01*
X93914Y23878D01*
X94030Y23784D01*
X94147Y23695D01*
X94258Y23617D01*
X94369Y23556D01*
X94463Y23501D01*
X94502Y23478D01*
X94535Y23462D01*
X94563Y23445D01*
X94585Y23439D01*
X94596Y23428D01*
X94602D01*
Y22973D01*
X94519Y23007D01*
X94435Y23045D01*
X94352Y23084D01*
X94274Y23123D01*
X94208Y23156D01*
X94152Y23184D01*
X94119Y23206D01*
X94113Y23212D01*
X94108D01*
X94008Y23273D01*
X93919Y23334D01*
X93841Y23390D01*
X93780Y23439D01*
X93725Y23478D01*
X93692Y23512D01*
X93664Y23534D01*
X93658Y23539D01*
Y20537D01*
X93187D01*
Y24394D01*
X93492D01*
X93547Y24300D01*
D02*
G37*
G36*
X98637Y22157D02*
Y22046D01*
X98631Y21941D01*
X98626Y21841D01*
X98615Y21747D01*
X98603Y21664D01*
X98592Y21586D01*
X98576Y21514D01*
X98565Y21447D01*
X98554Y21386D01*
X98537Y21336D01*
X98526Y21292D01*
X98515Y21258D01*
X98504Y21230D01*
X98498Y21208D01*
X98492Y21197D01*
Y21192D01*
X98431Y21070D01*
X98354Y20959D01*
X98276Y20870D01*
X98193Y20792D01*
X98121Y20731D01*
X98059Y20687D01*
X98037Y20676D01*
X98021Y20664D01*
X98010Y20653D01*
X98004D01*
X97865Y20592D01*
X97721Y20548D01*
X97571Y20515D01*
X97432Y20492D01*
X97371Y20487D01*
X97310Y20481D01*
X97255Y20476D01*
X97210D01*
X97171Y20470D01*
X97122D01*
X96922Y20481D01*
X96833Y20492D01*
X96750Y20504D01*
X96667Y20520D01*
X96594Y20537D01*
X96528Y20553D01*
X96467Y20576D01*
X96411Y20598D01*
X96367Y20615D01*
X96322Y20631D01*
X96289Y20648D01*
X96261Y20664D01*
X96245Y20670D01*
X96234Y20681D01*
X96228D01*
X96106Y20764D01*
X96006Y20859D01*
X95928Y20947D01*
X95862Y21036D01*
X95812Y21114D01*
X95779Y21175D01*
X95767Y21197D01*
X95756Y21214D01*
X95751Y21225D01*
Y21230D01*
X95728Y21297D01*
X95706Y21369D01*
X95673Y21519D01*
X95651Y21675D01*
X95634Y21824D01*
X95629Y21891D01*
X95623Y21958D01*
Y22013D01*
X95618Y22063D01*
Y22102D01*
Y22130D01*
Y22152D01*
Y22157D01*
Y24377D01*
X96128D01*
Y22157D01*
Y22030D01*
X96139Y21908D01*
X96150Y21802D01*
X96167Y21702D01*
X96184Y21613D01*
X96206Y21530D01*
X96223Y21458D01*
X96245Y21397D01*
X96267Y21347D01*
X96289Y21297D01*
X96311Y21264D01*
X96328Y21230D01*
X96345Y21208D01*
X96356Y21192D01*
X96361Y21186D01*
X96367Y21181D01*
X96417Y21136D01*
X96472Y21097D01*
X96594Y21036D01*
X96722Y20992D01*
X96855Y20964D01*
X96977Y20942D01*
X97027Y20936D01*
X97077D01*
X97110Y20931D01*
X97166D01*
X97282Y20936D01*
X97388Y20953D01*
X97488Y20970D01*
X97566Y20998D01*
X97632Y21020D01*
X97682Y21036D01*
X97710Y21053D01*
X97721Y21058D01*
X97799Y21108D01*
X97865Y21170D01*
X97921Y21230D01*
X97960Y21286D01*
X97993Y21342D01*
X98021Y21380D01*
X98032Y21408D01*
X98037Y21419D01*
X98054Y21469D01*
X98065Y21519D01*
X98087Y21636D01*
X98104Y21758D01*
X98115Y21880D01*
X98121Y21985D01*
Y22035D01*
X98126Y22074D01*
Y22107D01*
Y22135D01*
Y22152D01*
Y22157D01*
Y24377D01*
X98637D01*
Y22157D01*
D02*
G37*
G36*
X109230Y75850D02*
X109291Y75761D01*
X109363Y75673D01*
X109430Y75595D01*
X109496Y75528D01*
X109546Y75473D01*
X109568Y75456D01*
X109585Y75439D01*
X109590Y75434D01*
X109596Y75428D01*
X109713Y75334D01*
X109829Y75245D01*
X109940Y75167D01*
X110051Y75106D01*
X110145Y75051D01*
X110184Y75029D01*
X110218Y75012D01*
X110245Y74995D01*
X110268Y74990D01*
X110279Y74979D01*
X110284D01*
Y74524D01*
X110201Y74557D01*
X110118Y74596D01*
X110034Y74635D01*
X109957Y74673D01*
X109890Y74707D01*
X109835Y74734D01*
X109801Y74757D01*
X109796Y74762D01*
X109790D01*
X109690Y74823D01*
X109601Y74884D01*
X109524Y74940D01*
X109463Y74990D01*
X109407Y75029D01*
X109374Y75062D01*
X109346Y75084D01*
X109341Y75090D01*
Y72087D01*
X108869D01*
Y75944D01*
X109174D01*
X109230Y75850D01*
D02*
G37*
G36*
X114330Y72087D02*
X113842D01*
Y75101D01*
X111833Y72087D01*
X111305D01*
Y75928D01*
X111794D01*
Y72909D01*
X113808Y75928D01*
X114330D01*
Y72087D01*
D02*
G37*
G36*
X118193D02*
X117682D01*
Y73791D01*
X117027D01*
X116966Y73786D01*
X116922D01*
X116883Y73780D01*
X116855Y73774D01*
X116833D01*
X116822Y73769D01*
X116817D01*
X116728Y73741D01*
X116689Y73724D01*
X116656Y73708D01*
X116622Y73691D01*
X116600Y73680D01*
X116589Y73674D01*
X116583Y73669D01*
X116539Y73636D01*
X116495Y73597D01*
X116411Y73514D01*
X116373Y73475D01*
X116345Y73441D01*
X116328Y73419D01*
X116323Y73414D01*
X116267Y73336D01*
X116206Y73253D01*
X116145Y73164D01*
X116084Y73081D01*
X116034Y73003D01*
X115995Y72942D01*
X115979Y72920D01*
X115967Y72903D01*
X115956Y72892D01*
Y72886D01*
X115451Y72087D01*
X114819D01*
X115479Y73131D01*
X115557Y73242D01*
X115629Y73342D01*
X115701Y73425D01*
X115762Y73502D01*
X115818Y73558D01*
X115862Y73602D01*
X115890Y73630D01*
X115901Y73641D01*
X115945Y73674D01*
X115995Y73713D01*
X116095Y73774D01*
X116139Y73797D01*
X116173Y73819D01*
X116195Y73830D01*
X116206Y73835D01*
X116106Y73852D01*
X116012Y73869D01*
X115928Y73896D01*
X115845Y73919D01*
X115773Y73946D01*
X115707Y73980D01*
X115646Y74007D01*
X115590Y74035D01*
X115546Y74068D01*
X115501Y74096D01*
X115468Y74119D01*
X115440Y74141D01*
X115418Y74157D01*
X115401Y74174D01*
X115396Y74180D01*
X115390Y74185D01*
X115346Y74241D01*
X115301Y74296D01*
X115235Y74413D01*
X115190Y74529D01*
X115157Y74640D01*
X115135Y74734D01*
X115129Y74773D01*
Y74812D01*
X115124Y74840D01*
Y74862D01*
Y74873D01*
Y74879D01*
X115129Y74995D01*
X115146Y75101D01*
X115174Y75201D01*
X115201Y75284D01*
X115235Y75356D01*
X115257Y75412D01*
X115279Y75445D01*
X115285Y75450D01*
Y75456D01*
X115351Y75545D01*
X115418Y75622D01*
X115490Y75689D01*
X115557Y75739D01*
X115618Y75778D01*
X115668Y75800D01*
X115701Y75817D01*
X115707Y75822D01*
X115712D01*
X115762Y75839D01*
X115823Y75856D01*
X115945Y75883D01*
X116078Y75900D01*
X116200Y75917D01*
X116317Y75922D01*
X116367D01*
X116411Y75928D01*
X118193D01*
Y72087D01*
D02*
G37*
G36*
X93584Y55592D02*
X93678Y55586D01*
X93767Y55570D01*
X93850Y55553D01*
X93928Y55531D01*
X94000Y55509D01*
X94066Y55481D01*
X94127Y55453D01*
X94183Y55425D01*
X94227Y55398D01*
X94266Y55375D01*
X94300Y55353D01*
X94327Y55336D01*
X94344Y55320D01*
X94355Y55314D01*
X94361Y55309D01*
X94416Y55253D01*
X94466Y55192D01*
X94516Y55126D01*
X94555Y55059D01*
X94621Y54926D01*
X94666Y54793D01*
X94682Y54732D01*
X94699Y54671D01*
X94710Y54621D01*
X94721Y54576D01*
X94727Y54537D01*
Y54510D01*
X94732Y54493D01*
Y54487D01*
X94249Y54437D01*
X94238Y54565D01*
X94216Y54676D01*
X94183Y54776D01*
X94144Y54854D01*
X94111Y54920D01*
X94077Y54965D01*
X94055Y54992D01*
X94044Y55003D01*
X93961Y55070D01*
X93872Y55120D01*
X93778Y55159D01*
X93695Y55181D01*
X93617Y55198D01*
X93550Y55203D01*
X93528Y55209D01*
X93495D01*
X93378Y55203D01*
X93273Y55181D01*
X93184Y55148D01*
X93106Y55115D01*
X93045Y55076D01*
X93006Y55048D01*
X92979Y55026D01*
X92967Y55015D01*
X92901Y54937D01*
X92851Y54859D01*
X92812Y54782D01*
X92790Y54704D01*
X92773Y54643D01*
X92768Y54587D01*
X92762Y54554D01*
Y54548D01*
Y54543D01*
X92773Y54443D01*
X92795Y54338D01*
X92834Y54243D01*
X92873Y54154D01*
X92918Y54082D01*
X92956Y54021D01*
X92967Y53999D01*
X92979Y53982D01*
X92990Y53977D01*
Y53971D01*
X93034Y53910D01*
X93090Y53849D01*
X93151Y53782D01*
X93217Y53716D01*
X93356Y53583D01*
X93495Y53449D01*
X93567Y53389D01*
X93628Y53333D01*
X93689Y53283D01*
X93739Y53239D01*
X93778Y53205D01*
X93811Y53178D01*
X93833Y53161D01*
X93839Y53155D01*
X93978Y53039D01*
X94105Y52928D01*
X94211Y52828D01*
X94294Y52745D01*
X94366Y52672D01*
X94416Y52623D01*
X94444Y52589D01*
X94455Y52584D01*
Y52578D01*
X94533Y52484D01*
X94594Y52395D01*
X94649Y52306D01*
X94693Y52228D01*
X94727Y52162D01*
X94749Y52112D01*
X94760Y52079D01*
X94766Y52073D01*
Y52068D01*
X94788Y52007D01*
X94799Y51951D01*
X94810Y51895D01*
X94816Y51846D01*
X94821Y51801D01*
Y51768D01*
Y51746D01*
Y51740D01*
X92274D01*
Y52195D01*
X94166D01*
X94100Y52290D01*
X94066Y52328D01*
X94039Y52367D01*
X94011Y52401D01*
X93989Y52423D01*
X93972Y52439D01*
X93967Y52445D01*
X93939Y52473D01*
X93905Y52500D01*
X93828Y52573D01*
X93739Y52656D01*
X93645Y52739D01*
X93556Y52811D01*
X93517Y52845D01*
X93484Y52878D01*
X93456Y52900D01*
X93434Y52917D01*
X93423Y52928D01*
X93417Y52933D01*
X93328Y53011D01*
X93239Y53083D01*
X93162Y53155D01*
X93090Y53216D01*
X93023Y53277D01*
X92967Y53333D01*
X92912Y53383D01*
X92868Y53427D01*
X92823Y53472D01*
X92790Y53505D01*
X92762Y53533D01*
X92734Y53561D01*
X92707Y53594D01*
X92695Y53605D01*
X92618Y53699D01*
X92551Y53782D01*
X92496Y53866D01*
X92451Y53932D01*
X92418Y53993D01*
X92396Y54038D01*
X92385Y54066D01*
X92379Y54077D01*
X92346Y54160D01*
X92324Y54243D01*
X92301Y54321D01*
X92290Y54387D01*
X92285Y54448D01*
X92279Y54493D01*
Y54521D01*
Y54532D01*
X92285Y54615D01*
X92296Y54693D01*
X92307Y54770D01*
X92329Y54837D01*
X92385Y54970D01*
X92440Y55076D01*
X92474Y55126D01*
X92501Y55164D01*
X92529Y55203D01*
X92557Y55231D01*
X92579Y55253D01*
X92590Y55275D01*
X92601Y55281D01*
X92607Y55287D01*
X92668Y55342D01*
X92734Y55392D01*
X92807Y55431D01*
X92879Y55464D01*
X93023Y55520D01*
X93167Y55559D01*
X93228Y55570D01*
X93289Y55581D01*
X93345Y55586D01*
X93389Y55592D01*
X93428Y55597D01*
X93484D01*
X93584Y55592D01*
D02*
G37*
G36*
X98429Y51740D02*
X97918D01*
Y53444D01*
X97263D01*
X97202Y53438D01*
X97158D01*
X97119Y53433D01*
X97091Y53427D01*
X97069D01*
X97058Y53422D01*
X97052D01*
X96964Y53394D01*
X96925Y53377D01*
X96891Y53361D01*
X96858Y53344D01*
X96836Y53333D01*
X96825Y53327D01*
X96819Y53322D01*
X96775Y53289D01*
X96730Y53250D01*
X96647Y53167D01*
X96608Y53128D01*
X96580Y53094D01*
X96564Y53072D01*
X96558Y53067D01*
X96503Y52989D01*
X96442Y52906D01*
X96381Y52817D01*
X96320Y52734D01*
X96270Y52656D01*
X96231Y52595D01*
X96214Y52573D01*
X96203Y52556D01*
X96192Y52545D01*
Y52539D01*
X95687Y51740D01*
X95054D01*
X95715Y52784D01*
X95792Y52895D01*
X95865Y52994D01*
X95937Y53078D01*
X95998Y53155D01*
X96053Y53211D01*
X96098Y53255D01*
X96125Y53283D01*
X96136Y53294D01*
X96181Y53327D01*
X96231Y53366D01*
X96331Y53427D01*
X96375Y53449D01*
X96408Y53472D01*
X96431Y53483D01*
X96442Y53488D01*
X96342Y53505D01*
X96248Y53522D01*
X96164Y53549D01*
X96081Y53572D01*
X96009Y53599D01*
X95942Y53633D01*
X95881Y53660D01*
X95826Y53688D01*
X95781Y53721D01*
X95737Y53749D01*
X95704Y53771D01*
X95676Y53794D01*
X95654Y53810D01*
X95637Y53827D01*
X95631Y53833D01*
X95626Y53838D01*
X95582Y53894D01*
X95537Y53949D01*
X95470Y54066D01*
X95426Y54182D01*
X95393Y54293D01*
X95371Y54387D01*
X95365Y54426D01*
Y54465D01*
X95359Y54493D01*
Y54515D01*
Y54526D01*
Y54532D01*
X95365Y54648D01*
X95382Y54754D01*
X95410Y54854D01*
X95437Y54937D01*
X95470Y55009D01*
X95493Y55065D01*
X95515Y55098D01*
X95521Y55103D01*
Y55109D01*
X95587Y55198D01*
X95654Y55275D01*
X95726Y55342D01*
X95792Y55392D01*
X95854Y55431D01*
X95903Y55453D01*
X95937Y55470D01*
X95942Y55475D01*
X95948D01*
X95998Y55492D01*
X96059Y55509D01*
X96181Y55536D01*
X96314Y55553D01*
X96436Y55570D01*
X96553Y55575D01*
X96603D01*
X96647Y55581D01*
X98429D01*
Y51740D01*
D02*
G37*
G36*
X106574Y16235D02*
X106635Y16146D01*
X106707Y16057D01*
X106774Y15980D01*
X106840Y15913D01*
X106890Y15858D01*
X106912Y15841D01*
X106929Y15824D01*
X106935Y15819D01*
X106940Y15813D01*
X107057Y15719D01*
X107173Y15630D01*
X107284Y15552D01*
X107395Y15491D01*
X107490Y15436D01*
X107528Y15414D01*
X107562Y15397D01*
X107589Y15380D01*
X107612Y15375D01*
X107623Y15364D01*
X107628D01*
Y14909D01*
X107545Y14942D01*
X107462Y14981D01*
X107379Y15020D01*
X107301Y15058D01*
X107234Y15092D01*
X107179Y15120D01*
X107146Y15142D01*
X107140Y15147D01*
X107134D01*
X107035Y15208D01*
X106946Y15269D01*
X106868Y15325D01*
X106807Y15375D01*
X106751Y15414D01*
X106718Y15447D01*
X106690Y15469D01*
X106685Y15475D01*
Y12472D01*
X106213D01*
Y16329D01*
X106518D01*
X106574Y16235D01*
D02*
G37*
G36*
X111663Y12472D02*
X111153D01*
Y14176D01*
X110498D01*
X110437Y14170D01*
X110392D01*
X110353Y14165D01*
X110326Y14159D01*
X110303D01*
X110292Y14154D01*
X110287D01*
X110198Y14126D01*
X110159Y14109D01*
X110126Y14093D01*
X110093Y14076D01*
X110070Y14065D01*
X110059Y14059D01*
X110054Y14054D01*
X110009Y14021D01*
X109965Y13982D01*
X109882Y13898D01*
X109843Y13860D01*
X109815Y13826D01*
X109798Y13804D01*
X109793Y13799D01*
X109737Y13721D01*
X109676Y13638D01*
X109615Y13549D01*
X109554Y13466D01*
X109504Y13388D01*
X109465Y13327D01*
X109449Y13305D01*
X109438Y13288D01*
X109426Y13277D01*
Y13271D01*
X108922Y12472D01*
X108289D01*
X108949Y13516D01*
X109027Y13626D01*
X109099Y13726D01*
X109171Y13810D01*
X109232Y13887D01*
X109288Y13943D01*
X109332Y13987D01*
X109360Y14015D01*
X109371Y14026D01*
X109415Y14059D01*
X109465Y14098D01*
X109565Y14159D01*
X109610Y14182D01*
X109643Y14204D01*
X109665Y14215D01*
X109676Y14220D01*
X109576Y14237D01*
X109482Y14254D01*
X109399Y14281D01*
X109316Y14304D01*
X109243Y14331D01*
X109177Y14365D01*
X109116Y14392D01*
X109060Y14420D01*
X109016Y14454D01*
X108972Y14481D01*
X108938Y14503D01*
X108910Y14526D01*
X108888Y14542D01*
X108872Y14559D01*
X108866Y14564D01*
X108860Y14570D01*
X108816Y14626D01*
X108772Y14681D01*
X108705Y14798D01*
X108661Y14914D01*
X108627Y15025D01*
X108605Y15120D01*
X108600Y15158D01*
Y15197D01*
X108594Y15225D01*
Y15247D01*
Y15258D01*
Y15264D01*
X108600Y15380D01*
X108616Y15486D01*
X108644Y15586D01*
X108672Y15669D01*
X108705Y15741D01*
X108727Y15797D01*
X108749Y15830D01*
X108755Y15835D01*
Y15841D01*
X108822Y15930D01*
X108888Y16007D01*
X108960Y16074D01*
X109027Y16124D01*
X109088Y16163D01*
X109138Y16185D01*
X109171Y16202D01*
X109177Y16207D01*
X109182D01*
X109232Y16224D01*
X109293Y16241D01*
X109415Y16268D01*
X109549Y16285D01*
X109671Y16302D01*
X109787Y16307D01*
X109837D01*
X109882Y16313D01*
X111663D01*
Y12472D01*
D02*
G37*
G36*
X19517Y-14081D02*
X19667Y-14108D01*
X19795Y-14153D01*
X19906Y-14197D01*
X19956Y-14225D01*
X19995Y-14247D01*
X20033Y-14269D01*
X20061Y-14292D01*
X20083Y-14308D01*
X20100Y-14319D01*
X20111Y-14325D01*
X20117Y-14330D01*
X20222Y-14436D01*
X20305Y-14552D01*
X20372Y-14674D01*
X20427Y-14797D01*
X20461Y-14902D01*
X20477Y-14946D01*
X20489Y-14985D01*
X20494Y-15019D01*
X20500Y-15041D01*
X20505Y-15057D01*
Y-15063D01*
X20033Y-15146D01*
X20011Y-15024D01*
X19978Y-14919D01*
X19939Y-14830D01*
X19900Y-14758D01*
X19861Y-14702D01*
X19828Y-14663D01*
X19806Y-14636D01*
X19800Y-14630D01*
X19728Y-14575D01*
X19650Y-14530D01*
X19578Y-14502D01*
X19506Y-14480D01*
X19440Y-14469D01*
X19389Y-14458D01*
X19345D01*
X19245Y-14464D01*
X19157Y-14486D01*
X19079Y-14514D01*
X19012Y-14541D01*
X18962Y-14575D01*
X18923Y-14602D01*
X18896Y-14625D01*
X18890Y-14630D01*
X18829Y-14697D01*
X18785Y-14769D01*
X18757Y-14841D01*
X18735Y-14908D01*
X18724Y-14969D01*
X18712Y-15013D01*
Y-15046D01*
Y-15052D01*
Y-15057D01*
Y-15119D01*
X18724Y-15174D01*
X18751Y-15268D01*
X18790Y-15352D01*
X18835Y-15424D01*
X18879Y-15474D01*
X18918Y-15513D01*
X18946Y-15535D01*
X18951Y-15540D01*
X18957D01*
X19051Y-15590D01*
X19140Y-15629D01*
X19234Y-15657D01*
X19317Y-15674D01*
X19389Y-15685D01*
X19451Y-15696D01*
X19523D01*
X19545Y-15690D01*
X19573D01*
X19628Y-16106D01*
X19556Y-16090D01*
X19489Y-16079D01*
X19434Y-16068D01*
X19384Y-16062D01*
X19345Y-16057D01*
X19295D01*
X19179Y-16068D01*
X19073Y-16090D01*
X18979Y-16123D01*
X18901Y-16162D01*
X18840Y-16201D01*
X18796Y-16234D01*
X18768Y-16256D01*
X18757Y-16267D01*
X18685Y-16351D01*
X18629Y-16439D01*
X18590Y-16528D01*
X18568Y-16617D01*
X18552Y-16689D01*
X18546Y-16750D01*
X18540Y-16772D01*
Y-16789D01*
Y-16800D01*
Y-16806D01*
X18552Y-16928D01*
X18579Y-17039D01*
X18612Y-17133D01*
X18657Y-17216D01*
X18701Y-17283D01*
X18735Y-17333D01*
X18762Y-17366D01*
X18774Y-17377D01*
X18862Y-17455D01*
X18957Y-17511D01*
X19051Y-17549D01*
X19140Y-17577D01*
X19218Y-17594D01*
X19279Y-17599D01*
X19301Y-17605D01*
X19334D01*
X19434Y-17599D01*
X19528Y-17577D01*
X19612Y-17549D01*
X19678Y-17516D01*
X19734Y-17488D01*
X19778Y-17461D01*
X19800Y-17438D01*
X19811Y-17433D01*
X19878Y-17355D01*
X19933Y-17266D01*
X19983Y-17172D01*
X20022Y-17072D01*
X20050Y-16989D01*
X20061Y-16950D01*
X20067Y-16917D01*
X20072Y-16889D01*
X20078Y-16867D01*
X20083Y-16856D01*
Y-16850D01*
X20555Y-16911D01*
X20544Y-17000D01*
X20527Y-17083D01*
X20477Y-17239D01*
X20416Y-17372D01*
X20383Y-17427D01*
X20350Y-17483D01*
X20316Y-17533D01*
X20283Y-17572D01*
X20255Y-17610D01*
X20228Y-17638D01*
X20211Y-17660D01*
X20194Y-17677D01*
X20183Y-17688D01*
X20178Y-17694D01*
X20111Y-17744D01*
X20044Y-17794D01*
X19978Y-17832D01*
X19906Y-17866D01*
X19767Y-17921D01*
X19634Y-17955D01*
X19573Y-17966D01*
X19517Y-17977D01*
X19467Y-17982D01*
X19423Y-17988D01*
X19389Y-17993D01*
X19340D01*
X19234Y-17988D01*
X19140Y-17977D01*
X19045Y-17960D01*
X18957Y-17938D01*
X18873Y-17910D01*
X18801Y-17882D01*
X18729Y-17849D01*
X18668Y-17816D01*
X18607Y-17788D01*
X18557Y-17755D01*
X18513Y-17727D01*
X18479Y-17699D01*
X18452Y-17677D01*
X18429Y-17660D01*
X18418Y-17649D01*
X18413Y-17644D01*
X18346Y-17577D01*
X18291Y-17505D01*
X18241Y-17433D01*
X18196Y-17361D01*
X18163Y-17294D01*
X18130Y-17222D01*
X18085Y-17089D01*
X18074Y-17028D01*
X18063Y-16972D01*
X18052Y-16922D01*
X18046Y-16878D01*
X18041Y-16845D01*
Y-16817D01*
Y-16800D01*
Y-16795D01*
X18046Y-16661D01*
X18069Y-16539D01*
X18102Y-16434D01*
X18135Y-16345D01*
X18169Y-16273D01*
X18202Y-16217D01*
X18224Y-16184D01*
X18230Y-16173D01*
X18307Y-16090D01*
X18391Y-16018D01*
X18479Y-15962D01*
X18568Y-15918D01*
X18646Y-15884D01*
X18707Y-15862D01*
X18729Y-15857D01*
X18746Y-15851D01*
X18757Y-15846D01*
X18762D01*
X18668Y-15796D01*
X18590Y-15746D01*
X18524Y-15690D01*
X18468Y-15640D01*
X18424Y-15596D01*
X18391Y-15557D01*
X18374Y-15535D01*
X18368Y-15524D01*
X18324Y-15446D01*
X18291Y-15368D01*
X18263Y-15291D01*
X18246Y-15218D01*
X18235Y-15157D01*
X18230Y-15113D01*
Y-15080D01*
Y-15069D01*
X18235Y-14974D01*
X18252Y-14880D01*
X18274Y-14797D01*
X18302Y-14725D01*
X18329Y-14663D01*
X18352Y-14614D01*
X18368Y-14586D01*
X18374Y-14575D01*
X18429Y-14491D01*
X18496Y-14419D01*
X18563Y-14358D01*
X18629Y-14303D01*
X18685Y-14264D01*
X18735Y-14231D01*
X18768Y-14214D01*
X18774Y-14208D01*
X18779D01*
X18879Y-14164D01*
X18979Y-14131D01*
X19079Y-14103D01*
X19168Y-14086D01*
X19240Y-14075D01*
X19301Y-14070D01*
X19440D01*
X19517Y-14081D01*
D02*
G37*
G36*
X21710Y-16734D02*
Y-16850D01*
X21721Y-16950D01*
X21726Y-17033D01*
X21737Y-17100D01*
X21748Y-17150D01*
X21754Y-17189D01*
X21765Y-17211D01*
Y-17216D01*
X21787Y-17272D01*
X21815Y-17316D01*
X21848Y-17355D01*
X21876Y-17394D01*
X21909Y-17416D01*
X21932Y-17438D01*
X21948Y-17449D01*
X21954Y-17455D01*
X22009Y-17483D01*
X22065Y-17505D01*
X22120Y-17516D01*
X22170Y-17527D01*
X22220Y-17533D01*
X22253Y-17538D01*
X22287D01*
X22376Y-17533D01*
X22459Y-17511D01*
X22525Y-17488D01*
X22586Y-17455D01*
X22631Y-17427D01*
X22664Y-17400D01*
X22686Y-17383D01*
X22692Y-17377D01*
X22720Y-17344D01*
X22742Y-17305D01*
X22775Y-17216D01*
X22808Y-17117D01*
X22825Y-17017D01*
X22842Y-16922D01*
Y-16883D01*
X22847Y-16850D01*
X22853Y-16817D01*
Y-16795D01*
Y-16783D01*
Y-16778D01*
X23313Y-16845D01*
Y-16950D01*
X23308Y-17044D01*
X23291Y-17139D01*
X23280Y-17222D01*
X23258Y-17300D01*
X23236Y-17366D01*
X23213Y-17433D01*
X23191Y-17488D01*
X23164Y-17538D01*
X23141Y-17583D01*
X23119Y-17622D01*
X23097Y-17649D01*
X23080Y-17672D01*
X23069Y-17694D01*
X23064Y-17699D01*
X23058Y-17705D01*
X23003Y-17755D01*
X22947Y-17799D01*
X22886Y-17838D01*
X22819Y-17871D01*
X22692Y-17921D01*
X22570Y-17955D01*
X22453Y-17977D01*
X22409Y-17982D01*
X22364Y-17988D01*
X22331Y-17993D01*
X22281D01*
X22159Y-17988D01*
X22048Y-17971D01*
X21948Y-17949D01*
X21859Y-17921D01*
X21787Y-17899D01*
X21737Y-17877D01*
X21704Y-17860D01*
X21693Y-17855D01*
X21604Y-17799D01*
X21526Y-17733D01*
X21465Y-17666D01*
X21410Y-17605D01*
X21371Y-17544D01*
X21343Y-17500D01*
X21327Y-17466D01*
X21321Y-17461D01*
Y-17455D01*
X21282Y-17344D01*
X21249Y-17228D01*
X21227Y-17100D01*
X21215Y-16978D01*
X21204Y-16872D01*
Y-16828D01*
X21199Y-16783D01*
Y-16750D01*
Y-16728D01*
Y-16711D01*
Y-16706D01*
Y-14086D01*
X21710D01*
Y-16734D01*
D02*
G37*
G36*
X118067Y58309D02*
X118161Y58303D01*
X118250Y58287D01*
X118333Y58270D01*
X118411Y58248D01*
X118483Y58226D01*
X118550Y58198D01*
X118611Y58170D01*
X118666Y58143D01*
X118710Y58115D01*
X118749Y58093D01*
X118783Y58070D01*
X118810Y58054D01*
X118827Y58037D01*
X118838Y58031D01*
X118844Y58026D01*
X118899Y57970D01*
X118949Y57909D01*
X118999Y57843D01*
X119038Y57776D01*
X119105Y57643D01*
X119149Y57510D01*
X119166Y57449D01*
X119182Y57388D01*
X119193Y57338D01*
X119204Y57293D01*
X119210Y57254D01*
Y57227D01*
X119216Y57210D01*
Y57205D01*
X118733Y57155D01*
X118722Y57282D01*
X118699Y57393D01*
X118666Y57493D01*
X118627Y57571D01*
X118594Y57638D01*
X118561Y57682D01*
X118538Y57710D01*
X118527Y57721D01*
X118444Y57787D01*
X118355Y57837D01*
X118261Y57876D01*
X118178Y57898D01*
X118100Y57915D01*
X118033Y57920D01*
X118011Y57926D01*
X117978D01*
X117861Y57920D01*
X117756Y57898D01*
X117667Y57865D01*
X117589Y57832D01*
X117528Y57793D01*
X117490Y57765D01*
X117462Y57743D01*
X117451Y57732D01*
X117384Y57654D01*
X117334Y57576D01*
X117295Y57499D01*
X117273Y57421D01*
X117256Y57360D01*
X117251Y57305D01*
X117245Y57271D01*
Y57266D01*
Y57260D01*
X117256Y57160D01*
X117279Y57055D01*
X117317Y56960D01*
X117356Y56872D01*
X117401Y56799D01*
X117439Y56738D01*
X117451Y56716D01*
X117462Y56700D01*
X117473Y56694D01*
Y56688D01*
X117517Y56627D01*
X117573Y56566D01*
X117634Y56500D01*
X117700Y56433D01*
X117839Y56300D01*
X117978Y56167D01*
X118050Y56106D01*
X118111Y56050D01*
X118172Y56000D01*
X118222Y55956D01*
X118261Y55923D01*
X118294Y55895D01*
X118316Y55878D01*
X118322Y55873D01*
X118461Y55756D01*
X118588Y55645D01*
X118694Y55545D01*
X118777Y55462D01*
X118849Y55390D01*
X118899Y55340D01*
X118927Y55307D01*
X118938Y55301D01*
Y55295D01*
X119016Y55201D01*
X119077Y55112D01*
X119132Y55023D01*
X119177Y54946D01*
X119210Y54879D01*
X119232Y54829D01*
X119243Y54796D01*
X119249Y54790D01*
Y54785D01*
X119271Y54724D01*
X119282Y54668D01*
X119293Y54613D01*
X119299Y54563D01*
X119304Y54518D01*
Y54485D01*
Y54463D01*
Y54457D01*
X116757D01*
Y54912D01*
X118649D01*
X118583Y55007D01*
X118550Y55046D01*
X118522Y55085D01*
X118494Y55118D01*
X118472Y55140D01*
X118455Y55157D01*
X118450Y55162D01*
X118422Y55190D01*
X118389Y55218D01*
X118311Y55290D01*
X118222Y55373D01*
X118128Y55456D01*
X118039Y55528D01*
X118000Y55562D01*
X117967Y55595D01*
X117939Y55617D01*
X117917Y55634D01*
X117906Y55645D01*
X117900Y55651D01*
X117811Y55728D01*
X117723Y55800D01*
X117645Y55873D01*
X117573Y55934D01*
X117506Y55995D01*
X117451Y56050D01*
X117395Y56100D01*
X117351Y56144D01*
X117306Y56189D01*
X117273Y56222D01*
X117245Y56250D01*
X117218Y56278D01*
X117190Y56311D01*
X117179Y56322D01*
X117101Y56416D01*
X117034Y56500D01*
X116979Y56583D01*
X116935Y56650D01*
X116901Y56711D01*
X116879Y56755D01*
X116868Y56783D01*
X116862Y56794D01*
X116829Y56877D01*
X116807Y56960D01*
X116785Y57038D01*
X116773Y57105D01*
X116768Y57166D01*
X116762Y57210D01*
Y57238D01*
Y57249D01*
X116768Y57332D01*
X116779Y57410D01*
X116790Y57488D01*
X116812Y57554D01*
X116868Y57687D01*
X116923Y57793D01*
X116957Y57843D01*
X116984Y57882D01*
X117012Y57920D01*
X117040Y57948D01*
X117062Y57970D01*
X117073Y57993D01*
X117084Y57998D01*
X117090Y58004D01*
X117151Y58059D01*
X117218Y58109D01*
X117290Y58148D01*
X117362Y58181D01*
X117506Y58237D01*
X117650Y58276D01*
X117711Y58287D01*
X117772Y58298D01*
X117828Y58303D01*
X117872Y58309D01*
X117911Y58315D01*
X117967D01*
X118067Y58309D01*
D02*
G37*
G36*
X121441Y58353D02*
X121619Y58326D01*
X121774Y58292D01*
X121846Y58270D01*
X121913Y58248D01*
X121974Y58226D01*
X122029Y58204D01*
X122074Y58187D01*
X122118Y58170D01*
X122146Y58154D01*
X122168Y58143D01*
X122185Y58137D01*
X122190Y58131D01*
X122340Y58037D01*
X122468Y57926D01*
X122579Y57815D01*
X122673Y57704D01*
X122745Y57604D01*
X122773Y57560D01*
X122795Y57521D01*
X122818Y57493D01*
X122829Y57471D01*
X122834Y57454D01*
X122840Y57449D01*
X122917Y57277D01*
X122973Y57099D01*
X123012Y56921D01*
X123039Y56761D01*
X123051Y56688D01*
X123056Y56616D01*
X123062Y56561D01*
Y56505D01*
X123067Y56466D01*
Y56433D01*
Y56411D01*
Y56405D01*
X123056Y56206D01*
X123034Y56011D01*
X123006Y55839D01*
X122984Y55756D01*
X122967Y55684D01*
X122951Y55617D01*
X122929Y55556D01*
X122912Y55501D01*
X122901Y55456D01*
X122884Y55423D01*
X122879Y55395D01*
X122867Y55379D01*
Y55373D01*
X122784Y55207D01*
X122690Y55057D01*
X122590Y54929D01*
X122540Y54879D01*
X122496Y54829D01*
X122451Y54785D01*
X122407Y54746D01*
X122368Y54713D01*
X122335Y54690D01*
X122312Y54668D01*
X122290Y54652D01*
X122279Y54646D01*
X122274Y54641D01*
X122196Y54596D01*
X122118Y54557D01*
X121952Y54496D01*
X121785Y54452D01*
X121624Y54424D01*
X121546Y54413D01*
X121480Y54402D01*
X121419Y54396D01*
X121369D01*
X121325Y54391D01*
X121264D01*
X121152Y54396D01*
X121047Y54407D01*
X120947Y54418D01*
X120853Y54441D01*
X120764Y54468D01*
X120681Y54496D01*
X120603Y54524D01*
X120531Y54557D01*
X120470Y54585D01*
X120409Y54613D01*
X120364Y54641D01*
X120320Y54668D01*
X120292Y54690D01*
X120264Y54702D01*
X120253Y54713D01*
X120248Y54718D01*
X120170Y54785D01*
X120104Y54851D01*
X120043Y54929D01*
X119981Y55007D01*
X119881Y55162D01*
X119804Y55318D01*
X119771Y55390D01*
X119743Y55456D01*
X119721Y55517D01*
X119704Y55567D01*
X119687Y55612D01*
X119676Y55645D01*
X119671Y55667D01*
Y55673D01*
X120181Y55800D01*
X120203Y55712D01*
X120231Y55628D01*
X120259Y55551D01*
X120287Y55479D01*
X120320Y55412D01*
X120353Y55356D01*
X120392Y55301D01*
X120425Y55251D01*
X120453Y55207D01*
X120486Y55173D01*
X120514Y55140D01*
X120536Y55112D01*
X120559Y55096D01*
X120575Y55079D01*
X120581Y55073D01*
X120586Y55068D01*
X120642Y55023D01*
X120703Y54990D01*
X120825Y54929D01*
X120942Y54885D01*
X121058Y54857D01*
X121158Y54835D01*
X121197Y54829D01*
X121236D01*
X121269Y54824D01*
X121308D01*
X121435Y54829D01*
X121558Y54851D01*
X121669Y54879D01*
X121768Y54912D01*
X121846Y54946D01*
X121879Y54962D01*
X121907Y54974D01*
X121930Y54985D01*
X121946Y54996D01*
X121957Y55001D01*
X121963D01*
X122068Y55079D01*
X122157Y55162D01*
X122235Y55256D01*
X122296Y55345D01*
X122346Y55423D01*
X122379Y55490D01*
X122390Y55517D01*
X122401Y55534D01*
X122407Y55545D01*
Y55551D01*
X122451Y55695D01*
X122485Y55839D01*
X122512Y55984D01*
X122529Y56117D01*
X122534Y56178D01*
X122540Y56233D01*
Y56283D01*
X122546Y56322D01*
Y56355D01*
Y56383D01*
Y56400D01*
Y56405D01*
X122540Y56550D01*
X122529Y56683D01*
X122507Y56805D01*
X122485Y56916D01*
X122468Y57010D01*
X122457Y57049D01*
X122446Y57082D01*
X122440Y57110D01*
X122434Y57127D01*
X122429Y57138D01*
Y57143D01*
X122373Y57271D01*
X122312Y57388D01*
X122246Y57482D01*
X122174Y57565D01*
X122113Y57632D01*
X122063Y57676D01*
X122024Y57704D01*
X122018Y57715D01*
X122013D01*
X121896Y57787D01*
X121768Y57843D01*
X121646Y57882D01*
X121530Y57904D01*
X121424Y57920D01*
X121380Y57926D01*
X121341D01*
X121313Y57932D01*
X121269D01*
X121130Y57926D01*
X121003Y57904D01*
X120897Y57871D01*
X120803Y57837D01*
X120731Y57798D01*
X120675Y57771D01*
X120642Y57749D01*
X120631Y57737D01*
X120542Y57654D01*
X120459Y57560D01*
X120392Y57460D01*
X120337Y57360D01*
X120292Y57271D01*
X120276Y57227D01*
X120264Y57193D01*
X120253Y57166D01*
X120242Y57143D01*
X120237Y57132D01*
Y57127D01*
X119737Y57243D01*
X119771Y57343D01*
X119804Y57432D01*
X119848Y57515D01*
X119887Y57599D01*
X119931Y57671D01*
X119981Y57737D01*
X120026Y57804D01*
X120070Y57859D01*
X120115Y57904D01*
X120153Y57948D01*
X120192Y57987D01*
X120220Y58015D01*
X120248Y58043D01*
X120270Y58059D01*
X120281Y58065D01*
X120287Y58070D01*
X120364Y58120D01*
X120442Y58170D01*
X120520Y58209D01*
X120603Y58242D01*
X120770Y58292D01*
X120919Y58326D01*
X120992Y58342D01*
X121053Y58348D01*
X121114Y58353D01*
X121164Y58359D01*
X121202Y58364D01*
X121258D01*
X121441Y58353D01*
D02*
G37*
G36*
X103609Y65978D02*
X103515Y65923D01*
X103426Y65862D01*
X103337Y65790D01*
X103259Y65723D01*
X103193Y65657D01*
X103137Y65607D01*
X103121Y65584D01*
X103104Y65568D01*
X103098Y65562D01*
X103093Y65557D01*
X102998Y65440D01*
X102910Y65324D01*
X102832Y65213D01*
X102771Y65102D01*
X102715Y65007D01*
X102693Y64968D01*
X102676Y64935D01*
X102660Y64907D01*
X102654Y64885D01*
X102643Y64874D01*
Y64868D01*
X102188D01*
X102221Y64952D01*
X102260Y65035D01*
X102299Y65118D01*
X102338Y65196D01*
X102371Y65263D01*
X102399Y65318D01*
X102421Y65351D01*
X102427Y65357D01*
Y65362D01*
X102488Y65462D01*
X102549Y65551D01*
X102604Y65629D01*
X102654Y65690D01*
X102693Y65745D01*
X102726Y65779D01*
X102749Y65806D01*
X102754Y65812D01*
X99752D01*
Y66284D01*
X103609D01*
Y65978D01*
D02*
G37*
G36*
X101095Y63564D02*
X101006Y63542D01*
X100923Y63514D01*
X100845Y63486D01*
X100773Y63459D01*
X100706Y63425D01*
X100651Y63392D01*
X100595Y63353D01*
X100545Y63320D01*
X100501Y63292D01*
X100468Y63259D01*
X100434Y63231D01*
X100407Y63209D01*
X100390Y63187D01*
X100373Y63170D01*
X100368Y63165D01*
X100362Y63159D01*
X100318Y63104D01*
X100285Y63042D01*
X100223Y62920D01*
X100179Y62804D01*
X100151Y62687D01*
X100129Y62587D01*
X100124Y62549D01*
Y62510D01*
X100118Y62476D01*
Y62438D01*
X100124Y62310D01*
X100146Y62188D01*
X100173Y62077D01*
X100207Y61977D01*
X100240Y61899D01*
X100257Y61866D01*
X100268Y61838D01*
X100279Y61816D01*
X100290Y61799D01*
X100296Y61788D01*
Y61783D01*
X100373Y61677D01*
X100457Y61588D01*
X100551Y61511D01*
X100640Y61450D01*
X100717Y61400D01*
X100784Y61366D01*
X100812Y61355D01*
X100828Y61344D01*
X100839Y61339D01*
X100845D01*
X100989Y61294D01*
X101134Y61261D01*
X101278Y61233D01*
X101411Y61217D01*
X101472Y61211D01*
X101528Y61206D01*
X101578D01*
X101617Y61200D01*
X101650D01*
X101678D01*
X101694D01*
X101700D01*
X101844Y61206D01*
X101977Y61217D01*
X102099Y61239D01*
X102210Y61261D01*
X102305Y61278D01*
X102343Y61289D01*
X102377Y61300D01*
X102405Y61305D01*
X102421Y61311D01*
X102432Y61317D01*
X102438D01*
X102566Y61372D01*
X102682Y61433D01*
X102776Y61500D01*
X102860Y61572D01*
X102926Y61633D01*
X102971Y61683D01*
X102998Y61722D01*
X103009Y61727D01*
Y61733D01*
X103082Y61849D01*
X103137Y61977D01*
X103176Y62099D01*
X103198Y62216D01*
X103215Y62321D01*
X103220Y62365D01*
Y62404D01*
X103226Y62432D01*
Y62476D01*
X103220Y62615D01*
X103198Y62743D01*
X103165Y62848D01*
X103132Y62943D01*
X103093Y63015D01*
X103065Y63070D01*
X103043Y63104D01*
X103032Y63115D01*
X102948Y63204D01*
X102854Y63287D01*
X102754Y63353D01*
X102654Y63409D01*
X102566Y63453D01*
X102521Y63470D01*
X102488Y63481D01*
X102460Y63492D01*
X102438Y63503D01*
X102427Y63509D01*
X102421D01*
X102538Y64008D01*
X102638Y63975D01*
X102726Y63942D01*
X102810Y63897D01*
X102893Y63858D01*
X102965Y63814D01*
X103032Y63764D01*
X103098Y63720D01*
X103154Y63675D01*
X103198Y63631D01*
X103243Y63592D01*
X103281Y63553D01*
X103309Y63525D01*
X103337Y63498D01*
X103354Y63475D01*
X103359Y63464D01*
X103365Y63459D01*
X103415Y63381D01*
X103465Y63303D01*
X103504Y63226D01*
X103537Y63142D01*
X103587Y62976D01*
X103620Y62826D01*
X103637Y62754D01*
X103642Y62693D01*
X103648Y62632D01*
X103653Y62582D01*
X103659Y62543D01*
Y62488D01*
X103648Y62304D01*
X103620Y62127D01*
X103587Y61971D01*
X103565Y61899D01*
X103542Y61833D01*
X103520Y61772D01*
X103498Y61716D01*
X103481Y61672D01*
X103465Y61627D01*
X103448Y61599D01*
X103437Y61577D01*
X103431Y61561D01*
X103426Y61555D01*
X103331Y61405D01*
X103220Y61278D01*
X103109Y61167D01*
X102998Y61072D01*
X102899Y61000D01*
X102854Y60972D01*
X102815Y60950D01*
X102787Y60928D01*
X102765Y60917D01*
X102749Y60911D01*
X102743Y60906D01*
X102571Y60828D01*
X102393Y60773D01*
X102216Y60734D01*
X102055Y60706D01*
X101983Y60695D01*
X101911Y60689D01*
X101855Y60684D01*
X101800D01*
X101761Y60678D01*
X101727D01*
X101705D01*
X101700D01*
X101500Y60689D01*
X101306Y60711D01*
X101134Y60739D01*
X101050Y60761D01*
X100978Y60778D01*
X100912Y60795D01*
X100851Y60817D01*
X100795Y60834D01*
X100751Y60845D01*
X100717Y60861D01*
X100690Y60867D01*
X100673Y60878D01*
X100667D01*
X100501Y60961D01*
X100351Y61056D01*
X100223Y61155D01*
X100173Y61206D01*
X100124Y61250D01*
X100079Y61294D01*
X100040Y61339D01*
X100007Y61378D01*
X99985Y61411D01*
X99963Y61433D01*
X99946Y61455D01*
X99940Y61466D01*
X99935Y61472D01*
X99890Y61550D01*
X99852Y61627D01*
X99791Y61794D01*
X99746Y61960D01*
X99718Y62121D01*
X99707Y62199D01*
X99696Y62265D01*
X99691Y62327D01*
Y62376D01*
X99685Y62421D01*
Y62482D01*
X99691Y62593D01*
X99702Y62698D01*
X99713Y62798D01*
X99735Y62893D01*
X99763Y62981D01*
X99791Y63065D01*
X99818Y63142D01*
X99852Y63215D01*
X99879Y63276D01*
X99907Y63337D01*
X99935Y63381D01*
X99963Y63425D01*
X99985Y63453D01*
X99996Y63481D01*
X100007Y63492D01*
X100013Y63498D01*
X100079Y63575D01*
X100146Y63642D01*
X100223Y63703D01*
X100301Y63764D01*
X100457Y63864D01*
X100612Y63942D01*
X100684Y63975D01*
X100751Y64003D01*
X100812Y64025D01*
X100862Y64042D01*
X100906Y64058D01*
X100939Y64069D01*
X100962Y64075D01*
X100967D01*
X101095Y63564D01*
D02*
G37*
%LPC*%
G36*
X95469Y17209D02*
Y15888D01*
X96363D01*
X95469Y17209D01*
D02*
G37*
G36*
X92711Y17725D02*
X92689D01*
X92639Y17720D01*
X92594Y17714D01*
X92555Y17697D01*
X92522Y17681D01*
X92494Y17664D01*
X92472Y17653D01*
X92461Y17642D01*
X92455Y17636D01*
X92422Y17598D01*
X92389Y17548D01*
X92361Y17492D01*
X92333Y17437D01*
X92317Y17381D01*
X92300Y17337D01*
X92295Y17309D01*
X92289Y17303D01*
Y17298D01*
X92278Y17248D01*
X92267Y17187D01*
X92256Y17115D01*
X92244Y17043D01*
X92233Y16893D01*
X92228Y16737D01*
X92222Y16665D01*
Y16593D01*
X92217Y16532D01*
Y16477D01*
Y16432D01*
Y16393D01*
Y16371D01*
Y16365D01*
Y16243D01*
X92222Y16127D01*
Y16021D01*
X92228Y15927D01*
X92233Y15838D01*
X92239Y15761D01*
X92250Y15688D01*
X92256Y15627D01*
X92261Y15572D01*
X92272Y15527D01*
X92278Y15489D01*
X92283Y15455D01*
X92289Y15433D01*
Y15411D01*
X92295Y15405D01*
Y15400D01*
X92317Y15322D01*
X92344Y15261D01*
X92372Y15205D01*
X92394Y15167D01*
X92417Y15133D01*
X92439Y15111D01*
X92450Y15100D01*
X92455Y15094D01*
X92494Y15067D01*
X92533Y15045D01*
X92572Y15033D01*
X92611Y15022D01*
X92639Y15017D01*
X92666Y15011D01*
X92689D01*
X92738Y15017D01*
X92783Y15022D01*
X92822Y15039D01*
X92855Y15056D01*
X92883Y15067D01*
X92905Y15083D01*
X92916Y15089D01*
X92922Y15094D01*
X92955Y15133D01*
X92988Y15183D01*
X93016Y15239D01*
X93044Y15294D01*
X93060Y15344D01*
X93077Y15389D01*
X93083Y15416D01*
X93088Y15428D01*
X93099Y15483D01*
X93110Y15544D01*
X93121Y15611D01*
X93127Y15683D01*
X93138Y15838D01*
X93144Y15994D01*
X93149Y16066D01*
Y16138D01*
X93155Y16199D01*
Y16254D01*
Y16299D01*
Y16338D01*
Y16360D01*
Y16365D01*
Y16488D01*
X93149Y16604D01*
Y16704D01*
X93144Y16804D01*
X93138Y16887D01*
X93133Y16970D01*
X93127Y17037D01*
X93116Y17104D01*
X93110Y17159D01*
X93105Y17203D01*
X93099Y17242D01*
X93094Y17276D01*
X93088Y17298D01*
Y17320D01*
X93083Y17326D01*
Y17331D01*
X93060Y17409D01*
X93033Y17476D01*
X93010Y17525D01*
X92983Y17570D01*
X92961Y17598D01*
X92944Y17620D01*
X92933Y17631D01*
X92927Y17636D01*
X92888Y17664D01*
X92844Y17686D01*
X92805Y17703D01*
X92766Y17714D01*
X92738Y17720D01*
X92711Y17725D01*
D02*
G37*
G36*
X92684Y-16048D02*
X92651D01*
X92573Y-16059D01*
X92501Y-16081D01*
X92434Y-16109D01*
X92379Y-16148D01*
X92334Y-16187D01*
X92301Y-16214D01*
X92279Y-16237D01*
X92273Y-16248D01*
X92218Y-16331D01*
X92179Y-16420D01*
X92146Y-16514D01*
X92129Y-16603D01*
X92118Y-16686D01*
X92107Y-16747D01*
Y-16775D01*
Y-16792D01*
Y-16803D01*
Y-16808D01*
X92112Y-16925D01*
X92129Y-17025D01*
X92157Y-17108D01*
X92179Y-17180D01*
X92207Y-17230D01*
X92234Y-17269D01*
X92251Y-17297D01*
X92256Y-17302D01*
X92312Y-17358D01*
X92373Y-17397D01*
X92434Y-17430D01*
X92490Y-17447D01*
X92540Y-17458D01*
X92578Y-17463D01*
X92601Y-17469D01*
X92612D01*
X92689Y-17463D01*
X92762Y-17441D01*
X92823Y-17413D01*
X92878Y-17380D01*
X92923Y-17352D01*
X92950Y-17324D01*
X92972Y-17302D01*
X92978Y-17297D01*
X93028Y-17224D01*
X93061Y-17136D01*
X93089Y-17047D01*
X93106Y-16952D01*
X93117Y-16875D01*
X93122Y-16808D01*
Y-16781D01*
Y-16764D01*
Y-16753D01*
Y-16747D01*
X93117Y-16620D01*
X93100Y-16509D01*
X93078Y-16414D01*
X93056Y-16342D01*
X93033Y-16286D01*
X93011Y-16248D01*
X92995Y-16220D01*
X92989Y-16214D01*
X92934Y-16159D01*
X92878Y-16120D01*
X92823Y-16087D01*
X92767Y-16070D01*
X92723Y-16059D01*
X92684Y-16048D01*
D02*
G37*
G36*
X103659Y-86803D02*
X102373D01*
X102271Y-86813D01*
X102031D01*
X101975Y-86822D01*
X101873D01*
X101836Y-86831D01*
X101827D01*
X101716Y-86849D01*
X101614Y-86877D01*
X101531Y-86914D01*
X101457Y-86951D01*
X101411Y-86988D01*
X101365Y-87025D01*
X101346Y-87044D01*
X101337Y-87053D01*
X101281Y-87127D01*
X101244Y-87210D01*
X101207Y-87284D01*
X101189Y-87358D01*
X101180Y-87432D01*
X101170Y-87488D01*
Y-87525D01*
Y-87534D01*
X101180Y-87645D01*
X101198Y-87747D01*
X101235Y-87830D01*
X101263Y-87904D01*
X101300Y-87969D01*
X101337Y-88006D01*
X101355Y-88033D01*
X101365Y-88043D01*
X101439Y-88108D01*
X101522Y-88154D01*
X101605Y-88191D01*
X101688Y-88218D01*
X101772Y-88246D01*
X101827Y-88256D01*
X101864Y-88265D01*
X101920D01*
X101975Y-88274D01*
X102262D01*
X102419Y-88283D01*
X103659D01*
Y-86803D01*
D02*
G37*
G36*
Y-89347D02*
X102317D01*
X102188Y-89356D01*
X102077Y-89366D01*
X101966D01*
X101873Y-89375D01*
X101790Y-89384D01*
X101725Y-89393D01*
X101661Y-89403D01*
X101614Y-89412D01*
X101540Y-89421D01*
X101494Y-89439D01*
X101485D01*
X101392Y-89477D01*
X101309Y-89523D01*
X101235Y-89569D01*
X101180Y-89625D01*
X101133Y-89662D01*
X101106Y-89698D01*
X101087Y-89726D01*
X101078Y-89736D01*
X101032Y-89819D01*
X100995Y-89902D01*
X100967Y-89976D01*
X100948Y-90059D01*
X100939Y-90124D01*
X100930Y-90180D01*
Y-90216D01*
Y-90226D01*
X100939Y-90346D01*
X100958Y-90457D01*
X100985Y-90549D01*
X101022Y-90623D01*
X101059Y-90688D01*
X101087Y-90734D01*
X101106Y-90762D01*
X101115Y-90772D01*
X101189Y-90836D01*
X101263Y-90892D01*
X101346Y-90938D01*
X101420Y-90975D01*
X101485Y-90993D01*
X101540Y-91012D01*
X101577Y-91021D01*
X101587D01*
X101624Y-91031D01*
X101679D01*
X101799Y-91040D01*
X101947Y-91049D01*
X102095D01*
X102234Y-91058D01*
X103659D01*
Y-89347D01*
D02*
G37*
G36*
X29612Y-86822D02*
X28132D01*
X28049Y-86831D01*
X27846D01*
X27762Y-86840D01*
X27707D01*
X27679Y-86849D01*
X27670D01*
X27559Y-86877D01*
X27457Y-86914D01*
X27374Y-86951D01*
X27309Y-86997D01*
X27254Y-87044D01*
X27207Y-87072D01*
X27189Y-87099D01*
X27180Y-87108D01*
X27124Y-87182D01*
X27078Y-87275D01*
X27050Y-87358D01*
X27022Y-87441D01*
X27013Y-87515D01*
X27004Y-87571D01*
Y-87608D01*
Y-87626D01*
X27013Y-87728D01*
X27022Y-87821D01*
X27050Y-87904D01*
X27069Y-87978D01*
X27096Y-88033D01*
X27124Y-88070D01*
X27133Y-88098D01*
X27143Y-88108D01*
X27198Y-88172D01*
X27254Y-88228D01*
X27374Y-88311D01*
X27420Y-88339D01*
X27466Y-88357D01*
X27494Y-88376D01*
X27503D01*
X27550Y-88385D01*
X27624Y-88403D01*
X27698Y-88413D01*
X27781Y-88422D01*
X27975Y-88431D01*
X28169Y-88441D01*
X28354Y-88450D01*
X29612D01*
Y-86822D01*
D02*
G37*
G36*
X95731Y-86720D02*
X95657D01*
X95509Y-86729D01*
X95371Y-86748D01*
X95241Y-86766D01*
X95121Y-86803D01*
X94908Y-86896D01*
X94806Y-86942D01*
X94723Y-86988D01*
X94640Y-87044D01*
X94575Y-87090D01*
X94520Y-87136D01*
X94464Y-87182D01*
X94427Y-87220D01*
X94399Y-87238D01*
X94390Y-87256D01*
X94381Y-87266D01*
X94298Y-87377D01*
X94214Y-87497D01*
X94150Y-87617D01*
X94094Y-87756D01*
X94011Y-88033D01*
X93955Y-88302D01*
X93928Y-88422D01*
X93918Y-88542D01*
X93909Y-88644D01*
X93900Y-88736D01*
X93891Y-88820D01*
Y-88875D01*
Y-88912D01*
Y-88921D01*
X93900Y-89125D01*
X93909Y-89319D01*
X93937Y-89495D01*
X93965Y-89652D01*
X94002Y-89810D01*
X94048Y-89948D01*
X94094Y-90069D01*
X94140Y-90180D01*
X94187Y-90281D01*
X94233Y-90364D01*
X94270Y-90438D01*
X94316Y-90503D01*
X94344Y-90549D01*
X94372Y-90577D01*
X94381Y-90596D01*
X94390Y-90605D01*
X94483Y-90707D01*
X94584Y-90790D01*
X94695Y-90864D01*
X94797Y-90929D01*
X94908Y-90975D01*
X95010Y-91021D01*
X95213Y-91086D01*
X95389Y-91132D01*
X95463Y-91141D01*
X95528Y-91151D01*
X95583Y-91160D01*
X95657D01*
X95796Y-91151D01*
X95935Y-91132D01*
X96064Y-91105D01*
X96185Y-91067D01*
X96407Y-90984D01*
X96582Y-90873D01*
X96666Y-90827D01*
X96730Y-90772D01*
X96795Y-90725D01*
X96841Y-90679D01*
X96878Y-90651D01*
X96906Y-90623D01*
X96925Y-90605D01*
X96934Y-90596D01*
X97017Y-90485D01*
X97100Y-90364D01*
X97165Y-90235D01*
X97221Y-90096D01*
X97313Y-89828D01*
X97369Y-89560D01*
X97387Y-89430D01*
X97406Y-89319D01*
X97415Y-89208D01*
X97424Y-89116D01*
X97433Y-89042D01*
Y-88986D01*
Y-88949D01*
Y-88940D01*
X97424Y-88736D01*
X97415Y-88551D01*
X97387Y-88376D01*
X97359Y-88209D01*
X97322Y-88061D01*
X97285Y-87923D01*
X97239Y-87802D01*
X97193Y-87691D01*
X97147Y-87590D01*
X97100Y-87506D01*
X97063Y-87441D01*
X97026Y-87377D01*
X96999Y-87331D01*
X96971Y-87303D01*
X96962Y-87284D01*
X96952Y-87275D01*
X96860Y-87173D01*
X96758Y-87090D01*
X96647Y-87016D01*
X96545Y-86951D01*
X96434Y-86896D01*
X96323Y-86859D01*
X96120Y-86785D01*
X95935Y-86748D01*
X95861Y-86739D01*
X95787Y-86729D01*
X95731Y-86720D01*
D02*
G37*
G36*
X77842D02*
X77768D01*
X77620Y-86729D01*
X77481Y-86748D01*
X77352Y-86766D01*
X77231Y-86803D01*
X77019Y-86896D01*
X76917Y-86942D01*
X76834Y-86988D01*
X76750Y-87044D01*
X76686Y-87090D01*
X76630Y-87136D01*
X76575Y-87182D01*
X76538Y-87220D01*
X76510Y-87238D01*
X76501Y-87256D01*
X76491Y-87266D01*
X76408Y-87377D01*
X76325Y-87497D01*
X76260Y-87617D01*
X76205Y-87756D01*
X76121Y-88033D01*
X76066Y-88302D01*
X76038Y-88422D01*
X76029Y-88542D01*
X76020Y-88644D01*
X76010Y-88736D01*
X76001Y-88820D01*
Y-88875D01*
Y-88912D01*
Y-88921D01*
X76010Y-89125D01*
X76020Y-89319D01*
X76047Y-89495D01*
X76075Y-89652D01*
X76112Y-89810D01*
X76158Y-89948D01*
X76205Y-90069D01*
X76251Y-90180D01*
X76297Y-90281D01*
X76343Y-90364D01*
X76380Y-90438D01*
X76427Y-90503D01*
X76454Y-90549D01*
X76482Y-90577D01*
X76491Y-90596D01*
X76501Y-90605D01*
X76593Y-90707D01*
X76695Y-90790D01*
X76806Y-90864D01*
X76908Y-90929D01*
X77019Y-90975D01*
X77120Y-91021D01*
X77324Y-91086D01*
X77500Y-91132D01*
X77574Y-91141D01*
X77638Y-91151D01*
X77694Y-91160D01*
X77768D01*
X77907Y-91151D01*
X78045Y-91132D01*
X78175Y-91105D01*
X78295Y-91067D01*
X78517Y-90984D01*
X78693Y-90873D01*
X78776Y-90827D01*
X78841Y-90772D01*
X78906Y-90725D01*
X78952Y-90679D01*
X78989Y-90651D01*
X79017Y-90623D01*
X79035Y-90605D01*
X79044Y-90596D01*
X79128Y-90485D01*
X79211Y-90364D01*
X79276Y-90235D01*
X79331Y-90096D01*
X79424Y-89828D01*
X79479Y-89560D01*
X79498Y-89430D01*
X79516Y-89319D01*
X79525Y-89208D01*
X79535Y-89116D01*
X79544Y-89042D01*
Y-88986D01*
Y-88949D01*
Y-88940D01*
X79535Y-88736D01*
X79525Y-88551D01*
X79498Y-88376D01*
X79470Y-88209D01*
X79433Y-88061D01*
X79396Y-87923D01*
X79350Y-87802D01*
X79303Y-87691D01*
X79257Y-87590D01*
X79211Y-87506D01*
X79174Y-87441D01*
X79137Y-87377D01*
X79109Y-87331D01*
X79081Y-87303D01*
X79072Y-87284D01*
X79063Y-87275D01*
X78970Y-87173D01*
X78869Y-87090D01*
X78758Y-87016D01*
X78656Y-86951D01*
X78545Y-86896D01*
X78434Y-86859D01*
X78230Y-86785D01*
X78045Y-86748D01*
X77971Y-86739D01*
X77897Y-86729D01*
X77842Y-86720D01*
D02*
G37*
G36*
X107694Y86544D02*
Y84824D01*
X108903D01*
X107694Y86544D01*
D02*
G37*
G36*
X117682Y75500D02*
X116472D01*
X116323Y75495D01*
X116195Y75473D01*
X116084Y75445D01*
X116001Y75412D01*
X115928Y75378D01*
X115884Y75351D01*
X115856Y75328D01*
X115845Y75323D01*
X115779Y75251D01*
X115729Y75178D01*
X115696Y75101D01*
X115668Y75034D01*
X115657Y74968D01*
X115651Y74918D01*
X115646Y74884D01*
Y74879D01*
Y74873D01*
X115651Y74807D01*
X115662Y74740D01*
X115679Y74685D01*
X115696Y74635D01*
X115718Y74590D01*
X115734Y74557D01*
X115745Y74535D01*
X115751Y74529D01*
X115790Y74474D01*
X115840Y74424D01*
X115890Y74385D01*
X115940Y74352D01*
X115984Y74329D01*
X116017Y74313D01*
X116040Y74302D01*
X116051Y74296D01*
X116128Y74274D01*
X116217Y74257D01*
X116306Y74246D01*
X116395Y74241D01*
X116472Y74235D01*
X116539Y74230D01*
X117682D01*
Y75500D01*
D02*
G37*
G36*
X97918Y55153D02*
X96708D01*
X96558Y55148D01*
X96431Y55126D01*
X96320Y55098D01*
X96236Y55065D01*
X96164Y55031D01*
X96120Y55003D01*
X96092Y54981D01*
X96081Y54976D01*
X96014Y54904D01*
X95964Y54831D01*
X95931Y54754D01*
X95903Y54687D01*
X95892Y54621D01*
X95887Y54571D01*
X95881Y54537D01*
Y54532D01*
Y54526D01*
X95887Y54460D01*
X95898Y54393D01*
X95915Y54338D01*
X95931Y54288D01*
X95953Y54243D01*
X95970Y54210D01*
X95981Y54188D01*
X95987Y54182D01*
X96026Y54127D01*
X96075Y54077D01*
X96125Y54038D01*
X96175Y54005D01*
X96220Y53982D01*
X96253Y53966D01*
X96275Y53955D01*
X96286Y53949D01*
X96364Y53927D01*
X96453Y53910D01*
X96542Y53899D01*
X96631Y53894D01*
X96708Y53888D01*
X96775Y53882D01*
X97918D01*
Y55153D01*
D02*
G37*
G36*
X111153Y15885D02*
X109943D01*
X109793Y15880D01*
X109665Y15858D01*
X109554Y15830D01*
X109471Y15797D01*
X109399Y15763D01*
X109354Y15735D01*
X109327Y15713D01*
X109316Y15708D01*
X109249Y15636D01*
X109199Y15563D01*
X109166Y15486D01*
X109138Y15419D01*
X109127Y15353D01*
X109121Y15303D01*
X109116Y15269D01*
Y15264D01*
Y15258D01*
X109121Y15192D01*
X109132Y15125D01*
X109149Y15069D01*
X109166Y15020D01*
X109188Y14975D01*
X109204Y14942D01*
X109216Y14920D01*
X109221Y14914D01*
X109260Y14859D01*
X109310Y14809D01*
X109360Y14770D01*
X109410Y14737D01*
X109454Y14714D01*
X109488Y14698D01*
X109510Y14687D01*
X109521Y14681D01*
X109599Y14659D01*
X109687Y14642D01*
X109776Y14631D01*
X109865Y14626D01*
X109943Y14620D01*
X110009Y14614D01*
X111153D01*
Y15885D01*
D02*
G37*
%LPD*%
D10*
X27253Y73133D02*
G03*
X27253Y73133I-394J0D01*
G01*
X98425Y-11750D02*
Y-9843D01*
X91536Y-11750D02*
X98425D01*
Y2756D02*
Y11750D01*
X91536D02*
X98425D01*
X19685D02*
X26575D01*
X19685Y2756D02*
Y11750D01*
Y-11750D02*
Y-9843D01*
Y-11750D02*
X26575D01*
D11*
X13237Y98999D02*
X103474D01*
X100383Y95495D02*
X103474D01*
X13237D02*
X16328D01*
X100383Y93487D02*
Y95495D01*
X16328Y93487D02*
Y95495D01*
X13237D02*
Y98999D01*
X103474Y95495D02*
Y98999D01*
X88434Y77739D02*
X90639D01*
X26072D02*
X28277D01*
D23*
X119677Y34368D02*
G03*
X119677Y31968I0J-1200D01*
G01*
Y24268D02*
Y31968D01*
Y34368D01*
Y42068D01*
X99677Y24268D02*
Y42068D01*
D52*
X108136Y62169D02*
X118373D01*
X108136D02*
Y70831D01*
X118373Y62169D02*
Y70831D01*
X108136D02*
X118373D01*
D53*
X103567Y51199D02*
Y55136D01*
X99787Y51199D02*
Y55136D01*
X114675Y49968D02*
X118613D01*
X114675Y53368D02*
X118613D01*
X107660Y64972D02*
Y68909D01*
X104260Y64972D02*
Y68909D01*
X113860Y12414D02*
X117797D01*
X113860Y16194D02*
X117797D01*
M02*
