G04*
G04 #@! TF.GenerationSoftware,Altium Limited,Altium Designer,22.5.1 (42)*
G04*
G04 Layer_Color=65535*
%FSLAX25Y25*%
%MOIN*%
G70*
G04*
G04 #@! TF.SameCoordinates,A2539C74-7FEE-43BD-A04A-5197B4AA8E51*
G04*
G04*
G04 #@! TF.FilePolarity,Positive*
G04*
G01*
G75*
%ADD10C,0.00787*%
%ADD11C,0.00500*%
G36*
X78745Y8403D02*
Y2930D01*
X37913D01*
Y8403D01*
X78745D01*
D02*
G37*
G36*
Y2930D02*
Y-3266D01*
X37913D01*
Y2930D01*
X78745D01*
D02*
G37*
G36*
X31669Y39432D02*
X31713Y39427D01*
X31769Y39421D01*
X31830Y39410D01*
X31891Y39399D01*
X32035Y39360D01*
X32180Y39305D01*
X32252Y39272D01*
X32324Y39233D01*
X32390Y39183D01*
X32452Y39127D01*
X32457Y39122D01*
X32468Y39116D01*
X32479Y39094D01*
X32502Y39072D01*
X32529Y39044D01*
X32557Y39005D01*
X32585Y38966D01*
X32618Y38916D01*
X32674Y38811D01*
X32729Y38678D01*
X32751Y38611D01*
X32762Y38533D01*
X32774Y38456D01*
X32779Y38372D01*
Y38361D01*
Y38334D01*
X32774Y38289D01*
X32768Y38228D01*
X32757Y38162D01*
X32735Y38084D01*
X32712Y38001D01*
X32679Y37917D01*
X32674Y37906D01*
X32662Y37879D01*
X32640Y37834D01*
X32607Y37773D01*
X32563Y37706D01*
X32507Y37623D01*
X32441Y37540D01*
X32363Y37446D01*
X32352Y37435D01*
X32324Y37401D01*
X32296Y37373D01*
X32268Y37346D01*
X32235Y37312D01*
X32191Y37268D01*
X32146Y37224D01*
X32091Y37174D01*
X32035Y37118D01*
X31969Y37057D01*
X31897Y36996D01*
X31819Y36924D01*
X31730Y36852D01*
X31641Y36774D01*
X31636Y36768D01*
X31625Y36757D01*
X31602Y36741D01*
X31575Y36718D01*
X31541Y36685D01*
X31503Y36652D01*
X31414Y36580D01*
X31319Y36496D01*
X31231Y36413D01*
X31153Y36341D01*
X31120Y36313D01*
X31092Y36286D01*
X31086Y36280D01*
X31070Y36263D01*
X31047Y36241D01*
X31020Y36208D01*
X30992Y36169D01*
X30959Y36130D01*
X30892Y36036D01*
X32785D01*
Y35581D01*
X30237D01*
Y35586D01*
Y35609D01*
Y35642D01*
X30243Y35686D01*
X30248Y35736D01*
X30259Y35792D01*
X30270Y35847D01*
X30293Y35908D01*
Y35914D01*
X30298Y35919D01*
X30309Y35953D01*
X30332Y36003D01*
X30365Y36069D01*
X30409Y36147D01*
X30465Y36236D01*
X30526Y36325D01*
X30603Y36419D01*
Y36424D01*
X30615Y36430D01*
X30642Y36463D01*
X30692Y36513D01*
X30764Y36585D01*
X30848Y36669D01*
X30953Y36768D01*
X31081Y36880D01*
X31220Y36996D01*
X31225Y37002D01*
X31247Y37018D01*
X31280Y37046D01*
X31319Y37079D01*
X31369Y37124D01*
X31430Y37174D01*
X31491Y37229D01*
X31564Y37290D01*
X31702Y37423D01*
X31841Y37557D01*
X31908Y37623D01*
X31969Y37690D01*
X32024Y37751D01*
X32069Y37812D01*
Y37817D01*
X32080Y37823D01*
X32091Y37840D01*
X32102Y37862D01*
X32141Y37923D01*
X32185Y37995D01*
X32224Y38084D01*
X32263Y38178D01*
X32285Y38284D01*
X32296Y38383D01*
Y38389D01*
Y38395D01*
X32291Y38428D01*
X32285Y38483D01*
X32268Y38544D01*
X32246Y38622D01*
X32207Y38700D01*
X32157Y38778D01*
X32091Y38855D01*
X32080Y38866D01*
X32052Y38889D01*
X32013Y38916D01*
X31952Y38955D01*
X31874Y38989D01*
X31786Y39022D01*
X31680Y39044D01*
X31564Y39050D01*
X31530D01*
X31508Y39044D01*
X31442Y39038D01*
X31364Y39022D01*
X31280Y39000D01*
X31186Y38961D01*
X31097Y38911D01*
X31014Y38844D01*
X31003Y38833D01*
X30981Y38805D01*
X30948Y38761D01*
X30914Y38694D01*
X30875Y38617D01*
X30842Y38517D01*
X30820Y38406D01*
X30809Y38278D01*
X30326Y38328D01*
Y38334D01*
X30332Y38350D01*
Y38378D01*
X30337Y38417D01*
X30348Y38461D01*
X30359Y38511D01*
X30376Y38572D01*
X30393Y38633D01*
X30437Y38767D01*
X30503Y38900D01*
X30542Y38966D01*
X30592Y39033D01*
X30642Y39094D01*
X30698Y39149D01*
X30703Y39155D01*
X30714Y39160D01*
X30731Y39177D01*
X30759Y39194D01*
X30792Y39216D01*
X30831Y39238D01*
X30875Y39266D01*
X30931Y39294D01*
X30992Y39322D01*
X31058Y39349D01*
X31131Y39371D01*
X31208Y39394D01*
X31292Y39410D01*
X31380Y39427D01*
X31475Y39432D01*
X31575Y39438D01*
X31630D01*
X31669Y39432D01*
D02*
G37*
G36*
X28200Y39416D02*
X28311Y39410D01*
X28422Y39399D01*
X28533Y39382D01*
X28628Y39366D01*
X28633D01*
X28644Y39360D01*
X28661D01*
X28683Y39349D01*
X28744Y39333D01*
X28822Y39305D01*
X28911Y39266D01*
X29005Y39216D01*
X29099Y39160D01*
X29188Y39088D01*
X29194Y39083D01*
X29199Y39077D01*
X29216Y39061D01*
X29238Y39044D01*
X29294Y38989D01*
X29360Y38911D01*
X29432Y38816D01*
X29510Y38705D01*
X29582Y38578D01*
X29643Y38434D01*
Y38428D01*
X29649Y38417D01*
X29660Y38395D01*
X29665Y38361D01*
X29682Y38322D01*
X29693Y38278D01*
X29704Y38228D01*
X29721Y38167D01*
X29738Y38106D01*
X29749Y38034D01*
X29776Y37879D01*
X29793Y37706D01*
X29799Y37518D01*
Y37512D01*
Y37501D01*
Y37473D01*
Y37446D01*
X29793Y37407D01*
Y37362D01*
X29788Y37257D01*
X29771Y37135D01*
X29754Y37007D01*
X29726Y36874D01*
X29693Y36741D01*
Y36735D01*
X29688Y36724D01*
X29682Y36707D01*
X29677Y36685D01*
X29654Y36624D01*
X29621Y36546D01*
X29588Y36458D01*
X29543Y36369D01*
X29488Y36274D01*
X29432Y36186D01*
X29427Y36175D01*
X29405Y36147D01*
X29371Y36108D01*
X29327Y36058D01*
X29277Y36003D01*
X29216Y35947D01*
X29155Y35886D01*
X29083Y35836D01*
X29072Y35831D01*
X29049Y35814D01*
X29011Y35792D01*
X28955Y35764D01*
X28888Y35731D01*
X28811Y35703D01*
X28722Y35670D01*
X28622Y35642D01*
X28611D01*
X28594Y35636D01*
X28578Y35631D01*
X28522Y35625D01*
X28444Y35614D01*
X28356Y35603D01*
X28250Y35592D01*
X28134Y35586D01*
X28006Y35581D01*
X26624D01*
Y39421D01*
X28100D01*
X28200Y39416D01*
D02*
G37*
G36*
X46285Y41715D02*
X45813D01*
Y44717D01*
X45807Y44712D01*
X45780Y44690D01*
X45746Y44656D01*
X45691Y44618D01*
X45630Y44567D01*
X45552Y44512D01*
X45463Y44451D01*
X45363Y44390D01*
X45358D01*
X45352Y44384D01*
X45319Y44362D01*
X45263Y44334D01*
X45197Y44301D01*
X45119Y44262D01*
X45036Y44223D01*
X44953Y44185D01*
X44869Y44151D01*
Y44606D01*
X44875D01*
X44886Y44618D01*
X44908Y44623D01*
X44936Y44640D01*
X44969Y44656D01*
X45008Y44679D01*
X45103Y44734D01*
X45213Y44795D01*
X45325Y44873D01*
X45441Y44962D01*
X45558Y45056D01*
X45563Y45061D01*
X45569Y45067D01*
X45585Y45084D01*
X45608Y45100D01*
X45658Y45156D01*
X45724Y45222D01*
X45791Y45300D01*
X45863Y45389D01*
X45924Y45478D01*
X45979Y45572D01*
X46285D01*
Y41715D01*
D02*
G37*
G36*
X42405Y45550D02*
X42516Y45544D01*
X42627Y45533D01*
X42738Y45517D01*
X42832Y45500D01*
X42838D01*
X42849Y45494D01*
X42866D01*
X42888Y45483D01*
X42949Y45467D01*
X43027Y45439D01*
X43116Y45400D01*
X43210Y45350D01*
X43304Y45295D01*
X43393Y45222D01*
X43399Y45217D01*
X43404Y45211D01*
X43421Y45195D01*
X43443Y45178D01*
X43499Y45123D01*
X43565Y45045D01*
X43637Y44951D01*
X43715Y44840D01*
X43787Y44712D01*
X43848Y44567D01*
Y44562D01*
X43854Y44551D01*
X43865Y44529D01*
X43870Y44495D01*
X43887Y44456D01*
X43898Y44412D01*
X43909Y44362D01*
X43926Y44301D01*
X43942Y44240D01*
X43954Y44168D01*
X43981Y44012D01*
X43998Y43841D01*
X44004Y43652D01*
Y43646D01*
Y43635D01*
Y43607D01*
Y43580D01*
X43998Y43541D01*
Y43496D01*
X43992Y43391D01*
X43976Y43269D01*
X43959Y43141D01*
X43931Y43008D01*
X43898Y42875D01*
Y42869D01*
X43893Y42858D01*
X43887Y42842D01*
X43881Y42819D01*
X43859Y42758D01*
X43826Y42680D01*
X43793Y42592D01*
X43748Y42503D01*
X43693Y42409D01*
X43637Y42320D01*
X43632Y42309D01*
X43610Y42281D01*
X43576Y42242D01*
X43532Y42192D01*
X43482Y42137D01*
X43421Y42081D01*
X43360Y42020D01*
X43288Y41970D01*
X43277Y41965D01*
X43254Y41948D01*
X43216Y41926D01*
X43160Y41898D01*
X43093Y41865D01*
X43016Y41837D01*
X42927Y41804D01*
X42827Y41776D01*
X42816D01*
X42799Y41770D01*
X42783Y41765D01*
X42727Y41759D01*
X42649Y41748D01*
X42561Y41737D01*
X42455Y41726D01*
X42339Y41720D01*
X42211Y41715D01*
X40829D01*
Y45555D01*
X42305D01*
X42405Y45550D01*
D02*
G37*
G36*
X24990Y62096D02*
X25101Y62090D01*
X25212Y62079D01*
X25323Y62062D01*
X25417Y62046D01*
X25423D01*
X25434Y62040D01*
X25451D01*
X25473Y62029D01*
X25534Y62012D01*
X25612Y61985D01*
X25700Y61946D01*
X25795Y61896D01*
X25889Y61840D01*
X25978Y61768D01*
X25984Y61763D01*
X25989Y61757D01*
X26006Y61740D01*
X26028Y61724D01*
X26083Y61668D01*
X26150Y61591D01*
X26222Y61496D01*
X26300Y61385D01*
X26372Y61258D01*
X26433Y61113D01*
Y61108D01*
X26439Y61097D01*
X26450Y61075D01*
X26455Y61041D01*
X26472Y61002D01*
X26483Y60958D01*
X26494Y60908D01*
X26511Y60847D01*
X26527Y60786D01*
X26539Y60714D01*
X26566Y60558D01*
X26583Y60386D01*
X26588Y60198D01*
Y60192D01*
Y60181D01*
Y60153D01*
Y60125D01*
X26583Y60087D01*
Y60042D01*
X26577Y59937D01*
X26561Y59815D01*
X26544Y59687D01*
X26516Y59554D01*
X26483Y59421D01*
Y59415D01*
X26477Y59404D01*
X26472Y59387D01*
X26466Y59365D01*
X26444Y59304D01*
X26411Y59226D01*
X26377Y59137D01*
X26333Y59049D01*
X26278Y58954D01*
X26222Y58865D01*
X26217Y58854D01*
X26194Y58827D01*
X26161Y58788D01*
X26117Y58738D01*
X26067Y58682D01*
X26006Y58627D01*
X25945Y58566D01*
X25872Y58516D01*
X25861Y58510D01*
X25839Y58494D01*
X25800Y58472D01*
X25745Y58444D01*
X25678Y58411D01*
X25600Y58383D01*
X25512Y58349D01*
X25412Y58322D01*
X25401D01*
X25384Y58316D01*
X25367Y58311D01*
X25312Y58305D01*
X25234Y58294D01*
X25145Y58283D01*
X25040Y58272D01*
X24923Y58266D01*
X24796Y58261D01*
X23414D01*
Y62101D01*
X24890D01*
X24990Y62096D01*
D02*
G37*
G36*
X28459Y62112D02*
X28531Y62101D01*
X28614Y62085D01*
X28703Y62062D01*
X28797Y62035D01*
X28886Y61990D01*
X28892D01*
X28897Y61985D01*
X28925Y61968D01*
X28969Y61940D01*
X29025Y61901D01*
X29086Y61846D01*
X29153Y61785D01*
X29214Y61713D01*
X29275Y61629D01*
X29280Y61618D01*
X29302Y61591D01*
X29325Y61541D01*
X29363Y61468D01*
X29397Y61385D01*
X29441Y61291D01*
X29480Y61180D01*
X29513Y61058D01*
Y61052D01*
X29519Y61041D01*
X29524Y61024D01*
X29530Y60997D01*
X29535Y60963D01*
X29541Y60925D01*
X29552Y60875D01*
X29558Y60819D01*
X29569Y60758D01*
X29574Y60691D01*
X29580Y60614D01*
X29591Y60536D01*
X29596Y60447D01*
Y60359D01*
X29602Y60259D01*
Y60153D01*
Y60148D01*
Y60125D01*
Y60087D01*
Y60042D01*
X29596Y59981D01*
Y59914D01*
X29591Y59842D01*
X29585Y59765D01*
X29569Y59587D01*
X29541Y59404D01*
X29508Y59226D01*
X29485Y59143D01*
X29458Y59060D01*
Y59054D01*
X29452Y59043D01*
X29441Y59021D01*
X29430Y58993D01*
X29419Y58954D01*
X29397Y58916D01*
X29352Y58821D01*
X29297Y58721D01*
X29225Y58610D01*
X29141Y58510D01*
X29041Y58416D01*
X29036D01*
X29030Y58405D01*
X29014Y58394D01*
X28992Y58383D01*
X28964Y58366D01*
X28936Y58344D01*
X28853Y58305D01*
X28753Y58266D01*
X28636Y58227D01*
X28498Y58205D01*
X28348Y58194D01*
X28292D01*
X28253Y58200D01*
X28209Y58205D01*
X28153Y58216D01*
X28093Y58227D01*
X28026Y58244D01*
X27959Y58266D01*
X27887Y58288D01*
X27815Y58322D01*
X27743Y58360D01*
X27671Y58405D01*
X27599Y58460D01*
X27532Y58521D01*
X27471Y58588D01*
X27465Y58594D01*
X27454Y58610D01*
X27438Y58638D01*
X27410Y58682D01*
X27382Y58732D01*
X27354Y58799D01*
X27316Y58877D01*
X27282Y58965D01*
X27249Y59065D01*
X27216Y59182D01*
X27182Y59310D01*
X27154Y59454D01*
X27127Y59609D01*
X27110Y59776D01*
X27099Y59959D01*
X27093Y60153D01*
Y60159D01*
Y60181D01*
Y60220D01*
Y60264D01*
X27099Y60325D01*
Y60392D01*
X27105Y60464D01*
X27110Y60547D01*
X27127Y60719D01*
X27154Y60902D01*
X27188Y61086D01*
X27210Y61169D01*
X27232Y61252D01*
Y61258D01*
X27238Y61269D01*
X27249Y61291D01*
X27260Y61319D01*
X27271Y61357D01*
X27293Y61396D01*
X27338Y61491D01*
X27393Y61591D01*
X27465Y61696D01*
X27549Y61801D01*
X27648Y61890D01*
X27654D01*
X27660Y61901D01*
X27676Y61913D01*
X27698Y61924D01*
X27726Y61946D01*
X27760Y61962D01*
X27843Y62007D01*
X27943Y62046D01*
X28059Y62085D01*
X28198Y62107D01*
X28348Y62118D01*
X28398D01*
X28459Y62112D01*
D02*
G37*
G36*
X120777Y10179D02*
X120250D01*
X118241Y13192D01*
Y10179D01*
X117753D01*
Y14019D01*
X118274D01*
X120289Y11000D01*
Y14019D01*
X120777D01*
Y10179D01*
D02*
G37*
G36*
X116965Y13564D02*
X114695D01*
Y12393D01*
X116820D01*
Y11938D01*
X114695D01*
Y10634D01*
X117053D01*
Y10179D01*
X114184D01*
Y14019D01*
X116965D01*
Y13564D01*
D02*
G37*
G36*
X122803Y14030D02*
X122875Y14019D01*
X122959Y14003D01*
X123047Y13981D01*
X123142Y13953D01*
X123231Y13908D01*
X123236D01*
X123242Y13903D01*
X123269Y13886D01*
X123314Y13858D01*
X123369Y13820D01*
X123430Y13764D01*
X123497Y13703D01*
X123558Y13631D01*
X123619Y13548D01*
X123625Y13536D01*
X123647Y13509D01*
X123669Y13459D01*
X123708Y13387D01*
X123741Y13304D01*
X123786Y13209D01*
X123825Y13098D01*
X123858Y12976D01*
Y12970D01*
X123863Y12959D01*
X123869Y12943D01*
X123874Y12915D01*
X123880Y12882D01*
X123886Y12843D01*
X123897Y12793D01*
X123902Y12737D01*
X123913Y12676D01*
X123919Y12610D01*
X123924Y12532D01*
X123935Y12454D01*
X123941Y12365D01*
Y12277D01*
X123947Y12177D01*
Y12071D01*
Y12066D01*
Y12044D01*
Y12005D01*
Y11960D01*
X123941Y11899D01*
Y11833D01*
X123935Y11761D01*
X123930Y11683D01*
X123913Y11505D01*
X123886Y11322D01*
X123852Y11145D01*
X123830Y11061D01*
X123802Y10978D01*
Y10972D01*
X123797Y10961D01*
X123786Y10939D01*
X123775Y10911D01*
X123763Y10872D01*
X123741Y10834D01*
X123697Y10739D01*
X123641Y10639D01*
X123569Y10528D01*
X123486Y10429D01*
X123386Y10334D01*
X123380D01*
X123375Y10323D01*
X123358Y10312D01*
X123336Y10301D01*
X123308Y10284D01*
X123281Y10262D01*
X123197Y10223D01*
X123098Y10184D01*
X122981Y10146D01*
X122842Y10123D01*
X122692Y10112D01*
X122637D01*
X122598Y10118D01*
X122554Y10123D01*
X122498Y10134D01*
X122437Y10146D01*
X122370Y10162D01*
X122304Y10184D01*
X122232Y10207D01*
X122160Y10240D01*
X122087Y10279D01*
X122015Y10323D01*
X121943Y10379D01*
X121876Y10440D01*
X121815Y10506D01*
X121810Y10512D01*
X121799Y10528D01*
X121782Y10556D01*
X121754Y10601D01*
X121727Y10650D01*
X121699Y10717D01*
X121660Y10795D01*
X121627Y10884D01*
X121593Y10983D01*
X121560Y11100D01*
X121527Y11228D01*
X121499Y11372D01*
X121471Y11528D01*
X121455Y11694D01*
X121444Y11877D01*
X121438Y12071D01*
Y12077D01*
Y12099D01*
Y12138D01*
Y12182D01*
X121444Y12243D01*
Y12310D01*
X121449Y12382D01*
X121455Y12465D01*
X121471Y12637D01*
X121499Y12821D01*
X121532Y13004D01*
X121555Y13087D01*
X121577Y13170D01*
Y13176D01*
X121582Y13187D01*
X121593Y13209D01*
X121605Y13237D01*
X121616Y13276D01*
X121638Y13315D01*
X121682Y13409D01*
X121738Y13509D01*
X121810Y13614D01*
X121893Y13720D01*
X121993Y13808D01*
X121999D01*
X122004Y13820D01*
X122021Y13831D01*
X122043Y13842D01*
X122071Y13864D01*
X122104Y13881D01*
X122187Y13925D01*
X122287Y13964D01*
X122404Y14003D01*
X122543Y14025D01*
X122692Y14036D01*
X122742D01*
X122803Y14030D01*
D02*
G37*
G36*
X97552Y23181D02*
X97025D01*
X95015Y26195D01*
Y23181D01*
X94527D01*
Y27022D01*
X95049D01*
X97063Y24003D01*
Y27022D01*
X97552D01*
Y23181D01*
D02*
G37*
G36*
X99988D02*
X99516D01*
Y26184D01*
X99511Y26178D01*
X99483Y26156D01*
X99450Y26123D01*
X99394Y26084D01*
X99333Y26034D01*
X99256Y25979D01*
X99167Y25918D01*
X99067Y25857D01*
X99061D01*
X99056Y25851D01*
X99023Y25829D01*
X98967Y25801D01*
X98900Y25768D01*
X98823Y25729D01*
X98739Y25690D01*
X98656Y25651D01*
X98573Y25618D01*
Y26073D01*
X98579D01*
X98590Y26084D01*
X98612Y26090D01*
X98640Y26106D01*
X98673Y26123D01*
X98712Y26145D01*
X98806Y26201D01*
X98917Y26262D01*
X99028Y26339D01*
X99145Y26428D01*
X99261Y26522D01*
X99267Y26528D01*
X99272Y26534D01*
X99289Y26550D01*
X99311Y26567D01*
X99361Y26622D01*
X99428Y26689D01*
X99494Y26767D01*
X99566Y26855D01*
X99628Y26944D01*
X99683Y27039D01*
X99988D01*
Y23181D01*
D02*
G37*
G36*
X93739Y26567D02*
X91469D01*
Y25396D01*
X93595D01*
Y24941D01*
X91469D01*
Y23637D01*
X93828D01*
Y23181D01*
X90958D01*
Y27022D01*
X93739D01*
Y26567D01*
D02*
G37*
G36*
X94844Y54690D02*
X94883D01*
X94988Y54679D01*
X95104Y54663D01*
X95227Y54635D01*
X95360Y54601D01*
X95482Y54557D01*
X95487D01*
X95499Y54552D01*
X95515Y54540D01*
X95538Y54529D01*
X95593Y54501D01*
X95665Y54452D01*
X95748Y54396D01*
X95832Y54324D01*
X95909Y54241D01*
X95981Y54146D01*
Y54141D01*
X95987Y54135D01*
X95998Y54119D01*
X96009Y54102D01*
X96037Y54046D01*
X96070Y53974D01*
X96109Y53886D01*
X96137Y53780D01*
X96165Y53669D01*
X96176Y53547D01*
X95687Y53508D01*
Y53514D01*
Y53525D01*
X95682Y53541D01*
X95676Y53569D01*
X95660Y53630D01*
X95637Y53714D01*
X95604Y53802D01*
X95554Y53891D01*
X95493Y53974D01*
X95415Y54052D01*
X95404Y54058D01*
X95376Y54080D01*
X95321Y54113D01*
X95249Y54146D01*
X95155Y54180D01*
X95043Y54213D01*
X94905Y54235D01*
X94749Y54241D01*
X94672D01*
X94638Y54235D01*
X94594Y54230D01*
X94494Y54219D01*
X94383Y54196D01*
X94272Y54169D01*
X94167Y54124D01*
X94122Y54096D01*
X94078Y54069D01*
X94067Y54063D01*
X94045Y54041D01*
X94011Y54002D01*
X93978Y53958D01*
X93939Y53897D01*
X93906Y53830D01*
X93884Y53752D01*
X93872Y53663D01*
Y53652D01*
Y53630D01*
X93878Y53591D01*
X93889Y53547D01*
X93906Y53491D01*
X93933Y53436D01*
X93967Y53380D01*
X94017Y53325D01*
X94022Y53319D01*
X94050Y53303D01*
X94072Y53286D01*
X94094Y53275D01*
X94128Y53258D01*
X94167Y53236D01*
X94217Y53219D01*
X94272Y53197D01*
X94333Y53175D01*
X94405Y53147D01*
X94483Y53125D01*
X94572Y53097D01*
X94672Y53075D01*
X94783Y53048D01*
X94788D01*
X94810Y53042D01*
X94844Y53036D01*
X94883Y53025D01*
X94933Y53014D01*
X94994Y52997D01*
X95055Y52981D01*
X95121Y52964D01*
X95266Y52925D01*
X95404Y52886D01*
X95471Y52864D01*
X95532Y52842D01*
X95587Y52825D01*
X95632Y52803D01*
X95637D01*
X95648Y52798D01*
X95665Y52787D01*
X95687Y52776D01*
X95748Y52742D01*
X95820Y52698D01*
X95904Y52637D01*
X95987Y52570D01*
X96065Y52492D01*
X96131Y52409D01*
X96137Y52398D01*
X96159Y52370D01*
X96181Y52320D01*
X96214Y52254D01*
X96242Y52176D01*
X96270Y52082D01*
X96287Y51976D01*
X96292Y51865D01*
Y51860D01*
Y51854D01*
Y51837D01*
Y51815D01*
X96281Y51754D01*
X96270Y51677D01*
X96248Y51588D01*
X96220Y51493D01*
X96176Y51394D01*
X96115Y51288D01*
Y51283D01*
X96109Y51277D01*
X96081Y51244D01*
X96043Y51194D01*
X95987Y51138D01*
X95915Y51072D01*
X95826Y50999D01*
X95726Y50933D01*
X95610Y50872D01*
X95604D01*
X95593Y50866D01*
X95576Y50861D01*
X95554Y50850D01*
X95521Y50839D01*
X95482Y50822D01*
X95393Y50800D01*
X95288Y50772D01*
X95160Y50744D01*
X95021Y50728D01*
X94871Y50722D01*
X94783D01*
X94738Y50728D01*
X94688D01*
X94633Y50733D01*
X94566Y50739D01*
X94427Y50761D01*
X94283Y50783D01*
X94139Y50822D01*
X94000Y50872D01*
X93995D01*
X93984Y50877D01*
X93967Y50889D01*
X93945Y50900D01*
X93878Y50933D01*
X93800Y50983D01*
X93712Y51050D01*
X93617Y51127D01*
X93528Y51222D01*
X93445Y51327D01*
Y51332D01*
X93434Y51344D01*
X93428Y51360D01*
X93412Y51382D01*
X93401Y51410D01*
X93384Y51443D01*
X93345Y51527D01*
X93306Y51632D01*
X93273Y51749D01*
X93251Y51882D01*
X93240Y52021D01*
X93717Y52065D01*
Y52060D01*
Y52054D01*
X93723Y52037D01*
Y52015D01*
X93734Y51965D01*
X93750Y51893D01*
X93773Y51821D01*
X93795Y51738D01*
X93834Y51660D01*
X93872Y51588D01*
X93878Y51582D01*
X93895Y51560D01*
X93922Y51521D01*
X93967Y51482D01*
X94022Y51432D01*
X94083Y51382D01*
X94167Y51332D01*
X94255Y51288D01*
X94261D01*
X94266Y51283D01*
X94283Y51277D01*
X94300Y51271D01*
X94355Y51255D01*
X94427Y51233D01*
X94516Y51210D01*
X94616Y51194D01*
X94727Y51183D01*
X94849Y51177D01*
X94899D01*
X94955Y51183D01*
X95021Y51188D01*
X95099Y51199D01*
X95188Y51210D01*
X95277Y51233D01*
X95360Y51260D01*
X95371Y51266D01*
X95399Y51277D01*
X95438Y51299D01*
X95487Y51321D01*
X95538Y51360D01*
X95593Y51399D01*
X95648Y51443D01*
X95693Y51499D01*
X95698Y51504D01*
X95710Y51527D01*
X95726Y51555D01*
X95748Y51599D01*
X95771Y51643D01*
X95787Y51699D01*
X95798Y51760D01*
X95804Y51826D01*
Y51832D01*
Y51860D01*
X95798Y51893D01*
X95793Y51938D01*
X95776Y51982D01*
X95759Y52037D01*
X95732Y52093D01*
X95693Y52143D01*
X95687Y52148D01*
X95671Y52165D01*
X95648Y52187D01*
X95610Y52220D01*
X95565Y52254D01*
X95504Y52293D01*
X95432Y52332D01*
X95349Y52365D01*
X95343Y52370D01*
X95315Y52376D01*
X95271Y52393D01*
X95243Y52398D01*
X95204Y52409D01*
X95166Y52426D01*
X95116Y52437D01*
X95060Y52454D01*
X94994Y52470D01*
X94927Y52487D01*
X94849Y52509D01*
X94761Y52531D01*
X94666Y52553D01*
X94661D01*
X94644Y52559D01*
X94616Y52565D01*
X94583Y52576D01*
X94538Y52587D01*
X94489Y52598D01*
X94377Y52631D01*
X94255Y52670D01*
X94128Y52709D01*
X94017Y52748D01*
X93967Y52770D01*
X93922Y52792D01*
X93917D01*
X93911Y52798D01*
X93878Y52820D01*
X93828Y52848D01*
X93773Y52892D01*
X93706Y52942D01*
X93639Y53003D01*
X93573Y53075D01*
X93517Y53153D01*
X93512Y53164D01*
X93495Y53192D01*
X93473Y53236D01*
X93451Y53292D01*
X93428Y53364D01*
X93406Y53447D01*
X93390Y53536D01*
X93384Y53630D01*
Y53636D01*
Y53641D01*
Y53658D01*
Y53680D01*
X93395Y53736D01*
X93406Y53808D01*
X93423Y53891D01*
X93451Y53985D01*
X93489Y54080D01*
X93545Y54174D01*
Y54180D01*
X93550Y54185D01*
X93578Y54219D01*
X93617Y54263D01*
X93667Y54318D01*
X93734Y54379D01*
X93817Y54446D01*
X93917Y54507D01*
X94028Y54563D01*
X94033D01*
X94045Y54568D01*
X94061Y54574D01*
X94083Y54585D01*
X94111Y54596D01*
X94150Y54607D01*
X94233Y54629D01*
X94339Y54651D01*
X94461Y54674D01*
X94588Y54690D01*
X94733Y54696D01*
X94805D01*
X94844Y54690D01*
D02*
G37*
G36*
X106027Y50789D02*
X105555D01*
Y53791D01*
X105550Y53786D01*
X105522Y53763D01*
X105489Y53730D01*
X105433Y53691D01*
X105372Y53641D01*
X105294Y53586D01*
X105206Y53525D01*
X105106Y53464D01*
X105100D01*
X105095Y53458D01*
X105061Y53436D01*
X105006Y53408D01*
X104939Y53375D01*
X104861Y53336D01*
X104778Y53297D01*
X104695Y53258D01*
X104612Y53225D01*
Y53680D01*
X104617D01*
X104628Y53691D01*
X104650Y53697D01*
X104678Y53714D01*
X104712Y53730D01*
X104751Y53752D01*
X104845Y53808D01*
X104956Y53869D01*
X105067Y53947D01*
X105183Y54035D01*
X105300Y54130D01*
X105305Y54135D01*
X105311Y54141D01*
X105328Y54157D01*
X105350Y54174D01*
X105400Y54230D01*
X105466Y54296D01*
X105533Y54374D01*
X105605Y54463D01*
X105666Y54552D01*
X105722Y54646D01*
X106027D01*
Y50789D01*
D02*
G37*
G36*
X104034D02*
X103457D01*
X103008Y51954D01*
X101398D01*
X100982Y50789D01*
X100444D01*
X101909Y54629D01*
X102464D01*
X104034Y50789D01*
D02*
G37*
G36*
X98568Y54624D02*
X98679Y54618D01*
X98790Y54607D01*
X98901Y54590D01*
X98995Y54574D01*
X99001D01*
X99012Y54568D01*
X99028D01*
X99051Y54557D01*
X99112Y54540D01*
X99189Y54513D01*
X99278Y54474D01*
X99373Y54424D01*
X99467Y54368D01*
X99556Y54296D01*
X99561Y54291D01*
X99567Y54285D01*
X99583Y54268D01*
X99606Y54252D01*
X99661Y54196D01*
X99728Y54119D01*
X99800Y54024D01*
X99878Y53913D01*
X99950Y53786D01*
X100011Y53641D01*
Y53636D01*
X100016Y53625D01*
X100027Y53602D01*
X100033Y53569D01*
X100050Y53530D01*
X100061Y53486D01*
X100072Y53436D01*
X100089Y53375D01*
X100105Y53314D01*
X100116Y53242D01*
X100144Y53086D01*
X100161Y52914D01*
X100166Y52725D01*
Y52720D01*
Y52709D01*
Y52681D01*
Y52653D01*
X100161Y52614D01*
Y52570D01*
X100155Y52465D01*
X100138Y52343D01*
X100122Y52215D01*
X100094Y52082D01*
X100061Y51949D01*
Y51943D01*
X100055Y51932D01*
X100050Y51915D01*
X100044Y51893D01*
X100022Y51832D01*
X99989Y51754D01*
X99955Y51666D01*
X99911Y51577D01*
X99855Y51482D01*
X99800Y51394D01*
X99794Y51382D01*
X99772Y51355D01*
X99739Y51316D01*
X99694Y51266D01*
X99644Y51210D01*
X99583Y51155D01*
X99522Y51094D01*
X99450Y51044D01*
X99439Y51038D01*
X99417Y51022D01*
X99378Y50999D01*
X99323Y50972D01*
X99256Y50938D01*
X99178Y50911D01*
X99089Y50877D01*
X98989Y50850D01*
X98978D01*
X98962Y50844D01*
X98945Y50839D01*
X98890Y50833D01*
X98812Y50822D01*
X98723Y50811D01*
X98618Y50800D01*
X98501Y50794D01*
X98374Y50789D01*
X96991D01*
Y54629D01*
X98468D01*
X98568Y54624D01*
D02*
G37*
G36*
X111173Y54690D02*
X111211D01*
X111317Y54679D01*
X111433Y54662D01*
X111556Y54635D01*
X111689Y54601D01*
X111811Y54557D01*
X111816D01*
X111828Y54551D01*
X111844Y54540D01*
X111866Y54529D01*
X111922Y54501D01*
X111994Y54451D01*
X112077Y54396D01*
X112161Y54324D01*
X112238Y54241D01*
X112310Y54146D01*
Y54141D01*
X112316Y54135D01*
X112327Y54118D01*
X112338Y54102D01*
X112366Y54046D01*
X112399Y53974D01*
X112438Y53885D01*
X112466Y53780D01*
X112494Y53669D01*
X112505Y53547D01*
X112016Y53508D01*
Y53513D01*
Y53525D01*
X112011Y53541D01*
X112005Y53569D01*
X111988Y53630D01*
X111966Y53713D01*
X111933Y53802D01*
X111883Y53891D01*
X111822Y53974D01*
X111744Y54052D01*
X111733Y54057D01*
X111705Y54080D01*
X111650Y54113D01*
X111578Y54146D01*
X111483Y54179D01*
X111372Y54213D01*
X111234Y54235D01*
X111078Y54241D01*
X111001D01*
X110967Y54235D01*
X110923Y54229D01*
X110823Y54218D01*
X110712Y54196D01*
X110601Y54168D01*
X110495Y54124D01*
X110451Y54096D01*
X110407Y54068D01*
X110396Y54063D01*
X110373Y54041D01*
X110340Y54002D01*
X110307Y53957D01*
X110268Y53896D01*
X110235Y53830D01*
X110212Y53752D01*
X110201Y53663D01*
Y53652D01*
Y53630D01*
X110207Y53591D01*
X110218Y53547D01*
X110235Y53491D01*
X110262Y53436D01*
X110296Y53380D01*
X110346Y53325D01*
X110351Y53319D01*
X110379Y53303D01*
X110401Y53286D01*
X110423Y53275D01*
X110457Y53258D01*
X110495Y53236D01*
X110545Y53219D01*
X110601Y53197D01*
X110662Y53175D01*
X110734Y53147D01*
X110812Y53125D01*
X110901Y53097D01*
X111001Y53075D01*
X111111Y53047D01*
X111117D01*
X111139Y53042D01*
X111173Y53036D01*
X111211Y53025D01*
X111261Y53014D01*
X111322Y52997D01*
X111383Y52981D01*
X111450Y52964D01*
X111594Y52925D01*
X111733Y52886D01*
X111800Y52864D01*
X111861Y52842D01*
X111916Y52825D01*
X111961Y52803D01*
X111966D01*
X111977Y52798D01*
X111994Y52786D01*
X112016Y52775D01*
X112077Y52742D01*
X112149Y52698D01*
X112233Y52636D01*
X112316Y52570D01*
X112394Y52492D01*
X112460Y52409D01*
X112466Y52398D01*
X112488Y52370D01*
X112510Y52320D01*
X112543Y52254D01*
X112571Y52176D01*
X112599Y52082D01*
X112616Y51976D01*
X112621Y51865D01*
Y51860D01*
Y51854D01*
Y51837D01*
Y51815D01*
X112610Y51754D01*
X112599Y51676D01*
X112577Y51588D01*
X112549Y51493D01*
X112505Y51393D01*
X112443Y51288D01*
Y51282D01*
X112438Y51277D01*
X112410Y51244D01*
X112371Y51193D01*
X112316Y51138D01*
X112244Y51071D01*
X112155Y50999D01*
X112055Y50933D01*
X111939Y50872D01*
X111933D01*
X111922Y50866D01*
X111905Y50861D01*
X111883Y50849D01*
X111850Y50838D01*
X111811Y50822D01*
X111722Y50800D01*
X111617Y50772D01*
X111489Y50744D01*
X111350Y50727D01*
X111200Y50722D01*
X111111D01*
X111067Y50727D01*
X111017D01*
X110962Y50733D01*
X110895Y50739D01*
X110756Y50761D01*
X110612Y50783D01*
X110468Y50822D01*
X110329Y50872D01*
X110323D01*
X110312Y50877D01*
X110296Y50888D01*
X110274Y50899D01*
X110207Y50933D01*
X110129Y50983D01*
X110040Y51049D01*
X109946Y51127D01*
X109857Y51221D01*
X109774Y51327D01*
Y51332D01*
X109763Y51343D01*
X109757Y51360D01*
X109741Y51382D01*
X109730Y51410D01*
X109713Y51443D01*
X109674Y51526D01*
X109635Y51632D01*
X109602Y51749D01*
X109580Y51882D01*
X109569Y52021D01*
X110046Y52065D01*
Y52059D01*
Y52054D01*
X110052Y52037D01*
Y52015D01*
X110063Y51965D01*
X110079Y51893D01*
X110101Y51821D01*
X110124Y51737D01*
X110162Y51660D01*
X110201Y51588D01*
X110207Y51582D01*
X110223Y51560D01*
X110251Y51521D01*
X110296Y51482D01*
X110351Y51432D01*
X110412Y51382D01*
X110495Y51332D01*
X110584Y51288D01*
X110590D01*
X110595Y51282D01*
X110612Y51277D01*
X110629Y51271D01*
X110684Y51255D01*
X110756Y51232D01*
X110845Y51210D01*
X110945Y51193D01*
X111056Y51183D01*
X111178Y51177D01*
X111228D01*
X111284Y51183D01*
X111350Y51188D01*
X111428Y51199D01*
X111517Y51210D01*
X111606Y51232D01*
X111689Y51260D01*
X111700Y51266D01*
X111728Y51277D01*
X111766Y51299D01*
X111816Y51321D01*
X111866Y51360D01*
X111922Y51399D01*
X111977Y51443D01*
X112022Y51499D01*
X112027Y51504D01*
X112038Y51526D01*
X112055Y51554D01*
X112077Y51599D01*
X112099Y51643D01*
X112116Y51699D01*
X112127Y51760D01*
X112133Y51826D01*
Y51832D01*
Y51860D01*
X112127Y51893D01*
X112122Y51937D01*
X112105Y51982D01*
X112088Y52037D01*
X112061Y52093D01*
X112022Y52143D01*
X112016Y52148D01*
X111999Y52165D01*
X111977Y52187D01*
X111939Y52220D01*
X111894Y52254D01*
X111833Y52292D01*
X111761Y52331D01*
X111678Y52365D01*
X111672Y52370D01*
X111644Y52376D01*
X111600Y52392D01*
X111572Y52398D01*
X111533Y52409D01*
X111495Y52426D01*
X111444Y52437D01*
X111389Y52453D01*
X111322Y52470D01*
X111256Y52487D01*
X111178Y52509D01*
X111089Y52531D01*
X110995Y52553D01*
X110989D01*
X110973Y52559D01*
X110945Y52564D01*
X110912Y52575D01*
X110867Y52587D01*
X110817Y52598D01*
X110706Y52631D01*
X110584Y52670D01*
X110457Y52709D01*
X110346Y52748D01*
X110296Y52770D01*
X110251Y52792D01*
X110246D01*
X110240Y52798D01*
X110207Y52820D01*
X110157Y52847D01*
X110101Y52892D01*
X110035Y52942D01*
X109968Y53003D01*
X109902Y53075D01*
X109846Y53153D01*
X109841Y53164D01*
X109824Y53192D01*
X109802Y53236D01*
X109780Y53291D01*
X109757Y53364D01*
X109735Y53447D01*
X109719Y53536D01*
X109713Y53630D01*
Y53636D01*
Y53641D01*
Y53658D01*
Y53680D01*
X109724Y53736D01*
X109735Y53808D01*
X109752Y53891D01*
X109780Y53985D01*
X109818Y54080D01*
X109874Y54174D01*
Y54179D01*
X109879Y54185D01*
X109907Y54218D01*
X109946Y54263D01*
X109996Y54318D01*
X110063Y54379D01*
X110146Y54446D01*
X110246Y54507D01*
X110357Y54562D01*
X110362D01*
X110373Y54568D01*
X110390Y54574D01*
X110412Y54585D01*
X110440Y54596D01*
X110479Y54607D01*
X110562Y54629D01*
X110668Y54651D01*
X110790Y54673D01*
X110917Y54690D01*
X111062Y54696D01*
X111134D01*
X111173Y54690D01*
D02*
G37*
G36*
X115074D02*
X115124Y54685D01*
X115185Y54679D01*
X115246Y54673D01*
X115318Y54657D01*
X115468Y54624D01*
X115635Y54574D01*
X115718Y54540D01*
X115796Y54501D01*
X115873Y54451D01*
X115951Y54401D01*
X115957Y54396D01*
X115968Y54390D01*
X115990Y54374D01*
X116018Y54346D01*
X116045Y54318D01*
X116084Y54279D01*
X116123Y54235D01*
X116168Y54190D01*
X116212Y54135D01*
X116256Y54068D01*
X116306Y54002D01*
X116351Y53930D01*
X116390Y53847D01*
X116434Y53763D01*
X116467Y53674D01*
X116501Y53575D01*
X116001Y53458D01*
Y53464D01*
X115996Y53475D01*
X115984Y53497D01*
X115973Y53525D01*
X115962Y53558D01*
X115946Y53602D01*
X115901Y53691D01*
X115846Y53791D01*
X115779Y53891D01*
X115696Y53985D01*
X115607Y54068D01*
X115596Y54080D01*
X115563Y54102D01*
X115507Y54129D01*
X115435Y54168D01*
X115341Y54202D01*
X115235Y54235D01*
X115108Y54257D01*
X114969Y54263D01*
X114924D01*
X114897Y54257D01*
X114858D01*
X114813Y54252D01*
X114708Y54235D01*
X114591Y54213D01*
X114469Y54174D01*
X114342Y54118D01*
X114225Y54046D01*
X114219D01*
X114214Y54035D01*
X114175Y54007D01*
X114125Y53963D01*
X114064Y53896D01*
X113992Y53813D01*
X113925Y53719D01*
X113864Y53602D01*
X113809Y53475D01*
Y53469D01*
X113803Y53458D01*
X113798Y53441D01*
X113792Y53413D01*
X113781Y53380D01*
X113770Y53341D01*
X113753Y53247D01*
X113731Y53136D01*
X113709Y53014D01*
X113698Y52881D01*
X113692Y52737D01*
Y52731D01*
Y52714D01*
Y52687D01*
Y52653D01*
X113698Y52614D01*
Y52564D01*
X113703Y52509D01*
X113709Y52448D01*
X113726Y52315D01*
X113753Y52170D01*
X113787Y52026D01*
X113831Y51882D01*
Y51876D01*
X113837Y51865D01*
X113848Y51849D01*
X113859Y51821D01*
X113892Y51754D01*
X113942Y51676D01*
X114003Y51588D01*
X114081Y51493D01*
X114170Y51410D01*
X114275Y51332D01*
X114281D01*
X114292Y51327D01*
X114308Y51316D01*
X114330Y51305D01*
X114358Y51293D01*
X114392Y51277D01*
X114469Y51244D01*
X114569Y51210D01*
X114680Y51183D01*
X114802Y51160D01*
X114930Y51155D01*
X114969D01*
X115002Y51160D01*
X115041D01*
X115080Y51166D01*
X115180Y51188D01*
X115296Y51216D01*
X115413Y51260D01*
X115535Y51321D01*
X115596Y51354D01*
X115651Y51399D01*
X115657Y51404D01*
X115663Y51410D01*
X115679Y51427D01*
X115701Y51443D01*
X115724Y51471D01*
X115751Y51504D01*
X115785Y51538D01*
X115812Y51582D01*
X115846Y51632D01*
X115884Y51688D01*
X115918Y51743D01*
X115951Y51810D01*
X115979Y51882D01*
X116007Y51960D01*
X116034Y52043D01*
X116057Y52131D01*
X116567Y52004D01*
Y51998D01*
X116562Y51976D01*
X116551Y51943D01*
X116534Y51898D01*
X116517Y51849D01*
X116495Y51787D01*
X116467Y51721D01*
X116434Y51649D01*
X116356Y51493D01*
X116256Y51338D01*
X116195Y51260D01*
X116134Y51183D01*
X116068Y51116D01*
X115990Y51049D01*
X115984Y51044D01*
X115973Y51033D01*
X115946Y51021D01*
X115918Y50999D01*
X115873Y50972D01*
X115829Y50944D01*
X115768Y50916D01*
X115707Y50888D01*
X115635Y50855D01*
X115557Y50827D01*
X115474Y50800D01*
X115385Y50772D01*
X115291Y50749D01*
X115191Y50739D01*
X115085Y50727D01*
X114974Y50722D01*
X114913D01*
X114869Y50727D01*
X114819D01*
X114758Y50733D01*
X114691Y50744D01*
X114614Y50755D01*
X114453Y50783D01*
X114286Y50827D01*
X114120Y50888D01*
X114042Y50927D01*
X113964Y50972D01*
X113959Y50977D01*
X113948Y50983D01*
X113925Y50999D01*
X113903Y51021D01*
X113870Y51044D01*
X113831Y51077D01*
X113787Y51116D01*
X113742Y51160D01*
X113698Y51210D01*
X113648Y51260D01*
X113548Y51388D01*
X113454Y51538D01*
X113370Y51704D01*
Y51710D01*
X113359Y51726D01*
X113354Y51754D01*
X113337Y51787D01*
X113326Y51832D01*
X113309Y51887D01*
X113287Y51948D01*
X113270Y52015D01*
X113254Y52087D01*
X113232Y52170D01*
X113204Y52342D01*
X113182Y52537D01*
X113171Y52737D01*
Y52742D01*
Y52764D01*
Y52798D01*
X113176Y52836D01*
Y52892D01*
X113182Y52947D01*
X113187Y53019D01*
X113198Y53092D01*
X113226Y53253D01*
X113265Y53430D01*
X113320Y53608D01*
X113398Y53780D01*
X113404Y53785D01*
X113409Y53802D01*
X113420Y53824D01*
X113443Y53852D01*
X113465Y53891D01*
X113493Y53935D01*
X113565Y54035D01*
X113659Y54146D01*
X113770Y54257D01*
X113898Y54368D01*
X114048Y54462D01*
X114053Y54468D01*
X114070Y54474D01*
X114092Y54485D01*
X114120Y54501D01*
X114164Y54518D01*
X114208Y54535D01*
X114264Y54557D01*
X114325Y54579D01*
X114392Y54601D01*
X114464Y54624D01*
X114619Y54657D01*
X114797Y54685D01*
X114980Y54696D01*
X115035D01*
X115074Y54690D01*
D02*
G37*
G36*
X121762Y50788D02*
X121290D01*
Y53791D01*
X121285Y53785D01*
X121257Y53763D01*
X121224Y53730D01*
X121168Y53691D01*
X121107Y53641D01*
X121029Y53586D01*
X120941Y53525D01*
X120841Y53464D01*
X120835D01*
X120830Y53458D01*
X120796Y53436D01*
X120741Y53408D01*
X120674Y53375D01*
X120597Y53336D01*
X120513Y53297D01*
X120430Y53258D01*
X120347Y53225D01*
Y53680D01*
X120352D01*
X120363Y53691D01*
X120386Y53697D01*
X120413Y53713D01*
X120447Y53730D01*
X120485Y53752D01*
X120580Y53808D01*
X120691Y53869D01*
X120802Y53946D01*
X120918Y54035D01*
X121035Y54129D01*
X121040Y54135D01*
X121046Y54141D01*
X121063Y54157D01*
X121085Y54174D01*
X121135Y54229D01*
X121201Y54296D01*
X121268Y54374D01*
X121340Y54462D01*
X121401Y54551D01*
X121457Y54646D01*
X121762D01*
Y50788D01*
D02*
G37*
G36*
X117683Y51244D02*
X119575D01*
Y50788D01*
X117172D01*
Y54629D01*
X117683D01*
Y51244D01*
D02*
G37*
G36*
X110893Y61782D02*
X110932D01*
X111038Y61771D01*
X111154Y61755D01*
X111276Y61727D01*
X111409Y61694D01*
X111531Y61649D01*
X111537D01*
X111548Y61644D01*
X111565Y61632D01*
X111587Y61621D01*
X111643Y61594D01*
X111715Y61544D01*
X111798Y61488D01*
X111881Y61416D01*
X111959Y61333D01*
X112031Y61238D01*
Y61233D01*
X112037Y61227D01*
X112048Y61211D01*
X112059Y61194D01*
X112086Y61138D01*
X112120Y61066D01*
X112159Y60978D01*
X112186Y60872D01*
X112214Y60761D01*
X112225Y60639D01*
X111737Y60600D01*
Y60606D01*
Y60617D01*
X111731Y60633D01*
X111726Y60661D01*
X111709Y60722D01*
X111687Y60805D01*
X111654Y60894D01*
X111604Y60983D01*
X111543Y61066D01*
X111465Y61144D01*
X111454Y61150D01*
X111426Y61172D01*
X111371Y61205D01*
X111298Y61238D01*
X111204Y61272D01*
X111093Y61305D01*
X110954Y61327D01*
X110799Y61333D01*
X110721D01*
X110688Y61327D01*
X110643Y61322D01*
X110544Y61311D01*
X110433Y61288D01*
X110322Y61261D01*
X110216Y61216D01*
X110172Y61189D01*
X110127Y61161D01*
X110116Y61155D01*
X110094Y61133D01*
X110061Y61094D01*
X110028Y61050D01*
X109989Y60989D01*
X109955Y60922D01*
X109933Y60844D01*
X109922Y60756D01*
Y60744D01*
Y60722D01*
X109928Y60683D01*
X109939Y60639D01*
X109955Y60584D01*
X109983Y60528D01*
X110016Y60473D01*
X110066Y60417D01*
X110072Y60412D01*
X110100Y60395D01*
X110122Y60378D01*
X110144Y60367D01*
X110177Y60350D01*
X110216Y60328D01*
X110266Y60312D01*
X110322Y60289D01*
X110383Y60267D01*
X110455Y60239D01*
X110532Y60217D01*
X110621Y60189D01*
X110721Y60167D01*
X110832Y60140D01*
X110838D01*
X110860Y60134D01*
X110893Y60128D01*
X110932Y60117D01*
X110982Y60106D01*
X111043Y60089D01*
X111104Y60073D01*
X111171Y60056D01*
X111315Y60017D01*
X111454Y59978D01*
X111520Y59956D01*
X111582Y59934D01*
X111637Y59917D01*
X111681Y59895D01*
X111687D01*
X111698Y59890D01*
X111715Y59879D01*
X111737Y59868D01*
X111798Y59834D01*
X111870Y59790D01*
X111953Y59729D01*
X112037Y59662D01*
X112114Y59584D01*
X112181Y59501D01*
X112186Y59490D01*
X112209Y59462D01*
X112231Y59412D01*
X112264Y59346D01*
X112292Y59268D01*
X112320Y59174D01*
X112336Y59068D01*
X112342Y58957D01*
Y58952D01*
Y58946D01*
Y58930D01*
Y58907D01*
X112331Y58846D01*
X112320Y58769D01*
X112297Y58680D01*
X112270Y58586D01*
X112225Y58486D01*
X112164Y58380D01*
Y58375D01*
X112159Y58369D01*
X112131Y58336D01*
X112092Y58286D01*
X112037Y58230D01*
X111964Y58164D01*
X111876Y58091D01*
X111776Y58025D01*
X111659Y57964D01*
X111654D01*
X111643Y57958D01*
X111626Y57953D01*
X111604Y57942D01*
X111570Y57931D01*
X111531Y57914D01*
X111443Y57892D01*
X111337Y57864D01*
X111210Y57836D01*
X111071Y57820D01*
X110921Y57814D01*
X110832D01*
X110788Y57820D01*
X110738D01*
X110682Y57825D01*
X110616Y57831D01*
X110477Y57853D01*
X110333Y57875D01*
X110188Y57914D01*
X110050Y57964D01*
X110044D01*
X110033Y57969D01*
X110016Y57981D01*
X109994Y57992D01*
X109928Y58025D01*
X109850Y58075D01*
X109761Y58141D01*
X109667Y58219D01*
X109578Y58314D01*
X109495Y58419D01*
Y58425D01*
X109484Y58436D01*
X109478Y58452D01*
X109461Y58474D01*
X109450Y58502D01*
X109434Y58536D01*
X109395Y58619D01*
X109356Y58724D01*
X109323Y58841D01*
X109300Y58974D01*
X109289Y59113D01*
X109767Y59157D01*
Y59152D01*
Y59146D01*
X109772Y59129D01*
Y59107D01*
X109783Y59057D01*
X109800Y58985D01*
X109822Y58913D01*
X109844Y58830D01*
X109883Y58752D01*
X109922Y58680D01*
X109928Y58674D01*
X109944Y58652D01*
X109972Y58613D01*
X110016Y58574D01*
X110072Y58525D01*
X110133Y58474D01*
X110216Y58425D01*
X110305Y58380D01*
X110310D01*
X110316Y58375D01*
X110333Y58369D01*
X110349Y58363D01*
X110405Y58347D01*
X110477Y58325D01*
X110566Y58302D01*
X110666Y58286D01*
X110777Y58275D01*
X110899Y58269D01*
X110949D01*
X111004Y58275D01*
X111071Y58280D01*
X111149Y58291D01*
X111237Y58302D01*
X111326Y58325D01*
X111409Y58352D01*
X111421Y58358D01*
X111448Y58369D01*
X111487Y58391D01*
X111537Y58413D01*
X111587Y58452D01*
X111643Y58491D01*
X111698Y58536D01*
X111742Y58591D01*
X111748Y58597D01*
X111759Y58619D01*
X111776Y58647D01*
X111798Y58691D01*
X111820Y58735D01*
X111837Y58791D01*
X111848Y58852D01*
X111853Y58918D01*
Y58924D01*
Y58952D01*
X111848Y58985D01*
X111842Y59030D01*
X111826Y59074D01*
X111809Y59129D01*
X111781Y59185D01*
X111742Y59235D01*
X111737Y59240D01*
X111720Y59257D01*
X111698Y59279D01*
X111659Y59312D01*
X111615Y59346D01*
X111554Y59385D01*
X111482Y59424D01*
X111398Y59457D01*
X111393Y59462D01*
X111365Y59468D01*
X111321Y59485D01*
X111293Y59490D01*
X111254Y59501D01*
X111215Y59518D01*
X111165Y59529D01*
X111110Y59546D01*
X111043Y59562D01*
X110977Y59579D01*
X110899Y59601D01*
X110810Y59623D01*
X110716Y59646D01*
X110710D01*
X110694Y59651D01*
X110666Y59657D01*
X110632Y59668D01*
X110588Y59679D01*
X110538Y59690D01*
X110427Y59723D01*
X110305Y59762D01*
X110177Y59801D01*
X110066Y59840D01*
X110016Y59862D01*
X109972Y59884D01*
X109966D01*
X109961Y59890D01*
X109928Y59912D01*
X109878Y59940D01*
X109822Y59984D01*
X109756Y60034D01*
X109689Y60095D01*
X109622Y60167D01*
X109567Y60245D01*
X109561Y60256D01*
X109545Y60284D01*
X109522Y60328D01*
X109500Y60384D01*
X109478Y60456D01*
X109456Y60539D01*
X109439Y60628D01*
X109434Y60722D01*
Y60728D01*
Y60733D01*
Y60750D01*
Y60772D01*
X109445Y60828D01*
X109456Y60900D01*
X109473Y60983D01*
X109500Y61077D01*
X109539Y61172D01*
X109595Y61266D01*
Y61272D01*
X109600Y61277D01*
X109628Y61311D01*
X109667Y61355D01*
X109717Y61410D01*
X109783Y61471D01*
X109866Y61538D01*
X109966Y61599D01*
X110077Y61655D01*
X110083D01*
X110094Y61660D01*
X110111Y61666D01*
X110133Y61677D01*
X110161Y61688D01*
X110199Y61699D01*
X110283Y61721D01*
X110388Y61743D01*
X110510Y61766D01*
X110638Y61782D01*
X110782Y61788D01*
X110854D01*
X110893Y61782D01*
D02*
G37*
G36*
X114795D02*
X114845Y61777D01*
X114906Y61771D01*
X114967Y61766D01*
X115039Y61749D01*
X115189Y61716D01*
X115356Y61666D01*
X115439Y61632D01*
X115516Y61594D01*
X115594Y61544D01*
X115672Y61494D01*
X115677Y61488D01*
X115689Y61483D01*
X115711Y61466D01*
X115738Y61438D01*
X115766Y61410D01*
X115805Y61372D01*
X115844Y61327D01*
X115888Y61283D01*
X115933Y61227D01*
X115977Y61161D01*
X116027Y61094D01*
X116071Y61022D01*
X116110Y60939D01*
X116155Y60855D01*
X116188Y60767D01*
X116221Y60667D01*
X115722Y60550D01*
Y60556D01*
X115716Y60567D01*
X115705Y60589D01*
X115694Y60617D01*
X115683Y60650D01*
X115666Y60694D01*
X115622Y60783D01*
X115566Y60883D01*
X115500Y60983D01*
X115417Y61077D01*
X115328Y61161D01*
X115317Y61172D01*
X115283Y61194D01*
X115228Y61222D01*
X115156Y61261D01*
X115061Y61294D01*
X114956Y61327D01*
X114828Y61349D01*
X114690Y61355D01*
X114645D01*
X114617Y61349D01*
X114578D01*
X114534Y61344D01*
X114429Y61327D01*
X114312Y61305D01*
X114190Y61266D01*
X114062Y61211D01*
X113946Y61138D01*
X113940D01*
X113935Y61127D01*
X113896Y61100D01*
X113846Y61055D01*
X113785Y60989D01*
X113713Y60905D01*
X113646Y60811D01*
X113585Y60694D01*
X113530Y60567D01*
Y60561D01*
X113524Y60550D01*
X113518Y60534D01*
X113513Y60506D01*
X113502Y60473D01*
X113491Y60434D01*
X113474Y60339D01*
X113452Y60228D01*
X113430Y60106D01*
X113418Y59973D01*
X113413Y59829D01*
Y59823D01*
Y59807D01*
Y59779D01*
Y59746D01*
X113418Y59707D01*
Y59657D01*
X113424Y59601D01*
X113430Y59540D01*
X113446Y59407D01*
X113474Y59263D01*
X113507Y59118D01*
X113552Y58974D01*
Y58968D01*
X113557Y58957D01*
X113568Y58941D01*
X113579Y58913D01*
X113613Y58846D01*
X113663Y58769D01*
X113724Y58680D01*
X113802Y58586D01*
X113890Y58502D01*
X113996Y58425D01*
X114001D01*
X114012Y58419D01*
X114029Y58408D01*
X114051Y58397D01*
X114079Y58386D01*
X114112Y58369D01*
X114190Y58336D01*
X114290Y58302D01*
X114401Y58275D01*
X114523Y58253D01*
X114651Y58247D01*
X114690D01*
X114723Y58253D01*
X114762D01*
X114801Y58258D01*
X114900Y58280D01*
X115017Y58308D01*
X115134Y58352D01*
X115256Y58413D01*
X115317Y58447D01*
X115372Y58491D01*
X115378Y58497D01*
X115383Y58502D01*
X115400Y58519D01*
X115422Y58536D01*
X115444Y58563D01*
X115472Y58597D01*
X115505Y58630D01*
X115533Y58674D01*
X115566Y58724D01*
X115605Y58780D01*
X115638Y58835D01*
X115672Y58902D01*
X115700Y58974D01*
X115727Y59052D01*
X115755Y59135D01*
X115777Y59224D01*
X116288Y59096D01*
Y59091D01*
X116282Y59068D01*
X116271Y59035D01*
X116255Y58991D01*
X116238Y58941D01*
X116216Y58880D01*
X116188Y58813D01*
X116155Y58741D01*
X116077Y58586D01*
X115977Y58430D01*
X115916Y58352D01*
X115855Y58275D01*
X115788Y58208D01*
X115711Y58141D01*
X115705Y58136D01*
X115694Y58125D01*
X115666Y58114D01*
X115638Y58091D01*
X115594Y58064D01*
X115550Y58036D01*
X115489Y58008D01*
X115428Y57981D01*
X115356Y57947D01*
X115278Y57920D01*
X115194Y57892D01*
X115106Y57864D01*
X115011Y57842D01*
X114911Y57831D01*
X114806Y57820D01*
X114695Y57814D01*
X114634D01*
X114590Y57820D01*
X114540D01*
X114479Y57825D01*
X114412Y57836D01*
X114334Y57847D01*
X114173Y57875D01*
X114007Y57920D01*
X113840Y57981D01*
X113763Y58019D01*
X113685Y58064D01*
X113679Y58069D01*
X113668Y58075D01*
X113646Y58091D01*
X113624Y58114D01*
X113591Y58136D01*
X113552Y58169D01*
X113507Y58208D01*
X113463Y58253D01*
X113418Y58302D01*
X113369Y58352D01*
X113269Y58480D01*
X113174Y58630D01*
X113091Y58796D01*
Y58802D01*
X113080Y58819D01*
X113074Y58846D01*
X113058Y58880D01*
X113047Y58924D01*
X113030Y58979D01*
X113008Y59041D01*
X112991Y59107D01*
X112975Y59179D01*
X112952Y59263D01*
X112925Y59435D01*
X112902Y59629D01*
X112891Y59829D01*
Y59834D01*
Y59856D01*
Y59890D01*
X112897Y59929D01*
Y59984D01*
X112902Y60040D01*
X112908Y60112D01*
X112919Y60184D01*
X112947Y60345D01*
X112986Y60523D01*
X113041Y60700D01*
X113119Y60872D01*
X113124Y60878D01*
X113130Y60894D01*
X113141Y60917D01*
X113163Y60944D01*
X113185Y60983D01*
X113213Y61027D01*
X113285Y61127D01*
X113380Y61238D01*
X113491Y61349D01*
X113618Y61460D01*
X113768Y61555D01*
X113774Y61560D01*
X113790Y61566D01*
X113813Y61577D01*
X113840Y61594D01*
X113885Y61610D01*
X113929Y61627D01*
X113985Y61649D01*
X114046Y61671D01*
X114112Y61694D01*
X114184Y61716D01*
X114340Y61749D01*
X114517Y61777D01*
X114701Y61788D01*
X114756D01*
X114795Y61782D01*
D02*
G37*
G36*
X117403Y58336D02*
X119296D01*
Y57881D01*
X116893D01*
Y61721D01*
X117403D01*
Y58336D01*
D02*
G37*
G36*
X121072Y61732D02*
X121144Y61721D01*
X121227Y61705D01*
X121316Y61682D01*
X121411Y61655D01*
X121499Y61610D01*
X121505D01*
X121510Y61605D01*
X121538Y61588D01*
X121583Y61560D01*
X121638Y61522D01*
X121699Y61466D01*
X121766Y61405D01*
X121827Y61333D01*
X121888Y61250D01*
X121893Y61238D01*
X121916Y61211D01*
X121938Y61161D01*
X121977Y61089D01*
X122010Y61005D01*
X122054Y60911D01*
X122093Y60800D01*
X122126Y60678D01*
Y60672D01*
X122132Y60661D01*
X122138Y60645D01*
X122143Y60617D01*
X122149Y60584D01*
X122154Y60545D01*
X122165Y60495D01*
X122171Y60439D01*
X122182Y60378D01*
X122187Y60312D01*
X122193Y60234D01*
X122204Y60156D01*
X122210Y60067D01*
Y59978D01*
X122215Y59879D01*
Y59773D01*
Y59768D01*
Y59746D01*
Y59707D01*
Y59662D01*
X122210Y59601D01*
Y59535D01*
X122204Y59462D01*
X122199Y59385D01*
X122182Y59207D01*
X122154Y59024D01*
X122121Y58846D01*
X122099Y58763D01*
X122071Y58680D01*
Y58674D01*
X122065Y58663D01*
X122054Y58641D01*
X122043Y58613D01*
X122032Y58574D01*
X122010Y58536D01*
X121966Y58441D01*
X121910Y58341D01*
X121838Y58230D01*
X121755Y58130D01*
X121655Y58036D01*
X121649D01*
X121644Y58025D01*
X121627Y58014D01*
X121605Y58003D01*
X121577Y57986D01*
X121549Y57964D01*
X121466Y57925D01*
X121366Y57886D01*
X121250Y57847D01*
X121111Y57825D01*
X120961Y57814D01*
X120905D01*
X120867Y57820D01*
X120822Y57825D01*
X120767Y57836D01*
X120706Y57847D01*
X120639Y57864D01*
X120572Y57886D01*
X120500Y57908D01*
X120428Y57942D01*
X120356Y57981D01*
X120284Y58025D01*
X120212Y58080D01*
X120145Y58141D01*
X120084Y58208D01*
X120079Y58214D01*
X120067Y58230D01*
X120051Y58258D01*
X120023Y58302D01*
X119995Y58352D01*
X119967Y58419D01*
X119929Y58497D01*
X119895Y58586D01*
X119862Y58685D01*
X119829Y58802D01*
X119796Y58930D01*
X119768Y59074D01*
X119740Y59229D01*
X119723Y59396D01*
X119712Y59579D01*
X119707Y59773D01*
Y59779D01*
Y59801D01*
Y59840D01*
Y59884D01*
X119712Y59945D01*
Y60012D01*
X119718Y60084D01*
X119723Y60167D01*
X119740Y60339D01*
X119768Y60523D01*
X119801Y60706D01*
X119823Y60789D01*
X119845Y60872D01*
Y60878D01*
X119851Y60889D01*
X119862Y60911D01*
X119873Y60939D01*
X119884Y60978D01*
X119906Y61016D01*
X119951Y61111D01*
X120006Y61211D01*
X120079Y61316D01*
X120162Y61422D01*
X120262Y61510D01*
X120267D01*
X120273Y61522D01*
X120289Y61533D01*
X120312Y61544D01*
X120339Y61566D01*
X120373Y61582D01*
X120456Y61627D01*
X120556Y61666D01*
X120672Y61705D01*
X120811Y61727D01*
X120961Y61738D01*
X121011D01*
X121072Y61732D01*
D02*
G37*
G36*
X94895Y61782D02*
X94934D01*
X95039Y61771D01*
X95156Y61755D01*
X95278Y61727D01*
X95411Y61693D01*
X95533Y61649D01*
X95539D01*
X95550Y61643D01*
X95566Y61632D01*
X95589Y61621D01*
X95644Y61594D01*
X95716Y61544D01*
X95800Y61488D01*
X95883Y61416D01*
X95961Y61333D01*
X96033Y61238D01*
Y61233D01*
X96038Y61227D01*
X96049Y61211D01*
X96061Y61194D01*
X96088Y61138D01*
X96122Y61066D01*
X96160Y60978D01*
X96188Y60872D01*
X96216Y60761D01*
X96227Y60639D01*
X95739Y60600D01*
Y60606D01*
Y60617D01*
X95733Y60633D01*
X95727Y60661D01*
X95711Y60722D01*
X95689Y60805D01*
X95655Y60894D01*
X95605Y60983D01*
X95544Y61066D01*
X95467Y61144D01*
X95455Y61150D01*
X95428Y61172D01*
X95372Y61205D01*
X95300Y61238D01*
X95206Y61272D01*
X95095Y61305D01*
X94956Y61327D01*
X94801Y61333D01*
X94723D01*
X94690Y61327D01*
X94645Y61322D01*
X94545Y61310D01*
X94434Y61288D01*
X94323Y61261D01*
X94218Y61216D01*
X94174Y61188D01*
X94129Y61161D01*
X94118Y61155D01*
X94096Y61133D01*
X94063Y61094D01*
X94029Y61050D01*
X93990Y60989D01*
X93957Y60922D01*
X93935Y60844D01*
X93924Y60755D01*
Y60744D01*
Y60722D01*
X93929Y60683D01*
X93940Y60639D01*
X93957Y60584D01*
X93985Y60528D01*
X94018Y60473D01*
X94068Y60417D01*
X94074Y60411D01*
X94101Y60395D01*
X94124Y60378D01*
X94146Y60367D01*
X94179Y60350D01*
X94218Y60328D01*
X94268Y60312D01*
X94323Y60289D01*
X94384Y60267D01*
X94456Y60239D01*
X94534Y60217D01*
X94623Y60189D01*
X94723Y60167D01*
X94834Y60139D01*
X94840D01*
X94862Y60134D01*
X94895Y60128D01*
X94934Y60117D01*
X94984Y60106D01*
X95045Y60089D01*
X95106Y60073D01*
X95173Y60056D01*
X95317Y60017D01*
X95455Y59978D01*
X95522Y59956D01*
X95583Y59934D01*
X95639Y59917D01*
X95683Y59895D01*
X95689D01*
X95700Y59890D01*
X95716Y59879D01*
X95739Y59868D01*
X95800Y59834D01*
X95872Y59790D01*
X95955Y59729D01*
X96038Y59662D01*
X96116Y59584D01*
X96183Y59501D01*
X96188Y59490D01*
X96210Y59462D01*
X96232Y59412D01*
X96266Y59346D01*
X96294Y59268D01*
X96321Y59174D01*
X96338Y59068D01*
X96343Y58957D01*
Y58952D01*
Y58946D01*
Y58930D01*
Y58907D01*
X96332Y58846D01*
X96321Y58769D01*
X96299Y58680D01*
X96271Y58586D01*
X96227Y58486D01*
X96166Y58380D01*
Y58375D01*
X96160Y58369D01*
X96133Y58336D01*
X96094Y58286D01*
X96038Y58230D01*
X95966Y58164D01*
X95877Y58091D01*
X95777Y58025D01*
X95661Y57964D01*
X95655D01*
X95644Y57958D01*
X95628Y57953D01*
X95605Y57942D01*
X95572Y57931D01*
X95533Y57914D01*
X95444Y57892D01*
X95339Y57864D01*
X95211Y57836D01*
X95073Y57820D01*
X94923Y57814D01*
X94834D01*
X94789Y57820D01*
X94740D01*
X94684Y57825D01*
X94617Y57831D01*
X94479Y57853D01*
X94334Y57875D01*
X94190Y57914D01*
X94051Y57964D01*
X94046D01*
X94035Y57969D01*
X94018Y57981D01*
X93996Y57992D01*
X93929Y58025D01*
X93852Y58075D01*
X93763Y58141D01*
X93668Y58219D01*
X93580Y58314D01*
X93496Y58419D01*
Y58425D01*
X93485Y58436D01*
X93480Y58452D01*
X93463Y58474D01*
X93452Y58502D01*
X93435Y58535D01*
X93397Y58619D01*
X93358Y58724D01*
X93324Y58841D01*
X93302Y58974D01*
X93291Y59113D01*
X93768Y59157D01*
Y59152D01*
Y59146D01*
X93774Y59129D01*
Y59107D01*
X93785Y59057D01*
X93802Y58985D01*
X93824Y58913D01*
X93846Y58830D01*
X93885Y58752D01*
X93924Y58680D01*
X93929Y58674D01*
X93946Y58652D01*
X93974Y58613D01*
X94018Y58574D01*
X94074Y58524D01*
X94135Y58474D01*
X94218Y58425D01*
X94307Y58380D01*
X94312D01*
X94318Y58375D01*
X94334Y58369D01*
X94351Y58363D01*
X94407Y58347D01*
X94479Y58325D01*
X94568Y58302D01*
X94667Y58286D01*
X94778Y58275D01*
X94901Y58269D01*
X94950D01*
X95006Y58275D01*
X95073Y58280D01*
X95150Y58291D01*
X95239Y58302D01*
X95328Y58325D01*
X95411Y58352D01*
X95422Y58358D01*
X95450Y58369D01*
X95489Y58391D01*
X95539Y58413D01*
X95589Y58452D01*
X95644Y58491D01*
X95700Y58535D01*
X95744Y58591D01*
X95750Y58597D01*
X95761Y58619D01*
X95777Y58647D01*
X95800Y58691D01*
X95822Y58735D01*
X95838Y58791D01*
X95850Y58852D01*
X95855Y58918D01*
Y58924D01*
Y58952D01*
X95850Y58985D01*
X95844Y59029D01*
X95827Y59074D01*
X95811Y59129D01*
X95783Y59185D01*
X95744Y59235D01*
X95739Y59240D01*
X95722Y59257D01*
X95700Y59279D01*
X95661Y59312D01*
X95617Y59346D01*
X95555Y59385D01*
X95483Y59424D01*
X95400Y59457D01*
X95394Y59462D01*
X95367Y59468D01*
X95322Y59485D01*
X95295Y59490D01*
X95256Y59501D01*
X95217Y59518D01*
X95167Y59529D01*
X95111Y59546D01*
X95045Y59562D01*
X94978Y59579D01*
X94901Y59601D01*
X94812Y59623D01*
X94717Y59645D01*
X94712D01*
X94695Y59651D01*
X94667Y59657D01*
X94634Y59668D01*
X94590Y59679D01*
X94540Y59690D01*
X94429Y59723D01*
X94307Y59762D01*
X94179Y59801D01*
X94068Y59840D01*
X94018Y59862D01*
X93974Y59884D01*
X93968D01*
X93963Y59890D01*
X93929Y59912D01*
X93879Y59940D01*
X93824Y59984D01*
X93757Y60034D01*
X93691Y60095D01*
X93624Y60167D01*
X93568Y60245D01*
X93563Y60256D01*
X93546Y60284D01*
X93524Y60328D01*
X93502Y60384D01*
X93480Y60456D01*
X93458Y60539D01*
X93441Y60628D01*
X93435Y60722D01*
Y60728D01*
Y60733D01*
Y60750D01*
Y60772D01*
X93446Y60828D01*
X93458Y60900D01*
X93474Y60983D01*
X93502Y61077D01*
X93541Y61172D01*
X93596Y61266D01*
Y61272D01*
X93602Y61277D01*
X93630Y61310D01*
X93668Y61355D01*
X93718Y61410D01*
X93785Y61471D01*
X93868Y61538D01*
X93968Y61599D01*
X94079Y61655D01*
X94085D01*
X94096Y61660D01*
X94112Y61666D01*
X94135Y61677D01*
X94162Y61688D01*
X94201Y61699D01*
X94284Y61721D01*
X94390Y61743D01*
X94512Y61766D01*
X94640Y61782D01*
X94784Y61788D01*
X94856D01*
X94895Y61782D01*
D02*
G37*
G36*
X104086Y57881D02*
X103509D01*
X103059Y59046D01*
X101450D01*
X101033Y57881D01*
X100495D01*
X101960Y61721D01*
X102515D01*
X104086Y57881D01*
D02*
G37*
G36*
X98619Y61716D02*
X98730Y61710D01*
X98841Y61699D01*
X98952Y61682D01*
X99046Y61666D01*
X99052D01*
X99063Y61660D01*
X99080D01*
X99102Y61649D01*
X99163Y61632D01*
X99241Y61605D01*
X99329Y61566D01*
X99424Y61516D01*
X99518Y61460D01*
X99607Y61388D01*
X99612Y61383D01*
X99618Y61377D01*
X99635Y61361D01*
X99657Y61344D01*
X99712Y61288D01*
X99779Y61211D01*
X99851Y61116D01*
X99929Y61005D01*
X100001Y60878D01*
X100062Y60733D01*
Y60728D01*
X100068Y60717D01*
X100079Y60694D01*
X100084Y60661D01*
X100101Y60622D01*
X100112Y60578D01*
X100123Y60528D01*
X100140Y60467D01*
X100156Y60406D01*
X100168Y60334D01*
X100195Y60178D01*
X100212Y60006D01*
X100217Y59818D01*
Y59812D01*
Y59801D01*
Y59773D01*
Y59745D01*
X100212Y59707D01*
Y59662D01*
X100206Y59557D01*
X100190Y59435D01*
X100173Y59307D01*
X100145Y59174D01*
X100112Y59040D01*
Y59035D01*
X100106Y59024D01*
X100101Y59007D01*
X100095Y58985D01*
X100073Y58924D01*
X100040Y58846D01*
X100006Y58758D01*
X99962Y58669D01*
X99907Y58574D01*
X99851Y58486D01*
X99846Y58474D01*
X99823Y58447D01*
X99790Y58408D01*
X99746Y58358D01*
X99696Y58302D01*
X99635Y58247D01*
X99574Y58186D01*
X99502Y58136D01*
X99490Y58130D01*
X99468Y58114D01*
X99429Y58091D01*
X99374Y58064D01*
X99307Y58030D01*
X99230Y58003D01*
X99141Y57969D01*
X99041Y57942D01*
X99030D01*
X99013Y57936D01*
X98996Y57931D01*
X98941Y57925D01*
X98863Y57914D01*
X98774Y57903D01*
X98669Y57892D01*
X98552Y57886D01*
X98425Y57881D01*
X97043D01*
Y61721D01*
X98519D01*
X98619Y61716D01*
D02*
G37*
G36*
X105667Y61732D02*
X105740Y61721D01*
X105823Y61704D01*
X105912Y61682D01*
X106006Y61655D01*
X106095Y61610D01*
X106100D01*
X106106Y61605D01*
X106134Y61588D01*
X106178Y61560D01*
X106234Y61521D01*
X106295Y61466D01*
X106361Y61405D01*
X106422Y61333D01*
X106483Y61250D01*
X106489Y61238D01*
X106511Y61211D01*
X106533Y61161D01*
X106572Y61089D01*
X106606Y61005D01*
X106650Y60911D01*
X106689Y60800D01*
X106722Y60678D01*
Y60672D01*
X106728Y60661D01*
X106733Y60645D01*
X106739Y60617D01*
X106744Y60584D01*
X106750Y60545D01*
X106761Y60495D01*
X106766Y60439D01*
X106778Y60378D01*
X106783Y60312D01*
X106789Y60234D01*
X106800Y60156D01*
X106805Y60067D01*
Y59978D01*
X106811Y59879D01*
Y59773D01*
Y59768D01*
Y59745D01*
Y59707D01*
Y59662D01*
X106805Y59601D01*
Y59535D01*
X106800Y59462D01*
X106794Y59385D01*
X106778Y59207D01*
X106750Y59024D01*
X106717Y58846D01*
X106694Y58763D01*
X106667Y58680D01*
Y58674D01*
X106661Y58663D01*
X106650Y58641D01*
X106639Y58613D01*
X106628Y58574D01*
X106606Y58535D01*
X106561Y58441D01*
X106506Y58341D01*
X106433Y58230D01*
X106350Y58130D01*
X106250Y58036D01*
X106245D01*
X106239Y58025D01*
X106222Y58014D01*
X106200Y58003D01*
X106173Y57986D01*
X106145Y57964D01*
X106062Y57925D01*
X105962Y57886D01*
X105845Y57847D01*
X105706Y57825D01*
X105556Y57814D01*
X105501D01*
X105462Y57820D01*
X105418Y57825D01*
X105362Y57836D01*
X105301Y57847D01*
X105235Y57864D01*
X105168Y57886D01*
X105096Y57908D01*
X105024Y57942D01*
X104952Y57981D01*
X104879Y58025D01*
X104807Y58080D01*
X104741Y58141D01*
X104680Y58208D01*
X104674Y58214D01*
X104663Y58230D01*
X104646Y58258D01*
X104619Y58302D01*
X104591Y58352D01*
X104563Y58419D01*
X104524Y58497D01*
X104491Y58586D01*
X104458Y58685D01*
X104424Y58802D01*
X104391Y58930D01*
X104363Y59074D01*
X104335Y59229D01*
X104319Y59396D01*
X104308Y59579D01*
X104302Y59773D01*
Y59779D01*
Y59801D01*
Y59840D01*
Y59884D01*
X104308Y59945D01*
Y60012D01*
X104313Y60084D01*
X104319Y60167D01*
X104335Y60339D01*
X104363Y60522D01*
X104397Y60706D01*
X104419Y60789D01*
X104441Y60872D01*
Y60878D01*
X104446Y60889D01*
X104458Y60911D01*
X104469Y60939D01*
X104480Y60978D01*
X104502Y61016D01*
X104546Y61111D01*
X104602Y61211D01*
X104674Y61316D01*
X104757Y61422D01*
X104857Y61510D01*
X104863D01*
X104868Y61521D01*
X104885Y61532D01*
X104907Y61544D01*
X104935Y61566D01*
X104968Y61582D01*
X105052Y61627D01*
X105151Y61666D01*
X105268Y61704D01*
X105407Y61727D01*
X105556Y61738D01*
X105606D01*
X105667Y61732D01*
D02*
G37*
G36*
X118072Y97603D02*
X118144Y97592D01*
X118233Y97575D01*
X118333Y97548D01*
X118432Y97514D01*
X118532Y97470D01*
X118538D01*
X118543Y97464D01*
X118577Y97448D01*
X118627Y97414D01*
X118682Y97376D01*
X118749Y97320D01*
X118815Y97259D01*
X118882Y97187D01*
X118937Y97104D01*
X118943Y97092D01*
X118960Y97065D01*
X118982Y97015D01*
X119010Y96954D01*
X119037Y96882D01*
X119060Y96798D01*
X119076Y96704D01*
X119082Y96610D01*
Y96599D01*
Y96565D01*
X119076Y96521D01*
X119065Y96460D01*
X119048Y96388D01*
X119021Y96310D01*
X118987Y96232D01*
X118943Y96154D01*
X118937Y96143D01*
X118921Y96121D01*
X118887Y96082D01*
X118843Y96038D01*
X118788Y95988D01*
X118721Y95933D01*
X118643Y95883D01*
X118549Y95833D01*
X118554D01*
X118566Y95827D01*
X118582Y95821D01*
X118604Y95816D01*
X118666Y95794D01*
X118743Y95761D01*
X118832Y95716D01*
X118921Y95661D01*
X119004Y95588D01*
X119082Y95505D01*
X119087Y95494D01*
X119109Y95461D01*
X119143Y95405D01*
X119176Y95333D01*
X119209Y95244D01*
X119243Y95139D01*
X119265Y95017D01*
X119270Y94884D01*
Y94878D01*
Y94861D01*
Y94834D01*
X119265Y94800D01*
X119259Y94756D01*
X119248Y94706D01*
X119237Y94651D01*
X119226Y94589D01*
X119182Y94456D01*
X119148Y94384D01*
X119115Y94318D01*
X119071Y94245D01*
X119021Y94173D01*
X118965Y94101D01*
X118899Y94034D01*
X118893Y94029D01*
X118882Y94018D01*
X118860Y94001D01*
X118832Y93979D01*
X118799Y93951D01*
X118754Y93923D01*
X118704Y93890D01*
X118643Y93862D01*
X118582Y93829D01*
X118510Y93796D01*
X118438Y93768D01*
X118355Y93740D01*
X118266Y93718D01*
X118172Y93701D01*
X118077Y93690D01*
X117972Y93685D01*
X117922D01*
X117888Y93690D01*
X117844Y93696D01*
X117794Y93701D01*
X117739Y93713D01*
X117678Y93724D01*
X117544Y93757D01*
X117406Y93812D01*
X117333Y93846D01*
X117267Y93885D01*
X117200Y93935D01*
X117134Y93985D01*
X117128Y93990D01*
X117117Y94001D01*
X117100Y94018D01*
X117084Y94040D01*
X117056Y94068D01*
X117028Y94107D01*
X116995Y94145D01*
X116962Y94195D01*
X116928Y94251D01*
X116895Y94306D01*
X116834Y94440D01*
X116784Y94595D01*
X116767Y94678D01*
X116756Y94767D01*
X117228Y94828D01*
Y94823D01*
X117234Y94811D01*
X117239Y94789D01*
X117245Y94762D01*
X117250Y94728D01*
X117261Y94689D01*
X117289Y94606D01*
X117328Y94506D01*
X117378Y94412D01*
X117433Y94323D01*
X117500Y94245D01*
X117511Y94240D01*
X117533Y94218D01*
X117578Y94190D01*
X117633Y94162D01*
X117700Y94129D01*
X117783Y94101D01*
X117877Y94079D01*
X117977Y94073D01*
X118011D01*
X118033Y94079D01*
X118094Y94084D01*
X118172Y94101D01*
X118260Y94129D01*
X118355Y94168D01*
X118449Y94223D01*
X118538Y94301D01*
X118549Y94312D01*
X118577Y94345D01*
X118610Y94395D01*
X118654Y94462D01*
X118699Y94545D01*
X118732Y94639D01*
X118760Y94750D01*
X118771Y94872D01*
Y94878D01*
Y94889D01*
Y94906D01*
X118765Y94928D01*
X118760Y94989D01*
X118743Y95061D01*
X118721Y95150D01*
X118682Y95239D01*
X118627Y95328D01*
X118554Y95411D01*
X118543Y95422D01*
X118516Y95444D01*
X118471Y95477D01*
X118410Y95516D01*
X118333Y95555D01*
X118238Y95588D01*
X118133Y95611D01*
X118016Y95622D01*
X117966D01*
X117927Y95616D01*
X117877Y95611D01*
X117822Y95600D01*
X117755Y95588D01*
X117683Y95572D01*
X117739Y95988D01*
X117766D01*
X117789Y95982D01*
X117861D01*
X117922Y95994D01*
X117994Y96005D01*
X118077Y96021D01*
X118172Y96049D01*
X118260Y96088D01*
X118355Y96138D01*
X118360D01*
X118366Y96143D01*
X118394Y96166D01*
X118432Y96205D01*
X118477Y96254D01*
X118521Y96327D01*
X118560Y96410D01*
X118588Y96504D01*
X118599Y96560D01*
Y96621D01*
Y96626D01*
Y96632D01*
Y96665D01*
X118588Y96710D01*
X118577Y96771D01*
X118554Y96837D01*
X118527Y96909D01*
X118482Y96982D01*
X118421Y97048D01*
X118416Y97054D01*
X118388Y97076D01*
X118349Y97104D01*
X118299Y97137D01*
X118233Y97165D01*
X118155Y97192D01*
X118066Y97215D01*
X117966Y97220D01*
X117922D01*
X117872Y97209D01*
X117805Y97198D01*
X117733Y97176D01*
X117661Y97148D01*
X117583Y97104D01*
X117511Y97048D01*
X117506Y97043D01*
X117483Y97015D01*
X117450Y96976D01*
X117411Y96920D01*
X117372Y96848D01*
X117333Y96759D01*
X117300Y96654D01*
X117278Y96532D01*
X116806Y96615D01*
Y96621D01*
X116812Y96637D01*
X116817Y96660D01*
X116823Y96693D01*
X116834Y96732D01*
X116851Y96776D01*
X116884Y96882D01*
X116939Y97004D01*
X117006Y97126D01*
X117089Y97242D01*
X117195Y97348D01*
X117200Y97353D01*
X117211Y97359D01*
X117228Y97370D01*
X117250Y97387D01*
X117278Y97409D01*
X117317Y97431D01*
X117356Y97453D01*
X117406Y97481D01*
X117517Y97525D01*
X117644Y97570D01*
X117794Y97597D01*
X117872Y97609D01*
X118011D01*
X118072Y97603D01*
D02*
G37*
G36*
X113593D02*
X113665Y97592D01*
X113754Y97575D01*
X113854Y97548D01*
X113953Y97514D01*
X114053Y97470D01*
X114059D01*
X114065Y97464D01*
X114098Y97448D01*
X114148Y97414D01*
X114203Y97376D01*
X114270Y97320D01*
X114337Y97259D01*
X114403Y97187D01*
X114459Y97104D01*
X114464Y97092D01*
X114481Y97065D01*
X114503Y97015D01*
X114531Y96954D01*
X114558Y96882D01*
X114581Y96798D01*
X114597Y96704D01*
X114603Y96610D01*
Y96599D01*
Y96565D01*
X114597Y96521D01*
X114586Y96460D01*
X114570Y96388D01*
X114542Y96310D01*
X114508Y96232D01*
X114464Y96154D01*
X114459Y96143D01*
X114442Y96121D01*
X114409Y96082D01*
X114364Y96038D01*
X114309Y95988D01*
X114242Y95933D01*
X114164Y95883D01*
X114070Y95833D01*
X114076D01*
X114087Y95827D01*
X114103Y95821D01*
X114126Y95816D01*
X114187Y95794D01*
X114264Y95761D01*
X114353Y95716D01*
X114442Y95661D01*
X114525Y95588D01*
X114603Y95505D01*
X114608Y95494D01*
X114631Y95461D01*
X114664Y95405D01*
X114697Y95333D01*
X114731Y95244D01*
X114764Y95139D01*
X114786Y95017D01*
X114792Y94884D01*
Y94878D01*
Y94861D01*
Y94834D01*
X114786Y94800D01*
X114780Y94756D01*
X114769Y94706D01*
X114758Y94651D01*
X114747Y94589D01*
X114703Y94456D01*
X114670Y94384D01*
X114636Y94318D01*
X114592Y94245D01*
X114542Y94173D01*
X114486Y94101D01*
X114420Y94034D01*
X114414Y94029D01*
X114403Y94018D01*
X114381Y94001D01*
X114353Y93979D01*
X114320Y93951D01*
X114275Y93923D01*
X114225Y93890D01*
X114164Y93862D01*
X114103Y93829D01*
X114031Y93796D01*
X113959Y93768D01*
X113876Y93740D01*
X113787Y93718D01*
X113693Y93701D01*
X113598Y93690D01*
X113493Y93685D01*
X113443D01*
X113410Y93690D01*
X113365Y93696D01*
X113315Y93701D01*
X113260Y93713D01*
X113199Y93724D01*
X113066Y93757D01*
X112927Y93812D01*
X112855Y93846D01*
X112788Y93885D01*
X112721Y93935D01*
X112655Y93985D01*
X112649Y93990D01*
X112638Y94001D01*
X112621Y94018D01*
X112605Y94040D01*
X112577Y94068D01*
X112549Y94107D01*
X112516Y94145D01*
X112483Y94195D01*
X112450Y94251D01*
X112416Y94306D01*
X112355Y94440D01*
X112305Y94595D01*
X112288Y94678D01*
X112277Y94767D01*
X112749Y94828D01*
Y94823D01*
X112755Y94811D01*
X112760Y94789D01*
X112766Y94762D01*
X112771Y94728D01*
X112783Y94689D01*
X112810Y94606D01*
X112849Y94506D01*
X112899Y94412D01*
X112954Y94323D01*
X113021Y94245D01*
X113032Y94240D01*
X113054Y94218D01*
X113099Y94190D01*
X113154Y94162D01*
X113221Y94129D01*
X113304Y94101D01*
X113399Y94079D01*
X113498Y94073D01*
X113532D01*
X113554Y94079D01*
X113615Y94084D01*
X113693Y94101D01*
X113781Y94129D01*
X113876Y94168D01*
X113970Y94223D01*
X114059Y94301D01*
X114070Y94312D01*
X114098Y94345D01*
X114131Y94395D01*
X114175Y94462D01*
X114220Y94545D01*
X114253Y94639D01*
X114281Y94750D01*
X114292Y94872D01*
Y94878D01*
Y94889D01*
Y94906D01*
X114286Y94928D01*
X114281Y94989D01*
X114264Y95061D01*
X114242Y95150D01*
X114203Y95239D01*
X114148Y95328D01*
X114076Y95411D01*
X114065Y95422D01*
X114037Y95444D01*
X113992Y95477D01*
X113931Y95516D01*
X113854Y95555D01*
X113759Y95588D01*
X113654Y95611D01*
X113537Y95622D01*
X113487D01*
X113449Y95616D01*
X113399Y95611D01*
X113343Y95600D01*
X113276Y95588D01*
X113204Y95572D01*
X113260Y95988D01*
X113287D01*
X113310Y95982D01*
X113382D01*
X113443Y95994D01*
X113515Y96005D01*
X113598Y96021D01*
X113693Y96049D01*
X113781Y96088D01*
X113876Y96138D01*
X113881D01*
X113887Y96143D01*
X113915Y96166D01*
X113953Y96205D01*
X113998Y96254D01*
X114042Y96327D01*
X114081Y96410D01*
X114109Y96504D01*
X114120Y96560D01*
Y96621D01*
Y96626D01*
Y96632D01*
Y96665D01*
X114109Y96710D01*
X114098Y96771D01*
X114076Y96837D01*
X114048Y96909D01*
X114004Y96982D01*
X113942Y97048D01*
X113937Y97054D01*
X113909Y97076D01*
X113870Y97104D01*
X113820Y97137D01*
X113754Y97165D01*
X113676Y97192D01*
X113587Y97215D01*
X113487Y97220D01*
X113443D01*
X113393Y97209D01*
X113326Y97198D01*
X113254Y97176D01*
X113182Y97148D01*
X113104Y97104D01*
X113032Y97048D01*
X113027Y97043D01*
X113005Y97015D01*
X112971Y96976D01*
X112932Y96920D01*
X112893Y96848D01*
X112855Y96759D01*
X112821Y96654D01*
X112799Y96532D01*
X112327Y96615D01*
Y96621D01*
X112333Y96637D01*
X112338Y96660D01*
X112344Y96693D01*
X112355Y96732D01*
X112372Y96776D01*
X112405Y96882D01*
X112461Y97004D01*
X112527Y97126D01*
X112610Y97242D01*
X112716Y97348D01*
X112721Y97353D01*
X112733Y97359D01*
X112749Y97370D01*
X112771Y97387D01*
X112799Y97409D01*
X112838Y97431D01*
X112877Y97453D01*
X112927Y97481D01*
X113038Y97525D01*
X113165Y97570D01*
X113315Y97597D01*
X113393Y97609D01*
X113532D01*
X113593Y97603D01*
D02*
G37*
G36*
X121552Y93751D02*
X121019D01*
X119531Y97592D01*
X120086D01*
X121085Y94800D01*
Y94795D01*
X121091Y94784D01*
X121096Y94767D01*
X121107Y94745D01*
X121113Y94712D01*
X121124Y94678D01*
X121152Y94595D01*
X121185Y94501D01*
X121219Y94395D01*
X121285Y94173D01*
Y94179D01*
X121291Y94190D01*
X121296Y94207D01*
X121302Y94229D01*
X121318Y94290D01*
X121346Y94373D01*
X121374Y94467D01*
X121407Y94573D01*
X121446Y94684D01*
X121490Y94800D01*
X122534Y97592D01*
X123050D01*
X121552Y93751D01*
D02*
G37*
G36*
X116062D02*
X115524D01*
Y94290D01*
X116062D01*
Y93751D01*
D02*
G37*
G36*
X86221Y34069D02*
X84684D01*
X84478Y33031D01*
X84484Y33036D01*
X84495Y33042D01*
X84512Y33053D01*
X84540Y33070D01*
X84573Y33086D01*
X84612Y33108D01*
X84701Y33153D01*
X84812Y33197D01*
X84934Y33236D01*
X85067Y33264D01*
X85133Y33275D01*
X85255D01*
X85289Y33269D01*
X85333Y33264D01*
X85383Y33258D01*
X85439Y33247D01*
X85500Y33231D01*
X85633Y33192D01*
X85705Y33164D01*
X85777Y33125D01*
X85849Y33086D01*
X85922Y33042D01*
X85988Y32986D01*
X86055Y32925D01*
X86060Y32920D01*
X86071Y32909D01*
X86088Y32892D01*
X86110Y32864D01*
X86138Y32825D01*
X86166Y32787D01*
X86199Y32737D01*
X86232Y32681D01*
X86260Y32620D01*
X86293Y32553D01*
X86321Y32476D01*
X86349Y32398D01*
X86371Y32315D01*
X86388Y32220D01*
X86399Y32126D01*
X86404Y32026D01*
Y32021D01*
Y32004D01*
Y31976D01*
X86399Y31937D01*
X86393Y31893D01*
X86388Y31843D01*
X86377Y31782D01*
X86365Y31721D01*
X86332Y31577D01*
X86277Y31427D01*
X86243Y31349D01*
X86199Y31277D01*
X86155Y31199D01*
X86099Y31127D01*
X86093Y31122D01*
X86082Y31105D01*
X86060Y31083D01*
X86032Y31055D01*
X85994Y31022D01*
X85949Y30977D01*
X85894Y30938D01*
X85833Y30894D01*
X85766Y30849D01*
X85688Y30811D01*
X85605Y30772D01*
X85516Y30733D01*
X85422Y30705D01*
X85316Y30683D01*
X85206Y30666D01*
X85089Y30661D01*
X85039D01*
X85000Y30666D01*
X84956Y30672D01*
X84906Y30678D01*
X84845Y30683D01*
X84784Y30700D01*
X84645Y30733D01*
X84506Y30783D01*
X84434Y30816D01*
X84362Y30855D01*
X84295Y30900D01*
X84229Y30949D01*
X84223Y30955D01*
X84212Y30961D01*
X84201Y30983D01*
X84179Y31005D01*
X84151Y31033D01*
X84123Y31066D01*
X84090Y31110D01*
X84062Y31160D01*
X84029Y31210D01*
X83996Y31271D01*
X83935Y31405D01*
X83885Y31560D01*
X83868Y31643D01*
X83857Y31732D01*
X84351Y31771D01*
Y31765D01*
Y31754D01*
X84356Y31738D01*
X84362Y31710D01*
X84378Y31649D01*
X84401Y31565D01*
X84434Y31482D01*
X84478Y31388D01*
X84534Y31305D01*
X84601Y31227D01*
X84612Y31221D01*
X84634Y31199D01*
X84678Y31171D01*
X84739Y31138D01*
X84806Y31105D01*
X84889Y31077D01*
X84983Y31055D01*
X85089Y31049D01*
X85122D01*
X85144Y31055D01*
X85211Y31060D01*
X85289Y31083D01*
X85383Y31110D01*
X85477Y31155D01*
X85577Y31221D01*
X85622Y31260D01*
X85666Y31305D01*
X85672Y31310D01*
X85677Y31316D01*
X85688Y31332D01*
X85705Y31349D01*
X85744Y31410D01*
X85788Y31488D01*
X85827Y31582D01*
X85866Y31699D01*
X85894Y31837D01*
X85905Y31910D01*
Y31987D01*
Y31993D01*
Y32004D01*
Y32026D01*
X85899Y32054D01*
Y32087D01*
X85894Y32126D01*
X85877Y32215D01*
X85849Y32320D01*
X85811Y32426D01*
X85755Y32526D01*
X85677Y32620D01*
Y32625D01*
X85666Y32631D01*
X85638Y32659D01*
X85589Y32698D01*
X85522Y32742D01*
X85433Y32781D01*
X85333Y32820D01*
X85217Y32847D01*
X85150Y32859D01*
X85045D01*
X85000Y32853D01*
X84945Y32847D01*
X84878Y32831D01*
X84812Y32814D01*
X84739Y32787D01*
X84667Y32753D01*
X84662Y32748D01*
X84639Y32737D01*
X84606Y32709D01*
X84562Y32681D01*
X84517Y32642D01*
X84473Y32592D01*
X84423Y32542D01*
X84384Y32481D01*
X83940Y32542D01*
X84312Y34518D01*
X86221D01*
Y34069D01*
D02*
G37*
G36*
X81753Y34563D02*
X81864Y34557D01*
X81975Y34546D01*
X82086Y34529D01*
X82181Y34512D01*
X82186D01*
X82197Y34507D01*
X82214D01*
X82236Y34496D01*
X82297Y34479D01*
X82375Y34451D01*
X82464Y34413D01*
X82558Y34363D01*
X82652Y34307D01*
X82741Y34235D01*
X82747Y34229D01*
X82752Y34224D01*
X82769Y34207D01*
X82791Y34191D01*
X82847Y34135D01*
X82913Y34057D01*
X82986Y33963D01*
X83063Y33852D01*
X83135Y33724D01*
X83196Y33580D01*
Y33575D01*
X83202Y33564D01*
X83213Y33541D01*
X83219Y33508D01*
X83235Y33469D01*
X83246Y33425D01*
X83257Y33375D01*
X83274Y33314D01*
X83291Y33253D01*
X83302Y33180D01*
X83330Y33025D01*
X83346Y32853D01*
X83352Y32664D01*
Y32659D01*
Y32648D01*
Y32620D01*
Y32592D01*
X83346Y32553D01*
Y32509D01*
X83341Y32403D01*
X83324Y32281D01*
X83307Y32154D01*
X83280Y32021D01*
X83246Y31887D01*
Y31882D01*
X83241Y31871D01*
X83235Y31854D01*
X83230Y31832D01*
X83207Y31771D01*
X83174Y31693D01*
X83141Y31604D01*
X83096Y31515D01*
X83041Y31421D01*
X82986Y31332D01*
X82980Y31321D01*
X82958Y31293D01*
X82924Y31255D01*
X82880Y31205D01*
X82830Y31149D01*
X82769Y31094D01*
X82708Y31033D01*
X82636Y30983D01*
X82625Y30977D01*
X82603Y30961D01*
X82564Y30938D01*
X82508Y30911D01*
X82442Y30877D01*
X82364Y30849D01*
X82275Y30816D01*
X82175Y30788D01*
X82164D01*
X82148Y30783D01*
X82131Y30777D01*
X82075Y30772D01*
X81998Y30761D01*
X81909Y30750D01*
X81803Y30738D01*
X81687Y30733D01*
X81559Y30727D01*
X80177D01*
Y34568D01*
X81653D01*
X81753Y34563D01*
D02*
G37*
G36*
X87363Y54151D02*
X87884D01*
Y53718D01*
X87363D01*
Y52797D01*
X86891D01*
Y53718D01*
X85220D01*
Y54151D01*
X86980Y56637D01*
X87363D01*
Y54151D01*
D02*
G37*
G36*
X83278Y56632D02*
X83389Y56626D01*
X83500Y56615D01*
X83611Y56598D01*
X83705Y56582D01*
X83711D01*
X83722Y56576D01*
X83739D01*
X83761Y56565D01*
X83822Y56548D01*
X83899Y56521D01*
X83988Y56482D01*
X84083Y56432D01*
X84177Y56376D01*
X84266Y56304D01*
X84271Y56299D01*
X84277Y56293D01*
X84294Y56276D01*
X84316Y56260D01*
X84371Y56204D01*
X84438Y56127D01*
X84510Y56032D01*
X84588Y55921D01*
X84660Y55794D01*
X84721Y55649D01*
Y55644D01*
X84727Y55633D01*
X84738Y55611D01*
X84743Y55577D01*
X84760Y55538D01*
X84771Y55494D01*
X84782Y55444D01*
X84799Y55383D01*
X84815Y55322D01*
X84826Y55250D01*
X84854Y55094D01*
X84871Y54922D01*
X84876Y54734D01*
Y54728D01*
Y54717D01*
Y54689D01*
Y54661D01*
X84871Y54623D01*
Y54578D01*
X84865Y54473D01*
X84849Y54351D01*
X84832Y54223D01*
X84804Y54090D01*
X84771Y53957D01*
Y53951D01*
X84765Y53940D01*
X84760Y53923D01*
X84754Y53901D01*
X84732Y53840D01*
X84699Y53762D01*
X84665Y53673D01*
X84621Y53585D01*
X84566Y53490D01*
X84510Y53401D01*
X84504Y53390D01*
X84482Y53363D01*
X84449Y53324D01*
X84405Y53274D01*
X84355Y53218D01*
X84294Y53163D01*
X84233Y53102D01*
X84160Y53052D01*
X84149Y53046D01*
X84127Y53030D01*
X84088Y53008D01*
X84033Y52980D01*
X83966Y52947D01*
X83889Y52919D01*
X83800Y52885D01*
X83700Y52858D01*
X83689D01*
X83672Y52852D01*
X83655Y52847D01*
X83600Y52841D01*
X83522Y52830D01*
X83433Y52819D01*
X83328Y52808D01*
X83211Y52802D01*
X83084Y52797D01*
X81702D01*
Y56637D01*
X83178D01*
X83278Y56632D01*
D02*
G37*
G36*
X90206Y66673D02*
X90278Y66662D01*
X90367Y66646D01*
X90467Y66618D01*
X90567Y66585D01*
X90667Y66540D01*
X90672D01*
X90678Y66535D01*
X90711Y66518D01*
X90761Y66485D01*
X90817Y66446D01*
X90883Y66390D01*
X90950Y66329D01*
X91017Y66257D01*
X91072Y66174D01*
X91078Y66163D01*
X91094Y66135D01*
X91116Y66085D01*
X91144Y66024D01*
X91172Y65952D01*
X91194Y65869D01*
X91211Y65774D01*
X91216Y65680D01*
Y65669D01*
Y65636D01*
X91211Y65591D01*
X91200Y65530D01*
X91183Y65458D01*
X91155Y65380D01*
X91122Y65303D01*
X91078Y65225D01*
X91072Y65214D01*
X91055Y65192D01*
X91022Y65153D01*
X90978Y65108D01*
X90922Y65058D01*
X90856Y65003D01*
X90778Y64953D01*
X90684Y64903D01*
X90689D01*
X90700Y64898D01*
X90717Y64892D01*
X90739Y64886D01*
X90800Y64864D01*
X90878Y64831D01*
X90967Y64786D01*
X91055Y64731D01*
X91139Y64659D01*
X91216Y64576D01*
X91222Y64565D01*
X91244Y64531D01*
X91277Y64476D01*
X91311Y64403D01*
X91344Y64315D01*
X91377Y64209D01*
X91400Y64087D01*
X91405Y63954D01*
Y63948D01*
Y63932D01*
Y63904D01*
X91400Y63871D01*
X91394Y63826D01*
X91383Y63776D01*
X91372Y63721D01*
X91361Y63660D01*
X91316Y63527D01*
X91283Y63455D01*
X91250Y63388D01*
X91205Y63316D01*
X91155Y63244D01*
X91100Y63171D01*
X91033Y63105D01*
X91028Y63099D01*
X91017Y63088D01*
X90994Y63072D01*
X90967Y63049D01*
X90933Y63022D01*
X90889Y62994D01*
X90839Y62960D01*
X90778Y62933D01*
X90717Y62900D01*
X90645Y62866D01*
X90573Y62838D01*
X90489Y62811D01*
X90400Y62788D01*
X90306Y62772D01*
X90212Y62761D01*
X90106Y62755D01*
X90056D01*
X90023Y62761D01*
X89979Y62766D01*
X89929Y62772D01*
X89873Y62783D01*
X89812Y62794D01*
X89679Y62827D01*
X89540Y62883D01*
X89468Y62916D01*
X89402Y62955D01*
X89335Y63005D01*
X89268Y63055D01*
X89263Y63060D01*
X89252Y63072D01*
X89235Y63088D01*
X89218Y63110D01*
X89191Y63138D01*
X89163Y63177D01*
X89130Y63216D01*
X89096Y63266D01*
X89063Y63321D01*
X89030Y63377D01*
X88969Y63510D01*
X88919Y63665D01*
X88902Y63749D01*
X88891Y63837D01*
X89363Y63898D01*
Y63893D01*
X89368Y63882D01*
X89374Y63860D01*
X89379Y63832D01*
X89385Y63799D01*
X89396Y63760D01*
X89424Y63677D01*
X89463Y63577D01*
X89512Y63482D01*
X89568Y63393D01*
X89635Y63316D01*
X89646Y63310D01*
X89668Y63288D01*
X89712Y63260D01*
X89768Y63232D01*
X89834Y63199D01*
X89918Y63171D01*
X90012Y63149D01*
X90112Y63144D01*
X90145D01*
X90167Y63149D01*
X90228Y63155D01*
X90306Y63171D01*
X90395Y63199D01*
X90489Y63238D01*
X90584Y63293D01*
X90672Y63371D01*
X90684Y63382D01*
X90711Y63416D01*
X90745Y63466D01*
X90789Y63532D01*
X90833Y63615D01*
X90867Y63710D01*
X90895Y63821D01*
X90906Y63943D01*
Y63948D01*
Y63959D01*
Y63976D01*
X90900Y63998D01*
X90895Y64059D01*
X90878Y64132D01*
X90856Y64220D01*
X90817Y64309D01*
X90761Y64398D01*
X90689Y64481D01*
X90678Y64492D01*
X90650Y64514D01*
X90606Y64548D01*
X90545Y64587D01*
X90467Y64626D01*
X90373Y64659D01*
X90267Y64681D01*
X90151Y64692D01*
X90101D01*
X90062Y64687D01*
X90012Y64681D01*
X89957Y64670D01*
X89890Y64659D01*
X89818Y64642D01*
X89873Y65058D01*
X89901D01*
X89923Y65053D01*
X89995D01*
X90056Y65064D01*
X90129Y65075D01*
X90212Y65092D01*
X90306Y65119D01*
X90395Y65158D01*
X90489Y65208D01*
X90495D01*
X90500Y65214D01*
X90528Y65236D01*
X90567Y65275D01*
X90611Y65325D01*
X90656Y65397D01*
X90695Y65480D01*
X90723Y65575D01*
X90734Y65630D01*
Y65691D01*
Y65697D01*
Y65702D01*
Y65736D01*
X90723Y65780D01*
X90711Y65841D01*
X90689Y65908D01*
X90661Y65980D01*
X90617Y66052D01*
X90556Y66119D01*
X90550Y66124D01*
X90523Y66146D01*
X90484Y66174D01*
X90434Y66207D01*
X90367Y66235D01*
X90289Y66263D01*
X90201Y66285D01*
X90101Y66290D01*
X90056D01*
X90007Y66279D01*
X89940Y66268D01*
X89868Y66246D01*
X89796Y66218D01*
X89718Y66174D01*
X89646Y66119D01*
X89640Y66113D01*
X89618Y66085D01*
X89585Y66046D01*
X89546Y65991D01*
X89507Y65919D01*
X89468Y65830D01*
X89435Y65724D01*
X89413Y65602D01*
X88941Y65686D01*
Y65691D01*
X88946Y65708D01*
X88952Y65730D01*
X88958Y65763D01*
X88969Y65802D01*
X88985Y65847D01*
X89019Y65952D01*
X89074Y66074D01*
X89141Y66196D01*
X89224Y66313D01*
X89329Y66418D01*
X89335Y66424D01*
X89346Y66429D01*
X89363Y66440D01*
X89385Y66457D01*
X89413Y66479D01*
X89451Y66501D01*
X89490Y66524D01*
X89540Y66551D01*
X89651Y66596D01*
X89779Y66640D01*
X89929Y66668D01*
X90007Y66679D01*
X90145D01*
X90206Y66673D01*
D02*
G37*
G36*
X86782Y66657D02*
X86893Y66651D01*
X87004Y66640D01*
X87115Y66624D01*
X87209Y66607D01*
X87215D01*
X87226Y66601D01*
X87243D01*
X87265Y66590D01*
X87326Y66574D01*
X87404Y66546D01*
X87492Y66507D01*
X87587Y66457D01*
X87681Y66401D01*
X87770Y66329D01*
X87775Y66324D01*
X87781Y66318D01*
X87798Y66302D01*
X87820Y66285D01*
X87875Y66229D01*
X87942Y66152D01*
X88014Y66057D01*
X88092Y65946D01*
X88164Y65819D01*
X88225Y65675D01*
Y65669D01*
X88231Y65658D01*
X88242Y65636D01*
X88247Y65602D01*
X88264Y65563D01*
X88275Y65519D01*
X88286Y65469D01*
X88303Y65408D01*
X88319Y65347D01*
X88330Y65275D01*
X88358Y65119D01*
X88375Y64947D01*
X88380Y64759D01*
Y64753D01*
Y64742D01*
Y64714D01*
Y64687D01*
X88375Y64648D01*
Y64603D01*
X88369Y64498D01*
X88353Y64376D01*
X88336Y64248D01*
X88308Y64115D01*
X88275Y63982D01*
Y63976D01*
X88269Y63965D01*
X88264Y63948D01*
X88258Y63926D01*
X88236Y63865D01*
X88203Y63788D01*
X88169Y63699D01*
X88125Y63610D01*
X88070Y63516D01*
X88014Y63427D01*
X88008Y63416D01*
X87986Y63388D01*
X87953Y63349D01*
X87909Y63299D01*
X87859Y63244D01*
X87798Y63188D01*
X87736Y63127D01*
X87664Y63077D01*
X87653Y63072D01*
X87631Y63055D01*
X87592Y63033D01*
X87537Y63005D01*
X87470Y62972D01*
X87392Y62944D01*
X87304Y62911D01*
X87204Y62883D01*
X87193D01*
X87176Y62877D01*
X87159Y62872D01*
X87104Y62866D01*
X87026Y62855D01*
X86937Y62844D01*
X86832Y62833D01*
X86715Y62827D01*
X86588Y62822D01*
X85206D01*
Y66662D01*
X86682D01*
X86782Y66657D01*
D02*
G37*
G36*
X63225Y-85706D02*
X63327Y-85716D01*
X63447Y-85725D01*
X63567Y-85743D01*
X63706Y-85762D01*
X64002Y-85826D01*
X64150Y-85873D01*
X64298Y-85919D01*
X64446Y-85984D01*
X64584Y-86058D01*
X64714Y-86141D01*
X64834Y-86234D01*
X64843Y-86243D01*
X64862Y-86261D01*
X64890Y-86289D01*
X64927Y-86326D01*
X64973Y-86382D01*
X65029Y-86446D01*
X65084Y-86520D01*
X65149Y-86603D01*
X65204Y-86705D01*
X65260Y-86807D01*
X65315Y-86927D01*
X65361Y-87057D01*
X65408Y-87186D01*
X65445Y-87334D01*
X65473Y-87482D01*
X65482Y-87649D01*
X64187Y-87695D01*
Y-87686D01*
Y-87677D01*
X64168Y-87612D01*
X64150Y-87529D01*
X64113Y-87427D01*
X64066Y-87306D01*
X64002Y-87195D01*
X63919Y-87085D01*
X63826Y-86992D01*
X63817Y-86983D01*
X63780Y-86955D01*
X63715Y-86918D01*
X63622Y-86881D01*
X63512Y-86844D01*
X63373Y-86807D01*
X63206Y-86779D01*
X63012Y-86770D01*
X62919D01*
X62818Y-86779D01*
X62697Y-86798D01*
X62559Y-86826D01*
X62411Y-86872D01*
X62272Y-86927D01*
X62142Y-87011D01*
X62133Y-87020D01*
X62115Y-87038D01*
X62078Y-87066D01*
X62041Y-87112D01*
X62004Y-87168D01*
X61967Y-87242D01*
X61948Y-87316D01*
X61939Y-87408D01*
Y-87418D01*
Y-87445D01*
X61948Y-87492D01*
X61967Y-87538D01*
X61985Y-87603D01*
X62013Y-87667D01*
X62059Y-87732D01*
X62124Y-87797D01*
X62133Y-87806D01*
X62179Y-87834D01*
X62207Y-87852D01*
X62253Y-87871D01*
X62300Y-87898D01*
X62365Y-87926D01*
X62438Y-87954D01*
X62522Y-87991D01*
X62624Y-88028D01*
X62725Y-88065D01*
X62855Y-88102D01*
X62994Y-88139D01*
X63142Y-88176D01*
X63308Y-88222D01*
X63317D01*
X63354Y-88231D01*
X63401Y-88241D01*
X63465Y-88259D01*
X63539Y-88278D01*
X63632Y-88305D01*
X63734Y-88333D01*
X63835Y-88361D01*
X64057Y-88435D01*
X64289Y-88509D01*
X64511Y-88592D01*
X64603Y-88639D01*
X64696Y-88685D01*
X64705D01*
X64714Y-88694D01*
X64770Y-88731D01*
X64853Y-88787D01*
X64955Y-88860D01*
X65065Y-88953D01*
X65186Y-89064D01*
X65306Y-89193D01*
X65408Y-89341D01*
X65417Y-89360D01*
X65445Y-89416D01*
X65491Y-89499D01*
X65537Y-89619D01*
X65583Y-89767D01*
X65630Y-89943D01*
X65658Y-90137D01*
X65667Y-90359D01*
Y-90368D01*
Y-90387D01*
Y-90415D01*
Y-90452D01*
X65658Y-90498D01*
X65648Y-90562D01*
X65630Y-90692D01*
X65593Y-90859D01*
X65537Y-91034D01*
X65454Y-91210D01*
X65352Y-91395D01*
Y-91404D01*
X65334Y-91413D01*
X65297Y-91469D01*
X65223Y-91562D01*
X65130Y-91663D01*
X65010Y-91783D01*
X64853Y-91895D01*
X64686Y-92005D01*
X64483Y-92107D01*
X64473D01*
X64455Y-92116D01*
X64427Y-92126D01*
X64381Y-92144D01*
X64325Y-92163D01*
X64261Y-92181D01*
X64187Y-92200D01*
X64104Y-92218D01*
X64002Y-92246D01*
X63900Y-92264D01*
X63660Y-92301D01*
X63391Y-92329D01*
X63095Y-92339D01*
X62975D01*
X62892Y-92329D01*
X62790Y-92320D01*
X62679Y-92311D01*
X62550Y-92292D01*
X62411Y-92264D01*
X62106Y-92200D01*
X61948Y-92154D01*
X61800Y-92107D01*
X61643Y-92042D01*
X61495Y-91969D01*
X61356Y-91885D01*
X61227Y-91783D01*
X61217Y-91774D01*
X61199Y-91756D01*
X61162Y-91728D01*
X61125Y-91682D01*
X61070Y-91617D01*
X61014Y-91543D01*
X60949Y-91460D01*
X60884Y-91367D01*
X60820Y-91256D01*
X60755Y-91136D01*
X60690Y-90997D01*
X60625Y-90849D01*
X60579Y-90692D01*
X60524Y-90516D01*
X60487Y-90331D01*
X60459Y-90137D01*
X61717Y-90017D01*
Y-90026D01*
X61726Y-90044D01*
Y-90082D01*
X61735Y-90118D01*
X61773Y-90229D01*
X61819Y-90368D01*
X61874Y-90526D01*
X61958Y-90683D01*
X62050Y-90821D01*
X62170Y-90951D01*
X62189Y-90960D01*
X62235Y-90997D01*
X62309Y-91044D01*
X62420Y-91099D01*
X62559Y-91154D01*
X62716Y-91201D01*
X62901Y-91238D01*
X63114Y-91247D01*
X63216D01*
X63327Y-91228D01*
X63465Y-91210D01*
X63613Y-91182D01*
X63771Y-91136D01*
X63919Y-91071D01*
X64048Y-90988D01*
X64066Y-90979D01*
X64104Y-90942D01*
X64150Y-90886D01*
X64214Y-90812D01*
X64270Y-90720D01*
X64325Y-90609D01*
X64363Y-90498D01*
X64372Y-90368D01*
Y-90359D01*
Y-90331D01*
X64363Y-90285D01*
X64353Y-90229D01*
X64335Y-90174D01*
X64316Y-90109D01*
X64279Y-90044D01*
X64233Y-89980D01*
X64224Y-89970D01*
X64205Y-89952D01*
X64178Y-89924D01*
X64131Y-89887D01*
X64066Y-89841D01*
X63983Y-89795D01*
X63891Y-89749D01*
X63771Y-89702D01*
X63761D01*
X63724Y-89684D01*
X63660Y-89665D01*
X63613Y-89647D01*
X63558Y-89638D01*
X63493Y-89619D01*
X63419Y-89591D01*
X63336Y-89573D01*
X63243Y-89545D01*
X63132Y-89517D01*
X63012Y-89490D01*
X62883Y-89452D01*
X62735Y-89416D01*
X62725D01*
X62688Y-89406D01*
X62633Y-89388D01*
X62568Y-89369D01*
X62485Y-89341D01*
X62383Y-89314D01*
X62281Y-89277D01*
X62161Y-89240D01*
X61920Y-89147D01*
X61689Y-89036D01*
X61569Y-88981D01*
X61467Y-88916D01*
X61365Y-88851D01*
X61282Y-88787D01*
X61273Y-88777D01*
X61255Y-88759D01*
X61227Y-88731D01*
X61190Y-88694D01*
X61143Y-88639D01*
X61097Y-88574D01*
X61042Y-88509D01*
X60996Y-88426D01*
X60884Y-88231D01*
X60792Y-88010D01*
X60755Y-87889D01*
X60727Y-87769D01*
X60709Y-87630D01*
X60699Y-87492D01*
Y-87482D01*
Y-87473D01*
Y-87445D01*
Y-87408D01*
X60718Y-87316D01*
X60737Y-87195D01*
X60764Y-87057D01*
X60811Y-86900D01*
X60875Y-86733D01*
X60968Y-86576D01*
Y-86567D01*
X60977Y-86557D01*
X61023Y-86502D01*
X61079Y-86428D01*
X61171Y-86335D01*
X61282Y-86234D01*
X61421Y-86123D01*
X61578Y-86021D01*
X61763Y-85928D01*
X61773D01*
X61791Y-85919D01*
X61819Y-85910D01*
X61856Y-85891D01*
X61911Y-85873D01*
X61967Y-85854D01*
X62041Y-85836D01*
X62124Y-85808D01*
X62309Y-85771D01*
X62522Y-85734D01*
X62762Y-85706D01*
X63030Y-85697D01*
X63142D01*
X63225Y-85706D01*
D02*
G37*
G36*
X42847Y-85706D02*
X42949Y-85716D01*
X43069Y-85725D01*
X43189Y-85743D01*
X43328Y-85762D01*
X43624Y-85826D01*
X43772Y-85873D01*
X43920Y-85919D01*
X44068Y-85984D01*
X44207Y-86058D01*
X44336Y-86141D01*
X44456Y-86234D01*
X44466Y-86243D01*
X44484Y-86261D01*
X44512Y-86289D01*
X44549Y-86326D01*
X44595Y-86382D01*
X44651Y-86446D01*
X44706Y-86520D01*
X44771Y-86603D01*
X44826Y-86705D01*
X44882Y-86807D01*
X44938Y-86927D01*
X44984Y-87057D01*
X45030Y-87186D01*
X45067Y-87334D01*
X45095Y-87482D01*
X45104Y-87649D01*
X43809Y-87695D01*
Y-87686D01*
Y-87677D01*
X43791Y-87612D01*
X43772Y-87529D01*
X43735Y-87427D01*
X43689Y-87306D01*
X43624Y-87195D01*
X43541Y-87085D01*
X43448Y-86992D01*
X43439Y-86983D01*
X43402Y-86955D01*
X43337Y-86918D01*
X43245Y-86881D01*
X43134Y-86844D01*
X42995Y-86807D01*
X42829Y-86779D01*
X42634Y-86770D01*
X42542D01*
X42440Y-86779D01*
X42320Y-86798D01*
X42181Y-86826D01*
X42033Y-86872D01*
X41894Y-86927D01*
X41765Y-87011D01*
X41756Y-87020D01*
X41737Y-87038D01*
X41700Y-87066D01*
X41663Y-87112D01*
X41626Y-87168D01*
X41589Y-87242D01*
X41570Y-87316D01*
X41561Y-87408D01*
Y-87418D01*
Y-87445D01*
X41570Y-87492D01*
X41589Y-87538D01*
X41607Y-87603D01*
X41635Y-87667D01*
X41682Y-87732D01*
X41746Y-87797D01*
X41756Y-87806D01*
X41802Y-87834D01*
X41829Y-87852D01*
X41876Y-87871D01*
X41922Y-87898D01*
X41987Y-87926D01*
X42061Y-87954D01*
X42144Y-87991D01*
X42246Y-88028D01*
X42347Y-88065D01*
X42477Y-88102D01*
X42616Y-88139D01*
X42764Y-88176D01*
X42930Y-88222D01*
X42939D01*
X42976Y-88231D01*
X43023Y-88241D01*
X43088Y-88259D01*
X43161Y-88278D01*
X43254Y-88305D01*
X43356Y-88333D01*
X43457Y-88361D01*
X43679Y-88435D01*
X43911Y-88509D01*
X44133Y-88592D01*
X44225Y-88639D01*
X44318Y-88685D01*
X44327D01*
X44336Y-88694D01*
X44392Y-88731D01*
X44475Y-88787D01*
X44577Y-88860D01*
X44688Y-88953D01*
X44808Y-89064D01*
X44928Y-89193D01*
X45030Y-89341D01*
X45039Y-89360D01*
X45067Y-89416D01*
X45113Y-89499D01*
X45160Y-89619D01*
X45206Y-89767D01*
X45252Y-89943D01*
X45280Y-90137D01*
X45289Y-90359D01*
Y-90368D01*
Y-90387D01*
Y-90415D01*
Y-90452D01*
X45280Y-90498D01*
X45270Y-90562D01*
X45252Y-90692D01*
X45215Y-90859D01*
X45160Y-91034D01*
X45076Y-91210D01*
X44974Y-91395D01*
Y-91404D01*
X44956Y-91413D01*
X44919Y-91469D01*
X44845Y-91562D01*
X44752Y-91663D01*
X44632Y-91783D01*
X44475Y-91895D01*
X44309Y-92005D01*
X44105Y-92107D01*
X44096D01*
X44077Y-92116D01*
X44050Y-92126D01*
X44003Y-92144D01*
X43948Y-92163D01*
X43883Y-92181D01*
X43809Y-92200D01*
X43726Y-92218D01*
X43624Y-92246D01*
X43522Y-92264D01*
X43282Y-92301D01*
X43014Y-92329D01*
X42717Y-92339D01*
X42597D01*
X42514Y-92329D01*
X42412Y-92320D01*
X42301Y-92311D01*
X42172Y-92292D01*
X42033Y-92264D01*
X41728Y-92200D01*
X41570Y-92154D01*
X41423Y-92107D01*
X41265Y-92042D01*
X41117Y-91969D01*
X40979Y-91885D01*
X40849Y-91783D01*
X40840Y-91774D01*
X40821Y-91756D01*
X40784Y-91728D01*
X40747Y-91682D01*
X40692Y-91617D01*
X40636Y-91543D01*
X40571Y-91460D01*
X40507Y-91367D01*
X40442Y-91256D01*
X40377Y-91136D01*
X40312Y-90997D01*
X40248Y-90849D01*
X40202Y-90692D01*
X40146Y-90516D01*
X40109Y-90331D01*
X40081Y-90137D01*
X41339Y-90017D01*
Y-90026D01*
X41348Y-90044D01*
Y-90082D01*
X41358Y-90118D01*
X41395Y-90229D01*
X41441Y-90368D01*
X41497Y-90526D01*
X41580Y-90683D01*
X41672Y-90821D01*
X41793Y-90951D01*
X41811Y-90960D01*
X41857Y-90997D01*
X41931Y-91044D01*
X42042Y-91099D01*
X42181Y-91154D01*
X42338Y-91201D01*
X42523Y-91238D01*
X42736Y-91247D01*
X42838D01*
X42949Y-91228D01*
X43088Y-91210D01*
X43235Y-91182D01*
X43393Y-91136D01*
X43541Y-91071D01*
X43670Y-90988D01*
X43689Y-90979D01*
X43726Y-90942D01*
X43772Y-90886D01*
X43837Y-90812D01*
X43892Y-90720D01*
X43948Y-90609D01*
X43985Y-90498D01*
X43994Y-90368D01*
Y-90359D01*
Y-90331D01*
X43985Y-90285D01*
X43975Y-90229D01*
X43957Y-90174D01*
X43938Y-90109D01*
X43902Y-90044D01*
X43855Y-89980D01*
X43846Y-89970D01*
X43828Y-89952D01*
X43800Y-89924D01*
X43753Y-89887D01*
X43689Y-89841D01*
X43606Y-89795D01*
X43513Y-89749D01*
X43393Y-89702D01*
X43383D01*
X43347Y-89684D01*
X43282Y-89665D01*
X43235Y-89647D01*
X43180Y-89638D01*
X43115Y-89619D01*
X43041Y-89591D01*
X42958Y-89573D01*
X42865Y-89545D01*
X42755Y-89517D01*
X42634Y-89490D01*
X42505Y-89452D01*
X42357Y-89416D01*
X42347D01*
X42311Y-89406D01*
X42255Y-89388D01*
X42190Y-89369D01*
X42107Y-89341D01*
X42005Y-89314D01*
X41903Y-89277D01*
X41783Y-89240D01*
X41543Y-89147D01*
X41311Y-89036D01*
X41191Y-88981D01*
X41089Y-88916D01*
X40988Y-88851D01*
X40905Y-88787D01*
X40895Y-88777D01*
X40877Y-88759D01*
X40849Y-88731D01*
X40812Y-88694D01*
X40766Y-88639D01*
X40720Y-88574D01*
X40664Y-88509D01*
X40618Y-88426D01*
X40507Y-88231D01*
X40414Y-88010D01*
X40377Y-87889D01*
X40350Y-87769D01*
X40331Y-87630D01*
X40322Y-87492D01*
Y-87482D01*
Y-87473D01*
Y-87445D01*
Y-87408D01*
X40340Y-87316D01*
X40359Y-87195D01*
X40387Y-87057D01*
X40433Y-86900D01*
X40497Y-86733D01*
X40590Y-86576D01*
Y-86567D01*
X40599Y-86557D01*
X40646Y-86502D01*
X40701Y-86428D01*
X40793Y-86335D01*
X40905Y-86234D01*
X41043Y-86123D01*
X41201Y-86021D01*
X41385Y-85928D01*
X41395D01*
X41413Y-85919D01*
X41441Y-85910D01*
X41478Y-85891D01*
X41533Y-85873D01*
X41589Y-85854D01*
X41663Y-85836D01*
X41746Y-85808D01*
X41931Y-85771D01*
X42144Y-85734D01*
X42384Y-85706D01*
X42653Y-85697D01*
X42764D01*
X42847Y-85706D01*
D02*
G37*
G36*
X69718Y-85706D02*
X69820Y-85716D01*
X69931Y-85734D01*
X70060Y-85752D01*
X70199Y-85780D01*
X70347Y-85817D01*
X70504Y-85864D01*
X70662Y-85919D01*
X70828Y-85993D01*
X70986Y-86067D01*
X71134Y-86159D01*
X71291Y-86270D01*
X71430Y-86391D01*
X71439D01*
X71448Y-86409D01*
X71476Y-86437D01*
X71504Y-86465D01*
X71540Y-86511D01*
X71578Y-86567D01*
X71679Y-86696D01*
X71781Y-86862D01*
X71892Y-87066D01*
X71994Y-87297D01*
X72086Y-87565D01*
X70810Y-87871D01*
Y-87862D01*
X70801Y-87852D01*
Y-87824D01*
X70782Y-87787D01*
X70754Y-87704D01*
X70708Y-87593D01*
X70643Y-87464D01*
X70560Y-87334D01*
X70449Y-87205D01*
X70329Y-87094D01*
X70310Y-87085D01*
X70264Y-87047D01*
X70190Y-87001D01*
X70088Y-86946D01*
X69959Y-86890D01*
X69811Y-86844D01*
X69644Y-86807D01*
X69459Y-86798D01*
X69394D01*
X69339Y-86807D01*
X69283Y-86816D01*
X69209Y-86826D01*
X69052Y-86862D01*
X68867Y-86927D01*
X68673Y-87020D01*
X68571Y-87075D01*
X68479Y-87140D01*
X68386Y-87223D01*
X68303Y-87316D01*
Y-87325D01*
X68284Y-87344D01*
X68266Y-87371D01*
X68238Y-87418D01*
X68201Y-87473D01*
X68164Y-87538D01*
X68127Y-87621D01*
X68090Y-87713D01*
X68044Y-87824D01*
X68007Y-87945D01*
X67970Y-88083D01*
X67933Y-88231D01*
X67905Y-88398D01*
X67887Y-88574D01*
X67878Y-88768D01*
X67868Y-88981D01*
Y-88990D01*
Y-89036D01*
Y-89101D01*
X67878Y-89175D01*
Y-89277D01*
X67896Y-89397D01*
X67905Y-89517D01*
X67924Y-89656D01*
X67979Y-89943D01*
X68053Y-90229D01*
X68099Y-90368D01*
X68164Y-90498D01*
X68229Y-90618D01*
X68303Y-90720D01*
X68312Y-90729D01*
X68322Y-90738D01*
X68349Y-90766D01*
X68386Y-90803D01*
X68479Y-90877D01*
X68608Y-90970D01*
X68765Y-91071D01*
X68960Y-91145D01*
X69182Y-91210D01*
X69302Y-91219D01*
X69432Y-91228D01*
X69478D01*
X69515Y-91219D01*
X69617Y-91210D01*
X69737Y-91192D01*
X69866Y-91145D01*
X70014Y-91090D01*
X70162Y-91016D01*
X70310Y-90905D01*
X70329Y-90886D01*
X70375Y-90840D01*
X70440Y-90766D01*
X70514Y-90655D01*
X70606Y-90507D01*
X70689Y-90331D01*
X70773Y-90118D01*
X70847Y-89869D01*
X72105Y-90257D01*
Y-90267D01*
X72096Y-90303D01*
X72077Y-90359D01*
X72049Y-90433D01*
X72012Y-90516D01*
X71975Y-90618D01*
X71929Y-90729D01*
X71873Y-90849D01*
X71744Y-91099D01*
X71578Y-91358D01*
X71374Y-91608D01*
X71263Y-91719D01*
X71143Y-91821D01*
X71134Y-91830D01*
X71115Y-91839D01*
X71078Y-91867D01*
X71022Y-91904D01*
X70958Y-91941D01*
X70875Y-91978D01*
X70782Y-92024D01*
X70680Y-92070D01*
X70560Y-92126D01*
X70430Y-92172D01*
X70292Y-92209D01*
X70144Y-92246D01*
X69986Y-92283D01*
X69811Y-92311D01*
X69635Y-92320D01*
X69441Y-92329D01*
X69385D01*
X69320Y-92320D01*
X69228Y-92311D01*
X69126Y-92301D01*
X68997Y-92283D01*
X68858Y-92255D01*
X68701Y-92218D01*
X68543Y-92172D01*
X68377Y-92116D01*
X68201Y-92042D01*
X68025Y-91959D01*
X67850Y-91867D01*
X67674Y-91746D01*
X67507Y-91617D01*
X67350Y-91460D01*
X67341Y-91451D01*
X67313Y-91423D01*
X67276Y-91367D01*
X67221Y-91303D01*
X67165Y-91210D01*
X67091Y-91108D01*
X67017Y-90979D01*
X66943Y-90831D01*
X66869Y-90674D01*
X66795Y-90498D01*
X66721Y-90294D01*
X66666Y-90082D01*
X66610Y-89859D01*
X66573Y-89610D01*
X66545Y-89351D01*
X66536Y-89073D01*
Y-89064D01*
Y-89055D01*
Y-88999D01*
X66545Y-88916D01*
Y-88805D01*
X66564Y-88675D01*
X66583Y-88518D01*
X66601Y-88352D01*
X66638Y-88157D01*
X66684Y-87963D01*
X66740Y-87760D01*
X66804Y-87556D01*
X66888Y-87344D01*
X66980Y-87140D01*
X67091Y-86946D01*
X67212Y-86761D01*
X67360Y-86585D01*
X67369Y-86576D01*
X67396Y-86548D01*
X67443Y-86502D01*
X67507Y-86446D01*
X67591Y-86382D01*
X67693Y-86308D01*
X67804Y-86224D01*
X67942Y-86141D01*
X68090Y-86058D01*
X68247Y-85975D01*
X68432Y-85900D01*
X68617Y-85836D01*
X68830Y-85780D01*
X69043Y-85734D01*
X69283Y-85706D01*
X69524Y-85697D01*
X69635D01*
X69718Y-85706D01*
D02*
G37*
G36*
X57582Y-88315D02*
X60126Y-92218D01*
X58452D01*
X56685Y-89212D01*
X55640Y-90285D01*
Y-92218D01*
X54345D01*
Y-85817D01*
X55640D01*
Y-88666D01*
X58267Y-85817D01*
X60006D01*
X57582Y-88315D01*
D02*
G37*
G36*
X96701Y-92218D02*
X95406D01*
X92806Y-88000D01*
Y-92218D01*
X91613D01*
Y-85817D01*
X92862D01*
X95507Y-90128D01*
Y-85817D01*
X96701D01*
Y-92218D01*
D02*
G37*
G36*
X90392Y-86900D02*
X86942D01*
Y-88315D01*
X90152D01*
Y-89397D01*
X86942D01*
Y-91136D01*
X90512D01*
Y-92218D01*
X85647D01*
Y-85817D01*
X90392D01*
Y-86900D01*
D02*
G37*
G36*
X84426D02*
X80976D01*
Y-88315D01*
X84185D01*
Y-89397D01*
X80976D01*
Y-91136D01*
X84546D01*
Y-92218D01*
X79681D01*
Y-85817D01*
X84426D01*
Y-86900D01*
D02*
G37*
G36*
X76193Y-85826D02*
X76295D01*
X76397Y-85836D01*
X76517D01*
X76758Y-85864D01*
X77007Y-85891D01*
X77239Y-85938D01*
X77340Y-85965D01*
X77433Y-85993D01*
X77442D01*
X77451Y-86002D01*
X77507Y-86030D01*
X77590Y-86076D01*
X77701Y-86132D01*
X77821Y-86224D01*
X77942Y-86326D01*
X78062Y-86456D01*
X78173Y-86613D01*
Y-86622D01*
X78182Y-86631D01*
X78201Y-86659D01*
X78219Y-86687D01*
X78265Y-86779D01*
X78321Y-86900D01*
X78367Y-87047D01*
X78413Y-87214D01*
X78450Y-87408D01*
X78460Y-87612D01*
Y-87621D01*
Y-87639D01*
Y-87686D01*
X78450Y-87732D01*
Y-87797D01*
X78441Y-87862D01*
X78404Y-88028D01*
X78358Y-88222D01*
X78284Y-88416D01*
X78173Y-88620D01*
X78108Y-88713D01*
X78034Y-88805D01*
X78025Y-88814D01*
X78016Y-88823D01*
X77988Y-88851D01*
X77951Y-88879D01*
X77914Y-88916D01*
X77858Y-88962D01*
X77794Y-89008D01*
X77719Y-89055D01*
X77636Y-89110D01*
X77535Y-89157D01*
X77433Y-89203D01*
X77322Y-89249D01*
X77192Y-89295D01*
X77063Y-89332D01*
X76924Y-89369D01*
X76767Y-89397D01*
X76776D01*
X76785Y-89406D01*
X76841Y-89443D01*
X76915Y-89490D01*
X77007Y-89554D01*
X77118Y-89638D01*
X77229Y-89721D01*
X77350Y-89823D01*
X77451Y-89934D01*
X77460Y-89943D01*
X77507Y-89989D01*
X77562Y-90063D01*
X77645Y-90174D01*
X77757Y-90313D01*
X77812Y-90405D01*
X77877Y-90498D01*
X77951Y-90600D01*
X78025Y-90711D01*
X78108Y-90840D01*
X78191Y-90970D01*
X78978Y-92218D01*
X77424D01*
X76499Y-90831D01*
X76489Y-90821D01*
X76480Y-90794D01*
X76452Y-90757D01*
X76415Y-90711D01*
X76378Y-90655D01*
X76332Y-90581D01*
X76230Y-90433D01*
X76110Y-90267D01*
X75999Y-90118D01*
X75897Y-89980D01*
X75851Y-89934D01*
X75814Y-89887D01*
X75805Y-89878D01*
X75786Y-89859D01*
X75749Y-89823D01*
X75703Y-89776D01*
X75638Y-89739D01*
X75573Y-89693D01*
X75499Y-89656D01*
X75425Y-89619D01*
X75416D01*
X75388Y-89610D01*
X75342Y-89591D01*
X75268Y-89582D01*
X75176Y-89564D01*
X75065Y-89554D01*
X74935Y-89545D01*
X74519D01*
Y-92218D01*
X73224D01*
Y-85817D01*
X76110D01*
X76193Y-85826D01*
D02*
G37*
G36*
X50201Y-91136D02*
X53420D01*
Y-92218D01*
X48906D01*
Y-85864D01*
X50201D01*
Y-91136D01*
D02*
G37*
G36*
X47638Y-92218D02*
X46343D01*
Y-85817D01*
X47638D01*
Y-92218D01*
D02*
G37*
G36*
X34429Y-85826D02*
X34670D01*
X34929Y-85845D01*
X35188Y-85864D01*
X35299Y-85873D01*
X35410Y-85882D01*
X35502Y-85900D01*
X35577Y-85919D01*
X35586D01*
X35604Y-85928D01*
X35632Y-85938D01*
X35669Y-85947D01*
X35771Y-85993D01*
X35900Y-86049D01*
X36039Y-86132D01*
X36196Y-86243D01*
X36344Y-86382D01*
X36492Y-86548D01*
Y-86557D01*
X36511Y-86567D01*
X36529Y-86594D01*
X36548Y-86631D01*
X36585Y-86687D01*
X36612Y-86742D01*
X36650Y-86807D01*
X36687Y-86881D01*
X36751Y-87066D01*
X36816Y-87270D01*
X36853Y-87519D01*
X36871Y-87787D01*
Y-87797D01*
Y-87815D01*
Y-87843D01*
Y-87889D01*
X36862Y-87936D01*
Y-88000D01*
X36844Y-88130D01*
X36816Y-88287D01*
X36779Y-88463D01*
X36724Y-88629D01*
X36650Y-88787D01*
X36640Y-88805D01*
X36612Y-88851D01*
X36566Y-88925D01*
X36502Y-89018D01*
X36428Y-89110D01*
X36326Y-89221D01*
X36224Y-89323D01*
X36104Y-89416D01*
X36085Y-89425D01*
X36048Y-89452D01*
X35983Y-89490D01*
X35900Y-89536D01*
X35798Y-89591D01*
X35688Y-89638D01*
X35567Y-89684D01*
X35438Y-89721D01*
X35419D01*
X35392Y-89730D01*
X35355D01*
X35308Y-89739D01*
X35243Y-89749D01*
X35179Y-89758D01*
X35096D01*
X35012Y-89767D01*
X34911Y-89776D01*
X34800Y-89785D01*
X34679Y-89795D01*
X34550D01*
X34411Y-89804D01*
X33264D01*
Y-92218D01*
X31969D01*
Y-85817D01*
X34328D01*
X34429Y-85826D01*
D02*
G37*
G36*
X24171Y-86900D02*
X22284D01*
Y-92218D01*
X20989D01*
Y-86900D01*
X19093D01*
Y-85817D01*
X24171D01*
Y-86900D01*
D02*
G37*
G36*
X27973Y-85706D02*
X28065D01*
X28186Y-85725D01*
X28324Y-85743D01*
X28482Y-85771D01*
X28648Y-85808D01*
X28824Y-85854D01*
X29009Y-85910D01*
X29194Y-85984D01*
X29388Y-86067D01*
X29573Y-86169D01*
X29758Y-86289D01*
X29934Y-86428D01*
X30101Y-86585D01*
X30110Y-86594D01*
X30138Y-86622D01*
X30184Y-86677D01*
X30230Y-86742D01*
X30295Y-86835D01*
X30369Y-86946D01*
X30443Y-87075D01*
X30526Y-87223D01*
X30609Y-87380D01*
X30683Y-87565D01*
X30757Y-87769D01*
X30822Y-87982D01*
X30878Y-88222D01*
X30915Y-88472D01*
X30942Y-88740D01*
X30951Y-89027D01*
Y-89046D01*
Y-89092D01*
X30942Y-89175D01*
Y-89286D01*
X30924Y-89416D01*
X30905Y-89564D01*
X30878Y-89739D01*
X30850Y-89915D01*
X30803Y-90109D01*
X30748Y-90313D01*
X30674Y-90516D01*
X30591Y-90720D01*
X30498Y-90914D01*
X30378Y-91108D01*
X30248Y-91293D01*
X30101Y-91469D01*
X30091Y-91478D01*
X30064Y-91506D01*
X30017Y-91552D01*
X29943Y-91608D01*
X29860Y-91672D01*
X29758Y-91746D01*
X29638Y-91821D01*
X29509Y-91904D01*
X29351Y-91987D01*
X29185Y-92061D01*
X29000Y-92135D01*
X28796Y-92200D01*
X28583Y-92255D01*
X28352Y-92301D01*
X28112Y-92329D01*
X27853Y-92339D01*
X27788D01*
X27714Y-92329D01*
X27621Y-92320D01*
X27501Y-92311D01*
X27362Y-92292D01*
X27205Y-92264D01*
X27039Y-92228D01*
X26854Y-92181D01*
X26678Y-92126D01*
X26484Y-92052D01*
X26299Y-91969D01*
X26105Y-91876D01*
X25929Y-91756D01*
X25753Y-91626D01*
X25587Y-91469D01*
X25577Y-91460D01*
X25550Y-91432D01*
X25512Y-91377D01*
X25457Y-91312D01*
X25392Y-91219D01*
X25318Y-91108D01*
X25244Y-90988D01*
X25170Y-90840D01*
X25087Y-90683D01*
X25013Y-90498D01*
X24939Y-90303D01*
X24874Y-90091D01*
X24819Y-89859D01*
X24782Y-89610D01*
X24754Y-89341D01*
X24745Y-89064D01*
Y-89055D01*
Y-89018D01*
Y-88972D01*
X24754Y-88898D01*
Y-88814D01*
X24763Y-88722D01*
X24772Y-88611D01*
X24782Y-88490D01*
X24819Y-88231D01*
X24865Y-87954D01*
X24939Y-87677D01*
X25032Y-87418D01*
Y-87408D01*
X25041Y-87399D01*
X25059Y-87371D01*
X25069Y-87334D01*
X25124Y-87242D01*
X25189Y-87121D01*
X25272Y-86983D01*
X25374Y-86844D01*
X25494Y-86687D01*
X25624Y-86539D01*
X25633Y-86529D01*
X25642Y-86520D01*
X25688Y-86474D01*
X25771Y-86400D01*
X25873Y-86317D01*
X25993Y-86224D01*
X26132Y-86123D01*
X26289Y-86030D01*
X26456Y-85956D01*
X26465D01*
X26484Y-85947D01*
X26521Y-85928D01*
X26567Y-85919D01*
X26623Y-85891D01*
X26687Y-85873D01*
X26770Y-85854D01*
X26854Y-85826D01*
X27057Y-85780D01*
X27288Y-85734D01*
X27557Y-85706D01*
X27834Y-85697D01*
X27899D01*
X27973Y-85706D01*
D02*
G37*
G36*
X107038Y73459D02*
X107066D01*
X107105Y73453D01*
X107199Y73437D01*
X107305Y73414D01*
X107421Y73375D01*
X107538Y73326D01*
X107654Y73259D01*
X107660D01*
X107665Y73248D01*
X107682Y73237D01*
X107704Y73220D01*
X107760Y73176D01*
X107832Y73115D01*
X107904Y73031D01*
X107987Y72932D01*
X108059Y72815D01*
X108126Y72682D01*
Y72676D01*
X108132Y72665D01*
X108143Y72643D01*
X108154Y72615D01*
X108165Y72576D01*
X108181Y72526D01*
X108193Y72471D01*
X108209Y72410D01*
X108226Y72338D01*
X108242Y72254D01*
X108254Y72166D01*
X108265Y72071D01*
X108276Y71966D01*
X108287Y71855D01*
X108292Y71733D01*
Y71605D01*
Y71600D01*
Y71572D01*
Y71533D01*
Y71483D01*
X108287Y71422D01*
Y71350D01*
X108281Y71267D01*
X108270Y71183D01*
X108254Y70995D01*
X108226Y70795D01*
X108187Y70606D01*
X108159Y70512D01*
X108132Y70429D01*
Y70423D01*
X108126Y70412D01*
X108115Y70390D01*
X108104Y70356D01*
X108087Y70323D01*
X108065Y70279D01*
X108009Y70184D01*
X107943Y70079D01*
X107865Y69968D01*
X107765Y69862D01*
X107654Y69768D01*
X107649D01*
X107638Y69757D01*
X107621Y69746D01*
X107599Y69735D01*
X107565Y69718D01*
X107532Y69696D01*
X107488Y69674D01*
X107443Y69657D01*
X107338Y69613D01*
X107210Y69574D01*
X107071Y69552D01*
X106916Y69541D01*
X106872D01*
X106844Y69546D01*
X106805D01*
X106761Y69552D01*
X106655Y69574D01*
X106539Y69602D01*
X106416Y69646D01*
X106294Y69707D01*
X106233Y69746D01*
X106178Y69790D01*
X106172Y69796D01*
X106167Y69801D01*
X106150Y69818D01*
X106133Y69835D01*
X106111Y69862D01*
X106084Y69896D01*
X106028Y69973D01*
X105973Y70073D01*
X105917Y70195D01*
X105873Y70334D01*
X105839Y70495D01*
X106294Y70534D01*
Y70528D01*
X106300Y70517D01*
Y70506D01*
X106306Y70484D01*
X106322Y70423D01*
X106344Y70356D01*
X106372Y70279D01*
X106411Y70201D01*
X106455Y70129D01*
X106511Y70068D01*
X106516Y70062D01*
X106539Y70046D01*
X106578Y70023D01*
X106622Y70001D01*
X106683Y69973D01*
X106755Y69951D01*
X106838Y69935D01*
X106927Y69929D01*
X106966D01*
X107005Y69935D01*
X107055Y69940D01*
X107116Y69951D01*
X107177Y69968D01*
X107244Y69990D01*
X107305Y70023D01*
X107310Y70029D01*
X107332Y70040D01*
X107366Y70062D01*
X107399Y70095D01*
X107443Y70134D01*
X107488Y70179D01*
X107532Y70229D01*
X107577Y70290D01*
X107582Y70295D01*
X107593Y70323D01*
X107615Y70362D01*
X107638Y70412D01*
X107665Y70478D01*
X107693Y70556D01*
X107721Y70645D01*
X107748Y70745D01*
Y70750D01*
X107754Y70756D01*
Y70773D01*
X107760Y70795D01*
X107771Y70850D01*
X107787Y70922D01*
X107799Y71011D01*
X107810Y71106D01*
X107815Y71211D01*
X107821Y71322D01*
Y71328D01*
Y71344D01*
Y71372D01*
Y71416D01*
X107815Y71405D01*
X107793Y71377D01*
X107760Y71339D01*
X107721Y71283D01*
X107665Y71228D01*
X107599Y71167D01*
X107521Y71106D01*
X107432Y71050D01*
X107421Y71045D01*
X107388Y71028D01*
X107338Y71006D01*
X107277Y70983D01*
X107194Y70956D01*
X107105Y70934D01*
X107005Y70917D01*
X106899Y70911D01*
X106855D01*
X106822Y70917D01*
X106777Y70922D01*
X106733Y70928D01*
X106677Y70939D01*
X106622Y70956D01*
X106494Y70995D01*
X106428Y71022D01*
X106361Y71056D01*
X106289Y71095D01*
X106222Y71144D01*
X106156Y71194D01*
X106095Y71255D01*
X106089Y71261D01*
X106078Y71272D01*
X106067Y71289D01*
X106045Y71316D01*
X106017Y71355D01*
X105989Y71394D01*
X105961Y71444D01*
X105934Y71500D01*
X105900Y71561D01*
X105873Y71627D01*
X105845Y71705D01*
X105817Y71783D01*
X105795Y71872D01*
X105784Y71966D01*
X105773Y72060D01*
X105767Y72166D01*
Y72171D01*
Y72193D01*
Y72221D01*
X105773Y72260D01*
X105778Y72310D01*
X105784Y72371D01*
X105795Y72432D01*
X105812Y72504D01*
X105850Y72649D01*
X105878Y72726D01*
X105912Y72809D01*
X105950Y72887D01*
X106000Y72959D01*
X106050Y73037D01*
X106111Y73104D01*
X106117Y73109D01*
X106128Y73120D01*
X106145Y73137D01*
X106172Y73159D01*
X106206Y73187D01*
X106250Y73220D01*
X106294Y73248D01*
X106350Y73287D01*
X106405Y73320D01*
X106472Y73348D01*
X106622Y73409D01*
X106700Y73431D01*
X106788Y73448D01*
X106877Y73459D01*
X106972Y73464D01*
X107010D01*
X107038Y73459D01*
D02*
G37*
G36*
X105434Y72993D02*
X104169D01*
Y69607D01*
X103658D01*
Y72993D01*
X102393D01*
Y73448D01*
X105434D01*
Y72993D01*
D02*
G37*
G36*
X116358Y67667D02*
X115093D01*
Y64281D01*
X114582D01*
Y67667D01*
X113317D01*
Y68122D01*
X116358D01*
Y67667D01*
D02*
G37*
G36*
X118023Y68133D02*
X118068Y68128D01*
X118118Y68122D01*
X118173Y68117D01*
X118229Y68100D01*
X118362Y68067D01*
X118495Y68017D01*
X118562Y67983D01*
X118628Y67945D01*
X118689Y67895D01*
X118750Y67845D01*
X118756Y67839D01*
X118761Y67834D01*
X118778Y67817D01*
X118800Y67795D01*
X118822Y67761D01*
X118850Y67728D01*
X118906Y67645D01*
X118961Y67539D01*
X119011Y67417D01*
X119050Y67278D01*
X119055Y67206D01*
X119061Y67129D01*
Y67123D01*
Y67118D01*
Y67084D01*
X119055Y67034D01*
X119044Y66973D01*
X119028Y66896D01*
X119000Y66818D01*
X118967Y66740D01*
X118917Y66663D01*
X118911Y66651D01*
X118889Y66629D01*
X118856Y66596D01*
X118811Y66552D01*
X118750Y66501D01*
X118678Y66452D01*
X118595Y66402D01*
X118495Y66357D01*
X118500D01*
X118512Y66352D01*
X118528Y66346D01*
X118551Y66335D01*
X118617Y66307D01*
X118695Y66268D01*
X118778Y66213D01*
X118867Y66152D01*
X118950Y66074D01*
X119028Y65985D01*
Y65980D01*
X119033Y65974D01*
X119055Y65941D01*
X119089Y65886D01*
X119122Y65813D01*
X119155Y65724D01*
X119189Y65619D01*
X119211Y65503D01*
X119217Y65375D01*
Y65369D01*
Y65353D01*
Y65325D01*
X119211Y65292D01*
X119205Y65253D01*
X119200Y65203D01*
X119189Y65147D01*
X119172Y65086D01*
X119133Y64959D01*
X119106Y64886D01*
X119067Y64820D01*
X119028Y64748D01*
X118983Y64681D01*
X118928Y64614D01*
X118867Y64548D01*
X118861Y64542D01*
X118850Y64531D01*
X118833Y64515D01*
X118806Y64498D01*
X118767Y64470D01*
X118728Y64442D01*
X118678Y64415D01*
X118623Y64381D01*
X118562Y64348D01*
X118489Y64320D01*
X118412Y64293D01*
X118334Y64265D01*
X118245Y64248D01*
X118151Y64232D01*
X118056Y64220D01*
X117951Y64215D01*
X117896D01*
X117857Y64220D01*
X117807Y64226D01*
X117751Y64232D01*
X117690Y64243D01*
X117624Y64259D01*
X117474Y64298D01*
X117396Y64326D01*
X117324Y64354D01*
X117246Y64393D01*
X117168Y64437D01*
X117096Y64487D01*
X117030Y64548D01*
X117024Y64553D01*
X117013Y64565D01*
X116997Y64581D01*
X116974Y64609D01*
X116952Y64642D01*
X116919Y64681D01*
X116891Y64726D01*
X116858Y64781D01*
X116824Y64837D01*
X116797Y64903D01*
X116741Y65042D01*
X116719Y65125D01*
X116702Y65208D01*
X116691Y65297D01*
X116686Y65386D01*
Y65391D01*
Y65403D01*
Y65425D01*
X116691Y65447D01*
Y65480D01*
X116697Y65519D01*
X116708Y65608D01*
X116730Y65708D01*
X116763Y65808D01*
X116813Y65913D01*
X116874Y66013D01*
Y66019D01*
X116885Y66024D01*
X116908Y66052D01*
X116952Y66096D01*
X117013Y66152D01*
X117091Y66207D01*
X117185Y66268D01*
X117291Y66318D01*
X117418Y66357D01*
X117413D01*
X117407Y66363D01*
X117391Y66368D01*
X117368Y66379D01*
X117318Y66402D01*
X117252Y66435D01*
X117180Y66479D01*
X117107Y66535D01*
X117041Y66596D01*
X116980Y66663D01*
X116974Y66674D01*
X116958Y66696D01*
X116935Y66740D01*
X116913Y66796D01*
X116885Y66868D01*
X116863Y66951D01*
X116847Y67045D01*
X116841Y67145D01*
Y67151D01*
Y67162D01*
Y67184D01*
X116847Y67217D01*
X116852Y67251D01*
X116858Y67295D01*
X116880Y67390D01*
X116913Y67501D01*
X116969Y67617D01*
X117002Y67678D01*
X117041Y67739D01*
X117091Y67795D01*
X117141Y67850D01*
X117146Y67856D01*
X117157Y67861D01*
X117174Y67878D01*
X117196Y67895D01*
X117224Y67917D01*
X117263Y67939D01*
X117307Y67967D01*
X117352Y67994D01*
X117407Y68022D01*
X117468Y68050D01*
X117535Y68072D01*
X117607Y68094D01*
X117762Y68128D01*
X117851Y68133D01*
X117940Y68139D01*
X117990D01*
X118023Y68133D01*
D02*
G37*
G36*
X98575Y48246D02*
X98570Y48241D01*
X98559Y48230D01*
X98536Y48208D01*
X98514Y48174D01*
X98481Y48135D01*
X98436Y48091D01*
X98392Y48035D01*
X98342Y47969D01*
X98292Y47902D01*
X98231Y47824D01*
X98170Y47736D01*
X98109Y47647D01*
X98042Y47547D01*
X97976Y47442D01*
X97909Y47325D01*
X97843Y47208D01*
X97837Y47203D01*
X97826Y47181D01*
X97809Y47147D01*
X97782Y47097D01*
X97754Y47036D01*
X97720Y46970D01*
X97682Y46892D01*
X97643Y46803D01*
X97598Y46703D01*
X97549Y46604D01*
X97504Y46492D01*
X97460Y46376D01*
X97371Y46137D01*
X97288Y45882D01*
Y45876D01*
X97282Y45860D01*
X97277Y45832D01*
X97265Y45799D01*
X97254Y45754D01*
X97243Y45699D01*
X97227Y45638D01*
X97215Y45571D01*
X97199Y45494D01*
X97182Y45410D01*
X97154Y45233D01*
X97127Y45038D01*
X97110Y44827D01*
X96627D01*
Y44833D01*
Y44850D01*
Y44872D01*
X96633Y44905D01*
Y44950D01*
X96638Y45005D01*
X96644Y45066D01*
X96649Y45133D01*
X96661Y45210D01*
X96672Y45288D01*
X96688Y45382D01*
X96705Y45477D01*
X96722Y45577D01*
X96744Y45688D01*
X96799Y45915D01*
Y45921D01*
X96805Y45943D01*
X96816Y45976D01*
X96833Y46026D01*
X96849Y46082D01*
X96871Y46148D01*
X96894Y46226D01*
X96927Y46309D01*
X96960Y46404D01*
X96993Y46498D01*
X97077Y46709D01*
X97177Y46931D01*
X97288Y47153D01*
X97293Y47159D01*
X97304Y47181D01*
X97321Y47208D01*
X97343Y47253D01*
X97371Y47303D01*
X97410Y47364D01*
X97449Y47431D01*
X97493Y47503D01*
X97598Y47664D01*
X97709Y47830D01*
X97837Y48002D01*
X97970Y48163D01*
X96089D01*
Y48618D01*
X98575D01*
Y48246D01*
D02*
G37*
G36*
X95723Y48213D02*
X94457D01*
Y44827D01*
X93946D01*
Y48213D01*
X92681D01*
Y48668D01*
X95723D01*
Y48213D01*
D02*
G37*
G36*
X114602Y48350D02*
X114641D01*
X114686Y48344D01*
X114791Y48322D01*
X114908Y48294D01*
X115030Y48250D01*
X115152Y48183D01*
X115213Y48144D01*
X115268Y48100D01*
X115274Y48094D01*
X115279Y48089D01*
X115296Y48072D01*
X115313Y48055D01*
X115340Y48028D01*
X115363Y47994D01*
X115424Y47917D01*
X115485Y47817D01*
X115540Y47695D01*
X115590Y47556D01*
X115624Y47401D01*
X115152Y47362D01*
Y47367D01*
X115146Y47373D01*
X115141Y47406D01*
X115124Y47456D01*
X115102Y47517D01*
X115080Y47584D01*
X115046Y47650D01*
X115007Y47711D01*
X114969Y47761D01*
X114958Y47772D01*
X114935Y47795D01*
X114897Y47828D01*
X114841Y47867D01*
X114769Y47900D01*
X114691Y47933D01*
X114597Y47956D01*
X114497Y47967D01*
X114458D01*
X114414Y47961D01*
X114364Y47950D01*
X114297Y47933D01*
X114231Y47911D01*
X114164Y47883D01*
X114097Y47839D01*
X114086Y47833D01*
X114058Y47811D01*
X114020Y47772D01*
X113970Y47717D01*
X113914Y47650D01*
X113853Y47573D01*
X113798Y47473D01*
X113742Y47362D01*
Y47356D01*
X113737Y47345D01*
X113731Y47328D01*
X113720Y47306D01*
X113714Y47273D01*
X113703Y47234D01*
X113692Y47190D01*
X113681Y47134D01*
X113664Y47073D01*
X113653Y47006D01*
X113642Y46934D01*
X113637Y46857D01*
X113626Y46768D01*
X113620Y46679D01*
X113614Y46579D01*
Y46479D01*
X113620Y46485D01*
X113642Y46518D01*
X113681Y46562D01*
X113731Y46618D01*
X113786Y46685D01*
X113859Y46746D01*
X113936Y46807D01*
X114025Y46862D01*
X114031D01*
X114036Y46868D01*
X114070Y46884D01*
X114120Y46901D01*
X114186Y46929D01*
X114264Y46951D01*
X114353Y46968D01*
X114447Y46984D01*
X114547Y46990D01*
X114591D01*
X114625Y46984D01*
X114669Y46979D01*
X114713Y46973D01*
X114769Y46962D01*
X114824Y46946D01*
X114952Y46907D01*
X115019Y46879D01*
X115085Y46840D01*
X115152Y46801D01*
X115224Y46757D01*
X115291Y46701D01*
X115352Y46640D01*
X115357Y46635D01*
X115368Y46624D01*
X115385Y46607D01*
X115402Y46579D01*
X115429Y46540D01*
X115457Y46501D01*
X115485Y46452D01*
X115518Y46396D01*
X115551Y46335D01*
X115579Y46268D01*
X115607Y46191D01*
X115635Y46113D01*
X115651Y46030D01*
X115668Y45935D01*
X115679Y45841D01*
X115685Y45741D01*
Y45736D01*
Y45724D01*
Y45708D01*
Y45680D01*
X115679Y45647D01*
Y45614D01*
X115662Y45525D01*
X115646Y45419D01*
X115618Y45308D01*
X115579Y45186D01*
X115524Y45070D01*
Y45064D01*
X115518Y45059D01*
X115507Y45042D01*
X115496Y45020D01*
X115463Y44964D01*
X115413Y44892D01*
X115352Y44814D01*
X115279Y44737D01*
X115191Y44659D01*
X115096Y44592D01*
X115091D01*
X115085Y44587D01*
X115069Y44576D01*
X115046Y44570D01*
X114991Y44542D01*
X114919Y44515D01*
X114824Y44481D01*
X114719Y44459D01*
X114602Y44437D01*
X114475Y44431D01*
X114447D01*
X114419Y44437D01*
X114375D01*
X114325Y44442D01*
X114269Y44453D01*
X114203Y44470D01*
X114136Y44487D01*
X114058Y44509D01*
X113981Y44537D01*
X113903Y44570D01*
X113820Y44614D01*
X113742Y44664D01*
X113664Y44720D01*
X113587Y44787D01*
X113515Y44864D01*
X113509Y44870D01*
X113498Y44886D01*
X113481Y44909D01*
X113459Y44947D01*
X113426Y44997D01*
X113398Y45053D01*
X113365Y45125D01*
X113331Y45203D01*
X113293Y45297D01*
X113259Y45403D01*
X113232Y45519D01*
X113204Y45647D01*
X113176Y45791D01*
X113159Y45946D01*
X113148Y46113D01*
X113143Y46291D01*
Y46296D01*
Y46302D01*
Y46318D01*
Y46341D01*
X113148Y46396D01*
Y46474D01*
X113154Y46562D01*
X113165Y46668D01*
X113176Y46784D01*
X113193Y46912D01*
X113215Y47040D01*
X113243Y47179D01*
X113276Y47312D01*
X113315Y47445D01*
X113365Y47573D01*
X113420Y47695D01*
X113481Y47811D01*
X113553Y47911D01*
X113559Y47917D01*
X113570Y47928D01*
X113592Y47950D01*
X113620Y47983D01*
X113653Y48017D01*
X113698Y48050D01*
X113753Y48094D01*
X113809Y48133D01*
X113875Y48172D01*
X113947Y48216D01*
X114031Y48250D01*
X114114Y48289D01*
X114208Y48316D01*
X114308Y48338D01*
X114414Y48350D01*
X114525Y48355D01*
X114569D01*
X114602Y48350D01*
D02*
G37*
G36*
X112832Y47883D02*
X111566D01*
Y44498D01*
X111056D01*
Y47883D01*
X109791D01*
Y48338D01*
X112832D01*
Y47883D01*
D02*
G37*
G36*
X93955Y39122D02*
X92417D01*
X92212Y38084D01*
X92218Y38090D01*
X92229Y38095D01*
X92245Y38107D01*
X92273Y38123D01*
X92306Y38140D01*
X92345Y38162D01*
X92434Y38206D01*
X92545Y38251D01*
X92667Y38290D01*
X92800Y38317D01*
X92867Y38328D01*
X92989D01*
X93022Y38323D01*
X93067Y38317D01*
X93117Y38312D01*
X93172Y38301D01*
X93233Y38284D01*
X93366Y38245D01*
X93439Y38217D01*
X93511Y38179D01*
X93583Y38140D01*
X93655Y38095D01*
X93722Y38040D01*
X93788Y37979D01*
X93794Y37973D01*
X93805Y37962D01*
X93822Y37946D01*
X93844Y37918D01*
X93871Y37879D01*
X93899Y37840D01*
X93933Y37790D01*
X93966Y37735D01*
X93994Y37674D01*
X94027Y37607D01*
X94055Y37529D01*
X94082Y37451D01*
X94105Y37368D01*
X94121Y37274D01*
X94132Y37180D01*
X94138Y37080D01*
Y37074D01*
Y37058D01*
Y37030D01*
X94132Y36991D01*
X94127Y36946D01*
X94121Y36897D01*
X94110Y36836D01*
X94099Y36775D01*
X94066Y36630D01*
X94010Y36480D01*
X93977Y36403D01*
X93933Y36331D01*
X93888Y36253D01*
X93833Y36181D01*
X93827Y36175D01*
X93816Y36158D01*
X93794Y36136D01*
X93766Y36108D01*
X93727Y36075D01*
X93683Y36031D01*
X93627Y35992D01*
X93566Y35947D01*
X93500Y35903D01*
X93422Y35864D01*
X93339Y35825D01*
X93250Y35787D01*
X93156Y35759D01*
X93050Y35737D01*
X92939Y35720D01*
X92823Y35714D01*
X92773D01*
X92734Y35720D01*
X92689Y35726D01*
X92639Y35731D01*
X92578Y35737D01*
X92517Y35753D01*
X92379Y35787D01*
X92240Y35836D01*
X92168Y35870D01*
X92096Y35909D01*
X92029Y35953D01*
X91962Y36003D01*
X91957Y36009D01*
X91946Y36014D01*
X91935Y36036D01*
X91912Y36059D01*
X91885Y36086D01*
X91857Y36119D01*
X91824Y36164D01*
X91796Y36214D01*
X91763Y36264D01*
X91729Y36325D01*
X91668Y36458D01*
X91618Y36614D01*
X91602Y36697D01*
X91590Y36786D01*
X92084Y36824D01*
Y36819D01*
Y36808D01*
X92090Y36791D01*
X92096Y36763D01*
X92112Y36702D01*
X92134Y36619D01*
X92168Y36536D01*
X92212Y36441D01*
X92268Y36358D01*
X92334Y36281D01*
X92345Y36275D01*
X92368Y36253D01*
X92412Y36225D01*
X92473Y36192D01*
X92540Y36158D01*
X92623Y36131D01*
X92717Y36108D01*
X92823Y36103D01*
X92856D01*
X92878Y36108D01*
X92945Y36114D01*
X93022Y36136D01*
X93117Y36164D01*
X93211Y36208D01*
X93311Y36275D01*
X93355Y36314D01*
X93400Y36358D01*
X93405Y36364D01*
X93411Y36369D01*
X93422Y36386D01*
X93439Y36403D01*
X93477Y36464D01*
X93522Y36541D01*
X93561Y36636D01*
X93600Y36752D01*
X93627Y36891D01*
X93638Y36963D01*
Y37041D01*
Y37046D01*
Y37058D01*
Y37080D01*
X93633Y37108D01*
Y37141D01*
X93627Y37180D01*
X93611Y37268D01*
X93583Y37374D01*
X93544Y37479D01*
X93489Y37579D01*
X93411Y37674D01*
Y37679D01*
X93400Y37685D01*
X93372Y37712D01*
X93322Y37751D01*
X93256Y37796D01*
X93167Y37835D01*
X93067Y37873D01*
X92950Y37901D01*
X92884Y37912D01*
X92778D01*
X92734Y37907D01*
X92678Y37901D01*
X92612Y37884D01*
X92545Y37868D01*
X92473Y37840D01*
X92401Y37807D01*
X92395Y37801D01*
X92373Y37790D01*
X92340Y37762D01*
X92295Y37735D01*
X92251Y37696D01*
X92207Y37646D01*
X92157Y37596D01*
X92118Y37535D01*
X91674Y37596D01*
X92046Y39572D01*
X93955D01*
Y39122D01*
D02*
G37*
G36*
X91258Y39167D02*
X89992D01*
Y35781D01*
X89482D01*
Y39167D01*
X88216D01*
Y39622D01*
X91258D01*
Y39167D01*
D02*
G37*
G36*
X106669Y16566D02*
X107190D01*
Y16133D01*
X106669D01*
Y15212D01*
X106197D01*
Y16133D01*
X104526D01*
Y16566D01*
X106286Y19052D01*
X106669D01*
Y16566D01*
D02*
G37*
G36*
X104354Y18597D02*
X103089D01*
Y15212D01*
X102578D01*
Y18597D01*
X101313D01*
Y19052D01*
X104354D01*
Y18597D01*
D02*
G37*
G36*
X106925Y32101D02*
X106997Y32089D01*
X107086Y32073D01*
X107185Y32045D01*
X107285Y32012D01*
X107385Y31967D01*
X107391D01*
X107396Y31962D01*
X107430Y31945D01*
X107480Y31912D01*
X107535Y31873D01*
X107602Y31817D01*
X107668Y31756D01*
X107735Y31684D01*
X107790Y31601D01*
X107796Y31590D01*
X107813Y31562D01*
X107835Y31512D01*
X107862Y31451D01*
X107890Y31379D01*
X107913Y31296D01*
X107929Y31201D01*
X107935Y31107D01*
Y31096D01*
Y31063D01*
X107929Y31018D01*
X107918Y30957D01*
X107901Y30885D01*
X107874Y30807D01*
X107840Y30730D01*
X107796Y30652D01*
X107790Y30641D01*
X107774Y30619D01*
X107740Y30580D01*
X107696Y30536D01*
X107641Y30485D01*
X107574Y30430D01*
X107496Y30380D01*
X107402Y30330D01*
X107407D01*
X107419Y30325D01*
X107435Y30319D01*
X107457Y30314D01*
X107518Y30291D01*
X107596Y30258D01*
X107685Y30214D01*
X107774Y30158D01*
X107857Y30086D01*
X107935Y30003D01*
X107940Y29992D01*
X107962Y29958D01*
X107996Y29903D01*
X108029Y29831D01*
X108062Y29742D01*
X108096Y29636D01*
X108118Y29514D01*
X108123Y29381D01*
Y29375D01*
Y29359D01*
Y29331D01*
X108118Y29298D01*
X108112Y29253D01*
X108101Y29204D01*
X108090Y29148D01*
X108079Y29087D01*
X108035Y28954D01*
X108001Y28882D01*
X107968Y28815D01*
X107924Y28743D01*
X107874Y28671D01*
X107818Y28598D01*
X107752Y28532D01*
X107746Y28526D01*
X107735Y28515D01*
X107713Y28499D01*
X107685Y28476D01*
X107652Y28449D01*
X107607Y28421D01*
X107557Y28388D01*
X107496Y28360D01*
X107435Y28327D01*
X107363Y28293D01*
X107291Y28266D01*
X107208Y28238D01*
X107119Y28216D01*
X107025Y28199D01*
X106930Y28188D01*
X106825Y28182D01*
X106775D01*
X106741Y28188D01*
X106697Y28193D01*
X106647Y28199D01*
X106592Y28210D01*
X106530Y28221D01*
X106397Y28254D01*
X106259Y28310D01*
X106186Y28343D01*
X106120Y28382D01*
X106053Y28432D01*
X105987Y28482D01*
X105981Y28488D01*
X105970Y28499D01*
X105953Y28515D01*
X105937Y28537D01*
X105909Y28565D01*
X105881Y28604D01*
X105848Y28643D01*
X105815Y28693D01*
X105781Y28748D01*
X105748Y28804D01*
X105687Y28937D01*
X105637Y29092D01*
X105620Y29176D01*
X105609Y29265D01*
X106081Y29326D01*
Y29320D01*
X106087Y29309D01*
X106092Y29287D01*
X106098Y29259D01*
X106103Y29226D01*
X106114Y29187D01*
X106142Y29104D01*
X106181Y29004D01*
X106231Y28909D01*
X106286Y28820D01*
X106353Y28743D01*
X106364Y28737D01*
X106386Y28715D01*
X106431Y28687D01*
X106486Y28660D01*
X106553Y28626D01*
X106636Y28598D01*
X106730Y28576D01*
X106830Y28571D01*
X106863D01*
X106886Y28576D01*
X106947Y28582D01*
X107025Y28598D01*
X107113Y28626D01*
X107208Y28665D01*
X107302Y28721D01*
X107391Y28798D01*
X107402Y28809D01*
X107430Y28843D01*
X107463Y28893D01*
X107507Y28959D01*
X107552Y29043D01*
X107585Y29137D01*
X107613Y29248D01*
X107624Y29370D01*
Y29375D01*
Y29387D01*
Y29403D01*
X107618Y29425D01*
X107613Y29487D01*
X107596Y29559D01*
X107574Y29647D01*
X107535Y29736D01*
X107480Y29825D01*
X107407Y29908D01*
X107396Y29919D01*
X107369Y29942D01*
X107324Y29975D01*
X107263Y30014D01*
X107185Y30053D01*
X107091Y30086D01*
X106986Y30108D01*
X106869Y30119D01*
X106819D01*
X106780Y30114D01*
X106730Y30108D01*
X106675Y30097D01*
X106608Y30086D01*
X106536Y30069D01*
X106592Y30485D01*
X106619D01*
X106641Y30480D01*
X106714D01*
X106775Y30491D01*
X106847Y30502D01*
X106930Y30519D01*
X107025Y30547D01*
X107113Y30585D01*
X107208Y30635D01*
X107213D01*
X107219Y30641D01*
X107246Y30663D01*
X107285Y30702D01*
X107330Y30752D01*
X107374Y30824D01*
X107413Y30907D01*
X107441Y31002D01*
X107452Y31057D01*
Y31118D01*
Y31124D01*
Y31129D01*
Y31163D01*
X107441Y31207D01*
X107430Y31268D01*
X107407Y31335D01*
X107380Y31407D01*
X107335Y31479D01*
X107274Y31546D01*
X107269Y31551D01*
X107241Y31573D01*
X107202Y31601D01*
X107152Y31634D01*
X107086Y31662D01*
X107008Y31690D01*
X106919Y31712D01*
X106819Y31718D01*
X106775D01*
X106725Y31707D01*
X106658Y31695D01*
X106586Y31673D01*
X106514Y31646D01*
X106436Y31601D01*
X106364Y31546D01*
X106359Y31540D01*
X106336Y31512D01*
X106303Y31473D01*
X106264Y31418D01*
X106225Y31346D01*
X106186Y31257D01*
X106153Y31152D01*
X106131Y31029D01*
X105659Y31113D01*
Y31118D01*
X105665Y31135D01*
X105670Y31157D01*
X105676Y31190D01*
X105687Y31229D01*
X105704Y31274D01*
X105737Y31379D01*
X105792Y31501D01*
X105859Y31623D01*
X105942Y31740D01*
X106048Y31845D01*
X106053Y31851D01*
X106064Y31856D01*
X106081Y31868D01*
X106103Y31884D01*
X106131Y31906D01*
X106170Y31929D01*
X106209Y31951D01*
X106259Y31978D01*
X106370Y32023D01*
X106497Y32067D01*
X106647Y32095D01*
X106725Y32106D01*
X106863D01*
X106925Y32101D01*
D02*
G37*
G36*
X105271Y31634D02*
X104005D01*
Y28249D01*
X103495D01*
Y31634D01*
X102229D01*
Y32089D01*
X105271D01*
Y31634D01*
D02*
G37*
G36*
X121074Y25254D02*
X121119Y25248D01*
X121175Y25243D01*
X121236Y25232D01*
X121297Y25221D01*
X121441Y25182D01*
X121585Y25126D01*
X121657Y25093D01*
X121729Y25054D01*
X121796Y25004D01*
X121857Y24949D01*
X121863Y24943D01*
X121874Y24938D01*
X121885Y24915D01*
X121907Y24893D01*
X121935Y24865D01*
X121963Y24826D01*
X121990Y24788D01*
X122024Y24738D01*
X122079Y24632D01*
X122135Y24499D01*
X122157Y24432D01*
X122168Y24355D01*
X122179Y24277D01*
X122185Y24194D01*
Y24183D01*
Y24155D01*
X122179Y24111D01*
X122174Y24049D01*
X122162Y23983D01*
X122140Y23905D01*
X122118Y23822D01*
X122085Y23739D01*
X122079Y23728D01*
X122068Y23700D01*
X122046Y23655D01*
X122012Y23594D01*
X121968Y23528D01*
X121913Y23445D01*
X121846Y23361D01*
X121768Y23267D01*
X121757Y23256D01*
X121729Y23223D01*
X121702Y23195D01*
X121674Y23167D01*
X121641Y23134D01*
X121596Y23089D01*
X121552Y23045D01*
X121496Y22995D01*
X121441Y22940D01*
X121374Y22878D01*
X121302Y22817D01*
X121224Y22745D01*
X121136Y22673D01*
X121047Y22595D01*
X121041Y22590D01*
X121030Y22579D01*
X121008Y22562D01*
X120980Y22540D01*
X120947Y22507D01*
X120908Y22473D01*
X120819Y22401D01*
X120725Y22318D01*
X120636Y22235D01*
X120558Y22163D01*
X120525Y22135D01*
X120497Y22107D01*
X120492Y22101D01*
X120475Y22085D01*
X120453Y22063D01*
X120425Y22029D01*
X120397Y21990D01*
X120364Y21952D01*
X120298Y21857D01*
X122190D01*
Y21402D01*
X119643D01*
Y21408D01*
Y21430D01*
Y21463D01*
X119648Y21508D01*
X119654Y21557D01*
X119665Y21613D01*
X119676Y21668D01*
X119698Y21730D01*
Y21735D01*
X119704Y21741D01*
X119715Y21774D01*
X119737Y21824D01*
X119770Y21891D01*
X119815Y21968D01*
X119870Y22057D01*
X119931Y22146D01*
X120009Y22240D01*
Y22246D01*
X120020Y22251D01*
X120048Y22285D01*
X120098Y22334D01*
X120170Y22407D01*
X120253Y22490D01*
X120359Y22590D01*
X120486Y22701D01*
X120625Y22817D01*
X120631Y22823D01*
X120653Y22840D01*
X120686Y22867D01*
X120725Y22901D01*
X120775Y22945D01*
X120836Y22995D01*
X120897Y23051D01*
X120969Y23111D01*
X121108Y23245D01*
X121247Y23378D01*
X121313Y23445D01*
X121374Y23511D01*
X121430Y23572D01*
X121474Y23633D01*
Y23639D01*
X121485Y23644D01*
X121496Y23661D01*
X121507Y23683D01*
X121546Y23744D01*
X121591Y23816D01*
X121630Y23905D01*
X121668Y24000D01*
X121691Y24105D01*
X121702Y24205D01*
Y24210D01*
Y24216D01*
X121696Y24249D01*
X121691Y24305D01*
X121674Y24366D01*
X121652Y24443D01*
X121613Y24521D01*
X121563Y24599D01*
X121496Y24677D01*
X121485Y24688D01*
X121458Y24710D01*
X121419Y24738D01*
X121358Y24777D01*
X121280Y24810D01*
X121191Y24843D01*
X121086Y24865D01*
X120969Y24871D01*
X120936D01*
X120914Y24865D01*
X120847Y24860D01*
X120769Y24843D01*
X120686Y24821D01*
X120592Y24782D01*
X120503Y24732D01*
X120420Y24666D01*
X120408Y24654D01*
X120386Y24627D01*
X120353Y24582D01*
X120320Y24516D01*
X120281Y24438D01*
X120248Y24338D01*
X120225Y24227D01*
X120214Y24099D01*
X119731Y24149D01*
Y24155D01*
X119737Y24172D01*
Y24199D01*
X119743Y24238D01*
X119754Y24283D01*
X119765Y24332D01*
X119781Y24394D01*
X119798Y24455D01*
X119843Y24588D01*
X119909Y24721D01*
X119948Y24788D01*
X119998Y24854D01*
X120048Y24915D01*
X120103Y24971D01*
X120109Y24976D01*
X120120Y24982D01*
X120137Y24998D01*
X120164Y25015D01*
X120198Y25037D01*
X120237Y25060D01*
X120281Y25087D01*
X120336Y25115D01*
X120397Y25143D01*
X120464Y25171D01*
X120536Y25193D01*
X120614Y25215D01*
X120697Y25232D01*
X120786Y25248D01*
X120880Y25254D01*
X120980Y25259D01*
X121036D01*
X121074Y25254D01*
D02*
G37*
G36*
X119376Y24788D02*
X118111D01*
Y21402D01*
X117600D01*
Y24788D01*
X116335D01*
Y25243D01*
X119376D01*
Y24788D01*
D02*
G37*
G36*
X108196Y81628D02*
Y81622D01*
Y81606D01*
Y81584D01*
Y81550D01*
X108191Y81506D01*
Y81462D01*
X108180Y81356D01*
X108169Y81234D01*
X108147Y81106D01*
X108113Y80990D01*
X108074Y80879D01*
Y80873D01*
X108069Y80868D01*
X108052Y80834D01*
X108024Y80790D01*
X107986Y80729D01*
X107930Y80668D01*
X107869Y80601D01*
X107791Y80535D01*
X107703Y80479D01*
X107691Y80474D01*
X107658Y80457D01*
X107608Y80435D01*
X107536Y80413D01*
X107447Y80385D01*
X107347Y80363D01*
X107236Y80346D01*
X107114Y80340D01*
X107064D01*
X107031Y80346D01*
X106987Y80352D01*
X106942Y80357D01*
X106826Y80379D01*
X106703Y80413D01*
X106576Y80462D01*
X106509Y80496D01*
X106448Y80535D01*
X106393Y80579D01*
X106337Y80629D01*
X106332Y80634D01*
X106326Y80640D01*
X106315Y80662D01*
X106298Y80685D01*
X106276Y80712D01*
X106254Y80751D01*
X106232Y80796D01*
X106204Y80845D01*
X106182Y80901D01*
X106160Y80967D01*
X106137Y81034D01*
X106115Y81112D01*
X106104Y81195D01*
X106088Y81289D01*
X106082Y81384D01*
Y81489D01*
X106543Y81556D01*
Y81550D01*
Y81539D01*
Y81517D01*
X106548Y81484D01*
X106554Y81450D01*
Y81411D01*
X106570Y81317D01*
X106587Y81217D01*
X106620Y81117D01*
X106654Y81029D01*
X106676Y80990D01*
X106703Y80956D01*
X106709Y80951D01*
X106731Y80934D01*
X106765Y80906D01*
X106809Y80879D01*
X106870Y80845D01*
X106937Y80823D01*
X107020Y80801D01*
X107109Y80796D01*
X107142D01*
X107175Y80801D01*
X107225Y80807D01*
X107275Y80818D01*
X107331Y80829D01*
X107386Y80851D01*
X107442Y80879D01*
X107447Y80884D01*
X107464Y80895D01*
X107486Y80918D01*
X107519Y80940D01*
X107547Y80979D01*
X107580Y81018D01*
X107608Y81062D01*
X107630Y81117D01*
Y81123D01*
X107641Y81145D01*
X107647Y81184D01*
X107658Y81234D01*
X107669Y81300D01*
X107675Y81384D01*
X107686Y81484D01*
Y81600D01*
Y84248D01*
X108196D01*
Y81628D01*
D02*
G37*
G36*
X110611Y80407D02*
X110139D01*
Y83410D01*
X110133Y83404D01*
X110106Y83382D01*
X110072Y83349D01*
X110017Y83310D01*
X109956Y83260D01*
X109878Y83204D01*
X109789Y83143D01*
X109689Y83082D01*
X109684D01*
X109678Y83077D01*
X109645Y83054D01*
X109590Y83027D01*
X109523Y82993D01*
X109445Y82954D01*
X109362Y82916D01*
X109279Y82877D01*
X109195Y82843D01*
Y83298D01*
X109201D01*
X109212Y83310D01*
X109234Y83315D01*
X109262Y83332D01*
X109295Y83349D01*
X109334Y83371D01*
X109429Y83426D01*
X109540Y83487D01*
X109651Y83565D01*
X109767Y83654D01*
X109884Y83748D01*
X109889Y83754D01*
X109895Y83759D01*
X109911Y83776D01*
X109934Y83793D01*
X109984Y83848D01*
X110050Y83915D01*
X110117Y83992D01*
X110189Y84081D01*
X110250Y84170D01*
X110306Y84264D01*
X110611D01*
Y80407D01*
D02*
G37*
G36*
X113598Y36010D02*
X113127D01*
Y39012D01*
X113121Y39007D01*
X113093Y38985D01*
X113060Y38951D01*
X113005Y38912D01*
X112943Y38862D01*
X112866Y38807D01*
X112777Y38746D01*
X112677Y38685D01*
X112671D01*
X112666Y38679D01*
X112633Y38657D01*
X112577Y38629D01*
X112511Y38596D01*
X112433Y38557D01*
X112350Y38518D01*
X112266Y38479D01*
X112183Y38446D01*
Y38901D01*
X112189D01*
X112200Y38912D01*
X112222Y38918D01*
X112250Y38934D01*
X112283Y38951D01*
X112322Y38973D01*
X112416Y39029D01*
X112527Y39090D01*
X112638Y39168D01*
X112755Y39256D01*
X112871Y39351D01*
X112877Y39356D01*
X112882Y39362D01*
X112899Y39378D01*
X112921Y39395D01*
X112971Y39451D01*
X113038Y39517D01*
X113104Y39595D01*
X113177Y39684D01*
X113238Y39773D01*
X113293Y39867D01*
X113598D01*
Y36010D01*
D02*
G37*
G36*
X111489Y39395D02*
X110224D01*
Y36010D01*
X109713D01*
Y39395D01*
X108448D01*
Y39850D01*
X111489D01*
Y39395D01*
D02*
G37*
%LPC*%
G36*
X73164Y7903D02*
X72426D01*
Y7220D01*
X73164D01*
Y7903D01*
D02*
G37*
G36*
X46319Y7903D02*
X45581D01*
Y7220D01*
X46319D01*
Y7198D01*
Y7903D01*
D02*
G37*
G36*
X73164Y6849D02*
X72426D01*
D01*
D01*
Y4063D01*
X73164D01*
Y6849D01*
D02*
G37*
G36*
X48706Y6910D02*
X48667D01*
X48567Y6904D01*
X48467Y6887D01*
X48378Y6865D01*
X48289Y6838D01*
X48206Y6799D01*
X48134Y6760D01*
X48062Y6716D01*
X48001Y6677D01*
X47945Y6632D01*
X47895Y6588D01*
X47851Y6549D01*
X47818Y6510D01*
X47790Y6482D01*
X47767Y6460D01*
X47756Y6443D01*
X47751Y6438D01*
Y6849D01*
X47068D01*
Y6910D01*
Y4063D01*
X47806D01*
Y5317D01*
Y5400D01*
Y5478D01*
X47812Y5550D01*
X47818Y5611D01*
Y5672D01*
X47823Y5722D01*
X47829Y5772D01*
X47834Y5811D01*
X47845Y5877D01*
X47851Y5922D01*
X47862Y5950D01*
Y5955D01*
X47884Y6016D01*
X47917Y6077D01*
X47951Y6122D01*
X47984Y6166D01*
X48017Y6194D01*
X48045Y6222D01*
X48062Y6233D01*
X48067Y6238D01*
X48128Y6272D01*
X48189Y6299D01*
X48245Y6316D01*
X48300Y6333D01*
X48345Y6338D01*
X48378Y6344D01*
X48411D01*
X48467Y6338D01*
X48517Y6333D01*
X48556Y6321D01*
X48594Y6305D01*
X48628Y6288D01*
X48650Y6277D01*
X48661Y6272D01*
X48667Y6266D01*
X48706Y6238D01*
X48733Y6205D01*
X48783Y6138D01*
X48800Y6105D01*
X48811Y6083D01*
X48822Y6066D01*
Y6061D01*
X48833Y6033D01*
X48839Y5999D01*
X48850Y5916D01*
X48861Y5816D01*
X48866Y5722D01*
X48872Y5628D01*
Y5589D01*
Y5550D01*
Y5522D01*
Y5500D01*
Y5483D01*
Y5478D01*
Y4063D01*
X48339D01*
X49610D01*
Y5905D01*
X49605Y5999D01*
X49599Y6088D01*
X49588Y6155D01*
X49582Y6210D01*
X49571Y6249D01*
X49566Y6277D01*
Y6283D01*
X49549Y6349D01*
X49527Y6405D01*
X49505Y6460D01*
X49477Y6505D01*
X49455Y6543D01*
X49438Y6571D01*
X49427Y6588D01*
X49421Y6593D01*
X49377Y6643D01*
X49327Y6688D01*
X49277Y6727D01*
X49227Y6760D01*
X49183Y6788D01*
X49144Y6804D01*
X49122Y6815D01*
X49111Y6821D01*
X49033Y6849D01*
X48955Y6871D01*
X48883Y6887D01*
X48816Y6899D01*
X48755Y6904D01*
X48706Y6910D01*
D02*
G37*
G36*
X52868Y6849D02*
X51745D01*
X52108D01*
X51453Y4867D01*
X50792Y6849D01*
X50010D01*
X51064Y4057D01*
X51037Y3974D01*
X51009Y3902D01*
X50976Y3835D01*
X50948Y3779D01*
X50920Y3735D01*
X50898Y3702D01*
X50881Y3680D01*
X50876Y3674D01*
X50826Y3624D01*
X50765Y3585D01*
X50704Y3557D01*
X50643Y3541D01*
X50587Y3530D01*
X50542Y3519D01*
X50498D01*
X50393Y3524D01*
X50337Y3530D01*
X50293Y3541D01*
X50248Y3546D01*
X50215Y3552D01*
X50193Y3557D01*
X50187D01*
X50254Y2980D01*
X50404Y2953D01*
X50470Y2942D01*
X50537Y2936D01*
X50587D01*
X50631Y2930D01*
X50010D01*
X52868D01*
X50742D01*
X50814Y2936D01*
X50876Y2947D01*
X50931Y2958D01*
X50981Y2964D01*
X51014Y2975D01*
X51037Y2980D01*
X51042D01*
X51103Y2997D01*
X51159Y3019D01*
X51203Y3041D01*
X51242Y3058D01*
X51275Y3075D01*
X51297Y3091D01*
X51314Y3097D01*
X51320Y3102D01*
X51403Y3169D01*
X51464Y3236D01*
X51486Y3269D01*
X51503Y3291D01*
X51514Y3308D01*
X51519Y3313D01*
X51553Y3369D01*
X51586Y3424D01*
X51619Y3485D01*
X51647Y3546D01*
X51669Y3602D01*
X51691Y3646D01*
X51702Y3674D01*
X51708Y3685D01*
X51886Y4163D01*
X52868Y6849D01*
D02*
G37*
G36*
X59739D02*
X59001D01*
Y5672D01*
Y5567D01*
Y5472D01*
X58995Y5384D01*
X58990Y5306D01*
Y5234D01*
X58984Y5173D01*
X58978Y5123D01*
X58973Y5073D01*
X58967Y5034D01*
X58962Y5006D01*
X58956Y4978D01*
Y4956D01*
X58945Y4928D01*
Y4923D01*
X58923Y4867D01*
X58890Y4817D01*
X58856Y4778D01*
X58823Y4740D01*
X58790Y4706D01*
X58762Y4684D01*
X58745Y4673D01*
X58740Y4668D01*
X58684Y4634D01*
X58623Y4612D01*
X58568Y4590D01*
X58512Y4579D01*
X58468Y4573D01*
X58435Y4568D01*
X58401D01*
X58340Y4573D01*
X58290Y4579D01*
X58240Y4590D01*
X58201Y4606D01*
X58168Y4618D01*
X58146Y4629D01*
X58129Y4634D01*
X58124Y4640D01*
X58085Y4673D01*
X58057Y4706D01*
X58030Y4740D01*
X58013Y4773D01*
X57996Y4806D01*
X57985Y4829D01*
X57980Y4845D01*
Y4851D01*
X57974Y4878D01*
X57968Y4917D01*
X57963Y4967D01*
X57957Y5017D01*
X57952Y5134D01*
X57946Y5261D01*
X57941Y5378D01*
Y5428D01*
Y5472D01*
Y5511D01*
Y5539D01*
Y5561D01*
Y5567D01*
Y6849D01*
X57203D01*
Y4002D01*
Y5084D01*
X57208Y4945D01*
X57219Y4823D01*
X57236Y4718D01*
X57253Y4629D01*
X57269Y4557D01*
X57286Y4507D01*
X57297Y4479D01*
X57302Y4468D01*
X57347Y4390D01*
X57397Y4318D01*
X57447Y4262D01*
X57502Y4212D01*
X57547Y4174D01*
X57591Y4146D01*
X57613Y4129D01*
X57624Y4124D01*
X57708Y4085D01*
X57796Y4051D01*
X57880Y4029D01*
X57963Y4018D01*
X58030Y4007D01*
X58079Y4002D01*
X57203D01*
X59739D01*
D01*
X58129D01*
X58229Y4007D01*
X58324Y4018D01*
X58412Y4040D01*
X58490Y4063D01*
X58557Y4085D01*
X58607Y4107D01*
X58640Y4118D01*
X58651Y4124D01*
X58740Y4174D01*
X58818Y4235D01*
X58890Y4290D01*
X58945Y4351D01*
X58995Y4401D01*
X59029Y4440D01*
X59051Y4468D01*
X59056Y4479D01*
Y4063D01*
X59739D01*
Y6849D01*
D02*
G37*
G36*
X54883Y7903D02*
X53351D01*
Y4063D01*
X54805D01*
X54955Y4068D01*
X55094Y4074D01*
X55210Y4085D01*
X55304Y4101D01*
X55382Y4118D01*
X55443Y4129D01*
X55460Y4135D01*
X55476D01*
X55482Y4140D01*
X55488D01*
X55610Y4185D01*
X55721Y4235D01*
X55809Y4285D01*
X55887Y4335D01*
X55948Y4379D01*
X55993Y4412D01*
X56020Y4434D01*
X56032Y4445D01*
X56126Y4551D01*
X56209Y4662D01*
X56281Y4778D01*
X56337Y4884D01*
X56381Y4984D01*
X56403Y5023D01*
X56414Y5056D01*
X56425Y5089D01*
X56437Y5111D01*
X56442Y5123D01*
Y5128D01*
X56481Y5261D01*
X56514Y5400D01*
X56537Y5533D01*
X56548Y5661D01*
X56553Y5722D01*
X56559Y5777D01*
Y5822D01*
X56564Y5866D01*
Y4201D01*
Y5866D01*
Y5944D01*
X56559Y6138D01*
X56542Y6310D01*
X56537Y6394D01*
X56525Y6466D01*
X56514Y6538D01*
X56503Y6599D01*
X56487Y6654D01*
X56476Y6704D01*
X56464Y6749D01*
X56459Y6782D01*
X56448Y6810D01*
X56442Y6832D01*
X56437Y6843D01*
Y6849D01*
X56387Y6982D01*
X56326Y7104D01*
X56265Y7209D01*
X56204Y7298D01*
X56154Y7370D01*
X56109Y7426D01*
X56081Y7459D01*
X56076Y7470D01*
X56070D01*
X55976Y7559D01*
X55882Y7631D01*
X55782Y7692D01*
X55693Y7742D01*
X55615Y7781D01*
X55549Y7809D01*
X55526Y7814D01*
X55510Y7820D01*
X55499Y7825D01*
X55493D01*
X55388Y7853D01*
X55271Y7870D01*
X55149Y7886D01*
X55032Y7892D01*
X54927Y7898D01*
X54883Y7903D01*
D02*
G37*
G36*
X70273Y7903D02*
X68858D01*
Y4063D01*
X71799D01*
Y6727D01*
Y6721D01*
X71788Y6882D01*
X71766Y7032D01*
X71727Y7154D01*
X71688Y7265D01*
X71666Y7309D01*
X71644Y7348D01*
X71627Y7382D01*
X71605Y7415D01*
X71594Y7437D01*
X71583Y7454D01*
X71571Y7459D01*
Y7465D01*
X71483Y7565D01*
X71394Y7648D01*
X71299Y7715D01*
X71216Y7764D01*
X71139Y7798D01*
X71078Y7825D01*
X71055Y7831D01*
X71039Y7837D01*
X71028Y7842D01*
X71022D01*
X70978Y7853D01*
X70922Y7864D01*
X70856Y7870D01*
X70789Y7875D01*
X70634Y7886D01*
X70478Y7898D01*
X70334D01*
X70273Y7903D01*
D02*
G37*
G36*
X66715D02*
X64984Y7903D01*
Y4063D01*
X65761D01*
Y5666D01*
X66010D01*
X66088Y5661D01*
X66155Y5655D01*
X66210Y5644D01*
X66255Y5639D01*
X66282Y5628D01*
X66299Y5622D01*
X66304D01*
X66349Y5600D01*
X66393Y5578D01*
X66432Y5550D01*
X66471Y5528D01*
X66499Y5500D01*
X66521Y5478D01*
X66532Y5467D01*
X66538Y5461D01*
X66560Y5433D01*
X66588Y5406D01*
X66649Y5322D01*
X66715Y5234D01*
X66787Y5134D01*
X66848Y5045D01*
X66876Y5001D01*
X66898Y4967D01*
X66921Y4939D01*
X66937Y4917D01*
X66943Y4901D01*
X66948Y4895D01*
X67503Y4063D01*
X66207Y4063D01*
X68436Y4063D01*
D01*
X67964Y4812D01*
X67914Y4890D01*
X67864Y4967D01*
X67820Y5034D01*
X67775Y5095D01*
X67737Y5150D01*
X67703Y5206D01*
X67637Y5289D01*
X67587Y5356D01*
X67553Y5400D01*
X67526Y5428D01*
X67520Y5433D01*
X67459Y5500D01*
X67387Y5561D01*
X67320Y5611D01*
X67254Y5661D01*
X67198Y5700D01*
X67154Y5728D01*
X67120Y5750D01*
X67115Y5755D01*
X67109D01*
X67204Y5772D01*
X67287Y5794D01*
X67365Y5816D01*
X67442Y5844D01*
X67509Y5872D01*
X67570Y5900D01*
X67631Y5927D01*
X67681Y5961D01*
X67725Y5988D01*
X67764Y6016D01*
X67797Y6044D01*
X67820Y6066D01*
X67842Y6083D01*
X67859Y6099D01*
X67864Y6105D01*
X67870Y6111D01*
X67914Y6166D01*
X67953Y6222D01*
X68019Y6344D01*
X68064Y6460D01*
X68092Y6577D01*
X68114Y6677D01*
X68119Y6716D01*
Y6754D01*
X68125Y6782D01*
Y6810D01*
Y6821D01*
Y6826D01*
X68119Y6949D01*
X68097Y7065D01*
X68069Y7165D01*
X68042Y7254D01*
X68008Y7326D01*
X67981Y7382D01*
X67970Y7398D01*
X67958Y7415D01*
X67953Y7420D01*
Y7426D01*
X67886Y7520D01*
X67814Y7598D01*
X67742Y7659D01*
X67670Y7715D01*
X67603Y7748D01*
X67553Y7775D01*
X67520Y7792D01*
X67514Y7798D01*
X67509D01*
X67453Y7814D01*
X67392Y7831D01*
X67254Y7859D01*
X67104Y7875D01*
X66960Y7892D01*
X66887D01*
X66826Y7898D01*
X66765D01*
X66715Y7903D01*
D02*
G37*
G36*
X64218Y7903D02*
X63480D01*
Y4063D01*
X64218D01*
Y7903D01*
D02*
G37*
G36*
X61665Y6910D02*
X61482D01*
X61393Y6899D01*
X61304Y6893D01*
X61226Y6876D01*
X61149Y6865D01*
X61082Y6849D01*
X61021Y6826D01*
X60965Y6810D01*
X60921Y6793D01*
X60877Y6771D01*
X60843Y6754D01*
X60810Y6743D01*
X60788Y6727D01*
X60771Y6721D01*
X60766Y6710D01*
X60760D01*
X60666Y6627D01*
X60588Y6532D01*
X60522Y6432D01*
X60466Y6338D01*
X60427Y6249D01*
X60410Y6210D01*
X60399Y6177D01*
X60388Y6149D01*
X60383Y6127D01*
X60377Y6116D01*
Y6111D01*
X61038Y5988D01*
X61065Y6055D01*
X61093Y6111D01*
X61121Y6160D01*
X61154Y6199D01*
X61176Y6227D01*
X61199Y6244D01*
X61210Y6255D01*
X61215Y6260D01*
X61260Y6288D01*
X61310Y6310D01*
X61365Y6321D01*
X61415Y6333D01*
X61459Y6338D01*
X61493Y6344D01*
X61526D01*
X61626Y6338D01*
X61709Y6327D01*
X61776Y6316D01*
X61831Y6299D01*
X61870Y6277D01*
X61898Y6266D01*
X61914Y6255D01*
X61920Y6249D01*
X61959Y6210D01*
X61987Y6166D01*
X62003Y6116D01*
X62020Y6066D01*
X62025Y6016D01*
X62031Y5977D01*
Y5955D01*
Y5944D01*
Y5872D01*
X61992Y5855D01*
X61942Y5839D01*
X61837Y5805D01*
X61715Y5777D01*
X61598Y5750D01*
X61487Y5722D01*
X61437Y5711D01*
X61393Y5705D01*
X61360Y5700D01*
X61332Y5694D01*
X61315Y5689D01*
X61310D01*
X61176Y5661D01*
X61054Y5633D01*
X60954Y5605D01*
X60871Y5578D01*
X60804Y5550D01*
X60760Y5533D01*
X60732Y5522D01*
X60721Y5517D01*
X60649Y5478D01*
X60588Y5433D01*
X60533Y5384D01*
X60494Y5339D01*
X60455Y5300D01*
X60433Y5267D01*
X60416Y5245D01*
X60410Y5234D01*
X60372Y5161D01*
X60344Y5089D01*
X60327Y5023D01*
X60316Y4956D01*
X60305Y4901D01*
X60299Y4856D01*
Y4817D01*
X60305Y4751D01*
X60311Y4690D01*
X60338Y4573D01*
X60377Y4473D01*
X60422Y4390D01*
X60466Y4323D01*
X60505Y4273D01*
X60533Y4240D01*
X60544Y4235D01*
Y4229D01*
X60644Y4151D01*
X60755Y4096D01*
X60865Y4057D01*
X60976Y4029D01*
X61071Y4013D01*
X61115Y4007D01*
X61149D01*
X61182Y4002D01*
X60299D01*
D01*
X62914D01*
D01*
X61221D01*
X61310Y4007D01*
X61398Y4018D01*
X61476Y4029D01*
X61543Y4046D01*
X61598Y4063D01*
X61643Y4079D01*
X61670Y4085D01*
X61681Y4090D01*
X61759Y4129D01*
X61837Y4168D01*
X61903Y4218D01*
X61964Y4262D01*
X62014Y4301D01*
X62053Y4335D01*
X62076Y4357D01*
X62086Y4362D01*
X62092Y4340D01*
X62103Y4312D01*
X62109Y4290D01*
X62114Y4285D01*
Y4279D01*
X62131Y4229D01*
X62142Y4185D01*
X62153Y4146D01*
X62164Y4118D01*
X62175Y4096D01*
X62181Y4074D01*
X62186Y4068D01*
Y4063D01*
X62914D01*
X62880Y4135D01*
X62852Y4201D01*
X62830Y4262D01*
X62808Y4318D01*
X62797Y4362D01*
X62786Y4401D01*
X62780Y4423D01*
Y4429D01*
X62769Y4501D01*
X62764Y4590D01*
X62752Y4679D01*
Y4767D01*
X62747Y4845D01*
Y4912D01*
Y4939D01*
Y4956D01*
Y4967D01*
Y4973D01*
X62758Y5833D01*
Y5922D01*
X62752Y5999D01*
X62747Y6072D01*
X62741Y6138D01*
X62736Y6199D01*
X62725Y6255D01*
X62719Y6305D01*
X62708Y6344D01*
X62697Y6382D01*
X62691Y6410D01*
X62675Y6460D01*
X62664Y6482D01*
X62658Y6493D01*
X62614Y6555D01*
X62564Y6616D01*
X62508Y6666D01*
X62447Y6710D01*
X62397Y6743D01*
X62353Y6765D01*
X62325Y6782D01*
X62320Y6788D01*
X62314D01*
X62264Y6810D01*
X62214Y6826D01*
X62098Y6860D01*
X61976Y6882D01*
X61859Y6893D01*
X61748Y6904D01*
X61704D01*
X61665Y6910D01*
D02*
G37*
G36*
X45581Y7165D02*
Y4063D01*
X46319D01*
Y6849D01*
X45581D01*
Y7165D01*
D02*
G37*
G36*
X45137Y7837D02*
X43494D01*
X44571D01*
X43833Y7404D01*
Y6849D01*
X43494D01*
Y6260D01*
X43833D01*
Y5045D01*
Y4973D01*
Y4912D01*
Y4851D01*
X43838Y4801D01*
Y4712D01*
X43844Y4640D01*
X43849Y4584D01*
Y4551D01*
X43855Y4529D01*
Y4523D01*
X43866Y4462D01*
X43883Y4407D01*
X43899Y4357D01*
X43916Y4318D01*
X43933Y4285D01*
X43944Y4262D01*
X43949Y4246D01*
X43955Y4240D01*
X43988Y4201D01*
X44027Y4168D01*
X44105Y4112D01*
X44138Y4096D01*
X44166Y4079D01*
X44188Y4074D01*
X44193Y4068D01*
X44254Y4046D01*
X44315Y4029D01*
X44377Y4018D01*
X44432Y4013D01*
X44482Y4007D01*
X44521Y4002D01*
X44554D01*
X44671Y4007D01*
X44782Y4018D01*
X44881Y4035D01*
X44965Y4057D01*
X45037Y4074D01*
X45092Y4090D01*
X45126Y4101D01*
X45131Y4107D01*
X45137D01*
X45070Y4679D01*
X45004Y4656D01*
X44943Y4640D01*
X44893Y4629D01*
X44848Y4623D01*
X44815Y4618D01*
X44793Y4612D01*
X44771D01*
X44721Y4618D01*
X44682Y4629D01*
X44660Y4640D01*
X44649Y4645D01*
X44615Y4679D01*
X44598Y4706D01*
X44587Y4729D01*
X44582Y4740D01*
Y4751D01*
X44576Y4773D01*
Y4823D01*
Y4890D01*
X44571Y4956D01*
Y5023D01*
Y5078D01*
Y5100D01*
Y5117D01*
Y5128D01*
Y5134D01*
Y6260D01*
X45076D01*
Y6849D01*
X44571D01*
Y7837D01*
X45137D01*
D02*
G37*
%LPD*%
G36*
X54705Y7248D02*
X54772D01*
X54827Y7243D01*
X54877D01*
X54927Y7237D01*
X54966D01*
X55027Y7226D01*
X55071Y7220D01*
X55099Y7215D01*
X55105D01*
X55182Y7193D01*
X55249Y7165D01*
X55310Y7137D01*
X55366Y7104D01*
X55404Y7076D01*
X55438Y7054D01*
X55454Y7037D01*
X55460Y7032D01*
X55510Y6976D01*
X55554Y6915D01*
X55593Y6854D01*
X55626Y6799D01*
X55649Y6743D01*
X55665Y6699D01*
X55676Y6671D01*
X55682Y6666D01*
Y6660D01*
X55710Y6560D01*
X55732Y6455D01*
X55743Y6338D01*
X55754Y6227D01*
X55760Y6133D01*
X55765Y6088D01*
Y6050D01*
Y6022D01*
Y5999D01*
Y5983D01*
Y5977D01*
X55760Y5822D01*
X55754Y5678D01*
X55737Y5561D01*
X55726Y5461D01*
X55710Y5378D01*
X55704Y5345D01*
X55693Y5322D01*
X55687Y5300D01*
Y5284D01*
X55682Y5278D01*
Y5272D01*
X55649Y5184D01*
X55621Y5106D01*
X55582Y5045D01*
X55554Y4995D01*
X55526Y4956D01*
X55504Y4928D01*
X55488Y4912D01*
X55482Y4906D01*
X55432Y4867D01*
X55382Y4834D01*
X55332Y4806D01*
X55282Y4784D01*
X55238Y4767D01*
X55204Y4756D01*
X55182Y4745D01*
X55171D01*
X55110Y4734D01*
X55038Y4729D01*
X54960Y4718D01*
X54883D01*
X54811Y4712D01*
X54128D01*
Y7254D01*
X54633D01*
X54705Y7248D01*
D02*
G37*
G36*
X70267Y7248D02*
X70317D01*
X70367Y7243D01*
X70439D01*
X70495Y7237D01*
X70534Y7232D01*
X70556Y7226D01*
X70561D01*
X70628Y7209D01*
X70689Y7187D01*
X70745Y7159D01*
X70789Y7126D01*
X70822Y7098D01*
X70850Y7076D01*
X70867Y7060D01*
X70872Y7054D01*
X70917Y6999D01*
X70944Y6943D01*
X70967Y6882D01*
X70983Y6826D01*
X70994Y6776D01*
X71000Y6738D01*
Y6716D01*
Y6704D01*
X70994Y6643D01*
X70989Y6588D01*
X70972Y6538D01*
X70955Y6493D01*
X70939Y6455D01*
X70928Y6427D01*
X70917Y6410D01*
X70911Y6405D01*
X70878Y6360D01*
X70833Y6321D01*
X70794Y6288D01*
X70756Y6260D01*
X70722Y6244D01*
X70695Y6227D01*
X70672Y6222D01*
X70667Y6216D01*
X70634Y6205D01*
X70595Y6199D01*
X70506Y6183D01*
X70406Y6172D01*
X70306Y6166D01*
X70206D01*
X70167Y6160D01*
X69635D01*
Y7254D01*
X70212D01*
X70267Y7248D01*
D02*
G37*
G36*
X71799Y4063D02*
X69635D01*
Y5511D01*
X70323D01*
X70406Y5517D01*
X70484D01*
X70556Y5522D01*
X70622Y5528D01*
X70683Y5533D01*
X70733Y5539D01*
X70783D01*
X70822Y5544D01*
X70861Y5550D01*
X70889Y5556D01*
X70911D01*
X70928Y5561D01*
X70939D01*
X71017Y5583D01*
X71089Y5611D01*
X71155Y5639D01*
X71216Y5672D01*
X71266Y5700D01*
X71305Y5722D01*
X71327Y5739D01*
X71338Y5744D01*
X71411Y5800D01*
X71472Y5861D01*
X71533Y5927D01*
X71577Y5983D01*
X71616Y6038D01*
X71644Y6083D01*
X71660Y6111D01*
X71666Y6122D01*
X71710Y6216D01*
X71744Y6316D01*
X71766Y6421D01*
X71782Y6516D01*
X71794Y6593D01*
Y6632D01*
X71799Y6660D01*
Y4063D01*
D02*
G37*
G36*
X66699Y7248D02*
X66821D01*
X66871Y7243D01*
X66904D01*
X66921Y7237D01*
X66926D01*
X66993Y7220D01*
X67054Y7198D01*
X67104Y7176D01*
X67143Y7148D01*
X67176Y7121D01*
X67204Y7104D01*
X67215Y7087D01*
X67220Y7082D01*
X67254Y7037D01*
X67281Y6982D01*
X67298Y6932D01*
X67315Y6882D01*
X67320Y6838D01*
X67326Y6804D01*
Y6782D01*
Y6771D01*
X67320Y6710D01*
X67315Y6654D01*
X67298Y6605D01*
X67287Y6560D01*
X67270Y6527D01*
X67254Y6505D01*
X67248Y6488D01*
X67242Y6482D01*
X67209Y6443D01*
X67176Y6410D01*
X67104Y6360D01*
X67076Y6344D01*
X67048Y6333D01*
X67032Y6321D01*
X67026D01*
X66998Y6316D01*
X66954Y6305D01*
X66909Y6299D01*
X66860Y6294D01*
X66743Y6288D01*
X66626Y6283D01*
X66515Y6277D01*
X65761Y6277D01*
Y7254D01*
X66649Y7254D01*
X66699Y7248D01*
D02*
G37*
G36*
X62031Y5245D02*
Y5156D01*
X62025Y5078D01*
X62020Y5017D01*
X62014Y4967D01*
X62009Y4934D01*
X62003Y4906D01*
X61998Y4895D01*
Y4890D01*
X61981Y4840D01*
X61953Y4790D01*
X61926Y4751D01*
X61898Y4712D01*
X61870Y4684D01*
X61848Y4662D01*
X61831Y4651D01*
X61826Y4645D01*
X61759Y4601D01*
X61687Y4573D01*
X61626Y4551D01*
X61565Y4534D01*
X61515Y4523D01*
X61476Y4518D01*
X61443D01*
X61382Y4523D01*
X61321Y4534D01*
X61271Y4551D01*
X61232Y4573D01*
X61193Y4595D01*
X61171Y4612D01*
X61154Y4623D01*
X61149Y4629D01*
X61110Y4673D01*
X61082Y4718D01*
X61065Y4762D01*
X61054Y4806D01*
X61043Y4840D01*
X61038Y4867D01*
Y4890D01*
Y4895D01*
X61043Y4951D01*
X61060Y5001D01*
X61082Y5045D01*
X61110Y5084D01*
X61132Y5111D01*
X61154Y5134D01*
X61171Y5145D01*
X61176Y5150D01*
X61221Y5173D01*
X61276Y5200D01*
X61343Y5223D01*
X61409Y5239D01*
X61476Y5256D01*
X61526Y5267D01*
X61548Y5272D01*
X61565Y5278D01*
X61576D01*
X61687Y5300D01*
X61776Y5322D01*
X61859Y5345D01*
X61920Y5361D01*
X61970Y5378D01*
X62003Y5384D01*
X62025Y5395D01*
X62031D01*
Y5245D01*
D02*
G37*
%LPC*%
G36*
X50581Y1147D02*
X49333D01*
D01*
X50581D01*
D02*
G37*
G36*
X60971D02*
D01*
Y1002D01*
X60882Y1052D01*
X60799Y1085D01*
X60716Y1113D01*
X60638Y1130D01*
X60577Y1141D01*
X60527Y1147D01*
X60971D01*
X60483D01*
X60416Y1141D01*
X60360Y1135D01*
X60305Y1119D01*
X60261Y1102D01*
X60222Y1085D01*
X60189Y1074D01*
X60172Y1063D01*
X60166Y1058D01*
X60111Y1019D01*
X60061Y963D01*
X60005Y902D01*
X59961Y841D01*
X59917Y780D01*
X59883Y730D01*
X59861Y697D01*
X59855Y691D01*
Y1085D01*
X59173D01*
Y-1701D01*
X60971D01*
Y1147D01*
D02*
G37*
G36*
X47440Y2140D02*
X46702D01*
Y758D01*
X46635Y825D01*
X46569Y886D01*
X46502Y936D01*
X46430Y986D01*
X46363Y1019D01*
X46297Y1052D01*
X46230Y1080D01*
X46169Y1097D01*
X46108Y1113D01*
X46058Y1124D01*
X46008Y1135D01*
X45969Y1141D01*
X45936Y1147D01*
X45892D01*
X45797Y1141D01*
X45709Y1130D01*
X45625Y1113D01*
X45542Y1091D01*
X45403Y1030D01*
X45337Y997D01*
X45281Y963D01*
X45226Y925D01*
X45181Y891D01*
X45142Y864D01*
X45109Y836D01*
X45081Y808D01*
X45065Y791D01*
X45054Y780D01*
X45048Y775D01*
X44993Y703D01*
X44943Y625D01*
X44898Y542D01*
X44859Y453D01*
X44826Y364D01*
X44798Y275D01*
X44759Y98D01*
X44748Y20D01*
X44737Y-58D01*
X44732Y-124D01*
X44726Y-185D01*
X44721Y-235D01*
Y-302D01*
X44726Y-430D01*
X44737Y-546D01*
X44754Y-657D01*
X44776Y-763D01*
X44798Y-857D01*
X44826Y-946D01*
X44859Y-1024D01*
X44893Y-1096D01*
X44920Y-1162D01*
X44954Y-1218D01*
X44982Y-1268D01*
X45009Y-1307D01*
X45026Y-1340D01*
X45042Y-1362D01*
X45054Y-1373D01*
X45059Y-1379D01*
X45126Y-1445D01*
X45192Y-1506D01*
X45265Y-1556D01*
X45331Y-1601D01*
X45403Y-1640D01*
X45470Y-1667D01*
X45537Y-1695D01*
X45597Y-1712D01*
X45659Y-1728D01*
X45714Y-1739D01*
X45758Y-1750D01*
X45803Y-1756D01*
X45836Y-1762D01*
X44721D01*
D01*
X47440D01*
Y2140D01*
D02*
G37*
G36*
X53845Y1147D02*
D01*
Y-296D01*
X53839Y-174D01*
X53828Y-52D01*
X53812Y53D01*
X53795Y159D01*
X53767Y253D01*
X53739Y342D01*
X53706Y420D01*
X53678Y492D01*
X53645Y553D01*
X53612Y608D01*
X53584Y658D01*
X53562Y691D01*
X53540Y725D01*
X53523Y747D01*
X53512Y758D01*
X53506Y764D01*
X53440Y830D01*
X53373Y891D01*
X53306Y941D01*
X53234Y986D01*
X53168Y1025D01*
X53096Y1052D01*
X53035Y1080D01*
X52968Y1097D01*
X52912Y1113D01*
X52857Y1124D01*
X52807Y1135D01*
X52768Y1141D01*
X52729Y1147D01*
X52685D01*
X52585Y1141D01*
X52491Y1124D01*
X52402Y1102D01*
X52330Y1080D01*
X52269Y1058D01*
X52219Y1036D01*
X52191Y1019D01*
X52180Y1013D01*
X52097Y963D01*
X52030Y908D01*
X51963Y852D01*
X51913Y797D01*
X51875Y747D01*
X51841Y708D01*
X51825Y686D01*
X51819Y675D01*
Y1085D01*
X51131D01*
Y-2766D01*
X53845D01*
Y1147D01*
D02*
G37*
G36*
X69041Y1147D02*
D01*
Y-369D01*
X69030Y-230D01*
X69013Y-97D01*
X68991Y25D01*
X68963Y142D01*
X68935Y242D01*
X68902Y336D01*
X68869Y420D01*
X68835Y492D01*
X68802Y558D01*
X68774Y608D01*
X68747Y653D01*
X68724Y686D01*
X68708Y714D01*
X68697Y725D01*
X68691Y730D01*
X68625Y802D01*
X68547Y869D01*
X68469Y925D01*
X68391Y969D01*
X68308Y1013D01*
X68225Y1047D01*
X68147Y1075D01*
X68069Y1097D01*
X67997Y1113D01*
X67931Y1124D01*
X67870Y1135D01*
X67820Y1141D01*
X67775Y1147D01*
X69041D01*
X66443Y1147D01*
X67714Y1147D01*
X67614Y1141D01*
X67520Y1130D01*
X67426Y1108D01*
X67342Y1085D01*
X67259Y1058D01*
X67187Y1025D01*
X67115Y986D01*
X67054Y952D01*
X66998Y914D01*
X66948Y875D01*
X66904Y841D01*
X66871Y814D01*
X66843Y791D01*
X66821Y769D01*
X66810Y758D01*
X66804Y753D01*
X66743Y675D01*
X66688Y592D01*
X66637Y508D01*
X66593Y420D01*
X66560Y325D01*
X66532Y236D01*
X66488Y64D01*
X66471Y-19D01*
X66460Y-91D01*
X66454Y-158D01*
X66449Y-213D01*
X66443Y-263D01*
Y-330D01*
X66449Y-435D01*
X66454Y-541D01*
X66471Y-635D01*
X66488Y-724D01*
X66504Y-813D01*
X66532Y-890D01*
X66554Y-962D01*
X66582Y-1029D01*
X66604Y-1090D01*
X66632Y-1140D01*
X66654Y-1184D01*
X66671Y-1223D01*
X66693Y-1251D01*
X66704Y-1273D01*
X66710Y-1284D01*
X66715Y-1290D01*
X66787Y-1373D01*
X66860Y-1445D01*
X66943Y-1506D01*
X67032Y-1562D01*
X67120Y-1606D01*
X67209Y-1645D01*
X67298Y-1678D01*
X67387Y-1701D01*
X67465Y-1723D01*
X67542Y-1734D01*
X67614Y-1745D01*
X67675Y-1756D01*
X67725D01*
X67759Y-1762D01*
X66443Y-1762D01*
X69041Y-1762D01*
Y1147D01*
D02*
G37*
G36*
X58601Y1147D02*
D01*
Y-369D01*
X58590Y-230D01*
X58573Y-97D01*
X58551Y25D01*
X58523Y142D01*
X58496Y242D01*
X58462Y336D01*
X58429Y420D01*
X58396Y492D01*
X58363Y558D01*
X58335Y608D01*
X58307Y653D01*
X58285Y686D01*
X58268Y714D01*
X58257Y725D01*
X58252Y730D01*
X58185Y802D01*
X58107Y869D01*
X58030Y925D01*
X57952Y969D01*
X57869Y1013D01*
X57785Y1047D01*
X57708Y1074D01*
X57630Y1097D01*
X57558Y1113D01*
X57491Y1124D01*
X57430Y1135D01*
X57380Y1141D01*
X57336Y1147D01*
X57275D01*
X57175Y1141D01*
X57080Y1130D01*
X56986Y1108D01*
X56903Y1085D01*
X56820Y1058D01*
X56748Y1025D01*
X56675Y986D01*
X56614Y952D01*
X56559Y914D01*
X56509Y875D01*
X56464Y841D01*
X56431Y814D01*
X56403Y791D01*
X56381Y769D01*
X56370Y758D01*
X56365Y752D01*
X56303Y675D01*
X56248Y592D01*
X56198Y508D01*
X56154Y420D01*
X56120Y325D01*
X56093Y236D01*
X56048Y64D01*
X56032Y-19D01*
X56020Y-91D01*
X56015Y-158D01*
X56009Y-213D01*
X56004Y-263D01*
Y-330D01*
X56009Y-435D01*
X56015Y-541D01*
X56032Y-635D01*
X56048Y-724D01*
X56065Y-813D01*
X56093Y-890D01*
X56115Y-962D01*
X56142Y-1029D01*
X56165Y-1090D01*
X56192Y-1140D01*
X56215Y-1184D01*
X56231Y-1223D01*
X56253Y-1251D01*
X56265Y-1273D01*
X56270Y-1284D01*
X56276Y-1290D01*
X56348Y-1373D01*
X56420Y-1445D01*
X56503Y-1506D01*
X56592Y-1562D01*
X56681Y-1606D01*
X56770Y-1645D01*
X56858Y-1678D01*
X56947Y-1701D01*
X57025Y-1723D01*
X57103Y-1734D01*
X57175Y-1745D01*
X57236Y-1756D01*
X57286D01*
X57319Y-1762D01*
X56004D01*
D01*
X58601D01*
Y1147D01*
D02*
G37*
G36*
X73791Y2162D02*
X73736D01*
X73642Y2157D01*
X73553Y2151D01*
X73381Y2123D01*
X73237Y2079D01*
X73170Y2057D01*
X73109Y2029D01*
X73053Y2007D01*
X73009Y1979D01*
X72965Y1957D01*
X72931Y1940D01*
X72904Y1918D01*
X72887Y1907D01*
X72876Y1901D01*
X72870Y1896D01*
X72809Y1840D01*
X72754Y1785D01*
X72704Y1718D01*
X72659Y1646D01*
X72593Y1502D01*
X72537Y1363D01*
X72521Y1291D01*
X72504Y1230D01*
X72487Y1174D01*
X72482Y1124D01*
X72471Y1080D01*
Y1052D01*
X72465Y1030D01*
Y1025D01*
X73198Y952D01*
X73209Y1063D01*
X73231Y1158D01*
X73253Y1241D01*
X73281Y1302D01*
X73303Y1352D01*
X73325Y1385D01*
X73342Y1407D01*
X73348Y1413D01*
X73403Y1457D01*
X73464Y1491D01*
X73525Y1518D01*
X73586Y1535D01*
X73636Y1546D01*
X73681Y1552D01*
X73719D01*
X73803Y1546D01*
X73875Y1530D01*
X73936Y1507D01*
X73991Y1485D01*
X74030Y1463D01*
X74063Y1441D01*
X74080Y1424D01*
X74086Y1419D01*
X74130Y1363D01*
X74163Y1302D01*
X74186Y1241D01*
X74202Y1180D01*
X74213Y1124D01*
X74219Y1075D01*
Y1047D01*
Y1041D01*
Y1036D01*
X74213Y952D01*
X74197Y875D01*
X74169Y797D01*
X74141Y730D01*
X74113Y669D01*
X74086Y625D01*
X74069Y597D01*
X74063Y586D01*
X74041Y553D01*
X74008Y514D01*
X73963Y464D01*
X73919Y420D01*
X73819Y314D01*
X73719Y209D01*
X73619Y109D01*
X73575Y64D01*
X73531Y31D01*
X73497Y-2D01*
X73475Y-24D01*
X73458Y-41D01*
X73453Y-47D01*
X73342Y-152D01*
X73242Y-252D01*
X73148Y-346D01*
X73064Y-430D01*
X72987Y-513D01*
X72920Y-591D01*
X72859Y-657D01*
X72809Y-724D01*
X72765Y-779D01*
X72726Y-829D01*
X72693Y-868D01*
X72670Y-907D01*
X72648Y-929D01*
X72637Y-951D01*
X72626Y-962D01*
Y-968D01*
X72554Y-1096D01*
X72498Y-1229D01*
X72454Y-1351D01*
X72421Y-1462D01*
X72399Y-1562D01*
X72393Y-1601D01*
X72387Y-1634D01*
X72382Y-1662D01*
X72376Y-1684D01*
Y-1701D01*
X74957D01*
Y1085D01*
X74951Y1169D01*
X74940Y1252D01*
X74929Y1330D01*
X74907Y1402D01*
X74852Y1530D01*
X74796Y1641D01*
X74763Y1691D01*
X74735Y1729D01*
X74707Y1768D01*
X74679Y1796D01*
X74657Y1818D01*
X74646Y1840D01*
X74635Y1846D01*
X74629Y1852D01*
X74568Y1907D01*
X74496Y1957D01*
X74430Y1996D01*
X74352Y2029D01*
X74208Y2085D01*
X74063Y2123D01*
X73997Y2135D01*
X73936Y2146D01*
X73880Y2151D01*
X73830Y2157D01*
X73791Y2162D01*
D02*
G37*
G36*
X72171Y1085D02*
Y-1701D01*
X71066D01*
X72171Y1085D01*
X71416D01*
X70883Y-341D01*
X70850Y-424D01*
X70828Y-502D01*
X70817Y-530D01*
X70811Y-552D01*
X70806Y-568D01*
Y-574D01*
X70800Y-602D01*
X70789Y-635D01*
X70761Y-718D01*
X70750Y-752D01*
X70739Y-785D01*
X70733Y-807D01*
X70728Y-813D01*
X70578Y-341D01*
X70051Y1085D01*
X69279D01*
X70401Y-1701D01*
X69279D01*
D01*
X72171D01*
Y1085D01*
D02*
G37*
G36*
X66243Y2140D02*
D01*
Y-1701D01*
X65772Y-951D01*
X65722Y-874D01*
X65672Y-796D01*
X65627Y-729D01*
X65583Y-668D01*
X65544Y-613D01*
X65511Y-557D01*
X65444Y-474D01*
X65394Y-407D01*
X65361Y-363D01*
X65333Y-335D01*
X65328Y-330D01*
X65267Y-263D01*
X65195Y-202D01*
X65128Y-152D01*
X65061Y-102D01*
X65006Y-63D01*
X64961Y-36D01*
X64928Y-13D01*
X64923Y-8D01*
X64917D01*
X65011Y9D01*
X65095Y31D01*
X65172Y53D01*
X65250Y81D01*
X65317Y109D01*
X65378Y137D01*
X65439Y164D01*
X65489Y197D01*
X65533Y225D01*
X65572Y253D01*
X65605Y281D01*
X65627Y303D01*
X65650Y320D01*
X65666Y336D01*
X65672Y342D01*
X65677Y347D01*
X65722Y403D01*
X65761Y458D01*
X65827Y581D01*
X65872Y697D01*
X65899Y814D01*
X65922Y914D01*
X65927Y952D01*
Y991D01*
X65933Y1019D01*
Y1047D01*
Y1058D01*
Y1063D01*
X65927Y1185D01*
X65905Y1302D01*
X65877Y1402D01*
X65850Y1491D01*
X65816Y1563D01*
X65788Y1618D01*
X65777Y1635D01*
X65766Y1652D01*
X65761Y1657D01*
Y1663D01*
X65694Y1757D01*
X65622Y1835D01*
X65550Y1896D01*
X65478Y1951D01*
X65411Y1985D01*
X65361Y2012D01*
X65328Y2029D01*
X65322Y2035D01*
X65317D01*
X65261Y2051D01*
X65200Y2068D01*
X65061Y2096D01*
X64912Y2112D01*
X64767Y2129D01*
X64695D01*
X64634Y2135D01*
X64573D01*
X64523Y2140D01*
X62791D01*
Y-1701D01*
X66243D01*
Y2140D01*
D02*
G37*
G36*
X49333Y1147D02*
X47967D01*
X49150D01*
X49061Y1135D01*
X48972Y1130D01*
X48894Y1113D01*
X48816Y1102D01*
X48750Y1085D01*
X48689Y1063D01*
X48633Y1047D01*
X48589Y1030D01*
X48544Y1008D01*
X48511Y991D01*
X48478Y980D01*
X48456Y963D01*
X48439Y958D01*
X48434Y947D01*
X48428D01*
X48334Y864D01*
X48256Y769D01*
X48189Y669D01*
X48134Y575D01*
X48095Y486D01*
X48078Y447D01*
X48067Y414D01*
X48056Y386D01*
X48051Y364D01*
X48045Y353D01*
Y347D01*
X48706Y225D01*
X48733Y292D01*
X48761Y347D01*
X48789Y397D01*
X48822Y436D01*
X48844Y464D01*
X48866Y481D01*
X48878Y492D01*
X48883Y497D01*
X48928Y525D01*
X48977Y547D01*
X49033Y558D01*
X49083Y569D01*
X49127Y575D01*
X49161Y581D01*
X49194D01*
X49294Y575D01*
X49377Y564D01*
X49444Y553D01*
X49499Y536D01*
X49538Y514D01*
X49566Y503D01*
X49582Y492D01*
X49588Y486D01*
X49627Y447D01*
X49655Y403D01*
X49671Y353D01*
X49688Y303D01*
X49693Y253D01*
X49699Y214D01*
Y192D01*
Y181D01*
Y109D01*
X49660Y92D01*
X49610Y75D01*
X49505Y42D01*
X49383Y14D01*
X49266Y-13D01*
X49155Y-41D01*
X49105Y-52D01*
X49061Y-58D01*
X49027Y-63D01*
X49000Y-69D01*
X48983Y-74D01*
X48977D01*
X48844Y-102D01*
X48722Y-130D01*
X48622Y-158D01*
X48539Y-185D01*
X48472Y-213D01*
X48428Y-230D01*
X48400Y-241D01*
X48389Y-246D01*
X48317Y-285D01*
X48256Y-330D01*
X48201Y-380D01*
X48162Y-424D01*
X48123Y-463D01*
X48101Y-496D01*
X48084Y-518D01*
X48078Y-530D01*
X48039Y-602D01*
X48012Y-674D01*
X47995Y-740D01*
X47984Y-807D01*
X47973Y-862D01*
X47967Y-907D01*
Y-946D01*
X47973Y-1012D01*
X47978Y-1073D01*
X48006Y-1190D01*
X48045Y-1290D01*
X48089Y-1373D01*
X48134Y-1440D01*
X48173Y-1490D01*
X48201Y-1523D01*
X48212Y-1529D01*
Y-1534D01*
X48311Y-1612D01*
X48422Y-1667D01*
X48533Y-1706D01*
X48645Y-1734D01*
X48739Y-1750D01*
X48783Y-1756D01*
X48816D01*
X48850Y-1762D01*
X48889D01*
X48977Y-1756D01*
X49066Y-1745D01*
X49144Y-1734D01*
X49211Y-1717D01*
X49266Y-1701D01*
X49310Y-1684D01*
X49338Y-1678D01*
X49349Y-1673D01*
X49427Y-1634D01*
X49505Y-1595D01*
X49571Y-1545D01*
X49632Y-1501D01*
X49682Y-1462D01*
X49721Y-1429D01*
X49743Y-1406D01*
X49755Y-1401D01*
X49760Y-1423D01*
X49771Y-1451D01*
X49777Y-1473D01*
X49782Y-1479D01*
Y-1484D01*
X49799Y-1534D01*
X49810Y-1578D01*
X49821Y-1617D01*
X49832Y-1645D01*
X49843Y-1667D01*
X49849Y-1689D01*
X49854Y-1695D01*
Y-1701D01*
X50581D01*
X50548Y-1628D01*
X50520Y-1562D01*
X50498Y-1501D01*
X50476Y-1445D01*
X50465Y-1401D01*
X50454Y-1362D01*
X50448Y-1340D01*
Y-1334D01*
X50437Y-1262D01*
X50432Y-1173D01*
X50420Y-1084D01*
Y-996D01*
X50415Y-918D01*
Y-851D01*
Y-824D01*
Y-807D01*
Y-796D01*
Y-790D01*
X50426Y70D01*
Y159D01*
X50420Y236D01*
X50415Y308D01*
X50409Y375D01*
X50404Y436D01*
X50393Y492D01*
X50387Y542D01*
X50376Y581D01*
X50365Y619D01*
X50359Y647D01*
X50343Y697D01*
X50332Y719D01*
X50326Y730D01*
X50282Y791D01*
X50232Y852D01*
X50176Y902D01*
X50115Y947D01*
X50065Y980D01*
X50021Y1002D01*
X49993Y1019D01*
X49988Y1025D01*
X49982D01*
X49932Y1047D01*
X49882Y1063D01*
X49766Y1097D01*
X49643Y1119D01*
X49527Y1130D01*
X49416Y1141D01*
X49371D01*
X49333Y1147D01*
D02*
G37*
G36*
X44315D02*
D01*
Y-1762D01*
X42623D01*
X42711Y-1756D01*
X42800Y-1745D01*
X42878Y-1734D01*
X42945Y-1717D01*
X43000Y-1701D01*
X43044Y-1684D01*
X43072Y-1678D01*
X43083Y-1673D01*
X43161Y-1634D01*
X43239Y-1595D01*
X43305Y-1545D01*
X43366Y-1501D01*
X43416Y-1462D01*
X43455Y-1429D01*
X43477Y-1406D01*
X43488Y-1401D01*
X43494Y-1423D01*
X43505Y-1451D01*
X43511Y-1473D01*
X43516Y-1479D01*
Y-1484D01*
X43533Y-1534D01*
X43544Y-1578D01*
X43555Y-1617D01*
X43566Y-1645D01*
X43577Y-1667D01*
X43583Y-1689D01*
X43588Y-1695D01*
Y-1701D01*
X44315D01*
X44282Y-1628D01*
X44254Y-1562D01*
X44232Y-1501D01*
X44210Y-1445D01*
X44199Y-1401D01*
X44188Y-1362D01*
X44182Y-1340D01*
Y-1334D01*
X44171Y-1262D01*
X44166Y-1173D01*
X44155Y-1084D01*
Y-996D01*
X44149Y-918D01*
Y-851D01*
Y-824D01*
Y-807D01*
Y-796D01*
Y-790D01*
X44160Y70D01*
Y159D01*
X44155Y236D01*
X44149Y308D01*
X44143Y375D01*
X44138Y436D01*
X44127Y492D01*
X44121Y542D01*
X44110Y581D01*
X44099Y619D01*
X44093Y647D01*
X44077Y697D01*
X44066Y719D01*
X44060Y730D01*
X44016Y791D01*
X43966Y852D01*
X43910Y902D01*
X43849Y947D01*
X43799Y980D01*
X43755Y1002D01*
X43727Y1019D01*
X43722Y1025D01*
X43716D01*
X43666Y1047D01*
X43616Y1063D01*
X43500Y1097D01*
X43378Y1119D01*
X43261Y1130D01*
X43150Y1141D01*
X43106D01*
X43067Y1147D01*
X42819D01*
X42884D01*
X42795Y1135D01*
X42706Y1130D01*
X42628Y1113D01*
X42551Y1102D01*
X42484Y1085D01*
X42423Y1063D01*
X42367Y1047D01*
X42323Y1030D01*
X42279Y1008D01*
X42245Y991D01*
X42212Y980D01*
X42190Y963D01*
X42173Y958D01*
X42168Y947D01*
X42162D01*
X42068Y864D01*
X41990Y769D01*
X41923Y669D01*
X41868Y575D01*
X41829Y486D01*
X41812Y447D01*
X41801Y414D01*
X41790Y386D01*
X41785Y364D01*
X41779Y353D01*
Y347D01*
X42440Y225D01*
X42467Y292D01*
X42495Y347D01*
X42523Y397D01*
X42556Y436D01*
X42578Y464D01*
X42601Y481D01*
X42612Y492D01*
X42617Y497D01*
X42661Y525D01*
X42711Y547D01*
X42767Y558D01*
X42817Y569D01*
X42861Y575D01*
X42895Y581D01*
X42928D01*
X43028Y575D01*
X43111Y564D01*
X43178Y553D01*
X43233Y536D01*
X43272Y514D01*
X43300Y503D01*
X43316Y492D01*
X43322Y486D01*
X43361Y447D01*
X43389Y403D01*
X43405Y353D01*
X43422Y303D01*
X43427Y253D01*
X43433Y214D01*
Y192D01*
Y181D01*
Y109D01*
X43394Y92D01*
X43344Y75D01*
X43239Y42D01*
X43117Y14D01*
X43000Y-13D01*
X42889Y-41D01*
X42839Y-52D01*
X42795Y-58D01*
X42761Y-63D01*
X42734Y-69D01*
X42717Y-74D01*
X42711D01*
X42578Y-102D01*
X42456Y-130D01*
X42356Y-158D01*
X42273Y-185D01*
X42206Y-213D01*
X42162Y-230D01*
X42134Y-241D01*
X42123Y-246D01*
X42051Y-285D01*
X41990Y-330D01*
X41934Y-380D01*
X41896Y-424D01*
X41857Y-463D01*
X41835Y-496D01*
X41818Y-518D01*
X41812Y-530D01*
X41774Y-602D01*
X41746Y-674D01*
X41729Y-740D01*
X41718Y-807D01*
X41707Y-862D01*
X41701Y-907D01*
Y-946D01*
X41707Y-1012D01*
X41712Y-1073D01*
X41740Y-1190D01*
X41779Y-1290D01*
X41824Y-1373D01*
X41868Y-1440D01*
X41907Y-1490D01*
X41934Y-1523D01*
X41946Y-1529D01*
Y-1534D01*
X42046Y-1612D01*
X42156Y-1667D01*
X42268Y-1706D01*
X42379Y-1734D01*
X42473Y-1750D01*
X42517Y-1756D01*
X42551D01*
X42584Y-1762D01*
X41701D01*
D01*
X44315D01*
Y1147D01*
D02*
G37*
G36*
X55771Y2073D02*
Y-1762D01*
X55188D01*
X55304Y-1756D01*
X55415Y-1745D01*
X55515Y-1728D01*
X55599Y-1706D01*
X55671Y-1689D01*
X55726Y-1673D01*
X55760Y-1662D01*
X55765Y-1656D01*
X55771D01*
X55704Y-1084D01*
X55638Y-1107D01*
X55576Y-1123D01*
X55526Y-1135D01*
X55482Y-1140D01*
X55449Y-1146D01*
X55427Y-1151D01*
X55404D01*
X55354Y-1146D01*
X55316Y-1135D01*
X55293Y-1123D01*
X55282Y-1118D01*
X55249Y-1084D01*
X55232Y-1057D01*
X55221Y-1035D01*
X55216Y-1024D01*
Y-1012D01*
X55210Y-990D01*
Y-940D01*
Y-874D01*
X55204Y-807D01*
Y-740D01*
Y-685D01*
Y-663D01*
Y-646D01*
Y-635D01*
Y-629D01*
Y497D01*
X55710D01*
Y1085D01*
X55204D01*
Y2073D01*
D01*
X54466Y1640D01*
Y1085D01*
X54128D01*
D01*
Y497D01*
X54466D01*
Y-718D01*
Y-790D01*
Y-851D01*
Y-912D01*
X54472Y-962D01*
Y-1051D01*
X54478Y-1123D01*
X54483Y-1179D01*
Y-1212D01*
X54489Y-1234D01*
Y-1240D01*
X54500Y-1301D01*
X54516Y-1357D01*
X54533Y-1406D01*
X54550Y-1445D01*
X54566Y-1479D01*
X54577Y-1501D01*
X54583Y-1517D01*
X54589Y-1523D01*
X54622Y-1562D01*
X54661Y-1595D01*
X54738Y-1651D01*
X54772Y-1667D01*
X54799Y-1684D01*
X54822Y-1689D01*
X54827Y-1695D01*
X54888Y-1717D01*
X54949Y-1734D01*
X55010Y-1745D01*
X55066Y-1750D01*
X55116Y-1756D01*
X55155Y-1762D01*
X54128D01*
D01*
X55771D01*
Y2073D01*
D02*
G37*
G36*
X50581Y1147D02*
D01*
Y-1762D01*
D01*
D01*
Y1147D01*
D02*
G37*
%LPD*%
G36*
X60971Y1002D02*
D01*
D01*
D01*
D02*
G37*
G36*
Y-1701D02*
X59911D01*
Y-846D01*
Y-718D01*
Y-602D01*
X59917Y-496D01*
X59922Y-402D01*
Y-313D01*
X59928Y-241D01*
X59933Y-169D01*
X59939Y-113D01*
X59944Y-63D01*
X59950Y-19D01*
X59955Y14D01*
Y42D01*
X59961Y59D01*
X59966Y75D01*
Y87D01*
X59989Y164D01*
X60016Y231D01*
X60044Y286D01*
X60072Y325D01*
X60094Y359D01*
X60116Y381D01*
X60127Y392D01*
X60133Y397D01*
X60177Y425D01*
X60222Y447D01*
X60266Y464D01*
X60305Y475D01*
X60338Y481D01*
X60372Y486D01*
X60394D01*
X60455Y481D01*
X60516Y470D01*
X60571Y447D01*
X60627Y425D01*
X60671Y403D01*
X60705Y381D01*
X60732Y370D01*
X60738Y364D01*
X60971Y1002D01*
Y-1701D01*
D02*
G37*
G36*
X46180Y569D02*
X46269Y547D01*
X46341Y514D01*
X46408Y475D01*
X46458Y436D01*
X46491Y403D01*
X46519Y381D01*
X46524Y370D01*
X46558Y325D01*
X46585Y281D01*
X46630Y170D01*
X46657Y59D01*
X46680Y-58D01*
X46691Y-158D01*
X46696Y-208D01*
X46702Y-246D01*
Y-280D01*
Y-302D01*
Y-319D01*
Y-324D01*
X46696Y-474D01*
X46674Y-607D01*
X46646Y-718D01*
X46613Y-807D01*
X46580Y-879D01*
X46552Y-929D01*
X46530Y-957D01*
X46524Y-968D01*
X46452Y-1040D01*
X46380Y-1090D01*
X46308Y-1129D01*
X46241Y-1151D01*
X46180Y-1168D01*
X46136Y-1173D01*
X46103Y-1179D01*
X46091D01*
X46036Y-1173D01*
X45981Y-1168D01*
X45880Y-1135D01*
X45797Y-1090D01*
X45725Y-1035D01*
X45670Y-985D01*
X45631Y-940D01*
X45609Y-907D01*
X45597Y-901D01*
Y-896D01*
X45575Y-857D01*
X45559Y-813D01*
X45525Y-713D01*
X45503Y-602D01*
X45492Y-496D01*
X45481Y-402D01*
Y-363D01*
X45475Y-324D01*
Y-296D01*
Y-269D01*
Y-258D01*
Y-252D01*
X45481Y-108D01*
X45503Y20D01*
X45531Y125D01*
X45564Y214D01*
X45592Y281D01*
X45620Y331D01*
X45642Y359D01*
X45647Y370D01*
X45720Y442D01*
X45792Y492D01*
X45864Y531D01*
X45936Y553D01*
X45992Y569D01*
X46042Y575D01*
X46075Y581D01*
X46086D01*
X46180Y569D01*
D02*
G37*
G36*
X46758Y-1701D02*
X47440D01*
Y-1762D01*
X45880D01*
X45969Y-1756D01*
X46053Y-1745D01*
X46136Y-1728D01*
X46208Y-1706D01*
X46264Y-1684D01*
X46314Y-1667D01*
X46341Y-1656D01*
X46352Y-1651D01*
X46436Y-1601D01*
X46513Y-1545D01*
X46585Y-1484D01*
X46641Y-1429D01*
X46691Y-1379D01*
X46730Y-1334D01*
X46752Y-1307D01*
X46758Y-1295D01*
Y-1701D01*
D02*
G37*
G36*
X52574Y553D02*
X52657Y531D01*
X52729Y497D01*
X52790Y458D01*
X52840Y414D01*
X52879Y381D01*
X52907Y359D01*
X52912Y347D01*
X52974Y259D01*
X53018Y159D01*
X53046Y48D01*
X53068Y-58D01*
X53079Y-152D01*
X53084Y-191D01*
X53090Y-230D01*
Y-258D01*
Y-280D01*
Y-296D01*
Y-302D01*
Y-385D01*
X53084Y-463D01*
X53073Y-535D01*
X53062Y-602D01*
X53051Y-663D01*
X53035Y-718D01*
X53018Y-768D01*
X53007Y-813D01*
X52974Y-885D01*
X52946Y-935D01*
X52924Y-962D01*
X52918Y-974D01*
X52851Y-1040D01*
X52779Y-1090D01*
X52707Y-1129D01*
X52640Y-1151D01*
X52579Y-1168D01*
X52535Y-1173D01*
X52502Y-1179D01*
X52491D01*
X52396Y-1168D01*
X52307Y-1146D01*
X52230Y-1107D01*
X52169Y-1068D01*
X52113Y-1029D01*
X52074Y-990D01*
X52052Y-968D01*
X52041Y-957D01*
X52008Y-912D01*
X51980Y-862D01*
X51936Y-757D01*
X51902Y-641D01*
X51880Y-524D01*
X51869Y-424D01*
X51863Y-380D01*
Y-341D01*
X51858Y-307D01*
Y-285D01*
Y-269D01*
Y-263D01*
X51863Y-119D01*
X51886Y3D01*
X51913Y109D01*
X51947Y197D01*
X51974Y264D01*
X52002Y314D01*
X52024Y342D01*
X52030Y353D01*
X52102Y425D01*
X52174Y475D01*
X52252Y514D01*
X52324Y536D01*
X52385Y553D01*
X52435Y558D01*
X52468Y564D01*
X52479D01*
X52574Y553D01*
D02*
G37*
G36*
X53845Y-2766D02*
X51869D01*
Y-1357D01*
X51947Y-1434D01*
X52019Y-1501D01*
X52080Y-1556D01*
X52141Y-1595D01*
X52191Y-1628D01*
X52224Y-1656D01*
X52252Y-1667D01*
X52258Y-1673D01*
X52330Y-1701D01*
X52402Y-1723D01*
X52474Y-1739D01*
X52540Y-1750D01*
X52596Y-1756D01*
X52640Y-1762D01*
X52679D01*
X52768Y-1756D01*
X52851Y-1745D01*
X52935Y-1728D01*
X53012Y-1701D01*
X53151Y-1640D01*
X53212Y-1606D01*
X53273Y-1567D01*
X53323Y-1534D01*
X53368Y-1501D01*
X53406Y-1467D01*
X53440Y-1440D01*
X53467Y-1412D01*
X53484Y-1395D01*
X53495Y-1384D01*
X53501Y-1379D01*
X53562Y-1301D01*
X53612Y-1218D01*
X53662Y-1135D01*
X53701Y-1046D01*
X53734Y-957D01*
X53762Y-868D01*
X53800Y-691D01*
X53817Y-613D01*
X53828Y-535D01*
X53834Y-469D01*
X53839Y-413D01*
X53845Y-363D01*
Y-2766D01*
D02*
G37*
G36*
X67842Y575D02*
X67914Y553D01*
X67981Y525D01*
X68036Y497D01*
X68081Y464D01*
X68114Y436D01*
X68136Y414D01*
X68142Y409D01*
X68191Y342D01*
X68236Y264D01*
X68264Y181D01*
X68286Y103D01*
X68297Y37D01*
X68303Y-24D01*
X68308Y-47D01*
Y-58D01*
Y-69D01*
Y-74D01*
X67209D01*
X67215Y31D01*
X67231Y125D01*
X67254Y209D01*
X67287Y275D01*
X67315Y331D01*
X67342Y370D01*
X67359Y397D01*
X67365Y403D01*
X67426Y464D01*
X67492Y508D01*
X67559Y536D01*
X67620Y558D01*
X67675Y569D01*
X67720Y581D01*
X67759D01*
X67842Y575D01*
D02*
G37*
G36*
X69041Y-1762D02*
X67792D01*
X67953Y-1750D01*
X68103Y-1728D01*
X68230Y-1695D01*
X68341Y-1656D01*
X68391Y-1634D01*
X68430Y-1617D01*
X68469Y-1601D01*
X68497Y-1584D01*
X68519Y-1567D01*
X68541Y-1562D01*
X68547Y-1551D01*
X68552D01*
X68658Y-1462D01*
X68752Y-1367D01*
X68830Y-1262D01*
X68891Y-1162D01*
X68941Y-1073D01*
X68957Y-1034D01*
X68974Y-1001D01*
X68985Y-974D01*
X68996Y-951D01*
X69002Y-940D01*
Y-935D01*
X68269Y-813D01*
X68242Y-885D01*
X68214Y-951D01*
X68186Y-1001D01*
X68153Y-1046D01*
X68130Y-1079D01*
X68108Y-1101D01*
X68092Y-1112D01*
X68086Y-1118D01*
X68042Y-1151D01*
X67992Y-1173D01*
X67942Y-1190D01*
X67897Y-1201D01*
X67859Y-1207D01*
X67825Y-1212D01*
X67797D01*
X67709Y-1207D01*
X67625Y-1184D01*
X67548Y-1157D01*
X67487Y-1123D01*
X67437Y-1090D01*
X67403Y-1062D01*
X67376Y-1040D01*
X67370Y-1034D01*
X67315Y-962D01*
X67276Y-879D01*
X67242Y-790D01*
X67220Y-713D01*
X67209Y-635D01*
X67204Y-580D01*
X67198Y-557D01*
Y-541D01*
Y-530D01*
Y-524D01*
X69041D01*
Y-1762D01*
D02*
G37*
G36*
X57402Y575D02*
X57474Y553D01*
X57541Y525D01*
X57597Y497D01*
X57641Y464D01*
X57674Y436D01*
X57696Y414D01*
X57702Y408D01*
X57752Y342D01*
X57796Y264D01*
X57824Y181D01*
X57846Y103D01*
X57857Y37D01*
X57863Y-25D01*
X57869Y-47D01*
Y-58D01*
Y-69D01*
Y-74D01*
X56770D01*
X56775Y31D01*
X56792Y125D01*
X56814Y209D01*
X56847Y275D01*
X56875Y331D01*
X56903Y370D01*
X56919Y397D01*
X56925Y403D01*
X56986Y464D01*
X57053Y508D01*
X57119Y536D01*
X57180Y558D01*
X57236Y569D01*
X57280Y581D01*
X57319D01*
X57402Y575D01*
D02*
G37*
G36*
X58601Y-1762D02*
X57352D01*
X57513Y-1750D01*
X57663Y-1728D01*
X57791Y-1695D01*
X57902Y-1656D01*
X57952Y-1634D01*
X57991Y-1617D01*
X58030Y-1601D01*
X58057Y-1584D01*
X58079Y-1567D01*
X58102Y-1562D01*
X58107Y-1551D01*
X58113D01*
X58218Y-1462D01*
X58312Y-1368D01*
X58390Y-1262D01*
X58451Y-1162D01*
X58501Y-1073D01*
X58518Y-1035D01*
X58535Y-1001D01*
X58546Y-974D01*
X58557Y-951D01*
X58562Y-940D01*
Y-935D01*
X57830Y-813D01*
X57802Y-885D01*
X57774Y-951D01*
X57746Y-1001D01*
X57713Y-1046D01*
X57691Y-1079D01*
X57669Y-1101D01*
X57652Y-1112D01*
X57647Y-1118D01*
X57602Y-1151D01*
X57552Y-1173D01*
X57502Y-1190D01*
X57458Y-1201D01*
X57419Y-1207D01*
X57386Y-1212D01*
X57358D01*
X57269Y-1207D01*
X57186Y-1184D01*
X57108Y-1157D01*
X57047Y-1123D01*
X56997Y-1090D01*
X56964Y-1062D01*
X56936Y-1040D01*
X56931Y-1035D01*
X56875Y-962D01*
X56836Y-879D01*
X56803Y-790D01*
X56781Y-713D01*
X56770Y-635D01*
X56764Y-580D01*
X56759Y-557D01*
Y-541D01*
Y-530D01*
Y-524D01*
X58601D01*
Y-1762D01*
D02*
G37*
G36*
X74957Y-1018D02*
X73492D01*
X73536Y-946D01*
X73586Y-885D01*
X73608Y-857D01*
X73625Y-835D01*
X73636Y-824D01*
X73642Y-818D01*
X73664Y-796D01*
X73686Y-768D01*
X73753Y-707D01*
X73825Y-635D01*
X73897Y-563D01*
X73969Y-496D01*
X74030Y-441D01*
X74052Y-418D01*
X74069Y-402D01*
X74080Y-396D01*
X74086Y-391D01*
X74208Y-274D01*
X74308Y-180D01*
X74391Y-91D01*
X74458Y-24D01*
X74507Y31D01*
X74541Y70D01*
X74563Y98D01*
X74568Y103D01*
X74641Y198D01*
X74702Y286D01*
X74752Y370D01*
X74791Y442D01*
X74824Y503D01*
X74846Y553D01*
X74857Y581D01*
X74863Y592D01*
X74896Y680D01*
X74918Y769D01*
X74935Y852D01*
X74946Y930D01*
X74951Y991D01*
X74957Y1041D01*
Y-1018D01*
D02*
G37*
G36*
X64506Y1485D02*
X64628D01*
X64678Y1480D01*
X64712D01*
X64728Y1474D01*
X64734D01*
X64801Y1457D01*
X64862Y1435D01*
X64912Y1413D01*
X64950Y1385D01*
X64984Y1357D01*
X65011Y1341D01*
X65022Y1324D01*
X65028Y1319D01*
X65061Y1274D01*
X65089Y1219D01*
X65106Y1169D01*
X65122Y1119D01*
X65128Y1074D01*
X65134Y1041D01*
Y1019D01*
Y1008D01*
X65128Y947D01*
X65122Y891D01*
X65106Y841D01*
X65095Y797D01*
X65078Y764D01*
X65061Y741D01*
X65056Y725D01*
X65050Y719D01*
X65017Y680D01*
X64984Y647D01*
X64912Y597D01*
X64884Y581D01*
X64856Y569D01*
X64839Y558D01*
X64834D01*
X64806Y553D01*
X64762Y542D01*
X64717Y536D01*
X64667Y531D01*
X64551Y525D01*
X64434Y519D01*
X64323Y514D01*
X63568D01*
Y1491D01*
X64456D01*
X64506Y1485D01*
D02*
G37*
G36*
X63896Y-102D02*
X63963Y-108D01*
X64018Y-119D01*
X64062Y-124D01*
X64090Y-135D01*
X64107Y-141D01*
X64112D01*
X64157Y-163D01*
X64201Y-185D01*
X64240Y-213D01*
X64279Y-235D01*
X64307Y-263D01*
X64329Y-285D01*
X64340Y-296D01*
X64345Y-302D01*
X64368Y-330D01*
X64395Y-357D01*
X64456Y-441D01*
X64523Y-530D01*
X64595Y-629D01*
X64656Y-718D01*
X64684Y-763D01*
X64706Y-796D01*
X64728Y-824D01*
X64745Y-846D01*
X64750Y-862D01*
X64756Y-868D01*
X65311Y-1701D01*
X63568D01*
Y-97D01*
X63818D01*
X63896Y-102D01*
D02*
G37*
G36*
X49699Y-518D02*
Y-607D01*
X49693Y-685D01*
X49688Y-746D01*
X49682Y-796D01*
X49677Y-829D01*
X49671Y-857D01*
X49666Y-868D01*
Y-874D01*
X49649Y-924D01*
X49621Y-974D01*
X49593Y-1012D01*
X49566Y-1051D01*
X49538Y-1079D01*
X49516Y-1101D01*
X49499Y-1112D01*
X49494Y-1118D01*
X49427Y-1162D01*
X49355Y-1190D01*
X49294Y-1212D01*
X49233Y-1229D01*
X49183Y-1240D01*
X49144Y-1245D01*
X49111D01*
X49050Y-1240D01*
X48989Y-1229D01*
X48939Y-1212D01*
X48900Y-1190D01*
X48861Y-1168D01*
X48839Y-1151D01*
X48822Y-1140D01*
X48816Y-1135D01*
X48778Y-1090D01*
X48750Y-1046D01*
X48733Y-1001D01*
X48722Y-957D01*
X48711Y-924D01*
X48706Y-896D01*
Y-874D01*
Y-868D01*
X48711Y-813D01*
X48728Y-763D01*
X48750Y-718D01*
X48778Y-679D01*
X48800Y-652D01*
X48822Y-629D01*
X48839Y-618D01*
X48844Y-613D01*
X48889Y-591D01*
X48944Y-563D01*
X49011Y-541D01*
X49077Y-524D01*
X49144Y-507D01*
X49194Y-496D01*
X49216Y-491D01*
X49233Y-485D01*
X49244D01*
X49355Y-463D01*
X49444Y-441D01*
X49527Y-418D01*
X49588Y-402D01*
X49638Y-385D01*
X49671Y-380D01*
X49693Y-369D01*
X49699D01*
Y-518D01*
D02*
G37*
G36*
X43433D02*
Y-607D01*
X43427Y-685D01*
X43422Y-746D01*
X43416Y-796D01*
X43411Y-829D01*
X43405Y-857D01*
X43400Y-868D01*
Y-874D01*
X43383Y-924D01*
X43355Y-974D01*
X43328Y-1012D01*
X43300Y-1051D01*
X43272Y-1079D01*
X43250Y-1101D01*
X43233Y-1112D01*
X43228Y-1118D01*
X43161Y-1162D01*
X43089Y-1190D01*
X43028Y-1212D01*
X42967Y-1229D01*
X42917Y-1240D01*
X42878Y-1245D01*
X42845D01*
X42784Y-1240D01*
X42723Y-1229D01*
X42673Y-1212D01*
X42634Y-1190D01*
X42595Y-1168D01*
X42573Y-1151D01*
X42556Y-1140D01*
X42551Y-1135D01*
X42512Y-1090D01*
X42484Y-1046D01*
X42467Y-1001D01*
X42456Y-957D01*
X42445Y-924D01*
X42440Y-896D01*
Y-874D01*
Y-868D01*
X42445Y-813D01*
X42462Y-763D01*
X42484Y-718D01*
X42512Y-679D01*
X42534Y-652D01*
X42556Y-629D01*
X42573Y-618D01*
X42578Y-613D01*
X42623Y-591D01*
X42678Y-563D01*
X42745Y-541D01*
X42811Y-524D01*
X42878Y-507D01*
X42928Y-496D01*
X42950Y-491D01*
X42967Y-485D01*
X42978D01*
X43089Y-463D01*
X43178Y-441D01*
X43261Y-418D01*
X43322Y-402D01*
X43372Y-385D01*
X43405Y-380D01*
X43427Y-369D01*
X43433D01*
Y-518D01*
D02*
G37*
%LPC*%
G36*
X28023Y38966D02*
X27135D01*
Y36036D01*
X28045D01*
X28084Y36041D01*
X28167Y36047D01*
X28261Y36053D01*
X28361Y36064D01*
X28461Y36080D01*
X28544Y36103D01*
X28556Y36108D01*
X28583Y36114D01*
X28622Y36130D01*
X28672Y36152D01*
X28727Y36186D01*
X28783Y36219D01*
X28839Y36258D01*
X28894Y36302D01*
X28900Y36313D01*
X28922Y36336D01*
X28955Y36374D01*
X28994Y36430D01*
X29038Y36502D01*
X29088Y36585D01*
X29133Y36680D01*
X29171Y36785D01*
Y36791D01*
X29177Y36802D01*
X29183Y36818D01*
X29188Y36841D01*
X29194Y36868D01*
X29205Y36907D01*
X29216Y36946D01*
X29227Y36990D01*
X29244Y37102D01*
X29260Y37229D01*
X29271Y37373D01*
X29277Y37529D01*
Y37534D01*
Y37557D01*
Y37584D01*
X29271Y37629D01*
Y37679D01*
X29266Y37734D01*
X29260Y37801D01*
X29255Y37867D01*
X29227Y38017D01*
X29194Y38173D01*
X29144Y38317D01*
X29111Y38389D01*
X29077Y38450D01*
Y38456D01*
X29066Y38467D01*
X29055Y38483D01*
X29044Y38506D01*
X29000Y38561D01*
X28944Y38628D01*
X28872Y38700D01*
X28789Y38772D01*
X28694Y38833D01*
X28594Y38883D01*
X28583Y38889D01*
X28556Y38894D01*
X28506Y38911D01*
X28433Y38927D01*
X28345Y38939D01*
X28234Y38955D01*
X28167Y38961D01*
X28095D01*
X28023Y38966D01*
D02*
G37*
G36*
X42228Y45100D02*
X41340D01*
Y42170D01*
X42250D01*
X42289Y42175D01*
X42372Y42181D01*
X42466Y42187D01*
X42566Y42198D01*
X42666Y42214D01*
X42749Y42237D01*
X42760Y42242D01*
X42788Y42248D01*
X42827Y42264D01*
X42877Y42287D01*
X42933Y42320D01*
X42988Y42353D01*
X43044Y42392D01*
X43099Y42436D01*
X43104Y42447D01*
X43127Y42470D01*
X43160Y42509D01*
X43199Y42564D01*
X43243Y42636D01*
X43293Y42719D01*
X43338Y42814D01*
X43376Y42919D01*
Y42925D01*
X43382Y42936D01*
X43387Y42952D01*
X43393Y42975D01*
X43399Y43002D01*
X43410Y43041D01*
X43421Y43080D01*
X43432Y43124D01*
X43449Y43235D01*
X43465Y43363D01*
X43476Y43508D01*
X43482Y43663D01*
Y43668D01*
Y43691D01*
Y43718D01*
X43476Y43763D01*
Y43813D01*
X43471Y43868D01*
X43465Y43935D01*
X43460Y44001D01*
X43432Y44151D01*
X43399Y44307D01*
X43349Y44451D01*
X43315Y44523D01*
X43282Y44584D01*
Y44590D01*
X43271Y44601D01*
X43260Y44618D01*
X43249Y44640D01*
X43204Y44695D01*
X43149Y44762D01*
X43077Y44834D01*
X42994Y44906D01*
X42899Y44967D01*
X42799Y45017D01*
X42788Y45023D01*
X42760Y45028D01*
X42710Y45045D01*
X42638Y45061D01*
X42549Y45073D01*
X42439Y45089D01*
X42372Y45095D01*
X42300D01*
X42228Y45100D01*
D02*
G37*
G36*
X24812Y61646D02*
X23924D01*
Y58716D01*
X24835D01*
X24873Y58721D01*
X24957Y58727D01*
X25051Y58732D01*
X25151Y58743D01*
X25251Y58760D01*
X25334Y58782D01*
X25345Y58788D01*
X25373Y58793D01*
X25412Y58810D01*
X25462Y58832D01*
X25517Y58865D01*
X25573Y58899D01*
X25628Y58938D01*
X25684Y58982D01*
X25689Y58993D01*
X25712Y59015D01*
X25745Y59054D01*
X25784Y59110D01*
X25828Y59182D01*
X25878Y59265D01*
X25922Y59360D01*
X25961Y59465D01*
Y59470D01*
X25967Y59482D01*
X25972Y59498D01*
X25978Y59521D01*
X25984Y59548D01*
X25995Y59587D01*
X26006Y59626D01*
X26017Y59670D01*
X26033Y59781D01*
X26050Y59909D01*
X26061Y60053D01*
X26067Y60209D01*
Y60214D01*
Y60236D01*
Y60264D01*
X26061Y60309D01*
Y60359D01*
X26056Y60414D01*
X26050Y60481D01*
X26044Y60547D01*
X26017Y60697D01*
X25984Y60852D01*
X25934Y60997D01*
X25900Y61069D01*
X25867Y61130D01*
Y61136D01*
X25856Y61147D01*
X25845Y61163D01*
X25834Y61185D01*
X25789Y61241D01*
X25734Y61308D01*
X25662Y61380D01*
X25578Y61452D01*
X25484Y61513D01*
X25384Y61563D01*
X25373Y61568D01*
X25345Y61574D01*
X25295Y61591D01*
X25223Y61607D01*
X25134Y61618D01*
X25023Y61635D01*
X24957Y61641D01*
X24885D01*
X24812Y61646D01*
D02*
G37*
G36*
X28342Y61729D02*
X28309D01*
X28287Y61724D01*
X28226Y61713D01*
X28153Y61696D01*
X28070Y61663D01*
X27981Y61613D01*
X27937Y61580D01*
X27893Y61546D01*
X27854Y61502D01*
X27815Y61452D01*
Y61446D01*
X27804Y61435D01*
X27793Y61413D01*
X27776Y61385D01*
X27760Y61341D01*
X27737Y61291D01*
X27721Y61230D01*
X27698Y61158D01*
X27676Y61075D01*
X27654Y60980D01*
X27632Y60875D01*
X27615Y60758D01*
X27599Y60625D01*
X27587Y60481D01*
X27582Y60325D01*
X27576Y60153D01*
Y60142D01*
Y60114D01*
Y60064D01*
X27582Y59998D01*
Y59926D01*
X27587Y59837D01*
X27593Y59742D01*
X27604Y59643D01*
X27632Y59426D01*
X27648Y59321D01*
X27671Y59221D01*
X27693Y59126D01*
X27726Y59038D01*
X27760Y58960D01*
X27798Y58893D01*
Y58888D01*
X27809Y58882D01*
X27837Y58843D01*
X27887Y58793D01*
X27948Y58738D01*
X28031Y58682D01*
X28126Y58632D01*
X28231Y58594D01*
X28287Y58588D01*
X28348Y58583D01*
X28381D01*
X28403Y58588D01*
X28459Y58599D01*
X28536Y58621D01*
X28620Y58660D01*
X28714Y58716D01*
X28758Y58749D01*
X28803Y58793D01*
X28847Y58838D01*
X28892Y58893D01*
Y58899D01*
X28903Y58910D01*
X28914Y58927D01*
X28925Y58954D01*
X28947Y58993D01*
X28964Y59043D01*
X28986Y59099D01*
X29008Y59165D01*
X29025Y59249D01*
X29047Y59337D01*
X29069Y59443D01*
X29086Y59554D01*
X29097Y59687D01*
X29108Y59826D01*
X29119Y59981D01*
Y60153D01*
Y60159D01*
Y60164D01*
Y60192D01*
Y60242D01*
X29114Y60309D01*
Y60381D01*
X29108Y60470D01*
X29103Y60564D01*
X29092Y60669D01*
X29064Y60880D01*
X29047Y60986D01*
X29025Y61086D01*
X29003Y61180D01*
X28969Y61269D01*
X28936Y61346D01*
X28897Y61413D01*
Y61419D01*
X28886Y61424D01*
X28875Y61441D01*
X28858Y61463D01*
X28808Y61513D01*
X28747Y61574D01*
X28664Y61629D01*
X28570Y61679D01*
X28520Y61702D01*
X28464Y61718D01*
X28403Y61724D01*
X28342Y61729D01*
D02*
G37*
G36*
X122687Y13648D02*
X122653D01*
X122631Y13642D01*
X122570Y13631D01*
X122498Y13614D01*
X122415Y13581D01*
X122326Y13531D01*
X122282Y13498D01*
X122237Y13464D01*
X122198Y13420D01*
X122160Y13370D01*
Y13364D01*
X122148Y13353D01*
X122137Y13331D01*
X122121Y13304D01*
X122104Y13259D01*
X122082Y13209D01*
X122065Y13148D01*
X122043Y13076D01*
X122021Y12993D01*
X121999Y12898D01*
X121976Y12793D01*
X121960Y12676D01*
X121943Y12543D01*
X121932Y12399D01*
X121926Y12243D01*
X121921Y12071D01*
Y12060D01*
Y12032D01*
Y11983D01*
X121926Y11916D01*
Y11844D01*
X121932Y11755D01*
X121938Y11661D01*
X121949Y11561D01*
X121976Y11344D01*
X121993Y11239D01*
X122015Y11139D01*
X122037Y11045D01*
X122071Y10956D01*
X122104Y10878D01*
X122143Y10812D01*
Y10806D01*
X122154Y10800D01*
X122182Y10762D01*
X122232Y10712D01*
X122293Y10656D01*
X122376Y10601D01*
X122470Y10551D01*
X122576Y10512D01*
X122631Y10506D01*
X122692Y10501D01*
X122726D01*
X122748Y10506D01*
X122803Y10517D01*
X122881Y10539D01*
X122964Y10578D01*
X123059Y10634D01*
X123103Y10667D01*
X123147Y10712D01*
X123192Y10756D01*
X123236Y10812D01*
Y10817D01*
X123247Y10828D01*
X123258Y10845D01*
X123269Y10872D01*
X123292Y10911D01*
X123308Y10961D01*
X123330Y11017D01*
X123353Y11084D01*
X123369Y11167D01*
X123392Y11255D01*
X123414Y11361D01*
X123430Y11472D01*
X123442Y11605D01*
X123453Y11744D01*
X123464Y11899D01*
Y12071D01*
Y12077D01*
Y12083D01*
Y12110D01*
Y12160D01*
X123458Y12227D01*
Y12299D01*
X123453Y12388D01*
X123447Y12482D01*
X123436Y12587D01*
X123408Y12798D01*
X123392Y12904D01*
X123369Y13004D01*
X123347Y13098D01*
X123314Y13187D01*
X123281Y13265D01*
X123242Y13331D01*
Y13337D01*
X123231Y13342D01*
X123220Y13359D01*
X123203Y13381D01*
X123153Y13431D01*
X123092Y13492D01*
X123009Y13548D01*
X122914Y13598D01*
X122864Y13620D01*
X122809Y13636D01*
X122748Y13642D01*
X122687Y13648D01*
D02*
G37*
G36*
X102175Y54230D02*
Y54224D01*
X102170Y54213D01*
Y54191D01*
X102159Y54169D01*
X102153Y54130D01*
X102142Y54091D01*
X102120Y53996D01*
X102092Y53886D01*
X102053Y53763D01*
X102014Y53630D01*
X101964Y53491D01*
X101548Y52370D01*
X102847D01*
X102447Y53425D01*
Y53430D01*
X102442Y53447D01*
X102430Y53475D01*
X102419Y53508D01*
X102403Y53547D01*
X102386Y53597D01*
X102369Y53652D01*
X102347Y53708D01*
X102303Y53836D01*
X102259Y53969D01*
X102214Y54102D01*
X102175Y54230D01*
D02*
G37*
G36*
X98390Y54174D02*
X97502D01*
Y51244D01*
X98412D01*
X98451Y51249D01*
X98535Y51255D01*
X98629Y51260D01*
X98729Y51271D01*
X98829Y51288D01*
X98912Y51310D01*
X98923Y51316D01*
X98951Y51321D01*
X98989Y51338D01*
X99040Y51360D01*
X99095Y51394D01*
X99151Y51427D01*
X99206Y51466D01*
X99261Y51510D01*
X99267Y51521D01*
X99289Y51543D01*
X99323Y51582D01*
X99361Y51638D01*
X99406Y51710D01*
X99456Y51793D01*
X99500Y51888D01*
X99539Y51993D01*
Y51999D01*
X99545Y52010D01*
X99550Y52026D01*
X99556Y52048D01*
X99561Y52076D01*
X99572Y52115D01*
X99583Y52154D01*
X99594Y52198D01*
X99611Y52309D01*
X99628Y52437D01*
X99639Y52581D01*
X99644Y52737D01*
Y52742D01*
Y52764D01*
Y52792D01*
X99639Y52837D01*
Y52886D01*
X99633Y52942D01*
X99628Y53009D01*
X99622Y53075D01*
X99594Y53225D01*
X99561Y53380D01*
X99511Y53525D01*
X99478Y53597D01*
X99445Y53658D01*
Y53663D01*
X99434Y53675D01*
X99423Y53691D01*
X99411Y53714D01*
X99367Y53769D01*
X99312Y53836D01*
X99239Y53908D01*
X99156Y53980D01*
X99062Y54041D01*
X98962Y54091D01*
X98951Y54096D01*
X98923Y54102D01*
X98873Y54119D01*
X98801Y54135D01*
X98712Y54146D01*
X98601Y54163D01*
X98535Y54169D01*
X98462D01*
X98390Y54174D01*
D02*
G37*
G36*
X120955Y61349D02*
X120922D01*
X120900Y61344D01*
X120839Y61333D01*
X120767Y61316D01*
X120684Y61283D01*
X120595Y61233D01*
X120550Y61199D01*
X120506Y61166D01*
X120467Y61122D01*
X120428Y61072D01*
Y61066D01*
X120417Y61055D01*
X120406Y61033D01*
X120389Y61005D01*
X120373Y60961D01*
X120351Y60911D01*
X120334Y60850D01*
X120312Y60778D01*
X120289Y60694D01*
X120267Y60600D01*
X120245Y60495D01*
X120228Y60378D01*
X120212Y60245D01*
X120201Y60101D01*
X120195Y59945D01*
X120189Y59773D01*
Y59762D01*
Y59734D01*
Y59684D01*
X120195Y59618D01*
Y59546D01*
X120201Y59457D01*
X120206Y59363D01*
X120217Y59263D01*
X120245Y59046D01*
X120262Y58941D01*
X120284Y58841D01*
X120306Y58746D01*
X120339Y58658D01*
X120373Y58580D01*
X120412Y58513D01*
Y58508D01*
X120423Y58502D01*
X120450Y58463D01*
X120500Y58413D01*
X120561Y58358D01*
X120645Y58302D01*
X120739Y58253D01*
X120844Y58214D01*
X120900Y58208D01*
X120961Y58202D01*
X120994D01*
X121017Y58208D01*
X121072Y58219D01*
X121150Y58241D01*
X121233Y58280D01*
X121327Y58336D01*
X121372Y58369D01*
X121416Y58413D01*
X121460Y58458D01*
X121505Y58513D01*
Y58519D01*
X121516Y58530D01*
X121527Y58547D01*
X121538Y58574D01*
X121560Y58613D01*
X121577Y58663D01*
X121599Y58719D01*
X121621Y58785D01*
X121638Y58869D01*
X121660Y58957D01*
X121683Y59063D01*
X121699Y59174D01*
X121710Y59307D01*
X121721Y59446D01*
X121732Y59601D01*
Y59773D01*
Y59779D01*
Y59784D01*
Y59812D01*
Y59862D01*
X121727Y59929D01*
Y60001D01*
X121721Y60089D01*
X121716Y60184D01*
X121705Y60289D01*
X121677Y60500D01*
X121660Y60606D01*
X121638Y60706D01*
X121616Y60800D01*
X121583Y60889D01*
X121549Y60966D01*
X121510Y61033D01*
Y61039D01*
X121499Y61044D01*
X121488Y61061D01*
X121472Y61083D01*
X121422Y61133D01*
X121361Y61194D01*
X121277Y61250D01*
X121183Y61300D01*
X121133Y61322D01*
X121078Y61338D01*
X121017Y61344D01*
X120955Y61349D01*
D02*
G37*
G36*
X102226Y61322D02*
Y61316D01*
X102221Y61305D01*
Y61283D01*
X102210Y61261D01*
X102204Y61222D01*
X102193Y61183D01*
X102171Y61089D01*
X102143Y60978D01*
X102104Y60855D01*
X102066Y60722D01*
X102016Y60584D01*
X101599Y59462D01*
X102898D01*
X102498Y60517D01*
Y60522D01*
X102493Y60539D01*
X102482Y60567D01*
X102471Y60600D01*
X102454Y60639D01*
X102437Y60689D01*
X102421Y60744D01*
X102399Y60800D01*
X102354Y60927D01*
X102310Y61061D01*
X102265Y61194D01*
X102226Y61322D01*
D02*
G37*
G36*
X98441Y61266D02*
X97553D01*
Y58336D01*
X98464D01*
X98502Y58341D01*
X98586Y58347D01*
X98680Y58352D01*
X98780Y58363D01*
X98880Y58380D01*
X98963Y58402D01*
X98974Y58408D01*
X99002Y58413D01*
X99041Y58430D01*
X99091Y58452D01*
X99146Y58486D01*
X99202Y58519D01*
X99257Y58558D01*
X99313Y58602D01*
X99318Y58613D01*
X99340Y58635D01*
X99374Y58674D01*
X99413Y58730D01*
X99457Y58802D01*
X99507Y58885D01*
X99551Y58979D01*
X99590Y59085D01*
Y59091D01*
X99596Y59102D01*
X99601Y59118D01*
X99607Y59140D01*
X99612Y59168D01*
X99624Y59207D01*
X99635Y59246D01*
X99646Y59290D01*
X99662Y59401D01*
X99679Y59529D01*
X99690Y59673D01*
X99696Y59829D01*
Y59834D01*
Y59856D01*
Y59884D01*
X99690Y59929D01*
Y59978D01*
X99685Y60034D01*
X99679Y60101D01*
X99673Y60167D01*
X99646Y60317D01*
X99612Y60473D01*
X99563Y60617D01*
X99529Y60689D01*
X99496Y60750D01*
Y60755D01*
X99485Y60767D01*
X99474Y60783D01*
X99463Y60805D01*
X99418Y60861D01*
X99363Y60927D01*
X99291Y61000D01*
X99207Y61072D01*
X99113Y61133D01*
X99013Y61183D01*
X99002Y61188D01*
X98974Y61194D01*
X98924Y61211D01*
X98852Y61227D01*
X98763Y61238D01*
X98652Y61255D01*
X98586Y61261D01*
X98514D01*
X98441Y61266D01*
D02*
G37*
G36*
X105551Y61349D02*
X105518D01*
X105496Y61344D01*
X105434Y61333D01*
X105362Y61316D01*
X105279Y61283D01*
X105190Y61233D01*
X105146Y61199D01*
X105101Y61166D01*
X105063Y61122D01*
X105024Y61072D01*
Y61066D01*
X105013Y61055D01*
X105001Y61033D01*
X104985Y61005D01*
X104968Y60961D01*
X104946Y60911D01*
X104929Y60850D01*
X104907Y60778D01*
X104885Y60694D01*
X104863Y60600D01*
X104841Y60495D01*
X104824Y60378D01*
X104807Y60245D01*
X104796Y60101D01*
X104791Y59945D01*
X104785Y59773D01*
Y59762D01*
Y59734D01*
Y59684D01*
X104791Y59618D01*
Y59546D01*
X104796Y59457D01*
X104802Y59363D01*
X104813Y59263D01*
X104841Y59046D01*
X104857Y58941D01*
X104879Y58841D01*
X104902Y58746D01*
X104935Y58658D01*
X104968Y58580D01*
X105007Y58513D01*
Y58508D01*
X105018Y58502D01*
X105046Y58463D01*
X105096Y58413D01*
X105157Y58358D01*
X105240Y58302D01*
X105334Y58252D01*
X105440Y58214D01*
X105496Y58208D01*
X105556Y58202D01*
X105590D01*
X105612Y58208D01*
X105667Y58219D01*
X105745Y58241D01*
X105828Y58280D01*
X105923Y58336D01*
X105967Y58369D01*
X106012Y58413D01*
X106056Y58458D01*
X106100Y58513D01*
Y58519D01*
X106112Y58530D01*
X106123Y58547D01*
X106134Y58574D01*
X106156Y58613D01*
X106173Y58663D01*
X106195Y58719D01*
X106217Y58785D01*
X106234Y58868D01*
X106256Y58957D01*
X106278Y59063D01*
X106295Y59174D01*
X106306Y59307D01*
X106317Y59446D01*
X106328Y59601D01*
Y59773D01*
Y59779D01*
Y59784D01*
Y59812D01*
Y59862D01*
X106322Y59929D01*
Y60001D01*
X106317Y60089D01*
X106311Y60184D01*
X106300Y60289D01*
X106272Y60500D01*
X106256Y60606D01*
X106234Y60706D01*
X106211Y60800D01*
X106178Y60889D01*
X106145Y60966D01*
X106106Y61033D01*
Y61039D01*
X106095Y61044D01*
X106084Y61061D01*
X106067Y61083D01*
X106017Y61133D01*
X105956Y61194D01*
X105873Y61250D01*
X105779Y61299D01*
X105729Y61322D01*
X105673Y61338D01*
X105612Y61344D01*
X105551Y61349D01*
D02*
G37*
G36*
X81576Y34113D02*
X80688D01*
Y31183D01*
X81598D01*
X81637Y31188D01*
X81720Y31194D01*
X81814Y31199D01*
X81914Y31210D01*
X82014Y31227D01*
X82098Y31249D01*
X82109Y31255D01*
X82136Y31260D01*
X82175Y31277D01*
X82225Y31299D01*
X82281Y31332D01*
X82336Y31366D01*
X82392Y31405D01*
X82447Y31449D01*
X82453Y31460D01*
X82475Y31482D01*
X82508Y31521D01*
X82547Y31577D01*
X82591Y31649D01*
X82641Y31732D01*
X82686Y31826D01*
X82725Y31932D01*
Y31937D01*
X82730Y31948D01*
X82736Y31965D01*
X82741Y31987D01*
X82747Y32015D01*
X82758Y32054D01*
X82769Y32093D01*
X82780Y32137D01*
X82797Y32248D01*
X82814Y32376D01*
X82824Y32520D01*
X82830Y32675D01*
Y32681D01*
Y32703D01*
Y32731D01*
X82824Y32775D01*
Y32825D01*
X82819Y32881D01*
X82814Y32947D01*
X82808Y33014D01*
X82780Y33164D01*
X82747Y33319D01*
X82697Y33464D01*
X82664Y33536D01*
X82630Y33597D01*
Y33602D01*
X82619Y33613D01*
X82608Y33630D01*
X82597Y33652D01*
X82553Y33708D01*
X82497Y33774D01*
X82425Y33847D01*
X82342Y33919D01*
X82247Y33980D01*
X82148Y34030D01*
X82136Y34035D01*
X82109Y34041D01*
X82059Y34057D01*
X81986Y34074D01*
X81898Y34085D01*
X81787Y34102D01*
X81720Y34107D01*
X81648D01*
X81576Y34113D01*
D02*
G37*
G36*
X86891Y55871D02*
X85681Y54151D01*
X86891D01*
Y55871D01*
D02*
G37*
G36*
X83100Y56182D02*
X82212D01*
Y53252D01*
X83123D01*
X83161Y53257D01*
X83245Y53263D01*
X83339Y53268D01*
X83439Y53279D01*
X83539Y53296D01*
X83622Y53318D01*
X83633Y53324D01*
X83661Y53329D01*
X83700Y53346D01*
X83750Y53368D01*
X83805Y53401D01*
X83861Y53435D01*
X83916Y53474D01*
X83972Y53518D01*
X83977Y53529D01*
X84000Y53551D01*
X84033Y53590D01*
X84072Y53646D01*
X84116Y53718D01*
X84166Y53801D01*
X84210Y53895D01*
X84249Y54001D01*
Y54006D01*
X84255Y54018D01*
X84260Y54034D01*
X84266Y54056D01*
X84271Y54084D01*
X84282Y54123D01*
X84294Y54162D01*
X84305Y54206D01*
X84321Y54317D01*
X84338Y54445D01*
X84349Y54589D01*
X84355Y54745D01*
Y54750D01*
Y54772D01*
Y54800D01*
X84349Y54845D01*
Y54895D01*
X84344Y54950D01*
X84338Y55017D01*
X84332Y55083D01*
X84305Y55233D01*
X84271Y55388D01*
X84222Y55533D01*
X84188Y55605D01*
X84155Y55666D01*
Y55672D01*
X84144Y55683D01*
X84133Y55699D01*
X84122Y55721D01*
X84077Y55777D01*
X84022Y55844D01*
X83950Y55916D01*
X83866Y55988D01*
X83772Y56049D01*
X83672Y56099D01*
X83661Y56104D01*
X83633Y56110D01*
X83583Y56127D01*
X83511Y56143D01*
X83422Y56154D01*
X83311Y56171D01*
X83245Y56177D01*
X83173D01*
X83100Y56182D01*
D02*
G37*
G36*
X86604Y66207D02*
X85716D01*
Y63277D01*
X86626D01*
X86665Y63282D01*
X86749Y63288D01*
X86843Y63293D01*
X86943Y63305D01*
X87043Y63321D01*
X87126Y63344D01*
X87137Y63349D01*
X87165Y63355D01*
X87204Y63371D01*
X87254Y63393D01*
X87309Y63427D01*
X87365Y63460D01*
X87420Y63499D01*
X87476Y63543D01*
X87481Y63554D01*
X87503Y63577D01*
X87537Y63615D01*
X87576Y63671D01*
X87620Y63743D01*
X87670Y63826D01*
X87714Y63921D01*
X87753Y64026D01*
Y64032D01*
X87759Y64043D01*
X87764Y64059D01*
X87770Y64082D01*
X87775Y64109D01*
X87787Y64148D01*
X87798Y64187D01*
X87809Y64231D01*
X87825Y64342D01*
X87842Y64470D01*
X87853Y64614D01*
X87859Y64770D01*
Y64775D01*
Y64798D01*
Y64825D01*
X87853Y64870D01*
Y64920D01*
X87848Y64975D01*
X87842Y65042D01*
X87836Y65108D01*
X87809Y65258D01*
X87775Y65414D01*
X87726Y65558D01*
X87692Y65630D01*
X87659Y65691D01*
Y65697D01*
X87648Y65708D01*
X87637Y65724D01*
X87625Y65747D01*
X87581Y65802D01*
X87526Y65869D01*
X87454Y65941D01*
X87370Y66013D01*
X87276Y66074D01*
X87176Y66124D01*
X87165Y66130D01*
X87137Y66135D01*
X87087Y66152D01*
X87015Y66168D01*
X86926Y66180D01*
X86815Y66196D01*
X86749Y66202D01*
X86677D01*
X86604Y66207D01*
D02*
G37*
G36*
X75999Y-86900D02*
X74519D01*
Y-88528D01*
X75777D01*
X75962Y-88518D01*
X76156Y-88509D01*
X76350Y-88500D01*
X76434Y-88490D01*
X76508Y-88481D01*
X76582Y-88463D01*
X76628Y-88454D01*
X76637D01*
X76665Y-88435D01*
X76711Y-88416D01*
X76758Y-88389D01*
X76878Y-88305D01*
X76933Y-88250D01*
X76989Y-88185D01*
X76998Y-88176D01*
X77007Y-88148D01*
X77035Y-88111D01*
X77063Y-88056D01*
X77081Y-87982D01*
X77109Y-87898D01*
X77118Y-87806D01*
X77127Y-87704D01*
Y-87686D01*
Y-87649D01*
X77118Y-87593D01*
X77109Y-87519D01*
X77081Y-87436D01*
X77053Y-87353D01*
X77007Y-87260D01*
X76952Y-87186D01*
X76942Y-87177D01*
X76924Y-87149D01*
X76878Y-87121D01*
X76822Y-87075D01*
X76758Y-87029D01*
X76674Y-86992D01*
X76573Y-86955D01*
X76461Y-86927D01*
X76452D01*
X76424Y-86918D01*
X76369D01*
X76286Y-86909D01*
X76082D01*
X75999Y-86900D01*
D02*
G37*
G36*
X34226Y-86900D02*
X33264D01*
Y-88722D01*
X34152D01*
X34217Y-88713D01*
X34383D01*
X34550Y-88703D01*
X34716Y-88685D01*
X34864Y-88657D01*
X34929Y-88648D01*
X34984Y-88629D01*
X34994Y-88620D01*
X35031Y-88611D01*
X35077Y-88583D01*
X35133Y-88555D01*
X35197Y-88509D01*
X35262Y-88454D01*
X35336Y-88389D01*
X35392Y-88315D01*
X35401Y-88305D01*
X35419Y-88278D01*
X35438Y-88231D01*
X35465Y-88167D01*
X35493Y-88093D01*
X35521Y-88010D01*
X35530Y-87917D01*
X35539Y-87815D01*
Y-87797D01*
Y-87760D01*
X35530Y-87695D01*
X35512Y-87612D01*
X35484Y-87519D01*
X35447Y-87418D01*
X35401Y-87325D01*
X35327Y-87233D01*
X35318Y-87223D01*
X35290Y-87195D01*
X35243Y-87159D01*
X35188Y-87112D01*
X35114Y-87057D01*
X35021Y-87011D01*
X34920Y-86974D01*
X34809Y-86946D01*
X34800D01*
X34762Y-86936D01*
X34698Y-86927D01*
X34605Y-86918D01*
X34485D01*
X34402Y-86909D01*
X34319D01*
X34226Y-86900D01*
D02*
G37*
G36*
X27853Y-86798D02*
X27779D01*
X27723Y-86807D01*
X27649Y-86816D01*
X27575Y-86826D01*
X27390Y-86862D01*
X27187Y-86936D01*
X27076Y-86974D01*
X26965Y-87029D01*
X26863Y-87094D01*
X26752Y-87168D01*
X26650Y-87251D01*
X26558Y-87353D01*
X26548Y-87362D01*
X26539Y-87380D01*
X26511Y-87408D01*
X26484Y-87454D01*
X26447Y-87519D01*
X26410Y-87584D01*
X26364Y-87667D01*
X26317Y-87769D01*
X26271Y-87880D01*
X26225Y-88000D01*
X26188Y-88139D01*
X26151Y-88287D01*
X26123Y-88454D01*
X26095Y-88629D01*
X26086Y-88814D01*
X26077Y-89018D01*
Y-89027D01*
Y-89064D01*
Y-89119D01*
X26086Y-89193D01*
X26095Y-89286D01*
X26105Y-89397D01*
X26123Y-89508D01*
X26142Y-89638D01*
X26197Y-89906D01*
X26289Y-90174D01*
X26345Y-90313D01*
X26410Y-90442D01*
X26493Y-90562D01*
X26576Y-90674D01*
X26586Y-90683D01*
X26604Y-90701D01*
X26632Y-90729D01*
X26669Y-90757D01*
X26715Y-90803D01*
X26780Y-90849D01*
X26844Y-90905D01*
X26928Y-90951D01*
X27103Y-91062D01*
X27325Y-91145D01*
X27446Y-91182D01*
X27575Y-91210D01*
X27714Y-91228D01*
X27853Y-91238D01*
X27927D01*
X27982Y-91228D01*
X28047Y-91219D01*
X28121Y-91210D01*
X28297Y-91164D01*
X28500Y-91099D01*
X28602Y-91053D01*
X28713Y-91006D01*
X28815Y-90942D01*
X28926Y-90868D01*
X29028Y-90785D01*
X29120Y-90683D01*
X29129Y-90674D01*
X29138Y-90655D01*
X29166Y-90627D01*
X29194Y-90581D01*
X29240Y-90516D01*
X29277Y-90442D01*
X29324Y-90359D01*
X29370Y-90257D01*
X29416Y-90146D01*
X29462Y-90026D01*
X29509Y-89887D01*
X29546Y-89730D01*
X29573Y-89573D01*
X29601Y-89397D01*
X29610Y-89203D01*
X29620Y-88999D01*
Y-88990D01*
Y-88953D01*
Y-88898D01*
X29610Y-88814D01*
X29601Y-88722D01*
X29592Y-88620D01*
X29583Y-88500D01*
X29555Y-88380D01*
X29499Y-88111D01*
X29416Y-87834D01*
X29360Y-87695D01*
X29296Y-87575D01*
X29212Y-87454D01*
X29129Y-87344D01*
X29120Y-87334D01*
X29111Y-87316D01*
X29083Y-87297D01*
X29046Y-87260D01*
X28991Y-87214D01*
X28935Y-87168D01*
X28870Y-87121D01*
X28787Y-87066D01*
X28704Y-87020D01*
X28602Y-86974D01*
X28389Y-86881D01*
X28269Y-86844D01*
X28139Y-86826D01*
X28001Y-86807D01*
X27853Y-86798D01*
D02*
G37*
G36*
X107088Y73076D02*
X106999D01*
X106977Y73070D01*
X106916Y73065D01*
X106844Y73043D01*
X106755Y73015D01*
X106661Y72965D01*
X106566Y72904D01*
X106522Y72859D01*
X106478Y72815D01*
Y72809D01*
X106466Y72804D01*
X106455Y72787D01*
X106444Y72771D01*
X106405Y72715D01*
X106367Y72637D01*
X106322Y72543D01*
X106283Y72426D01*
X106261Y72293D01*
X106250Y72149D01*
Y72143D01*
Y72132D01*
Y72116D01*
X106256Y72088D01*
Y72055D01*
X106261Y72021D01*
X106278Y71938D01*
X106306Y71844D01*
X106339Y71744D01*
X106394Y71644D01*
X106466Y71555D01*
X106478Y71544D01*
X106505Y71522D01*
X106555Y71483D01*
X106616Y71444D01*
X106700Y71400D01*
X106794Y71361D01*
X106899Y71339D01*
X107016Y71328D01*
X107049D01*
X107071Y71333D01*
X107132Y71339D01*
X107205Y71355D01*
X107293Y71383D01*
X107382Y71422D01*
X107471Y71477D01*
X107554Y71555D01*
X107565Y71566D01*
X107588Y71600D01*
X107621Y71649D01*
X107665Y71722D01*
X107704Y71811D01*
X107737Y71916D01*
X107760Y72044D01*
X107771Y72188D01*
Y72193D01*
Y72205D01*
Y72227D01*
X107765Y72254D01*
Y72293D01*
X107760Y72332D01*
X107743Y72421D01*
X107721Y72526D01*
X107682Y72637D01*
X107626Y72743D01*
X107554Y72837D01*
Y72843D01*
X107543Y72848D01*
X107515Y72876D01*
X107471Y72915D01*
X107410Y72959D01*
X107332Y72998D01*
X107244Y73037D01*
X107144Y73065D01*
X107088Y73076D01*
D02*
G37*
G36*
X117951Y67750D02*
X117907D01*
X117857Y67739D01*
X117790Y67728D01*
X117718Y67706D01*
X117640Y67678D01*
X117568Y67634D01*
X117496Y67573D01*
X117490Y67567D01*
X117468Y67545D01*
X117440Y67506D01*
X117413Y67456D01*
X117379Y67395D01*
X117352Y67323D01*
X117330Y67245D01*
X117324Y67156D01*
Y67151D01*
Y67145D01*
X117330Y67112D01*
X117335Y67062D01*
X117346Y67001D01*
X117368Y66929D01*
X117396Y66857D01*
X117440Y66779D01*
X117496Y66712D01*
X117501Y66707D01*
X117529Y66685D01*
X117568Y66657D01*
X117618Y66629D01*
X117685Y66596D01*
X117762Y66568D01*
X117851Y66546D01*
X117951Y66540D01*
X117962D01*
X117996Y66546D01*
X118045Y66552D01*
X118112Y66563D01*
X118184Y66585D01*
X118256Y66612D01*
X118334Y66657D01*
X118401Y66712D01*
X118406Y66718D01*
X118428Y66746D01*
X118456Y66779D01*
X118489Y66829D01*
X118523Y66890D01*
X118551Y66962D01*
X118573Y67045D01*
X118578Y67134D01*
Y67140D01*
Y67145D01*
Y67179D01*
X118567Y67229D01*
X118556Y67290D01*
X118534Y67356D01*
X118500Y67428D01*
X118456Y67501D01*
X118395Y67573D01*
X118389Y67578D01*
X118362Y67600D01*
X118323Y67628D01*
X118273Y67661D01*
X118206Y67695D01*
X118134Y67722D01*
X118045Y67745D01*
X117951Y67750D01*
D02*
G37*
G36*
X117934Y66157D02*
X117901D01*
X117879Y66152D01*
X117818Y66146D01*
X117740Y66130D01*
X117651Y66102D01*
X117563Y66063D01*
X117468Y66008D01*
X117385Y65935D01*
X117374Y65924D01*
X117352Y65897D01*
X117318Y65847D01*
X117280Y65786D01*
X117235Y65702D01*
X117202Y65608D01*
X117180Y65503D01*
X117168Y65386D01*
Y65375D01*
Y65353D01*
X117174Y65314D01*
X117180Y65264D01*
X117191Y65203D01*
X117207Y65136D01*
X117230Y65070D01*
X117257Y64998D01*
X117263Y64992D01*
X117274Y64964D01*
X117296Y64931D01*
X117330Y64892D01*
X117368Y64842D01*
X117418Y64792D01*
X117474Y64748D01*
X117540Y64703D01*
X117552Y64698D01*
X117574Y64687D01*
X117613Y64670D01*
X117663Y64653D01*
X117724Y64637D01*
X117796Y64620D01*
X117873Y64609D01*
X117951Y64603D01*
X117984D01*
X118007Y64609D01*
X118073Y64614D01*
X118151Y64631D01*
X118240Y64659D01*
X118334Y64692D01*
X118423Y64748D01*
X118512Y64820D01*
X118523Y64831D01*
X118545Y64859D01*
X118584Y64909D01*
X118623Y64970D01*
X118661Y65047D01*
X118700Y65142D01*
X118722Y65253D01*
X118734Y65369D01*
Y65375D01*
Y65386D01*
Y65403D01*
X118728Y65425D01*
X118722Y65486D01*
X118706Y65569D01*
X118678Y65652D01*
X118639Y65747D01*
X118584Y65841D01*
X118506Y65930D01*
X118495Y65941D01*
X118467Y65963D01*
X118417Y66002D01*
X118351Y66046D01*
X118267Y66085D01*
X118167Y66124D01*
X118056Y66146D01*
X117934Y66157D01*
D02*
G37*
G36*
X114453Y46574D02*
X114419D01*
X114397Y46568D01*
X114341Y46562D01*
X114264Y46546D01*
X114181Y46518D01*
X114086Y46474D01*
X113997Y46418D01*
X113909Y46341D01*
X113898Y46329D01*
X113875Y46302D01*
X113837Y46252D01*
X113798Y46180D01*
X113759Y46096D01*
X113720Y45991D01*
X113698Y45874D01*
X113687Y45741D01*
Y45730D01*
Y45702D01*
X113692Y45652D01*
X113698Y45591D01*
X113709Y45519D01*
X113731Y45441D01*
X113753Y45358D01*
X113786Y45275D01*
X113792Y45264D01*
X113809Y45236D01*
X113831Y45197D01*
X113864Y45147D01*
X113903Y45097D01*
X113953Y45036D01*
X114008Y44986D01*
X114075Y44936D01*
X114086Y44931D01*
X114108Y44920D01*
X114147Y44897D01*
X114197Y44881D01*
X114253Y44859D01*
X114319Y44837D01*
X114392Y44825D01*
X114469Y44820D01*
X114497D01*
X114519Y44825D01*
X114575Y44831D01*
X114647Y44848D01*
X114725Y44881D01*
X114813Y44920D01*
X114902Y44981D01*
X114946Y45014D01*
X114985Y45059D01*
Y45064D01*
X114996Y45070D01*
X115019Y45103D01*
X115052Y45158D01*
X115096Y45230D01*
X115135Y45325D01*
X115168Y45436D01*
X115191Y45564D01*
X115202Y45713D01*
Y45719D01*
Y45730D01*
Y45752D01*
X115196Y45780D01*
Y45813D01*
X115191Y45852D01*
X115174Y45941D01*
X115152Y46041D01*
X115113Y46146D01*
X115058Y46246D01*
X114985Y46341D01*
X114974Y46352D01*
X114946Y46379D01*
X114902Y46413D01*
X114841Y46457D01*
X114763Y46501D01*
X114674Y46535D01*
X114569Y46562D01*
X114453Y46574D01*
D02*
G37*
G36*
X106197Y18287D02*
X104987Y16566D01*
X106197D01*
Y18287D01*
D02*
G37*
%LPD*%
D10*
X90245Y73133D02*
G03*
X90245Y73133I-394J0D01*
G01*
D11*
X13237Y98999D02*
X103474D01*
X13237Y95495D02*
X16328D01*
X100383D02*
X103474D01*
X16328Y93487D02*
Y95495D01*
X100383Y93487D02*
Y95495D01*
X103474D02*
Y98999D01*
X13237Y95495D02*
Y98999D01*
X26072Y77739D02*
X28277D01*
X88434D02*
X90639D01*
M02*
