G04*
G04 #@! TF.GenerationSoftware,Altium Limited,Altium Designer,22.5.1 (42)*
G04*
G04 Layer_Physical_Order=4*
G04 Layer_Color=16711680*
%FSLAX25Y25*%
%MOIN*%
G70*
G04*
G04 #@! TF.SameCoordinates,A2539C74-7FEE-43BD-A04A-5197B4AA8E51*
G04*
G04*
G04 #@! TF.FilePolarity,Positive*
G04*
G01*
G75*
%ADD12R,0.02402X0.07874*%
%ADD13R,0.10551X0.14173*%
%ADD21C,0.00755*%
%ADD22C,0.00755*%
%ADD23C,0.00600*%
%ADD24C,0.01000*%
%ADD25C,0.04016*%
%ADD26C,0.11811*%
%ADD27C,0.01600*%
%ADD28R,0.01400X0.05800*%
%ADD29R,0.10000X0.02520*%
%ADD30R,0.18504X0.02520*%
%ADD31R,0.01811X0.05709*%
G04:AMPARAMS|DCode=32|XSize=25.59mil|YSize=15.75mil|CornerRadius=3.94mil|HoleSize=0mil|Usage=FLASHONLY|Rotation=90.000|XOffset=0mil|YOffset=0mil|HoleType=Round|Shape=RoundedRectangle|*
%AMROUNDEDRECTD32*
21,1,0.02559,0.00787,0,0,90.0*
21,1,0.01772,0.01575,0,0,90.0*
1,1,0.00787,0.00394,0.00886*
1,1,0.00787,0.00394,-0.00886*
1,1,0.00787,-0.00394,-0.00886*
1,1,0.00787,-0.00394,0.00886*
%
%ADD32ROUNDEDRECTD32*%
G04:AMPARAMS|DCode=33|XSize=25.59mil|YSize=11.81mil|CornerRadius=2.95mil|HoleSize=0mil|Usage=FLASHONLY|Rotation=90.000|XOffset=0mil|YOffset=0mil|HoleType=Round|Shape=RoundedRectangle|*
%AMROUNDEDRECTD33*
21,1,0.02559,0.00591,0,0,90.0*
21,1,0.01968,0.01181,0,0,90.0*
1,1,0.00591,0.00295,0.00984*
1,1,0.00591,0.00295,-0.00984*
1,1,0.00591,-0.00295,-0.00984*
1,1,0.00591,-0.00295,0.00984*
%
%ADD33ROUNDEDRECTD33*%
G04:AMPARAMS|DCode=34|XSize=19.68mil|YSize=23.62mil|CornerRadius=5.12mil|HoleSize=0mil|Usage=FLASHONLY|Rotation=270.000|XOffset=0mil|YOffset=0mil|HoleType=Round|Shape=RoundedRectangle|*
%AMROUNDEDRECTD34*
21,1,0.01968,0.01339,0,0,270.0*
21,1,0.00945,0.02362,0,0,270.0*
1,1,0.01024,-0.00669,-0.00472*
1,1,0.01024,-0.00669,0.00472*
1,1,0.01024,0.00669,0.00472*
1,1,0.01024,0.00669,-0.00472*
%
%ADD34ROUNDEDRECTD34*%
G04:AMPARAMS|DCode=35|XSize=21.26mil|YSize=23.62mil|CornerRadius=5.53mil|HoleSize=0mil|Usage=FLASHONLY|Rotation=180.000|XOffset=0mil|YOffset=0mil|HoleType=Round|Shape=RoundedRectangle|*
%AMROUNDEDRECTD35*
21,1,0.02126,0.01257,0,0,180.0*
21,1,0.01021,0.02362,0,0,180.0*
1,1,0.01106,-0.00510,0.00628*
1,1,0.01106,0.00510,0.00628*
1,1,0.01106,0.00510,-0.00628*
1,1,0.01106,-0.00510,-0.00628*
%
%ADD35ROUNDEDRECTD35*%
G04:AMPARAMS|DCode=36|XSize=21.26mil|YSize=23.62mil|CornerRadius=5.53mil|HoleSize=0mil|Usage=FLASHONLY|Rotation=270.000|XOffset=0mil|YOffset=0mil|HoleType=Round|Shape=RoundedRectangle|*
%AMROUNDEDRECTD36*
21,1,0.02126,0.01257,0,0,270.0*
21,1,0.01021,0.02362,0,0,270.0*
1,1,0.01106,-0.00628,-0.00510*
1,1,0.01106,-0.00628,0.00510*
1,1,0.01106,0.00628,0.00510*
1,1,0.01106,0.00628,-0.00510*
%
%ADD36ROUNDEDRECTD36*%
G04:AMPARAMS|DCode=37|XSize=19.68mil|YSize=23.62mil|CornerRadius=5.12mil|HoleSize=0mil|Usage=FLASHONLY|Rotation=180.000|XOffset=0mil|YOffset=0mil|HoleType=Round|Shape=RoundedRectangle|*
%AMROUNDEDRECTD37*
21,1,0.01968,0.01339,0,0,180.0*
21,1,0.00945,0.02362,0,0,180.0*
1,1,0.01024,-0.00472,0.00669*
1,1,0.01024,0.00472,0.00669*
1,1,0.01024,0.00472,-0.00669*
1,1,0.01024,-0.00472,-0.00669*
%
%ADD37ROUNDEDRECTD37*%
%ADD38C,0.01300*%
%ADD39C,0.01081*%
%ADD40C,0.01500*%
%ADD41C,0.01100*%
G36*
X-2901Y99092D02*
X36298D01*
X36489Y98630D01*
X25438Y87579D01*
X25279Y87196D01*
X25279Y87196D01*
Y77661D01*
X12169Y64551D01*
X12011Y64168D01*
X12011Y64168D01*
Y-14008D01*
X12011Y-14008D01*
X12169Y-14391D01*
X12169Y-14391D01*
X15669Y-17891D01*
X16052Y-18049D01*
X16052Y-18049D01*
X28552D01*
X28552Y-18049D01*
X28935Y-17891D01*
X30435Y-16391D01*
X30593Y-16008D01*
X30593Y-16008D01*
Y-15902D01*
X30878Y-15520D01*
X31093Y-15520D01*
X33658D01*
X33689Y-15520D01*
X34159Y-15593D01*
Y-17400D01*
X34255Y-17888D01*
X34532Y-18301D01*
X34945Y-18577D01*
X35433Y-18675D01*
X35857Y-18590D01*
X35927Y-18581D01*
X36402Y-18857D01*
X36418Y-18939D01*
X36944Y-19725D01*
X37730Y-20251D01*
X38658Y-20435D01*
X39586Y-20251D01*
X39943Y-20012D01*
X40373D01*
X40730Y-20251D01*
X41658Y-20435D01*
X42586Y-20251D01*
X43372Y-19725D01*
X43898Y-18939D01*
X43953Y-18661D01*
X43994Y-18529D01*
Y-18529D01*
X43994Y-18529D01*
X44017Y-18427D01*
X44171Y-18284D01*
X44484Y-18115D01*
X44538Y-18106D01*
X44882Y-18174D01*
X45231Y-18105D01*
X45280Y-18113D01*
X45592Y-18283D01*
X45748Y-18426D01*
X45770Y-18529D01*
X45770Y-18529D01*
Y-18529D01*
X45812Y-18663D01*
X45867Y-18939D01*
X46393Y-19725D01*
X47179Y-20251D01*
X48107Y-20435D01*
X49035Y-20251D01*
X49392Y-20012D01*
X49822D01*
X50179Y-20251D01*
X51107Y-20435D01*
X52035Y-20251D01*
X52821Y-19725D01*
X53347Y-18939D01*
X53404Y-18652D01*
X53442Y-18529D01*
Y-18529D01*
X53442Y-18529D01*
X53465Y-18426D01*
X53620Y-18283D01*
X53934Y-18114D01*
X53983Y-18105D01*
X54331Y-18174D01*
X54683Y-18104D01*
X54726Y-18112D01*
X55042Y-18283D01*
X55197Y-18426D01*
X55220Y-18529D01*
X55220Y-18529D01*
Y-18529D01*
X55257Y-18646D01*
X55315Y-18939D01*
X55841Y-19725D01*
X56627Y-20251D01*
X57555Y-20435D01*
X58483Y-20251D01*
X58840Y-20012D01*
X59270D01*
X59627Y-20251D01*
X60555Y-20435D01*
X61483Y-20251D01*
X62269Y-19725D01*
X62795Y-18939D01*
X62850Y-18661D01*
X62891Y-18529D01*
Y-18529D01*
X62891Y-18529D01*
X62914Y-18427D01*
X63068Y-18284D01*
X63380Y-18115D01*
X63435Y-18106D01*
X63779Y-18174D01*
X64267Y-18078D01*
X64680Y-17801D01*
X64956Y-17388D01*
X65053Y-16900D01*
Y-15592D01*
X65524Y-15520D01*
X65553Y-15520D01*
X68173D01*
X68673Y-15520D01*
X68835Y-15520D01*
X71453D01*
X71484Y-15520D01*
X71953Y-15594D01*
Y-16900D01*
X72050Y-17388D01*
X72327Y-17801D01*
X72740Y-18078D01*
X73228Y-18174D01*
X73716Y-18078D01*
X74129Y-17801D01*
X74405Y-17388D01*
X74502Y-16900D01*
Y-15592D01*
X74972Y-15520D01*
X75156Y-16020D01*
X75152Y-16025D01*
X75051Y-16532D01*
X75152Y-17039D01*
X75440Y-17469D01*
X75870Y-17757D01*
X76377Y-17857D01*
X76884Y-17757D01*
X77314Y-17469D01*
X77602Y-17039D01*
X77702Y-16532D01*
X77650Y-16268D01*
X77952Y-15844D01*
X78254Y-16269D01*
X78202Y-16532D01*
X78302Y-17039D01*
X78590Y-17469D01*
X79020Y-17757D01*
X79527Y-17857D01*
X80034Y-17757D01*
X80464Y-17469D01*
X80752Y-17039D01*
X80853Y-16532D01*
X80752Y-16025D01*
X80748Y-16020D01*
X80933Y-15520D01*
X81272D01*
X81433Y-15520D01*
X83921D01*
X84421Y-15520D01*
X84583Y-15520D01*
X87071D01*
X87571Y-15520D01*
X87732Y-15520D01*
X90382D01*
Y-8811D01*
X87732D01*
X87232Y-8811D01*
X87071Y-8811D01*
X84583D01*
X84083Y-8811D01*
X83921Y-8811D01*
X81433D01*
X80933Y-8811D01*
X80772Y-8811D01*
X78284D01*
X77784Y-8811D01*
X77622Y-8811D01*
X74972D01*
Y-11966D01*
X74472Y-12015D01*
X74405Y-11678D01*
X74129Y-11265D01*
X73716Y-10988D01*
X73228Y-10892D01*
X72740Y-10988D01*
X72327Y-11265D01*
X72050Y-11678D01*
X71984Y-12011D01*
X71484Y-11962D01*
Y-8811D01*
X68835D01*
X68335Y-8811D01*
X68173Y-8811D01*
X65524D01*
Y-11967D01*
X65024Y-12016D01*
X64956Y-11678D01*
X64680Y-11265D01*
X64267Y-10988D01*
X63779Y-10892D01*
X63291Y-10988D01*
X63290Y-10989D01*
X62606Y-10845D01*
X62343Y-10452D01*
X62036Y-10246D01*
Y-8811D01*
X59224D01*
Y-8811D01*
X58886D01*
Y-8811D01*
X56075D01*
Y-10245D01*
X55766Y-10452D01*
X55503Y-10845D01*
X54819Y-10989D01*
X54819Y-10988D01*
X54331Y-10892D01*
X54330D01*
X53842Y-10988D01*
X53842Y-10989D01*
X53158Y-10845D01*
X52895Y-10452D01*
X52587Y-10246D01*
Y-8811D01*
X49776D01*
Y-8811D01*
X49437D01*
Y-8811D01*
X46626D01*
Y-10245D01*
X46317Y-10452D01*
X46055Y-10845D01*
X45370Y-10989D01*
X45370Y-10988D01*
X44882Y-10892D01*
X44881D01*
X44393Y-10988D01*
X44393Y-10989D01*
X43709Y-10845D01*
X43446Y-10452D01*
X43138Y-10246D01*
Y-8811D01*
X40327D01*
Y-8811D01*
X39988D01*
Y-8811D01*
X37177D01*
Y-10245D01*
X36868Y-10452D01*
X36606Y-10845D01*
X35921Y-10989D01*
X35921Y-10988D01*
X35433Y-10892D01*
X34945Y-10988D01*
X34532Y-11265D01*
X34255Y-11678D01*
X34189Y-12013D01*
X33689Y-11963D01*
Y-8811D01*
X31053D01*
X30878Y-8811D01*
X30445Y-8650D01*
X30435Y-8625D01*
X30052Y-8467D01*
X26552D01*
X26552Y-8467D01*
X26169Y-8625D01*
X26169Y-8625D01*
X25351Y-9443D01*
X24963Y-9125D01*
X25040Y-9010D01*
X25234Y-8032D01*
X25040Y-7053D01*
X24485Y-6223D01*
X23656Y-5669D01*
X22677Y-5474D01*
X21699Y-5669D01*
X20869Y-6223D01*
X20315Y-7053D01*
X20120Y-8032D01*
X20315Y-9010D01*
X20869Y-9840D01*
X21060Y-9967D01*
X20908Y-10467D01*
X19276D01*
X19093Y-10284D01*
Y58304D01*
X30052Y69263D01*
X31828D01*
X32075Y69365D01*
X32497D01*
Y78239D01*
X32369D01*
Y78795D01*
X47537Y93963D01*
X86459D01*
X86610Y93463D01*
X86575Y93439D01*
X83855Y90720D01*
X45928D01*
X45928Y90720D01*
X45616Y90658D01*
X45351Y90481D01*
X34156Y79286D01*
X33979Y79021D01*
X33917Y78709D01*
X33911Y78239D01*
X33033D01*
Y69365D01*
X36434D01*
Y78239D01*
X36124D01*
X35917Y78739D01*
X46190Y89012D01*
X46567Y88967D01*
X46754Y88483D01*
X38093Y79823D01*
X37916Y79558D01*
X37854Y79246D01*
X37854Y79246D01*
Y78239D01*
X36970D01*
Y69365D01*
X40371D01*
Y78239D01*
X39486D01*
Y78908D01*
X47966Y87388D01*
X48772D01*
X48853Y86895D01*
X48588Y86718D01*
X48588Y86718D01*
X42030Y80160D01*
X41853Y79895D01*
X41791Y79583D01*
X41791Y79583D01*
Y78239D01*
X40907D01*
Y69365D01*
X44308D01*
Y78239D01*
X43423D01*
Y79245D01*
X49503Y85325D01*
X83820D01*
X83824Y85320D01*
X83556Y84820D01*
X50828D01*
X50828Y84820D01*
X50516Y84758D01*
X50251Y84581D01*
X45967Y80297D01*
X45790Y80032D01*
X45728Y79720D01*
X45728Y79720D01*
Y78239D01*
X44844D01*
Y69365D01*
X48245D01*
Y78239D01*
X47360D01*
Y79382D01*
X51166Y83188D01*
X84090D01*
X86327Y80951D01*
X86081Y80490D01*
X85914Y80524D01*
X85524Y80446D01*
X85193Y80225D01*
X84972Y79894D01*
X84894Y79504D01*
Y74214D01*
X84702Y73812D01*
X84677Y73811D01*
X84341Y74102D01*
X84217Y74730D01*
X83691Y75516D01*
X83678Y75525D01*
Y78239D01*
X80277D01*
Y76140D01*
X80021Y75992D01*
X79741Y76157D01*
Y78239D01*
X76340D01*
Y75525D01*
X76326Y75516D01*
X75800Y74730D01*
X75616Y73802D01*
X75123D01*
X75045Y74192D01*
X74824Y74523D01*
X74493Y74744D01*
X74103Y74822D01*
X73713Y74744D01*
X73382Y74523D01*
X73161Y74192D01*
X73083Y73802D01*
X72587Y73812D01*
X72558Y74358D01*
X72150Y75211D01*
X71867Y75466D01*
Y78239D01*
X68466D01*
Y76187D01*
X67966Y75925D01*
X67930Y75949D01*
Y78239D01*
X64529D01*
Y75473D01*
X64308Y75279D01*
X63889Y74432D01*
X63826Y73488D01*
X64292Y69928D01*
X64392Y69631D01*
X64456Y69312D01*
X64546Y69177D01*
X64595Y69032D01*
X64646Y68973D01*
X64921Y68615D01*
X64981Y68526D01*
X64999Y68514D01*
X65046Y68453D01*
Y66044D01*
X65065Y65947D01*
X65203Y64552D01*
X65638Y63116D01*
X66345Y61794D01*
X67235Y60709D01*
X67290Y60627D01*
X67405Y60550D01*
X68337Y59785D01*
X69521Y59152D01*
X70806Y58762D01*
X72007Y58644D01*
X72142Y58617D01*
X72330D01*
X72795Y58542D01*
X72855Y58495D01*
X73304Y57911D01*
X73586Y57230D01*
X73674Y56562D01*
X73661Y56500D01*
Y53573D01*
X73599Y53510D01*
X73073Y52724D01*
X73018Y52446D01*
X72976Y52313D01*
Y52313D01*
X72976Y52313D01*
X72939Y52143D01*
X72939Y52143D01*
X72939Y52143D01*
X72917Y51970D01*
X72917Y51970D01*
X72917Y51970D01*
X72915Y51928D01*
X72889Y51796D01*
X72915Y51665D01*
X72917Y51621D01*
X72917Y51621D01*
X72917Y51621D01*
X72939Y51448D01*
X72939Y51448D01*
X72939Y51448D01*
X72976Y51278D01*
X72976Y51278D01*
Y51278D01*
X73018Y51145D01*
X73073Y50868D01*
X73599Y50082D01*
X74385Y49556D01*
X75313Y49372D01*
X76240Y49556D01*
X76597Y49795D01*
X77029D01*
X77385Y49556D01*
X78313Y49372D01*
X79241Y49556D01*
X80027Y50082D01*
X80552Y50868D01*
X80607Y51145D01*
X80649Y51278D01*
Y51278D01*
X80649Y51278D01*
X80687Y51448D01*
X80687Y51448D01*
X80687Y51448D01*
X80710Y51621D01*
X80710Y51621D01*
X80710Y51621D01*
X80712Y51671D01*
X80737Y51796D01*
X80712Y51921D01*
X80710Y51970D01*
X80710Y51970D01*
X80710Y51970D01*
X80687Y52143D01*
X80687Y52143D01*
X80687Y52143D01*
X80649Y52313D01*
X80649Y52313D01*
Y52313D01*
X80608Y52446D01*
X80552Y52724D01*
X80027Y53510D01*
X79964Y53573D01*
Y56500D01*
X79959Y56527D01*
X79787Y58276D01*
X79269Y59983D01*
X78428Y61557D01*
X77496Y62692D01*
X77296Y62936D01*
X77162Y63058D01*
X77162Y63058D01*
X76786Y63366D01*
X76183Y63861D01*
X75113Y64432D01*
X73952Y64785D01*
X72912Y64887D01*
X72745Y64920D01*
X72179D01*
X71747Y65084D01*
X71464Y65467D01*
X71431Y65516D01*
X71337Y65986D01*
X71349Y66044D01*
Y68176D01*
X71478Y68620D01*
X71478Y68620D01*
X71536Y68707D01*
X71786Y69005D01*
X71787Y69005D01*
X71845Y69170D01*
X71942Y69315D01*
X72001Y69612D01*
X72102Y69897D01*
X72583Y73238D01*
X73083Y73203D01*
Y67742D01*
X73161Y67352D01*
X73382Y67021D01*
X73713Y66800D01*
X74103Y66722D01*
X74493Y66800D01*
X74824Y67021D01*
X75045Y67352D01*
X75123Y67742D01*
Y68033D01*
X75616Y68049D01*
X75652Y67867D01*
X75765Y67011D01*
X76166Y66043D01*
X76803Y65212D01*
X76794Y65204D01*
X77581Y64678D01*
X78509Y64494D01*
X79436Y64678D01*
X79793Y64917D01*
X80224D01*
X80581Y64678D01*
X81508Y64494D01*
X82436Y64678D01*
X83223Y65204D01*
X83214Y65212D01*
X83851Y66043D01*
X84252Y67011D01*
X84365Y67867D01*
X84401Y68049D01*
Y73348D01*
X84901Y73510D01*
X84972Y73412D01*
X85006Y73361D01*
X85193Y73081D01*
X85524Y72860D01*
X85914Y72782D01*
X86304Y72860D01*
X86635Y73081D01*
X86856Y73412D01*
X86912Y73695D01*
X87412Y73646D01*
Y71904D01*
X87412Y71904D01*
X87474Y71592D01*
X87651Y71327D01*
X89861Y69117D01*
Y39668D01*
X89861Y39668D01*
X89923Y39356D01*
X90100Y39091D01*
X93361Y35830D01*
Y32186D01*
X93240Y32105D01*
X92952Y31675D01*
X92852Y31168D01*
X92952Y30661D01*
X93240Y30231D01*
X93670Y29943D01*
X94177Y29842D01*
X94684Y29943D01*
X94861Y30062D01*
X95361Y29794D01*
Y28677D01*
X94861Y28410D01*
X94684Y28529D01*
X94177Y28629D01*
X93670Y28529D01*
X93240Y28241D01*
X93159Y28120D01*
X86277D01*
X86277Y28120D01*
X85965Y28058D01*
X85700Y27881D01*
X75801Y17982D01*
X75624Y17717D01*
X75562Y17405D01*
X75562Y17405D01*
Y15520D01*
X75002D01*
X74972Y15520D01*
X74502Y15592D01*
Y16900D01*
X74405Y17388D01*
X74129Y17801D01*
X73716Y18078D01*
X73228Y18174D01*
X72740Y18078D01*
X72327Y17801D01*
X72155Y17544D01*
X71655Y17696D01*
Y23762D01*
X71658D01*
X71462Y27747D01*
X70876Y31692D01*
X69907Y35562D01*
X68563Y39318D01*
X66858Y42924D01*
X64807Y46345D01*
X62431Y49549D01*
X59752Y52505D01*
X59750Y52503D01*
X54039Y58214D01*
X54039Y58214D01*
X54039D01*
X53977Y58256D01*
X52343Y59689D01*
X50475Y60937D01*
X48461Y61930D01*
X46334Y62652D01*
X44131Y63090D01*
X41963Y63232D01*
X41889Y63247D01*
X34754D01*
X34691Y63310D01*
X33905Y63835D01*
X33632Y63889D01*
X33494Y63933D01*
X33494D01*
X33494Y63933D01*
X33324Y63970D01*
X33324Y63970D01*
X33324Y63970D01*
X33151Y63992D01*
X33151Y63992D01*
X33151Y63992D01*
X33105Y63994D01*
X32977Y64020D01*
X32850Y63994D01*
X32802Y63992D01*
X32802Y63992D01*
X32802Y63992D01*
X32629Y63970D01*
X32629Y63970D01*
X32629Y63970D01*
X32459Y63933D01*
X32459Y63933D01*
X32459D01*
X32321Y63889D01*
X32049Y63835D01*
X31263Y63310D01*
X30737Y62523D01*
X30553Y61595D01*
X30737Y60668D01*
X30976Y60311D01*
Y59880D01*
X30737Y59523D01*
X30553Y58596D01*
X30737Y57668D01*
X31263Y56881D01*
X32049Y56356D01*
X32331Y56300D01*
X32459Y56260D01*
X32459D01*
X32459Y56260D01*
X32629Y56222D01*
X32629Y56222D01*
X32629Y56222D01*
X32802Y56199D01*
X32802Y56199D01*
X32802Y56199D01*
X32848Y56197D01*
X32977Y56171D01*
X33106Y56197D01*
X33151Y56199D01*
X33151Y56199D01*
X33151Y56199D01*
X33324Y56222D01*
X33324Y56222D01*
X33324Y56222D01*
X33494Y56260D01*
X33494Y56260D01*
X33494D01*
X33622Y56300D01*
X33905Y56356D01*
X34691Y56881D01*
X34754Y56944D01*
X41889D01*
X41998Y56966D01*
X43596Y56840D01*
X45260Y56440D01*
X46842Y55785D01*
X48302Y54891D01*
X49225Y54102D01*
X49582Y53757D01*
X49582Y53757D01*
X49582Y53757D01*
X55293Y48046D01*
X55423Y47959D01*
X57586Y45573D01*
X59596Y42863D01*
X61330Y39969D01*
X62773Y36919D01*
X63910Y33742D01*
X64729Y30470D01*
X65224Y27132D01*
X65382Y23915D01*
X65352Y23762D01*
Y17696D01*
X64852Y17544D01*
X64680Y17801D01*
X64267Y18078D01*
X63779Y18174D01*
X63291Y18078D01*
X62878Y17801D01*
X62676Y17499D01*
X62664Y17498D01*
X62177Y17561D01*
X62165Y17566D01*
X62064Y18585D01*
X61689Y19822D01*
X61080Y20962D01*
X60354Y21847D01*
X60270Y21972D01*
X58891Y23351D01*
X58807Y23407D01*
X58383Y24041D01*
X58235Y24790D01*
X58254Y24888D01*
Y25736D01*
X58299Y25844D01*
X58299D01*
X58297Y25848D01*
X59207Y28046D01*
X59254Y28280D01*
X59527Y28940D01*
X59970Y30786D01*
X60119Y32679D01*
X60105Y32868D01*
X60125Y32986D01*
X60054Y35756D01*
Y36689D01*
X60056D01*
X59863Y38645D01*
X59293Y40526D01*
X58366Y42260D01*
X57119Y43780D01*
X57118Y43778D01*
X56671Y44225D01*
X56575Y44289D01*
X55557Y45125D01*
X54295Y45799D01*
X52926Y46215D01*
X51807Y46325D01*
X51351Y46429D01*
X51351Y46429D01*
X50564Y46954D01*
X50287Y47010D01*
X50154Y47052D01*
X50154D01*
X50154Y47052D01*
X49984Y47089D01*
X49984Y47089D01*
X49984Y47089D01*
X49811Y47111D01*
X49811Y47111D01*
X49811Y47111D01*
X49768Y47113D01*
X49637Y47139D01*
X49505Y47113D01*
X49461Y47111D01*
X49461Y47111D01*
X49461Y47111D01*
X49288Y47089D01*
X49288Y47089D01*
X49288Y47089D01*
X49118Y47052D01*
X49118Y47052D01*
X49118D01*
X48986Y47009D01*
X48709Y46954D01*
X47923Y46429D01*
X47397Y45643D01*
X47212Y44715D01*
X47397Y43787D01*
X47635Y43430D01*
Y42999D01*
X47397Y42643D01*
X47212Y41715D01*
X47397Y40787D01*
X47923Y40001D01*
X48709Y39475D01*
X48985Y39420D01*
X49118Y39379D01*
X49118D01*
X49118Y39379D01*
X49288Y39341D01*
X49288Y39341D01*
X49288Y39341D01*
X49461Y39318D01*
X49461Y39318D01*
X49461Y39318D01*
X49512Y39316D01*
X49637Y39291D01*
X49762Y39316D01*
X49811Y39318D01*
X49811Y39318D01*
X49811Y39318D01*
X49984Y39341D01*
X49984Y39341D01*
X49984Y39341D01*
X50154Y39379D01*
X50154Y39379D01*
X50154D01*
X50287Y39420D01*
X50564Y39475D01*
X51351Y40001D01*
X51419Y40069D01*
X51883Y39977D01*
X51955Y39929D01*
X52337Y39645D01*
X52661Y39321D01*
X52694Y39299D01*
X52735Y39272D01*
X53278Y38564D01*
X53653Y37659D01*
X53769Y36775D01*
X53752Y36688D01*
Y35688D01*
X53758Y35658D01*
X53752Y35627D01*
X53824Y32826D01*
X53845Y32732D01*
X53850Y32679D01*
X53738Y31542D01*
X53431Y30528D01*
X53384Y30458D01*
X53384D01*
X53384Y30458D01*
X52393Y28065D01*
X52346Y27830D01*
X52146Y27347D01*
X51948Y25844D01*
X51951D01*
Y24888D01*
X51962Y24831D01*
X52119Y23236D01*
X52602Y21646D01*
X53384Y20182D01*
X54143Y19258D01*
X54434Y18894D01*
X54434D01*
X54576Y18634D01*
X54390Y18286D01*
X54312Y18171D01*
X53843Y18078D01*
X53430Y17801D01*
X53202Y17460D01*
X52901Y17466D01*
X52693Y17530D01*
X52606Y18409D01*
X52189Y19783D01*
X51513Y21048D01*
X50674Y22070D01*
X50611Y22166D01*
X50611Y22166D01*
X50257Y22519D01*
X47199Y25577D01*
X47187Y25607D01*
Y26169D01*
X47199Y26199D01*
X48689Y27688D01*
X49099Y28098D01*
X49099Y28098D01*
X49104Y28103D01*
X49106Y28106D01*
X49198Y28244D01*
X49877Y29071D01*
X50464Y30169D01*
X50825Y31360D01*
X50931Y32439D01*
X50963Y32599D01*
X50931Y32758D01*
X50825Y33838D01*
X50464Y35029D01*
X49877Y36126D01*
X49202Y36948D01*
X49110Y37087D01*
X49106Y37092D01*
X49099Y37100D01*
X49099Y37100D01*
X49048Y37150D01*
X49048Y37150D01*
X47938Y38260D01*
X47818Y38340D01*
X46910Y39086D01*
X45748Y39707D01*
X44488Y40089D01*
X43319Y40204D01*
X43177Y40232D01*
X37651D01*
X37638Y40230D01*
X37558Y40263D01*
X37551Y40274D01*
X37530Y40295D01*
X36744Y40820D01*
X36471Y40875D01*
X36333Y40918D01*
X36333D01*
X36333Y40918D01*
X36163Y40955D01*
X36163Y40955D01*
X36163Y40955D01*
X35990Y40977D01*
X35990Y40977D01*
X35990Y40977D01*
X35943Y40979D01*
X35816Y41005D01*
X35689Y40979D01*
X35641Y40977D01*
X35640Y40977D01*
X35640Y40977D01*
X35467Y40955D01*
X35467Y40955D01*
X35467Y40955D01*
X35297Y40918D01*
X35297Y40918D01*
X35297D01*
X35159Y40874D01*
X34888Y40820D01*
X34102Y40295D01*
X33576Y39508D01*
X33392Y38581D01*
X33576Y37653D01*
X33815Y37297D01*
Y36865D01*
X33576Y36508D01*
X33392Y35581D01*
X33576Y34653D01*
X34102Y33867D01*
X34888Y33341D01*
X35170Y33285D01*
X35297Y33245D01*
X35297D01*
X35297Y33245D01*
X35467Y33207D01*
X35467Y33207D01*
X35467Y33207D01*
X35640Y33184D01*
X35641Y33184D01*
X35641Y33184D01*
X35687Y33182D01*
X35816Y33157D01*
X35945Y33182D01*
X35990Y33184D01*
X35990Y33184D01*
X35990Y33184D01*
X36163Y33207D01*
X36163Y33207D01*
X36163Y33207D01*
X36333Y33245D01*
X36333Y33245D01*
X36333D01*
X36460Y33285D01*
X36744Y33341D01*
X37530Y33867D01*
X37551Y33888D01*
X37558Y33899D01*
X37638Y33932D01*
X37651Y33929D01*
X42708D01*
X42776Y33943D01*
X43316Y33835D01*
X43432Y33758D01*
X43813Y33471D01*
X44158Y33126D01*
X44344Y32941D01*
X44642Y32555D01*
X42564Y30477D01*
X42477Y30347D01*
X41769Y29485D01*
X41171Y28366D01*
X40803Y27151D01*
X40678Y25888D01*
X40803Y24625D01*
X41171Y23410D01*
X41769Y22290D01*
X42477Y21428D01*
X42564Y21298D01*
X43496Y20367D01*
X43331Y19824D01*
X43121Y19782D01*
X42708Y19506D01*
X42432Y19093D01*
X42334Y18605D01*
X42432Y18117D01*
X42708Y17704D01*
X43608Y16804D01*
Y15593D01*
X43138Y15520D01*
X43108Y15520D01*
X40488D01*
X39988Y15520D01*
X39827Y15520D01*
X37209D01*
X37177Y15520D01*
X36709Y15595D01*
Y16900D01*
X36612Y17388D01*
X36335Y17801D01*
X35922Y18078D01*
X35434Y18174D01*
X34946Y18078D01*
X34533Y17801D01*
X34257Y17388D01*
X34159Y16900D01*
Y15591D01*
X33689Y15520D01*
X33659Y15520D01*
X31039D01*
X30539Y15520D01*
X30378Y15520D01*
X27728D01*
Y8811D01*
X30378D01*
X30878Y8811D01*
X31039Y8811D01*
X33689D01*
Y11962D01*
X34189Y12012D01*
X34255Y11677D01*
X34532Y11264D01*
X34945Y10988D01*
X35433Y10891D01*
X35434D01*
X35922Y10988D01*
X36335Y11264D01*
X36612Y11677D01*
X36677Y12008D01*
X37177Y11958D01*
Y8811D01*
X39827D01*
X40327Y8811D01*
X40488Y8811D01*
X43138D01*
Y11958D01*
X43638Y12008D01*
X43703Y11677D01*
X43980Y11264D01*
X44393Y10988D01*
X44881Y10891D01*
X44882D01*
X45370Y10988D01*
X45370Y10988D01*
X46055Y10844D01*
X46317Y10451D01*
X46626Y10244D01*
Y8811D01*
X49437D01*
Y8811D01*
X49776D01*
Y8811D01*
X52587D01*
Y10245D01*
X52895Y10451D01*
X53158Y10844D01*
X53842Y10988D01*
X53842Y10988D01*
X54330Y10891D01*
X54331D01*
X54819Y10988D01*
X54819Y10988D01*
X55503Y10844D01*
X55766Y10451D01*
X56075Y10244D01*
Y8811D01*
X58886D01*
Y8811D01*
X59224D01*
Y8811D01*
X62036D01*
Y10245D01*
X62343Y10451D01*
X62606Y10844D01*
X63290Y10988D01*
X63291Y10988D01*
X63779Y10891D01*
X64267Y10988D01*
X64268Y10988D01*
X64952Y10844D01*
X65215Y10451D01*
X65524Y10245D01*
Y8811D01*
X68335D01*
Y8811D01*
X68673D01*
Y8811D01*
X71484D01*
Y10245D01*
X71792Y10451D01*
X72055Y10844D01*
X72739Y10988D01*
X72740Y10988D01*
X73228Y10891D01*
X73716Y10988D01*
X74129Y11264D01*
X74405Y11677D01*
X74472Y12014D01*
X74972Y11965D01*
Y8811D01*
X77622D01*
X78122Y8811D01*
X78284Y8811D01*
X80933D01*
Y8811D01*
X81272D01*
Y8811D01*
X83921D01*
X84421Y8811D01*
X84583Y8811D01*
X87232D01*
Y8811D01*
X87571D01*
Y8811D01*
X90382D01*
Y15520D01*
X89792D01*
Y16429D01*
X96754Y23391D01*
X96754Y23391D01*
X96931Y23656D01*
X96993Y23968D01*
Y37168D01*
X96993Y37168D01*
X96948Y37393D01*
X97003Y37668D01*
X96902Y38175D01*
X96614Y38605D01*
X96184Y38893D01*
X95677Y38993D01*
X95534Y38965D01*
X92993Y41506D01*
Y42492D01*
X93493Y42699D01*
X99100Y37091D01*
X99100Y37091D01*
X99365Y36914D01*
X99677Y36852D01*
X105177D01*
X105177Y36852D01*
X105489Y36914D01*
X105754Y37091D01*
X107654Y38991D01*
X107654Y38991D01*
X107831Y39256D01*
X107893Y39568D01*
X107893Y39568D01*
Y40914D01*
X108246Y41268D01*
X108508D01*
X108861Y40914D01*
Y39006D01*
X105320Y35465D01*
X105177Y35493D01*
X104670Y35393D01*
X104240Y35105D01*
X103952Y34675D01*
X103851Y34168D01*
X103952Y33661D01*
X104240Y33231D01*
X104670Y32943D01*
X105177Y32842D01*
X105684Y32943D01*
X106114Y33231D01*
X106402Y33661D01*
X106502Y34168D01*
X106474Y34311D01*
X110254Y38091D01*
X110431Y38356D01*
X110493Y38668D01*
X110493Y38668D01*
Y40914D01*
X110846Y41268D01*
X111108D01*
X111461Y40914D01*
Y38686D01*
X111340Y38605D01*
X111052Y38175D01*
X110951Y37668D01*
X111052Y37161D01*
X111340Y36731D01*
X111770Y36443D01*
X112277Y36342D01*
X112784Y36443D01*
X113214Y36731D01*
X113456Y37093D01*
X113727Y37130D01*
X113998Y37093D01*
X114240Y36731D01*
X114670Y36443D01*
X115177Y36342D01*
X115684Y36443D01*
X116114Y36731D01*
X116402Y37161D01*
X116502Y37668D01*
X116402Y38175D01*
X116114Y38605D01*
X115684Y38893D01*
X115593Y38911D01*
Y40914D01*
X115946Y41268D01*
X116477Y41268D01*
X118577D01*
Y48068D01*
X118577Y48068D01*
X118577D01*
X118577Y48068D01*
X118689Y48522D01*
X119136Y48969D01*
X119386Y48925D01*
X119636Y48787D01*
Y15578D01*
X118885D01*
X118802Y15703D01*
X118467Y15926D01*
X118073Y16005D01*
X117128D01*
X116733Y15926D01*
X116398Y15703D01*
X116175Y15368D01*
X116096Y14973D01*
Y13635D01*
X116175Y13240D01*
X116398Y12905D01*
X116733Y12682D01*
X117128Y12603D01*
X118073D01*
X118467Y12682D01*
X118802Y12905D01*
X118885Y13029D01*
X119749D01*
X119794Y12921D01*
X119794Y12921D01*
X120294Y12421D01*
X120677Y12263D01*
X120677Y12263D01*
X123177D01*
X123177Y12263D01*
X123503Y12398D01*
X124003Y12211D01*
Y3593D01*
X123518Y3471D01*
X123462Y3576D01*
X122661Y4551D01*
X121686Y5352D01*
X120573Y5946D01*
X119366Y6313D01*
X118110Y6436D01*
X116855Y6313D01*
X115647Y5946D01*
X114534Y5352D01*
X113559Y4551D01*
X112759Y3576D01*
X112164Y2463D01*
X111797Y1256D01*
X111674Y0D01*
X111797Y-1256D01*
X112164Y-2463D01*
X112759Y-3576D01*
X113559Y-4551D01*
X114534Y-5352D01*
X115647Y-5946D01*
X116855Y-6313D01*
X118110Y-6436D01*
X119366Y-6313D01*
X120573Y-5946D01*
X121686Y-5352D01*
X122661Y-4551D01*
X123462Y-3576D01*
X123518Y-3471D01*
X124003Y-3593D01*
Y-18900D01*
X124012Y-18943D01*
X123915Y-19678D01*
X123615Y-20403D01*
X123137Y-21025D01*
X122514Y-21503D01*
X121789Y-21803D01*
X121054Y-21900D01*
X121011Y-21891D01*
X-2901D01*
X-2944Y-21900D01*
X-3679Y-21803D01*
X-4404Y-21503D01*
X-5027Y-21025D01*
X-5504Y-20403D01*
X-5805Y-19678D01*
X-5901Y-18943D01*
X-5893Y-18900D01*
Y-3593D01*
X-5408Y-3471D01*
X-5352Y-3576D01*
X-4551Y-4551D01*
X-3576Y-5352D01*
X-2463Y-5946D01*
X-1256Y-6313D01*
X0Y-6436D01*
X1256Y-6313D01*
X2463Y-5946D01*
X3576Y-5352D01*
X4551Y-4551D01*
X5352Y-3576D01*
X5946Y-2463D01*
X6313Y-1256D01*
X6436Y0D01*
X6313Y1256D01*
X5946Y2463D01*
X5352Y3576D01*
X4551Y4551D01*
X3576Y5352D01*
X2463Y5946D01*
X1256Y6313D01*
X0Y6436D01*
X-1256Y6313D01*
X-2463Y5946D01*
X-3576Y5352D01*
X-4551Y4551D01*
X-5352Y3576D01*
X-5408Y3471D01*
X-5893Y3593D01*
Y96100D01*
X-5901Y96144D01*
X-5805Y96879D01*
X-5504Y97604D01*
X-5027Y98226D01*
X-4404Y98704D01*
X-3679Y99004D01*
X-2944Y99101D01*
X-2901Y99092D01*
D02*
G37*
G36*
X104712Y90352D02*
Y78987D01*
X103223Y77497D01*
X98910D01*
X98910Y77497D01*
X98598Y77435D01*
X98333Y77258D01*
X94600Y73525D01*
X94587Y73506D01*
X93994Y73407D01*
X93971Y73415D01*
X91944Y75442D01*
Y81804D01*
X91944Y81804D01*
X91882Y82116D01*
X91705Y82381D01*
X91705Y82381D01*
X85305Y88781D01*
X85067Y88940D01*
X85035Y88981D01*
X84932Y89489D01*
X87490Y92047D01*
X103017D01*
X104712Y90352D01*
D02*
G37*
G36*
X101125Y75366D02*
X97445Y71687D01*
X97287Y71304D01*
X97287Y71304D01*
Y67304D01*
X97287Y67304D01*
X97445Y66921D01*
X97445Y66921D01*
X97945Y66421D01*
X98328Y66263D01*
X98328Y66263D01*
X100402D01*
Y56224D01*
X100278Y56141D01*
X100055Y55806D01*
X99976Y55412D01*
Y54467D01*
X100055Y54072D01*
X100278Y53737D01*
X100613Y53514D01*
X101008Y53435D01*
X102346D01*
X102741Y53514D01*
X103076Y53737D01*
X103299Y54072D01*
X103378Y54467D01*
Y55412D01*
X103299Y55806D01*
X103076Y56141D01*
X102952Y56224D01*
Y66677D01*
X103060Y66785D01*
X103218Y67168D01*
X103218Y67168D01*
Y68929D01*
X103819Y69530D01*
X104280Y69283D01*
X104258Y69175D01*
Y68154D01*
X104340Y67743D01*
X104573Y67395D01*
X104921Y67163D01*
X105332Y67081D01*
X106588D01*
X106999Y67163D01*
X107339Y67390D01*
X108897D01*
X109067Y67135D01*
X109362Y66938D01*
X109711Y66868D01*
X110499D01*
X110847Y66938D01*
X111143Y67135D01*
X111626Y66958D01*
X111665Y66932D01*
X111975Y66870D01*
X112566D01*
X112876Y66932D01*
X112883Y66937D01*
X113254Y67067D01*
X113626Y66937D01*
X113633Y66932D01*
X113944Y66870D01*
X114534D01*
X114844Y66932D01*
X114883Y66958D01*
X115366Y67135D01*
X115662Y66938D01*
X116010Y66868D01*
X116798D01*
X117147Y66938D01*
X117442Y67135D01*
X117640Y67431D01*
X117709Y67779D01*
Y69450D01*
X117951Y69611D01*
X118195Y69672D01*
X119636Y68231D01*
Y53612D01*
X119136Y53319D01*
X118879Y53370D01*
X117858D01*
X117447Y53288D01*
X117099Y53055D01*
X116867Y52707D01*
X116785Y52296D01*
Y51040D01*
X116867Y50629D01*
X117099Y50281D01*
X117102Y50251D01*
X116548Y49697D01*
X116294Y49317D01*
X116205Y48868D01*
Y48474D01*
X115977Y48068D01*
X115677Y48068D01*
X113577Y48068D01*
X113077Y48068D01*
X111377D01*
X111077Y48068D01*
X110577Y48068D01*
X108777D01*
X108477Y48068D01*
X108246D01*
X108095Y48219D01*
X108014Y48731D01*
X108302Y49161D01*
X108403Y49668D01*
X108302Y50175D01*
X108014Y50605D01*
X107584Y50893D01*
X107077Y50994D01*
X106570Y50893D01*
X106140Y50605D01*
X106128Y50587D01*
X105526D01*
X105514Y50605D01*
X105084Y50893D01*
X104577Y50994D01*
X104070Y50893D01*
X103853Y50748D01*
X103628Y50831D01*
X103378Y51032D01*
Y51868D01*
X103299Y52263D01*
X103076Y52598D01*
X102741Y52821D01*
X102346Y52900D01*
X101008D01*
X100613Y52821D01*
X100278Y52598D01*
X100055Y52263D01*
X99976Y51868D01*
Y50923D01*
X100055Y50529D01*
X100278Y50194D01*
X100613Y49970D01*
X101008Y49892D01*
X101161D01*
Y48068D01*
X100777D01*
Y41268D01*
X103311Y41268D01*
X103512Y40808D01*
X103254Y40484D01*
X100515D01*
X95993Y45006D01*
Y72611D01*
X99248Y75866D01*
X100917D01*
X101125Y75366D01*
D02*
G37*
G36*
X93240Y26367D02*
X93670Y26079D01*
X94177Y25978D01*
X94684Y26079D01*
X94861Y26198D01*
X95361Y25931D01*
Y24306D01*
X91482Y20426D01*
X91398Y20434D01*
X90972Y20623D01*
X90902Y20975D01*
X90614Y21405D01*
X90184Y21693D01*
X89677Y21793D01*
X89170Y21693D01*
X88740Y21405D01*
X88452Y20975D01*
X88352Y20468D01*
X88380Y20325D01*
X87838Y19783D01*
X87424Y20076D01*
X87502Y20468D01*
X87402Y20975D01*
X87114Y21405D01*
X86684Y21693D01*
X86332Y21763D01*
X86143Y22189D01*
X86135Y22273D01*
X87515Y23652D01*
X88658D01*
X88740Y23531D01*
X89170Y23243D01*
X89677Y23143D01*
X90184Y23243D01*
X90614Y23531D01*
X90902Y23961D01*
X91003Y24468D01*
X90902Y24975D01*
X90614Y25405D01*
X90184Y25693D01*
X89677Y25793D01*
X89170Y25693D01*
X88740Y25405D01*
X88658Y25284D01*
X87177D01*
X86865Y25222D01*
X86600Y25045D01*
X86600Y25045D01*
X78950Y17395D01*
X78773Y17130D01*
X78711Y16818D01*
X78711Y16818D01*
Y15873D01*
X78358Y15520D01*
X77784Y15520D01*
X77694Y15520D01*
X77194Y15692D01*
Y17067D01*
X86615Y26488D01*
X93159D01*
X93240Y26367D01*
D02*
G37*
G36*
X123677Y95736D02*
Y13304D01*
X123177Y12804D01*
X120677D01*
X120177Y13304D01*
Y68455D01*
X117828Y70804D01*
X104328D01*
X102677Y69153D01*
Y67168D01*
X102313Y66804D01*
X98328D01*
X97828Y67304D01*
Y71304D01*
X101666Y75142D01*
X104366D01*
X107528Y78304D01*
Y93604D01*
X106628Y94504D01*
X47313D01*
X31828Y79019D01*
Y69804D01*
X29828D01*
X18677Y58653D01*
X18552D01*
Y-10508D01*
X19052Y-11008D01*
X24552D01*
X26552Y-9008D01*
X30052D01*
Y-16008D01*
X28552Y-17508D01*
X16052D01*
X12552Y-14008D01*
Y64168D01*
X25820Y77437D01*
Y87196D01*
X37428Y98804D01*
X120609D01*
X123677Y95736D01*
D02*
G37*
G36*
X77531Y-63059D02*
Y-65742D01*
X76236D01*
Y-63050D01*
X73896Y-59341D01*
X75403D01*
X76911Y-61875D01*
X78382Y-59341D01*
X79871D01*
X77531Y-63059D01*
D02*
G37*
G36*
X58837Y-65742D02*
X57643D01*
X57634Y-60710D01*
X56376Y-65742D01*
X55127D01*
X53869Y-60710D01*
Y-65742D01*
X52676D01*
Y-59341D01*
X54609D01*
X55756Y-63716D01*
X56894Y-59341D01*
X58837D01*
Y-65742D01*
D02*
G37*
G36*
X89463Y-59350D02*
X89565D01*
X89667Y-59359D01*
X89787D01*
X90028Y-59387D01*
X90277Y-59415D01*
X90509Y-59461D01*
X90610Y-59489D01*
X90703Y-59517D01*
X90712D01*
X90721Y-59526D01*
X90777Y-59554D01*
X90860Y-59600D01*
X90971Y-59655D01*
X91091Y-59748D01*
X91212Y-59850D01*
X91332Y-59979D01*
X91443Y-60136D01*
Y-60146D01*
X91452Y-60155D01*
X91471Y-60183D01*
X91489Y-60210D01*
X91535Y-60303D01*
X91591Y-60423D01*
X91637Y-60571D01*
X91683Y-60738D01*
X91720Y-60932D01*
X91730Y-61135D01*
Y-61145D01*
Y-61163D01*
Y-61209D01*
X91720Y-61256D01*
Y-61320D01*
X91711Y-61385D01*
X91674Y-61552D01*
X91628Y-61746D01*
X91554Y-61940D01*
X91443Y-62144D01*
X91378Y-62236D01*
X91304Y-62329D01*
X91295Y-62338D01*
X91286Y-62347D01*
X91258Y-62375D01*
X91221Y-62403D01*
X91184Y-62440D01*
X91128Y-62486D01*
X91064Y-62532D01*
X90990Y-62578D01*
X90906Y-62634D01*
X90805Y-62680D01*
X90703Y-62726D01*
X90592Y-62773D01*
X90462Y-62819D01*
X90333Y-62856D01*
X90194Y-62893D01*
X90037Y-62921D01*
X90046D01*
X90055Y-62930D01*
X90111Y-62967D01*
X90185Y-63013D01*
X90277Y-63078D01*
X90388Y-63161D01*
X90499Y-63244D01*
X90620Y-63346D01*
X90721Y-63457D01*
X90731Y-63466D01*
X90777Y-63513D01*
X90832Y-63587D01*
X90916Y-63698D01*
X91027Y-63836D01*
X91082Y-63929D01*
X91147Y-64021D01*
X91221Y-64123D01*
X91295Y-64234D01*
X91378Y-64364D01*
X91461Y-64493D01*
X92248Y-65742D01*
X90694D01*
X89769Y-64354D01*
X89759Y-64345D01*
X89750Y-64317D01*
X89722Y-64280D01*
X89685Y-64234D01*
X89648Y-64179D01*
X89602Y-64105D01*
X89500Y-63957D01*
X89380Y-63790D01*
X89269Y-63642D01*
X89167Y-63503D01*
X89121Y-63457D01*
X89084Y-63411D01*
X89075Y-63402D01*
X89056Y-63383D01*
X89019Y-63346D01*
X88973Y-63300D01*
X88908Y-63263D01*
X88844Y-63217D01*
X88770Y-63180D01*
X88696Y-63143D01*
X88686D01*
X88659Y-63133D01*
X88612Y-63115D01*
X88538Y-63106D01*
X88446Y-63087D01*
X88335Y-63078D01*
X88205Y-63069D01*
X87789D01*
Y-65742D01*
X86494D01*
Y-59341D01*
X89380D01*
X89463Y-59350D01*
D02*
G37*
G36*
X85273Y-60423D02*
X81823D01*
Y-61838D01*
X85033D01*
Y-62921D01*
X81823D01*
Y-64660D01*
X85393D01*
Y-65742D01*
X80528D01*
Y-59341D01*
X85273D01*
Y-60423D01*
D02*
G37*
G36*
X73868Y-65742D02*
X72471D01*
X71916Y-64290D01*
X69345D01*
X68817Y-65742D01*
X67448D01*
X69927Y-59341D01*
X71296D01*
X73868Y-65742D01*
D02*
G37*
G36*
X63961Y-64660D02*
X67180D01*
Y-65742D01*
X62666D01*
Y-59387D01*
X63961D01*
Y-64660D01*
D02*
G37*
G36*
X44897Y-60423D02*
X43010D01*
Y-65742D01*
X41715D01*
Y-60423D01*
X39819D01*
Y-59341D01*
X44897D01*
Y-60423D01*
D02*
G37*
G36*
X39430D02*
X37543D01*
Y-65742D01*
X36248D01*
Y-60423D01*
X34352D01*
Y-59341D01*
X39430D01*
Y-60423D01*
D02*
G37*
G36*
X24371Y-59350D02*
X24556Y-59359D01*
X24741Y-59369D01*
X24917Y-59387D01*
X25074Y-59406D01*
X25093D01*
X25139Y-59415D01*
X25204Y-59433D01*
X25296Y-59461D01*
X25398Y-59498D01*
X25509Y-59544D01*
X25629Y-59600D01*
X25740Y-59674D01*
X25749Y-59683D01*
X25786Y-59711D01*
X25842Y-59757D01*
X25916Y-59813D01*
X25990Y-59896D01*
X26073Y-59988D01*
X26156Y-60090D01*
X26230Y-60210D01*
X26240Y-60229D01*
X26258Y-60266D01*
X26295Y-60340D01*
X26332Y-60432D01*
X26369Y-60543D01*
X26406Y-60664D01*
X26425Y-60812D01*
X26434Y-60960D01*
Y-60969D01*
Y-60978D01*
Y-61034D01*
X26425Y-61117D01*
X26406Y-61228D01*
X26369Y-61357D01*
X26332Y-61496D01*
X26267Y-61635D01*
X26184Y-61783D01*
X26175Y-61801D01*
X26138Y-61848D01*
X26082Y-61912D01*
X26018Y-61996D01*
X25925Y-62079D01*
X25814Y-62181D01*
X25685Y-62264D01*
X25537Y-62347D01*
X25546D01*
X25564Y-62356D01*
X25592Y-62366D01*
X25629Y-62375D01*
X25740Y-62421D01*
X25870Y-62486D01*
X26008Y-62560D01*
X26166Y-62662D01*
X26304Y-62782D01*
X26434Y-62930D01*
X26443Y-62948D01*
X26480Y-63004D01*
X26536Y-63087D01*
X26591Y-63198D01*
X26647Y-63346D01*
X26702Y-63503D01*
X26739Y-63688D01*
X26748Y-63892D01*
Y-63901D01*
Y-63910D01*
Y-63966D01*
X26739Y-64049D01*
X26721Y-64160D01*
X26702Y-64290D01*
X26665Y-64438D01*
X26610Y-64586D01*
X26545Y-64743D01*
X26536Y-64761D01*
X26508Y-64808D01*
X26462Y-64882D01*
X26397Y-64974D01*
X26323Y-65085D01*
X26221Y-65187D01*
X26119Y-65298D01*
X25990Y-65400D01*
X25971Y-65409D01*
X25925Y-65437D01*
X25851Y-65483D01*
X25749Y-65529D01*
X25620Y-65585D01*
X25472Y-65631D01*
X25305Y-65677D01*
X25120Y-65705D01*
X25083D01*
X25046Y-65714D01*
X24954D01*
X24889Y-65723D01*
X24713D01*
X24602Y-65733D01*
X24325D01*
X24168Y-65742D01*
X21393D01*
Y-59341D01*
X24205D01*
X24371Y-59350D01*
D02*
G37*
G36*
X48699Y-59230D02*
X48791D01*
X48911Y-59248D01*
X49050Y-59267D01*
X49207Y-59295D01*
X49374Y-59332D01*
X49550Y-59378D01*
X49735Y-59433D01*
X49920Y-59507D01*
X50114Y-59591D01*
X50299Y-59692D01*
X50484Y-59813D01*
X50660Y-59951D01*
X50826Y-60109D01*
X50835Y-60118D01*
X50863Y-60146D01*
X50909Y-60201D01*
X50956Y-60266D01*
X51020Y-60358D01*
X51094Y-60469D01*
X51168Y-60599D01*
X51252Y-60747D01*
X51335Y-60904D01*
X51409Y-61089D01*
X51483Y-61293D01*
X51548Y-61505D01*
X51603Y-61746D01*
X51640Y-61996D01*
X51668Y-62264D01*
X51677Y-62551D01*
Y-62569D01*
Y-62615D01*
X51668Y-62699D01*
Y-62810D01*
X51649Y-62939D01*
X51631Y-63087D01*
X51603Y-63263D01*
X51575Y-63439D01*
X51529Y-63633D01*
X51474Y-63836D01*
X51400Y-64040D01*
X51316Y-64243D01*
X51224Y-64438D01*
X51104Y-64632D01*
X50974Y-64817D01*
X50826Y-64993D01*
X50817Y-65002D01*
X50789Y-65030D01*
X50743Y-65076D01*
X50669Y-65131D01*
X50586Y-65196D01*
X50484Y-65270D01*
X50364Y-65344D01*
X50234Y-65427D01*
X50077Y-65511D01*
X49910Y-65585D01*
X49725Y-65659D01*
X49522Y-65723D01*
X49309Y-65779D01*
X49078Y-65825D01*
X48837Y-65853D01*
X48578Y-65862D01*
X48514D01*
X48440Y-65853D01*
X48347Y-65844D01*
X48227Y-65834D01*
X48088Y-65816D01*
X47931Y-65788D01*
X47764Y-65751D01*
X47579Y-65705D01*
X47404Y-65649D01*
X47209Y-65575D01*
X47024Y-65492D01*
X46830Y-65400D01*
X46654Y-65279D01*
X46479Y-65150D01*
X46312Y-64993D01*
X46303Y-64983D01*
X46275Y-64956D01*
X46238Y-64900D01*
X46183Y-64835D01*
X46118Y-64743D01*
X46044Y-64632D01*
X45970Y-64512D01*
X45896Y-64364D01*
X45813Y-64206D01*
X45739Y-64021D01*
X45665Y-63827D01*
X45600Y-63614D01*
X45544Y-63383D01*
X45507Y-63133D01*
X45480Y-62865D01*
X45470Y-62588D01*
Y-62578D01*
Y-62541D01*
Y-62495D01*
X45480Y-62421D01*
Y-62338D01*
X45489Y-62245D01*
X45498Y-62134D01*
X45507Y-62014D01*
X45544Y-61755D01*
X45591Y-61478D01*
X45665Y-61200D01*
X45757Y-60941D01*
Y-60932D01*
X45766Y-60923D01*
X45785Y-60895D01*
X45794Y-60858D01*
X45850Y-60765D01*
X45914Y-60645D01*
X45998Y-60506D01*
X46099Y-60368D01*
X46220Y-60210D01*
X46349Y-60062D01*
X46358Y-60053D01*
X46368Y-60044D01*
X46414Y-59998D01*
X46497Y-59924D01*
X46599Y-59840D01*
X46719Y-59748D01*
X46858Y-59646D01*
X47015Y-59554D01*
X47182Y-59480D01*
X47191D01*
X47209Y-59470D01*
X47246Y-59452D01*
X47293Y-59443D01*
X47348Y-59415D01*
X47413Y-59396D01*
X47496Y-59378D01*
X47579Y-59350D01*
X47783Y-59304D01*
X48014Y-59258D01*
X48282Y-59230D01*
X48560Y-59221D01*
X48625D01*
X48699Y-59230D01*
D02*
G37*
G36*
X30809D02*
X30902D01*
X31022Y-59248D01*
X31161Y-59267D01*
X31318Y-59295D01*
X31484Y-59332D01*
X31660Y-59378D01*
X31845Y-59433D01*
X32030Y-59507D01*
X32224Y-59591D01*
X32409Y-59692D01*
X32594Y-59813D01*
X32770Y-59951D01*
X32937Y-60109D01*
X32946Y-60118D01*
X32974Y-60146D01*
X33020Y-60201D01*
X33066Y-60266D01*
X33131Y-60358D01*
X33205Y-60469D01*
X33279Y-60599D01*
X33362Y-60747D01*
X33445Y-60904D01*
X33519Y-61089D01*
X33593Y-61293D01*
X33658Y-61505D01*
X33714Y-61746D01*
X33751Y-61996D01*
X33778Y-62264D01*
X33788Y-62551D01*
Y-62569D01*
Y-62615D01*
X33778Y-62699D01*
Y-62810D01*
X33760Y-62939D01*
X33741Y-63087D01*
X33714Y-63263D01*
X33686Y-63439D01*
X33640Y-63633D01*
X33584Y-63836D01*
X33510Y-64040D01*
X33427Y-64243D01*
X33334Y-64438D01*
X33214Y-64632D01*
X33085Y-64817D01*
X32937Y-64993D01*
X32927Y-65002D01*
X32900Y-65030D01*
X32853Y-65076D01*
X32779Y-65131D01*
X32696Y-65196D01*
X32594Y-65270D01*
X32474Y-65344D01*
X32345Y-65427D01*
X32187Y-65511D01*
X32021Y-65585D01*
X31836Y-65659D01*
X31632Y-65723D01*
X31420Y-65779D01*
X31188Y-65825D01*
X30948Y-65853D01*
X30689Y-65862D01*
X30624D01*
X30550Y-65853D01*
X30458Y-65844D01*
X30337Y-65834D01*
X30199Y-65816D01*
X30041Y-65788D01*
X29875Y-65751D01*
X29690Y-65705D01*
X29514Y-65649D01*
X29320Y-65575D01*
X29135Y-65492D01*
X28941Y-65400D01*
X28765Y-65279D01*
X28589Y-65150D01*
X28423Y-64993D01*
X28413Y-64983D01*
X28386Y-64956D01*
X28349Y-64900D01*
X28293Y-64835D01*
X28228Y-64743D01*
X28154Y-64632D01*
X28080Y-64512D01*
X28006Y-64364D01*
X27923Y-64206D01*
X27849Y-64021D01*
X27775Y-63827D01*
X27710Y-63614D01*
X27655Y-63383D01*
X27618Y-63133D01*
X27590Y-62865D01*
X27581Y-62588D01*
Y-62578D01*
Y-62541D01*
Y-62495D01*
X27590Y-62421D01*
Y-62338D01*
X27599Y-62245D01*
X27609Y-62134D01*
X27618Y-62014D01*
X27655Y-61755D01*
X27701Y-61478D01*
X27775Y-61200D01*
X27868Y-60941D01*
Y-60932D01*
X27877Y-60923D01*
X27895Y-60895D01*
X27905Y-60858D01*
X27960Y-60765D01*
X28025Y-60645D01*
X28108Y-60506D01*
X28210Y-60368D01*
X28330Y-60210D01*
X28460Y-60062D01*
X28469Y-60053D01*
X28478Y-60044D01*
X28524Y-59998D01*
X28608Y-59924D01*
X28709Y-59840D01*
X28830Y-59748D01*
X28968Y-59646D01*
X29126Y-59554D01*
X29292Y-59480D01*
X29301D01*
X29320Y-59470D01*
X29357Y-59452D01*
X29403Y-59443D01*
X29459Y-59415D01*
X29523Y-59396D01*
X29607Y-59378D01*
X29690Y-59350D01*
X29893Y-59304D01*
X30125Y-59258D01*
X30393Y-59230D01*
X30670Y-59221D01*
X30735D01*
X30809Y-59230D01*
D02*
G37*
%LPC*%
G36*
X60056Y78239D02*
X56655D01*
Y76131D01*
X56398Y75981D01*
X56119Y76140D01*
Y78239D01*
X52718D01*
Y75472D01*
X52492Y75274D01*
X52076Y74425D01*
X52016Y73481D01*
X52492Y69921D01*
X52593Y69626D01*
X52655Y69313D01*
X52746Y69177D01*
X52798Y69026D01*
X52830Y68989D01*
X52838Y68971D01*
X53235Y68454D01*
Y63410D01*
X53268Y63243D01*
X53370Y62204D01*
X53722Y61044D01*
X54294Y59975D01*
X54956Y59168D01*
X55051Y59027D01*
X55643Y58434D01*
X55995Y58082D01*
X55995Y58082D01*
X55995Y58082D01*
X55999Y58079D01*
X57444Y56894D01*
X59097Y56010D01*
X60780Y55500D01*
X60891Y55466D01*
X61259Y55398D01*
X61729Y55281D01*
X61918Y55155D01*
X62295Y54867D01*
X62333Y54811D01*
X62410Y54738D01*
X62469Y54672D01*
X62533Y54615D01*
X62604Y54540D01*
X62658Y54504D01*
X62959Y54132D01*
X63253Y53693D01*
X63401Y52946D01*
X63416Y52947D01*
X63446Y52799D01*
X63551Y51737D01*
X64128Y49834D01*
X65065Y48079D01*
X66327Y46542D01*
X66327Y46542D01*
X66682Y46190D01*
X69248Y43624D01*
X69710Y43163D01*
X69832Y43081D01*
X70934Y41738D01*
X71821Y40078D01*
X72368Y38277D01*
X72538Y36548D01*
X72509Y36404D01*
Y34437D01*
X72447Y34374D01*
X71921Y33588D01*
X71866Y33309D01*
X71824Y33177D01*
X71824Y33177D01*
X71824Y33177D01*
X71786Y33007D01*
X71786Y33007D01*
X71786Y33007D01*
X71765Y32834D01*
X71765Y32834D01*
X71765Y32834D01*
X71763Y32793D01*
X71737Y32660D01*
X71763Y32528D01*
X71765Y32485D01*
X71765Y32485D01*
X71765Y32485D01*
X71786Y32312D01*
X71786Y32312D01*
X71786Y32312D01*
X71824Y32142D01*
X71824Y32142D01*
Y32142D01*
X71866Y32010D01*
X71921Y31733D01*
X72447Y30946D01*
X73233Y30421D01*
X74161Y30236D01*
X75088Y30421D01*
X75445Y30659D01*
X75877D01*
X76233Y30421D01*
X77161Y30236D01*
X78088Y30421D01*
X78875Y30946D01*
X79400Y31733D01*
X79455Y32009D01*
X79496Y32142D01*
Y32142D01*
X79496Y32142D01*
X79535Y32312D01*
X79535Y32312D01*
X79535Y32312D01*
X79557Y32485D01*
X79557Y32485D01*
X79557Y32485D01*
X79559Y32530D01*
X79585Y32660D01*
X79559Y32791D01*
X79557Y32834D01*
X79557Y32834D01*
X79557Y32834D01*
X79535Y33007D01*
X79535Y33007D01*
X79535Y33007D01*
X79496Y33177D01*
X79496Y33177D01*
Y33177D01*
X79456Y33309D01*
X79400Y33588D01*
X78875Y34374D01*
X78812Y34437D01*
Y36404D01*
X78815D01*
X78619Y38886D01*
X78038Y41306D01*
X77086Y43606D01*
X75785Y45729D01*
X74168Y47621D01*
X74167Y47620D01*
X73705Y48081D01*
X73705Y48081D01*
X70786Y51000D01*
X70710Y51051D01*
X70150Y51781D01*
X69763Y52715D01*
X69670Y53424D01*
X69643Y53422D01*
X69613Y53574D01*
X69526Y54458D01*
X69032Y56087D01*
X68229Y57588D01*
X67314Y58703D01*
X67149Y58904D01*
X67149Y58905D01*
X67050Y58998D01*
X67033Y59024D01*
X67033Y59024D01*
X66921Y59124D01*
X66817Y59240D01*
X66785Y59262D01*
X66704Y59345D01*
X66497Y59516D01*
X65477Y60353D01*
X64077Y61101D01*
X62734Y61508D01*
X62557Y61562D01*
X62246Y61628D01*
X61780Y61725D01*
X61114Y62000D01*
X60822Y62225D01*
X60452Y62539D01*
X59538Y63453D01*
Y68356D01*
X59538Y68356D01*
X59538Y68356D01*
Y68409D01*
X59551Y68428D01*
X59596Y68485D01*
X59661Y68529D01*
X59846Y68806D01*
X60066Y69066D01*
X60109Y69199D01*
X60186Y69315D01*
X60252Y69646D01*
X60355Y69966D01*
X60763Y73526D01*
X60686Y74468D01*
X60253Y75309D01*
X60056Y75477D01*
Y78239D01*
D02*
G37*
G36*
X62293Y80524D02*
X61903Y80446D01*
X61572Y80225D01*
X61571Y80224D01*
X61350Y79893D01*
X61272Y79503D01*
Y73802D01*
X61350Y73412D01*
X61571Y73081D01*
X61902Y72860D01*
X62292Y72782D01*
X62682Y72860D01*
X63013Y73081D01*
X63234Y73412D01*
X63312Y73802D01*
Y79499D01*
X63313Y79504D01*
X63235Y79894D01*
X63014Y80225D01*
X62683Y80446D01*
X62293Y80524D01*
D02*
G37*
G36*
X50482D02*
X50092Y80446D01*
X49761Y80225D01*
X49760Y80224D01*
X49539Y79893D01*
X49461Y79503D01*
Y73802D01*
X49539Y73412D01*
X49760Y73081D01*
X50091Y72860D01*
X50481Y72782D01*
X50871Y72860D01*
X51202Y73081D01*
X51423Y73412D01*
X51501Y73802D01*
Y79499D01*
X51502Y79504D01*
X51424Y79894D01*
X51203Y80225D01*
X50872Y80446D01*
X50482Y80524D01*
D02*
G37*
G36*
X107077Y32994D02*
X106570Y32893D01*
X106140Y32605D01*
X105852Y32175D01*
X105752Y31668D01*
X105852Y31161D01*
X106140Y30731D01*
X106261Y30650D01*
Y28120D01*
X106161Y28037D01*
X105514Y28105D01*
X105084Y28393D01*
X104577Y28493D01*
X104070Y28393D01*
X103640Y28105D01*
X103450Y27821D01*
X103296Y27787D01*
X102959Y27800D01*
X102894Y27821D01*
X102734Y28061D01*
X102387Y28293D01*
X101977Y28375D01*
X101567Y28293D01*
X101220Y28061D01*
X100988Y27714D01*
X100906Y27304D01*
Y21668D01*
X100988Y21258D01*
X101220Y20911D01*
X101567Y20679D01*
X101977Y20597D01*
X102387Y20679D01*
X102734Y20911D01*
X102877Y21125D01*
X103377Y20973D01*
Y18268D01*
X105377D01*
X105777Y18268D01*
X106277Y18268D01*
X107977D01*
X108277Y18268D01*
X108508D01*
X108861Y17914D01*
Y15955D01*
X108861Y15955D01*
X108923Y15643D01*
X109100Y15378D01*
X110751Y13727D01*
X110751Y13727D01*
X111016Y13550D01*
X111328Y13488D01*
X111328Y13488D01*
X112582D01*
X112631Y13240D01*
X112855Y12905D01*
X113190Y12682D01*
X113584Y12603D01*
X114529D01*
X114924Y12682D01*
X115259Y12905D01*
X115482Y13240D01*
X115561Y13635D01*
Y14973D01*
X115482Y15368D01*
X115259Y15703D01*
X114924Y15926D01*
X114529Y16005D01*
X113584D01*
X113190Y15926D01*
X112855Y15703D01*
X112631Y15368D01*
X112582Y15120D01*
X111666D01*
X110493Y16293D01*
Y18268D01*
X110877D01*
Y20793D01*
X111377Y20945D01*
X111448Y20839D01*
X111828Y20585D01*
X112277Y20495D01*
X112726Y20585D01*
X113106Y20839D01*
X113249Y21053D01*
X113269Y21061D01*
X113785D01*
X113805Y21053D01*
X113948Y20839D01*
X114328Y20585D01*
X114777Y20495D01*
X115226Y20585D01*
X115606Y20839D01*
X115677Y20945D01*
X116177Y20793D01*
Y18268D01*
X118577D01*
Y25068D01*
X118193D01*
Y29649D01*
X118314Y29731D01*
X118602Y30161D01*
X118702Y30668D01*
X118602Y31175D01*
X118314Y31605D01*
X117884Y31893D01*
X117377Y31993D01*
X116870Y31893D01*
X116440Y31605D01*
X116152Y31175D01*
X116051Y30668D01*
X116152Y30161D01*
X116440Y29731D01*
X116561Y29649D01*
Y25422D01*
X116539Y25399D01*
X116404Y25364D01*
X115949Y25762D01*
Y26168D01*
X115860Y26617D01*
X115606Y26997D01*
X115226Y27251D01*
X114777Y27340D01*
X114328Y27251D01*
X113948Y26997D01*
X113694Y26617D01*
X113663Y26463D01*
X113132Y26358D01*
X113106Y26397D01*
X112506Y26997D01*
X112126Y27251D01*
X111677Y27340D01*
X111228Y27251D01*
X110848Y26997D01*
X110594Y26617D01*
X110504Y26168D01*
X110594Y25719D01*
X110695Y25568D01*
X110428Y25068D01*
X108777D01*
X108477Y25068D01*
X108246D01*
X107893Y25422D01*
Y30650D01*
X108014Y30731D01*
X108302Y31161D01*
X108403Y31668D01*
X108302Y32175D01*
X108014Y32605D01*
X107584Y32893D01*
X107077Y32994D01*
D02*
G37*
G36*
X95433Y-5474D02*
X94455Y-5669D01*
X93625Y-6223D01*
X93071Y-7053D01*
X92876Y-8032D01*
X93071Y-9010D01*
X93625Y-9840D01*
X94455Y-10394D01*
X95433Y-10588D01*
X96412Y-10394D01*
X97241Y-9840D01*
X97795Y-9010D01*
X97990Y-8032D01*
X97795Y-7053D01*
X97241Y-6223D01*
X96412Y-5669D01*
X95433Y-5474D01*
D02*
G37*
G36*
X116798Y66132D02*
X116010D01*
X115662Y66062D01*
X115366Y65865D01*
X114883Y66042D01*
X114844Y66068D01*
X114534Y66130D01*
X113944D01*
X113633Y66068D01*
X113626Y66063D01*
X113254Y65933D01*
X112883Y66063D01*
X112876Y66068D01*
X112566Y66130D01*
X111975D01*
X111665Y66068D01*
X111626Y66042D01*
X111143Y65865D01*
X110847Y66062D01*
X110499Y66132D01*
X109711D01*
X109362Y66062D01*
X109067Y65865D01*
X108869Y65569D01*
X108800Y65220D01*
Y63449D01*
X108869Y63100D01*
X109067Y62805D01*
X109289Y62656D01*
Y61822D01*
X109168Y61741D01*
X108880Y61311D01*
X108780Y60804D01*
X108880Y60297D01*
X109168Y59867D01*
X109598Y59579D01*
X110105Y59478D01*
X110612Y59579D01*
X110954Y59808D01*
X111276Y59707D01*
X111454Y59587D01*
Y57007D01*
X110320Y55873D01*
X110177Y55902D01*
X109670Y55801D01*
X109240Y55513D01*
X108952Y55083D01*
X108852Y54576D01*
X108952Y54069D01*
X109240Y53639D01*
X109670Y53351D01*
X110177Y53251D01*
X110684Y53351D01*
X111114Y53639D01*
X111401Y54069D01*
X111502Y54576D01*
X111474Y54720D01*
X112777Y56023D01*
X112933Y56093D01*
X113443Y56095D01*
X113670Y55943D01*
X114087Y55860D01*
X114210Y55576D01*
X114238Y55360D01*
X114155Y55304D01*
X114154Y55303D01*
X113900Y54923D01*
X113811Y54474D01*
Y51668D01*
X113900Y51219D01*
X114154Y50839D01*
X114534Y50585D01*
X114983Y50495D01*
X115432Y50585D01*
X115812Y50839D01*
X116066Y51219D01*
X116156Y51668D01*
Y54470D01*
X116156Y54475D01*
X116067Y54924D01*
X115813Y55304D01*
X115433Y55558D01*
X115105Y55623D01*
X114961Y56022D01*
X114955Y56124D01*
X115114Y56231D01*
X115402Y56661D01*
X115503Y57168D01*
X115474Y57311D01*
X116982Y58819D01*
X116982Y58819D01*
X117159Y59084D01*
X117221Y59396D01*
X117221Y59396D01*
Y62656D01*
X117442Y62805D01*
X117640Y63100D01*
X117709Y63449D01*
Y65220D01*
X117640Y65569D01*
X117442Y65865D01*
X117147Y66062D01*
X116798Y66132D01*
D02*
G37*
G36*
X105960Y66452D02*
X105511Y66362D01*
X105131Y66108D01*
X104877Y65728D01*
X104788Y65279D01*
Y62668D01*
X104877Y62219D01*
X105131Y61839D01*
X105511Y61585D01*
X105960Y61496D01*
X106409Y61585D01*
X106789Y61839D01*
X107043Y62219D01*
X107132Y62668D01*
Y65279D01*
X107043Y65728D01*
X106789Y66108D01*
X106409Y66362D01*
X105960Y66452D01*
D02*
G37*
G36*
X89269Y-60423D02*
X87789D01*
Y-62051D01*
X89047D01*
X89232Y-62042D01*
X89426Y-62033D01*
X89621Y-62023D01*
X89704Y-62014D01*
X89778Y-62005D01*
X89852Y-61986D01*
X89898Y-61977D01*
X89907D01*
X89935Y-61959D01*
X89981Y-61940D01*
X90028Y-61912D01*
X90148Y-61829D01*
X90203Y-61774D01*
X90259Y-61709D01*
X90268Y-61700D01*
X90277Y-61672D01*
X90305Y-61635D01*
X90333Y-61579D01*
X90351Y-61505D01*
X90379Y-61422D01*
X90388Y-61330D01*
X90398Y-61228D01*
Y-61209D01*
Y-61172D01*
X90388Y-61117D01*
X90379Y-61043D01*
X90351Y-60960D01*
X90324Y-60876D01*
X90277Y-60784D01*
X90222Y-60710D01*
X90213Y-60701D01*
X90194Y-60673D01*
X90148Y-60645D01*
X90092Y-60599D01*
X90028Y-60553D01*
X89944Y-60516D01*
X89843Y-60479D01*
X89732Y-60451D01*
X89722D01*
X89695Y-60442D01*
X89639D01*
X89556Y-60432D01*
X89352D01*
X89269Y-60423D01*
D02*
G37*
G36*
X70603Y-60830D02*
X69733Y-63207D01*
X71500D01*
X70603Y-60830D01*
D02*
G37*
G36*
X23973Y-60405D02*
X22688D01*
Y-61885D01*
X23927D01*
X24084Y-61875D01*
X24371D01*
X24427Y-61866D01*
X24482D01*
X24519Y-61857D01*
X24575Y-61848D01*
X24658Y-61820D01*
X24741Y-61792D01*
X24824Y-61755D01*
X24908Y-61709D01*
X24982Y-61644D01*
X24991Y-61635D01*
X25009Y-61607D01*
X25046Y-61570D01*
X25083Y-61505D01*
X25111Y-61431D01*
X25148Y-61348D01*
X25167Y-61246D01*
X25176Y-61135D01*
Y-61126D01*
Y-61089D01*
X25167Y-61034D01*
X25157Y-60960D01*
X25139Y-60886D01*
X25102Y-60812D01*
X25065Y-60728D01*
X25009Y-60654D01*
X25000Y-60645D01*
X24982Y-60627D01*
X24935Y-60590D01*
X24889Y-60553D01*
X24815Y-60516D01*
X24732Y-60479D01*
X24630Y-60451D01*
X24519Y-60432D01*
X24510D01*
X24473Y-60423D01*
X24371D01*
X24316Y-60414D01*
X24075D01*
X23973Y-60405D01*
D02*
G37*
G36*
X24029Y-62948D02*
X22688D01*
Y-64660D01*
X24112D01*
X24251Y-64650D01*
X24399D01*
X24547Y-64641D01*
X24667Y-64632D01*
X24723D01*
X24760Y-64623D01*
X24769D01*
X24806Y-64613D01*
X24861Y-64595D01*
X24926Y-64576D01*
X25000Y-64539D01*
X25083Y-64493D01*
X25157Y-64438D01*
X25231Y-64373D01*
X25241Y-64364D01*
X25259Y-64336D01*
X25287Y-64290D01*
X25324Y-64225D01*
X25361Y-64151D01*
X25389Y-64058D01*
X25407Y-63947D01*
X25416Y-63827D01*
Y-63818D01*
Y-63781D01*
X25407Y-63725D01*
X25398Y-63661D01*
X25379Y-63577D01*
X25352Y-63503D01*
X25315Y-63420D01*
X25268Y-63337D01*
X25259Y-63328D01*
X25241Y-63300D01*
X25213Y-63263D01*
X25167Y-63226D01*
X25111Y-63170D01*
X25037Y-63124D01*
X24954Y-63078D01*
X24861Y-63041D01*
X24852D01*
X24806Y-63022D01*
X24732Y-63013D01*
X24686Y-63004D01*
X24621Y-62995D01*
X24556Y-62985D01*
X24473Y-62976D01*
X24380Y-62967D01*
X24269D01*
X24158Y-62958D01*
X24029Y-62948D01*
D02*
G37*
G36*
X48578Y-60321D02*
X48504D01*
X48449Y-60331D01*
X48375Y-60340D01*
X48301Y-60349D01*
X48116Y-60386D01*
X47912Y-60460D01*
X47801Y-60497D01*
X47690Y-60553D01*
X47589Y-60617D01*
X47478Y-60691D01*
X47376Y-60775D01*
X47283Y-60876D01*
X47274Y-60886D01*
X47265Y-60904D01*
X47237Y-60932D01*
X47209Y-60978D01*
X47172Y-61043D01*
X47135Y-61108D01*
X47089Y-61191D01*
X47043Y-61293D01*
X46997Y-61404D01*
X46950Y-61524D01*
X46913Y-61663D01*
X46876Y-61811D01*
X46849Y-61977D01*
X46821Y-62153D01*
X46812Y-62338D01*
X46802Y-62541D01*
Y-62551D01*
Y-62588D01*
Y-62643D01*
X46812Y-62717D01*
X46821Y-62810D01*
X46830Y-62921D01*
X46849Y-63032D01*
X46867Y-63161D01*
X46923Y-63429D01*
X47015Y-63698D01*
X47071Y-63836D01*
X47135Y-63966D01*
X47219Y-64086D01*
X47302Y-64197D01*
X47311Y-64206D01*
X47330Y-64225D01*
X47357Y-64253D01*
X47394Y-64280D01*
X47441Y-64327D01*
X47505Y-64373D01*
X47570Y-64428D01*
X47653Y-64475D01*
X47829Y-64586D01*
X48051Y-64669D01*
X48171Y-64706D01*
X48301Y-64734D01*
X48440Y-64752D01*
X48578Y-64761D01*
X48652D01*
X48708Y-64752D01*
X48773Y-64743D01*
X48847Y-64734D01*
X49022Y-64687D01*
X49226Y-64623D01*
X49328Y-64576D01*
X49439Y-64530D01*
X49540Y-64465D01*
X49651Y-64391D01*
X49753Y-64308D01*
X49846Y-64206D01*
X49855Y-64197D01*
X49864Y-64179D01*
X49892Y-64151D01*
X49920Y-64105D01*
X49966Y-64040D01*
X50003Y-63966D01*
X50049Y-63883D01*
X50095Y-63781D01*
X50142Y-63670D01*
X50188Y-63550D01*
X50234Y-63411D01*
X50271Y-63254D01*
X50299Y-63096D01*
X50327Y-62921D01*
X50336Y-62726D01*
X50345Y-62523D01*
Y-62514D01*
Y-62477D01*
Y-62421D01*
X50336Y-62338D01*
X50327Y-62245D01*
X50317Y-62144D01*
X50308Y-62023D01*
X50280Y-61903D01*
X50225Y-61635D01*
X50142Y-61357D01*
X50086Y-61219D01*
X50021Y-61098D01*
X49938Y-60978D01*
X49855Y-60867D01*
X49846Y-60858D01*
X49836Y-60839D01*
X49809Y-60821D01*
X49772Y-60784D01*
X49716Y-60738D01*
X49661Y-60691D01*
X49596Y-60645D01*
X49513Y-60590D01*
X49429Y-60543D01*
X49328Y-60497D01*
X49115Y-60405D01*
X48995Y-60368D01*
X48865Y-60349D01*
X48726Y-60331D01*
X48578Y-60321D01*
D02*
G37*
G36*
X30689D02*
X30615D01*
X30559Y-60331D01*
X30485Y-60340D01*
X30411Y-60349D01*
X30226Y-60386D01*
X30023Y-60460D01*
X29912Y-60497D01*
X29801Y-60553D01*
X29699Y-60617D01*
X29588Y-60691D01*
X29486Y-60775D01*
X29394Y-60876D01*
X29385Y-60886D01*
X29375Y-60904D01*
X29348Y-60932D01*
X29320Y-60978D01*
X29283Y-61043D01*
X29246Y-61108D01*
X29200Y-61191D01*
X29153Y-61293D01*
X29107Y-61404D01*
X29061Y-61524D01*
X29024Y-61663D01*
X28987Y-61811D01*
X28959Y-61977D01*
X28931Y-62153D01*
X28922Y-62338D01*
X28913Y-62541D01*
Y-62551D01*
Y-62588D01*
Y-62643D01*
X28922Y-62717D01*
X28931Y-62810D01*
X28941Y-62921D01*
X28959Y-63032D01*
X28978Y-63161D01*
X29033Y-63429D01*
X29126Y-63698D01*
X29181Y-63836D01*
X29246Y-63966D01*
X29329Y-64086D01*
X29412Y-64197D01*
X29422Y-64206D01*
X29440Y-64225D01*
X29468Y-64253D01*
X29505Y-64280D01*
X29551Y-64327D01*
X29616Y-64373D01*
X29681Y-64428D01*
X29764Y-64475D01*
X29940Y-64586D01*
X30162Y-64669D01*
X30282Y-64706D01*
X30411Y-64734D01*
X30550Y-64752D01*
X30689Y-64761D01*
X30763D01*
X30818Y-64752D01*
X30883Y-64743D01*
X30957Y-64734D01*
X31133Y-64687D01*
X31336Y-64623D01*
X31438Y-64576D01*
X31549Y-64530D01*
X31651Y-64465D01*
X31762Y-64391D01*
X31864Y-64308D01*
X31956Y-64206D01*
X31965Y-64197D01*
X31975Y-64179D01*
X32002Y-64151D01*
X32030Y-64105D01*
X32076Y-64040D01*
X32113Y-63966D01*
X32160Y-63883D01*
X32206Y-63781D01*
X32252Y-63670D01*
X32298Y-63550D01*
X32345Y-63411D01*
X32382Y-63254D01*
X32409Y-63096D01*
X32437Y-62921D01*
X32446Y-62726D01*
X32456Y-62523D01*
Y-62514D01*
Y-62477D01*
Y-62421D01*
X32446Y-62338D01*
X32437Y-62245D01*
X32428Y-62144D01*
X32419Y-62023D01*
X32391Y-61903D01*
X32335Y-61635D01*
X32252Y-61357D01*
X32197Y-61219D01*
X32132Y-61098D01*
X32049Y-60978D01*
X31965Y-60867D01*
X31956Y-60858D01*
X31947Y-60839D01*
X31919Y-60821D01*
X31882Y-60784D01*
X31827Y-60738D01*
X31771Y-60691D01*
X31706Y-60645D01*
X31623Y-60590D01*
X31540Y-60543D01*
X31438Y-60497D01*
X31225Y-60405D01*
X31105Y-60368D01*
X30976Y-60349D01*
X30837Y-60331D01*
X30689Y-60321D01*
D02*
G37*
%LPD*%
D12*
X85915Y73802D02*
D03*
X81977D02*
D03*
X78040D02*
D03*
X74103D02*
D03*
X70166D02*
D03*
X66229D02*
D03*
X62292D02*
D03*
X58355D02*
D03*
X54418D02*
D03*
X30796D02*
D03*
X34733D02*
D03*
X38671D02*
D03*
X50481D02*
D03*
X42608D02*
D03*
X46545D02*
D03*
D13*
X19025Y84826D02*
D03*
X97686D02*
D03*
D21*
X49637Y44715D02*
G03*
X51502Y43942I1865J1865D01*
G01*
X54957Y42511D02*
G03*
X51502Y43942I-3456J-3456D01*
G01*
X55830Y24888D02*
G03*
X57177Y21637I4598J0D01*
G01*
X55976Y26580D02*
G03*
X55830Y25844I1776J-736D01*
G01*
X57630Y36689D02*
G03*
X55404Y42064I-7602J0D01*
G01*
X59782Y17298D02*
G03*
X58556Y20258I-4186J-0D01*
G01*
X60629Y13744D02*
G03*
X60206Y14918I-1839J0D01*
G01*
X59782Y16092D02*
G03*
X60206Y14918I1839J0D01*
G01*
X54051Y41359D02*
G03*
X51328Y42487I-2724J-2724D01*
G01*
X54632Y27137D02*
G03*
X54375Y25844I3121J-1292D01*
G01*
Y24888D02*
G03*
X56148Y20608I6053J0D01*
G01*
X56176Y36688D02*
G03*
X54375Y41035I-6148J0D01*
G01*
X55623Y29530D02*
G03*
X56247Y32888I-7601J3148D01*
G01*
X51328Y42487D02*
G03*
X49760Y41838I0J-2218D01*
G01*
X57903Y14918D02*
G03*
X57480Y13744I1416J-1174D01*
G01*
X58327Y17298D02*
G03*
X57527Y19229I-2731J-0D01*
G01*
X56968Y28973D02*
G03*
X57701Y32925I-8945J3705D01*
G01*
X47392Y35378D02*
G03*
X47385Y35386I-2795J-2779D01*
G01*
X48539Y32599D02*
G03*
X47392Y35378I-3941J0D01*
G01*
D02*
G03*
X47385Y35386I-2795J-2779D01*
G01*
X50334Y16092D02*
G03*
X50757Y14918I1839J0D01*
G01*
X51181Y13744D02*
G03*
X50757Y14918I-1839J0D01*
G01*
X47389Y29817D02*
G03*
X48539Y32599I-2792J2782D01*
G01*
X47385Y29812D02*
G03*
X47389Y29817I-2787J2787D01*
G01*
X50334Y16981D02*
G03*
X48896Y20452I-4908J-0D01*
G01*
X46224Y36546D02*
G03*
X43177Y37808I-3047J-3047D01*
G01*
X35837Y38560D02*
G03*
X37651Y37808I1815J1815D01*
G01*
X46360Y34352D02*
G03*
X46356Y34357I-1763J-1754D01*
G01*
X47084Y32599D02*
G03*
X46360Y34352I-2486J0D01*
G01*
X48879Y16981D02*
G03*
X47868Y19423I-3453J-0D01*
G01*
X48456Y14918D02*
G03*
X48032Y13744I1416J-1174D01*
G01*
X46357Y30842D02*
G03*
X47084Y32599I-1760J1756D01*
G01*
X46362Y34351D02*
G03*
X46356Y34357I-1764J-1752D01*
G01*
X48032Y13744D02*
G03*
X48031Y13742I2J-2D01*
G01*
X46356Y30841D02*
G03*
X46357Y30842I-1758J1758D01*
G01*
X45527Y35186D02*
G03*
X42708Y36353I-2819J-2819D01*
G01*
X37651D02*
G03*
X35837Y35602I0J-2566D01*
G01*
X44278Y28763D02*
G03*
X44278Y23012I2875J-2875D01*
G01*
X48456Y14918D02*
G03*
X48879Y16092I-1416J1174D01*
G01*
X45307Y27734D02*
G03*
X45307Y24041I1846J-1846D01*
G01*
X57903Y14918D02*
G03*
X58327Y16092I-1416J1174D01*
G01*
X69231Y23762D02*
G03*
X58036Y50789I-38221J0D01*
G01*
X52325Y56500D02*
G03*
X41889Y60823I-10436J-10436D01*
G01*
X70078Y13162D02*
G03*
X69960Y13907I-2414J0D01*
G01*
X69231Y15693D02*
G03*
X69526Y14770I1592J0D01*
G01*
X69960Y13907D02*
G03*
X69526Y14770I-3028J-984D01*
G01*
X33417Y61156D02*
G03*
X34220Y60823I804J804D01*
G01*
X51296Y55471D02*
G03*
X41889Y59368I-9407J-9407D01*
G01*
X67776Y23762D02*
G03*
X57007Y49760I-36766J-0D01*
G01*
X67050Y13975D02*
G03*
X66929Y13230I2237J-745D01*
G01*
X34220Y59368D02*
G03*
X33417Y59035I0J-1137D01*
G01*
X41335Y-14625D02*
G03*
X41732Y-13667I-958J958D01*
G01*
X41254Y-14706D02*
G03*
X40885Y-15598I895J-893D01*
G01*
X41255Y-14705D02*
G03*
X41254Y-14706I893J-893D01*
G01*
X40885Y-16767D02*
G03*
X41218Y-17571I1137J0D01*
G01*
X78040Y68049D02*
G03*
X78509Y66918I1600J0D01*
G01*
X38582Y-13665D02*
G03*
X38583Y-13667I3J0D01*
G01*
D02*
G03*
X38980Y-14625I1354J0D01*
G01*
X39097Y-17572D02*
G03*
X39430Y-16769I-803J803D01*
G01*
X39061Y-14706D02*
G03*
X39060Y-14705I-895J-893D01*
G01*
X39430Y-15598D02*
G03*
X39061Y-14706I-1264J0D01*
G01*
X70033Y63370D02*
G03*
X72142Y62496I2110J2110D01*
G01*
X75489Y61317D02*
G03*
X72745Y62496I-2743J-2602D01*
G01*
X69642Y70180D02*
G03*
X69702Y70243I-1369J1369D01*
G01*
X68925Y66044D02*
G03*
X70033Y63370I3782J0D01*
G01*
X77540Y53039D02*
G03*
X77873Y52236I1137J0D01*
G01*
X77540Y56500D02*
G03*
X75489Y61317I-6681J-0D01*
G01*
X50784Y-14625D02*
G03*
X51181Y-13667I-958J958D01*
G01*
X50703Y-14706D02*
G03*
X50334Y-15598I895J-893D01*
G01*
X50704Y-14705D02*
G03*
X50703Y-14706I893J-893D01*
G01*
X50334Y-16767D02*
G03*
X50667Y-17571I1137J0D01*
G01*
X67470Y66044D02*
G03*
X69004Y62341I5237J0D01*
G01*
D02*
G03*
X72142Y61041I3139J3139D01*
G01*
X74454Y60293D02*
G03*
X72745Y61041I-1709J-1577D01*
G01*
X66695Y70240D02*
G03*
X67016Y69819I1685J954D01*
G01*
X67470Y68867D02*
G03*
X67118Y69718I-1202J0D01*
G01*
X76085Y56500D02*
G03*
X74454Y60293I-5226J-0D01*
G01*
X48032Y-13667D02*
G03*
X48429Y-14625I1354J0D01*
G01*
X48031Y-13665D02*
G03*
X48032Y-13667I3J0D01*
G01*
X48510Y-14706D02*
G03*
X48509Y-14705I-895J-893D01*
G01*
X48879Y-15598D02*
G03*
X48510Y-14706I-1264J0D01*
G01*
X48546Y-17572D02*
G03*
X48879Y-16769I-803J803D01*
G01*
X76388Y36404D02*
G03*
X72453Y45906I-13437J0D01*
G01*
X76388Y34264D02*
G03*
X76976Y32845I2008J0D01*
G01*
X65103Y57526D02*
G03*
X65319Y57310I4126J3907D01*
G01*
X65103Y57526D02*
G03*
X61867Y59231I-4126J-3907D01*
G01*
X57764Y70034D02*
G03*
X57947Y70243I-1426J1426D01*
G01*
X58738Y60825D02*
G03*
X61867Y59231I4018J4018D01*
G01*
X57114Y63410D02*
G03*
X57793Y61770I2320J0D01*
G01*
X60232Y-14625D02*
G03*
X60629Y-13667I-958J958D01*
G01*
X60151Y-14706D02*
G03*
X59782Y-15598I895J-893D01*
G01*
X60152Y-14705D02*
G03*
X60151Y-14706I893J-893D01*
G01*
X59782Y-16767D02*
G03*
X60115Y-17571I1137J0D01*
G01*
X74933Y36404D02*
G03*
X71424Y44877I-11982J-0D01*
G01*
X65804Y53130D02*
G03*
X68043Y48258I7698J587D01*
G01*
X55659Y63410D02*
G03*
X56765Y60741I3775J0D01*
G01*
X55659Y68909D02*
G03*
X55338Y69676I-1077J0D01*
G01*
X54894Y70241D02*
G03*
X55242Y69772I1712J905D01*
G01*
X57958Y-14706D02*
G03*
X57957Y-14705I-895J-893D01*
G01*
X58327Y-15598D02*
G03*
X57958Y-14706I-1264J0D01*
G01*
X57994Y-17572D02*
G03*
X58327Y-16769I-803J803D01*
G01*
X57480Y-13667D02*
G03*
X57877Y-14625I1354J0D01*
G01*
X57658Y69927D02*
G03*
X57114Y68614I1312J-1312D01*
G01*
X69535Y70073D02*
G03*
X68925Y68599I1474J-1474D01*
G01*
X75753Y52236D02*
G03*
X76085Y53039I-804J804D01*
G01*
X67255Y53240D02*
G03*
X69072Y49286I6247J476D01*
G01*
X67255Y53240D02*
G03*
X65319Y57310I-6247J-476D01*
G01*
X67489Y14783D02*
G03*
X67050Y13975I2046J-1636D01*
G01*
X67489Y14783D02*
G03*
X67776Y15601I-1023J818D01*
G01*
X74345Y32845D02*
G03*
X74933Y34264I-1420J1420D01*
G01*
X65804Y53130D02*
G03*
X64318Y56254I-4796J-366D01*
G01*
X64047Y56525D02*
G03*
X64318Y56254I5183J4907D01*
G01*
X64047Y56525D02*
G03*
X61639Y57794I-3069J-2907D01*
G01*
X57709Y59796D02*
G03*
X61639Y57794I5047J5047D01*
G01*
X81508Y66918D02*
G03*
X81977Y68049I-1131J1131D01*
G01*
X55830Y25844D02*
Y25844D01*
X54957Y42511D02*
X55404Y42064D01*
X59782Y17298D02*
Y17298D01*
Y16092D02*
Y17298D01*
X55830Y24888D02*
Y25844D01*
X57177Y21637D02*
X58556Y20258D01*
X60629Y12165D02*
Y13744D01*
X59782Y16092D02*
Y16092D01*
X57630Y35725D02*
Y36689D01*
X54051Y41359D02*
X54375Y41035D01*
X54375Y24888D02*
Y25844D01*
X54632Y27137D02*
X55623Y29530D01*
X49637Y41715D02*
X49760Y41838D01*
X57480Y12165D02*
Y13744D01*
X58327Y16092D02*
Y17298D01*
Y17298D01*
X56176Y35688D02*
Y36688D01*
Y35688D02*
X56247Y32888D01*
X55976Y26580D02*
X56968Y28973D01*
X57630Y35725D02*
X57701Y32925D01*
X47334Y35436D02*
X47385Y35386D01*
X46224Y36546D02*
X47392Y35378D01*
X50334Y16981D02*
Y16981D01*
Y16092D02*
Y16981D01*
Y16092D02*
Y16092D01*
X51181Y12165D02*
Y13744D01*
X46975Y29402D02*
X47389Y29817D01*
X46975Y29402D02*
X47385Y29812D01*
X37651Y37808D02*
X43177D01*
X35816Y38581D02*
X35837Y38560D01*
X46356Y34357D02*
X46356Y34357D01*
X46305Y34407D02*
X46356Y34357D01*
X48879Y16092D02*
Y16981D01*
X48031Y12165D02*
Y13742D01*
X37651Y36353D02*
X42708D01*
X46356Y30841D02*
X46357Y30842D01*
X44278Y28763D02*
X46356Y30841D01*
X46360Y34352D02*
X46362Y34351D01*
X45527Y35186D02*
X46360Y34352D01*
X44278Y23012D02*
X47868Y19423D01*
X35816Y35581D02*
X35837Y35602D01*
X46975Y29402D02*
Y29402D01*
X45307Y27734D02*
X46975Y29402D01*
X48879Y16092D02*
Y16092D01*
X45307Y24041D02*
X48896Y20452D01*
X58327Y16092D02*
Y16092D01*
X56148Y20608D02*
X57527Y19229D01*
X52325Y56500D02*
X58036Y50789D01*
X69231Y15693D02*
Y23762D01*
Y15693D02*
Y15693D01*
X70078Y13162D02*
Y13162D01*
Y12165D02*
Y13162D01*
X41889Y60823D02*
X41889D01*
X34220D02*
X41889D01*
X51296Y55471D02*
X57007Y49760D01*
X51296Y55471D02*
Y55471D01*
X67776Y15601D02*
Y23762D01*
X66929Y13230D02*
Y13230D01*
Y12165D02*
Y13230D01*
X41889Y59368D02*
X41889D01*
X34220D02*
X41889D01*
X41255Y-14705D02*
X41335Y-14625D01*
X41254Y-14706D02*
X41255Y-14705D01*
X41218Y-17571D02*
X41658Y-18011D01*
X40885Y-16767D02*
Y-15598D01*
X78040Y68049D02*
Y73802D01*
X39060Y-14705D02*
X39061Y-14706D01*
X38980Y-14625D02*
X39060Y-14705D01*
X38582Y-13665D02*
Y-12166D01*
X39430Y-16769D02*
Y-15598D01*
X38658Y-18011D02*
X39097Y-17572D01*
X69702Y70243D02*
X70209Y73759D01*
X72745Y62496D02*
X72745D01*
X72142D02*
X72745D01*
X68925Y66044D02*
Y68356D01*
Y66044D02*
Y66044D01*
X77540Y53039D02*
Y56500D01*
X50704Y-14705D02*
X50784Y-14625D01*
X50703Y-14706D02*
X50704Y-14705D01*
X50667Y-17571D02*
X51107Y-18011D01*
X50334Y-16767D02*
Y-15598D01*
X67470Y66044D02*
Y68867D01*
X72745Y61041D02*
X72745D01*
X72142D02*
X72745D01*
X72142D02*
X72142D01*
X66695Y70240D02*
Y70243D01*
X76085Y53039D02*
Y56500D01*
X48031Y-13665D02*
Y-12166D01*
X48879Y-16769D02*
Y-15598D01*
X48509Y-14705D02*
X48510Y-14706D01*
X48429Y-14625D02*
X48509Y-14705D01*
X48107Y-18011D02*
X48546Y-17572D01*
X71991Y46367D02*
X72453Y45906D01*
X76388Y34264D02*
Y36404D01*
X57947Y70243D02*
X58355Y73802D01*
X57947Y70243D02*
Y70243D01*
X57793Y61770D02*
X58738Y60825D01*
X57114Y63410D02*
Y68356D01*
X60115Y-17571D02*
X60555Y-18011D01*
X60152Y-14705D02*
X60232Y-14625D01*
X60151Y-14706D02*
X60152Y-14705D01*
X59782Y-16767D02*
Y-15598D01*
X70962Y45338D02*
X71424Y44877D01*
X74933Y34264D02*
Y36404D01*
X68043Y48258D02*
Y48258D01*
Y48258D02*
X70962Y45338D01*
X56765Y60741D02*
X57709Y59796D01*
X55659Y63410D02*
Y68909D01*
X57480Y-13667D02*
Y-12166D01*
Y-13667D02*
Y-13667D01*
X54894Y70241D02*
Y70243D01*
X58327Y-16769D02*
Y-15598D01*
X57957Y-14705D02*
X57958Y-14706D01*
X57877Y-14625D02*
X57957Y-14705D01*
X57555Y-18011D02*
X57994Y-17572D01*
X54418Y73802D02*
X54894Y70243D01*
X55242Y69772D02*
X55338Y69676D01*
X57658Y69927D02*
X57764Y70034D01*
X57114Y68614D02*
X57114Y68356D01*
X66229Y73802D02*
X66695Y70243D01*
X67016Y69819D02*
X67118Y69718D01*
X69535Y70073D02*
X69642Y70180D01*
X68925Y68599D02*
X68925Y68356D01*
X75313Y51796D02*
X75753Y52236D01*
X76976Y32845D02*
X77161Y32660D01*
X71991Y46367D02*
Y46367D01*
X69072Y49286D02*
X71991Y46367D01*
X77873Y52236D02*
X78313Y51796D01*
X32977Y58596D02*
X33417Y59035D01*
X74161Y32660D02*
X74345Y32845D01*
X70962Y45338D02*
Y45338D01*
X41732Y-13667D02*
Y-12166D01*
X51181Y-13667D02*
Y-12166D01*
X32977Y61595D02*
X33417Y61156D01*
X81977Y68049D02*
Y73802D01*
X60629Y-13667D02*
Y-12166D01*
D22*
X38583Y-13667D02*
D03*
X48032D02*
D03*
D23*
X76378Y12165D02*
Y17405D01*
X86277Y27304D01*
X94177D01*
X107077Y21668D02*
Y31668D01*
X76378Y-16531D02*
Y-12166D01*
X76377Y-16532D02*
X76378Y-16531D01*
X110177Y54576D02*
X112270Y56669D01*
Y64335D01*
X79527Y-16532D02*
Y-12166D01*
X92177Y41168D02*
X95677Y37668D01*
X92177Y41168D02*
Y70955D01*
X89628Y73504D02*
X92177Y70955D01*
X89628Y73504D02*
Y81204D01*
X84691Y86141D02*
X89628Y81204D01*
X49165Y86141D02*
X84691D01*
X42607Y79583D02*
X49165Y86141D01*
X42607Y73802D02*
Y79583D01*
X85826Y16617D02*
X89677Y20468D01*
X85826Y12165D02*
Y16617D01*
X87177Y24468D02*
X89677D01*
X79527Y16818D02*
X87177Y24468D01*
X79527Y12165D02*
Y16818D01*
X117377Y21668D02*
Y30668D01*
X104577Y44668D02*
Y49668D01*
X38670Y73802D02*
Y79246D01*
X47628Y88204D01*
X84728D01*
X91128Y81804D01*
Y75104D02*
Y81804D01*
Y75104D02*
X93677Y72555D01*
Y43668D02*
Y72555D01*
Y43668D02*
X99677Y37668D01*
X105177D01*
X107077Y39568D01*
Y44668D01*
X110105Y60804D02*
Y64335D01*
X112277Y37668D02*
Y44668D01*
X114177Y57168D02*
X116405Y59396D01*
Y64335D01*
X116404D02*
X116405D01*
X101677Y51396D02*
X101977Y51095D01*
Y44668D02*
Y51095D01*
X104577Y21668D02*
Y27168D01*
X105177Y34168D02*
X109677Y38668D01*
Y44668D01*
X82677Y12165D02*
Y16968D01*
X86177Y20468D01*
X101677Y51395D02*
Y51396D01*
X111328Y14304D02*
X114057D01*
X109677Y15955D02*
X111328Y14304D01*
X109677Y15955D02*
Y21668D01*
X114777Y38068D02*
X115177Y37668D01*
X114777Y38068D02*
Y44668D01*
X35433Y-12166D02*
Y-12165D01*
X104577Y44668D02*
X104677Y44568D01*
Y40668D02*
Y44568D01*
X103677Y39668D02*
X104677Y40668D01*
X100177Y39668D02*
X103677D01*
X95177Y44668D02*
X100177Y39668D01*
X95177Y44668D02*
Y72949D01*
X98910Y76682D01*
X103561D01*
X105528Y78649D01*
Y90689D01*
X103355Y92862D02*
X105528Y90689D01*
X87152Y92862D02*
X103355D01*
X84193Y89904D02*
X87152Y92862D01*
X45928Y89904D02*
X84193D01*
X34733Y78709D02*
X45928Y89904D01*
X34733Y73802D02*
Y78709D01*
X114239Y60804D02*
Y61416D01*
X114238Y61417D02*
X114239Y61416D01*
X114238Y61417D02*
Y64335D01*
X94177Y31168D02*
Y36168D01*
X90677Y39668D02*
X94177Y36168D01*
X90677Y39668D02*
Y69455D01*
X88228Y71904D02*
X90677Y69455D01*
X88228Y71904D02*
Y80204D01*
X84428Y84004D02*
X88228Y80204D01*
X50828Y84004D02*
X84428D01*
X46544Y79720D02*
X50828Y84004D01*
X46544Y73802D02*
Y79720D01*
X95677Y37668D02*
X96177Y37168D01*
Y23968D02*
Y37168D01*
X88976Y16767D02*
X96177Y23968D01*
X88976Y12165D02*
Y16767D01*
X107077Y44668D02*
Y49668D01*
D24*
X50481Y79503D02*
X50482Y79504D01*
X50481Y73802D02*
Y79503D01*
X85914Y73802D02*
Y79504D01*
X62292Y79503D02*
X62293Y79504D01*
X62292Y73802D02*
Y79503D01*
X74103Y67742D02*
Y73802D01*
D25*
X95433Y-8032D02*
D03*
X22677D02*
D03*
D26*
X118110Y0D02*
D03*
X0D02*
D03*
D27*
X46837Y40588D02*
D03*
X49637Y44715D02*
D03*
Y41715D02*
D03*
X46837Y46088D02*
D03*
X35816Y35581D02*
D03*
Y38581D02*
D03*
X57357Y44602D02*
D03*
X51818Y36100D02*
D03*
X-4823Y-18032D02*
D03*
Y-13032D02*
D03*
Y10968D02*
D03*
Y18968D02*
D03*
Y26968D02*
D03*
Y34968D02*
D03*
Y42968D02*
D03*
Y50968D02*
D03*
Y58968D02*
D03*
Y66968D02*
D03*
Y74968D02*
D03*
Y82968D02*
D03*
Y90968D02*
D03*
X-4813Y-6313D02*
D03*
X-1945Y-21100D02*
D03*
Y98300D02*
D03*
X6055Y-21100D02*
D03*
Y-13100D02*
D03*
Y-5100D02*
D03*
Y10900D02*
D03*
Y18900D02*
D03*
Y26900D02*
D03*
Y34900D02*
D03*
Y42900D02*
D03*
Y50900D02*
D03*
Y58900D02*
D03*
Y66900D02*
D03*
Y74900D02*
D03*
Y82900D02*
D03*
Y90900D02*
D03*
Y98300D02*
D03*
X14055Y-21100D02*
D03*
Y98300D02*
D03*
X21055Y2900D02*
D03*
Y10900D02*
D03*
Y18900D02*
D03*
Y26900D02*
D03*
Y34900D02*
D03*
Y42900D02*
D03*
Y50900D02*
D03*
X22055Y-21100D02*
D03*
Y98300D02*
D03*
X28177Y84968D02*
D03*
Y87468D02*
D03*
X29055Y-5100D02*
D03*
Y2900D02*
D03*
Y18900D02*
D03*
Y26900D02*
D03*
Y34900D02*
D03*
Y42900D02*
D03*
Y50900D02*
D03*
X30055Y-21100D02*
D03*
Y98300D02*
D03*
X30177Y57468D02*
D03*
Y62968D02*
D03*
X30797Y67804D02*
D03*
X32977Y58596D02*
D03*
Y61595D02*
D03*
X33177Y66468D02*
D03*
X33016Y34453D02*
D03*
Y39953D02*
D03*
X34829Y54568D02*
D03*
X35432Y-7432D02*
D03*
X35433Y-17400D02*
D03*
X35434Y16900D02*
D03*
X35829Y-2932D02*
D03*
X36829Y3068D02*
D03*
X38055Y-21100D02*
D03*
X38658Y-18011D02*
D03*
X39294Y27052D02*
D03*
X39329Y7068D02*
D03*
X40829Y54068D02*
D03*
X41177Y21468D02*
D03*
X41658Y-18011D02*
D03*
X42608Y68024D02*
D03*
X43177Y32968D02*
D03*
X43609Y18605D02*
D03*
X44880Y-7432D02*
D03*
X44882Y-16900D02*
D03*
X45329Y-2932D02*
D03*
X46055Y-21100D02*
D03*
X47829Y3068D02*
D03*
X48107Y-18011D02*
D03*
X49913Y51179D02*
D03*
X50329Y7068D02*
D03*
X50482Y79504D02*
D03*
X51107Y-18011D02*
D03*
X51881Y62164D02*
D03*
X54055Y-21100D02*
D03*
X54329Y-7432D02*
D03*
X54331Y-16900D02*
D03*
Y16900D02*
D03*
X54418Y79504D02*
D03*
X55329Y-2932D02*
D03*
X57555Y-18011D02*
D03*
X58329Y2568D02*
D03*
X60555Y-18011D02*
D03*
X61177Y35468D02*
D03*
X61829Y53068D02*
D03*
X62055Y-21100D02*
D03*
X62293Y79504D02*
D03*
X62329Y7068D02*
D03*
X63778Y-7432D02*
D03*
X63779Y-16900D02*
D03*
Y16900D02*
D03*
X64177Y22968D02*
D03*
X64453Y63116D02*
D03*
X66229Y79504D02*
D03*
X66898Y44862D02*
D03*
X70055Y-21100D02*
D03*
X70177Y-3532D02*
D03*
X70829Y2568D02*
D03*
X72829Y7068D02*
D03*
X72888Y29707D02*
D03*
X73228Y-16900D02*
D03*
Y16900D02*
D03*
X74040Y48843D02*
D03*
X74103Y67742D02*
D03*
X74161Y32660D02*
D03*
X75313Y51796D02*
D03*
X75677Y20968D02*
D03*
X76377Y-16532D02*
D03*
X77161Y32660D02*
D03*
X77236Y63965D02*
D03*
X78055Y-21100D02*
D03*
X78177Y-3532D02*
D03*
Y5968D02*
D03*
X78313Y51796D02*
D03*
X78388Y29707D02*
D03*
X78509Y66918D02*
D03*
X79527Y-16532D02*
D03*
X79540Y48843D02*
D03*
X79677Y25468D02*
D03*
X80177Y36468D02*
D03*
Y44468D02*
D03*
X81508Y66918D02*
D03*
X82736Y63965D02*
D03*
X85914Y79504D02*
D03*
X86055Y-21100D02*
D03*
X86177Y-3532D02*
D03*
Y5968D02*
D03*
Y20468D02*
D03*
X88177Y36468D02*
D03*
Y44468D02*
D03*
Y52468D02*
D03*
Y60468D02*
D03*
X89677Y20468D02*
D03*
Y24468D02*
D03*
X90677Y87168D02*
D03*
Y90168D02*
D03*
X94055Y-21100D02*
D03*
Y-13100D02*
D03*
X94177Y-3532D02*
D03*
Y5968D02*
D03*
Y13968D02*
D03*
Y27304D02*
D03*
Y31168D02*
D03*
X95677Y37668D02*
D03*
X97677Y52468D02*
D03*
Y60468D02*
D03*
X99328Y67804D02*
D03*
Y70804D02*
D03*
X101977Y27304D02*
D03*
X102055Y-21100D02*
D03*
Y-13100D02*
D03*
Y-5100D02*
D03*
Y2900D02*
D03*
X102177Y13968D02*
D03*
X104577Y27168D02*
D03*
Y49668D02*
D03*
X105177Y34168D02*
D03*
X105960Y62668D02*
D03*
X107077Y31668D02*
D03*
Y49668D02*
D03*
X109328Y94804D02*
D03*
Y97304D02*
D03*
X110055Y-21100D02*
D03*
Y-13100D02*
D03*
Y-5100D02*
D03*
Y2900D02*
D03*
Y10900D02*
D03*
X110105Y60804D02*
D03*
X110177Y54576D02*
D03*
X111677Y26168D02*
D03*
X112277Y37668D02*
D03*
X114177Y57168D02*
D03*
X114239Y60804D02*
D03*
X114777Y26168D02*
D03*
X114984Y54475D02*
D03*
X115177Y37668D02*
D03*
X117377Y30668D02*
D03*
X118055Y-21100D02*
D03*
Y-13100D02*
D03*
D28*
X117377Y44668D02*
D03*
X114777D02*
D03*
X112277D02*
D03*
X109677D02*
D03*
X107077D02*
D03*
X104577D02*
D03*
X101977D02*
D03*
Y21668D02*
D03*
X104577D02*
D03*
X107077D02*
D03*
X109677D02*
D03*
X112277D02*
D03*
X114777D02*
D03*
X117377D02*
D03*
D29*
X92303Y0D02*
D03*
X25807D02*
D03*
D30*
X71555D02*
D03*
X46555D02*
D03*
D31*
X88976Y12165D02*
D03*
Y-12165D02*
D03*
X85827Y12165D02*
D03*
Y-12165D02*
D03*
X82677Y12165D02*
D03*
Y-12165D02*
D03*
X79528Y12165D02*
D03*
Y-12165D02*
D03*
X76378Y12165D02*
D03*
Y-12165D02*
D03*
X73228Y12165D02*
D03*
Y-12165D02*
D03*
X70079Y12165D02*
D03*
Y-12165D02*
D03*
X66929Y12165D02*
D03*
Y-12165D02*
D03*
X63780Y12165D02*
D03*
Y-12165D02*
D03*
X60630Y12165D02*
D03*
Y-12165D02*
D03*
X57480Y12165D02*
D03*
Y-12165D02*
D03*
X54331Y12165D02*
D03*
Y-12165D02*
D03*
X51181Y12165D02*
D03*
Y-12165D02*
D03*
X48031Y12165D02*
D03*
Y-12165D02*
D03*
X44882Y12165D02*
D03*
Y-12165D02*
D03*
X41732Y12165D02*
D03*
Y-12165D02*
D03*
X38583Y12165D02*
D03*
Y-12165D02*
D03*
X35433Y12165D02*
D03*
Y-12165D02*
D03*
X32283Y12165D02*
D03*
Y-12165D02*
D03*
X29134Y12165D02*
D03*
Y-12165D02*
D03*
D32*
X110105Y68665D02*
D03*
X116404D02*
D03*
X110105Y64335D02*
D03*
X116404D02*
D03*
D33*
X112270Y68665D02*
D03*
X114239D02*
D03*
Y64335D02*
D03*
X112270D02*
D03*
D34*
X101677Y51396D02*
D03*
Y54939D02*
D03*
D35*
X114983Y51668D02*
D03*
X118368D02*
D03*
D36*
X105960Y65279D02*
D03*
Y68664D02*
D03*
D37*
X114057Y14304D02*
D03*
X117600D02*
D03*
D38*
X105960Y62668D02*
Y65279D01*
X114777Y21668D02*
Y26168D01*
X121176Y51668D02*
X121177Y51669D01*
X117377Y44668D02*
Y48868D01*
X118368Y49859D01*
Y51668D01*
X114983D02*
Y54474D01*
X114984Y54475D01*
X118368Y51668D02*
X121176D01*
X112277Y21668D02*
Y25568D01*
X111677Y26168D02*
X112277Y25568D01*
D39*
X112270Y68665D02*
Y71999D01*
X114238D02*
X114239Y72000D01*
X112270Y71999D02*
X112271Y72000D01*
X114238Y68665D02*
Y71999D01*
D40*
X101677Y54938D02*
Y70668D01*
X63779Y-16900D02*
Y-12166D01*
X105960Y68664D02*
Y72168D01*
X43609Y18605D02*
X44882Y17332D01*
Y12165D02*
Y17332D01*
X73228Y12165D02*
Y16900D01*
Y-16900D02*
Y-12166D01*
X54331Y-16900D02*
Y-12166D01*
X54330D02*
X54331D01*
X44882Y-16900D02*
Y-12166D01*
X44881D02*
X44882D01*
X54331Y12165D02*
Y16900D01*
X54330Y12165D02*
X54331D01*
X63779D02*
Y16900D01*
X44881Y12165D02*
X44882D01*
X35433Y-17400D02*
Y-12166D01*
X35434Y12165D02*
Y16900D01*
X35433Y12165D02*
X35434D01*
X116405Y68665D02*
Y71850D01*
X116404Y68665D02*
X116405D01*
X117600Y14304D02*
X121328D01*
X105960Y68664D02*
X110104D01*
X110105Y68665D01*
D41*
X101977Y21668D02*
Y27304D01*
M02*
