G04*
G04 #@! TF.GenerationSoftware,Altium Limited,Altium Designer,22.5.1 (42)*
G04*
G04 Layer_Physical_Order=2*
G04 Layer_Color=6740479*
%FSLAX25Y25*%
%MOIN*%
G70*
G04*
G04 #@! TF.SameCoordinates,A2539C74-7FEE-43BD-A04A-5197B4AA8E51*
G04*
G04*
G04 #@! TF.FilePolarity,Positive*
G04*
G01*
G75*
%ADD27C,0.01600*%
G36*
X121789Y99004D02*
X122514Y98704D01*
X123137Y98226D01*
X123615Y97604D01*
X123915Y96879D01*
X124012Y96144D01*
X124003Y96100D01*
Y3593D01*
X123518Y3471D01*
X123462Y3576D01*
X122661Y4551D01*
X121686Y5352D01*
X120573Y5946D01*
X119366Y6313D01*
X118110Y6436D01*
X116855Y6313D01*
X115647Y5946D01*
X114534Y5352D01*
X113559Y4551D01*
X112759Y3576D01*
X112164Y2463D01*
X111797Y1256D01*
X111674Y0D01*
X111797Y-1256D01*
X112164Y-2463D01*
X112759Y-3576D01*
X113559Y-4551D01*
X114534Y-5352D01*
X115647Y-5946D01*
X116855Y-6313D01*
X118110Y-6436D01*
X119366Y-6313D01*
X120573Y-5946D01*
X121686Y-5352D01*
X122661Y-4551D01*
X123462Y-3576D01*
X123518Y-3471D01*
X124003Y-3593D01*
Y-18900D01*
X124012Y-18943D01*
X123915Y-19678D01*
X123615Y-20403D01*
X123137Y-21025D01*
X122514Y-21503D01*
X121789Y-21803D01*
X121054Y-21900D01*
X121011Y-21891D01*
X-2901D01*
X-2944Y-21900D01*
X-3679Y-21803D01*
X-4404Y-21503D01*
X-5027Y-21025D01*
X-5504Y-20403D01*
X-5805Y-19678D01*
X-5901Y-18943D01*
X-5893Y-18900D01*
Y-3593D01*
X-5408Y-3471D01*
X-5352Y-3576D01*
X-4551Y-4551D01*
X-3576Y-5352D01*
X-2463Y-5946D01*
X-1256Y-6313D01*
X0Y-6436D01*
X1256Y-6313D01*
X2463Y-5946D01*
X3576Y-5352D01*
X4551Y-4551D01*
X5352Y-3576D01*
X5946Y-2463D01*
X6313Y-1256D01*
X6436Y0D01*
X6313Y1256D01*
X5946Y2463D01*
X5352Y3576D01*
X4551Y4551D01*
X3576Y5352D01*
X2463Y5946D01*
X1256Y6313D01*
X0Y6436D01*
X-1256Y6313D01*
X-2463Y5946D01*
X-3576Y5352D01*
X-4551Y4551D01*
X-5352Y3576D01*
X-5408Y3471D01*
X-5893Y3593D01*
Y96100D01*
X-5901Y96144D01*
X-5805Y96879D01*
X-5504Y97604D01*
X-5027Y98226D01*
X-4404Y98704D01*
X-3679Y99004D01*
X-2944Y99101D01*
X-2901Y99092D01*
X109092D01*
X109142Y98592D01*
X109038Y98572D01*
X108821Y98529D01*
X108391Y98241D01*
X108103Y97811D01*
X108002Y97304D01*
X108103Y96797D01*
X108391Y96367D01*
X108409Y96355D01*
Y95753D01*
X108391Y95741D01*
X108103Y95311D01*
X108002Y94804D01*
X108103Y94297D01*
X108391Y93867D01*
X108821Y93579D01*
X109328Y93479D01*
X109835Y93579D01*
X110265Y93867D01*
X110553Y94297D01*
X110653Y94804D01*
X110553Y95311D01*
X110265Y95741D01*
X110247Y95753D01*
Y96355D01*
X110265Y96367D01*
X110553Y96797D01*
X110653Y97304D01*
X110553Y97811D01*
X110265Y98241D01*
X109835Y98529D01*
X109618Y98572D01*
X109514Y98592D01*
X109564Y99092D01*
X121011D01*
X121054Y99101D01*
X121789Y99004D01*
D02*
G37*
G36*
X41267Y-63102D02*
Y-65784D01*
X39972D01*
Y-63092D01*
X37631Y-59383D01*
X39139D01*
X40647Y-61918D01*
X42118Y-59383D01*
X43607D01*
X41267Y-63102D01*
D02*
G37*
G36*
X76833Y-65784D02*
X75436D01*
X74178Y-61002D01*
X72902Y-65784D01*
X71496D01*
X69979Y-59383D01*
X71301D01*
X72263Y-63786D01*
X73429Y-59383D01*
X74983D01*
X76093Y-63860D01*
X77073Y-59383D01*
X78378D01*
X76833Y-65784D01*
D02*
G37*
G36*
X82022Y-59392D02*
X82124D01*
X82226Y-59402D01*
X82346D01*
X82586Y-59429D01*
X82836Y-59457D01*
X83067Y-59503D01*
X83169Y-59531D01*
X83262Y-59559D01*
X83271D01*
X83280Y-59568D01*
X83336Y-59596D01*
X83419Y-59642D01*
X83530Y-59698D01*
X83650Y-59790D01*
X83770Y-59892D01*
X83891Y-60021D01*
X84002Y-60179D01*
Y-60188D01*
X84011Y-60197D01*
X84029Y-60225D01*
X84048Y-60252D01*
X84094Y-60345D01*
X84150Y-60465D01*
X84196Y-60613D01*
X84242Y-60780D01*
X84279Y-60974D01*
X84288Y-61177D01*
Y-61187D01*
Y-61205D01*
Y-61251D01*
X84279Y-61298D01*
Y-61362D01*
X84270Y-61427D01*
X84233Y-61594D01*
X84187Y-61788D01*
X84113Y-61982D01*
X84002Y-62186D01*
X83937Y-62278D01*
X83863Y-62371D01*
X83854Y-62380D01*
X83844Y-62389D01*
X83817Y-62417D01*
X83780Y-62445D01*
X83743Y-62482D01*
X83687Y-62528D01*
X83622Y-62574D01*
X83548Y-62621D01*
X83465Y-62676D01*
X83363Y-62722D01*
X83262Y-62769D01*
X83151Y-62815D01*
X83021Y-62861D01*
X82892Y-62898D01*
X82753Y-62935D01*
X82596Y-62963D01*
X82605D01*
X82614Y-62972D01*
X82670Y-63009D01*
X82744Y-63055D01*
X82836Y-63120D01*
X82947Y-63203D01*
X83058Y-63287D01*
X83178Y-63388D01*
X83280Y-63499D01*
X83289Y-63508D01*
X83336Y-63555D01*
X83391Y-63629D01*
X83474Y-63740D01*
X83585Y-63879D01*
X83641Y-63971D01*
X83706Y-64064D01*
X83780Y-64165D01*
X83854Y-64276D01*
X83937Y-64406D01*
X84020Y-64535D01*
X84806Y-65784D01*
X83252D01*
X82327Y-64397D01*
X82318Y-64387D01*
X82309Y-64359D01*
X82281Y-64323D01*
X82244Y-64276D01*
X82207Y-64221D01*
X82161Y-64147D01*
X82059Y-63999D01*
X81939Y-63832D01*
X81828Y-63684D01*
X81726Y-63546D01*
X81680Y-63499D01*
X81643Y-63453D01*
X81634Y-63444D01*
X81615Y-63425D01*
X81578Y-63388D01*
X81532Y-63342D01*
X81467Y-63305D01*
X81402Y-63259D01*
X81328Y-63222D01*
X81254Y-63185D01*
X81245D01*
X81217Y-63175D01*
X81171Y-63157D01*
X81097Y-63148D01*
X81005Y-63129D01*
X80894Y-63120D01*
X80764Y-63111D01*
X80348D01*
Y-65784D01*
X79053D01*
Y-59383D01*
X81939D01*
X82022Y-59392D01*
D02*
G37*
G36*
X67102D02*
X67342D01*
X67601Y-59411D01*
X67860Y-59429D01*
X67971Y-59439D01*
X68082Y-59448D01*
X68175Y-59466D01*
X68249Y-59485D01*
X68258D01*
X68277Y-59494D01*
X68304Y-59503D01*
X68341Y-59513D01*
X68443Y-59559D01*
X68573Y-59614D01*
X68711Y-59698D01*
X68869Y-59808D01*
X69017Y-59947D01*
X69165Y-60114D01*
Y-60123D01*
X69183Y-60132D01*
X69202Y-60160D01*
X69220Y-60197D01*
X69257Y-60252D01*
X69285Y-60308D01*
X69322Y-60373D01*
X69359Y-60447D01*
X69424Y-60632D01*
X69488Y-60835D01*
X69525Y-61085D01*
X69544Y-61353D01*
Y-61362D01*
Y-61381D01*
Y-61409D01*
Y-61455D01*
X69535Y-61501D01*
Y-61566D01*
X69516Y-61695D01*
X69488Y-61853D01*
X69451Y-62028D01*
X69396Y-62195D01*
X69322Y-62352D01*
X69313Y-62371D01*
X69285Y-62417D01*
X69239Y-62491D01*
X69174Y-62584D01*
X69100Y-62676D01*
X68998Y-62787D01*
X68896Y-62889D01*
X68776Y-62981D01*
X68758Y-62990D01*
X68721Y-63018D01*
X68656Y-63055D01*
X68573Y-63102D01*
X68471Y-63157D01*
X68360Y-63203D01*
X68240Y-63249D01*
X68110Y-63287D01*
X68092D01*
X68064Y-63296D01*
X68027D01*
X67981Y-63305D01*
X67916Y-63314D01*
X67851Y-63323D01*
X67768D01*
X67685Y-63333D01*
X67583Y-63342D01*
X67472Y-63351D01*
X67352Y-63361D01*
X67222D01*
X67083Y-63370D01*
X65936D01*
Y-65784D01*
X64641D01*
Y-59383D01*
X67000D01*
X67102Y-59392D01*
D02*
G37*
G36*
X58675Y-59355D02*
X58758Y-59364D01*
X58851Y-59374D01*
X58953Y-59392D01*
X59064Y-59411D01*
X59304Y-59475D01*
X59545Y-59568D01*
X59674Y-59623D01*
X59785Y-59688D01*
X59905Y-59772D01*
X60007Y-59864D01*
X60016Y-59873D01*
X60035Y-59882D01*
X60053Y-59920D01*
X60090Y-59957D01*
X60137Y-60003D01*
X60183Y-60067D01*
X60229Y-60132D01*
X60285Y-60216D01*
X60377Y-60400D01*
X60470Y-60613D01*
X60507Y-60733D01*
X60525Y-60863D01*
X60544Y-61002D01*
X60553Y-61141D01*
Y-61159D01*
Y-61215D01*
X60544Y-61298D01*
X60534Y-61400D01*
X60516Y-61529D01*
X60488Y-61668D01*
X60451Y-61816D01*
X60396Y-61964D01*
X60386Y-61982D01*
X60368Y-62028D01*
X60331Y-62112D01*
X60275Y-62213D01*
X60211Y-62334D01*
X60127Y-62472D01*
X60026Y-62621D01*
X59905Y-62778D01*
X59896Y-62787D01*
X59859Y-62833D01*
X59804Y-62898D01*
X59720Y-62990D01*
X59609Y-63102D01*
X59471Y-63249D01*
X59304Y-63407D01*
X59101Y-63601D01*
X59091Y-63610D01*
X59073Y-63620D01*
X59045Y-63647D01*
X59008Y-63684D01*
X58906Y-63777D01*
X58786Y-63888D01*
X58666Y-64008D01*
X58546Y-64128D01*
X58435Y-64230D01*
X58398Y-64276D01*
X58361Y-64313D01*
X58351Y-64323D01*
X58333Y-64341D01*
X58305Y-64378D01*
X58268Y-64424D01*
X58185Y-64526D01*
X58111Y-64646D01*
X60553D01*
Y-65784D01*
X56252D01*
Y-65775D01*
Y-65756D01*
X56261Y-65719D01*
X56270Y-65673D01*
X56279Y-65618D01*
X56289Y-65553D01*
X56326Y-65386D01*
X56381Y-65201D01*
X56455Y-64998D01*
X56548Y-64776D01*
X56668Y-64563D01*
Y-64554D01*
X56686Y-64535D01*
X56705Y-64498D01*
X56742Y-64461D01*
X56779Y-64397D01*
X56834Y-64332D01*
X56899Y-64249D01*
X56973Y-64156D01*
X57056Y-64045D01*
X57158Y-63934D01*
X57269Y-63805D01*
X57399Y-63666D01*
X57537Y-63527D01*
X57695Y-63370D01*
X57861Y-63203D01*
X58046Y-63028D01*
X58055Y-63018D01*
X58083Y-62990D01*
X58120Y-62954D01*
X58176Y-62898D01*
X58250Y-62843D01*
X58324Y-62769D01*
X58490Y-62602D01*
X58657Y-62426D01*
X58823Y-62251D01*
X58897Y-62177D01*
X58971Y-62093D01*
X59027Y-62028D01*
X59064Y-61973D01*
X59073Y-61954D01*
X59101Y-61908D01*
X59147Y-61834D01*
X59193Y-61733D01*
X59239Y-61621D01*
X59286Y-61492D01*
X59313Y-61362D01*
X59323Y-61224D01*
Y-61215D01*
Y-61205D01*
Y-61159D01*
X59313Y-61076D01*
X59295Y-60983D01*
X59267Y-60882D01*
X59230Y-60780D01*
X59175Y-60678D01*
X59101Y-60585D01*
X59091Y-60576D01*
X59064Y-60549D01*
X59008Y-60511D01*
X58943Y-60474D01*
X58851Y-60438D01*
X58749Y-60400D01*
X58629Y-60373D01*
X58490Y-60364D01*
X58425D01*
X58351Y-60373D01*
X58268Y-60391D01*
X58166Y-60419D01*
X58065Y-60465D01*
X57963Y-60521D01*
X57870Y-60595D01*
X57861Y-60604D01*
X57833Y-60641D01*
X57796Y-60697D01*
X57759Y-60780D01*
X57713Y-60882D01*
X57676Y-61020D01*
X57639Y-61177D01*
X57621Y-61362D01*
X56400Y-61242D01*
Y-61233D01*
X56409Y-61196D01*
Y-61150D01*
X56427Y-61076D01*
X56437Y-60992D01*
X56464Y-60900D01*
X56492Y-60798D01*
X56520Y-60678D01*
X56612Y-60447D01*
X56723Y-60206D01*
X56797Y-60086D01*
X56881Y-59975D01*
X56973Y-59882D01*
X57075Y-59790D01*
X57084Y-59781D01*
X57103Y-59772D01*
X57130Y-59753D01*
X57177Y-59716D01*
X57232Y-59688D01*
X57306Y-59651D01*
X57380Y-59605D01*
X57473Y-59568D01*
X57574Y-59522D01*
X57685Y-59485D01*
X57926Y-59411D01*
X58213Y-59364D01*
X58361Y-59355D01*
X58518Y-59346D01*
X58610D01*
X58675Y-59355D01*
D02*
G37*
G36*
X53199Y-59392D02*
X53301D01*
X53403Y-59402D01*
X53523D01*
X53763Y-59429D01*
X54013Y-59457D01*
X54244Y-59503D01*
X54346Y-59531D01*
X54439Y-59559D01*
X54448D01*
X54457Y-59568D01*
X54513Y-59596D01*
X54596Y-59642D01*
X54707Y-59698D01*
X54827Y-59790D01*
X54947Y-59892D01*
X55068Y-60021D01*
X55179Y-60179D01*
Y-60188D01*
X55188Y-60197D01*
X55206Y-60225D01*
X55225Y-60252D01*
X55271Y-60345D01*
X55327Y-60465D01*
X55373Y-60613D01*
X55419Y-60780D01*
X55456Y-60974D01*
X55465Y-61177D01*
Y-61187D01*
Y-61205D01*
Y-61251D01*
X55456Y-61298D01*
Y-61362D01*
X55447Y-61427D01*
X55410Y-61594D01*
X55364Y-61788D01*
X55290Y-61982D01*
X55179Y-62186D01*
X55114Y-62278D01*
X55040Y-62371D01*
X55031Y-62380D01*
X55021Y-62389D01*
X54994Y-62417D01*
X54957Y-62445D01*
X54920Y-62482D01*
X54864Y-62528D01*
X54799Y-62574D01*
X54725Y-62621D01*
X54642Y-62676D01*
X54540Y-62722D01*
X54439Y-62769D01*
X54328Y-62815D01*
X54198Y-62861D01*
X54069Y-62898D01*
X53930Y-62935D01*
X53773Y-62963D01*
X53782D01*
X53791Y-62972D01*
X53847Y-63009D01*
X53921Y-63055D01*
X54013Y-63120D01*
X54124Y-63203D01*
X54235Y-63287D01*
X54355Y-63388D01*
X54457Y-63499D01*
X54466Y-63508D01*
X54513Y-63555D01*
X54568Y-63629D01*
X54651Y-63740D01*
X54762Y-63879D01*
X54818Y-63971D01*
X54883Y-64064D01*
X54957Y-64165D01*
X55031Y-64276D01*
X55114Y-64406D01*
X55197Y-64535D01*
X55983Y-65784D01*
X54429Y-65784D01*
X53504Y-64397D01*
X53495Y-64387D01*
X53486Y-64359D01*
X53458Y-64323D01*
X53421Y-64276D01*
X53384Y-64221D01*
X53338Y-64147D01*
X53236Y-63999D01*
X53116Y-63832D01*
X53005Y-63684D01*
X52903Y-63546D01*
X52857Y-63499D01*
X52820Y-63453D01*
X52811Y-63444D01*
X52792Y-63425D01*
X52755Y-63388D01*
X52709Y-63342D01*
X52644Y-63305D01*
X52579Y-63259D01*
X52505Y-63222D01*
X52431Y-63185D01*
X52422D01*
X52394Y-63175D01*
X52348Y-63157D01*
X52274Y-63148D01*
X52182Y-63129D01*
X52071Y-63120D01*
X51941Y-63111D01*
X51525D01*
Y-65784D01*
X50230D01*
Y-59383D01*
X53116D01*
X53199Y-59392D01*
D02*
G37*
G36*
X49009Y-60465D02*
X45559D01*
Y-61880D01*
X48768D01*
Y-62963D01*
X45559D01*
Y-64702D01*
X49129D01*
Y-65784D01*
X44264D01*
Y-59383D01*
X49009D01*
Y-60465D01*
D02*
G37*
G36*
X37604Y-65784D02*
X36207D01*
X35652Y-64332D01*
X33080D01*
X32553Y-65784D01*
X31184D01*
X33663Y-59383D01*
X35032D01*
X37604Y-65784D01*
D02*
G37*
G36*
X27697Y-64702D02*
X30916D01*
Y-65784D01*
X26402D01*
Y-59429D01*
X27697D01*
Y-64702D01*
D02*
G37*
G36*
X85990Y-59281D02*
X86009Y-59318D01*
X86046Y-59364D01*
X86092Y-59439D01*
X86148Y-59522D01*
X86212Y-59623D01*
X86277Y-59744D01*
X86351Y-59873D01*
X86434Y-60021D01*
X86518Y-60179D01*
X86601Y-60336D01*
X86684Y-60511D01*
X86851Y-60882D01*
X86999Y-61270D01*
Y-61279D01*
X87017Y-61316D01*
X87036Y-61372D01*
X87054Y-61455D01*
X87082Y-61547D01*
X87119Y-61659D01*
X87147Y-61788D01*
X87184Y-61936D01*
X87221Y-62084D01*
X87248Y-62251D01*
X87285Y-62436D01*
X87313Y-62621D01*
X87350Y-63000D01*
X87369Y-63407D01*
Y-63416D01*
Y-63444D01*
Y-63499D01*
Y-63564D01*
X87359Y-63647D01*
X87350Y-63749D01*
X87341Y-63869D01*
X87332Y-63999D01*
X87322Y-64138D01*
X87295Y-64285D01*
X87276Y-64452D01*
X87248Y-64618D01*
X87174Y-64979D01*
X87082Y-65368D01*
Y-65377D01*
X87063Y-65423D01*
X87045Y-65479D01*
X87017Y-65562D01*
X86980Y-65673D01*
X86934Y-65793D01*
X86888Y-65932D01*
X86823Y-66089D01*
X86749Y-66256D01*
X86675Y-66441D01*
X86582Y-66626D01*
X86490Y-66829D01*
X86379Y-67033D01*
X86268Y-67246D01*
X86148Y-67458D01*
X86009Y-67671D01*
X85158D01*
Y-67662D01*
X85176Y-67634D01*
X85195Y-67597D01*
X85213Y-67541D01*
X85250Y-67477D01*
X85278Y-67403D01*
X85361Y-67227D01*
X85445Y-67033D01*
X85528Y-66829D01*
X85602Y-66635D01*
X85667Y-66469D01*
Y-66459D01*
X85676Y-66450D01*
X85694Y-66395D01*
X85722Y-66311D01*
X85759Y-66200D01*
X85796Y-66062D01*
X85842Y-65895D01*
X85889Y-65719D01*
X85935Y-65525D01*
Y-65516D01*
X85944Y-65497D01*
Y-65469D01*
X85953Y-65433D01*
X85981Y-65331D01*
X86009Y-65192D01*
X86037Y-65035D01*
X86074Y-64859D01*
X86129Y-64498D01*
Y-64489D01*
Y-64480D01*
X86138Y-64452D01*
Y-64415D01*
X86148Y-64313D01*
X86166Y-64193D01*
X86175Y-64036D01*
X86185Y-63869D01*
X86194Y-63684D01*
Y-63499D01*
Y-63490D01*
Y-63453D01*
Y-63398D01*
Y-63323D01*
X86185Y-63231D01*
Y-63120D01*
X86175Y-63000D01*
X86166Y-62861D01*
X86157Y-62713D01*
X86138Y-62556D01*
X86092Y-62223D01*
X86037Y-61880D01*
X85963Y-61529D01*
Y-61520D01*
X85953Y-61483D01*
X85935Y-61436D01*
X85916Y-61362D01*
X85898Y-61270D01*
X85861Y-61168D01*
X85824Y-61039D01*
X85778Y-60900D01*
X85722Y-60743D01*
X85667Y-60567D01*
X85602Y-60382D01*
X85528Y-60188D01*
X85445Y-59975D01*
X85352Y-59753D01*
X85260Y-59513D01*
X85149Y-59272D01*
X85981D01*
X85990Y-59281D01*
D02*
G37*
G36*
X63689Y-59290D02*
X63670Y-59328D01*
X63642Y-59402D01*
X63605Y-59494D01*
X63550Y-59605D01*
X63494Y-59744D01*
X63439Y-59892D01*
X63374Y-60049D01*
X63300Y-60225D01*
X63235Y-60410D01*
X63097Y-60789D01*
X62976Y-61168D01*
X62921Y-61353D01*
X62875Y-61529D01*
Y-61538D01*
X62865Y-61566D01*
X62856Y-61621D01*
X62838Y-61686D01*
X62819Y-61779D01*
X62801Y-61880D01*
X62782Y-61992D01*
X62764Y-62121D01*
X62745Y-62260D01*
X62727Y-62417D01*
X62708Y-62574D01*
X62690Y-62750D01*
X62662Y-63111D01*
X62653Y-63499D01*
Y-63508D01*
Y-63527D01*
Y-63573D01*
Y-63620D01*
Y-63684D01*
X62662Y-63767D01*
Y-63851D01*
X62671Y-63952D01*
X62680Y-64174D01*
X62708Y-64424D01*
X62736Y-64692D01*
X62782Y-64970D01*
Y-64979D01*
X62791Y-65007D01*
Y-65044D01*
X62810Y-65100D01*
X62819Y-65164D01*
X62838Y-65238D01*
X62856Y-65331D01*
X62875Y-65423D01*
X62930Y-65645D01*
X62986Y-65886D01*
X63060Y-66136D01*
X63143Y-66385D01*
Y-66395D01*
X63152Y-66404D01*
X63161Y-66431D01*
X63171Y-66469D01*
X63189Y-66515D01*
X63217Y-66570D01*
X63235Y-66635D01*
X63272Y-66709D01*
X63309Y-66802D01*
X63346Y-66894D01*
X63393Y-66996D01*
X63439Y-67116D01*
X63494Y-67236D01*
X63550Y-67375D01*
X63615Y-67514D01*
X63689Y-67671D01*
X62847D01*
X62838Y-67662D01*
X62819Y-67625D01*
X62782Y-67569D01*
X62736Y-67495D01*
X62680Y-67403D01*
X62616Y-67292D01*
X62542Y-67162D01*
X62468Y-67023D01*
X62384Y-66875D01*
X62301Y-66709D01*
X62218Y-66533D01*
X62125Y-66357D01*
X61968Y-65969D01*
X61820Y-65571D01*
Y-65562D01*
X61802Y-65525D01*
X61792Y-65460D01*
X61765Y-65386D01*
X61737Y-65285D01*
X61709Y-65174D01*
X61681Y-65044D01*
X61654Y-64905D01*
X61617Y-64748D01*
X61589Y-64582D01*
X61533Y-64230D01*
X61496Y-63851D01*
X61478Y-63472D01*
Y-63453D01*
Y-63416D01*
Y-63351D01*
X61487Y-63259D01*
Y-63148D01*
X61496Y-63009D01*
X61515Y-62861D01*
X61533Y-62695D01*
X61552Y-62519D01*
X61580Y-62334D01*
X61654Y-61927D01*
X61765Y-61510D01*
X61829Y-61298D01*
X61903Y-61085D01*
Y-61076D01*
X61922Y-61039D01*
X61940Y-60992D01*
X61968Y-60918D01*
X62005Y-60835D01*
X62051Y-60733D01*
X62107Y-60613D01*
X62162Y-60493D01*
X62227Y-60354D01*
X62301Y-60216D01*
X62458Y-59910D01*
X62653Y-59587D01*
X62856Y-59272D01*
X63698D01*
X63689Y-59290D01*
D02*
G37*
%LPC*%
G36*
X28177Y88793D02*
X27670Y88693D01*
X27240Y88405D01*
X26952Y87975D01*
X26851Y87468D01*
X26952Y86961D01*
X27240Y86531D01*
X27258Y86519D01*
Y85917D01*
X27240Y85905D01*
X26952Y85475D01*
X26851Y84968D01*
X26952Y84461D01*
X27240Y84031D01*
X27670Y83743D01*
X28177Y83643D01*
X28684Y83743D01*
X29114Y84031D01*
X29402Y84461D01*
X29502Y84968D01*
X29402Y85475D01*
X29114Y85905D01*
X29096Y85917D01*
Y86519D01*
X29114Y86531D01*
X29402Y86961D01*
X29502Y87468D01*
X29402Y87975D01*
X29114Y88405D01*
X28684Y88693D01*
X28177Y88793D01*
D02*
G37*
G36*
X63594Y77840D02*
X60992D01*
X60991Y77840D01*
X60991Y77839D01*
Y69765D01*
X60991Y69764D01*
X60992Y69764D01*
X63594D01*
X63595Y69764D01*
X63595Y69765D01*
Y77839D01*
X63595Y77840D01*
X63594Y77840D01*
D02*
G37*
G36*
X59657D02*
X57055D01*
X57054Y77840D01*
X57054Y77839D01*
Y69765D01*
X57054Y69764D01*
X57055Y69764D01*
X59657D01*
X59658Y69764D01*
X59658Y69765D01*
Y77839D01*
X59658Y77840D01*
X59657Y77840D01*
D02*
G37*
G36*
X51783D02*
X49181D01*
X49180Y77840D01*
X49180Y77839D01*
Y69765D01*
X49180Y69764D01*
X49181Y69764D01*
X51783D01*
X51784Y69764D01*
X51784Y69765D01*
Y77839D01*
X51784Y77840D01*
X51783Y77840D01*
D02*
G37*
G36*
X47846D02*
X45244D01*
X45243Y77840D01*
X45243Y77839D01*
Y69765D01*
X45243Y69764D01*
X45244Y69764D01*
X47846D01*
X47847Y69764D01*
X47847Y69765D01*
Y77839D01*
X47847Y77840D01*
X47846Y77840D01*
D02*
G37*
G36*
X39972D02*
X37370D01*
X37369Y77840D01*
X37369Y77839D01*
Y69765D01*
X37369Y69764D01*
X37370Y69764D01*
X39972D01*
X39973Y69764D01*
X39973Y69765D01*
Y77839D01*
X39973Y77840D01*
X39972Y77840D01*
D02*
G37*
G36*
X36035D02*
X33433D01*
X33432Y77840D01*
X33432Y77839D01*
Y69765D01*
X33432Y69764D01*
X33433Y69764D01*
X36035D01*
X36036Y69764D01*
X36036Y69765D01*
Y77839D01*
X36036Y77840D01*
X36035Y77840D01*
D02*
G37*
G36*
X81911Y68919D02*
X81911Y68919D01*
X81911Y68919D01*
X78106D01*
X78106Y68919D01*
X78106Y68919D01*
X77932Y68911D01*
X77932Y68911D01*
X77932Y68911D01*
X77759Y68888D01*
X77759Y68888D01*
X77759Y68888D01*
X77588Y68850D01*
X77588Y68850D01*
X77588Y68850D01*
X77422Y68798D01*
X77422Y68798D01*
X77422D01*
X77261Y68731D01*
X77261Y68731D01*
X77261D01*
X77105Y68651D01*
X77105Y68651D01*
X77105Y68651D01*
X76958Y68557D01*
X76958Y68557D01*
X76958Y68557D01*
X76820Y68451D01*
X76820Y68451D01*
X76820Y68451D01*
X76691Y68333D01*
X76691Y68333D01*
X76691Y68333D01*
X76573Y68204D01*
X76573Y68204D01*
X76573Y68204D01*
X76467Y68066D01*
X76467Y68066D01*
X76467Y68066D01*
X76373Y67919D01*
X76373Y67918D01*
X76373Y67918D01*
X76292Y67764D01*
Y67764D01*
X76292Y67763D01*
X76226Y67602D01*
Y67602D01*
X76226Y67602D01*
X76173Y67435D01*
X76173Y67435D01*
X76173Y67435D01*
X76135Y67265D01*
X76135Y67265D01*
X76135Y67265D01*
X76113Y67092D01*
X76113Y67092D01*
X76113Y67092D01*
X76105Y66918D01*
X76105Y66918D01*
X76105Y66918D01*
X76113Y66743D01*
X76113Y66743D01*
X76113Y66743D01*
X76135Y66570D01*
X76135Y66570D01*
X76135Y66570D01*
X76173Y66400D01*
X76173Y66400D01*
Y66400D01*
X76226Y66234D01*
X76226Y66234D01*
Y66234D01*
X76292Y66072D01*
X76292Y66072D01*
X76292Y66071D01*
X76373Y65917D01*
X76373Y65917D01*
X76373Y65917D01*
X76467Y65769D01*
X76467Y65769D01*
X76467Y65769D01*
X76573Y65631D01*
X76573Y65631D01*
X76573Y65631D01*
X76691Y65502D01*
X76691Y65502D01*
X76691Y65502D01*
X76820Y65385D01*
X76820Y65385D01*
X76820Y65385D01*
X76958Y65278D01*
X76958Y65278D01*
X76958Y65278D01*
X77105Y65185D01*
X77105Y65185D01*
X77105Y65185D01*
X77261Y65104D01*
X77261D01*
X77261Y65104D01*
X77422Y65037D01*
X77422D01*
X77422Y65037D01*
X77588Y64985D01*
X77588Y64985D01*
X77588Y64985D01*
X77759Y64947D01*
X77759Y64947D01*
X77759Y64947D01*
X77932Y64924D01*
X77932Y64924D01*
X77932Y64924D01*
X78106Y64917D01*
X78106Y64917D01*
X78106Y64917D01*
X81911D01*
X81911Y64917D01*
X81911Y64917D01*
X82086Y64924D01*
X82086Y64924D01*
X82086Y64924D01*
X82259Y64947D01*
X82259Y64947D01*
X82259Y64947D01*
X82429Y64985D01*
X82429Y64985D01*
X82429Y64985D01*
X82595Y65037D01*
X82595Y65037D01*
X82595D01*
X82757Y65104D01*
X82757Y65104D01*
X82758Y65104D01*
X82911Y65185D01*
X82911Y65185D01*
X82912Y65185D01*
X83059Y65278D01*
X83059Y65278D01*
X83059Y65278D01*
X83198Y65385D01*
X83198Y65385D01*
X83198Y65385D01*
X83326Y65502D01*
X83326Y65502D01*
X83326Y65502D01*
X83444Y65631D01*
X83444Y65631D01*
X83444Y65631D01*
X83551Y65769D01*
X83551Y65769D01*
X83551Y65769D01*
X83644Y65917D01*
X83644Y65917D01*
X83644Y65917D01*
X83725Y66071D01*
Y66072D01*
X83725Y66072D01*
X83792Y66234D01*
Y66234D01*
X83792Y66234D01*
X83844Y66400D01*
Y66400D01*
X83844Y66400D01*
X83882Y66570D01*
X83882Y66570D01*
X83882Y66570D01*
X83905Y66743D01*
X83905Y66743D01*
X83905Y66743D01*
X83912Y66918D01*
X83912Y66918D01*
X83912Y66918D01*
X83905Y67092D01*
X83905Y67092D01*
X83905Y67092D01*
X83882Y67265D01*
X83882Y67265D01*
X83882Y67265D01*
X83844Y67435D01*
X83844Y67435D01*
Y67435D01*
X83792Y67602D01*
X83792Y67602D01*
Y67602D01*
X83725Y67763D01*
X83725Y67763D01*
Y67764D01*
X83644Y67918D01*
X83644Y67918D01*
X83644Y67919D01*
X83551Y68066D01*
X83551Y68066D01*
X83551Y68066D01*
X83444Y68204D01*
X83444Y68204D01*
X83444Y68204D01*
X83326Y68333D01*
X83326Y68333D01*
X83326Y68333D01*
X83198Y68451D01*
X83198Y68451D01*
X83198Y68451D01*
X83059Y68557D01*
X83059Y68557D01*
X83059Y68557D01*
X82912Y68651D01*
X82911Y68651D01*
X82911Y68651D01*
X82758Y68731D01*
X82757D01*
X82757Y68731D01*
X82595Y68798D01*
X82595D01*
X82595Y68798D01*
X82429Y68850D01*
X82429D01*
X82429Y68850D01*
X82259Y68888D01*
X82259Y68888D01*
X82259Y68888D01*
X82086Y68911D01*
X82086Y68911D01*
X82086Y68911D01*
X81911Y68919D01*
D02*
G37*
G36*
X99328Y72129D02*
X98821Y72029D01*
X98391Y71741D01*
X98103Y71311D01*
X98002Y70804D01*
X98103Y70297D01*
X98391Y69867D01*
X98821Y69579D01*
X98924Y69559D01*
Y69049D01*
X98821Y69029D01*
X98391Y68741D01*
X98103Y68311D01*
X98002Y67804D01*
X98103Y67297D01*
X98391Y66867D01*
X98821Y66579D01*
X99328Y66479D01*
X99835Y66579D01*
X100265Y66867D01*
X100553Y67297D01*
X100654Y67804D01*
X100553Y68311D01*
X100265Y68741D01*
X99835Y69029D01*
X99732Y69049D01*
Y69559D01*
X99835Y69579D01*
X100265Y69867D01*
X100553Y70297D01*
X100654Y70804D01*
X100553Y71311D01*
X100265Y71741D01*
X99835Y72029D01*
X99328Y72129D01*
D02*
G37*
G36*
X32977Y64000D02*
X32977Y64000D01*
X32977Y64000D01*
X32802Y63992D01*
X32802Y63992D01*
X32802Y63992D01*
X32629Y63970D01*
X32629Y63970D01*
X32629Y63970D01*
X32459Y63933D01*
X32459Y63933D01*
X32459D01*
X32293Y63880D01*
X32293Y63880D01*
X32293D01*
X32131Y63814D01*
X32131Y63814D01*
X32131Y63814D01*
X31977Y63733D01*
X31977Y63733D01*
X31976Y63733D01*
X31828Y63639D01*
X31828Y63639D01*
X31828Y63639D01*
X31690Y63533D01*
X31690Y63533D01*
X31690Y63533D01*
X31561Y63415D01*
X31561Y63415D01*
X31561Y63415D01*
X31444Y63285D01*
X31444Y63285D01*
X31444Y63285D01*
X31337Y63148D01*
X31337Y63148D01*
X31337Y63148D01*
X31244Y63000D01*
X31244Y62999D01*
X31244Y62999D01*
X31163Y62845D01*
Y62844D01*
X31163Y62844D01*
X31096Y62683D01*
Y62683D01*
X31096Y62683D01*
X31044Y62517D01*
Y62517D01*
X31044Y62517D01*
X31006Y62347D01*
X31006Y62347D01*
X31006Y62347D01*
X30983Y62174D01*
X30983Y62174D01*
X30983Y62174D01*
X30976Y61999D01*
X30976Y61999D01*
X30976Y61999D01*
Y58194D01*
X30976Y58194D01*
X30976Y58194D01*
X30983Y58019D01*
X30983Y58019D01*
X30983Y58019D01*
X31006Y57847D01*
X31006Y57847D01*
X31006Y57847D01*
X31044Y57676D01*
X31044Y57676D01*
X31044Y57676D01*
X31096Y57510D01*
X31096Y57510D01*
Y57510D01*
X31163Y57349D01*
X31163Y57349D01*
Y57349D01*
X31244Y57193D01*
X31244Y57193D01*
X31244Y57193D01*
X31337Y57047D01*
X31337Y57047D01*
X31337Y57047D01*
X31444Y56907D01*
X31444Y56907D01*
X31444Y56907D01*
X31561Y56780D01*
X31561Y56780D01*
X31561Y56780D01*
X31690Y56662D01*
X31690Y56662D01*
X31690Y56662D01*
X31828Y56555D01*
X31828Y56555D01*
X31828Y56555D01*
X31976Y56462D01*
X31977Y56462D01*
X31977Y56462D01*
X32131Y56381D01*
X32131D01*
X32131Y56381D01*
X32293Y56314D01*
X32293D01*
X32293Y56314D01*
X32459Y56262D01*
X32459D01*
X32459Y56262D01*
X32629Y56223D01*
X32629Y56223D01*
X32629Y56223D01*
X32802Y56200D01*
X32802Y56200D01*
X32802Y56200D01*
X32977Y56193D01*
X32977Y56193D01*
X32977Y56193D01*
X33151Y56200D01*
X33151Y56200D01*
X33151Y56200D01*
X33324Y56223D01*
X33324Y56223D01*
X33324Y56223D01*
X33494Y56262D01*
X33494Y56262D01*
X33494D01*
X33661Y56314D01*
X33661Y56314D01*
X33661D01*
X33822Y56381D01*
X33822Y56381D01*
X33823D01*
X33977Y56462D01*
X33977Y56462D01*
X33978Y56462D01*
X34125Y56555D01*
X34125Y56555D01*
X34125Y56555D01*
X34263Y56662D01*
X34263Y56662D01*
X34263Y56662D01*
X34392Y56780D01*
X34392Y56780D01*
X34392Y56780D01*
X34510Y56907D01*
X34510Y56907D01*
X34510Y56907D01*
X34616Y57047D01*
X34616Y57047D01*
X34616Y57047D01*
X34710Y57193D01*
X34710Y57193D01*
X34710Y57193D01*
X34790Y57349D01*
Y57349D01*
X34790Y57349D01*
X34857Y57510D01*
Y57510D01*
X34857Y57510D01*
X34909Y57676D01*
X34909Y57676D01*
X34909Y57676D01*
X34947Y57847D01*
X34947Y57847D01*
X34947Y57847D01*
X34970Y58019D01*
X34970Y58019D01*
X34970Y58019D01*
X34978Y58194D01*
X34978Y58194D01*
X34978Y58194D01*
Y61999D01*
X34978Y61999D01*
X34978Y61999D01*
X34970Y62174D01*
X34970Y62174D01*
X34970Y62174D01*
X34947Y62347D01*
X34947Y62347D01*
X34947Y62347D01*
X34909Y62517D01*
X34909Y62517D01*
X34909Y62517D01*
X34857Y62683D01*
X34857Y62683D01*
Y62683D01*
X34790Y62844D01*
X34790Y62844D01*
Y62845D01*
X34710Y62999D01*
X34710Y62999D01*
X34710Y63000D01*
X34616Y63148D01*
X34616Y63148D01*
X34616Y63148D01*
X34510Y63285D01*
X34510Y63285D01*
X34510Y63285D01*
X34392Y63415D01*
X34392Y63415D01*
X34392Y63415D01*
X34263Y63533D01*
X34263Y63533D01*
X34263Y63533D01*
X34125Y63639D01*
X34125Y63639D01*
X34125Y63639D01*
X33978Y63733D01*
X33977Y63733D01*
X33977Y63733D01*
X33823Y63814D01*
X33822D01*
X33822Y63814D01*
X33661Y63880D01*
X33661D01*
X33661Y63880D01*
X33494Y63933D01*
X33494D01*
X33494Y63933D01*
X33324Y63970D01*
X33324Y63970D01*
X33324Y63970D01*
X33151Y63992D01*
X33151Y63992D01*
X33151Y63992D01*
X32977Y64000D01*
D02*
G37*
G36*
X114239Y62129D02*
X113732Y62029D01*
X113302Y61741D01*
X113014Y61311D01*
X112914Y60804D01*
X113014Y60297D01*
X113302Y59867D01*
X113732Y59579D01*
X114239Y59478D01*
X114746Y59579D01*
X115176Y59867D01*
X115464Y60297D01*
X115565Y60804D01*
X115464Y61311D01*
X115176Y61741D01*
X114746Y62029D01*
X114239Y62129D01*
D02*
G37*
G36*
X110105D02*
X109598Y62029D01*
X109168Y61741D01*
X108880Y61311D01*
X108780Y60804D01*
X108880Y60297D01*
X109168Y59867D01*
X109598Y59579D01*
X110105Y59478D01*
X110612Y59579D01*
X111042Y59867D01*
X111330Y60297D01*
X111431Y60804D01*
X111330Y61311D01*
X111042Y61741D01*
X110612Y62029D01*
X110105Y62129D01*
D02*
G37*
G36*
X114177Y58494D02*
X113670Y58393D01*
X113240Y58105D01*
X112952Y57675D01*
X112852Y57168D01*
X112952Y56661D01*
X113240Y56231D01*
X113670Y55943D01*
X114177Y55843D01*
X114684Y55943D01*
X115114Y56231D01*
X115402Y56661D01*
X115503Y57168D01*
X115402Y57675D01*
X115114Y58105D01*
X114684Y58393D01*
X114177Y58494D01*
D02*
G37*
G36*
X78716Y53797D02*
X78716Y53797D01*
X78716Y53797D01*
X74911D01*
X74911Y53797D01*
X74911Y53797D01*
X74737Y53789D01*
X74737Y53789D01*
X74737Y53789D01*
X74564Y53766D01*
X74564Y53766D01*
X74564Y53766D01*
X74393Y53728D01*
X74393Y53728D01*
X74393Y53728D01*
X74227Y53676D01*
X74227Y53676D01*
X74227D01*
X74066Y53609D01*
X74066Y53609D01*
X74066D01*
X73910Y53529D01*
X73910Y53529D01*
X73910Y53529D01*
X73763Y53435D01*
X73763Y53435D01*
X73763Y53435D01*
X73625Y53329D01*
X73625Y53329D01*
X73625Y53329D01*
X73496Y53211D01*
X73496Y53211D01*
X73496Y53211D01*
X73378Y53082D01*
X73378Y53082D01*
X73378Y53082D01*
X73272Y52944D01*
X73272Y52944D01*
X73272Y52944D01*
X73178Y52797D01*
X73178Y52797D01*
X73178Y52797D01*
X73097Y52641D01*
Y52641D01*
X73097Y52641D01*
X73031Y52480D01*
Y52480D01*
X73031Y52480D01*
X72978Y52313D01*
X72978Y52313D01*
X72978Y52313D01*
X72940Y52143D01*
X72940Y52143D01*
X72940Y52143D01*
X72918Y51970D01*
X72918Y51970D01*
X72918Y51970D01*
X72910Y51796D01*
X72910Y51796D01*
X72910Y51796D01*
X72918Y51621D01*
X72918Y51621D01*
X72918Y51621D01*
X72940Y51448D01*
X72940Y51448D01*
X72940Y51448D01*
X72978Y51278D01*
X72978Y51278D01*
Y51278D01*
X73031Y51112D01*
X73031Y51112D01*
Y51112D01*
X73097Y50950D01*
X73097Y50950D01*
X73097Y50950D01*
X73178Y50796D01*
X73178Y50796D01*
X73178Y50795D01*
X73272Y50647D01*
X73272Y50647D01*
X73272Y50647D01*
X73378Y50509D01*
X73378Y50509D01*
X73378Y50509D01*
X73496Y50380D01*
X73496Y50380D01*
X73496Y50380D01*
X73625Y50263D01*
X73625Y50263D01*
X73625Y50263D01*
X73763Y50156D01*
X73763Y50156D01*
X73763Y50156D01*
X73910Y50063D01*
X73910Y50063D01*
X73910Y50063D01*
X74066Y49982D01*
X74066D01*
X74066Y49982D01*
X74227Y49915D01*
X74227D01*
X74227Y49915D01*
X74393Y49863D01*
X74393Y49863D01*
X74393Y49863D01*
X74564Y49825D01*
X74564Y49825D01*
X74564Y49825D01*
X74737Y49802D01*
X74737Y49802D01*
X74737Y49802D01*
X74911Y49795D01*
X74911Y49795D01*
X74911Y49795D01*
X78716D01*
X78716Y49795D01*
X78716Y49795D01*
X78891Y49802D01*
X78891Y49802D01*
X78891Y49802D01*
X79064Y49825D01*
X79064Y49825D01*
X79064Y49825D01*
X79234Y49863D01*
X79234Y49863D01*
X79234Y49863D01*
X79400Y49915D01*
X79400Y49915D01*
X79400D01*
X79562Y49982D01*
X79562Y49982D01*
X79562Y49982D01*
X79716Y50063D01*
X79716Y50063D01*
X79717Y50063D01*
X79864Y50156D01*
X79864Y50156D01*
X79864Y50156D01*
X80003Y50263D01*
X80003Y50263D01*
X80003Y50263D01*
X80131Y50380D01*
X80131Y50380D01*
X80131Y50380D01*
X80249Y50509D01*
X80249Y50509D01*
X80249Y50509D01*
X80356Y50647D01*
X80356Y50647D01*
X80356Y50647D01*
X80449Y50795D01*
X80449Y50796D01*
X80449Y50796D01*
X80530Y50950D01*
Y50950D01*
X80530Y50950D01*
X80597Y51112D01*
Y51112D01*
X80597Y51112D01*
X80649Y51278D01*
Y51278D01*
X80649Y51278D01*
X80687Y51448D01*
X80687Y51448D01*
X80687Y51448D01*
X80710Y51621D01*
X80710Y51621D01*
X80710Y51621D01*
X80717Y51796D01*
X80717Y51796D01*
X80717Y51796D01*
X80710Y51970D01*
X80710Y51970D01*
X80710Y51970D01*
X80687Y52143D01*
X80687Y52143D01*
X80687Y52143D01*
X80649Y52313D01*
X80649Y52313D01*
Y52313D01*
X80597Y52480D01*
X80597Y52480D01*
Y52480D01*
X80530Y52641D01*
X80530Y52641D01*
Y52641D01*
X80449Y52797D01*
X80449Y52797D01*
X80449Y52797D01*
X80356Y52944D01*
X80356Y52944D01*
X80356Y52944D01*
X80249Y53082D01*
X80249Y53082D01*
X80249Y53082D01*
X80131Y53211D01*
X80131Y53211D01*
X80131Y53211D01*
X80003Y53329D01*
X80003Y53329D01*
X80003Y53329D01*
X79864Y53435D01*
X79864Y53435D01*
X79864Y53435D01*
X79717Y53529D01*
X79716Y53529D01*
X79716Y53529D01*
X79562Y53609D01*
X79562D01*
X79562Y53609D01*
X79400Y53676D01*
X79400D01*
X79400Y53676D01*
X79234Y53728D01*
X79234D01*
X79234Y53728D01*
X79064Y53766D01*
X79064Y53766D01*
X79064Y53766D01*
X78891Y53789D01*
X78891Y53789D01*
X78891Y53789D01*
X78716Y53797D01*
D02*
G37*
G36*
X110177Y55902D02*
X109670Y55801D01*
X109240Y55513D01*
X108952Y55083D01*
X108852Y54576D01*
X108952Y54069D01*
X109240Y53639D01*
X109670Y53351D01*
X110177Y53251D01*
X110684Y53351D01*
X111114Y53639D01*
X111401Y54069D01*
X111502Y54576D01*
X111401Y55083D01*
X111114Y55513D01*
X110684Y55801D01*
X110177Y55902D01*
D02*
G37*
G36*
X107077Y50994D02*
X106570Y50893D01*
X106140Y50605D01*
X106128Y50587D01*
X105526D01*
X105514Y50605D01*
X105084Y50893D01*
X104577Y50994D01*
X104070Y50893D01*
X103640Y50605D01*
X103352Y50175D01*
X103252Y49668D01*
X103352Y49161D01*
X103640Y48731D01*
X104070Y48443D01*
X104577Y48342D01*
X105084Y48443D01*
X105514Y48731D01*
X105526Y48749D01*
X106128D01*
X106140Y48731D01*
X106570Y48443D01*
X107077Y48342D01*
X107584Y48443D01*
X108014Y48731D01*
X108302Y49161D01*
X108403Y49668D01*
X108302Y50175D01*
X108014Y50605D01*
X107584Y50893D01*
X107077Y50994D01*
D02*
G37*
G36*
X49637Y47118D02*
X49637Y47118D01*
X49636Y47118D01*
X49461Y47110D01*
X49461Y47110D01*
X49461Y47110D01*
X49288Y47088D01*
X49288Y47088D01*
X49288Y47088D01*
X49118Y47050D01*
X49118Y47050D01*
X49118D01*
X48952Y46997D01*
X48952Y46997D01*
X48952D01*
X48790Y46931D01*
X48790Y46931D01*
X48790Y46931D01*
X48636Y46850D01*
X48636Y46850D01*
X48636Y46850D01*
X48488Y46756D01*
X48488Y46756D01*
X48488Y46755D01*
X48350Y46650D01*
X48350Y46650D01*
X48350Y46650D01*
X48221Y46532D01*
X48221Y46531D01*
X48221Y46531D01*
X48104Y46402D01*
X48104Y46402D01*
X48104Y46402D01*
X47997Y46264D01*
X47997Y46264D01*
X47997Y46264D01*
X47904Y46117D01*
X47903Y46117D01*
X47903Y46117D01*
X47822Y45962D01*
Y45962D01*
X47822Y45962D01*
X47756Y45801D01*
Y45801D01*
X47755Y45801D01*
X47703Y45635D01*
X47703Y45635D01*
X47703Y45635D01*
X47665Y45464D01*
X47665Y45464D01*
X47665Y45464D01*
X47642Y45291D01*
X47642Y45291D01*
X47642Y45291D01*
X47635Y45117D01*
X47635Y45117D01*
X47635Y45117D01*
Y41312D01*
X47635Y41312D01*
X47635Y41312D01*
X47642Y41137D01*
X47642Y41137D01*
X47642Y41137D01*
X47665Y40964D01*
X47665Y40964D01*
X47665Y40964D01*
X47703Y40793D01*
X47703Y40793D01*
X47703Y40793D01*
X47755Y40627D01*
X47756Y40627D01*
Y40627D01*
X47822Y40465D01*
X47822Y40465D01*
X47822Y40465D01*
X47903Y40311D01*
X47903Y40311D01*
X47904Y40311D01*
X47997Y40164D01*
X47997Y40164D01*
X47997Y40164D01*
X48104Y40025D01*
X48104Y40025D01*
X48104Y40025D01*
X48221Y39897D01*
X48221Y39897D01*
X48221Y39897D01*
X48350Y39779D01*
X48350Y39779D01*
X48350Y39779D01*
X48488Y39672D01*
X48488Y39672D01*
X48488Y39672D01*
X48636Y39579D01*
X48636Y39579D01*
X48636Y39579D01*
X48790Y39498D01*
X48790D01*
X48790Y39498D01*
X48952Y39431D01*
X48952D01*
X48952Y39431D01*
X49118Y39379D01*
X49118D01*
X49118Y39379D01*
X49288Y39341D01*
X49288Y39341D01*
X49288Y39341D01*
X49461Y39318D01*
X49461Y39318D01*
X49461Y39318D01*
X49636Y39311D01*
X49637Y39311D01*
X49637Y39311D01*
X49810Y39318D01*
X49811Y39318D01*
X49811Y39318D01*
X49984Y39341D01*
X49984Y39341D01*
X49984Y39341D01*
X50154Y39379D01*
X50154Y39379D01*
X50154D01*
X50321Y39431D01*
X50321Y39431D01*
X50321D01*
X50482Y39498D01*
X50482Y39498D01*
X50482D01*
X50637Y39579D01*
X50637Y39579D01*
X50637Y39579D01*
X50784Y39672D01*
X50784Y39672D01*
X50784Y39672D01*
X50922Y39779D01*
X50922Y39779D01*
X50922Y39779D01*
X51051Y39897D01*
X51051Y39897D01*
X51051Y39897D01*
X51169Y40025D01*
X51169Y40025D01*
X51169Y40025D01*
X51275Y40164D01*
X51275Y40164D01*
X51275Y40164D01*
X51369Y40311D01*
X51369Y40311D01*
X51369Y40311D01*
X51449Y40465D01*
Y40465D01*
X51450Y40465D01*
X51516Y40627D01*
Y40627D01*
X51516Y40627D01*
X51569Y40793D01*
Y40793D01*
X51569Y40793D01*
X51607Y40964D01*
X51607Y40964D01*
X51607Y40964D01*
X51630Y41137D01*
X51630Y41137D01*
X51630Y41137D01*
X51638Y41312D01*
X51638Y41312D01*
X51638Y41312D01*
Y45117D01*
X51638Y45117D01*
X51638Y45117D01*
X51630Y45291D01*
X51630Y45291D01*
X51630Y45291D01*
X51607Y45464D01*
X51607Y45464D01*
X51607Y45464D01*
X51569Y45635D01*
X51569Y45635D01*
X51569Y45635D01*
X51516Y45801D01*
X51516Y45801D01*
Y45801D01*
X51450Y45962D01*
X51449Y45962D01*
Y45962D01*
X51369Y46117D01*
X51369Y46117D01*
X51369Y46117D01*
X51275Y46264D01*
X51275Y46264D01*
X51275Y46264D01*
X51169Y46402D01*
X51169Y46402D01*
X51169Y46402D01*
X51051Y46531D01*
X51051Y46531D01*
X51051Y46532D01*
X50922Y46650D01*
X50922Y46650D01*
X50922Y46650D01*
X50784Y46755D01*
X50784Y46756D01*
X50784Y46756D01*
X50637Y46850D01*
X50637Y46850D01*
X50637Y46850D01*
X50482Y46931D01*
X50482D01*
X50482Y46931D01*
X50321Y46997D01*
X50321D01*
X50321Y46997D01*
X50154Y47050D01*
X50154Y47050D01*
X50154Y47050D01*
X49984Y47088D01*
X49984Y47088D01*
X49984Y47088D01*
X49811Y47110D01*
X49811Y47110D01*
X49810Y47110D01*
X49637Y47118D01*
D02*
G37*
G36*
X35816Y40984D02*
X35816Y40984D01*
X35816Y40984D01*
X35641Y40976D01*
X35641Y40976D01*
X35641Y40976D01*
X35468Y40954D01*
X35468Y40954D01*
X35468Y40954D01*
X35298Y40916D01*
X35298Y40916D01*
X35298D01*
X35131Y40863D01*
X35131Y40863D01*
X35131D01*
X34969Y40797D01*
X34969Y40797D01*
X34969Y40797D01*
X34815Y40716D01*
X34815Y40716D01*
X34815Y40716D01*
X34667Y40622D01*
X34667Y40622D01*
X34667Y40622D01*
X34529Y40516D01*
X34529Y40515D01*
X34529Y40515D01*
X34400Y40397D01*
X34400Y40397D01*
X34400Y40397D01*
X34283Y40268D01*
X34283Y40268D01*
X34283Y40268D01*
X34176Y40130D01*
X34176Y40130D01*
X34176Y40130D01*
X34083Y39983D01*
X34083Y39983D01*
X34083Y39983D01*
X34002Y39828D01*
Y39828D01*
X34002Y39828D01*
X33935Y39667D01*
Y39667D01*
X33935Y39667D01*
X33883Y39501D01*
X33883Y39501D01*
X33883Y39501D01*
X33845Y39330D01*
X33845Y39330D01*
X33845Y39330D01*
X33822Y39157D01*
X33822Y39157D01*
X33822Y39157D01*
X33815Y38983D01*
X33815Y38983D01*
X33815Y38983D01*
Y35178D01*
X33815Y35178D01*
X33815Y35178D01*
X33822Y35003D01*
X33822Y35002D01*
X33822Y35002D01*
X33845Y34830D01*
X33845Y34830D01*
X33845Y34829D01*
X33883Y34659D01*
X33883Y34659D01*
X33883Y34659D01*
X33935Y34493D01*
X33935Y34493D01*
Y34493D01*
X34002Y34331D01*
X34002Y34331D01*
X34002Y34331D01*
X34083Y34177D01*
X34083Y34177D01*
X34083Y34177D01*
X34176Y34030D01*
X34176Y34030D01*
X34176Y34030D01*
X34283Y33891D01*
X34283Y33891D01*
X34283Y33891D01*
X34400Y33763D01*
X34400Y33763D01*
X34400Y33763D01*
X34529Y33645D01*
X34529Y33645D01*
X34529Y33645D01*
X34667Y33538D01*
X34667Y33538D01*
X34667Y33538D01*
X34815Y33445D01*
X34815Y33445D01*
X34815Y33445D01*
X34969Y33364D01*
X34969D01*
X34969Y33364D01*
X35131Y33297D01*
X35131D01*
X35131Y33297D01*
X35298Y33245D01*
X35298D01*
X35298Y33245D01*
X35468Y33207D01*
X35468Y33207D01*
X35468Y33207D01*
X35641Y33184D01*
X35641Y33184D01*
X35641Y33184D01*
X35816Y33176D01*
X35816Y33177D01*
X35816Y33176D01*
X35990Y33184D01*
X35990Y33184D01*
X35990Y33184D01*
X36163Y33207D01*
X36163Y33207D01*
X36163Y33207D01*
X36333Y33245D01*
X36333Y33245D01*
X36333D01*
X36500Y33297D01*
X36500Y33297D01*
X36500D01*
X36661Y33364D01*
X36661Y33364D01*
X36661D01*
X36816Y33445D01*
X36816Y33445D01*
X36816Y33445D01*
X36963Y33538D01*
X36963Y33538D01*
X36963Y33538D01*
X37102Y33645D01*
X37102Y33645D01*
X37102Y33645D01*
X37231Y33763D01*
X37231Y33763D01*
X37231Y33763D01*
X37349Y33891D01*
X37349Y33891D01*
X37349Y33891D01*
X37455Y34030D01*
X37455Y34030D01*
X37455Y34030D01*
X37549Y34177D01*
X37549Y34177D01*
X37549Y34177D01*
X37629Y34331D01*
Y34331D01*
X37629Y34331D01*
X37696Y34493D01*
Y34493D01*
X37696Y34493D01*
X37748Y34659D01*
Y34659D01*
X37748Y34659D01*
X37786Y34829D01*
X37786Y34829D01*
X37786Y34830D01*
X37809Y35002D01*
X37809Y35002D01*
X37809Y35003D01*
X37817Y35178D01*
X37817Y35178D01*
X37817Y35178D01*
Y38983D01*
X37817Y38983D01*
X37817Y38983D01*
X37809Y39157D01*
X37809Y39157D01*
X37809Y39157D01*
X37786Y39330D01*
X37786Y39330D01*
X37786Y39330D01*
X37748Y39501D01*
X37748Y39501D01*
X37748Y39501D01*
X37696Y39667D01*
X37696Y39667D01*
Y39667D01*
X37629Y39828D01*
X37629Y39828D01*
Y39828D01*
X37549Y39983D01*
X37549Y39983D01*
X37549Y39983D01*
X37455Y40130D01*
X37455Y40130D01*
X37455Y40130D01*
X37349Y40268D01*
X37349Y40268D01*
X37349Y40268D01*
X37231Y40397D01*
X37231Y40397D01*
X37231Y40397D01*
X37102Y40515D01*
X37102Y40515D01*
X37102Y40516D01*
X36963Y40622D01*
X36963Y40622D01*
X36963Y40622D01*
X36816Y40716D01*
X36816Y40716D01*
X36816Y40716D01*
X36661Y40797D01*
X36661D01*
X36661Y40797D01*
X36500Y40863D01*
X36500D01*
X36500Y40863D01*
X36333Y40916D01*
X36333Y40916D01*
X36333Y40916D01*
X36163Y40954D01*
X36163Y40954D01*
X36163Y40954D01*
X35990Y40976D01*
X35990Y40976D01*
X35990Y40976D01*
X35816Y40984D01*
D02*
G37*
G36*
X115177Y38993D02*
X114670Y38893D01*
X114240Y38605D01*
X113998Y38243D01*
X113727Y38206D01*
X113456Y38243D01*
X113214Y38605D01*
X112784Y38893D01*
X112277Y38993D01*
X111770Y38893D01*
X111340Y38605D01*
X111052Y38175D01*
X110951Y37668D01*
X111052Y37161D01*
X111340Y36731D01*
X111770Y36443D01*
X112277Y36342D01*
X112784Y36443D01*
X113214Y36731D01*
X113456Y37093D01*
X113727Y37130D01*
X113998Y37093D01*
X114240Y36731D01*
X114670Y36443D01*
X115177Y36342D01*
X115684Y36443D01*
X116114Y36731D01*
X116402Y37161D01*
X116502Y37668D01*
X116402Y38175D01*
X116114Y38605D01*
X115684Y38893D01*
X115177Y38993D01*
D02*
G37*
G36*
X95677D02*
X95170Y38893D01*
X94740Y38605D01*
X94452Y38175D01*
X94352Y37668D01*
X94452Y37161D01*
X94740Y36731D01*
X95170Y36443D01*
X95677Y36342D01*
X96184Y36443D01*
X96614Y36731D01*
X96902Y37161D01*
X97003Y37668D01*
X96902Y38175D01*
X96614Y38605D01*
X96184Y38893D01*
X95677Y38993D01*
D02*
G37*
G36*
X77563Y34661D02*
X77563Y34661D01*
X77563Y34661D01*
X73759D01*
X73759Y34661D01*
X73759Y34661D01*
X73585Y34653D01*
X73585Y34653D01*
X73585Y34653D01*
X73411Y34630D01*
X73411Y34630D01*
X73411Y34630D01*
X73241Y34592D01*
X73241Y34592D01*
X73241Y34592D01*
X73075Y34540D01*
X73075Y34540D01*
X73075D01*
X72913Y34473D01*
X72913Y34473D01*
X72913D01*
X72759Y34393D01*
X72759Y34393D01*
X72758Y34393D01*
X72610Y34299D01*
X72610Y34299D01*
X72610Y34299D01*
X72472Y34193D01*
X72472Y34193D01*
X72472Y34193D01*
X72344Y34075D01*
X72344Y34075D01*
X72344Y34075D01*
X72226Y33946D01*
X72226Y33946D01*
X72226Y33946D01*
X72119Y33808D01*
X72119Y33808D01*
X72119Y33808D01*
X72026Y33661D01*
X72026Y33661D01*
X72026Y33661D01*
X71944Y33505D01*
X71944Y33505D01*
X71944Y33505D01*
X71878Y33344D01*
Y33344D01*
X71878Y33344D01*
X71826Y33177D01*
Y33177D01*
X71826Y33177D01*
X71787Y33007D01*
X71787Y33007D01*
X71787Y33007D01*
X71766Y32834D01*
X71766Y32834D01*
X71766Y32834D01*
X71758Y32660D01*
X71758Y32660D01*
X71758Y32660D01*
X71766Y32485D01*
X71766Y32485D01*
X71766Y32485D01*
X71787Y32312D01*
X71787Y32312D01*
X71787Y32312D01*
X71826Y32142D01*
X71826Y32142D01*
X71826Y32142D01*
X71878Y31976D01*
X71878Y31976D01*
Y31976D01*
X71944Y31814D01*
X71944Y31813D01*
X71944Y31813D01*
X72026Y31659D01*
X72026Y31659D01*
X72026Y31659D01*
X72119Y31511D01*
X72119Y31511D01*
X72119Y31511D01*
X72226Y31373D01*
X72226Y31373D01*
X72226Y31373D01*
X72344Y31244D01*
X72344Y31244D01*
X72344Y31244D01*
X72472Y31127D01*
X72472Y31127D01*
X72472Y31127D01*
X72610Y31020D01*
X72610Y31020D01*
X72610Y31020D01*
X72758Y30927D01*
X72759Y30927D01*
X72759Y30927D01*
X72913Y30846D01*
X72913D01*
X72913Y30846D01*
X73075Y30779D01*
X73075D01*
X73075Y30779D01*
X73241Y30727D01*
X73241D01*
X73241Y30727D01*
X73411Y30689D01*
X73411Y30689D01*
X73411Y30689D01*
X73585Y30666D01*
X73585Y30666D01*
X73585Y30666D01*
X73759Y30659D01*
X73759Y30659D01*
X73759Y30659D01*
X77563D01*
X77563Y30659D01*
X77563Y30659D01*
X77738Y30666D01*
X77738Y30666D01*
X77738Y30666D01*
X77911Y30689D01*
X77911Y30689D01*
X77911Y30689D01*
X78081Y30727D01*
X78081Y30727D01*
X78081Y30727D01*
X78247Y30779D01*
X78247Y30779D01*
X78247D01*
X78410Y30846D01*
X78410Y30846D01*
X78411D01*
X78563Y30927D01*
X78563Y30927D01*
X78564Y30927D01*
X78712Y31020D01*
X78712Y31020D01*
X78712Y31020D01*
X78851Y31127D01*
X78851Y31127D01*
X78851Y31127D01*
X78979Y31244D01*
X78979Y31244D01*
X78979Y31244D01*
X79096Y31373D01*
X79096Y31373D01*
X79096Y31373D01*
X79204Y31511D01*
X79204Y31511D01*
X79204Y31511D01*
X79296Y31659D01*
X79296Y31659D01*
X79296Y31659D01*
X79378Y31813D01*
X79378Y31813D01*
X79378Y31814D01*
X79445Y31976D01*
Y31976D01*
X79445Y31976D01*
X79496Y32142D01*
Y32142D01*
X79496Y32142D01*
X79535Y32312D01*
X79535Y32312D01*
X79535Y32312D01*
X79557Y32485D01*
X79557Y32485D01*
X79557Y32485D01*
X79564Y32660D01*
X79564Y32660D01*
X79564Y32660D01*
X79557Y32834D01*
X79557Y32834D01*
X79557Y32834D01*
X79535Y33007D01*
X79535Y33007D01*
X79535Y33007D01*
X79496Y33177D01*
X79496Y33177D01*
Y33177D01*
X79445Y33344D01*
X79445Y33344D01*
Y33344D01*
X79378Y33505D01*
X79378Y33505D01*
X79378Y33505D01*
X79296Y33661D01*
X79296Y33661D01*
X79296Y33661D01*
X79204Y33808D01*
X79204Y33808D01*
X79204Y33808D01*
X79096Y33946D01*
X79096Y33946D01*
X79096Y33946D01*
X78979Y34075D01*
X78979Y34075D01*
X78979Y34075D01*
X78851Y34193D01*
X78851Y34193D01*
X78851Y34193D01*
X78712Y34299D01*
X78712Y34299D01*
X78712Y34299D01*
X78564Y34393D01*
X78563Y34393D01*
X78563Y34393D01*
X78411Y34473D01*
X78411D01*
X78410Y34473D01*
X78247Y34540D01*
X78247D01*
X78247Y34540D01*
X78081Y34592D01*
X78081D01*
X78081Y34592D01*
X77911Y34630D01*
X77911Y34630D01*
X77911Y34630D01*
X77738Y34653D01*
X77738Y34653D01*
X77738Y34653D01*
X77563Y34661D01*
D02*
G37*
G36*
X105177Y35493D02*
X104670Y35393D01*
X104240Y35105D01*
X103952Y34675D01*
X103851Y34168D01*
X103952Y33661D01*
X104240Y33231D01*
X104670Y32943D01*
X105177Y32842D01*
X105684Y32943D01*
X106114Y33231D01*
X106402Y33661D01*
X106502Y34168D01*
X106402Y34675D01*
X106114Y35105D01*
X105684Y35393D01*
X105177Y35493D01*
D02*
G37*
G36*
X107077Y32994D02*
X106570Y32893D01*
X106140Y32605D01*
X105852Y32175D01*
X105752Y31668D01*
X105852Y31161D01*
X106140Y30731D01*
X106570Y30443D01*
X107077Y30343D01*
X107584Y30443D01*
X108014Y30731D01*
X108302Y31161D01*
X108403Y31668D01*
X108302Y32175D01*
X108014Y32605D01*
X107584Y32893D01*
X107077Y32994D01*
D02*
G37*
G36*
X94177Y32493D02*
X93670Y32393D01*
X93240Y32105D01*
X92952Y31675D01*
X92852Y31168D01*
X92952Y30661D01*
X93240Y30231D01*
X93670Y29943D01*
X94177Y29842D01*
X94684Y29943D01*
X95114Y30231D01*
X95402Y30661D01*
X95503Y31168D01*
X95402Y31675D01*
X95114Y32105D01*
X94684Y32393D01*
X94177Y32493D01*
D02*
G37*
G36*
X117377Y31993D02*
X116870Y31893D01*
X116440Y31605D01*
X116152Y31175D01*
X116051Y30668D01*
X116152Y30161D01*
X116440Y29731D01*
X116870Y29443D01*
X117377Y29342D01*
X117884Y29443D01*
X118314Y29731D01*
X118602Y30161D01*
X118702Y30668D01*
X118602Y31175D01*
X118314Y31605D01*
X117884Y31893D01*
X117377Y31993D01*
D02*
G37*
G36*
X94177Y28629D02*
X93670Y28529D01*
X93240Y28241D01*
X92952Y27811D01*
X92852Y27304D01*
X92952Y26797D01*
X93240Y26367D01*
X93670Y26079D01*
X94177Y25978D01*
X94684Y26079D01*
X95114Y26367D01*
X95402Y26797D01*
X95503Y27304D01*
X95402Y27811D01*
X95114Y28241D01*
X94684Y28529D01*
X94177Y28629D01*
D02*
G37*
G36*
X104577Y28493D02*
X104070Y28393D01*
X103640Y28105D01*
X103352Y27675D01*
X103252Y27168D01*
X103352Y26661D01*
X103640Y26231D01*
X104070Y25943D01*
X104577Y25842D01*
X105084Y25943D01*
X105514Y26231D01*
X105802Y26661D01*
X105903Y27168D01*
X105802Y27675D01*
X105514Y28105D01*
X105084Y28393D01*
X104577Y28493D01*
D02*
G37*
G36*
X89677Y25793D02*
X89170Y25693D01*
X88740Y25405D01*
X88452Y24975D01*
X88352Y24468D01*
X88452Y23961D01*
X88740Y23531D01*
X89170Y23243D01*
X89677Y23143D01*
X90184Y23243D01*
X90614Y23531D01*
X90902Y23961D01*
X91003Y24468D01*
X90902Y24975D01*
X90614Y25405D01*
X90184Y25693D01*
X89677Y25793D01*
D02*
G37*
G36*
Y21793D02*
X89170Y21693D01*
X88740Y21405D01*
X88452Y20975D01*
X88352Y20468D01*
X88452Y19961D01*
X88740Y19531D01*
X89170Y19243D01*
X89677Y19142D01*
X90184Y19243D01*
X90614Y19531D01*
X90902Y19961D01*
X91003Y20468D01*
X90902Y20975D01*
X90614Y21405D01*
X90184Y21693D01*
X89677Y21793D01*
D02*
G37*
G36*
X86177D02*
X85670Y21693D01*
X85240Y21405D01*
X84952Y20975D01*
X84851Y20468D01*
X84952Y19961D01*
X85240Y19531D01*
X85670Y19243D01*
X86177Y19142D01*
X86684Y19243D01*
X87114Y19531D01*
X87402Y19961D01*
X87502Y20468D01*
X87402Y20975D01*
X87114Y21405D01*
X86684Y21693D01*
X86177Y21793D01*
D02*
G37*
G36*
X95433Y-5474D02*
X94455Y-5669D01*
X93625Y-6223D01*
X93071Y-7053D01*
X92876Y-8032D01*
X93071Y-9010D01*
X93625Y-9840D01*
X94455Y-10394D01*
X95433Y-10588D01*
X96412Y-10394D01*
X97241Y-9840D01*
X97795Y-9010D01*
X97990Y-8032D01*
X97795Y-7053D01*
X97241Y-6223D01*
X96412Y-5669D01*
X95433Y-5474D01*
D02*
G37*
G36*
X22677D02*
X21699Y-5669D01*
X20869Y-6223D01*
X20315Y-7053D01*
X20120Y-8032D01*
X20315Y-9010D01*
X20869Y-9840D01*
X21699Y-10394D01*
X22677Y-10588D01*
X23656Y-10394D01*
X24485Y-9840D01*
X25040Y-9010D01*
X25234Y-8032D01*
X25040Y-7053D01*
X24485Y-6223D01*
X23656Y-5669D01*
X22677Y-5474D01*
D02*
G37*
G36*
X60958Y-16010D02*
X60958Y-16010D01*
X60958Y-16010D01*
X57153D01*
X57153Y-16010D01*
X57153Y-16010D01*
X56979Y-16018D01*
X56979Y-16018D01*
X56979Y-16018D01*
X56806Y-16041D01*
X56806Y-16041D01*
X56806Y-16041D01*
X56635Y-16079D01*
X56635Y-16079D01*
X56635Y-16079D01*
X56469Y-16131D01*
X56469Y-16131D01*
X56469D01*
X56308Y-16198D01*
X56308Y-16198D01*
X56308D01*
X56152Y-16278D01*
X56152Y-16278D01*
X56152Y-16278D01*
X56005Y-16372D01*
X56005Y-16372D01*
X56005Y-16372D01*
X55867Y-16478D01*
X55867Y-16478D01*
X55867Y-16478D01*
X55738Y-16596D01*
X55738Y-16596D01*
X55738Y-16596D01*
X55620Y-16725D01*
X55620Y-16725D01*
X55620Y-16725D01*
X55514Y-16863D01*
X55514Y-16863D01*
X55514Y-16863D01*
X55420Y-17010D01*
X55420Y-17010D01*
X55420Y-17010D01*
X55339Y-17165D01*
Y-17165D01*
X55339Y-17166D01*
X55273Y-17327D01*
Y-17327D01*
X55273Y-17327D01*
X55220Y-17494D01*
X55220Y-17494D01*
X55220Y-17494D01*
X55182Y-17664D01*
X55182Y-17664D01*
X55182Y-17664D01*
X55160Y-17837D01*
X55160Y-17837D01*
X55160Y-17837D01*
X55152Y-18011D01*
X55152Y-18011D01*
X55152Y-18011D01*
X55160Y-18186D01*
X55160Y-18186D01*
X55160Y-18186D01*
X55182Y-18359D01*
X55182Y-18359D01*
X55182Y-18359D01*
X55220Y-18529D01*
X55220Y-18529D01*
Y-18529D01*
X55273Y-18695D01*
X55273Y-18695D01*
Y-18695D01*
X55339Y-18857D01*
X55339Y-18857D01*
X55339Y-18857D01*
X55420Y-19012D01*
X55420Y-19012D01*
X55420Y-19012D01*
X55514Y-19160D01*
X55514Y-19160D01*
X55514Y-19160D01*
X55620Y-19298D01*
X55620Y-19298D01*
X55620Y-19298D01*
X55738Y-19427D01*
X55738Y-19427D01*
X55738Y-19427D01*
X55867Y-19544D01*
X55867Y-19544D01*
X55867Y-19544D01*
X56005Y-19651D01*
X56005Y-19651D01*
X56005Y-19651D01*
X56152Y-19744D01*
X56152Y-19744D01*
X56152Y-19744D01*
X56308Y-19825D01*
X56308D01*
X56308Y-19825D01*
X56469Y-19892D01*
X56469D01*
X56469Y-19892D01*
X56635Y-19944D01*
X56635Y-19944D01*
X56635Y-19944D01*
X56806Y-19982D01*
X56806Y-19982D01*
X56806Y-19982D01*
X56979Y-20005D01*
X56979Y-20005D01*
X56979Y-20005D01*
X57153Y-20012D01*
X57153Y-20012D01*
X57153Y-20012D01*
X60958D01*
X60958Y-20012D01*
X60958Y-20012D01*
X61133Y-20005D01*
X61133Y-20005D01*
X61133Y-20005D01*
X61306Y-19982D01*
X61306Y-19982D01*
X61306Y-19982D01*
X61476Y-19944D01*
X61476Y-19944D01*
X61476Y-19944D01*
X61642Y-19892D01*
X61642Y-19892D01*
X61642D01*
X61804Y-19825D01*
X61804Y-19825D01*
X61804Y-19825D01*
X61958Y-19744D01*
X61958Y-19744D01*
X61959Y-19744D01*
X62106Y-19651D01*
X62106Y-19651D01*
X62106Y-19651D01*
X62245Y-19544D01*
X62245Y-19544D01*
X62245Y-19544D01*
X62373Y-19427D01*
X62373Y-19427D01*
X62373Y-19427D01*
X62491Y-19298D01*
X62491Y-19298D01*
X62491Y-19298D01*
X62598Y-19160D01*
X62598Y-19160D01*
X62598Y-19160D01*
X62691Y-19012D01*
X62691Y-19012D01*
X62691Y-19012D01*
X62772Y-18857D01*
Y-18857D01*
X62772Y-18857D01*
X62839Y-18695D01*
Y-18695D01*
X62839Y-18695D01*
X62891Y-18529D01*
Y-18529D01*
X62891Y-18529D01*
X62929Y-18359D01*
X62929Y-18359D01*
X62929Y-18359D01*
X62952Y-18186D01*
X62952Y-18186D01*
X62952Y-18186D01*
X62959Y-18011D01*
X62959Y-18011D01*
X62959Y-18011D01*
X62952Y-17837D01*
X62952Y-17837D01*
X62952Y-17837D01*
X62929Y-17664D01*
X62929Y-17664D01*
X62929Y-17664D01*
X62891Y-17494D01*
X62891Y-17494D01*
Y-17494D01*
X62839Y-17327D01*
X62839Y-17327D01*
Y-17327D01*
X62772Y-17166D01*
X62772Y-17166D01*
Y-17165D01*
X62691Y-17010D01*
X62691Y-17010D01*
X62691Y-17010D01*
X62598Y-16863D01*
X62598Y-16863D01*
X62598Y-16863D01*
X62491Y-16725D01*
X62491Y-16725D01*
X62491Y-16725D01*
X62373Y-16596D01*
X62373Y-16596D01*
X62373Y-16596D01*
X62245Y-16478D01*
X62245Y-16478D01*
X62245Y-16478D01*
X62106Y-16372D01*
X62106Y-16372D01*
X62106Y-16372D01*
X61959Y-16278D01*
X61958Y-16278D01*
X61958Y-16278D01*
X61804Y-16198D01*
X61804D01*
X61804Y-16198D01*
X61642Y-16131D01*
X61642D01*
X61642Y-16131D01*
X61476Y-16079D01*
X61476D01*
X61476Y-16079D01*
X61306Y-16041D01*
X61306Y-16041D01*
X61306Y-16041D01*
X61133Y-16018D01*
X61133Y-16018D01*
X61133Y-16018D01*
X60958Y-16010D01*
D02*
G37*
G36*
X51509D02*
X51509Y-16010D01*
X51509Y-16010D01*
X47704D01*
X47704Y-16010D01*
X47704Y-16010D01*
X47529Y-16018D01*
X47529Y-16018D01*
X47529Y-16018D01*
X47356Y-16041D01*
X47356Y-16041D01*
X47356Y-16041D01*
X47186Y-16079D01*
X47186Y-16079D01*
X47186Y-16079D01*
X47020Y-16131D01*
X47020Y-16131D01*
X47020D01*
X46859Y-16198D01*
X46859Y-16198D01*
X46859D01*
X46703Y-16278D01*
X46703Y-16278D01*
X46703Y-16278D01*
X46555Y-16372D01*
X46555Y-16372D01*
X46555Y-16372D01*
X46418Y-16478D01*
X46418Y-16478D01*
X46418Y-16478D01*
X46288Y-16596D01*
X46288Y-16596D01*
X46288Y-16596D01*
X46170Y-16725D01*
X46170Y-16725D01*
X46170Y-16725D01*
X46064Y-16863D01*
X46064Y-16863D01*
X46064Y-16863D01*
X45970Y-17010D01*
X45970Y-17010D01*
X45970Y-17010D01*
X45889Y-17165D01*
Y-17165D01*
X45889Y-17166D01*
X45823Y-17327D01*
Y-17327D01*
X45823Y-17327D01*
X45770Y-17494D01*
Y-17494D01*
X45770Y-17494D01*
X45733Y-17664D01*
X45733Y-17664D01*
X45733Y-17664D01*
X45711Y-17837D01*
X45711Y-17837D01*
X45711Y-17837D01*
X45703Y-18011D01*
X45703Y-18011D01*
X45703Y-18011D01*
X45711Y-18186D01*
X45711Y-18186D01*
X45711Y-18186D01*
X45733Y-18359D01*
X45733Y-18359D01*
X45733Y-18359D01*
X45770Y-18529D01*
X45770Y-18529D01*
Y-18529D01*
X45823Y-18695D01*
X45823Y-18695D01*
Y-18695D01*
X45889Y-18857D01*
X45889Y-18857D01*
X45889Y-18857D01*
X45970Y-19012D01*
X45970Y-19012D01*
X45970Y-19012D01*
X46064Y-19160D01*
X46064Y-19160D01*
X46064Y-19160D01*
X46170Y-19298D01*
X46170Y-19298D01*
X46170Y-19298D01*
X46288Y-19427D01*
X46288Y-19427D01*
X46288Y-19427D01*
X46418Y-19544D01*
X46418Y-19544D01*
X46418Y-19544D01*
X46555Y-19651D01*
X46555Y-19651D01*
X46555Y-19651D01*
X46703Y-19744D01*
X46703Y-19744D01*
X46703Y-19744D01*
X46859Y-19825D01*
X46859D01*
X46859Y-19825D01*
X47020Y-19892D01*
X47020D01*
X47020Y-19892D01*
X47186Y-19944D01*
X47186D01*
X47186Y-19944D01*
X47356Y-19982D01*
X47356Y-19982D01*
X47356Y-19982D01*
X47529Y-20005D01*
X47529Y-20005D01*
X47529Y-20005D01*
X47704Y-20012D01*
X47704Y-20012D01*
X47704Y-20012D01*
X51509D01*
X51509Y-20012D01*
X51509Y-20012D01*
X51684Y-20005D01*
X51684Y-20005D01*
X51684Y-20005D01*
X51856Y-19982D01*
X51856Y-19982D01*
X51856Y-19982D01*
X52027Y-19944D01*
X52027Y-19944D01*
X52027Y-19944D01*
X52193Y-19892D01*
X52193Y-19892D01*
X52193D01*
X52354Y-19825D01*
X52354Y-19825D01*
X52355D01*
X52509Y-19744D01*
X52509Y-19744D01*
X52510Y-19744D01*
X52656Y-19651D01*
X52656Y-19651D01*
X52656Y-19651D01*
X52796Y-19544D01*
X52796Y-19544D01*
X52796Y-19544D01*
X52923Y-19427D01*
X52923Y-19427D01*
X52923Y-19427D01*
X53041Y-19298D01*
X53041Y-19298D01*
X53041Y-19298D01*
X53148Y-19160D01*
X53148Y-19160D01*
X53148Y-19160D01*
X53241Y-19012D01*
X53241Y-19012D01*
X53241Y-19012D01*
X53322Y-18857D01*
Y-18857D01*
X53322Y-18857D01*
X53389Y-18695D01*
Y-18695D01*
X53389Y-18695D01*
X53441Y-18529D01*
Y-18529D01*
X53441Y-18529D01*
X53480Y-18359D01*
X53480Y-18359D01*
X53480Y-18359D01*
X53503Y-18186D01*
X53503Y-18186D01*
X53503Y-18186D01*
X53510Y-18011D01*
X53510Y-18011D01*
X53510Y-18011D01*
X53503Y-17837D01*
X53503Y-17837D01*
X53503Y-17837D01*
X53480Y-17664D01*
X53480Y-17664D01*
X53480Y-17664D01*
X53441Y-17494D01*
X53441Y-17494D01*
Y-17494D01*
X53389Y-17327D01*
X53389Y-17327D01*
Y-17327D01*
X53322Y-17166D01*
X53322Y-17166D01*
Y-17165D01*
X53241Y-17010D01*
X53241Y-17010D01*
X53241Y-17010D01*
X53148Y-16863D01*
X53148Y-16863D01*
X53148Y-16863D01*
X53041Y-16725D01*
X53041Y-16725D01*
X53041Y-16725D01*
X52923Y-16596D01*
X52923Y-16596D01*
X52923Y-16596D01*
X52796Y-16478D01*
X52796Y-16478D01*
X52796Y-16478D01*
X52656Y-16372D01*
X52656Y-16372D01*
X52656Y-16372D01*
X52510Y-16278D01*
X52509Y-16278D01*
X52509Y-16278D01*
X52355Y-16198D01*
X52354D01*
X52354Y-16198D01*
X52193Y-16131D01*
X52193D01*
X52193Y-16131D01*
X52027Y-16079D01*
X52027Y-16079D01*
X52027Y-16079D01*
X51856Y-16041D01*
X51856Y-16041D01*
X51856Y-16041D01*
X51684Y-16018D01*
X51684Y-16018D01*
X51684Y-16018D01*
X51509Y-16010D01*
D02*
G37*
G36*
X42061D02*
X42061Y-16010D01*
X42061Y-16010D01*
X38256D01*
X38256Y-16010D01*
X38256Y-16010D01*
X38081Y-16018D01*
X38081Y-16018D01*
X38081Y-16018D01*
X37908Y-16041D01*
X37908Y-16041D01*
X37908Y-16041D01*
X37738Y-16079D01*
X37738Y-16079D01*
X37738Y-16079D01*
X37572Y-16131D01*
X37572Y-16131D01*
X37572D01*
X37411Y-16198D01*
X37411Y-16198D01*
X37411D01*
X37255Y-16278D01*
X37255Y-16278D01*
X37255Y-16278D01*
X37107Y-16372D01*
X37107Y-16372D01*
X37107Y-16372D01*
X36970Y-16478D01*
X36970Y-16478D01*
X36970Y-16478D01*
X36840Y-16596D01*
X36840Y-16596D01*
X36840Y-16596D01*
X36722Y-16725D01*
X36722Y-16725D01*
X36722Y-16725D01*
X36616Y-16863D01*
X36616Y-16863D01*
X36616Y-16863D01*
X36522Y-17010D01*
X36522Y-17010D01*
X36522Y-17010D01*
X36441Y-17165D01*
Y-17165D01*
X36441Y-17166D01*
X36375Y-17327D01*
Y-17327D01*
X36375Y-17327D01*
X36322Y-17494D01*
Y-17494D01*
X36322Y-17494D01*
X36285Y-17664D01*
X36285Y-17664D01*
X36285Y-17664D01*
X36263Y-17837D01*
X36263Y-17837D01*
X36263Y-17837D01*
X36255Y-18011D01*
X36255Y-18011D01*
X36255Y-18011D01*
X36263Y-18186D01*
X36263Y-18186D01*
X36263Y-18186D01*
X36285Y-18359D01*
X36285Y-18359D01*
X36285Y-18359D01*
X36322Y-18529D01*
X36322Y-18529D01*
Y-18529D01*
X36375Y-18695D01*
X36375Y-18695D01*
Y-18695D01*
X36441Y-18857D01*
X36441Y-18857D01*
X36441Y-18857D01*
X36522Y-19012D01*
X36522Y-19012D01*
X36522Y-19012D01*
X36616Y-19160D01*
X36616Y-19160D01*
X36616Y-19160D01*
X36722Y-19298D01*
X36722Y-19298D01*
X36722Y-19298D01*
X36840Y-19427D01*
X36840Y-19427D01*
X36840Y-19427D01*
X36970Y-19544D01*
X36970Y-19544D01*
X36970Y-19544D01*
X37107Y-19651D01*
X37107Y-19651D01*
X37107Y-19651D01*
X37255Y-19744D01*
X37255Y-19744D01*
X37255Y-19744D01*
X37411Y-19825D01*
X37411D01*
X37411Y-19825D01*
X37572Y-19892D01*
X37572D01*
X37572Y-19892D01*
X37738Y-19944D01*
X37738D01*
X37738Y-19944D01*
X37908Y-19982D01*
X37908Y-19982D01*
X37908Y-19982D01*
X38081Y-20005D01*
X38081Y-20005D01*
X38081Y-20005D01*
X38256Y-20012D01*
X38256Y-20012D01*
X38256Y-20012D01*
X42061D01*
X42061Y-20012D01*
X42061Y-20012D01*
X42236Y-20005D01*
X42236Y-20005D01*
X42236Y-20005D01*
X42408Y-19982D01*
X42408Y-19982D01*
X42408Y-19982D01*
X42579Y-19944D01*
X42579Y-19944D01*
X42579Y-19944D01*
X42745Y-19892D01*
X42745Y-19892D01*
X42745D01*
X42906Y-19825D01*
X42906Y-19825D01*
X42906D01*
X43062Y-19744D01*
X43062Y-19744D01*
X43062Y-19744D01*
X43208Y-19651D01*
X43208Y-19651D01*
X43208Y-19651D01*
X43348Y-19544D01*
X43348Y-19544D01*
X43348Y-19544D01*
X43475Y-19427D01*
X43475Y-19427D01*
X43475Y-19427D01*
X43593Y-19298D01*
X43593Y-19298D01*
X43593Y-19298D01*
X43700Y-19160D01*
X43700Y-19160D01*
X43700Y-19160D01*
X43793Y-19012D01*
X43793Y-19012D01*
X43793Y-19012D01*
X43874Y-18857D01*
Y-18857D01*
X43874Y-18857D01*
X43941Y-18695D01*
Y-18695D01*
X43941Y-18695D01*
X43993Y-18529D01*
Y-18529D01*
X43993Y-18529D01*
X44032Y-18359D01*
X44032Y-18359D01*
X44032Y-18359D01*
X44055Y-18186D01*
X44055Y-18186D01*
X44055Y-18186D01*
X44062Y-18011D01*
X44062Y-18011D01*
X44062Y-18011D01*
X44055Y-17837D01*
X44055Y-17837D01*
X44055Y-17837D01*
X44032Y-17664D01*
X44032Y-17664D01*
X44032Y-17664D01*
X43993Y-17494D01*
X43993Y-17494D01*
Y-17494D01*
X43941Y-17327D01*
X43941Y-17327D01*
Y-17327D01*
X43874Y-17166D01*
X43874Y-17166D01*
Y-17165D01*
X43793Y-17010D01*
X43793Y-17010D01*
X43793Y-17010D01*
X43700Y-16863D01*
X43700Y-16863D01*
X43700Y-16863D01*
X43593Y-16725D01*
X43593Y-16725D01*
X43593Y-16725D01*
X43475Y-16596D01*
X43475Y-16596D01*
X43475Y-16596D01*
X43348Y-16478D01*
X43348Y-16478D01*
X43348Y-16478D01*
X43208Y-16372D01*
X43208Y-16372D01*
X43208Y-16372D01*
X43062Y-16278D01*
X43062Y-16278D01*
X43062Y-16278D01*
X42906Y-16198D01*
X42906D01*
X42906Y-16198D01*
X42745Y-16131D01*
X42745D01*
X42745Y-16131D01*
X42579Y-16079D01*
X42579Y-16079D01*
X42579Y-16079D01*
X42408Y-16041D01*
X42408Y-16041D01*
X42408Y-16041D01*
X42236Y-16018D01*
X42236Y-16018D01*
X42236Y-16018D01*
X42061Y-16010D01*
D02*
G37*
G36*
X79527Y-15206D02*
X79020Y-15307D01*
X78590Y-15595D01*
X78302Y-16025D01*
X78202Y-16532D01*
X78302Y-17039D01*
X78590Y-17469D01*
X79020Y-17757D01*
X79527Y-17857D01*
X80034Y-17757D01*
X80464Y-17469D01*
X80752Y-17039D01*
X80853Y-16532D01*
X80752Y-16025D01*
X80464Y-15595D01*
X80034Y-15307D01*
X79527Y-15206D01*
D02*
G37*
G36*
X76377D02*
X75870Y-15307D01*
X75440Y-15595D01*
X75152Y-16025D01*
X75051Y-16532D01*
X75152Y-17039D01*
X75440Y-17469D01*
X75870Y-17757D01*
X76377Y-17857D01*
X76884Y-17757D01*
X77314Y-17469D01*
X77602Y-17039D01*
X77702Y-16532D01*
X77602Y-16025D01*
X77314Y-15595D01*
X76884Y-15307D01*
X76377Y-15206D01*
D02*
G37*
G36*
X81828Y-60465D02*
X80348D01*
Y-62093D01*
X81606D01*
X81791Y-62084D01*
X81985Y-62075D01*
X82179Y-62066D01*
X82263Y-62056D01*
X82337Y-62047D01*
X82411Y-62028D01*
X82457Y-62019D01*
X82466D01*
X82494Y-62001D01*
X82540Y-61982D01*
X82586Y-61954D01*
X82707Y-61871D01*
X82762Y-61816D01*
X82818Y-61751D01*
X82827Y-61742D01*
X82836Y-61714D01*
X82864Y-61677D01*
X82892Y-61621D01*
X82910Y-61547D01*
X82938Y-61464D01*
X82947Y-61372D01*
X82956Y-61270D01*
Y-61251D01*
Y-61215D01*
X82947Y-61159D01*
X82938Y-61085D01*
X82910Y-61002D01*
X82882Y-60918D01*
X82836Y-60826D01*
X82781Y-60752D01*
X82771Y-60743D01*
X82753Y-60715D01*
X82707Y-60687D01*
X82651Y-60641D01*
X82586Y-60595D01*
X82503Y-60558D01*
X82401Y-60521D01*
X82290Y-60493D01*
X82281D01*
X82253Y-60484D01*
X82198D01*
X82115Y-60474D01*
X81911D01*
X81828Y-60465D01*
D02*
G37*
G36*
X66898D02*
X65936D01*
Y-62287D01*
X66824D01*
X66889Y-62278D01*
X67056D01*
X67222Y-62269D01*
X67389Y-62251D01*
X67537Y-62223D01*
X67601Y-62213D01*
X67657Y-62195D01*
X67666Y-62186D01*
X67703Y-62177D01*
X67749Y-62149D01*
X67805Y-62121D01*
X67870Y-62075D01*
X67934Y-62019D01*
X68008Y-61954D01*
X68064Y-61880D01*
X68073Y-61871D01*
X68092Y-61844D01*
X68110Y-61797D01*
X68138Y-61733D01*
X68166Y-61659D01*
X68193Y-61575D01*
X68203Y-61483D01*
X68212Y-61381D01*
Y-61362D01*
Y-61326D01*
X68203Y-61261D01*
X68184Y-61177D01*
X68156Y-61085D01*
X68119Y-60983D01*
X68073Y-60891D01*
X67999Y-60798D01*
X67990Y-60789D01*
X67962Y-60761D01*
X67916Y-60724D01*
X67860Y-60678D01*
X67786Y-60623D01*
X67694Y-60576D01*
X67592Y-60539D01*
X67481Y-60511D01*
X67472D01*
X67435Y-60502D01*
X67370Y-60493D01*
X67278Y-60484D01*
X67157D01*
X67074Y-60474D01*
X66991D01*
X66898Y-60465D01*
D02*
G37*
G36*
X53005Y-60465D02*
X51525D01*
Y-62093D01*
X52783D01*
X52968Y-62084D01*
X53162Y-62075D01*
X53356Y-62066D01*
X53440Y-62056D01*
X53514Y-62047D01*
X53588Y-62028D01*
X53634Y-62019D01*
X53643D01*
X53671Y-62001D01*
X53717Y-61982D01*
X53763Y-61954D01*
X53884Y-61871D01*
X53939Y-61816D01*
X53995Y-61751D01*
X54004Y-61742D01*
X54013Y-61714D01*
X54041Y-61677D01*
X54069Y-61621D01*
X54087Y-61547D01*
X54115Y-61464D01*
X54124Y-61372D01*
X54133Y-61270D01*
Y-61251D01*
Y-61215D01*
X54124Y-61159D01*
X54115Y-61085D01*
X54087Y-61002D01*
X54059Y-60918D01*
X54013Y-60826D01*
X53958Y-60752D01*
X53948Y-60743D01*
X53930Y-60715D01*
X53884Y-60687D01*
X53828Y-60641D01*
X53763Y-60595D01*
X53680Y-60558D01*
X53578Y-60521D01*
X53467Y-60493D01*
X53458D01*
X53430Y-60484D01*
X53375D01*
X53292Y-60474D01*
X53088D01*
X53005Y-60465D01*
D02*
G37*
G36*
X34338Y-60872D02*
X33469Y-63249D01*
X35236D01*
X34338Y-60872D01*
D02*
G37*
%LPD*%
D27*
X46837Y40588D02*
D03*
Y46088D02*
D03*
X57357Y44602D02*
D03*
X51818Y36100D02*
D03*
X-4823Y-18032D02*
D03*
Y-13032D02*
D03*
Y10968D02*
D03*
Y18968D02*
D03*
Y26968D02*
D03*
Y34968D02*
D03*
Y42968D02*
D03*
Y50968D02*
D03*
Y58968D02*
D03*
Y66968D02*
D03*
Y74968D02*
D03*
Y82968D02*
D03*
Y90968D02*
D03*
X-4813Y-6313D02*
D03*
X-1945Y-21100D02*
D03*
Y98300D02*
D03*
X6055Y-21100D02*
D03*
Y-13100D02*
D03*
Y-5100D02*
D03*
Y10900D02*
D03*
Y18900D02*
D03*
Y26900D02*
D03*
Y34900D02*
D03*
Y42900D02*
D03*
Y50900D02*
D03*
Y58900D02*
D03*
Y66900D02*
D03*
Y74900D02*
D03*
Y82900D02*
D03*
Y90900D02*
D03*
Y98300D02*
D03*
X14055Y-21100D02*
D03*
Y98300D02*
D03*
X21055Y2900D02*
D03*
Y10900D02*
D03*
Y18900D02*
D03*
Y26900D02*
D03*
Y34900D02*
D03*
Y42900D02*
D03*
Y50900D02*
D03*
X22055Y-21100D02*
D03*
Y98300D02*
D03*
X29055Y-5100D02*
D03*
Y2900D02*
D03*
Y18900D02*
D03*
Y26900D02*
D03*
Y34900D02*
D03*
Y42900D02*
D03*
Y50900D02*
D03*
X30055Y-21100D02*
D03*
Y98300D02*
D03*
X30177Y57468D02*
D03*
Y62968D02*
D03*
X30797Y67804D02*
D03*
X33177Y66468D02*
D03*
X33016Y34453D02*
D03*
Y39953D02*
D03*
X34829Y54568D02*
D03*
X35432Y-7432D02*
D03*
X35433Y-17400D02*
D03*
X35434Y16900D02*
D03*
X35829Y-2932D02*
D03*
X36829Y3068D02*
D03*
X38055Y-21100D02*
D03*
X39294Y27052D02*
D03*
X39329Y7068D02*
D03*
X40829Y54068D02*
D03*
X41177Y21468D02*
D03*
X42608Y68024D02*
D03*
X43177Y32968D02*
D03*
X43609Y18605D02*
D03*
X44880Y-7432D02*
D03*
X44882Y-16900D02*
D03*
X45329Y-2932D02*
D03*
X46055Y-21100D02*
D03*
X47829Y3068D02*
D03*
X49913Y51179D02*
D03*
X50329Y7068D02*
D03*
X50482Y79504D02*
D03*
X51881Y62164D02*
D03*
X54055Y-21100D02*
D03*
X54329Y-7432D02*
D03*
X54331Y-16900D02*
D03*
Y16900D02*
D03*
X54418Y79504D02*
D03*
X55329Y-2932D02*
D03*
X58329Y2568D02*
D03*
X61177Y35468D02*
D03*
X61829Y53068D02*
D03*
X62055Y-21100D02*
D03*
X62293Y79504D02*
D03*
X62329Y7068D02*
D03*
X63778Y-7432D02*
D03*
X63779Y-16900D02*
D03*
Y16900D02*
D03*
X64177Y22968D02*
D03*
X64453Y63116D02*
D03*
X66229Y79504D02*
D03*
X66898Y44862D02*
D03*
X70055Y-21100D02*
D03*
X70177Y-3532D02*
D03*
X70829Y2568D02*
D03*
X72829Y7068D02*
D03*
X72888Y29707D02*
D03*
X73228Y-16900D02*
D03*
Y16900D02*
D03*
X74040Y48843D02*
D03*
X74103Y67742D02*
D03*
X75677Y20968D02*
D03*
X77236Y63965D02*
D03*
X78055Y-21100D02*
D03*
X78177Y-3532D02*
D03*
Y5968D02*
D03*
X78388Y29707D02*
D03*
X79540Y48843D02*
D03*
X79677Y25468D02*
D03*
X80177Y36468D02*
D03*
Y44468D02*
D03*
X82736Y63965D02*
D03*
X85914Y79504D02*
D03*
X86055Y-21100D02*
D03*
X86177Y-3532D02*
D03*
Y5968D02*
D03*
X88177Y36468D02*
D03*
Y44468D02*
D03*
Y52468D02*
D03*
Y60468D02*
D03*
X90677Y87168D02*
D03*
Y90168D02*
D03*
X94055Y-21100D02*
D03*
Y-13100D02*
D03*
X94177Y-3532D02*
D03*
Y5968D02*
D03*
Y13968D02*
D03*
X97677Y52468D02*
D03*
Y60468D02*
D03*
X101977Y27304D02*
D03*
X102055Y-21100D02*
D03*
Y-13100D02*
D03*
Y-5100D02*
D03*
Y2900D02*
D03*
X102177Y13968D02*
D03*
X105960Y62668D02*
D03*
X110055Y-21100D02*
D03*
Y-13100D02*
D03*
Y-5100D02*
D03*
Y2900D02*
D03*
Y10900D02*
D03*
X111677Y26168D02*
D03*
X114777D02*
D03*
X114984Y54475D02*
D03*
X118055Y-21100D02*
D03*
Y-13100D02*
D03*
M02*
